<?xml version="1.0" encoding="UTF-8" standalone="no"?>
<!DOCTYPE svg PUBLIC "-//W3C//DTD SVG 1.1//EN"
 "http://www.w3.org/Graphics/SVG/1.1/DTD/svg11.dtd">
<!-- Generated by graphviz version 2.47.1 (20210417.1919)
 -->
<!-- Pages: 1 -->
<svg width="165pt" height="156pt"
 viewBox="0.00 0.00 165.50 156.06" xmlns="http://www.w3.org/2000/svg" xmlns:xlink="http://www.w3.org/1999/xlink">
<g id="graph0" class="graph" transform="scale(1 1) rotate(0) translate(4 152.06)">
<polygon fill="white" stroke="transparent" points="-4,4 -4,-152.06 161.5,-152.06 161.5,4 -4,4"/>
<!-- &#45;1 -->
<g id="node1" class="node">
<title>&#45;1</title>
<polygon fill="lightgray" stroke="black" points="23.75,-100.66 -0.25,-100.66 -0.25,-82.06 23.75,-82.06 23.75,-100.66"/>
<text text-anchor="middle" x="11.75" y="-88.66" font-family="Times,serif" font-size="9.00">&#45;1</text>
</g>
<!-- 0 -->
<g id="node5" class="node">
<title>0</title>
<ellipse fill="lightblue" stroke="black" cx="109.34" cy="-107.52" rx="14.49" ry="14.49"/>
<text text-anchor="middle" x="109.34" y="-104.82" font-family="Times,serif" font-size="9.00">0</text>
</g>
<!-- &#45;1&#45;&gt;0 -->
<g id="edge1" class="edge">
<title>&#45;1&#45;&gt;0</title>
<path fill="none" stroke="red" stroke-width="0.27" d="M23.72,-93.34C38.83,-95.85 65.22,-100.21 84.72,-103.44"/>
<polygon fill="red" stroke="red" stroke-width="0.27" points="84.29,-106.92 94.73,-105.1 85.44,-100.01 84.29,-106.92"/>
<text text-anchor="middle" x="47.76" y="-99.89" font-family="Times,serif" font-size="5.00">&#45;0.832</text>
</g>
<!-- 1 -->
<g id="node6" class="node">
<title>1</title>
<ellipse fill="lightblue" stroke="black" cx="78.93" cy="-74.53" rx="14.49" ry="14.49"/>
<text text-anchor="middle" x="78.93" y="-71.83" font-family="Times,serif" font-size="9.00">1</text>
</g>
<!-- &#45;1&#45;&gt;1 -->
<g id="edge2" class="edge">
<title>&#45;1&#45;&gt;1</title>
<path fill="none" stroke="red" stroke-width="0.43" d="M23.76,-88.35C32.36,-86.2 44.24,-83.22 54.78,-80.58"/>
<polygon fill="red" stroke="red" stroke-width="0.43" points="55.84,-83.92 64.69,-78.1 54.14,-77.13 55.84,-83.92"/>
<text text-anchor="middle" x="32.81" y="-85.97" font-family="Times,serif" font-size="5.00">&#45;1.658</text>
</g>
<!-- 2 -->
<g id="node7" class="node">
<title>2</title>
<ellipse fill="lightblue" stroke="black" cx="48.77" cy="-39.96" rx="14.49" ry="14.49"/>
<text text-anchor="middle" x="48.77" y="-37.26" font-family="Times,serif" font-size="9.00">2</text>
</g>
<!-- &#45;1&#45;&gt;2 -->
<g id="edge3" class="edge">
<title>&#45;1&#45;&gt;2</title>
<path fill="none" stroke="red" stroke-width="0.21" d="M18.54,-81.93C22.92,-75.85 28.79,-67.7 34.19,-60.2"/>
<polygon fill="red" stroke="red" stroke-width="0.21" points="37.2,-62.02 40.2,-51.86 31.52,-57.93 37.2,-62.02"/>
<text text-anchor="middle" x="19.91" y="-72.57" font-family="Times,serif" font-size="5.00">&#45;0.561</text>
</g>
<!-- &#45;2 -->
<g id="node2" class="node">
<title>&#45;2</title>
<polygon fill="lightgray" stroke="black" points="157.75,-64.47 133.75,-64.47 133.75,-45.87 157.75,-45.87 157.75,-64.47"/>
<text text-anchor="middle" x="145.75" y="-52.47" font-family="Times,serif" font-size="9.00">&#45;2</text>
</g>
<!-- &#45;2&#45;&gt;0 -->
<g id="edge4" class="edge">
<title>&#45;2&#45;&gt;0</title>
<path fill="none" stroke="red" stroke-width="0.22" d="M139.07,-64.77C134.76,-70.96 128.99,-79.26 123.68,-86.9"/>
<polygon fill="red" stroke="red" stroke-width="0.22" points="120.61,-85.19 117.77,-95.39 126.36,-89.18 120.61,-85.19"/>
<text text-anchor="middle" x="137.83" y="-77.33" font-family="Times,serif" font-size="5.00">&#45;0.624</text>
</g>
<!-- &#45;2&#45;&gt;1 -->
<g id="edge5" class="edge">
<title>&#45;2&#45;&gt;1</title>
<path fill="none" stroke="red" stroke-width="0.19" d="M133.8,-58.63C125.24,-61.11 113.42,-64.53 102.95,-67.57"/>
<polygon fill="red" stroke="red" stroke-width="0.19" points="101.72,-64.28 93.09,-70.43 103.67,-71 101.72,-64.28"/>
<text text-anchor="middle" x="111.92" y="-64.6" font-family="Times,serif" font-size="5.00">&#45;0.463</text>
</g>
<!-- &#45;2&#45;&gt;2 -->
<g id="edge6" class="edge">
<title>&#45;2&#45;&gt;2</title>
<path fill="none" stroke="green" stroke-width="0.12" d="M133.86,-53.3C118.84,-50.95 92.61,-46.83 73.24,-43.8"/>
<polygon fill="green" stroke="green" stroke-width="0.12" points="73.71,-40.33 63.29,-42.24 72.63,-47.24 73.71,-40.33"/>
<text text-anchor="middle" x="97.92" y="-50.05" font-family="Times,serif" font-size="5.00">0.094</text>
</g>
<!-- &#45;3 -->
<g id="node3" class="node">
<title>&#45;3</title>
<polygon fill="lightgray" stroke="black" points="116.18,-18.7 92.18,-18.7 92.18,-0.1 116.18,-0.1 116.18,-18.7"/>
<text text-anchor="middle" x="104.18" y="-6.7" font-family="Times,serif" font-size="9.00">&#45;3</text>
</g>
<!-- &#45;3&#45;&gt;0 -->
<g id="edge7" class="edge">
<title>&#45;3&#45;&gt;0</title>
<path fill="none" stroke="red" stroke-width="0.61" d="M104.67,-18.81C105.44,-33.43 106.95,-62.09 108.05,-82.89"/>
<polygon fill="red" stroke="red" stroke-width="0.61" points="104.55,-83.13 108.57,-92.93 111.54,-82.76 104.55,-83.13"/>
<text text-anchor="middle" x="112.82" y="-52.35" font-family="Times,serif" font-size="5.00">&#45;2.566</text>
</g>
<!-- &#45;3&#45;&gt;1 -->
<g id="edge8" class="edge">
<title>&#45;3&#45;&gt;1</title>
<path fill="none" stroke="green" stroke-width="0.13" d="M100.56,-18.73C97.3,-27.13 92.38,-39.84 88.05,-51.01"/>
<polygon fill="green" stroke="green" stroke-width="0.13" points="84.65,-50.07 84.3,-60.66 91.18,-52.6 84.65,-50.07"/>
<text text-anchor="middle" x="88.68" y="-30.37" font-family="Times,serif" font-size="5.00">0.132</text>
</g>
<!-- &#45;3&#45;&gt;2 -->
<g id="edge9" class="edge">
<title>&#45;3&#45;&gt;2</title>
<path fill="none" stroke="red" stroke-width="0.23" d="M92.43,-15.88C86.09,-19.38 78.05,-23.81 70.61,-27.92"/>
<polygon fill="red" stroke="red" stroke-width="0.23" points="68.73,-24.95 61.67,-32.85 72.12,-31.08 68.73,-24.95"/>
<text text-anchor="middle" x="75.06" y="-23.4" font-family="Times,serif" font-size="5.00">&#45;0.635</text>
</g>
<!-- &#45;4 -->
<g id="node4" class="node">
<title>&#45;4</title>
<polygon fill="lightgray" stroke="black" points="65.58,-147.96 41.58,-147.96 41.58,-129.36 65.58,-129.36 65.58,-147.96"/>
<text text-anchor="middle" x="53.58" y="-135.96" font-family="Times,serif" font-size="9.00">&#45;4</text>
</g>
<!-- &#45;4&#45;&gt;0 -->
<g id="edge10" class="edge">
<title>&#45;4&#45;&gt;0</title>
<path fill="none" stroke="red" stroke-width="0.33" d="M65.41,-132.06C71.79,-128.49 79.88,-123.97 87.37,-119.79"/>
<polygon fill="red" stroke="red" stroke-width="0.33" points="89.34,-122.7 96.37,-114.76 85.93,-116.59 89.34,-122.7"/>
<text text-anchor="middle" x="69.93" y="-121.42" font-family="Times,serif" font-size="5.00">&#45;1.166</text>
</g>
<!-- &#45;4&#45;&gt;1 -->
<g id="edge11" class="edge">
<title>&#45;4&#45;&gt;1</title>
<path fill="none" stroke="red" stroke-width="0.1" d="M57.32,-129.2C60.61,-120.88 65.53,-108.42 69.85,-97.5"/>
<polygon fill="red" stroke="red" stroke-width="0.1" points="73.16,-98.65 73.58,-88.06 66.65,-96.08 73.16,-98.65"/>
<text text-anchor="middle" x="57.13" y="-114.85" font-family="Times,serif" font-size="5.00">&#45;0.022</text>
</g>
<!-- &#45;4&#45;&gt;2 -->
<g id="edge12" class="edge">
<title>&#45;4&#45;&gt;2</title>
<path fill="none" stroke="green" stroke-width="0.31" d="M53.12,-129.2C52.41,-114.49 51,-85.66 49.98,-64.74"/>
<polygon fill="green" stroke="green" stroke-width="0.31" points="53.47,-64.45 49.49,-54.64 46.48,-64.79 53.47,-64.45"/>
<text text-anchor="middle" x="45.93" y="-92.47" font-family="Times,serif" font-size="5.00">1.036</text>
</g>
<!-- 0&#45;&gt;0 -->
<g id="edge13" class="edge">
<title>0&#45;&gt;0</title>
<path fill="none" stroke="red" stroke-width="0.24" d="M122.69,-113.54C132.29,-115.5 141.84,-113.49 141.84,-107.52 141.84,-103.78 138.11,-101.6 132.97,-100.96"/>
<polygon fill="red" stroke="red" stroke-width="0.24" points="132.5,-97.48 122.69,-101.49 132.86,-104.47 132.5,-97.48"/>
<text text-anchor="middle" x="148.3" y="-106.02" font-family="Times,serif" font-size="5.00">&#45;0.687</text>
</g>
<!-- 1&#45;&gt;1 -->
<g id="edge14" class="edge">
<title>1&#45;&gt;1</title>
<path fill="none" stroke="green" stroke-width="0.3" d="M92.28,-80.55C101.87,-82.51 111.42,-80.51 111.42,-74.53 111.42,-70.79 107.69,-68.61 102.55,-67.97"/>
<polygon fill="green" stroke="green" stroke-width="0.3" points="102.08,-64.49 92.28,-68.51 102.45,-71.48 102.08,-64.49"/>
<text text-anchor="middle" x="117.05" y="-73.03" font-family="Times,serif" font-size="5.00">0.991</text>
</g>
<!-- 2&#45;&gt;2 -->
<g id="edge15" class="edge">
<title>2&#45;&gt;2</title>
<path fill="none" stroke="green" stroke-width="0.15" d="M62.13,-45.98C71.72,-47.95 81.27,-45.94 81.27,-39.96 81.27,-36.23 77.54,-34.04 72.4,-33.41"/>
<polygon fill="green" stroke="green" stroke-width="0.15" points="71.93,-29.93 62.13,-33.94 72.29,-36.92 71.93,-29.93"/>
<text text-anchor="middle" x="86.9" y="-38.46" font-family="Times,serif" font-size="5.00">0.240</text>
</g>
</g>
</svg>
