<?xml version="1.0" encoding="UTF-8" standalone="no"?>
<!DOCTYPE svg PUBLIC "-//W3C//DTD SVG 1.1//EN"
 "http://www.w3.org/Graphics/SVG/1.1/DTD/svg11.dtd">
<!-- Generated by graphviz version 2.47.1 (20210417.1919)
 -->
<!-- Pages: 1 -->
<svg width="252pt" height="219pt"
 viewBox="0.00 0.00 252.30 218.69" xmlns="http://www.w3.org/2000/svg" xmlns:xlink="http://www.w3.org/1999/xlink">
<g id="graph0" class="graph" transform="scale(1 1) rotate(0) translate(4 214.69)">
<polygon fill="white" stroke="transparent" points="-4,4 -4,-214.69 248.3,-214.69 248.3,4 -4,4"/>
<!-- &#45;1 -->
<g id="node1" class="node">
<title>&#45;1</title>
<polygon fill="lightgray" stroke="black" points="149.75,-195.29 125.75,-195.29 125.75,-176.68 149.75,-176.68 149.75,-195.29"/>
<text text-anchor="middle" x="137.75" y="-183.29" font-family="Times,serif" font-size="9.00">&#45;1</text>
</g>
<!-- 1589 -->
<g id="node6" class="node">
<title>1589</title>
<ellipse fill="white" stroke="black" cx="208.96" cy="-175.35" rx="35.19" ry="35.19"/>
<text text-anchor="middle" x="208.96" y="-172.65" font-family="Times,serif" font-size="9.00">heaviside</text>
</g>
<!-- &#45;1&#45;&gt;1589 -->
<g id="edge5" class="edge">
<title>&#45;1&#45;&gt;1589</title>
<path fill="none" stroke="red" stroke-width="1" d="M149.51,-184.23C153.6,-183.62 158.47,-182.89 163.63,-182.12"/>
<polygon fill="red" stroke="red" stroke-width="1" points="164.43,-185.54 173.81,-180.6 163.4,-178.61 164.43,-185.54"/>
<text text-anchor="middle" x="163.03" y="-184.67" font-family="Times,serif" font-size="5.00">&#45;4.503</text>
</g>
<!-- &#45;2 -->
<g id="node2" class="node">
<title>&#45;2</title>
<polygon fill="lightgray" stroke="black" points="23.75,-150.65 -0.25,-150.65 -0.25,-132.05 23.75,-132.05 23.75,-150.65"/>
<text text-anchor="middle" x="11.75" y="-138.65" font-family="Times,serif" font-size="9.00">&#45;2</text>
</g>
<!-- 0 -->
<g id="node5" class="node">
<title>0</title>
<ellipse fill="lightblue" stroke="black" cx="38.06" cy="-81.31" rx="14.49" ry="14.49"/>
<ellipse fill="none" stroke="black" cx="38.06" cy="-81.31" rx="18.49" ry="18.49"/>
<text text-anchor="middle" x="38.06" y="-78.61" font-family="Times,serif" font-size="9.00">0</text>
</g>
<!-- &#45;2&#45;&gt;0 -->
<g id="edge1" class="edge">
<title>&#45;2&#45;&gt;0</title>
<path fill="none" stroke="green" stroke-width="1.15" d="M15.86,-131.97C18.72,-125.45 22.67,-116.42 26.46,-107.78"/>
<polygon fill="green" stroke="green" stroke-width="1.15" points="29.78,-108.92 30.59,-98.36 23.37,-106.11 29.78,-108.92"/>
<text text-anchor="middle" x="15.53" y="-121.38" font-family="Times,serif" font-size="5.00">5.253</text>
</g>
<!-- 661 -->
<g id="node7" class="node">
<title>661</title>
<ellipse fill="white" stroke="black" cx="88.94" cy="-97.19" rx="31.65" ry="31.65"/>
<text text-anchor="middle" x="88.94" y="-94.49" font-family="Times,serif" font-size="9.00">sigmoid</text>
</g>
<!-- &#45;2&#45;&gt;661 -->
<g id="edge3" class="edge">
<title>&#45;2&#45;&gt;661</title>
<path fill="none" stroke="green" stroke-width="0.81" stroke-dasharray="1,5" d="M23.81,-134.45C31.55,-130.02 42.05,-124.02 52.35,-118.12"/>
<polygon fill="green" stroke="green" stroke-width="0.81" points="54.35,-121.01 61.29,-113.01 50.87,-114.94 54.35,-121.01"/>
<text text-anchor="middle" x="32.46" y="-127.78" font-family="Times,serif" font-size="5.00">3.540</text>
</g>
<!-- &#45;3 -->
<g id="node3" class="node">
<title>&#45;3</title>
<polygon fill="lightgray" stroke="black" points="120.02,-154.14 96.01,-154.14 96.01,-135.54 120.02,-135.54 120.02,-154.14"/>
<text text-anchor="middle" x="108.01" y="-142.14" font-family="Times,serif" font-size="9.00">&#45;3</text>
</g>
<!-- &#45;3&#45;&gt;0 -->
<g id="edge2" class="edge">
<title>&#45;3&#45;&gt;0</title>
<path fill="none" stroke="green" stroke-width="0.6" stroke-dasharray="1,5" d="M97.69,-135.47C87.62,-126.32 72,-112.14 59.27,-100.58"/>
<polygon fill="green" stroke="green" stroke-width="0.6" points="61.55,-97.92 51.8,-93.79 56.85,-103.1 61.55,-97.92"/>
<text text-anchor="middle" x="72.86" y="-119.52" font-family="Times,serif" font-size="5.00">2.484</text>
</g>
<!-- &#45;3&#45;&gt;661 -->
<g id="edge7" class="edge">
<title>&#45;3&#45;&gt;661</title>
<path fill="none" stroke="red" stroke-width="0.25" stroke-dasharray="1,5" d="M104.15,-135.2C104.09,-135.04 104.03,-134.89 103.96,-134.73"/>
<polygon fill="red" stroke="red" stroke-width="0.25" points="107.8,-134.89 100.83,-126.91 101.3,-137.49 107.8,-134.89"/>
<text text-anchor="middle" x="110.52" y="-130.46" font-family="Times,serif" font-size="5.00">&#45;0.765</text>
</g>
<!-- &#45;4 -->
<g id="node4" class="node">
<title>&#45;4</title>
<polygon fill="lightgray" stroke="black" points="25.1,-18.7 1.1,-18.7 1.1,-0.1 25.1,-0.1 25.1,-18.7"/>
<text text-anchor="middle" x="13.1" y="-6.7" font-family="Times,serif" font-size="9.00">&#45;4</text>
</g>
<!-- &#45;4&#45;&gt;0 -->
<g id="edge6" class="edge">
<title>&#45;4&#45;&gt;0</title>
<path fill="none" stroke="red" stroke-width="0.22" stroke-dasharray="1,5" d="M16.36,-18.8C19.47,-27.75 24.3,-41.67 28.61,-54.1"/>
<polygon fill="red" stroke="red" stroke-width="0.22" points="25.34,-55.33 31.92,-63.63 31.95,-53.03 25.34,-55.33"/>
<text text-anchor="middle" x="16.03" y="-37.95" font-family="Times,serif" font-size="5.00">&#45;0.579</text>
</g>
<!-- 661&#45;&gt;0 -->
<g id="edge4" class="edge">
<title>661&#45;&gt;0</title>
<path fill="none" stroke="red" stroke-width="0.39" d="M58.46,-87.68C58.35,-87.65 58.25,-87.61 58.14,-87.58"/>
<polygon fill="red" stroke="red" stroke-width="0.39" points="66.54,-86.54 55.95,-86.9 64.45,-93.22 66.54,-86.54"/>
<text text-anchor="middle" x="64.76" y="-83.13" font-family="Times,serif" font-size="5.00">&#45;1.470</text>
</g>
</g>
</svg>
