<?xml version="1.0" encoding="UTF-8" standalone="no"?>
<!DOCTYPE svg PUBLIC "-//W3C//DTD SVG 1.1//EN"
 "http://www.w3.org/Graphics/SVG/1.1/DTD/svg11.dtd">
<!-- Generated by graphviz version 2.47.1 (20210417.1919)
 -->
<!-- Pages: 1 -->
<svg width="306pt" height="235pt"
 viewBox="0.00 0.00 305.52 235.41" xmlns="http://www.w3.org/2000/svg" xmlns:xlink="http://www.w3.org/1999/xlink">
<g id="graph0" class="graph" transform="scale(1 1) rotate(0) translate(4 231.41)">
<polygon fill="white" stroke="transparent" points="-4,4 -4,-231.41 301.52,-231.41 301.52,4 -4,4"/>
<!-- &#45;1 -->
<g id="node1" class="node">
<title>&#45;1</title>
<polygon fill="lightgray" stroke="black" points="24.9,-166.34 0.9,-166.34 0.9,-147.74 24.9,-147.74 24.9,-166.34"/>
<text text-anchor="middle" x="12.9" y="-154.34" font-family="Times,serif" font-size="9.00">&#45;1</text>
</g>
<!-- 234 -->
<g id="node7" class="node">
<title>234</title>
<ellipse fill="white" stroke="black" cx="91.86" cy="-134.51" rx="30.55" ry="30.55"/>
<ellipse fill="none" stroke="black" cx="91.86" cy="-134.51" rx="34.52" ry="34.52"/>
<text text-anchor="middle" x="91.86" y="-131.81" font-family="Times,serif" font-size="9.00">identity</text>
</g>
<!-- &#45;1&#45;&gt;234 -->
<g id="edge6" class="edge">
<title>&#45;1&#45;&gt;234</title>
<path fill="none" stroke="green" stroke-width="0.71" d="M24.89,-153.62C31.35,-151.78 39.76,-149.38 48.42,-146.91"/>
<polygon fill="green" stroke="green" stroke-width="0.71" points="49.56,-150.22 58.22,-144.11 47.64,-143.49 49.56,-150.22"/>
<text text-anchor="middle" x="31.03" y="-151.76" font-family="Times,serif" font-size="5.00">3.065</text>
</g>
<!-- &#45;2 -->
<g id="node2" class="node">
<title>&#45;2</title>
<polygon fill="lightgray" stroke="black" points="108.88,-77.78 84.88,-77.78 84.88,-59.18 108.88,-59.18 108.88,-77.78"/>
<text text-anchor="middle" x="96.88" y="-65.78" font-family="Times,serif" font-size="9.00">&#45;2</text>
</g>
<!-- 0 -->
<g id="node5" class="node">
<title>0</title>
<ellipse fill="lightblue" stroke="black" cx="154.9" cy="-68.27" rx="14.49" ry="14.49"/>
<ellipse fill="none" stroke="black" cx="154.9" cy="-68.27" rx="18.49" ry="18.49"/>
<text text-anchor="middle" x="154.9" y="-65.57" font-family="Times,serif" font-size="9.00">0</text>
</g>
<!-- &#45;2&#45;&gt;0 -->
<g id="edge1" class="edge">
<title>&#45;2&#45;&gt;0</title>
<path fill="none" stroke="green" stroke-width="0.44" d="M108.9,-68.44C113.8,-68.42 119.69,-68.4 125.6,-68.38"/>
<polygon fill="green" stroke="green" stroke-width="0.44" points="126.05,-71.88 136.04,-68.34 126.03,-64.88 126.05,-71.88"/>
<text text-anchor="middle" x="122.87" y="-69.91" font-family="Times,serif" font-size="5.00">1.712</text>
</g>
<!-- 2697 -->
<g id="node6" class="node">
<title>2697</title>
<ellipse fill="white" stroke="black" cx="158.33" cy="-126.26" rx="30.55" ry="30.55"/>
<ellipse fill="none" stroke="black" cx="158.33" cy="-126.26" rx="34.52" ry="34.52"/>
<text text-anchor="middle" x="158.33" y="-123.56" font-family="Times,serif" font-size="9.00">identity</text>
</g>
<!-- &#45;2&#45;&gt;2697 -->
<g id="edge9" class="edge">
<title>&#45;2&#45;&gt;2697</title>
<path fill="none" stroke="red" stroke-width="0.56" d="M107.03,-78.02C112.19,-82.87 118.77,-89.06 125.5,-95.38"/>
<polygon fill="red" stroke="red" stroke-width="0.56" points="123.1,-97.94 132.79,-102.24 127.9,-92.84 123.1,-97.94"/>
<text text-anchor="middle" x="109.81" y="-88.2" font-family="Times,serif" font-size="5.00">&#45;2.282</text>
</g>
<!-- &#45;2&#45;&gt;234 -->
<g id="edge3" class="edge">
<title>&#45;2&#45;&gt;234</title>
<path fill="none" stroke="green" stroke-width="0.21" stroke-dasharray="1,5" d="M96.16,-77.94C95.91,-81.23 95.61,-85.17 95.29,-89.42"/>
<polygon fill="green" stroke="green" stroke-width="0.21" points="91.77,-89.5 94.5,-99.74 98.75,-90.03 91.77,-89.5"/>
<text text-anchor="middle" x="90.1" y="-85.18" font-family="Times,serif" font-size="5.00">0.566</text>
</g>
<!-- 7609 -->
<g id="node10" class="node">
<title>7609</title>
<ellipse fill="white" stroke="black" cx="31.82" cy="-75.15" rx="31.65" ry="31.65"/>
<text text-anchor="middle" x="31.82" y="-72.45" font-family="Times,serif" font-size="9.00">sigmoid</text>
</g>
<!-- &#45;2&#45;&gt;7609 -->
<g id="edge13" class="edge">
<title>&#45;2&#45;&gt;7609</title>
<path fill="none" stroke="red" stroke-width="0.16" d="M84.95,-69.7C81.66,-70.04 77.89,-70.43 73.91,-70.83"/>
<polygon fill="red" stroke="red" stroke-width="0.16" points="73.34,-67.38 63.75,-71.88 74.06,-74.34 73.34,-67.38"/>
<text text-anchor="middle" x="72.97" y="-71.77" font-family="Times,serif" font-size="5.00">&#45;0.281</text>
</g>
<!-- &#45;3 -->
<g id="node3" class="node">
<title>&#45;3</title>
<polygon fill="lightgray" stroke="black" points="215.12,-18.7 191.11,-18.7 191.11,-0.1 215.12,-0.1 215.12,-18.7"/>
<text text-anchor="middle" x="203.12" y="-6.7" font-family="Times,serif" font-size="9.00">&#45;3</text>
</g>
<!-- &#45;3&#45;&gt;0 -->
<g id="edge2" class="edge">
<title>&#45;3&#45;&gt;0</title>
<path fill="none" stroke="green" stroke-width="0.8" stroke-dasharray="1,5" d="M195.37,-18.86C189.44,-26.1 181.01,-36.39 173.37,-45.71"/>
<polygon fill="green" stroke="green" stroke-width="0.8" points="170.58,-43.6 166.96,-53.55 176,-48.03 170.58,-43.6"/>
<text text-anchor="middle" x="178.75" y="-33.79" font-family="Times,serif" font-size="5.00">3.480</text>
</g>
<!-- &#45;4 -->
<g id="node4" class="node">
<title>&#45;4</title>
<polygon fill="lightgray" stroke="black" points="84.26,-223.36 60.25,-223.36 60.25,-204.76 84.26,-204.76 84.26,-223.36"/>
<text text-anchor="middle" x="72.26" y="-211.36" font-family="Times,serif" font-size="9.00">&#45;4</text>
</g>
<!-- &#45;4&#45;&gt;234 -->
<g id="edge12" class="edge">
<title>&#45;4&#45;&gt;234</title>
<path fill="none" stroke="red" stroke-width="0.96" stroke-dasharray="1,5" d="M74.58,-204.62C76.24,-197.89 78.6,-188.31 81.05,-178.39"/>
<polygon fill="red" stroke="red" stroke-width="0.96" points="84.5,-178.99 83.5,-168.44 77.71,-177.31 84.5,-178.99"/>
<text text-anchor="middle" x="71.36" y="-193" font-family="Times,serif" font-size="5.00">&#45;4.293</text>
</g>
<!-- 2697&#45;&gt;0 -->
<g id="edge8" class="edge">
<title>2697&#45;&gt;0</title>
<path fill="none" stroke="green" stroke-width="0.76" d="M156.27,-91.52C156.27,-91.43 156.26,-91.33 156.26,-91.23"/>
<polygon fill="green" stroke="green" stroke-width="0.76" points="160.09,-96.75 156.01,-86.98 153.1,-97.17 160.09,-96.75"/>
<text text-anchor="middle" x="150.64" y="-86.88" font-family="Times,serif" font-size="5.00">3.314</text>
</g>
<!-- 2697&#45;&gt;234 -->
<g id="edge7" class="edge">
<title>2697&#45;&gt;234</title>
<path fill="none" stroke="red" stroke-width="0.11" stroke-dasharray="1,5" d="M123.49,-123.78C123.42,-123.79 123.36,-123.8 123.29,-123.81"/>
<polygon fill="red" stroke="red" stroke-width="0.11" points="132.57,-119.07 123.1,-123.83 133.47,-126.01 132.57,-119.07"/>
<text text-anchor="middle" x="116.93" y="-125.3" font-family="Times,serif" font-size="5.00">&#45;0.069</text>
</g>
<!-- 234&#45;&gt;0 -->
<g id="edge4" class="edge">
<title>234&#45;&gt;0</title>
<path fill="none" stroke="red" stroke-width="0.28" stroke-dasharray="1,5" d="M116.05,-109.09C122.3,-102.53 128.96,-95.53 134.96,-89.22"/>
<polygon fill="red" stroke="red" stroke-width="0.28" points="137.78,-91.34 142.14,-81.68 132.71,-86.51 137.78,-91.34"/>
<text text-anchor="middle" x="119.05" y="-94.66" font-family="Times,serif" font-size="5.00">&#45;0.913</text>
</g>
<!-- 234&#45;&gt;2697 -->
<g id="edge5" class="edge">
<title>234&#45;&gt;2697</title>
<path fill="none" stroke="red" stroke-width="0.41" stroke-dasharray="1,5" d="M126.71,-136.98C126.77,-136.98 126.84,-136.97 126.9,-136.96"/>
<polygon fill="red" stroke="red" stroke-width="0.41" points="117.63,-141.7 127.09,-136.93 116.72,-134.76 117.63,-141.7"/>
<text text-anchor="middle" x="133.26" y="-138.47" font-family="Times,serif" font-size="5.00">&#45;1.560</text>
</g>
<!-- 6866 -->
<g id="node9" class="node">
<title>6866</title>
<ellipse fill="white" stroke="black" cx="153.92" cy="-191.59" rx="31.67" ry="31.67"/>
<ellipse fill="none" stroke="black" cx="153.92" cy="-191.59" rx="35.65" ry="35.65"/>
<text text-anchor="middle" x="153.92" y="-188.89" font-family="Times,serif" font-size="9.00">sigmoid</text>
</g>
<!-- 234&#45;&gt;6866 -->
<g id="edge10" class="edge">
<title>234&#45;&gt;6866</title>
<path fill="none" stroke="green" stroke-width="0.14" stroke-dasharray="1,5" d="M117.46,-158.06C118.16,-158.7 118.87,-159.35 119.57,-160"/>
<polygon fill="green" stroke="green" stroke-width="0.14" points="117.44,-162.8 127.17,-166.99 122.18,-157.65 117.44,-162.8"/>
<text text-anchor="middle" x="112.89" y="-160.53" font-family="Times,serif" font-size="5.00">0.201</text>
</g>
<!-- 5552 -->
<g id="node8" class="node">
<title>5552</title>
<ellipse fill="white" stroke="black" cx="262.76" cy="-91.76" rx="30.55" ry="30.55"/>
<ellipse fill="none" stroke="black" cx="262.76" cy="-91.76" rx="34.52" ry="34.52"/>
<text text-anchor="middle" x="262.76" y="-89.06" font-family="Times,serif" font-size="9.00">identity</text>
</g>
<!-- 6866&#45;&gt;2697 -->
<g id="edge11" class="edge">
<title>6866&#45;&gt;2697</title>
<path fill="none" stroke="green" stroke-width="0.4" stroke-dasharray="1,5" d="M156.36,-155.48C156.36,-155.42 156.37,-155.37 156.37,-155.31"/>
<polygon fill="green" stroke="green" stroke-width="0.4" points="159.2,-165.34 156.38,-155.13 152.21,-164.87 159.2,-165.34"/>
<text text-anchor="middle" x="150.74" y="-150.89" font-family="Times,serif" font-size="5.00">1.480</text>
</g>
<!-- 7609&#45;&gt;234 -->
<g id="edge14" class="edge">
<title>7609&#45;&gt;234</title>
<path fill="none" stroke="green" stroke-width="0.46" stroke-dasharray="1,5" d="M54.52,-97.59C56.32,-99.38 58.16,-101.19 60.01,-103.02"/>
<polygon fill="green" stroke="green" stroke-width="0.46" points="57.55,-105.51 67.12,-110.06 62.47,-100.54 57.55,-105.51"/>
<text text-anchor="middle" x="62.89" y="-95.81" font-family="Times,serif" font-size="5.00">1.790</text>
</g>
</g>
</svg>
