<?xml version="1.0" encoding="UTF-8" standalone="no"?>
<!DOCTYPE svg PUBLIC "-//W3C//DTD SVG 1.1//EN"
 "http://www.w3.org/Graphics/SVG/1.1/DTD/svg11.dtd">
<!-- Generated by graphviz version 2.47.1 (20210417.1919)
 -->
<!-- Pages: 1 -->
<svg width="257pt" height="173pt"
 viewBox="0.00 0.00 256.70 172.57" xmlns="http://www.w3.org/2000/svg" xmlns:xlink="http://www.w3.org/1999/xlink">
<g id="graph0" class="graph" transform="scale(1 1) rotate(0) translate(4 168.57)">
<polygon fill="white" stroke="transparent" points="-4,4 -4,-168.57 252.7,-168.57 252.7,4 -4,4"/>
<!-- &#45;1 -->
<g id="node1" class="node">
<title>&#45;1</title>
<polygon fill="lightgray" stroke="black" points="23.75,-73.29 -0.25,-73.29 -0.25,-54.69 23.75,-54.69 23.75,-73.29"/>
<text text-anchor="middle" x="11.75" y="-61.29" font-family="Times,serif" font-size="9.00">&#45;1</text>
</g>
<!-- 225 -->
<g id="node6" class="node">
<title>225</title>
<ellipse fill="white" stroke="black" cx="86.55" cy="-64.21" rx="30.55" ry="30.55"/>
<ellipse fill="none" stroke="black" cx="86.55" cy="-64.21" rx="34.52" ry="34.52"/>
<text text-anchor="middle" x="86.55" y="-61.51" font-family="Times,serif" font-size="9.00">identity</text>
</g>
<!-- &#45;1&#45;&gt;225 -->
<g id="edge6" class="edge">
<title>&#45;1&#45;&gt;225</title>
<path fill="none" stroke="red" stroke-width="0.4" stroke-dasharray="1,5" d="M23.77,-64.03C28.75,-64.04 34.88,-64.06 41.33,-64.08"/>
<polygon fill="red" stroke="red" stroke-width="0.4" points="41.61,-67.58 51.62,-64.11 41.63,-60.58 41.61,-67.58"/>
<text text-anchor="middle" x="39.01" y="-65.55" font-family="Times,serif" font-size="5.00">&#45;1.490</text>
</g>
<!-- &#45;2 -->
<g id="node2" class="node">
<title>&#45;2</title>
<polygon fill="lightgray" stroke="black" points="141.84,-18.7 117.84,-18.7 117.84,-0.1 141.84,-0.1 141.84,-18.7"/>
<text text-anchor="middle" x="129.84" y="-6.7" font-family="Times,serif" font-size="9.00">&#45;2</text>
</g>
<!-- 0 -->
<g id="node5" class="node">
<title>0</title>
<ellipse fill="lightblue" stroke="black" cx="162.4" cy="-77.78" rx="14.49" ry="14.49"/>
<ellipse fill="none" stroke="black" cx="162.4" cy="-77.78" rx="18.49" ry="18.49"/>
<text text-anchor="middle" x="162.4" y="-75.08" font-family="Times,serif" font-size="9.00">0</text>
</g>
<!-- &#45;2&#45;&gt;0 -->
<g id="edge1" class="edge">
<title>&#45;2&#45;&gt;0</title>
<path fill="none" stroke="green" stroke-width="0.44" d="M134.37,-18.91C138.41,-27.4 144.52,-40.23 150,-51.75"/>
<polygon fill="green" stroke="green" stroke-width="0.44" points="146.95,-53.47 154.4,-60.99 153.27,-50.46 146.95,-53.47"/>
<text text-anchor="middle" x="136.56" y="-36.83" font-family="Times,serif" font-size="5.00">1.690</text>
</g>
<!-- &#45;2&#45;&gt;225 -->
<g id="edge4" class="edge">
<title>&#45;2&#45;&gt;225</title>
<path fill="none" stroke="green" stroke-width="0.25" d="M122.3,-18.95C120,-21.86 117.33,-25.24 114.5,-28.82"/>
<polygon fill="green" stroke="green" stroke-width="0.25" points="111.59,-26.86 108.14,-36.88 117.08,-31.2 111.59,-26.86"/>
<text text-anchor="middle" x="112.78" y="-25.38" font-family="Times,serif" font-size="5.00">0.772</text>
</g>
<!-- &#45;3 -->
<g id="node3" class="node">
<title>&#45;3</title>
<polygon fill="lightgray" stroke="black" points="248.96,-59.82 224.95,-59.82 224.95,-41.22 248.96,-41.22 248.96,-59.82"/>
<text text-anchor="middle" x="236.96" y="-47.82" font-family="Times,serif" font-size="9.00">&#45;3</text>
</g>
<!-- &#45;3&#45;&gt;0 -->
<g id="edge2" class="edge">
<title>&#45;3&#45;&gt;0</title>
<path fill="none" stroke="red" stroke-width="0.6" stroke-dasharray="1,5" d="M224.98,-54.9C215.46,-58.38 201.77,-63.38 189.63,-67.83"/>
<polygon fill="red" stroke="red" stroke-width="0.6" points="188.1,-64.66 179.91,-71.38 190.5,-71.23 188.1,-64.66"/>
<text text-anchor="middle" x="200.84" y="-62.86" font-family="Times,serif" font-size="5.00">&#45;2.503</text>
</g>
<!-- &#45;4 -->
<g id="node4" class="node">
<title>&#45;4</title>
<polygon fill="lightgray" stroke="black" points="190.69,-164.47 166.68,-164.47 166.68,-145.87 190.69,-145.87 190.69,-164.47"/>
<text text-anchor="middle" x="178.68" y="-152.47" font-family="Times,serif" font-size="9.00">&#45;4</text>
</g>
<!-- &#45;4&#45;&gt;0 -->
<g id="edge3" class="edge">
<title>&#45;4&#45;&gt;0</title>
<path fill="none" stroke="red" stroke-width="0.18" stroke-dasharray="1,5" d="M176.69,-145.68C174.62,-135.84 171.28,-119.97 168.35,-106.05"/>
<polygon fill="red" stroke="red" stroke-width="0.18" points="171.7,-104.98 166.22,-95.91 164.85,-106.42 171.7,-104.98"/>
<text text-anchor="middle" x="166.06" y="-127.36" font-family="Times,serif" font-size="5.00">&#45;0.422</text>
</g>
<!-- 225&#45;&gt;0 -->
<g id="edge5" class="edge">
<title>225&#45;&gt;0</title>
<path fill="none" stroke="red" stroke-width="0.53" d="M120.92,-70.36C125.3,-71.15 129.73,-71.94 134,-72.7"/>
<polygon fill="red" stroke="red" stroke-width="0.53" points="133.65,-76.2 144.11,-74.51 134.88,-69.3 133.65,-76.2"/>
<text text-anchor="middle" x="133.92" y="-73.03" font-family="Times,serif" font-size="5.00">&#45;2.175</text>
</g>
</g>
</svg>
