<?xml version="1.0" encoding="UTF-8" standalone="no"?>
<!DOCTYPE svg PUBLIC "-//W3C//DTD SVG 1.1//EN"
 "http://www.w3.org/Graphics/SVG/1.1/DTD/svg11.dtd">
<!-- Generated by graphviz version 2.47.1 (20210417.1919)
 -->
<!-- Pages: 1 -->
<svg width="271pt" height="288pt"
 viewBox="0.00 0.00 271.50 288.04" xmlns="http://www.w3.org/2000/svg" xmlns:xlink="http://www.w3.org/1999/xlink">
<g id="graph0" class="graph" transform="scale(1 1) rotate(0) translate(4 284.04)">
<polygon fill="white" stroke="transparent" points="-4,4 -4,-284.04 267.5,-284.04 267.5,4 -4,4"/>
<!-- &#45;1 -->
<g id="node1" class="node">
<title>&#45;1</title>
<polygon fill="lightgray" stroke="black" points="30.7,-234.48 6.69,-234.48 6.69,-215.87 30.7,-215.87 30.7,-234.48"/>
<text text-anchor="middle" x="18.7" y="-222.48" font-family="Times,serif" font-size="9.00">&#45;1</text>
</g>
<!-- 0 -->
<g id="node5" class="node">
<title>0</title>
<ellipse fill="lightblue" stroke="black" cx="85.01" cy="-173.94" rx="14.49" ry="14.49"/>
<ellipse fill="none" stroke="black" cx="85.01" cy="-173.94" rx="18.49" ry="18.49"/>
<text text-anchor="middle" x="85.01" y="-171.24" font-family="Times,serif" font-size="9.00">0</text>
</g>
<!-- &#45;1&#45;&gt;0 -->
<g id="edge9" class="edge">
<title>&#45;1&#45;&gt;0</title>
<path fill="none" stroke="green" stroke-width="0.42" d="M30.55,-216.02C39.25,-209.29 51.35,-199.95 61.93,-191.77"/>
<polygon fill="green" stroke="green" stroke-width="0.42" points="64.23,-194.42 70,-185.54 59.95,-188.88 64.23,-194.42"/>
<text text-anchor="middle" x="40.62" y="-205.39" font-family="Times,serif" font-size="5.00">1.595</text>
</g>
<!-- &#45;2 -->
<g id="node2" class="node">
<title>&#45;2</title>
<polygon fill="lightgray" stroke="black" points="208.37,-186.57 184.37,-186.57 184.37,-167.96 208.37,-167.96 208.37,-186.57"/>
<text text-anchor="middle" x="196.37" y="-174.56" font-family="Times,serif" font-size="9.00">&#45;2</text>
</g>
<!-- &#45;2&#45;&gt;0 -->
<g id="edge1" class="edge">
<title>&#45;2&#45;&gt;0</title>
<path fill="none" stroke="green" stroke-width="0.55" d="M184.45,-176.91C167.79,-176.41 137,-175.49 114.08,-174.81"/>
<polygon fill="green" stroke="green" stroke-width="0.55" points="113.97,-171.3 103.87,-174.5 113.76,-178.3 113.97,-171.3"/>
<text text-anchor="middle" x="143.64" y="-177.36" font-family="Times,serif" font-size="5.00">2.244</text>
</g>
<!-- 338 -->
<g id="node10" class="node">
<title>338</title>
<ellipse fill="white" stroke="black" cx="148.81" cy="-169.36" rx="35.21" ry="35.21"/>
<ellipse fill="none" stroke="black" cx="148.81" cy="-169.36" rx="39.19" ry="39.19"/>
<text text-anchor="middle" x="148.81" y="-166.66" font-family="Times,serif" font-size="9.00">heaviside</text>
</g>
<!-- &#45;2&#45;&gt;338 -->
<g id="edge3" class="edge">
<title>&#45;2&#45;&gt;338</title>
<path fill="none" stroke="green" stroke-width="0.28" d="M184.37,-175.27C184.31,-175.26 184.26,-175.25 184.2,-175.24"/>
<polygon fill="green" stroke="green" stroke-width="0.28" points="194.48,-173.41 184.04,-175.22 193.33,-180.31 194.48,-173.41"/>
<text text-anchor="middle" x="178.66" y="-176.76" font-family="Times,serif" font-size="5.00">0.910</text>
</g>
<!-- &#45;3 -->
<g id="node3" class="node">
<title>&#45;3</title>
<polygon fill="lightgray" stroke="black" points="247.75,-114.7 223.75,-114.7 223.75,-96.1 247.75,-96.1 247.75,-114.7"/>
<text text-anchor="middle" x="235.75" y="-102.7" font-family="Times,serif" font-size="9.00">&#45;3</text>
</g>
<!-- &#45;4 -->
<g id="node4" class="node">
<title>&#45;4</title>
<polygon fill="lightgray" stroke="black" points="263.75,-34.7 239.75,-34.7 239.75,-16.1 263.75,-16.1 263.75,-34.7"/>
<text text-anchor="middle" x="251.75" y="-22.7" font-family="Times,serif" font-size="9.00">&#45;4</text>
</g>
<!-- 0&#45;&gt;0 -->
<g id="edge2" class="edge">
<title>0&#45;&gt;0</title>
<path fill="none" stroke="green" stroke-width="0.16" stroke-dasharray="1,5" d="M102.66,-180.37C112.47,-181.57 121.51,-179.42 121.51,-173.94 121.51,-170.51 117.98,-168.39 112.94,-167.57"/>
<polygon fill="green" stroke="green" stroke-width="0.16" points="112.68,-164.07 102.66,-167.51 112.64,-171.07 112.68,-164.07"/>
<text text-anchor="middle" x="127.13" y="-172.44" font-family="Times,serif" font-size="5.00">0.314</text>
</g>
<!-- 1568 -->
<g id="node6" class="node">
<title>1568</title>
<ellipse fill="white" stroke="black" cx="107.55" cy="-134.11" rx="30.52" ry="30.52"/>
<text text-anchor="middle" x="107.55" y="-131.41" font-family="Times,serif" font-size="9.00">identity</text>
</g>
<!-- 0&#45;&gt;1568 -->
<g id="edge14" class="edge">
<title>0&#45;&gt;1568</title>
<path fill="none" stroke="red" stroke-width="0.5" stroke-dasharray="1,5" d="M94.18,-157.74C94.2,-157.7 94.23,-157.65 94.25,-157.61"/>
<polygon fill="red" stroke="red" stroke-width="0.5" points="92.44,-167.91 94.33,-157.48 86.35,-164.46 92.44,-167.91"/>
<text text-anchor="middle" x="87.76" y="-159.18" font-family="Times,serif" font-size="5.00">&#45;2.023</text>
</g>
<!-- 4047 -->
<g id="node8" class="node">
<title>4047</title>
<ellipse fill="white" stroke="black" cx="35.82" cy="-123.23" rx="31.67" ry="31.67"/>
<ellipse fill="none" stroke="black" cx="35.82" cy="-123.23" rx="35.65" ry="35.65"/>
<text text-anchor="middle" x="35.82" y="-120.53" font-family="Times,serif" font-size="9.00">sigmoid</text>
</g>
<!-- 0&#45;&gt;4047 -->
<g id="edge15" class="edge">
<title>0&#45;&gt;4047</title>
<path fill="none" stroke="red" stroke-width="0.1" stroke-dasharray="1,5" d="M72.09,-160.62C70.81,-159.29 69.47,-157.92 68.1,-156.5"/>
<polygon fill="red" stroke="red" stroke-width="0.1" points="70.51,-153.96 61.04,-149.22 65.49,-158.84 70.51,-153.96"/>
<text text-anchor="middle" x="63.64" y="-160.06" font-family="Times,serif" font-size="5.00">&#45;0.013</text>
</g>
<!-- 1371 -->
<g id="node14" class="node">
<title>1371</title>
<ellipse fill="white" stroke="black" cx="124.58" cy="-228.79" rx="35.21" ry="35.21"/>
<ellipse fill="none" stroke="black" cx="124.58" cy="-228.79" rx="39.19" ry="39.19"/>
<text text-anchor="middle" x="124.58" y="-226.09" font-family="Times,serif" font-size="9.00">heaviside</text>
</g>
<!-- 1568&#45;&gt;1371 -->
<g id="edge8" class="edge">
<title>1568&#45;&gt;1371</title>
<path fill="none" stroke="green" stroke-width="0.42" d="M113.03,-164.59C113.92,-169.53 114.86,-174.75 115.81,-180"/>
<polygon fill="green" stroke="green" stroke-width="0.42" points="112.4,-180.83 117.62,-190.05 119.29,-179.59 112.4,-180.83"/>
<text text-anchor="middle" x="108.8" y="-173.79" font-family="Times,serif" font-size="5.00">1.584</text>
</g>
<!-- 4491 -->
<g id="node7" class="node">
<title>4491</title>
<ellipse fill="white" stroke="black" cx="187.88" cy="-248.22" rx="31.65" ry="31.65"/>
<text text-anchor="middle" x="187.88" y="-245.52" font-family="Times,serif" font-size="9.00">sigmoid</text>
</g>
<!-- 4491&#45;&gt;1371 -->
<g id="edge19" class="edge">
<title>4491&#45;&gt;1371</title>
<path fill="none" stroke="green" stroke-width="1.45" d="M157.34,-238.84C157.28,-238.82 157.22,-238.8 157.15,-238.78"/>
<polygon fill="green" stroke="green" stroke-width="1.45" points="167.55,-238.32 156.96,-238.73 165.49,-245.01 167.55,-238.32"/>
<text text-anchor="middle" x="162.87" y="-240.31" font-family="Times,serif" font-size="5.00">6.733</text>
</g>
<!-- 4047&#45;&gt;1568 -->
<g id="edge16" class="edge">
<title>4047&#45;&gt;1568</title>
<path fill="none" stroke="red" stroke-width="0.77" stroke-dasharray="1,5" d="M71.27,-128.61C71.38,-128.62 71.5,-128.64 71.61,-128.66"/>
<polygon fill="red" stroke="red" stroke-width="0.77" points="66.35,-131.4 76.76,-129.44 67.4,-124.48 66.35,-131.4"/>
<text text-anchor="middle" x="77.9" y="-130.13" font-family="Times,serif" font-size="5.00">&#45;3.345</text>
</g>
<!-- 4529 -->
<g id="node9" class="node">
<title>4529</title>
<ellipse fill="white" stroke="black" cx="125.02" cy="-43.69" rx="30.55" ry="30.55"/>
<ellipse fill="none" stroke="black" cx="125.02" cy="-43.69" rx="34.52" ry="34.52"/>
<text text-anchor="middle" x="125.02" y="-40.99" font-family="Times,serif" font-size="9.00">identity</text>
</g>
<!-- 4529&#45;&gt;1568 -->
<g id="edge21" class="edge">
<title>4529&#45;&gt;1568</title>
<path fill="none" stroke="red" stroke-width="0.22" stroke-dasharray="1,5" d="M118.42,-77.88C117.42,-83.06 116.37,-88.44 115.35,-93.74"/>
<polygon fill="red" stroke="red" stroke-width="0.22" points="111.88,-93.26 113.42,-103.74 118.75,-94.58 111.88,-93.26"/>
<text text-anchor="middle" x="123.34" y="-87.31" font-family="Times,serif" font-size="5.00">&#45;0.585</text>
</g>
<!-- 338&#45;&gt;0 -->
<g id="edge4" class="edge">
<title>338&#45;&gt;0</title>
<path fill="none" stroke="red" stroke-width="0.5" d="M109.5,-172.18C109.37,-172.19 109.24,-172.2 109.11,-172.21"/>
<polygon fill="red" stroke="red" stroke-width="0.5" points="113.23,-168.41 103.51,-172.61 113.73,-175.39 113.23,-168.41"/>
<text text-anchor="middle" x="102.85" y="-167.7" font-family="Times,serif" font-size="5.00">&#45;2.020</text>
</g>
<!-- 338&#45;&gt;1568 -->
<g id="edge7" class="edge">
<title>338&#45;&gt;1568</title>
<path fill="none" stroke="red" stroke-width="0.22" stroke-dasharray="1,5" d="M118.83,-143.74C118.78,-143.7 118.73,-143.66 118.68,-143.62"/>
<polygon fill="red" stroke="red" stroke-width="0.22" points="128.41,-147.32 118.53,-143.49 123.86,-152.65 128.41,-147.32"/>
<text text-anchor="middle" x="112.29" y="-145.18" font-family="Times,serif" font-size="5.00">&#45;0.604</text>
</g>
<!-- 338&#45;&gt;4491 -->
<g id="edge18" class="edge">
<title>338&#45;&gt;4491</title>
<path fill="none" stroke="green" stroke-width="0.3" d="M166.29,-204.64C167.2,-206.48 168.12,-208.34 169.04,-210.19"/>
<polygon fill="green" stroke="green" stroke-width="0.3" points="166,-211.94 173.58,-219.35 172.27,-208.84 166,-211.94"/>
<text text-anchor="middle" x="173.29" y="-208.92" font-family="Times,serif" font-size="5.00">1.000</text>
</g>
<!-- 338&#45;&gt;338 -->
<g id="edge5" class="edge">
<title>338&#45;&gt;338</title>
<path fill="none" stroke="red" stroke-width="0.77" stroke-dasharray="1,5" d="M187.68,-176.06C198.17,-175.71 206.16,-173.48 206.16,-169.36 206.16,-166.73 202.88,-164.86 197.77,-163.77"/>
<polygon fill="red" stroke="red" stroke-width="0.77" points="198,-160.28 187.68,-162.66 197.24,-167.23 198,-160.28"/>
<text text-anchor="middle" x="212.62" y="-167.86" font-family="Times,serif" font-size="5.00">&#45;3.366</text>
</g>
<!-- 3322 -->
<g id="node13" class="node">
<title>3322</title>
<ellipse fill="white" stroke="black" cx="102.37" cy="-91.95" rx="22.04" ry="22.04"/>
<text text-anchor="middle" x="102.37" y="-89.25" font-family="Times,serif" font-size="9.00">tanh</text>
</g>
<!-- 338&#45;&gt;3322 -->
<g id="edge10" class="edge">
<title>338&#45;&gt;3322</title>
<path fill="none" stroke="green" stroke-width="0.47" stroke-dasharray="1,5" d="M128.31,-135.18C125.21,-130.02 122.05,-124.75 119.04,-119.74"/>
<polygon fill="green" stroke="green" stroke-width="0.47" points="122,-117.87 113.86,-111.09 116,-121.47 122,-117.87"/>
<text text-anchor="middle" x="118.05" y="-122.96" font-family="Times,serif" font-size="5.00">1.866</text>
</g>
<!-- 338&#45;&gt;1371 -->
<g id="edge6" class="edge">
<title>338&#45;&gt;1371</title>
<path fill="none" stroke="green" stroke-width="1.35" stroke-dasharray="1,5" d="M133.88,-205.98C133.86,-206.03 133.84,-206.08 133.82,-206.12"/>
<polygon fill="green" stroke="green" stroke-width="1.35" points="134.3,-195.68 133.77,-206.27 140.79,-198.33 134.3,-195.68"/>
<text text-anchor="middle" x="128.23" y="-207.55" font-family="Times,serif" font-size="5.00">6.268</text>
</g>
<!-- 2549 -->
<g id="node11" class="node">
<title>2549</title>
<ellipse fill="white" stroke="black" cx="41.06" cy="-30.76" rx="30.52" ry="30.52"/>
<text text-anchor="middle" x="41.06" y="-28.06" font-family="Times,serif" font-size="9.00">identity</text>
</g>
<!-- 2549&#45;&gt;3322 -->
<g id="edge12" class="edge">
<title>2549&#45;&gt;3322</title>
<path fill="none" stroke="green" stroke-width="0.25" stroke-dasharray="1,5" d="M62.85,-52.51C68.03,-57.68 73.58,-63.21 78.84,-68.46"/>
<polygon fill="green" stroke="green" stroke-width="0.25" points="76.69,-71.27 86.24,-75.85 81.64,-66.31 76.69,-71.27"/>
<text text-anchor="middle" x="76.47" y="-61.98" font-family="Times,serif" font-size="5.00">0.751</text>
</g>
<!-- 4601 -->
<g id="node12" class="node">
<title>4601</title>
<ellipse fill="white" stroke="black" cx="177.07" cy="-38.73" rx="31.65" ry="31.65"/>
<text text-anchor="middle" x="177.07" y="-36.03" font-family="Times,serif" font-size="9.00">sigmoid</text>
</g>
<!-- 4601&#45;&gt;4529 -->
<g id="edge23" class="edge">
<title>4601&#45;&gt;4529</title>
<path fill="none" stroke="green" stroke-width="0.22" d="M145.29,-41.76C145.25,-41.76 145.21,-41.77 145.16,-41.77"/>
<polygon fill="green" stroke="green" stroke-width="0.22" points="154.66,-37.35 145.04,-41.79 155.33,-44.31 154.66,-37.35"/>
<text text-anchor="middle" x="139.6" y="-43.27" font-family="Times,serif" font-size="5.00">0.624</text>
</g>
<!-- 3322&#45;&gt;0 -->
<g id="edge11" class="edge">
<title>3322&#45;&gt;0</title>
<path fill="none" stroke="green" stroke-width="0.47" d="M97.72,-113.92C95.64,-123.74 93.17,-135.43 90.95,-145.87"/>
<polygon fill="green" stroke="green" stroke-width="0.47" points="87.5,-145.28 88.86,-155.79 94.35,-146.73 87.5,-145.28"/>
<text text-anchor="middle" x="99.96" y="-131.4" font-family="Times,serif" font-size="5.00">1.868</text>
</g>
<!-- 3322&#45;&gt;1568 -->
<g id="edge13" class="edge">
<title>3322&#45;&gt;1568</title>
<path fill="none" stroke="red" stroke-width="0.53" d="M105.14,-114.51C105.15,-114.59 105.16,-114.67 105.17,-114.75"/>
<polygon fill="red" stroke="red" stroke-width="0.53" points="100.51,-105.49 105.2,-114.98 107.45,-104.63 100.51,-105.49"/>
<text text-anchor="middle" x="111.62" y="-116.13" font-family="Times,serif" font-size="5.00">&#45;2.147</text>
</g>
<!-- 3322&#45;&gt;4047 -->
<g id="edge17" class="edge">
<title>3322&#45;&gt;4047</title>
<path fill="none" stroke="red" stroke-width="1.04" d="M82.04,-101.51C80.71,-102.13 79.34,-102.78 77.94,-103.43"/>
<polygon fill="red" stroke="red" stroke-width="1.04" points="76.1,-100.43 68.54,-107.85 79.08,-106.77 76.1,-100.43"/>
<text text-anchor="middle" x="73.54" y="-97.97" font-family="Times,serif" font-size="5.00">&#45;4.690</text>
</g>
<!-- 3322&#45;&gt;4529 -->
<g id="edge20" class="edge">
<title>3322&#45;&gt;4529</title>
<path fill="none" stroke="green" stroke-width="0.3" stroke-dasharray="1,5" d="M111.85,-71.77C111.87,-71.71 111.89,-71.66 111.92,-71.61"/>
<polygon fill="green" stroke="green" stroke-width="0.3" points="110.91,-82 111.99,-71.46 104.57,-79.02 110.91,-82"/>
<text text-anchor="middle" x="114.7" y="-67.19" font-family="Times,serif" font-size="5.00">1.000</text>
</g>
<!-- 3322&#45;&gt;4601 -->
<g id="edge22" class="edge">
<title>3322&#45;&gt;4601</title>
<path fill="none" stroke="green" stroke-width="0.3" d="M120.84,-78.8C127.36,-74.15 134.92,-68.76 142.34,-63.47"/>
<polygon fill="green" stroke="green" stroke-width="0.3" points="144.81,-66.01 150.92,-57.36 140.75,-60.31 144.81,-66.01"/>
<text text-anchor="middle" x="137.21" y="-72.64" font-family="Times,serif" font-size="5.00">1.000</text>
</g>
</g>
</svg>
