<?xml version="1.0" encoding="UTF-8" standalone="no"?>
<!DOCTYPE svg PUBLIC "-//W3C//DTD SVG 1.1//EN"
 "http://www.w3.org/Graphics/SVG/1.1/DTD/svg11.dtd">
<!-- Generated by graphviz version 2.47.1 (20210417.1919)
 -->
<!-- Pages: 1 -->
<svg width="251pt" height="194pt"
 viewBox="0.00 0.00 250.73 194.30" xmlns="http://www.w3.org/2000/svg" xmlns:xlink="http://www.w3.org/1999/xlink">
<g id="graph0" class="graph" transform="scale(1 1) rotate(0) translate(4 190.3)">
<polygon fill="white" stroke="transparent" points="-4,4 -4,-190.3 246.73,-190.3 246.73,4 -4,4"/>
<!-- &#45;1 -->
<g id="node1" class="node">
<title>&#45;1</title>
<polygon fill="lightgray" stroke="black" points="97.29,-134.72 73.29,-134.72 73.29,-116.12 97.29,-116.12 97.29,-134.72"/>
<text text-anchor="middle" x="85.29" y="-122.72" font-family="Times,serif" font-size="9.00">&#45;1</text>
</g>
<!-- 0 -->
<g id="node5" class="node">
<title>0</title>
<ellipse fill="lightblue" stroke="black" cx="154.65" cy="-88.45" rx="14.49" ry="14.49"/>
<ellipse fill="none" stroke="black" cx="154.65" cy="-88.45" rx="18.49" ry="18.49"/>
<text text-anchor="middle" x="154.65" y="-85.75" font-family="Times,serif" font-size="9.00">0</text>
</g>
<!-- &#45;1&#45;&gt;0 -->
<g id="edge1" class="edge">
<title>&#45;1&#45;&gt;0</title>
<path fill="none" stroke="red" stroke-width="0.22" stroke-dasharray="1,5" d="M97.06,-119.15C105.87,-114.45 118.27,-107.84 129.3,-101.96"/>
<polygon fill="red" stroke="red" stroke-width="0.22" points="130.96,-105.04 138.14,-97.25 127.67,-98.86 130.96,-105.04"/>
<text text-anchor="middle" x="106.72" y="-112.05" font-family="Times,serif" font-size="5.00">&#45;0.616</text>
</g>
<!-- 959 -->
<g id="node7" class="node">
<title>959</title>
<ellipse fill="white" stroke="black" cx="22.27" cy="-164.03" rx="22.04" ry="22.04"/>
<text text-anchor="middle" x="22.27" y="-161.33" font-family="Times,serif" font-size="9.00">tanh</text>
</g>
<!-- &#45;1&#45;&gt;959 -->
<g id="edge7" class="edge">
<title>&#45;1&#45;&gt;959</title>
<path fill="none" stroke="red" stroke-width="0.39" d="M73.44,-132.68C66.84,-136.72 58.32,-141.94 50.14,-146.95"/>
<polygon fill="red" stroke="red" stroke-width="0.39" points="48.2,-144.04 41.5,-152.25 51.86,-150.01 48.2,-144.04"/>
<text text-anchor="middle" x="55.33" y="-141.32" font-family="Times,serif" font-size="5.00">&#45;1.455</text>
</g>
<!-- &#45;2 -->
<g id="node2" class="node">
<title>&#45;2</title>
<polygon fill="lightgray" stroke="black" points="242.99,-90.7 218.98,-90.7 218.98,-72.1 242.99,-72.1 242.99,-90.7"/>
<text text-anchor="middle" x="230.98" y="-78.7" font-family="Times,serif" font-size="9.00">&#45;2</text>
</g>
<!-- &#45;2&#45;&gt;0 -->
<g id="edge2" class="edge">
<title>&#45;2&#45;&gt;0</title>
<path fill="none" stroke="green" stroke-width="0.17" d="M219.06,-82.5C209.59,-83.38 195.94,-84.64 183.65,-85.77"/>
<polygon fill="green" stroke="green" stroke-width="0.17" points="182.96,-82.32 173.33,-86.73 183.61,-89.29 182.96,-82.32"/>
<text text-anchor="middle" x="195.73" y="-79.64" font-family="Times,serif" font-size="5.00">0.366</text>
</g>
<!-- 1195 -->
<g id="node6" class="node">
<title>1195</title>
<ellipse fill="white" stroke="black" cx="210.1" cy="-143.87" rx="31.65" ry="31.65"/>
<text text-anchor="middle" x="210.1" y="-141.17" font-family="Times,serif" font-size="9.00">sigmoid</text>
</g>
<!-- &#45;2&#45;&gt;1195 -->
<g id="edge5" class="edge">
<title>&#45;2&#45;&gt;1195</title>
<path fill="none" stroke="green" stroke-width="0.37" stroke-dasharray="1,5" d="M227.81,-90.89C226.56,-94.63 225.03,-99.2 223.4,-104.07"/>
<polygon fill="green" stroke="green" stroke-width="0.37" points="220.05,-103.08 220.19,-113.68 226.68,-105.3 220.05,-103.08"/>
<text text-anchor="middle" x="219.98" y="-98.98" font-family="Times,serif" font-size="5.00">1.371</text>
</g>
<!-- &#45;3 -->
<g id="node3" class="node">
<title>&#45;3</title>
<polygon fill="lightgray" stroke="black" points="159.75,-154.7 135.75,-154.7 135.75,-136.1 159.75,-136.1 159.75,-154.7"/>
<text text-anchor="middle" x="147.75" y="-142.7" font-family="Times,serif" font-size="9.00">&#45;3</text>
</g>
<!-- &#45;4 -->
<g id="node4" class="node">
<title>&#45;4</title>
<polygon fill="lightgray" stroke="black" points="152.35,-18.7 128.35,-18.7 128.35,-0.1 152.35,-0.1 152.35,-18.7"/>
<text text-anchor="middle" x="140.35" y="-6.7" font-family="Times,serif" font-size="9.00">&#45;4</text>
</g>
<!-- &#45;4&#45;&gt;0 -->
<g id="edge3" class="edge">
<title>&#45;4&#45;&gt;0</title>
<path fill="none" stroke="green" stroke-width="0.13" stroke-dasharray="1,5" d="M142.05,-18.78C143.88,-28.91 146.9,-45.56 149.52,-60.04"/>
<polygon fill="green" stroke="green" stroke-width="0.13" points="146.11,-60.86 151.33,-70.08 152.99,-59.62 146.11,-60.86"/>
<text text-anchor="middle" x="140.16" y="-40.91" font-family="Times,serif" font-size="5.00">0.146</text>
</g>
<!-- 0&#45;&gt;0 -->
<g id="edge4" class="edge">
<title>0&#45;&gt;0</title>
<path fill="none" stroke="red" stroke-width="0.17" stroke-dasharray="1,5" d="M172.3,-94.88C182.12,-96.08 191.15,-93.93 191.15,-88.45 191.15,-85.02 187.62,-82.9 182.58,-82.08"/>
<polygon fill="red" stroke="red" stroke-width="0.17" points="182.32,-78.58 172.3,-82.02 182.28,-85.58 182.32,-78.58"/>
<text text-anchor="middle" x="197.61" y="-86.95" font-family="Times,serif" font-size="5.00">&#45;0.345</text>
</g>
<!-- 1195&#45;&gt;0 -->
<g id="edge6" class="edge">
<title>1195&#45;&gt;0</title>
<path fill="none" stroke="red" stroke-width="0.87" d="M187.55,-121.33C183.35,-117.13 178.99,-112.77 174.87,-108.65"/>
<polygon fill="red" stroke="red" stroke-width="0.87" points="177.34,-106.18 167.79,-101.58 172.39,-111.13 177.34,-106.18"/>
<text text-anchor="middle" x="174.75" y="-110.49" font-family="Times,serif" font-size="5.00">&#45;3.857</text>
</g>
</g>
</svg>
