<?xml version="1.0" encoding="UTF-8" standalone="no"?>
<!DOCTYPE svg PUBLIC "-//W3C//DTD SVG 1.1//EN"
 "http://www.w3.org/Graphics/SVG/1.1/DTD/svg11.dtd">
<!-- Generated by graphviz version 2.47.1 (20210417.1919)
 -->
<!-- Pages: 1 -->
<svg width="268pt" height="199pt"
 viewBox="0.00 0.00 268.10 199.23" xmlns="http://www.w3.org/2000/svg" xmlns:xlink="http://www.w3.org/1999/xlink">
<g id="graph0" class="graph" transform="scale(1 1) rotate(0) translate(4 195.23)">
<polygon fill="white" stroke="transparent" points="-4,4 -4,-195.23 264.1,-195.23 264.1,4 -4,4"/>
<!-- &#45;1 -->
<g id="node1" class="node">
<title>&#45;1</title>
<polygon fill="lightgray" stroke="black" points="131.75,-162.7 107.75,-162.7 107.75,-144.1 131.75,-144.1 131.75,-162.7"/>
<text text-anchor="middle" x="119.75" y="-150.7" font-family="Times,serif" font-size="9.00">&#45;1</text>
</g>
<!-- &#45;2 -->
<g id="node2" class="node">
<title>&#45;2</title>
<polygon fill="lightgray" stroke="black" points="104.17,-107 80.17,-107 80.17,-88.39 104.17,-88.39 104.17,-107"/>
<text text-anchor="middle" x="92.17" y="-94.99" font-family="Times,serif" font-size="9.00">&#45;2</text>
</g>
<!-- 0 -->
<g id="node5" class="node">
<title>0</title>
<ellipse fill="lightblue" stroke="black" cx="170.66" cy="-82.31" rx="14.49" ry="14.49"/>
<ellipse fill="none" stroke="black" cx="170.66" cy="-82.31" rx="18.49" ry="18.49"/>
<text text-anchor="middle" x="170.66" y="-79.61" font-family="Times,serif" font-size="9.00">0</text>
</g>
<!-- &#45;2&#45;&gt;0 -->
<g id="edge1" class="edge">
<title>&#45;2&#45;&gt;0</title>
<path fill="none" stroke="green" stroke-width="0.34" d="M104.09,-95.36C114.24,-93.37 129.24,-90.43 142.43,-87.85"/>
<polygon fill="green" stroke="green" stroke-width="0.34" points="143.35,-91.23 152.49,-85.87 142.01,-84.36 143.35,-91.23"/>
<text text-anchor="middle" x="117.64" y="-93.1" font-family="Times,serif" font-size="5.00">1.193</text>
</g>
<!-- 3093 -->
<g id="node7" class="node">
<title>3093</title>
<ellipse fill="white" stroke="black" cx="105.36" cy="-36.69" rx="22.08" ry="22.08"/>
<ellipse fill="none" stroke="black" cx="105.36" cy="-36.69" rx="26.04" ry="26.04"/>
<text text-anchor="middle" x="105.36" y="-33.99" font-family="Times,serif" font-size="9.00">tanh</text>
</g>
<!-- &#45;2&#45;&gt;3093 -->
<g id="edge5" class="edge">
<title>&#45;2&#45;&gt;3093</title>
<path fill="none" stroke="red" stroke-width="0.46" d="M94.23,-88.16C95.19,-83.74 96.39,-78.18 97.65,-72.36"/>
<polygon fill="red" stroke="red" stroke-width="0.46" points="101.09,-72.99 99.78,-62.47 94.25,-71.51 101.09,-72.99"/>
<text text-anchor="middle" x="89.48" y="-81.76" font-family="Times,serif" font-size="5.00">&#45;1.808</text>
</g>
<!-- 3718 -->
<g id="node8" class="node">
<title>3718</title>
<ellipse fill="white" stroke="black" cx="31.82" cy="-52.21" rx="31.65" ry="31.65"/>
<text text-anchor="middle" x="31.82" y="-49.51" font-family="Times,serif" font-size="9.00">sigmoid</text>
</g>
<!-- &#45;2&#45;&gt;3718 -->
<g id="edge8" class="edge">
<title>&#45;2&#45;&gt;3718</title>
<path fill="none" stroke="red" stroke-width="0.16" d="M80.25,-88.71C75.96,-85.48 70.9,-81.66 65.68,-77.73"/>
<polygon fill="red" stroke="red" stroke-width="0.16" points="67.54,-74.75 57.45,-71.52 63.33,-80.34 67.54,-74.75"/>
<text text-anchor="middle" x="76.19" y="-78.72" font-family="Times,serif" font-size="5.00">&#45;0.318</text>
</g>
<!-- &#45;3 -->
<g id="node3" class="node">
<title>&#45;3</title>
<polygon fill="lightgray" stroke="black" points="260.35,-106.79 236.35,-106.79 236.35,-88.19 260.35,-88.19 260.35,-106.79"/>
<text text-anchor="middle" x="248.35" y="-94.79" font-family="Times,serif" font-size="9.00">&#45;3</text>
</g>
<!-- &#45;3&#45;&gt;0 -->
<g id="edge2" class="edge">
<title>&#45;3&#45;&gt;0</title>
<path fill="none" stroke="green" stroke-width="0.22" d="M236.55,-95.19C226.57,-93.24 211.86,-90.36 198.87,-87.82"/>
<polygon fill="green" stroke="green" stroke-width="0.22" points="199.43,-84.37 188.94,-85.88 198.09,-91.24 199.43,-84.37"/>
<text text-anchor="middle" x="212.08" y="-93.01" font-family="Times,serif" font-size="5.00">0.596</text>
</g>
<!-- &#45;4 -->
<g id="node4" class="node">
<title>&#45;4</title>
<polygon fill="lightgray" stroke="black" points="223.01,-18.7 199,-18.7 199,-0.1 223.01,-0.1 223.01,-18.7"/>
<text text-anchor="middle" x="211" y="-6.7" font-family="Times,serif" font-size="9.00">&#45;4</text>
</g>
<!-- &#45;4&#45;&gt;0 -->
<g id="edge3" class="edge">
<title>&#45;4&#45;&gt;0</title>
<path fill="none" stroke="red" stroke-width="0.34" stroke-dasharray="1,5" d="M205.73,-18.93C200.4,-28.56 191.94,-43.85 184.67,-57"/>
<polygon fill="red" stroke="red" stroke-width="0.34" points="181.42,-55.64 179.64,-66.09 187.54,-59.03 181.42,-55.64"/>
<text text-anchor="middle" x="188.74" y="-39.47" font-family="Times,serif" font-size="5.00">&#45;1.178</text>
</g>
<!-- 0&#45;&gt;0 -->
<g id="edge4" class="edge">
<title>0&#45;&gt;0</title>
<path fill="none" stroke="red" stroke-width="0.29" stroke-dasharray="1,5" d="M188.31,-88.74C198.13,-89.94 207.16,-87.8 207.16,-82.31 207.16,-78.88 203.63,-76.76 198.59,-75.95"/>
<polygon fill="red" stroke="red" stroke-width="0.29" points="198.33,-72.44 188.31,-75.89 198.29,-79.44 198.33,-72.44"/>
<text text-anchor="middle" x="213.62" y="-80.81" font-family="Times,serif" font-size="5.00">&#45;0.941</text>
</g>
<!-- 3328 -->
<g id="node6" class="node">
<title>3328</title>
<ellipse fill="white" stroke="black" cx="179.52" cy="-164.95" rx="22.08" ry="22.08"/>
<ellipse fill="none" stroke="black" cx="179.52" cy="-164.95" rx="26.04" ry="26.04"/>
<text text-anchor="middle" x="179.52" y="-162.25" font-family="Times,serif" font-size="9.00">tanh</text>
</g>
<!-- 0&#45;&gt;3328 -->
<g id="edge7" class="edge">
<title>0&#45;&gt;3328</title>
<path fill="none" stroke="red" stroke-width="0.88" d="M172.67,-101.07C173.55,-109.25 174.61,-119.14 175.63,-128.66"/>
<polygon fill="red" stroke="red" stroke-width="0.88" points="172.17,-129.19 176.71,-138.76 179.13,-128.44 172.17,-129.19"/>
<text text-anchor="middle" x="167.7" y="-116.36" font-family="Times,serif" font-size="5.00">&#45;3.924</text>
</g>
<!-- 3093&#45;&gt;0 -->
<g id="edge6" class="edge">
<title>3093&#45;&gt;0</title>
<path fill="none" stroke="green" stroke-width="0.72" d="M127.1,-51.88C133.43,-56.3 140.37,-61.15 146.82,-65.66"/>
<polygon fill="green" stroke="green" stroke-width="0.72" points="145,-68.65 155.2,-71.51 149.01,-62.92 145,-68.65"/>
<text text-anchor="middle" x="142.59" y="-60.27" font-family="Times,serif" font-size="5.00">3.097</text>
</g>
<!-- 3718&#45;&gt;3093 -->
<g id="edge9" class="edge">
<title>3718&#45;&gt;3093</title>
<path fill="none" stroke="red" stroke-width="0.46" stroke-dasharray="1,5" d="M63.01,-45.63C65.15,-45.18 67.31,-44.72 69.48,-44.26"/>
<polygon fill="red" stroke="red" stroke-width="0.46" points="70.39,-47.65 79.45,-42.16 68.95,-40.8 70.39,-47.65"/>
<text text-anchor="middle" x="72.7" y="-46.44" font-family="Times,serif" font-size="5.00">&#45;1.808</text>
</g>
</g>
</svg>
