<?xml version="1.0" encoding="UTF-8" standalone="no"?>
<!DOCTYPE svg PUBLIC "-//W3C//DTD SVG 1.1//EN"
 "http://www.w3.org/Graphics/SVG/1.1/DTD/svg11.dtd">
<!-- Generated by graphviz version 2.47.1 (20210417.1919)
 -->
<!-- Pages: 1 -->
<svg width="335pt" height="194pt"
 viewBox="0.00 0.00 335.40 194.36" xmlns="http://www.w3.org/2000/svg" xmlns:xlink="http://www.w3.org/1999/xlink">
<g id="graph0" class="graph" transform="scale(1 1) rotate(0) translate(4 190.36)">
<polygon fill="white" stroke="transparent" points="-4,4 -4,-190.36 331.4,-190.36 331.4,4 -4,4"/>
<!-- &#45;1 -->
<g id="node1" class="node">
<title>&#45;1</title>
<polygon fill="lightgray" stroke="black" points="23.75,-158.86 -0.25,-158.86 -0.25,-140.26 23.75,-140.26 23.75,-158.86"/>
<text text-anchor="middle" x="11.75" y="-146.86" font-family="Times,serif" font-size="9.00">&#45;1</text>
</g>
<!-- 2939 -->
<g id="node10" class="node">
<title>2939</title>
<ellipse fill="white" stroke="black" cx="85.03" cy="-140" rx="31.65" ry="31.65"/>
<text text-anchor="middle" x="85.03" y="-137.3" font-family="Times,serif" font-size="9.00">sigmoid</text>
</g>
<!-- &#45;1&#45;&gt;2939 -->
<g id="edge12" class="edge">
<title>&#45;1&#45;&gt;2939</title>
<path fill="none" stroke="green" stroke-width="0.2" d="M23.52,-148.03C29.09,-147.3 36.1,-146.38 43.38,-145.43"/>
<polygon fill="green" stroke="green" stroke-width="0.2" points="43.9,-148.9 53.36,-144.13 42.99,-141.96 43.9,-148.9"/>
<text text-anchor="middle" x="39.07" y="-148.23" font-family="Times,serif" font-size="5.00">0.519</text>
</g>
<!-- &#45;2 -->
<g id="node2" class="node">
<title>&#45;2</title>
<polygon fill="lightgray" stroke="black" points="232.73,-130.02 208.73,-130.02 208.73,-111.42 232.73,-111.42 232.73,-130.02"/>
<text text-anchor="middle" x="220.73" y="-118.02" font-family="Times,serif" font-size="9.00">&#45;2</text>
</g>
<!-- 0 -->
<g id="node5" class="node">
<title>0</title>
<ellipse fill="lightblue" stroke="black" cx="238.36" cy="-83.35" rx="14.49" ry="14.49"/>
<ellipse fill="none" stroke="black" cx="238.36" cy="-83.35" rx="18.49" ry="18.49"/>
<text text-anchor="middle" x="238.36" y="-80.65" font-family="Times,serif" font-size="9.00">0</text>
</g>
<!-- &#45;2&#45;&gt;0 -->
<g id="edge1" class="edge">
<title>&#45;2&#45;&gt;0</title>
<path fill="none" stroke="red" stroke-width="0.6" d="M225.18,-111.29C225.48,-110.66 225.78,-110.01 226.1,-109.34"/>
<polygon fill="red" stroke="red" stroke-width="0.6" points="229.31,-110.74 230.41,-100.2 222.98,-107.75 229.31,-110.74"/>
<text text-anchor="middle" x="219.18" y="-105.82" font-family="Times,serif" font-size="5.00">&#45;2.517</text>
</g>
<!-- 2153 -->
<g id="node6" class="node">
<title>2153</title>
<ellipse fill="white" stroke="black" cx="155.82" cy="-109.79" rx="31.65" ry="31.65"/>
<text text-anchor="middle" x="155.82" y="-107.09" font-family="Times,serif" font-size="9.00">sigmoid</text>
</g>
<!-- &#45;2&#45;&gt;2153 -->
<g id="edge6" class="edge">
<title>&#45;2&#45;&gt;2153</title>
<path fill="none" stroke="red" stroke-width="0.27" d="M208.82,-118.72C205.41,-118.14 201.47,-117.48 197.32,-116.78"/>
<polygon fill="red" stroke="red" stroke-width="0.27" points="197.84,-113.32 187.4,-115.11 196.68,-120.22 197.84,-113.32"/>
<text text-anchor="middle" x="196.62" y="-119.25" font-family="Times,serif" font-size="5.00">&#45;0.848</text>
</g>
<!-- 2031 -->
<g id="node7" class="node">
<title>2031</title>
<ellipse fill="white" stroke="black" cx="235.17" cy="-22.27" rx="22.04" ry="22.04"/>
<text text-anchor="middle" x="235.17" y="-19.57" font-family="Times,serif" font-size="9.00">tanh</text>
</g>
<!-- &#45;2&#45;&gt;2031 -->
<g id="edge4" class="edge">
<title>&#45;2&#45;&gt;2031</title>
<path fill="none" stroke="green" stroke-width="0.34" d="M222.12,-111.28C224.03,-98.25 227.57,-74.1 230.48,-54.25"/>
<polygon fill="green" stroke="green" stroke-width="0.34" points="233.94,-54.74 231.93,-44.33 227.02,-53.72 233.94,-54.74"/>
<text text-anchor="middle" x="220.67" y="-84.26" font-family="Times,serif" font-size="5.00">1.177</text>
</g>
<!-- 2865 -->
<g id="node8" class="node">
<title>2865</title>
<ellipse fill="white" stroke="black" cx="301.13" cy="-121.47" rx="22.08" ry="22.08"/>
<ellipse fill="none" stroke="black" cx="301.13" cy="-121.47" rx="26.04" ry="26.04"/>
<text text-anchor="middle" x="301.13" y="-118.77" font-family="Times,serif" font-size="9.00">tanh</text>
</g>
<!-- &#45;2&#45;&gt;2865 -->
<g id="edge10" class="edge">
<title>&#45;2&#45;&gt;2865</title>
<path fill="none" stroke="green" stroke-width="0.49" d="M232.59,-120.83C241.02,-120.91 252.83,-121.02 264.27,-121.13"/>
<polygon fill="green" stroke="green" stroke-width="0.49" points="264.54,-124.63 274.57,-121.22 264.6,-117.63 264.54,-124.63"/>
<text text-anchor="middle" x="242.81" y="-122.48" font-family="Times,serif" font-size="5.00">1.971</text>
</g>
<!-- &#45;3 -->
<g id="node3" class="node">
<title>&#45;3</title>
<polygon fill="lightgray" stroke="black" points="319.15,-41.55 295.15,-41.55 295.15,-22.94 319.15,-22.94 319.15,-41.55"/>
<text text-anchor="middle" x="307.15" y="-29.54" font-family="Times,serif" font-size="9.00">&#45;3</text>
</g>
<!-- &#45;3&#45;&gt;0 -->
<g id="edge2" class="edge">
<title>&#45;3&#45;&gt;0</title>
<path fill="none" stroke="red" stroke-width="0.25" stroke-dasharray="1,5" d="M295.17,-41.15C285.9,-48.03 272.8,-57.77 261.51,-66.15"/>
<polygon fill="red" stroke="red" stroke-width="0.25" points="259.26,-63.46 253.32,-72.24 263.44,-69.08 259.26,-63.46"/>
<text text-anchor="middle" x="271.88" y="-55.15" font-family="Times,serif" font-size="5.00">&#45;0.742</text>
</g>
<!-- &#45;4 -->
<g id="node4" class="node">
<title>&#45;4</title>
<polygon fill="lightgray" stroke="black" points="275.25,-186.26 251.25,-186.26 251.25,-167.66 275.25,-167.66 275.25,-186.26"/>
<text text-anchor="middle" x="263.25" y="-174.26" font-family="Times,serif" font-size="9.00">&#45;4</text>
</g>
<!-- &#45;4&#45;&gt;0 -->
<g id="edge3" class="edge">
<title>&#45;4&#45;&gt;0</title>
<path fill="none" stroke="green" stroke-width="0.35" stroke-dasharray="1,5" d="M260.77,-167.64C257.29,-154.55 250.81,-130.16 245.7,-110.98"/>
<polygon fill="green" stroke="green" stroke-width="0.35" points="249.06,-110 243.11,-101.23 242.3,-111.8 249.06,-110"/>
<text text-anchor="middle" x="247.61" y="-140.81" font-family="Times,serif" font-size="5.00">1.262</text>
</g>
<!-- 2153&#45;&gt;0 -->
<g id="edge7" class="edge">
<title>2153&#45;&gt;0</title>
<path fill="none" stroke="red" stroke-width="0.44" stroke-dasharray="1,5" d="M186.55,-99.94C194.45,-97.41 202.91,-94.71 210.65,-92.23"/>
<polygon fill="red" stroke="red" stroke-width="0.44" points="211.85,-95.52 220.31,-89.13 209.71,-88.85 211.85,-95.52"/>
<text text-anchor="middle" x="205.06" y="-97.59" font-family="Times,serif" font-size="5.00">&#45;1.694</text>
</g>
<!-- 2261 -->
<g id="node9" class="node">
<title>2261</title>
<ellipse fill="white" stroke="black" cx="164.14" cy="-41.48" rx="31.65" ry="31.65"/>
<text text-anchor="middle" x="164.14" y="-38.78" font-family="Times,serif" font-size="9.00">sigmoid</text>
</g>
<!-- 2153&#45;&gt;2261 -->
<g id="edge8" class="edge">
<title>2153&#45;&gt;2261</title>
<path fill="none" stroke="green" stroke-width="0.14" d="M159.69,-78.03C159.7,-77.94 159.71,-77.84 159.72,-77.75"/>
<polygon fill="green" stroke="green" stroke-width="0.14" points="162.51,-83.78 160.25,-73.43 155.56,-82.93 162.51,-83.78"/>
<text text-anchor="middle" x="154.08" y="-73.39" font-family="Times,serif" font-size="5.00">0.225</text>
</g>
<!-- 2031&#45;&gt;0 -->
<g id="edge5" class="edge">
<title>2031&#45;&gt;0</title>
<path fill="none" stroke="green" stroke-width="0.38" d="M236.34,-44.67C236.5,-47.84 236.67,-51.13 236.84,-54.4"/>
<polygon fill="green" stroke="green" stroke-width="0.38" points="233.36,-54.77 237.37,-64.57 240.35,-54.4 233.36,-54.77"/>
<text text-anchor="middle" x="230.96" y="-51.03" font-family="Times,serif" font-size="5.00">1.377</text>
</g>
<!-- 2865&#45;&gt;0 -->
<g id="edge11" class="edge">
<title>2865&#45;&gt;0</title>
<path fill="none" stroke="red" stroke-width="0.6" stroke-dasharray="1,5" d="M278.46,-107.71C273.46,-104.67 268.13,-101.44 263.05,-98.35"/>
<polygon fill="red" stroke="red" stroke-width="0.6" points="264.66,-95.23 254.3,-93.03 261.03,-101.21 264.66,-95.23"/>
<text text-anchor="middle" x="264.3" y="-104.53" font-family="Times,serif" font-size="5.00">&#45;2.517</text>
</g>
<!-- 2261&#45;&gt;0 -->
<g id="edge9" class="edge">
<title>2261&#45;&gt;0</title>
<path fill="none" stroke="red" stroke-width="0.27" stroke-dasharray="1,5" d="M192.2,-57.31C199.08,-61.2 206.41,-65.33 213.15,-69.14"/>
<polygon fill="red" stroke="red" stroke-width="0.27" points="211.46,-72.2 221.89,-74.06 214.9,-66.1 211.46,-72.2"/>
<text text-anchor="middle" x="209.13" y="-64.72" font-family="Times,serif" font-size="5.00">&#45;0.864</text>
</g>
<!-- 2939&#45;&gt;2153 -->
<g id="edge13" class="edge">
<title>2939&#45;&gt;2153</title>
<path fill="none" stroke="green" stroke-width="0.33" stroke-dasharray="1,5" d="M114.64,-127.36C115.35,-127.06 116.06,-126.75 116.78,-126.45"/>
<polygon fill="green" stroke="green" stroke-width="0.33" points="118.27,-129.62 126.1,-122.47 115.53,-123.18 118.27,-129.62"/>
<text text-anchor="middle" x="121.34" y="-128.4" font-family="Times,serif" font-size="5.00">1.141</text>
</g>
</g>
</svg>
