<?xml version="1.0" encoding="UTF-8" standalone="no"?>
<!DOCTYPE svg PUBLIC "-//W3C//DTD SVG 1.1//EN"
 "http://www.w3.org/Graphics/SVG/1.1/DTD/svg11.dtd">
<!-- Generated by graphviz version 2.47.1 (20210417.1919)
 -->
<!-- Pages: 1 -->
<svg width="265pt" height="218pt"
 viewBox="0.00 0.00 264.85 217.92" xmlns="http://www.w3.org/2000/svg" xmlns:xlink="http://www.w3.org/1999/xlink">
<g id="graph0" class="graph" transform="scale(1 1) rotate(0) translate(4 213.92)">
<polygon fill="white" stroke="transparent" points="-4,4 -4,-213.92 260.85,-213.92 260.85,4 -4,4"/>
<!-- &#45;1 -->
<g id="node1" class="node">
<title>&#45;1</title>
<polygon fill="lightgray" stroke="black" points="23.75,-101.56 -0.25,-101.56 -0.25,-82.96 23.75,-82.96 23.75,-101.56"/>
<text text-anchor="middle" x="11.75" y="-89.56" font-family="Times,serif" font-size="9.00">&#45;1</text>
</g>
<!-- 0 -->
<g id="node5" class="node">
<title>0</title>
<ellipse fill="lightblue" stroke="black" cx="89.55" cy="-108.95" rx="14.49" ry="14.49"/>
<ellipse fill="none" stroke="black" cx="89.55" cy="-108.95" rx="18.49" ry="18.49"/>
<text text-anchor="middle" x="89.55" y="-106.25" font-family="Times,serif" font-size="9.00">0</text>
</g>
<!-- &#45;1&#45;&gt;0 -->
<g id="edge1" class="edge">
<title>&#45;1&#45;&gt;0</title>
<path fill="none" stroke="green" stroke-width="1.06" stroke-dasharray="1,5" d="M23.56,-94.79C33.56,-96.94 48.29,-100.1 61.3,-102.89"/>
<polygon fill="green" stroke="green" stroke-width="1.06" points="60.73,-106.35 71.24,-105.02 62.2,-99.5 60.73,-106.35"/>
<text text-anchor="middle" x="36.81" y="-100.34" font-family="Times,serif" font-size="5.00">4.819</text>
</g>
<!-- 2768 -->
<g id="node8" class="node">
<title>2768</title>
<ellipse fill="white" stroke="black" cx="51.31" cy="-39.35" rx="35.21" ry="35.21"/>
<ellipse fill="none" stroke="black" cx="51.31" cy="-39.35" rx="39.19" ry="39.19"/>
<text text-anchor="middle" x="51.31" y="-36.65" font-family="Times,serif" font-size="9.00">heaviside</text>
</g>
<!-- &#45;1&#45;&gt;2768 -->
<g id="edge13" class="edge">
<title>&#45;1&#45;&gt;2768</title>
<path fill="none" stroke="green" stroke-width="0.38" d="M19.01,-82.55C19.79,-81.51 20.61,-80.41 21.47,-79.26"/>
<polygon fill="green" stroke="green" stroke-width="0.38" points="24.36,-81.24 27.54,-71.14 18.75,-77.05 24.36,-81.24"/>
<text text-anchor="middle" x="25.86" y="-82.41" font-family="Times,serif" font-size="5.00">1.405</text>
</g>
<!-- &#45;2 -->
<g id="node2" class="node">
<title>&#45;2</title>
<polygon fill="lightgray" stroke="black" points="184.69,-81.69 160.69,-81.69 160.69,-63.08 184.69,-63.08 184.69,-81.69"/>
<text text-anchor="middle" x="172.69" y="-69.68" font-family="Times,serif" font-size="9.00">&#45;2</text>
</g>
<!-- &#45;2&#45;&gt;0 -->
<g id="edge2" class="edge">
<title>&#45;2&#45;&gt;0</title>
<path fill="none" stroke="green" stroke-width="0.44" d="M160.78,-77.62C149.14,-82.74 131.03,-90.71 115.98,-97.33"/>
<polygon fill="green" stroke="green" stroke-width="0.44" points="114.38,-94.21 106.63,-101.44 117.2,-100.61 114.38,-94.21"/>
<text text-anchor="middle" x="132.75" y="-88.97" font-family="Times,serif" font-size="5.00">1.702</text>
</g>
<!-- 2742 -->
<g id="node9" class="node">
<title>2742</title>
<ellipse fill="white" stroke="black" cx="158.78" cy="-129.07" rx="30.55" ry="30.55"/>
<ellipse fill="none" stroke="black" cx="158.78" cy="-129.07" rx="34.52" ry="34.52"/>
<text text-anchor="middle" x="158.78" y="-126.37" font-family="Times,serif" font-size="9.00">identity</text>
</g>
<!-- &#45;2&#45;&gt;2742 -->
<g id="edge7" class="edge">
<title>&#45;2&#45;&gt;2742</title>
<path fill="none" stroke="green" stroke-width="0.49" d="M170.39,-81.75C170.13,-82.81 169.85,-83.93 169.56,-85.11"/>
<polygon fill="green" stroke="green" stroke-width="0.49" points="166.13,-84.42 167.15,-94.96 172.93,-86.08 166.13,-84.42"/>
<text text-anchor="middle" x="164.35" y="-84.93" font-family="Times,serif" font-size="5.00">1.944</text>
</g>
<!-- &#45;3 -->
<g id="node3" class="node">
<title>&#45;3</title>
<polygon fill="lightgray" stroke="black" points="251.75,-37.7 227.75,-37.7 227.75,-19.1 251.75,-19.1 251.75,-37.7"/>
<text text-anchor="middle" x="239.75" y="-25.7" font-family="Times,serif" font-size="9.00">&#45;3</text>
</g>
<!-- &#45;4 -->
<g id="node4" class="node">
<title>&#45;4</title>
<polygon fill="lightgray" stroke="black" points="132.23,-61.02 108.22,-61.02 108.22,-42.42 132.23,-42.42 132.23,-61.02"/>
<text text-anchor="middle" x="120.23" y="-49.02" font-family="Times,serif" font-size="9.00">&#45;4</text>
</g>
<!-- &#45;4&#45;&gt;0 -->
<g id="edge3" class="edge">
<title>&#45;4&#45;&gt;0</title>
<path fill="none" stroke="red" stroke-width="0.31" stroke-dasharray="1,5" d="M115.16,-61.17C111.88,-67.29 107.45,-75.56 103.19,-83.51"/>
<polygon fill="red" stroke="red" stroke-width="0.31" points="99.99,-82.07 98.35,-92.54 106.16,-85.38 99.99,-82.07"/>
<text text-anchor="middle" x="102.72" y="-73.84" font-family="Times,serif" font-size="5.00">&#45;1.029</text>
</g>
<!-- &#45;4&#45;&gt;2768 -->
<g id="edge10" class="edge">
<title>&#45;4&#45;&gt;2768</title>
<path fill="none" stroke="red" stroke-width="0.42" d="M108.22,-49.57C105.72,-49.12 102.94,-48.62 99.98,-48.09"/>
<polygon fill="red" stroke="red" stroke-width="0.42" points="100.58,-44.64 90.12,-46.31 99.34,-51.53 100.58,-44.64"/>
<text text-anchor="middle" x="97.65" y="-50.33" font-family="Times,serif" font-size="5.00">&#45;1.579</text>
</g>
<!-- &#45;4&#45;&gt;2742 -->
<g id="edge9" class="edge">
<title>&#45;4&#45;&gt;2742</title>
<path fill="none" stroke="red" stroke-width="0.14" stroke-dasharray="1,5" d="M124.95,-61.21C128.47,-68.26 133.53,-78.4 138.66,-88.71"/>
<polygon fill="red" stroke="red" stroke-width="0.14" points="135.57,-90.35 143.16,-97.74 141.83,-87.22 135.57,-90.35"/>
<text text-anchor="middle" x="125.35" y="-76.46" font-family="Times,serif" font-size="5.00">&#45;0.185</text>
</g>
<!-- 0&#45;&gt;0 -->
<g id="edge4" class="edge">
<title>0&#45;&gt;0</title>
<path fill="none" stroke="red" stroke-width="0.7" stroke-dasharray="1,5" d="M107.2,-115.38C117.01,-116.58 126.05,-114.43 126.05,-108.95 126.05,-105.52 122.52,-103.4 117.47,-102.58"/>
<polygon fill="red" stroke="red" stroke-width="0.7" points="117.22,-99.08 107.2,-102.52 117.18,-106.08 117.22,-99.08"/>
<text text-anchor="middle" x="132.5" y="-107.45" font-family="Times,serif" font-size="5.00">&#45;2.988</text>
</g>
<!-- 1568 -->
<g id="node6" class="node">
<title>1568</title>
<ellipse fill="white" stroke="black" cx="57.21" cy="-184.29" rx="22.04" ry="22.04"/>
<text text-anchor="middle" x="57.21" y="-181.59" font-family="Times,serif" font-size="9.00">tanh</text>
</g>
<!-- 0&#45;&gt;1568 -->
<g id="edge5" class="edge">
<title>0&#45;&gt;1568</title>
<path fill="none" stroke="red" stroke-width="0.34" stroke-dasharray="1,5" d="M82.21,-126.05C78.61,-134.45 74.16,-144.82 70.01,-154.47"/>
<polygon fill="red" stroke="red" stroke-width="0.34" points="66.75,-153.21 66.02,-163.78 73.18,-155.97 66.75,-153.21"/>
<text text-anchor="middle" x="69.66" y="-141.76" font-family="Times,serif" font-size="5.00">&#45;1.189</text>
</g>
<!-- 1568&#45;&gt;1568 -->
<g id="edge6" class="edge">
<title>1568&#45;&gt;1568</title>
<path fill="none" stroke="red" stroke-width="0.23" d="M78.76,-190.91C88.75,-191.63 97.49,-189.42 97.49,-184.29 97.49,-181.08 94.07,-179.02 89.08,-178.1"/>
<polygon fill="red" stroke="red" stroke-width="0.23" points="88.89,-174.59 78.76,-177.67 88.61,-181.58 88.89,-174.59"/>
<text text-anchor="middle" x="103.94" y="-182.79" font-family="Times,serif" font-size="5.00">&#45;0.652</text>
</g>
<!-- 1903 -->
<g id="node7" class="node">
<title>1903</title>
<ellipse fill="white" stroke="black" cx="221.5" cy="-174.57" rx="35.19" ry="35.19"/>
<text text-anchor="middle" x="221.5" y="-171.87" font-family="Times,serif" font-size="9.00">heaviside</text>
</g>
<!-- 2768&#45;&gt;0 -->
<g id="edge11" class="edge">
<title>2768&#45;&gt;0</title>
<path fill="none" stroke="red" stroke-width="0.76" stroke-dasharray="1,5" d="M70.43,-74.15C72.19,-77.34 73.94,-80.54 75.64,-83.62"/>
<polygon fill="red" stroke="red" stroke-width="0.76" points="72.61,-85.38 80.49,-92.45 78.74,-82 72.61,-85.38"/>
<text text-anchor="middle" x="66.58" y="-80.39" font-family="Times,serif" font-size="5.00">&#45;3.298</text>
</g>
<!-- 2742&#45;&gt;0 -->
<g id="edge8" class="edge">
<title>2742&#45;&gt;0</title>
<path fill="none" stroke="red" stroke-width="0.55" d="M125.38,-119.36C122.56,-118.54 119.73,-117.72 116.96,-116.92"/>
<polygon fill="red" stroke="red" stroke-width="0.55" points="117.94,-113.56 107.36,-114.13 115.98,-120.28 117.94,-113.56"/>
<text text-anchor="middle" x="114.72" y="-119.64" font-family="Times,serif" font-size="5.00">&#45;2.237</text>
</g>
<!-- 2742&#45;&gt;1903 -->
<g id="edge12" class="edge">
<title>2742&#45;&gt;1903</title>
<path fill="none" stroke="green" stroke-width="0.77" stroke-dasharray="1,5" d="M187.2,-149.69C187.32,-149.78 187.43,-149.86 187.55,-149.94"/>
<polygon fill="green" stroke="green" stroke-width="0.77" points="182.52,-150.62 192.67,-153.65 186.63,-144.95 182.52,-150.62"/>
<text text-anchor="middle" x="181.75" y="-151.32" font-family="Times,serif" font-size="5.00">3.326</text>
</g>
</g>
</svg>
