<?xml version="1.0" encoding="UTF-8" standalone="no"?>
<!DOCTYPE svg PUBLIC "-//W3C//DTD SVG 1.1//EN"
 "http://www.w3.org/Graphics/SVG/1.1/DTD/svg11.dtd">
<!-- Generated by graphviz version 2.38.0 (20140413.2041)
 -->
<!-- Title: %3 Pages: 1 -->
<svg width="798pt" height="574pt"
 viewBox="0.00 0.00 797.89 574.45" xmlns="http://www.w3.org/2000/svg" xmlns:xlink="http://www.w3.org/1999/xlink">
<g id="graph0" class="graph" transform="scale(1 1) rotate(0) translate(419.853 258.408)">
<title>%3</title>
<polygon fill="white" stroke="none" points="-419.853,316.042 -419.853,-258.408 378.039,-258.408 378.039,316.042 -419.853,316.042"/>
<!-- &#45;1 -->
<g id="node1" class="node"><title>&#45;1</title>
<polygon fill="lightgray" stroke="black" points="99.3531,-75.2666 76.3531,-75.2666 76.3531,-57.2666 99.3531,-57.2666 99.3531,-75.2666"/>
<text text-anchor="middle" x="87.8531" y="-64.0666" font-family="Times New Roman,serif" font-size="9.00">H</text>
</g>
<!-- 80256 -->
<g id="node7" class="node"><title>80256</title>
<ellipse fill="white" stroke="black" cx="62.0349" cy="22.7571" rx="31.6406" ry="31.6406"/>
<text text-anchor="middle" x="62.0349" y="24.9571" font-family="Times New Roman,serif" font-size="9.00">identity</text>
</g>
<!-- &#45;1&#45;&gt;80256 -->
<g id="edge8" class="edge"><title>&#45;1&#45;&gt;80256</title>
<path fill="none" stroke="green" stroke-width="0.401816" d="M85.1873,-57.0748C82.4656,-47.6901 78.0485,-32.4593 73.7983,-17.8041"/>
<polygon fill="green" stroke="green" stroke-width="0.401816" points="77.0523,-16.4585 70.9054,-7.82918 70.3293,-18.4083 77.0523,-16.4585"/>
<text text-anchor="middle" x="72.4928" y="-39.4395" font-family="Times New Roman,serif" font-size="5.00">1.509</text>
</g>
<!-- 91906 -->
<g id="node8" class="node"><title>91906</title>
<ellipse fill="white" stroke="black" cx="134.784" cy="-133.397" rx="31.6605" ry="31.6605"/>
<ellipse fill="none" stroke="black" cx="134.784" cy="-133.397" rx="35.6405" ry="35.6405"/>
<text text-anchor="middle" x="134.784" y="-131.197" font-family="Times New Roman,serif" font-size="9.00">identity</text>
</g>
<!-- &#45;1&#45;&gt;91906 -->
<g id="edge29" class="edge"><title>&#45;1&#45;&gt;91906</title>
<path fill="none" stroke="green" stroke-width="0.443673" d="M94.1823,-75.32C97.9673,-80.7341 103.06,-88.0191 108.358,-95.5966"/>
<polygon fill="green" stroke="green" stroke-width="0.443673" points="105.536,-97.6689 114.134,-103.859 111.273,-93.6581 105.536,-97.6689"/>
<text text-anchor="middle" x="94.27" y="-87.4583" font-family="Times New Roman,serif" font-size="5.00">1.718</text>
</g>
<!-- &#45;2 -->
<g id="node2" class="node"><title>&#45;2</title>
<polygon fill="lightgray" stroke="black" points="-77.1708,85.024 -100.171,85.024 -100.171,103.024 -77.1708,103.024 -77.1708,85.024"/>
<text text-anchor="middle" x="-88.6708" y="96.224" font-family="Times New Roman,serif" font-size="9.00">T</text>
</g>
<!-- 0 -->
<g id="node5" class="node"><title>0</title>
<ellipse fill="lightblue" stroke="black" cx="-93.2195" cy="31.3339" rx="14.7314" ry="14.7314"/>
<ellipse fill="none" stroke="black" cx="-93.2195" cy="31.3339" rx="18.6997" ry="18.6997"/>
<text text-anchor="middle" x="-93.2195" y="33.5339" font-family="Times New Roman,serif" font-size="9.00">0</text>
</g>
<!-- &#45;2&#45;&gt;0 -->
<g id="edge1" class="edge"><title>&#45;2&#45;&gt;0</title>
<path fill="none" stroke="green" stroke-width="0.862142" d="M-89.3419,84.7739C-89.8144,78.2622 -90.4747,69.162 -91.1167,60.3146"/>
<polygon fill="green" stroke="green" stroke-width="0.862142" points="-94.6165,60.4418 -91.8495,50.2147 -87.6349,59.9352 -94.6165,60.4418"/>
<text text-anchor="middle" x="-97.2293" y="70.5442" font-family="Times New Roman,serif" font-size="5.00">3.811</text>
</g>
<!-- 69377 -->
<g id="node6" class="node"><title>69377</title>
<ellipse fill="white" stroke="black" cx="-24.1646" cy="36.8578" rx="31.2129" ry="31.2129"/>
<ellipse fill="none" stroke="black" cx="-24.1646" cy="36.8578" rx="35.2258" ry="35.2258"/>
<text text-anchor="middle" x="-24.1646" y="39.0578" font-family="Times New Roman,serif" font-size="9.00">sigmoid</text>
</g>
<!-- &#45;2&#45;&gt;69377 -->
<g id="edge4" class="edge"><title>&#45;2&#45;&gt;69377</title>
<path fill="none" stroke="red" stroke-width="0.320598" d="M-78.3067,84.8393C-72.8144,79.9719 -65.7186,73.6835 -58.4836,67.2717"/>
<polygon fill="red" stroke="red" stroke-width="0.320598" points="-60.4529,64.3403 -50.6475,60.3273 -55.8102,69.5792 -60.4529,64.3403"/>
<text text-anchor="middle" x="-76.3952" y="74.0555" font-family="Times New Roman,serif" font-size="5.00">&#45;1.103</text>
</g>
<!-- 66065 -->
<g id="node12" class="node"><title>66065</title>
<ellipse fill="white" stroke="black" cx="-36.7264" cy="151.607" rx="31.6605" ry="31.6605"/>
<ellipse fill="none" stroke="black" cx="-36.7264" cy="151.607" rx="35.6405" ry="35.6405"/>
<text text-anchor="middle" x="-36.7264" y="153.807" font-family="Times New Roman,serif" font-size="9.00">identity</text>
</g>
<!-- &#45;2&#45;&gt;66065 -->
<g id="edge7" class="edge"><title>&#45;2&#45;&gt;66065</title>
<path fill="none" stroke="red" stroke-width="0.119618" d="M-80.325,103.276C-76.7411,107.249 -72.3093,112.162 -67.657,117.319"/>
<polygon fill="red" stroke="red" stroke-width="0.119618" points="-64.8556,115.199 -60.7563,124.969 -70.0534,119.888 -64.8556,115.199"/>
<text text-anchor="middle" x="-81.991" y="108.297" font-family="Times New Roman,serif" font-size="5.00">&#45;0.098</text>
</g>
<!-- 79420 -->
<g id="node20" class="node"><title>79420</title>
<ellipse fill="white" stroke="black" cx="-141.359" cy="24.7969" rx="22.7556" ry="22.7556"/>
<text text-anchor="middle" x="-141.359" y="26.9969" font-family="Times New Roman,serif" font-size="9.00">tanh</text>
</g>
<!-- &#45;2&#45;&gt;79420 -->
<g id="edge38" class="edge"><title>&#45;2&#45;&gt;79420</title>
<path fill="none" stroke="green" stroke-width="0.312404" d="M-95.5588,84.9738C-102.131,76.3381 -112.354,62.906 -121.476,50.9211"/>
<polygon fill="green" stroke="green" stroke-width="0.312404" points="-124.285,53.009 -127.557,42.9318 -118.715,48.7695 -124.285,53.009"/>
<text text-anchor="middle" x="-115.517" y="65.9474" font-family="Times New Roman,serif" font-size="5.00">1.062</text>
</g>
<!-- 81888 -->
<g id="node29" class="node"><title>81888</title>
<ellipse fill="white" stroke="black" cx="-140.919" cy="166.493" rx="31.6605" ry="31.6605"/>
<ellipse fill="none" stroke="black" cx="-140.919" cy="166.493" rx="35.6405" ry="35.6405"/>
<text text-anchor="middle" x="-140.919" y="168.693" font-family="Times New Roman,serif" font-size="9.00">identity</text>
</g>
<!-- &#45;2&#45;&gt;81888 -->
<g id="edge18" class="edge"><title>&#45;2&#45;&gt;81888</title>
<path fill="none" stroke="red" stroke-width="0.193824" stroke-dasharray="1,5" d="M-95.2881,103.202C-100.136,109.927 -107.067,119.54 -114.068,129.25"/>
<polygon fill="red" stroke="red" stroke-width="0.193824" points="-111.233,131.303 -119.921,137.368 -116.911,127.209 -111.233,131.303"/>
<text text-anchor="middle" x="-112.678" y="114.226" font-family="Times New Roman,serif" font-size="5.00">&#45;0.469</text>
</g>
<!-- &#45;3 -->
<g id="node3" class="node"><title>&#45;3</title>
<polygon fill="lightgray" stroke="black" points="31.5,-174 0.5,-174 0.5,-156 31.5,-156 31.5,-174"/>
<text text-anchor="middle" x="16" y="-162.8" font-family="Times New Roman,serif" font-size="9.00">ME</text>
</g>
<!-- &#45;4 -->
<g id="node4" class="node"><title>&#45;4</title>
<polygon fill="lightgray" stroke="black" points="-173.502,-30.9334 -196.502,-30.9334 -196.502,-12.9334 -173.502,-12.9334 -173.502,-30.9334"/>
<text text-anchor="middle" x="-185.002" y="-19.7334" font-family="Times New Roman,serif" font-size="9.00">R</text>
</g>
<!-- &#45;4&#45;&gt;0 -->
<g id="edge2" class="edge"><title>&#45;4&#45;&gt;0</title>
<path fill="none" stroke="red" stroke-width="0.308791" stroke-dasharray="1,5" d="M-173.378,-15.1871C-159.658,-7.22468 -136.445,6.24735 -118.52,16.6505"/>
<polygon fill="red" stroke="red" stroke-width="0.308791" points="-116.598,13.7188 -109.706,21.7656 -120.112,19.7731 -116.598,13.7188"/>
<text text-anchor="middle" x="-153.949" y="-1.26828" font-family="Times New Roman,serif" font-size="5.00">&#45;1.044</text>
</g>
<!-- 74393 -->
<g id="node15" class="node"><title>74393</title>
<ellipse fill="white" stroke="black" cx="-276.55" cy="-17.0202" rx="22.7362" ry="22.7362"/>
<ellipse fill="none" stroke="black" cx="-276.55" cy="-17.0202" rx="26.7554" ry="26.7554"/>
<text text-anchor="middle" x="-276.55" y="-14.8202" font-family="Times New Roman,serif" font-size="9.00">tanh</text>
</g>
<!-- &#45;4&#45;&gt;74393 -->
<g id="edge32" class="edge"><title>&#45;4&#45;&gt;74393</title>
<path fill="none" stroke="green" stroke-width="0.10314" d="M-196.597,-21.3112C-207.386,-20.7321 -224.062,-19.8371 -239.398,-19.0141"/>
<polygon fill="green" stroke="green" stroke-width="0.10314" points="-239.539,-15.5016 -249.713,-18.4605 -239.915,-22.4915 -239.539,-15.5016"/>
<text text-anchor="middle" x="-224.997" y="-22.1626" font-family="Times New Roman,serif" font-size="5.00">0.016</text>
</g>
<!-- 69377&#45;&gt;0 -->
<g id="edge5" class="edge"><title>69377&#45;&gt;0</title>
<path fill="none" stroke="green" stroke-width="0.229259" d="M-59.5012,34.0311C-60.9198,33.9176 -62.3365,33.8043 -63.7419,33.6919"/>
<polygon fill="green" stroke="green" stroke-width="0.229259" points="-64.4437,37.147 -74.1328,32.8607 -63.8855,30.1693 -64.4437,37.147"/>
<text text-anchor="middle" x="-68.6216" y="31.8615" font-family="Times New Roman,serif" font-size="5.00">0.646</text>
</g>
<!-- 69377&#45;&gt;80256 -->
<g id="edge25" class="edge"><title>69377&#45;&gt;80256</title>
<path fill="none" stroke="red" stroke-width="1.04516" stroke-dasharray="1,5" d="M10.896,31.1225C14.0568,30.6055 17.2774,30.0786 20.4866,29.5537"/>
<polygon fill="red" stroke="red" stroke-width="1.04516" points="20.1761,26.058 30.61,27.8977 21.3063,32.9662 20.1761,26.058"/>
<text text-anchor="middle" x="19.6913" y="34.3381" font-family="Times New Roman,serif" font-size="5.00">&#45;4.726</text>
</g>
<!-- 93125 -->
<g id="node21" class="node"><title>93125</title>
<ellipse fill="white" stroke="black" cx="99.6582" cy="92.1166" rx="31.2258" ry="31.2258"/>
<text text-anchor="middle" x="99.6582" y="94.3166" font-family="Times New Roman,serif" font-size="9.00">sigmoid</text>
</g>
<!-- 80256&#45;&gt;93125 -->
<g id="edge34" class="edge"><title>80256&#45;&gt;93125</title>
<path fill="none" stroke="green" stroke-width="0.164832" d="M77.3377,50.9683C78.1769,52.5154 79.0258,54.0803 79.8773,55.65"/>
<polygon fill="green" stroke="green" stroke-width="0.164832" points="83.0428,54.1454 84.7344,64.6043 76.8898,57.483 83.0428,54.1454"/>
<text text-anchor="middle" x="71.6075" y="57.3092" font-family="Times New Roman,serif" font-size="5.00">0.324</text>
</g>
<!-- 85599 -->
<g id="node28" class="node"><title>85599</title>
<ellipse fill="white" stroke="black" cx="142.241" cy="60.1077" rx="22.7362" ry="22.7362"/>
<ellipse fill="none" stroke="black" cx="142.241" cy="60.1077" rx="26.7554" ry="26.7554"/>
<text text-anchor="middle" x="142.241" y="62.3077" font-family="Times New Roman,serif" font-size="9.00">tanh</text>
</g>
<!-- 80256&#45;&gt;85599 -->
<g id="edge19" class="edge"><title>80256&#45;&gt;85599</title>
<path fill="none" stroke="green" stroke-width="0.360129" stroke-dasharray="1,5" d="M90.9911,36.2415C96.8215,38.9567 102.993,41.8308 108.958,44.6084"/>
<polygon fill="green" stroke="green" stroke-width="0.360129" points="110.494,41.4626 118.081,48.857 107.538,47.8082 110.494,41.4626"/>
<text text-anchor="middle" x="106.975" y="38.425" font-family="Times New Roman,serif" font-size="5.00">1.301</text>
</g>
<!-- 91015 -->
<g id="node9" class="node"><title>91015</title>
<ellipse fill="white" stroke="black" cx="351.411" cy="151.017" rx="22.7556" ry="22.7556"/>
<text text-anchor="middle" x="351.411" y="153.217" font-family="Times New Roman,serif" font-size="9.00">tanh</text>
</g>
<!-- 91349 -->
<g id="node25" class="node"><title>91349</title>
<ellipse fill="white" stroke="black" cx="283.637" cy="121.958" rx="35.2113" ry="35.2113"/>
<text text-anchor="middle" x="283.637" y="124.158" font-family="Times New Roman,serif" font-size="9.00">heaviside</text>
</g>
<!-- 91015&#45;&gt;91349 -->
<g id="edge30" class="edge"><title>91015&#45;&gt;91349</title>
<path fill="none" stroke="red" stroke-width="0.597896" d="M330.339,141.982C328.789,141.318 327.198,140.635 325.581,139.942"/>
<polygon fill="red" stroke="red" stroke-width="0.597896" points="323.956,143.053 316.144,135.896 326.714,136.62 323.956,143.053"/>
<text text-anchor="middle" x="323.96" y="144.962" font-family="Times New Roman,serif" font-size="5.00">&#45;2.489</text>
</g>
<!-- 93451 -->
<g id="node10" class="node"><title>93451</title>
<ellipse fill="white" stroke="black" cx="-314.946" cy="127.068" rx="22.7362" ry="22.7362"/>
<ellipse fill="none" stroke="black" cx="-314.946" cy="127.068" rx="26.7554" ry="26.7554"/>
<text text-anchor="middle" x="-314.946" y="129.268" font-family="Times New Roman,serif" font-size="9.00">tanh</text>
</g>
<!-- 81301 -->
<g id="node13" class="node"><title>81301</title>
<ellipse fill="white" stroke="black" cx="-229.202" cy="189.887" rx="22.7362" ry="22.7362"/>
<ellipse fill="none" stroke="black" cx="-229.202" cy="189.887" rx="26.7554" ry="26.7554"/>
<text text-anchor="middle" x="-229.202" y="192.087" font-family="Times New Roman,serif" font-size="9.00">tanh</text>
</g>
<!-- 93451&#45;&gt;81301 -->
<g id="edge42" class="edge"><title>93451&#45;&gt;81301</title>
<path fill="none" stroke="green" stroke-width="0.205046" stroke-dasharray="1,5" d="M-293.309,142.92C-282.951,150.508 -270.381,159.718 -259.125,167.964"/>
<polygon fill="green" stroke="green" stroke-width="0.205046" points="-256.83,165.306 -250.832,174.04 -260.967,170.953 -256.83,165.306"/>
<text text-anchor="middle" x="-283.217" y="159.442" font-family="Times New Roman,serif" font-size="5.00">0.525</text>
</g>
<!-- 87469 -->
<g id="node18" class="node"><title>87469</title>
<ellipse fill="white" stroke="black" cx="-389.225" cy="94.1623" rx="22.7362" ry="22.7362"/>
<ellipse fill="none" stroke="black" cx="-389.225" cy="94.1623" rx="26.7554" ry="26.7554"/>
<text text-anchor="middle" x="-389.225" y="96.3623" font-family="Times New Roman,serif" font-size="9.00">tanh</text>
</g>
<!-- 93451&#45;&gt;87469 -->
<g id="edge37" class="edge"><title>93451&#45;&gt;87469</title>
<path fill="none" stroke="red" stroke-width="0.655934" stroke-dasharray="1,5" d="M-339.68,116.111C-344.744,113.867 -350.156,111.47 -355.475,109.114"/>
<polygon fill="red" stroke="red" stroke-width="0.655934" points="-357.127,112.21 -364.852,104.96 -354.292,105.81 -357.127,112.21"/>
<text text-anchor="middle" x="-351.578" y="116.612" font-family="Times New Roman,serif" font-size="5.00">&#45;2.780</text>
</g>
<!-- 67215 -->
<g id="node11" class="node"><title>67215</title>
<ellipse fill="white" stroke="black" cx="-359.547" cy="186.738" rx="35.2113" ry="35.2113"/>
<text text-anchor="middle" x="-359.547" y="188.938" font-family="Times New Roman,serif" font-size="9.00">heaviside</text>
</g>
<!-- 85206 -->
<g id="node24" class="node"><title>85206</title>
<ellipse fill="white" stroke="black" cx="-209.726" cy="283.073" rx="22.7556" ry="22.7556"/>
<text text-anchor="middle" x="-209.726" y="285.273" font-family="Times New Roman,serif" font-size="9.00">tanh</text>
</g>
<!-- 81301&#45;&gt;85206 -->
<g id="edge16" class="edge"><title>81301&#45;&gt;85206</title>
<path fill="none" stroke="green" stroke-width="0.564339" d="M-223.673,216.341C-221.434,227.052 -218.828,239.522 -216.479,250.763"/>
<polygon fill="green" stroke="green" stroke-width="0.564339" points="-213.031,250.152 -214.411,260.656 -219.883,251.584 -213.031,250.152"/>
<text text-anchor="middle" x="-227.076" y="231.552" font-family="Times New Roman,serif" font-size="5.00">2.322</text>
</g>
<!-- 39038 -->
<g id="node33" class="node"><title>39038</title>
<ellipse fill="white" stroke="black" cx="-226.915" cy="232.907" rx="35.2259" ry="35.2259"/>
<ellipse fill="none" stroke="black" cx="-226.915" cy="232.907" rx="39.2112" ry="39.2112"/>
<text text-anchor="middle" x="-226.915" y="235.107" font-family="Times New Roman,serif" font-size="9.00">heaviside</text>
</g>
<!-- 81301&#45;&gt;39038 -->
<g id="edge10" class="edge"><title>81301&#45;&gt;39038</title>
<path fill="none" stroke="red" stroke-width="0.125237" d="M-227.766,216.888C-227.763,216.955 -227.759,217.023 -227.755,217.09"/>
<polygon fill="red" stroke="red" stroke-width="0.125237" points="-224.785,207.118 -227.745,217.292 -231.775,207.493 -224.785,207.118"/>
<text text-anchor="middle" x="-235.761" y="220.989" font-family="Times New Roman,serif" font-size="5.00">&#45;0.126</text>
</g>
<!-- 65688 -->
<g id="node14" class="node"><title>65688</title>
<ellipse fill="white" stroke="black" cx="-335.503" cy="46.2293" rx="31.6605" ry="31.6605"/>
<ellipse fill="none" stroke="black" cx="-335.503" cy="46.2293" rx="35.6405" ry="35.6405"/>
<text text-anchor="middle" x="-335.503" y="48.4293" font-family="Times New Roman,serif" font-size="9.00">identity</text>
</g>
<!-- 65688&#45;&gt;93451 -->
<g id="edge36" class="edge"><title>65688&#45;&gt;93451</title>
<path fill="none" stroke="red" stroke-width="1.5185" stroke-dasharray="1,5" d="M-326.666,80.9812C-325.817,84.319 -324.955,87.7095 -324.103,91.059"/>
<polygon fill="red" stroke="red" stroke-width="1.5185" points="-320.675,90.3374 -321.603,100.892 -327.459,92.0626 -320.675,90.3374"/>
<text text-anchor="middle" x="-333.384" y="90.0201" font-family="Times New Roman,serif" font-size="5.00">&#45;7.093</text>
</g>
<!-- 65688&#45;&gt;74393 -->
<g id="edge15" class="edge"><title>65688&#45;&gt;74393</title>
<path fill="none" stroke="red" stroke-width="0.237947" d="M-310.843,19.7723C-307.944,16.6622 -304.982,13.4835 -302.071,10.3611"/>
<polygon fill="red" stroke="red" stroke-width="0.237947" points="-304.39,7.71508 -295.011,2.7863 -299.269,12.4879 -304.39,7.71508"/>
<text text-anchor="middle" x="-298.457" y="13.0667" font-family="Times New Roman,serif" font-size="5.00">&#45;0.690</text>
</g>
<!-- 65688&#45;&gt;87469 -->
<g id="edge26" class="edge"><title>65688&#45;&gt;87469</title>
<path fill="none" stroke="red" stroke-width="0.409796" d="M-362.364,70.1958C-362.508,70.3245 -362.653,70.4533 -362.797,70.582"/>
<polygon fill="red" stroke="red" stroke-width="0.409796" points="-359.429,72.2678 -369.221,76.3138 -364.09,67.0446 -359.429,72.2678"/>
<text text-anchor="middle" x="-354.581" y="68.3889" font-family="Times New Roman,serif" font-size="5.00">&#45;1.549</text>
</g>
<!-- 80413 -->
<g id="node16" class="node"><title>80413</title>
<ellipse fill="white" stroke="black" cx="-96.8492" cy="242.743" rx="35.2113" ry="35.2113"/>
<text text-anchor="middle" x="-96.8492" y="244.943" font-family="Times New Roman,serif" font-size="9.00">heaviside</text>
</g>
<!-- 52138 -->
<g id="node17" class="node"><title>52138</title>
<ellipse fill="white" stroke="black" cx="-264.763" cy="153.866" rx="31.2258" ry="31.2258"/>
<text text-anchor="middle" x="-264.763" y="156.066" font-family="Times New Roman,serif" font-size="9.00">sigmoid</text>
</g>
<!-- 52138&#45;&gt;67215 -->
<g id="edge41" class="edge"><title>52138&#45;&gt;67215</title>
<path fill="none" stroke="red" stroke-width="0.729568" d="M-294.234,164.087C-301.341,166.552 -309.079,169.235 -316.661,171.865"/>
<polygon fill="red" stroke="red" stroke-width="0.729568" points="-315.529,175.177 -326.124,175.146 -317.822,168.563 -315.529,175.177"/>
<text text-anchor="middle" x="-313.447" y="165.976" font-family="Times New Roman,serif" font-size="5.00">&#45;3.148</text>
</g>
<!-- 52138&#45;&gt;81301 -->
<g id="edge9" class="edge"><title>52138&#45;&gt;81301</title>
<path fill="none" stroke="red" stroke-width="0.667789" d="M-242.849,176.063C-242.792,176.121 -242.735,176.179 -242.678,176.237"/>
<polygon fill="red" stroke="red" stroke-width="0.667789" points="-247.042,166.833 -242.507,176.41 -252.024,171.752 -247.042,166.833"/>
<text text-anchor="middle" x="-250.763" y="174.15" font-family="Times New Roman,serif" font-size="5.00">&#45;2.839</text>
</g>
<!-- 116791 -->
<g id="node19" class="node"><title>116791</title>
<ellipse fill="white" stroke="black" cx="-292.089" cy="212.453" rx="31.2258" ry="31.2258"/>
<text text-anchor="middle" x="-292.089" y="214.653" font-family="Times New Roman,serif" font-size="9.00">sigmoid</text>
</g>
<!-- 52138&#45;&gt;116791 -->
<g id="edge39" class="edge"><title>52138&#45;&gt;116791</title>
<path fill="none" stroke="green" stroke-width="0.268532" d="M-277.945,182.13C-277.986,182.218 -278.027,182.306 -278.068,182.393"/>
<polygon fill="green" stroke="green" stroke-width="0.268532" points="-271.529,176.654 -278.928,184.238 -277.873,173.695 -271.529,176.654"/>
<text text-anchor="middle" x="-285.007" y="180.262" font-family="Times New Roman,serif" font-size="5.00">0.843</text>
</g>
<!-- 52138&#45;&gt;39038 -->
<g id="edge3" class="edge"><title>52138&#45;&gt;39038</title>
<path fill="none" stroke="green" stroke-width="0.465407" stroke-dasharray="1,5" d="M-251.312,181.955C-250.346,183.974 -249.358,186.037 -248.361,188.119"/>
<polygon fill="green" stroke="green" stroke-width="0.465407" points="-245.125,186.772 -243.963,197.303 -251.439,189.795 -245.125,186.772"/>
<text text-anchor="middle" x="-253.337" y="189.037" font-family="Times New Roman,serif" font-size="5.00">1.827</text>
</g>
<!-- 116791&#45;&gt;81301 -->
<g id="edge40" class="edge"><title>116791&#45;&gt;81301</title>
<path fill="none" stroke="red" stroke-width="0.543246" d="M-262.487,201.831C-262.403,201.801 -262.319,201.771 -262.236,201.741"/>
<polygon fill="red" stroke="red" stroke-width="0.543246" points="-265.078,199.042 -254.483,198.959 -262.713,205.631 -265.078,199.042"/>
<text text-anchor="middle" x="-270.361" y="199.786" font-family="Times New Roman,serif" font-size="5.00">&#45;2.216</text>
</g>
<!-- 69869 -->
<g id="node31" class="node"><title>69869</title>
<ellipse fill="white" stroke="black" cx="-70.1868" cy="-27.9177" rx="35.2113" ry="35.2113"/>
<text text-anchor="middle" x="-70.1868" y="-25.7177" font-family="Times New Roman,serif" font-size="9.00">heaviside</text>
</g>
<!-- 79420&#45;&gt;69869 -->
<g id="edge11" class="edge"><title>79420&#45;&gt;69869</title>
<path fill="none" stroke="red" stroke-width="0.742566" stroke-dasharray="1,5" d="M-123.03,11.2216C-118.049,7.53229 -112.473,3.40215 -106.861,-0.754725"/>
<polygon fill="red" stroke="red" stroke-width="0.742566" points="-108.796,-3.6766 -98.6772,-6.81594 -104.63,1.94853 -108.796,-3.6766"/>
<text text-anchor="middle" x="-110.946" y="9.23343" font-family="Times New Roman,serif" font-size="5.00">&#45;3.213</text>
</g>
<!-- 93125&#45;&gt;85599 -->
<g id="edge35" class="edge"><title>93125&#45;&gt;85599</title>
<path fill="none" stroke="green" stroke-width="0.203553" d="M124.921,73.1269C124.992,73.0731 125.064,73.0193 125.136,72.9655"/>
<polygon fill="green" stroke="green" stroke-width="0.203553" points="115.252,76.0166 125.35,72.8044 119.459,81.6126 115.252,76.0166"/>
<text text-anchor="middle" x="118.028" y="71.0462" font-family="Times New Roman,serif" font-size="5.00">0.518</text>
</g>
<!-- 71123 -->
<g id="node22" class="node"><title>71123</title>
<ellipse fill="white" stroke="black" cx="117.803" cy="-18.2009" rx="35.2113" ry="35.2113"/>
<text text-anchor="middle" x="117.803" y="-16.0009" font-family="Times New Roman,serif" font-size="9.00">heaviside</text>
</g>
<!-- 71123&#45;&gt;80256 -->
<g id="edge12" class="edge"><title>71123&#45;&gt;80256</title>
<path fill="none" stroke="red" stroke-width="0.355984" d="M89.2657,2.75806C89.1585,2.83678 89.0513,2.9155 88.9441,2.99421"/>
<polygon fill="red" stroke="red" stroke-width="0.355984" points="98.1122,0.603307 87.9803,3.70203 93.9684,-5.03869 98.1122,0.603307"/>
<text text-anchor="middle" x="97.1049" y="0.876131" font-family="Times New Roman,serif" font-size="5.00">&#45;1.280</text>
</g>
<!-- 83541 -->
<g id="node23" class="node"><title>83541</title>
<ellipse fill="white" stroke="black" cx="-127.852" cy="-67.2562" rx="31.2129" ry="31.2129"/>
<ellipse fill="none" stroke="black" cx="-127.852" cy="-67.2562" rx="35.2258" ry="35.2258"/>
<text text-anchor="middle" x="-127.852" y="-65.0562" font-family="Times New Roman,serif" font-size="9.00">sigmoid</text>
</g>
<!-- 83541&#45;&gt;79420 -->
<g id="edge13" class="edge"><title>83541&#45;&gt;79420</title>
<path fill="none" stroke="red" stroke-width="0.349274" d="M-132.959,-32.4548C-134.143,-24.3834 -135.399,-15.8215 -136.569,-7.8467"/>
<polygon fill="red" stroke="red" stroke-width="0.349274" points="-133.13,-7.17773 -138.045,2.2082 -140.056,-8.194 -133.13,-7.17773"/>
<text text-anchor="middle" x="-142.764" y="-22.1508" font-family="Times New Roman,serif" font-size="5.00">&#45;1.246</text>
</g>
<!-- 85206&#45;&gt;39038 -->
<g id="edge17" class="edge"><title>85206&#45;&gt;39038</title>
<path fill="none" stroke="green" stroke-width="0.290709" stroke-dasharray="1,5" d="M-217.115,261.507C-217.134,261.454 -217.152,261.401 -217.17,261.347"/>
<polygon fill="green" stroke="green" stroke-width="0.290709" points="-217.291,271.784 -217.225,261.188 -210.668,269.512 -217.291,271.784"/>
<text text-anchor="middle" x="-224.143" y="259.427" font-family="Times New Roman,serif" font-size="5.00">0.954</text>
</g>
<!-- 91996 -->
<g id="node26" class="node"><title>91996</title>
<ellipse fill="white" stroke="black" cx="-212.741" cy="77.9917" rx="31.6605" ry="31.6605"/>
<ellipse fill="none" stroke="black" cx="-212.741" cy="77.9917" rx="35.6405" ry="35.6405"/>
<text text-anchor="middle" x="-212.741" y="80.1917" font-family="Times New Roman,serif" font-size="9.00">identity</text>
</g>
<!-- 91996&#45;&gt;52138 -->
<g id="edge33" class="edge"><title>91996&#45;&gt;52138</title>
<path fill="none" stroke="red" stroke-width="0.149662" d="M-233.003,107.544C-235.642,111.393 -238.364,115.363 -241.053,119.285"/>
<polygon fill="red" stroke="red" stroke-width="0.149662" points="-238.3,121.459 -246.842,127.728 -244.073,117.501 -238.3,121.459"/>
<text text-anchor="middle" x="-245.028" y="117.414" font-family="Times New Roman,serif" font-size="5.00">&#45;0.248</text>
</g>
<!-- 91996&#45;&gt;79420 -->
<g id="edge31" class="edge"><title>91996&#45;&gt;79420</title>
<path fill="none" stroke="red" stroke-width="0.246986" d="M-183.707,56.3554C-178.465,52.4488 -173.024,48.3942 -167.859,44.545"/>
<polygon fill="red" stroke="red" stroke-width="0.246986" points="-169.62,41.4924 -159.51,38.3234 -165.437,47.1053 -169.62,41.4924"/>
<text text-anchor="middle" x="-167.783" y="54.4502" font-family="Times New Roman,serif" font-size="5.00">&#45;0.735</text>
</g>
<!-- 86878 -->
<g id="node27" class="node"><title>86878</title>
<ellipse fill="white" stroke="black" cx="-160.962" cy="-227.78" rx="22.7362" ry="22.7362"/>
<ellipse fill="none" stroke="black" cx="-160.962" cy="-227.78" rx="26.7554" ry="26.7554"/>
<text text-anchor="middle" x="-160.962" y="-225.58" font-family="Times New Roman,serif" font-size="9.00">tanh</text>
</g>
<!-- 86143 -->
<g id="node34" class="node"><title>86143</title>
<ellipse fill="white" stroke="black" cx="-143.363" cy="-150.685" rx="35.2259" ry="35.2259"/>
<ellipse fill="none" stroke="black" cx="-143.363" cy="-150.685" rx="39.2112" ry="39.2112"/>
<text text-anchor="middle" x="-143.363" y="-148.485" font-family="Times New Roman,serif" font-size="9.00">heaviside</text>
</g>
<!-- 86878&#45;&gt;86143 -->
<g id="edge24" class="edge"><title>86878&#45;&gt;86143</title>
<path fill="none" stroke="green" stroke-width="1.24307" stroke-dasharray="1,5" d="M-155.004,-201.679C-154.803,-200.8 -154.601,-199.911 -154.396,-199.015"/>
<polygon fill="green" stroke="green" stroke-width="1.24307" points="-150.973,-199.746 -152.16,-189.218 -157.797,-198.189 -150.973,-199.746"/>
<text text-anchor="middle" x="-161.7" y="-196.347" font-family="Times New Roman,serif" font-size="5.00">5.715</text>
</g>
<!-- 86755 -->
<g id="node30" class="node"><title>86755</title>
<ellipse fill="white" stroke="black" cx="213.426" cy="95.3409" rx="31.6605" ry="31.6605"/>
<ellipse fill="none" stroke="black" cx="213.426" cy="95.3409" rx="35.6405" ry="35.6405"/>
<text text-anchor="middle" x="213.426" y="97.5409" font-family="Times New Roman,serif" font-size="9.00">identity</text>
</g>
<!-- 85599&#45;&gt;86755 -->
<g id="edge23" class="edge"><title>85599&#45;&gt;86755</title>
<path fill="none" stroke="red" stroke-width="0.110513" stroke-dasharray="1,5" d="M166.341,72.0361C168.126,72.9194 169.954,73.8242 171.804,74.7401"/>
<polygon fill="red" stroke="red" stroke-width="0.110513" points="173.737,71.7913 181.146,79.3641 170.632,78.0649 173.737,71.7913"/>
<text text-anchor="middle" x="169.073" y="77.3881" font-family="Times New Roman,serif" font-size="5.00">&#45;0.053</text>
</g>
<!-- 81888&#45;&gt;81301 -->
<g id="edge14" class="edge"><title>81888&#45;&gt;81301</title>
<path fill="none" stroke="red" stroke-width="0.766218" stroke-dasharray="1,5" d="M-175.558,175.672C-181.499,177.246 -187.682,178.884 -193.647,180.465"/>
<polygon fill="red" stroke="red" stroke-width="0.766218" points="-192.837,183.871 -203.4,183.049 -194.63,177.105 -192.837,183.871"/>
<text text-anchor="middle" x="-192.602" y="176.068" font-family="Times New Roman,serif" font-size="5.00">&#45;3.331</text>
</g>
<!-- 81888&#45;&gt;80413 -->
<g id="edge27" class="edge"><title>81888&#45;&gt;80413</title>
<path fill="none" stroke="red" stroke-width="0.219263" stroke-dasharray="1,5" d="M-122.994,197.507C-121.958,199.3 -120.909,201.115 -119.856,202.936"/>
<polygon fill="red" stroke="red" stroke-width="0.219263" points="-116.589,201.594 -114.615,212.004 -122.65,205.097 -116.589,201.594"/>
<text text-anchor="middle" x="-129.425" y="204.221" font-family="Times New Roman,serif" font-size="5.00">&#45;0.596</text>
</g>
<!-- 86755&#45;&gt;91349 -->
<g id="edge28" class="edge"><title>86755&#45;&gt;91349</title>
<path fill="none" stroke="green" stroke-width="0.783705" d="M247.298,108.182C247.42,108.228 247.543,108.275 247.666,108.321"/>
<polygon fill="green" stroke="green" stroke-width="0.783705" points="242.134,102.481 250.244,109.299 239.653,109.026 242.134,102.481"/>
<text text-anchor="middle" x="240.482" y="106.251" font-family="Times New Roman,serif" font-size="5.00">3.419</text>
</g>
<!-- 69869&#45;&gt;69377 -->
<g id="edge6" class="edge"><title>69869&#45;&gt;69377</title>
<path fill="none" stroke="green" stroke-width="0.319293" stroke-dasharray="1,5" d="M-49.5986,1.05978C-49.4969,1.20294 -49.3951,1.34619 -49.2933,1.48952"/>
<polygon fill="green" stroke="green" stroke-width="0.319293" points="-47.6391,-2.22508 -44.7003,7.95406 -53.3454,1.82926 -47.6391,-2.22508"/>
<text text-anchor="middle" x="-56.446" y="-0.725347" font-family="Times New Roman,serif" font-size="5.00">1.096</text>
</g>
<!-- 69869&#45;&gt;83541 -->
<g id="edge22" class="edge"><title>69869&#45;&gt;83541</title>
<path fill="none" stroke="red" stroke-width="0.118162" d="M-99.6953,-48.0479C-99.7507,-48.0857 -99.8062,-48.1235 -99.8616,-48.1613"/>
<polygon fill="red" stroke="red" stroke-width="0.118162" points="-93.7392,-39.7455 -100.028,-48.2747 -89.7929,-45.5287 -93.7392,-39.7455"/>
<text text-anchor="middle" x="-91.7785" y="-50.1046" font-family="Times New Roman,serif" font-size="5.00">&#45;0.091</text>
</g>
<!-- 41213 -->
<g id="node32" class="node"><title>41213</title>
<ellipse fill="white" stroke="black" cx="-273.366" cy="276.929" rx="31.2129" ry="31.2129"/>
<ellipse fill="none" stroke="black" cx="-273.366" cy="276.929" rx="35.2258" ry="35.2258"/>
<text text-anchor="middle" x="-273.366" y="279.129" font-family="Times New Roman,serif" font-size="9.00">sigmoid</text>
</g>
<!-- 41213&#45;&gt;81301 -->
<g id="edge21" class="edge"><title>41213&#45;&gt;81301</title>
<path fill="none" stroke="red" stroke-width="0.129524" d="M-257.422,245.505C-253.704,238.177 -249.734,230.353 -245.982,222.957"/>
<polygon fill="red" stroke="red" stroke-width="0.129524" points="-249.026,221.221 -241.38,213.887 -242.783,224.389 -249.026,221.221"/>
<text text-anchor="middle" x="-243.702" y="232.231" font-family="Times New Roman,serif" font-size="5.00">&#45;0.148</text>
</g>
<!-- 86143&#45;&gt;83541 -->
<g id="edge20" class="edge"><title>86143&#45;&gt;83541</title>
<path fill="none" stroke="red" stroke-width="0.265534" d="M-136.153,-111.901C-136.133,-111.798 -136.114,-111.694 -136.095,-111.59"/>
<polygon fill="red" stroke="red" stroke-width="0.265534" points="-132.69,-112.425 -134.303,-101.954 -139.572,-111.146 -132.69,-112.425"/>
<text text-anchor="middle" x="-144.124" y="-107.746" font-family="Times New Roman,serif" font-size="5.00">&#45;0.828</text>
</g>
</g>
</svg>
