<?xml version="1.0" encoding="UTF-8" standalone="no"?>
<!DOCTYPE svg PUBLIC "-//W3C//DTD SVG 1.1//EN"
 "http://www.w3.org/Graphics/SVG/1.1/DTD/svg11.dtd">
<!-- Generated by graphviz version 2.47.1 (20210417.1919)
 -->
<!-- Pages: 1 -->
<svg width="427pt" height="456pt"
 viewBox="0.00 0.00 427.25 455.81" xmlns="http://www.w3.org/2000/svg" xmlns:xlink="http://www.w3.org/1999/xlink">
<g id="graph0" class="graph" transform="scale(1 1) rotate(0) translate(4 451.81)">
<polygon fill="white" stroke="transparent" points="-4,4 -4,-451.81 423.25,-451.81 423.25,4 -4,4"/>
<!-- &#45;1 -->
<g id="node1" class="node">
<title>&#45;1</title>
<polygon fill="lightgray" stroke="black" points="57.75,-222.7 33.75,-222.7 33.75,-204.1 57.75,-204.1 57.75,-222.7"/>
<text text-anchor="middle" x="45.75" y="-210.7" font-family="Times,serif" font-size="9.00">&#45;1</text>
</g>
<!-- &#45;2 -->
<g id="node2" class="node">
<title>&#45;2</title>
<polygon fill="lightgray" stroke="black" points="23.75,-328.41 -0.25,-328.41 -0.25,-309.81 23.75,-309.81 23.75,-328.41"/>
<text text-anchor="middle" x="11.75" y="-316.41" font-family="Times,serif" font-size="9.00">&#45;2</text>
</g>
<!-- 0 -->
<g id="node5" class="node">
<title>0</title>
<ellipse fill="lightblue" stroke="black" cx="74.02" cy="-348.52" rx="14.49" ry="14.49"/>
<ellipse fill="none" stroke="black" cx="74.02" cy="-348.52" rx="18.49" ry="18.49"/>
<text text-anchor="middle" x="74.02" y="-345.82" font-family="Times,serif" font-size="9.00">0</text>
</g>
<!-- &#45;2&#45;&gt;0 -->
<g id="edge1" class="edge">
<title>&#45;2&#45;&gt;0</title>
<path fill="none" stroke="green" stroke-width="0.35" d="M23.75,-324.78C30.64,-328.03 39.55,-332.24 47.96,-336.21"/>
<polygon fill="green" stroke="green" stroke-width="0.35" points="46.57,-339.43 57.11,-340.53 49.56,-333.1 46.57,-339.43"/>
<text text-anchor="middle" x="30.23" y="-332" font-family="Times,serif" font-size="5.00">1.236</text>
</g>
<!-- 16049 -->
<g id="node13" class="node">
<title>16049</title>
<ellipse fill="white" stroke="black" cx="77.41" cy="-276.71" rx="31.65" ry="31.65"/>
<text text-anchor="middle" x="77.41" y="-274.01" font-family="Times,serif" font-size="9.00">sigmoid</text>
</g>
<!-- &#45;2&#45;&gt;16049 -->
<g id="edge3" class="edge">
<title>&#45;2&#45;&gt;16049</title>
<path fill="none" stroke="green" stroke-width="1.01" d="M23.79,-311.33C28.93,-308.01 35.23,-303.94 41.68,-299.78"/>
<polygon fill="green" stroke="green" stroke-width="1.01" points="43.96,-302.47 50.47,-294.1 40.17,-296.59 43.96,-302.47"/>
<text text-anchor="middle" x="27.11" y="-301.06" font-family="Times,serif" font-size="5.00">4.536</text>
</g>
<!-- &#45;3 -->
<g id="node3" class="node">
<title>&#45;3</title>
<polygon fill="lightgray" stroke="black" points="166.02,-348 142.01,-348 142.01,-329.4 166.02,-329.4 166.02,-348"/>
<text text-anchor="middle" x="154.02" y="-336" font-family="Times,serif" font-size="9.00">&#45;3</text>
</g>
<!-- &#45;3&#45;&gt;0 -->
<g id="edge2" class="edge">
<title>&#45;3&#45;&gt;0</title>
<path fill="none" stroke="red" stroke-width="0.29" stroke-dasharray="1,5" d="M142.21,-340.15C131.75,-341.43 116.06,-343.36 102.36,-345.04"/>
<polygon fill="red" stroke="red" stroke-width="0.29" points="101.9,-341.57 92.4,-346.27 102.75,-348.52 101.9,-341.57"/>
<text text-anchor="middle" x="115.83" y="-344.09" font-family="Times,serif" font-size="5.00">&#45;0.937</text>
</g>
<!-- 59439 -->
<g id="node12" class="node">
<title>59439</title>
<ellipse fill="white" stroke="black" cx="140.44" cy="-254.18" rx="22.04" ry="22.04"/>
<text text-anchor="middle" x="140.44" y="-251.48" font-family="Times,serif" font-size="9.00">tanh</text>
</g>
<!-- &#45;3&#45;&gt;59439 -->
<g id="edge19" class="edge">
<title>&#45;3&#45;&gt;59439</title>
<path fill="none" stroke="green" stroke-width="0.22" stroke-dasharray="1,5" d="M152.51,-329.33C150.85,-318.99 148.08,-301.78 145.62,-286.44"/>
<polygon fill="green" stroke="green" stroke-width="0.22" points="149.02,-285.54 143.98,-276.23 142.11,-286.65 149.02,-285.54"/>
<text text-anchor="middle" x="143.44" y="-309.39" font-family="Times,serif" font-size="5.00">0.580</text>
</g>
<!-- 130617 -->
<g id="node15" class="node">
<title>130617</title>
<ellipse fill="white" stroke="black" cx="126.17" cy="-421.54" rx="22.08" ry="22.08"/>
<ellipse fill="none" stroke="black" cx="126.17" cy="-421.54" rx="26.04" ry="26.04"/>
<text text-anchor="middle" x="126.17" y="-418.84" font-family="Times,serif" font-size="9.00">tanh</text>
</g>
<!-- &#45;3&#45;&gt;130617 -->
<g id="edge49" class="edge">
<title>&#45;3&#45;&gt;130617</title>
<path fill="none" stroke="green" stroke-width="0.68" stroke-dasharray="1,5" d="M150.82,-348.2C147.62,-357.73 142.49,-372.98 137.74,-387.11"/>
<polygon fill="green" stroke="green" stroke-width="0.68" points="134.41,-386.04 134.54,-396.63 141.05,-388.27 134.41,-386.04"/>
<text text-anchor="middle" x="138.66" y="-369.16" font-family="Times,serif" font-size="5.00">2.894</text>
</g>
<!-- 68053 -->
<g id="node22" class="node">
<title>68053</title>
<ellipse fill="white" stroke="black" cx="250.5" cy="-336.22" rx="30.52" ry="30.52"/>
<text text-anchor="middle" x="250.5" y="-333.52" font-family="Times,serif" font-size="9.00">identity</text>
</g>
<!-- &#45;3&#45;&gt;68053 -->
<g id="edge26" class="edge">
<title>&#45;3&#45;&gt;68053</title>
<path fill="none" stroke="green" stroke-width="0.51" stroke-dasharray="1,5" d="M165.85,-338.39C176.74,-338.11 193.57,-337.68 209.35,-337.28"/>
<polygon fill="green" stroke="green" stroke-width="0.51" points="209.6,-340.77 219.5,-337.02 209.42,-333.78 209.6,-340.77"/>
<text text-anchor="middle" x="181.97" y="-339.34" font-family="Times,serif" font-size="5.00">2.038</text>
</g>
<!-- 45782 -->
<g id="node23" class="node">
<title>45782</title>
<ellipse fill="white" stroke="black" cx="212.29" cy="-360.55" rx="30.52" ry="30.52"/>
<text text-anchor="middle" x="212.29" y="-357.85" font-family="Times,serif" font-size="9.00">identity</text>
</g>
<!-- &#45;3&#45;&gt;45782 -->
<g id="edge7" class="edge">
<title>&#45;3&#45;&gt;45782</title>
<path fill="none" stroke="red" stroke-width="0.8" d="M165.81,-343.12C168.26,-344.04 170.96,-345.05 173.8,-346.12"/>
<polygon fill="red" stroke="red" stroke-width="0.8" points="172.57,-349.39 183.17,-349.63 175.03,-342.84 172.57,-349.39"/>
<text text-anchor="middle" x="176.26" y="-346.12" font-family="Times,serif" font-size="5.00">&#45;3.512</text>
</g>
<!-- 49761 -->
<g id="node25" class="node">
<title>49761</title>
<ellipse fill="white" stroke="black" cx="194.12" cy="-293.98" rx="31.65" ry="31.65"/>
<text text-anchor="middle" x="194.12" y="-291.28" font-family="Times,serif" font-size="9.00">sigmoid</text>
</g>
<!-- &#45;3&#45;&gt;49761 -->
<g id="edge9" class="edge">
<title>&#45;3&#45;&gt;49761</title>
<path fill="none" stroke="red" stroke-width="0.43" stroke-dasharray="1,5" d="M162.52,-329.21C163.56,-328.05 164.67,-326.82 165.82,-325.54"/>
<polygon fill="red" stroke="red" stroke-width="0.43" points="168.68,-327.59 172.75,-317.81 163.47,-322.91 168.68,-327.59"/>
<text text-anchor="middle" x="170.63" y="-328.87" font-family="Times,serif" font-size="5.00">&#45;1.644</text>
</g>
<!-- &#45;4 -->
<g id="node4" class="node">
<title>&#45;4</title>
<polygon fill="lightgray" stroke="black" points="196.07,-105.64 172.06,-105.64 172.06,-87.03 196.07,-87.03 196.07,-105.64"/>
<text text-anchor="middle" x="184.06" y="-93.64" font-family="Times,serif" font-size="9.00">&#45;4</text>
</g>
<!-- 36983 -->
<g id="node30" class="node">
<title>36983</title>
<ellipse fill="white" stroke="black" cx="209.16" cy="-184.63" rx="35.21" ry="35.21"/>
<ellipse fill="none" stroke="black" cx="209.16" cy="-184.63" rx="39.19" ry="39.19"/>
<text text-anchor="middle" x="209.16" y="-181.93" font-family="Times,serif" font-size="9.00">heaviside</text>
</g>
<!-- &#45;4&#45;&gt;36983 -->
<g id="edge6" class="edge">
<title>&#45;4&#45;&gt;36983</title>
<path fill="none" stroke="green" stroke-width="0.33" d="M186.75,-105.79C188.92,-113.43 192.16,-124.83 195.51,-136.6"/>
<polygon fill="green" stroke="green" stroke-width="0.33" points="192.22,-137.83 198.32,-146.5 198.95,-135.92 192.22,-137.83"/>
<text text-anchor="middle" x="185.5" y="-122.69" font-family="Times,serif" font-size="5.00">1.163</text>
</g>
<!-- 49281 -->
<g id="node6" class="node">
<title>49281</title>
<ellipse fill="white" stroke="black" cx="255.67" cy="-213.18" rx="35.19" ry="35.19"/>
<text text-anchor="middle" x="255.67" y="-210.48" font-family="Times,serif" font-size="9.00">heaviside</text>
</g>
<!-- 51458 -->
<g id="node7" class="node">
<title>51458</title>
<ellipse fill="white" stroke="black" cx="319.64" cy="-190.26" rx="22.04" ry="22.04"/>
<text text-anchor="middle" x="319.64" y="-187.56" font-family="Times,serif" font-size="9.00">tanh</text>
</g>
<!-- 49281&#45;&gt;51458 -->
<g id="edge12" class="edge">
<title>49281&#45;&gt;51458</title>
<path fill="none" stroke="red" stroke-width="0.86" stroke-dasharray="1,5" d="M289.15,-201.18C289.25,-201.15 289.35,-201.11 289.45,-201.08"/>
<polygon fill="red" stroke="red" stroke-width="0.86" points="290.17,-204.53 298.41,-197.87 287.81,-197.95 290.17,-204.53"/>
<text text-anchor="middle" x="292.53" y="-196.63" font-family="Times,serif" font-size="5.00">&#45;3.778</text>
</g>
<!-- 67846 -->
<g id="node8" class="node">
<title>67846</title>
<ellipse fill="white" stroke="black" cx="271.25" cy="-293.51" rx="31.65" ry="31.65"/>
<text text-anchor="middle" x="271.25" y="-290.81" font-family="Times,serif" font-size="9.00">sigmoid</text>
</g>
<!-- 49281&#45;&gt;67846 -->
<g id="edge21" class="edge">
<title>49281&#45;&gt;67846</title>
<path fill="none" stroke="red" stroke-width="0.41" stroke-dasharray="1,5" d="M262.46,-248.18C262.71,-249.49 262.97,-250.8 263.22,-252.12"/>
<polygon fill="red" stroke="red" stroke-width="0.41" points="259.83,-253.01 265.17,-262.16 266.7,-251.68 259.83,-253.01"/>
<text text-anchor="middle" x="256.38" y="-251.65" font-family="Times,serif" font-size="5.00">&#45;1.555</text>
</g>
<!-- 69671 -->
<g id="node11" class="node">
<title>69671</title>
<ellipse fill="white" stroke="black" cx="275.27" cy="-147.86" rx="35.21" ry="35.21"/>
<ellipse fill="none" stroke="black" cx="275.27" cy="-147.86" rx="39.19" ry="39.19"/>
<text text-anchor="middle" x="275.27" y="-145.16" font-family="Times,serif" font-size="9.00">heaviside</text>
</g>
<!-- 49281&#45;&gt;69671 -->
<g id="edge27" class="edge">
<title>49281&#45;&gt;69671</title>
<path fill="none" stroke="red" stroke-width="0.21" d="M265.93,-178.99C265.95,-178.93 265.97,-178.87 265.99,-178.8"/>
<polygon fill="red" stroke="red" stroke-width="0.21" points="266.52,-189.2 266.04,-178.62 259.81,-187.19 266.52,-189.2"/>
<text text-anchor="middle" x="259.5" y="-180.4" font-family="Times,serif" font-size="5.00">&#45;0.546</text>
</g>
<!-- 30146 -->
<g id="node16" class="node">
<title>30146</title>
<ellipse fill="white" stroke="black" cx="282.47" cy="-253.36" rx="31.67" ry="31.67"/>
<ellipse fill="none" stroke="black" cx="282.47" cy="-253.36" rx="35.65" ry="35.65"/>
<text text-anchor="middle" x="282.47" y="-250.66" font-family="Times,serif" font-size="9.00">sigmoid</text>
</g>
<!-- 49281&#45;&gt;30146 -->
<g id="edge8" class="edge">
<title>49281&#45;&gt;30146</title>
<path fill="none" stroke="red" stroke-width="0.23" stroke-dasharray="1,5" d="M275.43,-242.8C275.46,-242.85 275.49,-242.9 275.52,-242.94"/>
<polygon fill="red" stroke="red" stroke-width="0.23" points="267.15,-236.71 275.61,-243.08 272.97,-232.82 267.15,-236.71"/>
<text text-anchor="middle" x="275.47" y="-238.37" font-family="Times,serif" font-size="5.00">&#45;0.673</text>
</g>
<!-- 50114 -->
<g id="node17" class="node">
<title>50114</title>
<ellipse fill="white" stroke="black" cx="263.66" cy="-107.25" rx="31.67" ry="31.67"/>
<ellipse fill="none" stroke="black" cx="263.66" cy="-107.25" rx="35.65" ry="35.65"/>
<text text-anchor="middle" x="263.66" y="-104.55" font-family="Times,serif" font-size="9.00">sigmoid</text>
</g>
<!-- 49281&#45;&gt;50114 -->
<g id="edge17" class="edge">
<title>49281&#45;&gt;50114</title>
<path fill="none" stroke="red" stroke-width="0.18" stroke-dasharray="1,5" d="M258.33,-177.91C258.93,-169.95 259.58,-161.39 260.21,-153.06"/>
<polygon fill="red" stroke="red" stroke-width="0.18" points="263.7,-153.32 260.96,-143.09 256.72,-152.8 263.7,-153.32"/>
<text text-anchor="middle" x="262.5" y="-160.99" font-family="Times,serif" font-size="5.00">&#45;0.413</text>
</g>
<!-- 49281&#45;&gt;49761 -->
<g id="edge11" class="edge">
<title>49281&#45;&gt;49761</title>
<path fill="none" stroke="green" stroke-width="1.17" stroke-dasharray="1,5" d="M234.14,-241.44C229.52,-247.51 224.59,-253.99 219.83,-260.24"/>
<polygon fill="green" stroke="green" stroke-width="1.17" points="216.75,-258.5 213.48,-268.57 222.32,-262.74 216.75,-258.5"/>
<text text-anchor="middle" x="232.61" y="-252.34" font-family="Times,serif" font-size="5.00">5.327</text>
</g>
<!-- 51458&#45;&gt;30146 -->
<g id="edge13" class="edge">
<title>51458&#45;&gt;30146</title>
<path fill="none" stroke="green" stroke-width="0.51" stroke-dasharray="1,5" d="M303.33,-205.69C302.24,-207.26 301.15,-208.89 300.06,-210.57"/>
<polygon fill="green" stroke="green" stroke-width="0.51" points="296.96,-208.93 294.71,-219.28 302.92,-212.6 296.96,-208.93"/>
<text text-anchor="middle" x="296.07" y="-209.63" font-family="Times,serif" font-size="5.00">2.037</text>
</g>
<!-- 52948 -->
<g id="node21" class="node">
<title>52948</title>
<ellipse fill="white" stroke="black" cx="364.09" cy="-209.04" rx="30.52" ry="30.52"/>
<text text-anchor="middle" x="364.09" y="-206.34" font-family="Times,serif" font-size="9.00">identity</text>
</g>
<!-- 51458&#45;&gt;52948 -->
<g id="edge15" class="edge">
<title>51458&#45;&gt;52948</title>
<path fill="none" stroke="green" stroke-width="0.38" stroke-dasharray="1,5" d="M340.3,-198.99C340.35,-199.01 340.39,-199.03 340.44,-199.05"/>
<polygon fill="green" stroke="green" stroke-width="0.38" points="330,-198.43 340.57,-199.1 332.73,-191.98 330,-198.43"/>
<text text-anchor="middle" x="337.56" y="-194.52" font-family="Times,serif" font-size="5.00">1.406</text>
</g>
<!-- 90733 -->
<g id="node28" class="node">
<title>90733</title>
<ellipse fill="white" stroke="black" cx="365.61" cy="-237.43" rx="30.55" ry="30.55"/>
<ellipse fill="none" stroke="black" cx="365.61" cy="-237.43" rx="34.52" ry="34.52"/>
<text text-anchor="middle" x="365.61" y="-234.73" font-family="Times,serif" font-size="9.00">identity</text>
</g>
<!-- 51458&#45;&gt;90733 -->
<g id="edge30" class="edge">
<title>51458&#45;&gt;90733</title>
<path fill="none" stroke="red" stroke-width="0.16" stroke-dasharray="1,5" d="M335.2,-206.23C335.33,-206.35 335.45,-206.48 335.57,-206.61"/>
<polygon fill="red" stroke="red" stroke-width="0.16" points="331.83,-207.79 341.32,-212.51 336.85,-202.9 331.83,-207.79"/>
<text text-anchor="middle" x="328.93" y="-207.92" font-family="Times,serif" font-size="5.00">&#45;0.299</text>
</g>
<!-- 98834 -->
<g id="node10" class="node">
<title>98834</title>
<ellipse fill="white" stroke="black" cx="340.48" cy="-284.79" rx="31.65" ry="31.65"/>
<text text-anchor="middle" x="340.48" y="-282.09" font-family="Times,serif" font-size="9.00">sigmoid</text>
</g>
<!-- 67846&#45;&gt;98834 -->
<g id="edge35" class="edge">
<title>67846&#45;&gt;98834</title>
<path fill="none" stroke="green" stroke-width="0.55" stroke-dasharray="1,5" d="M303.03,-289.51C303.15,-289.49 303.26,-289.48 303.38,-289.46"/>
<polygon fill="green" stroke="green" stroke-width="0.55" points="299.1,-293.53 308.59,-288.81 298.23,-286.59 299.1,-293.53"/>
<text text-anchor="middle" x="308.83" y="-290.99" font-family="Times,serif" font-size="5.00">2.274</text>
</g>
<!-- 67846&#45;&gt;30146 -->
<g id="edge22" class="edge">
<title>67846&#45;&gt;30146</title>
<path fill="none" stroke="red" stroke-width="0.63" d="M279.86,-262.67C279.89,-262.59 279.91,-262.5 279.93,-262.42"/>
<polygon fill="red" stroke="red" stroke-width="0.63" points="280.68,-272.74 280,-262.17 273.94,-270.86 280.68,-272.74"/>
<text text-anchor="middle" x="273.44" y="-264.04" font-family="Times,serif" font-size="5.00">&#45;2.649</text>
</g>
<!-- 55180 -->
<g id="node9" class="node">
<title>55180</title>
<ellipse fill="white" stroke="black" cx="313.03" cy="-343.88" rx="35.19" ry="35.19"/>
<text text-anchor="middle" x="313.03" y="-341.18" font-family="Times,serif" font-size="9.00">heaviside</text>
</g>
<!-- 55180&#45;&gt;30146 -->
<g id="edge18" class="edge">
<title>55180&#45;&gt;30146</title>
<path fill="none" stroke="green" stroke-width="0.2" stroke-dasharray="1,5" d="M301.65,-310.17C300.2,-305.87 298.7,-301.42 297.2,-296.99"/>
<polygon fill="green" stroke="green" stroke-width="0.2" points="300.47,-295.75 293.96,-287.39 293.84,-297.99 300.47,-295.75"/>
<text text-anchor="middle" x="302.24" y="-299.08" font-family="Times,serif" font-size="5.00">0.507</text>
</g>
<!-- 55180&#45;&gt;68053 -->
<g id="edge24" class="edge">
<title>55180&#45;&gt;68053</title>
<path fill="none" stroke="red" stroke-width="0.27" stroke-dasharray="1,5" d="M277.74,-339.56C277.69,-339.55 277.63,-339.55 277.58,-339.54"/>
<polygon fill="red" stroke="red" stroke-width="0.27" points="287.76,-337.27 277.41,-339.52 286.91,-344.21 287.76,-337.27"/>
<text text-anchor="middle" x="271.2" y="-341.05" font-family="Times,serif" font-size="5.00">&#45;0.848</text>
</g>
<!-- 127968 -->
<g id="node24" class="node">
<title>127968</title>
<ellipse fill="white" stroke="black" cx="379.91" cy="-391.46" rx="35.21" ry="35.21"/>
<ellipse fill="none" stroke="black" cx="379.91" cy="-391.46" rx="39.19" ry="39.19"/>
<text text-anchor="middle" x="379.91" y="-388.76" font-family="Times,serif" font-size="9.00">heaviside</text>
</g>
<!-- 55180&#45;&gt;127968 -->
<g id="edge40" class="edge">
<title>55180&#45;&gt;127968</title>
<path fill="none" stroke="green" stroke-width="0.26" d="M342.17,-364.61C342.28,-364.69 342.4,-364.77 342.51,-364.85"/>
<polygon fill="green" stroke="green" stroke-width="0.26" points="337.51,-365.59 347.69,-368.54 341.57,-359.89 337.51,-365.59"/>
<text text-anchor="middle" x="336.72" y="-366.23" font-family="Times,serif" font-size="5.00">0.783</text>
</g>
<!-- 98533 -->
<g id="node26" class="node">
<title>98533</title>
<ellipse fill="white" stroke="black" cx="359.76" cy="-316.96" rx="22.04" ry="22.04"/>
<text text-anchor="middle" x="359.76" y="-314.26" font-family="Times,serif" font-size="9.00">tanh</text>
</g>
<!-- 55180&#45;&gt;98533 -->
<g id="edge32" class="edge">
<title>55180&#45;&gt;98533</title>
<path fill="none" stroke="red" stroke-width="0.29" stroke-dasharray="1,5" d="M343.68,-326.23C343.75,-326.19 343.82,-326.15 343.88,-326.11"/>
<polygon fill="red" stroke="red" stroke-width="0.29" points="337.17,-334.02 344.09,-325.99 333.68,-327.95 337.17,-334.02"/>
<text text-anchor="middle" x="337.32" y="-327.67" font-family="Times,serif" font-size="5.00">&#45;0.963</text>
</g>
<!-- 98834&#45;&gt;30146 -->
<g id="edge36" class="edge">
<title>98834&#45;&gt;30146</title>
<path fill="none" stroke="green" stroke-width="0.43" stroke-dasharray="1,5" d="M312.49,-269.63C312.44,-269.6 312.38,-269.56 312.32,-269.53"/>
<polygon fill="green" stroke="green" stroke-width="0.43" points="322.61,-271.13 312.15,-269.44 319.27,-277.28 322.61,-271.13"/>
<text text-anchor="middle" x="318.03" y="-271.08" font-family="Times,serif" font-size="5.00">1.626</text>
</g>
<!-- 69671&#45;&gt;51458 -->
<g id="edge28" class="edge">
<title>69671&#45;&gt;51458</title>
<path fill="none" stroke="green" stroke-width="0.14" d="M304.12,-175.43C304.19,-175.49 304.25,-175.55 304.32,-175.62"/>
<polygon fill="green" stroke="green" stroke-width="0.14" points="294.87,-171.43 304.52,-175.81 299.7,-166.37 294.87,-171.43"/>
<text text-anchor="middle" x="309.85" y="-177.02" font-family="Times,serif" font-size="5.00">0.214</text>
</g>
<!-- 130941 -->
<g id="node31" class="node">
<title>130941</title>
<ellipse fill="white" stroke="black" cx="352.46" cy="-120.5" rx="31.65" ry="31.65"/>
<text text-anchor="middle" x="352.46" y="-117.8" font-family="Times,serif" font-size="9.00">sigmoid</text>
</g>
<!-- 69671&#45;&gt;130941 -->
<g id="edge51" class="edge">
<title>69671&#45;&gt;130941</title>
<path fill="none" stroke="green" stroke-width="0.34" d="M312.51,-134.66C312.61,-134.62 312.71,-134.59 312.81,-134.55"/>
<polygon fill="green" stroke="green" stroke-width="0.34" points="313.91,-137.87 322.17,-131.23 311.57,-131.28 313.91,-137.87"/>
<text text-anchor="middle" x="318.28" y="-136.1" font-family="Times,serif" font-size="5.00">1.180</text>
</g>
<!-- 16049&#45;&gt;0 -->
<g id="edge4" class="edge">
<title>16049&#45;&gt;0</title>
<path fill="none" stroke="red" stroke-width="0.26" d="M75.89,-308.83C75.72,-312.42 75.55,-316.06 75.38,-319.6"/>
<polygon fill="red" stroke="red" stroke-width="0.26" points="71.88,-319.64 74.9,-329.79 78.87,-319.97 71.88,-319.64"/>
<text text-anchor="middle" x="69.18" y="-315.72" font-family="Times,serif" font-size="5.00">&#45;0.791</text>
</g>
<!-- 67791 -->
<g id="node19" class="node">
<title>67791</title>
<ellipse fill="white" stroke="black" cx="179.11" cy="-246.47" rx="35.21" ry="35.21"/>
<ellipse fill="none" stroke="black" cx="179.11" cy="-246.47" rx="39.19" ry="39.19"/>
<text text-anchor="middle" x="179.11" y="-243.77" font-family="Times,serif" font-size="9.00">heaviside</text>
</g>
<!-- 16049&#45;&gt;67791 -->
<g id="edge34" class="edge">
<title>16049&#45;&gt;67791</title>
<path fill="none" stroke="green" stroke-width="0.6" stroke-dasharray="1,5" d="M107.92,-267.63C115.32,-265.43 123.42,-263.03 131.41,-260.65"/>
<polygon fill="green" stroke="green" stroke-width="0.6" points="132.46,-263.99 141.05,-257.79 130.46,-257.28 132.46,-263.99"/>
<text text-anchor="middle" x="114.04" y="-265.64" font-family="Times,serif" font-size="5.00">2.496</text>
</g>
<!-- 13234 -->
<g id="node14" class="node">
<title>13234</title>
<ellipse fill="white" stroke="black" cx="139.78" cy="-151.48" rx="35.21" ry="35.21"/>
<ellipse fill="none" stroke="black" cx="139.78" cy="-151.48" rx="39.19" ry="39.19"/>
<text text-anchor="middle" x="139.78" y="-148.78" font-family="Times,serif" font-size="9.00">heaviside</text>
</g>
<!-- 13234&#45;&gt;36983 -->
<g id="edge5" class="edge">
<title>13234&#45;&gt;36983</title>
<path fill="none" stroke="green" stroke-width="0.18" stroke-dasharray="1,5" d="M175.28,-168.44C175.35,-168.48 175.41,-168.51 175.48,-168.54"/>
<polygon fill="green" stroke="green" stroke-width="0.18" points="165.15,-167.48 175.68,-168.64 168.17,-161.16 165.15,-167.48"/>
<text text-anchor="middle" x="181" y="-169.99" font-family="Times,serif" font-size="5.00">0.404</text>
</g>
<!-- 30146&#45;&gt;51458 -->
<g id="edge14" class="edge">
<title>30146&#45;&gt;51458</title>
<path fill="none" stroke="green" stroke-width="0.52" d="M306.21,-226.34C307.28,-224.55 308.33,-222.74 309.34,-220.93"/>
<polygon fill="green" stroke="green" stroke-width="0.52" points="312.46,-222.52 314.02,-212.04 306.26,-219.26 312.46,-222.52"/>
<text text-anchor="middle" x="302.15" y="-225.14" font-family="Times,serif" font-size="5.00">2.117</text>
</g>
<!-- 30146&#45;&gt;36983 -->
<g id="edge50" class="edge">
<title>30146&#45;&gt;36983</title>
<path fill="none" stroke="red" stroke-width="0.65" d="M256,-228.55C252.54,-225.3 248.95,-221.94 245.37,-218.58"/>
<polygon fill="red" stroke="red" stroke-width="0.65" points="247.75,-216.02 238.06,-211.73 242.97,-221.12 247.75,-216.02"/>
<text text-anchor="middle" x="244.23" y="-225.06" font-family="Times,serif" font-size="5.00">&#45;2.746</text>
</g>
<!-- 128071 -->
<g id="node18" class="node">
<title>128071</title>
<ellipse fill="white" stroke="black" cx="183.58" cy="-219.21" rx="22.08" ry="22.08"/>
<ellipse fill="none" stroke="black" cx="183.58" cy="-219.21" rx="26.04" ry="26.04"/>
<text text-anchor="middle" x="183.58" y="-216.51" font-family="Times,serif" font-size="9.00">tanh</text>
</g>
<!-- 128071&#45;&gt;49281 -->
<g id="edge45" class="edge">
<title>128071&#45;&gt;49281</title>
<path fill="none" stroke="red" stroke-width="0.49" d="M210.01,-217C210.12,-216.99 210.22,-216.98 210.33,-216.97"/>
<polygon fill="red" stroke="red" stroke-width="0.49" points="210.7,-220.45 220.37,-216.13 210.12,-213.48 210.7,-220.45"/>
<text text-anchor="middle" x="203.71" y="-218.49" font-family="Times,serif" font-size="5.00">&#45;1.943</text>
</g>
<!-- 128071&#45;&gt;59439 -->
<g id="edge44" class="edge">
<title>128071&#45;&gt;59439</title>
<path fill="none" stroke="green" stroke-width="0.39" stroke-dasharray="1,5" d="M163.02,-235.87C162.91,-235.96 162.8,-236.05 162.69,-236.14"/>
<polygon fill="green" stroke="green" stroke-width="0.39" points="163.39,-231.07 157.83,-240.08 167.8,-236.5 163.39,-231.07"/>
<text text-anchor="middle" x="168.48" y="-237.51" font-family="Times,serif" font-size="5.00">1.435</text>
</g>
<!-- 67791&#45;&gt;13234 -->
<g id="edge47" class="edge">
<title>67791&#45;&gt;13234</title>
<path fill="none" stroke="green" stroke-width="0.38" d="M164.01,-210.02C162.29,-205.84 160.51,-201.55 158.74,-197.27"/>
<polygon fill="green" stroke="green" stroke-width="0.38" points="161.96,-195.89 154.9,-187.99 155.49,-198.57 161.96,-195.89"/>
<text text-anchor="middle" x="155.75" y="-199.14" font-family="Times,serif" font-size="5.00">1.389</text>
</g>
<!-- 67791&#45;&gt;30146 -->
<g id="edge20" class="edge">
<title>67791&#45;&gt;30146</title>
<path fill="none" stroke="green" stroke-width="1.13" d="M218.48,-249.09C224.4,-249.49 230.55,-249.9 236.59,-250.3"/>
<polygon fill="green" stroke="green" stroke-width="1.13" points="236.39,-253.8 246.6,-250.97 236.85,-246.81 236.39,-253.8"/>
<text text-anchor="middle" x="221.91" y="-251.2" font-family="Times,serif" font-size="5.00">5.142</text>
</g>
<!-- 131151 -->
<g id="node20" class="node">
<title>131151</title>
<ellipse fill="white" stroke="black" cx="116.09" cy="-188.48" rx="22.04" ry="22.04"/>
<text text-anchor="middle" x="116.09" y="-185.78" font-family="Times,serif" font-size="9.00">tanh</text>
</g>
<!-- 131151&#45;&gt;59439 -->
<g id="edge54" class="edge">
<title>131151&#45;&gt;59439</title>
<path fill="none" stroke="red" stroke-width="0.27" d="M123.93,-209.63C125.58,-214.08 127.35,-218.87 129.1,-223.59"/>
<polygon fill="red" stroke="red" stroke-width="0.27" points="125.86,-224.91 132.61,-233.07 132.42,-222.48 125.86,-224.91"/>
<text text-anchor="middle" x="120.06" y="-218.11" font-family="Times,serif" font-size="5.00">&#45;0.843</text>
</g>
<!-- 52948&#45;&gt;30146 -->
<g id="edge16" class="edge">
<title>52948&#45;&gt;30146</title>
<path fill="none" stroke="red" stroke-width="0.36" stroke-dasharray="1,5" d="M336.91,-223.8C332.44,-226.22 327.73,-228.78 323.03,-231.34"/>
<polygon fill="red" stroke="red" stroke-width="0.36" points="321.17,-228.36 314.05,-236.21 324.51,-234.52 321.17,-228.36"/>
<text text-anchor="middle" x="323.51" y="-229.07" font-family="Times,serif" font-size="5.00">&#45;1.320</text>
</g>
<!-- 68053&#45;&gt;30146 -->
<g id="edge25" class="edge">
<title>68053&#45;&gt;30146</title>
<path fill="none" stroke="green" stroke-width="0.17" stroke-dasharray="1,5" d="M261.68,-307.24C263.02,-303.77 264.41,-300.17 265.8,-296.55"/>
<polygon fill="green" stroke="green" stroke-width="0.17" points="269.15,-297.6 269.48,-287.01 262.62,-295.08 269.15,-297.6"/>
<text text-anchor="middle" x="258.11" y="-297.4" font-family="Times,serif" font-size="5.00">0.341</text>
</g>
<!-- 45782&#45;&gt;67846 -->
<g id="edge29" class="edge">
<title>45782&#45;&gt;67846</title>
<path fill="none" stroke="red" stroke-width="0.55" d="M232.91,-337.11C236.31,-333.24 239.89,-329.18 243.43,-325.15"/>
<polygon fill="red" stroke="red" stroke-width="0.55" points="246.17,-327.33 250.14,-317.51 240.91,-322.71 246.17,-327.33"/>
<text text-anchor="middle" x="231.71" y="-332.63" font-family="Times,serif" font-size="5.00">&#45;2.243</text>
</g>
<!-- 45782&#45;&gt;68053 -->
<g id="edge48" class="edge">
<title>45782&#45;&gt;68053</title>
<path fill="none" stroke="green" stroke-width="0.7" d="M238.41,-343.92C238.46,-343.89 238.51,-343.86 238.57,-343.82"/>
<polygon fill="green" stroke="green" stroke-width="0.7" points="232.17,-352.05 238.72,-343.72 228.41,-346.14 232.17,-352.05"/>
<text text-anchor="middle" x="232.86" y="-345.37" font-family="Times,serif" font-size="5.00">2.998</text>
</g>
<!-- 127968&#45;&gt;98533 -->
<g id="edge41" class="edge">
<title>127968&#45;&gt;98533</title>
<path fill="none" stroke="red" stroke-width="0.59" d="M369.6,-353.34C369.17,-351.77 368.75,-350.21 368.33,-348.66"/>
<polygon fill="red" stroke="red" stroke-width="0.59" points="371.63,-347.47 365.65,-338.73 364.88,-349.3 371.63,-347.47"/>
<text text-anchor="middle" x="362.51" y="-346.5" font-family="Times,serif" font-size="5.00">&#45;2.439</text>
</g>
<!-- 49761&#45;&gt;59439 -->
<g id="edge23" class="edge">
<title>49761&#45;&gt;59439</title>
<path fill="none" stroke="green" stroke-width="0.33" d="M168.54,-275.01C168.01,-274.63 167.49,-274.24 166.97,-273.85"/>
<polygon fill="green" stroke="green" stroke-width="0.33" points="168.74,-270.81 158.62,-267.66 164.57,-276.43 168.74,-270.81"/>
<text text-anchor="middle" x="167.75" y="-269.93" font-family="Times,serif" font-size="5.00">1.175</text>
</g>
<!-- 49761&#45;&gt;128071 -->
<g id="edge43" class="edge">
<title>49761&#45;&gt;128071</title>
<path fill="none" stroke="green" stroke-width="0.4" d="M189.65,-262.27C189.34,-260.1 189.03,-257.89 188.72,-255.69"/>
<polygon fill="green" stroke="green" stroke-width="0.4" points="192.15,-254.96 187.29,-245.55 185.22,-255.94 192.15,-254.96"/>
<text text-anchor="middle" x="194.81" y="-254.48" font-family="Times,serif" font-size="5.00">1.524</text>
</g>
<!-- 49761&#45;&gt;45782 -->
<g id="edge10" class="edge">
<title>49761&#45;&gt;45782</title>
<path fill="none" stroke="red" stroke-width="0.71" d="M202.57,-324.93C202.6,-325.05 202.63,-325.17 202.67,-325.29"/>
<polygon fill="red" stroke="red" stroke-width="0.71" points="198.12,-321.92 204.13,-330.64 204.87,-320.07 198.12,-321.92"/>
<text text-anchor="middle" x="209.08" y="-326.61" font-family="Times,serif" font-size="5.00">&#45;3.064</text>
</g>
<!-- 107763 -->
<g id="node29" class="node">
<title>107763</title>
<ellipse fill="white" stroke="black" cx="207.59" cy="-403.81" rx="22.04" ry="22.04"/>
<text text-anchor="middle" x="207.59" y="-401.11" font-family="Times,serif" font-size="9.00">tanh</text>
</g>
<!-- 49761&#45;&gt;107763 -->
<g id="edge37" class="edge">
<title>49761&#45;&gt;107763</title>
<path fill="none" stroke="green" stroke-width="0.22" stroke-dasharray="1,5" d="M198.02,-325.75C199.78,-340.13 201.86,-357.09 203.63,-371.53"/>
<polygon fill="green" stroke="green" stroke-width="0.22" points="200.17,-372.02 204.86,-381.52 207.12,-371.17 200.17,-372.02"/>
<text text-anchor="middle" x="203.64" y="-344.14" font-family="Times,serif" font-size="5.00">0.604</text>
</g>
<!-- 98533&#45;&gt;30146 -->
<g id="edge33" class="edge">
<title>98533&#45;&gt;30146</title>
<path fill="none" stroke="green" stroke-width="0.48" stroke-dasharray="1,5" d="M342.22,-302.53C335.06,-296.64 326.52,-289.61 318.15,-282.73"/>
<polygon fill="green" stroke="green" stroke-width="0.48" points="320.19,-279.87 310.24,-276.22 315.74,-285.27 320.19,-279.87"/>
<text text-anchor="middle" x="335.81" y="-288.13" font-family="Times,serif" font-size="5.00">1.877</text>
</g>
<!-- 128359 -->
<g id="node27" class="node">
<title>128359</title>
<ellipse fill="white" stroke="black" cx="289.42" cy="-26.27" rx="22.08" ry="22.08"/>
<ellipse fill="none" stroke="black" cx="289.42" cy="-26.27" rx="26.04" ry="26.04"/>
<text text-anchor="middle" x="289.42" y="-23.57" font-family="Times,serif" font-size="9.00">tanh</text>
</g>
<!-- 128359&#45;&gt;50114 -->
<g id="edge46" class="edge">
<title>128359&#45;&gt;50114</title>
<path fill="none" stroke="green" stroke-width="1.08" stroke-dasharray="1,5" d="M281.41,-51.45C280.23,-55.15 278.99,-59.06 277.73,-63.02"/>
<polygon fill="green" stroke="green" stroke-width="1.08" points="274.3,-62.27 274.6,-72.86 280.97,-64.39 274.3,-62.27"/>
<text text-anchor="middle" x="273.95" y="-58.73" font-family="Times,serif" font-size="5.00">4.899</text>
</g>
<!-- 90733&#45;&gt;30146 -->
<g id="edge31" class="edge">
<title>90733&#45;&gt;30146</title>
<path fill="none" stroke="green" stroke-width="0.52" d="M331.31,-244C330.19,-244.22 329.07,-244.43 327.94,-244.65"/>
<polygon fill="green" stroke="green" stroke-width="0.52" points="326.92,-241.28 317.76,-246.6 328.24,-248.15 326.92,-241.28"/>
<text text-anchor="middle" x="324" y="-245.82" font-family="Times,serif" font-size="5.00">2.117</text>
</g>
<!-- 107763&#45;&gt;45782 -->
<g id="edge38" class="edge">
<title>107763&#45;&gt;45782</title>
<path fill="none" stroke="red" stroke-width="0.49" stroke-dasharray="1,5" d="M210.03,-381.42C210.04,-381.34 210.04,-381.26 210.05,-381.18"/>
<polygon fill="red" stroke="red" stroke-width="0.49" points="212.48,-391.25 210.08,-380.93 205.52,-390.49 212.48,-391.25"/>
<text text-anchor="middle" x="203.58" y="-376.8" font-family="Times,serif" font-size="5.00">&#45;1.950</text>
</g>
<!-- 36983&#45;&gt;69671 -->
<g id="edge39" class="edge">
<title>36983&#45;&gt;69671</title>
<path fill="none" stroke="green" stroke-width="0.88" d="M243.76,-165.38C243.83,-165.35 243.89,-165.31 243.95,-165.28"/>
<polygon fill="green" stroke="green" stroke-width="0.88" points="237.1,-173.1 244.14,-165.17 233.7,-166.98 237.1,-173.1"/>
<text text-anchor="middle" x="238.23" y="-166.83" font-family="Times,serif" font-size="5.00">3.907</text>
</g>
<!-- 36983&#45;&gt;59439 -->
<g id="edge42" class="edge">
<title>36983&#45;&gt;59439</title>
<path fill="none" stroke="red" stroke-width="0.45" stroke-dasharray="1,5" d="M181.2,-212.92C175.38,-218.81 169.3,-224.97 163.67,-230.67"/>
<polygon fill="red" stroke="red" stroke-width="0.45" points="160.87,-228.52 156.33,-238.09 165.85,-233.44 160.87,-228.52"/>
<text text-anchor="middle" x="165.98" y="-223.29" font-family="Times,serif" font-size="5.00">&#45;1.729</text>
</g>
<!-- 36983&#45;&gt;131151 -->
<g id="edge53" class="edge">
<title>36983&#45;&gt;131151</title>
<path fill="none" stroke="green" stroke-width="0.95" d="M169.69,-186.26C162.67,-186.55 155.42,-186.85 148.62,-187.13"/>
<polygon fill="green" stroke="green" stroke-width="0.95" points="148.24,-183.65 138.39,-187.56 148.52,-190.64 148.24,-183.65"/>
<text text-anchor="middle" x="153.53" y="-188.2" font-family="Times,serif" font-size="5.00">4.265</text>
</g>
<!-- 130941&#45;&gt;51458 -->
<g id="edge52" class="edge">
<title>130941&#45;&gt;51458</title>
<path fill="none" stroke="green" stroke-width="0.14" d="M338.73,-149.68C336.96,-153.43 335.15,-157.28 333.38,-161.04"/>
<polygon fill="green" stroke="green" stroke-width="0.14" points="330.22,-159.55 329.13,-170.09 336.55,-162.53 330.22,-159.55"/>
<text text-anchor="middle" x="330.43" y="-156.86" font-family="Times,serif" font-size="5.00">0.214</text>
</g>
</g>
</svg>
