<?xml version="1.0" encoding="UTF-8" standalone="no"?>
<!DOCTYPE svg PUBLIC "-//W3C//DTD SVG 1.1//EN"
 "http://www.w3.org/Graphics/SVG/1.1/DTD/svg11.dtd">
<!-- Generated by graphviz version 2.47.1 (20210417.1919)
 -->
<!-- Pages: 1 -->
<svg width="677pt" height="672pt"
 viewBox="0.00 0.00 677.11 672.31" xmlns="http://www.w3.org/2000/svg" xmlns:xlink="http://www.w3.org/1999/xlink">
<g id="graph0" class="graph" transform="scale(1 1) rotate(0) translate(4 668.31)">
<polygon fill="white" stroke="transparent" points="-4,4 -4,-668.31 673.11,-668.31 673.11,4 -4,4"/>
<!-- &#45;1 -->
<g id="node1" class="node">
<title>&#45;1</title>
<polygon fill="lightgray" stroke="black" points="122.15,-345.82 98.15,-345.82 98.15,-327.22 122.15,-327.22 122.15,-345.82"/>
<text text-anchor="middle" x="110.15" y="-333.82" font-family="Times,serif" font-size="9.00">&#45;1</text>
</g>
<!-- 80256 -->
<g id="node7" class="node">
<title>80256</title>
<ellipse fill="white" stroke="black" cx="196.87" cy="-359.53" rx="30.52" ry="30.52"/>
<text text-anchor="middle" x="196.87" y="-356.83" font-family="Times,serif" font-size="9.00">identity</text>
</g>
<!-- &#45;1&#45;&gt;80256 -->
<g id="edge8" class="edge">
<title>&#45;1&#45;&gt;80256</title>
<path fill="none" stroke="green" stroke-width="0.4" d="M122.21,-339.72C131.32,-342.14 144.37,-345.6 157.02,-348.96"/>
<polygon fill="green" stroke="green" stroke-width="0.4" points="156.43,-352.42 167,-351.61 158.23,-345.66 156.43,-352.42"/>
<text text-anchor="middle" x="133.99" y="-345.84" font-family="Times,serif" font-size="5.00">1.509</text>
</g>
<!-- 91906 -->
<g id="node8" class="node">
<title>91906</title>
<ellipse fill="white" stroke="black" cx="34.76" cy="-306.48" rx="30.55" ry="30.55"/>
<ellipse fill="none" stroke="black" cx="34.76" cy="-306.48" rx="34.52" ry="34.52"/>
<text text-anchor="middle" x="34.76" y="-303.78" font-family="Times,serif" font-size="9.00">identity</text>
</g>
<!-- &#45;1&#45;&gt;91906 -->
<g id="edge29" class="edge">
<title>&#45;1&#45;&gt;91906</title>
<path fill="none" stroke="green" stroke-width="0.44" d="M98.37,-331.83C92.36,-329.43 84.64,-326.36 76.67,-323.18"/>
<polygon fill="green" stroke="green" stroke-width="0.44" points="77.86,-319.89 67.28,-319.44 75.27,-326.39 77.86,-319.89"/>
<text text-anchor="middle" x="81.89" y="-329" font-family="Times,serif" font-size="5.00">1.718</text>
</g>
<!-- &#45;2 -->
<g id="node2" class="node">
<title>&#45;2</title>
<polygon fill="lightgray" stroke="black" points="372.99,-340.1 348.99,-340.1 348.99,-321.5 372.99,-321.5 372.99,-340.1"/>
<text text-anchor="middle" x="360.99" y="-328.1" font-family="Times,serif" font-size="9.00">&#45;2</text>
</g>
<!-- 0 -->
<g id="node5" class="node">
<title>0</title>
<ellipse fill="lightblue" stroke="black" cx="329.1" cy="-277.15" rx="14.49" ry="14.49"/>
<ellipse fill="none" stroke="black" cx="329.1" cy="-277.15" rx="18.49" ry="18.49"/>
<text text-anchor="middle" x="329.1" y="-274.45" font-family="Times,serif" font-size="9.00">0</text>
</g>
<!-- &#45;2&#45;&gt;0 -->
<g id="edge1" class="edge">
<title>&#45;2&#45;&gt;0</title>
<path fill="none" stroke="green" stroke-width="0.86" d="M355.43,-321.45C352.17,-315.97 347.88,-308.75 343.71,-301.73"/>
<polygon fill="green" stroke="green" stroke-width="0.86" points="346.7,-299.92 338.59,-293.11 340.69,-303.49 346.7,-299.92"/>
<text text-anchor="middle" x="343.95" y="-313.09" font-family="Times,serif" font-size="5.00">3.811</text>
</g>
<!-- 69377 -->
<g id="node6" class="node">
<title>69377</title>
<ellipse fill="white" stroke="black" cx="275.79" cy="-321.87" rx="31.67" ry="31.67"/>
<ellipse fill="none" stroke="black" cx="275.79" cy="-321.87" rx="35.65" ry="35.65"/>
<text text-anchor="middle" x="275.79" y="-319.17" font-family="Times,serif" font-size="9.00">sigmoid</text>
</g>
<!-- &#45;2&#45;&gt;69377 -->
<g id="edge4" class="edge">
<title>&#45;2&#45;&gt;69377</title>
<path fill="none" stroke="red" stroke-width="0.32" d="M349.14,-329.56C341.8,-328.79 331.86,-327.75 321.66,-326.68"/>
<polygon fill="red" stroke="red" stroke-width="0.32" points="321.78,-323.17 311.47,-325.61 321.05,-330.13 321.78,-323.17"/>
<text text-anchor="middle" x="328.94" y="-329.62" font-family="Times,serif" font-size="5.00">&#45;1.103</text>
</g>
<!-- 66065 -->
<g id="node12" class="node">
<title>66065</title>
<ellipse fill="white" stroke="black" cx="350.88" cy="-407.63" rx="30.55" ry="30.55"/>
<ellipse fill="none" stroke="black" cx="350.88" cy="-407.63" rx="34.52" ry="34.52"/>
<text text-anchor="middle" x="350.88" y="-404.93" font-family="Times,serif" font-size="9.00">identity</text>
</g>
<!-- &#45;2&#45;&gt;66065 -->
<g id="edge7" class="edge">
<title>&#45;2&#45;&gt;66065</title>
<path fill="none" stroke="red" stroke-width="0.12" d="M359.75,-340.22C358.97,-346.15 357.9,-354.29 356.77,-362.86"/>
<polygon fill="red" stroke="red" stroke-width="0.12" points="353.27,-362.65 355.43,-373.02 360.21,-363.56 353.27,-362.65"/>
<text text-anchor="middle" x="351.8" y="-353.04" font-family="Times,serif" font-size="5.00">&#45;0.098</text>
</g>
<!-- 79420 -->
<g id="node20" class="node">
<title>79420</title>
<ellipse fill="white" stroke="black" cx="363.88" cy="-243.4" rx="22.04" ry="22.04"/>
<text text-anchor="middle" x="363.88" y="-240.7" font-family="Times,serif" font-size="9.00">tanh</text>
</g>
<!-- &#45;2&#45;&gt;79420 -->
<g id="edge38" class="edge">
<title>&#45;2&#45;&gt;79420</title>
<path fill="none" stroke="green" stroke-width="0.31" d="M361.3,-321.45C361.66,-310.61 362.27,-292.16 362.81,-275.92"/>
<polygon fill="green" stroke="green" stroke-width="0.31" points="366.31,-275.78 363.15,-265.67 359.32,-275.55 366.31,-275.78"/>
<text text-anchor="middle" x="356.43" y="-300.18" font-family="Times,serif" font-size="5.00">1.062</text>
</g>
<!-- 81888 -->
<g id="node29" class="node">
<title>81888</title>
<ellipse fill="white" stroke="black" cx="445.45" cy="-359.51" rx="30.55" ry="30.55"/>
<ellipse fill="none" stroke="black" cx="445.45" cy="-359.51" rx="34.52" ry="34.52"/>
<text text-anchor="middle" x="445.45" y="-356.81" font-family="Times,serif" font-size="9.00">identity</text>
</g>
<!-- &#45;2&#45;&gt;81888 -->
<g id="edge18" class="edge">
<title>&#45;2&#45;&gt;81888</title>
<path fill="none" stroke="red" stroke-width="0.19" stroke-dasharray="1,5" d="M373.09,-334.91C380.99,-337.6 391.83,-341.28 402.71,-344.98"/>
<polygon fill="red" stroke="red" stroke-width="0.19" points="401.62,-348.31 412.22,-348.21 403.87,-341.68 401.62,-348.31"/>
<text text-anchor="middle" x="381.44" y="-341.45" font-family="Times,serif" font-size="5.00">&#45;0.469</text>
</g>
<!-- &#45;3 -->
<g id="node3" class="node">
<title>&#45;3</title>
<polygon fill="lightgray" stroke="black" points="335.75,-538.7 311.75,-538.7 311.75,-520.1 335.75,-520.1 335.75,-538.7"/>
<text text-anchor="middle" x="323.75" y="-526.7" font-family="Times,serif" font-size="9.00">&#45;3</text>
</g>
<!-- &#45;4 -->
<g id="node4" class="node">
<title>&#45;4</title>
<polygon fill="lightgray" stroke="black" points="385.58,-189.75 361.58,-189.75 361.58,-171.14 385.58,-171.14 385.58,-189.75"/>
<text text-anchor="middle" x="373.58" y="-177.75" font-family="Times,serif" font-size="9.00">&#45;4</text>
</g>
<!-- &#45;4&#45;&gt;0 -->
<g id="edge2" class="edge">
<title>&#45;4&#45;&gt;0</title>
<path fill="none" stroke="red" stroke-width="0.31" stroke-dasharray="1,5" d="M369.15,-190.07C362.69,-204.11 350.45,-230.72 341.19,-250.85"/>
<polygon fill="red" stroke="red" stroke-width="0.31" points="337.93,-249.58 336.93,-260.12 344.29,-252.5 337.93,-249.58"/>
<text text-anchor="middle" x="348.71" y="-215.96" font-family="Times,serif" font-size="5.00">&#45;1.044</text>
</g>
<!-- 74393 -->
<g id="node15" class="node">
<title>74393</title>
<ellipse fill="white" stroke="black" cx="451.21" cy="-131.62" rx="22.08" ry="22.08"/>
<ellipse fill="none" stroke="black" cx="451.21" cy="-131.62" rx="26.04" ry="26.04"/>
<text text-anchor="middle" x="451.21" y="-128.92" font-family="Times,serif" font-size="9.00">tanh</text>
</g>
<!-- &#45;4&#45;&gt;74393 -->
<g id="edge32" class="edge">
<title>&#45;4&#45;&gt;74393</title>
<path fill="none" stroke="green" stroke-width="0.1" d="M385.37,-173.03C394.58,-167.23 407.83,-158.9 420.03,-151.23"/>
<polygon fill="green" stroke="green" stroke-width="0.1" points="422.06,-154.09 428.66,-145.8 418.33,-148.16 422.06,-154.09"/>
<text text-anchor="middle" x="397.08" y="-163.63" font-family="Times,serif" font-size="5.00">0.016</text>
</g>
<!-- 69377&#45;&gt;0 -->
<g id="edge5" class="edge">
<title>69377&#45;&gt;0</title>
<path fill="none" stroke="green" stroke-width="0.23" d="M303.38,-298.72C304.62,-297.68 305.86,-296.65 307.08,-295.62"/>
<polygon fill="green" stroke="green" stroke-width="0.23" points="309.43,-298.22 314.84,-289.11 304.93,-292.86 309.43,-298.22"/>
<text text-anchor="middle" x="310.85" y="-298.67" font-family="Times,serif" font-size="5.00">0.646</text>
</g>
<!-- 69377&#45;&gt;80256 -->
<g id="edge25" class="edge">
<title>69377&#45;&gt;80256</title>
<path fill="none" stroke="red" stroke-width="1.05" stroke-dasharray="1,5" d="M243.23,-337.41C240.18,-338.86 237.06,-340.35 233.97,-341.83"/>
<polygon fill="red" stroke="red" stroke-width="1.05" points="232.34,-338.73 224.82,-346.19 235.35,-345.05 232.34,-338.73"/>
<text text-anchor="middle" x="232.14" y="-341.12" font-family="Times,serif" font-size="5.00">&#45;4.726</text>
</g>
<!-- 93125 -->
<g id="node21" class="node">
<title>93125</title>
<ellipse fill="white" stroke="black" cx="150.43" cy="-408.3" rx="31.65" ry="31.65"/>
<text text-anchor="middle" x="150.43" y="-405.6" font-family="Times,serif" font-size="9.00">sigmoid</text>
</g>
<!-- 80256&#45;&gt;93125 -->
<g id="edge34" class="edge">
<title>80256&#45;&gt;93125</title>
<path fill="none" stroke="green" stroke-width="0.16" d="M175.55,-381.92C175.42,-382.05 175.29,-382.19 175.16,-382.33"/>
<polygon fill="green" stroke="green" stroke-width="0.16" points="176.76,-375.57 172.4,-385.23 181.83,-380.4 176.76,-375.57"/>
<text text-anchor="middle" x="180.98" y="-383.62" font-family="Times,serif" font-size="5.00">0.324</text>
</g>
<!-- 85599 -->
<g id="node28" class="node">
<title>85599</title>
<ellipse fill="white" stroke="black" cx="183.17" cy="-450.56" rx="22.08" ry="22.08"/>
<ellipse fill="none" stroke="black" cx="183.17" cy="-450.56" rx="26.04" ry="26.04"/>
<text text-anchor="middle" x="183.17" y="-447.86" font-family="Times,serif" font-size="9.00">tanh</text>
</g>
<!-- 80256&#45;&gt;85599 -->
<g id="edge19" class="edge">
<title>80256&#45;&gt;85599</title>
<path fill="none" stroke="green" stroke-width="0.36" stroke-dasharray="1,5" d="M192.27,-390.1C191.09,-397.94 189.81,-406.45 188.59,-414.54"/>
<polygon fill="green" stroke="green" stroke-width="0.36" points="185.12,-414.08 187.1,-424.48 192.04,-415.12 185.12,-414.08"/>
<text text-anchor="middle" x="196.06" y="-403.82" font-family="Times,serif" font-size="5.00">1.301</text>
</g>
<!-- 91015 -->
<g id="node9" class="node">
<title>91015</title>
<ellipse fill="white" stroke="black" cx="52.84" cy="-642.04" rx="22.04" ry="22.04"/>
<text text-anchor="middle" x="52.84" y="-639.34" font-family="Times,serif" font-size="9.00">tanh</text>
</g>
<!-- 91349 -->
<g id="node25" class="node">
<title>91349</title>
<ellipse fill="white" stroke="black" cx="95.49" cy="-581.34" rx="35.19" ry="35.19"/>
<text text-anchor="middle" x="95.49" y="-578.64" font-family="Times,serif" font-size="9.00">heaviside</text>
</g>
<!-- 91015&#45;&gt;91349 -->
<g id="edge30" class="edge">
<title>91015&#45;&gt;91349</title>
<path fill="none" stroke="red" stroke-width="0.6" d="M65.87,-623.5C66.97,-621.93 68.11,-620.31 69.27,-618.66"/>
<polygon fill="red" stroke="red" stroke-width="0.6" points="72.27,-620.47 75.16,-610.28 66.55,-616.45 72.27,-620.47"/>
<text text-anchor="middle" x="74.03" y="-616.58" font-family="Times,serif" font-size="5.00">&#45;2.489</text>
</g>
<!-- 93451 -->
<g id="node10" class="node">
<title>93451</title>
<ellipse fill="white" stroke="black" cx="565.48" cy="-227.38" rx="22.08" ry="22.08"/>
<ellipse fill="none" stroke="black" cx="565.48" cy="-227.38" rx="26.04" ry="26.04"/>
<text text-anchor="middle" x="565.48" y="-224.68" font-family="Times,serif" font-size="9.00">tanh</text>
</g>
<!-- 81301 -->
<g id="node13" class="node">
<title>81301</title>
<ellipse fill="white" stroke="black" cx="531.72" cy="-327.28" rx="22.08" ry="22.08"/>
<ellipse fill="none" stroke="black" cx="531.72" cy="-327.28" rx="26.04" ry="26.04"/>
<text text-anchor="middle" x="531.72" y="-324.58" font-family="Times,serif" font-size="9.00">tanh</text>
</g>
<!-- 93451&#45;&gt;81301 -->
<g id="edge42" class="edge">
<title>93451&#45;&gt;81301</title>
<path fill="none" stroke="green" stroke-width="0.21" stroke-dasharray="1,5" d="M557.05,-252.33C552.94,-264.49 547.93,-279.31 543.46,-292.55"/>
<polygon fill="green" stroke="green" stroke-width="0.21" points="540.05,-291.71 540.16,-302.3 546.68,-293.95 540.05,-291.71"/>
<text text-anchor="middle" x="544.63" y="-273.94" font-family="Times,serif" font-size="5.00">0.525</text>
</g>
<!-- 87469 -->
<g id="node18" class="node">
<title>87469</title>
<ellipse fill="white" stroke="black" cx="607.42" cy="-157.72" rx="22.08" ry="22.08"/>
<ellipse fill="none" stroke="black" cx="607.42" cy="-157.72" rx="26.04" ry="26.04"/>
<text text-anchor="middle" x="607.42" y="-155.02" font-family="Times,serif" font-size="9.00">tanh</text>
</g>
<!-- 93451&#45;&gt;87469 -->
<g id="edge37" class="edge">
<title>93451&#45;&gt;87469</title>
<path fill="none" stroke="red" stroke-width="0.66" stroke-dasharray="1,5" d="M579.22,-204.57C582.21,-199.59 585.44,-194.23 588.6,-188.99"/>
<polygon fill="red" stroke="red" stroke-width="0.66" points="591.64,-190.72 593.8,-180.34 585.65,-187.11 591.64,-190.72"/>
<text text-anchor="middle" x="577.45" y="-192.28" font-family="Times,serif" font-size="5.00">&#45;2.780</text>
</g>
<!-- 67215 -->
<g id="node11" class="node">
<title>67215</title>
<ellipse fill="white" stroke="black" cx="633.76" cy="-247.89" rx="35.19" ry="35.19"/>
<text text-anchor="middle" x="633.76" y="-245.19" font-family="Times,serif" font-size="9.00">heaviside</text>
</g>
<!-- 85206 -->
<g id="node24" class="node">
<title>85206</title>
<ellipse fill="white" stroke="black" cx="617.98" cy="-367.65" rx="22.04" ry="22.04"/>
<text text-anchor="middle" x="617.98" y="-364.95" font-family="Times,serif" font-size="9.00">tanh</text>
</g>
<!-- 81301&#45;&gt;85206 -->
<g id="edge16" class="edge">
<title>81301&#45;&gt;85206</title>
<path fill="none" stroke="green" stroke-width="0.56" d="M555.75,-338.53C565.82,-343.24 577.64,-348.77 588.26,-353.74"/>
<polygon fill="green" stroke="green" stroke-width="0.56" points="587.05,-357.04 597.59,-358.11 590.01,-350.7 587.05,-357.04"/>
<text text-anchor="middle" x="577.63" y="-347.63" font-family="Times,serif" font-size="5.00">2.322</text>
</g>
<!-- 39038 -->
<g id="node33" class="node">
<title>39038</title>
<ellipse fill="white" stroke="black" cx="596.36" cy="-314.66" rx="35.21" ry="35.21"/>
<ellipse fill="none" stroke="black" cx="596.36" cy="-314.66" rx="39.19" ry="39.19"/>
<text text-anchor="middle" x="596.36" y="-311.96" font-family="Times,serif" font-size="9.00">heaviside</text>
</g>
<!-- 81301&#45;&gt;39038 -->
<g id="edge10" class="edge">
<title>81301&#45;&gt;39038</title>
<path fill="none" stroke="red" stroke-width="0.13" d="M557.64,-322.22C557.71,-322.21 557.78,-322.19 557.85,-322.18"/>
<polygon fill="red" stroke="red" stroke-width="0.13" points="548.92,-327.49 558.06,-322.14 547.58,-320.62 548.92,-327.49"/>
<text text-anchor="middle" x="554.52" y="-317.7" font-family="Times,serif" font-size="5.00">&#45;0.126</text>
</g>
<!-- 65688 -->
<g id="node14" class="node">
<title>65688</title>
<ellipse fill="white" stroke="black" cx="535.87" cy="-149.32" rx="30.55" ry="30.55"/>
<ellipse fill="none" stroke="black" cx="535.87" cy="-149.32" rx="34.52" ry="34.52"/>
<text text-anchor="middle" x="535.87" y="-146.62" font-family="Times,serif" font-size="9.00">identity</text>
</g>
<!-- 65688&#45;&gt;93451 -->
<g id="edge36" class="edge">
<title>65688&#45;&gt;93451</title>
<path fill="none" stroke="red" stroke-width="1.52" stroke-dasharray="1,5" d="M548.26,-181.97C549.64,-185.61 551.05,-189.33 552.44,-192.99"/>
<polygon fill="red" stroke="red" stroke-width="1.52" points="549.21,-194.35 556.03,-202.46 555.76,-191.87 549.21,-194.35"/>
<text text-anchor="middle" x="543.89" y="-188.98" font-family="Times,serif" font-size="5.00">&#45;7.093</text>
</g>
<!-- 65688&#45;&gt;74393 -->
<g id="edge15" class="edge">
<title>65688&#45;&gt;74393</title>
<path fill="none" stroke="red" stroke-width="0.24" d="M501.43,-142.12C496.72,-141.14 491.88,-140.12 487.14,-139.13"/>
<polygon fill="red" stroke="red" stroke-width="0.24" points="487.54,-135.64 477.04,-137.02 486.11,-142.49 487.54,-135.64"/>
<text text-anchor="middle" x="487.83" y="-142.13" font-family="Times,serif" font-size="5.00">&#45;0.690</text>
</g>
<!-- 65688&#45;&gt;87469 -->
<g id="edge26" class="edge">
<title>65688&#45;&gt;87469</title>
<path fill="none" stroke="red" stroke-width="0.41" d="M570.81,-153.42C570.91,-153.43 571.02,-153.44 571.13,-153.46"/>
<polygon fill="red" stroke="red" stroke-width="0.41" points="570.59,-156.92 580.93,-154.61 571.41,-149.97 570.59,-156.92"/>
<text text-anchor="middle" x="577.42" y="-154.94" font-family="Times,serif" font-size="5.00">&#45;1.549</text>
</g>
<!-- 80413 -->
<g id="node16" class="node">
<title>80413</title>
<ellipse fill="white" stroke="black" cx="453.38" cy="-447.09" rx="35.19" ry="35.19"/>
<text text-anchor="middle" x="453.38" y="-444.39" font-family="Times,serif" font-size="9.00">heaviside</text>
</g>
<!-- 52138 -->
<g id="node17" class="node">
<title>52138</title>
<ellipse fill="white" stroke="black" cx="538.9" cy="-278.04" rx="31.65" ry="31.65"/>
<text text-anchor="middle" x="538.9" y="-275.34" font-family="Times,serif" font-size="9.00">sigmoid</text>
</g>
<!-- 52138&#45;&gt;67215 -->
<g id="edge41" class="edge">
<title>52138&#45;&gt;67215</title>
<path fill="none" stroke="red" stroke-width="0.73" d="M569.44,-268.34C576.14,-266.21 583.36,-263.91 590.46,-261.66"/>
<polygon fill="red" stroke="red" stroke-width="0.73" points="591.53,-264.99 600,-258.63 589.41,-258.32 591.53,-264.99"/>
<text text-anchor="middle" x="586.4" y="-266.5" font-family="Times,serif" font-size="5.00">&#45;3.148</text>
</g>
<!-- 52138&#45;&gt;81301 -->
<g id="edge9" class="edge">
<title>52138&#45;&gt;81301</title>
<path fill="none" stroke="red" stroke-width="0.67" d="M534.27,-309.78C534.26,-309.86 534.25,-309.93 534.24,-310.01"/>
<polygon fill="red" stroke="red" stroke-width="0.67" points="532.19,-299.83 534.21,-310.23 539.11,-300.84 532.19,-299.83"/>
<text text-anchor="middle" x="527.8" y="-311.39" font-family="Times,serif" font-size="5.00">&#45;2.839</text>
</g>
<!-- 116791 -->
<g id="node19" class="node">
<title>116791</title>
<ellipse fill="white" stroke="black" cx="549.87" cy="-365.17" rx="31.65" ry="31.65"/>
<text text-anchor="middle" x="549.87" y="-362.47" font-family="Times,serif" font-size="9.00">sigmoid</text>
</g>
<!-- 52138&#45;&gt;116791 -->
<g id="edge39" class="edge">
<title>52138&#45;&gt;116791</title>
<path fill="none" stroke="green" stroke-width="0.27" d="M542.92,-309.99C543.46,-314.31 544.03,-318.79 544.59,-323.24"/>
<polygon fill="green" stroke="green" stroke-width="0.27" points="541.16,-324.03 545.88,-333.52 548.11,-323.16 541.16,-324.03"/>
<text text-anchor="middle" x="538.13" y="-318.12" font-family="Times,serif" font-size="5.00">0.843</text>
</g>
<!-- 52138&#45;&gt;39038 -->
<g id="edge3" class="edge">
<title>52138&#45;&gt;39038</title>
<path fill="none" stroke="green" stroke-width="0.47" stroke-dasharray="1,5" d="M565.95,-295.28C566,-295.32 566.06,-295.35 566.12,-295.39"/>
<polygon fill="green" stroke="green" stroke-width="0.47" points="555.98,-293.08 566.3,-295.5 559.74,-287.17 555.98,-293.08"/>
<text text-anchor="middle" x="560.41" y="-296.84" font-family="Times,serif" font-size="5.00">1.827</text>
</g>
<!-- 116791&#45;&gt;81301 -->
<g id="edge40" class="edge">
<title>116791&#45;&gt;81301</title>
<path fill="none" stroke="red" stroke-width="0.54" d="M536.11,-336.45C536.07,-336.37 536.03,-336.29 536,-336.2"/>
<polygon fill="red" stroke="red" stroke-width="0.54" points="543.36,-343.47 535.88,-335.96 537.04,-346.49 543.36,-343.47"/>
<text text-anchor="middle" x="542.51" y="-337.83" font-family="Times,serif" font-size="5.00">&#45;2.216</text>
</g>
<!-- 69869 -->
<g id="node31" class="node">
<title>69869</title>
<ellipse fill="white" stroke="black" cx="276.04" cy="-241.6" rx="35.19" ry="35.19"/>
<text text-anchor="middle" x="276.04" y="-238.9" font-family="Times,serif" font-size="9.00">heaviside</text>
</g>
<!-- 79420&#45;&gt;69869 -->
<g id="edge11" class="edge">
<title>79420&#45;&gt;69869</title>
<path fill="none" stroke="red" stroke-width="0.74" stroke-dasharray="1,5" d="M341.26,-242.94C335.32,-242.81 328.7,-242.68 322.01,-242.54"/>
<polygon fill="red" stroke="red" stroke-width="0.74" points="321.61,-239.03 311.54,-242.33 321.47,-246.03 321.61,-239.03"/>
<text text-anchor="middle" x="325.18" y="-244.24" font-family="Times,serif" font-size="5.00">&#45;3.213</text>
</g>
<!-- 93125&#45;&gt;85599 -->
<g id="edge35" class="edge">
<title>93125&#45;&gt;85599</title>
<path fill="none" stroke="green" stroke-width="0.2" d="M170.23,-433.85C170.29,-433.92 170.34,-433.99 170.39,-434.06"/>
<polygon fill="green" stroke="green" stroke-width="0.2" points="161.66,-428.51 170.55,-434.27 167.2,-424.22 161.66,-428.51"/>
<text text-anchor="middle" x="164.69" y="-435.46" font-family="Times,serif" font-size="5.00">0.518</text>
</g>
<!-- 71123 -->
<g id="node22" class="node">
<title>71123</title>
<ellipse fill="white" stroke="black" cx="145.87" cy="-298.07" rx="35.19" ry="35.19"/>
<text text-anchor="middle" x="145.87" y="-295.37" font-family="Times,serif" font-size="9.00">heaviside</text>
</g>
<!-- 71123&#45;&gt;80256 -->
<g id="edge12" class="edge">
<title>71123&#45;&gt;80256</title>
<path fill="none" stroke="red" stroke-width="0.36" d="M168.68,-325.57C169.29,-326.29 169.89,-327.02 170.5,-327.75"/>
<polygon fill="red" stroke="red" stroke-width="0.36" points="167.87,-330.07 176.95,-335.53 173.26,-325.6 167.87,-330.07"/>
<text text-anchor="middle" x="176.05" y="-322.16" font-family="Times,serif" font-size="5.00">&#45;1.280</text>
</g>
<!-- 83541 -->
<g id="node23" class="node">
<title>83541</title>
<ellipse fill="white" stroke="black" cx="299.9" cy="-175.88" rx="31.67" ry="31.67"/>
<ellipse fill="none" stroke="black" cx="299.9" cy="-175.88" rx="35.65" ry="35.65"/>
<text text-anchor="middle" x="299.9" y="-173.18" font-family="Times,serif" font-size="9.00">sigmoid</text>
</g>
<!-- 83541&#45;&gt;79420 -->
<g id="edge13" class="edge">
<title>83541&#45;&gt;79420</title>
<path fill="none" stroke="red" stroke-width="0.35" d="M324.82,-202.18C330.32,-207.98 336.12,-214.1 341.51,-219.79"/>
<polygon fill="red" stroke="red" stroke-width="0.35" points="339.13,-222.36 348.55,-227.21 344.21,-217.55 339.13,-222.36"/>
<text text-anchor="middle" x="339.62" y="-212.48" font-family="Times,serif" font-size="5.00">&#45;1.246</text>
</g>
<!-- 85206&#45;&gt;39038 -->
<g id="edge17" class="edge">
<title>85206&#45;&gt;39038</title>
<path fill="none" stroke="green" stroke-width="0.29" stroke-dasharray="1,5" d="M609.56,-347.01C609.54,-346.95 609.51,-346.9 609.49,-346.84"/>
<polygon fill="green" stroke="green" stroke-width="0.29" points="616.44,-354.6 609.42,-346.66 609.96,-357.25 616.44,-354.6"/>
<text text-anchor="middle" x="603.9" y="-348.42" font-family="Times,serif" font-size="5.00">0.954</text>
</g>
<!-- 91996 -->
<g id="node26" class="node">
<title>91996</title>
<ellipse fill="white" stroke="black" cx="452.81" cy="-245.69" rx="30.55" ry="30.55"/>
<ellipse fill="none" stroke="black" cx="452.81" cy="-245.69" rx="34.52" ry="34.52"/>
<text text-anchor="middle" x="452.81" y="-242.99" font-family="Times,serif" font-size="9.00">identity</text>
</g>
<!-- 91996&#45;&gt;52138 -->
<g id="edge33" class="edge">
<title>91996&#45;&gt;52138</title>
<path fill="none" stroke="red" stroke-width="0.15" d="M485.36,-257.92C489.94,-259.64 494.69,-261.43 499.38,-263.19"/>
<polygon fill="red" stroke="red" stroke-width="0.15" points="498.27,-266.51 508.86,-266.75 500.73,-259.96 498.27,-266.51"/>
<text text-anchor="middle" x="498.82" y="-262.06" font-family="Times,serif" font-size="5.00">&#45;0.248</text>
</g>
<!-- 91996&#45;&gt;79420 -->
<g id="edge31" class="edge">
<title>91996&#45;&gt;79420</title>
<path fill="none" stroke="red" stroke-width="0.25" d="M417.92,-244.79C410.96,-244.61 403.67,-244.42 396.78,-244.25"/>
<polygon fill="red" stroke="red" stroke-width="0.25" points="396.47,-240.74 386.38,-243.98 396.29,-247.73 396.47,-240.74"/>
<text text-anchor="middle" x="400.89" y="-246.02" font-family="Times,serif" font-size="5.00">&#45;0.735</text>
</g>
<!-- 86878 -->
<g id="node27" class="node">
<title>86878</title>
<ellipse fill="white" stroke="black" cx="232.94" cy="-26.27" rx="22.08" ry="22.08"/>
<ellipse fill="none" stroke="black" cx="232.94" cy="-26.27" rx="26.04" ry="26.04"/>
<text text-anchor="middle" x="232.94" y="-23.57" font-family="Times,serif" font-size="9.00">tanh</text>
</g>
<!-- 86143 -->
<g id="node34" class="node">
<title>86143</title>
<ellipse fill="white" stroke="black" cx="263.94" cy="-98.98" rx="35.21" ry="35.21"/>
<ellipse fill="none" stroke="black" cx="263.94" cy="-98.98" rx="39.19" ry="39.19"/>
<text text-anchor="middle" x="263.94" y="-96.28" font-family="Times,serif" font-size="9.00">heaviside</text>
</g>
<!-- 86878&#45;&gt;86143 -->
<g id="edge24" class="edge">
<title>86878&#45;&gt;86143</title>
<path fill="none" stroke="green" stroke-width="1.24" stroke-dasharray="1,5" d="M243.26,-50.48C243.62,-51.33 243.99,-52.19 244.36,-53.06"/>
<polygon fill="green" stroke="green" stroke-width="1.24" points="241.27,-54.73 248.41,-62.55 247.71,-51.98 241.27,-54.73"/>
<text text-anchor="middle" x="238.19" y="-53.27" font-family="Times,serif" font-size="5.00">5.715</text>
</g>
<!-- 86755 -->
<g id="node30" class="node">
<title>86755</title>
<ellipse fill="white" stroke="black" cx="140.12" cy="-519.59" rx="30.55" ry="30.55"/>
<ellipse fill="none" stroke="black" cx="140.12" cy="-519.59" rx="34.52" ry="34.52"/>
<text text-anchor="middle" x="140.12" y="-516.89" font-family="Times,serif" font-size="9.00">identity</text>
</g>
<!-- 85599&#45;&gt;86755 -->
<g id="edge23" class="edge">
<title>85599&#45;&gt;86755</title>
<path fill="none" stroke="red" stroke-width="0.11" stroke-dasharray="1,5" d="M169.08,-473.16C167.46,-475.75 165.78,-478.44 164.08,-481.17"/>
<polygon fill="red" stroke="red" stroke-width="0.11" points="160.96,-479.56 158.64,-489.9 166.9,-483.27 160.96,-479.56"/>
<text text-anchor="middle" x="160.12" y="-478.67" font-family="Times,serif" font-size="5.00">&#45;0.053</text>
</g>
<!-- 81888&#45;&gt;81301 -->
<g id="edge14" class="edge">
<title>81888&#45;&gt;81301</title>
<path fill="none" stroke="red" stroke-width="0.77" stroke-dasharray="1,5" d="M478.06,-347.32C484.32,-344.98 490.9,-342.53 497.22,-340.17"/>
<polygon fill="red" stroke="red" stroke-width="0.77" points="498.72,-343.34 506.86,-336.57 496.27,-336.79 498.72,-343.34"/>
<text text-anchor="middle" x="494.1" y="-345.25" font-family="Times,serif" font-size="5.00">&#45;3.331</text>
</g>
<!-- 81888&#45;&gt;80413 -->
<g id="edge27" class="edge">
<title>81888&#45;&gt;80413</title>
<path fill="none" stroke="red" stroke-width="0.22" stroke-dasharray="1,5" d="M448.6,-394.38C448.82,-396.79 449.05,-399.24 449.27,-401.7"/>
<polygon fill="red" stroke="red" stroke-width="0.22" points="445.79,-402.13 450.18,-411.77 452.76,-401.5 445.79,-402.13"/>
<text text-anchor="middle" x="442.48" y="-399.54" font-family="Times,serif" font-size="5.00">&#45;0.596</text>
</g>
<!-- 86755&#45;&gt;91349 -->
<g id="edge28" class="edge">
<title>86755&#45;&gt;91349</title>
<path fill="none" stroke="green" stroke-width="0.78" d="M119.64,-547.94C119.57,-548.03 119.5,-548.13 119.43,-548.22"/>
<polygon fill="green" stroke="green" stroke-width="0.78" points="119.35,-542.36 116.33,-552.51 125.02,-546.46 119.35,-542.36"/>
<text text-anchor="middle" x="113.91" y="-549.58" font-family="Times,serif" font-size="5.00">3.419</text>
</g>
<!-- 69869&#45;&gt;69377 -->
<g id="edge6" class="edge">
<title>69869&#45;&gt;69377</title>
<path fill="none" stroke="green" stroke-width="0.32" stroke-dasharray="1,5" d="M275.93,-277.04C275.93,-277.13 275.93,-277.22 275.93,-277.32"/>
<polygon fill="green" stroke="green" stroke-width="0.32" points="272.43,-275.89 275.9,-285.9 279.43,-275.91 272.43,-275.89"/>
<text text-anchor="middle" x="270.3" y="-278.68" font-family="Times,serif" font-size="5.00">1.096</text>
</g>
<!-- 69869&#45;&gt;83541 -->
<g id="edge22" class="edge">
<title>69869&#45;&gt;83541</title>
<path fill="none" stroke="red" stroke-width="0.12" d="M288.11,-208.36C288.13,-208.29 288.16,-208.23 288.18,-208.16"/>
<polygon fill="red" stroke="red" stroke-width="0.12" points="288.12,-218.57 288.25,-207.97 281.54,-216.18 288.12,-218.57"/>
<text text-anchor="middle" x="281.69" y="-209.76" font-family="Times,serif" font-size="5.00">&#45;0.091</text>
</g>
<!-- 41213 -->
<g id="node32" class="node">
<title>41213</title>
<ellipse fill="white" stroke="black" cx="571.57" cy="-416.19" rx="31.67" ry="31.67"/>
<ellipse fill="none" stroke="black" cx="571.57" cy="-416.19" rx="35.65" ry="35.65"/>
<text text-anchor="middle" x="571.57" y="-413.49" font-family="Times,serif" font-size="9.00">sigmoid</text>
</g>
<!-- 41213&#45;&gt;81301 -->
<g id="edge21" class="edge">
<title>41213&#45;&gt;81301</title>
<path fill="none" stroke="red" stroke-width="0.13" d="M556.85,-383.34C553.51,-375.89 549.96,-367.98 546.62,-360.52"/>
<polygon fill="red" stroke="red" stroke-width="0.13" points="549.81,-359.08 542.52,-351.39 543.42,-361.94 549.81,-359.08"/>
<text text-anchor="middle" x="548.5" y="-367.43" font-family="Times,serif" font-size="5.00">&#45;0.148</text>
</g>
<!-- 86143&#45;&gt;83541 -->
<g id="edge20" class="edge">
<title>86143&#45;&gt;83541</title>
<path fill="none" stroke="red" stroke-width="0.27" d="M280.66,-134.73C280.7,-134.82 280.74,-134.91 280.78,-135"/>
<polygon fill="red" stroke="red" stroke-width="0.27" points="277.21,-135.63 284.62,-143.2 283.55,-132.66 277.21,-135.63"/>
<text text-anchor="middle" x="274.26" y="-136.36" font-family="Times,serif" font-size="5.00">&#45;0.828</text>
</g>
</g>
</svg>
