<?xml version="1.0" encoding="UTF-8" standalone="no"?>
<!DOCTYPE svg PUBLIC "-//W3C//DTD SVG 1.1//EN"
 "http://www.w3.org/Graphics/SVG/1.1/DTD/svg11.dtd">
<!-- Generated by graphviz version 2.47.1 (20210417.1919)
 -->
<!-- Pages: 1 -->
<svg width="360pt" height="383pt"
 viewBox="0.00 0.00 359.76 382.73" xmlns="http://www.w3.org/2000/svg" xmlns:xlink="http://www.w3.org/1999/xlink">
<g id="graph0" class="graph" transform="scale(1 1) rotate(0) translate(4 378.73)">
<polygon fill="white" stroke="transparent" points="-4,4 -4,-378.73 355.76,-378.73 355.76,4 -4,4"/>
<!-- &#45;1 -->
<g id="node1" class="node">
<title>&#45;1</title>
<polygon fill="lightgray" stroke="black" points="342.75,-250.7 318.75,-250.7 318.75,-232.1 342.75,-232.1 342.75,-250.7"/>
<text text-anchor="middle" x="330.75" y="-238.7" font-family="Times,serif" font-size="9.00">&#45;1</text>
</g>
<!-- &#45;2 -->
<g id="node2" class="node">
<title>&#45;2</title>
<polygon fill="lightgray" stroke="black" points="174.98,-90.11 150.98,-90.11 150.98,-71.51 174.98,-71.51 174.98,-90.11"/>
<text text-anchor="middle" x="162.98" y="-78.11" font-family="Times,serif" font-size="9.00">&#45;2</text>
</g>
<!-- 0 -->
<g id="node5" class="node">
<title>0</title>
<ellipse fill="lightblue" stroke="black" cx="223.51" cy="-51.02" rx="14.49" ry="14.49"/>
<ellipse fill="none" stroke="black" cx="223.51" cy="-51.02" rx="18.49" ry="18.49"/>
<text text-anchor="middle" x="223.51" y="-48.32" font-family="Times,serif" font-size="9.00">0</text>
</g>
<!-- &#45;2&#45;&gt;0 -->
<g id="edge1" class="edge">
<title>&#45;2&#45;&gt;0</title>
<path fill="none" stroke="green" stroke-width="0.34" d="M174.94,-74.92C181.48,-71.71 189.84,-67.59 197.78,-63.68"/>
<polygon fill="green" stroke="green" stroke-width="0.34" points="199.34,-66.82 206.77,-59.26 196.25,-60.54 199.34,-66.82"/>
<text text-anchor="middle" x="180.74" y="-70.8" font-family="Times,serif" font-size="5.00">1.210</text>
</g>
<!-- 9860 -->
<g id="node7" class="node">
<title>9860</title>
<ellipse fill="white" stroke="black" cx="165.52" cy="-155.59" rx="22.04" ry="22.04"/>
<text text-anchor="middle" x="165.52" y="-152.89" font-family="Times,serif" font-size="9.00">tanh</text>
</g>
<!-- &#45;2&#45;&gt;9860 -->
<g id="edge4" class="edge">
<title>&#45;2&#45;&gt;9860</title>
<path fill="none" stroke="green" stroke-width="1.07" d="M163.3,-90.28C163.58,-98.55 164.01,-111.05 164.41,-122.91"/>
<polygon fill="green" stroke="green" stroke-width="1.07" points="160.92,-123.17 164.75,-133.04 167.91,-122.93 160.92,-123.17"/>
<text text-anchor="middle" x="158.23" y="-108.09" font-family="Times,serif" font-size="5.00">4.841</text>
</g>
<!-- 75943 -->
<g id="node11" class="node">
<title>75943</title>
<ellipse fill="white" stroke="black" cx="214.48" cy="-158.42" rx="22.08" ry="22.08"/>
<ellipse fill="none" stroke="black" cx="214.48" cy="-158.42" rx="26.04" ry="26.04"/>
<text text-anchor="middle" x="214.48" y="-155.72" font-family="Times,serif" font-size="9.00">tanh</text>
</g>
<!-- &#45;2&#45;&gt;75943 -->
<g id="edge23" class="edge">
<title>&#45;2&#45;&gt;75943</title>
<path fill="none" stroke="green" stroke-width="0.52" stroke-dasharray="1,5" d="M169.3,-90.32C175.51,-99.69 185.33,-114.49 194.24,-127.91"/>
<polygon fill="green" stroke="green" stroke-width="0.52" points="191.46,-130.06 199.91,-136.46 197.29,-126.19 191.46,-130.06"/>
<text text-anchor="middle" x="176.14" y="-110.62" font-family="Times,serif" font-size="5.00">2.090</text>
</g>
<!-- 72268 -->
<g id="node14" class="node">
<title>72268</title>
<ellipse fill="white" stroke="black" cx="102.49" cy="-22.27" rx="22.04" ry="22.04"/>
<text text-anchor="middle" x="102.49" y="-19.57" font-family="Times,serif" font-size="9.00">tanh</text>
</g>
<!-- &#45;2&#45;&gt;72268 -->
<g id="edge9" class="edge">
<title>&#45;2&#45;&gt;72268</title>
<path fill="none" stroke="red" stroke-width="0.47" d="M153.26,-71.4C145.88,-64.26 135.42,-54.14 125.91,-44.93"/>
<polygon fill="red" stroke="red" stroke-width="0.47" points="128.18,-42.26 118.56,-37.82 123.31,-47.29 128.18,-42.26"/>
<text text-anchor="middle" x="133.13" y="-59.67" font-family="Times,serif" font-size="5.00">&#45;1.861</text>
</g>
<!-- &#45;3 -->
<g id="node3" class="node">
<title>&#45;3</title>
<polygon fill="lightgray" stroke="black" points="340.77,-176.31 316.76,-176.31 316.76,-157.71 340.77,-157.71 340.77,-176.31"/>
<text text-anchor="middle" x="328.77" y="-164.31" font-family="Times,serif" font-size="9.00">&#45;3</text>
</g>
<!-- 8931 -->
<g id="node6" class="node">
<title>8931</title>
<ellipse fill="white" stroke="black" cx="244.05" cy="-133.4" rx="35.19" ry="35.19"/>
<text text-anchor="middle" x="244.05" y="-130.7" font-family="Times,serif" font-size="9.00">heaviside</text>
</g>
<!-- &#45;3&#45;&gt;8931 -->
<g id="edge6" class="edge">
<title>&#45;3&#45;&gt;8931</title>
<path fill="none" stroke="green" stroke-width="0.66" stroke-dasharray="1,5" d="M316.99,-162.33C308.89,-159.12 297.6,-154.64 286.31,-150.17"/>
<polygon fill="green" stroke="green" stroke-width="0.66" points="287.49,-146.87 276.91,-146.44 284.91,-153.38 287.49,-146.87"/>
<text text-anchor="middle" x="296.02" y="-157.75" font-family="Times,serif" font-size="5.00">2.781</text>
</g>
<!-- 88036 -->
<g id="node8" class="node">
<title>88036</title>
<ellipse fill="white" stroke="black" cx="325.49" cy="-113.28" rx="22.08" ry="22.08"/>
<ellipse fill="none" stroke="black" cx="325.49" cy="-113.28" rx="26.04" ry="26.04"/>
<text text-anchor="middle" x="325.49" y="-110.58" font-family="Times,serif" font-size="9.00">tanh</text>
</g>
<!-- &#45;3&#45;&gt;88036 -->
<g id="edge25" class="edge">
<title>&#45;3&#45;&gt;88036</title>
<path fill="none" stroke="green" stroke-width="0.44" stroke-dasharray="1,5" d="M328.19,-157.65C328.05,-155.28 327.89,-152.59 327.71,-149.74"/>
<polygon fill="green" stroke="green" stroke-width="0.44" points="331.2,-149.38 327.09,-139.61 324.21,-149.81 331.2,-149.38"/>
<text text-anchor="middle" x="322.33" y="-149.19" font-family="Times,serif" font-size="5.00">1.710</text>
</g>
<!-- &#45;4 -->
<g id="node4" class="node">
<title>&#45;4</title>
<polygon fill="lightgray" stroke="black" points="290.27,-66.5 266.27,-66.5 266.27,-47.9 290.27,-47.9 290.27,-66.5"/>
<text text-anchor="middle" x="278.27" y="-54.5" font-family="Times,serif" font-size="9.00">&#45;4</text>
</g>
<!-- &#45;4&#45;&gt;0 -->
<g id="edge2" class="edge">
<title>&#45;4&#45;&gt;0</title>
<path fill="none" stroke="red" stroke-width="0.31" stroke-dasharray="1,5" d="M266.39,-55.86C262.21,-55.39 257.3,-54.83 252.34,-54.27"/>
<polygon fill="red" stroke="red" stroke-width="0.31" points="252.59,-50.78 242.26,-53.14 251.81,-57.73 252.59,-50.78"/>
<text text-anchor="middle" x="252.91" y="-56.57" font-family="Times,serif" font-size="5.00">&#45;1.045</text>
</g>
<!-- &#45;4&#45;&gt;8931 -->
<g id="edge7" class="edge">
<title>&#45;4&#45;&gt;8931</title>
<path fill="none" stroke="green" stroke-width="0.41" d="M274.08,-66.54C271.13,-73.11 266.95,-82.4 262.66,-91.97"/>
<polygon fill="green" stroke="green" stroke-width="0.41" points="259.44,-90.6 258.53,-101.15 265.82,-93.46 259.44,-90.6"/>
<text text-anchor="middle" x="262.74" y="-80.76" font-family="Times,serif" font-size="5.00">1.572</text>
</g>
<!-- 8931&#45;&gt;0 -->
<g id="edge3" class="edge">
<title>8931&#45;&gt;0</title>
<path fill="none" stroke="red" stroke-width="0.5" d="M235.46,-98.94C233.82,-92.39 232.13,-85.6 230.55,-79.27"/>
<polygon fill="red" stroke="red" stroke-width="0.5" points="233.85,-78.02 228.03,-69.16 227.06,-79.71 233.85,-78.02"/>
<text text-anchor="middle" x="226.55" y="-90.61" font-family="Times,serif" font-size="5.00">&#45;1.997</text>
</g>
<!-- 9860&#45;&gt;8931 -->
<g id="edge5" class="edge">
<title>9860&#45;&gt;8931</title>
<path fill="none" stroke="green" stroke-width="0.38" d="M186.97,-149.53C191.07,-148.37 195.49,-147.12 200,-145.85"/>
<polygon fill="green" stroke="green" stroke-width="0.38" points="201.24,-149.13 209.92,-143.05 199.34,-142.4 201.24,-149.13"/>
<text text-anchor="middle" x="187.86" y="-149.19" font-family="Times,serif" font-size="5.00">1.411</text>
</g>
<!-- 9860&#45;&gt;75943 -->
<g id="edge17" class="edge">
<title>9860&#45;&gt;75943</title>
<path fill="none" stroke="green" stroke-width="0.38" d="M187.99,-156.89C188.04,-156.9 188.09,-156.9 188.14,-156.9"/>
<polygon fill="green" stroke="green" stroke-width="0.38" points="178.11,-159.82 188.3,-156.91 178.52,-152.83 178.11,-159.82"/>
<text text-anchor="middle" x="182.44" y="-158.4" font-family="Times,serif" font-size="5.00">1.383</text>
</g>
<!-- 64920 -->
<g id="node19" class="node">
<title>64920</title>
<ellipse fill="white" stroke="black" cx="93.21" cy="-136.87" rx="30.52" ry="30.52"/>
<text text-anchor="middle" x="93.21" y="-134.17" font-family="Times,serif" font-size="9.00">identity</text>
</g>
<!-- 9860&#45;&gt;64920 -->
<g id="edge8" class="edge">
<title>9860&#45;&gt;64920</title>
<path fill="none" stroke="green" stroke-width="0.57" stroke-dasharray="1,5" d="M143.82,-149.98C140.38,-149.08 136.72,-148.14 133.01,-147.18"/>
<polygon fill="green" stroke="green" stroke-width="0.57" points="133.74,-143.75 123.18,-144.63 131.98,-150.53 133.74,-143.75"/>
<text text-anchor="middle" x="132.79" y="-150.08" font-family="Times,serif" font-size="5.00">2.350</text>
</g>
<!-- 73245 -->
<g id="node21" class="node">
<title>73245</title>
<ellipse fill="white" stroke="black" cx="173.09" cy="-260.83" rx="30.52" ry="30.52"/>
<text text-anchor="middle" x="173.09" y="-258.13" font-family="Times,serif" font-size="9.00">identity</text>
</g>
<!-- 9860&#45;&gt;73245 -->
<g id="edge12" class="edge">
<title>9860&#45;&gt;73245</title>
<path fill="none" stroke="red" stroke-width="0.34" d="M167.12,-177.91C167.99,-190.05 169.1,-205.45 170.13,-219.68"/>
<polygon fill="red" stroke="red" stroke-width="0.34" points="166.64,-220.04 170.85,-229.77 173.62,-219.54 166.64,-220.04"/>
<text text-anchor="middle" x="175.08" y="-200.3" font-family="Times,serif" font-size="5.00">&#45;1.178</text>
</g>
<!-- 88036&#45;&gt;8931 -->
<g id="edge26" class="edge">
<title>88036&#45;&gt;8931</title>
<path fill="none" stroke="green" stroke-width="0.53" stroke-dasharray="1,5" d="M299.72,-119.65C296.15,-120.53 292.41,-121.45 288.62,-122.39"/>
<polygon fill="green" stroke="green" stroke-width="0.53" points="287.45,-119.07 278.58,-124.87 289.13,-125.87 287.45,-119.07"/>
<text text-anchor="middle" x="288.55" y="-122.52" font-family="Times,serif" font-size="5.00">2.129</text>
</g>
<!-- 73446 -->
<g id="node9" class="node">
<title>73446</title>
<ellipse fill="white" stroke="black" cx="113.57" cy="-267.65" rx="30.55" ry="30.55"/>
<ellipse fill="none" stroke="black" cx="113.57" cy="-267.65" rx="34.52" ry="34.52"/>
<text text-anchor="middle" x="113.57" y="-264.95" font-family="Times,serif" font-size="9.00">identity</text>
</g>
<!-- 79623 -->
<g id="node12" class="node">
<title>79623</title>
<ellipse fill="white" stroke="black" cx="34.76" cy="-286.81" rx="30.55" ry="30.55"/>
<ellipse fill="none" stroke="black" cx="34.76" cy="-286.81" rx="34.52" ry="34.52"/>
<text text-anchor="middle" x="34.76" y="-284.11" font-family="Times,serif" font-size="9.00">identity</text>
</g>
<!-- 73446&#45;&gt;79623 -->
<g id="edge31" class="edge">
<title>73446&#45;&gt;79623</title>
<path fill="none" stroke="green" stroke-width="0.65" d="M79.69,-275.89C79.35,-275.97 79,-276.05 78.66,-276.14"/>
<polygon fill="green" stroke="green" stroke-width="0.65" points="77.5,-272.82 68.61,-278.58 79.16,-279.62 77.5,-272.82"/>
<text text-anchor="middle" x="73.55" y="-277.51" font-family="Times,serif" font-size="5.00">2.745</text>
</g>
<!-- 72467 -->
<g id="node18" class="node">
<title>72467</title>
<ellipse fill="white" stroke="black" cx="156.39" cy="-196.77" rx="22.08" ry="22.08"/>
<ellipse fill="none" stroke="black" cx="156.39" cy="-196.77" rx="26.04" ry="26.04"/>
<text text-anchor="middle" x="156.39" y="-194.07" font-family="Times,serif" font-size="9.00">tanh</text>
</g>
<!-- 73446&#45;&gt;72467 -->
<g id="edge15" class="edge">
<title>73446&#45;&gt;72467</title>
<path fill="none" stroke="red" stroke-width="0.33" d="M131.73,-237.59C133.61,-234.48 135.53,-231.31 137.42,-228.18"/>
<polygon fill="red" stroke="red" stroke-width="0.33" points="140.45,-229.93 142.63,-219.56 134.46,-226.31 140.45,-229.93"/>
<text text-anchor="middle" x="128.12" y="-228.39" font-family="Times,serif" font-size="5.00">&#45;1.130</text>
</g>
<!-- 61767 -->
<g id="node10" class="node">
<title>61767</title>
<ellipse fill="white" stroke="black" cx="43.99" cy="-70.78" rx="22.08" ry="22.08"/>
<ellipse fill="none" stroke="black" cx="43.99" cy="-70.78" rx="26.04" ry="26.04"/>
<text text-anchor="middle" x="43.99" y="-68.08" font-family="Times,serif" font-size="9.00">tanh</text>
</g>
<!-- 80568 -->
<g id="node15" class="node">
<title>80568</title>
<ellipse fill="white" stroke="black" cx="243.91" cy="-257" rx="30.55" ry="30.55"/>
<ellipse fill="none" stroke="black" cx="243.91" cy="-257" rx="34.52" ry="34.52"/>
<text text-anchor="middle" x="243.91" y="-254.3" font-family="Times,serif" font-size="9.00">identity</text>
</g>
<!-- 75943&#45;&gt;80568 -->
<g id="edge24" class="edge">
<title>75943&#45;&gt;80568</title>
<path fill="none" stroke="red" stroke-width="0.15" d="M222.06,-183.81C224.8,-192.98 227.97,-203.6 231.03,-213.86"/>
<polygon fill="red" stroke="red" stroke-width="0.15" points="227.7,-214.94 233.91,-223.52 234.41,-212.94 227.7,-214.94"/>
<text text-anchor="middle" x="220.09" y="-200.33" font-family="Times,serif" font-size="5.00">&#45;0.242</text>
</g>
<!-- 87056 -->
<g id="node17" class="node">
<title>87056</title>
<ellipse fill="white" stroke="black" cx="66.13" cy="-216.99" rx="30.52" ry="30.52"/>
<text text-anchor="middle" x="66.13" y="-214.29" font-family="Times,serif" font-size="9.00">identity</text>
</g>
<!-- 79623&#45;&gt;87056 -->
<g id="edge28" class="edge">
<title>79623&#45;&gt;87056</title>
<path fill="none" stroke="green" stroke-width="0.13" stroke-dasharray="1,5" d="M49.16,-254.76C49.2,-254.66 49.25,-254.56 49.29,-254.46"/>
<polygon fill="green" stroke="green" stroke-width="0.13" points="52.5,-255.86 53.41,-245.3 46.12,-252.99 52.5,-255.86"/>
<text text-anchor="middle" x="54.85" y="-250.11" font-family="Times,serif" font-size="5.00">0.166</text>
</g>
<!-- 108259 -->
<g id="node13" class="node">
<title>108259</title>
<ellipse fill="white" stroke="black" cx="131.3" cy="-332.62" rx="35.19" ry="35.19"/>
<text text-anchor="middle" x="131.3" y="-329.92" font-family="Times,serif" font-size="9.00">heaviside</text>
</g>
<!-- 108259&#45;&gt;73446 -->
<g id="edge30" class="edge">
<title>108259&#45;&gt;73446</title>
<path fill="none" stroke="green" stroke-width="0.38" stroke-dasharray="1,5" d="M121.92,-298.23C121.9,-298.17 121.88,-298.11 121.87,-298.05"/>
<polygon fill="green" stroke="green" stroke-width="0.38" points="127.83,-306.59 121.82,-297.87 121.08,-308.44 127.83,-306.59"/>
<text text-anchor="middle" x="116.27" y="-299.64" font-family="Times,serif" font-size="5.00">1.421</text>
</g>
<!-- 72268&#45;&gt;61767 -->
<g id="edge10" class="edge">
<title>72268&#45;&gt;61767</title>
<path fill="none" stroke="green" stroke-width="0.13" stroke-dasharray="1,5" d="M85.25,-36.56C81.21,-39.92 76.79,-43.58 72.4,-47.22"/>
<polygon fill="green" stroke="green" stroke-width="0.13" points="70.08,-44.6 64.61,-53.68 74.55,-49.99 70.08,-44.6"/>
<text text-anchor="middle" x="73.2" y="-37.39" font-family="Times,serif" font-size="5.00">0.139</text>
</g>
<!-- 81583 -->
<g id="node16" class="node">
<title>81583</title>
<ellipse fill="white" stroke="black" cx="241.39" cy="-201.9" rx="35.21" ry="35.21"/>
<ellipse fill="none" stroke="black" cx="241.39" cy="-201.9" rx="39.19" ry="39.19"/>
<text text-anchor="middle" x="241.39" y="-199.2" font-family="Times,serif" font-size="9.00">heaviside</text>
</g>
<!-- 81583&#45;&gt;8931 -->
<g id="edge21" class="edge">
<title>81583&#45;&gt;8931</title>
<path fill="none" stroke="green" stroke-width="0.28" d="M242.92,-162.45C242.92,-162.39 242.92,-162.33 242.93,-162.27"/>
<polygon fill="green" stroke="green" stroke-width="0.28" points="246.04,-172.22 242.93,-162.09 239.04,-171.95 246.04,-172.22"/>
<text text-anchor="middle" x="245.74" y="-157.86" font-family="Times,serif" font-size="5.00">0.914</text>
</g>
<!-- 72467&#45;&gt;8931 -->
<g id="edge11" class="edge">
<title>72467&#45;&gt;8931</title>
<path fill="none" stroke="red" stroke-width="0.11" stroke-dasharray="1,5" d="M178.06,-181.1C186.85,-174.75 197.26,-167.22 207.18,-160.05"/>
<polygon fill="red" stroke="red" stroke-width="0.11" points="209.3,-162.84 215.35,-154.15 205.2,-157.17 209.3,-162.84"/>
<text text-anchor="middle" x="195.85" y="-166.08" font-family="Times,serif" font-size="5.00">&#45;0.071</text>
</g>
<!-- 72467&#45;&gt;81583 -->
<g id="edge20" class="edge">
<title>72467&#45;&gt;81583</title>
<path fill="none" stroke="green" stroke-width="0.89" d="M182.82,-198.36C185.75,-198.54 188.79,-198.72 191.89,-198.91"/>
<polygon fill="green" stroke="green" stroke-width="0.89" points="191.68,-202.4 201.87,-199.51 192.1,-195.42 191.68,-202.4"/>
<text text-anchor="middle" x="192.98" y="-200.14" font-family="Times,serif" font-size="5.00">3.937</text>
</g>
<!-- 72467&#45;&gt;87056 -->
<g id="edge22" class="edge">
<title>72467&#45;&gt;87056</title>
<path fill="none" stroke="green" stroke-width="0.8" d="M130.29,-202.62C122.74,-204.31 114.32,-206.19 106.12,-208.03"/>
<polygon fill="green" stroke="green" stroke-width="0.8" points="105.31,-204.62 96.32,-210.23 106.84,-211.45 105.31,-204.62"/>
<text text-anchor="middle" x="112.58" y="-206.82" font-family="Times,serif" font-size="5.00">3.486</text>
</g>
<!-- 72467&#45;&gt;64920 -->
<g id="edge18" class="edge">
<title>72467&#45;&gt;64920</title>
<path fill="none" stroke="green" stroke-width="0.19" stroke-dasharray="1,5" d="M137.1,-178.47C132.71,-174.32 127.96,-169.81 123.25,-165.35"/>
<polygon fill="green" stroke="green" stroke-width="0.19" points="125.61,-162.76 115.95,-158.42 120.79,-167.84 125.61,-162.76"/>
<text text-anchor="middle" x="124.55" y="-173.41" font-family="Times,serif" font-size="5.00">0.464</text>
</g>
<!-- 64920&#45;&gt;61767 -->
<g id="edge16" class="edge">
<title>64920&#45;&gt;61767</title>
<path fill="none" stroke="green" stroke-width="0.67" stroke-dasharray="1,5" d="M74.6,-111.89C71.77,-108.08 68.83,-104.12 65.93,-100.24"/>
<polygon fill="green" stroke="green" stroke-width="0.67" points="68.51,-97.84 59.73,-91.91 62.9,-102.02 68.51,-97.84"/>
<text text-anchor="middle" x="64.64" y="-101.56" font-family="Times,serif" font-size="5.00">2.828</text>
</g>
<!-- 89370 -->
<g id="node20" class="node">
<title>89370</title>
<ellipse fill="white" stroke="black" cx="211.49" cy="-339.97" rx="30.55" ry="30.55"/>
<ellipse fill="none" stroke="black" cx="211.49" cy="-339.97" rx="34.52" ry="34.52"/>
<text text-anchor="middle" x="211.49" y="-337.27" font-family="Times,serif" font-size="9.00">identity</text>
</g>
<!-- 73245&#45;&gt;73446 -->
<g id="edge14" class="edge">
<title>73245&#45;&gt;73446</title>
<path fill="none" stroke="green" stroke-width="0.42" d="M142.28,-264.36C142.23,-264.37 142.17,-264.38 142.11,-264.38"/>
<polygon fill="green" stroke="green" stroke-width="0.42" points="151.48,-259.78 141.94,-264.4 152.28,-266.74 151.48,-259.78"/>
<text text-anchor="middle" x="136.57" y="-265.87" font-family="Times,serif" font-size="5.00">1.608</text>
</g>
<!-- 73245&#45;&gt;108259 -->
<g id="edge29" class="edge">
<title>73245&#45;&gt;108259</title>
<path fill="none" stroke="green" stroke-width="0.13" stroke-dasharray="1,5" d="M157.52,-287.56C156.52,-289.3 155.49,-291.06 154.45,-292.84"/>
<polygon fill="green" stroke="green" stroke-width="0.13" points="151.27,-291.35 149.26,-301.75 157.32,-294.87 151.27,-291.35"/>
<text text-anchor="middle" x="161.61" y="-291.7" font-family="Times,serif" font-size="5.00">0.142</text>
</g>
<!-- 73245&#45;&gt;80568 -->
<g id="edge19" class="edge">
<title>73245&#45;&gt;80568</title>
<path fill="none" stroke="green" stroke-width="0.23" d="M203.94,-259.17C204.05,-259.16 204.15,-259.15 204.25,-259.15"/>
<polygon fill="green" stroke="green" stroke-width="0.23" points="199.09,-262.93 208.89,-258.9 198.72,-255.94 199.09,-262.93"/>
<text text-anchor="middle" x="204.1" y="-254.66" font-family="Times,serif" font-size="5.00">0.634</text>
</g>
<!-- 73245&#45;&gt;72467 -->
<g id="edge13" class="edge">
<title>73245&#45;&gt;72467</title>
<path fill="none" stroke="green" stroke-width="0.46" d="M165.33,-231.05C165.3,-230.96 165.28,-230.87 165.26,-230.78"/>
<polygon fill="green" stroke="green" stroke-width="0.46" points="168.99,-231.24 163.08,-222.45 162.22,-233.01 168.99,-231.24"/>
<text text-anchor="middle" x="159.67" y="-226.42" font-family="Times,serif" font-size="5.00">1.783</text>
</g>
<!-- 73245&#45;&gt;89370 -->
<g id="edge27" class="edge">
<title>73245&#45;&gt;89370</title>
<path fill="none" stroke="red" stroke-width="0.7" d="M186.52,-288.51C188.25,-292.07 190.04,-295.77 191.84,-299.48"/>
<polygon fill="red" stroke="red" stroke-width="0.7" points="188.78,-301.19 196.29,-308.66 195.08,-298.13 188.78,-301.19"/>
<text text-anchor="middle" x="182.72" y="-295.5" font-family="Times,serif" font-size="5.00">&#45;3.025</text>
</g>
</g>
</svg>
