<?xml version="1.0" encoding="UTF-8" standalone="no"?>
<!DOCTYPE svg PUBLIC "-//W3C//DTD SVG 1.1//EN"
 "http://www.w3.org/Graphics/SVG/1.1/DTD/svg11.dtd">
<!-- Generated by graphviz version 2.47.1 (20210417.1919)
 -->
<!-- Pages: 1 -->
<svg width="623pt" height="654pt"
 viewBox="0.00 0.00 622.69 653.64" xmlns="http://www.w3.org/2000/svg" xmlns:xlink="http://www.w3.org/1999/xlink">
<g id="graph0" class="graph" transform="scale(1 1) rotate(0) translate(4 649.64)">
<polygon fill="white" stroke="transparent" points="-4,4 -4,-649.64 618.69,-649.64 618.69,4 -4,4"/>
<!-- &#45;1 -->
<g id="node1" class="node">
<title>&#45;1</title>
<polygon fill="lightgray" stroke="black" points="499.75,-178.21 475.75,-178.21 475.75,-159.61 499.75,-159.61 499.75,-178.21"/>
<text text-anchor="middle" x="487.75" y="-166.21" font-family="Times,serif" font-size="9.00">&#45;1</text>
</g>
<!-- 56703 -->
<g id="node49" class="node">
<title>56703</title>
<ellipse fill="white" stroke="black" cx="558.96" cy="-158.27" rx="22.04" ry="22.04"/>
<text text-anchor="middle" x="558.96" y="-155.57" font-family="Times,serif" font-size="9.00">tanh</text>
</g>
<!-- &#45;1&#45;&gt;56703 -->
<g id="edge8" class="edge">
<title>&#45;1&#45;&gt;56703</title>
<path fill="none" stroke="green" stroke-width="0.34" stroke-dasharray="1,5" d="M499.51,-167.15C507.01,-166.03 517.13,-164.52 526.9,-163.06"/>
<polygon fill="green" stroke="green" stroke-width="0.34" points="527.44,-166.52 536.82,-161.58 526.41,-159.6 527.44,-166.52"/>
<text text-anchor="middle" x="507.58" y="-166.61" font-family="Times,serif" font-size="5.00">1.209</text>
</g>
<!-- &#45;2 -->
<g id="node2" class="node">
<title>&#45;2</title>
<polygon fill="lightgray" stroke="black" points="403.48,-130.12 379.48,-130.12 379.48,-111.51 403.48,-111.51 403.48,-130.12"/>
<text text-anchor="middle" x="391.48" y="-118.11" font-family="Times,serif" font-size="9.00">&#45;2</text>
</g>
<!-- 0 -->
<g id="node5" class="node">
<title>0</title>
<ellipse fill="lightblue" stroke="black" cx="410.8" cy="-185.91" rx="14.49" ry="14.49"/>
<ellipse fill="none" stroke="black" cx="410.8" cy="-185.91" rx="18.49" ry="18.49"/>
<text text-anchor="middle" x="410.8" y="-183.21" font-family="Times,serif" font-size="9.00">0</text>
</g>
<!-- &#45;2&#45;&gt;0 -->
<g id="edge1" class="edge">
<title>&#45;2&#45;&gt;0</title>
<path fill="none" stroke="green" stroke-width="0.58" d="M394.25,-130.14C396.44,-137.52 399.62,-148.23 402.61,-158.3"/>
<polygon fill="green" stroke="green" stroke-width="0.58" points="399.28,-159.41 405.49,-168 406,-157.42 399.28,-159.41"/>
<text text-anchor="middle" x="392.8" y="-145.72" font-family="Times,serif" font-size="5.00">2.417</text>
</g>
<!-- 3554 -->
<g id="node34" class="node">
<title>3554</title>
<ellipse fill="white" stroke="black" cx="330.71" cy="-184.07" rx="22.08" ry="22.08"/>
<ellipse fill="none" stroke="black" cx="330.71" cy="-184.07" rx="26.04" ry="26.04"/>
<text text-anchor="middle" x="330.71" y="-181.37" font-family="Times,serif" font-size="9.00">tanh</text>
</g>
<!-- &#45;2&#45;&gt;3554 -->
<g id="edge3" class="edge">
<title>&#45;2&#45;&gt;3554</title>
<path fill="none" stroke="green" stroke-width="0.44" d="M382.51,-130.15C375.51,-137.43 365.43,-147.93 356.02,-157.73"/>
<polygon fill="green" stroke="green" stroke-width="0.44" points="353.42,-155.38 349.01,-165.02 358.46,-160.23 353.42,-155.38"/>
<text text-anchor="middle" x="363.64" y="-145.44" font-family="Times,serif" font-size="5.00">1.681</text>
</g>
<!-- &#45;3 -->
<g id="node3" class="node">
<title>&#45;3</title>
<polygon fill="lightgray" stroke="black" points="431.75,-645.54 407.75,-645.54 407.75,-626.94 431.75,-626.94 431.75,-645.54"/>
<text text-anchor="middle" x="419.75" y="-633.54" font-family="Times,serif" font-size="9.00">&#45;3</text>
</g>
<!-- 55952 -->
<g id="node9" class="node">
<title>55952</title>
<ellipse fill="white" stroke="black" cx="463.77" cy="-578.91" rx="22.04" ry="22.04"/>
<text text-anchor="middle" x="463.77" y="-576.21" font-family="Times,serif" font-size="9.00">tanh</text>
</g>
<!-- &#45;3&#45;&gt;55952 -->
<g id="edge6" class="edge">
<title>&#45;3&#45;&gt;55952</title>
<path fill="none" stroke="green" stroke-width="0.17" d="M427.02,-626.77C431.61,-620.79 437.78,-612.75 443.76,-604.97"/>
<polygon fill="green" stroke="green" stroke-width="0.17" points="446.77,-606.8 450.08,-596.74 441.21,-602.54 446.77,-606.8"/>
<text text-anchor="middle" x="429.76" y="-617.37" font-family="Times,serif" font-size="5.00">0.353</text>
</g>
<!-- &#45;4 -->
<g id="node4" class="node">
<title>&#45;4</title>
<polygon fill="lightgray" stroke="black" points="410.15,-271.57 386.14,-271.57 386.14,-252.97 410.15,-252.97 410.15,-271.57"/>
<text text-anchor="middle" x="398.15" y="-259.57" font-family="Times,serif" font-size="9.00">&#45;4</text>
</g>
<!-- &#45;4&#45;&gt;0 -->
<g id="edge2" class="edge">
<title>&#45;4&#45;&gt;0</title>
<path fill="none" stroke="green" stroke-width="0.31" stroke-dasharray="1,5" d="M399.7,-252.91C401.29,-243.32 403.83,-227.95 406.09,-214.34"/>
<polygon fill="green" stroke="green" stroke-width="0.31" points="409.55,-214.84 407.74,-204.41 402.65,-213.7 409.55,-214.84"/>
<text text-anchor="middle" x="408.52" y="-235.12" font-family="Times,serif" font-size="5.00">1.044</text>
</g>
<!-- 91486 -->
<g id="node33" class="node">
<title>91486</title>
<ellipse fill="white" stroke="black" cx="360.51" cy="-343.46" rx="22.04" ry="22.04"/>
<text text-anchor="middle" x="360.51" y="-340.76" font-family="Times,serif" font-size="9.00">tanh</text>
</g>
<!-- &#45;4&#45;&gt;91486 -->
<g id="edge9" class="edge">
<title>&#45;4&#45;&gt;91486</title>
<path fill="none" stroke="green" stroke-width="0.25" d="M393.83,-271.58C389.08,-281.83 381.2,-298.84 374.29,-313.73"/>
<polygon fill="green" stroke="green" stroke-width="0.25" points="370.97,-312.58 369.94,-323.12 377.32,-315.52 370.97,-312.58"/>
<text text-anchor="middle" x="389.69" y="-294.16" font-family="Times,serif" font-size="5.00">0.737</text>
</g>
<!-- &#45;4&#45;&gt;3554 -->
<g id="edge5" class="edge">
<title>&#45;4&#45;&gt;3554</title>
<path fill="none" stroke="green" stroke-width="0.24" stroke-dasharray="1,5" d="M389.88,-252.68C381.15,-242.56 366.99,-226.15 354.71,-211.91"/>
<polygon fill="green" stroke="green" stroke-width="0.24" points="357.31,-209.56 348.13,-204.27 352.01,-214.13 357.31,-209.56"/>
<text text-anchor="middle" x="366.67" y="-233.79" font-family="Times,serif" font-size="5.00">0.725</text>
</g>
<!-- 63499 -->
<g id="node6" class="node">
<title>63499</title>
<ellipse fill="white" stroke="black" cx="300.25" cy="-230.48" rx="31.65" ry="31.65"/>
<text text-anchor="middle" x="300.25" y="-227.78" font-family="Times,serif" font-size="9.00">sigmoid</text>
</g>
<!-- 128149 -->
<g id="node11" class="node">
<title>128149</title>
<ellipse fill="white" stroke="black" cx="377.01" cy="-236.29" rx="30.52" ry="30.52"/>
<text text-anchor="middle" x="377.01" y="-233.59" font-family="Times,serif" font-size="9.00">identity</text>
</g>
<!-- 63499&#45;&gt;128149 -->
<g id="edge59" class="edge">
<title>63499&#45;&gt;128149</title>
<path fill="none" stroke="green" stroke-width="0.56" d="M332.36,-232.91C333.66,-233.01 334.96,-233.11 336.27,-233.21"/>
<polygon fill="green" stroke="green" stroke-width="0.56" points="336.03,-236.7 346.26,-233.96 336.56,-229.72 336.03,-236.7"/>
<text text-anchor="middle" x="339.94" y="-234.56" font-family="Times,serif" font-size="5.00">2.280</text>
</g>
<!-- 125544 -->
<g id="node41" class="node">
<title>125544</title>
<ellipse fill="white" stroke="black" cx="319.39" cy="-312.77" rx="22.08" ry="22.08"/>
<ellipse fill="none" stroke="black" cx="319.39" cy="-312.77" rx="26.04" ry="26.04"/>
<text text-anchor="middle" x="319.39" y="-310.07" font-family="Times,serif" font-size="9.00">tanh</text>
</g>
<!-- 63499&#45;&gt;125544 -->
<g id="edge32" class="edge">
<title>63499&#45;&gt;125544</title>
<path fill="none" stroke="green" stroke-width="0.8" d="M307.49,-261.59C308.67,-266.69 309.91,-272.02 311.12,-277.22"/>
<polygon fill="green" stroke="green" stroke-width="0.8" points="307.72,-278.03 313.39,-286.98 314.54,-276.45 307.72,-278.03"/>
<text text-anchor="middle" x="303.68" y="-270.91" font-family="Times,serif" font-size="5.00">3.516</text>
</g>
<!-- 97278 -->
<g id="node48" class="node">
<title>97278</title>
<ellipse fill="white" stroke="black" cx="353.3" cy="-284.14" rx="30.52" ry="30.52"/>
<text text-anchor="middle" x="353.3" y="-281.44" font-family="Times,serif" font-size="9.00">identity</text>
</g>
<!-- 63499&#45;&gt;97278 -->
<g id="edge35" class="edge">
<title>63499&#45;&gt;97278</title>
<path fill="none" stroke="green" stroke-width="0.22" d="M322.75,-253.24C323.3,-253.79 323.85,-254.35 324.41,-254.91"/>
<polygon fill="green" stroke="green" stroke-width="0.22" points="322.09,-257.55 331.61,-262.2 327.07,-252.63 322.09,-257.55"/>
<text text-anchor="middle" x="329.2" y="-249.58" font-family="Times,serif" font-size="5.00">0.603</text>
</g>
<!-- 53004 -->
<g id="node7" class="node">
<title>53004</title>
<ellipse fill="white" stroke="black" cx="204.14" cy="-439.79" rx="31.65" ry="31.65"/>
<text text-anchor="middle" x="204.14" y="-437.09" font-family="Times,serif" font-size="9.00">sigmoid</text>
</g>
<!-- 125197 -->
<g id="node8" class="node">
<title>125197</title>
<ellipse fill="white" stroke="black" cx="184.17" cy="-280.47" rx="35.21" ry="35.21"/>
<ellipse fill="none" stroke="black" cx="184.17" cy="-280.47" rx="39.19" ry="39.19"/>
<text text-anchor="middle" x="184.17" y="-277.77" font-family="Times,serif" font-size="9.00">heaviside</text>
</g>
<!-- 110133 -->
<g id="node21" class="node">
<title>110133</title>
<ellipse fill="white" stroke="black" cx="174.18" cy="-375.73" rx="30.52" ry="30.52"/>
<text text-anchor="middle" x="174.18" y="-373.03" font-family="Times,serif" font-size="9.00">identity</text>
</g>
<!-- 125197&#45;&gt;110133 -->
<g id="edge31" class="edge">
<title>125197&#45;&gt;110133</title>
<path fill="none" stroke="green" stroke-width="0.19" stroke-dasharray="1,5" d="M180.05,-319.77C179.52,-324.76 178.99,-329.87 178.46,-334.89"/>
<polygon fill="green" stroke="green" stroke-width="0.19" points="174.97,-334.65 177.4,-344.96 181.93,-335.38 174.97,-334.65"/>
<text text-anchor="middle" x="184.88" y="-328.83" font-family="Times,serif" font-size="5.00">0.472</text>
</g>
<!-- 129213 -->
<g id="node26" class="node">
<title>129213</title>
<ellipse fill="white" stroke="black" cx="109" cy="-331.37" rx="31.65" ry="31.65"/>
<text text-anchor="middle" x="109" y="-328.67" font-family="Times,serif" font-size="9.00">sigmoid</text>
</g>
<!-- 125197&#45;&gt;129213 -->
<g id="edge64" class="edge">
<title>125197&#45;&gt;129213</title>
<path fill="none" stroke="red" stroke-width="0.26" stroke-dasharray="1,5" d="M151.42,-302.65C149.13,-304.2 146.82,-305.76 144.53,-307.32"/>
<polygon fill="red" stroke="red" stroke-width="0.26" points="142.1,-304.73 135.78,-313.24 146.03,-310.53 142.1,-304.73"/>
<text text-anchor="middle" x="141.51" y="-306.48" font-family="Times,serif" font-size="5.00">&#45;0.818</text>
</g>
<!-- 60516 -->
<g id="node36" class="node">
<title>60516</title>
<ellipse fill="white" stroke="black" cx="234.06" cy="-208.2" rx="22.08" ry="22.08"/>
<ellipse fill="none" stroke="black" cx="234.06" cy="-208.2" rx="26.04" ry="26.04"/>
<text text-anchor="middle" x="234.06" y="-205.5" font-family="Times,serif" font-size="9.00">tanh</text>
</g>
<!-- 125197&#45;&gt;60516 -->
<g id="edge61" class="edge">
<title>125197&#45;&gt;60516</title>
<path fill="none" stroke="red" stroke-width="0.61" d="M206.78,-247.72C208.91,-244.64 211.06,-241.52 213.17,-238.47"/>
<polygon fill="red" stroke="red" stroke-width="0.61" points="216.15,-240.3 218.96,-230.08 210.39,-236.32 216.15,-240.3"/>
<text text-anchor="middle" x="216.43" y="-238.59" font-family="Times,serif" font-size="5.00">&#45;2.550</text>
</g>
<!-- 119573 -->
<g id="node10" class="node">
<title>119573</title>
<ellipse fill="white" stroke="black" cx="148.57" cy="-158.59" rx="31.67" ry="31.67"/>
<ellipse fill="none" stroke="black" cx="148.57" cy="-158.59" rx="35.65" ry="35.65"/>
<text text-anchor="middle" x="148.57" y="-155.89" font-family="Times,serif" font-size="9.00">sigmoid</text>
</g>
<!-- 127521 -->
<g id="node15" class="node">
<title>127521</title>
<ellipse fill="white" stroke="black" cx="188.45" cy="-152.91" rx="22.04" ry="22.04"/>
<text text-anchor="middle" x="188.45" y="-150.21" font-family="Times,serif" font-size="9.00">tanh</text>
</g>
<!-- 119573&#45;&gt;127521 -->
<g id="edge47" class="edge">
<title>119573&#45;&gt;127521</title>
<path fill="none" stroke="red" stroke-width="0.85" d="M184.18,-153.52C184.27,-153.51 184.35,-153.49 184.43,-153.48"/>
<polygon fill="red" stroke="red" stroke-width="0.85" points="175.26,-158.33 184.66,-153.45 174.27,-151.4 175.26,-158.33"/>
<text text-anchor="middle" x="190.76" y="-155" font-family="Times,serif" font-size="5.00">&#45;3.773</text>
</g>
<!-- 119573&#45;&gt;60516 -->
<g id="edge16" class="edge">
<title>119573&#45;&gt;60516</title>
<path fill="none" stroke="green" stroke-width="1.55" stroke-dasharray="1,5" d="M176.17,-182.13C183.71,-186.87 191.97,-191.67 199.83,-195.87"/>
<polygon fill="green" stroke="green" stroke-width="1.55" points="198.31,-199.03 208.81,-200.49 201.52,-192.8 198.31,-199.03"/>
<text text-anchor="middle" x="193.62" y="-190.5" font-family="Times,serif" font-size="5.00">7.244</text>
</g>
<!-- 126070 -->
<g id="node44" class="node">
<title>126070</title>
<ellipse fill="white" stroke="black" cx="91.48" cy="-96.58" rx="31.65" ry="31.65"/>
<text text-anchor="middle" x="91.48" y="-93.88" font-family="Times,serif" font-size="9.00">sigmoid</text>
</g>
<!-- 119573&#45;&gt;126070 -->
<g id="edge58" class="edge">
<title>119573&#45;&gt;126070</title>
<path fill="none" stroke="green" stroke-width="0.95" stroke-dasharray="1,5" d="M124.03,-131.93C122.67,-130.46 121.3,-128.96 119.93,-127.47"/>
<polygon fill="green" stroke="green" stroke-width="0.95" points="122.47,-125.08 113.13,-120.09 117.32,-129.82 122.47,-125.08"/>
<text text-anchor="middle" x="116.35" y="-131.2" font-family="Times,serif" font-size="5.00">4.254</text>
</g>
<!-- 128149&#45;&gt;125544 -->
<g id="edge60" class="edge">
<title>128149&#45;&gt;125544</title>
<path fill="none" stroke="red" stroke-width="0.2" stroke-dasharray="1,5" d="M358.46,-260.91C353.12,-268 347.23,-275.81 341.69,-283.17"/>
<polygon fill="red" stroke="red" stroke-width="0.2" points="338.61,-281.45 335.39,-291.54 344.2,-285.66 338.61,-281.45"/>
<text text-anchor="middle" x="356.53" y="-273.54" font-family="Times,serif" font-size="5.00">&#45;0.490</text>
</g>
<!-- 122529 -->
<g id="node12" class="node">
<title>122529</title>
<ellipse fill="white" stroke="black" cx="161.61" cy="-249.8" rx="35.21" ry="35.21"/>
<ellipse fill="none" stroke="black" cx="161.61" cy="-249.8" rx="39.19" ry="39.19"/>
<text text-anchor="middle" x="161.61" y="-247.1" font-family="Times,serif" font-size="9.00">heaviside</text>
</g>
<!-- 122529&#45;&gt;60516 -->
<g id="edge20" class="edge">
<title>122529&#45;&gt;60516</title>
<path fill="none" stroke="green" stroke-width="0.1" stroke-dasharray="1,5" d="M196.14,-229.97C198.21,-228.78 200.29,-227.59 202.35,-226.4"/>
<polygon fill="green" stroke="green" stroke-width="0.1" points="204.24,-229.35 211.17,-221.34 200.76,-223.28 204.24,-229.35"/>
<text text-anchor="middle" x="202.06" y="-223.69" font-family="Times,serif" font-size="5.00">0.023</text>
</g>
<!-- 104610 -->
<g id="node13" class="node">
<title>104610</title>
<ellipse fill="white" stroke="black" cx="286.46" cy="-268.4" rx="35.21" ry="35.21"/>
<ellipse fill="none" stroke="black" cx="286.46" cy="-268.4" rx="39.19" ry="39.19"/>
<text text-anchor="middle" x="286.46" y="-265.7" font-family="Times,serif" font-size="9.00">heaviside</text>
</g>
<!-- 104610&#45;&gt;60516 -->
<g id="edge21" class="edge">
<title>104610&#45;&gt;60516</title>
<path fill="none" stroke="red" stroke-width="0.13" d="M260.57,-238.65C259.79,-237.76 259.02,-236.87 258.25,-235.98"/>
<polygon fill="red" stroke="red" stroke-width="0.13" points="260.64,-233.41 251.44,-228.16 255.36,-238 260.64,-233.41"/>
<text text-anchor="middle" x="252.95" y="-238.82" font-family="Times,serif" font-size="5.00">&#45;0.167</text>
</g>
<!-- 23459 -->
<g id="node14" class="node">
<title>23459</title>
<ellipse fill="white" stroke="black" cx="39.35" cy="-39.35" rx="35.21" ry="35.21"/>
<ellipse fill="none" stroke="black" cx="39.35" cy="-39.35" rx="39.19" ry="39.19"/>
<text text-anchor="middle" x="39.35" y="-36.65" font-family="Times,serif" font-size="9.00">heaviside</text>
</g>
<!-- 23459&#45;&gt;126070 -->
<g id="edge40" class="edge">
<title>23459&#45;&gt;126070</title>
<path fill="none" stroke="red" stroke-width="0.58" stroke-dasharray="1,5" d="M66.03,-68.63C66.11,-68.72 66.19,-68.81 66.27,-68.9"/>
<polygon fill="red" stroke="red" stroke-width="0.58" points="60.59,-67.87 69.91,-72.9 65.77,-63.15 60.59,-67.87"/>
<text text-anchor="middle" x="72.6" y="-64.27" font-family="Times,serif" font-size="5.00">&#45;2.401</text>
</g>
<!-- 128079 -->
<g id="node29" class="node">
<title>128079</title>
<ellipse fill="white" stroke="black" cx="237.1" cy="-157.41" rx="30.55" ry="30.55"/>
<ellipse fill="none" stroke="black" cx="237.1" cy="-157.41" rx="34.52" ry="34.52"/>
<text text-anchor="middle" x="237.1" y="-154.71" font-family="Times,serif" font-size="9.00">identity</text>
</g>
<!-- 127521&#45;&gt;128079 -->
<g id="edge56" class="edge">
<title>127521&#45;&gt;128079</title>
<path fill="none" stroke="green" stroke-width="0.48" d="M210.78,-154.98C210.83,-154.98 210.88,-154.98 210.93,-154.99"/>
<polygon fill="green" stroke="green" stroke-width="0.48" points="200.8,-157.56 211.08,-155 201.45,-150.59 200.8,-157.56"/>
<text text-anchor="middle" x="216.48" y="-156.48" font-family="Times,serif" font-size="5.00">1.906</text>
</g>
<!-- 127521&#45;&gt;60516 -->
<g id="edge48" class="edge">
<title>127521&#45;&gt;60516</title>
<path fill="none" stroke="red" stroke-width="0.35" stroke-dasharray="1,5" d="M202.63,-170.1C205.22,-173.24 207.98,-176.59 210.76,-179.95"/>
<polygon fill="red" stroke="red" stroke-width="0.35" points="208.1,-182.23 217.17,-187.72 213.5,-177.78 208.1,-182.23"/>
<text text-anchor="middle" x="200.24" y="-176.52" font-family="Times,serif" font-size="5.00">&#45;1.237</text>
</g>
<!-- 99955 -->
<g id="node43" class="node">
<title>99955</title>
<ellipse fill="white" stroke="black" cx="227.51" cy="-122.14" rx="22.04" ry="22.04"/>
<text text-anchor="middle" x="227.51" y="-119.44" font-family="Times,serif" font-size="9.00">tanh</text>
</g>
<!-- 127521&#45;&gt;99955 -->
<g id="edge69" class="edge">
<title>127521&#45;&gt;99955</title>
<path fill="none" stroke="green" stroke-width="0.68" stroke-dasharray="1,5" d="M206.15,-138.97C206.29,-138.86 206.43,-138.74 206.58,-138.63"/>
<polygon fill="green" stroke="green" stroke-width="0.68" points="203.86,-145.23 209.55,-136.29 199.53,-139.73 203.86,-145.23"/>
<text text-anchor="middle" x="200.74" y="-140.3" font-family="Times,serif" font-size="5.00">2.897</text>
</g>
<!-- 125739 -->
<g id="node16" class="node">
<title>125739</title>
<ellipse fill="white" stroke="black" cx="445.79" cy="-363.97" rx="35.21" ry="35.21"/>
<ellipse fill="none" stroke="black" cx="445.79" cy="-363.97" rx="39.19" ry="39.19"/>
<text text-anchor="middle" x="445.79" y="-361.27" font-family="Times,serif" font-size="9.00">heaviside</text>
</g>
<!-- 127659 -->
<g id="node17" class="node">
<title>127659</title>
<ellipse fill="white" stroke="black" cx="278.78" cy="-48.7" rx="30.52" ry="30.52"/>
<text text-anchor="middle" x="278.78" y="-46" font-family="Times,serif" font-size="9.00">identity</text>
</g>
<!-- 126000 -->
<g id="node19" class="node">
<title>126000</title>
<ellipse fill="white" stroke="black" cx="265.8" cy="-117.76" rx="22.08" ry="22.08"/>
<ellipse fill="none" stroke="black" cx="265.8" cy="-117.76" rx="26.04" ry="26.04"/>
<text text-anchor="middle" x="265.8" y="-115.06" font-family="Times,serif" font-size="9.00">tanh</text>
</g>
<!-- 127659&#45;&gt;126000 -->
<g id="edge53" class="edge">
<title>127659&#45;&gt;126000</title>
<path fill="none" stroke="red" stroke-width="0.28" stroke-dasharray="1,5" d="M273.05,-79.19C272.9,-79.98 272.75,-80.77 272.61,-81.56"/>
<polygon fill="red" stroke="red" stroke-width="0.28" points="269.1,-81.28 270.69,-91.76 275.97,-82.58 269.1,-81.28"/>
<text text-anchor="middle" x="266.37" y="-81.88" font-family="Times,serif" font-size="5.00">&#45;0.909</text>
</g>
<!-- 105389 -->
<g id="node18" class="node">
<title>105389</title>
<ellipse fill="white" stroke="black" cx="302.42" cy="-433.64" rx="22.08" ry="22.08"/>
<ellipse fill="none" stroke="black" cx="302.42" cy="-433.64" rx="26.04" ry="26.04"/>
<text text-anchor="middle" x="302.42" y="-430.94" font-family="Times,serif" font-size="9.00">tanh</text>
</g>
<!-- 105389&#45;&gt;53004 -->
<g id="edge49" class="edge">
<title>105389&#45;&gt;53004</title>
<path fill="none" stroke="red" stroke-width="0.24" stroke-dasharray="1,5" d="M276.08,-435.29C266.97,-435.86 256.51,-436.51 246.44,-437.14"/>
<polygon fill="red" stroke="red" stroke-width="0.24" points="245.92,-433.67 236.16,-437.78 246.36,-440.65 245.92,-433.67"/>
<text text-anchor="middle" x="254.8" y="-437.71" font-family="Times,serif" font-size="5.00">&#45;0.702</text>
</g>
<!-- 126000&#45;&gt;60516 -->
<g id="edge39" class="edge">
<title>126000&#45;&gt;60516</title>
<path fill="none" stroke="green" stroke-width="0.51" stroke-dasharray="1,5" d="M256.96,-142.95C253.62,-152.46 249.77,-163.44 246.18,-173.66"/>
<polygon fill="green" stroke="green" stroke-width="0.51" points="242.86,-172.55 242.85,-183.14 249.47,-174.86 242.86,-172.55"/>
<text text-anchor="middle" x="245.94" y="-159.81" font-family="Times,serif" font-size="5.00">2.046</text>
</g>
<!-- 111284 -->
<g id="node20" class="node">
<title>111284</title>
<ellipse fill="white" stroke="black" cx="253.36" cy="-384.13" rx="22.08" ry="22.08"/>
<ellipse fill="none" stroke="black" cx="253.36" cy="-384.13" rx="26.04" ry="26.04"/>
<text text-anchor="middle" x="253.36" y="-381.43" font-family="Times,serif" font-size="9.00">tanh</text>
</g>
<!-- 110133&#45;&gt;53004 -->
<g id="edge17" class="edge">
<title>110133&#45;&gt;53004</title>
<path fill="none" stroke="red" stroke-width="0.57" d="M187.23,-403.64C187.3,-403.79 187.37,-403.94 187.45,-404.1"/>
<polygon fill="red" stroke="red" stroke-width="0.57" points="183.25,-403.39 190.66,-410.96 189.59,-400.42 183.25,-403.39"/>
<text text-anchor="middle" x="180.88" y="-405.37" font-family="Times,serif" font-size="5.00">&#45;2.337</text>
</g>
<!-- 110133&#45;&gt;111284 -->
<g id="edge42" class="edge">
<title>110133&#45;&gt;111284</title>
<path fill="none" stroke="green" stroke-width="0.8" stroke-dasharray="1,5" d="M205.02,-379C208.89,-379.41 212.88,-379.84 216.84,-380.25"/>
<polygon fill="green" stroke="green" stroke-width="0.8" points="216.78,-383.77 227.09,-381.34 217.52,-376.81 216.78,-383.77"/>
<text text-anchor="middle" x="216.55" y="-381.13" font-family="Times,serif" font-size="5.00">3.509</text>
</g>
<!-- 127800 -->
<g id="node24" class="node">
<title>127800</title>
<ellipse fill="white" stroke="black" cx="147.77" cy="-440.84" rx="31.65" ry="31.65"/>
<text text-anchor="middle" x="147.77" y="-438.14" font-family="Times,serif" font-size="9.00">sigmoid</text>
</g>
<!-- 110133&#45;&gt;127800 -->
<g id="edge54" class="edge">
<title>110133&#45;&gt;127800</title>
<path fill="none" stroke="green" stroke-width="0.17" d="M162.52,-404.48C162.46,-404.61 162.41,-404.75 162.35,-404.88"/>
<polygon fill="green" stroke="green" stroke-width="0.17" points="160.37,-400.46 159.85,-411.05 166.85,-403.09 160.37,-400.46"/>
<text text-anchor="middle" x="156.81" y="-406.18" font-family="Times,serif" font-size="5.00">0.344</text>
</g>
<!-- 87862 -->
<g id="node22" class="node">
<title>87862</title>
<ellipse fill="white" stroke="black" cx="324.78" cy="-510.49" rx="22.04" ry="22.04"/>
<text text-anchor="middle" x="324.78" y="-507.79" font-family="Times,serif" font-size="9.00">tanh</text>
</g>
<!-- 87862&#45;&gt;105389 -->
<g id="edge12" class="edge">
<title>87862&#45;&gt;105389</title>
<path fill="none" stroke="green" stroke-width="0.41" stroke-dasharray="1,5" d="M318.55,-489.09C316.73,-482.82 314.68,-475.79 312.68,-468.91"/>
<polygon fill="green" stroke="green" stroke-width="0.41" points="315.96,-467.64 309.8,-459.02 309.24,-469.6 315.96,-467.64"/>
<text text-anchor="middle" x="309.99" y="-480.5" font-family="Times,serif" font-size="5.00">1.538</text>
</g>
<!-- 127460 -->
<g id="node37" class="node">
<title>127460</title>
<ellipse fill="white" stroke="black" cx="368.76" cy="-490.38" rx="22.08" ry="22.08"/>
<ellipse fill="none" stroke="black" cx="368.76" cy="-490.38" rx="26.04" ry="26.04"/>
<text text-anchor="middle" x="368.76" y="-487.68" font-family="Times,serif" font-size="9.00">tanh</text>
</g>
<!-- 87862&#45;&gt;127460 -->
<g id="edge45" class="edge">
<title>87862&#45;&gt;127460</title>
<path fill="none" stroke="green" stroke-width="0.44" stroke-dasharray="1,5" d="M345.23,-501.14C345.27,-501.12 345.32,-501.1 345.36,-501.08"/>
<polygon fill="green" stroke="green" stroke-width="0.44" points="337.86,-508.37 345.49,-501.02 334.94,-502 337.86,-508.37"/>
<text text-anchor="middle" x="350.92" y="-502.61" font-family="Times,serif" font-size="5.00">1.692</text>
</g>
<!-- 129149 -->
<g id="node23" class="node">
<title>129149</title>
<ellipse fill="white" stroke="black" cx="115.56" cy="-268.21" rx="31.65" ry="31.65"/>
<text text-anchor="middle" x="115.56" y="-265.51" font-family="Times,serif" font-size="9.00">sigmoid</text>
</g>
<!-- 129149&#45;&gt;125197 -->
<g id="edge63" class="edge">
<title>129149&#45;&gt;125197</title>
<path fill="none" stroke="green" stroke-width="0.15" stroke-dasharray="1,5" d="M147.05,-273.84C147.12,-273.85 147.19,-273.86 147.27,-273.88"/>
<polygon fill="green" stroke="green" stroke-width="0.15" points="137.02,-275.59 147.48,-273.91 138.25,-268.7 137.02,-275.59"/>
<text text-anchor="middle" x="152.78" y="-275.36" font-family="Times,serif" font-size="5.00">0.264</text>
</g>
<!-- 127800&#45;&gt;53004 -->
<g id="edge55" class="edge">
<title>127800&#45;&gt;53004</title>
<path fill="none" stroke="green" stroke-width="0.91" stroke-dasharray="1,5" d="M179.91,-440.24C179.96,-440.24 180.01,-440.24 180.06,-440.24"/>
<polygon fill="green" stroke="green" stroke-width="0.91" points="170.27,-443.93 180.2,-440.23 170.14,-436.93 170.27,-443.93"/>
<text text-anchor="middle" x="185.61" y="-441.74" font-family="Times,serif" font-size="5.00">4.056</text>
</g>
<!-- 124477 -->
<g id="node25" class="node">
<title>124477</title>
<ellipse fill="white" stroke="black" cx="81.05" cy="-288.94" rx="35.19" ry="35.19"/>
<text text-anchor="middle" x="81.05" y="-286.24" font-family="Times,serif" font-size="9.00">heaviside</text>
</g>
<!-- 124477&#45;&gt;122529 -->
<g id="edge25" class="edge">
<title>124477&#45;&gt;122529</title>
<path fill="none" stroke="red" stroke-width="0.27" stroke-dasharray="1,5" d="M112.89,-273.47C114.24,-272.81 115.6,-272.15 116.96,-271.49"/>
<polygon fill="red" stroke="red" stroke-width="0.27" points="118.55,-274.61 126.01,-267.09 115.49,-268.31 118.55,-274.61"/>
<text text-anchor="middle" x="108.47" y="-273.98" font-family="Times,serif" font-size="5.00">&#45;0.856</text>
</g>
<!-- 129213&#45;&gt;110133 -->
<g id="edge65" class="edge">
<title>129213&#45;&gt;110133</title>
<path fill="none" stroke="green" stroke-width="0.37" stroke-dasharray="1,5" d="M135.51,-349.41C137.15,-350.53 138.81,-351.66 140.47,-352.79"/>
<polygon fill="green" stroke="green" stroke-width="0.37" points="138.51,-355.69 148.74,-358.42 142.45,-349.9 138.51,-355.69"/>
<text text-anchor="middle" x="132.37" y="-352.6" font-family="Times,serif" font-size="5.00">1.375</text>
</g>
<!-- 130276 -->
<g id="node38" class="node">
<title>130276</title>
<ellipse fill="white" stroke="black" cx="80.24" cy="-393.55" rx="35.19" ry="35.19"/>
<text text-anchor="middle" x="80.24" y="-390.85" font-family="Times,serif" font-size="9.00">heaviside</text>
</g>
<!-- 129213&#45;&gt;130276 -->
<g id="edge67" class="edge">
<title>129213&#45;&gt;130276</title>
<path fill="none" stroke="green" stroke-width="0.3" d="M95.63,-360.28C95.59,-360.37 95.54,-360.47 95.5,-360.56"/>
<polygon fill="green" stroke="green" stroke-width="0.3" points="96.13,-350.87 95.1,-361.42 102.48,-353.81 96.13,-350.87"/>
<text text-anchor="middle" x="89.94" y="-355.92" font-family="Times,serif" font-size="5.00">1.000</text>
</g>
<!-- 124607 -->
<g id="node27" class="node">
<title>124607</title>
<ellipse fill="white" stroke="black" cx="352.65" cy="-403.46" rx="35.21" ry="35.21"/>
<ellipse fill="none" stroke="black" cx="352.65" cy="-403.46" rx="39.19" ry="39.19"/>
<text text-anchor="middle" x="352.65" y="-400.76" font-family="Times,serif" font-size="9.00">heaviside</text>
</g>
<!-- 124607&#45;&gt;105389 -->
<g id="edge28" class="edge">
<title>124607&#45;&gt;105389</title>
<path fill="none" stroke="red" stroke-width="0.25" d="M318.87,-423.76C318.79,-423.8 318.72,-423.84 318.65,-423.88"/>
<polygon fill="red" stroke="red" stroke-width="0.25" points="325.21,-415.86 318.44,-424.01 328.82,-421.86 325.21,-415.86"/>
<text text-anchor="middle" x="312.3" y="-425.32" font-family="Times,serif" font-size="5.00">&#45;0.746</text>
</g>
<!-- 87622 -->
<g id="node28" class="node">
<title>87622</title>
<ellipse fill="white" stroke="black" cx="165.9" cy="-522.81" rx="31.65" ry="31.65"/>
<text text-anchor="middle" x="165.9" y="-520.11" font-family="Times,serif" font-size="9.00">sigmoid</text>
</g>
<!-- 87622&#45;&gt;53004 -->
<g id="edge7" class="edge">
<title>87622&#45;&gt;53004</title>
<path fill="none" stroke="red" stroke-width="0.44" d="M179.27,-493.77C181.59,-488.74 184.03,-483.45 186.44,-478.22"/>
<polygon fill="red" stroke="red" stroke-width="0.44" points="189.7,-479.49 190.71,-468.95 183.35,-476.57 189.7,-479.49"/>
<text text-anchor="middle" x="176.4" y="-481.49" font-family="Times,serif" font-size="5.00">&#45;1.707</text>
</g>
<!-- 128079&#45;&gt;60516 -->
<g id="edge57" class="edge">
<title>128079&#45;&gt;60516</title>
<path fill="none" stroke="red" stroke-width="0.46" d="M235.02,-192.13C235.02,-192.2 235.01,-192.27 235.01,-192.34"/>
<polygon fill="red" stroke="red" stroke-width="0.46" points="232.1,-182.35 235,-192.54 239.09,-182.77 232.1,-182.35"/>
<text text-anchor="middle" x="241.47" y="-193.73" font-family="Times,serif" font-size="5.00">&#45;1.786</text>
</g>
<!-- 111827 -->
<g id="node30" class="node">
<title>111827</title>
<ellipse fill="white" stroke="black" cx="292.1" cy="-359.6" rx="30.52" ry="30.52"/>
<text text-anchor="middle" x="292.1" y="-356.9" font-family="Times,serif" font-size="9.00">identity</text>
</g>
<!-- 111827&#45;&gt;124607 -->
<g id="edge70" class="edge">
<title>111827&#45;&gt;124607</title>
<path fill="none" stroke="green" stroke-width="0.25" d="M317.08,-377.69C317.23,-377.8 317.38,-377.91 317.52,-378.01"/>
<polygon fill="green" stroke="green" stroke-width="0.25" points="310.47,-377.23 320.63,-380.26 314.58,-371.56 310.47,-377.23"/>
<text text-anchor="middle" x="311.68" y="-379.35" font-family="Times,serif" font-size="5.00">0.730</text>
</g>
<!-- 111703 -->
<g id="node31" class="node">
<title>111703</title>
<ellipse fill="white" stroke="black" cx="523.23" cy="-381.36" rx="22.08" ry="22.08"/>
<ellipse fill="none" stroke="black" cx="523.23" cy="-381.36" rx="26.04" ry="26.04"/>
<text text-anchor="middle" x="523.23" y="-378.66" font-family="Times,serif" font-size="9.00">tanh</text>
</g>
<!-- 111703&#45;&gt;125739 -->
<g id="edge36" class="edge">
<title>111703&#45;&gt;125739</title>
<path fill="none" stroke="green" stroke-width="0.44" d="M497.44,-375.57C496.39,-375.33 495.32,-375.09 494.23,-374.85"/>
<polygon fill="green" stroke="green" stroke-width="0.44" points="494.83,-371.4 484.31,-372.62 493.3,-378.23 494.83,-371.4"/>
<text text-anchor="middle" x="490.21" y="-376.71" font-family="Times,serif" font-size="5.00">1.717</text>
</g>
<!-- 124252 -->
<g id="node32" class="node">
<title>124252</title>
<ellipse fill="white" stroke="black" cx="81.38" cy="-552.82" rx="22.04" ry="22.04"/>
<text text-anchor="middle" x="81.38" y="-550.12" font-family="Times,serif" font-size="9.00">tanh</text>
</g>
<!-- 124252&#45;&gt;87622 -->
<g id="edge23" class="edge">
<title>124252&#45;&gt;87622</title>
<path fill="none" stroke="green" stroke-width="0.56" d="M102.71,-545.24C109.8,-542.73 117.95,-539.83 125.98,-536.98"/>
<polygon fill="green" stroke="green" stroke-width="0.56" points="127.39,-540.19 135.64,-533.55 125.04,-533.6 127.39,-540.19"/>
<text text-anchor="middle" x="108.72" y="-542.61" font-family="Times,serif" font-size="5.00">2.313</text>
</g>
<!-- 91486&#45;&gt;104610 -->
<g id="edge10" class="edge">
<title>91486&#45;&gt;104610</title>
<path fill="none" stroke="red" stroke-width="0.21" stroke-dasharray="1,5" d="M344.81,-327.54C337.91,-320.55 329.52,-312.04 321.27,-303.69"/>
<polygon fill="red" stroke="red" stroke-width="0.21" points="323.62,-301.08 314.1,-296.42 318.64,-306 323.62,-301.08"/>
<text text-anchor="middle" x="339.5" y="-317.11" font-family="Times,serif" font-size="5.00">&#45;0.571</text>
</g>
<!-- 91486&#45;&gt;125739 -->
<g id="edge41" class="edge">
<title>91486&#45;&gt;125739</title>
<path fill="none" stroke="green" stroke-width="0.49" stroke-dasharray="1,5" d="M382.47,-348.74C387.1,-349.86 392.16,-351.07 397.34,-352.32"/>
<polygon fill="green" stroke="green" stroke-width="0.49" points="396.82,-355.79 407.36,-354.73 398.45,-348.99 396.82,-355.79"/>
<text text-anchor="middle" x="395.53" y="-352.03" font-family="Times,serif" font-size="5.00">1.932</text>
</g>
<!-- 91486&#45;&gt;105389 -->
<g id="edge11" class="edge">
<title>91486&#45;&gt;105389</title>
<path fill="none" stroke="green" stroke-width="0.11" d="M348.19,-362.58C340.65,-374.29 330.83,-389.54 322.22,-402.9"/>
<polygon fill="green" stroke="green" stroke-width="0.11" points="319.24,-401.06 316.77,-411.36 325.13,-404.85 319.24,-401.06"/>
<text text-anchor="middle" x="340.83" y="-384.24" font-family="Times,serif" font-size="5.00">0.072</text>
</g>
<!-- 91486&#45;&gt;124607 -->
<g id="edge27" class="edge">
<title>91486&#45;&gt;124607</title>
<path fill="none" stroke="red" stroke-width="0.44" d="M357.59,-365.8C357.58,-365.87 357.57,-365.94 357.56,-366"/>
<polygon fill="red" stroke="red" stroke-width="0.44" points="355.37,-355.83 357.53,-366.2 362.31,-356.74 355.37,-355.83"/>
<text text-anchor="middle" x="351.12" y="-367.4" font-family="Times,serif" font-size="5.00">&#45;1.709</text>
</g>
<!-- 3554&#45;&gt;0 -->
<g id="edge4" class="edge">
<title>3554&#45;&gt;0</title>
<path fill="none" stroke="red" stroke-width="0.51" d="M357.38,-184.68C365.23,-184.86 373.85,-185.06 381.83,-185.24"/>
<polygon fill="red" stroke="red" stroke-width="0.51" points="381.76,-188.74 391.84,-185.47 381.92,-181.75 381.76,-188.74"/>
<text text-anchor="middle" x="363.15" y="-186.46" font-family="Times,serif" font-size="5.00">&#45;2.066</text>
</g>
<!-- 3554&#45;&gt;60516 -->
<g id="edge37" class="edge">
<title>3554&#45;&gt;60516</title>
<path fill="none" stroke="green" stroke-width="0.21" d="M305.06,-190.47C294.25,-193.17 281.48,-196.36 269.77,-199.28"/>
<polygon fill="green" stroke="green" stroke-width="0.21" points="268.68,-195.95 259.83,-201.76 270.38,-202.74 268.68,-195.95"/>
<text text-anchor="middle" x="281.79" y="-190.38" font-family="Times,serif" font-size="5.00">0.550</text>
</g>
<!-- 121827 -->
<g id="node35" class="node">
<title>121827</title>
<ellipse fill="white" stroke="black" cx="142.36" cy="-351.64" rx="35.19" ry="35.19"/>
<text text-anchor="middle" x="142.36" y="-348.94" font-family="Times,serif" font-size="9.00">heaviside</text>
</g>
<!-- 121827&#45;&gt;53004 -->
<g id="edge66" class="edge">
<title>121827&#45;&gt;53004</title>
<path fill="none" stroke="red" stroke-width="0.4" stroke-dasharray="1,5" d="M162.93,-380.99C168.35,-388.72 174.24,-397.12 179.83,-405.1"/>
<polygon fill="red" stroke="red" stroke-width="0.4" points="177.13,-407.35 185.74,-413.53 182.87,-403.33 177.13,-407.35"/>
<text text-anchor="middle" x="164.92" y="-394.55" font-family="Times,serif" font-size="5.00">&#45;1.524</text>
</g>
<!-- 121827&#45;&gt;122529 -->
<g id="edge19" class="edge">
<title>121827&#45;&gt;122529</title>
<path fill="none" stroke="red" stroke-width="0.42" stroke-dasharray="1,5" d="M148.93,-316.88C150.03,-311.05 151.2,-304.9 152.35,-298.79"/>
<polygon fill="red" stroke="red" stroke-width="0.42" points="155.86,-299.07 154.28,-288.6 148.98,-297.77 155.86,-299.07"/>
<text text-anchor="middle" x="157.1" y="-309.33" font-family="Times,serif" font-size="5.00">&#45;1.585</text>
</g>
<!-- 121827&#45;&gt;124477 -->
<g id="edge24" class="edge">
<title>121827&#45;&gt;124477</title>
<path fill="none" stroke="green" stroke-width="0.33" d="M117.42,-326.14C115.98,-324.66 114.52,-323.17 113.06,-321.67"/>
<polygon fill="green" stroke="green" stroke-width="0.33" points="115.26,-318.92 105.77,-314.22 110.25,-323.81 115.26,-318.92"/>
<text text-anchor="middle" x="109.62" y="-325.41" font-family="Times,serif" font-size="5.00">1.128</text>
</g>
<!-- 60516&#45;&gt;63499 -->
<g id="edge22" class="edge">
<title>60516&#45;&gt;63499</title>
<path fill="none" stroke="red" stroke-width="0.34" d="M259.08,-216.62C259.41,-216.73 259.74,-216.84 260.08,-216.96"/>
<polygon fill="red" stroke="red" stroke-width="0.34" points="259.25,-220.37 269.84,-220.24 261.48,-213.74 259.25,-220.37"/>
<text text-anchor="middle" x="266.04" y="-218.29" font-family="Times,serif" font-size="5.00">&#45;1.189</text>
</g>
<!-- 60516&#45;&gt;119573 -->
<g id="edge33" class="edge">
<title>60516&#45;&gt;119573</title>
<path fill="none" stroke="red" stroke-width="0.45" d="M214.62,-189.95C207.64,-185.25 199.47,-180.24 191.31,-175.61"/>
<polygon fill="red" stroke="red" stroke-width="0.45" points="192.95,-172.52 182.5,-170.76 189.58,-178.65 192.95,-172.52"/>
<text text-anchor="middle" x="196.51" y="-184.28" font-family="Times,serif" font-size="5.00">&#45;1.750</text>
</g>
<!-- 127460&#45;&gt;105389 -->
<g id="edge46" class="edge">
<title>127460&#45;&gt;105389</title>
<path fill="none" stroke="red" stroke-width="0.19" stroke-dasharray="1,5" d="M348.49,-473.05C342.83,-468.21 336.58,-462.86 330.56,-457.71"/>
<polygon fill="red" stroke="red" stroke-width="0.19" points="332.43,-454.7 322.56,-450.86 327.88,-460.02 332.43,-454.7"/>
<text text-anchor="middle" x="333.07" y="-466.88" font-family="Times,serif" font-size="5.00">&#45;0.470</text>
</g>
<!-- 130276&#45;&gt;110133 -->
<g id="edge68" class="edge">
<title>130276&#45;&gt;110133</title>
<path fill="none" stroke="green" stroke-width="0.3" d="M115.22,-386.91C121.24,-385.77 127.53,-384.58 133.68,-383.41"/>
<polygon fill="green" stroke="green" stroke-width="0.3" points="134.63,-386.79 143.8,-381.49 133.32,-379.92 134.63,-386.79"/>
<text text-anchor="middle" x="130.07" y="-386.66" font-family="Times,serif" font-size="5.00">1.013</text>
</g>
<!-- 125671 -->
<g id="node39" class="node">
<title>125671</title>
<ellipse fill="white" stroke="black" cx="199.36" cy="-600.3" rx="35.21" ry="35.21"/>
<ellipse fill="none" stroke="black" cx="199.36" cy="-600.3" rx="39.19" ry="39.19"/>
<text text-anchor="middle" x="199.36" y="-597.6" font-family="Times,serif" font-size="9.00">heaviside</text>
</g>
<!-- 125671&#45;&gt;87622 -->
<g id="edge34" class="edge">
<title>125671&#45;&gt;87622</title>
<path fill="none" stroke="green" stroke-width="0.12" stroke-dasharray="1,5" d="M183.61,-563.82C183.29,-563.09 182.97,-562.35 182.65,-561.61"/>
<polygon fill="green" stroke="green" stroke-width="0.12" points="185.73,-559.91 178.55,-552.11 179.3,-562.68 185.73,-559.91"/>
<text text-anchor="middle" x="188.76" y="-558.22" font-family="Times,serif" font-size="5.00">0.082</text>
</g>
<!-- 122984 -->
<g id="node40" class="node">
<title>122984</title>
<ellipse fill="white" stroke="black" cx="579.35" cy="-273.35" rx="35.19" ry="35.19"/>
<text text-anchor="middle" x="579.35" y="-270.65" font-family="Times,serif" font-size="9.00">heaviside</text>
</g>
<!-- 125544&#45;&gt;111284 -->
<g id="edge51" class="edge">
<title>125544&#45;&gt;111284</title>
<path fill="none" stroke="green" stroke-width="0.67" stroke-dasharray="1,5" d="M301.35,-332.27C294.21,-339.98 285.9,-348.97 278.21,-357.27"/>
<polygon fill="green" stroke="green" stroke-width="0.67" points="275.6,-354.94 271.38,-364.65 280.74,-359.69 275.6,-354.94"/>
<text text-anchor="middle" x="284.15" y="-340.27" font-family="Times,serif" font-size="5.00">2.834</text>
</g>
<!-- 125544&#45;&gt;91486 -->
<g id="edge43" class="edge">
<title>125544&#45;&gt;91486</title>
<path fill="none" stroke="green" stroke-width="0.24" stroke-dasharray="1,5" d="M340.91,-328.83C341.03,-328.92 341.15,-329.01 341.26,-329.09"/>
<polygon fill="green" stroke="green" stroke-width="0.24" points="332.2,-326.7 342.31,-329.88 336.39,-321.09 332.2,-326.7"/>
<text text-anchor="middle" x="346.71" y="-330.46" font-family="Times,serif" font-size="5.00">0.711</text>
</g>
<!-- 127592 -->
<g id="node42" class="node">
<title>127592</title>
<ellipse fill="white" stroke="black" cx="487.87" cy="-510.76" rx="30.55" ry="30.55"/>
<ellipse fill="none" stroke="black" cx="487.87" cy="-510.76" rx="34.52" ry="34.52"/>
<text text-anchor="middle" x="487.87" y="-508.06" font-family="Times,serif" font-size="9.00">identity</text>
</g>
<!-- 127592&#45;&gt;55952 -->
<g id="edge50" class="edge">
<title>127592&#45;&gt;55952</title>
<path fill="none" stroke="red" stroke-width="0.23" d="M476.24,-543.64C475.72,-545.13 475.19,-546.62 474.67,-548.1"/>
<polygon fill="red" stroke="red" stroke-width="0.23" points="471.32,-547.06 471.29,-557.66 477.92,-549.39 471.32,-547.06"/>
<text text-anchor="middle" x="469" y="-547.37" font-family="Times,serif" font-size="5.00">&#45;0.645</text>
</g>
<!-- 99955&#45;&gt;127659 -->
<g id="edge52" class="edge">
<title>99955&#45;&gt;127659</title>
<path fill="none" stroke="green" stroke-width="0.11" stroke-dasharray="1,5" d="M240.45,-103.61C244.93,-97.2 250.09,-89.79 255.16,-82.54"/>
<polygon fill="green" stroke="green" stroke-width="0.11" points="258.15,-84.37 261.01,-74.16 252.41,-80.36 258.15,-84.37"/>
<text text-anchor="middle" x="242.18" y="-88.57" font-family="Times,serif" font-size="5.00">0.064</text>
</g>
<!-- 99955&#45;&gt;126000 -->
<g id="edge38" class="edge">
<title>99955&#45;&gt;126000</title>
<path fill="none" stroke="red" stroke-width="0.35" stroke-dasharray="1,5" d="M249.78,-119.6C249.85,-119.59 249.91,-119.58 249.98,-119.57"/>
<polygon fill="red" stroke="red" stroke-width="0.35" points="240.64,-124.17 250.18,-119.55 239.84,-117.21 240.64,-124.17"/>
<text text-anchor="middle" x="256.34" y="-115.08" font-family="Times,serif" font-size="5.00">&#45;1.248</text>
</g>
<!-- 99955&#45;&gt;60516 -->
<g id="edge13" class="edge">
<title>99955&#45;&gt;60516</title>
<path fill="none" stroke="green" stroke-width="1.5" d="M229.23,-144.75C229.86,-153 230.59,-162.55 231.28,-171.7"/>
<polygon fill="green" stroke="green" stroke-width="1.5" points="227.8,-172.06 232.05,-181.77 234.78,-171.53 227.8,-172.06"/>
<text text-anchor="middle" x="235.88" y="-153.73" font-family="Times,serif" font-size="5.00">7.003</text>
</g>
<!-- 118007 -->
<g id="node45" class="node">
<title>118007</title>
<ellipse fill="white" stroke="black" cx="200.62" cy="-329.05" rx="22.08" ry="22.08"/>
<ellipse fill="none" stroke="black" cx="200.62" cy="-329.05" rx="26.04" ry="26.04"/>
<text text-anchor="middle" x="200.62" y="-326.35" font-family="Times,serif" font-size="9.00">tanh</text>
</g>
<!-- 118007&#45;&gt;125197 -->
<g id="edge30" class="edge">
<title>118007&#45;&gt;125197</title>
<path fill="none" stroke="red" stroke-width="0.76" stroke-dasharray="1,5" d="M192.1,-303.91C192.09,-303.86 192.07,-303.82 192.06,-303.77"/>
<polygon fill="red" stroke="red" stroke-width="0.76" points="198.54,-311.98 192.01,-303.63 191.91,-314.23 198.54,-311.98"/>
<text text-anchor="middle" x="198.54" y="-305.34" font-family="Times,serif" font-size="5.00">&#45;3.318</text>
</g>
<!-- 118007&#45;&gt;110133 -->
<g id="edge14" class="edge">
<title>118007&#45;&gt;110133</title>
<path fill="none" stroke="green" stroke-width="0.34" stroke-dasharray="1,5" d="M187.55,-352.12C187.53,-352.16 187.5,-352.21 187.47,-352.25"/>
<polygon fill="green" stroke="green" stroke-width="0.34" points="189.28,-341.96 187.4,-352.39 195.37,-345.42 189.28,-341.96"/>
<text text-anchor="middle" x="193.14" y="-353.69" font-family="Times,serif" font-size="5.00">1.176</text>
</g>
<!-- 118007&#45;&gt;129149 -->
<g id="edge62" class="edge">
<title>118007&#45;&gt;129149</title>
<path fill="none" stroke="red" stroke-width="0.18" d="M179.15,-313.7C170.23,-307.32 159.66,-299.75 149.72,-292.64"/>
<polygon fill="red" stroke="red" stroke-width="0.18" points="151.74,-289.79 141.57,-286.81 147.67,-295.48 151.74,-289.79"/>
<text text-anchor="middle" x="157.98" y="-298.67" font-family="Times,serif" font-size="5.00">&#45;0.404</text>
</g>
<!-- 118007&#45;&gt;111827 -->
<g id="edge15" class="edge">
<title>118007&#45;&gt;111827</title>
<path fill="none" stroke="red" stroke-width="0.13" d="M225.62,-337.4C234.18,-340.26 243.97,-343.53 253.35,-346.66"/>
<polygon fill="red" stroke="red" stroke-width="0.13" points="252.33,-350.01 262.92,-349.86 254.55,-343.37 252.33,-350.01"/>
<text text-anchor="middle" x="233.03" y="-343.53" font-family="Times,serif" font-size="5.00">&#45;0.173</text>
</g>
<!-- 126584 -->
<g id="node46" class="node">
<title>126584</title>
<ellipse fill="white" stroke="black" cx="222.55" cy="-34.31" rx="30.52" ry="30.52"/>
<text text-anchor="middle" x="222.55" y="-31.61" font-family="Times,serif" font-size="9.00">identity</text>
</g>
<!-- 126584&#45;&gt;126000 -->
<g id="edge44" class="edge">
<title>126584&#45;&gt;126000</title>
<path fill="none" stroke="green" stroke-width="0.28" stroke-dasharray="1,5" d="M236.71,-61.64C240.64,-69.22 244.95,-77.53 249.01,-85.38"/>
<polygon fill="green" stroke="green" stroke-width="0.28" points="245.93,-87.03 253.64,-94.3 252.15,-83.81 245.93,-87.03"/>
<text text-anchor="middle" x="237.24" y="-75.01" font-family="Times,serif" font-size="5.00">0.878</text>
</g>
<!-- 124541 -->
<g id="node47" class="node">
<title>124541</title>
<ellipse fill="white" stroke="black" cx="132.69" cy="-592.5" rx="22.08" ry="22.08"/>
<ellipse fill="none" stroke="black" cx="132.69" cy="-592.5" rx="26.04" ry="26.04"/>
<text text-anchor="middle" x="132.69" y="-589.8" font-family="Times,serif" font-size="9.00">tanh</text>
</g>
<!-- 124541&#45;&gt;87622 -->
<g id="edge26" class="edge">
<title>124541&#45;&gt;87622</title>
<path fill="none" stroke="green" stroke-width="0.27" stroke-dasharray="1,5" d="M144.12,-568.51C145.27,-566.09 146.47,-563.58 147.67,-561.05"/>
<polygon fill="green" stroke="green" stroke-width="0.27" points="150.9,-562.42 152.04,-551.89 144.58,-559.41 150.9,-562.42"/>
<text text-anchor="middle" x="140.27" y="-560.28" font-family="Times,serif" font-size="5.00">0.871</text>
</g>
<!-- 97278&#45;&gt;111827 -->
<g id="edge18" class="edge">
<title>97278&#45;&gt;111827</title>
<path fill="none" stroke="green" stroke-width="0.17" stroke-dasharray="1,5" d="M333.6,-308.43C328.64,-314.55 323.24,-321.21 318.02,-327.65"/>
<polygon fill="green" stroke="green" stroke-width="0.17" points="315.14,-325.64 311.56,-335.61 320.58,-330.05 315.14,-325.64"/>
<text text-anchor="middle" x="320.18" y="-319.54" font-family="Times,serif" font-size="5.00">0.366</text>
</g>
<!-- 97278&#45;&gt;97278 -->
<g id="edge29" class="edge">
<title>97278&#45;&gt;97278</title>
<path fill="none" stroke="green" stroke-width="0.51" stroke-dasharray="1,5" d="M383.77,-290.89C393.93,-290.89 402.06,-288.64 402.06,-284.14 402.06,-281.33 398.88,-279.39 394.02,-278.34"/>
<polygon fill="green" stroke="green" stroke-width="0.51" points="394.05,-274.83 383.77,-277.39 393.41,-281.8 394.05,-274.83"/>
<text text-anchor="middle" x="407.68" y="-282.64" font-family="Times,serif" font-size="5.00">2.051</text>
</g>
</g>
</svg>
