<?xml version="1.0" encoding="UTF-8" standalone="no"?>
<!DOCTYPE svg PUBLIC "-//W3C//DTD SVG 1.1//EN"
 "http://www.w3.org/Graphics/SVG/1.1/DTD/svg11.dtd">
<!-- Generated by graphviz version 2.47.1 (20210417.1919)
 -->
<!-- Pages: 1 -->
<svg width="646pt" height="574pt"
 viewBox="0.00 0.00 645.96 573.52" xmlns="http://www.w3.org/2000/svg" xmlns:xlink="http://www.w3.org/1999/xlink">
<g id="graph0" class="graph" transform="scale(1 1) rotate(0) translate(4 569.52)">
<polygon fill="white" stroke="transparent" points="-4,4 -4,-569.52 641.96,-569.52 641.96,4 -4,4"/>
<!-- &#45;1 -->
<g id="node1" class="node">
<title>&#45;1</title>
<polygon fill="lightgray" stroke="black" points="350.33,-267.33 326.33,-267.33 326.33,-248.72 350.33,-248.72 350.33,-267.33"/>
<text text-anchor="middle" x="338.33" y="-255.33" font-family="Times,serif" font-size="9.00">&#45;1</text>
</g>
<!-- 47274 -->
<g id="node21" class="node">
<title>47274</title>
<ellipse fill="white" stroke="black" cx="429.97" cy="-333.99" rx="35.19" ry="35.19"/>
<text text-anchor="middle" x="429.97" y="-331.29" font-family="Times,serif" font-size="9.00">heaviside</text>
</g>
<!-- &#45;1&#45;&gt;47274 -->
<g id="edge7" class="edge">
<title>&#45;1&#45;&gt;47274</title>
<path fill="none" stroke="green" stroke-width="0.69" stroke-dasharray="1,5" d="M349.57,-267.34C360.82,-276.67 378.73,-291.52 394.79,-304.83"/>
<polygon fill="green" stroke="green" stroke-width="0.69" points="392.56,-307.53 402.49,-311.21 397.03,-302.14 392.56,-307.53"/>
<text text-anchor="middle" x="377.81" y="-287.59" font-family="Times,serif" font-size="5.00">2.945</text>
</g>
<!-- 8793 -->
<g id="node33" class="node">
<title>8793</title>
<ellipse fill="white" stroke="black" cx="255.58" cy="-234.34" rx="35.21" ry="35.21"/>
<ellipse fill="none" stroke="black" cx="255.58" cy="-234.34" rx="39.19" ry="39.19"/>
<text text-anchor="middle" x="255.58" y="-231.64" font-family="Times,serif" font-size="9.00">heaviside</text>
</g>
<!-- &#45;1&#45;&gt;8793 -->
<g id="edge5" class="edge">
<title>&#45;1&#45;&gt;8793</title>
<path fill="none" stroke="green" stroke-width="0.71" stroke-dasharray="1,5" d="M326.48,-254.63C320.18,-252.83 311.97,-250.48 303.39,-248.03"/>
<polygon fill="green" stroke="green" stroke-width="0.71" points="304.2,-244.62 293.62,-245.23 302.27,-251.35 304.2,-244.62"/>
<text text-anchor="middle" x="309.31" y="-252.83" font-family="Times,serif" font-size="5.00">3.039</text>
</g>
<!-- &#45;2 -->
<g id="node2" class="node">
<title>&#45;2</title>
<polygon fill="lightgray" stroke="black" points="197.02,-295.58 173.02,-295.58 173.02,-276.98 197.02,-276.98 197.02,-295.58"/>
<text text-anchor="middle" x="185.02" y="-283.58" font-family="Times,serif" font-size="9.00">&#45;2</text>
</g>
<!-- 0 -->
<g id="node5" class="node">
<title>0</title>
<ellipse fill="lightblue" stroke="black" cx="264.12" cy="-316.47" rx="14.49" ry="14.49"/>
<ellipse fill="none" stroke="black" cx="264.12" cy="-316.47" rx="18.49" ry="18.49"/>
<text text-anchor="middle" x="264.12" y="-313.77" font-family="Times,serif" font-size="9.00">0</text>
</g>
<!-- &#45;2&#45;&gt;0 -->
<g id="edge1" class="edge">
<title>&#45;2&#45;&gt;0</title>
<path fill="none" stroke="green" stroke-width="0.39" d="M197.03,-290.87C207.67,-294.93 223.6,-301 237.26,-306.22"/>
<polygon fill="green" stroke="green" stroke-width="0.39" points="236.11,-309.53 246.7,-309.82 238.61,-302.99 236.11,-309.53"/>
<text text-anchor="middle" x="222.77" y="-294.04" font-family="Times,serif" font-size="5.00">1.450</text>
</g>
<!-- 104358 -->
<g id="node17" class="node">
<title>104358</title>
<ellipse fill="white" stroke="black" cx="108.57" cy="-354.83" rx="22.08" ry="22.08"/>
<ellipse fill="none" stroke="black" cx="108.57" cy="-354.83" rx="26.04" ry="26.04"/>
<text text-anchor="middle" x="108.57" y="-352.13" font-family="Times,serif" font-size="9.00">tanh</text>
</g>
<!-- &#45;2&#45;&gt;104358 -->
<g id="edge27" class="edge">
<title>&#45;2&#45;&gt;104358</title>
<path fill="none" stroke="green" stroke-width="0.87" stroke-dasharray="1,5" d="M174.39,-295.81C164.44,-304.73 149.16,-318.44 135.82,-330.39"/>
<polygon fill="green" stroke="green" stroke-width="0.87" points="133.36,-327.9 128.25,-337.18 138.03,-333.11 133.36,-327.9"/>
<text text-anchor="middle" x="160.73" y="-314.6" font-family="Times,serif" font-size="5.00">3.848</text>
</g>
<!-- 109643 -->
<g id="node30" class="node">
<title>109643</title>
<ellipse fill="white" stroke="black" cx="119.01" cy="-303.98" rx="22.08" ry="22.08"/>
<ellipse fill="none" stroke="black" cx="119.01" cy="-303.98" rx="26.04" ry="26.04"/>
<text text-anchor="middle" x="119.01" y="-301.28" font-family="Times,serif" font-size="9.00">tanh</text>
</g>
<!-- &#45;2&#45;&gt;109643 -->
<g id="edge29" class="edge">
<title>&#45;2&#45;&gt;109643</title>
<path fill="none" stroke="green" stroke-width="0.45" stroke-dasharray="1,5" d="M173.22,-289.45C167.89,-290.88 161.27,-292.65 154.52,-294.46"/>
<polygon fill="green" stroke="green" stroke-width="0.45" points="153.41,-291.13 144.66,-297.1 155.23,-297.89 153.41,-291.13"/>
<text text-anchor="middle" x="158.24" y="-293.45" font-family="Times,serif" font-size="5.00">1.747</text>
</g>
<!-- 72790 -->
<g id="node32" class="node">
<title>72790</title>
<ellipse fill="white" stroke="black" cx="156.4" cy="-357.53" rx="31.65" ry="31.65"/>
<text text-anchor="middle" x="156.4" y="-354.83" font-family="Times,serif" font-size="9.00">sigmoid</text>
</g>
<!-- &#45;2&#45;&gt;72790 -->
<g id="edge12" class="edge">
<title>&#45;2&#45;&gt;72790</title>
<path fill="none" stroke="red" stroke-width="0.59" stroke-dasharray="1,5" d="M181.28,-295.6C178.85,-301.63 175.51,-309.95 172.06,-318.53"/>
<polygon fill="red" stroke="red" stroke-width="0.59" points="168.8,-317.27 168.32,-327.85 175.29,-319.88 168.8,-317.27"/>
<text text-anchor="middle" x="170.21" y="-302.56" font-family="Times,serif" font-size="5.00">&#45;2.466</text>
</g>
<!-- &#45;2&#45;&gt;8793 -->
<g id="edge2" class="edge">
<title>&#45;2&#45;&gt;8793</title>
<path fill="none" stroke="green" stroke-width="0.93" d="M196.99,-277.47C202.18,-273.65 208.6,-268.92 215.27,-264.02"/>
<polygon fill="green" stroke="green" stroke-width="0.93" points="217.78,-266.51 223.76,-257.76 213.64,-260.87 217.78,-266.51"/>
<text text-anchor="middle" x="200.5" y="-272.24" font-family="Times,serif" font-size="5.00">4.169</text>
</g>
<!-- 110462 -->
<g id="node43" class="node">
<title>110462</title>
<ellipse fill="white" stroke="black" cx="120.86" cy="-240.56" rx="31.67" ry="31.67"/>
<ellipse fill="none" stroke="black" cx="120.86" cy="-240.56" rx="35.65" ry="35.65"/>
<text text-anchor="middle" x="120.86" y="-237.86" font-family="Times,serif" font-size="9.00">sigmoid</text>
</g>
<!-- &#45;2&#45;&gt;110462 -->
<g id="edge34" class="edge">
<title>&#45;2&#45;&gt;110462</title>
<path fill="none" stroke="red" stroke-width="0.61" d="M173.25,-277.9C168.98,-274.85 163.89,-271.22 158.58,-267.45"/>
<polygon fill="red" stroke="red" stroke-width="0.61" points="160.34,-264.4 150.16,-261.45 156.27,-270.1 160.34,-264.4"/>
<text text-anchor="middle" x="172.37" y="-268.17" font-family="Times,serif" font-size="5.00">&#45;2.568</text>
</g>
<!-- &#45;3 -->
<g id="node3" class="node">
<title>&#45;3</title>
<polygon fill="lightgray" stroke="black" points="116.75,-142.7 92.75,-142.7 92.75,-124.1 116.75,-124.1 116.75,-142.7"/>
<text text-anchor="middle" x="104.75" y="-130.7" font-family="Times,serif" font-size="9.00">&#45;3</text>
</g>
<!-- &#45;4 -->
<g id="node4" class="node">
<title>&#45;4</title>
<polygon fill="lightgray" stroke="black" points="566.72,-174.27 542.71,-174.27 542.71,-155.66 566.72,-155.66 566.72,-174.27"/>
<text text-anchor="middle" x="554.72" y="-162.27" font-family="Times,serif" font-size="9.00">&#45;4</text>
</g>
<!-- 10123 -->
<g id="node8" class="node">
<title>10123</title>
<ellipse fill="white" stroke="black" cx="598.61" cy="-222.38" rx="35.21" ry="35.21"/>
<ellipse fill="none" stroke="black" cx="598.61" cy="-222.38" rx="39.19" ry="39.19"/>
<text text-anchor="middle" x="598.61" y="-219.68" font-family="Times,serif" font-size="9.00">heaviside</text>
</g>
<!-- &#45;4&#45;&gt;10123 -->
<g id="edge4" class="edge">
<title>&#45;4&#45;&gt;10123</title>
<path fill="none" stroke="red" stroke-width="0.54" d="M561.96,-174.45C563.83,-176.88 565.95,-179.66 568.22,-182.63"/>
<polygon fill="red" stroke="red" stroke-width="0.54" points="565.61,-184.98 574.46,-190.8 571.17,-180.73 565.61,-184.98"/>
<text text-anchor="middle" x="571.55" y="-174.04" font-family="Times,serif" font-size="5.00">&#45;2.192</text>
</g>
<!-- 66215 -->
<g id="node18" class="node">
<title>66215</title>
<ellipse fill="white" stroke="black" cx="530.76" cy="-96.76" rx="30.55" ry="30.55"/>
<ellipse fill="none" stroke="black" cx="530.76" cy="-96.76" rx="34.52" ry="34.52"/>
<text text-anchor="middle" x="530.76" y="-94.06" font-family="Times,serif" font-size="9.00">identity</text>
</g>
<!-- &#45;4&#45;&gt;66215 -->
<g id="edge11" class="edge">
<title>&#45;4&#45;&gt;66215</title>
<path fill="none" stroke="red" stroke-width="0.21" d="M551.38,-155.48C549.82,-151.01 547.82,-145.34 545.7,-139.29"/>
<polygon fill="red" stroke="red" stroke-width="0.21" points="548.9,-137.86 542.29,-129.58 542.3,-140.18 548.9,-137.86"/>
<text text-anchor="middle" x="542.08" y="-148.88" font-family="Times,serif" font-size="5.00">&#45;0.560</text>
</g>
<!-- 73616 -->
<g id="node10" class="node">
<title>73616</title>
<ellipse fill="white" stroke="black" cx="205.45" cy="-318.74" rx="22.04" ry="22.04"/>
<text text-anchor="middle" x="205.45" y="-316.04" font-family="Times,serif" font-size="9.00">tanh</text>
</g>
<!-- 0&#45;&gt;73616 -->
<g id="edge26" class="edge">
<title>0&#45;&gt;73616</title>
<path fill="none" stroke="green" stroke-width="0.47" d="M245.56,-317.19C243.09,-317.29 240.51,-317.39 237.89,-317.49"/>
<polygon fill="green" stroke="green" stroke-width="0.47" points="237.66,-313.99 227.8,-317.88 237.93,-320.99 237.66,-313.99"/>
<text text-anchor="middle" x="236.1" y="-318.84" font-family="Times,serif" font-size="5.00">1.871</text>
</g>
<!-- 113058 -->
<g id="node13" class="node">
<title>113058</title>
<ellipse fill="white" stroke="black" cx="249.29" cy="-403.99" rx="35.21" ry="35.21"/>
<ellipse fill="none" stroke="black" cx="249.29" cy="-403.99" rx="39.19" ry="39.19"/>
<text text-anchor="middle" x="249.29" y="-401.29" font-family="Times,serif" font-size="9.00">heaviside</text>
</g>
<!-- 0&#45;&gt;113058 -->
<g id="edge41" class="edge">
<title>0&#45;&gt;113058</title>
<path fill="none" stroke="red" stroke-width="0.21" d="M260.98,-335.03C259.98,-340.9 258.83,-347.68 257.65,-354.66"/>
<polygon fill="red" stroke="red" stroke-width="0.21" points="254.13,-354.48 255.91,-364.93 261.03,-355.65 254.13,-354.48"/>
<text text-anchor="middle" x="252.86" y="-346.34" font-family="Times,serif" font-size="5.00">&#45;0.527</text>
</g>
<!-- 67619 -->
<g id="node14" class="node">
<title>67619</title>
<ellipse fill="white" stroke="black" cx="304.54" cy="-396.92" rx="35.19" ry="35.19"/>
<text text-anchor="middle" x="304.54" y="-394.22" font-family="Times,serif" font-size="9.00">heaviside</text>
</g>
<!-- 0&#45;&gt;67619 -->
<g id="edge22" class="edge">
<title>0&#45;&gt;67619</title>
<path fill="none" stroke="green" stroke-width="0.33" d="M272.5,-333.14C275.89,-339.89 279.97,-348.02 284.07,-356.17"/>
<polygon fill="green" stroke="green" stroke-width="0.33" points="281.05,-357.95 288.66,-365.31 287.3,-354.8 281.05,-357.95"/>
<text text-anchor="middle" x="283.91" y="-346.15" font-family="Times,serif" font-size="5.00">1.140</text>
</g>
<!-- 66181 -->
<g id="node6" class="node">
<title>66181</title>
<ellipse fill="white" stroke="black" cx="381.54" cy="-251.61" rx="35.19" ry="35.19"/>
<text text-anchor="middle" x="381.54" y="-248.91" font-family="Times,serif" font-size="9.00">heaviside</text>
</g>
<!-- 73822 -->
<g id="node35" class="node">
<title>73822</title>
<ellipse fill="white" stroke="black" cx="390.61" cy="-300.95" rx="30.52" ry="30.52"/>
<text text-anchor="middle" x="390.61" y="-298.25" font-family="Times,serif" font-size="9.00">identity</text>
</g>
<!-- 66181&#45;&gt;73822 -->
<g id="edge31" class="edge">
<title>66181&#45;&gt;73822</title>
<path fill="none" stroke="red" stroke-width="0.14" d="M387.94,-286.41C387.95,-286.48 387.96,-286.54 387.98,-286.6"/>
<polygon fill="red" stroke="red" stroke-width="0.14" points="382.76,-277.59 388.01,-286.79 389.64,-276.32 382.76,-277.59"/>
<text text-anchor="middle" x="394.42" y="-288.01" font-family="Times,serif" font-size="5.00">&#45;0.219</text>
</g>
<!-- 62984 -->
<g id="node7" class="node">
<title>62984</title>
<ellipse fill="white" stroke="black" cx="127.76" cy="-530.76" rx="30.55" ry="30.55"/>
<ellipse fill="none" stroke="black" cx="127.76" cy="-530.76" rx="34.52" ry="34.52"/>
<text text-anchor="middle" x="127.76" y="-528.06" font-family="Times,serif" font-size="9.00">identity</text>
</g>
<!-- 61840 -->
<g id="node9" class="node">
<title>61840</title>
<ellipse fill="white" stroke="black" cx="276.47" cy="-83.93" rx="30.52" ry="30.52"/>
<text text-anchor="middle" x="276.47" y="-81.23" font-family="Times,serif" font-size="9.00">identity</text>
</g>
<!-- 46628 -->
<g id="node15" class="node">
<title>46628</title>
<ellipse fill="white" stroke="black" cx="266.91" cy="-142" rx="30.52" ry="30.52"/>
<text text-anchor="middle" x="266.91" y="-139.3" font-family="Times,serif" font-size="9.00">identity</text>
</g>
<!-- 61840&#45;&gt;46628 -->
<g id="edge8" class="edge">
<title>61840&#45;&gt;46628</title>
<path fill="none" stroke="red" stroke-width="0.2" d="M264.92,-112.55C264.91,-112.61 264.9,-112.66 264.89,-112.72"/>
<polygon fill="red" stroke="red" stroke-width="0.2" points="262.97,-102.46 264.86,-112.89 269.89,-103.56 262.97,-102.46"/>
<text text-anchor="middle" x="258.45" y="-114.14" font-family="Times,serif" font-size="5.00">&#45;0.509</text>
</g>
<!-- 108890 -->
<g id="node34" class="node">
<title>108890</title>
<ellipse fill="white" stroke="black" cx="209.27" cy="-77.53" rx="22.08" ry="22.08"/>
<ellipse fill="none" stroke="black" cx="209.27" cy="-77.53" rx="26.04" ry="26.04"/>
<text text-anchor="middle" x="209.27" y="-74.83" font-family="Times,serif" font-size="9.00">tanh</text>
</g>
<!-- 61840&#45;&gt;108890 -->
<g id="edge28" class="edge">
<title>61840&#45;&gt;108890</title>
<path fill="none" stroke="green" stroke-width="1.18" d="M245.62,-80.99C245.52,-80.98 245.42,-80.97 245.31,-80.96"/>
<polygon fill="green" stroke="green" stroke-width="1.18" points="246,-77.51 235.71,-80.05 245.33,-84.48 246,-77.51"/>
<text text-anchor="middle" x="239.84" y="-82.48" font-family="Times,serif" font-size="5.00">5.388</text>
</g>
<!-- 77173 -->
<g id="node40" class="node">
<title>77173</title>
<ellipse fill="white" stroke="black" cx="346.95" cy="-110.85" rx="30.55" ry="30.55"/>
<ellipse fill="none" stroke="black" cx="346.95" cy="-110.85" rx="34.52" ry="34.52"/>
<text text-anchor="middle" x="346.95" y="-108.15" font-family="Times,serif" font-size="9.00">identity</text>
</g>
<!-- 61840&#45;&gt;77173 -->
<g id="edge15" class="edge">
<title>61840&#45;&gt;77173</title>
<path fill="none" stroke="red" stroke-width="0.22" stroke-dasharray="1,5" d="M305.54,-95.04C305.63,-95.07 305.72,-95.1 305.81,-95.14"/>
<polygon fill="red" stroke="red" stroke-width="0.22" points="303.69,-98.07 314.28,-98.37 306.19,-91.54 303.69,-98.07"/>
<text text-anchor="middle" x="312.14" y="-96.59" font-family="Times,serif" font-size="5.00">&#45;0.579</text>
</g>
<!-- 73616&#45;&gt;109643 -->
<g id="edge44" class="edge">
<title>73616&#45;&gt;109643</title>
<path fill="none" stroke="red" stroke-width="0.97" d="M183.19,-314.94C174.67,-313.49 164.71,-311.79 155.22,-310.17"/>
<polygon fill="red" stroke="red" stroke-width="0.97" points="155.64,-306.69 145.19,-308.45 154.46,-313.59 155.64,-306.69"/>
<text text-anchor="middle" x="175.66" y="-314.05" font-family="Times,serif" font-size="5.00">&#45;4.339</text>
</g>
<!-- 46995 -->
<g id="node11" class="node">
<title>46995</title>
<ellipse fill="white" stroke="black" cx="351.85" cy="-344.38" rx="22.04" ry="22.04"/>
<text text-anchor="middle" x="351.85" y="-341.68" font-family="Times,serif" font-size="9.00">tanh</text>
</g>
<!-- 46995&#45;&gt;0 -->
<g id="edge6" class="edge">
<title>46995&#45;&gt;0</title>
<path fill="none" stroke="red" stroke-width="0.5" stroke-dasharray="1,5" d="M330.61,-337.62C318.85,-333.88 304.1,-329.19 291.48,-325.17"/>
<polygon fill="red" stroke="red" stroke-width="0.5" points="292.5,-321.83 281.91,-322.13 290.38,-328.5 292.5,-321.83"/>
<text text-anchor="middle" x="317.5" y="-332.9" font-family="Times,serif" font-size="5.00">&#45;1.991</text>
</g>
<!-- 46995&#45;&gt;66181 -->
<g id="edge10" class="edge">
<title>46995&#45;&gt;66181</title>
<path fill="none" stroke="green" stroke-width="0.34" d="M358.74,-322.86C361.41,-314.51 364.57,-304.64 367.67,-294.94"/>
<polygon fill="green" stroke="green" stroke-width="0.34" points="371.02,-295.96 370.74,-285.37 364.35,-293.82 371.02,-295.96"/>
<text text-anchor="middle" x="357.58" y="-310.4" font-family="Times,serif" font-size="5.00">1.219</text>
</g>
<!-- 117489 -->
<g id="node39" class="node">
<title>117489</title>
<ellipse fill="white" stroke="black" cx="381.66" cy="-427.57" rx="31.65" ry="31.65"/>
<text text-anchor="middle" x="381.66" y="-424.87" font-family="Times,serif" font-size="9.00">sigmoid</text>
</g>
<!-- 46995&#45;&gt;117489 -->
<g id="edge58" class="edge">
<title>46995&#45;&gt;117489</title>
<path fill="none" stroke="green" stroke-width="0.4" d="M359.37,-365.37C361.85,-372.28 364.69,-380.21 367.49,-388.04"/>
<polygon fill="green" stroke="green" stroke-width="0.4" points="364.2,-389.24 370.87,-397.47 370.79,-386.87 364.2,-389.24"/>
<text text-anchor="middle" x="357.81" y="-378.21" font-family="Times,serif" font-size="5.00">1.477</text>
</g>
<!-- 80380 -->
<g id="node42" class="node">
<title>80380</title>
<ellipse fill="white" stroke="black" cx="422.55" cy="-399.82" rx="30.52" ry="30.52"/>
<text text-anchor="middle" x="422.55" y="-397.12" font-family="Times,serif" font-size="9.00">identity</text>
</g>
<!-- 46995&#45;&gt;80380 -->
<g id="edge23" class="edge">
<title>46995&#45;&gt;80380</title>
<path fill="none" stroke="red" stroke-width="0.2" stroke-dasharray="1,5" d="M369.69,-358.37C375.92,-363.26 383.13,-368.91 390.18,-374.43"/>
<polygon fill="red" stroke="red" stroke-width="0.2" points="388.28,-377.39 398.31,-380.81 392.6,-371.89 388.28,-377.39"/>
<text text-anchor="middle" x="373.48" y="-367.9" font-family="Times,serif" font-size="5.00">&#45;0.515</text>
</g>
<!-- 112800 -->
<g id="node12" class="node">
<title>112800</title>
<ellipse fill="white" stroke="black" cx="407.9" cy="-163.99" rx="35.21" ry="35.21"/>
<ellipse fill="none" stroke="black" cx="407.9" cy="-163.99" rx="39.19" ry="39.19"/>
<text text-anchor="middle" x="407.9" y="-161.29" font-family="Times,serif" font-size="9.00">heaviside</text>
</g>
<!-- 112800&#45;&gt;66181 -->
<g id="edge65" class="edge">
<title>112800&#45;&gt;66181</title>
<path fill="none" stroke="green" stroke-width="0.37" d="M396.49,-201.91C395.91,-203.86 395.32,-205.82 394.73,-207.77"/>
<polygon fill="green" stroke="green" stroke-width="0.37" points="391.33,-206.91 391.8,-217.49 398.04,-208.93 391.33,-206.91"/>
<text text-anchor="middle" x="389.98" y="-206.34" font-family="Times,serif" font-size="5.00">1.327</text>
</g>
<!-- 61988 -->
<g id="node16" class="node">
<title>61988</title>
<ellipse fill="white" stroke="black" cx="436.22" cy="-220.65" rx="22.08" ry="22.08"/>
<ellipse fill="none" stroke="black" cx="436.22" cy="-220.65" rx="26.04" ry="26.04"/>
<text text-anchor="middle" x="436.22" y="-217.95" font-family="Times,serif" font-size="9.00">tanh</text>
</g>
<!-- 112800&#45;&gt;61988 -->
<g id="edge38" class="edge">
<title>112800&#45;&gt;61988</title>
<path fill="none" stroke="green" stroke-width="0.29" d="M425.51,-199.23C425.53,-199.27 425.56,-199.32 425.58,-199.36"/>
<polygon fill="green" stroke="green" stroke-width="0.29" points="418.04,-192.12 425.65,-199.5 424.3,-188.99 418.04,-192.12"/>
<text text-anchor="middle" x="419.92" y="-194.8" font-family="Times,serif" font-size="5.00">0.968</text>
</g>
<!-- 113058&#45;&gt;67619 -->
<g id="edge42" class="edge">
<title>113058&#45;&gt;67619</title>
<path fill="none" stroke="red" stroke-width="0.68" d="M288.56,-398.96C288.63,-398.95 288.7,-398.95 288.77,-398.94"/>
<polygon fill="red" stroke="red" stroke-width="0.68" points="279.51,-403.66 288.98,-398.91 278.62,-396.71 279.51,-403.66"/>
<text text-anchor="middle" x="295.12" y="-400.45" font-family="Times,serif" font-size="5.00">&#45;2.882</text>
</g>
<!-- 67619&#45;&gt;46995 -->
<g id="edge21" class="edge">
<title>67619&#45;&gt;46995</title>
<path fill="none" stroke="red" stroke-width="0.19" d="M328.2,-370.65C328.84,-369.93 329.49,-369.21 330.14,-368.49"/>
<polygon fill="red" stroke="red" stroke-width="0.19" points="332.79,-370.77 336.88,-361 327.59,-366.09 332.79,-370.77"/>
<text text-anchor="middle" x="335.62" y="-371.07" font-family="Times,serif" font-size="5.00">&#45;0.431</text>
</g>
<!-- 46628&#45;&gt;61840 -->
<g id="edge13" class="edge">
<title>46628&#45;&gt;61840</title>
<path fill="none" stroke="red" stroke-width="0.94" d="M278.46,-113.38C278.47,-113.33 278.48,-113.27 278.49,-113.21"/>
<polygon fill="red" stroke="red" stroke-width="0.94" points="280.41,-123.47 278.51,-113.05 273.49,-122.38 280.41,-123.47"/>
<text text-anchor="middle" x="284.93" y="-114.8" font-family="Times,serif" font-size="5.00">&#45;4.179</text>
</g>
<!-- 117031 -->
<g id="node19" class="node">
<title>117031</title>
<ellipse fill="white" stroke="black" cx="519.38" cy="-353.33" rx="35.19" ry="35.19"/>
<text text-anchor="middle" x="519.38" y="-350.63" font-family="Times,serif" font-size="9.00">heaviside</text>
</g>
<!-- 117031&#45;&gt;47274 -->
<g id="edge56" class="edge">
<title>117031&#45;&gt;47274</title>
<path fill="none" stroke="green" stroke-width="0.11" d="M484.81,-345.86C481.52,-345.14 478.15,-344.42 474.78,-343.69"/>
<polygon fill="green" stroke="green" stroke-width="0.11" points="475.26,-340.21 464.74,-341.52 473.78,-347.05 475.26,-340.21"/>
<text text-anchor="middle" x="474.17" y="-346.27" font-family="Times,serif" font-size="5.00">0.042</text>
</g>
<!-- 78377 -->
<g id="node20" class="node">
<title>78377</title>
<ellipse fill="white" stroke="black" cx="304.39" cy="-491.49" rx="31.65" ry="31.65"/>
<text text-anchor="middle" x="304.39" y="-488.79" font-family="Times,serif" font-size="9.00">sigmoid</text>
</g>
<!-- 78377&#45;&gt;67619 -->
<g id="edge47" class="edge">
<title>78377&#45;&gt;67619</title>
<path fill="none" stroke="red" stroke-width="0.37" stroke-dasharray="1,5" d="M304.44,-459.47C304.45,-454.04 304.46,-448.32 304.47,-442.62"/>
<polygon fill="red" stroke="red" stroke-width="0.37" points="307.97,-442.48 304.49,-432.48 300.97,-442.47 307.97,-442.48"/>
<text text-anchor="middle" x="298" y="-452.55" font-family="Times,serif" font-size="5.00">&#45;1.374</text>
</g>
<!-- 79017 -->
<g id="node22" class="node">
<title>79017</title>
<ellipse fill="white" stroke="black" cx="367.05" cy="-30.76" rx="30.52" ry="30.52"/>
<text text-anchor="middle" x="367.05" y="-28.06" font-family="Times,serif" font-size="9.00">identity</text>
</g>
<!-- 77558 -->
<g id="node41" class="node">
<title>77558</title>
<ellipse fill="white" stroke="black" cx="288.84" cy="-48.31" rx="31.65" ry="31.65"/>
<text text-anchor="middle" x="288.84" y="-45.61" font-family="Times,serif" font-size="9.00">sigmoid</text>
</g>
<!-- 79017&#45;&gt;77558 -->
<g id="edge19" class="edge">
<title>79017&#45;&gt;77558</title>
<path fill="none" stroke="green" stroke-width="0.24" stroke-dasharray="1,5" d="M337.04,-37.49C334.67,-38.02 332.26,-38.56 329.84,-39.11"/>
<polygon fill="green" stroke="green" stroke-width="0.24" points="328.93,-35.72 319.94,-41.33 330.46,-42.55 328.93,-35.72"/>
<text text-anchor="middle" x="327.81" y="-39.8" font-family="Times,serif" font-size="5.00">0.712</text>
</g>
<!-- 113834 -->
<g id="node23" class="node">
<title>113834</title>
<ellipse fill="white" stroke="black" cx="226" cy="-427.92" rx="31.65" ry="31.65"/>
<text text-anchor="middle" x="226" y="-425.22" font-family="Times,serif" font-size="9.00">sigmoid</text>
</g>
<!-- 112692 -->
<g id="node28" class="node">
<title>112692</title>
<ellipse fill="white" stroke="black" cx="293.22" cy="-342.92" rx="30.52" ry="30.52"/>
<text text-anchor="middle" x="293.22" y="-340.22" font-family="Times,serif" font-size="9.00">identity</text>
</g>
<!-- 113834&#45;&gt;112692 -->
<g id="edge46" class="edge">
<title>113834&#45;&gt;112692</title>
<path fill="none" stroke="red" stroke-width="0.22" d="M245.81,-402.88C252.69,-394.17 260.52,-384.27 267.8,-375.07"/>
<polygon fill="red" stroke="red" stroke-width="0.22" points="270.56,-377.22 274.02,-367.2 265.07,-372.87 270.56,-377.22"/>
<text text-anchor="middle" x="250.35" y="-390.47" font-family="Times,serif" font-size="5.00">&#45;0.621</text>
</g>
<!-- 117679 -->
<g id="node24" class="node">
<title>117679</title>
<ellipse fill="white" stroke="black" cx="49.93" cy="-419.18" rx="31.65" ry="31.65"/>
<text text-anchor="middle" x="49.93" y="-416.48" font-family="Times,serif" font-size="9.00">sigmoid</text>
</g>
<!-- 117679&#45;&gt;104358 -->
<g id="edge62" class="edge">
<title>117679&#45;&gt;104358</title>
<path fill="none" stroke="red" stroke-width="0.39" stroke-dasharray="1,5" d="M71.43,-395.59C75.45,-391.17 79.68,-386.53 83.79,-382.02"/>
<polygon fill="red" stroke="red" stroke-width="0.39" points="86.39,-384.37 90.53,-374.62 81.21,-379.66 86.39,-384.37"/>
<text text-anchor="middle" x="84.07" y="-390.3" font-family="Times,serif" font-size="5.00">&#45;1.436</text>
</g>
<!-- 110129 -->
<g id="node25" class="node">
<title>110129</title>
<ellipse fill="white" stroke="black" cx="47.16" cy="-355.02" rx="30.55" ry="30.55"/>
<ellipse fill="none" stroke="black" cx="47.16" cy="-355.02" rx="34.52" ry="34.52"/>
<text text-anchor="middle" x="47.16" y="-352.32" font-family="Times,serif" font-size="9.00">identity</text>
</g>
<!-- 110129&#45;&gt;104358 -->
<g id="edge33" class="edge">
<title>110129&#45;&gt;104358</title>
<path fill="none" stroke="red" stroke-width="0.37" d="M82.17,-354.91C82.22,-354.91 82.27,-354.91 82.33,-354.91"/>
<polygon fill="red" stroke="red" stroke-width="0.37" points="72.5,-358.45 82.49,-354.91 72.48,-351.45 72.5,-358.45"/>
<text text-anchor="middle" x="75.79" y="-356.41" font-family="Times,serif" font-size="5.00">&#45;1.374</text>
</g>
<!-- 110129&#45;&gt;117679 -->
<g id="edge61" class="edge">
<title>110129&#45;&gt;117679</title>
<path fill="none" stroke="green" stroke-width="0.3" d="M48.68,-390.11C48.68,-390.17 48.68,-390.22 48.68,-390.28"/>
<polygon fill="green" stroke="green" stroke-width="0.3" points="44.76,-380.62 48.69,-390.46 51.75,-380.31 44.76,-380.62"/>
<text text-anchor="middle" x="43.05" y="-391.69" font-family="Times,serif" font-size="5.00">1.000</text>
</g>
<!-- 116657 -->
<g id="node26" class="node">
<title>116657</title>
<ellipse fill="white" stroke="black" cx="472.48" cy="-253.31" rx="22.04" ry="22.04"/>
<text text-anchor="middle" x="472.48" y="-250.61" font-family="Times,serif" font-size="9.00">tanh</text>
</g>
<!-- 116657&#45;&gt;61988 -->
<g id="edge51" class="edge">
<title>116657&#45;&gt;61988</title>
<path fill="none" stroke="green" stroke-width="0.17" stroke-dasharray="1,5" d="M455.62,-238.12C455.55,-238.06 455.47,-237.99 455.4,-237.92"/>
<polygon fill="green" stroke="green" stroke-width="0.17" points="464.95,-241.82 455.18,-237.72 460.26,-247.02 464.95,-241.82"/>
<text text-anchor="middle" x="449.88" y="-239.52" font-family="Times,serif" font-size="5.00">0.357</text>
</g>
<!-- 116787 -->
<g id="node27" class="node">
<title>116787</title>
<ellipse fill="white" stroke="black" cx="174.76" cy="-226.6" rx="30.55" ry="30.55"/>
<ellipse fill="none" stroke="black" cx="174.76" cy="-226.6" rx="34.52" ry="34.52"/>
<text text-anchor="middle" x="174.76" y="-223.9" font-family="Times,serif" font-size="9.00">identity</text>
</g>
<!-- 116787&#45;&gt;73616 -->
<g id="edge53" class="edge">
<title>116787&#45;&gt;73616</title>
<path fill="none" stroke="green" stroke-width="0.36" d="M185.75,-259.6C188.8,-268.76 192.1,-278.66 195.11,-287.7"/>
<polygon fill="green" stroke="green" stroke-width="0.36" points="191.88,-289.07 198.36,-297.45 198.52,-286.86 191.88,-289.07"/>
<text text-anchor="middle" x="184.8" y="-269.15" font-family="Times,serif" font-size="5.00">1.301</text>
</g>
<!-- 112692&#45;&gt;73616 -->
<g id="edge60" class="edge">
<title>112692&#45;&gt;73616</title>
<path fill="none" stroke="red" stroke-width="0.6" d="M263.5,-334.74C254.92,-332.37 245.54,-329.79 236.86,-327.4"/>
<polygon fill="red" stroke="red" stroke-width="0.6" points="237.66,-323.99 227.09,-324.7 235.8,-330.73 237.66,-323.99"/>
<text text-anchor="middle" x="243.72" y="-332.57" font-family="Times,serif" font-size="5.00">&#45;2.493</text>
</g>
<!-- 80968 -->
<g id="node29" class="node">
<title>80968</title>
<ellipse fill="white" stroke="black" cx="471.59" cy="-285.02" rx="22.04" ry="22.04"/>
<text text-anchor="middle" x="471.59" y="-282.32" font-family="Times,serif" font-size="9.00">tanh</text>
</g>
<!-- 80968&#45;&gt;61988 -->
<g id="edge25" class="edge">
<title>80968&#45;&gt;61988</title>
<path fill="none" stroke="green" stroke-width="0.91" stroke-dasharray="1,5" d="M460.78,-265.35C458.56,-261.31 456.17,-256.96 453.79,-252.62"/>
<polygon fill="green" stroke="green" stroke-width="0.91" points="456.83,-250.88 448.94,-243.81 450.69,-254.26 456.83,-250.88"/>
<text text-anchor="middle" x="451.66" y="-254.49" font-family="Times,serif" font-size="5.00">4.028</text>
</g>
<!-- 109643&#45;&gt;104358 -->
<g id="edge30" class="edge">
<title>109643&#45;&gt;104358</title>
<path fill="none" stroke="red" stroke-width="0.28" d="M113.67,-330C113.66,-330.05 113.65,-330.1 113.64,-330.15"/>
<polygon fill="red" stroke="red" stroke-width="0.28" points="112.2,-319.79 113.61,-330.3 119.05,-321.21 112.2,-319.79"/>
<text text-anchor="middle" x="107.19" y="-331.58" font-family="Times,serif" font-size="5.00">&#45;0.894</text>
</g>
<!-- 109643&#45;&gt;110129 -->
<g id="edge32" class="edge">
<title>109643&#45;&gt;110129</title>
<path fill="none" stroke="green" stroke-width="0.1" d="M97.46,-319.3C93.17,-322.34 88.55,-325.62 83.92,-328.91"/>
<polygon fill="green" stroke="green" stroke-width="0.1" points="81.75,-326.16 75.62,-334.81 85.8,-331.87 81.75,-326.16"/>
<text text-anchor="middle" x="87.87" y="-319.6" font-family="Times,serif" font-size="5.00">0.018</text>
</g>
<!-- 112485 -->
<g id="node36" class="node">
<title>112485</title>
<ellipse fill="white" stroke="black" cx="152.93" cy="-388.54" rx="31.67" ry="31.67"/>
<ellipse fill="none" stroke="black" cx="152.93" cy="-388.54" rx="35.65" ry="35.65"/>
<text text-anchor="middle" x="152.93" y="-385.84" font-family="Times,serif" font-size="9.00">sigmoid</text>
</g>
<!-- 109643&#45;&gt;112485 -->
<g id="edge36" class="edge">
<title>109643&#45;&gt;112485</title>
<path fill="none" stroke="green" stroke-width="0.29" stroke-dasharray="1,5" d="M128.82,-328.44C130.96,-333.75 133.27,-339.52 135.59,-345.32"/>
<polygon fill="green" stroke="green" stroke-width="0.29" points="132.51,-347.04 139.48,-355.01 139.01,-344.43 132.51,-347.04"/>
<text text-anchor="middle" x="126.58" y="-338.38" font-family="Times,serif" font-size="5.00">0.959</text>
</g>
<!-- 112845 -->
<g id="node31" class="node">
<title>112845</title>
<ellipse fill="white" stroke="black" cx="57.91" cy="-241.19" rx="30.52" ry="30.52"/>
<text text-anchor="middle" x="57.91" y="-238.49" font-family="Times,serif" font-size="9.00">identity</text>
</g>
<!-- 112845&#45;&gt;109643 -->
<g id="edge40" class="edge">
<title>112845&#45;&gt;109643</title>
<path fill="none" stroke="red" stroke-width="0.16" d="M79.62,-263.51C84.12,-268.13 88.91,-273.05 93.53,-277.8"/>
<polygon fill="red" stroke="red" stroke-width="0.16" points="91.12,-280.34 100.6,-285.06 96.14,-275.46 91.12,-280.34"/>
<text text-anchor="middle" x="80.12" y="-272.15" font-family="Times,serif" font-size="5.00">&#45;0.275</text>
</g>
<!-- 116848 -->
<g id="node38" class="node">
<title>116848</title>
<ellipse fill="white" stroke="black" cx="35.35" cy="-288.09" rx="35.19" ry="35.19"/>
<text text-anchor="middle" x="35.35" y="-285.39" font-family="Times,serif" font-size="9.00">heaviside</text>
</g>
<!-- 112845&#45;&gt;116848 -->
<g id="edge54" class="edge">
<title>112845&#45;&gt;116848</title>
<path fill="none" stroke="green" stroke-width="0.31" d="M44.52,-269.02C44.48,-269.09 44.45,-269.17 44.41,-269.25"/>
<polygon fill="green" stroke="green" stroke-width="0.31" points="45.48,-258.96 44.29,-269.49 51.79,-261.99 45.48,-258.96"/>
<text text-anchor="middle" x="38.84" y="-270.63" font-family="Times,serif" font-size="5.00">1.060</text>
</g>
<!-- 8793&#45;&gt;0 -->
<g id="edge3" class="edge">
<title>8793&#45;&gt;0</title>
<path fill="none" stroke="red" stroke-width="0.95" d="M259.65,-273.48C260.14,-278.22 260.64,-283 261.11,-287.55"/>
<polygon fill="red" stroke="red" stroke-width="0.95" points="257.65,-288.08 262.17,-297.67 264.61,-287.36 257.65,-288.08"/>
<text text-anchor="middle" x="253.93" y="-282.02" font-family="Times,serif" font-size="5.00">&#45;4.244</text>
</g>
<!-- 8793&#45;&gt;46628 -->
<g id="edge9" class="edge">
<title>8793&#45;&gt;46628</title>
<path fill="none" stroke="green" stroke-width="0.21" d="M260.38,-195.18C260.89,-191.04 261.41,-186.83 261.92,-182.67"/>
<polygon fill="green" stroke="green" stroke-width="0.21" points="265.42,-182.89 263.16,-172.54 258.47,-182.04 265.42,-182.89"/>
<text text-anchor="middle" x="255.53" y="-190.43" font-family="Times,serif" font-size="5.00">0.555</text>
</g>
<!-- 108890&#45;&gt;46628 -->
<g id="edge52" class="edge">
<title>108890&#45;&gt;46628</title>
<path fill="none" stroke="green" stroke-width="0.67" d="M226.88,-97.22C230.78,-101.59 235.01,-106.32 239.21,-111.01"/>
<polygon fill="green" stroke="green" stroke-width="0.67" points="236.9,-113.68 246.17,-118.81 242.12,-109.02 236.9,-113.68"/>
<text text-anchor="middle" x="227.42" y="-105.62" font-family="Times,serif" font-size="5.00">2.870</text>
</g>
<!-- 73822&#45;&gt;46995 -->
<g id="edge20" class="edge">
<title>73822&#45;&gt;46995</title>
<path fill="none" stroke="green" stroke-width="0.33" stroke-dasharray="1,5" d="M370.1,-323.93C369.97,-324.08 369.84,-324.22 369.72,-324.36"/>
<polygon fill="green" stroke="green" stroke-width="0.33" points="371.12,-317.53 367.07,-327.33 376.34,-322.2 371.12,-317.53"/>
<text text-anchor="middle" x="364.28" y="-319.65" font-family="Times,serif" font-size="5.00">1.166</text>
</g>
<!-- 73822&#45;&gt;61988 -->
<g id="edge14" class="edge">
<title>73822&#45;&gt;61988</title>
<path fill="none" stroke="green" stroke-width="1" stroke-dasharray="1,5" d="M406.05,-273.76C409.98,-266.85 414.23,-259.37 418.27,-252.26"/>
<polygon fill="green" stroke="green" stroke-width="1" points="421.33,-253.95 423.23,-243.52 415.24,-250.49 421.33,-253.95"/>
<text text-anchor="middle" x="417.78" y="-264.51" font-family="Times,serif" font-size="5.00">4.482</text>
</g>
<!-- 73822&#45;&gt;47274 -->
<g id="edge49" class="edge">
<title>73822&#45;&gt;47274</title>
<path fill="none" stroke="green" stroke-width="0.31" stroke-dasharray="1,5" d="M414.42,-320.93C414.48,-320.99 414.55,-321.04 414.61,-321.1"/>
<polygon fill="green" stroke="green" stroke-width="0.31" points="404.9,-317.51 414.81,-321.26 409.4,-312.15 404.9,-317.51"/>
<text text-anchor="middle" x="408.89" y="-322.52" font-family="Times,serif" font-size="5.00">1.059</text>
</g>
<!-- 73822&#45;&gt;116657 -->
<g id="edge50" class="edge">
<title>73822&#45;&gt;116657</title>
<path fill="none" stroke="green" stroke-width="0.42" stroke-dasharray="1,5" d="M417.42,-285.35C426.07,-280.31 435.68,-274.72 444.42,-269.63"/>
<polygon fill="green" stroke="green" stroke-width="0.42" points="446.26,-272.62 453.14,-264.56 442.73,-266.57 446.26,-272.62"/>
<text text-anchor="middle" x="436.55" y="-278.99" font-family="Times,serif" font-size="5.00">1.607</text>
</g>
<!-- 73822&#45;&gt;112692 -->
<g id="edge48" class="edge">
<title>73822&#45;&gt;112692</title>
<path fill="none" stroke="red" stroke-width="0.14" stroke-dasharray="1,5" d="M362.18,-313.2C352.38,-317.43 341.25,-322.22 330.83,-326.71"/>
<polygon fill="red" stroke="red" stroke-width="0.14" points="329.32,-323.55 321.52,-330.73 332.09,-329.98 329.32,-323.55"/>
<text text-anchor="middle" x="340.05" y="-315.46" font-family="Times,serif" font-size="5.00">&#45;0.182</text>
</g>
<!-- 73822&#45;&gt;80968 -->
<g id="edge24" class="edge">
<title>73822&#45;&gt;80968</title>
<path fill="none" stroke="red" stroke-width="1.15" stroke-dasharray="1,5" d="M421.23,-294.93C427.05,-293.78 433.16,-292.58 439.04,-291.42"/>
<polygon fill="red" stroke="red" stroke-width="1.15" points="440.13,-294.77 449.26,-289.41 438.77,-287.91 440.13,-294.77"/>
<text text-anchor="middle" x="436.59" y="-288.67" font-family="Times,serif" font-size="5.00">&#45;5.231</text>
</g>
<!-- 112485&#45;&gt;73616 -->
<g id="edge57" class="edge">
<title>112485&#45;&gt;73616</title>
<path fill="none" stroke="red" stroke-width="0.35" d="M174.59,-359.75C178.27,-354.86 182.06,-349.82 185.69,-345.01"/>
<polygon fill="red" stroke="red" stroke-width="0.35" points="188.73,-346.78 191.95,-336.68 183.14,-342.57 188.73,-346.78"/>
<text text-anchor="middle" x="186.6" y="-347.88" font-family="Times,serif" font-size="5.00">&#45;1.228</text>
</g>
<!-- 112485&#45;&gt;104358 -->
<g id="edge37" class="edge">
<title>112485&#45;&gt;104358</title>
<path fill="none" stroke="green" stroke-width="0.38" d="M124.08,-366.62C124.02,-366.57 123.95,-366.52 123.88,-366.47"/>
<polygon fill="green" stroke="green" stroke-width="0.38" points="133.77,-369.58 123.69,-366.32 129.53,-375.16 133.77,-369.58"/>
<text text-anchor="middle" x="118.36" y="-368.04" font-family="Times,serif" font-size="5.00">1.379</text>
</g>
<!-- 112485&#45;&gt;113834 -->
<g id="edge45" class="edge">
<title>112485&#45;&gt;113834</title>
<path fill="none" stroke="green" stroke-width="0.47" d="M184.77,-405.7C186.11,-406.42 187.47,-407.15 188.82,-407.88"/>
<polygon fill="green" stroke="green" stroke-width="0.47" points="187.25,-411.01 197.71,-412.67 190.57,-404.85 187.25,-411.01"/>
<text text-anchor="middle" x="192.42" y="-408.29" font-family="Times,serif" font-size="5.00">1.870</text>
</g>
<!-- 70507 -->
<g id="node37" class="node">
<title>70507</title>
<ellipse fill="white" stroke="black" cx="470.67" cy="-469.92" rx="22.08" ry="22.08"/>
<ellipse fill="none" stroke="black" cx="470.67" cy="-469.92" rx="26.04" ry="26.04"/>
<text text-anchor="middle" x="470.67" y="-467.22" font-family="Times,serif" font-size="9.00">tanh</text>
</g>
<!-- 70507&#45;&gt;80380 -->
<g id="edge43" class="edge">
<title>70507&#45;&gt;80380</title>
<path fill="none" stroke="green" stroke-width="0.72" stroke-dasharray="1,5" d="M455.71,-448.13C452.53,-443.49 449.1,-438.5 445.69,-433.54"/>
<polygon fill="green" stroke="green" stroke-width="0.72" points="448.58,-431.55 440.03,-425.29 442.81,-435.52 448.58,-431.55"/>
<text text-anchor="middle" x="445.08" y="-436.33" font-family="Times,serif" font-size="5.00">3.082</text>
</g>
<!-- 116848&#45;&gt;109643 -->
<g id="edge55" class="edge">
<title>116848&#45;&gt;109643</title>
<path fill="none" stroke="green" stroke-width="0.29" stroke-dasharray="1,5" d="M70.34,-294.74C74.51,-295.53 78.76,-296.34 82.94,-297.13"/>
<polygon fill="green" stroke="green" stroke-width="0.29" points="82.59,-300.63 93.07,-299.05 83.9,-293.75 82.59,-300.63"/>
<text text-anchor="middle" x="82.27" y="-297.43" font-family="Times,serif" font-size="5.00">0.952</text>
</g>
<!-- 117489&#45;&gt;80380 -->
<g id="edge59" class="edge">
<title>117489&#45;&gt;80380</title>
<path fill="none" stroke="red" stroke-width="0.4" d="M408.25,-409.53C408.31,-409.49 408.37,-409.45 408.43,-409.4"/>
<polygon fill="red" stroke="red" stroke-width="0.4" points="402.3,-417.79 408.61,-409.28 398.37,-412 402.3,-417.79"/>
<text text-anchor="middle" x="401.88" y="-410.97" font-family="Times,serif" font-size="5.00">&#45;1.509</text>
</g>
<!-- 77173&#45;&gt;112800 -->
<g id="edge63" class="edge">
<title>77173&#45;&gt;112800</title>
<path fill="none" stroke="red" stroke-width="0.72" d="M373.15,-133.7C373.26,-133.79 373.36,-133.88 373.47,-133.97"/>
<polygon fill="red" stroke="red" stroke-width="0.72" points="368.38,-134.18 378.22,-138.11 372.98,-128.9 368.38,-134.18"/>
<text text-anchor="middle" x="379.77" y="-135.33" font-family="Times,serif" font-size="5.00">&#45;3.079</text>
</g>
<!-- 77173&#45;&gt;46628 -->
<g id="edge16" class="edge">
<title>77173&#45;&gt;46628</title>
<path fill="none" stroke="green" stroke-width="0.18" stroke-dasharray="1,5" d="M314.4,-123.52C311.28,-124.74 308.1,-125.97 304.94,-127.2"/>
<polygon fill="green" stroke="green" stroke-width="0.18" points="303.63,-123.96 295.58,-130.85 306.17,-130.48 303.63,-123.96"/>
<text text-anchor="middle" x="304.04" y="-126.86" font-family="Times,serif" font-size="5.00">0.422</text>
</g>
<!-- 77173&#45;&gt;79017 -->
<g id="edge18" class="edge">
<title>77173&#45;&gt;79017</title>
<path fill="none" stroke="red" stroke-width="0.27" d="M355.48,-76.89C356,-74.79 356.53,-72.67 357.07,-70.55"/>
<polygon fill="red" stroke="red" stroke-width="0.27" points="360.49,-71.27 359.53,-60.72 353.7,-69.57 360.49,-71.27"/>
<text text-anchor="middle" x="349.81" y="-69.22" font-family="Times,serif" font-size="5.00">&#45;0.844</text>
</g>
<!-- 77558&#45;&gt;46628 -->
<g id="edge17" class="edge">
<title>77558&#45;&gt;46628</title>
<path fill="none" stroke="red" stroke-width="0.14" d="M281.54,-79.51C279.84,-86.76 278.01,-94.58 276.24,-102.15"/>
<polygon fill="red" stroke="red" stroke-width="0.14" points="272.83,-101.36 273.96,-111.89 279.64,-102.96 272.83,-101.36"/>
<text text-anchor="middle" x="285.35" y="-92.33" font-family="Times,serif" font-size="5.00">&#45;0.181</text>
</g>
<!-- 80380&#45;&gt;47274 -->
<g id="edge64" class="edge">
<title>80380&#45;&gt;47274</title>
<path fill="none" stroke="green" stroke-width="0.26" stroke-dasharray="1,5" d="M426,-369.22C426.01,-369.16 426.02,-369.09 426.02,-369.02"/>
<polygon fill="green" stroke="green" stroke-width="0.26" points="428.4,-379.15 426.05,-368.82 421.45,-378.36 428.4,-379.15"/>
<text text-anchor="middle" x="431.64" y="-370.62" font-family="Times,serif" font-size="5.00">0.821</text>
</g>
<!-- 110462&#45;&gt;109643 -->
<g id="edge35" class="edge">
<title>110462&#45;&gt;109643</title>
<path fill="none" stroke="green" stroke-width="0.47" stroke-dasharray="1,5" d="M119.81,-276.72C119.8,-276.89 119.8,-277.05 119.79,-277.22"/>
<polygon fill="green" stroke="green" stroke-width="0.47" points="116.57,-267.62 119.78,-277.72 123.57,-267.82 116.57,-267.62"/>
<text text-anchor="middle" x="114.17" y="-278.47" font-family="Times,serif" font-size="5.00">1.833</text>
</g>
<!-- 110462&#45;&gt;112845 -->
<g id="edge39" class="edge">
<title>110462&#45;&gt;112845</title>
<path fill="none" stroke="red" stroke-width="0.28" d="M84.97,-240.92C84.91,-240.92 84.86,-240.92 84.8,-240.92"/>
<polygon fill="red" stroke="red" stroke-width="0.28" points="94.6,-237.32 84.64,-240.93 94.67,-244.32 94.6,-237.32"/>
<text text-anchor="middle" x="78.43" y="-242.42" font-family="Times,serif" font-size="5.00">&#45;0.895</text>
</g>
</g>
</svg>
