<?xml version="1.0" encoding="UTF-8" standalone="no"?>
<!DOCTYPE svg PUBLIC "-//W3C//DTD SVG 1.1//EN"
 "http://www.w3.org/Graphics/SVG/1.1/DTD/svg11.dtd">
<!-- Generated by graphviz version 2.47.1 (20210417.1919)
 -->
<!-- Pages: 1 -->
<svg width="245pt" height="285pt"
 viewBox="0.00 0.00 244.76 284.96" xmlns="http://www.w3.org/2000/svg" xmlns:xlink="http://www.w3.org/1999/xlink">
<g id="graph0" class="graph" transform="scale(1 1) rotate(0) translate(4 280.96)">
<polygon fill="white" stroke="transparent" points="-4,4 -4,-280.96 240.76,-280.96 240.76,4 -4,4"/>
<!-- &#45;1 -->
<g id="node1" class="node">
<title>&#45;1</title>
<polygon fill="lightgray" stroke="black" points="48.68,-176.14 24.67,-176.14 24.67,-157.54 48.68,-157.54 48.68,-176.14"/>
<text text-anchor="middle" x="36.67" y="-164.14" font-family="Times,serif" font-size="9.00">&#45;1</text>
</g>
<!-- 112776 -->
<g id="node6" class="node">
<title>112776</title>
<ellipse fill="white" stroke="black" cx="30.76" cy="-241.52" rx="30.52" ry="30.52"/>
<text text-anchor="middle" x="30.76" y="-238.82" font-family="Times,serif" font-size="9.00">identity</text>
</g>
<!-- &#45;1&#45;&gt;112776 -->
<g id="edge10" class="edge">
<title>&#45;1&#45;&gt;112776</title>
<path fill="none" stroke="green" stroke-width="0.21" stroke-dasharray="1,5" d="M35.93,-176.3C35.42,-182.7 34.71,-191.63 33.98,-200.84"/>
<polygon fill="green" stroke="green" stroke-width="0.21" points="30.49,-200.59 33.19,-210.84 37.47,-201.15 30.49,-200.59"/>
<text text-anchor="middle" x="29.33" y="-190.07" font-family="Times,serif" font-size="5.00">0.547</text>
</g>
<!-- 40014 -->
<g id="node7" class="node">
<title>40014</title>
<ellipse fill="white" stroke="black" cx="128.56" cy="-146.46" rx="31.65" ry="31.65"/>
<text text-anchor="middle" x="128.56" y="-143.76" font-family="Times,serif" font-size="9.00">sigmoid</text>
</g>
<!-- &#45;1&#45;&gt;40014 -->
<g id="edge6" class="edge">
<title>&#45;1&#45;&gt;40014</title>
<path fill="none" stroke="red" stroke-width="0.93" stroke-dasharray="1,5" d="M48.69,-164.17C58.55,-161.99 73.13,-158.75 87.15,-155.65"/>
<polygon fill="red" stroke="red" stroke-width="0.93" points="88.17,-159 97.17,-153.42 86.65,-152.17 88.17,-159"/>
<text text-anchor="middle" x="61.46" y="-161.41" font-family="Times,serif" font-size="5.00">&#45;4.161</text>
</g>
<!-- 45146 -->
<g id="node9" class="node">
<title>45146</title>
<ellipse fill="white" stroke="black" cx="67.59" cy="-122.26" rx="30.55" ry="30.55"/>
<ellipse fill="none" stroke="black" cx="67.59" cy="-122.26" rx="34.52" ry="34.52"/>
<text text-anchor="middle" x="67.59" y="-119.56" font-family="Times,serif" font-size="9.00">identity</text>
</g>
<!-- &#45;1&#45;&gt;45146 -->
<g id="edge11" class="edge">
<title>&#45;1&#45;&gt;45146</title>
<path fill="none" stroke="green" stroke-width="0.56" d="M43.23,-157.39C43.32,-157.26 43.4,-157.14 43.49,-157.02"/>
<polygon fill="green" stroke="green" stroke-width="0.56" points="44.79,-161.28 47.61,-151.07 39.04,-157.29 44.79,-161.28"/>
<text text-anchor="middle" x="48.98" y="-158.7" font-family="Times,serif" font-size="5.00">2.278</text>
</g>
<!-- &#45;2 -->
<g id="node2" class="node">
<title>&#45;2</title>
<polygon fill="lightgray" stroke="black" points="111.84,-214.98 87.83,-214.98 87.83,-196.37 111.84,-196.37 111.84,-214.98"/>
<text text-anchor="middle" x="99.84" y="-202.98" font-family="Times,serif" font-size="9.00">&#45;2</text>
</g>
<!-- 0 -->
<g id="node5" class="node">
<title>0</title>
<ellipse fill="lightblue" stroke="black" cx="171.22" cy="-214.15" rx="14.49" ry="14.49"/>
<ellipse fill="none" stroke="black" cx="171.22" cy="-214.15" rx="18.49" ry="18.49"/>
<text text-anchor="middle" x="171.22" y="-211.45" font-family="Times,serif" font-size="9.00">0</text>
</g>
<!-- &#45;2&#45;&gt;0 -->
<g id="edge1" class="edge">
<title>&#45;2&#45;&gt;0</title>
<path fill="none" stroke="green" stroke-width="0.93" d="M111.62,-207.08C120.08,-208.08 131.86,-209.48 142.72,-210.77"/>
<polygon fill="green" stroke="green" stroke-width="0.93" points="142.36,-214.25 152.7,-211.96 143.19,-207.3 142.36,-214.25"/>
<text text-anchor="middle" x="121.55" y="-210.42" font-family="Times,serif" font-size="5.00">4.145</text>
</g>
<!-- &#45;2&#45;&gt;112776 -->
<g id="edge14" class="edge">
<title>&#45;2&#45;&gt;112776</title>
<path fill="none" stroke="red" stroke-width="0.44" d="M87.8,-211.92C82.04,-214.91 74.8,-218.67 67.43,-222.49"/>
<polygon fill="red" stroke="red" stroke-width="0.44" points="65.39,-219.61 58.12,-227.32 68.61,-225.82 65.39,-219.61"/>
<text text-anchor="middle" x="71.16" y="-218.71" font-family="Times,serif" font-size="5.00">&#45;1.691</text>
</g>
<!-- &#45;2&#45;&gt;40014 -->
<g id="edge3" class="edge">
<title>&#45;2&#45;&gt;40014</title>
<path fill="none" stroke="green" stroke-width="1.38" d="M104.45,-196.16C106.11,-192.75 108.09,-188.65 110.2,-184.3"/>
<polygon fill="green" stroke="green" stroke-width="1.38" points="113.43,-185.67 114.65,-175.15 107.13,-182.62 113.43,-185.67"/>
<text text-anchor="middle" x="101.7" y="-191.73" font-family="Times,serif" font-size="5.00">6.424</text>
</g>
<!-- &#45;2&#45;&gt;45146 -->
<g id="edge9" class="edge">
<title>&#45;2&#45;&gt;45146</title>
<path fill="none" stroke="red" stroke-width="0.4" d="M96.14,-196.11C93.06,-188.14 88.44,-176.2 83.81,-164.23"/>
<polygon fill="red" stroke="red" stroke-width="0.4" points="87,-162.76 80.13,-154.7 80.47,-165.29 87,-162.76"/>
<text text-anchor="middle" x="83.52" y="-181.67" font-family="Times,serif" font-size="5.00">&#45;1.515</text>
</g>
<!-- &#45;3 -->
<g id="node3" class="node">
<title>&#45;3</title>
<polygon fill="lightgray" stroke="black" points="211.81,-18.7 187.81,-18.7 187.81,-0.1 211.81,-0.1 211.81,-18.7"/>
<text text-anchor="middle" x="199.81" y="-6.7" font-family="Times,serif" font-size="9.00">&#45;3</text>
</g>
<!-- 113240 -->
<g id="node8" class="node">
<title>113240</title>
<ellipse fill="white" stroke="black" cx="170.36" cy="-78.03" rx="31.67" ry="31.67"/>
<ellipse fill="none" stroke="black" cx="170.36" cy="-78.03" rx="35.65" ry="35.65"/>
<text text-anchor="middle" x="170.36" y="-75.33" font-family="Times,serif" font-size="9.00">sigmoid</text>
</g>
<!-- &#45;3&#45;&gt;113240 -->
<g id="edge12" class="edge">
<title>&#45;3&#45;&gt;113240</title>
<path fill="none" stroke="green" stroke-width="0.51" stroke-dasharray="1,5" d="M195.71,-18.94C193.74,-23.55 191.22,-29.42 188.53,-35.68"/>
<polygon fill="green" stroke="green" stroke-width="0.51" points="185.26,-34.43 184.53,-45 191.69,-37.19 185.26,-34.43"/>
<text text-anchor="middle" x="186.5" y="-28.81" font-family="Times,serif" font-size="5.00">2.061</text>
</g>
<!-- &#45;4 -->
<g id="node4" class="node">
<title>&#45;4</title>
<polygon fill="lightgray" stroke="black" points="237.02,-276.87 213.01,-276.87 213.01,-258.26 237.02,-258.26 237.02,-276.87"/>
<text text-anchor="middle" x="225.01" y="-264.86" font-family="Times,serif" font-size="9.00">&#45;4</text>
</g>
<!-- &#45;4&#45;&gt;0 -->
<g id="edge2" class="edge">
<title>&#45;4&#45;&gt;0</title>
<path fill="none" stroke="green" stroke-width="0.31" stroke-dasharray="1,5" d="M215.64,-258.26C209.1,-251.76 200.1,-242.83 191.91,-234.7"/>
<polygon fill="green" stroke="green" stroke-width="0.31" points="194.28,-232.12 184.71,-227.55 189.34,-237.08 194.28,-232.12"/>
<text text-anchor="middle" x="198.15" y="-247.98" font-family="Times,serif" font-size="5.00">1.044</text>
</g>
<!-- 0&#45;&gt;40014 -->
<g id="edge8" class="edge">
<title>0&#45;&gt;40014</title>
<path fill="none" stroke="red" stroke-width="0.39" stroke-dasharray="1,5" d="M166.59,-196.08C163.8,-190.43 160.18,-184.04 156.27,-177.77"/>
<polygon fill="red" stroke="red" stroke-width="0.39" points="159.19,-175.84 150.8,-169.37 153.32,-179.66 159.19,-175.84"/>
<text text-anchor="middle" x="154.97" y="-188.43" font-family="Times,serif" font-size="5.00">&#45;1.465</text>
</g>
<!-- 40014&#45;&gt;0 -->
<g id="edge4" class="edge">
<title>40014&#45;&gt;0</title>
<path fill="none" stroke="red" stroke-width="0.21" d="M139.59,-176.34C143.08,-182.32 147,-188.45 150.88,-194.01"/>
<polygon fill="red" stroke="red" stroke-width="0.21" points="148.13,-196.18 156.89,-202.15 153.77,-192.03 148.13,-196.18"/>
<text text-anchor="middle" x="138.78" y="-186.68" font-family="Times,serif" font-size="5.00">&#45;0.542</text>
</g>
<!-- 40014&#45;&gt;40014 -->
<g id="edge5" class="edge">
<title>40014&#45;&gt;40014</title>
<path fill="none" stroke="red" stroke-width="0.14" stroke-dasharray="1,5" d="M159.7,-153.21C170.08,-153.21 178.39,-150.96 178.39,-146.46 178.39,-143.58 174.98,-141.62 169.8,-140.58"/>
<polygon fill="red" stroke="red" stroke-width="0.14" points="169.97,-137.08 159.7,-139.71 169.37,-144.06 169.97,-137.08"/>
<text text-anchor="middle" x="184.84" y="-144.96" font-family="Times,serif" font-size="5.00">&#45;0.213</text>
</g>
<!-- 113240&#45;&gt;40014 -->
<g id="edge13" class="edge">
<title>113240&#45;&gt;40014</title>
<path fill="none" stroke="green" stroke-width="0.45" d="M151.66,-108.64C151.34,-109.18 151.01,-109.71 150.68,-110.25"/>
<polygon fill="green" stroke="green" stroke-width="0.45" points="147.62,-108.54 145.4,-118.9 153.6,-112.19 147.62,-108.54"/>
<text text-anchor="middle" x="145.55" y="-110.95" font-family="Times,serif" font-size="5.00">1.729</text>
</g>
<!-- 45146&#45;&gt;40014 -->
<g id="edge7" class="edge">
<title>45146&#45;&gt;40014</title>
<path fill="none" stroke="green" stroke-width="0.29" stroke-dasharray="1,5" d="M100.22,-135.21C100.28,-135.23 100.33,-135.26 100.39,-135.28"/>
<polygon fill="green" stroke="green" stroke-width="0.29" points="89.97,-134.91 100.56,-135.35 92.56,-128.4 89.97,-134.91"/>
<text text-anchor="middle" x="94.68" y="-136.74" font-family="Times,serif" font-size="5.00">0.930</text>
</g>
</g>
</svg>
