<?xml version="1.0" encoding="UTF-8" standalone="no"?>
<!DOCTYPE svg PUBLIC "-//W3C//DTD SVG 1.1//EN"
 "http://www.w3.org/Graphics/SVG/1.1/DTD/svg11.dtd">
<!-- Generated by graphviz version 2.47.1 (20210417.1919)
 -->
<!-- Pages: 1 -->
<svg width="324pt" height="267pt"
 viewBox="0.00 0.00 323.86 266.64" xmlns="http://www.w3.org/2000/svg" xmlns:xlink="http://www.w3.org/1999/xlink">
<g id="graph0" class="graph" transform="scale(1 1) rotate(0) translate(4 262.64)">
<polygon fill="white" stroke="transparent" points="-4,4 -4,-262.64 319.86,-262.64 319.86,4 -4,4"/>
<!-- &#45;1 -->
<g id="node1" class="node">
<title>&#45;1</title>
<polygon fill="lightgray" stroke="black" points="36.59,-159.04 12.59,-159.04 12.59,-140.44 36.59,-140.44 36.59,-159.04"/>
<text text-anchor="middle" x="24.59" y="-147.04" font-family="Times,serif" font-size="9.00">&#45;1</text>
</g>
<!-- 9144 -->
<g id="node10" class="node">
<title>9144</title>
<ellipse fill="white" stroke="black" cx="81.02" cy="-89.89" rx="22.04" ry="22.04"/>
<text text-anchor="middle" x="81.02" y="-87.19" font-family="Times,serif" font-size="9.00">tanh</text>
</g>
<!-- &#45;1&#45;&gt;9144 -->
<g id="edge2" class="edge">
<title>&#45;1&#45;&gt;9144</title>
<path fill="none" stroke="red" stroke-width="0.14" stroke-dasharray="1,5" d="M33.41,-140.39C40.09,-133.3 49.59,-123.22 58.35,-113.94"/>
<polygon fill="red" stroke="red" stroke-width="0.14" points="61.14,-116.08 65.45,-106.4 56.05,-111.28 61.14,-116.08"/>
<text text-anchor="middle" x="39.42" y="-128.66" font-family="Times,serif" font-size="5.00">&#45;0.220</text>
</g>
<!-- &#45;2 -->
<g id="node2" class="node">
<title>&#45;2</title>
<polygon fill="lightgray" stroke="black" points="244.03,-117.13 220.03,-117.13 220.03,-98.53 244.03,-98.53 244.03,-117.13"/>
<text text-anchor="middle" x="232.03" y="-105.13" font-family="Times,serif" font-size="9.00">&#45;2</text>
</g>
<!-- 0 -->
<g id="node5" class="node">
<title>0</title>
<ellipse fill="lightblue" stroke="black" cx="155.92" cy="-116.92" rx="14.49" ry="14.49"/>
<ellipse fill="none" stroke="black" cx="155.92" cy="-116.92" rx="18.49" ry="18.49"/>
<text text-anchor="middle" x="155.92" y="-114.22" font-family="Times,serif" font-size="9.00">0</text>
</g>
<!-- &#45;2&#45;&gt;0 -->
<g id="edge1" class="edge">
<title>&#45;2&#45;&gt;0</title>
<path fill="none" stroke="green" stroke-width="0.32" d="M220.14,-109.25C210.69,-110.38 197.09,-112 184.83,-113.47"/>
<polygon fill="green" stroke="green" stroke-width="0.32" points="184.05,-110.03 174.54,-114.7 184.89,-116.99 184.05,-110.03"/>
<text text-anchor="middle" x="196.86" y="-112.86" font-family="Times,serif" font-size="5.00">1.101</text>
</g>
<!-- 14945 -->
<g id="node6" class="node">
<title>14945</title>
<ellipse fill="white" stroke="black" cx="209.27" cy="-171.41" rx="31.65" ry="31.65"/>
<text text-anchor="middle" x="209.27" y="-168.71" font-family="Times,serif" font-size="9.00">sigmoid</text>
</g>
<!-- &#45;2&#45;&gt;14945 -->
<g id="edge7" class="edge">
<title>&#45;2&#45;&gt;14945</title>
<path fill="none" stroke="green" stroke-width="0.3" d="M228.67,-117.21C227.23,-121.22 225.45,-126.21 223.55,-131.52"/>
<polygon fill="green" stroke="green" stroke-width="0.3" points="220.13,-130.69 220.05,-141.28 226.72,-133.05 220.13,-130.69"/>
<text text-anchor="middle" x="220.48" y="-125.86" font-family="Times,serif" font-size="5.00">1.000</text>
</g>
<!-- 15376 -->
<g id="node9" class="node">
<title>15376</title>
<ellipse fill="white" stroke="black" cx="284.04" cy="-161.84" rx="31.65" ry="31.65"/>
<text text-anchor="middle" x="284.04" y="-159.14" font-family="Times,serif" font-size="9.00">sigmoid</text>
</g>
<!-- &#45;2&#45;&gt;15376 -->
<g id="edge9" class="edge">
<title>&#45;2&#45;&gt;15376</title>
<path fill="none" stroke="green" stroke-width="0.3" d="M241.09,-117.24C244.92,-121.22 249.62,-126.1 254.49,-131.16"/>
<polygon fill="green" stroke="green" stroke-width="0.3" points="252.21,-133.84 261.67,-138.61 257.25,-128.98 252.21,-133.84"/>
<text text-anchor="middle" x="242.16" y="-125.7" font-family="Times,serif" font-size="5.00">1.000</text>
</g>
<!-- &#45;3 -->
<g id="node3" class="node">
<title>&#45;3</title>
<polygon fill="lightgray" stroke="black" points="193.75,-69.7 169.75,-69.7 169.75,-51.1 193.75,-51.1 193.75,-69.7"/>
<text text-anchor="middle" x="181.75" y="-57.7" font-family="Times,serif" font-size="9.00">&#45;3</text>
</g>
<!-- &#45;4 -->
<g id="node4" class="node">
<title>&#45;4</title>
<polygon fill="lightgray" stroke="black" points="89.94,-18.7 65.94,-18.7 65.94,-0.1 89.94,-0.1 89.94,-18.7"/>
<text text-anchor="middle" x="77.94" y="-6.7" font-family="Times,serif" font-size="9.00">&#45;4</text>
</g>
<!-- 14607 -->
<g id="node8" class="node">
<title>14607</title>
<ellipse fill="white" stroke="black" cx="22.27" cy="-40.99" rx="22.04" ry="22.04"/>
<text text-anchor="middle" x="22.27" y="-38.29" font-family="Times,serif" font-size="9.00">tanh</text>
</g>
<!-- &#45;4&#45;&gt;14607 -->
<g id="edge5" class="edge">
<title>&#45;4&#45;&gt;14607</title>
<path fill="none" stroke="red" stroke-width="0.12" stroke-dasharray="1,5" d="M66.13,-16.1C61.64,-18.65 56.29,-21.68 50.9,-24.74"/>
<polygon fill="red" stroke="red" stroke-width="0.12" points="48.92,-21.84 41.95,-29.82 52.37,-27.93 48.92,-21.84"/>
<text text-anchor="middle" x="52.06" y="-21.92" font-family="Times,serif" font-size="5.00">&#45;0.118</text>
</g>
<!-- &#45;4&#45;&gt;9144 -->
<g id="edge4" class="edge">
<title>&#45;4&#45;&gt;9144</title>
<path fill="none" stroke="red" stroke-width="0.43" d="M78.3,-18.95C78.67,-28.44 79.25,-43.54 79.78,-57.37"/>
<polygon fill="red" stroke="red" stroke-width="0.43" points="76.29,-57.73 80.17,-67.59 83.28,-57.46 76.29,-57.73"/>
<text text-anchor="middle" x="72.58" y="-39.66" font-family="Times,serif" font-size="5.00">&#45;1.640</text>
</g>
<!-- 14945&#45;&gt;0 -->
<g id="edge8" class="edge">
<title>14945&#45;&gt;0</title>
<path fill="none" stroke="red" stroke-width="0.49" d="M186.96,-148.62C183.29,-144.88 179.52,-141.02 175.92,-137.34"/>
<polygon fill="red" stroke="red" stroke-width="0.49" points="178.36,-134.83 168.86,-130.14 173.36,-139.73 178.36,-134.83"/>
<text text-anchor="middle" x="174.98" y="-138.48" font-family="Times,serif" font-size="5.00">&#45;1.966</text>
</g>
<!-- 14541 -->
<g id="node7" class="node">
<title>14541</title>
<ellipse fill="white" stroke="black" cx="120.82" cy="-222.82" rx="31.67" ry="31.67"/>
<ellipse fill="none" stroke="black" cx="120.82" cy="-222.82" rx="35.65" ry="35.65"/>
<text text-anchor="middle" x="120.82" y="-220.12" font-family="Times,serif" font-size="9.00">sigmoid</text>
</g>
<!-- 14607&#45;&gt;9144 -->
<g id="edge6" class="edge">
<title>14607&#45;&gt;9144</title>
<path fill="none" stroke="green" stroke-width="0.11" stroke-dasharray="1,5" d="M39.58,-55.4C44.67,-59.64 50.35,-64.36 55.84,-68.93"/>
<polygon fill="green" stroke="green" stroke-width="0.11" points="53.71,-71.71 63.63,-75.42 58.19,-66.33 53.71,-71.71"/>
<text text-anchor="middle" x="53.33" y="-63.66" font-family="Times,serif" font-size="5.00">0.065</text>
</g>
<!-- 15376&#45;&gt;14945 -->
<g id="edge10" class="edge">
<title>15376&#45;&gt;14945</title>
<path fill="none" stroke="green" stroke-width="0.29" stroke-dasharray="1,5" d="M252.33,-165.9C251.99,-165.94 251.64,-165.99 251.3,-166.03"/>
<polygon fill="green" stroke="green" stroke-width="0.29" points="250.74,-162.58 241.27,-167.32 251.63,-169.52 250.74,-162.58"/>
<text text-anchor="middle" x="246.19" y="-167.47" font-family="Times,serif" font-size="5.00">0.967</text>
</g>
<!-- 9144&#45;&gt;0 -->
<g id="edge3" class="edge">
<title>9144&#45;&gt;0</title>
<path fill="none" stroke="red" stroke-width="0.22" stroke-dasharray="1,5" d="M102.28,-97.56C110.58,-100.56 120.19,-104.03 128.96,-107.19"/>
<polygon fill="red" stroke="red" stroke-width="0.22" points="127.8,-110.49 138.4,-110.6 130.18,-103.91 127.8,-110.49"/>
<text text-anchor="middle" x="122.08" y="-103.88" font-family="Times,serif" font-size="5.00">&#45;0.622</text>
</g>
</g>
</svg>
