<?xml version="1.0" encoding="UTF-8" standalone="no"?>
<!DOCTYPE svg PUBLIC "-//W3C//DTD SVG 1.1//EN"
 "http://www.w3.org/Graphics/SVG/1.1/DTD/svg11.dtd">
<!-- Generated by graphviz version 2.47.1 (20210417.1919)
 -->
<!-- Pages: 1 -->
<svg width="175pt" height="150pt"
 viewBox="0.00 0.00 175.15 150.15" xmlns="http://www.w3.org/2000/svg" xmlns:xlink="http://www.w3.org/1999/xlink">
<g id="graph0" class="graph" transform="scale(1 1) rotate(0) translate(4 146.15)">
<polygon fill="white" stroke="transparent" points="-4,4 -4,-146.15 171.15,-146.15 171.15,4 -4,4"/>
<!-- &#45;1 -->
<g id="node1" class="node">
<title>&#45;1</title>
<polygon fill="lightgray" stroke="black" points="48.55,-117.67 24.55,-117.67 24.55,-99.07 48.55,-99.07 48.55,-117.67"/>
<text text-anchor="middle" x="36.55" y="-105.67" font-family="Times,serif" font-size="9.00">&#45;1</text>
</g>
<!-- 0 -->
<g id="node5" class="node">
<title>0</title>
<ellipse fill="lightblue" stroke="black" cx="104.44" cy="-72.84" rx="14.49" ry="14.49"/>
<ellipse fill="none" stroke="black" cx="104.44" cy="-72.84" rx="18.49" ry="18.49"/>
<text text-anchor="middle" x="104.44" y="-70.14" font-family="Times,serif" font-size="9.00">0</text>
</g>
<!-- &#45;1&#45;&gt;0 -->
<g id="edge1" class="edge">
<title>&#45;1&#45;&gt;0</title>
<path fill="none" stroke="red" stroke-width="0.53" stroke-dasharray="1,5" d="M48.37,-102.18C56.75,-97.8 68.31,-91.75 78.76,-86.28"/>
<polygon fill="red" stroke="red" stroke-width="0.53" points="80.68,-89.22 87.92,-81.49 77.43,-83.02 80.68,-89.22"/>
<text text-anchor="middle" x="57.11" y="-95.73" font-family="Times,serif" font-size="5.00">&#45;2.132</text>
</g>
<!-- 691 -->
<g id="node6" class="node">
<title>691</title>
<ellipse fill="white" stroke="black" cx="34.76" cy="-40.94" rx="30.55" ry="30.55"/>
<ellipse fill="none" stroke="black" cx="34.76" cy="-40.94" rx="34.52" ry="34.52"/>
<text text-anchor="middle" x="34.76" y="-38.24" font-family="Times,serif" font-size="9.00">identity</text>
</g>
<!-- &#45;1&#45;&gt;691 -->
<g id="edge5" class="edge">
<title>&#45;1&#45;&gt;691</title>
<path fill="none" stroke="green" stroke-width="0.28" stroke-dasharray="1,5" d="M36.3,-98.99C36.2,-95.34 36.08,-90.87 35.96,-86.05"/>
<polygon fill="green" stroke="green" stroke-width="0.28" points="39.45,-85.71 35.68,-75.81 32.45,-85.9 39.45,-85.71"/>
<text text-anchor="middle" x="30.5" y="-94.02" font-family="Times,serif" font-size="5.00">0.919</text>
</g>
<!-- &#45;2 -->
<g id="node2" class="node">
<title>&#45;2</title>
<polygon fill="lightgray" stroke="black" points="167.41,-142.05 143.4,-142.05 143.4,-123.45 167.41,-123.45 167.41,-142.05"/>
<text text-anchor="middle" x="155.4" y="-130.05" font-family="Times,serif" font-size="9.00">&#45;2</text>
</g>
<!-- &#45;2&#45;&gt;0 -->
<g id="edge2" class="edge">
<title>&#45;2&#45;&gt;0</title>
<path fill="none" stroke="red" stroke-width="0.35" d="M147.44,-123.39C140.97,-115.78 131.57,-104.73 123.21,-94.91"/>
<polygon fill="red" stroke="red" stroke-width="0.35" points="125.66,-92.39 116.52,-87.04 120.33,-96.92 125.66,-92.39"/>
<text text-anchor="middle" x="128.87" y="-110.65" font-family="Times,serif" font-size="5.00">&#45;1.267</text>
</g>
<!-- &#45;3 -->
<g id="node3" class="node">
<title>&#45;3</title>
<polygon fill="lightgray" stroke="black" points="163.11,-18.7 139.11,-18.7 139.11,-0.1 163.11,-0.1 163.11,-18.7"/>
<text text-anchor="middle" x="151.11" y="-6.7" font-family="Times,serif" font-size="9.00">&#45;3</text>
</g>
<!-- &#45;3&#45;&gt;0 -->
<g id="edge3" class="edge">
<title>&#45;3&#45;&gt;0</title>
<path fill="none" stroke="green" stroke-width="0.37" stroke-dasharray="1,5" d="M144.22,-18.76C138.3,-26.81 129.5,-38.77 121.68,-49.4"/>
<polygon fill="green" stroke="green" stroke-width="0.37" points="118.81,-47.41 115.7,-57.53 124.44,-51.55 118.81,-47.41"/>
<text text-anchor="middle" x="127.33" y="-35.58" font-family="Times,serif" font-size="5.00">1.360</text>
</g>
<!-- &#45;4 -->
<g id="node4" class="node">
<title>&#45;4</title>
<polygon fill="lightgray" stroke="black" points="114.75,-135.7 90.75,-135.7 90.75,-117.1 114.75,-117.1 114.75,-135.7"/>
<text text-anchor="middle" x="102.75" y="-123.7" font-family="Times,serif" font-size="9.00">&#45;4</text>
</g>
<!-- 0&#45;&gt;0 -->
<g id="edge4" class="edge">
<title>0&#45;&gt;0</title>
<path fill="none" stroke="red" stroke-width="0.13" stroke-dasharray="1,5" d="M122.09,-79.27C131.9,-80.47 140.93,-78.33 140.93,-72.84 140.93,-69.41 137.41,-67.29 132.36,-66.47"/>
<polygon fill="red" stroke="red" stroke-width="0.13" points="132.11,-62.97 122.09,-66.41 132.07,-69.97 132.11,-62.97"/>
<text text-anchor="middle" x="147.39" y="-71.34" font-family="Times,serif" font-size="5.00">&#45;0.139</text>
</g>
<!-- 0&#45;&gt;691 -->
<g id="edge7" class="edge">
<title>0&#45;&gt;691</title>
<path fill="none" stroke="green" stroke-width="0.15" d="M90.69,-60.17C86.92,-57.95 82.62,-55.66 78.12,-53.46"/>
<polygon fill="green" stroke="green" stroke-width="0.15" points="79.25,-50.12 68.7,-49.09 76.3,-56.47 79.25,-50.12"/>
<text text-anchor="middle" x="78.78" y="-58.31" font-family="Times,serif" font-size="5.00">0.267</text>
</g>
<!-- 691&#45;&gt;0 -->
<g id="edge6" class="edge">
<title>691&#45;&gt;0</title>
<path fill="none" stroke="red" stroke-width="0.8" stroke-dasharray="1,5" d="M63.13,-61.32C67.42,-63.37 71.85,-65.33 76.13,-67.07"/>
<polygon fill="red" stroke="red" stroke-width="0.8" points="75.17,-70.45 85.76,-70.68 77.63,-63.89 75.17,-70.45"/>
<text text-anchor="middle" x="76.09" y="-65.69" font-family="Times,serif" font-size="5.00">&#45;3.495</text>
</g>
</g>
</svg>
