<?xml version="1.0" encoding="UTF-8" standalone="no"?>
<!DOCTYPE svg PUBLIC "-//W3C//DTD SVG 1.1//EN"
 "http://www.w3.org/Graphics/SVG/1.1/DTD/svg11.dtd">
<!-- Generated by graphviz version 2.47.1 (20210417.1919)
 -->
<!-- Pages: 1 -->
<svg width="190pt" height="186pt"
 viewBox="0.00 0.00 190.23 185.53" xmlns="http://www.w3.org/2000/svg" xmlns:xlink="http://www.w3.org/1999/xlink">
<g id="graph0" class="graph" transform="scale(1 1) rotate(0) translate(4 181.53)">
<polygon fill="white" stroke="transparent" points="-4,4 -4,-181.53 186.23,-181.53 186.23,4 -4,4"/>
<!-- &#45;1 -->
<g id="node1" class="node">
<title>&#45;1</title>
<polygon fill="lightgray" stroke="black" points="23.75,-94.13 -0.25,-94.13 -0.25,-75.53 23.75,-75.53 23.75,-94.13"/>
<text text-anchor="middle" x="11.75" y="-82.13" font-family="Times,serif" font-size="9.00">&#45;1</text>
</g>
<!-- 0 -->
<g id="node5" class="node">
<title>0</title>
<ellipse fill="lightblue" stroke="black" cx="91.11" cy="-88.79" rx="14.49" ry="14.49"/>
<text text-anchor="middle" x="91.11" y="-86.09" font-family="Times,serif" font-size="9.00">0</text>
</g>
<!-- &#45;1&#45;&gt;0 -->
<g id="edge1" class="edge">
<title>&#45;1&#45;&gt;0</title>
<path fill="none" stroke="red" stroke-width="0.14" d="M23.8,-85.43C35.07,-85.99 52.23,-86.85 66.4,-87.55"/>
<polygon fill="red" stroke="red" stroke-width="0.14" points="66.35,-91.06 76.51,-88.06 66.7,-84.06 66.35,-91.06"/>
<text text-anchor="middle" x="38.65" y="-87.99" font-family="Times,serif" font-size="5.00">&#45;0.206</text>
</g>
<!-- &#45;2 -->
<g id="node2" class="node">
<title>&#45;2</title>
<polygon fill="lightgray" stroke="black" points="182.49,-101.55 158.48,-101.55 158.48,-82.95 182.49,-82.95 182.49,-101.55"/>
<text text-anchor="middle" x="170.49" y="-89.55" font-family="Times,serif" font-size="9.00">&#45;2</text>
</g>
<!-- &#45;2&#45;&gt;0 -->
<g id="edge2" class="edge">
<title>&#45;2&#45;&gt;0</title>
<path fill="none" stroke="green" stroke-width="0.37" d="M158.43,-91.73C147.16,-91.23 130,-90.49 115.82,-89.87"/>
<polygon fill="green" stroke="green" stroke-width="0.37" points="115.86,-86.36 105.71,-89.42 115.55,-93.36 115.86,-86.36"/>
<text text-anchor="middle" x="142.75" y="-92.3" font-family="Times,serif" font-size="5.00">1.370</text>
</g>
<!-- &#45;3 -->
<g id="node3" class="node">
<title>&#45;3</title>
<polygon fill="lightgray" stroke="black" points="106.37,-18.7 82.37,-18.7 82.37,-0.1 106.37,-0.1 106.37,-18.7"/>
<text text-anchor="middle" x="94.37" y="-6.7" font-family="Times,serif" font-size="9.00">&#45;3</text>
</g>
<!-- &#45;3&#45;&gt;0 -->
<g id="edge3" class="edge">
<title>&#45;3&#45;&gt;0</title>
<path fill="none" stroke="red" stroke-width="0.22" d="M93.98,-18.82C93.53,-29.86 92.76,-48.59 92.13,-63.89"/>
<polygon fill="red" stroke="red" stroke-width="0.22" points="88.62,-64.14 91.71,-74.27 95.62,-64.42 88.62,-64.14"/>
<text text-anchor="middle" x="86.6" y="-42.85" font-family="Times,serif" font-size="5.00">&#45;0.585</text>
</g>
<!-- &#45;4 -->
<g id="node4" class="node">
<title>&#45;4</title>
<polygon fill="lightgray" stroke="black" points="98.9,-177.43 74.9,-177.43 74.9,-158.83 98.9,-158.83 98.9,-177.43"/>
<text text-anchor="middle" x="86.9" y="-165.43" font-family="Times,serif" font-size="9.00">&#45;4</text>
</g>
<!-- &#45;4&#45;&gt;0 -->
<g id="edge4" class="edge">
<title>&#45;4&#45;&gt;0</title>
<path fill="none" stroke="green" stroke-width="0.35" d="M87.4,-158.72C87.99,-147.69 88.98,-128.97 89.79,-113.67"/>
<polygon fill="green" stroke="green" stroke-width="0.35" points="93.31,-113.47 90.34,-103.3 86.32,-113.1 93.31,-113.47"/>
<text text-anchor="middle" x="82.97" y="-137.69" font-family="Times,serif" font-size="5.00">1.227</text>
</g>
<!-- 0&#45;&gt;0 -->
<g id="edge5" class="edge">
<title>0&#45;&gt;0</title>
<path fill="none" stroke="red" stroke-width="0.55" d="M104.47,-94.81C114.06,-96.77 123.61,-94.76 123.61,-88.79 123.61,-85.05 119.88,-82.87 114.74,-82.23"/>
<polygon fill="red" stroke="red" stroke-width="0.55" points="114.27,-78.75 104.47,-82.76 114.63,-85.74 114.27,-78.75"/>
<text text-anchor="middle" x="130.07" y="-87.29" font-family="Times,serif" font-size="5.00">&#45;2.255</text>
</g>
</g>
</svg>
