<?xml version="1.0" encoding="UTF-8" standalone="no"?>
<!DOCTYPE svg PUBLIC "-//W3C//DTD SVG 1.1//EN"
 "http://www.w3.org/Graphics/SVG/1.1/DTD/svg11.dtd">
<!-- Generated by graphviz version 2.47.1 (20210417.1919)
 -->
<!-- Pages: 1 -->
<svg width="204pt" height="191pt"
 viewBox="0.00 0.00 203.75 191.10" xmlns="http://www.w3.org/2000/svg" xmlns:xlink="http://www.w3.org/1999/xlink">
<g id="graph0" class="graph" transform="scale(1 1) rotate(0) translate(4 187.1)">
<polygon fill="white" stroke="transparent" points="-4,4 -4,-187.1 199.75,-187.1 199.75,4 -4,4"/>
<!-- &#45;1 -->
<g id="node1" class="node">
<title>&#45;1</title>
<polygon fill="lightgray" stroke="black" points="23.75,-87.35 -0.25,-87.35 -0.25,-68.75 23.75,-68.75 23.75,-87.35"/>
<text text-anchor="middle" x="11.75" y="-75.35" font-family="Times,serif" font-size="9.00">&#45;1</text>
</g>
<!-- 0 -->
<g id="node5" class="node">
<title>0</title>
<ellipse fill="lightblue" stroke="black" cx="98.32" cy="-90.48" rx="14.49" ry="14.49"/>
<text text-anchor="middle" x="98.32" y="-87.78" font-family="Times,serif" font-size="9.00">0</text>
</g>
<!-- &#45;1&#45;&gt;0 -->
<g id="edge1" class="edge">
<title>&#45;1&#45;&gt;0</title>
<path fill="none" stroke="red" stroke-width="0.38" stroke-dasharray="1,5" d="M23.79,-79.78C36.67,-81.63 57.46,-84.61 73.81,-86.96"/>
<polygon fill="red" stroke="red" stroke-width="0.38" points="73.39,-90.44 83.79,-88.39 74.39,-83.51 73.39,-90.44"/>
<text text-anchor="middle" x="42.34" y="-84.87" font-family="Times,serif" font-size="5.00">&#45;1.403</text>
</g>
<!-- 374 -->
<g id="node7" class="node">
<title>374</title>
<ellipse fill="white" stroke="black" cx="44.71" cy="-22.27" rx="22.04" ry="22.04"/>
<text text-anchor="middle" x="44.71" y="-19.57" font-family="Times,serif" font-size="9.00">tanh</text>
</g>
<!-- &#45;1&#45;&gt;374 -->
<g id="edge8" class="edge">
<title>&#45;1&#45;&gt;374</title>
<path fill="none" stroke="green" stroke-width="0.3" d="M17.34,-68.59C20.32,-63.54 24.16,-57.05 28.02,-50.52"/>
<polygon fill="green" stroke="green" stroke-width="0.3" points="31.13,-52.13 33.2,-41.74 25.1,-48.57 31.13,-52.13"/>
<text text-anchor="middle" x="17.05" y="-61.05" font-family="Times,serif" font-size="5.00">1.018</text>
</g>
<!-- &#45;2 -->
<g id="node2" class="node">
<title>&#45;2</title>
<polygon fill="lightgray" stroke="black" points="196,-94.86 172,-94.86 172,-76.26 196,-76.26 196,-94.86"/>
<text text-anchor="middle" x="184" y="-82.86" font-family="Times,serif" font-size="9.00">&#45;2</text>
</g>
<!-- &#45;2&#45;&gt;0 -->
<g id="edge2" class="edge">
<title>&#45;2&#45;&gt;0</title>
<path fill="none" stroke="green" stroke-width="0.5" d="M172.08,-86.24C159.53,-86.96 139.39,-88.12 123.33,-89.04"/>
<polygon fill="green" stroke="green" stroke-width="0.5" points="122.78,-85.57 113,-89.64 123.18,-92.56 122.78,-85.57"/>
<text text-anchor="middle" x="142.08" y="-83.14" font-family="Times,serif" font-size="5.00">2.015</text>
</g>
<!-- &#45;3 -->
<g id="node3" class="node">
<title>&#45;3</title>
<polygon fill="lightgray" stroke="black" points="132.13,-50.47 108.12,-50.47 108.12,-31.87 132.13,-31.87 132.13,-50.47"/>
<text text-anchor="middle" x="120.12" y="-38.47" font-family="Times,serif" font-size="9.00">&#45;3</text>
</g>
<!-- &#45;3&#45;&gt;0 -->
<g id="edge3" class="edge">
<title>&#45;3&#45;&gt;0</title>
<path fill="none" stroke="red" stroke-width="0.42" d="M115.92,-50.68C113.74,-55.6 110.99,-61.84 108.3,-67.9"/>
<polygon fill="red" stroke="red" stroke-width="0.42" points="105.09,-66.53 104.24,-77.09 111.49,-69.36 105.09,-66.53"/>
<text text-anchor="middle" x="105.65" y="-60.79" font-family="Times,serif" font-size="5.00">&#45;1.600</text>
</g>
<!-- 213 -->
<g id="node6" class="node">
<title>213</title>
<ellipse fill="white" stroke="black" cx="65.35" cy="-129.78" rx="30.52" ry="30.52"/>
<text text-anchor="middle" x="65.35" y="-127.08" font-family="Times,serif" font-size="9.00">identity</text>
</g>
<!-- &#45;3&#45;&gt;213 -->
<g id="edge6" class="edge">
<title>&#45;3&#45;&gt;213</title>
<path fill="none" stroke="green" stroke-width="0.35" stroke-dasharray="1,5" d="M114.26,-50.65C107.74,-61.2 96.83,-78.86 86.96,-94.83"/>
<polygon fill="green" stroke="green" stroke-width="0.35" points="83.9,-93.12 81.62,-103.47 89.86,-96.8 83.9,-93.12"/>
<text text-anchor="middle" x="94.99" y="-68.24" font-family="Times,serif" font-size="5.00">1.245</text>
</g>
<!-- &#45;4 -->
<g id="node4" class="node">
<title>&#45;4</title>
<polygon fill="lightgray" stroke="black" points="136.69,-183 112.69,-183 112.69,-164.4 136.69,-164.4 136.69,-183"/>
<text text-anchor="middle" x="124.69" y="-171" font-family="Times,serif" font-size="9.00">&#45;4</text>
</g>
<!-- &#45;4&#45;&gt;0 -->
<g id="edge4" class="edge">
<title>&#45;4&#45;&gt;0</title>
<path fill="none" stroke="red" stroke-width="0.12" d="M121.67,-164.15C117.81,-151.99 111.02,-130.55 105.75,-113.93"/>
<polygon fill="red" stroke="red" stroke-width="0.12" points="109.07,-112.8 102.71,-104.33 102.39,-114.92 109.07,-112.8"/>
<text text-anchor="middle" x="107.25" y="-140.54" font-family="Times,serif" font-size="5.00">&#45;0.085</text>
</g>
<!-- 0&#45;&gt;0 -->
<g id="edge5" class="edge">
<title>0&#45;&gt;0</title>
<path fill="none" stroke="green" stroke-width="0.27" d="M111.67,-96.5C121.26,-98.46 130.82,-96.46 130.82,-90.48 130.82,-86.75 127.08,-84.56 121.94,-83.93"/>
<polygon fill="green" stroke="green" stroke-width="0.27" points="121.48,-80.44 111.67,-84.46 121.84,-87.44 121.48,-80.44"/>
<text text-anchor="middle" x="136.44" y="-88.98" font-family="Times,serif" font-size="5.00">0.852</text>
</g>
<!-- 213&#45;&gt;0 -->
<g id="edge7" class="edge">
<title>213&#45;&gt;0</title>
<path fill="none" stroke="red" stroke-width="0.28" d="M85.29,-106.01C85.37,-105.93 85.44,-105.84 85.51,-105.75"/>
<polygon fill="red" stroke="red" stroke-width="0.28" points="85.02,-111.78 88.77,-101.87 79.66,-107.28 85.02,-111.78"/>
<text text-anchor="middle" x="91.86" y="-107.38" font-family="Times,serif" font-size="5.00">&#45;0.886</text>
</g>
<!-- 374&#45;&gt;0 -->
<g id="edge9" class="edge">
<title>374&#45;&gt;0</title>
<path fill="none" stroke="red" stroke-width="0.28" stroke-dasharray="1,5" d="M58.52,-39.84C66,-49.36 75.27,-61.16 82.98,-70.97"/>
<polygon fill="red" stroke="red" stroke-width="0.28" points="80.34,-73.27 89.28,-78.97 85.85,-68.95 80.34,-73.27"/>
<text text-anchor="middle" x="64.29" y="-56.9" font-family="Times,serif" font-size="5.00">&#45;0.914</text>
</g>
</g>
</svg>
