<?xml version="1.0" encoding="UTF-8" standalone="no"?>
<!DOCTYPE svg PUBLIC "-//W3C//DTD SVG 1.1//EN"
 "http://www.w3.org/Graphics/SVG/1.1/DTD/svg11.dtd">
<!-- Generated by graphviz version 2.47.1 (20210417.1919)
 -->
<!-- Pages: 1 -->
<svg width="275pt" height="182pt"
 viewBox="0.00 0.00 275.35 182.28" xmlns="http://www.w3.org/2000/svg" xmlns:xlink="http://www.w3.org/1999/xlink">
<g id="graph0" class="graph" transform="scale(1 1) rotate(0) translate(4 178.28)">
<polygon fill="white" stroke="transparent" points="-4,4 -4,-178.28 271.35,-178.28 271.35,4 -4,4"/>
<!-- &#45;1 -->
<g id="node1" class="node">
<title>&#45;1</title>
<polygon fill="lightgray" stroke="black" points="113.59,-117.72 89.59,-117.72 89.59,-99.12 113.59,-99.12 113.59,-117.72"/>
<text text-anchor="middle" x="101.59" y="-105.72" font-family="Times,serif" font-size="9.00">&#45;1</text>
</g>
<!-- 0 -->
<g id="node5" class="node">
<title>0</title>
<ellipse fill="lightblue" stroke="black" cx="178.69" cy="-89.91" rx="14.49" ry="14.49"/>
<text text-anchor="middle" x="178.69" y="-87.21" font-family="Times,serif" font-size="9.00">0</text>
</g>
<!-- &#45;1&#45;&gt;0 -->
<g id="edge1" class="edge">
<title>&#45;1&#45;&gt;0</title>
<path fill="none" stroke="red" stroke-width="0.58" d="M113.64,-105.53C124.57,-102.9 141.02,-98.95 154.64,-95.68"/>
<polygon fill="red" stroke="red" stroke-width="0.58" points="155.46,-99.08 164.37,-93.35 153.83,-92.28 155.46,-99.08"/>
<text text-anchor="middle" x="127.68" y="-102.11" font-family="Times,serif" font-size="5.00">&#45;2.377</text>
</g>
<!-- 450 -->
<g id="node6" class="node">
<title>450</title>
<ellipse fill="white" stroke="black" cx="30.76" cy="-130.87" rx="30.52" ry="30.52"/>
<text text-anchor="middle" x="30.76" y="-128.17" font-family="Times,serif" font-size="9.00">identity</text>
</g>
<!-- &#45;1&#45;&gt;450 -->
<g id="edge6" class="edge">
<title>&#45;1&#45;&gt;450</title>
<path fill="none" stroke="green" stroke-width="0.27" d="M89.58,-112.23C84.04,-113.99 77.12,-116.18 70,-118.44"/>
<polygon fill="green" stroke="green" stroke-width="0.27" points="68.74,-115.16 60.26,-121.52 70.85,-121.84 68.74,-115.16"/>
<text text-anchor="middle" x="74.16" y="-116.83" font-family="Times,serif" font-size="5.00">0.834</text>
</g>
<!-- &#45;2 -->
<g id="node2" class="node">
<title>&#45;2</title>
<polygon fill="lightgray" stroke="black" points="267.6,-80.45 243.6,-80.45 243.6,-61.85 267.6,-61.85 267.6,-80.45"/>
<text text-anchor="middle" x="255.6" y="-68.45" font-family="Times,serif" font-size="9.00">&#45;2</text>
</g>
<!-- &#45;2&#45;&gt;0 -->
<g id="edge2" class="edge">
<title>&#45;2&#45;&gt;0</title>
<path fill="none" stroke="green" stroke-width="0.36" d="M243.58,-74.08C232.78,-76.72 216.58,-80.66 203.08,-83.96"/>
<polygon fill="green" stroke="green" stroke-width="0.36" points="201.86,-80.65 192.97,-86.42 203.52,-87.45 201.86,-80.65"/>
<text text-anchor="middle" x="217.7" y="-80.52" font-family="Times,serif" font-size="5.00">1.281</text>
</g>
<!-- &#45;3 -->
<g id="node3" class="node">
<title>&#45;3</title>
<polygon fill="lightgray" stroke="black" points="182.54,-18.7 158.53,-18.7 158.53,-0.1 182.54,-0.1 182.54,-18.7"/>
<text text-anchor="middle" x="170.53" y="-6.7" font-family="Times,serif" font-size="9.00">&#45;3</text>
</g>
<!-- &#45;3&#45;&gt;0 -->
<g id="edge3" class="edge">
<title>&#45;3&#45;&gt;0</title>
<path fill="none" stroke="green" stroke-width="0.16" stroke-dasharray="1,5" d="M171.5,-18.95C172.65,-30.32 174.62,-49.74 176.2,-65.39"/>
<polygon fill="green" stroke="green" stroke-width="0.16" points="172.74,-65.88 177.23,-75.48 179.7,-65.18 172.74,-65.88"/>
<text text-anchor="middle" x="168.23" y="-43.67" font-family="Times,serif" font-size="5.00">0.306</text>
</g>
<!-- &#45;4 -->
<g id="node4" class="node">
<title>&#45;4</title>
<polygon fill="lightgray" stroke="black" points="221.03,-174.18 197.02,-174.18 197.02,-155.57 221.03,-155.57 221.03,-174.18"/>
<text text-anchor="middle" x="209.02" y="-162.18" font-family="Times,serif" font-size="9.00">&#45;4</text>
</g>
<!-- &#45;4&#45;&gt;0 -->
<g id="edge4" class="edge">
<title>&#45;4&#45;&gt;0</title>
<path fill="none" stroke="green" stroke-width="0.11" d="M205.18,-155.38C200.9,-144.79 193.81,-127.28 188.04,-113.03"/>
<polygon fill="green" stroke="green" stroke-width="0.11" points="191.13,-111.33 184.14,-103.37 184.64,-113.96 191.13,-111.33"/>
<text text-anchor="middle" x="190.99" y="-135.7" font-family="Times,serif" font-size="5.00">0.061</text>
</g>
<!-- 0&#45;&gt;0 -->
<g id="edge5" class="edge">
<title>0&#45;&gt;0</title>
<path fill="none" stroke="red" stroke-width="0.47" stroke-dasharray="1,5" d="M192.04,-95.93C201.63,-97.89 211.18,-95.88 211.18,-89.91 211.18,-86.17 207.45,-83.99 202.31,-83.35"/>
<polygon fill="red" stroke="red" stroke-width="0.47" points="201.84,-79.87 192.04,-83.88 202.21,-86.86 201.84,-79.87"/>
<text text-anchor="middle" x="217.64" y="-88.41" font-family="Times,serif" font-size="5.00">&#45;1.867</text>
</g>
</g>
</svg>
