<?xml version="1.0" encoding="UTF-8" standalone="no"?>
<!DOCTYPE svg PUBLIC "-//W3C//DTD SVG 1.1//EN"
 "http://www.w3.org/Graphics/SVG/1.1/DTD/svg11.dtd">
<!-- Generated by graphviz version 2.47.1 (20210417.1919)
 -->
<!-- Pages: 1 -->
<svg width="163pt" height="151pt"
 viewBox="0.00 0.00 163.00 150.99" xmlns="http://www.w3.org/2000/svg" xmlns:xlink="http://www.w3.org/1999/xlink">
<g id="graph0" class="graph" transform="scale(1 1) rotate(0) translate(4 146.99)">
<polygon fill="white" stroke="transparent" points="-4,4 -4,-146.99 159,-146.99 159,4 -4,4"/>
<!-- &#45;1 -->
<g id="node1" class="node">
<title>&#45;1</title>
<polygon fill="lightgray" stroke="black" points="23.75,-121.21 -0.25,-121.21 -0.25,-102.6 23.75,-102.6 23.75,-121.21"/>
<text text-anchor="middle" x="11.75" y="-109.2" font-family="Times,serif" font-size="9.00">&#45;1</text>
</g>
<!-- 0 -->
<g id="node5" class="node">
<title>0</title>
<ellipse fill="lightblue" stroke="black" cx="83.7" cy="-85.17" rx="14.49" ry="14.49"/>
<ellipse fill="none" stroke="black" cx="83.7" cy="-85.17" rx="18.49" ry="18.49"/>
<text text-anchor="middle" x="83.7" y="-82.47" font-family="Times,serif" font-size="9.00">0</text>
</g>
<!-- &#45;1&#45;&gt;0 -->
<g id="edge1" class="edge">
<title>&#45;1&#45;&gt;0</title>
<path fill="none" stroke="green" stroke-width="0.39" stroke-dasharray="1,5" d="M23.63,-107.49C32.58,-104.16 45.22,-99.47 56.6,-95.24"/>
<polygon fill="green" stroke="green" stroke-width="0.39" points="57.99,-98.46 66.14,-91.69 55.55,-91.9 57.99,-98.46"/>
<text text-anchor="middle" x="34.49" y="-102.87" font-family="Times,serif" font-size="5.00">1.459</text>
</g>
<!-- &#45;2 -->
<g id="node2" class="node">
<title>&#45;2</title>
<polygon fill="lightgray" stroke="black" points="155.26,-142.89 131.26,-142.89 131.26,-124.29 155.26,-124.29 155.26,-142.89"/>
<text text-anchor="middle" x="143.26" y="-130.89" font-family="Times,serif" font-size="9.00">&#45;2</text>
</g>
<!-- &#45;2&#45;&gt;0 -->
<g id="edge2" class="edge">
<title>&#45;2&#45;&gt;0</title>
<path fill="none" stroke="red" stroke-width="0.27" d="M131.77,-124.26C124.5,-118.34 114.85,-110.49 106.1,-103.38"/>
<polygon fill="red" stroke="red" stroke-width="0.27" points="108.07,-100.47 98.1,-96.88 103.65,-105.9 108.07,-100.47"/>
<text text-anchor="middle" x="112.48" y="-115.32" font-family="Times,serif" font-size="5.00">&#45;0.849</text>
</g>
<!-- &#45;3 -->
<g id="node3" class="node">
<title>&#45;3</title>
<polygon fill="lightgray" stroke="black" points="108.17,-18.7 84.17,-18.7 84.17,-0.1 108.17,-0.1 108.17,-18.7"/>
<text text-anchor="middle" x="96.17" y="-6.7" font-family="Times,serif" font-size="9.00">&#45;3</text>
</g>
<!-- &#45;3&#45;&gt;0 -->
<g id="edge3" class="edge">
<title>&#45;3&#45;&gt;0</title>
<path fill="none" stroke="green" stroke-width="0.26" stroke-dasharray="1,5" d="M94.59,-19C93.04,-28.42 90.6,-43.28 88.42,-56.53"/>
<polygon fill="green" stroke="green" stroke-width="0.26" points="84.92,-56.24 86.75,-66.67 91.82,-57.38 84.92,-56.24"/>
<text text-anchor="middle" x="85.88" y="-39.26" font-family="Times,serif" font-size="5.00">0.792</text>
</g>
<!-- &#45;4 -->
<g id="node4" class="node">
<title>&#45;4</title>
<polygon fill="lightgray" stroke="black" points="153.75,-57.7 129.75,-57.7 129.75,-39.1 153.75,-39.1 153.75,-57.7"/>
<text text-anchor="middle" x="141.75" y="-45.7" font-family="Times,serif" font-size="9.00">&#45;4</text>
</g>
</g>
</svg>
