<?xml version="1.0" encoding="UTF-8" standalone="no"?>
<!DOCTYPE svg PUBLIC "-//W3C//DTD SVG 1.1//EN"
 "http://www.w3.org/Graphics/SVG/1.1/DTD/svg11.dtd">
<!-- Generated by graphviz version 2.47.1 (20210417.1919)
 -->
<!-- Pages: 1 -->
<svg width="174pt" height="90pt"
 viewBox="0.00 0.00 174.23 89.80" xmlns="http://www.w3.org/2000/svg" xmlns:xlink="http://www.w3.org/1999/xlink">
<g id="graph0" class="graph" transform="scale(1 1) rotate(0) translate(4 85.8)">
<polygon fill="white" stroke="transparent" points="-4,4 -4,-85.8 170.23,-85.8 170.23,4 -4,4"/>
<!-- &#45;1 -->
<g id="node1" class="node">
<title>&#45;1</title>
<polygon fill="lightgray" stroke="black" points="121.75,-74.7 97.75,-74.7 97.75,-56.1 121.75,-56.1 121.75,-74.7"/>
<text text-anchor="middle" x="109.75" y="-62.7" font-family="Times,serif" font-size="9.00">&#45;1</text>
</g>
<!-- &#45;2 -->
<g id="node2" class="node">
<title>&#45;2</title>
<polygon fill="lightgray" stroke="black" points="23.75,-33.51 -0.25,-33.51 -0.25,-14.91 23.75,-14.91 23.75,-33.51"/>
<text text-anchor="middle" x="11.75" y="-21.51" font-family="Times,serif" font-size="9.00">&#45;2</text>
</g>
<!-- 0 -->
<g id="node5" class="node">
<title>0</title>
<ellipse fill="lightblue" stroke="black" cx="83.34" cy="-14.5" rx="14.49" ry="14.49"/>
<text text-anchor="middle" x="83.34" y="-11.8" font-family="Times,serif" font-size="9.00">0</text>
</g>
<!-- &#45;2&#45;&gt;0 -->
<g id="edge1" class="edge">
<title>&#45;2&#45;&gt;0</title>
<path fill="none" stroke="red" stroke-width="0.63" stroke-dasharray="1,5" d="M23.57,-22.61C33.06,-21.32 46.7,-19.47 58.56,-17.86"/>
<polygon fill="red" stroke="red" stroke-width="0.63" points="59.34,-21.28 68.78,-16.47 58.4,-14.35 59.34,-21.28"/>
<text text-anchor="middle" x="34.61" y="-21.73" font-family="Times,serif" font-size="5.00">&#45;2.648</text>
</g>
<!-- &#45;3 -->
<g id="node3" class="node">
<title>&#45;3</title>
<polygon fill="lightgray" stroke="black" points="79.75,-81.7 55.75,-81.7 55.75,-63.1 79.75,-63.1 79.75,-81.7"/>
<text text-anchor="middle" x="67.75" y="-69.7" font-family="Times,serif" font-size="9.00">&#45;3</text>
</g>
<!-- &#45;4 -->
<g id="node4" class="node">
<title>&#45;4</title>
<polygon fill="lightgray" stroke="black" points="166.48,-36.41 142.48,-36.41 142.48,-17.81 166.48,-17.81 166.48,-36.41"/>
<text text-anchor="middle" x="154.48" y="-24.41" font-family="Times,serif" font-size="9.00">&#45;4</text>
</g>
<!-- &#45;4&#45;&gt;0 -->
<g id="edge2" class="edge">
<title>&#45;4&#45;&gt;0</title>
<path fill="none" stroke="red" stroke-width="0.28" stroke-dasharray="1,5" d="M142.41,-24.97C132.94,-23.29 119.45,-20.9 107.75,-18.82"/>
<polygon fill="red" stroke="red" stroke-width="0.28" points="108.14,-15.34 97.68,-17.04 106.92,-22.23 108.14,-15.34"/>
<text text-anchor="middle" x="118.63" y="-23.4" font-family="Times,serif" font-size="5.00">&#45;0.905</text>
</g>
</g>
</svg>
