<?xml version="1.0" encoding="UTF-8" standalone="no"?>
<!DOCTYPE svg PUBLIC "-//W3C//DTD SVG 1.1//EN"
 "http://www.w3.org/Graphics/SVG/1.1/DTD/svg11.dtd">
<!-- Generated by graphviz version 2.47.1 (20210417.1919)
 -->
<!-- Pages: 1 -->
<svg width="323pt" height="272pt"
 viewBox="0.00 0.00 323.48 271.70" xmlns="http://www.w3.org/2000/svg" xmlns:xlink="http://www.w3.org/1999/xlink">
<g id="graph0" class="graph" transform="scale(1 1) rotate(0) translate(4 267.7)">
<polygon fill="white" stroke="transparent" points="-4,4 -4,-267.7 319.48,-267.7 319.48,4 -4,4"/>
<!-- &#45;1 -->
<g id="node1" class="node">
<title>&#45;1</title>
<polygon fill="lightgray" stroke="black" points="131.24,-151.24 107.24,-151.24 107.24,-132.64 131.24,-132.64 131.24,-151.24"/>
<text text-anchor="middle" x="119.24" y="-139.24" font-family="Times,serif" font-size="9.00">&#45;1</text>
</g>
<!-- 0 -->
<g id="node5" class="node">
<title>0</title>
<ellipse fill="lightblue" stroke="black" cx="154.19" cy="-179.49" rx="14.49" ry="14.49"/>
<text text-anchor="middle" x="154.19" y="-176.79" font-family="Times,serif" font-size="9.00">0</text>
</g>
<!-- &#45;1&#45;&gt;0 -->
<g id="edge52" class="edge">
<title>&#45;1&#45;&gt;0</title>
<path fill="none" stroke="red" stroke-width="0.38" d="M128.06,-151.41C130.91,-154.48 134.17,-157.99 137.41,-161.46"/>
<polygon fill="red" stroke="red" stroke-width="0.38" points="134.89,-163.89 144.26,-168.82 140.01,-159.12 134.89,-163.89"/>
<text text-anchor="middle" x="126.27" y="-157.94" font-family="Times,serif" font-size="5.00">&#45;1.392</text>
</g>
<!-- 2857 -->
<g id="node6" class="node">
<title>2857</title>
<ellipse fill="white" stroke="black" cx="24.04" cy="-145.5" rx="24.08" ry="24.08"/>
<text text-anchor="middle" x="24.04" y="-142.8" font-family="Times,serif" font-size="9.00">2857</text>
</g>
<!-- &#45;1&#45;&gt;2857 -->
<g id="edge1" class="edge">
<title>&#45;1&#45;&gt;2857</title>
<path fill="none" stroke="green" stroke-width="0.66" d="M107.18,-142.39C95,-142.85 75.6,-143.57 58.61,-144.21"/>
<polygon fill="green" stroke="green" stroke-width="0.66" points="58.29,-140.72 48.42,-144.59 58.55,-147.71 58.29,-140.72"/>
<text text-anchor="middle" x="77.27" y="-138.8" font-family="Times,serif" font-size="5.00">2.804</text>
</g>
<!-- 2866 -->
<g id="node9" class="node">
<title>2866</title>
<ellipse fill="white" stroke="black" cx="174.75" cy="-69.12" rx="24.08" ry="24.08"/>
<text text-anchor="middle" x="174.75" y="-66.42" font-family="Times,serif" font-size="9.00">2866</text>
</g>
<!-- &#45;1&#45;&gt;2866 -->
<g id="edge4" class="edge">
<title>&#45;1&#45;&gt;2866</title>
<path fill="none" stroke="green" stroke-width="0.3" d="M126.49,-132.42C133.44,-123.31 144.25,-109.13 153.88,-96.5"/>
<polygon fill="green" stroke="green" stroke-width="0.3" points="156.7,-98.56 159.98,-88.49 151.14,-94.32 156.7,-98.56"/>
<text text-anchor="middle" x="145.81" y="-115.96" font-family="Times,serif" font-size="5.00">1.000</text>
</g>
<!-- 2868 -->
<g id="node12" class="node">
<title>2868</title>
<ellipse fill="white" stroke="black" cx="131.31" cy="-218.82" rx="24.08" ry="24.08"/>
<text text-anchor="middle" x="131.31" y="-216.12" font-family="Times,serif" font-size="9.00">2868</text>
</g>
<!-- &#45;1&#45;&gt;2868 -->
<g id="edge10" class="edge">
<title>&#45;1&#45;&gt;2868</title>
<path fill="none" stroke="green" stroke-width="0.3" d="M120.72,-151.37C122.04,-159.76 124.05,-172.57 125.97,-184.78"/>
<polygon fill="green" stroke="green" stroke-width="0.3" points="122.53,-185.45 127.54,-194.79 129.44,-184.37 122.53,-185.45"/>
<text text-anchor="middle" x="117.72" y="-169.57" font-family="Times,serif" font-size="5.00">1.000</text>
</g>
<!-- 2870 -->
<g id="node15" class="node">
<title>2870</title>
<ellipse fill="white" stroke="black" cx="208.36" cy="-86.53" rx="24.08" ry="24.08"/>
<text text-anchor="middle" x="208.36" y="-83.83" font-family="Times,serif" font-size="9.00">2870</text>
</g>
<!-- &#45;1&#45;&gt;2870 -->
<g id="edge16" class="edge">
<title>&#45;1&#45;&gt;2870</title>
<path fill="none" stroke="green" stroke-width="0.3" d="M131.26,-134.47C143.44,-126.89 162.77,-114.87 179.02,-104.77"/>
<polygon fill="green" stroke="green" stroke-width="0.3" points="181.03,-107.64 187.67,-99.39 177.33,-101.7 181.03,-107.64"/>
<text text-anchor="middle" x="157.95" y="-115.12" font-family="Times,serif" font-size="5.00">1.000</text>
</g>
<!-- 1685 -->
<g id="node18" class="node">
<title>1685</title>
<ellipse fill="white" stroke="black" cx="150.5" cy="-132.78" rx="24.08" ry="24.08"/>
<ellipse fill="none" stroke="black" cx="150.5" cy="-132.78" rx="28.08" ry="28.08"/>
<text text-anchor="middle" x="150.5" y="-130.08" font-family="Times,serif" font-size="9.00">1685</text>
</g>
<!-- &#45;1&#45;&gt;1685 -->
<g id="edge22" class="edge">
<title>&#45;1&#45;&gt;1685</title>
<path fill="none" stroke="green" stroke-width="0.88" d="M131.24,-138.42C131.3,-138.4 131.37,-138.38 131.44,-138.36"/>
<polygon fill="green" stroke="green" stroke-width="0.88" points="123.04,-144.48 131.65,-138.3 121.07,-137.76 123.04,-144.48"/>
<text text-anchor="middle" x="136.96" y="-139.89" font-family="Times,serif" font-size="5.00">3.912</text>
</g>
<!-- 2858 -->
<g id="node19" class="node">
<title>2858</title>
<ellipse fill="white" stroke="black" cx="192.2" cy="-132.16" rx="24.08" ry="24.08"/>
<ellipse fill="none" stroke="black" cx="192.2" cy="-132.16" rx="28.08" ry="28.08"/>
<text text-anchor="middle" x="192.2" y="-129.46" font-family="Times,serif" font-size="9.00">2858</text>
</g>
<!-- &#45;1&#45;&gt;2858 -->
<g id="edge29" class="edge">
<title>&#45;1&#45;&gt;2858</title>
<path fill="none" stroke="green" stroke-width="0.88" d="M131.28,-140.32C137.67,-139.47 145.91,-138.36 154.25,-137.25"/>
<polygon fill="green" stroke="green" stroke-width="0.88" points="154.91,-140.69 164.36,-135.89 153.98,-133.75 154.91,-140.69"/>
<text text-anchor="middle" x="137.14" y="-134.28" font-family="Times,serif" font-size="5.00">3.912</text>
</g>
<!-- 2859 -->
<g id="node20" class="node">
<title>2859</title>
<ellipse fill="white" stroke="black" cx="210.51" cy="-150.75" rx="24.08" ry="24.08"/>
<ellipse fill="none" stroke="black" cx="210.51" cy="-150.75" rx="28.08" ry="28.08"/>
<text text-anchor="middle" x="210.51" y="-148.05" font-family="Times,serif" font-size="9.00">2859</text>
</g>
<!-- &#45;1&#45;&gt;2859 -->
<g id="edge36" class="edge">
<title>&#45;1&#45;&gt;2859</title>
<path fill="none" stroke="green" stroke-width="0.88" d="M131.17,-143.09C141.69,-144.11 157.61,-145.65 172.44,-147.08"/>
<polygon fill="green" stroke="green" stroke-width="0.88" points="172.16,-150.57 182.45,-148.04 172.83,-143.6 172.16,-150.57"/>
<text text-anchor="middle" x="146.18" y="-146.58" font-family="Times,serif" font-size="5.00">3.912</text>
</g>
<!-- 2827 -->
<g id="node21" class="node">
<title>2827</title>
<ellipse fill="white" stroke="black" cx="74.2" cy="-176.57" rx="24.08" ry="24.08"/>
<ellipse fill="none" stroke="black" cx="74.2" cy="-176.57" rx="28.08" ry="28.08"/>
<text text-anchor="middle" x="74.2" y="-173.87" font-family="Times,serif" font-size="9.00">2827</text>
</g>
<!-- &#45;1&#45;&gt;2827 -->
<g id="edge43" class="edge">
<title>&#45;1&#45;&gt;2827</title>
<path fill="none" stroke="green" stroke-width="0.3" d="M107.4,-151.04C106.57,-151.68 105.71,-152.34 104.83,-153.01"/>
<polygon fill="green" stroke="green" stroke-width="0.3" points="102.38,-150.48 96.59,-159.35 106.65,-156.03 102.38,-150.48"/>
<text text-anchor="middle" x="111.74" y="-153.53" font-family="Times,serif" font-size="5.00">1.000</text>
</g>
<!-- &#45;2 -->
<g id="node2" class="node">
<title>&#45;2</title>
<polygon fill="lightgray" stroke="black" points="256.34,-170.57 232.34,-170.57 232.34,-151.97 256.34,-151.97 256.34,-170.57"/>
<text text-anchor="middle" x="244.34" y="-158.57" font-family="Times,serif" font-size="9.00">&#45;2</text>
</g>
<!-- &#45;2&#45;&gt;0 -->
<g id="edge58" class="edge">
<title>&#45;2&#45;&gt;0</title>
<path fill="none" stroke="green" stroke-width="0.47" d="M232.56,-163.65C218.96,-166.4 196.23,-170.99 178.74,-174.53"/>
<polygon fill="green" stroke="green" stroke-width="0.47" points="177.77,-171.15 168.66,-176.56 179.16,-178.01 177.77,-171.15"/>
<text text-anchor="middle" x="200.03" y="-164.59" font-family="Times,serif" font-size="5.00">1.843</text>
</g>
<!-- 2037 -->
<g id="node11" class="node">
<title>2037</title>
<ellipse fill="white" stroke="black" cx="253.81" cy="-79.96" rx="24.08" ry="24.08"/>
<ellipse fill="none" stroke="black" cx="253.81" cy="-79.96" rx="28.08" ry="28.08"/>
<text text-anchor="middle" x="253.81" y="-77.26" font-family="Times,serif" font-size="9.00">2037</text>
</g>
<!-- &#45;2&#45;&gt;2037 -->
<g id="edge8" class="edge">
<title>&#45;2&#45;&gt;2037</title>
<path fill="none" stroke="green" stroke-width="0.51" d="M245.43,-151.94C246.41,-143.51 247.92,-130.53 249.39,-117.9"/>
<polygon fill="green" stroke="green" stroke-width="0.51" points="252.87,-118.28 250.55,-107.94 245.92,-117.47 252.87,-118.28"/>
<text text-anchor="middle" x="244.6" y="-130.42" font-family="Times,serif" font-size="5.00">2.061</text>
</g>
<!-- 2860 -->
<g id="node14" class="node">
<title>2860</title>
<ellipse fill="white" stroke="black" cx="197.44" cy="-235.66" rx="24.08" ry="24.08"/>
<ellipse fill="none" stroke="black" cx="197.44" cy="-235.66" rx="28.08" ry="28.08"/>
<text text-anchor="middle" x="197.44" y="-232.96" font-family="Times,serif" font-size="9.00">2860</text>
</g>
<!-- &#45;2&#45;&gt;2860 -->
<g id="edge14" class="edge">
<title>&#45;2&#45;&gt;2860</title>
<path fill="none" stroke="green" stroke-width="0.51" d="M238.4,-170.69C233.26,-178.85 225.5,-191.16 218.11,-202.88"/>
<polygon fill="green" stroke="green" stroke-width="0.51" points="214.95,-201.32 212.58,-211.64 220.88,-205.05 214.95,-201.32"/>
<text text-anchor="middle" x="233.88" y="-188.28" font-family="Times,serif" font-size="5.00">2.061</text>
</g>
<!-- 2861 -->
<g id="node17" class="node">
<title>2861</title>
<ellipse fill="white" stroke="black" cx="280.81" cy="-114.73" rx="24.08" ry="24.08"/>
<ellipse fill="none" stroke="black" cx="280.81" cy="-114.73" rx="28.08" ry="28.08"/>
<text text-anchor="middle" x="280.81" y="-112.03" font-family="Times,serif" font-size="9.00">2861</text>
</g>
<!-- &#45;2&#45;&gt;2861 -->
<g id="edge20" class="edge">
<title>&#45;2&#45;&gt;2861</title>
<path fill="none" stroke="green" stroke-width="0.51" d="M251.72,-151.85C253.32,-149.81 255.1,-147.54 256.96,-145.16"/>
<polygon fill="green" stroke="green" stroke-width="0.51" points="260.08,-146.86 263.49,-136.83 254.57,-142.54 260.08,-146.86"/>
<text text-anchor="middle" x="248.72" y="-144.01" font-family="Times,serif" font-size="5.00">2.061</text>
</g>
<!-- &#45;2&#45;&gt;1685 -->
<g id="edge25" class="edge">
<title>&#45;2&#45;&gt;1685</title>
<path fill="none" stroke="green" stroke-width="0.17" stroke-dasharray="1,5" d="M232.46,-157.66C221.1,-154.21 203.39,-148.83 187.33,-143.96"/>
<polygon fill="green" stroke="green" stroke-width="0.17" points="188.21,-140.56 177.62,-141.01 186.17,-147.26 188.21,-140.56"/>
<text text-anchor="middle" x="204.27" y="-152.31" font-family="Times,serif" font-size="5.00">0.333</text>
</g>
<!-- &#45;2&#45;&gt;2858 -->
<g id="edge32" class="edge">
<title>&#45;2&#45;&gt;2858</title>
<path fill="none" stroke="green" stroke-width="0.17" stroke-dasharray="1,5" d="M232.51,-154.66C230.46,-153.52 228.24,-152.28 225.93,-150.99"/>
<polygon fill="green" stroke="green" stroke-width="0.17" points="227.2,-147.69 216.76,-145.87 223.79,-153.8 227.2,-147.69"/>
<text text-anchor="middle" x="226.41" y="-148.32" font-family="Times,serif" font-size="5.00">0.333</text>
</g>
<!-- &#45;2&#45;&gt;2859 -->
<g id="edge39" class="edge">
<title>&#45;2&#45;&gt;2859</title>
<path fill="none" stroke="green" stroke-width="0.17" stroke-dasharray="1,5" d="M232.51,-157.59C232.43,-157.57 232.36,-157.54 232.28,-157.52"/>
<polygon fill="green" stroke="green" stroke-width="0.17" points="242.64,-157.07 232.05,-157.45 240.56,-163.76 242.64,-157.07"/>
<text text-anchor="middle" x="226.77" y="-159.05" font-family="Times,serif" font-size="5.00">0.333</text>
</g>
<!-- &#45;3 -->
<g id="node3" class="node">
<title>&#45;3</title>
<polygon fill="lightgray" stroke="black" points="146.14,-113.11 122.13,-113.11 122.13,-94.51 146.14,-94.51 146.14,-113.11"/>
<text text-anchor="middle" x="134.13" y="-101.11" font-family="Times,serif" font-size="9.00">&#45;3</text>
</g>
<!-- &#45;3&#45;&gt;0 -->
<g id="edge53" class="edge">
<title>&#45;3&#45;&gt;0</title>
<path fill="none" stroke="red" stroke-width="0.1" d="M136.67,-113.39C139.47,-123.95 144.08,-141.34 147.87,-155.63"/>
<polygon fill="red" stroke="red" stroke-width="0.1" points="144.5,-156.58 150.44,-165.35 151.26,-154.78 144.5,-156.58"/>
<text text-anchor="middle" x="147.9" y="-136.01" font-family="Times,serif" font-size="5.00">0.000</text>
</g>
<!-- 2864 -->
<g id="node7" class="node">
<title>2864</title>
<ellipse fill="white" stroke="black" cx="56.32" cy="-52.05" rx="24.08" ry="24.08"/>
<text text-anchor="middle" x="56.32" y="-49.35" font-family="Times,serif" font-size="9.00">2864</text>
</g>
<!-- &#45;3&#45;&gt;2864 -->
<g id="edge2" class="edge">
<title>&#45;3&#45;&gt;2864</title>
<path fill="none" stroke="green" stroke-width="0.66" d="M122.32,-95.95C112.44,-89.37 97.93,-79.73 85.04,-71.15"/>
<polygon fill="green" stroke="green" stroke-width="0.66" points="86.7,-68.05 76.44,-65.43 82.83,-73.88 86.7,-68.05"/>
<text text-anchor="middle" x="98.05" y="-79.05" font-family="Times,serif" font-size="5.00">2.804</text>
</g>
<!-- &#45;3&#45;&gt;2866 -->
<g id="edge5" class="edge">
<title>&#45;3&#45;&gt;2866</title>
<path fill="none" stroke="green" stroke-width="0.3" d="M145.23,-94.33C146.29,-93.42 147.39,-92.49 148.51,-91.52"/>
<polygon fill="green" stroke="green" stroke-width="0.3" points="150.83,-94.15 156.17,-84.99 146.29,-88.82 150.83,-94.15"/>
<text text-anchor="middle" x="141.25" y="-88.43" font-family="Times,serif" font-size="5.00">1.000</text>
</g>
<!-- &#45;3&#45;&gt;2868 -->
<g id="edge11" class="edge">
<title>&#45;3&#45;&gt;2868</title>
<path fill="none" stroke="green" stroke-width="0.3" d="M133.9,-113.22C133.53,-128.62 132.76,-159.93 132.16,-184.49"/>
<polygon fill="green" stroke="green" stroke-width="0.3" points="128.66,-184.45 131.91,-194.53 135.65,-184.62 128.66,-184.45"/>
<text text-anchor="middle" x="127.4" y="-150.35" font-family="Times,serif" font-size="5.00">1.000</text>
</g>
<!-- &#45;3&#45;&gt;2870 -->
<g id="edge17" class="edge">
<title>&#45;3&#45;&gt;2870</title>
<path fill="none" stroke="green" stroke-width="0.3" d="M146.06,-101.03C153.87,-99.21 164.49,-96.74 174.75,-94.35"/>
<polygon fill="green" stroke="green" stroke-width="0.3" points="175.83,-97.7 184.77,-92.02 174.24,-90.88 175.83,-97.7"/>
<text text-anchor="middle" x="154.78" y="-99.19" font-family="Times,serif" font-size="5.00">1.000</text>
</g>
<!-- &#45;3&#45;&gt;1685 -->
<g id="edge23" class="edge">
<title>&#45;3&#45;&gt;1685</title>
<path fill="none" stroke="green" stroke-width="0.88" d="M139.49,-113.29C139.53,-113.36 139.57,-113.42 139.61,-113.49"/>
<polygon fill="green" stroke="green" stroke-width="0.88" points="131.75,-106.71 139.72,-113.69 137.85,-103.26 131.75,-106.71"/>
<text text-anchor="middle" x="133.93" y="-114.89" font-family="Times,serif" font-size="5.00">3.912</text>
</g>
<!-- &#45;3&#45;&gt;2858 -->
<g id="edge30" class="edge">
<title>&#45;3&#45;&gt;2858</title>
<path fill="none" stroke="green" stroke-width="0.88" d="M145.88,-109.54C149.33,-111.23 153.29,-113.16 157.41,-115.17"/>
<polygon fill="green" stroke="green" stroke-width="0.88" points="156.03,-118.39 166.55,-119.64 159.1,-112.1 156.03,-118.39"/>
<text text-anchor="middle" x="157.27" y="-107.86" font-family="Times,serif" font-size="5.00">3.912</text>
</g>
<!-- &#45;3&#45;&gt;2859 -->
<g id="edge37" class="edge">
<title>&#45;3&#45;&gt;2859</title>
<path fill="none" stroke="green" stroke-width="0.88" d="M146.07,-111.14C154.54,-116.35 166.36,-123.62 177.56,-130.5"/>
<polygon fill="green" stroke="green" stroke-width="0.88" points="175.99,-133.64 186.34,-135.9 179.66,-127.68 175.99,-133.64"/>
<text text-anchor="middle" x="156.19" y="-122.32" font-family="Times,serif" font-size="5.00">3.912</text>
</g>
<!-- 2862 -->
<g id="node22" class="node">
<title>2862</title>
<ellipse fill="white" stroke="black" cx="91.01" cy="-109.44" rx="24.08" ry="24.08"/>
<ellipse fill="none" stroke="black" cx="91.01" cy="-109.44" rx="28.08" ry="28.08"/>
<text text-anchor="middle" x="91.01" y="-106.74" font-family="Times,serif" font-size="9.00">2862</text>
</g>
<!-- &#45;3&#45;&gt;2862 -->
<g id="edge46" class="edge">
<title>&#45;3&#45;&gt;2862</title>
<path fill="none" stroke="green" stroke-width="0.3" d="M122.35,-105.35C122.21,-105.36 122.08,-105.38 121.94,-105.4"/>
<polygon fill="green" stroke="green" stroke-width="0.3" points="128.41,-101.02 118.95,-105.79 129.32,-107.97 128.41,-101.02"/>
<text text-anchor="middle" x="116.52" y="-106.87" font-family="Times,serif" font-size="5.00">1.000</text>
</g>
<!-- &#45;4 -->
<g id="node4" class="node">
<title>&#45;4</title>
<polygon fill="lightgray" stroke="black" points="219.99,-191.33 195.99,-191.33 195.99,-172.72 219.99,-172.72 219.99,-191.33"/>
<text text-anchor="middle" x="207.99" y="-179.33" font-family="Times,serif" font-size="9.00">&#45;4</text>
</g>
<!-- &#45;4&#45;&gt;0 -->
<g id="edge54" class="edge">
<title>&#45;4&#45;&gt;0</title>
<path fill="none" stroke="green" stroke-width="0.38" d="M196.05,-181.46C191.02,-181.23 184.97,-180.94 179.05,-180.66"/>
<polygon fill="green" stroke="green" stroke-width="0.38" points="178.93,-177.15 168.78,-180.18 178.6,-184.14 178.93,-177.15"/>
<text text-anchor="middle" x="181.92" y="-182.56" font-family="Times,serif" font-size="5.00">1.392</text>
</g>
<!-- 2865 -->
<g id="node8" class="node">
<title>2865</title>
<ellipse fill="white" stroke="black" cx="291.44" cy="-228.69" rx="24.08" ry="24.08"/>
<text text-anchor="middle" x="291.44" y="-225.99" font-family="Times,serif" font-size="9.00">2865</text>
</g>
<!-- &#45;4&#45;&gt;2865 -->
<g id="edge3" class="edge">
<title>&#45;4&#45;&gt;2865</title>
<path fill="none" stroke="green" stroke-width="0.66" d="M219.95,-188.71C230.67,-194.71 246.86,-203.76 261.13,-211.74"/>
<polygon fill="green" stroke="green" stroke-width="0.66" points="259.71,-214.95 270.15,-216.78 263.13,-208.84 259.71,-214.95"/>
<text text-anchor="middle" x="234.91" y="-195.72" font-family="Times,serif" font-size="5.00">2.804</text>
</g>
<!-- &#45;4&#45;&gt;2866 -->
<g id="edge6" class="edge">
<title>&#45;4&#45;&gt;2866</title>
<path fill="none" stroke="green" stroke-width="0.3" d="M205.16,-172.4C200.63,-157 191.53,-126.12 184.47,-102.12"/>
<polygon fill="green" stroke="green" stroke-width="0.3" points="187.76,-100.92 181.58,-92.32 181.05,-102.9 187.76,-100.92"/>
<text text-anchor="middle" x="189.19" y="-138.76" font-family="Times,serif" font-size="5.00">1.000</text>
</g>
<!-- &#45;4&#45;&gt;2868 -->
<g id="edge12" class="edge">
<title>&#45;4&#45;&gt;2868</title>
<path fill="none" stroke="green" stroke-width="0.3" d="M196.01,-187.78C186.97,-192.11 174.14,-198.27 162.29,-203.96"/>
<polygon fill="green" stroke="green" stroke-width="0.3" points="160.58,-200.9 153.08,-208.38 163.61,-207.21 160.58,-200.9"/>
<text text-anchor="middle" x="173.53" y="-197.37" font-family="Times,serif" font-size="5.00">1.000</text>
</g>
<!-- &#45;4&#45;&gt;2870 -->
<g id="edge18" class="edge">
<title>&#45;4&#45;&gt;2870</title>
<path fill="none" stroke="green" stroke-width="0.3" d="M208.03,-172.52C208.08,-160.55 208.16,-139.34 208.23,-120.98"/>
<polygon fill="green" stroke="green" stroke-width="0.3" points="211.73,-120.88 208.26,-110.87 204.73,-120.86 211.73,-120.88"/>
<text text-anchor="middle" x="213.75" y="-142.25" font-family="Times,serif" font-size="5.00">1.000</text>
</g>
<!-- &#45;4&#45;&gt;1685 -->
<g id="edge24" class="edge">
<title>&#45;4&#45;&gt;1685</title>
<path fill="none" stroke="green" stroke-width="0.88" d="M196.91,-172.53C191.95,-168.28 185.85,-163.06 179.73,-157.81"/>
<polygon fill="green" stroke="green" stroke-width="0.88" points="181.9,-155.07 172.03,-151.22 177.35,-160.38 181.9,-155.07"/>
<text text-anchor="middle" x="182.69" y="-166.67" font-family="Times,serif" font-size="5.00">3.912</text>
</g>
<!-- &#45;4&#45;&gt;2858 -->
<g id="edge31" class="edge">
<title>&#45;4&#45;&gt;2858</title>
<path fill="none" stroke="green" stroke-width="0.88" d="M204.95,-172.41C204.6,-171.33 204.24,-170.18 203.86,-168.99"/>
<polygon fill="green" stroke="green" stroke-width="0.88" points="207.11,-167.65 200.75,-159.17 200.44,-169.76 207.11,-167.65"/>
<text text-anchor="middle" x="198.78" y="-172.2" font-family="Times,serif" font-size="5.00">3.912</text>
</g>
<!-- &#45;4&#45;&gt;2859 -->
<g id="edge38" class="edge">
<title>&#45;4&#45;&gt;2859</title>
<path fill="none" stroke="green" stroke-width="0.88" d="M208.76,-172.47C208.77,-172.4 208.77,-172.33 208.78,-172.26"/>
<polygon fill="green" stroke="green" stroke-width="0.88" points="211.48,-182.29 208.8,-172.04 204.5,-181.73 211.48,-182.29"/>
<text text-anchor="middle" x="214.4" y="-167.87" font-family="Times,serif" font-size="5.00">3.912</text>
</g>
<!-- 2863 -->
<g id="node23" class="node">
<title>2863</title>
<ellipse fill="white" stroke="black" cx="231.23" cy="-231.36" rx="24.08" ry="24.08"/>
<ellipse fill="none" stroke="black" cx="231.23" cy="-231.36" rx="28.08" ry="28.08"/>
<text text-anchor="middle" x="231.23" y="-228.66" font-family="Times,serif" font-size="9.00">2863</text>
</g>
<!-- &#45;4&#45;&gt;2863 -->
<g id="edge49" class="edge">
<title>&#45;4&#45;&gt;2863</title>
<path fill="none" stroke="green" stroke-width="0.3" d="M212.47,-191.54C213.21,-193.09 214,-194.78 214.83,-196.55"/>
<polygon fill="green" stroke="green" stroke-width="0.3" points="211.8,-198.33 219.23,-205.88 218.14,-195.34 211.8,-198.33"/>
<text text-anchor="middle" x="219.28" y="-195.54" font-family="Times,serif" font-size="5.00">1.000</text>
</g>
<!-- 2857&#45;&gt;2827 -->
<g id="edge45" class="edge">
<title>2857&#45;&gt;2827</title>
<path fill="none" stroke="green" stroke-width="0.3" d="M44.73,-158.31C44.85,-158.39 44.96,-158.46 45.08,-158.53"/>
<polygon fill="green" stroke="green" stroke-width="0.3" points="39.95,-159.47 50.29,-161.76 43.63,-153.52 39.95,-159.47"/>
<text text-anchor="middle" x="39.28" y="-159.92" font-family="Times,serif" font-size="5.00">1.000</text>
</g>
<!-- 2864&#45;&gt;2862 -->
<g id="edge48" class="edge">
<title>2864&#45;&gt;2862</title>
<path fill="none" stroke="green" stroke-width="0.3" d="M68.85,-72.77C69.62,-74.06 70.41,-75.36 71.21,-76.68"/>
<polygon fill="green" stroke="green" stroke-width="0.3" points="68.33,-78.69 76.5,-85.44 74.33,-75.07 68.33,-78.69"/>
<text text-anchor="middle" x="75.65" y="-76.23" font-family="Times,serif" font-size="5.00">1.000</text>
</g>
<!-- 2865&#45;&gt;2863 -->
<g id="edge51" class="edge">
<title>2865&#45;&gt;2863</title>
<path fill="none" stroke="green" stroke-width="0.3" d="M267.3,-229.76C267.14,-229.77 266.97,-229.77 266.81,-229.78"/>
<polygon fill="green" stroke="green" stroke-width="0.3" points="269.18,-226.17 259.34,-230.11 269.49,-233.17 269.18,-226.17"/>
<text text-anchor="middle" x="261.43" y="-231.27" font-family="Times,serif" font-size="5.00">1.000</text>
</g>
<!-- 2867 -->
<g id="node10" class="node">
<title>2867</title>
<ellipse fill="white" stroke="black" cx="119.26" cy="-29.21" rx="24.08" ry="24.08"/>
<text text-anchor="middle" x="119.26" y="-26.51" font-family="Times,serif" font-size="9.00">2867</text>
</g>
<!-- 2866&#45;&gt;2867 -->
<g id="edge7" class="edge">
<title>2866&#45;&gt;2867</title>
<path fill="none" stroke="green" stroke-width="0.3" d="M155.03,-54.93C152.49,-53.11 149.86,-51.22 147.23,-49.32"/>
<polygon fill="green" stroke="green" stroke-width="0.3" points="149.08,-46.34 138.91,-43.34 144.99,-52.02 149.08,-46.34"/>
<text text-anchor="middle" x="145.5" y="-53.63" font-family="Times,serif" font-size="5.00">1.000</text>
</g>
<!-- 2866&#45;&gt;2037 -->
<g id="edge9" class="edge">
<title>2866&#45;&gt;2037</title>
<path fill="none" stroke="green" stroke-width="0.3" stroke-dasharray="1,5" d="M198.9,-72.43C204.24,-73.16 210.02,-73.95 215.75,-74.74"/>
<polygon fill="green" stroke="green" stroke-width="0.3" points="215.55,-78.24 225.93,-76.14 216.5,-71.31 215.55,-78.24"/>
<text text-anchor="middle" x="212.95" y="-75.08" font-family="Times,serif" font-size="5.00">1.000</text>
</g>
<!-- 2867&#45;&gt;1685 -->
<g id="edge26" class="edge">
<title>2867&#45;&gt;1685</title>
<path fill="none" stroke="green" stroke-width="0.17" stroke-dasharray="1,5" d="M126.27,-52.45C130.13,-65.24 135.01,-81.41 139.38,-95.89"/>
<polygon fill="green" stroke="green" stroke-width="0.17" points="136.06,-97.01 142.3,-105.58 142.76,-94.99 136.06,-97.01"/>
<text text-anchor="middle" x="127.2" y="-75.67" font-family="Times,serif" font-size="5.00">0.333</text>
</g>
<!-- 2037&#45;&gt;2858 -->
<g id="edge33" class="edge">
<title>2037&#45;&gt;2858</title>
<path fill="none" stroke="green" stroke-width="0.17" stroke-dasharray="1,5" d="M232.26,-98.22C228.81,-101.14 225.19,-104.21 221.59,-107.25"/>
<polygon fill="green" stroke="green" stroke-width="0.17" points="219.21,-104.69 213.84,-113.82 223.73,-110.03 219.21,-104.69"/>
<text text-anchor="middle" x="221.3" y="-104.24" font-family="Times,serif" font-size="5.00">0.333</text>
</g>
<!-- 2037&#45;&gt;2859 -->
<g id="edge40" class="edge">
<title>2037&#45;&gt;2859</title>
<path fill="none" stroke="green" stroke-width="0.17" stroke-dasharray="1,5" d="M239.15,-103.93C236.33,-108.54 233.33,-113.44 230.38,-118.27"/>
<polygon fill="green" stroke="green" stroke-width="0.17" points="227.39,-116.45 225.15,-126.81 233.36,-120.11 227.39,-116.45"/>
<text text-anchor="middle" x="229.14" y="-112.6" font-family="Times,serif" font-size="5.00">0.333</text>
</g>
<!-- 2869 -->
<g id="node13" class="node">
<title>2869</title>
<ellipse fill="white" stroke="black" cx="82.62" cy="-236.26" rx="24.08" ry="24.08"/>
<text text-anchor="middle" x="82.62" y="-233.56" font-family="Times,serif" font-size="9.00">2869</text>
</g>
<!-- 2868&#45;&gt;2869 -->
<g id="edge13" class="edge">
<title>2868&#45;&gt;2869</title>
<path fill="none" stroke="green" stroke-width="0.3" d="M108.68,-226.93C108.54,-226.98 108.4,-227.03 108.27,-227.08"/>
<polygon fill="green" stroke="green" stroke-width="0.3" points="113.63,-221.44 105.39,-228.11 115.99,-228.03 113.63,-221.44"/>
<text text-anchor="middle" x="114.1" y="-228.5" font-family="Times,serif" font-size="5.00">1.000</text>
</g>
<!-- 2868&#45;&gt;2860 -->
<g id="edge15" class="edge">
<title>2868&#45;&gt;2860</title>
<path fill="none" stroke="green" stroke-width="0.3" stroke-dasharray="1,5" d="M154.81,-224.81C156.5,-225.24 158.22,-225.68 159.96,-226.12"/>
<polygon fill="green" stroke="green" stroke-width="0.3" points="159.4,-229.59 169.95,-228.66 161.12,-222.8 159.4,-229.59"/>
<text text-anchor="middle" x="163.01" y="-226.96" font-family="Times,serif" font-size="5.00">1.000</text>
</g>
<!-- 2869&#45;&gt;1685 -->
<g id="edge27" class="edge">
<title>2869&#45;&gt;1685</title>
<path fill="none" stroke="green" stroke-width="0.17" stroke-dasharray="1,5" d="M96.03,-215.82C105.57,-201.27 118.58,-181.44 129.5,-164.8"/>
<polygon fill="green" stroke="green" stroke-width="0.17" points="132.42,-166.72 134.98,-156.44 126.57,-162.88 132.42,-166.72"/>
<text text-anchor="middle" x="118.39" y="-185.81" font-family="Times,serif" font-size="5.00">0.333</text>
</g>
<!-- 2860&#45;&gt;2858 -->
<g id="edge34" class="edge">
<title>2860&#45;&gt;2858</title>
<path fill="none" stroke="green" stroke-width="0.17" stroke-dasharray="1,5" d="M196.02,-207.65C195.44,-196.15 194.75,-182.64 194.13,-170.26"/>
<polygon fill="green" stroke="green" stroke-width="0.17" points="197.62,-170 193.62,-160.19 190.63,-170.35 197.62,-170"/>
<text text-anchor="middle" x="189.45" y="-190.46" font-family="Times,serif" font-size="5.00">0.333</text>
</g>
<!-- 2860&#45;&gt;2859 -->
<g id="edge41" class="edge">
<title>2860&#45;&gt;2859</title>
<path fill="none" stroke="green" stroke-width="0.17" stroke-dasharray="1,5" d="M201.72,-207.86C202.67,-201.7 203.69,-195.08 204.68,-188.6"/>
<polygon fill="green" stroke="green" stroke-width="0.17" points="208.16,-189.03 206.22,-178.62 201.24,-187.97 208.16,-189.03"/>
<text text-anchor="middle" x="197.58" y="-199.73" font-family="Times,serif" font-size="5.00">0.333</text>
</g>
<!-- 2871 -->
<g id="node16" class="node">
<title>2871</title>
<ellipse fill="white" stroke="black" cx="190.85" cy="-24.04" rx="24.08" ry="24.08"/>
<text text-anchor="middle" x="190.85" y="-21.34" font-family="Times,serif" font-size="9.00">2871</text>
</g>
<!-- 2870&#45;&gt;2871 -->
<g id="edge19" class="edge">
<title>2870&#45;&gt;2871</title>
<path fill="none" stroke="green" stroke-width="0.3" d="M201.84,-63.26C201.3,-61.34 200.75,-59.37 200.19,-57.39"/>
<polygon fill="green" stroke="green" stroke-width="0.3" points="203.5,-56.22 197.43,-47.54 196.76,-58.11 203.5,-56.22"/>
<text text-anchor="middle" x="206.64" y="-55.82" font-family="Times,serif" font-size="5.00">1.000</text>
</g>
<!-- 2870&#45;&gt;2861 -->
<g id="edge21" class="edge">
<title>2870&#45;&gt;2861</title>
<path fill="none" stroke="green" stroke-width="0.3" stroke-dasharray="1,5" d="M230.88,-95.3C235.32,-97.02 240.08,-98.88 244.84,-100.73"/>
<polygon fill="green" stroke="green" stroke-width="0.3" points="243.9,-104.12 254.49,-104.48 246.44,-97.59 243.9,-104.12"/>
<text text-anchor="middle" x="240.67" y="-93.51" font-family="Times,serif" font-size="5.00">1.000</text>
</g>
<!-- 2871&#45;&gt;1685 -->
<g id="edge28" class="edge">
<title>2871&#45;&gt;1685</title>
<path fill="none" stroke="green" stroke-width="0.17" stroke-dasharray="1,5" d="M182.39,-46.84C177.07,-61.17 170.09,-79.99 164.01,-96.36"/>
<polygon fill="green" stroke="green" stroke-width="0.17" points="160.57,-95.59 160.37,-106.18 167.13,-98.02 160.57,-95.59"/>
<text text-anchor="middle" x="178.83" y="-73.1" font-family="Times,serif" font-size="5.00">0.333</text>
</g>
<!-- 2861&#45;&gt;2858 -->
<g id="edge35" class="edge">
<title>2861&#45;&gt;2858</title>
<path fill="none" stroke="green" stroke-width="0.17" stroke-dasharray="1,5" d="M253.26,-120.15C245.75,-121.62 237.5,-123.25 229.55,-124.81"/>
<polygon fill="green" stroke="green" stroke-width="0.17" points="228.87,-121.38 219.73,-126.74 230.22,-128.25 228.87,-121.38"/>
<text text-anchor="middle" x="247.03" y="-123.98" font-family="Times,serif" font-size="5.00">0.333</text>
</g>
<!-- 2861&#45;&gt;2859 -->
<g id="edge42" class="edge">
<title>2861&#45;&gt;2859</title>
<path fill="none" stroke="green" stroke-width="0.17" stroke-dasharray="1,5" d="M255.82,-127.53C252.28,-129.34 248.59,-131.23 244.92,-133.12"/>
<polygon fill="green" stroke="green" stroke-width="0.17" points="243.19,-130.07 235.88,-137.75 246.38,-136.3 243.19,-130.07"/>
<text text-anchor="middle" x="244.74" y="-131.83" font-family="Times,serif" font-size="5.00">0.333</text>
</g>
<!-- 1685&#45;&gt;0 -->
<g id="edge55" class="edge">
<title>1685&#45;&gt;0</title>
<path fill="none" stroke="red" stroke-width="1.47" d="M152.71,-160.76C152.72,-160.85 152.73,-160.93 152.73,-161.02"/>
<polygon fill="red" stroke="red" stroke-width="1.47" points="148.76,-155.17 153.04,-164.86 155.74,-154.62 148.76,-155.17"/>
<text text-anchor="middle" x="146.26" y="-162.39" font-family="Times,serif" font-size="5.00">&#45;6.827</text>
</g>
<!-- 1685&#45;&gt;2827 -->
<g id="edge44" class="edge">
<title>1685&#45;&gt;2827</title>
<path fill="none" stroke="red" stroke-width="0.79" d="M125.94,-146.87C120.08,-150.23 113.74,-153.87 107.56,-157.42"/>
<polygon fill="red" stroke="red" stroke-width="0.79" points="105.65,-154.48 98.71,-162.5 109.13,-160.55 105.65,-154.48"/>
<text text-anchor="middle" x="110.29" y="-147.65" font-family="Times,serif" font-size="5.00">&#45;3.465</text>
</g>
<!-- 2858&#45;&gt;0 -->
<g id="edge56" class="edge">
<title>2858&#45;&gt;0</title>
<path fill="none" stroke="red" stroke-width="0.1" d="M174.53,-154.16C172.95,-156.12 171.37,-158.1 169.81,-160.04"/>
<polygon fill="red" stroke="red" stroke-width="0.1" points="166.86,-158.13 163.32,-168.11 172.31,-162.51 166.86,-158.13"/>
<text text-anchor="middle" x="166.54" y="-158.6" font-family="Times,serif" font-size="5.00">0.000</text>
</g>
<!-- 2858&#45;&gt;2862 -->
<g id="edge47" class="edge">
<title>2858&#45;&gt;2862</title>
<path fill="none" stroke="red" stroke-width="0.79" d="M164.81,-126.01C153.57,-123.49 140.36,-120.52 128.26,-117.8"/>
<polygon fill="red" stroke="red" stroke-width="0.79" points="128.94,-114.37 118.42,-115.59 127.41,-121.2 128.94,-114.37"/>
<text text-anchor="middle" x="140.08" y="-123.41" font-family="Times,serif" font-size="5.00">&#45;3.465</text>
</g>
<!-- 2859&#45;&gt;0 -->
<g id="edge57" class="edge">
<title>2859&#45;&gt;0</title>
<path fill="none" stroke="green" stroke-width="1.47" d="M185.31,-163.61C182.31,-165.14 179.25,-166.7 176.29,-168.21"/>
<polygon fill="green" stroke="green" stroke-width="1.47" points="174.65,-165.12 167.33,-172.78 177.83,-171.36 174.65,-165.12"/>
<text text-anchor="middle" x="175.18" y="-167.41" font-family="Times,serif" font-size="5.00">6.827</text>
</g>
<!-- 2859&#45;&gt;2863 -->
<g id="edge50" class="edge">
<title>2859&#45;&gt;2863</title>
<path fill="none" stroke="red" stroke-width="0.79" d="M217.52,-178.04C218.87,-183.3 220.31,-188.88 221.72,-194.38"/>
<polygon fill="red" stroke="red" stroke-width="0.79" points="218.34,-195.29 224.22,-204.1 225.12,-193.54 218.34,-195.29"/>
<text text-anchor="middle" x="226.08" y="-181.71" font-family="Times,serif" font-size="5.00">&#45;3.465</text>
</g>
<!-- 2827&#45;&gt;0 -->
<g id="edge59" class="edge">
<title>2827&#45;&gt;0</title>
<path fill="none" stroke="red" stroke-width="0.31" d="M102.62,-177.61C111.34,-177.92 120.86,-178.27 129.31,-178.58"/>
<polygon fill="red" stroke="red" stroke-width="0.31" points="129.2,-182.08 139.32,-178.95 129.46,-175.08 129.2,-182.08"/>
<text text-anchor="middle" x="109.51" y="-179.59" font-family="Times,serif" font-size="5.00">&#45;1.056</text>
</g>
<!-- 2862&#45;&gt;0 -->
<g id="edge60" class="edge">
<title>2862&#45;&gt;0</title>
<path fill="none" stroke="red" stroke-width="0.31" d="M109.97,-130.46C118.74,-140.18 129.07,-151.63 137.53,-161.02"/>
<polygon fill="red" stroke="red" stroke-width="0.31" points="135.11,-163.56 144.41,-168.64 140.31,-158.87 135.11,-163.56"/>
<text text-anchor="middle" x="123.75" y="-141.24" font-family="Times,serif" font-size="5.00">&#45;1.056</text>
</g>
<!-- 2863&#45;&gt;0 -->
<g id="edge61" class="edge">
<title>2863&#45;&gt;0</title>
<path fill="none" stroke="red" stroke-width="0.31" d="M207.7,-215.52C197.26,-208.49 185.09,-200.29 174.99,-193.5"/>
<polygon fill="red" stroke="red" stroke-width="0.31" points="176.66,-190.4 166.41,-187.72 172.75,-196.21 176.66,-190.4"/>
<text text-anchor="middle" x="184.89" y="-200.01" font-family="Times,serif" font-size="5.00">&#45;1.056</text>
</g>
</g>
</svg>
