<?xml version="1.0" encoding="utf-8" standalone="no"?>
<!DOCTYPE svg PUBLIC "-//W3C//DTD SVG 1.1//EN"
  "http://www.w3.org/Graphics/SVG/1.1/DTD/svg11.dtd">
<!-- Created with matplotlib (https://matplotlib.org/) -->
<svg height="345.6pt" version="1.1" viewBox="0 0 460.8 345.6" width="460.8pt" xmlns="http://www.w3.org/2000/svg" xmlns:xlink="http://www.w3.org/1999/xlink">
 <metadata>
  <rdf:RDF xmlns:cc="http://creativecommons.org/ns#" xmlns:dc="http://purl.org/dc/elements/1.1/" xmlns:rdf="http://www.w3.org/1999/02/22-rdf-syntax-ns#">
   <cc:Work>
    <dc:type rdf:resource="http://purl.org/dc/dcmitype/StillImage"/>
    <dc:date>2021-06-20T20:51:52.519773</dc:date>
    <dc:format>image/svg+xml</dc:format>
    <dc:creator>
     <cc:Agent>
      <dc:title>Matplotlib v3.3.0, https://matplotlib.org/</dc:title>
     </cc:Agent>
    </dc:creator>
   </cc:Work>
  </rdf:RDF>
 </metadata>
 <defs>
  <style type="text/css">*{stroke-linecap:butt;stroke-linejoin:round;}</style>
 </defs>
 <g id="figure_1">
  <g id="patch_1">
   <path d="M 0 345.6 
L 460.8 345.6 
L 460.8 0 
L 0 0 
z
" style="fill:#ffffff;"/>
  </g>
  <g id="axes_1">
   <g id="patch_2">
    <path d="M 57.6 307.584 
L 414.72 307.584 
L 414.72 41.472 
L 57.6 41.472 
z
" style="fill:#ffffff;"/>
   </g>
   <g id="matplotlib.axis_1">
    <g id="xtick_1">
     <g id="line2d_1">
      <path clip-path="url(#p7b1d92775a)" d="M 73.832727 307.584 
L 73.832727 41.472 
" style="fill:none;stroke:#b0b0b0;stroke-linecap:square;stroke-width:0.8;"/>
     </g>
     <g id="line2d_2">
      <defs>
       <path d="M 0 0 
L 0 3.5 
" id="m48d5b23f2f" style="stroke:#000000;stroke-width:0.8;"/>
      </defs>
      <g>
       <use style="stroke:#000000;stroke-width:0.8;" x="73.832727" xlink:href="#m48d5b23f2f" y="307.584"/>
      </g>
     </g>
     <g id="text_1">
      <!-- 0 -->
      <g transform="translate(70.651477 322.182437)scale(0.1 -0.1)">
       <defs>
        <path d="M 31.78125 66.40625 
Q 24.171875 66.40625 20.328125 58.90625 
Q 16.5 51.421875 16.5 36.375 
Q 16.5 21.390625 20.328125 13.890625 
Q 24.171875 6.390625 31.78125 6.390625 
Q 39.453125 6.390625 43.28125 13.890625 
Q 47.125 21.390625 47.125 36.375 
Q 47.125 51.421875 43.28125 58.90625 
Q 39.453125 66.40625 31.78125 66.40625 
z
M 31.78125 74.21875 
Q 44.046875 74.21875 50.515625 64.515625 
Q 56.984375 54.828125 56.984375 36.375 
Q 56.984375 17.96875 50.515625 8.265625 
Q 44.046875 -1.421875 31.78125 -1.421875 
Q 19.53125 -1.421875 13.0625 8.265625 
Q 6.59375 17.96875 6.59375 36.375 
Q 6.59375 54.828125 13.0625 64.515625 
Q 19.53125 74.21875 31.78125 74.21875 
z
" id="DejaVuSans-48"/>
       </defs>
       <use xlink:href="#DejaVuSans-48"/>
      </g>
     </g>
    </g>
    <g id="xtick_2">
     <g id="line2d_3">
      <path clip-path="url(#p7b1d92775a)" d="M 126.365825 307.584 
L 126.365825 41.472 
" style="fill:none;stroke:#b0b0b0;stroke-linecap:square;stroke-width:0.8;"/>
     </g>
     <g id="line2d_4">
      <g>
       <use style="stroke:#000000;stroke-width:0.8;" x="126.365825" xlink:href="#m48d5b23f2f" y="307.584"/>
      </g>
     </g>
     <g id="text_2">
      <!-- 50 -->
      <g transform="translate(120.003325 322.182437)scale(0.1 -0.1)">
       <defs>
        <path d="M 10.796875 72.90625 
L 49.515625 72.90625 
L 49.515625 64.59375 
L 19.828125 64.59375 
L 19.828125 46.734375 
Q 21.96875 47.46875 24.109375 47.828125 
Q 26.265625 48.1875 28.421875 48.1875 
Q 40.625 48.1875 47.75 41.5 
Q 54.890625 34.8125 54.890625 23.390625 
Q 54.890625 11.625 47.5625 5.09375 
Q 40.234375 -1.421875 26.90625 -1.421875 
Q 22.3125 -1.421875 17.546875 -0.640625 
Q 12.796875 0.140625 7.71875 1.703125 
L 7.71875 11.625 
Q 12.109375 9.234375 16.796875 8.0625 
Q 21.484375 6.890625 26.703125 6.890625 
Q 35.15625 6.890625 40.078125 11.328125 
Q 45.015625 15.765625 45.015625 23.390625 
Q 45.015625 31 40.078125 35.4375 
Q 35.15625 39.890625 26.703125 39.890625 
Q 22.75 39.890625 18.8125 39.015625 
Q 14.890625 38.140625 10.796875 36.28125 
z
" id="DejaVuSans-53"/>
       </defs>
       <use xlink:href="#DejaVuSans-53"/>
       <use x="63.623047" xlink:href="#DejaVuSans-48"/>
      </g>
     </g>
    </g>
    <g id="xtick_3">
     <g id="line2d_5">
      <path clip-path="url(#p7b1d92775a)" d="M 178.898923 307.584 
L 178.898923 41.472 
" style="fill:none;stroke:#b0b0b0;stroke-linecap:square;stroke-width:0.8;"/>
     </g>
     <g id="line2d_6">
      <g>
       <use style="stroke:#000000;stroke-width:0.8;" x="178.898923" xlink:href="#m48d5b23f2f" y="307.584"/>
      </g>
     </g>
     <g id="text_3">
      <!-- 100 -->
      <g transform="translate(169.355173 322.182437)scale(0.1 -0.1)">
       <defs>
        <path d="M 12.40625 8.296875 
L 28.515625 8.296875 
L 28.515625 63.921875 
L 10.984375 60.40625 
L 10.984375 69.390625 
L 28.421875 72.90625 
L 38.28125 72.90625 
L 38.28125 8.296875 
L 54.390625 8.296875 
L 54.390625 0 
L 12.40625 0 
z
" id="DejaVuSans-49"/>
       </defs>
       <use xlink:href="#DejaVuSans-49"/>
       <use x="63.623047" xlink:href="#DejaVuSans-48"/>
       <use x="127.246094" xlink:href="#DejaVuSans-48"/>
      </g>
     </g>
    </g>
    <g id="xtick_4">
     <g id="line2d_7">
      <path clip-path="url(#p7b1d92775a)" d="M 231.432021 307.584 
L 231.432021 41.472 
" style="fill:none;stroke:#b0b0b0;stroke-linecap:square;stroke-width:0.8;"/>
     </g>
     <g id="line2d_8">
      <g>
       <use style="stroke:#000000;stroke-width:0.8;" x="231.432021" xlink:href="#m48d5b23f2f" y="307.584"/>
      </g>
     </g>
     <g id="text_4">
      <!-- 150 -->
      <g transform="translate(221.888271 322.182437)scale(0.1 -0.1)">
       <use xlink:href="#DejaVuSans-49"/>
       <use x="63.623047" xlink:href="#DejaVuSans-53"/>
       <use x="127.246094" xlink:href="#DejaVuSans-48"/>
      </g>
     </g>
    </g>
    <g id="xtick_5">
     <g id="line2d_9">
      <path clip-path="url(#p7b1d92775a)" d="M 283.965119 307.584 
L 283.965119 41.472 
" style="fill:none;stroke:#b0b0b0;stroke-linecap:square;stroke-width:0.8;"/>
     </g>
     <g id="line2d_10">
      <g>
       <use style="stroke:#000000;stroke-width:0.8;" x="283.965119" xlink:href="#m48d5b23f2f" y="307.584"/>
      </g>
     </g>
     <g id="text_5">
      <!-- 200 -->
      <g transform="translate(274.421369 322.182437)scale(0.1 -0.1)">
       <defs>
        <path d="M 19.1875 8.296875 
L 53.609375 8.296875 
L 53.609375 0 
L 7.328125 0 
L 7.328125 8.296875 
Q 12.9375 14.109375 22.625 23.890625 
Q 32.328125 33.6875 34.8125 36.53125 
Q 39.546875 41.84375 41.421875 45.53125 
Q 43.3125 49.21875 43.3125 52.78125 
Q 43.3125 58.59375 39.234375 62.25 
Q 35.15625 65.921875 28.609375 65.921875 
Q 23.96875 65.921875 18.8125 64.3125 
Q 13.671875 62.703125 7.8125 59.421875 
L 7.8125 69.390625 
Q 13.765625 71.78125 18.9375 73 
Q 24.125 74.21875 28.421875 74.21875 
Q 39.75 74.21875 46.484375 68.546875 
Q 53.21875 62.890625 53.21875 53.421875 
Q 53.21875 48.921875 51.53125 44.890625 
Q 49.859375 40.875 45.40625 35.40625 
Q 44.1875 33.984375 37.640625 27.21875 
Q 31.109375 20.453125 19.1875 8.296875 
z
" id="DejaVuSans-50"/>
       </defs>
       <use xlink:href="#DejaVuSans-50"/>
       <use x="63.623047" xlink:href="#DejaVuSans-48"/>
       <use x="127.246094" xlink:href="#DejaVuSans-48"/>
      </g>
     </g>
    </g>
    <g id="xtick_6">
     <g id="line2d_11">
      <path clip-path="url(#p7b1d92775a)" d="M 336.498217 307.584 
L 336.498217 41.472 
" style="fill:none;stroke:#b0b0b0;stroke-linecap:square;stroke-width:0.8;"/>
     </g>
     <g id="line2d_12">
      <g>
       <use style="stroke:#000000;stroke-width:0.8;" x="336.498217" xlink:href="#m48d5b23f2f" y="307.584"/>
      </g>
     </g>
     <g id="text_6">
      <!-- 250 -->
      <g transform="translate(326.954467 322.182437)scale(0.1 -0.1)">
       <use xlink:href="#DejaVuSans-50"/>
       <use x="63.623047" xlink:href="#DejaVuSans-53"/>
       <use x="127.246094" xlink:href="#DejaVuSans-48"/>
      </g>
     </g>
    </g>
    <g id="xtick_7">
     <g id="line2d_13">
      <path clip-path="url(#p7b1d92775a)" d="M 389.031315 307.584 
L 389.031315 41.472 
" style="fill:none;stroke:#b0b0b0;stroke-linecap:square;stroke-width:0.8;"/>
     </g>
     <g id="line2d_14">
      <g>
       <use style="stroke:#000000;stroke-width:0.8;" x="389.031315" xlink:href="#m48d5b23f2f" y="307.584"/>
      </g>
     </g>
     <g id="text_7">
      <!-- 300 -->
      <g transform="translate(379.487565 322.182437)scale(0.1 -0.1)">
       <defs>
        <path d="M 40.578125 39.3125 
Q 47.65625 37.796875 51.625 33 
Q 55.609375 28.21875 55.609375 21.1875 
Q 55.609375 10.40625 48.1875 4.484375 
Q 40.765625 -1.421875 27.09375 -1.421875 
Q 22.515625 -1.421875 17.65625 -0.515625 
Q 12.796875 0.390625 7.625 2.203125 
L 7.625 11.71875 
Q 11.71875 9.328125 16.59375 8.109375 
Q 21.484375 6.890625 26.8125 6.890625 
Q 36.078125 6.890625 40.9375 10.546875 
Q 45.796875 14.203125 45.796875 21.1875 
Q 45.796875 27.640625 41.28125 31.265625 
Q 36.765625 34.90625 28.71875 34.90625 
L 20.21875 34.90625 
L 20.21875 43.015625 
L 29.109375 43.015625 
Q 36.375 43.015625 40.234375 45.921875 
Q 44.09375 48.828125 44.09375 54.296875 
Q 44.09375 59.90625 40.109375 62.90625 
Q 36.140625 65.921875 28.71875 65.921875 
Q 24.65625 65.921875 20.015625 65.03125 
Q 15.375 64.15625 9.8125 62.3125 
L 9.8125 71.09375 
Q 15.4375 72.65625 20.34375 73.4375 
Q 25.25 74.21875 29.59375 74.21875 
Q 40.828125 74.21875 47.359375 69.109375 
Q 53.90625 64.015625 53.90625 55.328125 
Q 53.90625 49.265625 50.4375 45.09375 
Q 46.96875 40.921875 40.578125 39.3125 
z
" id="DejaVuSans-51"/>
       </defs>
       <use xlink:href="#DejaVuSans-51"/>
       <use x="63.623047" xlink:href="#DejaVuSans-48"/>
       <use x="127.246094" xlink:href="#DejaVuSans-48"/>
      </g>
     </g>
    </g>
    <g id="text_8">
     <!-- Generations -->
     <g transform="translate(205.662344 335.860562)scale(0.1 -0.1)">
      <defs>
       <path d="M 59.515625 10.40625 
L 59.515625 29.984375 
L 43.40625 29.984375 
L 43.40625 38.09375 
L 69.28125 38.09375 
L 69.28125 6.78125 
Q 63.578125 2.734375 56.6875 0.65625 
Q 49.8125 -1.421875 42 -1.421875 
Q 24.90625 -1.421875 15.25 8.5625 
Q 5.609375 18.5625 5.609375 36.375 
Q 5.609375 54.25 15.25 64.234375 
Q 24.90625 74.21875 42 74.21875 
Q 49.125 74.21875 55.546875 72.453125 
Q 61.96875 70.703125 67.390625 67.28125 
L 67.390625 56.78125 
Q 61.921875 61.421875 55.765625 63.765625 
Q 49.609375 66.109375 42.828125 66.109375 
Q 29.4375 66.109375 22.71875 58.640625 
Q 16.015625 51.171875 16.015625 36.375 
Q 16.015625 21.625 22.71875 14.15625 
Q 29.4375 6.6875 42.828125 6.6875 
Q 48.046875 6.6875 52.140625 7.59375 
Q 56.25 8.5 59.515625 10.40625 
z
" id="DejaVuSans-71"/>
       <path d="M 56.203125 29.59375 
L 56.203125 25.203125 
L 14.890625 25.203125 
Q 15.484375 15.921875 20.484375 11.0625 
Q 25.484375 6.203125 34.421875 6.203125 
Q 39.59375 6.203125 44.453125 7.46875 
Q 49.3125 8.734375 54.109375 11.28125 
L 54.109375 2.78125 
Q 49.265625 0.734375 44.1875 -0.34375 
Q 39.109375 -1.421875 33.890625 -1.421875 
Q 20.796875 -1.421875 13.15625 6.1875 
Q 5.515625 13.8125 5.515625 26.8125 
Q 5.515625 40.234375 12.765625 48.109375 
Q 20.015625 56 32.328125 56 
Q 43.359375 56 49.78125 48.890625 
Q 56.203125 41.796875 56.203125 29.59375 
z
M 47.21875 32.234375 
Q 47.125 39.59375 43.09375 43.984375 
Q 39.0625 48.390625 32.421875 48.390625 
Q 24.90625 48.390625 20.390625 44.140625 
Q 15.875 39.890625 15.1875 32.171875 
z
" id="DejaVuSans-101"/>
       <path d="M 54.890625 33.015625 
L 54.890625 0 
L 45.90625 0 
L 45.90625 32.71875 
Q 45.90625 40.484375 42.875 44.328125 
Q 39.84375 48.1875 33.796875 48.1875 
Q 26.515625 48.1875 22.3125 43.546875 
Q 18.109375 38.921875 18.109375 30.90625 
L 18.109375 0 
L 9.078125 0 
L 9.078125 54.6875 
L 18.109375 54.6875 
L 18.109375 46.1875 
Q 21.34375 51.125 25.703125 53.5625 
Q 30.078125 56 35.796875 56 
Q 45.21875 56 50.046875 50.171875 
Q 54.890625 44.34375 54.890625 33.015625 
z
" id="DejaVuSans-110"/>
       <path d="M 41.109375 46.296875 
Q 39.59375 47.171875 37.8125 47.578125 
Q 36.03125 48 33.890625 48 
Q 26.265625 48 22.1875 43.046875 
Q 18.109375 38.09375 18.109375 28.8125 
L 18.109375 0 
L 9.078125 0 
L 9.078125 54.6875 
L 18.109375 54.6875 
L 18.109375 46.1875 
Q 20.953125 51.171875 25.484375 53.578125 
Q 30.03125 56 36.53125 56 
Q 37.453125 56 38.578125 55.875 
Q 39.703125 55.765625 41.0625 55.515625 
z
" id="DejaVuSans-114"/>
       <path d="M 34.28125 27.484375 
Q 23.390625 27.484375 19.1875 25 
Q 14.984375 22.515625 14.984375 16.5 
Q 14.984375 11.71875 18.140625 8.90625 
Q 21.296875 6.109375 26.703125 6.109375 
Q 34.1875 6.109375 38.703125 11.40625 
Q 43.21875 16.703125 43.21875 25.484375 
L 43.21875 27.484375 
z
M 52.203125 31.203125 
L 52.203125 0 
L 43.21875 0 
L 43.21875 8.296875 
Q 40.140625 3.328125 35.546875 0.953125 
Q 30.953125 -1.421875 24.3125 -1.421875 
Q 15.921875 -1.421875 10.953125 3.296875 
Q 6 8.015625 6 15.921875 
Q 6 25.140625 12.171875 29.828125 
Q 18.359375 34.515625 30.609375 34.515625 
L 43.21875 34.515625 
L 43.21875 35.40625 
Q 43.21875 41.609375 39.140625 45 
Q 35.0625 48.390625 27.6875 48.390625 
Q 23 48.390625 18.546875 47.265625 
Q 14.109375 46.140625 10.015625 43.890625 
L 10.015625 52.203125 
Q 14.9375 54.109375 19.578125 55.046875 
Q 24.21875 56 28.609375 56 
Q 40.484375 56 46.34375 49.84375 
Q 52.203125 43.703125 52.203125 31.203125 
z
" id="DejaVuSans-97"/>
       <path d="M 18.3125 70.21875 
L 18.3125 54.6875 
L 36.8125 54.6875 
L 36.8125 47.703125 
L 18.3125 47.703125 
L 18.3125 18.015625 
Q 18.3125 11.328125 20.140625 9.421875 
Q 21.96875 7.515625 27.59375 7.515625 
L 36.8125 7.515625 
L 36.8125 0 
L 27.59375 0 
Q 17.1875 0 13.234375 3.875 
Q 9.28125 7.765625 9.28125 18.015625 
L 9.28125 47.703125 
L 2.6875 47.703125 
L 2.6875 54.6875 
L 9.28125 54.6875 
L 9.28125 70.21875 
z
" id="DejaVuSans-116"/>
       <path d="M 9.421875 54.6875 
L 18.40625 54.6875 
L 18.40625 0 
L 9.421875 0 
z
M 9.421875 75.984375 
L 18.40625 75.984375 
L 18.40625 64.59375 
L 9.421875 64.59375 
z
" id="DejaVuSans-105"/>
       <path d="M 30.609375 48.390625 
Q 23.390625 48.390625 19.1875 42.75 
Q 14.984375 37.109375 14.984375 27.296875 
Q 14.984375 17.484375 19.15625 11.84375 
Q 23.34375 6.203125 30.609375 6.203125 
Q 37.796875 6.203125 41.984375 11.859375 
Q 46.1875 17.53125 46.1875 27.296875 
Q 46.1875 37.015625 41.984375 42.703125 
Q 37.796875 48.390625 30.609375 48.390625 
z
M 30.609375 56 
Q 42.328125 56 49.015625 48.375 
Q 55.71875 40.765625 55.71875 27.296875 
Q 55.71875 13.875 49.015625 6.21875 
Q 42.328125 -1.421875 30.609375 -1.421875 
Q 18.84375 -1.421875 12.171875 6.21875 
Q 5.515625 13.875 5.515625 27.296875 
Q 5.515625 40.765625 12.171875 48.375 
Q 18.84375 56 30.609375 56 
z
" id="DejaVuSans-111"/>
       <path d="M 44.28125 53.078125 
L 44.28125 44.578125 
Q 40.484375 46.53125 36.375 47.5 
Q 32.28125 48.484375 27.875 48.484375 
Q 21.1875 48.484375 17.84375 46.4375 
Q 14.5 44.390625 14.5 40.28125 
Q 14.5 37.15625 16.890625 35.375 
Q 19.28125 33.59375 26.515625 31.984375 
L 29.59375 31.296875 
Q 39.15625 29.25 43.1875 25.515625 
Q 47.21875 21.78125 47.21875 15.09375 
Q 47.21875 7.46875 41.1875 3.015625 
Q 35.15625 -1.421875 24.609375 -1.421875 
Q 20.21875 -1.421875 15.453125 -0.5625 
Q 10.6875 0.296875 5.421875 2 
L 5.421875 11.28125 
Q 10.40625 8.6875 15.234375 7.390625 
Q 20.0625 6.109375 24.8125 6.109375 
Q 31.15625 6.109375 34.5625 8.28125 
Q 37.984375 10.453125 37.984375 14.40625 
Q 37.984375 18.0625 35.515625 20.015625 
Q 33.0625 21.96875 24.703125 23.78125 
L 21.578125 24.515625 
Q 13.234375 26.265625 9.515625 29.90625 
Q 5.8125 33.546875 5.8125 39.890625 
Q 5.8125 47.609375 11.28125 51.796875 
Q 16.75 56 26.8125 56 
Q 31.78125 56 36.171875 55.265625 
Q 40.578125 54.546875 44.28125 53.078125 
z
" id="DejaVuSans-115"/>
      </defs>
      <use xlink:href="#DejaVuSans-71"/>
      <use x="77.490234" xlink:href="#DejaVuSans-101"/>
      <use x="139.013672" xlink:href="#DejaVuSans-110"/>
      <use x="202.392578" xlink:href="#DejaVuSans-101"/>
      <use x="263.916016" xlink:href="#DejaVuSans-114"/>
      <use x="305.029297" xlink:href="#DejaVuSans-97"/>
      <use x="366.308594" xlink:href="#DejaVuSans-116"/>
      <use x="405.517578" xlink:href="#DejaVuSans-105"/>
      <use x="433.300781" xlink:href="#DejaVuSans-111"/>
      <use x="494.482422" xlink:href="#DejaVuSans-110"/>
      <use x="557.861328" xlink:href="#DejaVuSans-115"/>
     </g>
    </g>
   </g>
   <g id="matplotlib.axis_2">
    <g id="ytick_1">
     <g id="line2d_15">
      <path clip-path="url(#p7b1d92775a)" d="M 57.6 275.800281 
L 414.72 275.800281 
" style="fill:none;stroke:#b0b0b0;stroke-linecap:square;stroke-width:0.8;"/>
     </g>
     <g id="line2d_16">
      <defs>
       <path d="M 0 0 
L -3.5 0 
" id="mae784e7df8" style="stroke:#000000;stroke-width:0.8;"/>
      </defs>
      <g>
       <use style="stroke:#000000;stroke-width:0.8;" x="57.6" xlink:href="#mae784e7df8" y="275.800281"/>
      </g>
     </g>
     <g id="text_9">
      <!-- 300 -->
      <g transform="translate(31.5125 279.5995)scale(0.1 -0.1)">
       <use xlink:href="#DejaVuSans-51"/>
       <use x="63.623047" xlink:href="#DejaVuSans-48"/>
       <use x="127.246094" xlink:href="#DejaVuSans-48"/>
      </g>
     </g>
    </g>
    <g id="ytick_2">
     <g id="line2d_17">
      <path clip-path="url(#p7b1d92775a)" d="M 57.6 241.923409 
L 414.72 241.923409 
" style="fill:none;stroke:#b0b0b0;stroke-linecap:square;stroke-width:0.8;"/>
     </g>
     <g id="line2d_18">
      <g>
       <use style="stroke:#000000;stroke-width:0.8;" x="57.6" xlink:href="#mae784e7df8" y="241.923409"/>
      </g>
     </g>
     <g id="text_10">
      <!-- 400 -->
      <g transform="translate(31.5125 245.722628)scale(0.1 -0.1)">
       <defs>
        <path d="M 37.796875 64.3125 
L 12.890625 25.390625 
L 37.796875 25.390625 
z
M 35.203125 72.90625 
L 47.609375 72.90625 
L 47.609375 25.390625 
L 58.015625 25.390625 
L 58.015625 17.1875 
L 47.609375 17.1875 
L 47.609375 0 
L 37.796875 0 
L 37.796875 17.1875 
L 4.890625 17.1875 
L 4.890625 26.703125 
z
" id="DejaVuSans-52"/>
       </defs>
       <use xlink:href="#DejaVuSans-52"/>
       <use x="63.623047" xlink:href="#DejaVuSans-48"/>
       <use x="127.246094" xlink:href="#DejaVuSans-48"/>
      </g>
     </g>
    </g>
    <g id="ytick_3">
     <g id="line2d_19">
      <path clip-path="url(#p7b1d92775a)" d="M 57.6 208.046537 
L 414.72 208.046537 
" style="fill:none;stroke:#b0b0b0;stroke-linecap:square;stroke-width:0.8;"/>
     </g>
     <g id="line2d_20">
      <g>
       <use style="stroke:#000000;stroke-width:0.8;" x="57.6" xlink:href="#mae784e7df8" y="208.046537"/>
      </g>
     </g>
     <g id="text_11">
      <!-- 500 -->
      <g transform="translate(31.5125 211.845756)scale(0.1 -0.1)">
       <use xlink:href="#DejaVuSans-53"/>
       <use x="63.623047" xlink:href="#DejaVuSans-48"/>
       <use x="127.246094" xlink:href="#DejaVuSans-48"/>
      </g>
     </g>
    </g>
    <g id="ytick_4">
     <g id="line2d_21">
      <path clip-path="url(#p7b1d92775a)" d="M 57.6 174.169665 
L 414.72 174.169665 
" style="fill:none;stroke:#b0b0b0;stroke-linecap:square;stroke-width:0.8;"/>
     </g>
     <g id="line2d_22">
      <g>
       <use style="stroke:#000000;stroke-width:0.8;" x="57.6" xlink:href="#mae784e7df8" y="174.169665"/>
      </g>
     </g>
     <g id="text_12">
      <!-- 600 -->
      <g transform="translate(31.5125 177.968883)scale(0.1 -0.1)">
       <defs>
        <path d="M 33.015625 40.375 
Q 26.375 40.375 22.484375 35.828125 
Q 18.609375 31.296875 18.609375 23.390625 
Q 18.609375 15.53125 22.484375 10.953125 
Q 26.375 6.390625 33.015625 6.390625 
Q 39.65625 6.390625 43.53125 10.953125 
Q 47.40625 15.53125 47.40625 23.390625 
Q 47.40625 31.296875 43.53125 35.828125 
Q 39.65625 40.375 33.015625 40.375 
z
M 52.59375 71.296875 
L 52.59375 62.3125 
Q 48.875 64.0625 45.09375 64.984375 
Q 41.3125 65.921875 37.59375 65.921875 
Q 27.828125 65.921875 22.671875 59.328125 
Q 17.53125 52.734375 16.796875 39.40625 
Q 19.671875 43.65625 24.015625 45.921875 
Q 28.375 48.1875 33.59375 48.1875 
Q 44.578125 48.1875 50.953125 41.515625 
Q 57.328125 34.859375 57.328125 23.390625 
Q 57.328125 12.15625 50.6875 5.359375 
Q 44.046875 -1.421875 33.015625 -1.421875 
Q 20.359375 -1.421875 13.671875 8.265625 
Q 6.984375 17.96875 6.984375 36.375 
Q 6.984375 53.65625 15.1875 63.9375 
Q 23.390625 74.21875 37.203125 74.21875 
Q 40.921875 74.21875 44.703125 73.484375 
Q 48.484375 72.75 52.59375 71.296875 
z
" id="DejaVuSans-54"/>
       </defs>
       <use xlink:href="#DejaVuSans-54"/>
       <use x="63.623047" xlink:href="#DejaVuSans-48"/>
       <use x="127.246094" xlink:href="#DejaVuSans-48"/>
      </g>
     </g>
    </g>
    <g id="ytick_5">
     <g id="line2d_23">
      <path clip-path="url(#p7b1d92775a)" d="M 57.6 140.292793 
L 414.72 140.292793 
" style="fill:none;stroke:#b0b0b0;stroke-linecap:square;stroke-width:0.8;"/>
     </g>
     <g id="line2d_24">
      <g>
       <use style="stroke:#000000;stroke-width:0.8;" x="57.6" xlink:href="#mae784e7df8" y="140.292793"/>
      </g>
     </g>
     <g id="text_13">
      <!-- 700 -->
      <g transform="translate(31.5125 144.092011)scale(0.1 -0.1)">
       <defs>
        <path d="M 8.203125 72.90625 
L 55.078125 72.90625 
L 55.078125 68.703125 
L 28.609375 0 
L 18.3125 0 
L 43.21875 64.59375 
L 8.203125 64.59375 
z
" id="DejaVuSans-55"/>
       </defs>
       <use xlink:href="#DejaVuSans-55"/>
       <use x="63.623047" xlink:href="#DejaVuSans-48"/>
       <use x="127.246094" xlink:href="#DejaVuSans-48"/>
      </g>
     </g>
    </g>
    <g id="ytick_6">
     <g id="line2d_25">
      <path clip-path="url(#p7b1d92775a)" d="M 57.6 106.41592 
L 414.72 106.41592 
" style="fill:none;stroke:#b0b0b0;stroke-linecap:square;stroke-width:0.8;"/>
     </g>
     <g id="line2d_26">
      <g>
       <use style="stroke:#000000;stroke-width:0.8;" x="57.6" xlink:href="#mae784e7df8" y="106.41592"/>
      </g>
     </g>
     <g id="text_14">
      <!-- 800 -->
      <g transform="translate(31.5125 110.215139)scale(0.1 -0.1)">
       <defs>
        <path d="M 31.78125 34.625 
Q 24.75 34.625 20.71875 30.859375 
Q 16.703125 27.09375 16.703125 20.515625 
Q 16.703125 13.921875 20.71875 10.15625 
Q 24.75 6.390625 31.78125 6.390625 
Q 38.8125 6.390625 42.859375 10.171875 
Q 46.921875 13.96875 46.921875 20.515625 
Q 46.921875 27.09375 42.890625 30.859375 
Q 38.875 34.625 31.78125 34.625 
z
M 21.921875 38.8125 
Q 15.578125 40.375 12.03125 44.71875 
Q 8.5 49.078125 8.5 55.328125 
Q 8.5 64.0625 14.71875 69.140625 
Q 20.953125 74.21875 31.78125 74.21875 
Q 42.671875 74.21875 48.875 69.140625 
Q 55.078125 64.0625 55.078125 55.328125 
Q 55.078125 49.078125 51.53125 44.71875 
Q 48 40.375 41.703125 38.8125 
Q 48.828125 37.15625 52.796875 32.3125 
Q 56.78125 27.484375 56.78125 20.515625 
Q 56.78125 9.90625 50.3125 4.234375 
Q 43.84375 -1.421875 31.78125 -1.421875 
Q 19.734375 -1.421875 13.25 4.234375 
Q 6.78125 9.90625 6.78125 20.515625 
Q 6.78125 27.484375 10.78125 32.3125 
Q 14.796875 37.15625 21.921875 38.8125 
z
M 18.3125 54.390625 
Q 18.3125 48.734375 21.84375 45.5625 
Q 25.390625 42.390625 31.78125 42.390625 
Q 38.140625 42.390625 41.71875 45.5625 
Q 45.3125 48.734375 45.3125 54.390625 
Q 45.3125 60.0625 41.71875 63.234375 
Q 38.140625 66.40625 31.78125 66.40625 
Q 25.390625 66.40625 21.84375 63.234375 
Q 18.3125 60.0625 18.3125 54.390625 
z
" id="DejaVuSans-56"/>
       </defs>
       <use xlink:href="#DejaVuSans-56"/>
       <use x="63.623047" xlink:href="#DejaVuSans-48"/>
       <use x="127.246094" xlink:href="#DejaVuSans-48"/>
      </g>
     </g>
    </g>
    <g id="ytick_7">
     <g id="line2d_27">
      <path clip-path="url(#p7b1d92775a)" d="M 57.6 72.539048 
L 414.72 72.539048 
" style="fill:none;stroke:#b0b0b0;stroke-linecap:square;stroke-width:0.8;"/>
     </g>
     <g id="line2d_28">
      <g>
       <use style="stroke:#000000;stroke-width:0.8;" x="57.6" xlink:href="#mae784e7df8" y="72.539048"/>
      </g>
     </g>
     <g id="text_15">
      <!-- 900 -->
      <g transform="translate(31.5125 76.338267)scale(0.1 -0.1)">
       <defs>
        <path d="M 10.984375 1.515625 
L 10.984375 10.5 
Q 14.703125 8.734375 18.5 7.8125 
Q 22.3125 6.890625 25.984375 6.890625 
Q 35.75 6.890625 40.890625 13.453125 
Q 46.046875 20.015625 46.78125 33.40625 
Q 43.953125 29.203125 39.59375 26.953125 
Q 35.25 24.703125 29.984375 24.703125 
Q 19.046875 24.703125 12.671875 31.3125 
Q 6.296875 37.9375 6.296875 49.421875 
Q 6.296875 60.640625 12.9375 67.421875 
Q 19.578125 74.21875 30.609375 74.21875 
Q 43.265625 74.21875 49.921875 64.515625 
Q 56.59375 54.828125 56.59375 36.375 
Q 56.59375 19.140625 48.40625 8.859375 
Q 40.234375 -1.421875 26.421875 -1.421875 
Q 22.703125 -1.421875 18.890625 -0.6875 
Q 15.09375 0.046875 10.984375 1.515625 
z
M 30.609375 32.421875 
Q 37.25 32.421875 41.125 36.953125 
Q 45.015625 41.5 45.015625 49.421875 
Q 45.015625 57.28125 41.125 61.84375 
Q 37.25 66.40625 30.609375 66.40625 
Q 23.96875 66.40625 20.09375 61.84375 
Q 16.21875 57.28125 16.21875 49.421875 
Q 16.21875 41.5 20.09375 36.953125 
Q 23.96875 32.421875 30.609375 32.421875 
z
" id="DejaVuSans-57"/>
       </defs>
       <use xlink:href="#DejaVuSans-57"/>
       <use x="63.623047" xlink:href="#DejaVuSans-48"/>
       <use x="127.246094" xlink:href="#DejaVuSans-48"/>
      </g>
     </g>
    </g>
    <g id="text_16">
     <!-- Fitness -->
     <g transform="translate(25.432812 191.845187)rotate(-90)scale(0.1 -0.1)">
      <defs>
       <path d="M 9.8125 72.90625 
L 51.703125 72.90625 
L 51.703125 64.59375 
L 19.671875 64.59375 
L 19.671875 43.109375 
L 48.578125 43.109375 
L 48.578125 34.8125 
L 19.671875 34.8125 
L 19.671875 0 
L 9.8125 0 
z
" id="DejaVuSans-70"/>
      </defs>
      <use xlink:href="#DejaVuSans-70"/>
      <use x="50.269531" xlink:href="#DejaVuSans-105"/>
      <use x="78.052734" xlink:href="#DejaVuSans-116"/>
      <use x="117.261719" xlink:href="#DejaVuSans-110"/>
      <use x="180.640625" xlink:href="#DejaVuSans-101"/>
      <use x="242.164062" xlink:href="#DejaVuSans-115"/>
      <use x="294.263672" xlink:href="#DejaVuSans-115"/>
     </g>
    </g>
   </g>
   <g id="line2d_29">
    <path clip-path="url(#p7b1d92775a)" d="M 73.832727 264.471855 
L 74.883389 264.329572 
L 75.934051 264.725321 
L 76.984713 264.092962 
L 78.035375 264.091382 
L 79.086037 263.632838 
L 80.136699 264.627407 
L 82.238023 262.649191 
L 83.288685 263.306836 
L 84.339347 262.120844 
L 85.390009 262.882585 
L 86.440671 262.436523 
L 87.491333 261.321381 
L 88.541995 262.428726 
L 89.592657 261.310952 
L 90.643319 261.815093 
L 91.693981 261.247814 
L 92.744643 260.29279 
L 93.795305 261.991149 
L 94.845966 261.430841 
L 95.896628 260.597743 
L 96.94729 262.241466 
L 97.997952 261.792463 
L 99.048614 261.126094 
L 100.099276 260.833128 
L 101.149938 263.032318 
L 102.2006 259.25938 
L 103.251262 259.183504 
L 104.301924 258.785011 
L 105.352586 257.684709 
L 106.403248 259.273955 
L 107.45391 256.680589 
L 108.504572 256.021663 
L 109.555234 256.530714 
L 110.605896 257.697956 
L 111.656558 255.270897 
L 112.70722 252.042431 
L 113.757882 260.624127 
L 114.808544 255.640085 
L 115.859206 253.27045 
L 116.909868 254.38671 
L 117.96053 257.732616 
L 119.011192 257.825007 
L 120.061853 253.337841 
L 121.112515 251.657824 
L 122.163177 250.818603 
L 123.213839 250.233406 
L 124.264501 252.513319 
L 126.365825 248.14659 
L 127.416487 245.068141 
L 128.467149 250.707682 
L 129.517811 251.161632 
L 130.568473 248.641193 
L 131.619135 247.685865 
L 132.669797 244.755515 
L 133.720459 246.029696 
L 134.771121 254.92874 
L 135.821783 246.188507 
L 136.872445 247.123509 
L 137.923107 247.099795 
L 138.973769 246.815229 
L 140.024431 247.27998 
L 141.075093 243.989898 
L 142.125755 246.669559 
L 143.176417 242.495928 
L 144.227079 240.31087 
L 145.277741 239.572354 
L 146.328402 237.444886 
L 147.379064 235.972714 
L 148.429726 235.049792 
L 149.480388 237.163708 
L 150.53105 233.30852 
L 151.581712 236.15079 
L 152.632374 240.019529 
L 153.683036 234.931223 
L 154.733698 234.084301 
L 155.78436 228.59286 
L 156.835022 263.411509 
L 157.885684 260.342264 
L 158.936346 262.195866 
L 159.987008 259.664727 
L 161.03767 265.637219 
L 162.088332 265.123933 
L 163.138994 262.396674 
L 164.189656 266.277492 
L 165.240318 262.236116 
L 166.29098 265.925676 
L 167.341642 263.880272 
L 170.493628 262.759362 
L 171.544289 266.460427 
L 172.594951 259.260988 
L 173.645613 263.447199 
L 174.696275 263.645259 
L 175.746937 264.187289 
L 176.797599 257.74052 
L 177.848261 264.928885 
L 178.898923 267.649091 
L 179.949585 263.837297 
L 182.050909 258.38891 
L 183.101571 255.28106 
L 184.152233 256.27704 
L 186.253557 251.641421 
L 187.304219 244.004417 
L 188.354881 246.412094 
L 190.456205 238.637352 
L 191.506867 232.961131 
L 192.557529 230.264398 
L 193.608191 243.050402 
L 194.658853 232.865623 
L 195.709515 230.18846 
L 196.760177 237.86845 
L 197.810838 236.652168 
L 198.8615 237.269616 
L 199.912162 229.575289 
L 200.962824 237.560478 
L 202.013486 223.988792 
L 204.11481 221.967166 
L 205.165472 223.181528 
L 206.216134 231.291546 
L 207.266796 226.524831 
L 208.317458 229.183652 
L 209.36812 231.323336 
L 210.418782 225.210819 
L 211.469444 234.55685 
L 212.520106 229.287987 
L 213.570768 229.353135 
L 214.62143 228.831952 
L 215.672092 229.63474 
L 216.722754 236.512976 
L 217.773416 236.088291 
L 218.824078 232.952951 
L 219.87474 235.510757 
L 220.925402 231.608247 
L 221.976064 230.149467 
L 223.026726 237.124734 
L 224.077387 233.501242 
L 225.128049 232.569119 
L 226.178711 232.550808 
L 227.229373 229.276043 
L 228.280035 230.237442 
L 229.330697 236.602925 
L 230.381359 232.012175 
L 231.432021 230.653299 
L 232.482683 232.258537 
L 233.533345 230.543726 
L 234.584007 232.988728 
L 235.634669 235.113667 
L 236.685331 234.516588 
L 237.735993 236.851096 
L 238.786655 235.899011 
L 239.837317 237.362706 
L 242.989303 242.916189 
L 244.039965 241.613472 
L 245.090627 241.991633 
L 246.141289 241.908126 
L 247.191951 243.973986 
L 248.242613 242.052857 
L 249.293274 240.95129 
L 250.343936 241.706597 
L 251.394598 245.3029 
L 252.44526 246.005432 
L 253.495922 245.609111 
L 254.546584 247.458984 
L 255.597246 248.572033 
L 256.647908 247.160402 
L 257.69857 245.497419 
L 258.749232 245.898756 
L 259.799894 249.241256 
L 260.850556 245.240138 
L 261.901218 248.093324 
L 262.95188 249.958068 
L 264.002542 248.406997 
L 265.053204 245.570904 
L 266.103866 248.768077 
L 268.20519 241.136982 
L 269.255852 241.86345 
L 270.306514 240.483642 
L 271.357176 240.626321 
L 272.407838 237.466391 
L 273.4585 240.278397 
L 274.509162 238.407941 
L 275.559823 237.488336 
L 276.610485 236.249769 
L 277.661147 238.753912 
L 278.711809 234.989143 
L 279.762471 235.948488 
L 280.813133 237.186696 
L 281.863795 237.668357 
L 282.914457 235.974754 
L 283.965119 239.154208 
L 285.015781 233.083158 
L 286.066443 231.1447 
L 287.117105 230.64725 
L 288.167767 234.518436 
L 290.269091 239.178432 
L 291.319753 238.082975 
L 292.370415 236.10304 
L 293.421077 235.665598 
L 294.471739 231.671036 
L 295.522401 230.661723 
L 296.573063 233.649058 
L 297.623725 235.519207 
L 298.674387 236.122345 
L 299.725049 238.518923 
L 300.775711 239.043875 
L 301.826372 238.623857 
L 302.877034 239.680134 
L 303.927696 236.788853 
L 304.978358 237.773492 
L 306.02902 237.66376 
L 307.079682 235.222983 
L 308.130344 236.675414 
L 309.181006 233.876928 
L 310.231668 235.834646 
L 311.28233 235.265511 
L 312.332992 238.524794 
L 313.383654 237.5053 
L 314.434316 237.39446 
L 315.484978 238.097473 
L 316.53564 240.912611 
L 317.586302 244.29479 
L 318.636964 241.096813 
L 319.687626 245.212289 
L 320.738288 244.387181 
L 321.78895 244.855956 
L 322.839612 252.134523 
L 323.890274 247.735845 
L 324.940936 247.949675 
L 325.991598 247.992818 
L 327.042259 248.834291 
L 328.092921 247.53971 
L 329.143583 250.388049 
L 331.244907 251.108939 
L 332.295569 253.06114 
L 333.346231 251.816673 
L 334.396893 250.208017 
L 335.447555 250.311874 
L 336.498217 250.669288 
L 337.548879 248.192696 
L 338.599541 249.925787 
L 339.650203 246.691014 
L 340.700865 252.834181 
L 341.751527 249.437673 
L 342.802189 251.261058 
L 343.852851 250.991203 
L 344.903513 250.869726 
L 345.954175 250.040521 
L 347.004837 252.043452 
L 348.055499 252.548689 
L 349.106161 252.386944 
L 350.156823 256.302259 
L 351.207485 252.199393 
L 352.258147 252.731604 
L 353.308808 251.198663 
L 354.35947 249.364434 
L 355.410132 247.22789 
L 356.460794 250.994546 
L 357.511456 250.338182 
L 358.562118 250.98179 
L 359.61278 251.965892 
L 360.663442 250.438334 
L 361.714104 254.794111 
L 362.764766 254.360705 
L 363.815428 254.619871 
L 364.86609 254.420487 
L 365.916752 256.333275 
L 366.967414 253.956584 
L 368.018076 253.176541 
L 369.068738 254.181818 
L 370.1194 257.46644 
L 371.170062 257.074905 
L 372.220724 254.810171 
L 373.271386 257.935695 
L 375.37271 250.5271 
L 376.423372 249.586301 
L 377.474034 248.846074 
L 378.524695 251.196078 
L 379.575357 250.445952 
L 380.626019 252.202445 
L 381.676681 252.950915 
L 382.727343 252.120975 
L 383.778005 251.847518 
L 384.828667 252.15364 
L 385.879329 250.258984 
L 386.929991 247.487151 
L 387.980653 246.56938 
L 389.031315 247.499542 
L 390.081977 244.985233 
L 391.132639 242.155954 
L 392.183301 242.416704 
L 393.233963 242.497179 
L 394.284625 240.602211 
L 395.335287 236.425163 
L 396.385949 245.258741 
L 397.436611 241.035285 
L 398.487273 231.150564 
L 398.487273 231.150564 
" style="fill:none;stroke:#0000ff;stroke-linecap:square;stroke-width:1.5;"/>
   </g>
   <g id="line2d_30">
    <path clip-path="url(#p7b1d92775a)" d="M 73.832727 265.113408 
L 74.883389 265.903798 
L 75.934051 271.360432 
L 76.984713 269.727758 
L 78.035375 269.139732 
L 79.086037 272.661562 
L 80.136699 274.116948 
L 81.187361 272.588304 
L 82.238023 272.336918 
L 83.288685 273.567097 
L 84.339347 270.497974 
L 85.390009 275.024974 
L 86.440671 271.72306 
L 87.491333 270.564202 
L 88.541995 273.518705 
L 89.592657 269.886728 
L 90.643319 271.967268 
L 91.693981 270.524804 
L 92.744643 270.306584 
L 93.795305 273.193491 
L 94.845966 271.953733 
L 95.896628 269.959711 
L 96.94729 272.557743 
L 97.997952 270.508486 
L 99.048614 269.290933 
L 100.099276 270.507702 
L 101.149938 276.182296 
L 102.2006 269.170074 
L 103.251262 271.85764 
L 104.301924 272.469689 
L 105.352586 270.134599 
L 106.403248 277.451669 
L 107.45391 270.26966 
L 108.504572 273.66773 
L 109.555234 275.937662 
L 110.605896 278.730509 
L 111.656558 278.079719 
L 112.70722 272.529938 
L 113.757882 280.972593 
L 114.808544 276.812688 
L 115.859206 271.767783 
L 116.909868 272.860778 
L 117.96053 275.136803 
L 119.011192 275.784031 
L 120.061853 270.798061 
L 121.112515 274.900005 
L 122.163177 271.558533 
L 123.213839 273.887831 
L 124.264501 277.222015 
L 125.315163 270.398383 
L 127.416487 269.573951 
L 128.467149 273.427032 
L 129.517811 278.515894 
L 130.568473 273.321514 
L 131.619135 272.259864 
L 132.669797 270.623586 
L 133.720459 268.136659 
L 134.771121 279.830979 
L 135.821783 276.810392 
L 136.872445 271.153956 
L 137.923107 271.794342 
L 138.973769 275.88069 
L 140.024431 272.793236 
L 141.075093 271.798766 
L 142.125755 273.787291 
L 143.176417 279.245065 
L 144.227079 277.133615 
L 145.277741 278.548687 
L 146.328402 278.065519 
L 147.379064 272.350342 
L 148.429726 274.005994 
L 149.480388 274.167842 
L 150.53105 269.371537 
L 152.632374 280.160714 
L 153.683036 273.790624 
L 154.733698 273.491419 
L 155.78436 267.887764 
L 156.835022 280.736358 
L 157.885684 277.806418 
L 158.936346 283.119509 
L 159.987008 281.148202 
L 161.03767 285.205166 
L 162.088332 287.326811 
L 163.138994 282.683417 
L 164.189656 287.894913 
L 165.240318 288.856591 
L 166.29098 290.650549 
L 167.341642 289.464743 
L 168.392304 287.578129 
L 169.442966 286.001808 
L 170.493628 286.931314 
L 171.544289 290.760525 
L 172.594951 282.990433 
L 173.645613 288.75033 
L 174.696275 287.32872 
L 175.746937 287.286352 
L 176.797599 281.127818 
L 177.848261 290.578958 
L 178.898923 295.488 
L 179.949585 285.759186 
L 181.000247 288.270555 
L 182.050909 283.471847 
L 183.101571 284.417819 
L 184.152233 285.941678 
L 185.202895 280.418104 
L 186.253557 284.974253 
L 187.304219 277.788762 
L 188.354881 279.015354 
L 189.405543 279.117518 
L 190.456205 276.401465 
L 191.506867 270.47394 
L 192.557529 269.231106 
L 193.608191 277.217244 
L 194.658853 269.511264 
L 195.709515 266.479542 
L 196.760177 274.190182 
L 197.810838 275.358131 
L 198.8615 271.466485 
L 199.912162 268.595016 
L 200.962824 275.491675 
L 202.013486 258.329116 
L 203.064148 259.093835 
L 205.165472 258.347632 
L 206.216134 266.191408 
L 207.266796 263.639341 
L 208.317458 265.159055 
L 209.36812 268.875762 
L 210.418782 264.245129 
L 211.469444 273.09858 
L 212.520106 264.540878 
L 213.570768 264.866099 
L 215.672092 267.074827 
L 216.722754 273.945151 
L 217.773416 274.455343 
L 218.824078 272.270568 
L 219.87474 272.220074 
L 220.925402 266.007535 
L 221.976064 268.26589 
L 223.026726 273.516515 
L 224.077387 269.039484 
L 225.128049 270.615471 
L 226.178711 269.094322 
L 227.229373 269.944445 
L 228.280035 266.202845 
L 229.330697 274.161582 
L 230.381359 267.866545 
L 231.432021 269.311837 
L 232.482683 269.986438 
L 233.533345 268.484662 
L 234.584007 269.311369 
L 235.634669 271.88281 
L 236.685331 271.47856 
L 237.735993 275.471073 
L 238.786655 272.675549 
L 239.837317 273.468828 
L 240.887979 275.661714 
L 241.938641 276.228395 
L 242.989303 276.228176 
L 244.039965 277.388395 
L 245.090627 276.246723 
L 246.141289 274.250729 
L 247.191951 275.827154 
L 248.242613 274.716203 
L 249.293274 276.451011 
L 250.343936 276.787164 
L 251.394598 276.876367 
L 252.44526 280.312133 
L 253.495922 279.277035 
L 254.546584 279.690418 
L 255.597246 279.854624 
L 256.647908 277.475507 
L 257.69857 279.02519 
L 258.749232 277.134872 
L 259.799894 281.898513 
L 260.850556 276.39532 
L 261.901218 279.526377 
L 262.95188 279.572672 
L 264.002542 281.81072 
L 265.053204 276.80911 
L 266.103866 276.238387 
L 267.154528 276.774843 
L 268.20519 275.772584 
L 269.255852 272.867343 
L 270.306514 274.007461 
L 271.357176 275.453075 
L 272.407838 272.751962 
L 273.4585 274.144001 
L 274.509162 270.908787 
L 275.559823 273.440062 
L 276.610485 271.345033 
L 277.661147 273.003348 
L 278.711809 269.07633 
L 279.762471 272.819988 
L 280.813133 273.214406 
L 281.863795 273.902068 
L 282.914457 271.055294 
L 283.965119 275.334235 
L 285.015781 269.874886 
L 286.066443 267.866979 
L 287.117105 267.640886 
L 288.167767 269.903316 
L 290.269091 276.216272 
L 291.319753 272.040926 
L 292.370415 271.953542 
L 293.421077 272.997891 
L 294.471739 266.320384 
L 295.522401 267.554047 
L 297.623725 274.166997 
L 298.674387 274.817561 
L 299.725049 274.999006 
L 300.775711 275.652158 
L 301.826372 273.192975 
L 302.877034 275.909372 
L 303.927696 270.172499 
L 304.978358 275.617913 
L 306.02902 274.877243 
L 307.079682 273.047569 
L 308.130344 272.346215 
L 309.181006 266.327615 
L 310.231668 269.690231 
L 311.28233 267.136035 
L 312.332992 274.534808 
L 313.383654 271.441613 
L 314.434316 271.649481 
L 315.484978 271.542678 
L 316.53564 276.18426 
L 317.586302 277.283929 
L 318.636964 276.016054 
L 319.687626 279.156323 
L 321.78895 276.435057 
L 322.839612 280.824694 
L 323.890274 278.685 
L 324.940936 279.806339 
L 325.991598 279.486665 
L 327.042259 278.652119 
L 328.092921 276.30281 
L 329.143583 278.807292 
L 330.194245 277.636397 
L 331.244907 275.918418 
L 332.295569 279.648029 
L 333.346231 279.80182 
L 334.396893 279.157554 
L 335.447555 279.872768 
L 336.498217 277.854865 
L 337.548879 277.687066 
L 338.599541 279.333972 
L 339.650203 277.667299 
L 340.700865 281.921927 
L 341.751527 280.901946 
L 342.802189 281.790292 
L 343.852851 281.555066 
L 344.903513 281.902602 
L 345.954175 281.017519 
L 347.004837 282.594115 
L 348.055499 280.879163 
L 349.106161 282.170652 
L 350.156823 286.134413 
L 351.207485 280.456757 
L 352.258147 279.037087 
L 353.308808 280.968321 
L 354.35947 281.250804 
L 355.410132 278.824399 
L 356.460794 282.542053 
L 357.511456 278.411694 
L 358.562118 282.125933 
L 359.61278 283.019899 
L 360.663442 278.63595 
L 361.714104 284.813245 
L 362.764766 281.11602 
L 363.815428 281.929088 
L 364.86609 281.923254 
L 365.916752 282.632397 
L 366.967414 282.096474 
L 368.018076 282.895235 
L 369.068738 279.544151 
L 370.1194 282.475072 
L 371.170062 283.744458 
L 372.220724 282.178202 
L 373.271386 284.215415 
L 374.322048 277.98329 
L 375.37271 278.496961 
L 376.423372 277.305085 
L 377.474034 277.681576 
L 378.524695 281.054573 
L 379.575357 274.837655 
L 380.626019 280.141786 
L 381.676681 284.622818 
L 382.727343 277.795273 
L 383.778005 279.794421 
L 384.828667 280.957199 
L 385.879329 278.641796 
L 386.929991 279.353499 
L 387.980653 275.748524 
L 389.031315 276.769725 
L 390.081977 276.15602 
L 391.132639 270.963306 
L 392.183301 276.003193 
L 393.233963 273.127911 
L 394.284625 272.382386 
L 395.335287 268.681022 
L 396.385949 280.801059 
L 398.487273 271.510374 
L 398.487273 271.510374 
" style="fill:none;stroke:#008000;stroke-dasharray:9.6,2.4,1.5,2.4;stroke-dashoffset:0;stroke-width:1.5;"/>
   </g>
   <g id="line2d_31">
    <path clip-path="url(#p7b1d92775a)" d="M 73.832727 263.830302 
L 74.883389 262.755346 
L 75.934051 258.090209 
L 76.984713 258.458166 
L 78.035375 259.043031 
L 79.086037 254.604113 
L 80.136699 255.137866 
L 81.187361 254.673534 
L 82.238023 252.961463 
L 83.288685 253.046575 
L 84.339347 253.743714 
L 85.390009 250.740195 
L 86.440671 253.149985 
L 87.491333 252.078561 
L 88.541995 251.338748 
L 89.592657 252.735176 
L 90.643319 251.662917 
L 91.693981 251.970824 
L 92.744643 250.278995 
L 93.795305 250.788808 
L 94.845966 250.907949 
L 95.896628 251.235774 
L 96.94729 251.92519 
L 97.997952 253.076441 
L 99.048614 252.961255 
L 100.099276 251.158555 
L 101.149938 249.88234 
L 102.2006 249.348685 
L 103.251262 246.509368 
L 104.301924 245.100333 
L 105.352586 245.234819 
L 106.403248 241.096241 
L 107.45391 243.091518 
L 108.504572 238.375595 
L 109.555234 237.123765 
L 110.605896 236.665404 
L 111.656558 232.462074 
L 112.70722 231.554923 
L 113.757882 240.27566 
L 114.808544 234.467483 
L 115.859206 234.773117 
L 116.909868 235.912642 
L 117.96053 240.328429 
L 119.011192 239.865984 
L 120.061853 235.87762 
L 121.112515 228.415644 
L 122.163177 230.078673 
L 123.213839 226.57898 
L 124.264501 227.804623 
L 125.315163 230.236307 
L 126.365825 226.295737 
L 127.416487 220.562331 
L 128.467149 227.988332 
L 129.517811 223.80737 
L 130.568473 223.960872 
L 131.619135 223.111866 
L 132.669797 218.887445 
L 133.720459 223.922734 
L 134.771121 230.026502 
L 135.821783 215.566622 
L 136.872445 223.093061 
L 137.923107 222.405248 
L 138.973769 217.749768 
L 140.024431 221.766723 
L 141.075093 216.18103 
L 142.125755 219.551826 
L 143.176417 205.746791 
L 144.227079 203.488124 
L 145.277741 200.59602 
L 146.328402 196.824254 
L 147.379064 199.595086 
L 148.429726 196.093589 
L 149.480388 200.159575 
L 150.53105 197.245504 
L 151.581712 197.737018 
L 152.632374 199.878343 
L 153.683036 196.071821 
L 154.733698 194.677182 
L 155.78436 189.297955 
L 156.835022 246.08666 
L 157.885684 242.87811 
L 158.936346 241.272222 
L 159.987008 238.181252 
L 161.03767 246.069273 
L 162.088332 242.921056 
L 163.138994 242.109932 
L 164.189656 244.660071 
L 165.240318 235.61564 
L 166.29098 241.200803 
L 167.341642 238.295801 
L 168.392304 239.443253 
L 169.442966 240.370448 
L 170.493628 238.587411 
L 171.544289 242.160329 
L 172.594951 235.531543 
L 173.645613 238.144069 
L 174.696275 239.961799 
L 175.746937 241.088226 
L 176.797599 234.353223 
L 177.848261 239.278812 
L 178.898923 239.810182 
L 179.949585 241.915407 
L 181.000247 234.006186 
L 182.050909 233.305974 
L 183.101571 226.1443 
L 184.152233 226.612401 
L 185.202895 227.397439 
L 186.253557 218.30859 
L 187.304219 210.220072 
L 188.354881 213.808835 
L 189.405543 205.765933 
L 190.456205 200.873239 
L 191.506867 195.448322 
L 192.557529 191.297691 
L 193.608191 208.88356 
L 194.658853 196.219982 
L 195.709515 193.897379 
L 196.760177 201.546718 
L 197.810838 197.946205 
L 198.8615 203.072747 
L 199.912162 190.555562 
L 200.962824 199.629282 
L 202.013486 189.648467 
L 203.064148 186.810886 
L 204.11481 185.221471 
L 205.165472 188.015424 
L 206.216134 196.391684 
L 207.266796 189.41032 
L 208.317458 193.208249 
L 209.36812 193.770909 
L 210.418782 186.176508 
L 211.469444 196.01512 
L 212.520106 194.035096 
L 213.570768 193.840171 
L 214.62143 191.699762 
L 215.672092 192.194653 
L 216.722754 199.080801 
L 217.773416 197.721238 
L 218.824078 193.635335 
L 219.87474 198.801439 
L 220.925402 197.208959 
L 221.976064 192.033045 
L 223.026726 200.732952 
L 224.077387 197.963 
L 225.128049 194.522768 
L 226.178711 196.007293 
L 227.229373 188.607642 
L 228.280035 194.272039 
L 229.330697 199.044269 
L 230.381359 196.157806 
L 231.432021 191.994762 
L 232.482683 194.530635 
L 233.533345 192.602789 
L 234.584007 196.666087 
L 235.634669 198.344524 
L 236.685331 197.554616 
L 237.735993 198.23112 
L 238.786655 199.122474 
L 239.837317 201.256585 
L 240.887979 202.822467 
L 242.989303 209.604203 
L 244.039965 205.838548 
L 246.141289 209.565523 
L 247.191951 212.120819 
L 248.242613 209.389511 
L 249.293274 205.451568 
L 250.343936 206.62603 
L 251.394598 213.729433 
L 252.44526 211.698731 
L 253.495922 211.941187 
L 254.546584 215.22755 
L 255.597246 217.289442 
L 256.647908 216.845298 
L 257.69857 211.969648 
L 258.749232 214.662641 
L 259.799894 216.584 
L 260.850556 214.084956 
L 261.901218 216.660271 
L 262.95188 220.343465 
L 264.002542 215.003275 
L 265.053204 214.332698 
L 266.103866 221.297767 
L 267.154528 213.261956 
L 268.20519 206.501379 
L 269.255852 210.859556 
L 270.306514 206.959823 
L 271.357176 205.799568 
L 272.407838 202.18082 
L 273.4585 206.412793 
L 274.509162 205.907094 
L 275.559823 201.53661 
L 276.610485 201.154506 
L 277.661147 204.504475 
L 278.711809 200.901956 
L 279.762471 199.076988 
L 280.813133 201.158986 
L 281.863795 201.434646 
L 282.914457 200.894215 
L 283.965119 202.974181 
L 285.015781 196.291431 
L 286.066443 194.422422 
L 287.117105 193.653614 
L 288.167767 199.133556 
L 289.218429 200.782113 
L 290.269091 202.140593 
L 291.319753 204.125024 
L 292.370415 200.252537 
L 293.421077 198.333305 
L 294.471739 197.021687 
L 295.522401 193.7694 
L 296.573063 196.555206 
L 297.623725 196.871418 
L 298.674387 197.427128 
L 299.725049 202.038841 
L 300.775711 202.435591 
L 301.826372 204.054738 
L 302.877034 203.450895 
L 303.927696 203.405208 
L 304.978358 199.929072 
L 306.02902 200.450277 
L 307.079682 197.398397 
L 308.130344 201.004613 
L 309.181006 201.426241 
L 310.231668 201.979061 
L 311.28233 203.394987 
L 312.332992 202.51478 
L 313.383654 203.568987 
L 314.434316 203.139439 
L 315.484978 204.652268 
L 316.53564 205.640963 
L 317.586302 211.305651 
L 318.636964 206.177572 
L 319.687626 211.268255 
L 320.738288 210.902584 
L 321.78895 213.276856 
L 322.839612 223.444351 
L 323.890274 216.78669 
L 324.940936 216.093011 
L 325.991598 216.49897 
L 327.042259 219.016463 
L 328.092921 218.776611 
L 329.143583 221.968806 
L 330.194245 223.848111 
L 331.244907 226.29946 
L 332.295569 226.474251 
L 334.396893 221.25848 
L 335.447555 220.750979 
L 336.498217 223.483711 
L 337.548879 218.698326 
L 338.599541 220.517602 
L 339.650203 215.714729 
L 340.700865 223.746436 
L 341.751527 217.973399 
L 342.802189 220.731824 
L 343.852851 220.42734 
L 344.903513 219.83685 
L 345.954175 219.063523 
L 347.004837 221.49279 
L 348.055499 224.218215 
L 349.106161 222.603235 
L 350.156823 226.470106 
L 351.207485 223.942029 
L 352.258147 226.426121 
L 353.308808 221.429004 
L 354.35947 217.478064 
L 355.410132 215.631381 
L 356.460794 219.447039 
L 357.511456 222.26467 
L 358.562118 219.837647 
L 359.61278 220.911885 
L 360.663442 222.240718 
L 361.714104 224.774977 
L 362.764766 227.605389 
L 364.86609 226.917721 
L 365.916752 230.034154 
L 366.967414 225.816694 
L 368.018076 223.457847 
L 369.068738 228.819484 
L 370.1194 232.457809 
L 371.170062 230.405351 
L 372.220724 227.44214 
L 373.271386 231.655975 
L 374.322048 230.180186 
L 375.37271 222.557239 
L 376.423372 221.867517 
L 377.474034 220.010572 
L 378.524695 221.337584 
L 379.575357 226.054248 
L 380.626019 224.263105 
L 381.676681 221.279012 
L 382.727343 226.446677 
L 383.778005 223.900615 
L 384.828667 223.350081 
L 385.879329 221.876173 
L 386.929991 215.620803 
L 387.980653 217.390235 
L 389.031315 218.229359 
L 390.081977 213.814445 
L 391.132639 213.348601 
L 392.183301 208.830214 
L 393.233963 211.866447 
L 394.284625 208.822036 
L 395.335287 204.169303 
L 396.385949 209.716423 
L 397.436611 205.701185 
L 398.487273 190.790753 
L 398.487273 190.790753 
" style="fill:none;stroke:#008000;stroke-dasharray:9.6,2.4,1.5,2.4;stroke-dashoffset:0;stroke-width:1.5;"/>
   </g>
   <g id="line2d_32">
    <path clip-path="url(#p7b1d92775a)" d="M 73.832727 262.588301 
L 74.883389 243.956021 
L 75.934051 208.385306 
L 76.984713 185.010264 
L 78.035375 220.242211 
L 79.086037 196.5284 
L 80.136699 195.850863 
L 81.187361 185.687801 
L 82.238023 196.867169 
L 83.288685 196.5284 
L 84.339347 207.707768 
L 85.390009 196.5284 
L 86.440671 207.368999 
L 87.491333 196.867169 
L 88.541995 195.850863 
L 89.592657 196.867169 
L 90.643319 206.691462 
L 91.693981 224.646204 
L 92.744643 208.385306 
L 93.795305 230.744041 
L 94.845966 230.744041 
L 95.896628 224.984973 
L 96.94729 219.903442 
L 97.997952 230.405272 
L 99.048614 219.564673 
L 100.099276 229.727735 
L 101.149938 229.388966 
L 102.2006 208.046537 
L 103.251262 195.512094 
L 104.301924 208.385306 
L 105.352586 218.548367 
L 106.403248 219.903442 
L 107.45391 212.111761 
L 108.504572 212.111761 
L 109.555234 196.867169 
L 110.605896 195.512094 
L 111.656558 201.9487 
L 112.70722 185.010264 
L 113.757882 212.789299 
L 114.808544 172.137052 
L 115.859206 206.352693 
L 116.909868 214.821911 
L 117.96053 207.707768 
L 119.011192 209.062843 
L 120.061853 204.997618 
L 121.112515 190.091795 
L 122.163177 191.785638 
L 123.213839 196.189632 
L 124.264501 188.059182 
L 125.315163 197.544706 
L 126.365825 202.965006 
L 127.416487 205.675156 
L 128.467149 202.626237 
L 129.517811 198.561013 
L 130.568473 195.173325 
L 131.619135 191.108101 
L 132.669797 176.879814 
L 133.720459 201.609931 
L 134.771121 201.609931 
L 135.821783 174.169665 
L 136.872445 170.10444 
L 137.923107 178.234889 
L 138.973769 167.733059 
L 140.024431 163.329066 
L 141.075093 175.863508 
L 142.125755 169.088134 
L 143.176417 160.280147 
L 144.227079 156.553691 
L 145.277741 153.504773 
L 146.328402 155.537385 
L 147.379064 168.410596 
L 148.429726 155.876154 
L 149.480388 157.908766 
L 150.53105 155.198616 
L 151.581712 155.198616 
L 152.632374 158.247535 
L 153.683036 156.214922 
L 154.733698 158.925072 
L 155.78436 154.859848 
L 156.835022 208.046537 
L 157.885684 218.548367 
L 158.936346 208.046537 
L 159.987008 195.850863 
L 161.03767 203.642543 
L 162.088332 186.02657 
L 163.138994 207.368999 
L 164.189656 207.030231 
L 165.240318 195.512094 
L 166.29098 197.205938 
L 167.341642 185.349032 
L 169.442966 208.046537 
L 170.493628 185.687801 
L 171.544289 207.707768 
L 172.594951 197.205938 
L 173.645613 207.707768 
L 174.696275 207.368999 
L 175.746937 183.993958 
L 176.797599 197.205938 
L 177.848261 196.189632 
L 178.898923 207.368999 
L 179.949585 207.030231 
L 181.000247 196.189632 
L 182.050909 197.883475 
L 183.101571 174.169665 
L 184.152233 166.039215 
L 185.202895 168.749365 
L 186.253557 178.573658 
L 187.304219 173.492127 
L 188.354881 165.361678 
L 189.405543 153.504773 
L 190.456205 160.280147 
L 191.506867 169.426903 
L 192.557529 157.908766 
L 193.608191 166.716753 
L 194.658853 166.039215 
L 195.709515 152.827235 
L 196.760177 166.377984 
L 197.810838 165.361678 
L 198.8615 166.716753 
L 199.912162 166.039215 
L 200.962824 164.684141 
L 202.013486 154.521079 
L 203.064148 159.263841 
L 204.11481 154.18231 
L 205.165472 168.749365 
L 206.216134 162.990297 
L 207.266796 154.859848 
L 208.317458 154.521079 
L 209.36812 166.039215 
L 210.418782 154.521079 
L 211.469444 160.618916 
L 212.520106 165.700447 
L 213.570768 166.377984 
L 214.62143 154.859848 
L 215.672092 153.843541 
L 216.722754 165.361678 
L 217.773416 153.843541 
L 218.824078 167.055522 
L 219.87474 159.60261 
L 220.925402 164.684141 
L 221.976064 165.361678 
L 223.026726 154.18231 
L 224.077387 153.843541 
L 225.128049 165.700447 
L 226.178711 165.361678 
L 227.229373 155.198616 
L 228.280035 165.361678 
L 229.330697 155.537385 
L 230.381359 156.214922 
L 231.432021 153.843541 
L 232.482683 164.345372 
L 233.533345 156.553691 
L 234.584007 153.504773 
L 235.634669 154.521079 
L 236.685331 154.859848 
L 237.735993 165.361678 
L 238.786655 154.859848 
L 239.837317 165.700447 
L 240.887979 155.198616 
L 241.938641 166.039215 
L 242.989303 175.185971 
L 244.039965 166.377984 
L 245.090627 164.006603 
L 246.141289 154.18231 
L 247.191951 167.39429 
L 248.242613 166.716753 
L 249.293274 156.214922 
L 250.343936 158.247535 
L 251.394598 166.377984 
L 252.44526 153.843541 
L 253.495922 156.553691 
L 254.546584 166.716753 
L 255.597246 162.651528 
L 256.647908 164.345372 
L 257.69857 152.827235 
L 258.749232 177.218583 
L 259.799894 155.876154 
L 260.850556 167.055522 
L 261.901218 165.700447 
L 262.95188 177.557352 
L 264.002542 165.361678 
L 265.053204 157.908766 
L 266.103866 168.749365 
L 267.154528 164.345372 
L 268.20519 166.716753 
L 269.255852 164.006603 
L 270.306514 155.198616 
L 271.357176 155.876154 
L 272.407838 154.859848 
L 273.4585 158.586304 
L 274.509162 166.716753 
L 275.559823 165.361678 
L 276.610485 167.055522 
L 277.661147 164.345372 
L 278.711809 167.733059 
L 279.762471 155.537385 
L 280.813133 159.60261 
L 281.863795 160.280147 
L 282.914457 153.504773 
L 283.965119 156.553691 
L 285.015781 165.700447 
L 286.066443 166.377984 
L 287.117105 166.039215 
L 288.167767 159.263841 
L 289.218429 153.504773 
L 290.269091 166.039215 
L 291.319753 156.214922 
L 292.370415 157.569997 
L 293.421077 165.022909 
L 294.471739 165.700447 
L 295.522401 161.296453 
L 296.573063 154.859848 
L 297.623725 161.635222 
L 298.674387 155.876154 
L 299.725049 167.733059 
L 300.775711 154.521079 
L 301.826372 166.377984 
L 302.877034 164.684141 
L 303.927696 152.149698 
L 304.978358 163.667834 
L 306.02902 165.022909 
L 307.079682 154.521079 
L 308.130344 158.247535 
L 309.181006 165.700447 
L 310.231668 153.166004 
L 311.28233 167.055522 
L 312.332992 165.700447 
L 313.383654 157.569997 
L 314.434316 165.022909 
L 315.484978 155.876154 
L 316.53564 152.149698 
L 317.586302 156.553691 
L 318.636964 165.022909 
L 319.687626 165.022909 
L 320.738288 157.569997 
L 321.78895 152.149698 
L 322.839612 164.345372 
L 323.890274 155.537385 
L 324.940936 155.198616 
L 325.991598 153.504773 
L 327.042259 165.361678 
L 328.092921 155.537385 
L 329.143583 165.700447 
L 330.194245 166.039215 
L 331.244907 176.541046 
L 332.295569 175.863508 
L 333.346231 166.377984 
L 334.396893 153.166004 
L 335.447555 166.716753 
L 336.498217 154.18231 
L 337.548879 167.39429 
L 338.599541 167.055522 
L 339.650203 153.843541 
L 341.751527 176.541046 
L 342.802189 154.521079 
L 343.852851 155.537385 
L 344.903513 166.039215 
L 345.954175 164.684141 
L 347.004837 168.410596 
L 348.055499 167.39429 
L 349.106161 176.879814 
L 350.156823 156.89246 
L 351.207485 172.475821 
L 352.258147 167.055522 
L 353.308808 166.039215 
L 354.35947 164.345372 
L 355.410132 162.990297 
L 356.460794 165.022909 
L 357.511456 179.251196 
L 358.562118 154.859848 
L 359.61278 155.198616 
L 360.663442 163.667834 
L 361.714104 166.039215 
L 362.764766 171.798284 
L 363.815428 170.443209 
L 364.86609 153.166004 
L 365.916752 167.733059 
L 366.967414 168.071828 
L 368.018076 165.022909 
L 369.068738 155.876154 
L 370.1194 153.166004 
L 371.170062 159.941378 
L 372.220724 155.876154 
L 373.271386 177.218583 
L 374.322048 167.733059 
L 375.37271 152.827235 
L 376.423372 172.475821 
L 377.474034 171.120746 
L 378.524695 166.716753 
L 379.575357 182.300114 
L 380.626019 166.039215 
L 381.676681 156.214922 
L 382.727343 168.071828 
L 383.778005 167.733059 
L 384.828667 153.166004 
L 385.879329 155.198616 
L 386.929991 156.214922 
L 387.980653 169.426903 
L 389.031315 154.18231 
L 390.081977 165.361678 
L 391.132639 166.377984 
L 392.183301 166.716753 
L 393.233963 166.716753 
L 395.335287 153.166004 
L 396.385949 139.615255 
L 397.436611 146.729398 
L 398.487273 53.568 
L 398.487273 53.568 
" style="fill:none;stroke:#ff0000;stroke-linecap:square;stroke-width:1.5;"/>
   </g>
   <g id="patch_3">
    <path d="M 57.6 307.584 
L 57.6 41.472 
" style="fill:none;stroke:#000000;stroke-linecap:square;stroke-linejoin:miter;stroke-width:0.8;"/>
   </g>
   <g id="patch_4">
    <path d="M 414.72 307.584 
L 414.72 41.472 
" style="fill:none;stroke:#000000;stroke-linecap:square;stroke-linejoin:miter;stroke-width:0.8;"/>
   </g>
   <g id="patch_5">
    <path d="M 57.6 307.584 
L 414.72 307.584 
" style="fill:none;stroke:#000000;stroke-linecap:square;stroke-linejoin:miter;stroke-width:0.8;"/>
   </g>
   <g id="patch_6">
    <path d="M 57.6 41.472 
L 414.72 41.472 
" style="fill:none;stroke:#000000;stroke-linecap:square;stroke-linejoin:miter;stroke-width:0.8;"/>
   </g>
   <g id="text_17">
    <!-- Population's average and best fitness -->
    <g transform="translate(123.529687 35.472)scale(0.12 -0.12)">
     <defs>
      <path d="M 19.671875 64.796875 
L 19.671875 37.40625 
L 32.078125 37.40625 
Q 38.96875 37.40625 42.71875 40.96875 
Q 46.484375 44.53125 46.484375 51.125 
Q 46.484375 57.671875 42.71875 61.234375 
Q 38.96875 64.796875 32.078125 64.796875 
z
M 9.8125 72.90625 
L 32.078125 72.90625 
Q 44.34375 72.90625 50.609375 67.359375 
Q 56.890625 61.8125 56.890625 51.125 
Q 56.890625 40.328125 50.609375 34.8125 
Q 44.34375 29.296875 32.078125 29.296875 
L 19.671875 29.296875 
L 19.671875 0 
L 9.8125 0 
z
" id="DejaVuSans-80"/>
      <path d="M 18.109375 8.203125 
L 18.109375 -20.796875 
L 9.078125 -20.796875 
L 9.078125 54.6875 
L 18.109375 54.6875 
L 18.109375 46.390625 
Q 20.953125 51.265625 25.265625 53.625 
Q 29.59375 56 35.59375 56 
Q 45.5625 56 51.78125 48.09375 
Q 58.015625 40.1875 58.015625 27.296875 
Q 58.015625 14.40625 51.78125 6.484375 
Q 45.5625 -1.421875 35.59375 -1.421875 
Q 29.59375 -1.421875 25.265625 0.953125 
Q 20.953125 3.328125 18.109375 8.203125 
z
M 48.6875 27.296875 
Q 48.6875 37.203125 44.609375 42.84375 
Q 40.53125 48.484375 33.40625 48.484375 
Q 26.265625 48.484375 22.1875 42.84375 
Q 18.109375 37.203125 18.109375 27.296875 
Q 18.109375 17.390625 22.1875 11.75 
Q 26.265625 6.109375 33.40625 6.109375 
Q 40.53125 6.109375 44.609375 11.75 
Q 48.6875 17.390625 48.6875 27.296875 
z
" id="DejaVuSans-112"/>
      <path d="M 8.5 21.578125 
L 8.5 54.6875 
L 17.484375 54.6875 
L 17.484375 21.921875 
Q 17.484375 14.15625 20.5 10.265625 
Q 23.53125 6.390625 29.59375 6.390625 
Q 36.859375 6.390625 41.078125 11.03125 
Q 45.3125 15.671875 45.3125 23.6875 
L 45.3125 54.6875 
L 54.296875 54.6875 
L 54.296875 0 
L 45.3125 0 
L 45.3125 8.40625 
Q 42.046875 3.421875 37.71875 1 
Q 33.40625 -1.421875 27.6875 -1.421875 
Q 18.265625 -1.421875 13.375 4.4375 
Q 8.5 10.296875 8.5 21.578125 
z
M 31.109375 56 
z
" id="DejaVuSans-117"/>
      <path d="M 9.421875 75.984375 
L 18.40625 75.984375 
L 18.40625 0 
L 9.421875 0 
z
" id="DejaVuSans-108"/>
      <path d="M 17.921875 72.90625 
L 17.921875 45.796875 
L 9.625 45.796875 
L 9.625 72.90625 
z
" id="DejaVuSans-39"/>
      <path id="DejaVuSans-32"/>
      <path d="M 2.984375 54.6875 
L 12.5 54.6875 
L 29.59375 8.796875 
L 46.6875 54.6875 
L 56.203125 54.6875 
L 35.6875 0 
L 23.484375 0 
z
" id="DejaVuSans-118"/>
      <path d="M 45.40625 27.984375 
Q 45.40625 37.75 41.375 43.109375 
Q 37.359375 48.484375 30.078125 48.484375 
Q 22.859375 48.484375 18.828125 43.109375 
Q 14.796875 37.75 14.796875 27.984375 
Q 14.796875 18.265625 18.828125 12.890625 
Q 22.859375 7.515625 30.078125 7.515625 
Q 37.359375 7.515625 41.375 12.890625 
Q 45.40625 18.265625 45.40625 27.984375 
z
M 54.390625 6.78125 
Q 54.390625 -7.171875 48.1875 -13.984375 
Q 42 -20.796875 29.203125 -20.796875 
Q 24.46875 -20.796875 20.265625 -20.09375 
Q 16.0625 -19.390625 12.109375 -17.921875 
L 12.109375 -9.1875 
Q 16.0625 -11.328125 19.921875 -12.34375 
Q 23.78125 -13.375 27.78125 -13.375 
Q 36.625 -13.375 41.015625 -8.765625 
Q 45.40625 -4.15625 45.40625 5.171875 
L 45.40625 9.625 
Q 42.625 4.78125 38.28125 2.390625 
Q 33.9375 0 27.875 0 
Q 17.828125 0 11.671875 7.65625 
Q 5.515625 15.328125 5.515625 27.984375 
Q 5.515625 40.671875 11.671875 48.328125 
Q 17.828125 56 27.875 56 
Q 33.9375 56 38.28125 53.609375 
Q 42.625 51.21875 45.40625 46.390625 
L 45.40625 54.6875 
L 54.390625 54.6875 
z
" id="DejaVuSans-103"/>
      <path d="M 45.40625 46.390625 
L 45.40625 75.984375 
L 54.390625 75.984375 
L 54.390625 0 
L 45.40625 0 
L 45.40625 8.203125 
Q 42.578125 3.328125 38.25 0.953125 
Q 33.9375 -1.421875 27.875 -1.421875 
Q 17.96875 -1.421875 11.734375 6.484375 
Q 5.515625 14.40625 5.515625 27.296875 
Q 5.515625 40.1875 11.734375 48.09375 
Q 17.96875 56 27.875 56 
Q 33.9375 56 38.25 53.625 
Q 42.578125 51.265625 45.40625 46.390625 
z
M 14.796875 27.296875 
Q 14.796875 17.390625 18.875 11.75 
Q 22.953125 6.109375 30.078125 6.109375 
Q 37.203125 6.109375 41.296875 11.75 
Q 45.40625 17.390625 45.40625 27.296875 
Q 45.40625 37.203125 41.296875 42.84375 
Q 37.203125 48.484375 30.078125 48.484375 
Q 22.953125 48.484375 18.875 42.84375 
Q 14.796875 37.203125 14.796875 27.296875 
z
" id="DejaVuSans-100"/>
      <path d="M 48.6875 27.296875 
Q 48.6875 37.203125 44.609375 42.84375 
Q 40.53125 48.484375 33.40625 48.484375 
Q 26.265625 48.484375 22.1875 42.84375 
Q 18.109375 37.203125 18.109375 27.296875 
Q 18.109375 17.390625 22.1875 11.75 
Q 26.265625 6.109375 33.40625 6.109375 
Q 40.53125 6.109375 44.609375 11.75 
Q 48.6875 17.390625 48.6875 27.296875 
z
M 18.109375 46.390625 
Q 20.953125 51.265625 25.265625 53.625 
Q 29.59375 56 35.59375 56 
Q 45.5625 56 51.78125 48.09375 
Q 58.015625 40.1875 58.015625 27.296875 
Q 58.015625 14.40625 51.78125 6.484375 
Q 45.5625 -1.421875 35.59375 -1.421875 
Q 29.59375 -1.421875 25.265625 0.953125 
Q 20.953125 3.328125 18.109375 8.203125 
L 18.109375 0 
L 9.078125 0 
L 9.078125 75.984375 
L 18.109375 75.984375 
z
" id="DejaVuSans-98"/>
      <path d="M 37.109375 75.984375 
L 37.109375 68.5 
L 28.515625 68.5 
Q 23.6875 68.5 21.796875 66.546875 
Q 19.921875 64.59375 19.921875 59.515625 
L 19.921875 54.6875 
L 34.71875 54.6875 
L 34.71875 47.703125 
L 19.921875 47.703125 
L 19.921875 0 
L 10.890625 0 
L 10.890625 47.703125 
L 2.296875 47.703125 
L 2.296875 54.6875 
L 10.890625 54.6875 
L 10.890625 58.5 
Q 10.890625 67.625 15.140625 71.796875 
Q 19.390625 75.984375 28.609375 75.984375 
z
" id="DejaVuSans-102"/>
     </defs>
     <use xlink:href="#DejaVuSans-80"/>
     <use x="56.677734" xlink:href="#DejaVuSans-111"/>
     <use x="117.859375" xlink:href="#DejaVuSans-112"/>
     <use x="181.335938" xlink:href="#DejaVuSans-117"/>
     <use x="244.714844" xlink:href="#DejaVuSans-108"/>
     <use x="272.498047" xlink:href="#DejaVuSans-97"/>
     <use x="333.777344" xlink:href="#DejaVuSans-116"/>
     <use x="372.986328" xlink:href="#DejaVuSans-105"/>
     <use x="400.769531" xlink:href="#DejaVuSans-111"/>
     <use x="461.951172" xlink:href="#DejaVuSans-110"/>
     <use x="525.330078" xlink:href="#DejaVuSans-39"/>
     <use x="552.820312" xlink:href="#DejaVuSans-115"/>
     <use x="604.919922" xlink:href="#DejaVuSans-32"/>
     <use x="636.707031" xlink:href="#DejaVuSans-97"/>
     <use x="697.986328" xlink:href="#DejaVuSans-118"/>
     <use x="757.166016" xlink:href="#DejaVuSans-101"/>
     <use x="818.689453" xlink:href="#DejaVuSans-114"/>
     <use x="859.802734" xlink:href="#DejaVuSans-97"/>
     <use x="921.082031" xlink:href="#DejaVuSans-103"/>
     <use x="984.558594" xlink:href="#DejaVuSans-101"/>
     <use x="1046.082031" xlink:href="#DejaVuSans-32"/>
     <use x="1077.869141" xlink:href="#DejaVuSans-97"/>
     <use x="1139.148438" xlink:href="#DejaVuSans-110"/>
     <use x="1202.527344" xlink:href="#DejaVuSans-100"/>
     <use x="1266.003906" xlink:href="#DejaVuSans-32"/>
     <use x="1297.791016" xlink:href="#DejaVuSans-98"/>
     <use x="1361.267578" xlink:href="#DejaVuSans-101"/>
     <use x="1422.791016" xlink:href="#DejaVuSans-115"/>
     <use x="1474.890625" xlink:href="#DejaVuSans-116"/>
     <use x="1514.099609" xlink:href="#DejaVuSans-32"/>
     <use x="1545.886719" xlink:href="#DejaVuSans-102"/>
     <use x="1581.091797" xlink:href="#DejaVuSans-105"/>
     <use x="1608.875" xlink:href="#DejaVuSans-116"/>
     <use x="1648.083984" xlink:href="#DejaVuSans-110"/>
     <use x="1711.462891" xlink:href="#DejaVuSans-101"/>
     <use x="1772.986328" xlink:href="#DejaVuSans-115"/>
     <use x="1825.085938" xlink:href="#DejaVuSans-115"/>
    </g>
   </g>
   <g id="legend_1">
    <g id="patch_7">
     <path d="M 64.6 108.1845 
L 137.540625 108.1845 
Q 139.540625 108.1845 139.540625 106.1845 
L 139.540625 48.472 
Q 139.540625 46.472 137.540625 46.472 
L 64.6 46.472 
Q 62.6 46.472 62.6 48.472 
L 62.6 106.1845 
Q 62.6 108.1845 64.6 108.1845 
z
" style="fill:#ffffff;opacity:0.8;stroke:#cccccc;stroke-linejoin:miter;"/>
    </g>
    <g id="line2d_33">
     <path d="M 66.6 54.570438 
L 86.6 54.570438 
" style="fill:none;stroke:#0000ff;stroke-linecap:square;stroke-width:1.5;"/>
    </g>
    <g id="line2d_34"/>
    <g id="text_18">
     <!-- average -->
     <g transform="translate(94.6 58.070438)scale(0.1 -0.1)">
      <use xlink:href="#DejaVuSans-97"/>
      <use x="61.279297" xlink:href="#DejaVuSans-118"/>
      <use x="120.458984" xlink:href="#DejaVuSans-101"/>
      <use x="181.982422" xlink:href="#DejaVuSans-114"/>
      <use x="223.095703" xlink:href="#DejaVuSans-97"/>
      <use x="284.375" xlink:href="#DejaVuSans-103"/>
      <use x="347.851562" xlink:href="#DejaVuSans-101"/>
     </g>
    </g>
    <g id="line2d_35">
     <path d="M 66.6 69.248563 
L 86.6 69.248563 
" style="fill:none;stroke:#008000;stroke-dasharray:9.6,2.4,1.5,2.4;stroke-dashoffset:0;stroke-width:1.5;"/>
    </g>
    <g id="line2d_36"/>
    <g id="text_19">
     <!-- -1 sd -->
     <g transform="translate(94.6 72.748563)scale(0.1 -0.1)">
      <defs>
       <path d="M 4.890625 31.390625 
L 31.203125 31.390625 
L 31.203125 23.390625 
L 4.890625 23.390625 
z
" id="DejaVuSans-45"/>
      </defs>
      <use xlink:href="#DejaVuSans-45"/>
      <use x="36.083984" xlink:href="#DejaVuSans-49"/>
      <use x="99.707031" xlink:href="#DejaVuSans-32"/>
      <use x="131.494141" xlink:href="#DejaVuSans-115"/>
      <use x="183.59375" xlink:href="#DejaVuSans-100"/>
     </g>
    </g>
    <g id="line2d_37">
     <path d="M 66.6 83.926688 
L 86.6 83.926688 
" style="fill:none;stroke:#008000;stroke-dasharray:9.6,2.4,1.5,2.4;stroke-dashoffset:0;stroke-width:1.5;"/>
    </g>
    <g id="line2d_38"/>
    <g id="text_20">
     <!-- +1 sd -->
     <g transform="translate(94.6 87.426688)scale(0.1 -0.1)">
      <defs>
       <path d="M 46 62.703125 
L 46 35.5 
L 73.1875 35.5 
L 73.1875 27.203125 
L 46 27.203125 
L 46 0 
L 37.796875 0 
L 37.796875 27.203125 
L 10.59375 27.203125 
L 10.59375 35.5 
L 37.796875 35.5 
L 37.796875 62.703125 
z
" id="DejaVuSans-43"/>
      </defs>
      <use xlink:href="#DejaVuSans-43"/>
      <use x="83.789062" xlink:href="#DejaVuSans-49"/>
      <use x="147.412109" xlink:href="#DejaVuSans-32"/>
      <use x="179.199219" xlink:href="#DejaVuSans-115"/>
      <use x="231.298828" xlink:href="#DejaVuSans-100"/>
     </g>
    </g>
    <g id="line2d_39">
     <path d="M 66.6 98.604813 
L 86.6 98.604813 
" style="fill:none;stroke:#ff0000;stroke-linecap:square;stroke-width:1.5;"/>
    </g>
    <g id="line2d_40"/>
    <g id="text_21">
     <!-- best -->
     <g transform="translate(94.6 102.104813)scale(0.1 -0.1)">
      <use xlink:href="#DejaVuSans-98"/>
      <use x="63.476562" xlink:href="#DejaVuSans-101"/>
      <use x="125" xlink:href="#DejaVuSans-115"/>
      <use x="177.099609" xlink:href="#DejaVuSans-116"/>
     </g>
    </g>
   </g>
  </g>
 </g>
 <defs>
  <clipPath id="p7b1d92775a">
   <rect height="266.112" width="357.12" x="57.6" y="41.472"/>
  </clipPath>
 </defs>
</svg>
