<?xml version="1.0" encoding="utf-8" standalone="no"?>
<!DOCTYPE svg PUBLIC "-//W3C//DTD SVG 1.1//EN"
  "http://www.w3.org/Graphics/SVG/1.1/DTD/svg11.dtd">
<!-- Created with matplotlib (https://matplotlib.org/) -->
<svg height="345.6pt" version="1.1" viewBox="0 0 460.8 345.6" width="460.8pt" xmlns="http://www.w3.org/2000/svg" xmlns:xlink="http://www.w3.org/1999/xlink">
 <metadata>
  <rdf:RDF xmlns:cc="http://creativecommons.org/ns#" xmlns:dc="http://purl.org/dc/elements/1.1/" xmlns:rdf="http://www.w3.org/1999/02/22-rdf-syntax-ns#">
   <cc:Work>
    <dc:type rdf:resource="http://purl.org/dc/dcmitype/StillImage"/>
    <dc:date>2021-06-20T18:59:35.730635</dc:date>
    <dc:format>image/svg+xml</dc:format>
    <dc:creator>
     <cc:Agent>
      <dc:title>Matplotlib v3.3.0, https://matplotlib.org/</dc:title>
     </cc:Agent>
    </dc:creator>
   </cc:Work>
  </rdf:RDF>
 </metadata>
 <defs>
  <style type="text/css">*{stroke-linecap:butt;stroke-linejoin:round;}</style>
 </defs>
 <g id="figure_1">
  <g id="patch_1">
   <path d="M 0 345.6 
L 460.8 345.6 
L 460.8 0 
L 0 0 
z
" style="fill:#ffffff;"/>
  </g>
  <g id="axes_1">
   <g id="patch_2">
    <path d="M 57.6 307.584 
L 414.72 307.584 
L 414.72 41.472 
L 57.6 41.472 
z
" style="fill:#ffffff;"/>
   </g>
   <g id="matplotlib.axis_1">
    <g id="xtick_1">
     <g id="line2d_1">
      <path clip-path="url(#pdc1d28b5cd)" d="M 73.832727 307.584 
L 73.832727 41.472 
" style="fill:none;stroke:#b0b0b0;stroke-linecap:square;stroke-width:0.8;"/>
     </g>
     <g id="line2d_2">
      <defs>
       <path d="M 0 0 
L 0 3.5 
" id="m26ea3687f0" style="stroke:#000000;stroke-width:0.8;"/>
      </defs>
      <g>
       <use style="stroke:#000000;stroke-width:0.8;" x="73.832727" xlink:href="#m26ea3687f0" y="307.584"/>
      </g>
     </g>
     <g id="text_1">
      <!-- 0 -->
      <g transform="translate(70.651477 322.182437)scale(0.1 -0.1)">
       <defs>
        <path d="M 31.78125 66.40625 
Q 24.171875 66.40625 20.328125 58.90625 
Q 16.5 51.421875 16.5 36.375 
Q 16.5 21.390625 20.328125 13.890625 
Q 24.171875 6.390625 31.78125 6.390625 
Q 39.453125 6.390625 43.28125 13.890625 
Q 47.125 21.390625 47.125 36.375 
Q 47.125 51.421875 43.28125 58.90625 
Q 39.453125 66.40625 31.78125 66.40625 
z
M 31.78125 74.21875 
Q 44.046875 74.21875 50.515625 64.515625 
Q 56.984375 54.828125 56.984375 36.375 
Q 56.984375 17.96875 50.515625 8.265625 
Q 44.046875 -1.421875 31.78125 -1.421875 
Q 19.53125 -1.421875 13.0625 8.265625 
Q 6.59375 17.96875 6.59375 36.375 
Q 6.59375 54.828125 13.0625 64.515625 
Q 19.53125 74.21875 31.78125 74.21875 
z
" id="DejaVuSans-48"/>
       </defs>
       <use xlink:href="#DejaVuSans-48"/>
      </g>
     </g>
    </g>
    <g id="xtick_2">
     <g id="line2d_3">
      <path clip-path="url(#pdc1d28b5cd)" d="M 116.326778 307.584 
L 116.326778 41.472 
" style="fill:none;stroke:#b0b0b0;stroke-linecap:square;stroke-width:0.8;"/>
     </g>
     <g id="line2d_4">
      <g>
       <use style="stroke:#000000;stroke-width:0.8;" x="116.326778" xlink:href="#m26ea3687f0" y="307.584"/>
      </g>
     </g>
     <g id="text_2">
      <!-- 25 -->
      <g transform="translate(109.964278 322.182437)scale(0.1 -0.1)">
       <defs>
        <path d="M 19.1875 8.296875 
L 53.609375 8.296875 
L 53.609375 0 
L 7.328125 0 
L 7.328125 8.296875 
Q 12.9375 14.109375 22.625 23.890625 
Q 32.328125 33.6875 34.8125 36.53125 
Q 39.546875 41.84375 41.421875 45.53125 
Q 43.3125 49.21875 43.3125 52.78125 
Q 43.3125 58.59375 39.234375 62.25 
Q 35.15625 65.921875 28.609375 65.921875 
Q 23.96875 65.921875 18.8125 64.3125 
Q 13.671875 62.703125 7.8125 59.421875 
L 7.8125 69.390625 
Q 13.765625 71.78125 18.9375 73 
Q 24.125 74.21875 28.421875 74.21875 
Q 39.75 74.21875 46.484375 68.546875 
Q 53.21875 62.890625 53.21875 53.421875 
Q 53.21875 48.921875 51.53125 44.890625 
Q 49.859375 40.875 45.40625 35.40625 
Q 44.1875 33.984375 37.640625 27.21875 
Q 31.109375 20.453125 19.1875 8.296875 
z
" id="DejaVuSans-50"/>
        <path d="M 10.796875 72.90625 
L 49.515625 72.90625 
L 49.515625 64.59375 
L 19.828125 64.59375 
L 19.828125 46.734375 
Q 21.96875 47.46875 24.109375 47.828125 
Q 26.265625 48.1875 28.421875 48.1875 
Q 40.625 48.1875 47.75 41.5 
Q 54.890625 34.8125 54.890625 23.390625 
Q 54.890625 11.625 47.5625 5.09375 
Q 40.234375 -1.421875 26.90625 -1.421875 
Q 22.3125 -1.421875 17.546875 -0.640625 
Q 12.796875 0.140625 7.71875 1.703125 
L 7.71875 11.625 
Q 12.109375 9.234375 16.796875 8.0625 
Q 21.484375 6.890625 26.703125 6.890625 
Q 35.15625 6.890625 40.078125 11.328125 
Q 45.015625 15.765625 45.015625 23.390625 
Q 45.015625 31 40.078125 35.4375 
Q 35.15625 39.890625 26.703125 39.890625 
Q 22.75 39.890625 18.8125 39.015625 
Q 14.890625 38.140625 10.796875 36.28125 
z
" id="DejaVuSans-53"/>
       </defs>
       <use xlink:href="#DejaVuSans-50"/>
       <use x="63.623047" xlink:href="#DejaVuSans-53"/>
      </g>
     </g>
    </g>
    <g id="xtick_3">
     <g id="line2d_5">
      <path clip-path="url(#pdc1d28b5cd)" d="M 158.820828 307.584 
L 158.820828 41.472 
" style="fill:none;stroke:#b0b0b0;stroke-linecap:square;stroke-width:0.8;"/>
     </g>
     <g id="line2d_6">
      <g>
       <use style="stroke:#000000;stroke-width:0.8;" x="158.820828" xlink:href="#m26ea3687f0" y="307.584"/>
      </g>
     </g>
     <g id="text_3">
      <!-- 50 -->
      <g transform="translate(152.458328 322.182437)scale(0.1 -0.1)">
       <use xlink:href="#DejaVuSans-53"/>
       <use x="63.623047" xlink:href="#DejaVuSans-48"/>
      </g>
     </g>
    </g>
    <g id="xtick_4">
     <g id="line2d_7">
      <path clip-path="url(#pdc1d28b5cd)" d="M 201.314879 307.584 
L 201.314879 41.472 
" style="fill:none;stroke:#b0b0b0;stroke-linecap:square;stroke-width:0.8;"/>
     </g>
     <g id="line2d_8">
      <g>
       <use style="stroke:#000000;stroke-width:0.8;" x="201.314879" xlink:href="#m26ea3687f0" y="307.584"/>
      </g>
     </g>
     <g id="text_4">
      <!-- 75 -->
      <g transform="translate(194.952379 322.182437)scale(0.1 -0.1)">
       <defs>
        <path d="M 8.203125 72.90625 
L 55.078125 72.90625 
L 55.078125 68.703125 
L 28.609375 0 
L 18.3125 0 
L 43.21875 64.59375 
L 8.203125 64.59375 
z
" id="DejaVuSans-55"/>
       </defs>
       <use xlink:href="#DejaVuSans-55"/>
       <use x="63.623047" xlink:href="#DejaVuSans-53"/>
      </g>
     </g>
    </g>
    <g id="xtick_5">
     <g id="line2d_9">
      <path clip-path="url(#pdc1d28b5cd)" d="M 243.808929 307.584 
L 243.808929 41.472 
" style="fill:none;stroke:#b0b0b0;stroke-linecap:square;stroke-width:0.8;"/>
     </g>
     <g id="line2d_10">
      <g>
       <use style="stroke:#000000;stroke-width:0.8;" x="243.808929" xlink:href="#m26ea3687f0" y="307.584"/>
      </g>
     </g>
     <g id="text_5">
      <!-- 100 -->
      <g transform="translate(234.265179 322.182437)scale(0.1 -0.1)">
       <defs>
        <path d="M 12.40625 8.296875 
L 28.515625 8.296875 
L 28.515625 63.921875 
L 10.984375 60.40625 
L 10.984375 69.390625 
L 28.421875 72.90625 
L 38.28125 72.90625 
L 38.28125 8.296875 
L 54.390625 8.296875 
L 54.390625 0 
L 12.40625 0 
z
" id="DejaVuSans-49"/>
       </defs>
       <use xlink:href="#DejaVuSans-49"/>
       <use x="63.623047" xlink:href="#DejaVuSans-48"/>
       <use x="127.246094" xlink:href="#DejaVuSans-48"/>
      </g>
     </g>
    </g>
    <g id="xtick_6">
     <g id="line2d_11">
      <path clip-path="url(#pdc1d28b5cd)" d="M 286.30298 307.584 
L 286.30298 41.472 
" style="fill:none;stroke:#b0b0b0;stroke-linecap:square;stroke-width:0.8;"/>
     </g>
     <g id="line2d_12">
      <g>
       <use style="stroke:#000000;stroke-width:0.8;" x="286.30298" xlink:href="#m26ea3687f0" y="307.584"/>
      </g>
     </g>
     <g id="text_6">
      <!-- 125 -->
      <g transform="translate(276.75923 322.182437)scale(0.1 -0.1)">
       <use xlink:href="#DejaVuSans-49"/>
       <use x="63.623047" xlink:href="#DejaVuSans-50"/>
       <use x="127.246094" xlink:href="#DejaVuSans-53"/>
      </g>
     </g>
    </g>
    <g id="xtick_7">
     <g id="line2d_13">
      <path clip-path="url(#pdc1d28b5cd)" d="M 328.79703 307.584 
L 328.79703 41.472 
" style="fill:none;stroke:#b0b0b0;stroke-linecap:square;stroke-width:0.8;"/>
     </g>
     <g id="line2d_14">
      <g>
       <use style="stroke:#000000;stroke-width:0.8;" x="328.79703" xlink:href="#m26ea3687f0" y="307.584"/>
      </g>
     </g>
     <g id="text_7">
      <!-- 150 -->
      <g transform="translate(319.25328 322.182437)scale(0.1 -0.1)">
       <use xlink:href="#DejaVuSans-49"/>
       <use x="63.623047" xlink:href="#DejaVuSans-53"/>
       <use x="127.246094" xlink:href="#DejaVuSans-48"/>
      </g>
     </g>
    </g>
    <g id="xtick_8">
     <g id="line2d_15">
      <path clip-path="url(#pdc1d28b5cd)" d="M 371.29108 307.584 
L 371.29108 41.472 
" style="fill:none;stroke:#b0b0b0;stroke-linecap:square;stroke-width:0.8;"/>
     </g>
     <g id="line2d_16">
      <g>
       <use style="stroke:#000000;stroke-width:0.8;" x="371.29108" xlink:href="#m26ea3687f0" y="307.584"/>
      </g>
     </g>
     <g id="text_8">
      <!-- 175 -->
      <g transform="translate(361.74733 322.182437)scale(0.1 -0.1)">
       <use xlink:href="#DejaVuSans-49"/>
       <use x="63.623047" xlink:href="#DejaVuSans-55"/>
       <use x="127.246094" xlink:href="#DejaVuSans-53"/>
      </g>
     </g>
    </g>
    <g id="xtick_9">
     <g id="line2d_17">
      <path clip-path="url(#pdc1d28b5cd)" d="M 413.785131 307.584 
L 413.785131 41.472 
" style="fill:none;stroke:#b0b0b0;stroke-linecap:square;stroke-width:0.8;"/>
     </g>
     <g id="line2d_18">
      <g>
       <use style="stroke:#000000;stroke-width:0.8;" x="413.785131" xlink:href="#m26ea3687f0" y="307.584"/>
      </g>
     </g>
     <g id="text_9">
      <!-- 200 -->
      <g transform="translate(404.241381 322.182437)scale(0.1 -0.1)">
       <use xlink:href="#DejaVuSans-50"/>
       <use x="63.623047" xlink:href="#DejaVuSans-48"/>
       <use x="127.246094" xlink:href="#DejaVuSans-48"/>
      </g>
     </g>
    </g>
    <g id="text_10">
     <!-- Generations -->
     <g transform="translate(205.662344 335.860562)scale(0.1 -0.1)">
      <defs>
       <path d="M 59.515625 10.40625 
L 59.515625 29.984375 
L 43.40625 29.984375 
L 43.40625 38.09375 
L 69.28125 38.09375 
L 69.28125 6.78125 
Q 63.578125 2.734375 56.6875 0.65625 
Q 49.8125 -1.421875 42 -1.421875 
Q 24.90625 -1.421875 15.25 8.5625 
Q 5.609375 18.5625 5.609375 36.375 
Q 5.609375 54.25 15.25 64.234375 
Q 24.90625 74.21875 42 74.21875 
Q 49.125 74.21875 55.546875 72.453125 
Q 61.96875 70.703125 67.390625 67.28125 
L 67.390625 56.78125 
Q 61.921875 61.421875 55.765625 63.765625 
Q 49.609375 66.109375 42.828125 66.109375 
Q 29.4375 66.109375 22.71875 58.640625 
Q 16.015625 51.171875 16.015625 36.375 
Q 16.015625 21.625 22.71875 14.15625 
Q 29.4375 6.6875 42.828125 6.6875 
Q 48.046875 6.6875 52.140625 7.59375 
Q 56.25 8.5 59.515625 10.40625 
z
" id="DejaVuSans-71"/>
       <path d="M 56.203125 29.59375 
L 56.203125 25.203125 
L 14.890625 25.203125 
Q 15.484375 15.921875 20.484375 11.0625 
Q 25.484375 6.203125 34.421875 6.203125 
Q 39.59375 6.203125 44.453125 7.46875 
Q 49.3125 8.734375 54.109375 11.28125 
L 54.109375 2.78125 
Q 49.265625 0.734375 44.1875 -0.34375 
Q 39.109375 -1.421875 33.890625 -1.421875 
Q 20.796875 -1.421875 13.15625 6.1875 
Q 5.515625 13.8125 5.515625 26.8125 
Q 5.515625 40.234375 12.765625 48.109375 
Q 20.015625 56 32.328125 56 
Q 43.359375 56 49.78125 48.890625 
Q 56.203125 41.796875 56.203125 29.59375 
z
M 47.21875 32.234375 
Q 47.125 39.59375 43.09375 43.984375 
Q 39.0625 48.390625 32.421875 48.390625 
Q 24.90625 48.390625 20.390625 44.140625 
Q 15.875 39.890625 15.1875 32.171875 
z
" id="DejaVuSans-101"/>
       <path d="M 54.890625 33.015625 
L 54.890625 0 
L 45.90625 0 
L 45.90625 32.71875 
Q 45.90625 40.484375 42.875 44.328125 
Q 39.84375 48.1875 33.796875 48.1875 
Q 26.515625 48.1875 22.3125 43.546875 
Q 18.109375 38.921875 18.109375 30.90625 
L 18.109375 0 
L 9.078125 0 
L 9.078125 54.6875 
L 18.109375 54.6875 
L 18.109375 46.1875 
Q 21.34375 51.125 25.703125 53.5625 
Q 30.078125 56 35.796875 56 
Q 45.21875 56 50.046875 50.171875 
Q 54.890625 44.34375 54.890625 33.015625 
z
" id="DejaVuSans-110"/>
       <path d="M 41.109375 46.296875 
Q 39.59375 47.171875 37.8125 47.578125 
Q 36.03125 48 33.890625 48 
Q 26.265625 48 22.1875 43.046875 
Q 18.109375 38.09375 18.109375 28.8125 
L 18.109375 0 
L 9.078125 0 
L 9.078125 54.6875 
L 18.109375 54.6875 
L 18.109375 46.1875 
Q 20.953125 51.171875 25.484375 53.578125 
Q 30.03125 56 36.53125 56 
Q 37.453125 56 38.578125 55.875 
Q 39.703125 55.765625 41.0625 55.515625 
z
" id="DejaVuSans-114"/>
       <path d="M 34.28125 27.484375 
Q 23.390625 27.484375 19.1875 25 
Q 14.984375 22.515625 14.984375 16.5 
Q 14.984375 11.71875 18.140625 8.90625 
Q 21.296875 6.109375 26.703125 6.109375 
Q 34.1875 6.109375 38.703125 11.40625 
Q 43.21875 16.703125 43.21875 25.484375 
L 43.21875 27.484375 
z
M 52.203125 31.203125 
L 52.203125 0 
L 43.21875 0 
L 43.21875 8.296875 
Q 40.140625 3.328125 35.546875 0.953125 
Q 30.953125 -1.421875 24.3125 -1.421875 
Q 15.921875 -1.421875 10.953125 3.296875 
Q 6 8.015625 6 15.921875 
Q 6 25.140625 12.171875 29.828125 
Q 18.359375 34.515625 30.609375 34.515625 
L 43.21875 34.515625 
L 43.21875 35.40625 
Q 43.21875 41.609375 39.140625 45 
Q 35.0625 48.390625 27.6875 48.390625 
Q 23 48.390625 18.546875 47.265625 
Q 14.109375 46.140625 10.015625 43.890625 
L 10.015625 52.203125 
Q 14.9375 54.109375 19.578125 55.046875 
Q 24.21875 56 28.609375 56 
Q 40.484375 56 46.34375 49.84375 
Q 52.203125 43.703125 52.203125 31.203125 
z
" id="DejaVuSans-97"/>
       <path d="M 18.3125 70.21875 
L 18.3125 54.6875 
L 36.8125 54.6875 
L 36.8125 47.703125 
L 18.3125 47.703125 
L 18.3125 18.015625 
Q 18.3125 11.328125 20.140625 9.421875 
Q 21.96875 7.515625 27.59375 7.515625 
L 36.8125 7.515625 
L 36.8125 0 
L 27.59375 0 
Q 17.1875 0 13.234375 3.875 
Q 9.28125 7.765625 9.28125 18.015625 
L 9.28125 47.703125 
L 2.6875 47.703125 
L 2.6875 54.6875 
L 9.28125 54.6875 
L 9.28125 70.21875 
z
" id="DejaVuSans-116"/>
       <path d="M 9.421875 54.6875 
L 18.40625 54.6875 
L 18.40625 0 
L 9.421875 0 
z
M 9.421875 75.984375 
L 18.40625 75.984375 
L 18.40625 64.59375 
L 9.421875 64.59375 
z
" id="DejaVuSans-105"/>
       <path d="M 30.609375 48.390625 
Q 23.390625 48.390625 19.1875 42.75 
Q 14.984375 37.109375 14.984375 27.296875 
Q 14.984375 17.484375 19.15625 11.84375 
Q 23.34375 6.203125 30.609375 6.203125 
Q 37.796875 6.203125 41.984375 11.859375 
Q 46.1875 17.53125 46.1875 27.296875 
Q 46.1875 37.015625 41.984375 42.703125 
Q 37.796875 48.390625 30.609375 48.390625 
z
M 30.609375 56 
Q 42.328125 56 49.015625 48.375 
Q 55.71875 40.765625 55.71875 27.296875 
Q 55.71875 13.875 49.015625 6.21875 
Q 42.328125 -1.421875 30.609375 -1.421875 
Q 18.84375 -1.421875 12.171875 6.21875 
Q 5.515625 13.875 5.515625 27.296875 
Q 5.515625 40.765625 12.171875 48.375 
Q 18.84375 56 30.609375 56 
z
" id="DejaVuSans-111"/>
       <path d="M 44.28125 53.078125 
L 44.28125 44.578125 
Q 40.484375 46.53125 36.375 47.5 
Q 32.28125 48.484375 27.875 48.484375 
Q 21.1875 48.484375 17.84375 46.4375 
Q 14.5 44.390625 14.5 40.28125 
Q 14.5 37.15625 16.890625 35.375 
Q 19.28125 33.59375 26.515625 31.984375 
L 29.59375 31.296875 
Q 39.15625 29.25 43.1875 25.515625 
Q 47.21875 21.78125 47.21875 15.09375 
Q 47.21875 7.46875 41.1875 3.015625 
Q 35.15625 -1.421875 24.609375 -1.421875 
Q 20.21875 -1.421875 15.453125 -0.5625 
Q 10.6875 0.296875 5.421875 2 
L 5.421875 11.28125 
Q 10.40625 8.6875 15.234375 7.390625 
Q 20.0625 6.109375 24.8125 6.109375 
Q 31.15625 6.109375 34.5625 8.28125 
Q 37.984375 10.453125 37.984375 14.40625 
Q 37.984375 18.0625 35.515625 20.015625 
Q 33.0625 21.96875 24.703125 23.78125 
L 21.578125 24.515625 
Q 13.234375 26.265625 9.515625 29.90625 
Q 5.8125 33.546875 5.8125 39.890625 
Q 5.8125 47.609375 11.28125 51.796875 
Q 16.75 56 26.8125 56 
Q 31.78125 56 36.171875 55.265625 
Q 40.578125 54.546875 44.28125 53.078125 
z
" id="DejaVuSans-115"/>
      </defs>
      <use xlink:href="#DejaVuSans-71"/>
      <use x="77.490234" xlink:href="#DejaVuSans-101"/>
      <use x="139.013672" xlink:href="#DejaVuSans-110"/>
      <use x="202.392578" xlink:href="#DejaVuSans-101"/>
      <use x="263.916016" xlink:href="#DejaVuSans-114"/>
      <use x="305.029297" xlink:href="#DejaVuSans-97"/>
      <use x="366.308594" xlink:href="#DejaVuSans-116"/>
      <use x="405.517578" xlink:href="#DejaVuSans-105"/>
      <use x="433.300781" xlink:href="#DejaVuSans-111"/>
      <use x="494.482422" xlink:href="#DejaVuSans-110"/>
      <use x="557.861328" xlink:href="#DejaVuSans-115"/>
     </g>
    </g>
   </g>
   <g id="matplotlib.axis_2">
    <g id="ytick_1">
     <g id="line2d_19">
      <path clip-path="url(#pdc1d28b5cd)" d="M 57.6 306.247612 
L 414.72 306.247612 
" style="fill:none;stroke:#b0b0b0;stroke-linecap:square;stroke-width:0.8;"/>
     </g>
     <g id="line2d_20">
      <defs>
       <path d="M 0 0 
L -3.5 0 
" id="m04eaba5f21" style="stroke:#000000;stroke-width:0.8;"/>
      </defs>
      <g>
       <use style="stroke:#000000;stroke-width:0.8;" x="57.6" xlink:href="#m04eaba5f21" y="306.247612"/>
      </g>
     </g>
     <g id="text_11">
      <!-- 200 -->
      <g transform="translate(31.5125 310.046831)scale(0.1 -0.1)">
       <use xlink:href="#DejaVuSans-50"/>
       <use x="63.623047" xlink:href="#DejaVuSans-48"/>
       <use x="127.246094" xlink:href="#DejaVuSans-48"/>
      </g>
     </g>
    </g>
    <g id="ytick_2">
     <g id="line2d_21">
      <path clip-path="url(#pdc1d28b5cd)" d="M 57.6 272.193756 
L 414.72 272.193756 
" style="fill:none;stroke:#b0b0b0;stroke-linecap:square;stroke-width:0.8;"/>
     </g>
     <g id="line2d_22">
      <g>
       <use style="stroke:#000000;stroke-width:0.8;" x="57.6" xlink:href="#m04eaba5f21" y="272.193756"/>
      </g>
     </g>
     <g id="text_12">
      <!-- 300 -->
      <g transform="translate(31.5125 275.992975)scale(0.1 -0.1)">
       <defs>
        <path d="M 40.578125 39.3125 
Q 47.65625 37.796875 51.625 33 
Q 55.609375 28.21875 55.609375 21.1875 
Q 55.609375 10.40625 48.1875 4.484375 
Q 40.765625 -1.421875 27.09375 -1.421875 
Q 22.515625 -1.421875 17.65625 -0.515625 
Q 12.796875 0.390625 7.625 2.203125 
L 7.625 11.71875 
Q 11.71875 9.328125 16.59375 8.109375 
Q 21.484375 6.890625 26.8125 6.890625 
Q 36.078125 6.890625 40.9375 10.546875 
Q 45.796875 14.203125 45.796875 21.1875 
Q 45.796875 27.640625 41.28125 31.265625 
Q 36.765625 34.90625 28.71875 34.90625 
L 20.21875 34.90625 
L 20.21875 43.015625 
L 29.109375 43.015625 
Q 36.375 43.015625 40.234375 45.921875 
Q 44.09375 48.828125 44.09375 54.296875 
Q 44.09375 59.90625 40.109375 62.90625 
Q 36.140625 65.921875 28.71875 65.921875 
Q 24.65625 65.921875 20.015625 65.03125 
Q 15.375 64.15625 9.8125 62.3125 
L 9.8125 71.09375 
Q 15.4375 72.65625 20.34375 73.4375 
Q 25.25 74.21875 29.59375 74.21875 
Q 40.828125 74.21875 47.359375 69.109375 
Q 53.90625 64.015625 53.90625 55.328125 
Q 53.90625 49.265625 50.4375 45.09375 
Q 46.96875 40.921875 40.578125 39.3125 
z
" id="DejaVuSans-51"/>
       </defs>
       <use xlink:href="#DejaVuSans-51"/>
       <use x="63.623047" xlink:href="#DejaVuSans-48"/>
       <use x="127.246094" xlink:href="#DejaVuSans-48"/>
      </g>
     </g>
    </g>
    <g id="ytick_3">
     <g id="line2d_23">
      <path clip-path="url(#pdc1d28b5cd)" d="M 57.6 238.1399 
L 414.72 238.1399 
" style="fill:none;stroke:#b0b0b0;stroke-linecap:square;stroke-width:0.8;"/>
     </g>
     <g id="line2d_24">
      <g>
       <use style="stroke:#000000;stroke-width:0.8;" x="57.6" xlink:href="#m04eaba5f21" y="238.1399"/>
      </g>
     </g>
     <g id="text_13">
      <!-- 400 -->
      <g transform="translate(31.5125 241.939119)scale(0.1 -0.1)">
       <defs>
        <path d="M 37.796875 64.3125 
L 12.890625 25.390625 
L 37.796875 25.390625 
z
M 35.203125 72.90625 
L 47.609375 72.90625 
L 47.609375 25.390625 
L 58.015625 25.390625 
L 58.015625 17.1875 
L 47.609375 17.1875 
L 47.609375 0 
L 37.796875 0 
L 37.796875 17.1875 
L 4.890625 17.1875 
L 4.890625 26.703125 
z
" id="DejaVuSans-52"/>
       </defs>
       <use xlink:href="#DejaVuSans-52"/>
       <use x="63.623047" xlink:href="#DejaVuSans-48"/>
       <use x="127.246094" xlink:href="#DejaVuSans-48"/>
      </g>
     </g>
    </g>
    <g id="ytick_4">
     <g id="line2d_25">
      <path clip-path="url(#pdc1d28b5cd)" d="M 57.6 204.086044 
L 414.72 204.086044 
" style="fill:none;stroke:#b0b0b0;stroke-linecap:square;stroke-width:0.8;"/>
     </g>
     <g id="line2d_26">
      <g>
       <use style="stroke:#000000;stroke-width:0.8;" x="57.6" xlink:href="#m04eaba5f21" y="204.086044"/>
      </g>
     </g>
     <g id="text_14">
      <!-- 500 -->
      <g transform="translate(31.5125 207.885263)scale(0.1 -0.1)">
       <use xlink:href="#DejaVuSans-53"/>
       <use x="63.623047" xlink:href="#DejaVuSans-48"/>
       <use x="127.246094" xlink:href="#DejaVuSans-48"/>
      </g>
     </g>
    </g>
    <g id="ytick_5">
     <g id="line2d_27">
      <path clip-path="url(#pdc1d28b5cd)" d="M 57.6 170.032188 
L 414.72 170.032188 
" style="fill:none;stroke:#b0b0b0;stroke-linecap:square;stroke-width:0.8;"/>
     </g>
     <g id="line2d_28">
      <g>
       <use style="stroke:#000000;stroke-width:0.8;" x="57.6" xlink:href="#m04eaba5f21" y="170.032188"/>
      </g>
     </g>
     <g id="text_15">
      <!-- 600 -->
      <g transform="translate(31.5125 173.831406)scale(0.1 -0.1)">
       <defs>
        <path d="M 33.015625 40.375 
Q 26.375 40.375 22.484375 35.828125 
Q 18.609375 31.296875 18.609375 23.390625 
Q 18.609375 15.53125 22.484375 10.953125 
Q 26.375 6.390625 33.015625 6.390625 
Q 39.65625 6.390625 43.53125 10.953125 
Q 47.40625 15.53125 47.40625 23.390625 
Q 47.40625 31.296875 43.53125 35.828125 
Q 39.65625 40.375 33.015625 40.375 
z
M 52.59375 71.296875 
L 52.59375 62.3125 
Q 48.875 64.0625 45.09375 64.984375 
Q 41.3125 65.921875 37.59375 65.921875 
Q 27.828125 65.921875 22.671875 59.328125 
Q 17.53125 52.734375 16.796875 39.40625 
Q 19.671875 43.65625 24.015625 45.921875 
Q 28.375 48.1875 33.59375 48.1875 
Q 44.578125 48.1875 50.953125 41.515625 
Q 57.328125 34.859375 57.328125 23.390625 
Q 57.328125 12.15625 50.6875 5.359375 
Q 44.046875 -1.421875 33.015625 -1.421875 
Q 20.359375 -1.421875 13.671875 8.265625 
Q 6.984375 17.96875 6.984375 36.375 
Q 6.984375 53.65625 15.1875 63.9375 
Q 23.390625 74.21875 37.203125 74.21875 
Q 40.921875 74.21875 44.703125 73.484375 
Q 48.484375 72.75 52.59375 71.296875 
z
" id="DejaVuSans-54"/>
       </defs>
       <use xlink:href="#DejaVuSans-54"/>
       <use x="63.623047" xlink:href="#DejaVuSans-48"/>
       <use x="127.246094" xlink:href="#DejaVuSans-48"/>
      </g>
     </g>
    </g>
    <g id="ytick_6">
     <g id="line2d_29">
      <path clip-path="url(#pdc1d28b5cd)" d="M 57.6 135.978332 
L 414.72 135.978332 
" style="fill:none;stroke:#b0b0b0;stroke-linecap:square;stroke-width:0.8;"/>
     </g>
     <g id="line2d_30">
      <g>
       <use style="stroke:#000000;stroke-width:0.8;" x="57.6" xlink:href="#m04eaba5f21" y="135.978332"/>
      </g>
     </g>
     <g id="text_16">
      <!-- 700 -->
      <g transform="translate(31.5125 139.77755)scale(0.1 -0.1)">
       <use xlink:href="#DejaVuSans-55"/>
       <use x="63.623047" xlink:href="#DejaVuSans-48"/>
       <use x="127.246094" xlink:href="#DejaVuSans-48"/>
      </g>
     </g>
    </g>
    <g id="ytick_7">
     <g id="line2d_31">
      <path clip-path="url(#pdc1d28b5cd)" d="M 57.6 101.924476 
L 414.72 101.924476 
" style="fill:none;stroke:#b0b0b0;stroke-linecap:square;stroke-width:0.8;"/>
     </g>
     <g id="line2d_32">
      <g>
       <use style="stroke:#000000;stroke-width:0.8;" x="57.6" xlink:href="#m04eaba5f21" y="101.924476"/>
      </g>
     </g>
     <g id="text_17">
      <!-- 800 -->
      <g transform="translate(31.5125 105.723694)scale(0.1 -0.1)">
       <defs>
        <path d="M 31.78125 34.625 
Q 24.75 34.625 20.71875 30.859375 
Q 16.703125 27.09375 16.703125 20.515625 
Q 16.703125 13.921875 20.71875 10.15625 
Q 24.75 6.390625 31.78125 6.390625 
Q 38.8125 6.390625 42.859375 10.171875 
Q 46.921875 13.96875 46.921875 20.515625 
Q 46.921875 27.09375 42.890625 30.859375 
Q 38.875 34.625 31.78125 34.625 
z
M 21.921875 38.8125 
Q 15.578125 40.375 12.03125 44.71875 
Q 8.5 49.078125 8.5 55.328125 
Q 8.5 64.0625 14.71875 69.140625 
Q 20.953125 74.21875 31.78125 74.21875 
Q 42.671875 74.21875 48.875 69.140625 
Q 55.078125 64.0625 55.078125 55.328125 
Q 55.078125 49.078125 51.53125 44.71875 
Q 48 40.375 41.703125 38.8125 
Q 48.828125 37.15625 52.796875 32.3125 
Q 56.78125 27.484375 56.78125 20.515625 
Q 56.78125 9.90625 50.3125 4.234375 
Q 43.84375 -1.421875 31.78125 -1.421875 
Q 19.734375 -1.421875 13.25 4.234375 
Q 6.78125 9.90625 6.78125 20.515625 
Q 6.78125 27.484375 10.78125 32.3125 
Q 14.796875 37.15625 21.921875 38.8125 
z
M 18.3125 54.390625 
Q 18.3125 48.734375 21.84375 45.5625 
Q 25.390625 42.390625 31.78125 42.390625 
Q 38.140625 42.390625 41.71875 45.5625 
Q 45.3125 48.734375 45.3125 54.390625 
Q 45.3125 60.0625 41.71875 63.234375 
Q 38.140625 66.40625 31.78125 66.40625 
Q 25.390625 66.40625 21.84375 63.234375 
Q 18.3125 60.0625 18.3125 54.390625 
z
" id="DejaVuSans-56"/>
       </defs>
       <use xlink:href="#DejaVuSans-56"/>
       <use x="63.623047" xlink:href="#DejaVuSans-48"/>
       <use x="127.246094" xlink:href="#DejaVuSans-48"/>
      </g>
     </g>
    </g>
    <g id="ytick_8">
     <g id="line2d_33">
      <path clip-path="url(#pdc1d28b5cd)" d="M 57.6 67.87062 
L 414.72 67.87062 
" style="fill:none;stroke:#b0b0b0;stroke-linecap:square;stroke-width:0.8;"/>
     </g>
     <g id="line2d_34">
      <g>
       <use style="stroke:#000000;stroke-width:0.8;" x="57.6" xlink:href="#m04eaba5f21" y="67.87062"/>
      </g>
     </g>
     <g id="text_18">
      <!-- 900 -->
      <g transform="translate(31.5125 71.669838)scale(0.1 -0.1)">
       <defs>
        <path d="M 10.984375 1.515625 
L 10.984375 10.5 
Q 14.703125 8.734375 18.5 7.8125 
Q 22.3125 6.890625 25.984375 6.890625 
Q 35.75 6.890625 40.890625 13.453125 
Q 46.046875 20.015625 46.78125 33.40625 
Q 43.953125 29.203125 39.59375 26.953125 
Q 35.25 24.703125 29.984375 24.703125 
Q 19.046875 24.703125 12.671875 31.3125 
Q 6.296875 37.9375 6.296875 49.421875 
Q 6.296875 60.640625 12.9375 67.421875 
Q 19.578125 74.21875 30.609375 74.21875 
Q 43.265625 74.21875 49.921875 64.515625 
Q 56.59375 54.828125 56.59375 36.375 
Q 56.59375 19.140625 48.40625 8.859375 
Q 40.234375 -1.421875 26.421875 -1.421875 
Q 22.703125 -1.421875 18.890625 -0.6875 
Q 15.09375 0.046875 10.984375 1.515625 
z
M 30.609375 32.421875 
Q 37.25 32.421875 41.125 36.953125 
Q 45.015625 41.5 45.015625 49.421875 
Q 45.015625 57.28125 41.125 61.84375 
Q 37.25 66.40625 30.609375 66.40625 
Q 23.96875 66.40625 20.09375 61.84375 
Q 16.21875 57.28125 16.21875 49.421875 
Q 16.21875 41.5 20.09375 36.953125 
Q 23.96875 32.421875 30.609375 32.421875 
z
" id="DejaVuSans-57"/>
       </defs>
       <use xlink:href="#DejaVuSans-57"/>
       <use x="63.623047" xlink:href="#DejaVuSans-48"/>
       <use x="127.246094" xlink:href="#DejaVuSans-48"/>
      </g>
     </g>
    </g>
    <g id="text_19">
     <!-- Fitness -->
     <g transform="translate(25.432812 191.845187)rotate(-90)scale(0.1 -0.1)">
      <defs>
       <path d="M 9.8125 72.90625 
L 51.703125 72.90625 
L 51.703125 64.59375 
L 19.671875 64.59375 
L 19.671875 43.109375 
L 48.578125 43.109375 
L 48.578125 34.8125 
L 19.671875 34.8125 
L 19.671875 0 
L 9.8125 0 
z
" id="DejaVuSans-70"/>
      </defs>
      <use xlink:href="#DejaVuSans-70"/>
      <use x="50.269531" xlink:href="#DejaVuSans-105"/>
      <use x="78.052734" xlink:href="#DejaVuSans-116"/>
      <use x="117.261719" xlink:href="#DejaVuSans-110"/>
      <use x="180.640625" xlink:href="#DejaVuSans-101"/>
      <use x="242.164062" xlink:href="#DejaVuSans-115"/>
      <use x="294.263672" xlink:href="#DejaVuSans-115"/>
     </g>
    </g>
   </g>
   <g id="line2d_35">
    <path clip-path="url(#pdc1d28b5cd)" d="M 73.832727 260.874254 
L 75.532489 260.463338 
L 77.232251 259.9265 
L 78.932013 260.539895 
L 80.631775 260.0535 
L 82.331537 259.758676 
L 84.031299 260.955983 
L 85.731061 260.104637 
L 87.430823 260.329211 
L 89.130585 259.938848 
L 90.830347 259.232007 
L 92.530109 260.370074 
L 94.229871 258.622142 
L 95.929634 259.210377 
L 97.629396 258.601697 
L 99.329158 258.642776 
L 101.02892 260.279771 
L 102.728682 257.983263 
L 104.428444 259.242919 
L 106.128206 258.250082 
L 107.827968 260.571633 
L 109.52773 258.460926 
L 111.227492 258.608781 
L 112.927254 260.376595 
L 114.627016 257.771267 
L 116.326778 259.070563 
L 118.02654 258.422494 
L 119.726302 258.891468 
L 121.426064 258.137419 
L 123.125826 255.481171 
L 124.825588 259.390816 
L 126.52535 256.607844 
L 128.225112 259.054643 
L 129.924874 257.554109 
L 131.624636 254.244966 
L 133.324398 256.20618 
L 135.02416 259.007541 
L 136.723922 258.182013 
L 138.423684 257.658319 
L 140.123446 261.399715 
L 141.823208 260.305555 
L 143.52297 262.229598 
L 145.222732 262.946554 
L 146.922494 260.955983 
L 148.622256 261.063705 
L 150.322018 260.199988 
L 152.02178 259.961341 
L 153.721542 259.225772 
L 155.421304 261.035906 
L 157.121066 261.063877 
L 160.52059 260.398738 
L 162.220352 264.295346 
L 163.920114 258.644449 
L 165.619876 259.882771 
L 167.319638 258.22125 
L 169.0194 263.890119 
L 170.719162 261.485335 
L 172.418924 262.328354 
L 174.118686 253.348352 
L 175.818448 260.750312 
L 177.51821 264.621781 
L 179.217972 259.537073 
L 180.917734 264.090941 
L 182.617496 265.328499 
L 184.317258 257.993298 
L 187.716782 252.75554 
L 189.416545 255.190906 
L 191.116307 252.279061 
L 192.816069 251.967829 
L 194.515831 241.98458 
L 196.215593 247.102875 
L 197.915355 250.869231 
L 199.615117 242.718252 
L 201.314879 249.139295 
L 203.014641 249.819361 
L 204.714403 241.643064 
L 206.414165 248.813548 
L 208.113927 250.903285 
L 209.813689 250.562747 
L 211.513451 256.940326 
L 213.213213 248.710217 
L 214.912975 254.128354 
L 216.612737 254.212646 
L 218.312499 252.479608 
L 220.012261 256.009575 
L 221.712023 256.471091 
L 223.411785 250.430246 
L 225.111547 253.957916 
L 226.811309 266.012981 
L 228.511071 264.196259 
L 230.210833 254.963172 
L 231.910595 253.957916 
L 233.610357 254.876864 
L 235.310119 259.557104 
L 237.009881 258.783347 
L 238.709643 250.320964 
L 240.409405 252.214323 
L 242.109167 249.468707 
L 243.808929 253.05086 
L 245.508691 250.450369 
L 247.208453 250.853339 
L 248.908215 251.694009 
L 250.607977 249.467815 
L 252.307739 251.802307 
L 254.007501 251.863604 
L 255.707263 254.659495 
L 257.407025 247.749898 
L 259.106787 256.780981 
L 260.806549 255.443305 
L 262.506311 256.232275 
L 264.206073 252.878409 
L 265.905835 257.554003 
L 267.605597 257.99903 
L 269.305359 259.684864 
L 271.005121 258.376657 
L 272.704883 254.250779 
L 274.404645 255.087713 
L 276.104407 255.571428 
L 277.804169 255.638862 
L 279.503931 258.066565 
L 281.203693 258.296377 
L 282.903455 253.69804 
L 284.603218 255.377962 
L 286.30298 258.088649 
L 288.002742 253.021435 
L 289.702504 255.503961 
L 291.402266 254.638993 
L 293.102028 261.974194 
L 294.80179 255.318553 
L 296.501552 259.698076 
L 298.201314 260.880308 
L 299.901076 260.264587 
L 301.600838 256.5565 
L 303.3006 264.402646 
L 305.000362 260.264587 
L 306.700124 263.680292 
L 308.399886 259.159469 
L 310.099648 260.69456 
L 311.79941 263.050296 
L 313.499172 256.832061 
L 315.198934 264.238775 
L 316.898696 258.510917 
L 318.598458 261.596196 
L 320.29822 260.163641 
L 321.997982 261.514467 
L 323.697744 261.526987 
L 327.097268 259.497515 
L 328.79703 255.510806 
L 330.496792 259.01855 
L 332.196554 262.061891 
L 333.896316 257.277493 
L 335.596078 258.02802 
L 337.29584 259.560443 
L 338.995602 257.036451 
L 340.695364 255.748719 
L 342.395126 253.0263 
L 344.094888 257.827075 
L 345.79465 249.320354 
L 347.494412 251.046979 
L 349.194174 250.207103 
L 350.893936 245.080076 
L 352.593698 250.510553 
L 354.29346 246.067638 
L 355.993222 252.759688 
L 357.692984 246.827039 
L 359.392746 243.84994 
L 361.092508 248.411093 
L 362.79227 245.798612 
L 364.492032 244.815804 
L 367.891556 240.444555 
L 369.591318 248.018923 
L 371.29108 248.642109 
L 372.990842 237.288553 
L 374.690604 238.923139 
L 376.390366 243.210519 
L 378.090129 244.072082 
L 379.789891 245.972287 
L 381.489653 240.396398 
L 383.189415 244.616876 
L 384.889177 244.733965 
L 386.588939 244.433052 
L 388.288701 242.110579 
L 389.988463 245.577801 
L 391.688225 236.06915 
L 393.387987 241.139391 
L 395.087749 239.168395 
L 396.787511 226.762507 
L 398.487273 234.771603 
L 398.487273 234.771603 
" style="fill:none;stroke:#0000ff;stroke-linecap:square;stroke-width:1.5;"/>
   </g>
   <g id="line2d_36">
    <path clip-path="url(#pdc1d28b5cd)" d="M 73.832727 261.507912 
L 75.532489 265.195482 
L 77.232251 266.656913 
L 78.932013 267.768276 
L 80.631775 266.149413 
L 82.331537 267.710032 
L 84.031299 268.195265 
L 85.731061 270.749717 
L 87.430823 267.440308 
L 89.130585 269.219777 
L 90.830347 270.274317 
L 92.530109 270.921678 
L 94.229871 268.975624 
L 95.929634 270.11343 
L 99.329158 270.074305 
L 101.02892 271.573252 
L 102.728682 268.456841 
L 104.428444 271.015889 
L 106.128206 270.042471 
L 107.827968 272.025665 
L 109.52773 267.528576 
L 111.227492 268.675914 
L 112.927254 273.080154 
L 114.627016 272.986003 
L 116.326778 272.02372 
L 118.02654 270.679785 
L 119.726302 272.205587 
L 121.426064 275.381287 
L 123.125826 272.880178 
L 124.825588 276.190524 
L 126.52535 271.827445 
L 128.225112 275.94421 
L 129.924874 269.065367 
L 131.624636 275.378002 
L 133.324398 275.579338 
L 135.02416 279.935622 
L 136.723922 276.429379 
L 138.423684 276.02252 
L 140.123446 284.082694 
L 141.823208 288.715252 
L 143.52297 287.801691 
L 145.222732 288.205562 
L 146.922494 276.283849 
L 148.622256 282.028362 
L 150.322018 278.543329 
L 152.02178 279.674737 
L 153.721542 281.776225 
L 155.421304 287.492156 
L 157.121066 284.908122 
L 158.820828 280.691052 
L 160.52059 287.198371 
L 162.220352 286.758076 
L 163.920114 285.094794 
L 165.619876 285.24786 
L 167.319638 283.722344 
L 169.0194 292.278802 
L 170.719162 286.342201 
L 172.418924 288.330138 
L 174.118686 283.167057 
L 175.818448 289.494658 
L 177.51821 292.427913 
L 179.217972 282.848476 
L 180.917734 288.585377 
L 182.617496 288.353273 
L 184.317258 279.020086 
L 186.01702 279.761791 
L 187.716782 275.635666 
L 189.416545 283.961362 
L 191.116307 275.270255 
L 192.816069 278.924153 
L 194.515831 270.411833 
L 196.215593 275.990578 
L 197.915355 283.018913 
L 199.615117 272.72862 
L 201.314879 280.381569 
L 203.014641 280.511316 
L 204.714403 269.154115 
L 206.414165 276.845066 
L 208.113927 277.174482 
L 209.813689 280.317808 
L 211.513451 284.282581 
L 213.213213 272.389865 
L 214.912975 284.920248 
L 216.612737 279.165384 
L 218.312499 281.987066 
L 220.012261 286.691215 
L 221.712023 286.46881 
L 223.411785 280.412688 
L 225.111547 284.105577 
L 226.811309 294.766916 
L 228.511071 290.905521 
L 230.210833 279.252189 
L 231.910595 282.278458 
L 233.610357 279.723885 
L 235.310119 281.370078 
L 237.009881 282.722108 
L 238.709643 276.58326 
L 240.409405 278.389941 
L 242.109167 273.308232 
L 243.808929 276.029707 
L 245.508691 276.730565 
L 247.208453 279.559962 
L 248.908215 275.471135 
L 250.607977 275.601811 
L 252.307739 278.526244 
L 254.007501 278.25521 
L 255.707263 279.511252 
L 257.407025 277.322435 
L 259.106787 279.204488 
L 260.806549 287.467367 
L 262.506311 286.407366 
L 264.206073 284.172331 
L 265.905835 286.304071 
L 267.605597 287.540673 
L 269.305359 292.306701 
L 271.005121 288.483624 
L 272.704883 278.869842 
L 274.404645 283.011364 
L 276.104407 282.981267 
L 277.804169 283.766105 
L 279.503931 282.776146 
L 281.203693 284.375437 
L 282.903455 279.589137 
L 284.603218 281.931401 
L 286.30298 283.010729 
L 288.002742 279.580758 
L 289.702504 281.113615 
L 291.402266 277.733653 
L 293.102028 284.03376 
L 294.80179 282.417221 
L 296.501552 288.382978 
L 298.201314 292.273448 
L 299.901076 288.788977 
L 301.600838 288.889488 
L 303.3006 295.488 
L 305.000362 288.139435 
L 306.700124 289.263691 
L 308.399886 287.401501 
L 310.099648 288.809849 
L 311.79941 291.050202 
L 313.499172 281.702751 
L 315.198934 290.404661 
L 316.898696 285.116084 
L 318.598458 287.030951 
L 320.29822 286.161478 
L 321.997982 290.493058 
L 323.697744 289.975773 
L 325.397506 291.158127 
L 327.097268 288.852588 
L 328.79703 278.696471 
L 330.496792 284.854069 
L 332.196554 288.822877 
L 333.896316 282.443699 
L 335.596078 282.892514 
L 337.29584 290.265933 
L 338.995602 289.523011 
L 340.695364 280.904106 
L 342.395126 281.310545 
L 345.79465 284.537104 
L 347.494412 289.032888 
L 349.194174 284.05661 
L 350.893936 275.780256 
L 352.593698 281.91668 
L 354.29346 277.391931 
L 355.993222 287.872294 
L 357.692984 284.319592 
L 359.392746 289.039614 
L 361.092508 283.154413 
L 362.79227 280.758424 
L 364.492032 289.385635 
L 366.191794 278.347735 
L 367.891556 280.254311 
L 369.591318 281.131969 
L 371.29108 284.528919 
L 372.990842 275.316252 
L 374.690604 276.674338 
L 376.390366 276.071234 
L 378.090129 280.784924 
L 379.789891 286.077637 
L 381.489653 279.526556 
L 383.189415 282.648423 
L 384.889177 285.491689 
L 386.588939 284.116725 
L 388.288701 277.201925 
L 389.988463 280.577615 
L 391.688225 278.681306 
L 393.387987 279.433841 
L 395.087749 282.591313 
L 396.787511 275.417569 
L 398.487273 280.601888 
L 398.487273 280.601888 
" style="fill:none;stroke:#008000;stroke-dasharray:9.6,2.4,1.5,2.4;stroke-dashoffset:0;stroke-width:1.5;"/>
   </g>
   <g id="line2d_37">
    <path clip-path="url(#pdc1d28b5cd)" d="M 73.832727 260.240596 
L 75.532489 255.731193 
L 77.232251 253.196088 
L 78.932013 253.311514 
L 80.631775 253.957587 
L 82.331537 251.80732 
L 84.031299 253.716702 
L 85.731061 249.459557 
L 87.430823 253.218115 
L 90.830347 248.189697 
L 92.530109 249.818469 
L 94.229871 248.26866 
L 95.929634 248.307324 
L 97.629396 247.100643 
L 99.329158 247.211246 
L 101.02892 248.98629 
L 102.728682 247.509685 
L 104.428444 247.469949 
L 106.128206 246.457694 
L 107.827968 249.1176 
L 109.52773 249.393277 
L 112.927254 247.673036 
L 114.627016 242.556531 
L 116.326778 246.117405 
L 118.02654 246.165203 
L 119.726302 245.57735 
L 121.426064 240.89355 
L 123.125826 238.082165 
L 124.825588 242.591108 
L 126.52535 241.388242 
L 128.225112 242.165076 
L 129.924874 246.04285 
L 131.624636 233.11193 
L 133.324398 236.833022 
L 135.02416 238.07946 
L 136.723922 239.934647 
L 140.123446 238.716737 
L 141.823208 231.895857 
L 143.52297 236.657504 
L 145.222732 237.687546 
L 146.922494 245.628118 
L 148.622256 240.099047 
L 150.322018 241.856646 
L 152.02178 240.247945 
L 153.721542 236.675319 
L 155.421304 234.579656 
L 157.121066 237.219631 
L 158.820828 240.669243 
L 160.52059 233.599106 
L 162.220352 241.832617 
L 163.920114 232.194104 
L 165.619876 234.517682 
L 167.319638 232.720157 
L 169.0194 235.501435 
L 170.719162 236.62847 
L 172.418924 236.32657 
L 174.118686 223.529647 
L 175.818448 232.005965 
L 177.51821 236.815649 
L 179.217972 236.225669 
L 180.917734 239.596505 
L 182.617496 242.303724 
L 184.317258 236.96651 
L 186.01702 230.878349 
L 187.716782 229.875413 
L 189.416545 226.420451 
L 191.116307 229.287866 
L 192.816069 225.011506 
L 194.515831 213.557328 
L 196.215593 218.215172 
L 197.915355 218.719549 
L 199.615117 212.707883 
L 201.314879 217.897021 
L 203.014641 219.127406 
L 204.714403 214.132013 
L 206.414165 220.782029 
L 208.113927 224.632088 
L 209.813689 220.807685 
L 211.513451 229.59807 
L 213.213213 225.030569 
L 214.912975 223.336459 
L 216.612737 229.259907 
L 218.312499 222.972149 
L 220.012261 225.327934 
L 221.712023 226.473372 
L 223.411785 220.447804 
L 225.111547 223.810255 
L 226.811309 237.259047 
L 228.511071 237.486998 
L 230.210833 230.674156 
L 231.910595 225.637374 
L 233.610357 230.029844 
L 235.310119 237.74413 
L 237.009881 234.844587 
L 238.709643 224.058669 
L 240.409405 226.038706 
L 242.109167 225.629183 
L 243.808929 230.072014 
L 245.508691 224.170173 
L 247.208453 222.146717 
L 248.908215 227.916883 
L 250.607977 223.333819 
L 252.307739 225.07837 
L 254.007501 225.471997 
L 255.707263 229.807738 
L 257.407025 218.177361 
L 259.106787 234.357473 
L 260.806549 223.419242 
L 262.506311 226.057184 
L 264.206073 221.584487 
L 265.905835 228.803936 
L 267.605597 228.457386 
L 269.305359 227.063027 
L 271.005121 228.269689 
L 272.704883 229.631716 
L 274.404645 227.164061 
L 276.104407 228.161589 
L 277.804169 227.511618 
L 279.503931 233.356985 
L 281.203693 232.217317 
L 282.903455 227.806944 
L 284.603218 228.824522 
L 286.30298 233.166568 
L 288.002742 226.462112 
L 289.702504 229.894307 
L 291.402266 231.544333 
L 293.102028 239.914627 
L 294.80179 228.219885 
L 296.501552 231.013174 
L 298.201314 229.487168 
L 299.901076 231.740196 
L 301.600838 224.223512 
L 303.3006 233.317293 
L 305.000362 232.389739 
L 306.700124 238.096893 
L 308.399886 230.917436 
L 310.099648 232.57927 
L 311.79941 235.050389 
L 313.499172 231.961372 
L 315.198934 238.072889 
L 316.898696 231.905749 
L 318.598458 236.16144 
L 320.29822 234.165804 
L 321.997982 232.535875 
L 323.697744 233.078202 
L 325.397506 229.838857 
L 327.097268 230.142442 
L 328.79703 232.325141 
L 330.496792 233.183032 
L 332.196554 235.300904 
L 333.896316 232.111286 
L 335.596078 233.163525 
L 338.995602 224.549892 
L 340.695364 230.593332 
L 342.395126 224.742055 
L 344.094888 232.695443 
L 345.79465 214.103603 
L 347.494412 213.06107 
L 349.194174 216.357596 
L 350.893936 214.379895 
L 352.593698 219.104426 
L 354.29346 214.743344 
L 355.993222 217.647081 
L 357.692984 209.334485 
L 359.392746 198.660267 
L 361.092508 213.667774 
L 362.79227 210.8388 
L 364.492032 200.245974 
L 366.191794 206.861742 
L 367.891556 200.634799 
L 369.591318 214.905878 
L 371.29108 212.755299 
L 372.990842 199.260855 
L 374.690604 201.171939 
L 376.390366 210.349804 
L 378.090129 207.359239 
L 379.789891 205.866937 
L 381.489653 201.266239 
L 383.189415 206.585329 
L 384.889177 203.976241 
L 386.588939 204.74938 
L 388.288701 207.019234 
L 389.988463 210.577988 
L 391.688225 193.456994 
L 393.387987 202.844941 
L 395.087749 195.745477 
L 396.787511 178.107444 
L 398.487273 188.941317 
L 398.487273 188.941317 
" style="fill:none;stroke:#008000;stroke-dasharray:9.6,2.4,1.5,2.4;stroke-dashoffset:0;stroke-width:1.5;"/>
   </g>
   <g id="line2d_38">
    <path clip-path="url(#pdc1d28b5cd)" d="M 73.832727 259.593829 
L 75.532489 203.745505 
L 77.232251 204.086044 
L 78.932013 192.167194 
L 80.631775 205.448198 
L 82.331537 181.610499 
L 84.031299 241.885824 
L 85.731061 192.507733 
L 87.430823 215.323816 
L 89.130585 204.086044 
L 90.830347 181.951037 
L 92.530109 226.561589 
L 94.229871 204.086044 
L 95.929634 215.664355 
L 97.629396 204.426582 
L 99.329158 203.745505 
L 101.02892 221.794049 
L 102.728682 192.848271 
L 104.428444 214.642739 
L 107.827968 192.848271 
L 109.52773 203.404967 
L 111.227492 203.745505 
L 112.927254 216.345432 
L 114.627016 193.18881 
L 116.326778 204.086044 
L 118.02654 203.745505 
L 119.726302 214.302201 
L 121.426064 193.18881 
L 123.125826 181.26996 
L 124.825588 192.848271 
L 126.52535 180.929422 
L 128.225112 203.064428 
L 129.924874 216.345432 
L 131.624636 146.875566 
L 133.324398 192.167194 
L 135.02416 147.216104 
L 136.723922 158.113338 
L 138.423684 181.610499 
L 140.123446 192.167194 
L 141.823208 147.216104 
L 143.52297 192.507733 
L 145.222732 204.767121 
L 146.922494 226.22105 
L 148.622256 170.032188 
L 150.322018 204.426582 
L 152.02178 192.507733 
L 153.721542 204.086044 
L 155.421304 181.610499 
L 157.121066 192.167194 
L 158.820828 214.642739 
L 162.220352 192.848271 
L 163.920114 192.848271 
L 165.619876 180.929422 
L 167.319638 204.767121 
L 169.0194 180.248345 
L 170.719162 193.18881 
L 172.418924 170.372726 
L 174.118686 170.713265 
L 175.818448 170.372726 
L 177.51821 192.848271 
L 179.217972 192.848271 
L 180.917734 192.507733 
L 182.617496 214.983278 
L 184.317258 203.404967 
L 186.01702 204.086044 
L 187.716782 203.745505 
L 189.416545 193.529348 
L 191.116307 202.042812 
L 192.816069 206.129275 
L 194.515831 195.232041 
L 196.215593 192.848271 
L 197.915355 202.72389 
L 199.615117 181.951037 
L 201.314879 195.57258 
L 203.014641 170.372726 
L 204.714403 147.216104 
L 206.414165 180.929422 
L 208.113927 181.610499 
L 209.813689 181.26996 
L 211.513451 193.18881 
L 213.213213 201.361735 
L 214.912975 198.637427 
L 216.612737 181.610499 
L 218.312499 147.216104 
L 220.012261 190.123963 
L 221.712023 136.31887 
L 223.411785 158.113338 
L 225.111547 159.134954 
L 226.811309 204.426582 
L 228.511071 200.680658 
L 230.210833 181.26996 
L 231.910595 181.610499 
L 233.610357 203.064428 
L 235.310119 204.426582 
L 237.009881 213.280585 
L 238.709643 180.929422 
L 240.409405 199.318504 
L 242.109167 158.453877 
L 243.808929 203.745505 
L 245.508691 192.848271 
L 247.208453 170.372726 
L 248.908215 203.064428 
L 250.607977 181.610499 
L 252.307739 192.507733 
L 254.007501 181.26996 
L 255.707263 197.615811 
L 257.407025 146.875566 
L 259.106787 194.210426 
L 260.806549 146.875566 
L 262.506311 159.134954 
L 264.206073 158.113338 
L 265.905835 193.18881 
L 267.605597 170.372726 
L 269.305359 181.26996 
L 271.005121 158.794415 
L 272.704883 199.999581 
L 274.404645 181.951037 
L 276.104407 170.372726 
L 279.503931 192.507733 
L 281.203693 202.042812 
L 282.903455 192.167194 
L 284.603218 203.404967 
L 286.30298 202.72389 
L 288.002742 169.691649 
L 289.702504 170.372726 
L 291.402266 203.404967 
L 293.102028 203.745505 
L 294.80179 158.453877 
L 296.501552 181.610499 
L 298.201314 170.372726 
L 299.901076 169.010572 
L 301.600838 158.794415 
L 303.3006 181.26996 
L 305.000362 191.826656 
L 306.700124 180.588883 
L 308.399886 180.929422 
L 310.099648 193.18881 
L 311.79941 203.745505 
L 313.499172 192.167194 
L 315.198934 215.323816 
L 316.898696 181.26996 
L 318.598458 181.26996 
L 320.29822 193.18881 
L 321.997982 193.18881 
L 323.697744 180.588883 
L 325.397506 169.691649 
L 327.097268 181.26996 
L 328.79703 214.983278 
L 330.496792 196.253657 
L 332.196554 189.102347 
L 333.896316 203.745505 
L 335.596078 192.848271 
L 337.29584 168.670033 
L 338.995602 158.794415 
L 340.695364 185.356423 
L 342.395126 167.988956 
L 344.094888 178.545652 
L 345.79465 151.983644 
L 347.494412 138.70264 
L 349.194174 136.31887 
L 350.893936 147.897181 
L 352.593698 161.859262 
L 354.29346 116.227095 
L 355.993222 120.313558 
L 357.692984 145.172873 
L 359.392746 87.281317 
L 361.092508 158.794415 
L 362.79227 118.610865 
L 364.492032 99.881244 
L 366.191794 122.697328 
L 367.891556 104.648784 
L 369.591318 142.448564 
L 371.29108 140.064794 
L 372.990842 117.248711 
L 374.690604 116.227095 
L 376.390366 137.681024 
L 378.090129 150.962028 
L 379.789891 125.421636 
L 381.489653 133.594562 
L 383.189415 137.681024 
L 384.889177 127.464868 
L 386.588939 141.767487 
L 388.288701 138.362102 
L 389.988463 106.692015 
L 391.688225 108.05417 
L 393.387987 131.55133 
L 395.087749 85.578625 
L 396.787511 71.616544 
L 398.487273 53.568 
L 398.487273 53.568 
" style="fill:none;stroke:#ff0000;stroke-linecap:square;stroke-width:1.5;"/>
   </g>
   <g id="patch_3">
    <path d="M 57.6 307.584 
L 57.6 41.472 
" style="fill:none;stroke:#000000;stroke-linecap:square;stroke-linejoin:miter;stroke-width:0.8;"/>
   </g>
   <g id="patch_4">
    <path d="M 414.72 307.584 
L 414.72 41.472 
" style="fill:none;stroke:#000000;stroke-linecap:square;stroke-linejoin:miter;stroke-width:0.8;"/>
   </g>
   <g id="patch_5">
    <path d="M 57.6 307.584 
L 414.72 307.584 
" style="fill:none;stroke:#000000;stroke-linecap:square;stroke-linejoin:miter;stroke-width:0.8;"/>
   </g>
   <g id="patch_6">
    <path d="M 57.6 41.472 
L 414.72 41.472 
" style="fill:none;stroke:#000000;stroke-linecap:square;stroke-linejoin:miter;stroke-width:0.8;"/>
   </g>
   <g id="text_20">
    <!-- Population's average and best fitness -->
    <g transform="translate(123.529687 35.472)scale(0.12 -0.12)">
     <defs>
      <path d="M 19.671875 64.796875 
L 19.671875 37.40625 
L 32.078125 37.40625 
Q 38.96875 37.40625 42.71875 40.96875 
Q 46.484375 44.53125 46.484375 51.125 
Q 46.484375 57.671875 42.71875 61.234375 
Q 38.96875 64.796875 32.078125 64.796875 
z
M 9.8125 72.90625 
L 32.078125 72.90625 
Q 44.34375 72.90625 50.609375 67.359375 
Q 56.890625 61.8125 56.890625 51.125 
Q 56.890625 40.328125 50.609375 34.8125 
Q 44.34375 29.296875 32.078125 29.296875 
L 19.671875 29.296875 
L 19.671875 0 
L 9.8125 0 
z
" id="DejaVuSans-80"/>
      <path d="M 18.109375 8.203125 
L 18.109375 -20.796875 
L 9.078125 -20.796875 
L 9.078125 54.6875 
L 18.109375 54.6875 
L 18.109375 46.390625 
Q 20.953125 51.265625 25.265625 53.625 
Q 29.59375 56 35.59375 56 
Q 45.5625 56 51.78125 48.09375 
Q 58.015625 40.1875 58.015625 27.296875 
Q 58.015625 14.40625 51.78125 6.484375 
Q 45.5625 -1.421875 35.59375 -1.421875 
Q 29.59375 -1.421875 25.265625 0.953125 
Q 20.953125 3.328125 18.109375 8.203125 
z
M 48.6875 27.296875 
Q 48.6875 37.203125 44.609375 42.84375 
Q 40.53125 48.484375 33.40625 48.484375 
Q 26.265625 48.484375 22.1875 42.84375 
Q 18.109375 37.203125 18.109375 27.296875 
Q 18.109375 17.390625 22.1875 11.75 
Q 26.265625 6.109375 33.40625 6.109375 
Q 40.53125 6.109375 44.609375 11.75 
Q 48.6875 17.390625 48.6875 27.296875 
z
" id="DejaVuSans-112"/>
      <path d="M 8.5 21.578125 
L 8.5 54.6875 
L 17.484375 54.6875 
L 17.484375 21.921875 
Q 17.484375 14.15625 20.5 10.265625 
Q 23.53125 6.390625 29.59375 6.390625 
Q 36.859375 6.390625 41.078125 11.03125 
Q 45.3125 15.671875 45.3125 23.6875 
L 45.3125 54.6875 
L 54.296875 54.6875 
L 54.296875 0 
L 45.3125 0 
L 45.3125 8.40625 
Q 42.046875 3.421875 37.71875 1 
Q 33.40625 -1.421875 27.6875 -1.421875 
Q 18.265625 -1.421875 13.375 4.4375 
Q 8.5 10.296875 8.5 21.578125 
z
M 31.109375 56 
z
" id="DejaVuSans-117"/>
      <path d="M 9.421875 75.984375 
L 18.40625 75.984375 
L 18.40625 0 
L 9.421875 0 
z
" id="DejaVuSans-108"/>
      <path d="M 17.921875 72.90625 
L 17.921875 45.796875 
L 9.625 45.796875 
L 9.625 72.90625 
z
" id="DejaVuSans-39"/>
      <path id="DejaVuSans-32"/>
      <path d="M 2.984375 54.6875 
L 12.5 54.6875 
L 29.59375 8.796875 
L 46.6875 54.6875 
L 56.203125 54.6875 
L 35.6875 0 
L 23.484375 0 
z
" id="DejaVuSans-118"/>
      <path d="M 45.40625 27.984375 
Q 45.40625 37.75 41.375 43.109375 
Q 37.359375 48.484375 30.078125 48.484375 
Q 22.859375 48.484375 18.828125 43.109375 
Q 14.796875 37.75 14.796875 27.984375 
Q 14.796875 18.265625 18.828125 12.890625 
Q 22.859375 7.515625 30.078125 7.515625 
Q 37.359375 7.515625 41.375 12.890625 
Q 45.40625 18.265625 45.40625 27.984375 
z
M 54.390625 6.78125 
Q 54.390625 -7.171875 48.1875 -13.984375 
Q 42 -20.796875 29.203125 -20.796875 
Q 24.46875 -20.796875 20.265625 -20.09375 
Q 16.0625 -19.390625 12.109375 -17.921875 
L 12.109375 -9.1875 
Q 16.0625 -11.328125 19.921875 -12.34375 
Q 23.78125 -13.375 27.78125 -13.375 
Q 36.625 -13.375 41.015625 -8.765625 
Q 45.40625 -4.15625 45.40625 5.171875 
L 45.40625 9.625 
Q 42.625 4.78125 38.28125 2.390625 
Q 33.9375 0 27.875 0 
Q 17.828125 0 11.671875 7.65625 
Q 5.515625 15.328125 5.515625 27.984375 
Q 5.515625 40.671875 11.671875 48.328125 
Q 17.828125 56 27.875 56 
Q 33.9375 56 38.28125 53.609375 
Q 42.625 51.21875 45.40625 46.390625 
L 45.40625 54.6875 
L 54.390625 54.6875 
z
" id="DejaVuSans-103"/>
      <path d="M 45.40625 46.390625 
L 45.40625 75.984375 
L 54.390625 75.984375 
L 54.390625 0 
L 45.40625 0 
L 45.40625 8.203125 
Q 42.578125 3.328125 38.25 0.953125 
Q 33.9375 -1.421875 27.875 -1.421875 
Q 17.96875 -1.421875 11.734375 6.484375 
Q 5.515625 14.40625 5.515625 27.296875 
Q 5.515625 40.1875 11.734375 48.09375 
Q 17.96875 56 27.875 56 
Q 33.9375 56 38.25 53.625 
Q 42.578125 51.265625 45.40625 46.390625 
z
M 14.796875 27.296875 
Q 14.796875 17.390625 18.875 11.75 
Q 22.953125 6.109375 30.078125 6.109375 
Q 37.203125 6.109375 41.296875 11.75 
Q 45.40625 17.390625 45.40625 27.296875 
Q 45.40625 37.203125 41.296875 42.84375 
Q 37.203125 48.484375 30.078125 48.484375 
Q 22.953125 48.484375 18.875 42.84375 
Q 14.796875 37.203125 14.796875 27.296875 
z
" id="DejaVuSans-100"/>
      <path d="M 48.6875 27.296875 
Q 48.6875 37.203125 44.609375 42.84375 
Q 40.53125 48.484375 33.40625 48.484375 
Q 26.265625 48.484375 22.1875 42.84375 
Q 18.109375 37.203125 18.109375 27.296875 
Q 18.109375 17.390625 22.1875 11.75 
Q 26.265625 6.109375 33.40625 6.109375 
Q 40.53125 6.109375 44.609375 11.75 
Q 48.6875 17.390625 48.6875 27.296875 
z
M 18.109375 46.390625 
Q 20.953125 51.265625 25.265625 53.625 
Q 29.59375 56 35.59375 56 
Q 45.5625 56 51.78125 48.09375 
Q 58.015625 40.1875 58.015625 27.296875 
Q 58.015625 14.40625 51.78125 6.484375 
Q 45.5625 -1.421875 35.59375 -1.421875 
Q 29.59375 -1.421875 25.265625 0.953125 
Q 20.953125 3.328125 18.109375 8.203125 
L 18.109375 0 
L 9.078125 0 
L 9.078125 75.984375 
L 18.109375 75.984375 
z
" id="DejaVuSans-98"/>
      <path d="M 37.109375 75.984375 
L 37.109375 68.5 
L 28.515625 68.5 
Q 23.6875 68.5 21.796875 66.546875 
Q 19.921875 64.59375 19.921875 59.515625 
L 19.921875 54.6875 
L 34.71875 54.6875 
L 34.71875 47.703125 
L 19.921875 47.703125 
L 19.921875 0 
L 10.890625 0 
L 10.890625 47.703125 
L 2.296875 47.703125 
L 2.296875 54.6875 
L 10.890625 54.6875 
L 10.890625 58.5 
Q 10.890625 67.625 15.140625 71.796875 
Q 19.390625 75.984375 28.609375 75.984375 
z
" id="DejaVuSans-102"/>
     </defs>
     <use xlink:href="#DejaVuSans-80"/>
     <use x="56.677734" xlink:href="#DejaVuSans-111"/>
     <use x="117.859375" xlink:href="#DejaVuSans-112"/>
     <use x="181.335938" xlink:href="#DejaVuSans-117"/>
     <use x="244.714844" xlink:href="#DejaVuSans-108"/>
     <use x="272.498047" xlink:href="#DejaVuSans-97"/>
     <use x="333.777344" xlink:href="#DejaVuSans-116"/>
     <use x="372.986328" xlink:href="#DejaVuSans-105"/>
     <use x="400.769531" xlink:href="#DejaVuSans-111"/>
     <use x="461.951172" xlink:href="#DejaVuSans-110"/>
     <use x="525.330078" xlink:href="#DejaVuSans-39"/>
     <use x="552.820312" xlink:href="#DejaVuSans-115"/>
     <use x="604.919922" xlink:href="#DejaVuSans-32"/>
     <use x="636.707031" xlink:href="#DejaVuSans-97"/>
     <use x="697.986328" xlink:href="#DejaVuSans-118"/>
     <use x="757.166016" xlink:href="#DejaVuSans-101"/>
     <use x="818.689453" xlink:href="#DejaVuSans-114"/>
     <use x="859.802734" xlink:href="#DejaVuSans-97"/>
     <use x="921.082031" xlink:href="#DejaVuSans-103"/>
     <use x="984.558594" xlink:href="#DejaVuSans-101"/>
     <use x="1046.082031" xlink:href="#DejaVuSans-32"/>
     <use x="1077.869141" xlink:href="#DejaVuSans-97"/>
     <use x="1139.148438" xlink:href="#DejaVuSans-110"/>
     <use x="1202.527344" xlink:href="#DejaVuSans-100"/>
     <use x="1266.003906" xlink:href="#DejaVuSans-32"/>
     <use x="1297.791016" xlink:href="#DejaVuSans-98"/>
     <use x="1361.267578" xlink:href="#DejaVuSans-101"/>
     <use x="1422.791016" xlink:href="#DejaVuSans-115"/>
     <use x="1474.890625" xlink:href="#DejaVuSans-116"/>
     <use x="1514.099609" xlink:href="#DejaVuSans-32"/>
     <use x="1545.886719" xlink:href="#DejaVuSans-102"/>
     <use x="1581.091797" xlink:href="#DejaVuSans-105"/>
     <use x="1608.875" xlink:href="#DejaVuSans-116"/>
     <use x="1648.083984" xlink:href="#DejaVuSans-110"/>
     <use x="1711.462891" xlink:href="#DejaVuSans-101"/>
     <use x="1772.986328" xlink:href="#DejaVuSans-115"/>
     <use x="1825.085938" xlink:href="#DejaVuSans-115"/>
    </g>
   </g>
   <g id="legend_1">
    <g id="patch_7">
     <path d="M 64.6 108.1845 
L 137.540625 108.1845 
Q 139.540625 108.1845 139.540625 106.1845 
L 139.540625 48.472 
Q 139.540625 46.472 137.540625 46.472 
L 64.6 46.472 
Q 62.6 46.472 62.6 48.472 
L 62.6 106.1845 
Q 62.6 108.1845 64.6 108.1845 
z
" style="fill:#ffffff;opacity:0.8;stroke:#cccccc;stroke-linejoin:miter;"/>
    </g>
    <g id="line2d_39">
     <path d="M 66.6 54.570438 
L 86.6 54.570438 
" style="fill:none;stroke:#0000ff;stroke-linecap:square;stroke-width:1.5;"/>
    </g>
    <g id="line2d_40"/>
    <g id="text_21">
     <!-- average -->
     <g transform="translate(94.6 58.070438)scale(0.1 -0.1)">
      <use xlink:href="#DejaVuSans-97"/>
      <use x="61.279297" xlink:href="#DejaVuSans-118"/>
      <use x="120.458984" xlink:href="#DejaVuSans-101"/>
      <use x="181.982422" xlink:href="#DejaVuSans-114"/>
      <use x="223.095703" xlink:href="#DejaVuSans-97"/>
      <use x="284.375" xlink:href="#DejaVuSans-103"/>
      <use x="347.851562" xlink:href="#DejaVuSans-101"/>
     </g>
    </g>
    <g id="line2d_41">
     <path d="M 66.6 69.248563 
L 86.6 69.248563 
" style="fill:none;stroke:#008000;stroke-dasharray:9.6,2.4,1.5,2.4;stroke-dashoffset:0;stroke-width:1.5;"/>
    </g>
    <g id="line2d_42"/>
    <g id="text_22">
     <!-- -1 sd -->
     <g transform="translate(94.6 72.748563)scale(0.1 -0.1)">
      <defs>
       <path d="M 4.890625 31.390625 
L 31.203125 31.390625 
L 31.203125 23.390625 
L 4.890625 23.390625 
z
" id="DejaVuSans-45"/>
      </defs>
      <use xlink:href="#DejaVuSans-45"/>
      <use x="36.083984" xlink:href="#DejaVuSans-49"/>
      <use x="99.707031" xlink:href="#DejaVuSans-32"/>
      <use x="131.494141" xlink:href="#DejaVuSans-115"/>
      <use x="183.59375" xlink:href="#DejaVuSans-100"/>
     </g>
    </g>
    <g id="line2d_43">
     <path d="M 66.6 83.926688 
L 86.6 83.926688 
" style="fill:none;stroke:#008000;stroke-dasharray:9.6,2.4,1.5,2.4;stroke-dashoffset:0;stroke-width:1.5;"/>
    </g>
    <g id="line2d_44"/>
    <g id="text_23">
     <!-- +1 sd -->
     <g transform="translate(94.6 87.426688)scale(0.1 -0.1)">
      <defs>
       <path d="M 46 62.703125 
L 46 35.5 
L 73.1875 35.5 
L 73.1875 27.203125 
L 46 27.203125 
L 46 0 
L 37.796875 0 
L 37.796875 27.203125 
L 10.59375 27.203125 
L 10.59375 35.5 
L 37.796875 35.5 
L 37.796875 62.703125 
z
" id="DejaVuSans-43"/>
      </defs>
      <use xlink:href="#DejaVuSans-43"/>
      <use x="83.789062" xlink:href="#DejaVuSans-49"/>
      <use x="147.412109" xlink:href="#DejaVuSans-32"/>
      <use x="179.199219" xlink:href="#DejaVuSans-115"/>
      <use x="231.298828" xlink:href="#DejaVuSans-100"/>
     </g>
    </g>
    <g id="line2d_45">
     <path d="M 66.6 98.604813 
L 86.6 98.604813 
" style="fill:none;stroke:#ff0000;stroke-linecap:square;stroke-width:1.5;"/>
    </g>
    <g id="line2d_46"/>
    <g id="text_24">
     <!-- best -->
     <g transform="translate(94.6 102.104813)scale(0.1 -0.1)">
      <use xlink:href="#DejaVuSans-98"/>
      <use x="63.476562" xlink:href="#DejaVuSans-101"/>
      <use x="125" xlink:href="#DejaVuSans-115"/>
      <use x="177.099609" xlink:href="#DejaVuSans-116"/>
     </g>
    </g>
   </g>
  </g>
 </g>
 <defs>
  <clipPath id="pdc1d28b5cd">
   <rect height="266.112" width="357.12" x="57.6" y="41.472"/>
  </clipPath>
 </defs>
</svg>
