<?xml version="1.0" encoding="UTF-8" standalone="no"?>
<!DOCTYPE svg PUBLIC "-//W3C//DTD SVG 1.1//EN"
 "http://www.w3.org/Graphics/SVG/1.1/DTD/svg11.dtd">
<!-- Generated by graphviz version 2.38.0 (20140413.2041)
 -->
<!-- Title: %3 Pages: 1 -->
<svg width="179pt" height="170pt"
 viewBox="0.00 0.00 179.15 170.06" xmlns="http://www.w3.org/2000/svg" xmlns:xlink="http://www.w3.org/1999/xlink">
<g id="graph0" class="graph" transform="scale(1 1) rotate(0) translate(87.6532 82.4058)">
<title>%3</title>
<polygon fill="white" stroke="none" points="-87.6532,87.6512 -87.6532,-82.4058 91.5,-82.4058 91.5,87.6512 -87.6532,87.6512"/>
<!-- &#45;1 -->
<g id="node1" class="node"><title>&#45;1</title>
<polygon fill="lightgray" stroke="black" points="-60.6532,39.5767 -83.6532,39.5767 -83.6532,57.5767 -60.6532,57.5767 -60.6532,39.5767"/>
<text text-anchor="middle" x="-72.1532" y="50.7767" font-family="Times New Roman,serif" font-size="9.00">H</text>
</g>
<!-- 0 -->
<g id="node5" class="node"><title>0</title>
<ellipse fill="lightblue" stroke="black" cx="-1.50782" cy="13.8105" rx="14.7314" ry="14.7314"/>
<ellipse fill="none" stroke="black" cx="-1.50782" cy="13.8105" rx="18.6997" ry="18.6997"/>
<text text-anchor="middle" x="-1.50782" y="16.0105" font-family="Times New Roman,serif" font-size="9.00">0</text>
</g>
<!-- &#45;1&#45;&gt;0 -->
<g id="edge1" class="edge"><title>&#45;1&#45;&gt;0</title>
<path fill="none" stroke="red" stroke-width="0.321344" stroke-dasharray="1,5" d="M-60.4875,42.8357C-51.5473,38.4361 -38.8651,32.1949 -27.5503,26.6266"/>
<polygon fill="red" stroke="red" stroke-width="0.321344" points="-28.9975,23.4379 -18.4797,22.1627 -25.9066,29.7186 -28.9975,23.4379"/>
<text text-anchor="middle" x="-52.0189" y="32.7312" font-family="Times New Roman,serif" font-size="5.00">&#45;1.107</text>
</g>
<!-- &#45;2 -->
<g id="node2" class="node"><title>&#45;2</title>
<polygon fill="lightgray" stroke="black" points="-8.86676,-69.4524 -31.8668,-69.4524 -31.8668,-51.4524 -8.86676,-51.4524 -8.86676,-69.4524"/>
<text text-anchor="middle" x="-20.3668" y="-58.2524" font-family="Times New Roman,serif" font-size="9.00">T</text>
</g>
<!-- &#45;2&#45;&gt;0 -->
<g id="edge2" class="edge"><title>&#45;2&#45;&gt;0</title>
<path fill="none" stroke="green" stroke-width="0.734375" d="M-18.0543,-51.3463C-15.726,-42.1779 -12.0137,-27.5595 -8.69479,-14.4904"/>
<polygon fill="green" stroke="green" stroke-width="0.734375" points="-5.22054,-15.029 -6.15143,-4.47519 -12.0052,-13.306 -5.22054,-15.029"/>
<text text-anchor="middle" x="-20.3745" y="-34.9184" font-family="Times New Roman,serif" font-size="5.00">3.172</text>
</g>
<!-- 3715 -->
<g id="node6" class="node"><title>3715</title>
<ellipse fill="white" stroke="black" cx="45.6543" cy="-46.586" rx="31.6406" ry="31.6406"/>
<text text-anchor="middle" x="45.6543" y="-44.386" font-family="Times New Roman,serif" font-size="9.00">identity</text>
</g>
<!-- &#45;2&#45;&gt;3715 -->
<g id="edge4" class="edge"><title>&#45;2&#45;&gt;3715</title>
<path fill="none" stroke="red" stroke-width="0.212288" stroke-dasharray="1,5" d="M-8.56352,-57.9733C-4.73168,-57.1685 -0.238701,-56.2249 4.49259,-55.2312"/>
<polygon fill="red" stroke="red" stroke-width="0.212288" points="5.3364,-58.6304 14.4034,-53.1496 3.89753,-51.7799 5.3364,-58.6304"/>
<text text-anchor="middle" x="5.96453" y="-58.6023" font-family="Times New Roman,serif" font-size="5.00">&#45;0.561</text>
</g>
<!-- &#45;3 -->
<g id="node3" class="node"><title>&#45;3</title>
<polygon fill="lightgray" stroke="black" points="87.5,24 56.5,24 56.5,42 87.5,42 87.5,24"/>
<text text-anchor="middle" x="72" y="35.2" font-family="Times New Roman,serif" font-size="9.00">ME</text>
</g>
<!-- &#45;4 -->
<g id="node4" class="node"><title>&#45;4</title>
<polygon fill="lightgray" stroke="black" points="59.8735,65.6512 36.8735,65.6512 36.8735,83.6512 59.8735,83.6512 59.8735,65.6512"/>
<text text-anchor="middle" x="48.3735" y="76.8512" font-family="Times New Roman,serif" font-size="9.00">R</text>
</g>
<!-- &#45;4&#45;&gt;0 -->
<g id="edge3" class="edge"><title>&#45;4&#45;&gt;0</title>
<path fill="none" stroke="red" stroke-width="0.282682" stroke-dasharray="1,5" d="M40.7976,65.4108C34.5802,57.8275 25.5047,46.758 17.3523,36.8144"/>
<polygon fill="red" stroke="red" stroke-width="0.282682" points="14.438,38.7801 10.8044,28.8278 19.8512,34.3419 14.438,38.7801"/>
<text text-anchor="middle" x="21.0749" y="49.1126" font-family="Times New Roman,serif" font-size="5.00">&#45;0.913</text>
</g>
<!-- 3715&#45;&gt;0 -->
<g id="edge5" class="edge"><title>3715&#45;&gt;0</title>
<path fill="none" stroke="green" stroke-width="0.210103" d="M25.9266,-21.3224C22.8329,-17.3606 19.6483,-13.2824 16.5936,-9.37044"/>
<polygon fill="green" stroke="green" stroke-width="0.210103" points="19.1127,-6.90962 10.1995,-1.18205 13.5955,-11.2179 19.1127,-6.90962"/>
<text text-anchor="middle" x="14.2601" y="-11.3464" font-family="Times New Roman,serif" font-size="5.00">0.551</text>
</g>
</g>
</svg>
