<?xml version="1.0" encoding="UTF-8" standalone="no"?>
<!DOCTYPE svg PUBLIC "-//W3C//DTD SVG 1.1//EN"
 "http://www.w3.org/Graphics/SVG/1.1/DTD/svg11.dtd">
<!-- Generated by graphviz version 2.47.1 (20210417.1919)
 -->
<!-- Pages: 1 -->
<svg width="182pt" height="191pt"
 viewBox="0.00 0.00 181.80 191.00" xmlns="http://www.w3.org/2000/svg" xmlns:xlink="http://www.w3.org/1999/xlink">
<g id="graph0" class="graph" transform="scale(1 1) rotate(0) translate(4 187)">
<polygon fill="white" stroke="transparent" points="-4,4 -4,-187 177.8,-187 177.8,4 -4,4"/>
<!-- &#45;1 -->
<g id="node1" class="node">
<title>&#45;1</title>
<polygon fill="lightgray" stroke="black" points="23.75,-123.62 -0.25,-123.62 -0.25,-105.02 23.75,-105.02 23.75,-123.62"/>
<text text-anchor="middle" x="11.75" y="-111.62" font-family="Times,serif" font-size="9.00">&#45;1</text>
</g>
<!-- 0 -->
<g id="node5" class="node">
<title>0</title>
<ellipse fill="lightblue" stroke="black" cx="85.76" cy="-87.63" rx="14.49" ry="14.49"/>
<ellipse fill="none" stroke="black" cx="85.76" cy="-87.63" rx="18.49" ry="18.49"/>
<text text-anchor="middle" x="85.76" y="-84.93" font-family="Times,serif" font-size="9.00">0</text>
</g>
<!-- &#45;1&#45;&gt;0 -->
<g id="edge1" class="edge">
<title>&#45;1&#45;&gt;0</title>
<path fill="none" stroke="red" stroke-width="0.32" stroke-dasharray="1,5" d="M23.64,-110.03C33.03,-106.65 46.49,-101.79 58.49,-97.46"/>
<polygon fill="red" stroke="red" stroke-width="0.32" points="59.88,-100.68 68.1,-94 57.51,-94.1 59.88,-100.68"/>
<text text-anchor="middle" x="34.61" y="-105.25" font-family="Times,serif" font-size="5.00">&#45;1.107</text>
</g>
<!-- &#45;2 -->
<g id="node2" class="node">
<title>&#45;2</title>
<polygon fill="lightgray" stroke="black" points="174.06,-103.92 150.05,-103.92 150.05,-85.31 174.06,-85.31 174.06,-103.92"/>
<text text-anchor="middle" x="162.06" y="-91.92" font-family="Times,serif" font-size="9.00">&#45;2</text>
</g>
<!-- &#45;2&#45;&gt;0 -->
<g id="edge2" class="edge">
<title>&#45;2&#45;&gt;0</title>
<path fill="none" stroke="green" stroke-width="0.73" d="M150.13,-93.52C140.67,-92.66 127.03,-91.41 114.74,-90.28"/>
<polygon fill="green" stroke="green" stroke-width="0.73" points="114.7,-86.77 104.43,-89.34 114.07,-93.74 114.7,-86.77"/>
<text text-anchor="middle" x="126.81" y="-93.4" font-family="Times,serif" font-size="5.00">3.172</text>
</g>
<!-- 3715 -->
<g id="node6" class="node">
<title>3715</title>
<ellipse fill="white" stroke="black" cx="126.98" cy="-152.24" rx="30.52" ry="30.52"/>
<text text-anchor="middle" x="126.98" y="-149.54" font-family="Times,serif" font-size="9.00">identity</text>
</g>
<!-- &#45;2&#45;&gt;3715 -->
<g id="edge4" class="edge">
<title>&#45;2&#45;&gt;3715</title>
<path fill="none" stroke="red" stroke-width="0.21" stroke-dasharray="1,5" d="M156.26,-104.13C154.03,-107.81 151.32,-112.26 148.46,-116.95"/>
<polygon fill="red" stroke="red" stroke-width="0.21" points="145.44,-115.19 143.23,-125.55 151.42,-118.83 145.44,-115.19"/>
<text text-anchor="middle" x="145.91" y="-112.04" font-family="Times,serif" font-size="5.00">&#45;0.561</text>
</g>
<!-- &#45;3 -->
<g id="node3" class="node">
<title>&#45;3</title>
<polygon fill="lightgray" stroke="black" points="158.75,-63.7 134.75,-63.7 134.75,-45.1 158.75,-45.1 158.75,-63.7"/>
<text text-anchor="middle" x="146.75" y="-51.7" font-family="Times,serif" font-size="9.00">&#45;3</text>
</g>
<!-- &#45;4 -->
<g id="node4" class="node">
<title>&#45;4</title>
<polygon fill="lightgray" stroke="black" points="88.79,-18.7 64.78,-18.7 64.78,-0.1 88.79,-0.1 88.79,-18.7"/>
<text text-anchor="middle" x="76.78" y="-6.7" font-family="Times,serif" font-size="9.00">&#45;4</text>
</g>
<!-- &#45;4&#45;&gt;0 -->
<g id="edge3" class="edge">
<title>&#45;4&#45;&gt;0</title>
<path fill="none" stroke="red" stroke-width="0.28" stroke-dasharray="1,5" d="M77.88,-18.99C79.02,-28.88 80.84,-44.77 82.45,-58.78"/>
<polygon fill="red" stroke="red" stroke-width="0.28" points="79.01,-59.46 83.62,-68.99 85.96,-58.66 79.01,-59.46"/>
<text text-anchor="middle" x="73.71" y="-40.39" font-family="Times,serif" font-size="5.00">&#45;0.913</text>
</g>
<!-- 3715&#45;&gt;0 -->
<g id="edge5" class="edge">
<title>3715&#45;&gt;0</title>
<path fill="none" stroke="green" stroke-width="0.21" d="M110.22,-125.96C107.23,-121.28 104.13,-116.42 101.18,-111.8"/>
<polygon fill="green" stroke="green" stroke-width="0.21" points="104.1,-109.86 95.77,-103.31 98.2,-113.63 104.1,-109.86"/>
<text text-anchor="middle" x="100.08" y="-114.38" font-family="Times,serif" font-size="5.00">0.551</text>
</g>
</g>
</svg>
