<?xml version="1.0" encoding="UTF-8" standalone="no"?>
<!DOCTYPE svg PUBLIC "-//W3C//DTD SVG 1.1//EN"
 "http://www.w3.org/Graphics/SVG/1.1/DTD/svg11.dtd">
<!-- Generated by graphviz version 2.47.1 (20210417.1919)
 -->
<!-- Pages: 1 -->
<svg width="187pt" height="166pt"
 viewBox="0.00 0.00 186.79 165.67" xmlns="http://www.w3.org/2000/svg" xmlns:xlink="http://www.w3.org/1999/xlink">
<g id="graph0" class="graph" transform="scale(1 1) rotate(0) translate(4 161.67)">
<polygon fill="white" stroke="transparent" points="-4,4 -4,-161.67 182.79,-161.67 182.79,4 -4,4"/>
<!-- &#45;1 -->
<g id="node1" class="node">
<title>&#45;1</title>
<polygon fill="lightgray" stroke="black" points="23.75,-156.77 -0.25,-156.77 -0.25,-138.17 23.75,-138.17 23.75,-156.77"/>
<text text-anchor="middle" x="11.75" y="-144.77" font-family="Times,serif" font-size="9.00">&#45;1</text>
</g>
<!-- 44326 -->
<g id="node6" class="node">
<title>44326</title>
<ellipse fill="white" stroke="black" cx="82.33" cy="-125.67" rx="30.52" ry="30.52"/>
<text text-anchor="middle" x="82.33" y="-122.97" font-family="Times,serif" font-size="9.00">identity</text>
</g>
<!-- &#45;1&#45;&gt;44326 -->
<g id="edge5" class="edge">
<title>&#45;1&#45;&gt;44326</title>
<path fill="none" stroke="green" stroke-width="0.14" d="M23.72,-143.77C29.24,-142.07 36.13,-139.94 43.23,-137.75"/>
<polygon fill="green" stroke="green" stroke-width="0.14" points="44.41,-141.04 52.93,-134.75 42.35,-134.36 44.41,-141.04"/>
<text text-anchor="middle" x="39.1" y="-142.26" font-family="Times,serif" font-size="5.00">0.212</text>
</g>
<!-- &#45;2 -->
<g id="node2" class="node">
<title>&#45;2</title>
<polygon fill="lightgray" stroke="black" points="163.58,-157.58 139.57,-157.58 139.57,-138.97 163.58,-138.97 163.58,-157.58"/>
<text text-anchor="middle" x="151.57" y="-145.57" font-family="Times,serif" font-size="9.00">&#45;2</text>
</g>
<!-- 0 -->
<g id="node5" class="node">
<title>0</title>
<ellipse fill="lightblue" stroke="black" cx="137.06" cy="-76.89" rx="14.49" ry="14.49"/>
<ellipse fill="none" stroke="black" cx="137.06" cy="-76.89" rx="18.49" ry="18.49"/>
<text text-anchor="middle" x="137.06" y="-74.19" font-family="Times,serif" font-size="9.00">0</text>
</g>
<!-- &#45;2&#45;&gt;0 -->
<g id="edge1" class="edge">
<title>&#45;2&#45;&gt;0</title>
<path fill="none" stroke="green" stroke-width="0.4" d="M149.68,-138.94C147.93,-130.35 145.25,-117.15 142.8,-105.13"/>
<polygon fill="green" stroke="green" stroke-width="0.4" points="146.17,-104.12 140.75,-95.02 139.31,-105.51 146.17,-104.12"/>
<text text-anchor="middle" x="140.62" y="-123.54" font-family="Times,serif" font-size="5.00">1.478</text>
</g>
<!-- &#45;2&#45;&gt;44326 -->
<g id="edge3" class="edge">
<title>&#45;2&#45;&gt;44326</title>
<path fill="none" stroke="green" stroke-width="0.49" d="M139.51,-144.34C134.36,-142.66 128.02,-140.59 121.47,-138.45"/>
<polygon fill="green" stroke="green" stroke-width="0.49" points="122.41,-135.07 111.82,-135.3 120.24,-141.73 122.41,-135.07"/>
<text text-anchor="middle" x="124.87" y="-142.89" font-family="Times,serif" font-size="5.00">1.955</text>
</g>
<!-- &#45;3 -->
<g id="node3" class="node">
<title>&#45;3</title>
<polygon fill="lightgray" stroke="black" points="79.75,-74.7 55.75,-74.7 55.75,-56.1 79.75,-56.1 79.75,-74.7"/>
<text text-anchor="middle" x="67.75" y="-62.7" font-family="Times,serif" font-size="9.00">&#45;3</text>
</g>
<!-- &#45;4 -->
<g id="node4" class="node">
<title>&#45;4</title>
<polygon fill="lightgray" stroke="black" points="179.04,-18.7 155.04,-18.7 155.04,-0.1 179.04,-0.1 179.04,-18.7"/>
<text text-anchor="middle" x="167.04" y="-6.7" font-family="Times,serif" font-size="9.00">&#45;4</text>
</g>
<!-- &#45;4&#45;&gt;0 -->
<g id="edge2" class="edge">
<title>&#45;4&#45;&gt;0</title>
<path fill="none" stroke="green" stroke-width="0.31" stroke-dasharray="1,5" d="M162.87,-18.78C159.24,-26.96 153.79,-39.23 148.83,-50.39"/>
<polygon fill="green" stroke="green" stroke-width="0.31" points="145.52,-49.22 144.66,-59.78 151.92,-52.07 145.52,-49.22"/>
<text text-anchor="middle" x="150.23" y="-36.09" font-family="Times,serif" font-size="5.00">1.036</text>
</g>
<!-- 44326&#45;&gt;0 -->
<g id="edge4" class="edge">
<title>44326&#45;&gt;0</title>
<path fill="none" stroke="red" stroke-width="0.29" d="M105.54,-104.98C108.79,-102.09 112.12,-99.12 115.35,-96.25"/>
<polygon fill="red" stroke="red" stroke-width="0.29" points="117.88,-98.67 123.02,-89.41 113.23,-93.45 117.88,-98.67"/>
<text text-anchor="middle" x="116.9" y="-102.12" font-family="Times,serif" font-size="5.00">&#45;0.965</text>
</g>
</g>
</svg>
