<?xml version="1.0" encoding="UTF-8" standalone="no"?>
<!DOCTYPE svg PUBLIC "-//W3C//DTD SVG 1.1//EN"
 "http://www.w3.org/Graphics/SVG/1.1/DTD/svg11.dtd">
<!-- Generated by graphviz version 2.47.1 (20210417.1919)
 -->
<!-- Pages: 1 -->
<svg width="214pt" height="177pt"
 viewBox="0.00 0.00 214.24 176.80" xmlns="http://www.w3.org/2000/svg" xmlns:xlink="http://www.w3.org/1999/xlink">
<g id="graph0" class="graph" transform="scale(1 1) rotate(0) translate(4 172.8)">
<polygon fill="white" stroke="transparent" points="-4,4 -4,-172.8 210.24,-172.8 210.24,4 -4,4"/>
<!-- &#45;1 -->
<g id="node1" class="node">
<title>&#45;1</title>
<polygon fill="lightgray" stroke="black" points="23.75,-123 -0.25,-123 -0.25,-104.4 23.75,-104.4 23.75,-123"/>
<text text-anchor="middle" x="11.75" y="-111" font-family="Times,serif" font-size="9.00">&#45;1</text>
</g>
<!-- 0 -->
<g id="node5" class="node">
<title>0</title>
<ellipse fill="lightblue" stroke="black" cx="85.15" cy="-87.64" rx="14.49" ry="14.49"/>
<ellipse fill="none" stroke="black" cx="85.15" cy="-87.64" rx="18.49" ry="18.49"/>
<text text-anchor="middle" x="85.15" y="-84.94" font-family="Times,serif" font-size="9.00">0</text>
</g>
<!-- &#45;1&#45;&gt;0 -->
<g id="edge1" class="edge">
<title>&#45;1&#45;&gt;0</title>
<path fill="none" stroke="red" stroke-width="0.33" stroke-dasharray="1,5" d="M23.54,-109.51C32.85,-106.21 46.2,-101.47 58.1,-97.24"/>
<polygon fill="red" stroke="red" stroke-width="0.33" points="59.38,-100.51 67.63,-93.86 57.04,-93.91 59.38,-100.51"/>
<text text-anchor="middle" x="34.36" y="-104.88" font-family="Times,serif" font-size="5.00">&#45;1.135</text>
</g>
<!-- &#45;2 -->
<g id="node2" class="node">
<title>&#45;2</title>
<polygon fill="lightgray" stroke="black" points="186.71,-112.41 162.7,-112.41 162.7,-93.81 186.71,-93.81 186.71,-112.41"/>
<text text-anchor="middle" x="174.7" y="-100.41" font-family="Times,serif" font-size="9.00">&#45;2</text>
</g>
<!-- &#45;2&#45;&gt;0 -->
<g id="edge2" class="edge">
<title>&#45;2&#45;&gt;0</title>
<path fill="none" stroke="green" stroke-width="1.03" d="M162.63,-101.03C150.17,-98.88 130.3,-95.44 113.79,-92.59"/>
<polygon fill="green" stroke="green" stroke-width="1.03" points="114,-89.08 103.55,-90.82 112.81,-95.97 114,-89.08"/>
<text text-anchor="middle" x="143.84" y="-92.31" font-family="Times,serif" font-size="5.00">4.655</text>
</g>
<!-- 4346 -->
<g id="node6" class="node">
<title>4346</title>
<ellipse fill="white" stroke="black" cx="170.42" cy="-43.1" rx="31.67" ry="31.67"/>
<ellipse fill="none" stroke="black" cx="170.42" cy="-43.1" rx="35.65" ry="35.65"/>
<text text-anchor="middle" x="170.42" y="-40.4" font-family="Times,serif" font-size="9.00">sigmoid</text>
</g>
<!-- &#45;2&#45;&gt;4346 -->
<g id="edge6" class="edge">
<title>&#45;2&#45;&gt;4346</title>
<path fill="none" stroke="green" stroke-width="0.3" stroke-dasharray="1,5" d="M174.04,-93.74C173.93,-92.31 173.82,-90.76 173.71,-89.12"/>
<polygon fill="green" stroke="green" stroke-width="0.3" points="177.18,-88.69 172.98,-78.96 170.2,-89.19 177.18,-88.69"/>
<text text-anchor="middle" x="168.25" y="-86.93" font-family="Times,serif" font-size="5.00">1.000</text>
</g>
<!-- 2960 -->
<g id="node7" class="node">
<title>2960</title>
<ellipse fill="white" stroke="black" cx="135.12" cy="-131.81" rx="31.67" ry="31.67"/>
<ellipse fill="none" stroke="black" cx="135.12" cy="-131.81" rx="35.65" ry="35.65"/>
<text text-anchor="middle" x="135.12" y="-129.11" font-family="Times,serif" font-size="9.00">sigmoid</text>
</g>
<!-- &#45;2&#45;&gt;2960 -->
<g id="edge5" class="edge">
<title>&#45;2&#45;&gt;2960</title>
<path fill="none" stroke="red" stroke-width="0.46" d="M162.61,-111.88C162.57,-111.91 162.52,-111.95 162.48,-111.98"/>
<polygon fill="red" stroke="red" stroke-width="0.46" points="168.38,-103.37 162.34,-112.08 172.49,-109.04 168.38,-103.37"/>
<text text-anchor="middle" x="169" y="-113.43" font-family="Times,serif" font-size="5.00">&#45;1.805</text>
</g>
<!-- &#45;3 -->
<g id="node3" class="node">
<title>&#45;3</title>
<polygon fill="lightgray" stroke="black" points="112.2,-18.7 88.2,-18.7 88.2,-0.1 112.2,-0.1 112.2,-18.7"/>
<text text-anchor="middle" x="100.2" y="-6.7" font-family="Times,serif" font-size="9.00">&#45;3</text>
</g>
<!-- &#45;3&#45;&gt;0 -->
<g id="edge3" class="edge">
<title>&#45;3&#45;&gt;0</title>
<path fill="none" stroke="green" stroke-width="0.72" stroke-dasharray="1,5" d="M98.35,-18.99C96.42,-29.04 93.29,-45.3 90.57,-59.48"/>
<polygon fill="green" stroke="green" stroke-width="0.72" points="87.13,-58.83 88.67,-69.31 94,-60.15 87.13,-58.83"/>
<text text-anchor="middle" x="88.84" y="-40.74" font-family="Times,serif" font-size="5.00">3.078</text>
</g>
<!-- &#45;3&#45;&gt;4346 -->
<g id="edge8" class="edge">
<title>&#45;3&#45;&gt;4346</title>
<path fill="none" stroke="red" stroke-width="0.31" d="M112.11,-15.12C116.9,-17.41 122.72,-20.21 128.82,-23.13"/>
<polygon fill="red" stroke="red" stroke-width="0.31" points="127.32,-26.3 137.85,-27.47 130.35,-19.99 127.32,-26.3"/>
<text text-anchor="middle" x="114.01" y="-20.62" font-family="Times,serif" font-size="5.00">&#45;1.047</text>
</g>
<!-- &#45;4 -->
<g id="node4" class="node">
<title>&#45;4</title>
<polygon fill="lightgray" stroke="black" points="68.75,-168.7 44.75,-168.7 44.75,-150.1 68.75,-150.1 68.75,-168.7"/>
<text text-anchor="middle" x="56.75" y="-156.7" font-family="Times,serif" font-size="9.00">&#45;4</text>
</g>
<!-- 4346&#45;&gt;2960 -->
<g id="edge7" class="edge">
<title>4346&#45;&gt;2960</title>
<path fill="none" stroke="green" stroke-width="0.3" stroke-dasharray="1,5" d="M157.18,-76.38C155.57,-80.42 153.91,-84.59 152.26,-88.74"/>
<polygon fill="green" stroke="green" stroke-width="0.3" points="148.88,-87.75 148.44,-98.34 155.39,-90.34 148.88,-87.75"/>
<text text-anchor="middle" x="149.09" y="-84.06" font-family="Times,serif" font-size="5.00">1.014</text>
</g>
<!-- 2960&#45;&gt;0 -->
<g id="edge4" class="edge">
<title>2960&#45;&gt;0</title>
<path fill="none" stroke="green" stroke-width="0.17" d="M108.09,-107.92C107.6,-107.49 107.11,-107.05 106.62,-106.63"/>
<polygon fill="green" stroke="green" stroke-width="0.17" points="108.84,-103.91 99.03,-99.91 104.21,-109.16 108.84,-103.91"/>
<text text-anchor="middle" x="101.73" y="-108.77" font-family="Times,serif" font-size="5.00">0.347</text>
</g>
</g>
</svg>
