<?xml version="1.0" encoding="UTF-8" standalone="no"?>
<!DOCTYPE svg PUBLIC "-//W3C//DTD SVG 1.1//EN"
 "http://www.w3.org/Graphics/SVG/1.1/DTD/svg11.dtd">
<!-- Generated by graphviz version 2.47.1 (20210417.1919)
 -->
<!-- Pages: 1 -->
<svg width="311pt" height="299pt"
 viewBox="0.00 0.00 311.02 298.66" xmlns="http://www.w3.org/2000/svg" xmlns:xlink="http://www.w3.org/1999/xlink">
<g id="graph0" class="graph" transform="scale(1 1) rotate(0) translate(4 294.66)">
<polygon fill="white" stroke="transparent" points="-4,4 -4,-294.66 307.02,-294.66 307.02,4 -4,4"/>
<!-- &#45;1 -->
<g id="node1" class="node">
<title>&#45;1</title>
<polygon fill="lightgray" stroke="black" points="203.3,-19.83 179.3,-19.83 179.3,-1.23 203.3,-1.23 203.3,-19.83"/>
<text text-anchor="middle" x="191.3" y="-7.83" font-family="Times,serif" font-size="9.00">&#45;1</text>
</g>
<!-- 1235 -->
<g id="node12" class="node">
<title>1235</title>
<ellipse fill="white" stroke="black" cx="184.57" cy="-95.23" rx="22.08" ry="22.08"/>
<ellipse fill="none" stroke="black" cx="184.57" cy="-95.23" rx="26.04" ry="26.04"/>
<text text-anchor="middle" x="184.57" y="-92.53" font-family="Times,serif" font-size="9.00">tanh</text>
</g>
<!-- &#45;1&#45;&gt;1235 -->
<g id="edge21" class="edge">
<title>&#45;1&#45;&gt;1235</title>
<path fill="none" stroke="red" stroke-width="0.24" stroke-dasharray="1,5" d="M190.56,-19.91C189.81,-29.34 188.61,-44.47 187.47,-58.71"/>
<polygon fill="red" stroke="red" stroke-width="0.24" points="183.97,-58.58 186.67,-68.82 190.95,-59.13 183.97,-58.58"/>
<text text-anchor="middle" x="182.56" y="-40.81" font-family="Times,serif" font-size="5.00">&#45;0.721</text>
</g>
<!-- &#45;2 -->
<g id="node2" class="node">
<title>&#45;2</title>
<polygon fill="lightgray" stroke="black" points="107.52,-88.98 83.52,-88.98 83.52,-70.38 107.52,-70.38 107.52,-88.98"/>
<text text-anchor="middle" x="95.52" y="-76.98" font-family="Times,serif" font-size="9.00">&#45;2</text>
</g>
<!-- 0 -->
<g id="node5" class="node">
<title>0</title>
<ellipse fill="lightblue" stroke="black" cx="78.98" cy="-175.46" rx="14.49" ry="14.49"/>
<ellipse fill="none" stroke="black" cx="78.98" cy="-175.46" rx="18.49" ry="18.49"/>
<text text-anchor="middle" x="78.98" y="-172.76" font-family="Times,serif" font-size="9.00">0</text>
</g>
<!-- &#45;2&#45;&gt;0 -->
<g id="edge1" class="edge">
<title>&#45;2&#45;&gt;0</title>
<path fill="none" stroke="green" stroke-width="0.67" d="M93.88,-89.22C91.56,-102.61 87.25,-127.57 83.86,-147.2"/>
<polygon fill="green" stroke="green" stroke-width="0.67" points="80.39,-146.72 82.14,-157.17 87.29,-147.91 80.39,-146.72"/>
<text text-anchor="middle" x="83.24" y="-119.71" font-family="Times,serif" font-size="5.00">2.860</text>
</g>
<!-- 4037 -->
<g id="node7" class="node">
<title>4037</title>
<ellipse fill="white" stroke="black" cx="99.31" cy="-119.33" rx="30.52" ry="30.52"/>
<text text-anchor="middle" x="99.31" y="-116.63" font-family="Times,serif" font-size="9.00">identity</text>
</g>
<!-- &#45;2&#45;&gt;4037 -->
<g id="edge8" class="edge">
<title>&#45;2&#45;&gt;4037</title>
<path fill="none" stroke="green" stroke-width="0.39" stroke-dasharray="1,5" d="M96.44,-89.28C96.44,-89.33 96.45,-89.37 96.45,-89.42"/>
<polygon fill="green" stroke="green" stroke-width="0.39" points="92.02,-79.94 96.47,-89.56 98.99,-79.27 92.02,-79.94"/>
<text text-anchor="middle" x="90.82" y="-90.85" font-family="Times,serif" font-size="5.00">1.446</text>
</g>
<!-- 8165 -->
<g id="node8" class="node">
<title>8165</title>
<ellipse fill="white" stroke="black" cx="130.01" cy="-31.82" rx="31.65" ry="31.65"/>
<text text-anchor="middle" x="130.01" y="-29.12" font-family="Times,serif" font-size="9.00">sigmoid</text>
</g>
<!-- &#45;2&#45;&gt;8165 -->
<g id="edge19" class="edge">
<title>&#45;2&#45;&gt;8165</title>
<path fill="none" stroke="green" stroke-width="0.3" d="M102.5,-70C103.39,-68.76 104.35,-67.44 105.34,-66.06"/>
<polygon fill="green" stroke="green" stroke-width="0.3" points="108.33,-67.89 111.34,-57.74 102.65,-63.8 108.33,-67.89"/>
<text text-anchor="middle" x="98.29" y="-63.53" font-family="Times,serif" font-size="5.00">1.000</text>
</g>
<!-- &#45;2&#45;&gt;1235 -->
<g id="edge4" class="edge">
<title>&#45;2&#45;&gt;1235</title>
<path fill="none" stroke="red" stroke-width="0.16" d="M107.53,-81.78C118,-83.61 133.74,-86.36 148.27,-88.89"/>
<polygon fill="red" stroke="red" stroke-width="0.16" points="148.09,-92.42 158.54,-90.69 149.29,-85.52 148.09,-92.42"/>
<text text-anchor="middle" x="121.44" y="-80.84" font-family="Times,serif" font-size="5.00">&#45;0.313</text>
</g>
<!-- &#45;3 -->
<g id="node3" class="node">
<title>&#45;3</title>
<polygon fill="lightgray" stroke="black" points="23.75,-222.71 -0.25,-222.71 -0.25,-204.11 23.75,-204.11 23.75,-222.71"/>
<text text-anchor="middle" x="11.75" y="-210.71" font-family="Times,serif" font-size="9.00">&#45;3</text>
</g>
<!-- &#45;3&#45;&gt;0 -->
<g id="edge2" class="edge">
<title>&#45;3&#45;&gt;0</title>
<path fill="none" stroke="green" stroke-width="0.29" stroke-dasharray="1,5" d="M23.77,-206.62C32.1,-201.92 43.49,-195.49 53.77,-189.69"/>
<polygon fill="green" stroke="green" stroke-width="0.29" points="55.78,-192.57 62.77,-184.61 52.34,-186.48 55.78,-192.57"/>
<text text-anchor="middle" x="33.14" y="-199.66" font-family="Times,serif" font-size="5.00">0.932</text>
</g>
<!-- &#45;4 -->
<g id="node4" class="node">
<title>&#45;4</title>
<polygon fill="lightgray" stroke="black" points="119.75,-258.7 95.75,-258.7 95.75,-240.1 119.75,-240.1 119.75,-258.7"/>
<text text-anchor="middle" x="107.75" y="-246.7" font-family="Times,serif" font-size="9.00">&#45;4</text>
</g>
<!-- 727 -->
<g id="node14" class="node">
<title>727</title>
<ellipse fill="white" stroke="black" cx="167.54" cy="-184.26" rx="22.04" ry="22.04"/>
<text text-anchor="middle" x="167.54" y="-181.56" font-family="Times,serif" font-size="9.00">tanh</text>
</g>
<!-- 0&#45;&gt;727 -->
<g id="edge3" class="edge">
<title>0&#45;&gt;727</title>
<path fill="none" stroke="red" stroke-width="0.21" d="M97.76,-177.33C108.63,-178.41 122.61,-179.8 135.2,-181.05"/>
<polygon fill="red" stroke="red" stroke-width="0.21" points="135.05,-184.55 145.34,-182.05 135.74,-177.58 135.05,-184.55"/>
<text text-anchor="middle" x="110.02" y="-180.69" font-family="Times,serif" font-size="5.00">&#45;0.528</text>
</g>
<!-- 4548 -->
<g id="node6" class="node">
<title>4548</title>
<ellipse fill="white" stroke="black" cx="236.25" cy="-143.31" rx="22.04" ry="22.04"/>
<text text-anchor="middle" x="236.25" y="-140.61" font-family="Times,serif" font-size="9.00">tanh</text>
</g>
<!-- 4548&#45;&gt;727 -->
<g id="edge13" class="edge">
<title>4548&#45;&gt;727</title>
<path fill="none" stroke="red" stroke-width="0.44" d="M217.11,-154.72C210.52,-158.64 203,-163.13 195.84,-167.4"/>
<polygon fill="red" stroke="red" stroke-width="0.44" points="193.85,-164.5 187.06,-172.63 197.44,-170.52 193.85,-164.5"/>
<text text-anchor="middle" x="206.47" y="-156.56" font-family="Times,serif" font-size="5.00">&#45;1.695</text>
</g>
<!-- 4037&#45;&gt;0 -->
<g id="edge11" class="edge">
<title>4037&#45;&gt;0</title>
<path fill="none" stroke="red" stroke-width="0.24" d="M88.79,-148.38C88.75,-148.48 88.72,-148.58 88.68,-148.69"/>
<polygon fill="red" stroke="red" stroke-width="0.24" points="85.5,-147.2 85.38,-157.79 92.08,-149.58 85.5,-147.2"/>
<text text-anchor="middle" x="82.28" y="-150.03" font-family="Times,serif" font-size="5.00">&#45;0.718</text>
</g>
<!-- 7371 -->
<g id="node10" class="node">
<title>7371</title>
<ellipse fill="white" stroke="black" cx="147.97" cy="-139.13" rx="31.65" ry="31.65"/>
<text text-anchor="middle" x="147.97" y="-136.43" font-family="Times,serif" font-size="9.00">sigmoid</text>
</g>
<!-- 4037&#45;&gt;7371 -->
<g id="edge14" class="edge">
<title>4037&#45;&gt;7371</title>
<path fill="none" stroke="green" stroke-width="0.16" d="M127.9,-130.97C127.98,-131 128.06,-131.03 128.15,-131.07"/>
<polygon fill="green" stroke="green" stroke-width="0.16" points="117.81,-130.64 128.39,-131.17 120.45,-124.15 117.81,-130.64"/>
<text text-anchor="middle" x="133.65" y="-132.52" font-family="Times,serif" font-size="5.00">0.308</text>
</g>
<!-- 4037&#45;&gt;1235 -->
<g id="edge9" class="edge">
<title>4037&#45;&gt;1235</title>
<path fill="none" stroke="red" stroke-width="0.29" d="M129.13,-110.9C135.71,-109.04 142.75,-107.06 149.51,-105.14"/>
<polygon fill="red" stroke="red" stroke-width="0.29" points="150.49,-108.51 159.16,-102.42 148.58,-101.77 150.49,-108.51"/>
<text text-anchor="middle" x="145.78" y="-103.52" font-family="Times,serif" font-size="5.00">&#45;0.926</text>
</g>
<!-- 8165&#45;&gt;1235 -->
<g id="edge20" class="edge">
<title>8165&#45;&gt;1235</title>
<path fill="none" stroke="red" stroke-width="0.16" d="M150.95,-56.16C154.16,-59.89 157.5,-63.77 160.77,-67.57"/>
<polygon fill="red" stroke="red" stroke-width="0.16" points="158.14,-69.88 167.32,-75.18 163.45,-65.32 158.14,-69.88"/>
<text text-anchor="middle" x="162.32" y="-63.36" font-family="Times,serif" font-size="5.00">&#45;0.313</text>
</g>
<!-- 8228 -->
<g id="node9" class="node">
<title>8228</title>
<ellipse fill="white" stroke="black" cx="271.2" cy="-81.65" rx="31.65" ry="31.65"/>
<text text-anchor="middle" x="271.2" y="-78.95" font-family="Times,serif" font-size="9.00">sigmoid</text>
</g>
<!-- 8228&#45;&gt;1235 -->
<g id="edge23" class="edge">
<title>8228&#45;&gt;1235</title>
<path fill="none" stroke="green" stroke-width="0.26" d="M239.43,-86.63C233.37,-87.58 226.98,-88.58 220.79,-89.55"/>
<polygon fill="green" stroke="green" stroke-width="0.26" points="219.99,-86.14 210.65,-91.14 221.08,-93.05 219.99,-86.14"/>
<text text-anchor="middle" x="224.49" y="-89.59" font-family="Times,serif" font-size="5.00">0.784</text>
</g>
<!-- 7371&#45;&gt;1235 -->
<g id="edge15" class="edge">
<title>7371&#45;&gt;1235</title>
<path fill="none" stroke="red" stroke-width="0.21" d="M168.41,-114.62C168.48,-114.54 168.54,-114.46 168.61,-114.38"/>
<polygon fill="red" stroke="red" stroke-width="0.21" points="165.09,-124.07 168.8,-114.15 159.71,-119.59 165.09,-124.07"/>
<text text-anchor="middle" x="168.51" y="-110" font-family="Times,serif" font-size="5.00">&#45;0.530</text>
</g>
<!-- 7371&#45;&gt;727 -->
<g id="edge18" class="edge">
<title>7371&#45;&gt;727</title>
<path fill="none" stroke="red" stroke-width="0.37" d="M160.7,-168.48C160.73,-168.54 160.76,-168.61 160.78,-168.68"/>
<polygon fill="red" stroke="red" stroke-width="0.37" points="153.68,-161.1 160.87,-168.88 160.1,-158.31 153.68,-161.1"/>
<text text-anchor="middle" x="167.2" y="-170.08" font-family="Times,serif" font-size="5.00">&#45;1.356</text>
</g>
<!-- 1742 -->
<g id="node11" class="node">
<title>1742</title>
<ellipse fill="white" stroke="black" cx="243.53" cy="-37.45" rx="22.04" ry="22.04"/>
<text text-anchor="middle" x="243.53" y="-34.75" font-family="Times,serif" font-size="9.00">tanh</text>
</g>
<!-- 1742&#45;&gt;8228 -->
<g id="edge22" class="edge">
<title>1742&#45;&gt;8228</title>
<path fill="none" stroke="green" stroke-width="0.3" d="M255.42,-56.45C255.45,-56.5 255.48,-56.55 255.51,-56.59"/>
<polygon fill="green" stroke="green" stroke-width="0.3" points="247.32,-50.11 255.6,-56.73 253.26,-46.4 247.32,-50.11"/>
<text text-anchor="middle" x="249.84" y="-58.02" font-family="Times,serif" font-size="5.00">1.000</text>
</g>
<!-- 1742&#45;&gt;1235 -->
<g id="edge7" class="edge">
<title>1742&#45;&gt;1235</title>
<path fill="none" stroke="green" stroke-width="0.27" d="M227.42,-53.24C222.36,-58.2 216.63,-63.82 211.04,-69.29"/>
<polygon fill="green" stroke="green" stroke-width="0.27" points="208.28,-67.09 203.59,-76.59 213.18,-72.09 208.28,-67.09"/>
<text text-anchor="middle" x="213.61" y="-62.77" font-family="Times,serif" font-size="5.00">0.869</text>
</g>
<!-- 1235&#45;&gt;4548 -->
<g id="edge12" class="edge">
<title>1235&#45;&gt;4548</title>
<path fill="none" stroke="green" stroke-width="0.35" d="M203.82,-113.14C206.62,-115.74 209.54,-118.46 212.42,-121.14"/>
<polygon fill="green" stroke="green" stroke-width="0.35" points="210.17,-123.82 219.87,-128.07 214.93,-118.7 210.17,-123.82"/>
<text text-anchor="middle" x="213.74" y="-112.64" font-family="Times,serif" font-size="5.00">1.247</text>
</g>
<!-- 1300 -->
<g id="node13" class="node">
<title>1300</title>
<ellipse fill="white" stroke="black" cx="222.43" cy="-183.22" rx="35.21" ry="35.21"/>
<ellipse fill="none" stroke="black" cx="222.43" cy="-183.22" rx="39.19" ry="39.19"/>
<text text-anchor="middle" x="222.43" y="-180.52" font-family="Times,serif" font-size="9.00">heaviside</text>
</g>
<!-- 1235&#45;&gt;1300 -->
<g id="edge10" class="edge">
<title>1235&#45;&gt;1300</title>
<path fill="none" stroke="red" stroke-width="0.27" d="M195.12,-119.74C197.5,-125.28 200.11,-131.34 202.73,-137.44"/>
<polygon fill="red" stroke="red" stroke-width="0.27" points="199.68,-139.2 206.85,-147 206.11,-136.43 199.68,-139.2"/>
<text text-anchor="middle" x="192.47" y="-130.09" font-family="Times,serif" font-size="5.00">&#45;0.863</text>
</g>
<!-- 1235&#45;&gt;727 -->
<g id="edge5" class="edge">
<title>1235&#45;&gt;727</title>
<path fill="none" stroke="green" stroke-width="0.13" d="M179.56,-121.46C177.72,-131.06 175.62,-142.02 173.7,-152.07"/>
<polygon fill="green" stroke="green" stroke-width="0.13" points="170.22,-151.65 171.78,-162.12 177.09,-152.96 170.22,-151.65"/>
<text text-anchor="middle" x="182.25" y="-138.27" font-family="Times,serif" font-size="5.00">0.171</text>
</g>
<!-- 1300&#45;&gt;727 -->
<g id="edge6" class="edge">
<title>1300&#45;&gt;727</title>
<path fill="none" stroke="green" stroke-width="0.16" d="M182.83,-183.97C182.76,-183.97 182.7,-183.97 182.63,-183.97"/>
<polygon fill="green" stroke="green" stroke-width="0.16" points="192.36,-180.29 182.43,-183.98 192.49,-187.28 192.36,-180.29"/>
<text text-anchor="middle" x="177.11" y="-185.47" font-family="Times,serif" font-size="5.00">0.297</text>
</g>
<!-- 8029 -->
<g id="node15" class="node">
<title>8029</title>
<ellipse fill="white" stroke="black" cx="203.16" cy="-254.84" rx="31.67" ry="31.67"/>
<ellipse fill="none" stroke="black" cx="203.16" cy="-254.84" rx="35.65" ry="35.65"/>
<text text-anchor="middle" x="203.16" y="-252.14" font-family="Times,serif" font-size="9.00">sigmoid</text>
</g>
<!-- 1300&#45;&gt;8029 -->
<g id="edge16" class="edge">
<title>1300&#45;&gt;8029</title>
<path fill="none" stroke="green" stroke-width="0.3" d="M212.12,-221.55C212.1,-221.61 212.09,-221.68 212.07,-221.75"/>
<polygon fill="green" stroke="green" stroke-width="0.3" points="211.24,-211.38 212.01,-221.94 218,-213.2 211.24,-211.38"/>
<text text-anchor="middle" x="217.72" y="-217.15" font-family="Times,serif" font-size="5.00">1.000</text>
</g>
<!-- 8029&#45;&gt;727 -->
<g id="edge17" class="edge">
<title>8029&#45;&gt;727</title>
<path fill="none" stroke="red" stroke-width="0.29" d="M187.02,-222.85C185.44,-219.72 183.84,-216.54 182.27,-213.44"/>
<polygon fill="red" stroke="red" stroke-width="0.29" points="185.34,-211.76 177.71,-204.41 179.1,-214.92 185.34,-211.76"/>
<text text-anchor="middle" x="178.19" y="-213.64" font-family="Times,serif" font-size="5.00">&#45;0.942</text>
</g>
</g>
</svg>
