<?xml version="1.0" encoding="UTF-8" standalone="no"?>
<!DOCTYPE svg PUBLIC "-//W3C//DTD SVG 1.1//EN"
 "http://www.w3.org/Graphics/SVG/1.1/DTD/svg11.dtd">
<!-- Generated by graphviz version 2.47.1 (20210417.1919)
 -->
<!-- Pages: 1 -->
<svg width="320pt" height="333pt"
 viewBox="0.00 0.00 320.04 333.21" xmlns="http://www.w3.org/2000/svg" xmlns:xlink="http://www.w3.org/1999/xlink">
<g id="graph0" class="graph" transform="scale(1 1) rotate(0) translate(4 329.21)">
<polygon fill="white" stroke="transparent" points="-4,4 -4,-329.21 316.04,-329.21 316.04,4 -4,4"/>
<!-- &#45;1 -->
<g id="node1" class="node">
<title>&#45;1</title>
<polygon fill="lightgray" stroke="black" points="298.75,-218.7 274.75,-218.7 274.75,-200.1 298.75,-200.1 298.75,-218.7"/>
<text text-anchor="middle" x="286.75" y="-206.7" font-family="Times,serif" font-size="9.00">&#45;1</text>
</g>
<!-- &#45;2 -->
<g id="node2" class="node">
<title>&#45;2</title>
<polygon fill="lightgray" stroke="black" points="176.95,-188.35 152.94,-188.35 152.94,-169.75 176.95,-169.75 176.95,-188.35"/>
<text text-anchor="middle" x="164.94" y="-176.35" font-family="Times,serif" font-size="9.00">&#45;2</text>
</g>
<!-- 0 -->
<g id="node5" class="node">
<title>0</title>
<ellipse fill="lightblue" stroke="black" cx="80.17" cy="-163.37" rx="14.49" ry="14.49"/>
<ellipse fill="none" stroke="black" cx="80.17" cy="-163.37" rx="18.49" ry="18.49"/>
<text text-anchor="middle" x="80.17" y="-160.67" font-family="Times,serif" font-size="9.00">0</text>
</g>
<!-- &#45;2&#45;&gt;0 -->
<g id="edge1" class="edge">
<title>&#45;2&#45;&gt;0</title>
<path fill="none" stroke="green" stroke-width="0.7" d="M153.16,-176.87C141.62,-174.74 123.62,-171.41 108.38,-168.59"/>
<polygon fill="green" stroke="green" stroke-width="0.7" points="108.85,-165.12 98.38,-166.74 107.58,-172 108.85,-165.12"/>
<text text-anchor="middle" x="125.14" y="-174.23" font-family="Times,serif" font-size="5.00">3.015</text>
</g>
<!-- 8960 -->
<g id="node6" class="node">
<title>8960</title>
<ellipse fill="white" stroke="black" cx="202.05" cy="-235.86" rx="31.67" ry="31.67"/>
<ellipse fill="none" stroke="black" cx="202.05" cy="-235.86" rx="35.65" ry="35.65"/>
<text text-anchor="middle" x="202.05" y="-233.16" font-family="Times,serif" font-size="9.00">sigmoid</text>
</g>
<!-- &#45;2&#45;&gt;8960 -->
<g id="edge27" class="edge">
<title>&#45;2&#45;&gt;8960</title>
<path fill="none" stroke="green" stroke-width="0.3" d="M171.07,-188.43C172.73,-190.98 174.64,-193.9 176.68,-197.02"/>
<polygon fill="green" stroke="green" stroke-width="0.3" points="173.88,-199.14 182.28,-205.6 179.74,-195.31 173.88,-199.14"/>
<text text-anchor="middle" x="168.25" y="-194.22" font-family="Times,serif" font-size="5.00">1.000</text>
</g>
<!-- 6558 -->
<g id="node7" class="node">
<title>6558</title>
<ellipse fill="white" stroke="black" cx="225.64" cy="-121.65" rx="31.65" ry="31.65"/>
<text text-anchor="middle" x="225.64" y="-118.95" font-family="Times,serif" font-size="9.00">sigmoid</text>
</g>
<!-- &#45;2&#45;&gt;6558 -->
<g id="edge25" class="edge">
<title>&#45;2&#45;&gt;6558</title>
<path fill="none" stroke="green" stroke-width="0.56" stroke-dasharray="1,5" d="M174.97,-169.57C180.46,-164.38 187.59,-157.64 194.76,-150.85"/>
<polygon fill="green" stroke="green" stroke-width="0.56" points="197.62,-152.97 202.48,-143.55 192.81,-147.88 197.62,-152.97"/>
<text text-anchor="middle" x="179.24" y="-161.71" font-family="Times,serif" font-size="5.00">2.294</text>
</g>
<!-- 7990 -->
<g id="node13" class="node">
<title>7990</title>
<ellipse fill="white" stroke="black" cx="74.25" cy="-225.94" rx="31.65" ry="31.65"/>
<text text-anchor="middle" x="74.25" y="-223.24" font-family="Times,serif" font-size="9.00">sigmoid</text>
</g>
<!-- &#45;2&#45;&gt;7990 -->
<g id="edge17" class="edge">
<title>&#45;2&#45;&gt;7990</title>
<path fill="none" stroke="red" stroke-width="0.2" stroke-dasharray="1,5" d="M153.09,-185.18C142.59,-190.61 126.68,-198.83 111.9,-206.47"/>
<polygon fill="red" stroke="red" stroke-width="0.2" points="110.18,-203.43 102.9,-211.13 113.39,-209.64 110.18,-203.43"/>
<text text-anchor="middle" x="132.5" y="-191.33" font-family="Times,serif" font-size="5.00">&#45;0.506</text>
</g>
<!-- 7133 -->
<g id="node15" class="node">
<title>7133</title>
<ellipse fill="white" stroke="black" cx="131.32" cy="-241.14" rx="30.52" ry="30.52"/>
<text text-anchor="middle" x="131.32" y="-238.44" font-family="Times,serif" font-size="9.00">identity</text>
</g>
<!-- &#45;2&#45;&gt;7133 -->
<g id="edge11" class="edge">
<title>&#45;2&#45;&gt;7133</title>
<path fill="none" stroke="green" stroke-width="0.46" stroke-dasharray="1,5" d="M159.84,-188.48C157.37,-193.04 154.23,-198.83 150.95,-204.9"/>
<polygon fill="green" stroke="green" stroke-width="0.46" points="147.77,-203.41 146.09,-213.87 153.93,-206.74 147.77,-203.41"/>
<text text-anchor="middle" x="158.2" y="-192.19" font-family="Times,serif" font-size="5.00">1.817</text>
</g>
<!-- 6494 -->
<g id="node16" class="node">
<title>6494</title>
<ellipse fill="white" stroke="black" cx="119.49" cy="-195.41" rx="30.52" ry="30.52"/>
<text text-anchor="middle" x="119.49" y="-192.71" font-family="Times,serif" font-size="9.00">identity</text>
</g>
<!-- &#45;2&#45;&gt;6494 -->
<g id="edge5" class="edge">
<title>&#45;2&#45;&gt;6494</title>
<path fill="none" stroke="green" stroke-width="0.25" stroke-dasharray="1,5" d="M153,-183.35C152.92,-183.38 152.83,-183.41 152.75,-183.44"/>
<polygon fill="green" stroke="green" stroke-width="0.25" points="156.95,-178.21 148.72,-184.89 159.32,-184.79 156.95,-178.21"/>
<text text-anchor="middle" x="155.69" y="-178.89" font-family="Times,serif" font-size="5.00">0.758</text>
</g>
<!-- &#45;3 -->
<g id="node3" class="node">
<title>&#45;3</title>
<polygon fill="lightgray" stroke="black" points="145.86,-49.79 121.86,-49.79 121.86,-31.19 145.86,-31.19 145.86,-49.79"/>
<text text-anchor="middle" x="133.86" y="-37.79" font-family="Times,serif" font-size="9.00">&#45;3</text>
</g>
<!-- 4454 -->
<g id="node8" class="node">
<title>4454</title>
<ellipse fill="white" stroke="black" cx="83.78" cy="-106.15" rx="22.04" ry="22.04"/>
<text text-anchor="middle" x="83.78" y="-103.45" font-family="Times,serif" font-size="9.00">tanh</text>
</g>
<!-- &#45;3&#45;&gt;4454 -->
<g id="edge6" class="edge">
<title>&#45;3&#45;&gt;4454</title>
<path fill="none" stroke="red" stroke-width="0.3" d="M126.68,-49.89C120.67,-57.79 111.78,-69.44 103.65,-80.1"/>
<polygon fill="red" stroke="red" stroke-width="0.3" points="100.64,-78.27 97.36,-88.34 106.21,-82.52 100.64,-78.27"/>
<text text-anchor="middle" x="108.71" y="-66.5" font-family="Times,serif" font-size="5.00">&#45;1.016</text>
</g>
<!-- 8554 -->
<g id="node10" class="node">
<title>8554</title>
<ellipse fill="white" stroke="black" cx="66.74" cy="-31.82" rx="31.65" ry="31.65"/>
<text text-anchor="middle" x="66.74" y="-29.12" font-family="Times,serif" font-size="9.00">sigmoid</text>
</g>
<!-- &#45;3&#45;&gt;8554 -->
<g id="edge21" class="edge">
<title>&#45;3&#45;&gt;8554</title>
<path fill="none" stroke="green" stroke-width="0.2" stroke-dasharray="1,5" d="M121.86,-38.94C117.96,-38.44 113.4,-37.85 108.58,-37.22"/>
<polygon fill="green" stroke="green" stroke-width="0.2" points="108.87,-33.73 98.51,-35.92 107.98,-40.68 108.87,-33.73"/>
<text text-anchor="middle" x="109.6" y="-39.58" font-family="Times,serif" font-size="5.00">0.504</text>
</g>
<!-- 6779 -->
<g id="node14" class="node">
<title>6779</title>
<ellipse fill="white" stroke="black" cx="211.96" cy="-48.15" rx="30.52" ry="30.52"/>
<text text-anchor="middle" x="211.96" y="-45.45" font-family="Times,serif" font-size="9.00">identity</text>
</g>
<!-- &#45;3&#45;&gt;6779 -->
<g id="edge20" class="edge">
<title>&#45;3&#45;&gt;6779</title>
<path fill="none" stroke="red" stroke-width="0.13" d="M145.72,-41.65C152.61,-42.33 161.75,-43.22 171.03,-44.14"/>
<polygon fill="red" stroke="red" stroke-width="0.13" points="170.76,-47.63 181.06,-45.12 171.45,-40.66 170.76,-47.63"/>
<text text-anchor="middle" x="151.92" y="-44.39" font-family="Times,serif" font-size="5.00">&#45;0.133</text>
</g>
<!-- &#45;4 -->
<g id="node4" class="node">
<title>&#45;4</title>
<polygon fill="lightgray" stroke="black" points="23.75,-135.38 -0.25,-135.38 -0.25,-116.77 23.75,-116.77 23.75,-135.38"/>
<text text-anchor="middle" x="11.75" y="-123.38" font-family="Times,serif" font-size="9.00">&#45;4</text>
</g>
<!-- &#45;4&#45;&gt;0 -->
<g id="edge2" class="edge">
<title>&#45;4&#45;&gt;0</title>
<path fill="none" stroke="green" stroke-width="0.5" stroke-dasharray="1,5" d="M23.67,-132.57C32.25,-137.25 44.16,-143.74 54.83,-149.56"/>
<polygon fill="green" stroke="green" stroke-width="0.5" points="53.32,-152.72 63.77,-154.43 56.67,-146.58 53.32,-152.72"/>
<text text-anchor="middle" x="33.62" y="-142.57" font-family="Times,serif" font-size="5.00">2.019</text>
</g>
<!-- &#45;4&#45;&gt;4454 -->
<g id="edge3" class="edge">
<title>&#45;4&#45;&gt;4454</title>
<path fill="none" stroke="green" stroke-width="0.63" stroke-dasharray="1,5" d="M23.64,-122.78C31.49,-120.61 42.18,-117.66 52.36,-114.84"/>
<polygon fill="green" stroke="green" stroke-width="0.63" points="53.55,-118.14 62.26,-112.1 51.69,-111.39 53.55,-118.14"/>
<text text-anchor="middle" x="32.38" y="-120.31" font-family="Times,serif" font-size="5.00">2.635</text>
</g>
<!-- 0&#45;&gt;4454 -->
<g id="edge4" class="edge">
<title>0&#45;&gt;4454</title>
<path fill="none" stroke="red" stroke-width="0.53" d="M81.35,-144.63C81.47,-142.73 81.6,-140.75 81.72,-138.75"/>
<polygon fill="red" stroke="red" stroke-width="0.53" points="85.22,-138.92 82.36,-128.72 78.23,-138.48 85.22,-138.92"/>
<text text-anchor="middle" x="75.08" y="-137.19" font-family="Times,serif" font-size="5.00">&#45;2.169</text>
</g>
<!-- 8960&#45;&gt;6494 -->
<g id="edge28" class="edge">
<title>8960&#45;&gt;6494</title>
<path fill="none" stroke="red" stroke-width="0.89" d="M169.42,-219.87C165.2,-217.81 160.85,-215.68 156.57,-213.58"/>
<polygon fill="red" stroke="red" stroke-width="0.89" points="157.87,-210.32 147.35,-209.06 154.79,-216.6 157.87,-210.32"/>
<text text-anchor="middle" x="169.45" y="-218.22" font-family="Times,serif" font-size="5.00">&#45;3.957</text>
</g>
<!-- 6919 -->
<g id="node9" class="node">
<title>6919</title>
<ellipse fill="white" stroke="black" cx="285.76" cy="-99.06" rx="22.08" ry="22.08"/>
<ellipse fill="none" stroke="black" cx="285.76" cy="-99.06" rx="26.04" ry="26.04"/>
<text text-anchor="middle" x="285.76" y="-96.36" font-family="Times,serif" font-size="9.00">tanh</text>
</g>
<!-- 6558&#45;&gt;6919 -->
<g id="edge9" class="edge">
<title>6558&#45;&gt;6919</title>
<path fill="none" stroke="green" stroke-width="0.25" d="M255.7,-110.35C255.81,-110.31 255.92,-110.27 256.03,-110.23"/>
<polygon fill="green" stroke="green" stroke-width="0.25" points="252.83,-115.17 260.96,-108.38 250.37,-108.62 252.83,-115.17"/>
<text text-anchor="middle" x="255.87" y="-105.79" font-family="Times,serif" font-size="5.00">0.744</text>
</g>
<!-- 6558&#45;&gt;6779 -->
<g id="edge8" class="edge">
<title>6558&#45;&gt;6779</title>
<path fill="none" stroke="red" stroke-width="0.49" d="M219.76,-90.05C219.67,-89.58 219.58,-89.12 219.5,-88.65"/>
<polygon fill="red" stroke="red" stroke-width="0.49" points="222.93,-87.98 217.66,-78.79 216.05,-89.26 222.93,-87.98"/>
<text text-anchor="middle" x="213.17" y="-84.85" font-family="Times,serif" font-size="5.00">&#45;1.945</text>
</g>
<!-- 4454&#45;&gt;4454 -->
<g id="edge15" class="edge">
<title>4454&#45;&gt;4454</title>
<path fill="none" stroke="red" stroke-width="0.39" d="M105.32,-112.76C115.32,-113.48 124.05,-111.28 124.05,-106.15 124.05,-102.94 120.64,-100.87 115.64,-99.95"/>
<polygon fill="red" stroke="red" stroke-width="0.39" points="115.46,-96.44 105.32,-99.53 115.17,-103.44 115.46,-96.44"/>
<text text-anchor="middle" x="130.51" y="-104.65" font-family="Times,serif" font-size="5.00">&#45;1.464</text>
</g>
<!-- 6919&#45;&gt;6779 -->
<g id="edge10" class="edge">
<title>6919&#45;&gt;6779</title>
<path fill="none" stroke="red" stroke-width="0.2" stroke-dasharray="1,5" d="M267.93,-79.24C262.27,-74.79 255.81,-70.11 249.33,-65.76"/>
<polygon fill="red" stroke="red" stroke-width="0.2" points="250.85,-62.57 240.55,-60.07 247.04,-68.44 250.85,-62.57"/>
<text text-anchor="middle" x="252.17" y="-74" font-family="Times,serif" font-size="5.00">&#45;0.522</text>
</g>
<!-- 8554&#45;&gt;4454 -->
<g id="edge22" class="edge">
<title>8554&#45;&gt;4454</title>
<path fill="none" stroke="green" stroke-width="0.52" d="M73.87,-62.91C74.74,-66.72 75.63,-70.61 76.5,-74.42"/>
<polygon fill="green" stroke="green" stroke-width="0.52" points="73.1,-75.25 78.75,-84.22 79.93,-73.69 73.1,-75.25"/>
<text text-anchor="middle" x="69.56" y="-70.17" font-family="Times,serif" font-size="5.00">2.111</text>
</g>
<!-- 7920 -->
<g id="node11" class="node">
<title>7920</title>
<ellipse fill="white" stroke="black" cx="268.15" cy="-45.98" rx="30.52" ry="30.52"/>
<text text-anchor="middle" x="268.15" y="-43.28" font-family="Times,serif" font-size="9.00">identity</text>
</g>
<!-- 7920&#45;&gt;6558 -->
<g id="edge26" class="edge">
<title>7920&#45;&gt;6558</title>
<path fill="none" stroke="green" stroke-width="0.27" d="M253.04,-72.87C250.84,-76.8 248.53,-80.9 246.24,-84.98"/>
<polygon fill="green" stroke="green" stroke-width="0.27" points="243.12,-83.39 241.28,-93.82 249.22,-86.82 243.12,-83.39"/>
<text text-anchor="middle" x="244.02" y="-80.43" font-family="Times,serif" font-size="5.00">0.870</text>
</g>
<!-- 8628 -->
<g id="node12" class="node">
<title>8628</title>
<ellipse fill="white" stroke="black" cx="95" cy="-289.39" rx="31.67" ry="31.67"/>
<ellipse fill="none" stroke="black" cx="95" cy="-289.39" rx="35.65" ry="35.65"/>
<text text-anchor="middle" x="95" y="-286.69" font-family="Times,serif" font-size="9.00">sigmoid</text>
</g>
<!-- 8628&#45;&gt;6494 -->
<g id="edge24" class="edge">
<title>8628&#45;&gt;6494</title>
<path fill="none" stroke="red" stroke-width="0.44" d="M104.05,-254.66C105.7,-248.35 107.43,-241.72 109.11,-235.27"/>
<polygon fill="red" stroke="red" stroke-width="0.44" points="112.55,-235.92 111.69,-225.36 105.78,-234.15 112.55,-235.92"/>
<text text-anchor="middle" x="113.04" y="-246.47" font-family="Times,serif" font-size="5.00">&#45;1.703</text>
</g>
<!-- 7990&#45;&gt;6494 -->
<g id="edge18" class="edge">
<title>7990&#45;&gt;6494</title>
<path fill="none" stroke="green" stroke-width="0.12" stroke-dasharray="1,5" d="M100.83,-208C100.91,-207.95 100.99,-207.9 101.06,-207.85"/>
<polygon fill="green" stroke="green" stroke-width="0.12" points="94.96,-216.19 101.29,-207.69 91.04,-210.39 94.96,-216.19"/>
<text text-anchor="middle" x="95.32" y="-209.42" font-family="Times,serif" font-size="5.00">0.106</text>
</g>
<!-- 6779&#45;&gt;6919 -->
<g id="edge13" class="edge">
<title>6779&#45;&gt;6919</title>
<path fill="none" stroke="green" stroke-width="0.41" stroke-dasharray="1,5" d="M233.29,-70.68C239.31,-75.25 245.98,-79.93 252.51,-84.17"/>
<polygon fill="green" stroke="green" stroke-width="0.41" points="250.9,-87.3 261.24,-89.63 254.61,-81.36 250.9,-87.3"/>
<text text-anchor="middle" x="237.28" y="-78.92" font-family="Times,serif" font-size="5.00">1.548</text>
</g>
<!-- 6779&#45;&gt;7920 -->
<g id="edge16" class="edge">
<title>6779&#45;&gt;7920</title>
<path fill="none" stroke="red" stroke-width="0.25" d="M243.01,-46.95C243.06,-46.95 243.11,-46.95 243.16,-46.94"/>
<polygon fill="red" stroke="red" stroke-width="0.25" points="233.46,-50.83 243.32,-46.94 233.19,-43.83 233.46,-50.83"/>
<text text-anchor="middle" x="249.55" y="-48.45" font-family="Times,serif" font-size="5.00">&#45;0.736</text>
</g>
<!-- 6779&#45;&gt;6779 -->
<g id="edge14" class="edge">
<title>6779&#45;&gt;6779</title>
<path fill="none" stroke="green" stroke-width="0.36" d="M242.43,-54.9C252.59,-54.9 260.71,-52.65 260.71,-48.15 260.71,-45.34 257.54,-43.4 252.68,-42.35"/>
<polygon fill="green" stroke="green" stroke-width="0.36" points="252.71,-38.84 242.43,-41.4 252.06,-45.81 252.71,-38.84"/>
<text text-anchor="middle" x="266.34" y="-46.65" font-family="Times,serif" font-size="5.00">1.320</text>
</g>
<!-- 7133&#45;&gt;0 -->
<g id="edge12" class="edge">
<title>7133&#45;&gt;0</title>
<path fill="none" stroke="red" stroke-width="0.14" d="M114.29,-215.25C108.36,-206.23 101.74,-196.17 95.92,-187.32"/>
<polygon fill="red" stroke="red" stroke-width="0.14" points="98.84,-185.39 90.42,-178.96 92.99,-189.24 98.84,-185.39"/>
<text text-anchor="middle" x="98.65" y="-202.78" font-family="Times,serif" font-size="5.00">&#45;0.203</text>
</g>
<!-- 7133&#45;&gt;8628 -->
<g id="edge23" class="edge">
<title>7133&#45;&gt;8628</title>
<path fill="none" stroke="green" stroke-width="0.23" d="M112.74,-265.83C112.7,-265.88 112.67,-265.92 112.63,-265.97"/>
<polygon fill="green" stroke="green" stroke-width="0.23" points="115.75,-256.01 112.53,-266.11 121.34,-260.22 115.75,-256.01"/>
<text text-anchor="middle" x="107.06" y="-267.4" font-family="Times,serif" font-size="5.00">0.673</text>
</g>
<!-- 7133&#45;&gt;6494 -->
<g id="edge19" class="edge">
<title>7133&#45;&gt;6494</title>
<path fill="none" stroke="green" stroke-width="0.74" d="M123.56,-211.15C123.55,-211.08 123.53,-211.01 123.51,-210.95"/>
<polygon fill="green" stroke="green" stroke-width="0.74" points="129.36,-219.55 123.46,-210.74 122.58,-221.3 129.36,-219.55"/>
<text text-anchor="middle" x="117.91" y="-212.55" font-family="Times,serif" font-size="5.00">3.215</text>
</g>
<!-- 6494&#45;&gt;4454 -->
<g id="edge7" class="edge">
<title>6494&#45;&gt;4454</title>
<path fill="none" stroke="red" stroke-width="0.28" d="M108,-166.67C104.11,-156.97 99.77,-146.1 95.84,-136.29"/>
<polygon fill="red" stroke="red" stroke-width="0.28" points="99.05,-134.89 92.09,-126.9 92.55,-137.49 99.05,-134.89"/>
<text text-anchor="middle" x="108.38" y="-152.98" font-family="Times,serif" font-size="5.00">&#45;0.898</text>
</g>
</g>
</svg>
