<?xml version="1.0" encoding="UTF-8" standalone="no"?>
<!DOCTYPE svg PUBLIC "-//W3C//DTD SVG 1.1//EN"
 "http://www.w3.org/Graphics/SVG/1.1/DTD/svg11.dtd">
<!-- Generated by graphviz version 2.47.1 (20210417.1919)
 -->
<!-- Pages: 1 -->
<svg width="199pt" height="299pt"
 viewBox="0.00 0.00 199.00 299.33" xmlns="http://www.w3.org/2000/svg" xmlns:xlink="http://www.w3.org/1999/xlink">
<g id="graph0" class="graph" transform="scale(1 1) rotate(0) translate(4 295.33)">
<polygon fill="white" stroke="transparent" points="-4,4 -4,-295.33 195,-295.33 195,4 -4,4"/>
<!-- &#45;1 -->
<g id="node1" class="node">
<title>&#45;1</title>
<polygon fill="lightgray" stroke="black" points="42.75,-246.7 18.75,-246.7 18.75,-228.1 42.75,-228.1 42.75,-246.7"/>
<text text-anchor="middle" x="30.75" y="-234.7" font-family="Times,serif" font-size="9.00">&#45;1</text>
</g>
<!-- &#45;2 -->
<g id="node2" class="node">
<title>&#45;2</title>
<polygon fill="lightgray" stroke="black" points="124.04,-129.83 100.04,-129.83 100.04,-111.23 124.04,-111.23 124.04,-129.83"/>
<text text-anchor="middle" x="112.04" y="-117.83" font-family="Times,serif" font-size="9.00">&#45;2</text>
</g>
<!-- 0 -->
<g id="node5" class="node">
<title>0</title>
<ellipse fill="lightblue" stroke="black" cx="101.21" cy="-196.46" rx="14.49" ry="14.49"/>
<ellipse fill="none" stroke="black" cx="101.21" cy="-196.46" rx="18.49" ry="18.49"/>
<text text-anchor="middle" x="101.21" y="-193.76" font-family="Times,serif" font-size="9.00">0</text>
</g>
<!-- &#45;2&#45;&gt;0 -->
<g id="edge1" class="edge">
<title>&#45;2&#45;&gt;0</title>
<path fill="none" stroke="green" stroke-width="0.52" d="M110.71,-129.84C109.37,-139.28 107.22,-154.36 105.3,-167.79"/>
<polygon fill="green" stroke="green" stroke-width="0.52" points="101.78,-167.67 103.84,-178.07 108.71,-168.66 101.78,-167.67"/>
<text text-anchor="middle" x="102.38" y="-150.31" font-family="Times,serif" font-size="5.00">2.114</text>
</g>
<!-- 5494 -->
<g id="node7" class="node">
<title>5494</title>
<ellipse fill="white" stroke="black" cx="44.46" cy="-143.45" rx="35.19" ry="35.19"/>
<text text-anchor="middle" x="44.46" y="-140.75" font-family="Times,serif" font-size="9.00">heaviside</text>
</g>
<!-- &#45;2&#45;&gt;5494 -->
<g id="edge3" class="edge">
<title>&#45;2&#45;&gt;5494</title>
<path fill="none" stroke="green" stroke-width="0.58" stroke-dasharray="1,5" d="M100.27,-124.52C96.59,-125.77 92.29,-127.23 87.74,-128.77"/>
<polygon fill="green" stroke="green" stroke-width="0.58" points="86.51,-125.49 78.16,-132.02 88.76,-132.12 86.51,-125.49"/>
<text text-anchor="middle" x="88.38" y="-128.15" font-family="Times,serif" font-size="5.00">2.379</text>
</g>
<!-- 5593 -->
<g id="node8" class="node">
<title>5593</title>
<ellipse fill="white" stroke="black" cx="61.66" cy="-66.89" rx="22.04" ry="22.04"/>
<text text-anchor="middle" x="61.66" y="-64.19" font-family="Times,serif" font-size="9.00">tanh</text>
</g>
<!-- &#45;2&#45;&gt;5593 -->
<g id="edge5" class="edge">
<title>&#45;2&#45;&gt;5593</title>
<path fill="none" stroke="green" stroke-width="0.14" stroke-dasharray="1,5" d="M103.27,-111.18C97.97,-105.54 90.95,-98.07 84.19,-90.87"/>
<polygon fill="green" stroke="green" stroke-width="0.14" points="86.45,-88.17 77.05,-83.27 81.35,-92.96 86.45,-88.17"/>
<text text-anchor="middle" x="88.1" y="-102.53" font-family="Times,serif" font-size="5.00">0.219</text>
</g>
<!-- 5916 -->
<g id="node9" class="node">
<title>5916</title>
<ellipse fill="white" stroke="black" cx="135.35" cy="-49.21" rx="31.67" ry="31.67"/>
<ellipse fill="none" stroke="black" cx="135.35" cy="-49.21" rx="35.65" ry="35.65"/>
<text text-anchor="middle" x="135.35" y="-46.51" font-family="Times,serif" font-size="9.00">sigmoid</text>
</g>
<!-- &#45;2&#45;&gt;5916 -->
<g id="edge10" class="edge">
<title>&#45;2&#45;&gt;5916</title>
<path fill="none" stroke="red" stroke-width="0.45" stroke-dasharray="1,5" d="M115.09,-111.2C116.7,-106.27 118.81,-99.82 121.05,-92.95"/>
<polygon fill="red" stroke="red" stroke-width="0.45" points="124.39,-94.01 124.17,-83.42 117.74,-91.83 124.39,-94.01"/>
<text text-anchor="middle" x="111.61" y="-103.58" font-family="Times,serif" font-size="5.00">&#45;1.766</text>
</g>
<!-- 5662 -->
<g id="node10" class="node">
<title>5662</title>
<ellipse fill="white" stroke="black" cx="155.18" cy="-180.77" rx="31.67" ry="31.67"/>
<ellipse fill="none" stroke="black" cx="155.18" cy="-180.77" rx="35.65" ry="35.65"/>
<text text-anchor="middle" x="155.18" y="-178.07" font-family="Times,serif" font-size="9.00">sigmoid</text>
</g>
<!-- &#45;2&#45;&gt;5662 -->
<g id="edge8" class="edge">
<title>&#45;2&#45;&gt;5662</title>
<path fill="none" stroke="green" stroke-width="0.31" d="M118.78,-129.94C121.48,-133.71 124.79,-138.33 128.29,-143.22"/>
<polygon fill="green" stroke="green" stroke-width="0.31" points="125.64,-145.53 134.3,-151.62 131.33,-141.45 125.64,-145.53"/>
<text text-anchor="middle" x="117.91" y="-138.08" font-family="Times,serif" font-size="5.00">1.046</text>
</g>
<!-- &#45;3 -->
<g id="node3" class="node">
<title>&#45;3</title>
<polygon fill="lightgray" stroke="black" points="23.75,-18.7 -0.25,-18.7 -0.25,-0.1 23.75,-0.1 23.75,-18.7"/>
<text text-anchor="middle" x="11.75" y="-6.7" font-family="Times,serif" font-size="9.00">&#45;3</text>
</g>
<!-- &#45;3&#45;&gt;5593 -->
<g id="edge7" class="edge">
<title>&#45;3&#45;&gt;5593</title>
<path fill="none" stroke="green" stroke-width="0.45" d="M19.99,-18.89C25.53,-25.27 33.1,-34 40.27,-42.25"/>
<polygon fill="green" stroke="green" stroke-width="0.45" points="37.75,-44.68 46.95,-49.94 43.03,-40.1 37.75,-44.68"/>
<text text-anchor="middle" x="24.51" y="-32.07" font-family="Times,serif" font-size="5.00">1.729</text>
</g>
<!-- &#45;4 -->
<g id="node4" class="node">
<title>&#45;4</title>
<polygon fill="lightgray" stroke="black" points="190.19,-257.8 166.19,-257.8 166.19,-239.2 190.19,-239.2 190.19,-257.8"/>
<text text-anchor="middle" x="178.19" y="-245.8" font-family="Times,serif" font-size="9.00">&#45;4</text>
</g>
<!-- &#45;4&#45;&gt;0 -->
<g id="edge2" class="edge">
<title>&#45;4&#45;&gt;0</title>
<path fill="none" stroke="green" stroke-width="0.26" stroke-dasharray="1,5" d="M166.16,-240.37C155.2,-232.96 138.69,-221.8 125.06,-212.58"/>
<polygon fill="green" stroke="green" stroke-width="0.26" points="126.85,-209.57 116.6,-206.87 122.93,-215.37 126.85,-209.57"/>
<text text-anchor="middle" x="139.99" y="-227.97" font-family="Times,serif" font-size="5.00">0.788</text>
</g>
<!-- 6590 -->
<g id="node6" class="node">
<title>6590</title>
<ellipse fill="white" stroke="black" cx="100.29" cy="-259.51" rx="31.65" ry="31.65"/>
<text text-anchor="middle" x="100.29" y="-256.81" font-family="Times,serif" font-size="9.00">sigmoid</text>
</g>
<!-- 6590&#45;&gt;0 -->
<g id="edge13" class="edge">
<title>6590&#45;&gt;0</title>
<path fill="none" stroke="red" stroke-width="0.31" stroke-dasharray="1,5" d="M100.76,-227.62C100.77,-226.81 100.78,-226.01 100.79,-225.21"/>
<polygon fill="red" stroke="red" stroke-width="0.31" points="104.29,-225.18 100.94,-215.13 97.29,-225.08 104.29,-225.18"/>
<text text-anchor="middle" x="94.32" y="-221.92" font-family="Times,serif" font-size="5.00">&#45;1.068</text>
</g>
<!-- 5494&#45;&gt;0 -->
<g id="edge4" class="edge">
<title>5494&#45;&gt;0</title>
<path fill="none" stroke="red" stroke-width="0.39" d="M70.51,-167.79C73.7,-170.76 76.92,-173.78 80.03,-176.67"/>
<polygon fill="red" stroke="red" stroke-width="0.39" points="77.7,-179.29 87.4,-183.56 82.48,-174.17 77.7,-179.29"/>
<text text-anchor="middle" x="81.73" y="-167.73" font-family="Times,serif" font-size="5.00">&#45;1.425</text>
</g>
<!-- 5593&#45;&gt;5494 -->
<g id="edge6" class="edge">
<title>5593&#45;&gt;5494</title>
<path fill="none" stroke="green" stroke-width="0.3" stroke-dasharray="1,5" d="M56.78,-88.62C56.05,-91.86 55.28,-95.29 54.49,-98.8"/>
<polygon fill="green" stroke="green" stroke-width="0.3" points="51.03,-98.25 52.25,-108.77 57.86,-99.78 51.03,-98.25"/>
<text text-anchor="middle" x="50.01" y="-95.21" font-family="Times,serif" font-size="5.00">1.015</text>
</g>
<!-- 5916&#45;&gt;5593 -->
<g id="edge11" class="edge">
<title>5916&#45;&gt;5593</title>
<path fill="none" stroke="green" stroke-width="0.44" d="M100.23,-57.63C98.03,-58.16 95.82,-58.69 93.63,-59.22"/>
<polygon fill="green" stroke="green" stroke-width="0.44" points="92.6,-55.87 83.69,-61.6 94.23,-62.67 92.6,-55.87"/>
<text text-anchor="middle" x="91.31" y="-59.93" font-family="Times,serif" font-size="5.00">1.679</text>
</g>
<!-- 5662&#45;&gt;0 -->
<g id="edge9" class="edge">
<title>5662&#45;&gt;0</title>
<path fill="none" stroke="red" stroke-width="0.32" stroke-dasharray="1,5" d="M120.69,-190.8C120.57,-190.83 120.45,-190.87 120.32,-190.91"/>
<polygon fill="red" stroke="red" stroke-width="0.32" points="127.84,-185.07 119.22,-191.23 129.8,-191.8 127.84,-185.07"/>
<text text-anchor="middle" x="114.05" y="-192.35" font-family="Times,serif" font-size="5.00">&#45;1.085</text>
</g>
<!-- 5662&#45;&gt;6590 -->
<g id="edge12" class="edge">
<title>5662&#45;&gt;6590</title>
<path fill="none" stroke="green" stroke-width="0.3" d="M134.43,-210.54C131.16,-215.22 127.77,-220.1 124.44,-224.88"/>
<polygon fill="green" stroke="green" stroke-width="0.3" points="121.4,-223.11 118.55,-233.32 127.14,-227.11 121.4,-223.11"/>
<text text-anchor="middle" x="123.81" y="-219.21" font-family="Times,serif" font-size="5.00">1.000</text>
</g>
</g>
</svg>
