<?xml version="1.0" encoding="UTF-8" standalone="no"?>
<!DOCTYPE svg PUBLIC "-//W3C//DTD SVG 1.1//EN"
 "http://www.w3.org/Graphics/SVG/1.1/DTD/svg11.dtd">
<!-- Generated by graphviz version 2.47.1 (20210417.1919)
 -->
<!-- Pages: 1 -->
<svg width="196pt" height="195pt"
 viewBox="0.00 0.00 195.50 195.04" xmlns="http://www.w3.org/2000/svg" xmlns:xlink="http://www.w3.org/1999/xlink">
<g id="graph0" class="graph" transform="scale(1 1) rotate(0) translate(4 191.04)">
<polygon fill="white" stroke="transparent" points="-4,4 -4,-191.04 191.5,-191.04 191.5,4 -4,4"/>
<!-- &#45;1 -->
<g id="node1" class="node">
<title>&#45;1</title>
<polygon fill="lightgray" stroke="black" points="23.75,-113.61 -0.25,-113.61 -0.25,-95.01 23.75,-95.01 23.75,-113.61"/>
<text text-anchor="middle" x="11.75" y="-101.61" font-family="Times,serif" font-size="9.00">&#45;1</text>
</g>
<!-- 0 -->
<g id="node5" class="node">
<title>0</title>
<ellipse fill="lightblue" stroke="black" cx="94.26" cy="-98.39" rx="14.49" ry="14.49"/>
<ellipse fill="none" stroke="black" cx="94.26" cy="-98.39" rx="18.49" ry="18.49"/>
<text text-anchor="middle" x="94.26" y="-95.69" font-family="Times,serif" font-size="9.00">0</text>
</g>
<!-- &#45;1&#45;&gt;0 -->
<g id="edge1" class="edge">
<title>&#45;1&#45;&gt;0</title>
<path fill="none" stroke="red" stroke-width="0.38" stroke-dasharray="1,5" d="M23.57,-103.46C34.54,-102.68 51.31,-101.47 65.76,-100.43"/>
<polygon fill="red" stroke="red" stroke-width="0.38" points="66.04,-103.92 75.76,-99.71 65.54,-96.94 66.04,-103.92"/>
<text text-anchor="middle" x="38.21" y="-103.45" font-family="Times,serif" font-size="5.00">&#45;1.380</text>
</g>
<!-- &#45;2 -->
<g id="node2" class="node">
<title>&#45;2</title>
<polygon fill="lightgray" stroke="black" points="187.76,-108.82 163.75,-108.82 163.75,-90.22 187.76,-90.22 187.76,-108.82"/>
<text text-anchor="middle" x="175.76" y="-96.82" font-family="Times,serif" font-size="9.00">&#45;2</text>
</g>
<!-- &#45;2&#45;&gt;0 -->
<g id="edge2" class="edge">
<title>&#45;2&#45;&gt;0</title>
<path fill="none" stroke="red" stroke-width="0.19" d="M163.73,-99.35C153.08,-99.21 137.09,-98.98 123.14,-98.79"/>
<polygon fill="red" stroke="red" stroke-width="0.19" points="123.04,-95.29 112.99,-98.65 122.94,-102.29 123.04,-95.29"/>
<text text-anchor="middle" x="136.98" y="-100.57" font-family="Times,serif" font-size="5.00">&#45;0.450</text>
</g>
<!-- 1130 -->
<g id="node6" class="node">
<title>1130</title>
<ellipse fill="white" stroke="black" cx="150.61" cy="-155.21" rx="31.65" ry="31.65"/>
<text text-anchor="middle" x="150.61" y="-152.51" font-family="Times,serif" font-size="9.00">sigmoid</text>
</g>
<!-- &#45;2&#45;&gt;1130 -->
<g id="edge7" class="edge">
<title>&#45;2&#45;&gt;1130</title>
<path fill="none" stroke="green" stroke-width="0.21" d="M171.49,-108.97C170.46,-111.25 169.29,-113.84 168.05,-116.59"/>
<polygon fill="green" stroke="green" stroke-width="0.21" points="164.83,-115.22 163.9,-125.77 171.21,-118.1 164.83,-115.22"/>
<text text-anchor="middle" x="164.15" y="-114.28" font-family="Times,serif" font-size="5.00">0.542</text>
</g>
<!-- &#45;3 -->
<g id="node3" class="node">
<title>&#45;3</title>
<polygon fill="lightgray" stroke="black" points="132.47,-30.59 108.46,-30.59 108.46,-11.99 132.47,-11.99 132.47,-30.59"/>
<text text-anchor="middle" x="120.46" y="-18.59" font-family="Times,serif" font-size="9.00">&#45;3</text>
</g>
<!-- &#45;3&#45;&gt;0 -->
<g id="edge3" class="edge">
<title>&#45;3&#45;&gt;0</title>
<path fill="none" stroke="red" stroke-width="0.18" stroke-dasharray="1,5" d="M117.25,-30.74C113.86,-40.71 108.37,-56.88 103.6,-70.91"/>
<polygon fill="red" stroke="red" stroke-width="0.18" points="100.2,-70.03 100.3,-80.63 106.83,-72.28 100.2,-70.03"/>
<text text-anchor="middle" x="103.97" y="-52.33" font-family="Times,serif" font-size="5.00">&#45;0.408</text>
</g>
<!-- 880 -->
<g id="node7" class="node">
<title>880</title>
<ellipse fill="white" stroke="black" cx="59.53" cy="-26.27" rx="22.08" ry="22.08"/>
<ellipse fill="none" stroke="black" cx="59.53" cy="-26.27" rx="26.04" ry="26.04"/>
<text text-anchor="middle" x="59.53" y="-23.57" font-family="Times,serif" font-size="9.00">tanh</text>
</g>
<!-- &#45;3&#45;&gt;880 -->
<g id="edge5" class="edge">
<title>&#45;3&#45;&gt;880</title>
<path fill="none" stroke="green" stroke-width="0.3" d="M108.72,-22.25C104.96,-22.56 100.58,-22.92 96.01,-23.29"/>
<polygon fill="green" stroke="green" stroke-width="0.3" points="95.56,-19.81 85.88,-24.12 96.13,-26.79 95.56,-19.81"/>
<text text-anchor="middle" x="96.74" y="-24.27" font-family="Times,serif" font-size="5.00">1.000</text>
</g>
<!-- &#45;4 -->
<g id="node4" class="node">
<title>&#45;4</title>
<polygon fill="lightgray" stroke="black" points="73.49,-183.66 49.48,-183.66 49.48,-165.06 73.49,-165.06 73.49,-183.66"/>
<text text-anchor="middle" x="61.48" y="-171.66" font-family="Times,serif" font-size="9.00">&#45;4</text>
</g>
<!-- &#45;4&#45;&gt;0 -->
<g id="edge4" class="edge">
<title>&#45;4&#45;&gt;0</title>
<path fill="none" stroke="green" stroke-width="0.48" stroke-dasharray="1,5" d="M65.5,-165.04C69.81,-155.06 76.84,-138.77 82.87,-124.79"/>
<polygon fill="green" stroke="green" stroke-width="0.48" points="86.09,-126.16 86.84,-115.59 79.66,-123.39 86.09,-126.16"/>
<text text-anchor="middle" x="68.56" y="-146.42" font-family="Times,serif" font-size="5.00">1.890</text>
</g>
<!-- 1130&#45;&gt;0 -->
<g id="edge8" class="edge">
<title>1130&#45;&gt;0</title>
<path fill="none" stroke="green" stroke-width="0.98" d="M128.02,-132.43C123.65,-128.03 119.1,-123.44 114.81,-119.11"/>
<polygon fill="green" stroke="green" stroke-width="0.98" points="116.98,-116.33 107.45,-111.69 112.01,-121.26 116.98,-116.33"/>
<text text-anchor="middle" x="115.79" y="-121.27" font-family="Times,serif" font-size="5.00">4.399</text>
</g>
<!-- 880&#45;&gt;0 -->
<g id="edge6" class="edge">
<title>880&#45;&gt;0</title>
<path fill="none" stroke="red" stroke-width="0.45" stroke-dasharray="1,5" d="M71.1,-50.28C74.46,-57.27 78.15,-64.94 81.58,-72.06"/>
<polygon fill="red" stroke="red" stroke-width="0.45" points="78.55,-73.82 86.04,-81.31 84.85,-70.78 78.55,-73.82"/>
<text text-anchor="middle" x="69.88" y="-62.67" font-family="Times,serif" font-size="5.00">&#45;1.736</text>
</g>
</g>
</svg>
