<?xml version="1.0" encoding="UTF-8" standalone="no"?>
<!DOCTYPE svg PUBLIC "-//W3C//DTD SVG 1.1//EN"
 "http://www.w3.org/Graphics/SVG/1.1/DTD/svg11.dtd">
<!-- Generated by graphviz version 2.47.1 (20210417.1919)
 -->
<!-- Pages: 1 -->
<svg width="293pt" height="262pt"
 viewBox="0.00 0.00 292.75 262.22" xmlns="http://www.w3.org/2000/svg" xmlns:xlink="http://www.w3.org/1999/xlink">
<g id="graph0" class="graph" transform="scale(1 1) rotate(0) translate(4 258.22)">
<polygon fill="white" stroke="transparent" points="-4,4 -4,-258.22 288.75,-258.22 288.75,4 -4,4"/>
<!-- &#45;1 -->
<g id="node1" class="node">
<title>&#45;1</title>
<polygon fill="lightgray" stroke="black" points="23.75,-135.71 -0.25,-135.71 -0.25,-117.11 23.75,-117.11 23.75,-135.71"/>
<text text-anchor="middle" x="11.75" y="-123.71" font-family="Times,serif" font-size="9.00">&#45;1</text>
</g>
<!-- 0 -->
<g id="node5" class="node">
<title>0</title>
<ellipse fill="lightblue" stroke="black" cx="99.81" cy="-138.12" rx="14.49" ry="14.49"/>
<ellipse fill="none" stroke="black" cx="99.81" cy="-138.12" rx="18.49" ry="18.49"/>
<text text-anchor="middle" x="99.81" y="-135.42" font-family="Times,serif" font-size="9.00">0</text>
</g>
<!-- &#45;1&#45;&gt;0 -->
<g id="edge15" class="edge">
<title>&#45;1&#45;&gt;0</title>
<path fill="none" stroke="green" stroke-width="0.28" stroke-dasharray="1,5" d="M23.62,-127.99C35.79,-129.61 55.17,-132.18 71.33,-134.33"/>
<polygon fill="green" stroke="green" stroke-width="0.28" points="71.01,-137.82 81.38,-135.67 71.93,-130.88 71.01,-137.82"/>
<text text-anchor="middle" x="41.02" y="-132.66" font-family="Times,serif" font-size="5.00">&#45;0.896</text>
</g>
<!-- &#45;2 -->
<g id="node2" class="node">
<title>&#45;2</title>
<polygon fill="lightgray" stroke="black" points="183.66,-147.73 159.65,-147.73 159.65,-129.13 183.66,-129.13 183.66,-147.73"/>
<text text-anchor="middle" x="171.65" y="-135.73" font-family="Times,serif" font-size="9.00">&#45;2</text>
</g>
<!-- &#45;2&#45;&gt;0 -->
<g id="edge2" class="edge">
<title>&#45;2&#45;&gt;0</title>
<path fill="none" stroke="green" stroke-width="0.2" stroke-dasharray="1,5" d="M159.79,-138.38C151.27,-138.34 139.42,-138.29 128.49,-138.24"/>
<polygon fill="green" stroke="green" stroke-width="0.2" points="128.46,-134.74 118.44,-138.2 128.43,-141.74 128.46,-134.74"/>
<text text-anchor="middle" x="137.68" y="-139.81" font-family="Times,serif" font-size="5.00">&#45;0.496</text>
</g>
<!-- 22842 -->
<g id="node6" class="node">
<title>22842</title>
<ellipse fill="white" stroke="black" cx="215.07" cy="-207.16" rx="30.55" ry="30.55"/>
<ellipse fill="none" stroke="black" cx="215.07" cy="-207.16" rx="34.52" ry="34.52"/>
<text text-anchor="middle" x="215.07" y="-204.46" font-family="Times,serif" font-size="9.00">identity</text>
</g>
<!-- &#45;2&#45;&gt;22842 -->
<g id="edge19" class="edge">
<title>&#45;2&#45;&gt;22842</title>
<path fill="none" stroke="red" stroke-width="0.19" stroke-dasharray="1,5" d="M177.69,-147.99C181.29,-153.67 186.11,-161.3 191.09,-169.19"/>
<polygon fill="red" stroke="red" stroke-width="0.19" points="188.21,-171.18 196.51,-177.77 194.12,-167.44 188.21,-171.18"/>
<text text-anchor="middle" x="178.76" y="-160.09" font-family="Times,serif" font-size="5.00">0.440</text>
</g>
<!-- 19552 -->
<g id="node7" class="node">
<title>19552</title>
<ellipse fill="white" stroke="black" cx="86" cy="-81.34" rx="22.04" ry="22.04"/>
<text text-anchor="middle" x="86" y="-78.64" font-family="Times,serif" font-size="9.00">tanh</text>
</g>
<!-- &#45;2&#45;&gt;19552 -->
<g id="edge14" class="edge">
<title>&#45;2&#45;&gt;19552</title>
<path fill="none" stroke="red" stroke-width="0.16" stroke-dasharray="1,5" d="M159.74,-130.49C147.83,-122.55 129.09,-110.06 113.48,-99.65"/>
<polygon fill="red" stroke="red" stroke-width="0.16" points="114.98,-96.45 104.72,-93.82 111.1,-102.28 114.98,-96.45"/>
<text text-anchor="middle" x="130.98" y="-116.57" font-family="Times,serif" font-size="5.00">0.296</text>
</g>
<!-- 19552 0 -->
<g id="node8" class="node">
<title>19552 0</title>
<ellipse fill="none" stroke="black" cx="175.55" cy="-73.62" rx="31.99" ry="31.99"/>
<text text-anchor="middle" x="175.55" y="-70.92" font-family="Times,serif" font-size="9.00">19552 0</text>
</g>
<!-- &#45;2&#45;&gt;19552 0 -->
<g id="edge11" class="edge">
<title>&#45;2&#45;&gt;19552 0</title>
<path fill="none" stroke="red" stroke-width="0.16" stroke-dasharray="1,5" d="M172.23,-128.87C172.45,-125.19 172.72,-120.71 173.01,-115.91"/>
<polygon fill="red" stroke="red" stroke-width="0.16" points="176.51,-115.95 173.62,-105.76 169.52,-115.53 176.51,-115.95"/>
<text text-anchor="middle" x="166.99" y="-123.89" font-family="Times,serif" font-size="5.00">0.296</text>
</g>
<!-- 19552 1 -->
<g id="node9" class="node">
<title>19552 1</title>
<ellipse fill="none" stroke="black" cx="117" cy="-85.2" rx="31.99" ry="31.99"/>
<text text-anchor="middle" x="117" y="-82.5" font-family="Times,serif" font-size="9.00">19552 1</text>
</g>
<!-- &#45;2&#45;&gt;19552 1 -->
<g id="edge12" class="edge">
<title>&#45;2&#45;&gt;19552 1</title>
<path fill="none" stroke="red" stroke-width="0.16" stroke-dasharray="1,5" d="M161.88,-128.91C157.84,-124.97 152.91,-120.17 147.81,-115.21"/>
<polygon fill="red" stroke="red" stroke-width="0.16" points="149.92,-112.37 140.31,-107.9 145.03,-117.39 149.92,-112.37"/>
<text text-anchor="middle" x="149.22" y="-123.56" font-family="Times,serif" font-size="5.00">0.296</text>
</g>
<!-- 19552 2 -->
<g id="node10" class="node">
<title>19552 2</title>
<ellipse fill="none" stroke="black" cx="146.96" cy="-70.91" rx="31.99" ry="31.99"/>
<text text-anchor="middle" x="146.96" y="-68.21" font-family="Times,serif" font-size="9.00">19552 2</text>
</g>
<!-- &#45;2&#45;&gt;19552 2 -->
<g id="edge13" class="edge">
<title>&#45;2&#45;&gt;19552 2</title>
<path fill="none" stroke="red" stroke-width="0.16" stroke-dasharray="1,5" d="M168.22,-129.04C166.38,-124.01 163.97,-117.43 161.44,-110.51"/>
<polygon fill="red" stroke="red" stroke-width="0.16" points="164.68,-109.17 157.96,-100.98 158.11,-111.58 164.68,-109.17"/>
<text text-anchor="middle" x="159.21" y="-115.28" font-family="Times,serif" font-size="5.00">0.296</text>
</g>
<!-- 22842 0 -->
<g id="node11" class="node">
<title>22842 0</title>
<ellipse fill="none" stroke="black" cx="252.02" cy="-91.45" rx="31.99" ry="31.99"/>
<text text-anchor="middle" x="252.02" y="-88.75" font-family="Times,serif" font-size="9.00">22842 0</text>
</g>
<!-- &#45;2&#45;&gt;22842 0 -->
<g id="edge16" class="edge">
<title>&#45;2&#45;&gt;22842 0</title>
<path fill="none" stroke="red" stroke-width="0.19" stroke-dasharray="1,5" d="M183.51,-131.5C192,-126.54 203.92,-119.57 215.45,-112.83"/>
<polygon fill="red" stroke="red" stroke-width="0.19" points="217.25,-115.83 224.11,-107.76 213.72,-109.79 217.25,-115.83"/>
<text text-anchor="middle" x="193.85" y="-123.66" font-family="Times,serif" font-size="5.00">0.440</text>
</g>
<!-- 22842 1 -->
<g id="node12" class="node">
<title>22842 1</title>
<ellipse fill="none" stroke="black" cx="156.12" cy="-222.22" rx="31.99" ry="31.99"/>
<text text-anchor="middle" x="156.12" y="-219.52" font-family="Times,serif" font-size="9.00">22842 1</text>
</g>
<!-- &#45;2&#45;&gt;22842 1 -->
<g id="edge17" class="edge">
<title>&#45;2&#45;&gt;22842 1</title>
<path fill="none" stroke="red" stroke-width="0.19" stroke-dasharray="1,5" d="M169.87,-148.04C168.38,-156.1 166.13,-168.21 163.89,-180.31"/>
<polygon fill="red" stroke="red" stroke-width="0.19" points="160.4,-179.92 162.02,-190.39 167.28,-181.2 160.4,-179.92"/>
<text text-anchor="middle" x="161.26" y="-165.68" font-family="Times,serif" font-size="5.00">0.440</text>
</g>
<!-- 22842 2 -->
<g id="node13" class="node">
<title>22842 2</title>
<ellipse fill="none" stroke="black" cx="252.76" cy="-156.06" rx="31.99" ry="31.99"/>
<text text-anchor="middle" x="252.76" y="-153.36" font-family="Times,serif" font-size="9.00">22842 2</text>
</g>
<!-- &#45;2&#45;&gt;22842 2 -->
<g id="edge18" class="edge">
<title>&#45;2&#45;&gt;22842 2</title>
<path fill="none" stroke="red" stroke-width="0.19" stroke-dasharray="1,5" d="M183.62,-141.03C191.17,-142.67 201.4,-144.9 211.68,-147.13"/>
<polygon fill="red" stroke="red" stroke-width="0.19" points="210.95,-150.56 221.46,-149.26 212.44,-143.71 210.95,-150.56"/>
<text text-anchor="middle" x="192.03" y="-145.58" font-family="Times,serif" font-size="5.00">0.440</text>
</g>
<!-- &#45;3 -->
<g id="node3" class="node">
<title>&#45;3</title>
<polygon fill="lightgray" stroke="black" points="133.66,-18.7 109.66,-18.7 109.66,-0.1 133.66,-0.1 133.66,-18.7"/>
<text text-anchor="middle" x="121.66" y="-6.7" font-family="Times,serif" font-size="9.00">&#45;3</text>
</g>
<!-- &#45;3&#45;&gt;19552 -->
<g id="edge6" class="edge">
<title>&#45;3&#45;&gt;19552</title>
<path fill="none" stroke="green" stroke-width="0.1" stroke-dasharray="1,5" d="M117,-18.8C112.8,-27.28 106.39,-40.2 100.49,-52.1"/>
<polygon fill="green" stroke="green" stroke-width="0.1" points="97.23,-50.81 95.92,-61.32 103.5,-53.92 97.23,-50.81"/>
<text text-anchor="middle" x="102.29" y="-36.95" font-family="Times,serif" font-size="5.00">&#45;0.013</text>
</g>
<!-- &#45;3&#45;&gt;19552 0 -->
<g id="edge3" class="edge">
<title>&#45;3&#45;&gt;19552 0</title>
<path fill="none" stroke="green" stroke-width="0.1" stroke-dasharray="1,5" d="M129.61,-18.88C134.63,-24.85 141.43,-32.95 148.26,-41.09"/>
<polygon fill="green" stroke="green" stroke-width="0.1" points="145.65,-43.43 154.76,-48.84 151.01,-38.93 145.65,-43.43"/>
<text text-anchor="middle" x="132.48" y="-31.48" font-family="Times,serif" font-size="5.00">&#45;0.013</text>
</g>
<!-- &#45;3&#45;&gt;19552 1 -->
<g id="edge4" class="edge">
<title>&#45;3&#45;&gt;19552 1</title>
<path fill="none" stroke="green" stroke-width="0.1" stroke-dasharray="1,5" d="M121.07,-19C120.69,-25.25 120.16,-33.89 119.6,-42.87"/>
<polygon fill="green" stroke="green" stroke-width="0.1" points="116.1,-42.84 118.98,-53.03 123.09,-43.27 116.1,-42.84"/>
<text text-anchor="middle" x="113.88" y="-26.43" font-family="Times,serif" font-size="5.00">&#45;0.013</text>
</g>
<!-- &#45;3&#45;&gt;19552 2 -->
<g id="edge5" class="edge">
<title>&#45;3&#45;&gt;19552 2</title>
<path fill="none" stroke="green" stroke-width="0.1" stroke-dasharray="1,5" d="M125.5,-18.74C127.02,-22.43 128.87,-26.93 130.84,-31.73"/>
<polygon fill="green" stroke="green" stroke-width="0.1" points="127.69,-33.26 134.73,-41.18 134.17,-30.6 127.69,-33.26"/>
<text text-anchor="middle" x="134.63" y="-20.73" font-family="Times,serif" font-size="5.00">&#45;0.013</text>
</g>
<!-- &#45;4 -->
<g id="node4" class="node">
<title>&#45;4</title>
<polygon fill="lightgray" stroke="black" points="63.21,-212.77 39.21,-212.77 39.21,-194.17 63.21,-194.17 63.21,-212.77"/>
<text text-anchor="middle" x="51.21" y="-200.77" font-family="Times,serif" font-size="9.00">&#45;4</text>
</g>
<!-- &#45;4&#45;&gt;0 -->
<g id="edge1" class="edge">
<title>&#45;4&#45;&gt;0</title>
<path fill="none" stroke="green" stroke-width="0.34" stroke-dasharray="1,5" d="M58.17,-194.1C64.53,-185.56 74.19,-172.56 82.61,-161.25"/>
<polygon fill="green" stroke="green" stroke-width="0.34" points="85.57,-163.13 88.73,-153.02 79.95,-158.95 85.57,-163.13"/>
<text text-anchor="middle" x="64.77" y="-179.18" font-family="Times,serif" font-size="5.00">1.217</text>
</g>
<!-- 19552&#45;&gt;0 -->
<g id="edge10" class="edge">
<title>19552&#45;&gt;0</title>
<path fill="none" stroke="red" stroke-width="1.12" d="M91.3,-103.13C91.84,-105.37 92.4,-107.66 92.96,-109.95"/>
<polygon fill="red" stroke="red" stroke-width="1.12" points="89.59,-110.91 95.35,-119.8 96.39,-109.26 89.59,-110.91"/>
<text text-anchor="middle" x="85.67" y="-108.04" font-family="Times,serif" font-size="5.00">&#45;5.097</text>
</g>
<!-- 19552 0&#45;&gt;0 -->
<g id="edge7" class="edge">
<title>19552 0&#45;&gt;0</title>
<path fill="none" stroke="red" stroke-width="1.12" d="M151.17,-94.38C141.67,-102.47 130.87,-111.67 121.63,-119.54"/>
<polygon fill="red" stroke="red" stroke-width="1.12" points="119.33,-116.9 113.99,-126.05 123.87,-122.23 119.33,-116.9"/>
<text text-anchor="middle" x="130.77" y="-108.46" font-family="Times,serif" font-size="5.00">5.097</text>
</g>
<!-- 19552 1&#45;&gt;0 -->
<g id="edge8" class="edge">
<title>19552 1&#45;&gt;0</title>
<path fill="none" stroke="red" stroke-width="1.12" d="M107.1,-115.68C107.07,-115.77 107.04,-115.87 107,-115.97"/>
<polygon fill="red" stroke="red" stroke-width="1.12" points="105.36,-109.69 105.6,-120.28 112.02,-111.85 105.36,-109.69"/>
<text text-anchor="middle" x="112.68" y="-117.32" font-family="Times,serif" font-size="5.00">1.699</text>
</g>
<!-- 19552 2&#45;&gt;0 -->
<g id="edge9" class="edge">
<title>19552 2&#45;&gt;0</title>
<path fill="none" stroke="red" stroke-width="1.12" d="M128.32,-97.47C124.34,-103.15 120.15,-109.12 116.26,-114.67"/>
<polygon fill="red" stroke="red" stroke-width="1.12" points="113.32,-112.77 110.44,-122.97 119.05,-116.79 113.32,-112.77"/>
<text text-anchor="middle" x="115.83" y="-107.57" font-family="Times,serif" font-size="5.00">&#45;1.699</text>
</g>
</g>
</svg>
