<?xml version="1.0" encoding="UTF-8" standalone="no"?>
<!DOCTYPE svg PUBLIC "-//W3C//DTD SVG 1.1//EN"
 "http://www.w3.org/Graphics/SVG/1.1/DTD/svg11.dtd">
<!-- Generated by graphviz version 2.47.1 (20210417.1919)
 -->
<!-- Pages: 1 -->
<svg width="214pt" height="213pt"
 viewBox="0.00 0.00 214.44 212.53" xmlns="http://www.w3.org/2000/svg" xmlns:xlink="http://www.w3.org/1999/xlink">
<g id="graph0" class="graph" transform="scale(1 1) rotate(0) translate(4 208.53)">
<polygon fill="white" stroke="transparent" points="-4,4 -4,-208.53 210.44,-208.53 210.44,4 -4,4"/>
<!-- &#45;1 -->
<g id="node1" class="node">
<title>&#45;1</title>
<polygon fill="lightgray" stroke="black" points="23.75,-145.68 -0.25,-145.68 -0.25,-127.08 23.75,-127.08 23.75,-145.68"/>
<text text-anchor="middle" x="11.75" y="-133.68" font-family="Times,serif" font-size="9.00">&#45;1</text>
</g>
<!-- 0 -->
<g id="node5" class="node">
<title>0</title>
<ellipse fill="lightblue" stroke="black" cx="91.51" cy="-109.72" rx="14.49" ry="14.49"/>
<ellipse fill="none" stroke="black" cx="91.51" cy="-109.72" rx="18.49" ry="18.49"/>
<text text-anchor="middle" x="91.51" y="-107.02" font-family="Times,serif" font-size="9.00">0</text>
</g>
<!-- &#45;1&#45;&gt;0 -->
<g id="edge1" class="edge">
<title>&#45;1&#45;&gt;0</title>
<path fill="none" stroke="red" stroke-width="0.43" stroke-dasharray="1,5" d="M23.52,-132.45C34.19,-128.88 50.32,-123.49 64.2,-118.85"/>
<polygon fill="red" stroke="red" stroke-width="0.43" points="65.41,-122.14 73.79,-115.65 63.19,-115.5 65.41,-122.14"/>
<text text-anchor="middle" x="38.23" y="-127.15" font-family="Times,serif" font-size="5.00">1.669</text>
</g>
<!-- &#45;2 -->
<g id="node2" class="node">
<title>&#45;2</title>
<polygon fill="lightgray" stroke="black" points="185.35,-101.92 161.35,-101.92 161.35,-83.32 185.35,-83.32 185.35,-101.92"/>
<text text-anchor="middle" x="173.35" y="-89.92" font-family="Times,serif" font-size="9.00">&#45;2</text>
</g>
<!-- 11765 -->
<g id="node6" class="node">
<title>11765</title>
<ellipse fill="white" stroke="black" cx="134.13" cy="-168.71" rx="31.67" ry="31.67"/>
<ellipse fill="none" stroke="black" cx="134.13" cy="-168.71" rx="35.65" ry="35.65"/>
<text text-anchor="middle" x="134.13" y="-166.01" font-family="Times,serif" font-size="9.00">sigmoid</text>
</g>
<!-- &#45;2&#45;&gt;11765 -->
<g id="edge13" class="edge">
<title>&#45;2&#45;&gt;11765</title>
<path fill="none" stroke="green" stroke-width="0.26" stroke-dasharray="1,5" d="M168.54,-101.95C165.09,-108.64 160.19,-118.15 155.16,-127.9"/>
<polygon fill="green" stroke="green" stroke-width="0.26" points="152.02,-126.36 150.55,-136.86 158.24,-129.57 152.02,-126.36"/>
<text text-anchor="middle" x="155.39" y="-116.43" font-family="Times,serif" font-size="5.00">&#45;0.797</text>
</g>
<!-- 11765 0 -->
<g id="node7" class="node">
<title>11765 0</title>
<ellipse fill="none" stroke="black" cx="87.58" cy="-46.2" rx="31.99" ry="31.99"/>
<text text-anchor="middle" x="87.58" y="-43.5" font-family="Times,serif" font-size="9.00">11765 0</text>
</g>
<!-- &#45;2&#45;&gt;11765 0 -->
<g id="edge9" class="edge">
<title>&#45;2&#45;&gt;11765 0</title>
<path fill="none" stroke="green" stroke-width="0.26" stroke-dasharray="1,5" d="M161.42,-86.17C151.92,-81.03 138.09,-73.54 124.95,-66.42"/>
<polygon fill="green" stroke="green" stroke-width="0.26" points="126.49,-63.28 116.03,-61.6 123.16,-69.43 126.49,-63.28"/>
<text text-anchor="middle" x="136.73" y="-77.8" font-family="Times,serif" font-size="5.00">&#45;0.797</text>
</g>
<!-- 11765 1 -->
<g id="node8" class="node">
<title>11765 1</title>
<ellipse fill="none" stroke="black" cx="174.44" cy="-152.31" rx="31.99" ry="31.99"/>
<text text-anchor="middle" x="174.44" y="-149.61" font-family="Times,serif" font-size="9.00">11765 1</text>
</g>
<!-- &#45;2&#45;&gt;11765 1 -->
<g id="edge10" class="edge">
<title>&#45;2&#45;&gt;11765 1</title>
<path fill="none" stroke="green" stroke-width="0.26" stroke-dasharray="1,5" d="M173.52,-101.95C173.56,-104.4 173.61,-107.2 173.67,-110.2"/>
<polygon fill="green" stroke="green" stroke-width="0.26" points="170.17,-110.35 173.85,-120.28 177.17,-110.22 170.17,-110.35"/>
<text text-anchor="middle" x="167.14" y="-107.57" font-family="Times,serif" font-size="5.00">&#45;0.797</text>
</g>
<!-- 11765 2 -->
<g id="node9" class="node">
<title>11765 2</title>
<ellipse fill="none" stroke="black" cx="125.15" cy="-32" rx="31.99" ry="31.99"/>
<text text-anchor="middle" x="125.15" y="-29.3" font-family="Times,serif" font-size="9.00">11765 2</text>
</g>
<!-- &#45;2&#45;&gt;11765 2 -->
<g id="edge11" class="edge">
<title>&#45;2&#45;&gt;11765 2</title>
<path fill="none" stroke="green" stroke-width="0.26" stroke-dasharray="1,5" d="M165.82,-83.15C161.82,-78.12 156.65,-71.62 151.34,-64.94"/>
<polygon fill="green" stroke="green" stroke-width="0.26" points="154.06,-62.74 145.1,-57.09 148.59,-67.1 154.06,-62.74"/>
<text text-anchor="middle" x="152.12" y="-75.54" font-family="Times,serif" font-size="5.00">&#45;0.797</text>
</g>
<!-- 11765 3 -->
<g id="node10" class="node">
<title>11765 3</title>
<ellipse fill="none" stroke="black" cx="168.56" cy="-45.63" rx="31.99" ry="31.99"/>
<text text-anchor="middle" x="168.56" y="-42.93" font-family="Times,serif" font-size="9.00">11765 3</text>
</g>
<!-- &#45;2&#45;&gt;11765 3 -->
<g id="edge12" class="edge">
<title>&#45;2&#45;&gt;11765 3</title>
<path fill="none" stroke="green" stroke-width="0.26" stroke-dasharray="1,5" d="M172.38,-83.11C172.37,-83.01 172.36,-82.9 172.35,-82.79"/>
<polygon fill="green" stroke="green" stroke-width="0.26" points="176.31,-87.15 171.81,-77.56 169.35,-87.86 176.31,-87.15"/>
<text text-anchor="middle" x="165.91" y="-78.45" font-family="Times,serif" font-size="5.00">&#45;0.797</text>
</g>
<!-- &#45;3 -->
<g id="node3" class="node">
<title>&#45;3</title>
<polygon fill="lightgray" stroke="black" points="25.94,-74.03 1.93,-74.03 1.93,-55.43 25.94,-55.43 25.94,-74.03"/>
<text text-anchor="middle" x="13.93" y="-62.03" font-family="Times,serif" font-size="9.00">&#45;3</text>
</g>
<!-- &#45;3&#45;&gt;0 -->
<g id="edge2" class="edge">
<title>&#45;3&#45;&gt;0</title>
<path fill="none" stroke="red" stroke-width="0.21" stroke-dasharray="1,5" d="M25.72,-71.56C36.46,-77.8 52.7,-87.21 66.35,-95.13"/>
<polygon fill="red" stroke="red" stroke-width="0.21" points="64.88,-98.33 75.29,-100.32 68.4,-92.27 64.88,-98.33"/>
<text text-anchor="middle" x="40.41" y="-84.85" font-family="Times,serif" font-size="5.00">0.545</text>
</g>
<!-- &#45;4 -->
<g id="node4" class="node">
<title>&#45;4</title>
<polygon fill="lightgray" stroke="black" points="70.77,-198.75 46.77,-198.75 46.77,-180.15 70.77,-180.15 70.77,-198.75"/>
<text text-anchor="middle" x="58.77" y="-186.75" font-family="Times,serif" font-size="9.00">&#45;4</text>
</g>
<!-- &#45;4&#45;&gt;0 -->
<g id="edge3" class="edge">
<title>&#45;4&#45;&gt;0</title>
<path fill="none" stroke="green" stroke-width="0.12" stroke-dasharray="1,5" d="M62.65,-179.99C67.04,-169.3 74.39,-151.42 80.57,-136.38"/>
<polygon fill="green" stroke="green" stroke-width="0.12" points="83.85,-137.58 84.42,-127 77.38,-134.92 83.85,-137.58"/>
<text text-anchor="middle" x="65.98" y="-159.68" font-family="Times,serif" font-size="5.00">0.091</text>
</g>
<!-- 11765&#45;&gt;0 -->
<g id="edge8" class="edge">
<title>11765&#45;&gt;0</title>
<path fill="none" stroke="green" stroke-width="0.95" d="M113.07,-139.56C111.57,-137.49 110.07,-135.41 108.6,-133.37"/>
<polygon fill="green" stroke="green" stroke-width="0.95" points="111.1,-130.87 102.41,-124.81 105.43,-134.96 111.1,-130.87"/>
<text text-anchor="middle" x="105.21" y="-131.97" font-family="Times,serif" font-size="5.00">4.252</text>
</g>
<!-- 11765 0&#45;&gt;0 -->
<g id="edge4" class="edge">
<title>11765 0&#45;&gt;0</title>
<path fill="none" stroke="green" stroke-width="0.95" d="M89.57,-78.33C89.63,-79.3 89.69,-80.27 89.75,-81.24"/>
<polygon fill="green" stroke="green" stroke-width="0.95" points="86.26,-81.49 90.37,-91.25 93.25,-81.06 86.26,-81.49"/>
<text text-anchor="middle" x="83.2" y="-81.28" font-family="Times,serif" font-size="5.00">&#45;4.252</text>
</g>
<!-- 11765 1&#45;&gt;0 -->
<g id="edge5" class="edge">
<title>11765 1&#45;&gt;0</title>
<path fill="none" stroke="green" stroke-width="0.95" d="M145.9,-137.66C136.58,-132.87 126.29,-127.59 117.2,-122.92"/>
<polygon fill="green" stroke="green" stroke-width="0.95" points="118.74,-119.77 108.24,-118.31 115.54,-126 118.74,-119.77"/>
<text text-anchor="middle" x="125.09" y="-125.79" font-family="Times,serif" font-size="5.00">&#45;2.126</text>
</g>
<!-- 11765 2&#45;&gt;0 -->
<g id="edge6" class="edge">
<title>11765 2&#45;&gt;0</title>
<path fill="none" stroke="green" stroke-width="0.95" d="M112.43,-61.38C109.38,-68.43 106.14,-75.92 103.14,-82.85"/>
<polygon fill="green" stroke="green" stroke-width="0.95" points="99.74,-81.91 98.98,-92.48 106.16,-84.69 99.74,-81.91"/>
<text text-anchor="middle" x="102.16" y="-73.61" font-family="Times,serif" font-size="5.00">0.000</text>
</g>
<!-- 11765 3&#45;&gt;0 -->
<g id="edge7" class="edge">
<title>11765 3&#45;&gt;0</title>
<path fill="none" stroke="green" stroke-width="0.95" d="M143.76,-66.26C134.09,-74.3 123.11,-83.44 113.71,-91.26"/>
<polygon fill="green" stroke="green" stroke-width="0.95" points="111.38,-88.64 105.93,-97.73 115.86,-94.02 111.38,-88.64"/>
<text text-anchor="middle" x="123.11" y="-80.26" font-family="Times,serif" font-size="5.00">2.126</text>
</g>
</g>
</svg>
