<?xml version="1.0" encoding="UTF-8" standalone="no"?>
<!DOCTYPE svg PUBLIC "-//W3C//DTD SVG 1.1//EN"
 "http://www.w3.org/Graphics/SVG/1.1/DTD/svg11.dtd">
<!-- Generated by graphviz version 2.47.1 (20210417.1919)
 -->
<!-- Pages: 1 -->
<svg width="271pt" height="247pt"
 viewBox="0.00 0.00 271.50 246.80" xmlns="http://www.w3.org/2000/svg" xmlns:xlink="http://www.w3.org/1999/xlink">
<g id="graph0" class="graph" transform="scale(1 1) rotate(0) translate(4 242.8)">
<polygon fill="white" stroke="transparent" points="-4,4 -4,-242.8 267.5,-242.8 267.5,4 -4,4"/>
<!-- &#45;1 -->
<g id="node1" class="node">
<title>&#45;1</title>
<polygon fill="lightgray" stroke="black" points="263.75,-238.7 239.75,-238.7 239.75,-220.1 263.75,-220.1 263.75,-238.7"/>
<text text-anchor="middle" x="251.75" y="-226.7" font-family="Times,serif" font-size="9.00">&#45;1</text>
</g>
<!-- &#45;2 -->
<g id="node2" class="node">
<title>&#45;2</title>
<polygon fill="lightgray" stroke="black" points="23.75,-122.91 -0.25,-122.91 -0.25,-104.31 23.75,-104.31 23.75,-122.91"/>
<text text-anchor="middle" x="11.75" y="-110.91" font-family="Times,serif" font-size="9.00">&#45;2</text>
</g>
<!-- 0 -->
<g id="node5" class="node">
<title>0</title>
<ellipse fill="lightblue" stroke="black" cx="105.44" cy="-110.66" rx="14.49" ry="14.49"/>
<ellipse fill="none" stroke="black" cx="105.44" cy="-110.66" rx="18.49" ry="18.49"/>
<text text-anchor="middle" x="105.44" y="-107.96" font-family="Times,serif" font-size="9.00">0</text>
</g>
<!-- &#45;2&#45;&gt;0 -->
<g id="edge2" class="edge">
<title>&#45;2&#45;&gt;0</title>
<path fill="none" stroke="green" stroke-width="0.52" stroke-dasharray="1,5" d="M23.61,-113.23C36.89,-112.82 58.87,-112.12 76.71,-111.56"/>
<polygon fill="green" stroke="green" stroke-width="0.52" points="77.01,-115.05 86.9,-111.24 76.79,-108.06 77.01,-115.05"/>
<text text-anchor="middle" x="44.53" y="-113.9" font-family="Times,serif" font-size="5.00">2.094</text>
</g>
<!-- 23766 -->
<g id="node10" class="node">
<title>23766</title>
<ellipse fill="white" stroke="black" cx="25.25" cy="-63.19" rx="22.04" ry="22.04"/>
<text text-anchor="middle" x="25.25" y="-60.49" font-family="Times,serif" font-size="9.00">tanh</text>
</g>
<!-- &#45;2&#45;&gt;23766 -->
<g id="edge6" class="edge">
<title>&#45;2&#45;&gt;23766</title>
<path fill="none" stroke="green" stroke-width="0.38" stroke-dasharray="1,5" d="M14.35,-103.89C15.07,-101.2 15.9,-98.12 16.76,-94.9"/>
<polygon fill="green" stroke="green" stroke-width="0.38" points="20.21,-95.56 19.41,-84.99 13.44,-93.75 20.21,-95.56"/>
<text text-anchor="middle" x="9.1" y="-94.89" font-family="Times,serif" font-size="5.00">&#45;1.376</text>
</g>
<!-- &#45;3 -->
<g id="node3" class="node">
<title>&#45;3</title>
<polygon fill="lightgray" stroke="black" points="262.5,-34.4 238.5,-34.4 238.5,-15.79 262.5,-15.79 262.5,-34.4"/>
<text text-anchor="middle" x="250.5" y="-22.39" font-family="Times,serif" font-size="9.00">&#45;3</text>
</g>
<!-- 23946 -->
<g id="node8" class="node">
<title>23946</title>
<ellipse fill="white" stroke="black" cx="178.76" cy="-68.2" rx="30.52" ry="30.52"/>
<text text-anchor="middle" x="178.76" y="-65.5" font-family="Times,serif" font-size="9.00">identity</text>
</g>
<!-- &#45;3&#45;&gt;23946 -->
<g id="edge12" class="edge">
<title>&#45;3&#45;&gt;23946</title>
<path fill="none" stroke="red" stroke-width="0.57" stroke-dasharray="1,5" d="M238.65,-32.21C231.85,-36.3 222.9,-41.68 214.01,-47.02"/>
<polygon fill="red" stroke="red" stroke-width="0.57" points="211.99,-44.15 205.22,-52.3 215.6,-50.15 211.99,-44.15"/>
<text text-anchor="middle" x="219.88" y="-41.12" font-family="Times,serif" font-size="5.00">&#45;2.371</text>
</g>
<!-- &#45;4 -->
<g id="node4" class="node">
<title>&#45;4</title>
<polygon fill="lightgray" stroke="black" points="94.75,-29.66 70.75,-29.66 70.75,-11.06 94.75,-11.06 94.75,-29.66"/>
<text text-anchor="middle" x="82.75" y="-17.66" font-family="Times,serif" font-size="9.00">&#45;4</text>
</g>
<!-- &#45;4&#45;&gt;0 -->
<g id="edge3" class="edge">
<title>&#45;4&#45;&gt;0</title>
<path fill="none" stroke="red" stroke-width="0.6" stroke-dasharray="1,5" d="M85.09,-29.68C88.21,-42.1 93.86,-64.59 98.42,-82.73"/>
<polygon fill="red" stroke="red" stroke-width="0.6" points="95.05,-83.68 100.88,-92.53 101.84,-81.97 95.05,-83.68"/>
<text text-anchor="middle" x="86.13" y="-57.71" font-family="Times,serif" font-size="5.00">2.484</text>
</g>
<!-- 23979 -->
<g id="node9" class="node">
<title>23979</title>
<ellipse fill="white" stroke="black" cx="132.93" cy="-26.27" rx="22.08" ry="22.08"/>
<ellipse fill="none" stroke="black" cx="132.93" cy="-26.27" rx="26.04" ry="26.04"/>
<text text-anchor="middle" x="132.93" y="-23.57" font-family="Times,serif" font-size="9.00">tanh</text>
</g>
<!-- &#45;4&#45;&gt;23979 -->
<g id="edge10" class="edge">
<title>&#45;4&#45;&gt;23979</title>
<path fill="none" stroke="green" stroke-width="0.48" d="M94.64,-21.76C95.21,-21.83 95.78,-21.9 96.36,-21.96"/>
<polygon fill="green" stroke="green" stroke-width="0.48" points="96.14,-25.46 106.48,-23.16 96.96,-18.51 96.14,-25.46"/>
<text text-anchor="middle" x="101.96" y="-23.36" font-family="Times,serif" font-size="5.00">&#45;1.922</text>
</g>
<!-- 0&#45;&gt;0 -->
<g id="edge1" class="edge">
<title>0&#45;&gt;0</title>
<path fill="none" stroke="green" stroke-width="0.22" stroke-dasharray="1,5" d="M123.09,-117.08C132.9,-118.28 141.93,-116.14 141.93,-110.66 141.93,-107.23 138.4,-105.11 133.36,-104.29"/>
<polygon fill="green" stroke="green" stroke-width="0.22" points="133.11,-100.79 123.09,-104.23 133.07,-107.79 133.11,-100.79"/>
<text text-anchor="middle" x="148.39" y="-109.16" font-family="Times,serif" font-size="5.00">&#45;0.615</text>
</g>
<!-- 23746 -->
<g id="node6" class="node">
<title>23746</title>
<ellipse fill="white" stroke="black" cx="127.36" cy="-140.96" rx="30.52" ry="30.52"/>
<text text-anchor="middle" x="127.36" y="-138.26" font-family="Times,serif" font-size="9.00">identity</text>
</g>
<!-- 0&#45;&gt;23746 -->
<g id="edge4" class="edge">
<title>0&#45;&gt;23746</title>
<path fill="none" stroke="green" stroke-width="0.62" stroke-dasharray="1,5" d="M110.17,-128.69C110.22,-128.75 110.26,-128.82 110.3,-128.88"/>
<polygon fill="green" stroke="green" stroke-width="0.62" points="101.84,-122.87 110.43,-129.07 107.58,-118.86 101.84,-122.87"/>
<text text-anchor="middle" x="113.47" y="-124.28" font-family="Times,serif" font-size="5.00">&#45;2.575</text>
</g>
<!-- 24519 -->
<g id="node7" class="node">
<title>24519</title>
<ellipse fill="white" stroke="black" cx="65.43" cy="-186.73" rx="22.04" ry="22.04"/>
<text text-anchor="middle" x="65.43" y="-184.03" font-family="Times,serif" font-size="9.00">tanh</text>
</g>
<!-- 0&#45;&gt;24519 -->
<g id="edge19" class="edge">
<title>0&#45;&gt;24519</title>
<path fill="none" stroke="green" stroke-width="0.33" stroke-dasharray="1,5" d="M96.76,-127.16C92.04,-136.13 86.07,-147.48 80.62,-157.86"/>
<polygon fill="green" stroke="green" stroke-width="0.33" points="77.35,-156.54 75.8,-167.02 83.55,-159.8 77.35,-156.54"/>
<text text-anchor="middle" x="88.69" y="-138.01" font-family="Times,serif" font-size="5.00">&#45;1.136</text>
</g>
<!-- 24519 0 -->
<g id="node11" class="node">
<title>24519 0</title>
<ellipse fill="none" stroke="black" cx="187" cy="-112.34" rx="31.99" ry="31.99"/>
<text text-anchor="middle" x="187" y="-109.64" font-family="Times,serif" font-size="9.00">24519 0</text>
</g>
<!-- 0&#45;&gt;24519 0 -->
<g id="edge13" class="edge">
<title>0&#45;&gt;24519 0</title>
<path fill="none" stroke="green" stroke-width="0.33" stroke-dasharray="1,5" d="M123.95,-111.04C130.14,-111.17 137.33,-111.31 144.59,-111.46"/>
<polygon fill="green" stroke="green" stroke-width="0.33" points="144.73,-114.97 154.8,-111.67 144.87,-107.97 144.73,-114.97"/>
<text text-anchor="middle" x="134.27" y="-106.75" font-family="Times,serif" font-size="5.00">&#45;1.136</text>
</g>
<!-- 24519 1 -->
<g id="node12" class="node">
<title>24519 1</title>
<ellipse fill="none" stroke="black" cx="75.15" cy="-70.91" rx="31.99" ry="31.99"/>
<text text-anchor="middle" x="75.15" y="-68.21" font-family="Times,serif" font-size="9.00">24519 1</text>
</g>
<!-- 0&#45;&gt;24519 1 -->
<g id="edge14" class="edge">
<title>0&#45;&gt;24519 1</title>
<path fill="none" stroke="green" stroke-width="0.33" stroke-dasharray="1,5" d="M94.16,-95.86C94.13,-95.81 94.09,-95.77 94.06,-95.72"/>
<polygon fill="green" stroke="green" stroke-width="0.33" points="102.8,-101.42 93.96,-95.59 97.24,-105.67 102.8,-101.42"/>
<text text-anchor="middle" x="87.65" y="-97.29" font-family="Times,serif" font-size="5.00">&#45;1.136</text>
</g>
<!-- 24519 2 -->
<g id="node13" class="node">
<title>24519 2</title>
<ellipse fill="none" stroke="black" cx="44.34" cy="-154.01" rx="31.99" ry="31.99"/>
<text text-anchor="middle" x="44.34" y="-151.31" font-family="Times,serif" font-size="9.00">24519 2</text>
</g>
<!-- 0&#45;&gt;24519 2 -->
<g id="edge15" class="edge">
<title>0&#45;&gt;24519 2</title>
<path fill="none" stroke="green" stroke-width="0.33" stroke-dasharray="1,5" d="M90.33,-121.37C86.81,-123.87 82.91,-126.64 78.92,-129.47"/>
<polygon fill="green" stroke="green" stroke-width="0.33" points="76.82,-126.67 70.69,-135.31 80.87,-132.38 76.82,-126.67"/>
<text text-anchor="middle" x="81.4" y="-120.92" font-family="Times,serif" font-size="5.00">&#45;1.136</text>
</g>
<!-- 24519 3 -->
<g id="node14" class="node">
<title>24519 3</title>
<ellipse fill="none" stroke="black" cx="186.57" cy="-157.24" rx="31.99" ry="31.99"/>
<text text-anchor="middle" x="186.57" y="-154.54" font-family="Times,serif" font-size="9.00">24519 3</text>
</g>
<!-- 0&#45;&gt;24519 3 -->
<g id="edge16" class="edge">
<title>0&#45;&gt;24519 3</title>
<path fill="none" stroke="green" stroke-width="0.33" stroke-dasharray="1,5" d="M121.86,-120.08C129.94,-124.72 140.03,-130.52 149.82,-136.14"/>
<polygon fill="green" stroke="green" stroke-width="0.33" points="148.25,-139.27 158.67,-141.22 151.74,-133.2 148.25,-139.27"/>
<text text-anchor="middle" x="142.3" y="-129.61" font-family="Times,serif" font-size="5.00">&#45;1.136</text>
</g>
<!-- 24519 4 -->
<g id="node15" class="node">
<title>24519 4</title>
<ellipse fill="none" stroke="black" cx="152.72" cy="-194.18" rx="31.99" ry="31.99"/>
<text text-anchor="middle" x="152.72" y="-191.48" font-family="Times,serif" font-size="9.00">24519 4</text>
</g>
<!-- 0&#45;&gt;24519 4 -->
<g id="edge17" class="edge">
<title>0&#45;&gt;24519 4</title>
<path fill="none" stroke="green" stroke-width="0.33" stroke-dasharray="1,5" d="M114.55,-126.76C119.5,-135.5 125.84,-146.69 131.92,-157.43"/>
<polygon fill="green" stroke="green" stroke-width="0.33" points="128.95,-159.3 136.93,-166.28 135.05,-155.85 128.95,-159.3"/>
<text text-anchor="middle" x="126.46" y="-137.59" font-family="Times,serif" font-size="5.00">&#45;1.136</text>
</g>
<!-- 24519 5 -->
<g id="node16" class="node">
<title>24519 5</title>
<ellipse fill="none" stroke="black" cx="104.84" cy="-202.68" rx="31.99" ry="31.99"/>
<text text-anchor="middle" x="104.84" y="-199.98" font-family="Times,serif" font-size="9.00">24519 5</text>
</g>
<!-- 0&#45;&gt;24519 5 -->
<g id="edge18" class="edge">
<title>0&#45;&gt;24519 5</title>
<path fill="none" stroke="green" stroke-width="0.33" stroke-dasharray="1,5" d="M105.32,-129.28C105.26,-138.27 105.19,-149.46 105.12,-160.37"/>
<polygon fill="green" stroke="green" stroke-width="0.33" points="101.61,-160.64 105.05,-170.67 108.61,-160.69 101.61,-160.64"/>
<text text-anchor="middle" x="98.76" y="-146.32" font-family="Times,serif" font-size="5.00">&#45;1.136</text>
</g>
<!-- 23746&#45;&gt;0 -->
<g id="edge5" class="edge">
<title>23746&#45;&gt;0</title>
<path fill="none" stroke="green" stroke-width="0.16" stroke-dasharray="1,5" d="M113.81,-113.07C113.75,-113.03 113.7,-112.99 113.65,-112.95"/>
<polygon fill="green" stroke="green" stroke-width="0.16" points="123.53,-116.25 113.5,-112.83 119.2,-121.76 123.53,-116.25"/>
<text text-anchor="middle" x="119.35" y="-108.51" font-family="Times,serif" font-size="5.00">0.297</text>
</g>
<!-- 23746&#45;&gt;23946 -->
<g id="edge8" class="edge">
<title>23746&#45;&gt;23946</title>
<path fill="none" stroke="red" stroke-width="0.32" stroke-dasharray="1,5" d="M145.34,-115.51C148.37,-111.22 151.56,-106.7 154.72,-102.23"/>
<polygon fill="red" stroke="red" stroke-width="0.32" points="157.79,-103.94 160.7,-93.76 152.08,-99.91 157.79,-103.94"/>
<text text-anchor="middle" x="150.03" y="-104.37" font-family="Times,serif" font-size="5.00">1.093</text>
</g>
<!-- 24519&#45;&gt;23746 -->
<g id="edge26" class="edge">
<title>24519&#45;&gt;23746</title>
<path fill="none" stroke="green" stroke-width="0.98" stroke-dasharray="1,5" d="M83.34,-173.49C86.81,-170.93 90.55,-168.17 94.33,-165.37"/>
<polygon fill="green" stroke="green" stroke-width="0.98" points="96.62,-168.03 102.58,-159.28 92.46,-162.41 96.62,-168.03"/>
<text text-anchor="middle" x="91.65" y="-164.93" font-family="Times,serif" font-size="5.00">4.380</text>
</g>
<!-- 23946&#45;&gt;0 -->
<g id="edge9" class="edge">
<title>23946&#45;&gt;0</title>
<path fill="none" stroke="green" stroke-width="0.41" d="M151.87,-83.77C144.9,-87.8 137.43,-92.13 130.55,-96.11"/>
<polygon fill="green" stroke="green" stroke-width="0.41" points="128.56,-93.22 121.66,-101.26 132.07,-99.28 128.56,-93.22"/>
<text text-anchor="middle" x="135.59" y="-91.44" font-family="Times,serif" font-size="5.00">1.561</text>
</g>
<!-- 23979&#45;&gt;0 -->
<g id="edge11" class="edge">
<title>23979&#45;&gt;0</title>
<path fill="none" stroke="green" stroke-width="0.46" stroke-dasharray="1,5" d="M124.68,-51.59C121.43,-61.57 117.69,-73.05 114.38,-83.22"/>
<polygon fill="green" stroke="green" stroke-width="0.46" points="111.01,-82.26 111.24,-92.86 117.66,-84.43 111.01,-82.26"/>
<text text-anchor="middle" x="113.9" y="-68.91" font-family="Times,serif" font-size="5.00">1.790</text>
</g>
<!-- 23766&#45;&gt;0 -->
<g id="edge7" class="edge">
<title>23766&#45;&gt;0</title>
<path fill="none" stroke="green" stroke-width="0.11" d="M44.66,-74.68C55.49,-81.09 69.08,-89.14 80.67,-95.99"/>
<polygon fill="green" stroke="green" stroke-width="0.11" points="79.05,-99.1 89.44,-101.19 82.62,-93.08 79.05,-99.1"/>
<text text-anchor="middle" x="56.21" y="-86.84" font-family="Times,serif" font-size="5.00">&#45;0.035</text>
</g>
<!-- 24519 0&#45;&gt;23746 -->
<g id="edge20" class="edge">
<title>24519 0&#45;&gt;23746</title>
<path fill="none" stroke="green" stroke-width="0.98" stroke-dasharray="1,5" d="M157.88,-126.31C157.78,-126.36 157.68,-126.41 157.57,-126.46"/>
<polygon fill="green" stroke="green" stroke-width="0.98" points="162.9,-120.02 155.4,-127.5 165.93,-126.33 162.9,-120.02"/>
<text text-anchor="middle" x="164.18" y="-127.89" font-family="Times,serif" font-size="5.00">&#45;4.380</text>
</g>
<!-- 24519 1&#45;&gt;23746 -->
<g id="edge21" class="edge">
<title>24519 1&#45;&gt;23746</title>
<path fill="none" stroke="green" stroke-width="0.98" stroke-dasharray="1,5" d="M94.29,-96.59C97.05,-100.3 99.92,-104.15 102.77,-107.97"/>
<polygon fill="green" stroke="green" stroke-width="0.98" points="100.13,-110.28 108.91,-116.21 105.74,-106.1 100.13,-110.28"/>
<text text-anchor="middle" x="92.08" y="-103.78" font-family="Times,serif" font-size="5.00">&#45;2.920</text>
</g>
<!-- 24519 2&#45;&gt;23746 -->
<g id="edge22" class="edge">
<title>24519 2&#45;&gt;23746</title>
<path fill="none" stroke="green" stroke-width="0.98" stroke-dasharray="1,5" d="M76.2,-149C79.69,-148.45 83.27,-147.89 86.85,-147.33"/>
<polygon fill="green" stroke="green" stroke-width="0.98" points="87.48,-150.77 96.81,-145.76 86.39,-143.85 87.48,-150.77"/>
<text text-anchor="middle" x="84.75" y="-143.66" font-family="Times,serif" font-size="5.00">&#45;1.460</text>
</g>
<!-- 24519 3&#45;&gt;23746 -->
<g id="edge23" class="edge">
<title>24519 3&#45;&gt;23746</title>
<path fill="none" stroke="green" stroke-width="0.98" stroke-dasharray="1,5" d="M155.58,-148.72C155.52,-148.7 155.47,-148.69 155.41,-148.67"/>
<polygon fill="green" stroke="green" stroke-width="0.98" points="165.81,-147.9 155.24,-148.62 163.95,-154.65 165.81,-147.9"/>
<text text-anchor="middle" x="161.95" y="-150.19" font-family="Times,serif" font-size="5.00">&#45;0.000</text>
</g>
<!-- 24519 4&#45;&gt;23746 -->
<g id="edge24" class="edge">
<title>24519 4&#45;&gt;23746</title>
<path fill="none" stroke="green" stroke-width="0.98" stroke-dasharray="1,5" d="M138.85,-165.08C138.83,-165.03 138.81,-164.98 138.78,-164.93"/>
<polygon fill="green" stroke="green" stroke-width="0.98" points="146.18,-172.31 138.71,-164.79 139.86,-175.32 146.18,-172.31"/>
<text text-anchor="middle" x="141.63" y="-160.5" font-family="Times,serif" font-size="5.00">1.460</text>
</g>
<!-- 24519 5&#45;&gt;23746 -->
<g id="edge25" class="edge">
<title>24519 5&#45;&gt;23746</title>
<path fill="none" stroke="green" stroke-width="0.98" stroke-dasharray="1,5" d="M115.84,-172.54C115.88,-172.43 115.92,-172.33 115.96,-172.22"/>
<polygon fill="green" stroke="green" stroke-width="0.98" points="116.64,-180.56 116.78,-169.97 110.06,-178.16 116.64,-180.56"/>
<text text-anchor="middle" x="110.27" y="-173.88" font-family="Times,serif" font-size="5.00">2.920</text>
</g>
</g>
</svg>
