<?xml version="1.0" encoding="UTF-8" standalone="no"?>
<!DOCTYPE svg PUBLIC "-//W3C//DTD SVG 1.1//EN"
 "http://www.w3.org/Graphics/SVG/1.1/DTD/svg11.dtd">
<!-- Generated by graphviz version 2.47.1 (20210417.1919)
 -->
<!-- Pages: 1 -->
<svg width="250pt" height="255pt"
 viewBox="0.00 0.00 249.65 255.03" xmlns="http://www.w3.org/2000/svg" xmlns:xlink="http://www.w3.org/1999/xlink">
<g id="graph0" class="graph" transform="scale(1 1) rotate(0) translate(4 251.03)">
<polygon fill="white" stroke="transparent" points="-4,4 -4,-251.03 245.65,-251.03 245.65,4 -4,4"/>
<!-- &#45;1 -->
<g id="node1" class="node">
<title>&#45;1</title>
<polygon fill="lightgray" stroke="black" points="92.88,-184 68.87,-184 68.87,-165.4 92.88,-165.4 92.88,-184"/>
<text text-anchor="middle" x="80.88" y="-172" font-family="Times,serif" font-size="9.00">&#45;1</text>
</g>
<!-- 0 -->
<g id="node5" class="node">
<title>0</title>
<ellipse fill="lightblue" stroke="black" cx="125.62" cy="-125.2" rx="14.49" ry="14.49"/>
<ellipse fill="none" stroke="black" cx="125.62" cy="-125.2" rx="18.49" ry="18.49"/>
<text text-anchor="middle" x="125.62" y="-122.5" font-family="Times,serif" font-size="9.00">0</text>
</g>
<!-- &#45;1&#45;&gt;0 -->
<g id="edge3" class="edge">
<title>&#45;1&#45;&gt;0</title>
<path fill="none" stroke="red" stroke-width="0.32" d="M89.5,-165.16C94.22,-159.94 100.26,-153.26 106.05,-146.85"/>
<polygon fill="red" stroke="red" stroke-width="0.32" points="109.02,-148.79 113.13,-139.02 103.83,-144.1 109.02,-148.79"/>
<text text-anchor="middle" x="104.23" y="-151.51" font-family="Times,serif" font-size="5.00">&#45;1.083</text>
</g>
<!-- 21562 -->
<g id="node6" class="node">
<title>21562</title>
<ellipse fill="white" stroke="black" cx="112.13" cy="-216.27" rx="30.52" ry="30.52"/>
<text text-anchor="middle" x="112.13" y="-213.57" font-family="Times,serif" font-size="9.00">identity</text>
</g>
<!-- &#45;1&#45;&gt;21562 -->
<g id="edge45" class="edge">
<title>&#45;1&#45;&gt;21562</title>
<path fill="none" stroke="red" stroke-width="0.54" stroke-dasharray="1,5" d="M88.12,-184.34C88.23,-184.48 88.33,-184.62 88.44,-184.76"/>
<polygon fill="red" stroke="red" stroke-width="0.54" points="84.71,-185.63 93.52,-191.52 90.31,-181.42 84.71,-185.63"/>
<text text-anchor="middle" x="94.74" y="-180.05" font-family="Times,serif" font-size="5.00">&#45;2.176</text>
</g>
<!-- 21562 0 -->
<g id="node18" class="node">
<title>21562 0</title>
<ellipse fill="none" stroke="black" cx="40.86" cy="-178.9" rx="31.99" ry="31.99"/>
<text text-anchor="middle" x="40.86" y="-176.2" font-family="Times,serif" font-size="9.00">21562 0</text>
</g>
<!-- &#45;1&#45;&gt;21562 0 -->
<g id="edge36" class="edge">
<title>&#45;1&#45;&gt;21562 0</title>
<path fill="none" stroke="red" stroke-width="0.54" stroke-dasharray="1,5" d="M69.09,-175.94C69.04,-175.94 68.99,-175.95 68.95,-175.95"/>
<polygon fill="red" stroke="red" stroke-width="0.54" points="78.39,-171.44 68.81,-175.97 79.12,-178.4 78.39,-171.44"/>
<text text-anchor="middle" x="72.24" y="-171.45" font-family="Times,serif" font-size="5.00">&#45;2.176</text>
</g>
<!-- 21562 1 -->
<g id="node19" class="node">
<title>21562 1</title>
<ellipse fill="none" stroke="black" cx="32" cy="-148.9" rx="31.99" ry="31.99"/>
<text text-anchor="middle" x="32" y="-146.2" font-family="Times,serif" font-size="9.00">21562 1</text>
</g>
<!-- &#45;1&#45;&gt;21562 1 -->
<g id="edge37" class="edge">
<title>&#45;1&#45;&gt;21562 1</title>
<path fill="none" stroke="red" stroke-width="0.54" stroke-dasharray="1,5" d="M69.04,-168.45C68.88,-168.37 68.72,-168.28 68.55,-168.2"/>
<polygon fill="red" stroke="red" stroke-width="0.54" points="71.11,-165.59 60.64,-164.02 67.85,-171.78 71.11,-165.59"/>
<text text-anchor="middle" x="72.03" y="-163.82" font-family="Times,serif" font-size="5.00">&#45;2.176</text>
</g>
<!-- 21562 2 -->
<g id="node20" class="node">
<title>21562 2</title>
<ellipse fill="none" stroke="black" cx="78.82" cy="-213.15" rx="31.99" ry="31.99"/>
<text text-anchor="middle" x="78.82" y="-210.45" font-family="Times,serif" font-size="9.00">21562 2</text>
</g>
<!-- &#45;1&#45;&gt;21562 2 -->
<g id="edge38" class="edge">
<title>&#45;1&#45;&gt;21562 2</title>
<path fill="none" stroke="red" stroke-width="0.54" stroke-dasharray="1,5" d="M80.38,-184.01C80.38,-184.05 80.37,-184.1 80.37,-184.14"/>
<polygon fill="red" stroke="red" stroke-width="0.54" points="77.41,-174.1 80.36,-184.28 84.4,-174.48 77.41,-174.1"/>
<text text-anchor="middle" x="86.83" y="-185.58" font-family="Times,serif" font-size="5.00">&#45;2.176</text>
</g>
<!-- 21562 3 -->
<g id="node21" class="node">
<title>21562 3</title>
<ellipse fill="none" stroke="black" cx="43.89" cy="-127.73" rx="31.99" ry="31.99"/>
<text text-anchor="middle" x="43.89" y="-125.03" font-family="Times,serif" font-size="9.00">21562 3</text>
</g>
<!-- &#45;1&#45;&gt;21562 3 -->
<g id="edge39" class="edge">
<title>&#45;1&#45;&gt;21562 3</title>
<path fill="none" stroke="red" stroke-width="0.54" stroke-dasharray="1,5" d="M73.39,-165.2C72.43,-163.98 71.41,-162.68 70.35,-161.33"/>
<polygon fill="red" stroke="red" stroke-width="0.54" points="72.85,-158.85 63.92,-153.16 67.35,-163.18 72.85,-158.85"/>
<text text-anchor="middle" x="75.1" y="-158.76" font-family="Times,serif" font-size="5.00">&#45;2.176</text>
</g>
<!-- 21562 4 -->
<g id="node22" class="node">
<title>21562 4</title>
<ellipse fill="none" stroke="black" cx="35.37" cy="-107.75" rx="31.99" ry="31.99"/>
<text text-anchor="middle" x="35.37" y="-105.05" font-family="Times,serif" font-size="9.00">21562 4</text>
</g>
<!-- &#45;1&#45;&gt;21562 4 -->
<g id="edge40" class="edge">
<title>&#45;1&#45;&gt;21562 4</title>
<path fill="none" stroke="red" stroke-width="0.54" stroke-dasharray="1,5" d="M74.55,-165.39C70.44,-159.35 64.82,-151.07 59.1,-142.67"/>
<polygon fill="red" stroke="red" stroke-width="0.54" points="61.94,-140.61 53.42,-134.31 56.15,-144.54 61.94,-140.61"/>
<text text-anchor="middle" x="73.28" y="-149.53" font-family="Times,serif" font-size="5.00">&#45;2.176</text>
</g>
<!-- 21562 5 -->
<g id="node23" class="node">
<title>21562 5</title>
<ellipse fill="none" stroke="black" cx="159.29" cy="-179.28" rx="31.99" ry="31.99"/>
<text text-anchor="middle" x="159.29" y="-176.58" font-family="Times,serif" font-size="9.00">21562 5</text>
</g>
<!-- &#45;1&#45;&gt;21562 5 -->
<g id="edge41" class="edge">
<title>&#45;1&#45;&gt;21562 5</title>
<path fill="none" stroke="red" stroke-width="0.54" stroke-dasharray="1,5" d="M92.78,-175.4C99.45,-175.79 108.19,-176.3 117.15,-176.82"/>
<polygon fill="red" stroke="red" stroke-width="0.54" points="117.06,-180.32 127.24,-177.41 117.47,-173.33 117.06,-180.32"/>
<text text-anchor="middle" x="111.42" y="-171.61" font-family="Times,serif" font-size="5.00">&#45;2.176</text>
</g>
<!-- 21562 6 -->
<g id="node24" class="node">
<title>21562 6</title>
<ellipse fill="none" stroke="black" cx="155.47" cy="-201.16" rx="31.99" ry="31.99"/>
<text text-anchor="middle" x="155.47" y="-198.46" font-family="Times,serif" font-size="9.00">21562 6</text>
</g>
<!-- &#45;1&#45;&gt;21562 6 -->
<g id="edge42" class="edge">
<title>&#45;1&#45;&gt;21562 6</title>
<path fill="none" stroke="red" stroke-width="0.54" stroke-dasharray="1,5" d="M92.86,-178.95C99.13,-181.18 107.22,-184.05 115.48,-186.98"/>
<polygon fill="red" stroke="red" stroke-width="0.54" points="114.57,-190.37 125.16,-190.41 116.91,-183.77 114.57,-190.37"/>
<text text-anchor="middle" x="100.94" y="-178.46" font-family="Times,serif" font-size="5.00">&#45;2.176</text>
</g>
<!-- 21562 7 -->
<g id="node25" class="node">
<title>21562 7</title>
<ellipse fill="none" stroke="black" cx="134.56" cy="-209.09" rx="31.99" ry="31.99"/>
<text text-anchor="middle" x="134.56" y="-206.39" font-family="Times,serif" font-size="9.00">21562 7</text>
</g>
<!-- &#45;1&#45;&gt;21562 7 -->
<g id="edge43" class="edge">
<title>&#45;1&#45;&gt;21562 7</title>
<path fill="none" stroke="red" stroke-width="0.54" stroke-dasharray="1,5" d="M92.79,-182.33C94.68,-183.54 96.72,-184.85 98.84,-186.21"/>
<polygon fill="red" stroke="red" stroke-width="0.54" points="96.99,-189.18 107.3,-191.63 100.77,-183.29 96.99,-189.18"/>
<text text-anchor="middle" x="102.27" y="-179.77" font-family="Times,serif" font-size="5.00">&#45;2.176</text>
</g>
<!-- 21562 8 -->
<g id="node26" class="node">
<title>21562 8</title>
<ellipse fill="none" stroke="black" cx="58.18" cy="-97.34" rx="31.99" ry="31.99"/>
<text text-anchor="middle" x="58.18" y="-94.64" font-family="Times,serif" font-size="9.00">21562 8</text>
</g>
<!-- &#45;1&#45;&gt;21562 8 -->
<g id="edge44" class="edge">
<title>&#45;1&#45;&gt;21562 8</title>
<path fill="none" stroke="red" stroke-width="0.54" stroke-dasharray="1,5" d="M78.09,-165.21C76.05,-158.24 73.12,-148.25 70.13,-138.06"/>
<polygon fill="red" stroke="red" stroke-width="0.54" points="73.45,-136.94 67.27,-128.33 66.73,-138.91 73.45,-136.94"/>
<text text-anchor="middle" x="80.57" y="-147.14" font-family="Times,serif" font-size="5.00">&#45;2.176</text>
</g>
<!-- &#45;2 -->
<g id="node2" class="node">
<title>&#45;2</title>
<polygon fill="lightgray" stroke="black" points="228.94,-191.62 204.94,-191.62 204.94,-173.01 228.94,-173.01 228.94,-191.62"/>
<text text-anchor="middle" x="216.94" y="-179.61" font-family="Times,serif" font-size="9.00">&#45;2</text>
</g>
<!-- &#45;2&#45;&gt;0 -->
<g id="edge4" class="edge">
<title>&#45;2&#45;&gt;0</title>
<path fill="none" stroke="green" stroke-width="0.4" stroke-dasharray="1,5" d="M205,-174.85C191.17,-166.2 168.01,-151.71 150.26,-140.61"/>
<polygon fill="green" stroke="green" stroke-width="0.4" points="151.89,-137.5 141.55,-135.17 148.18,-143.44 151.89,-137.5"/>
<text text-anchor="middle" x="171.17" y="-159.23" font-family="Times,serif" font-size="5.00">&#45;1.497</text>
</g>
<!-- &#45;3 -->
<g id="node3" class="node">
<title>&#45;3</title>
<polygon fill="lightgray" stroke="black" points="162.24,-86.73 138.24,-86.73 138.24,-68.13 162.24,-68.13 162.24,-86.73"/>
<text text-anchor="middle" x="150.24" y="-74.73" font-family="Times,serif" font-size="9.00">&#45;3</text>
</g>
<!-- &#45;3&#45;&gt;0 -->
<g id="edge2" class="edge">
<title>&#45;3&#45;&gt;0</title>
<path fill="none" stroke="green" stroke-width="0.64" d="M145.26,-87.1C143.39,-90.72 141.17,-95.04 138.9,-99.44"/>
<polygon fill="green" stroke="green" stroke-width="0.64" points="135.75,-97.9 134.28,-108.39 141.98,-101.11 135.75,-97.9"/>
<text text-anchor="middle" x="147.71" y="-88.77" font-family="Times,serif" font-size="5.00">2.700</text>
</g>
<!-- 17379 -->
<g id="node7" class="node">
<title>17379</title>
<ellipse fill="white" stroke="black" cx="84.08" cy="-46.27" rx="35.21" ry="35.21"/>
<ellipse fill="none" stroke="black" cx="84.08" cy="-46.27" rx="39.19" ry="39.19"/>
<text text-anchor="middle" x="84.08" y="-43.57" font-family="Times,serif" font-size="9.00">heaviside</text>
</g>
<!-- &#45;3&#45;&gt;17379 -->
<g id="edge14" class="edge">
<title>&#45;3&#45;&gt;17379</title>
<path fill="none" stroke="green" stroke-width="0.3" stroke-dasharray="1,5" d="M138.41,-71.86C135.61,-70.54 132.45,-69.05 129.11,-67.48"/>
<polygon fill="green" stroke="green" stroke-width="0.3" points="130.46,-64.25 119.92,-63.15 127.48,-70.58 130.46,-64.25"/>
<text text-anchor="middle" x="127.3" y="-71.17" font-family="Times,serif" font-size="5.00">&#45;0.979</text>
</g>
<!-- 19180 -->
<g id="node8" class="node">
<title>19180</title>
<ellipse fill="white" stroke="black" cx="118.92" cy="-117.48" rx="22.08" ry="22.08"/>
<ellipse fill="none" stroke="black" cx="118.92" cy="-117.48" rx="26.04" ry="26.04"/>
<text text-anchor="middle" x="118.92" y="-114.78" font-family="Times,serif" font-size="9.00">tanh</text>
</g>
<!-- &#45;3&#45;&gt;19180 -->
<g id="edge25" class="edge">
<title>&#45;3&#45;&gt;19180</title>
<path fill="none" stroke="green" stroke-width="0.11" d="M142.66,-87.12C142.31,-87.57 141.95,-88.03 141.59,-88.5"/>
<polygon fill="green" stroke="green" stroke-width="0.11" points="138.69,-86.51 135.29,-96.55 144.21,-90.83 138.69,-86.51"/>
<text text-anchor="middle" x="135.67" y="-83.31" font-family="Times,serif" font-size="5.00">&#45;0.070</text>
</g>
<!-- 17379 0 -->
<g id="node9" class="node">
<title>17379 0</title>
<ellipse fill="none" stroke="black" cx="104.77" cy="-36.46" rx="31.99" ry="31.99"/>
<text text-anchor="middle" x="104.77" y="-33.76" font-family="Times,serif" font-size="9.00">17379 0</text>
</g>
<!-- &#45;3&#45;&gt;17379 0 -->
<g id="edge5" class="edge">
<title>&#45;3&#45;&gt;17379 0</title>
<path fill="none" stroke="green" stroke-width="0.3" stroke-dasharray="1,5" d="M139.69,-67.93C138.54,-66.89 137.33,-65.79 136.07,-64.66"/>
<polygon fill="green" stroke="green" stroke-width="0.3" points="138.34,-62 128.57,-57.9 133.66,-67.2 138.34,-62"/>
<text text-anchor="middle" x="131.43" y="-67.79" font-family="Times,serif" font-size="5.00">&#45;0.979</text>
</g>
<!-- 17379 1 -->
<g id="node10" class="node">
<title>17379 1</title>
<ellipse fill="none" stroke="black" cx="159.58" cy="-36.38" rx="31.99" ry="31.99"/>
<text text-anchor="middle" x="159.58" y="-33.68" font-family="Times,serif" font-size="9.00">17379 1</text>
</g>
<!-- &#45;3&#45;&gt;17379 1 -->
<g id="edge6" class="edge">
<title>&#45;3&#45;&gt;17379 1</title>
<path fill="none" stroke="green" stroke-width="0.3" stroke-dasharray="1,5" d="M152.41,-67.91C152.42,-67.86 152.43,-67.81 152.44,-67.77"/>
<polygon fill="green" stroke="green" stroke-width="0.3" points="153.66,-78.15 152.47,-67.62 146.84,-76.6 153.66,-78.15"/>
<text text-anchor="middle" x="145.97" y="-69.34" font-family="Times,serif" font-size="5.00">&#45;0.979</text>
</g>
<!-- 17379 2 -->
<g id="node11" class="node">
<title>17379 2</title>
<ellipse fill="none" stroke="black" cx="129.48" cy="-32" rx="31.99" ry="31.99"/>
<text text-anchor="middle" x="129.48" y="-29.3" font-family="Times,serif" font-size="9.00">17379 2</text>
</g>
<!-- &#45;3&#45;&gt;17379 2 -->
<g id="edge7" class="edge">
<title>&#45;3&#45;&gt;17379 2</title>
<path fill="none" stroke="green" stroke-width="0.3" stroke-dasharray="1,5" d="M145.84,-67.79C145.78,-67.67 145.73,-67.55 145.67,-67.42"/>
<polygon fill="green" stroke="green" stroke-width="0.3" points="150.24,-69 142.9,-61.35 143.87,-71.91 150.24,-69"/>
<text text-anchor="middle" x="152.21" y="-69.11" font-family="Times,serif" font-size="5.00">&#45;0.979</text>
</g>
<!-- 17379 3 -->
<g id="node12" class="node">
<title>17379 3</title>
<ellipse fill="none" stroke="black" cx="64.66" cy="-58.14" rx="31.99" ry="31.99"/>
<text text-anchor="middle" x="64.66" y="-55.44" font-family="Times,serif" font-size="9.00">17379 3</text>
</g>
<!-- &#45;3&#45;&gt;17379 3 -->
<g id="edge8" class="edge">
<title>&#45;3&#45;&gt;17379 3</title>
<path fill="none" stroke="green" stroke-width="0.3" stroke-dasharray="1,5" d="M138.34,-74.75C129.8,-72.82 117.75,-70.11 105.86,-67.43"/>
<polygon fill="green" stroke="green" stroke-width="0.3" points="106.51,-63.99 95.99,-65.2 104.98,-70.82 106.51,-63.99"/>
<text text-anchor="middle" x="115.64" y="-72.59" font-family="Times,serif" font-size="5.00">&#45;0.979</text>
</g>
<!-- 17379 4 -->
<g id="node13" class="node">
<title>17379 4</title>
<ellipse fill="none" stroke="black" cx="209.65" cy="-104.64" rx="31.99" ry="31.99"/>
<text text-anchor="middle" x="209.65" y="-101.94" font-family="Times,serif" font-size="9.00">17379 4</text>
</g>
<!-- &#45;3&#45;&gt;17379 4 -->
<g id="edge9" class="edge">
<title>&#45;3&#45;&gt;17379 4</title>
<path fill="none" stroke="green" stroke-width="0.3" stroke-dasharray="1,5" d="M162.26,-82.93C164.99,-84.18 168.03,-85.58 171.22,-87.04"/>
<polygon fill="green" stroke="green" stroke-width="0.3" points="169.9,-90.28 180.45,-91.27 172.82,-83.92 169.9,-90.28"/>
<text text-anchor="middle" x="160.28" y="-86.49" font-family="Times,serif" font-size="5.00">&#45;0.979</text>
</g>
<!-- 17379 5 -->
<g id="node14" class="node">
<title>17379 5</title>
<ellipse fill="none" stroke="black" cx="204.12" cy="-126.82" rx="31.99" ry="31.99"/>
<text text-anchor="middle" x="204.12" y="-124.12" font-family="Times,serif" font-size="9.00">17379 5</text>
</g>
<!-- &#45;3&#45;&gt;17379 5 -->
<g id="edge10" class="edge">
<title>&#45;3&#45;&gt;17379 5</title>
<path fill="none" stroke="green" stroke-width="0.3" stroke-dasharray="1,5" d="M160.63,-86.95C164.23,-90.25 168.48,-94.15 172.89,-98.19"/>
<polygon fill="green" stroke="green" stroke-width="0.3" points="170.63,-100.87 180.37,-105.05 175.36,-95.71 170.63,-100.87"/>
<text text-anchor="middle" x="160.3" y="-94.07" font-family="Times,serif" font-size="5.00">&#45;0.979</text>
</g>
<!-- 17379 6 -->
<g id="node15" class="node">
<title>17379 6</title>
<ellipse fill="none" stroke="black" cx="193.42" cy="-148.8" rx="31.99" ry="31.99"/>
<text text-anchor="middle" x="193.42" y="-146.1" font-family="Times,serif" font-size="9.00">17379 6</text>
</g>
<!-- &#45;3&#45;&gt;17379 6 -->
<g id="edge11" class="edge">
<title>&#45;3&#45;&gt;17379 6</title>
<path fill="none" stroke="green" stroke-width="0.3" stroke-dasharray="1,5" d="M155.89,-86.76C159.95,-93.47 165.71,-102.99 171.5,-112.57"/>
<polygon fill="green" stroke="green" stroke-width="0.3" points="168.61,-114.55 176.78,-121.3 174.6,-110.93 168.61,-114.55"/>
<text text-anchor="middle" x="157.24" y="-101.16" font-family="Times,serif" font-size="5.00">&#45;0.979</text>
</g>
<!-- 17379 7 -->
<g id="node16" class="node">
<title>17379 7</title>
<ellipse fill="none" stroke="black" cx="201.92" cy="-80.93" rx="31.99" ry="31.99"/>
<text text-anchor="middle" x="201.92" y="-78.23" font-family="Times,serif" font-size="9.00">17379 7</text>
</g>
<!-- &#45;3&#45;&gt;17379 7 -->
<g id="edge12" class="edge">
<title>&#45;3&#45;&gt;17379 7</title>
<path fill="none" stroke="green" stroke-width="0.3" stroke-dasharray="1,5" d="M162.23,-78.24C162.38,-78.25 162.53,-78.26 162.68,-78.27"/>
<polygon fill="green" stroke="green" stroke-width="0.3" points="159.71,-81.58 169.93,-78.76 160.19,-74.59 159.71,-81.58"/>
<text text-anchor="middle" x="156" y="-79.76" font-family="Times,serif" font-size="5.00">&#45;0.979</text>
</g>
<!-- 17379 8 -->
<g id="node17" class="node">
<title>17379 8</title>
<ellipse fill="none" stroke="black" cx="187.88" cy="-55.94" rx="31.99" ry="31.99"/>
<text text-anchor="middle" x="187.88" y="-53.24" font-family="Times,serif" font-size="9.00">17379 8</text>
</g>
<!-- &#45;3&#45;&gt;17379 8 -->
<g id="edge13" class="edge">
<title>&#45;3&#45;&gt;17379 8</title>
<path fill="none" stroke="green" stroke-width="0.3" stroke-dasharray="1,5" d="M162.15,-70.63C162.19,-70.61 162.24,-70.58 162.28,-70.56"/>
<polygon fill="green" stroke="green" stroke-width="0.3" points="155.46,-78.48 162.41,-70.48 151.99,-72.4 155.46,-78.48"/>
<text text-anchor="middle" x="168.67" y="-72.09" font-family="Times,serif" font-size="5.00">&#45;0.979</text>
</g>
<!-- &#45;4 -->
<g id="node4" class="node">
<title>&#45;4</title>
<polygon fill="lightgray" stroke="black" points="102.55,-173.52 78.55,-173.52 78.55,-154.92 102.55,-154.92 102.55,-173.52"/>
<text text-anchor="middle" x="90.55" y="-161.52" font-family="Times,serif" font-size="9.00">&#45;4</text>
</g>
<!-- &#45;4&#45;&gt;0 -->
<g id="edge1" class="edge">
<title>&#45;4&#45;&gt;0</title>
<path fill="none" stroke="green" stroke-width="0.13" stroke-dasharray="1,5" d="M99.04,-154.77C101.28,-152.28 103.79,-149.49 106.35,-146.64"/>
<polygon fill="green" stroke="green" stroke-width="0.13" points="109.01,-148.91 113.1,-139.14 103.81,-144.23 109.01,-148.91"/>
<text text-anchor="middle" x="97.07" y="-146.21" font-family="Times,serif" font-size="5.00">0.159</text>
</g>
<!-- &#45;4&#45;&gt;21562 -->
<g id="edge75" class="edge">
<title>&#45;4&#45;&gt;21562</title>
<path fill="none" stroke="green" stroke-width="0.31" stroke-dasharray="1,5" d="M94.51,-173.76C95.08,-175.14 95.69,-176.61 96.33,-178.16"/>
<polygon fill="green" stroke="green" stroke-width="0.31" points="93.19,-179.73 100.25,-187.63 99.66,-177.05 93.19,-179.73"/>
<text text-anchor="middle" x="101.88" y="-171.46" font-family="Times,serif" font-size="5.00">&#45;1.042</text>
</g>
<!-- &#45;4&#45;&gt;21562 0 -->
<g id="edge66" class="edge">
<title>&#45;4&#45;&gt;21562 0</title>
<path fill="none" stroke="green" stroke-width="0.31" stroke-dasharray="1,5" d="M78.77,-167.7C78.64,-167.74 78.5,-167.78 78.36,-167.82"/>
<polygon fill="green" stroke="green" stroke-width="0.31" points="80.37,-163.58 71.77,-169.77 82.35,-170.29 80.37,-163.58"/>
<text text-anchor="middle" x="85.03" y="-169.26" font-family="Times,serif" font-size="5.00">&#45;1.042</text>
</g>
<!-- &#45;4&#45;&gt;21562 1 -->
<g id="edge67" class="edge">
<title>&#45;4&#45;&gt;21562 1</title>
<path fill="none" stroke="green" stroke-width="0.31" stroke-dasharray="1,5" d="M78.7,-161.12C77,-160.67 75.17,-160.19 73.26,-159.69"/>
<polygon fill="green" stroke="green" stroke-width="0.31" points="73.77,-156.21 63.21,-157.06 72,-162.98 73.77,-156.21"/>
<text text-anchor="middle" x="82.44" y="-155.9" font-family="Times,serif" font-size="5.00">&#45;1.042</text>
</g>
<!-- &#45;4&#45;&gt;21562 2 -->
<g id="edge68" class="edge">
<title>&#45;4&#45;&gt;21562 2</title>
<path fill="none" stroke="green" stroke-width="0.31" stroke-dasharray="1,5" d="M88.29,-173.65C88.25,-173.8 88.22,-173.96 88.18,-174.11"/>
<polygon fill="green" stroke="green" stroke-width="0.31" points="85.27,-171.24 86.34,-181.78 92.08,-172.87 85.27,-171.24"/>
<text text-anchor="middle" x="94.69" y="-175.38" font-family="Times,serif" font-size="5.00">&#45;1.042</text>
</g>
<!-- &#45;4&#45;&gt;21562 3 -->
<g id="edge69" class="edge">
<title>&#45;4&#45;&gt;21562 3</title>
<path fill="none" stroke="green" stroke-width="0.31" stroke-dasharray="1,5" d="M78.78,-155.01C78.32,-154.65 77.86,-154.29 77.39,-153.92"/>
<polygon fill="green" stroke="green" stroke-width="0.31" points="79.36,-151.02 69.33,-147.62 75.05,-156.54 79.36,-151.02"/>
<text text-anchor="middle" x="84.54" y="-149.97" font-family="Times,serif" font-size="5.00">&#45;1.042</text>
</g>
<!-- &#45;4&#45;&gt;21562 4 -->
<g id="edge70" class="edge">
<title>&#45;4&#45;&gt;21562 4</title>
<path fill="none" stroke="green" stroke-width="0.31" stroke-dasharray="1,5" d="M81.44,-154.89C76.86,-150.21 71.03,-144.24 65.07,-138.14"/>
<polygon fill="green" stroke="green" stroke-width="0.31" points="67.56,-135.69 58.07,-130.98 62.56,-140.58 67.56,-135.69"/>
<text text-anchor="middle" x="79.71" y="-142.01" font-family="Times,serif" font-size="5.00">&#45;1.042</text>
</g>
<!-- &#45;4&#45;&gt;21562 5 -->
<g id="edge71" class="edge">
<title>&#45;4&#45;&gt;21562 5</title>
<path fill="none" stroke="green" stroke-width="0.31" stroke-dasharray="1,5" d="M102.52,-166.84C106.95,-167.81 112.25,-168.97 117.81,-170.19"/>
<polygon fill="green" stroke="green" stroke-width="0.31" points="117.44,-173.69 127.96,-172.42 118.94,-166.86 117.44,-173.69"/>
<text text-anchor="middle" x="116.62" y="-164.01" font-family="Times,serif" font-size="5.00">&#45;1.042</text>
</g>
<!-- &#45;4&#45;&gt;21562 6 -->
<g id="edge72" class="edge">
<title>&#45;4&#45;&gt;21562 6</title>
<path fill="none" stroke="green" stroke-width="0.31" stroke-dasharray="1,5" d="M102.46,-170.99C107.07,-173.62 112.62,-176.78 118.37,-180.05"/>
<polygon fill="green" stroke="green" stroke-width="0.31" points="117.04,-183.32 127.47,-185.23 120.51,-177.24 117.04,-183.32"/>
<text text-anchor="middle" x="116.87" y="-171.02" font-family="Times,serif" font-size="5.00">&#45;1.042</text>
</g>
<!-- &#45;4&#45;&gt;21562 7 -->
<g id="edge73" class="edge">
<title>&#45;4&#45;&gt;21562 7</title>
<path fill="none" stroke="green" stroke-width="0.31" stroke-dasharray="1,5" d="M99.88,-173.73C101.32,-175.2 102.86,-176.77 104.47,-178.41"/>
<polygon fill="green" stroke="green" stroke-width="0.31" points="102.34,-181.23 111.84,-185.92 107.34,-176.33 102.34,-181.23"/>
<text text-anchor="middle" x="95.72" y="-171.57" font-family="Times,serif" font-size="5.00">&#45;1.042</text>
</g>
<!-- &#45;4&#45;&gt;21562 8 -->
<g id="edge74" class="edge">
<title>&#45;4&#45;&gt;21562 8</title>
<path fill="none" stroke="green" stroke-width="0.31" stroke-dasharray="1,5" d="M85.91,-154.63C83.38,-149.4 80.06,-142.55 76.6,-135.4"/>
<polygon fill="green" stroke="green" stroke-width="0.31" points="79.71,-133.78 72.2,-126.3 73.41,-136.83 79.71,-133.78"/>
<text text-anchor="middle" x="84.49" y="-140.52" font-family="Times,serif" font-size="5.00">&#45;1.042</text>
</g>
<!-- 21562&#45;&gt;0 -->
<g id="edge55" class="edge">
<title>21562&#45;&gt;0</title>
<path fill="none" stroke="red" stroke-width="1.28" d="M116.66,-185.69C118.19,-175.34 119.9,-163.82 121.41,-153.64"/>
<polygon fill="red" stroke="red" stroke-width="1.28" points="124.89,-154.03 122.89,-143.62 117.97,-153 124.89,-154.03"/>
<text text-anchor="middle" x="112.58" y="-165.17" font-family="Times,serif" font-size="5.00">&#45;5.896</text>
</g>
<!-- 21562&#45;&gt;19180 -->
<g id="edge65" class="edge">
<title>21562&#45;&gt;19180</title>
<path fill="none" stroke="green" stroke-width="0.63" d="M114.24,-185.55C114.93,-175.53 115.7,-164.3 116.42,-153.9"/>
<polygon fill="green" stroke="green" stroke-width="0.63" points="119.92,-154.06 117.11,-143.84 112.93,-153.58 119.92,-154.06"/>
<text text-anchor="middle" x="109.71" y="-165.23" font-family="Times,serif" font-size="5.00">2.652</text>
</g>
<!-- 17379&#45;&gt;0 -->
<g id="edge24" class="edge">
<title>17379&#45;&gt;0</title>
<path fill="none" stroke="red" stroke-width="0.27" stroke-dasharray="1,5" d="M102.42,-81.12C105.73,-87.41 109.12,-93.86 112.26,-99.81"/>
<polygon fill="red" stroke="red" stroke-width="0.27" points="109.16,-101.45 116.92,-108.67 115.36,-98.19 109.16,-101.45"/>
<text text-anchor="middle" x="113.8" y="-85.97" font-family="Times,serif" font-size="5.00">&#45;0.840</text>
</g>
<!-- 17379&#45;&gt;19180 -->
<g id="edge35" class="edge">
<title>17379&#45;&gt;19180</title>
<path fill="none" stroke="red" stroke-width="0.33" stroke-dasharray="1,5" d="M101.5,-81.88C101.93,-82.76 102.36,-83.64 102.8,-84.52"/>
<polygon fill="red" stroke="red" stroke-width="0.33" points="99.78,-86.32 107.32,-93.77 106.07,-83.25 99.78,-86.32"/>
<text text-anchor="middle" x="108.61" y="-78.7" font-family="Times,serif" font-size="5.00">&#45;1.153</text>
</g>
<!-- 17379 0&#45;&gt;0 -->
<g id="edge15" class="edge">
<title>17379 0&#45;&gt;0</title>
<path fill="none" stroke="red" stroke-width="0.27" stroke-dasharray="1,5" d="M112.18,-68C114.42,-77.55 116.87,-87.98 119.06,-97.28"/>
<polygon fill="red" stroke="red" stroke-width="0.27" points="115.7,-98.26 121.39,-107.2 122.51,-96.66 115.7,-98.26"/>
<text text-anchor="middle" x="122.08" y="-84.14" font-family="Times,serif" font-size="5.00">&#45;0.840</text>
</g>
<!-- 17379 0&#45;&gt;19180 -->
<g id="edge26" class="edge">
<title>17379 0&#45;&gt;19180</title>
<path fill="none" stroke="red" stroke-width="0.33" stroke-dasharray="1,5" d="M110.28,-68.02C111.04,-72.37 111.83,-76.86 112.6,-81.28"/>
<polygon fill="red" stroke="red" stroke-width="0.33" points="109.19,-82.13 114.36,-91.38 116.09,-80.93 109.19,-82.13"/>
<text text-anchor="middle" x="104.98" y="-76.15" font-family="Times,serif" font-size="5.00">&#45;1.153</text>
</g>
<!-- 17379 1&#45;&gt;0 -->
<g id="edge16" class="edge">
<title>17379 1&#45;&gt;0</title>
<path fill="none" stroke="red" stroke-width="0.27" stroke-dasharray="1,5" d="M148.08,-66.45C144.13,-76.8 139.73,-88.3 135.88,-98.37"/>
<polygon fill="red" stroke="red" stroke-width="0.27" points="132.55,-97.27 132.25,-107.86 139.09,-99.77 132.55,-97.27"/>
<text text-anchor="middle" x="135.52" y="-77.91" font-family="Times,serif" font-size="5.00">&#45;0.840</text>
</g>
<!-- 17379 1&#45;&gt;19180 -->
<g id="edge27" class="edge">
<title>17379 1&#45;&gt;19180</title>
<path fill="none" stroke="red" stroke-width="0.33" stroke-dasharray="1,5" d="M145.13,-65.2C141.97,-71.5 138.61,-78.22 135.38,-84.66"/>
<polygon fill="red" stroke="red" stroke-width="0.33" points="132.13,-83.32 130.78,-93.83 138.39,-86.46 132.13,-83.32"/>
<text text-anchor="middle" x="133.8" y="-76.43" font-family="Times,serif" font-size="5.00">&#45;1.153</text>
</g>
<!-- 17379 2&#45;&gt;0 -->
<g id="edge17" class="edge">
<title>17379 2&#45;&gt;0</title>
<path fill="none" stroke="red" stroke-width="0.27" stroke-dasharray="1,5" d="M128.15,-64.07C127.72,-74.63 127.23,-86.28 126.81,-96.56"/>
<polygon fill="red" stroke="red" stroke-width="0.27" points="123.31,-96.54 126.39,-106.67 130.3,-96.83 123.31,-96.54"/>
<text text-anchor="middle" x="121.02" y="-75.82" font-family="Times,serif" font-size="5.00">&#45;0.840</text>
</g>
<!-- 17379 2&#45;&gt;19180 -->
<g id="edge28" class="edge">
<title>17379 2&#45;&gt;19180</title>
<path fill="none" stroke="red" stroke-width="0.33" stroke-dasharray="1,5" d="M125.55,-63.83C124.86,-69.46 124.13,-75.37 123.42,-81.12"/>
<polygon fill="red" stroke="red" stroke-width="0.33" points="119.92,-80.86 122.17,-91.21 126.87,-81.71 119.92,-80.86"/>
<text text-anchor="middle" x="130.94" y="-73.97" font-family="Times,serif" font-size="5.00">&#45;1.153</text>
</g>
<!-- 17379 3&#45;&gt;0 -->
<g id="edge18" class="edge">
<title>17379 3&#45;&gt;0</title>
<path fill="none" stroke="red" stroke-width="0.27" stroke-dasharray="1,5" d="M86.33,-81.97C92.72,-89.01 99.68,-96.67 105.95,-103.56"/>
<polygon fill="red" stroke="red" stroke-width="0.27" points="103.58,-106.16 112.9,-111.21 108.76,-101.46 103.58,-106.16"/>
<text text-anchor="middle" x="102.59" y="-88.27" font-family="Times,serif" font-size="5.00">&#45;0.840</text>
</g>
<!-- 17379 3&#45;&gt;19180 -->
<g id="edge29" class="edge">
<title>17379 3&#45;&gt;19180</title>
<path fill="none" stroke="red" stroke-width="0.33" stroke-dasharray="1,5" d="M86.42,-81.93C88.99,-84.74 91.62,-87.63 94.23,-90.47"/>
<polygon fill="red" stroke="red" stroke-width="0.33" points="91.66,-92.85 100.99,-97.87 96.82,-88.13 91.66,-92.85"/>
<text text-anchor="middle" x="96.78" y="-87.7" font-family="Times,serif" font-size="5.00">&#45;1.153</text>
</g>
<!-- 17379 4&#45;&gt;0 -->
<g id="edge19" class="edge">
<title>17379 4&#45;&gt;0</title>
<path fill="none" stroke="red" stroke-width="0.27" stroke-dasharray="1,5" d="M178.36,-112.3C170.31,-114.27 161.71,-116.37 153.83,-118.3"/>
<polygon fill="red" stroke="red" stroke-width="0.27" points="152.88,-114.93 144,-120.71 154.54,-121.73 152.88,-114.93"/>
<text text-anchor="middle" x="159.64" y="-110.8" font-family="Times,serif" font-size="5.00">&#45;0.840</text>
</g>
<!-- 17379 4&#45;&gt;19180 -->
<g id="edge30" class="edge">
<title>17379 4&#45;&gt;19180</title>
<path fill="none" stroke="red" stroke-width="0.33" stroke-dasharray="1,5" d="M177.92,-109.13C170.54,-110.17 162.63,-111.29 155.08,-112.36"/>
<polygon fill="red" stroke="red" stroke-width="0.33" points="154.5,-108.91 145.09,-113.78 155.48,-115.84 154.5,-108.91"/>
<text text-anchor="middle" x="163.27" y="-106.25" font-family="Times,serif" font-size="5.00">&#45;1.153</text>
</g>
<!-- 17379 5&#45;&gt;0 -->
<g id="edge20" class="edge">
<title>17379 5&#45;&gt;0</title>
<path fill="none" stroke="red" stroke-width="0.27" stroke-dasharray="1,5" d="M171.74,-126.15C166.08,-126.03 160.22,-125.91 154.66,-125.8"/>
<polygon fill="red" stroke="red" stroke-width="0.27" points="154.52,-122.3 144.45,-125.59 154.37,-129.29 154.52,-122.3"/>
<text text-anchor="middle" x="156.74" y="-127.48" font-family="Times,serif" font-size="5.00">&#45;0.840</text>
</g>
<!-- 17379 5&#45;&gt;19180 -->
<g id="edge31" class="edge">
<title>17379 5&#45;&gt;19180</title>
<path fill="none" stroke="red" stroke-width="0.33" stroke-dasharray="1,5" d="M171.91,-123.29C166.51,-122.69 160.88,-122.08 155.38,-121.47"/>
<polygon fill="red" stroke="red" stroke-width="0.33" points="155.41,-117.96 145.08,-120.34 154.64,-124.91 155.41,-117.96"/>
<text text-anchor="middle" x="157.19" y="-117.88" font-family="Times,serif" font-size="5.00">&#45;1.153</text>
</g>
<!-- 17379 6&#45;&gt;0 -->
<g id="edge21" class="edge">
<title>17379 6&#45;&gt;0</title>
<path fill="none" stroke="red" stroke-width="0.27" stroke-dasharray="1,5" d="M163.09,-138.25C159.71,-137.07 156.28,-135.87 152.93,-134.71"/>
<polygon fill="red" stroke="red" stroke-width="0.27" points="153.9,-131.34 143.3,-131.36 151.6,-137.95 153.9,-131.34"/>
<text text-anchor="middle" x="151.55" y="-137.98" font-family="Times,serif" font-size="5.00">&#45;0.840</text>
</g>
<!-- 17379 6&#45;&gt;19180 -->
<g id="edge32" class="edge">
<title>17379 6&#45;&gt;19180</title>
<path fill="none" stroke="red" stroke-width="0.33" stroke-dasharray="1,5" d="M163.55,-136.24C160.02,-134.76 156.41,-133.24 152.83,-131.73"/>
<polygon fill="red" stroke="red" stroke-width="0.33" points="154.12,-128.48 143.55,-127.83 151.41,-134.93 154.12,-128.48"/>
<text text-anchor="middle" x="151.73" y="-129.49" font-family="Times,serif" font-size="5.00">&#45;1.153</text>
</g>
<!-- 17379 7&#45;&gt;0 -->
<g id="edge22" class="edge">
<title>17379 7&#45;&gt;0</title>
<path fill="none" stroke="red" stroke-width="0.27" stroke-dasharray="1,5" d="M173.94,-97.17C166.41,-101.54 158.3,-106.24 150.92,-110.53"/>
<polygon fill="red" stroke="red" stroke-width="0.27" points="148.95,-107.62 142.06,-115.67 152.46,-113.68 148.95,-107.62"/>
<text text-anchor="middle" x="162.43" y="-99.35" font-family="Times,serif" font-size="5.00">&#45;0.840</text>
</g>
<!-- 17379 7&#45;&gt;19180 -->
<g id="edge33" class="edge">
<title>17379 7&#45;&gt;19180</title>
<path fill="none" stroke="red" stroke-width="0.33" stroke-dasharray="1,5" d="M172.43,-93.92C165.98,-96.76 159.11,-99.79 152.51,-102.69"/>
<polygon fill="red" stroke="red" stroke-width="0.33" points="150.87,-99.59 143.13,-106.82 153.69,-105.99 150.87,-99.59"/>
<text text-anchor="middle" x="156.01" y="-99.8" font-family="Times,serif" font-size="5.00">&#45;1.153</text>
</g>
<!-- 17379 8&#45;&gt;0 -->
<g id="edge23" class="edge">
<title>17379 8&#45;&gt;0</title>
<path fill="none" stroke="red" stroke-width="0.27" stroke-dasharray="1,5" d="M166.45,-79.78C159.53,-87.48 151.9,-95.97 145.12,-103.51"/>
<polygon fill="red" stroke="red" stroke-width="0.27" points="142.26,-101.46 138.18,-111.23 147.47,-106.14 142.26,-101.46"/>
<text text-anchor="middle" x="149.33" y="-93.15" font-family="Times,serif" font-size="5.00">&#45;0.840</text>
</g>
<!-- 17379 8&#45;&gt;19180 -->
<g id="edge34" class="edge">
<title>17379 8&#45;&gt;19180</title>
<path fill="none" stroke="red" stroke-width="0.33" stroke-dasharray="1,5" d="M163.76,-77.47C158.1,-82.52 152.03,-87.93 146.24,-93.1"/>
<polygon fill="red" stroke="red" stroke-width="0.33" points="143.72,-90.66 138.59,-99.93 148.38,-95.89 143.72,-90.66"/>
<text text-anchor="middle" x="148.54" y="-86.78" font-family="Times,serif" font-size="5.00">&#45;1.153</text>
</g>
<!-- 21562 0&#45;&gt;0 -->
<g id="edge46" class="edge">
<title>21562 0&#45;&gt;0</title>
<path fill="none" stroke="red" stroke-width="1.28" d="M68.14,-161.62C78.78,-154.88 90.86,-147.22 101.2,-140.67"/>
<polygon fill="red" stroke="red" stroke-width="1.28" points="103.18,-143.56 109.76,-135.26 99.44,-137.65 103.18,-143.56"/>
<text text-anchor="middle" x="90.3" y="-146.65" font-family="Times,serif" font-size="5.00">5.896</text>
</g>
<!-- 21562 0&#45;&gt;19180 -->
<g id="edge56" class="edge">
<title>21562 0&#45;&gt;19180</title>
<path fill="none" stroke="green" stroke-width="0.63" d="M66.42,-158.79C74,-152.83 82.34,-146.26 90.11,-140.15"/>
<polygon fill="green" stroke="green" stroke-width="0.63" points="92.55,-142.68 98.25,-133.75 88.22,-137.18 92.55,-142.68"/>
<text text-anchor="middle" x="75.04" y="-144.97" font-family="Times,serif" font-size="5.00">&#45;2.652</text>
</g>
<!-- 21562 1&#45;&gt;0 -->
<g id="edge47" class="edge">
<title>21562 1&#45;&gt;0</title>
<path fill="none" stroke="red" stroke-width="1.28" d="M63.17,-141.01C74.38,-138.17 86.94,-134.99 97.84,-132.24"/>
<polygon fill="red" stroke="red" stroke-width="1.28" points="98.84,-135.59 107.68,-129.74 97.13,-128.81 98.84,-135.59"/>
<text text-anchor="middle" x="86.13" y="-132.12" font-family="Times,serif" font-size="5.00">4.586</text>
</g>
<!-- 21562 1&#45;&gt;19180 -->
<g id="edge57" class="edge">
<title>21562 1&#45;&gt;19180</title>
<path fill="none" stroke="green" stroke-width="0.63" d="M62.4,-137.91C69.54,-135.33 77.19,-132.56 84.49,-129.92"/>
<polygon fill="green" stroke="green" stroke-width="0.63" points="85.92,-133.13 94.14,-126.44 83.54,-126.54 85.92,-133.13"/>
<text text-anchor="middle" x="79.9" y="-135.42" font-family="Times,serif" font-size="5.00">&#45;2.062</text>
</g>
<!-- 21562 2&#45;&gt;0 -->
<g id="edge48" class="edge">
<title>21562 2&#45;&gt;0</title>
<path fill="none" stroke="red" stroke-width="1.28" d="M93.89,-184.84C99.76,-173.81 106.43,-161.27 112.14,-150.54"/>
<polygon fill="red" stroke="red" stroke-width="1.28" points="115.25,-152.14 116.86,-141.67 109.07,-148.85 115.25,-152.14"/>
<text text-anchor="middle" x="103.01" y="-163.19" font-family="Times,serif" font-size="5.00">3.276</text>
</g>
<!-- 21562 2&#45;&gt;19180 -->
<g id="edge58" class="edge">
<title>21562 2&#45;&gt;19180</title>
<path fill="none" stroke="green" stroke-width="0.63" d="M91.29,-183.41C95.59,-173.16 100.43,-161.61 104.84,-151.08"/>
<polygon fill="green" stroke="green" stroke-width="0.63" points="108.11,-152.33 108.75,-141.76 101.65,-149.63 108.11,-152.33"/>
<text text-anchor="middle" x="104.52" y="-162.74" font-family="Times,serif" font-size="5.00">&#45;1.473</text>
</g>
<!-- 21562 3&#45;&gt;0 -->
<g id="edge49" class="edge">
<title>21562 3&#45;&gt;0</title>
<path fill="none" stroke="red" stroke-width="1.28" d="M76.19,-126.73C82.83,-126.53 89.77,-126.31 96.29,-126.11"/>
<polygon fill="red" stroke="red" stroke-width="1.28" points="96.84,-129.6 106.73,-125.79 96.63,-122.6 96.84,-129.6"/>
<text text-anchor="middle" x="91.87" y="-127.92" font-family="Times,serif" font-size="5.00">1.965</text>
</g>
<!-- 21562 3&#45;&gt;19180 -->
<g id="edge59" class="edge">
<title>21562 3&#45;&gt;19180</title>
<path fill="none" stroke="green" stroke-width="0.63" d="M75.71,-123.38C77.98,-123.07 80.28,-122.76 82.58,-122.44"/>
<polygon fill="green" stroke="green" stroke-width="0.63" points="83.06,-125.91 92.49,-121.09 82.11,-118.98 83.06,-125.91"/>
<text text-anchor="middle" x="85.6" y="-118.41" font-family="Times,serif" font-size="5.00">&#45;0.884</text>
</g>
<!-- 21562 4&#45;&gt;0 -->
<g id="edge50" class="edge">
<title>21562 4&#45;&gt;0</title>
<path fill="none" stroke="red" stroke-width="1.28" d="M66.93,-113.85C76.86,-115.77 87.76,-117.88 97.44,-119.75"/>
<polygon fill="red" stroke="red" stroke-width="1.28" points="96.88,-123.21 107.36,-121.67 98.21,-116.34 96.88,-123.21"/>
<text text-anchor="middle" x="85" y="-112.3" font-family="Times,serif" font-size="5.00">0.655</text>
</g>
<!-- 21562 4&#45;&gt;19180 -->
<g id="edge60" class="edge">
<title>21562 4&#45;&gt;19180</title>
<path fill="none" stroke="green" stroke-width="0.63" d="M67.43,-111.48C72.41,-112.06 77.58,-112.66 82.63,-113.25"/>
<polygon fill="green" stroke="green" stroke-width="0.63" points="82.43,-116.75 92.77,-114.43 83.24,-109.8 82.43,-116.75"/>
<text text-anchor="middle" x="81.49" y="-107.87" font-family="Times,serif" font-size="5.00">&#45;0.295</text>
</g>
<!-- 21562 5&#45;&gt;0 -->
<g id="edge51" class="edge">
<title>21562 5&#45;&gt;0</title>
<path fill="none" stroke="red" stroke-width="1.28" d="M142.26,-151.93C141.74,-151.1 141.23,-150.28 140.72,-149.45"/>
<polygon fill="red" stroke="red" stroke-width="1.28" points="143.67,-147.57 135.41,-140.93 137.72,-151.27 143.67,-147.57"/>
<text text-anchor="middle" x="141.49" y="-146.19" font-family="Times,serif" font-size="5.00">&#45;0.655</text>
</g>
<!-- 21562 5&#45;&gt;19180 -->
<g id="edge61" class="edge">
<title>21562 5&#45;&gt;19180</title>
<path fill="none" stroke="green" stroke-width="0.63" d="M141.7,-152.35C140.74,-150.88 139.77,-149.39 138.79,-147.9"/>
<polygon fill="green" stroke="green" stroke-width="0.63" points="141.7,-145.96 133.31,-139.5 135.84,-149.78 141.7,-145.96"/>
<text text-anchor="middle" x="145.87" y="-151.63" font-family="Times,serif" font-size="5.00">0.295</text>
</g>
<!-- 21562 6&#45;&gt;0 -->
<g id="edge52" class="edge">
<title>21562 6&#45;&gt;0</title>
<path fill="none" stroke="red" stroke-width="1.28" d="M143.67,-171.14C141.25,-164.98 138.71,-158.52 136.33,-152.46"/>
<polygon fill="red" stroke="red" stroke-width="1.28" points="139.44,-150.79 132.52,-142.76 132.92,-153.35 139.44,-150.79"/>
<text text-anchor="middle" x="146.46" y="-163.3" font-family="Times,serif" font-size="5.00">&#45;1.965</text>
</g>
<!-- 21562 6&#45;&gt;19180 -->
<g id="edge62" class="edge">
<title>21562 6&#45;&gt;19180</title>
<path fill="none" stroke="green" stroke-width="0.63" d="M142.48,-171.42C139.61,-164.86 136.56,-157.86 133.63,-151.15"/>
<polygon fill="green" stroke="green" stroke-width="0.63" points="136.67,-149.38 129.46,-141.61 130.26,-152.18 136.67,-149.38"/>
<text text-anchor="middle" x="132.43" y="-162.79" font-family="Times,serif" font-size="5.00">0.884</text>
</g>
<!-- 21562 7&#45;&gt;0 -->
<g id="edge53" class="edge">
<title>21562 7&#45;&gt;0</title>
<path fill="none" stroke="red" stroke-width="1.28" d="M131.13,-176.9C130.31,-169.23 129.45,-161.11 128.65,-153.63"/>
<polygon fill="red" stroke="red" stroke-width="1.28" points="132.12,-153.17 127.58,-143.6 125.16,-153.91 132.12,-153.17"/>
<text text-anchor="middle" x="123.43" y="-160.76" font-family="Times,serif" font-size="5.00">&#45;3.276</text>
</g>
<!-- 21562 7&#45;&gt;19180 -->
<g id="edge63" class="edge">
<title>21562 7&#45;&gt;19180</title>
<path fill="none" stroke="green" stroke-width="0.63" d="M129.14,-177.3C127.82,-169.62 126.41,-161.34 125.07,-153.47"/>
<polygon fill="green" stroke="green" stroke-width="0.63" points="128.49,-152.72 123.36,-143.45 121.59,-153.89 128.49,-152.72"/>
<text text-anchor="middle" x="121.48" y="-166.89" font-family="Times,serif" font-size="5.00">1.473</text>
</g>
<!-- 21562 8&#45;&gt;0 -->
<g id="edge54" class="edge">
<title>21562 8&#45;&gt;0</title>
<path fill="none" stroke="red" stroke-width="1.28" d="M87.96,-109.64C91.52,-111.11 95.15,-112.61 98.67,-114.07"/>
<polygon fill="red" stroke="red" stroke-width="1.28" points="97.62,-117.42 108.19,-118 100.29,-110.95 97.62,-117.42"/>
<text text-anchor="middle" x="96.54" y="-107.35" font-family="Times,serif" font-size="5.00">&#45;4.586</text>
</g>
<!-- 21562 8&#45;&gt;19180 -->
<g id="edge64" class="edge">
<title>21562 8&#45;&gt;19180</title>
<path fill="none" stroke="green" stroke-width="0.63" d="M88.55,-107.41C88.66,-107.44 88.78,-107.48 88.89,-107.52"/>
<polygon fill="green" stroke="green" stroke-width="0.63" points="83.27,-109.34 93.87,-109.17 85.48,-102.7 83.27,-109.34"/>
<text text-anchor="middle" x="91.53" y="-102.96" font-family="Times,serif" font-size="5.00">2.062</text>
</g>
</g>
</svg>
