<?xml version="1.0" encoding="UTF-8" standalone="no"?>
<!DOCTYPE svg PUBLIC "-//W3C//DTD SVG 1.1//EN"
 "http://www.w3.org/Graphics/SVG/1.1/DTD/svg11.dtd">
<!-- Generated by graphviz version 2.47.1 (20210417.1919)
 -->
<!-- Pages: 1 -->
<svg width="278pt" height="236pt"
 viewBox="0.00 0.00 278.50 235.72" xmlns="http://www.w3.org/2000/svg" xmlns:xlink="http://www.w3.org/1999/xlink">
<g id="graph0" class="graph" transform="scale(1 1) rotate(0) translate(4 231.72)">
<polygon fill="white" stroke="transparent" points="-4,4 -4,-231.72 274.5,-231.72 274.5,4 -4,4"/>
<!-- &#45;1 -->
<g id="node1" class="node">
<title>&#45;1</title>
<polygon fill="lightgray" stroke="black" points="270.75,-18.7 246.75,-18.7 246.75,-0.1 270.75,-0.1 270.75,-18.7"/>
<text text-anchor="middle" x="258.75" y="-6.7" font-family="Times,serif" font-size="9.00">&#45;1</text>
</g>
<!-- &#45;2 -->
<g id="node2" class="node">
<title>&#45;2</title>
<polygon fill="lightgray" stroke="black" points="23.75,-118.36 -0.25,-118.36 -0.25,-99.76 23.75,-99.76 23.75,-118.36"/>
<text text-anchor="middle" x="11.75" y="-106.36" font-family="Times,serif" font-size="9.00">&#45;2</text>
</g>
<!-- 0 -->
<g id="node5" class="node">
<title>0</title>
<ellipse fill="lightblue" stroke="black" cx="112.43" cy="-108.69" rx="14.49" ry="14.49"/>
<ellipse fill="none" stroke="black" cx="112.43" cy="-108.69" rx="18.49" ry="18.49"/>
<text text-anchor="middle" x="112.43" y="-105.99" font-family="Times,serif" font-size="9.00">0</text>
</g>
<!-- &#45;2&#45;&gt;0 -->
<g id="edge2" class="edge">
<title>&#45;2&#45;&gt;0</title>
<path fill="none" stroke="green" stroke-width="0.41" stroke-dasharray="1,5" d="M23.69,-109.02C38.35,-108.96 63.7,-108.87 83.57,-108.79"/>
<polygon fill="green" stroke="green" stroke-width="0.41" points="83.66,-112.29 93.65,-108.76 83.64,-105.29 83.66,-112.29"/>
<text text-anchor="middle" x="48" y="-110.41" font-family="Times,serif" font-size="5.00">1.543</text>
</g>
<!-- &#45;3 -->
<g id="node3" class="node">
<title>&#45;3</title>
<polygon fill="lightgray" stroke="black" points="141.29,-130.97 117.29,-130.97 117.29,-112.36 141.29,-112.36 141.29,-130.97"/>
<text text-anchor="middle" x="129.29" y="-118.97" font-family="Times,serif" font-size="9.00">&#45;3</text>
</g>
<!-- 12789 -->
<g id="node6" class="node">
<title>12789</title>
<ellipse fill="white" stroke="black" cx="148.51" cy="-190.84" rx="22.04" ry="22.04"/>
<text text-anchor="middle" x="148.51" y="-188.14" font-family="Times,serif" font-size="9.00">tanh</text>
</g>
<!-- &#45;3&#45;&gt;12789 -->
<g id="edge13" class="edge">
<title>&#45;3&#45;&gt;12789</title>
<path fill="none" stroke="green" stroke-width="0.18" d="M131.88,-130.99C133.93,-138.37 136.92,-149.12 139.8,-159.48"/>
<polygon fill="green" stroke="green" stroke-width="0.18" points="136.44,-160.47 142.49,-169.17 143.18,-158.6 136.44,-160.47"/>
<text text-anchor="middle" x="129.38" y="-146.74" font-family="Times,serif" font-size="5.00">&#45;0.399</text>
</g>
<!-- 12789 0 -->
<g id="node7" class="node">
<title>12789 0</title>
<ellipse fill="none" stroke="black" cx="69.98" cy="-180.36" rx="31.99" ry="31.99"/>
<text text-anchor="middle" x="69.98" y="-177.66" font-family="Times,serif" font-size="9.00">12789 0</text>
</g>
<!-- &#45;3&#45;&gt;12789 0 -->
<g id="edge3" class="edge">
<title>&#45;3&#45;&gt;12789 0</title>
<path fill="none" stroke="green" stroke-width="0.18" d="M119.76,-131.1C114.31,-136.49 107.14,-143.59 99.94,-150.71"/>
<polygon fill="green" stroke="green" stroke-width="0.18" points="97.45,-148.25 92.8,-157.77 102.37,-153.23 97.45,-148.25"/>
<text text-anchor="middle" x="103.39" y="-142.4" font-family="Times,serif" font-size="5.00">&#45;0.399</text>
</g>
<!-- 12789 1 -->
<g id="node8" class="node">
<title>12789 1</title>
<ellipse fill="none" stroke="black" cx="48.02" cy="-80.48" rx="31.99" ry="31.99"/>
<text text-anchor="middle" x="48.02" y="-77.78" font-family="Times,serif" font-size="9.00">12789 1</text>
</g>
<!-- &#45;3&#45;&gt;12789 1 -->
<g id="edge4" class="edge">
<title>&#45;3&#45;&gt;12789 1</title>
<path fill="none" stroke="green" stroke-width="0.18" d="M117.3,-115.59C108.87,-111.31 97.09,-105.35 85.63,-99.54"/>
<polygon fill="green" stroke="green" stroke-width="0.18" points="87.08,-96.35 76.58,-94.95 83.92,-102.6 87.08,-96.35"/>
<text text-anchor="middle" x="95.01" y="-109.06" font-family="Times,serif" font-size="5.00">&#45;0.399</text>
</g>
<!-- 12789 2 -->
<g id="node9" class="node">
<title>12789 2</title>
<ellipse fill="none" stroke="black" cx="196.55" cy="-84.53" rx="31.99" ry="31.99"/>
<text text-anchor="middle" x="196.55" y="-81.83" font-family="Times,serif" font-size="9.00">12789 2</text>
</g>
<!-- &#45;3&#45;&gt;12789 2 -->
<g id="edge5" class="edge">
<title>&#45;3&#45;&gt;12789 2</title>
<path fill="none" stroke="green" stroke-width="0.18" d="M141.31,-115.03C146.51,-112.16 152.9,-108.63 159.47,-105"/>
<polygon fill="green" stroke="green" stroke-width="0.18" points="161.37,-107.95 168.43,-100.05 157.99,-101.82 161.37,-107.95"/>
<text text-anchor="middle" x="143.93" y="-105.52" font-family="Times,serif" font-size="5.00">&#45;0.399</text>
</g>
<!-- 12789 3 -->
<g id="node10" class="node">
<title>12789 3</title>
<ellipse fill="none" stroke="black" cx="76.44" cy="-51.87" rx="31.99" ry="31.99"/>
<text text-anchor="middle" x="76.44" y="-49.17" font-family="Times,serif" font-size="9.00">12789 3</text>
</g>
<!-- &#45;3&#45;&gt;12789 3 -->
<g id="edge6" class="edge">
<title>&#45;3&#45;&gt;12789 3</title>
<path fill="none" stroke="green" stroke-width="0.18" d="M122.16,-112.25C116.92,-105.34 109.46,-95.48 102.08,-85.73"/>
<polygon fill="green" stroke="green" stroke-width="0.18" points="104.78,-83.49 95.95,-77.63 99.2,-87.72 104.78,-83.49"/>
<text text-anchor="middle" x="105.66" y="-100.49" font-family="Times,serif" font-size="5.00">&#45;0.399</text>
</g>
<!-- 12789 4 -->
<g id="node11" class="node">
<title>12789 4</title>
<ellipse fill="none" stroke="black" cx="174.18" cy="-51.11" rx="31.99" ry="31.99"/>
<text text-anchor="middle" x="174.18" y="-48.41" font-family="Times,serif" font-size="9.00">12789 4</text>
</g>
<!-- &#45;3&#45;&gt;12789 4 -->
<g id="edge7" class="edge">
<title>&#45;3&#45;&gt;12789 4</title>
<path fill="none" stroke="green" stroke-width="0.18" d="M135.34,-112.15C139.56,-105.53 145.47,-96.24 151.41,-86.9"/>
<polygon fill="green" stroke="green" stroke-width="0.18" points="154.41,-88.71 156.82,-78.39 148.5,-84.95 154.41,-88.71"/>
<text text-anchor="middle" x="143.38" y="-95.03" font-family="Times,serif" font-size="5.00">&#45;0.399</text>
</g>
<!-- 12789 5 -->
<g id="node12" class="node">
<title>12789 5</title>
<ellipse fill="none" stroke="black" cx="137.68" cy="-37" rx="31.99" ry="31.99"/>
<text text-anchor="middle" x="137.68" y="-34.3" font-family="Times,serif" font-size="9.00">12789 5</text>
</g>
<!-- &#45;3&#45;&gt;12789 5 -->
<g id="edge8" class="edge">
<title>&#45;3&#45;&gt;12789 5</title>
<path fill="none" stroke="green" stroke-width="0.18" d="M130.22,-112.28C131.02,-104.14 132.25,-91.75 133.48,-79.35"/>
<polygon fill="green" stroke="green" stroke-width="0.18" points="137,-79.33 134.5,-69.03 130.03,-78.64 137,-79.33"/>
<text text-anchor="middle" x="138.31" y="-91.32" font-family="Times,serif" font-size="5.00">&#45;0.399</text>
</g>
<!-- 12789 6 -->
<g id="node13" class="node">
<title>12789 6</title>
<ellipse fill="none" stroke="black" cx="47.86" cy="-148.01" rx="31.99" ry="31.99"/>
<text text-anchor="middle" x="47.86" y="-145.31" font-family="Times,serif" font-size="9.00">12789 6</text>
</g>
<!-- &#45;3&#45;&gt;12789 6 -->
<g id="edge9" class="edge">
<title>&#45;3&#45;&gt;12789 6</title>
<path fill="none" stroke="green" stroke-width="0.18" d="M117.27,-125.55C109.48,-128.07 98.84,-131.52 88.23,-134.95"/>
<polygon fill="green" stroke="green" stroke-width="0.18" points="87.01,-131.67 78.58,-138.07 89.17,-138.33 87.01,-131.67"/>
<text text-anchor="middle" x="96.3" y="-131.75" font-family="Times,serif" font-size="5.00">&#45;0.399</text>
</g>
<!-- 12789 7 -->
<g id="node14" class="node">
<title>12789 7</title>
<ellipse fill="none" stroke="black" cx="201.03" cy="-125.96" rx="31.99" ry="31.99"/>
<text text-anchor="middle" x="201.03" y="-123.26" font-family="Times,serif" font-size="9.00">12789 7</text>
</g>
<!-- &#45;3&#45;&gt;12789 7 -->
<g id="edge10" class="edge">
<title>&#45;3&#45;&gt;12789 7</title>
<path fill="none" stroke="green" stroke-width="0.18" d="M141.13,-122.38C146.15,-122.68 152.32,-123.05 158.78,-123.43"/>
<polygon fill="green" stroke="green" stroke-width="0.18" points="158.85,-126.94 169.04,-124.05 159.27,-119.96 158.85,-126.94"/>
<text text-anchor="middle" x="156.42" y="-124.4" font-family="Times,serif" font-size="5.00">&#45;0.399</text>
</g>
<!-- 12789 8 -->
<g id="node15" class="node">
<title>12789 8</title>
<ellipse fill="none" stroke="black" cx="183.64" cy="-165.84" rx="31.99" ry="31.99"/>
<text text-anchor="middle" x="183.64" y="-163.14" font-family="Times,serif" font-size="9.00">12789 8</text>
</g>
<!-- &#45;3&#45;&gt;12789 8 -->
<g id="edge11" class="edge">
<title>&#45;3&#45;&gt;12789 8</title>
<path fill="none" stroke="green" stroke-width="0.18" d="M140.81,-131.03C143.84,-133.49 147.26,-136.27 150.81,-139.16"/>
<polygon fill="green" stroke="green" stroke-width="0.18" points="148.74,-141.99 158.71,-145.58 153.16,-136.55 148.74,-141.99"/>
<text text-anchor="middle" x="139.36" y="-136.6" font-family="Times,serif" font-size="5.00">&#45;0.399</text>
</g>
<!-- 12789 9 -->
<g id="node16" class="node">
<title>12789 9</title>
<ellipse fill="none" stroke="black" cx="107.1" cy="-195.73" rx="31.99" ry="31.99"/>
<text text-anchor="middle" x="107.1" y="-193.03" font-family="Times,serif" font-size="9.00">12789 9</text>
</g>
<!-- &#45;3&#45;&gt;12789 9 -->
<g id="edge12" class="edge">
<title>&#45;3&#45;&gt;12789 9</title>
<path fill="none" stroke="green" stroke-width="0.18" d="M126.48,-131.05C124.59,-137.33 121.97,-146.09 119.26,-155.14"/>
<polygon fill="green" stroke="green" stroke-width="0.18" points="115.83,-154.38 116.31,-164.96 122.54,-156.39 115.83,-154.38"/>
<text text-anchor="middle" x="116.41" y="-144.59" font-family="Times,serif" font-size="5.00">&#45;0.399</text>
</g>
<!-- &#45;4 -->
<g id="node4" class="node">
<title>&#45;4</title>
<polygon fill="lightgray" stroke="black" points="102.08,-18.7 78.08,-18.7 78.08,-0.1 102.08,-0.1 102.08,-18.7"/>
<text text-anchor="middle" x="90.08" y="-6.7" font-family="Times,serif" font-size="9.00">&#45;4</text>
</g>
<!-- &#45;4&#45;&gt;0 -->
<g id="edge1" class="edge">
<title>&#45;4&#45;&gt;0</title>
<path fill="none" stroke="green" stroke-width="0.32" stroke-dasharray="1,5" d="M92.22,-18.92C95.38,-32.95 101.42,-59.77 106.07,-80.45"/>
<polygon fill="green" stroke="green" stroke-width="0.32" points="102.68,-81.33 108.29,-90.32 109.51,-79.79 102.68,-81.33"/>
<text text-anchor="middle" x="99.15" y="-45.18" font-family="Times,serif" font-size="5.00">1.087</text>
</g>
<!-- 12789&#45;&gt;0 -->
<g id="edge24" class="edge">
<title>12789&#45;&gt;0</title>
<path fill="none" stroke="green" stroke-width="1.22" d="M139.4,-170.11C134.75,-159.52 129.04,-146.52 124.08,-135.21"/>
<polygon fill="green" stroke="green" stroke-width="1.22" points="127.17,-133.56 119.95,-125.81 120.77,-136.37 127.17,-133.56"/>
<text text-anchor="middle" x="126.12" y="-154.16" font-family="Times,serif" font-size="5.00">5.609</text>
</g>
<!-- 12789 0&#45;&gt;0 -->
<g id="edge14" class="edge">
<title>12789 0&#45;&gt;0</title>
<path fill="none" stroke="green" stroke-width="1.22" d="M86.51,-152.44C90.27,-146.11 94.23,-139.42 97.89,-133.23"/>
<polygon fill="green" stroke="green" stroke-width="1.22" points="100.9,-135.02 102.99,-124.63 94.88,-131.45 100.9,-135.02"/>
<text text-anchor="middle" x="85.75" y="-144.34" font-family="Times,serif" font-size="5.00">&#45;5.609</text>
</g>
<!-- 12789 1&#45;&gt;0 -->
<g id="edge15" class="edge">
<title>12789 1&#45;&gt;0</title>
<path fill="none" stroke="green" stroke-width="1.22" d="M77.58,-93.43C80.44,-94.68 83.32,-95.94 86.13,-97.17"/>
<polygon fill="green" stroke="green" stroke-width="1.22" points="84.78,-100.4 95.34,-101.2 87.59,-93.99 84.78,-100.4"/>
<text text-anchor="middle" x="88.32" y="-90.8" font-family="Times,serif" font-size="5.00">&#45;4.487</text>
</g>
<!-- 12789 2&#45;&gt;0 -->
<g id="edge16" class="edge">
<title>12789 2&#45;&gt;0</title>
<path fill="none" stroke="green" stroke-width="1.22" d="M165.71,-93.39C157.4,-95.77 148.46,-98.34 140.32,-100.68"/>
<polygon fill="green" stroke="green" stroke-width="1.22" points="139.2,-97.36 130.55,-103.48 141.13,-104.09 139.2,-97.36"/>
<text text-anchor="middle" x="156.24" y="-92.53" font-family="Times,serif" font-size="5.00">&#45;3.365</text>
</g>
<!-- 12789 3&#45;&gt;0 -->
<g id="edge17" class="edge">
<title>12789 3&#45;&gt;0</title>
<path fill="none" stroke="green" stroke-width="1.22" d="M93.59,-78.95C94.73,-80.75 95.88,-82.56 97.01,-84.34"/>
<polygon fill="green" stroke="green" stroke-width="1.22" points="94.16,-86.38 102.47,-92.96 100.07,-82.64 94.16,-86.38"/>
<text text-anchor="middle" x="88.84" y="-83.15" font-family="Times,serif" font-size="5.00">&#45;2.243</text>
</g>
<!-- 12789 4&#45;&gt;0 -->
<g id="edge18" class="edge">
<title>12789 4&#45;&gt;0</title>
<path fill="none" stroke="green" stroke-width="1.22" d="M150.48,-73.21C144.91,-78.4 139,-83.91 133.55,-89"/>
<polygon fill="green" stroke="green" stroke-width="1.22" points="130.9,-86.68 125.97,-96.06 135.67,-91.8 130.9,-86.68"/>
<text text-anchor="middle" x="135.56" y="-82.6" font-family="Times,serif" font-size="5.00">&#45;1.122</text>
</g>
<!-- 12789 5&#45;&gt;0 -->
<g id="edge19" class="edge">
<title>12789 5&#45;&gt;0</title>
<path fill="none" stroke="green" stroke-width="1.22" d="M126.97,-67.4C125.32,-72.08 123.63,-76.88 122.01,-81.49"/>
<polygon fill="green" stroke="green" stroke-width="1.22" points="118.64,-80.51 118.62,-91.11 125.24,-82.84 118.64,-80.51"/>
<text text-anchor="middle" x="118.86" y="-75.94" font-family="Times,serif" font-size="5.00">0.000</text>
</g>
<!-- 12789 6&#45;&gt;0 -->
<g id="edge20" class="edge">
<title>12789 6&#45;&gt;0</title>
<path fill="none" stroke="green" stroke-width="1.22" d="M75.25,-131.34C79.46,-128.77 83.78,-126.13 87.93,-123.61"/>
<polygon fill="green" stroke="green" stroke-width="1.22" points="89.88,-126.52 96.6,-118.33 86.23,-120.54 89.88,-126.52"/>
<text text-anchor="middle" x="87.21" y="-122.97" font-family="Times,serif" font-size="5.00">1.122</text>
</g>
<!-- 12789 7&#45;&gt;0 -->
<g id="edge21" class="edge">
<title>12789 7&#45;&gt;0</title>
<path fill="none" stroke="green" stroke-width="1.22" d="M169.54,-119.82C160.07,-117.98 149.75,-115.97 140.52,-114.17"/>
<polygon fill="green" stroke="green" stroke-width="1.22" points="141.15,-110.72 130.66,-112.24 139.81,-117.59 141.15,-110.72"/>
<text text-anchor="middle" x="149.41" y="-112.5" font-family="Times,serif" font-size="5.00">2.243</text>
</g>
<!-- 12789 8&#45;&gt;0 -->
<g id="edge22" class="edge">
<title>12789 8&#45;&gt;0</title>
<path fill="none" stroke="green" stroke-width="1.22" d="M158.33,-145.53C150.75,-139.44 142.48,-132.81 135.08,-126.86"/>
<polygon fill="green" stroke="green" stroke-width="1.22" points="136.87,-123.81 126.88,-120.28 132.49,-129.27 136.87,-123.81"/>
<text text-anchor="middle" x="146.7" y="-131.7" font-family="Times,serif" font-size="5.00">3.365</text>
</g>
<!-- 12789 9&#45;&gt;0 -->
<g id="edge23" class="edge">
<title>12789 9&#45;&gt;0</title>
<path fill="none" stroke="green" stroke-width="1.22" d="M109.08,-163.32C109.61,-154.75 110.17,-145.57 110.68,-137.23"/>
<polygon fill="green" stroke="green" stroke-width="1.22" points="114.18,-137.42 111.29,-127.22 107.19,-136.99 114.18,-137.42"/>
<text text-anchor="middle" x="115.51" y="-151.77" font-family="Times,serif" font-size="5.00">4.487</text>
</g>
</g>
</svg>
