<?xml version="1.0" encoding="UTF-8" standalone="no"?>
<!DOCTYPE svg PUBLIC "-//W3C//DTD SVG 1.1//EN"
 "http://www.w3.org/Graphics/SVG/1.1/DTD/svg11.dtd">
<!-- Generated by graphviz version 2.47.1 (20210417.1919)
 -->
<!-- Pages: 1 -->
<svg width="218pt" height="213pt"
 viewBox="0.00 0.00 218.15 213.33" xmlns="http://www.w3.org/2000/svg" xmlns:xlink="http://www.w3.org/1999/xlink">
<g id="graph0" class="graph" transform="scale(1 1) rotate(0) translate(4 209.33)">
<polygon fill="white" stroke="transparent" points="-4,4 -4,-209.33 214.15,-209.33 214.15,4 -4,4"/>
<!-- &#45;1 -->
<g id="node1" class="node">
<title>&#45;1</title>
<polygon fill="lightgray" stroke="black" points="28.84,-165.95 4.84,-165.95 4.84,-147.35 28.84,-147.35 28.84,-165.95"/>
<text text-anchor="middle" x="16.84" y="-153.95" font-family="Times,serif" font-size="9.00">&#45;1</text>
</g>
<!-- 0 -->
<g id="node5" class="node">
<title>0</title>
<ellipse fill="lightblue" stroke="black" cx="92.58" cy="-109.73" rx="14.49" ry="14.49"/>
<ellipse fill="none" stroke="black" cx="92.58" cy="-109.73" rx="18.49" ry="18.49"/>
<text text-anchor="middle" x="92.58" y="-107.03" font-family="Times,serif" font-size="9.00">0</text>
</g>
<!-- &#45;1&#45;&gt;0 -->
<g id="edge1" class="edge">
<title>&#45;1&#45;&gt;0</title>
<path fill="none" stroke="green" stroke-width="0.35" d="M28.67,-149.32C39.15,-142.82 54.79,-133.14 67.97,-124.97"/>
<polygon fill="green" stroke="green" stroke-width="0.35" points="69.95,-127.86 76.61,-119.62 66.27,-121.91 69.95,-127.86"/>
<text text-anchor="middle" x="41.87" y="-138.64" font-family="Times,serif" font-size="5.00">&#45;1.237</text>
</g>
<!-- &#45;2 -->
<g id="node2" class="node">
<title>&#45;2</title>
<polygon fill="lightgray" stroke="black" points="134.37,-99.62 110.37,-99.62 110.37,-81.02 134.37,-81.02 134.37,-99.62"/>
<text text-anchor="middle" x="122.37" y="-87.62" font-family="Times,serif" font-size="9.00">&#45;2</text>
</g>
<!-- &#45;2&#45;&gt;0 -->
<g id="edge2" class="edge">
<title>&#45;2&#45;&gt;0</title>
<path fill="none" stroke="green" stroke-width="0.41" d="M110.6,-97.99C110.5,-98.05 110.4,-98.12 110.3,-98.18"/>
<polygon fill="green" stroke="green" stroke-width="0.41" points="114.69,-91.14 108.23,-99.53 118.52,-97.01 114.69,-91.14"/>
<text text-anchor="middle" x="116.91" y="-99.58" font-family="Times,serif" font-size="5.00">&#45;1.535</text>
</g>
<!-- 2732 -->
<g id="node6" class="node">
<title>2732</title>
<ellipse fill="white" stroke="black" cx="135" cy="-171.5" rx="31.65" ry="31.65"/>
<text text-anchor="middle" x="135" y="-168.8" font-family="Times,serif" font-size="9.00">sigmoid</text>
</g>
<!-- &#45;2&#45;&gt;2732 -->
<g id="edge14" class="edge">
<title>&#45;2&#45;&gt;2732</title>
<path fill="none" stroke="green" stroke-width="0.3" d="M123.82,-99.63C125,-107.23 126.76,-118.55 128.54,-129.97"/>
<polygon fill="green" stroke="green" stroke-width="0.3" points="125.09,-130.59 130.09,-139.93 132.01,-129.51 125.09,-130.59"/>
<text text-anchor="middle" x="120.55" y="-116.3" font-family="Times,serif" font-size="5.00">1.015</text>
</g>
<!-- 2472 -->
<g id="node7" class="node">
<title>2472</title>
<ellipse fill="white" stroke="black" cx="45.71" cy="-55.02" rx="35.19" ry="35.19"/>
<text text-anchor="middle" x="45.71" y="-52.32" font-family="Times,serif" font-size="9.00">heaviside</text>
</g>
<!-- &#45;2&#45;&gt;2472 -->
<g id="edge8" class="edge">
<title>&#45;2&#45;&gt;2472</title>
<path fill="none" stroke="green" stroke-width="0.24" d="M110.39,-84.8C104.02,-81.87 95.77,-78.07 87.3,-74.17"/>
<polygon fill="green" stroke="green" stroke-width="0.24" points="88.66,-70.94 78.11,-69.94 85.73,-77.3 88.66,-70.94"/>
<text text-anchor="middle" x="93.22" y="-80.99" font-family="Times,serif" font-size="5.00">0.718</text>
</g>
<!-- 2472 0 -->
<g id="node8" class="node">
<title>2472 0</title>
<ellipse fill="none" stroke="black" cx="175.1" cy="-137.48" rx="28.63" ry="28.63"/>
<text text-anchor="middle" x="175.1" y="-134.78" font-family="Times,serif" font-size="9.00">2472 0</text>
</g>
<!-- &#45;2&#45;&gt;2472 0 -->
<g id="edge6" class="edge">
<title>&#45;2&#45;&gt;2472 0</title>
<path fill="none" stroke="green" stroke-width="0.24" d="M132.79,-99.64C136.55,-103.01 141.02,-107 145.61,-111.11"/>
<polygon fill="green" stroke="green" stroke-width="0.24" points="143.58,-113.98 153.36,-118.04 148.24,-108.76 143.58,-113.98"/>
<text text-anchor="middle" x="133.57" y="-100.87" font-family="Times,serif" font-size="5.00">0.718</text>
</g>
<!-- 2472 1 -->
<g id="node9" class="node">
<title>2472 1</title>
<ellipse fill="none" stroke="black" cx="28.81" cy="-100.76" rx="28.63" ry="28.63"/>
<text text-anchor="middle" x="28.81" y="-98.06" font-family="Times,serif" font-size="9.00">2472 1</text>
</g>
<!-- &#45;2&#45;&gt;2472 1 -->
<g id="edge7" class="edge">
<title>&#45;2&#45;&gt;2472 1</title>
<path fill="none" stroke="green" stroke-width="0.24" d="M110.52,-91.64C99.81,-92.84 83.43,-94.67 68.15,-96.37"/>
<polygon fill="green" stroke="green" stroke-width="0.24" points="67.37,-92.94 57.82,-97.52 68.15,-99.89 67.37,-92.94"/>
<text text-anchor="middle" x="94.96" y="-89.51" font-family="Times,serif" font-size="5.00">0.718</text>
</g>
<!-- 2732 0 -->
<g id="node10" class="node">
<title>2732 0</title>
<ellipse fill="none" stroke="black" cx="181.33" cy="-75.96" rx="28.63" ry="28.63"/>
<text text-anchor="middle" x="181.33" y="-73.26" font-family="Times,serif" font-size="9.00">2732 0</text>
</g>
<!-- &#45;2&#45;&gt;2732 0 -->
<g id="edge12" class="edge">
<title>&#45;2&#45;&gt;2732 0</title>
<path fill="none" stroke="green" stroke-width="0.3" d="M134.3,-87.41C137.06,-86.74 140.14,-85.99 143.37,-85.2"/>
<polygon fill="green" stroke="green" stroke-width="0.3" points="144.45,-88.54 153.33,-82.78 142.79,-81.74 144.45,-88.54"/>
<text text-anchor="middle" x="144.46" y="-87.81" font-family="Times,serif" font-size="5.00">1.015</text>
</g>
<!-- 2732 1 -->
<g id="node11" class="node">
<title>2732 1</title>
<ellipse fill="none" stroke="black" cx="137.02" cy="-28.81" rx="28.63" ry="28.63"/>
<text text-anchor="middle" x="137.02" y="-26.11" font-family="Times,serif" font-size="9.00">2732 1</text>
</g>
<!-- &#45;2&#45;&gt;2732 1 -->
<g id="edge13" class="edge">
<title>&#45;2&#45;&gt;2732 1</title>
<path fill="none" stroke="green" stroke-width="0.3" d="M124.59,-80.98C125.53,-77.05 126.69,-72.19 127.92,-67.03"/>
<polygon fill="green" stroke="green" stroke-width="0.3" points="131.41,-67.45 130.33,-56.91 124.6,-65.83 131.41,-67.45"/>
<text text-anchor="middle" x="120.63" y="-75.5" font-family="Times,serif" font-size="5.00">1.015</text>
</g>
<!-- &#45;3 -->
<g id="node3" class="node">
<title>&#45;3</title>
<polygon fill="lightgray" stroke="black" points="80.05,-22.72 56.05,-22.72 56.05,-4.11 80.05,-4.11 80.05,-22.72"/>
<text text-anchor="middle" x="68.05" y="-10.72" font-family="Times,serif" font-size="9.00">&#45;3</text>
</g>
<!-- &#45;3&#45;&gt;0 -->
<g id="edge5" class="edge">
<title>&#45;3&#45;&gt;0</title>
<path fill="none" stroke="green" stroke-width="0.37" stroke-dasharray="1,5" d="M70.49,-23C73.96,-36.62 80.45,-62.1 85.5,-81.93"/>
<polygon fill="green" stroke="green" stroke-width="0.37" points="82.13,-82.87 87.99,-91.7 88.91,-81.14 82.13,-82.87"/>
<text text-anchor="middle" x="84.45" y="-53.97" font-family="Times,serif" font-size="5.00">&#45;1.343</text>
</g>
<!-- &#45;4 -->
<g id="node4" class="node">
<title>&#45;4</title>
<polygon fill="lightgray" stroke="black" points="87.34,-205.23 63.34,-205.23 63.34,-186.63 87.34,-186.63 87.34,-205.23"/>
<text text-anchor="middle" x="75.34" y="-193.23" font-family="Times,serif" font-size="9.00">&#45;4</text>
</g>
<!-- &#45;4&#45;&gt;0 -->
<g id="edge3" class="edge">
<title>&#45;4&#45;&gt;0</title>
<path fill="none" stroke="green" stroke-width="0.35" stroke-dasharray="1,5" d="M77.25,-186.38C79.57,-174.76 83.6,-154.63 86.94,-137.92"/>
<polygon fill="green" stroke="green" stroke-width="0.35" points="90.38,-138.55 88.91,-128.06 83.52,-137.18 90.38,-138.55"/>
<text text-anchor="middle" x="76.47" y="-163.65" font-family="Times,serif" font-size="5.00">1.236</text>
</g>
<!-- 0&#45;&gt;0 -->
<g id="edge4" class="edge">
<title>0&#45;&gt;0</title>
<path fill="none" stroke="green" stroke-width="0.45" stroke-dasharray="1,5" d="M110.23,-116.15C120.04,-117.35 129.08,-115.21 129.08,-109.73 129.08,-106.3 125.55,-104.18 120.51,-103.36"/>
<polygon fill="green" stroke="green" stroke-width="0.45" points="120.25,-99.86 110.23,-103.3 120.21,-106.86 120.25,-99.86"/>
<text text-anchor="middle" x="134.7" y="-108.23" font-family="Times,serif" font-size="5.00">1.746</text>
</g>
<!-- 2732&#45;&gt;0 -->
<g id="edge17" class="edge">
<title>2732&#45;&gt;0</title>
<path fill="none" stroke="green" stroke-width="0.26" d="M116.76,-144.95C114.14,-141.12 111.45,-137.2 108.86,-133.44"/>
<polygon fill="green" stroke="green" stroke-width="0.26" points="111.64,-131.3 103.09,-125.04 105.87,-135.26 111.64,-131.3"/>
<text text-anchor="middle" x="107.19" y="-134.69" font-family="Times,serif" font-size="5.00">0.787</text>
</g>
<!-- 2472&#45;&gt;0 -->
<g id="edge11" class="edge">
<title>2472&#45;&gt;0</title>
<path fill="none" stroke="red" stroke-width="0.26" d="M68.87,-82.05C70.48,-83.93 72.1,-85.82 73.68,-87.66"/>
<polygon fill="red" stroke="red" stroke-width="0.26" points="71.19,-90.13 80.35,-95.45 76.5,-85.58 71.19,-90.13"/>
<text text-anchor="middle" x="77.73" y="-86.36" font-family="Times,serif" font-size="5.00">&#45;0.792</text>
</g>
<!-- 2472 0&#45;&gt;0 -->
<g id="edge9" class="edge">
<title>2472 0&#45;&gt;0</title>
<path fill="none" stroke="red" stroke-width="0.26" d="M147.62,-128.24C138.76,-125.26 128.95,-121.96 120.09,-118.98"/>
<polygon fill="red" stroke="red" stroke-width="0.26" points="121.19,-115.66 110.6,-115.79 118.96,-122.29 121.19,-115.66"/>
<text text-anchor="middle" x="127.4" y="-125.11" font-family="Times,serif" font-size="5.00">&#45;0.792</text>
</g>
<!-- 2472 1&#45;&gt;0 -->
<g id="edge10" class="edge">
<title>2472 1&#45;&gt;0</title>
<path fill="none" stroke="red" stroke-width="0.26" d="M57.71,-104.82C59.79,-105.12 61.88,-105.41 63.96,-105.7"/>
<polygon fill="red" stroke="red" stroke-width="0.26" points="63.62,-109.19 74.01,-107.12 64.59,-102.26 63.62,-109.19"/>
<text text-anchor="middle" x="67.29" y="-106.76" font-family="Times,serif" font-size="5.00">&#45;0.792</text>
</g>
<!-- 2732 0&#45;&gt;0 -->
<g id="edge15" class="edge">
<title>2732 0&#45;&gt;0</title>
<path fill="none" stroke="green" stroke-width="0.26" d="M154.22,-86.27C143.21,-90.46 130.53,-95.29 119.54,-99.47"/>
<polygon fill="green" stroke="green" stroke-width="0.26" points="118.12,-96.26 110.02,-103.09 120.61,-102.81 118.12,-96.26"/>
<text text-anchor="middle" x="142.51" y="-94.37" font-family="Times,serif" font-size="5.00">0.787</text>
</g>
<!-- 2732 1&#45;&gt;0 -->
<g id="edge16" class="edge">
<title>2732 1&#45;&gt;0</title>
<path fill="none" stroke="green" stroke-width="0.26" d="M122.96,-54.42C117.7,-64 111.72,-74.87 106.47,-84.43"/>
<polygon fill="green" stroke="green" stroke-width="0.26" points="103.27,-83 101.52,-93.45 109.4,-86.37 103.27,-83"/>
<text text-anchor="middle" x="109.09" y="-70.92" font-family="Times,serif" font-size="5.00">0.787</text>
</g>
</g>
</svg>
