<?xml version="1.0" encoding="UTF-8" standalone="no"?>
<!DOCTYPE svg PUBLIC "-//W3C//DTD SVG 1.1//EN"
 "http://www.w3.org/Graphics/SVG/1.1/DTD/svg11.dtd">
<!-- Generated by graphviz version 2.47.1 (20210417.1919)
 -->
<!-- Pages: 1 -->
<svg width="391pt" height="298pt"
 viewBox="0.00 0.00 391.21 297.76" xmlns="http://www.w3.org/2000/svg" xmlns:xlink="http://www.w3.org/1999/xlink">
<g id="graph0" class="graph" transform="scale(1 1) rotate(0) translate(4 293.76)">
<polygon fill="white" stroke="transparent" points="-4,4 -4,-293.76 387.21,-293.76 387.21,4 -4,4"/>
<!-- &#45;1 -->
<g id="node1" class="node">
<title>&#45;1</title>
<polygon fill="lightgray" stroke="black" points="294.87,-103.29 270.87,-103.29 270.87,-84.69 294.87,-84.69 294.87,-103.29"/>
<text text-anchor="middle" x="282.87" y="-91.29" font-family="Times,serif" font-size="9.00">&#45;1</text>
</g>
<!-- 17024 -->
<g id="node6" class="node">
<title>17024</title>
<ellipse fill="white" stroke="black" cx="259.84" cy="-131.38" rx="35.19" ry="35.19"/>
<text text-anchor="middle" x="259.84" y="-128.68" font-family="Times,serif" font-size="9.00">heaviside</text>
</g>
<!-- &#45;1&#45;&gt;17024 -->
<g id="edge8" class="edge">
<title>&#45;1&#45;&gt;17024</title>
<path fill="none" stroke="red" stroke-width="0.13" stroke-dasharray="1,5" d="M277.06,-103.42C277.03,-103.47 277.01,-103.51 276.98,-103.55"/>
<polygon fill="red" stroke="red" stroke-width="0.13" points="279.16,-93.33 276.9,-103.68 285.13,-97 279.16,-93.33"/>
<text text-anchor="middle" x="282.64" y="-104.99" font-family="Times,serif" font-size="5.00">0.126</text>
</g>
<!-- 14861 -->
<g id="node9" class="node">
<title>14861</title>
<ellipse fill="white" stroke="black" cx="228.49" cy="-173.68" rx="31.67" ry="31.67"/>
<ellipse fill="none" stroke="black" cx="228.49" cy="-173.68" rx="35.65" ry="35.65"/>
<text text-anchor="middle" x="228.49" y="-170.98" font-family="Times,serif" font-size="9.00">sigmoid</text>
</g>
<!-- &#45;1&#45;&gt;14861 -->
<g id="edge4" class="edge">
<title>&#45;1&#45;&gt;14861</title>
<path fill="none" stroke="red" stroke-width="0.27" stroke-dasharray="1,5" d="M276.42,-103.44C270.94,-111.47 262.69,-123.55 254.58,-135.44"/>
<polygon fill="red" stroke="red" stroke-width="0.27" points="251.48,-133.77 248.74,-144.01 257.26,-137.72 251.48,-133.77"/>
<text text-anchor="middle" x="259.04" y="-120.94" font-family="Times,serif" font-size="5.00">&#45;0.830</text>
</g>
<!-- 18418 -->
<g id="node11" class="node">
<title>18418</title>
<ellipse fill="white" stroke="black" cx="253.51" cy="-31.82" rx="31.65" ry="31.65"/>
<text text-anchor="middle" x="253.51" y="-29.12" font-family="Times,serif" font-size="9.00">sigmoid</text>
</g>
<!-- &#45;1&#45;&gt;18418 -->
<g id="edge54" class="edge">
<title>&#45;1&#45;&gt;18418</title>
<path fill="none" stroke="green" stroke-width="0.31" d="M278.41,-84.55C276.48,-80.46 274.08,-75.37 271.53,-69.99"/>
<polygon fill="green" stroke="green" stroke-width="0.31" points="274.61,-68.32 267.18,-60.77 268.29,-71.31 274.61,-68.32"/>
<text text-anchor="middle" x="269.35" y="-78.77" font-family="Times,serif" font-size="5.00">1.052</text>
</g>
<!-- 18418 0 -->
<g id="node26" class="node">
<title>18418 0</title>
<ellipse fill="none" stroke="black" cx="295.9" cy="-40.11" rx="31.99" ry="31.99"/>
<text text-anchor="middle" x="295.9" y="-37.41" font-family="Times,serif" font-size="9.00">18418 0</text>
</g>
<!-- &#45;1&#45;&gt;18418 0 -->
<g id="edge51" class="edge">
<title>&#45;1&#45;&gt;18418 0</title>
<path fill="none" stroke="green" stroke-width="0.31" d="M285.14,-84.6C285.37,-83.67 285.6,-82.68 285.85,-81.66"/>
<polygon fill="green" stroke="green" stroke-width="0.31" points="289.34,-82.14 288.29,-71.6 282.53,-80.49 289.34,-82.14"/>
<text text-anchor="middle" x="291.12" y="-78.63" font-family="Times,serif" font-size="5.00">1.052</text>
</g>
<!-- 18418 1 -->
<g id="node27" class="node">
<title>18418 1</title>
<ellipse fill="none" stroke="black" cx="333.24" cy="-69.75" rx="31.99" ry="31.99"/>
<text text-anchor="middle" x="333.24" y="-67.05" font-family="Times,serif" font-size="9.00">18418 1</text>
</g>
<!-- &#45;1&#45;&gt;18418 1 -->
<g id="edge52" class="edge">
<title>&#45;1&#45;&gt;18418 1</title>
<path fill="none" stroke="green" stroke-width="0.31" d="M294.81,-88.24C294.9,-88.2 294.99,-88.16 295.08,-88.11"/>
<polygon fill="green" stroke="green" stroke-width="0.31" points="296.79,-91.17 304.28,-83.68 293.76,-84.87 296.79,-91.17"/>
<text text-anchor="middle" x="294.94" y="-83.68" font-family="Times,serif" font-size="5.00">1.052</text>
</g>
<!-- 18418 2 -->
<g id="node28" class="node">
<title>18418 2</title>
<ellipse fill="none" stroke="black" cx="351.22" cy="-107.65" rx="31.99" ry="31.99"/>
<text text-anchor="middle" x="351.22" y="-104.95" font-family="Times,serif" font-size="9.00">18418 2</text>
</g>
<!-- &#45;1&#45;&gt;18418 2 -->
<g id="edge53" class="edge">
<title>&#45;1&#45;&gt;18418 2</title>
<path fill="none" stroke="green" stroke-width="0.31" d="M294.77,-96.37C299.13,-97.24 304.33,-98.28 309.79,-99.37"/>
<polygon fill="green" stroke="green" stroke-width="0.31" points="309.28,-102.84 319.78,-101.36 310.66,-95.97 309.28,-102.84"/>
<text text-anchor="middle" x="302.28" y="-93.37" font-family="Times,serif" font-size="5.00">1.052</text>
</g>
<!-- &#45;2 -->
<g id="node2" class="node">
<title>&#45;2</title>
<polygon fill="lightgray" stroke="black" points="355.01,-271.15 331.01,-271.15 331.01,-252.55 355.01,-252.55 355.01,-271.15"/>
<text text-anchor="middle" x="343.01" y="-259.15" font-family="Times,serif" font-size="9.00">&#45;2</text>
</g>
<!-- 0 -->
<g id="node5" class="node">
<title>0</title>
<ellipse fill="lightblue" stroke="black" cx="262.81" cy="-271.26" rx="14.49" ry="14.49"/>
<ellipse fill="none" stroke="black" cx="262.81" cy="-271.26" rx="18.49" ry="18.49"/>
<text text-anchor="middle" x="262.81" y="-268.56" font-family="Times,serif" font-size="9.00">0</text>
</g>
<!-- &#45;2&#45;&gt;0 -->
<g id="edge1" class="edge">
<title>&#45;2&#45;&gt;0</title>
<path fill="none" stroke="red" stroke-width="0.25" d="M331.18,-263.24C320.69,-264.47 304.96,-266.31 291.23,-267.92"/>
<polygon fill="red" stroke="red" stroke-width="0.25" points="290.76,-264.46 281.24,-269.1 291.58,-271.41 290.76,-264.46"/>
<text text-anchor="middle" x="304.74" y="-267.08" font-family="Times,serif" font-size="5.00">&#45;0.772</text>
</g>
<!-- 17171 -->
<g id="node12" class="node">
<title>17171</title>
<ellipse fill="white" stroke="black" cx="290.98" cy="-210.01" rx="22.04" ry="22.04"/>
<text text-anchor="middle" x="290.98" y="-207.31" font-family="Times,serif" font-size="9.00">tanh</text>
</g>
<!-- &#45;2&#45;&gt;17171 -->
<g id="edge34" class="edge">
<title>&#45;2&#45;&gt;17171</title>
<path fill="none" stroke="green" stroke-width="0.34" d="M333.47,-252.34C328.04,-246.93 320.99,-239.9 314.19,-233.13"/>
<polygon fill="green" stroke="green" stroke-width="0.34" points="316.56,-230.55 307.01,-225.98 311.62,-235.51 316.56,-230.55"/>
<text text-anchor="middle" x="318.2" y="-244.24" font-family="Times,serif" font-size="5.00">1.180</text>
</g>
<!-- 17171 0 -->
<g id="node14" class="node">
<title>17171 0</title>
<ellipse fill="none" stroke="black" cx="308" cy="-195.7" rx="31.99" ry="31.99"/>
<text text-anchor="middle" x="308" y="-193" font-family="Times,serif" font-size="9.00">17171 0</text>
</g>
<!-- &#45;2&#45;&gt;17171 0 -->
<g id="edge31" class="edge">
<title>&#45;2&#45;&gt;17171 0</title>
<path fill="none" stroke="green" stroke-width="0.34" d="M338,-252.37C335.23,-247.15 331.6,-240.28 327.82,-233.14"/>
<polygon fill="green" stroke="green" stroke-width="0.34" points="330.78,-231.26 323.01,-224.05 324.59,-234.53 330.78,-231.26"/>
<text text-anchor="middle" x="338.53" y="-244.26" font-family="Times,serif" font-size="5.00">1.180</text>
</g>
<!-- 17171 1 -->
<g id="node15" class="node">
<title>17171 1</title>
<ellipse fill="none" stroke="black" cx="272.17" cy="-221.92" rx="31.99" ry="31.99"/>
<text text-anchor="middle" x="272.17" y="-219.22" font-family="Times,serif" font-size="9.00">17171 1</text>
</g>
<!-- &#45;2&#45;&gt;17171 1 -->
<g id="edge32" class="edge">
<title>&#45;2&#45;&gt;17171 1</title>
<path fill="none" stroke="green" stroke-width="0.34" d="M330.99,-255.08C324.86,-251.62 317.02,-247.2 309.08,-242.73"/>
<polygon fill="green" stroke="green" stroke-width="0.34" points="310.6,-239.56 300.17,-237.7 307.16,-245.66 310.6,-239.56"/>
<text text-anchor="middle" x="314.41" y="-250.4" font-family="Times,serif" font-size="5.00">1.180</text>
</g>
<!-- 17171 2 -->
<g id="node16" class="node">
<title>17171 2</title>
<ellipse fill="none" stroke="black" cx="323.26" cy="-180.3" rx="31.99" ry="31.99"/>
<text text-anchor="middle" x="323.26" y="-177.6" font-family="Times,serif" font-size="9.00">17171 2</text>
</g>
<!-- &#45;2&#45;&gt;17171 2 -->
<g id="edge33" class="edge">
<title>&#45;2&#45;&gt;17171 2</title>
<path fill="none" stroke="green" stroke-width="0.34" d="M340.75,-252.49C338.86,-244.71 336.04,-233.06 333.21,-221.38"/>
<polygon fill="green" stroke="green" stroke-width="0.34" points="336.61,-220.54 330.85,-211.64 329.8,-222.18 336.61,-220.54"/>
<text text-anchor="middle" x="331.35" y="-232.44" font-family="Times,serif" font-size="5.00">1.180</text>
</g>
<!-- &#45;3 -->
<g id="node3" class="node">
<title>&#45;3</title>
<polygon fill="lightgray" stroke="black" points="23.75,-159.18 -0.25,-159.18 -0.25,-140.58 23.75,-140.58 23.75,-159.18"/>
<text text-anchor="middle" x="11.75" y="-147.18" font-family="Times,serif" font-size="9.00">&#45;3</text>
</g>
<!-- 17570 -->
<g id="node7" class="node">
<title>17570</title>
<ellipse fill="white" stroke="black" cx="78.49" cy="-131.21" rx="22.08" ry="22.08"/>
<ellipse fill="none" stroke="black" cx="78.49" cy="-131.21" rx="26.04" ry="26.04"/>
<text text-anchor="middle" x="78.49" y="-128.51" font-family="Times,serif" font-size="9.00">tanh</text>
</g>
<!-- &#45;3&#45;&gt;17570 -->
<g id="edge30" class="edge">
<title>&#45;3&#45;&gt;17570</title>
<path fill="none" stroke="green" stroke-width="0.62" stroke-dasharray="1,5" d="M23.68,-146.54C29.3,-144.97 36.33,-143 43.46,-141.01"/>
<polygon fill="green" stroke="green" stroke-width="0.62" points="44.43,-144.37 53.12,-138.31 42.54,-137.63 44.43,-144.37"/>
<text text-anchor="middle" x="40.03" y="-139.27" font-family="Times,serif" font-size="5.00">&#45;2.602</text>
</g>
<!-- 17570 0 -->
<g id="node17" class="node">
<title>17570 0</title>
<ellipse fill="none" stroke="black" cx="87.4" cy="-98.01" rx="31.99" ry="31.99"/>
<text text-anchor="middle" x="87.4" y="-95.31" font-family="Times,serif" font-size="9.00">17570 0</text>
</g>
<!-- &#45;3&#45;&gt;17570 0 -->
<g id="edge27" class="edge">
<title>&#45;3&#45;&gt;17570 0</title>
<path fill="none" stroke="green" stroke-width="0.62" stroke-dasharray="1,5" d="M23.57,-141.77C31.44,-136.38 42.22,-128.98 52.68,-121.81"/>
<polygon fill="green" stroke="green" stroke-width="0.62" points="54.67,-124.69 60.94,-116.15 50.71,-118.92 54.67,-124.69"/>
<text text-anchor="middle" x="31.67" y="-133.29" font-family="Times,serif" font-size="5.00">&#45;2.602</text>
</g>
<!-- 17570 1 -->
<g id="node18" class="node">
<title>17570 1</title>
<ellipse fill="none" stroke="black" cx="75.88" cy="-216.54" rx="31.99" ry="31.99"/>
<text text-anchor="middle" x="75.88" y="-213.84" font-family="Times,serif" font-size="9.00">17570 1</text>
</g>
<!-- &#45;3&#45;&gt;17570 1 -->
<g id="edge28" class="edge">
<title>&#45;3&#45;&gt;17570 1</title>
<path fill="none" stroke="green" stroke-width="0.62" stroke-dasharray="1,5" d="M20.94,-159.43C27.67,-166.43 37.21,-176.35 46.46,-185.96"/>
<polygon fill="green" stroke="green" stroke-width="0.62" points="43.97,-188.42 53.43,-193.2 49.01,-183.56 43.97,-188.42"/>
<text text-anchor="middle" x="27.24" y="-174.19" font-family="Times,serif" font-size="5.00">&#45;2.602</text>
</g>
<!-- 17570 2 -->
<g id="node19" class="node">
<title>17570 2</title>
<ellipse fill="none" stroke="black" cx="73.43" cy="-180.13" rx="31.99" ry="31.99"/>
<text text-anchor="middle" x="73.43" y="-177.43" font-family="Times,serif" font-size="9.00">17570 2</text>
</g>
<!-- &#45;3&#45;&gt;17570 2 -->
<g id="edge29" class="edge">
<title>&#45;3&#45;&gt;17570 2</title>
<path fill="none" stroke="green" stroke-width="0.62" stroke-dasharray="1,5" d="M23.64,-155.71C27.22,-157.46 31.35,-159.49 35.67,-161.61"/>
<polygon fill="green" stroke="green" stroke-width="0.62" points="34.17,-164.77 44.69,-166.03 37.25,-158.49 34.17,-164.77"/>
<text text-anchor="middle" x="32.88" y="-154.16" font-family="Times,serif" font-size="5.00">&#45;2.602</text>
</g>
<!-- &#45;4 -->
<g id="node4" class="node">
<title>&#45;4</title>
<polygon fill="lightgray" stroke="black" points="166.32,-219.84 142.32,-219.84 142.32,-201.24 166.32,-201.24 166.32,-219.84"/>
<text text-anchor="middle" x="154.32" y="-207.84" font-family="Times,serif" font-size="9.00">&#45;4</text>
</g>
<!-- &#45;4&#45;&gt;14861 -->
<g id="edge2" class="edge">
<title>&#45;4&#45;&gt;14861</title>
<path fill="none" stroke="green" stroke-width="0.16" d="M166.24,-204.62C172.07,-201.72 179.46,-198.05 187.11,-194.25"/>
<polygon fill="green" stroke="green" stroke-width="0.16" points="188.72,-197.36 196.11,-189.77 185.6,-191.09 188.72,-197.36"/>
<text text-anchor="middle" x="170.22" y="-194.93" font-family="Times,serif" font-size="5.00">&#45;0.302</text>
</g>
<!-- 16689 -->
<g id="node10" class="node">
<title>16689</title>
<ellipse fill="white" stroke="black" cx="156.09" cy="-165.46" rx="31.67" ry="31.67"/>
<ellipse fill="none" stroke="black" cx="156.09" cy="-165.46" rx="35.65" ry="35.65"/>
<text text-anchor="middle" x="156.09" y="-162.76" font-family="Times,serif" font-size="9.00">sigmoid</text>
</g>
<!-- &#45;4&#45;&gt;16689 -->
<g id="edge6" class="edge">
<title>&#45;4&#45;&gt;16689</title>
<path fill="none" stroke="red" stroke-width="0.22" d="M154.7,-200.98C154.7,-200.93 154.7,-200.88 154.7,-200.83"/>
<polygon fill="red" stroke="red" stroke-width="0.22" points="157.81,-210.8 154.71,-200.67 150.82,-210.52 157.81,-210.8"/>
<text text-anchor="middle" x="148.24" y="-196.4" font-family="Times,serif" font-size="5.00">&#45;0.595</text>
</g>
<!-- 18278 -->
<g id="node8" class="node">
<title>18278</title>
<ellipse fill="white" stroke="black" cx="305.64" cy="-145.13" rx="31.65" ry="31.65"/>
<text text-anchor="middle" x="305.64" y="-142.43" font-family="Times,serif" font-size="9.00">sigmoid</text>
</g>
<!-- 17024&#45;&gt;18278 -->
<g id="edge38" class="edge">
<title>17024&#45;&gt;18278</title>
<path fill="none" stroke="green" stroke-width="0.16" d="M294.09,-141.66C294.14,-141.68 294.19,-141.69 294.24,-141.71"/>
<polygon fill="green" stroke="green" stroke-width="0.16" points="283.81,-142.23 294.4,-141.75 285.83,-135.52 283.81,-142.23"/>
<text text-anchor="middle" x="287.71" y="-143.19" font-family="Times,serif" font-size="5.00">&#45;0.306</text>
</g>
<!-- 17024&#45;&gt;14861 -->
<g id="edge9" class="edge">
<title>17024&#45;&gt;14861</title>
<path fill="none" stroke="red" stroke-width="0.34" stroke-dasharray="1,5" d="M238.75,-159.83C238.71,-159.89 238.67,-159.95 238.62,-160.01"/>
<polygon fill="red" stroke="red" stroke-width="0.34" points="241.63,-150.07 238.49,-160.19 247.26,-154.24 241.63,-150.07"/>
<text text-anchor="middle" x="235.46" y="-155.42" font-family="Times,serif" font-size="5.00">&#45;1.209</text>
</g>
<!-- 17024&#45;&gt;17171 -->
<g id="edge26" class="edge">
<title>17024&#45;&gt;17171</title>
<path fill="none" stroke="green" stroke-width="0.47" stroke-dasharray="1,5" d="M272.87,-164.27C274.9,-169.4 276.99,-174.68 279,-179.75"/>
<polygon fill="green" stroke="green" stroke-width="0.47" points="275.78,-181.13 282.72,-189.13 282.29,-178.55 275.78,-181.13"/>
<text text-anchor="middle" x="270.31" y="-173.51" font-family="Times,serif" font-size="5.00">1.838</text>
</g>
<!-- 17024&#45;&gt;17171 0 -->
<g id="edge23" class="edge">
<title>17024&#45;&gt;17171 0</title>
<path fill="none" stroke="green" stroke-width="0.47" stroke-dasharray="1,5" d="M281.11,-159.78C281.58,-160.41 282.05,-161.04 282.53,-161.68"/>
<polygon fill="green" stroke="green" stroke-width="0.47" points="279.88,-163.99 288.68,-169.89 285.49,-159.79 279.88,-163.99"/>
<text text-anchor="middle" x="276.19" y="-156.23" font-family="Times,serif" font-size="5.00">1.838</text>
</g>
<!-- 17024&#45;&gt;17171 1 -->
<g id="edge24" class="edge">
<title>17024&#45;&gt;17171 1</title>
<path fill="none" stroke="green" stroke-width="0.47" stroke-dasharray="1,5" d="M264.64,-166.64C265.24,-171 265.85,-175.49 266.45,-179.93"/>
<polygon fill="green" stroke="green" stroke-width="0.47" points="263.02,-180.71 267.84,-190.15 269.96,-179.77 263.02,-180.71"/>
<text text-anchor="middle" x="268.36" y="-168.79" font-family="Times,serif" font-size="5.00">1.838</text>
</g>
<!-- 17024&#45;&gt;17171 2 -->
<g id="edge25" class="edge">
<title>17024&#45;&gt;17171 2</title>
<path fill="none" stroke="green" stroke-width="0.47" stroke-dasharray="1,5" d="M287.84,-152.98C288.47,-153.46 289.09,-153.94 289.71,-154.42"/>
<polygon fill="green" stroke="green" stroke-width="0.47" points="287.76,-157.33 297.81,-160.67 292.03,-151.79 287.76,-157.33"/>
<text text-anchor="middle" x="283.15" y="-149.2" font-family="Times,serif" font-size="5.00">1.838</text>
</g>
<!-- 18278 0 -->
<g id="node20" class="node">
<title>18278 0</title>
<ellipse fill="none" stroke="black" cx="207.52" cy="-115.92" rx="31.99" ry="31.99"/>
<text text-anchor="middle" x="207.52" y="-113.22" font-family="Times,serif" font-size="9.00">18278 0</text>
</g>
<!-- 17024&#45;&gt;18278 0 -->
<g id="edge35" class="edge">
<title>17024&#45;&gt;18278 0</title>
<path fill="none" stroke="green" stroke-width="0.16" d="M225.82,-121.32C225.74,-121.3 225.66,-121.28 225.58,-121.25"/>
<polygon fill="green" stroke="green" stroke-width="0.16" points="235.93,-120.67 225.35,-121.19 233.95,-127.38 235.93,-120.67"/>
<text text-anchor="middle" x="219.24" y="-122.79" font-family="Times,serif" font-size="5.00">&#45;0.306</text>
</g>
<!-- 18278 1 -->
<g id="node21" class="node">
<title>18278 1</title>
<ellipse fill="none" stroke="black" cx="230.96" cy="-83.8" rx="31.99" ry="31.99"/>
<text text-anchor="middle" x="230.96" y="-81.1" font-family="Times,serif" font-size="9.00">18278 1</text>
</g>
<!-- 17024&#45;&gt;18278 1 -->
<g id="edge36" class="edge">
<title>17024&#45;&gt;18278 1</title>
<path fill="none" stroke="green" stroke-width="0.16" d="M241.39,-100.98C241.34,-100.9 241.3,-100.83 241.26,-100.76"/>
<polygon fill="green" stroke="green" stroke-width="0.16" points="249.31,-107.27 241.12,-100.54 243.32,-110.91 249.31,-107.27"/>
<text text-anchor="middle" x="247.78" y="-102.37" font-family="Times,serif" font-size="5.00">&#45;0.306</text>
</g>
<!-- 18278 2 -->
<g id="node22" class="node">
<title>18278 2</title>
<ellipse fill="none" stroke="black" cx="201.36" cy="-83" rx="31.99" ry="31.99"/>
<text text-anchor="middle" x="201.36" y="-80.3" font-family="Times,serif" font-size="9.00">18278 2</text>
</g>
<!-- 17024&#45;&gt;18278 2 -->
<g id="edge37" class="edge">
<title>17024&#45;&gt;18278 2</title>
<path fill="none" stroke="green" stroke-width="0.16" d="M232.31,-108.6C232.19,-108.5 232.06,-108.39 231.93,-108.29"/>
<polygon fill="green" stroke="green" stroke-width="0.16" points="236.21,-107.29 226.27,-103.61 231.75,-112.68 236.21,-107.29"/>
<text text-anchor="middle" x="225.67" y="-109.95" font-family="Times,serif" font-size="5.00">&#45;0.306</text>
</g>
<!-- 18278&#45;&gt;14861 -->
<g id="edge42" class="edge">
<title>18278&#45;&gt;14861</title>
<path fill="none" stroke="red" stroke-width="0.17" d="M275.59,-156.25C274.35,-156.71 273.1,-157.17 271.85,-157.64"/>
<polygon fill="red" stroke="red" stroke-width="0.17" points="270.33,-154.47 262.17,-161.22 272.76,-161.03 270.33,-154.47"/>
<text text-anchor="middle" x="270.49" y="-152.44" font-family="Times,serif" font-size="5.00">&#45;0.331</text>
</g>
<!-- 14861&#45;&gt;0 -->
<g id="edge3" class="edge">
<title>14861&#45;&gt;0</title>
<path fill="none" stroke="green" stroke-width="0.36" stroke-dasharray="1,5" d="M240.39,-207.53C244.57,-219.42 249.21,-232.61 253.18,-243.9"/>
<polygon fill="green" stroke="green" stroke-width="0.36" points="249.99,-245.36 256.61,-253.63 256.59,-243.04 249.99,-245.36"/>
<text text-anchor="middle" x="240.33" y="-227.22" font-family="Times,serif" font-size="5.00">&#45;1.286</text>
</g>
<!-- 14861&#45;&gt;14861 -->
<g id="edge5" class="edge">
<title>14861&#45;&gt;14861</title>
<path fill="none" stroke="green" stroke-width="0.39" d="M263.69,-180.41C274.16,-180.21 282.31,-177.97 282.31,-173.68 282.31,-170.93 278.96,-169.02 273.81,-167.95"/>
<polygon fill="green" stroke="green" stroke-width="0.39" points="273.99,-164.45 263.69,-166.94 273.29,-171.42 273.99,-164.45"/>
<text text-anchor="middle" x="288.77" y="-172.18" font-family="Times,serif" font-size="5.00">&#45;1.473</text>
</g>
<!-- 14861&#45;&gt;17171 -->
<g id="edge13" class="edge">
<title>14861&#45;&gt;17171</title>
<path fill="none" stroke="red" stroke-width="0.91" stroke-dasharray="1,5" d="M255.61,-197.26C257.18,-198.18 258.77,-199.08 260.36,-199.96"/>
<polygon fill="red" stroke="red" stroke-width="0.91" points="258.81,-203.1 269.3,-204.61 262.04,-196.89 258.81,-203.1"/>
<text text-anchor="middle" x="251.53" y="-200.11" font-family="Times,serif" font-size="5.00">&#45;4.035</text>
</g>
<!-- 18395 -->
<g id="node13" class="node">
<title>18395</title>
<ellipse fill="white" stroke="black" cx="158.39" cy="-118.66" rx="31.65" ry="31.65"/>
<text text-anchor="middle" x="158.39" y="-115.96" font-family="Times,serif" font-size="9.00">sigmoid</text>
</g>
<!-- 14861&#45;&gt;18395 -->
<g id="edge46" class="edge">
<title>14861&#45;&gt;18395</title>
<path fill="none" stroke="green" stroke-width="0.3" d="M204.87,-146.73C201.76,-144.14 198.52,-141.55 195.26,-139.03"/>
<polygon fill="green" stroke="green" stroke-width="0.3" points="197.28,-136.17 187.17,-133 193.09,-141.79 197.28,-136.17"/>
<text text-anchor="middle" x="205.69" y="-144.38" font-family="Times,serif" font-size="5.00">1.000</text>
</g>
<!-- 14861&#45;&gt;17171 0 -->
<g id="edge10" class="edge">
<title>14861&#45;&gt;17171 0</title>
<path fill="none" stroke="red" stroke-width="0.91" stroke-dasharray="1,5" d="M260.88,-189.6C262.58,-190.1 264.3,-190.6 266.02,-191.08"/>
<polygon fill="red" stroke="red" stroke-width="0.91" points="265.29,-194.51 275.85,-193.63 267.05,-187.73 265.29,-194.51"/>
<text text-anchor="middle" x="266.68" y="-185.84" font-family="Times,serif" font-size="5.00">&#45;4.035</text>
</g>
<!-- 14861&#45;&gt;17171 1 -->
<g id="edge11" class="edge">
<title>14861&#45;&gt;17171 1</title>
<path fill="none" stroke="red" stroke-width="0.91" stroke-dasharray="1,5" d="M247.13,-204.3C247.17,-204.34 247.21,-204.38 247.25,-204.43"/>
<polygon fill="red" stroke="red" stroke-width="0.91" points="237.98,-199.65 247.37,-204.56 243.09,-194.86 237.98,-199.65"/>
<text text-anchor="middle" x="240.73" y="-205.86" font-family="Times,serif" font-size="5.00">&#45;4.035</text>
</g>
<!-- 14861&#45;&gt;17171 2 -->
<g id="edge12" class="edge">
<title>14861&#45;&gt;17171 2</title>
<path fill="none" stroke="red" stroke-width="0.91" stroke-dasharray="1,5" d="M263.32,-182.68C269.03,-183.27 275,-183.74 280.87,-184.06"/>
<polygon fill="red" stroke="red" stroke-width="0.91" points="281.11,-187.58 291.24,-184.48 281.39,-180.58 281.11,-187.58"/>
<text text-anchor="middle" x="268.87" y="-178.87" font-family="Times,serif" font-size="5.00">&#45;4.035</text>
</g>
<!-- 18395 0 -->
<g id="node23" class="node">
<title>18395 0</title>
<ellipse fill="none" stroke="black" cx="187.27" cy="-219.04" rx="31.99" ry="31.99"/>
<text text-anchor="middle" x="187.27" y="-216.34" font-family="Times,serif" font-size="9.00">18395 0</text>
</g>
<!-- 14861&#45;&gt;18395 0 -->
<g id="edge43" class="edge">
<title>14861&#45;&gt;18395 0</title>
<path fill="none" stroke="green" stroke-width="0.3" d="M199.8,-195.31C199.73,-195.39 199.67,-195.48 199.6,-195.56"/>
<polygon fill="green" stroke="green" stroke-width="0.3" points="203.2,-185.91 199.39,-195.8 208.53,-190.44 203.2,-185.91"/>
<text text-anchor="middle" x="205.32" y="-196.93" font-family="Times,serif" font-size="5.00">1.000</text>
</g>
<!-- 18395 1 -->
<g id="node24" class="node">
<title>18395 1</title>
<ellipse fill="none" stroke="black" cx="194.22" cy="-248.85" rx="31.99" ry="31.99"/>
<text text-anchor="middle" x="194.22" y="-246.15" font-family="Times,serif" font-size="9.00">18395 1</text>
</g>
<!-- 14861&#45;&gt;18395 1 -->
<g id="edge44" class="edge">
<title>14861&#45;&gt;18395 1</title>
<path fill="none" stroke="green" stroke-width="0.3" d="M207.67,-203.22C206.88,-204.85 206.11,-206.49 205.35,-208.15"/>
<polygon fill="green" stroke="green" stroke-width="0.3" points="202.01,-207.06 201.23,-217.63 208.43,-209.85 202.01,-207.06"/>
<text text-anchor="middle" x="212.14" y="-207.19" font-family="Times,serif" font-size="5.00">1.000</text>
</g>
<!-- 18395 2 -->
<g id="node25" class="node">
<title>18395 2</title>
<ellipse fill="none" stroke="black" cx="164.48" cy="-241.69" rx="31.99" ry="31.99"/>
<text text-anchor="middle" x="164.48" y="-238.99" font-family="Times,serif" font-size="9.00">18395 2</text>
</g>
<!-- 14861&#45;&gt;18395 2 -->
<g id="edge45" class="edge">
<title>14861&#45;&gt;18395 2</title>
<path fill="none" stroke="green" stroke-width="0.3" d="M199.5,-194.89C195.75,-198.62 191.95,-202.59 188.3,-206.58"/>
<polygon fill="green" stroke="green" stroke-width="0.3" points="185.53,-204.42 181.51,-214.22 190.77,-209.07 185.53,-204.42"/>
<text text-anchor="middle" x="188.28" y="-202.24" font-family="Times,serif" font-size="5.00">1.000</text>
</g>
<!-- 16689&#45;&gt;17024 -->
<g id="edge18" class="edge">
<title>16689&#45;&gt;17024</title>
<path fill="none" stroke="green" stroke-width="0.54" d="M190.35,-154.2C198.67,-151.47 207.68,-148.51 216.36,-145.66"/>
<polygon fill="green" stroke="green" stroke-width="0.54" points="217.56,-148.95 225.97,-142.5 215.38,-142.3 217.56,-148.95"/>
<text text-anchor="middle" x="209.81" y="-151.43" font-family="Times,serif" font-size="5.00">&#45;2.189</text>
</g>
<!-- 16689&#45;&gt;17570 -->
<g id="edge22" class="edge">
<title>16689&#45;&gt;17570</title>
<path fill="none" stroke="red" stroke-width="0.26" d="M123.18,-150.93C119.58,-149.34 115.92,-147.73 112.31,-146.13"/>
<polygon fill="red" stroke="red" stroke-width="0.26" points="113.54,-142.85 102.98,-142.01 110.71,-149.25 113.54,-142.85"/>
<text text-anchor="middle" x="112.12" y="-150.03" font-family="Times,serif" font-size="5.00">0.780</text>
</g>
<!-- 16689&#45;&gt;14861 -->
<g id="edge7" class="edge">
<title>16689&#45;&gt;14861</title>
<path fill="none" stroke="red" stroke-width="0.12" stroke-dasharray="1,5" d="M191.86,-169.52C192.01,-169.54 192.15,-169.55 192.29,-169.57"/>
<polygon fill="red" stroke="red" stroke-width="0.12" points="182.39,-171.97 192.72,-169.62 183.18,-165.01 182.39,-171.97"/>
<text text-anchor="middle" x="185.62" y="-171.05" font-family="Times,serif" font-size="5.00">&#45;0.112</text>
</g>
<!-- 16689&#45;&gt;17570 0 -->
<g id="edge19" class="edge">
<title>16689&#45;&gt;17570 0</title>
<path fill="none" stroke="red" stroke-width="0.26" d="M130.51,-140.34C126.41,-136.32 122.13,-132.11 117.93,-127.99"/>
<polygon fill="red" stroke="red" stroke-width="0.26" points="120.09,-125.2 110.51,-120.7 115.19,-130.2 120.09,-125.2"/>
<text text-anchor="middle" x="118.6" y="-135.66" font-family="Times,serif" font-size="5.00">0.780</text>
</g>
<!-- 16689&#45;&gt;17570 1 -->
<g id="edge20" class="edge">
<title>16689&#45;&gt;17570 1</title>
<path fill="none" stroke="red" stroke-width="0.26" d="M125.77,-184.77C121.22,-187.66 116.51,-190.67 111.86,-193.63"/>
<polygon fill="red" stroke="red" stroke-width="0.26" points="109.64,-190.89 103.09,-199.21 113.4,-196.79 109.64,-190.89"/>
<text text-anchor="middle" x="113.19" y="-190.7" font-family="Times,serif" font-size="5.00">0.780</text>
</g>
<!-- 16689&#45;&gt;17570 2 -->
<g id="edge21" class="edge">
<title>16689&#45;&gt;17570 2</title>
<path fill="none" stroke="red" stroke-width="0.26" d="M120.55,-171.77C118.78,-172.08 116.99,-172.4 115.2,-172.72"/>
<polygon fill="red" stroke="red" stroke-width="0.26" points="114.26,-169.33 105.03,-174.52 115.48,-176.22 114.26,-169.33"/>
<text text-anchor="middle" x="112.25" y="-173.74" font-family="Times,serif" font-size="5.00">0.780</text>
</g>
<!-- 18418&#45;&gt;17024 -->
<g id="edge58" class="edge">
<title>18418&#45;&gt;17024</title>
<path fill="none" stroke="red" stroke-width="0.3" stroke-dasharray="1,5" d="M255.53,-63.6C255.98,-70.64 256.46,-78.24 256.94,-85.71"/>
<polygon fill="red" stroke="red" stroke-width="0.3" points="253.45,-86 257.58,-95.76 260.43,-85.56 253.45,-86"/>
<text text-anchor="middle" x="262.69" y="-76.15" font-family="Times,serif" font-size="5.00">&#45;0.989</text>
</g>
<!-- 17171&#45;&gt;14861 -->
<g id="edge17" class="edge">
<title>17171&#45;&gt;14861</title>
<path fill="none" stroke="red" stroke-width="0.15" stroke-dasharray="1,5" d="M275.37,-193.71C274,-192.77 272.57,-191.83 271.11,-190.89"/>
<polygon fill="red" stroke="red" stroke-width="0.15" points="272.78,-187.81 262.42,-185.6 269.14,-193.79 272.78,-187.81"/>
<text text-anchor="middle" x="270.01" y="-187.8" font-family="Times,serif" font-size="5.00">&#45;0.270</text>
</g>
<!-- 18395&#45;&gt;14861 -->
<g id="edge50" class="edge">
<title>18395&#45;&gt;14861</title>
<path fill="none" stroke="green" stroke-width="0.49" stroke-dasharray="1,5" d="M178.91,-142.99C181.91,-145.57 185.09,-148.17 188.32,-150.73"/>
<polygon fill="green" stroke="green" stroke-width="0.49" points="186.35,-153.63 196.41,-156.93 190.6,-148.07 186.35,-153.63"/>
<text text-anchor="middle" x="189.24" y="-148.36" font-family="Times,serif" font-size="5.00">1.952</text>
</g>
<!-- 18395&#45;&gt;16689 -->
<g id="edge62" class="edge">
<title>18395&#45;&gt;16689</title>
<path fill="none" stroke="red" stroke-width="0.44" d="M156.82,-150.65C156.81,-150.72 156.81,-150.78 156.81,-150.84"/>
<polygon fill="red" stroke="red" stroke-width="0.44" points="153.8,-140.87 156.8,-151.04 160.79,-141.22 153.8,-140.87"/>
<text text-anchor="middle" x="150.35" y="-152.25" font-family="Times,serif" font-size="5.00">&#45;1.717</text>
</g>
<!-- 17171 0&#45;&gt;14861 -->
<g id="edge14" class="edge">
<title>17171 0&#45;&gt;14861</title>
<path fill="none" stroke="red" stroke-width="0.15" stroke-dasharray="1,5" d="M279.25,-180.91C277.58,-180.38 275.88,-179.86 274.16,-179.36"/>
<polygon fill="red" stroke="red" stroke-width="0.15" points="274.85,-175.92 264.28,-176.66 273,-182.67 274.85,-175.92"/>
<text text-anchor="middle" x="283.16" y="-181.63" font-family="Times,serif" font-size="5.00">&#45;0.270</text>
</g>
<!-- 17171 1&#45;&gt;14861 -->
<g id="edge15" class="edge">
<title>17171 1&#45;&gt;14861</title>
<path fill="none" stroke="red" stroke-width="0.15" stroke-dasharray="1,5" d="M256.1,-194.12C256.05,-194.07 256.01,-194.03 255.97,-193.98"/>
<polygon fill="red" stroke="red" stroke-width="0.15" points="265.12,-198.94 255.83,-193.83 259.91,-203.62 265.12,-198.94"/>
<text text-anchor="middle" x="249.57" y="-189.55" font-family="Times,serif" font-size="5.00">&#45;0.270</text>
</g>
<!-- 17171 2&#45;&gt;14861 -->
<g id="edge16" class="edge">
<title>17171 2&#45;&gt;14861</title>
<path fill="none" stroke="red" stroke-width="0.15" stroke-dasharray="1,5" d="M292.41,-171.74C286.63,-171.06 280.47,-170.52 274.34,-170.12"/>
<polygon fill="red" stroke="red" stroke-width="0.15" points="274.3,-166.61 264.14,-169.61 273.95,-173.61 274.3,-166.61"/>
<text text-anchor="middle" x="280.15" y="-166.43" font-family="Times,serif" font-size="5.00">&#45;0.270</text>
</g>
<!-- 18278 0&#45;&gt;14861 -->
<g id="edge39" class="edge">
<title>18278 0&#45;&gt;14861</title>
<path fill="none" stroke="red" stroke-width="0.17" d="M218.49,-146.15C218.51,-146.21 218.53,-146.26 218.55,-146.31"/>
<polygon fill="red" stroke="red" stroke-width="0.17" points="211.91,-138.27 218.61,-146.48 218.49,-135.88 211.91,-138.27"/>
<text text-anchor="middle" x="218.52" y="-141.73" font-family="Times,serif" font-size="5.00">&#45;0.331</text>
</g>
<!-- 18278 1&#45;&gt;14861 -->
<g id="edge40" class="edge">
<title>18278 1&#45;&gt;14861</title>
<path fill="none" stroke="red" stroke-width="0.17" d="M230.08,-115.99C229.97,-119.74 229.87,-123.62 229.76,-127.5"/>
<polygon fill="red" stroke="red" stroke-width="0.17" points="226.25,-127.65 229.48,-137.74 233.25,-127.84 226.25,-127.65"/>
<text text-anchor="middle" x="223.46" y="-117.25" font-family="Times,serif" font-size="5.00">&#45;0.331</text>
</g>
<!-- 18278 2&#45;&gt;14861 -->
<g id="edge41" class="edge">
<title>18278 2&#45;&gt;14861</title>
<path fill="none" stroke="red" stroke-width="0.17" d="M210.54,-113.7C212.08,-118.84 213.7,-124.25 215.31,-129.65"/>
<polygon fill="red" stroke="red" stroke-width="0.17" points="211.97,-130.69 218.19,-139.27 218.68,-128.68 211.97,-130.69"/>
<text text-anchor="middle" x="206.47" y="-123.17" font-family="Times,serif" font-size="5.00">&#45;0.331</text>
</g>
<!-- 18395 0&#45;&gt;14861 -->
<g id="edge47" class="edge">
<title>18395 0&#45;&gt;14861</title>
<path fill="none" stroke="green" stroke-width="0.49" stroke-dasharray="1,5" d="M213.35,-200.37C213.39,-200.32 213.43,-200.28 213.47,-200.24"/>
<polygon fill="green" stroke="green" stroke-width="0.49" points="209.52,-209.89 213.59,-200.11 204.3,-205.21 209.52,-209.89"/>
<text text-anchor="middle" x="219.87" y="-195.8" font-family="Times,serif" font-size="5.00">&#45;1.952</text>
</g>
<!-- 18395 0&#45;&gt;16689 -->
<g id="edge59" class="edge">
<title>18395 0&#45;&gt;16689</title>
<path fill="none" stroke="red" stroke-width="0.44" d="M171.13,-191.31C171.1,-191.26 171.07,-191.21 171.04,-191.16"/>
<polygon fill="red" stroke="red" stroke-width="0.44" points="179.01,-197.89 170.95,-191 172.96,-201.41 179.01,-197.89"/>
<text text-anchor="middle" x="164.63" y="-186.73" font-family="Times,serif" font-size="5.00">&#45;1.717</text>
</g>
<!-- 18395 1&#45;&gt;14861 -->
<g id="edge48" class="edge">
<title>18395 1&#45;&gt;14861</title>
<path fill="none" stroke="green" stroke-width="0.49" stroke-dasharray="1,5" d="M213.36,-222.74C214.14,-221.17 214.92,-219.57 215.69,-217.95"/>
<polygon fill="green" stroke="green" stroke-width="0.49" points="218.98,-219.16 219.91,-208.61 212.6,-216.28 218.98,-219.16"/>
<text text-anchor="middle" x="220.98" y="-215.85" font-family="Times,serif" font-size="5.00">&#45;0.651</text>
</g>
<!-- 18395 1&#45;&gt;16689 -->
<g id="edge60" class="edge">
<title>18395 1&#45;&gt;16689</title>
<path fill="none" stroke="red" stroke-width="0.44" d="M180.88,-219.69C179.04,-215.67 177.13,-211.48 175.21,-207.29"/>
<polygon fill="red" stroke="red" stroke-width="0.44" points="178.39,-205.81 171.05,-198.17 172.02,-208.72 178.39,-205.81"/>
<text text-anchor="middle" x="184.5" y="-208.99" font-family="Times,serif" font-size="5.00">&#45;1.717</text>
</g>
<!-- 18395 2&#45;&gt;14861 -->
<g id="edge49" class="edge">
<title>18395 2&#45;&gt;14861</title>
<path fill="none" stroke="green" stroke-width="0.49" stroke-dasharray="1,5" d="M190.83,-223.07C194.53,-219.47 198.33,-215.59 202.04,-211.63"/>
<polygon fill="green" stroke="green" stroke-width="0.49" points="204.84,-213.75 208.98,-203.99 199.67,-209.04 204.84,-213.75"/>
<text text-anchor="middle" x="202.06" y="-218.85" font-family="Times,serif" font-size="5.00">0.651</text>
</g>
<!-- 18395 2&#45;&gt;16689 -->
<g id="edge61" class="edge">
<title>18395 2&#45;&gt;16689</title>
<path fill="none" stroke="red" stroke-width="0.44" d="M160.97,-209.8C160.96,-209.72 160.95,-209.63 160.94,-209.54"/>
<polygon fill="red" stroke="red" stroke-width="0.44" points="164.62,-210.96 160.04,-201.41 157.66,-211.73 164.62,-210.96"/>
<text text-anchor="middle" x="167.41" y="-205.17" font-family="Times,serif" font-size="5.00">&#45;1.717</text>
</g>
<!-- 18418 0&#45;&gt;17024 -->
<g id="edge55" class="edge">
<title>18418 0&#45;&gt;17024</title>
<path fill="none" stroke="red" stroke-width="0.3" stroke-dasharray="1,5" d="M284.1,-69.99C281.75,-75.93 279.24,-82.27 276.77,-88.54"/>
<polygon fill="red" stroke="red" stroke-width="0.3" points="273.34,-87.68 272.92,-98.27 279.85,-90.26 273.34,-87.68"/>
<text text-anchor="middle" x="280.43" y="-74.77" font-family="Times,serif" font-size="5.00">&#45;0.989</text>
</g>
<!-- 18418 1&#45;&gt;17024 -->
<g id="edge56" class="edge">
<title>18418 1&#45;&gt;17024</title>
<path fill="none" stroke="red" stroke-width="0.3" stroke-dasharray="1,5" d="M308.39,-90.61C303.97,-94.33 299.29,-98.26 294.65,-102.15"/>
<polygon fill="red" stroke="red" stroke-width="0.3" points="292.34,-99.52 286.93,-108.63 296.84,-104.88 292.34,-99.52"/>
<text text-anchor="middle" x="307.98" y="-97.88" font-family="Times,serif" font-size="5.00">&#45;0.989</text>
</g>
<!-- 18418 2&#45;&gt;17024 -->
<g id="edge57" class="edge">
<title>18418 2&#45;&gt;17024</title>
<path fill="none" stroke="red" stroke-width="0.3" stroke-dasharray="1,5" d="M320.03,-115.75C314.99,-117.06 309.68,-118.43 304.4,-119.8"/>
<polygon fill="red" stroke="red" stroke-width="0.3" points="303.14,-116.52 294.34,-122.42 304.9,-123.29 303.14,-116.52"/>
<text text-anchor="middle" x="305.76" y="-113.28" font-family="Times,serif" font-size="5.00">&#45;0.989</text>
</g>
</g>
</svg>
