<?xml version="1.0" encoding="UTF-8" standalone="no"?>
<!DOCTYPE svg PUBLIC "-//W3C//DTD SVG 1.1//EN"
 "http://www.w3.org/Graphics/SVG/1.1/DTD/svg11.dtd">
<!-- Generated by graphviz version 2.47.1 (20210417.1919)
 -->
<!-- Pages: 1 -->
<svg width="241pt" height="237pt"
 viewBox="0.00 0.00 241.50 236.80" xmlns="http://www.w3.org/2000/svg" xmlns:xlink="http://www.w3.org/1999/xlink">
<g id="graph0" class="graph" transform="scale(1 1) rotate(0) translate(4 232.8)">
<polygon fill="white" stroke="transparent" points="-4,4 -4,-232.8 237.5,-232.8 237.5,4 -4,4"/>
<!-- &#45;1 -->
<g id="node1" class="node">
<title>&#45;1</title>
<polygon fill="lightgray" stroke="black" points="205.75,-46.7 181.75,-46.7 181.75,-28.1 205.75,-28.1 205.75,-46.7"/>
<text text-anchor="middle" x="193.75" y="-34.7" font-family="Times,serif" font-size="9.00">&#45;1</text>
</g>
<!-- &#45;2 -->
<g id="node2" class="node">
<title>&#45;2</title>
<polygon fill="lightgray" stroke="black" points="97.88,-116.92 73.88,-116.92 73.88,-98.32 97.88,-98.32 97.88,-116.92"/>
<text text-anchor="middle" x="85.88" y="-104.92" font-family="Times,serif" font-size="9.00">&#45;2</text>
</g>
<!-- 0 -->
<g id="node5" class="node">
<title>0</title>
<ellipse fill="lightblue" stroke="black" cx="124.75" cy="-98.53" rx="14.49" ry="14.49"/>
<ellipse fill="none" stroke="black" cx="124.75" cy="-98.53" rx="18.49" ry="18.49"/>
<text text-anchor="middle" x="124.75" y="-95.83" font-family="Times,serif" font-size="9.00">0</text>
</g>
<!-- &#45;2&#45;&gt;0 -->
<g id="edge1" class="edge">
<title>&#45;2&#45;&gt;0</title>
<path fill="none" stroke="red" stroke-width="0.36" d="M97.76,-104.85C97.84,-104.83 97.93,-104.81 98.02,-104.79"/>
<polygon fill="red" stroke="red" stroke-width="0.36" points="97.57,-108.48 106.51,-102.8 95.98,-101.67 97.57,-108.48"/>
<text text-anchor="middle" x="100.7" y="-100.32" font-family="Times,serif" font-size="5.00">1.305</text>
</g>
<!-- 3121 -->
<g id="node6" class="node">
<title>3121</title>
<ellipse fill="white" stroke="black" cx="31.82" cy="-128" rx="31.65" ry="31.65"/>
<text text-anchor="middle" x="31.82" y="-125.3" font-family="Times,serif" font-size="9.00">sigmoid</text>
</g>
<!-- &#45;2&#45;&gt;3121 -->
<g id="edge7" class="edge">
<title>&#45;2&#45;&gt;3121</title>
<path fill="none" stroke="green" stroke-width="0.32" d="M73.88,-112.15C73.1,-112.44 72.28,-112.75 71.45,-113.06"/>
<polygon fill="green" stroke="green" stroke-width="0.32" points="70.03,-109.86 61.91,-116.66 72.5,-116.41 70.03,-109.86"/>
<text text-anchor="middle" x="69.85" y="-108.1" font-family="Times,serif" font-size="5.00">1.096</text>
</g>
<!-- 3121 0 -->
<g id="node7" class="node">
<title>3121 0</title>
<ellipse fill="none" stroke="black" cx="161.39" cy="-156.54" rx="28.63" ry="28.63"/>
<text text-anchor="middle" x="161.39" y="-153.84" font-family="Times,serif" font-size="9.00">3121 0</text>
</g>
<!-- &#45;2&#45;&gt;3121 0 -->
<g id="edge3" class="edge">
<title>&#45;2&#45;&gt;3121 0</title>
<path fill="none" stroke="green" stroke-width="0.32" d="M97.68,-115.27C105.99,-120.65 117.56,-128.15 128.56,-135.27"/>
<polygon fill="green" stroke="green" stroke-width="0.32" points="126.89,-138.36 137.19,-140.86 130.7,-132.49 126.89,-138.36"/>
<text text-anchor="middle" x="107.49" y="-126.77" font-family="Times,serif" font-size="5.00">1.096</text>
</g>
<!-- 3121 1 -->
<g id="node8" class="node">
<title>3121 1</title>
<ellipse fill="none" stroke="black" cx="97.01" cy="-179.26" rx="28.63" ry="28.63"/>
<text text-anchor="middle" x="97.01" y="-176.56" font-family="Times,serif" font-size="9.00">3121 1</text>
</g>
<!-- &#45;2&#45;&gt;3121 1 -->
<g id="edge4" class="edge">
<title>&#45;2&#45;&gt;3121 1</title>
<path fill="none" stroke="green" stroke-width="0.32" d="M87.34,-116.99C88.31,-123.21 89.65,-131.85 91.02,-140.71"/>
<polygon fill="green" stroke="green" stroke-width="0.32" points="87.58,-141.35 92.58,-150.7 94.5,-140.28 87.58,-141.35"/>
<text text-anchor="middle" x="83.56" y="-130.35" font-family="Times,serif" font-size="5.00">1.096</text>
</g>
<!-- 3121 2 -->
<g id="node9" class="node">
<title>3121 2</title>
<ellipse fill="none" stroke="black" cx="57.5" cy="-43.35" rx="28.63" ry="28.63"/>
<text text-anchor="middle" x="57.5" y="-40.65" font-family="Times,serif" font-size="9.00">3121 2</text>
</g>
<!-- &#45;2&#45;&gt;3121 2 -->
<g id="edge5" class="edge">
<title>&#45;2&#45;&gt;3121 2</title>
<path fill="none" stroke="green" stroke-width="0.32" d="M81.69,-98.14C79.43,-93 76.46,-86.29 73.39,-79.34"/>
<polygon fill="green" stroke="green" stroke-width="0.32" points="76.43,-77.57 69.19,-69.83 70.03,-80.39 76.43,-77.57"/>
<text text-anchor="middle" x="71.92" y="-90.24" font-family="Times,serif" font-size="5.00">1.096</text>
</g>
<!-- 3121 3 -->
<g id="node10" class="node">
<title>3121 3</title>
<ellipse fill="none" stroke="black" cx="125.87" cy="-28.81" rx="28.63" ry="28.63"/>
<text text-anchor="middle" x="125.87" y="-26.11" font-family="Times,serif" font-size="9.00">3121 3</text>
</g>
<!-- &#45;2&#45;&gt;3121 3 -->
<g id="edge6" class="edge">
<title>&#45;2&#45;&gt;3121 3</title>
<path fill="none" stroke="green" stroke-width="0.32" d="M90.63,-98.27C94.99,-89.68 101.73,-76.38 108.16,-63.72"/>
<polygon fill="green" stroke="green" stroke-width="0.32" points="111.34,-65.18 112.75,-54.68 105.1,-62.02 111.34,-65.18"/>
<text text-anchor="middle" x="93.77" y="-82.49" font-family="Times,serif" font-size="5.00">1.096</text>
</g>
<!-- &#45;3 -->
<g id="node3" class="node">
<title>&#45;3</title>
<polygon fill="lightgray" stroke="black" points="233.75,-228.7 209.75,-228.7 209.75,-210.1 233.75,-210.1 233.75,-228.7"/>
<text text-anchor="middle" x="221.75" y="-216.7" font-family="Times,serif" font-size="9.00">&#45;3</text>
</g>
<!-- &#45;4 -->
<g id="node4" class="node">
<title>&#45;4</title>
<polygon fill="lightgray" stroke="black" points="217.2,-86.14 193.2,-86.14 193.2,-67.54 217.2,-67.54 217.2,-86.14"/>
<text text-anchor="middle" x="205.2" y="-74.14" font-family="Times,serif" font-size="9.00">&#45;4</text>
</g>
<!-- &#45;4&#45;&gt;0 -->
<g id="edge2" class="edge">
<title>&#45;4&#45;&gt;0</title>
<path fill="none" stroke="green" stroke-width="0.7" stroke-dasharray="1,5" d="M193.33,-80.04C182.57,-82.95 166.3,-87.33 152.3,-91.11"/>
<polygon fill="green" stroke="green" stroke-width="0.7" points="151.37,-87.73 142.63,-93.71 153.2,-94.49 151.37,-87.73"/>
<text text-anchor="middle" x="167.19" y="-87.07" font-family="Times,serif" font-size="5.00">3.005</text>
</g>
<!-- 3121&#45;&gt;0 -->
<g id="edge12" class="edge">
<title>3121&#45;&gt;0</title>
<path fill="none" stroke="red" stroke-width="0.33" d="M62.25,-118.35C73.6,-114.76 86.4,-110.7 97.45,-107.19"/>
<polygon fill="red" stroke="red" stroke-width="0.33" points="98.54,-110.52 107.02,-104.16 96.42,-103.85 98.54,-110.52"/>
<text text-anchor="middle" x="73.39" y="-114.27" font-family="Times,serif" font-size="5.00">&#45;1.142</text>
</g>
<!-- 3121 0&#45;&gt;0 -->
<g id="edge8" class="edge">
<title>3121 0&#45;&gt;0</title>
<path fill="none" stroke="red" stroke-width="0.33" d="M145.85,-131.94C143.98,-128.98 142.07,-125.95 140.2,-122.99"/>
<polygon fill="red" stroke="red" stroke-width="0.33" points="143.09,-121.01 134.79,-114.42 137.17,-124.75 143.09,-121.01"/>
<text text-anchor="middle" x="137.4" y="-122.97" font-family="Times,serif" font-size="5.00">1.142</text>
</g>
<!-- 3121 1&#45;&gt;0 -->
<g id="edge9" class="edge">
<title>3121 1&#45;&gt;0</title>
<path fill="none" stroke="red" stroke-width="0.33" d="M106.41,-151.93C109.27,-143.6 112.41,-134.45 115.28,-126.11"/>
<polygon fill="red" stroke="red" stroke-width="0.33" points="118.66,-127.04 118.6,-116.45 112.04,-124.77 118.66,-127.04"/>
<text text-anchor="middle" x="105.22" y="-140.52" font-family="Times,serif" font-size="5.00">0.571</text>
</g>
<!-- 3121 2&#45;&gt;0 -->
<g id="edge10" class="edge">
<title>3121 2&#45;&gt;0</title>
<path fill="none" stroke="red" stroke-width="0.33" d="M79.89,-61.73C87.03,-67.59 94.94,-74.07 102.1,-79.95"/>
<polygon fill="red" stroke="red" stroke-width="0.33" points="100.12,-82.85 110.07,-86.49 104.56,-77.44 100.12,-82.85"/>
<text text-anchor="middle" x="96.62" y="-72.34" font-family="Times,serif" font-size="5.00">0.000</text>
</g>
<!-- 3121 3&#45;&gt;0 -->
<g id="edge11" class="edge">
<title>3121 3&#45;&gt;0</title>
<path fill="none" stroke="red" stroke-width="0.33" d="M125.4,-57.98C125.34,-61.94 125.28,-66.01 125.21,-69.96"/>
<polygon fill="red" stroke="red" stroke-width="0.33" points="121.71,-69.97 125.05,-80.02 128.71,-70.08 121.71,-69.97"/>
<text text-anchor="middle" x="118.85" y="-65.47" font-family="Times,serif" font-size="5.00">&#45;0.571</text>
</g>
</g>
</svg>
