<?xml version="1.0" encoding="UTF-8" standalone="no"?>
<!DOCTYPE svg PUBLIC "-//W3C//DTD SVG 1.1//EN"
 "http://www.w3.org/Graphics/SVG/1.1/DTD/svg11.dtd">
<!-- Generated by graphviz version 2.47.1 (20210417.1919)
 -->
<!-- Pages: 1 -->
<svg width="276pt" height="233pt"
 viewBox="0.00 0.00 275.78 232.80" xmlns="http://www.w3.org/2000/svg" xmlns:xlink="http://www.w3.org/1999/xlink">
<g id="graph0" class="graph" transform="scale(1 1) rotate(0) translate(4 228.8)">
<polygon fill="white" stroke="transparent" points="-4,4 -4,-228.8 271.78,-228.8 271.78,4 -4,4"/>
<!-- &#45;1 -->
<g id="node1" class="node">
<title>&#45;1</title>
<polygon fill="lightgray" stroke="black" points="23.75,-108.74 -0.25,-108.74 -0.25,-90.14 23.75,-90.14 23.75,-108.74"/>
<text text-anchor="middle" x="11.75" y="-96.74" font-family="Times,serif" font-size="9.00">&#45;1</text>
</g>
<!-- 10072 -->
<g id="node7" class="node">
<title>10072</title>
<ellipse fill="white" stroke="black" cx="63.72" cy="-49.15" rx="22.04" ry="22.04"/>
<text text-anchor="middle" x="63.72" y="-46.45" font-family="Times,serif" font-size="9.00">tanh</text>
</g>
<!-- &#45;1&#45;&gt;10072 -->
<g id="edge10" class="edge">
<title>&#45;1&#45;&gt;10072</title>
<path fill="none" stroke="green" stroke-width="0.49" d="M21.77,-89.75C27.03,-84.66 33.71,-78.19 40.18,-71.92"/>
<polygon fill="green" stroke="green" stroke-width="0.49" points="42.84,-74.22 47.59,-64.75 37.97,-69.19 42.84,-74.22"/>
<text text-anchor="middle" x="24.52" y="-82.33" font-family="Times,serif" font-size="5.00">&#45;1.932</text>
</g>
<!-- 10072 0 -->
<g id="node9" class="node">
<title>10072 0</title>
<ellipse fill="none" stroke="black" cx="54.33" cy="-73.69" rx="31.99" ry="31.99"/>
<text text-anchor="middle" x="54.33" y="-70.99" font-family="Times,serif" font-size="9.00">10072 0</text>
</g>
<!-- &#45;1&#45;&gt;10072 0 -->
<g id="edge5" class="edge">
<title>&#45;1&#45;&gt;10072 0</title>
<path fill="none" stroke="green" stroke-width="0.49" d="M23.84,-92.13C23.96,-92.06 24.08,-91.98 24.21,-91.91"/>
<polygon fill="green" stroke="green" stroke-width="0.49" points="20.13,-98.47 26.87,-90.3 16.5,-92.48 20.13,-98.47"/>
<text text-anchor="middle" x="17.56" y="-87.52" font-family="Times,serif" font-size="5.00">&#45;1.932</text>
</g>
<!-- 10072 1 -->
<g id="node10" class="node">
<title>10072 1</title>
<ellipse fill="none" stroke="black" cx="107.36" cy="-59.23" rx="31.99" ry="31.99"/>
<text text-anchor="middle" x="107.36" y="-56.53" font-family="Times,serif" font-size="9.00">10072 1</text>
</g>
<!-- &#45;1&#45;&gt;10072 1 -->
<g id="edge6" class="edge">
<title>&#45;1&#45;&gt;10072 1</title>
<path fill="none" stroke="green" stroke-width="0.49" d="M23.86,-94.35C35.01,-89.66 52.18,-82.43 68.06,-75.76"/>
<polygon fill="green" stroke="green" stroke-width="0.49" points="69.86,-78.8 77.72,-71.69 67.14,-72.35 69.86,-78.8"/>
<text text-anchor="middle" x="39.5" y="-86.55" font-family="Times,serif" font-size="5.00">&#45;1.932</text>
</g>
<!-- 10072 2 -->
<g id="node11" class="node">
<title>10072 2</title>
<ellipse fill="none" stroke="black" cx="89.64" cy="-41.41" rx="31.99" ry="31.99"/>
<text text-anchor="middle" x="89.64" y="-38.71" font-family="Times,serif" font-size="9.00">10072 2</text>
</g>
<!-- &#45;1&#45;&gt;10072 2 -->
<g id="edge7" class="edge">
<title>&#45;1&#45;&gt;10072 2</title>
<path fill="none" stroke="green" stroke-width="0.49" d="M23.58,-90.63C32.14,-84.25 44.17,-75.28 55.63,-66.75"/>
<polygon fill="green" stroke="green" stroke-width="0.49" points="57.88,-69.44 63.81,-60.65 53.7,-63.82 57.88,-69.44"/>
<text text-anchor="middle" x="33.15" y="-74.19" font-family="Times,serif" font-size="5.00">&#45;1.932</text>
</g>
<!-- 10072 3 -->
<g id="node12" class="node">
<title>10072 3</title>
<ellipse fill="none" stroke="black" cx="57.02" cy="-162.97" rx="31.99" ry="31.99"/>
<text text-anchor="middle" x="57.02" y="-160.27" font-family="Times,serif" font-size="9.00">10072 3</text>
</g>
<!-- &#45;1&#45;&gt;10072 3 -->
<g id="edge8" class="edge">
<title>&#45;1&#45;&gt;10072 3</title>
<path fill="none" stroke="green" stroke-width="0.49" d="M18.43,-108.82C22.21,-114.12 27.2,-121.13 32.34,-128.33"/>
<polygon fill="green" stroke="green" stroke-width="0.49" points="29.71,-130.68 38.36,-136.79 35.41,-126.62 29.71,-130.68"/>
<text text-anchor="middle" x="18.92" y="-120.08" font-family="Times,serif" font-size="5.00">&#45;1.932</text>
</g>
<!-- 10072 4 -->
<g id="node13" class="node">
<title>10072 4</title>
<ellipse fill="none" stroke="black" cx="82.89" cy="-172.02" rx="31.99" ry="31.99"/>
<text text-anchor="middle" x="82.89" y="-169.32" font-family="Times,serif" font-size="9.00">10072 4</text>
</g>
<!-- &#45;1&#45;&gt;10072 4 -->
<g id="edge9" class="edge">
<title>&#45;1&#45;&gt;10072 4</title>
<path fill="none" stroke="green" stroke-width="0.49" d="M21.05,-108.93C29.28,-117.33 41.76,-130.06 53.36,-141.89"/>
<polygon fill="green" stroke="green" stroke-width="0.49" points="50.92,-144.4 60.42,-149.09 55.92,-139.5 50.92,-144.4"/>
<text text-anchor="middle" x="30.75" y="-126.91" font-family="Times,serif" font-size="5.00">&#45;1.932</text>
</g>
<!-- &#45;2 -->
<g id="node2" class="node">
<title>&#45;2</title>
<polygon fill="lightgray" stroke="black" points="209.17,-137.39 185.16,-137.39 185.16,-118.79 209.17,-118.79 209.17,-137.39"/>
<text text-anchor="middle" x="197.16" y="-125.39" font-family="Times,serif" font-size="9.00">&#45;2</text>
</g>
<!-- 0 -->
<g id="node5" class="node">
<title>0</title>
<ellipse fill="lightblue" stroke="black" cx="142.95" cy="-107.14" rx="14.49" ry="14.49"/>
<ellipse fill="none" stroke="black" cx="142.95" cy="-107.14" rx="18.49" ry="18.49"/>
<text text-anchor="middle" x="142.95" y="-104.44" font-family="Times,serif" font-size="9.00">0</text>
</g>
<!-- &#45;2&#45;&gt;0 -->
<g id="edge1" class="edge">
<title>&#45;2&#45;&gt;0</title>
<path fill="none" stroke="green" stroke-width="0.56" d="M185.4,-123.54C180.81,-121.77 175.34,-119.66 169.88,-117.55"/>
<polygon fill="green" stroke="green" stroke-width="0.56" points="170.84,-114.17 160.25,-113.83 168.32,-120.69 170.84,-114.17"/>
<text text-anchor="middle" x="171.18" y="-122.04" font-family="Times,serif" font-size="5.00">&#45;2.316</text>
</g>
<!-- 10960 -->
<g id="node8" class="node">
<title>10960</title>
<ellipse fill="white" stroke="black" cx="235.96" cy="-105.09" rx="31.65" ry="31.65"/>
<text text-anchor="middle" x="235.96" y="-102.39" font-family="Times,serif" font-size="9.00">sigmoid</text>
</g>
<!-- &#45;2&#45;&gt;10960 -->
<g id="edge36" class="edge">
<title>&#45;2&#45;&gt;10960</title>
<path fill="none" stroke="green" stroke-width="0.25" d="M209.01,-121.06C209.06,-121.04 209.1,-121.01 209.15,-120.99"/>
<polygon fill="green" stroke="green" stroke-width="0.25" points="202.47,-129.02 209.28,-120.91 198.89,-123 202.47,-129.02"/>
<text text-anchor="middle" x="203.46" y="-116.53" font-family="Times,serif" font-size="5.00">0.746</text>
</g>
<!-- 10960 0 -->
<g id="node14" class="node">
<title>10960 0</title>
<ellipse fill="none" stroke="black" cx="214.12" cy="-169.39" rx="31.99" ry="31.99"/>
<text text-anchor="middle" x="214.12" y="-166.69" font-family="Times,serif" font-size="9.00">10960 0</text>
</g>
<!-- &#45;2&#45;&gt;10960 0 -->
<g id="edge31" class="edge">
<title>&#45;2&#45;&gt;10960 0</title>
<path fill="none" stroke="green" stroke-width="0.25" d="M201.1,-137.67C201.13,-137.75 201.17,-137.84 201.2,-137.92"/>
<polygon fill="green" stroke="green" stroke-width="0.25" points="194.91,-131.81 201.95,-139.73 201.38,-129.15 194.91,-131.81"/>
<text text-anchor="middle" x="206.78" y="-139.29" font-family="Times,serif" font-size="5.00">0.746</text>
</g>
<!-- 10960 1 -->
<g id="node15" class="node">
<title>10960 1</title>
<ellipse fill="none" stroke="black" cx="178.8" cy="-188.05" rx="31.99" ry="31.99"/>
<text text-anchor="middle" x="178.8" y="-185.35" font-family="Times,serif" font-size="9.00">10960 1</text>
</g>
<!-- &#45;2&#45;&gt;10960 1 -->
<g id="edge32" class="edge">
<title>&#45;2&#45;&gt;10960 1</title>
<path fill="none" stroke="green" stroke-width="0.25" d="M194.3,-137.46C193.38,-140.45 192.3,-143.97 191.15,-147.74"/>
<polygon fill="green" stroke="green" stroke-width="0.25" points="187.75,-146.87 188.17,-157.46 194.45,-148.92 187.75,-146.87"/>
<text text-anchor="middle" x="187.1" y="-144.1" font-family="Times,serif" font-size="5.00">0.746</text>
</g>
<!-- 10960 2 -->
<g id="node16" class="node">
<title>10960 2</title>
<ellipse fill="none" stroke="black" cx="195.18" cy="-47.86" rx="31.99" ry="31.99"/>
<text text-anchor="middle" x="195.18" y="-45.16" font-family="Times,serif" font-size="9.00">10960 2</text>
</g>
<!-- &#45;2&#45;&gt;10960 2 -->
<g id="edge33" class="edge">
<title>&#45;2&#45;&gt;10960 2</title>
<path fill="none" stroke="green" stroke-width="0.25" d="M196.93,-118.57C196.75,-111.34 196.49,-100.83 196.22,-90.12"/>
<polygon fill="green" stroke="green" stroke-width="0.25" points="199.72,-89.81 195.97,-79.9 192.72,-89.98 199.72,-89.81"/>
<text text-anchor="middle" x="190.95" y="-99.85" font-family="Times,serif" font-size="5.00">0.746</text>
</g>
<!-- 10960 3 -->
<g id="node17" class="node">
<title>10960 3</title>
<ellipse fill="none" stroke="black" cx="220.15" cy="-68.21" rx="31.99" ry="31.99"/>
<text text-anchor="middle" x="220.15" y="-65.51" font-family="Times,serif" font-size="9.00">10960 3</text>
</g>
<!-- &#45;2&#45;&gt;10960 3 -->
<g id="edge34" class="edge">
<title>&#45;2&#45;&gt;10960 3</title>
<path fill="none" stroke="green" stroke-width="0.25" d="M200.76,-118.73C201.96,-115.59 203.4,-111.86 204.93,-107.86"/>
<polygon fill="green" stroke="green" stroke-width="0.25" points="208.31,-108.83 208.62,-98.24 201.77,-106.32 208.31,-108.83"/>
<text text-anchor="middle" x="197.22" y="-108.8" font-family="Times,serif" font-size="5.00">0.746</text>
</g>
<!-- 10960 4 -->
<g id="node18" class="node">
<title>10960 4</title>
<ellipse fill="none" stroke="black" cx="147.46" cy="-192.8" rx="31.99" ry="31.99"/>
<text text-anchor="middle" x="147.46" y="-190.1" font-family="Times,serif" font-size="9.00">10960 4</text>
</g>
<!-- &#45;2&#45;&gt;10960 4 -->
<g id="edge35" class="edge">
<title>&#45;2&#45;&gt;10960 4</title>
<path fill="none" stroke="green" stroke-width="0.25" d="M189.83,-137.64C185.43,-143.37 179.53,-151.05 173.54,-158.85"/>
<polygon fill="green" stroke="green" stroke-width="0.25" points="170.39,-157.21 167.07,-167.27 175.94,-161.47 170.39,-157.21"/>
<text text-anchor="middle" x="176.06" y="-149.74" font-family="Times,serif" font-size="5.00">0.746</text>
</g>
<!-- &#45;3 -->
<g id="node3" class="node">
<title>&#45;3</title>
<polygon fill="lightgray" stroke="black" points="176.25,-18.7 152.25,-18.7 152.25,-0.1 176.25,-0.1 176.25,-18.7"/>
<text text-anchor="middle" x="164.25" y="-6.7" font-family="Times,serif" font-size="9.00">&#45;3</text>
</g>
<!-- &#45;3&#45;&gt;0 -->
<g id="edge2" class="edge">
<title>&#45;3&#45;&gt;0</title>
<path fill="none" stroke="green" stroke-width="0.79" stroke-dasharray="1,5" d="M162.21,-18.77C159.21,-32.52 153.5,-58.74 149.07,-79.06"/>
<polygon fill="green" stroke="green" stroke-width="0.79" points="145.6,-78.54 146.89,-89.05 152.44,-80.03 145.6,-78.54"/>
<text text-anchor="middle" x="150.01" y="-50.42" font-family="Times,serif" font-size="5.00">3.472</text>
</g>
<!-- &#45;4 -->
<g id="node4" class="node">
<title>&#45;4</title>
<polygon fill="lightgray" stroke="black" points="110.19,-124.79 86.18,-124.79 86.18,-106.19 110.19,-106.19 110.19,-124.79"/>
<text text-anchor="middle" x="98.18" y="-112.79" font-family="Times,serif" font-size="9.00">&#45;4</text>
</g>
<!-- &#45;4&#45;&gt;0 -->
<g id="edge3" class="edge">
<title>&#45;4&#45;&gt;0</title>
<path fill="none" stroke="green" stroke-width="0.3" stroke-dasharray="1,5" d="M109.95,-113.29C111.34,-113.03 112.8,-112.76 114.31,-112.48"/>
<polygon fill="green" stroke="green" stroke-width="0.3" points="115.32,-115.85 124.51,-110.58 114.04,-108.97 115.32,-115.85"/>
<text text-anchor="middle" x="117.75" y="-114.39" font-family="Times,serif" font-size="5.00">1.010</text>
</g>
<!-- 10843 -->
<g id="node6" class="node">
<title>10843</title>
<ellipse fill="white" stroke="black" cx="65.95" cy="-113.05" rx="35.19" ry="35.19"/>
<text text-anchor="middle" x="65.95" y="-110.35" font-family="Times,serif" font-size="9.00">heaviside</text>
</g>
<!-- &#45;4&#45;&gt;10843 -->
<g id="edge23" class="edge">
<title>&#45;4&#45;&gt;10843</title>
<path fill="none" stroke="green" stroke-width="0.52" d="M86.18,-114.58C86.11,-114.57 86.04,-114.57 85.97,-114.56"/>
<polygon fill="green" stroke="green" stroke-width="0.52" points="95.99,-111.81 85.75,-114.55 95.46,-118.79 95.99,-111.81"/>
<text text-anchor="middle" x="79.62" y="-116.07" font-family="Times,serif" font-size="5.00">&#45;2.103</text>
</g>
<!-- &#45;4&#45;&gt;10072 -->
<g id="edge22" class="edge">
<title>&#45;4&#45;&gt;10072</title>
<path fill="none" stroke="green" stroke-width="0.24" stroke-dasharray="1,5" d="M93.25,-105.98C89.43,-98.63 83.93,-88.04 78.7,-78"/>
<polygon fill="green" stroke="green" stroke-width="0.24" points="81.76,-76.29 74.05,-69.03 75.55,-79.52 81.76,-76.29"/>
<text text-anchor="middle" x="80.35" y="-93.49" font-family="Times,serif" font-size="5.00">0.711</text>
</g>
<!-- &#45;4&#45;&gt;10072 0 -->
<g id="edge17" class="edge">
<title>&#45;4&#45;&gt;10072 0</title>
<path fill="none" stroke="green" stroke-width="0.24" stroke-dasharray="1,5" d="M88.01,-105.79C87.03,-104.86 86.01,-103.88 84.95,-102.87"/>
<polygon fill="green" stroke="green" stroke-width="0.24" points="87.29,-100.27 77.64,-95.9 82.46,-105.34 87.29,-100.27"/>
<text text-anchor="middle" x="92.11" y="-99.83" font-family="Times,serif" font-size="5.00">0.711</text>
</g>
<!-- &#45;4&#45;&gt;10072 1 -->
<g id="edge18" class="edge">
<title>&#45;4&#45;&gt;10072 1</title>
<path fill="none" stroke="green" stroke-width="0.24" stroke-dasharray="1,5" d="M99.74,-105.94C99.98,-104.48 100.24,-102.89 100.51,-101.21"/>
<polygon fill="green" stroke="green" stroke-width="0.24" points="104.04,-101.34 102.19,-90.91 97.13,-100.21 104.04,-101.34"/>
<text text-anchor="middle" x="105.75" y="-99.08" font-family="Times,serif" font-size="5.00">0.711</text>
</g>
<!-- &#45;4&#45;&gt;10072 2 -->
<g id="edge19" class="edge">
<title>&#45;4&#45;&gt;10072 2</title>
<path fill="none" stroke="green" stroke-width="0.24" stroke-dasharray="1,5" d="M97.1,-106.1C96.42,-100.17 95.48,-92.04 94.5,-83.54"/>
<polygon fill="green" stroke="green" stroke-width="0.24" points="97.97,-83.05 93.35,-73.51 91.01,-83.85 97.97,-83.05"/>
<text text-anchor="middle" x="101.43" y="-90.32" font-family="Times,serif" font-size="5.00">0.711</text>
</g>
<!-- &#45;4&#45;&gt;10072 3 -->
<g id="edge20" class="edge">
<title>&#45;4&#45;&gt;10072 3</title>
<path fill="none" stroke="green" stroke-width="0.24" stroke-dasharray="1,5" d="M89.85,-125.09C88.37,-126.8 86.76,-128.66 85.07,-130.61"/>
<polygon fill="green" stroke="green" stroke-width="0.24" points="82.18,-128.6 78.28,-138.44 87.47,-133.18 82.18,-128.6"/>
<text text-anchor="middle" x="81.84" y="-129.35" font-family="Times,serif" font-size="5.00">0.711</text>
</g>
<!-- &#45;4&#45;&gt;10072 4 -->
<g id="edge21" class="edge">
<title>&#45;4&#45;&gt;10072 4</title>
<path fill="none" stroke="green" stroke-width="0.24" stroke-dasharray="1,5" d="M95.66,-124.82C95.14,-126.73 94.57,-128.84 93.96,-131.1"/>
<polygon fill="green" stroke="green" stroke-width="0.24" points="90.54,-130.35 91.31,-140.92 97.29,-132.18 90.54,-130.35"/>
<text text-anchor="middle" x="100.44" y="-129.46" font-family="Times,serif" font-size="5.00">0.711</text>
</g>
<!-- 0&#45;&gt;0 -->
<g id="edge4" class="edge">
<title>0&#45;&gt;0</title>
<path fill="none" stroke="red" stroke-width="0.23" d="M160.6,-113.57C170.41,-114.77 179.45,-112.62 179.45,-107.14 179.45,-103.71 175.92,-101.59 170.88,-100.77"/>
<polygon fill="red" stroke="red" stroke-width="0.23" points="170.62,-97.27 160.6,-100.71 170.58,-104.27 170.62,-97.27"/>
<text text-anchor="middle" x="185.91" y="-105.64" font-family="Times,serif" font-size="5.00">&#45;0.658</text>
</g>
<!-- 0&#45;&gt;10843 -->
<g id="edge30" class="edge">
<title>0&#45;&gt;10843</title>
<path fill="none" stroke="red" stroke-width="0.39" d="M124.31,-108.57C120.3,-108.88 115.89,-109.22 111.34,-109.57"/>
<polygon fill="red" stroke="red" stroke-width="0.39" points="110.99,-106.08 101.29,-110.34 111.53,-113.06 110.99,-106.08"/>
<text text-anchor="middle" x="117.83" y="-104.57" font-family="Times,serif" font-size="5.00">&#45;1.452</text>
</g>
<!-- 10843&#45;&gt;10072 -->
<g id="edge29" class="edge">
<title>10843&#45;&gt;10072</title>
<path fill="none" stroke="green" stroke-width="0.11" d="M64.7,-77.36C64.7,-77.24 64.69,-77.12 64.69,-77"/>
<polygon fill="green" stroke="green" stroke-width="0.11" points="68.35,-81.49 64.5,-71.62 61.35,-81.73 68.35,-81.49"/>
<text text-anchor="middle" x="59.07" y="-78.68" font-family="Times,serif" font-size="5.00">0.035</text>
</g>
<!-- 10843&#45;&gt;10072 0 -->
<g id="edge24" class="edge">
<title>10843&#45;&gt;10072 0</title>
<path fill="none" stroke="green" stroke-width="0.11" d="M55.85,-78.84C55.83,-78.79 55.82,-78.74 55.8,-78.69"/>
<polygon fill="green" stroke="green" stroke-width="0.11" points="61.96,-87.15 55.76,-78.55 55.24,-89.13 61.96,-87.15"/>
<text text-anchor="middle" x="50.2" y="-80.26" font-family="Times,serif" font-size="5.00">0.035</text>
</g>
<!-- 10843&#45;&gt;10072 1 -->
<g id="edge25" class="edge">
<title>10843&#45;&gt;10072 1</title>
<path fill="none" stroke="green" stroke-width="0.11" d="M87.62,-84.88C87.66,-84.83 87.7,-84.78 87.74,-84.72"/>
<polygon fill="green" stroke="green" stroke-width="0.11" points="84.53,-94.63 87.86,-84.57 78.98,-90.36 84.53,-94.63"/>
<text text-anchor="middle" x="93.31" y="-80.3" font-family="Times,serif" font-size="5.00">0.035</text>
</g>
<!-- 10843&#45;&gt;10072 2 -->
<g id="edge26" class="edge">
<title>10843&#45;&gt;10072 2</title>
<path fill="none" stroke="green" stroke-width="0.11" d="M77.1,-79.33C77.15,-79.17 77.2,-79.02 77.26,-78.86"/>
<polygon fill="green" stroke="green" stroke-width="0.11" points="79.73,-82.52 79.55,-71.93 73.09,-80.32 79.73,-82.52"/>
<text text-anchor="middle" x="71.55" y="-80.59" font-family="Times,serif" font-size="5.00">0.035</text>
</g>
<!-- 10843&#45;&gt;10072 3 -->
<g id="edge27" class="edge">
<title>10843&#45;&gt;10072 3</title>
<path fill="none" stroke="green" stroke-width="0.11" d="M59.7,-147.99C59.68,-148.06 59.67,-148.12 59.66,-148.19"/>
<polygon fill="green" stroke="green" stroke-width="0.11" points="57.95,-137.92 59.63,-148.38 64.84,-139.16 57.95,-137.92"/>
<text text-anchor="middle" x="54.05" y="-149.59" font-family="Times,serif" font-size="5.00">0.035</text>
</g>
<!-- 10843&#45;&gt;10072 4 -->
<g id="edge28" class="edge">
<title>10843&#45;&gt;10072 4</title>
<path fill="none" stroke="green" stroke-width="0.11" d="M75.81,-147.35C75.82,-147.4 75.84,-147.46 75.85,-147.51"/>
<polygon fill="green" stroke="green" stroke-width="0.11" points="69.76,-139.01 75.89,-147.66 76.49,-137.08 69.76,-139.01"/>
<text text-anchor="middle" x="70.2" y="-148.93" font-family="Times,serif" font-size="5.00">0.035</text>
</g>
<!-- 10072&#45;&gt;0 -->
<g id="edge16" class="edge">
<title>10072&#45;&gt;0</title>
<path fill="none" stroke="red" stroke-width="0.39" stroke-dasharray="1,5" d="M81.7,-62.31C92.94,-70.54 107.54,-81.22 119.66,-90.09"/>
<polygon fill="red" stroke="red" stroke-width="0.39" points="117.83,-93.09 127.97,-96.17 121.97,-87.44 117.83,-93.09"/>
<text text-anchor="middle" x="94.22" y="-71.7" font-family="Times,serif" font-size="5.00">&#45;1.438</text>
</g>
<!-- 10960&#45;&gt;0 -->
<g id="edge42" class="edge">
<title>10960&#45;&gt;0</title>
<path fill="none" stroke="green" stroke-width="0.54" d="M203.95,-105.8C193.5,-106.03 181.96,-106.28 171.76,-106.51"/>
<polygon fill="green" stroke="green" stroke-width="0.54" points="171.64,-103.01 161.71,-106.73 171.79,-110.01 171.64,-103.01"/>
<text text-anchor="middle" x="182.23" y="-107.65" font-family="Times,serif" font-size="5.00">2.188</text>
</g>
<!-- 10072 0&#45;&gt;0 -->
<g id="edge11" class="edge">
<title>10072 0&#45;&gt;0</title>
<path fill="none" stroke="red" stroke-width="0.39" stroke-dasharray="1,5" d="M84.33,-85.02C94.65,-88.91 106.13,-93.24 116.18,-97.03"/>
<polygon fill="red" stroke="red" stroke-width="0.39" points="115.06,-100.35 125.65,-100.61 117.53,-93.8 115.06,-100.35"/>
<text text-anchor="middle" x="105.88" y="-92.52" font-family="Times,serif" font-size="5.00">1.438</text>
</g>
<!-- 10072 1&#45;&gt;0 -->
<g id="edge12" class="edge">
<title>10072 1&#45;&gt;0</title>
<path fill="none" stroke="red" stroke-width="0.39" stroke-dasharray="1,5" d="M126.61,-85.15C126.72,-85.29 126.83,-85.43 126.93,-85.58"/>
<polygon fill="red" stroke="red" stroke-width="0.39" points="122.84,-85.93 131.61,-91.87 128.45,-81.75 122.84,-85.93"/>
<text text-anchor="middle" x="121.15" y="-80.86" font-family="Times,serif" font-size="5.00">0.863</text>
</g>
<!-- 10072 2&#45;&gt;0 -->
<g id="edge13" class="edge">
<title>10072 2&#45;&gt;0</title>
<path fill="none" stroke="red" stroke-width="0.39" stroke-dasharray="1,5" d="M110.1,-66.63C114.92,-72.57 120.02,-78.86 124.72,-84.66"/>
<polygon fill="red" stroke="red" stroke-width="0.39" points="122.25,-87.16 131.26,-92.72 127.68,-82.75 122.25,-87.16"/>
<text text-anchor="middle" x="111.79" y="-77.15" font-family="Times,serif" font-size="5.00">0.288</text>
</g>
<!-- 10072 3&#45;&gt;0 -->
<g id="edge14" class="edge">
<title>10072 3&#45;&gt;0</title>
<path fill="none" stroke="red" stroke-width="0.39" stroke-dasharray="1,5" d="M84.21,-145.3C95.27,-138.12 107.96,-129.87 118.7,-122.89"/>
<polygon fill="red" stroke="red" stroke-width="0.39" points="120.71,-125.76 127.19,-117.38 116.9,-119.89 120.71,-125.76"/>
<text text-anchor="middle" x="107.91" y="-135.6" font-family="Times,serif" font-size="5.00">&#45;0.288</text>
</g>
<!-- 10072 4&#45;&gt;0 -->
<g id="edge15" class="edge">
<title>10072 4&#45;&gt;0</title>
<path fill="none" stroke="red" stroke-width="0.39" stroke-dasharray="1,5" d="M104.92,-148.23C110.94,-141.72 117.43,-134.71 123.32,-128.35"/>
<polygon fill="red" stroke="red" stroke-width="0.39" points="126.14,-130.46 130.36,-120.74 121,-125.7 126.14,-130.46"/>
<text text-anchor="middle" x="120.57" y="-139.79" font-family="Times,serif" font-size="5.00">&#45;0.863</text>
</g>
<!-- 10960 0&#45;&gt;0 -->
<g id="edge37" class="edge">
<title>10960 0&#45;&gt;0</title>
<path fill="none" stroke="green" stroke-width="0.54" d="M190.03,-148.31C181.8,-141.12 172.66,-133.12 164.63,-126.1"/>
<polygon fill="green" stroke="green" stroke-width="0.54" points="166.89,-123.42 157.06,-119.47 162.28,-128.69 166.89,-123.42"/>
<text text-anchor="middle" x="171.71" y="-138.71" font-family="Times,serif" font-size="5.00">2.188</text>
</g>
<!-- 10960 1&#45;&gt;0 -->
<g id="edge38" class="edge">
<title>10960 1&#45;&gt;0</title>
<path fill="none" stroke="green" stroke-width="0.54" d="M165.66,-158.38C162.02,-150.18 158.1,-141.33 154.56,-133.33"/>
<polygon fill="green" stroke="green" stroke-width="0.54" points="157.72,-131.83 150.47,-124.1 151.32,-134.66 157.72,-131.83"/>
<text text-anchor="middle" x="154.48" y="-147.36" font-family="Times,serif" font-size="5.00">2.188</text>
</g>
<!-- 10960 2&#45;&gt;0 -->
<g id="edge39" class="edge">
<title>10960 2&#45;&gt;0</title>
<path fill="none" stroke="green" stroke-width="0.54" d="M173.94,-71.97C169.98,-76.46 165.87,-81.12 161.99,-85.53"/>
<polygon fill="green" stroke="green" stroke-width="0.54" points="159.31,-83.27 155.33,-93.09 164.57,-87.9 159.31,-83.27"/>
<text text-anchor="middle" x="162.34" y="-80.25" font-family="Times,serif" font-size="5.00">2.188</text>
</g>
<!-- 10960 3&#45;&gt;0 -->
<g id="edge40" class="edge">
<title>10960 3&#45;&gt;0</title>
<path fill="none" stroke="green" stroke-width="0.54" d="M191.41,-82.71C184.1,-86.39 176.28,-90.33 169.11,-93.95"/>
<polygon fill="green" stroke="green" stroke-width="0.54" points="167.19,-91 159.84,-98.63 170.34,-97.25 167.19,-91"/>
<text text-anchor="middle" x="174.63" y="-89.83" font-family="Times,serif" font-size="5.00">2.188</text>
</g>
<!-- 10960 4&#45;&gt;0 -->
<g id="edge41" class="edge">
<title>10960 4&#45;&gt;0</title>
<path fill="none" stroke="green" stroke-width="0.54" d="M145.76,-160.42C145.33,-152.34 144.88,-143.73 144.46,-135.85"/>
<polygon fill="green" stroke="green" stroke-width="0.54" points="147.95,-135.46 143.93,-125.65 140.96,-135.83 147.95,-135.46"/>
<text text-anchor="middle" x="139.48" y="-149.63" font-family="Times,serif" font-size="5.00">2.188</text>
</g>
</g>
</svg>
