<?xml version="1.0" encoding="UTF-8" standalone="no"?>
<!DOCTYPE svg PUBLIC "-//W3C//DTD SVG 1.1//EN"
 "http://www.w3.org/Graphics/SVG/1.1/DTD/svg11.dtd">
<!-- Generated by graphviz version 2.47.1 (20210417.1919)
 -->
<!-- Pages: 1 -->
<svg width="185pt" height="187pt"
 viewBox="0.00 0.00 185.02 186.51" xmlns="http://www.w3.org/2000/svg" xmlns:xlink="http://www.w3.org/1999/xlink">
<g id="graph0" class="graph" transform="scale(1 1) rotate(0) translate(4 182.51)">
<polygon fill="white" stroke="transparent" points="-4,4 -4,-182.51 181.02,-182.51 181.02,4 -4,4"/>
<!-- &#45;1 -->
<g id="node1" class="node">
<title>&#45;1</title>
<polygon fill="lightgray" stroke="black" points="23.75,-71.71 -0.25,-71.71 -0.25,-53.11 23.75,-53.11 23.75,-71.71"/>
<text text-anchor="middle" x="11.75" y="-59.71" font-family="Times,serif" font-size="9.00">&#45;1</text>
</g>
<!-- 0 -->
<g id="node5" class="node">
<title>0</title>
<ellipse fill="lightblue" stroke="black" cx="86.44" cy="-90.56" rx="14.49" ry="14.49"/>
<ellipse fill="none" stroke="black" cx="86.44" cy="-90.56" rx="18.49" ry="18.49"/>
<text text-anchor="middle" x="86.44" y="-87.86" font-family="Times,serif" font-size="9.00">0</text>
</g>
<!-- &#45;1&#45;&gt;0 -->
<g id="edge4" class="edge">
<title>&#45;1&#45;&gt;0</title>
<path fill="none" stroke="green" stroke-width="0.34" stroke-dasharray="1,5" d="M23.75,-66.93C33.38,-70.56 47.27,-75.8 59.53,-80.42"/>
<polygon fill="green" stroke="green" stroke-width="0.34" points="58.31,-83.7 68.9,-83.95 60.78,-77.15 58.31,-83.7"/>
<text text-anchor="middle" x="36.01" y="-75.18" font-family="Times,serif" font-size="5.00">1.180</text>
</g>
<!-- &#45;2 -->
<g id="node2" class="node">
<title>&#45;2</title>
<polygon fill="lightgray" stroke="black" points="177.27,-96.57 153.27,-96.57 153.27,-77.97 177.27,-77.97 177.27,-96.57"/>
<text text-anchor="middle" x="165.27" y="-84.57" font-family="Times,serif" font-size="9.00">&#45;2</text>
</g>
<!-- &#45;2&#45;&gt;0 -->
<g id="edge1" class="edge">
<title>&#45;2&#45;&gt;0</title>
<path fill="none" stroke="red" stroke-width="0.37" d="M153.3,-87.77C143.17,-88.19 128.24,-88.82 115.06,-89.37"/>
<polygon fill="red" stroke="red" stroke-width="0.37" points="114.84,-85.87 104.99,-89.79 115.13,-92.87 114.84,-85.87"/>
<text text-anchor="middle" x="127.72" y="-90.07" font-family="Times,serif" font-size="5.00">&#45;1.373</text>
</g>
<!-- 12713 -->
<g id="node6" class="node">
<title>12713</title>
<ellipse fill="white" stroke="black" cx="141.8" cy="-146.69" rx="31.65" ry="31.65"/>
<text text-anchor="middle" x="141.8" y="-143.99" font-family="Times,serif" font-size="9.00">sigmoid</text>
</g>
<!-- &#45;2&#45;&gt;12713 -->
<g id="edge5" class="edge">
<title>&#45;2&#45;&gt;12713</title>
<path fill="none" stroke="green" stroke-width="0.45" d="M161.5,-96.81C160.28,-99.91 158.83,-103.57 157.29,-107.47"/>
<polygon fill="green" stroke="green" stroke-width="0.45" points="154,-106.28 153.58,-116.86 160.51,-108.85 154,-106.28"/>
<text text-anchor="middle" x="153.77" y="-103.64" font-family="Times,serif" font-size="5.00">1.766</text>
</g>
<!-- &#45;3 -->
<g id="node3" class="node">
<title>&#45;3</title>
<polygon fill="lightgray" stroke="black" points="108.9,-18.7 84.89,-18.7 84.89,-0.1 108.9,-0.1 108.9,-18.7"/>
<text text-anchor="middle" x="96.89" y="-6.7" font-family="Times,serif" font-size="9.00">&#45;3</text>
</g>
<!-- &#45;3&#45;&gt;0 -->
<g id="edge2" class="edge">
<title>&#45;3&#45;&gt;0</title>
<path fill="none" stroke="green" stroke-width="0.32" d="M95.7,-18.71C94.34,-29.27 92.05,-46.98 90.1,-62.18"/>
<polygon fill="green" stroke="green" stroke-width="0.32" points="86.61,-61.82 88.81,-72.19 93.56,-62.71 86.61,-61.82"/>
<text text-anchor="middle" x="86.44" y="-41.95" font-family="Times,serif" font-size="5.00">&#45;1.114</text>
</g>
<!-- &#45;4 -->
<g id="node4" class="node">
<title>&#45;4</title>
<polygon fill="lightgray" stroke="black" points="51.81,-167.31 27.81,-167.31 27.81,-148.71 51.81,-148.71 51.81,-167.31"/>
<text text-anchor="middle" x="39.81" y="-155.31" font-family="Times,serif" font-size="9.00">&#45;4</text>
</g>
<!-- &#45;4&#45;&gt;0 -->
<g id="edge3" class="edge">
<title>&#45;4&#45;&gt;0</title>
<path fill="none" stroke="red" stroke-width="0.27" stroke-dasharray="1,5" d="M46.29,-148.63C52.46,-139.72 61.98,-125.95 70.2,-114.05"/>
<polygon fill="red" stroke="red" stroke-width="0.27" points="73.08,-116.04 75.89,-105.82 67.33,-112.06 73.08,-116.04"/>
<text text-anchor="middle" x="52.62" y="-132.84" font-family="Times,serif" font-size="5.00">0.842</text>
</g>
<!-- 12713&#45;&gt;0 -->
<g id="edge6" class="edge">
<title>12713&#45;&gt;0</title>
<path fill="none" stroke="red" stroke-width="0.6" d="M119.28,-123.86C115.09,-119.61 110.74,-115.2 106.62,-111.02"/>
<polygon fill="red" stroke="red" stroke-width="0.6" points="109.07,-108.53 99.56,-103.86 104.09,-113.44 109.07,-108.53"/>
<text text-anchor="middle" x="107.33" y="-112.94" font-family="Times,serif" font-size="5.00">2.514</text>
</g>
</g>
</svg>
