<?xml version="1.0" encoding="UTF-8" standalone="no"?>
<!DOCTYPE svg PUBLIC "-//W3C//DTD SVG 1.1//EN"
 "http://www.w3.org/Graphics/SVG/1.1/DTD/svg11.dtd">
<!-- Generated by graphviz version 2.47.1 (20210417.1919)
 -->
<!-- Pages: 1 -->
<svg width="256pt" height="237pt"
 viewBox="0.00 0.00 256.50 236.80" xmlns="http://www.w3.org/2000/svg" xmlns:xlink="http://www.w3.org/1999/xlink">
<g id="graph0" class="graph" transform="scale(1 1) rotate(0) translate(4 232.8)">
<polygon fill="white" stroke="transparent" points="-4,4 -4,-232.8 252.5,-232.8 252.5,4 -4,4"/>
<!-- &#45;1 -->
<g id="node1" class="node">
<title>&#45;1</title>
<polygon fill="lightgray" stroke="black" points="233.75,-228.7 209.75,-228.7 209.75,-210.1 233.75,-210.1 233.75,-228.7"/>
<text text-anchor="middle" x="221.75" y="-216.7" font-family="Times,serif" font-size="9.00">&#45;1</text>
</g>
<!-- &#45;2 -->
<g id="node2" class="node">
<title>&#45;2</title>
<polygon fill="lightgray" stroke="black" points="110.43,-114.14 86.43,-114.14 86.43,-95.54 110.43,-95.54 110.43,-114.14"/>
<text text-anchor="middle" x="98.43" y="-102.14" font-family="Times,serif" font-size="9.00">&#45;2</text>
</g>
<!-- 0 -->
<g id="node5" class="node">
<title>0</title>
<ellipse fill="lightblue" stroke="black" cx="123.62" cy="-118.5" rx="14.49" ry="14.49"/>
<ellipse fill="none" stroke="black" cx="123.62" cy="-118.5" rx="18.49" ry="18.49"/>
<text text-anchor="middle" x="123.62" y="-115.8" font-family="Times,serif" font-size="9.00">0</text>
</g>
<!-- &#45;2&#45;&gt;0 -->
<g id="edge1" class="edge">
<title>&#45;2&#45;&gt;0</title>
<path fill="none" stroke="red" stroke-width="1.18" d="M110.43,-111.35C110.48,-111.38 110.53,-111.41 110.58,-111.43"/>
<polygon fill="red" stroke="red" stroke-width="1.18" points="100.28,-109.82 110.74,-111.52 103.61,-103.67 100.28,-109.82"/>
<text text-anchor="middle" x="116.97" y="-112.89" font-family="Times,serif" font-size="5.00">&#45;5.423</text>
</g>
<!-- 33572 -->
<g id="node6" class="node">
<title>33572</title>
<ellipse fill="white" stroke="black" cx="43.84" cy="-155.28" rx="31.65" ry="31.65"/>
<text text-anchor="middle" x="43.84" y="-152.58" font-family="Times,serif" font-size="9.00">sigmoid</text>
</g>
<!-- &#45;2&#45;&gt;33572 -->
<g id="edge10" class="edge">
<title>&#45;2&#45;&gt;33572</title>
<path fill="none" stroke="green" stroke-width="0.27" d="M88.16,-114.33C84.35,-117.85 79.8,-122.05 75.09,-126.4"/>
<polygon fill="green" stroke="green" stroke-width="0.27" points="72.62,-123.93 67.65,-133.28 77.37,-129.07 72.62,-123.93"/>
<text text-anchor="middle" x="87.25" y="-115.87" font-family="Times,serif" font-size="5.00">0.856</text>
</g>
<!-- 33572 0 -->
<g id="node7" class="node">
<title>33572 0</title>
<ellipse fill="none" stroke="black" cx="138.56" cy="-186.82" rx="31.99" ry="31.99"/>
<text text-anchor="middle" x="138.56" y="-184.12" font-family="Times,serif" font-size="9.00">33572 0</text>
</g>
<!-- &#45;2&#45;&gt;33572 0 -->
<g id="edge3" class="edge">
<title>&#45;2&#45;&gt;33572 0</title>
<path fill="none" stroke="green" stroke-width="0.27" d="M103.03,-114.25C107.21,-122.77 113.65,-135.93 119.9,-148.71"/>
<polygon fill="green" stroke="green" stroke-width="0.27" points="116.85,-150.44 124.39,-157.88 123.14,-147.36 116.85,-150.44"/>
<text text-anchor="middle" x="105.84" y="-132.98" font-family="Times,serif" font-size="5.00">0.856</text>
</g>
<!-- 33572 1 -->
<g id="node8" class="node">
<title>33572 1</title>
<ellipse fill="none" stroke="black" cx="86.05" cy="-188.52" rx="31.99" ry="31.99"/>
<text text-anchor="middle" x="86.05" y="-185.82" font-family="Times,serif" font-size="9.00">33572 1</text>
</g>
<!-- &#45;2&#45;&gt;33572 1 -->
<g id="edge4" class="edge">
<title>&#45;2&#45;&gt;33572 1</title>
<path fill="none" stroke="green" stroke-width="0.27" d="M97.01,-114.44C95.82,-122.49 94.03,-134.58 92.24,-146.67"/>
<polygon fill="green" stroke="green" stroke-width="0.27" points="88.75,-146.33 90.75,-156.73 95.68,-147.35 88.75,-146.33"/>
<text text-anchor="middle" x="89" y="-132.05" font-family="Times,serif" font-size="5.00">0.856</text>
</g>
<!-- 33572 2 -->
<g id="node9" class="node">
<title>33572 2</title>
<ellipse fill="none" stroke="black" cx="64.77" cy="-46.24" rx="31.99" ry="31.99"/>
<text text-anchor="middle" x="64.77" y="-43.54" font-family="Times,serif" font-size="9.00">33572 2</text>
</g>
<!-- &#45;2&#45;&gt;33572 2 -->
<g id="edge5" class="edge">
<title>&#45;2&#45;&gt;33572 2</title>
<path fill="none" stroke="green" stroke-width="0.27" d="M93.02,-95.43C90.98,-91.88 88.52,-87.59 85.91,-83.05"/>
<polygon fill="green" stroke="green" stroke-width="0.27" points="88.8,-81.04 80.78,-74.12 82.73,-84.53 88.8,-81.04"/>
<text text-anchor="middle" x="83.84" y="-90.74" font-family="Times,serif" font-size="5.00">0.856</text>
</g>
<!-- 33572 3 -->
<g id="node10" class="node">
<title>33572 3</title>
<ellipse fill="none" stroke="black" cx="167.9" cy="-53.76" rx="31.99" ry="31.99"/>
<text text-anchor="middle" x="167.9" y="-51.06" font-family="Times,serif" font-size="9.00">33572 3</text>
</g>
<!-- &#45;2&#45;&gt;33572 3 -->
<g id="edge6" class="edge">
<title>&#45;2&#45;&gt;33572 3</title>
<path fill="none" stroke="green" stroke-width="0.27" d="M110.21,-96.18C116.78,-91.35 125.34,-85.06 133.84,-78.81"/>
<polygon fill="green" stroke="green" stroke-width="0.27" points="135.93,-81.62 141.91,-72.87 131.78,-75.98 135.93,-81.62"/>
<text text-anchor="middle" x="116.4" y="-88.99" font-family="Times,serif" font-size="5.00">0.856</text>
</g>
<!-- 33572 4 -->
<g id="node11" class="node">
<title>33572 4</title>
<ellipse fill="none" stroke="black" cx="32" cy="-97.95" rx="31.99" ry="31.99"/>
<text text-anchor="middle" x="32" y="-95.25" font-family="Times,serif" font-size="9.00">33572 4</text>
</g>
<!-- &#45;2&#45;&gt;33572 4 -->
<g id="edge7" class="edge">
<title>&#45;2&#45;&gt;33572 4</title>
<path fill="none" stroke="green" stroke-width="0.27" d="M86.55,-103.61C82.88,-103.23 78.61,-102.79 74.11,-102.32"/>
<polygon fill="green" stroke="green" stroke-width="0.27" points="74.32,-98.82 64.01,-101.27 73.59,-105.79 74.32,-98.82"/>
<text text-anchor="middle" x="74.7" y="-104.47" font-family="Times,serif" font-size="5.00">0.856</text>
</g>
<!-- 33572 5 -->
<g id="node12" class="node">
<title>33572 5</title>
<ellipse fill="none" stroke="black" cx="119.64" cy="-32" rx="31.99" ry="31.99"/>
<text text-anchor="middle" x="119.64" y="-29.3" font-family="Times,serif" font-size="9.00">33572 5</text>
</g>
<!-- &#45;2&#45;&gt;33572 5 -->
<g id="edge8" class="edge">
<title>&#45;2&#45;&gt;33572 5</title>
<path fill="none" stroke="green" stroke-width="0.27" d="M101.2,-95.32C102.95,-89.32 105.33,-81.13 107.81,-72.62"/>
<polygon fill="green" stroke="green" stroke-width="0.27" points="111.18,-73.57 110.61,-62.99 104.46,-71.61 111.18,-73.57"/>
<text text-anchor="middle" x="98.88" y="-85.47" font-family="Times,serif" font-size="5.00">0.856</text>
</g>
<!-- 33572 6 -->
<g id="node13" class="node">
<title>33572 6</title>
<ellipse fill="none" stroke="black" cx="190.12" cy="-101.57" rx="31.99" ry="31.99"/>
<text text-anchor="middle" x="190.12" y="-98.87" font-family="Times,serif" font-size="9.00">33572 6</text>
</g>
<!-- &#45;2&#45;&gt;33572 6 -->
<g id="edge9" class="edge">
<title>&#45;2&#45;&gt;33572 6</title>
<path fill="none" stroke="green" stroke-width="0.27" d="M110.41,-104.41C120.01,-104.07 134.07,-103.57 147.72,-103.08"/>
<polygon fill="green" stroke="green" stroke-width="0.27" points="148.13,-106.57 158,-102.72 147.88,-99.58 148.13,-106.57"/>
<text text-anchor="middle" x="123.44" y="-99.25" font-family="Times,serif" font-size="5.00">0.856</text>
</g>
<!-- &#45;3 -->
<g id="node3" class="node">
<title>&#45;3</title>
<polygon fill="lightgray" stroke="black" points="248.75,-33.7 224.75,-33.7 224.75,-15.1 248.75,-15.1 248.75,-33.7"/>
<text text-anchor="middle" x="236.75" y="-21.7" font-family="Times,serif" font-size="9.00">&#45;3</text>
</g>
<!-- &#45;4 -->
<g id="node4" class="node">
<title>&#45;4</title>
<polygon fill="lightgray" stroke="black" points="213.17,-173.63 189.17,-173.63 189.17,-155.03 213.17,-155.03 213.17,-173.63"/>
<text text-anchor="middle" x="201.17" y="-161.63" font-family="Times,serif" font-size="9.00">&#45;4</text>
</g>
<!-- &#45;4&#45;&gt;0 -->
<g id="edge2" class="edge">
<title>&#45;4&#45;&gt;0</title>
<path fill="none" stroke="green" stroke-width="0.15" stroke-dasharray="1,5" d="M189.39,-157.37C178.58,-150.98 162.21,-141.31 148.51,-133.21"/>
<polygon fill="green" stroke="green" stroke-width="0.15" points="149.94,-129.99 139.55,-127.92 146.38,-136.02 149.94,-129.99"/>
<text text-anchor="middle" x="163.32" y="-146.79" font-family="Times,serif" font-size="5.00">0.244</text>
</g>
<!-- 0&#45;&gt;33572 -->
<g id="edge26" class="edge">
<title>0&#45;&gt;33572</title>
<path fill="none" stroke="red" stroke-width="0.11" d="M105.15,-120.9C97.28,-123.57 87.86,-127.48 78.77,-131.75"/>
<polygon fill="red" stroke="red" stroke-width="0.11" points="76.95,-128.75 69.51,-136.29 80.03,-135.03 76.95,-128.75"/>
<text text-anchor="middle" x="98.42" y="-121.83" font-family="Times,serif" font-size="5.00">&#45;0.063</text>
</g>
<!-- 0&#45;&gt;33572 0 -->
<g id="edge19" class="edge">
<title>0&#45;&gt;33572 0</title>
<path fill="none" stroke="red" stroke-width="0.11" d="M121.57,-137.01C121.96,-140.36 122.51,-143.96 123.19,-147.64"/>
<polygon fill="red" stroke="red" stroke-width="0.11" points="119.77,-148.39 125.26,-157.45 126.62,-146.95 119.77,-148.39"/>
<text text-anchor="middle" x="115.93" y="-143.83" font-family="Times,serif" font-size="5.00">&#45;0.063</text>
</g>
<!-- 0&#45;&gt;33572 1 -->
<g id="edge20" class="edge">
<title>0&#45;&gt;33572 1</title>
<path fill="none" stroke="red" stroke-width="0.11" d="M110.24,-131.34C106.84,-136.34 103.22,-142.36 99.82,-148.59"/>
<polygon fill="red" stroke="red" stroke-width="0.11" points="96.55,-147.29 95.04,-157.77 102.76,-150.52 96.55,-147.29"/>
<text text-anchor="middle" x="98.57" y="-141.46" font-family="Times,serif" font-size="5.00">&#45;0.063</text>
</g>
<!-- 0&#45;&gt;33572 2 -->
<g id="edge21" class="edge">
<title>0&#45;&gt;33572 2</title>
<path fill="none" stroke="red" stroke-width="0.11" d="M116.5,-101.12C111.24,-93.07 103.85,-83.34 96.29,-74.31"/>
<polygon fill="red" stroke="red" stroke-width="0.11" points="98.83,-71.89 89.65,-66.61 93.53,-76.47 98.83,-71.89"/>
<text text-anchor="middle" x="112.85" y="-83.21" font-family="Times,serif" font-size="5.00">&#45;0.063</text>
</g>
<!-- 0&#45;&gt;33572 3 -->
<g id="edge22" class="edge">
<title>0&#45;&gt;33572 3</title>
<path fill="none" stroke="red" stroke-width="0.11" d="M138.42,-107.06C142.08,-102.74 146.01,-97.57 149.79,-92.17"/>
<polygon fill="red" stroke="red" stroke-width="0.11" points="152.88,-93.84 155.54,-83.59 147.07,-89.95 152.88,-93.84"/>
<text text-anchor="middle" x="137.65" y="-95.12" font-family="Times,serif" font-size="5.00">&#45;0.063</text>
</g>
<!-- 0&#45;&gt;33572 4 -->
<g id="edge23" class="edge">
<title>0&#45;&gt;33572 4</title>
<path fill="none" stroke="red" stroke-width="0.11" d="M107.15,-109.21C97.88,-106.1 85.84,-102.97 74.13,-100.52"/>
<polygon fill="red" stroke="red" stroke-width="0.11" points="74.49,-97.03 64,-98.56 73.16,-103.9 74.49,-97.03"/>
<text text-anchor="middle" x="87.41" y="-100.37" font-family="Times,serif" font-size="5.00">&#45;0.063</text>
</g>
<!-- 0&#45;&gt;33572 5 -->
<g id="edge24" class="edge">
<title>0&#45;&gt;33572 5</title>
<path fill="none" stroke="red" stroke-width="0.11" d="M128.38,-100.32C128.83,-92.43 128.78,-82.85 128.29,-73.38"/>
<polygon fill="red" stroke="red" stroke-width="0.11" points="131.78,-72.98 127.61,-63.24 124.79,-73.45 131.78,-72.98"/>
<text text-anchor="middle" x="134.79" y="-88.35" font-family="Times,serif" font-size="5.00">&#45;0.063</text>
</g>
<!-- 0&#45;&gt;33572 6 -->
<g id="edge25" class="edge">
<title>0&#45;&gt;33572 6</title>
<path fill="none" stroke="red" stroke-width="0.11" d="M142.22,-119.94C145.18,-119.5 148.33,-118.91 151.55,-118.22"/>
<polygon fill="red" stroke="red" stroke-width="0.11" points="152.4,-121.61 161.29,-115.85 150.75,-114.81 152.4,-121.61"/>
<text text-anchor="middle" x="150.12" y="-114.58" font-family="Times,serif" font-size="5.00">&#45;0.063</text>
</g>
<!-- 33572&#45;&gt;0 -->
<g id="edge18" class="edge">
<title>33572&#45;&gt;0</title>
<path fill="none" stroke="red" stroke-width="1.22" d="M74.91,-148.11C83.57,-144.54 92.81,-140.22 100.9,-135.95"/>
<polygon fill="red" stroke="red" stroke-width="1.22" points="102.73,-138.94 109.76,-131.01 99.32,-132.82 102.73,-138.94"/>
<text text-anchor="middle" x="84.68" y="-137.53" font-family="Times,serif" font-size="5.00">&#45;5.598</text>
</g>
<!-- 33572 0&#45;&gt;0 -->
<g id="edge11" class="edge">
<title>33572 0&#45;&gt;0</title>
<path fill="none" stroke="red" stroke-width="1.22" d="M138.44,-154.82C137.74,-151.32 136.94,-147.8 136.06,-144.39"/>
<polygon fill="red" stroke="red" stroke-width="1.22" points="139.39,-143.3 133.27,-134.66 132.67,-145.24 139.39,-143.3"/>
<text text-anchor="middle" x="130.79" y="-145.1" font-family="Times,serif" font-size="5.00">&#45;5.598</text>
</g>
<!-- 33572 1&#45;&gt;0 -->
<g id="edge12" class="edge">
<title>33572 1&#45;&gt;0</title>
<path fill="none" stroke="red" stroke-width="1.22" d="M106.73,-163.97C110.02,-158.29 113.23,-152.22 116.01,-146.41"/>
<polygon fill="red" stroke="red" stroke-width="1.22" points="119.33,-147.56 120.21,-137 112.94,-144.7 119.33,-147.56"/>
<text text-anchor="middle" x="104.91" y="-150.69" font-family="Times,serif" font-size="5.00">&#45;5.598</text>
</g>
<!-- 33572 2&#45;&gt;0 -->
<g id="edge13" class="edge">
<title>33572 2&#45;&gt;0</title>
<path fill="none" stroke="red" stroke-width="1.22" d="M79.71,-74.76C86.24,-83.54 93.97,-92.94 101.14,-100.79"/>
<polygon fill="red" stroke="red" stroke-width="1.22" points="98.63,-103.23 108.07,-108.04 103.69,-98.39 98.63,-103.23"/>
<text text-anchor="middle" x="83.97" y="-83.28" font-family="Times,serif" font-size="5.00">&#45;5.598</text>
</g>
<!-- 33572 3&#45;&gt;0 -->
<g id="edge14" class="edge">
<title>33572 3&#45;&gt;0</title>
<path fill="none" stroke="red" stroke-width="1.22" d="M144.67,-75.98C141.03,-80.97 137.42,-86.31 134.22,-91.48"/>
<polygon fill="red" stroke="red" stroke-width="1.22" points="130.99,-90.06 128.97,-100.46 137.04,-93.59 130.99,-90.06"/>
<text text-anchor="middle" x="132.99" y="-79.23" font-family="Times,serif" font-size="5.00">&#45;5.598</text>
</g>
<!-- 33572 4&#45;&gt;0 -->
<g id="edge15" class="edge">
<title>33572 4&#45;&gt;0</title>
<path fill="none" stroke="red" stroke-width="1.22" d="M61.36,-111.11C72.09,-114.03 84.2,-116.69 94.88,-118.45"/>
<polygon fill="red" stroke="red" stroke-width="1.22" points="94.57,-121.94 104.97,-119.89 95.56,-115.01 94.57,-121.94"/>
<text text-anchor="middle" x="71.66" y="-116.28" font-family="Times,serif" font-size="5.00">&#45;5.598</text>
</g>
<!-- 33572 5&#45;&gt;0 -->
<g id="edge16" class="edge">
<title>33572 5&#45;&gt;0</title>
<path fill="none" stroke="red" stroke-width="1.22" d="M114.57,-64.02C114.64,-72.95 115.14,-82.56 116.01,-91.19"/>
<polygon fill="red" stroke="red" stroke-width="1.22" points="112.54,-91.63 117.25,-101.12 119.49,-90.76 112.54,-91.63"/>
<text text-anchor="middle" x="108.83" y="-73.1" font-family="Times,serif" font-size="5.00">&#45;5.598</text>
</g>
<!-- 33572 6&#45;&gt;0 -->
<g id="edge17" class="edge">
<title>33572 6&#45;&gt;0</title>
<path fill="none" stroke="red" stroke-width="1.22" d="M157.93,-102.82C154.91,-103.54 151.88,-104.35 148.94,-105.2"/>
<polygon fill="red" stroke="red" stroke-width="1.22" points="147.85,-101.88 139.41,-108.29 150,-108.54 147.85,-101.88"/>
<text text-anchor="middle" x="150.21" y="-99.51" font-family="Times,serif" font-size="5.00">&#45;5.598</text>
</g>
</g>
</svg>
