<?xml version="1.0" encoding="UTF-8" standalone="no"?>
<!DOCTYPE svg PUBLIC "-//W3C//DTD SVG 1.1//EN"
 "http://www.w3.org/Graphics/SVG/1.1/DTD/svg11.dtd">
<!-- Generated by graphviz version 2.47.1 (20210417.1919)
 -->
<!-- Pages: 1 -->
<svg width="200pt" height="127pt"
 viewBox="0.00 0.00 200.50 127.20" xmlns="http://www.w3.org/2000/svg" xmlns:xlink="http://www.w3.org/1999/xlink">
<g id="graph0" class="graph" transform="scale(1 1) rotate(0) translate(4 123.2)">
<polygon fill="white" stroke="transparent" points="-4,4 -4,-123.2 196.5,-123.2 196.5,4 -4,4"/>
<!-- &#45;1 -->
<g id="node1" class="node">
<title>&#45;1</title>
<polygon fill="lightgray" stroke="black" points="23.75,-81.74 -0.25,-81.74 -0.25,-63.13 23.75,-63.13 23.75,-81.74"/>
<text text-anchor="middle" x="11.75" y="-69.74" font-family="Times,serif" font-size="9.00">&#45;1</text>
</g>
<!-- 8450 -->
<g id="node6" class="node">
<title>8450</title>
<ellipse fill="white" stroke="black" cx="86.96" cy="-61.98" rx="35.21" ry="35.21"/>
<ellipse fill="none" stroke="black" cx="86.96" cy="-61.98" rx="39.19" ry="39.19"/>
<text text-anchor="middle" x="86.96" y="-59.28" font-family="Times,serif" font-size="9.00">heaviside</text>
</g>
<!-- &#45;1&#45;&gt;8450 -->
<g id="edge6" class="edge">
<title>&#45;1&#45;&gt;8450</title>
<path fill="none" stroke="red" stroke-width="0.35" stroke-dasharray="1,5" d="M23.5,-70.8C27.58,-70.24 32.44,-69.56 37.64,-68.84"/>
<polygon fill="red" stroke="red" stroke-width="0.35" points="38.5,-72.25 47.92,-67.41 37.54,-65.32 38.5,-72.25"/>
<text text-anchor="middle" x="36.2" y="-71.32" font-family="Times,serif" font-size="5.00">1.232</text>
</g>
<!-- &#45;2 -->
<g id="node2" class="node">
<title>&#45;2</title>
<polygon fill="lightgray" stroke="black" points="189.31,-89.56 165.31,-89.56 165.31,-70.96 189.31,-70.96 189.31,-89.56"/>
<text text-anchor="middle" x="177.31" y="-77.56" font-family="Times,serif" font-size="9.00">&#45;2</text>
</g>
<!-- 0 -->
<g id="node5" class="node">
<title>0</title>
<ellipse fill="lightblue" stroke="black" cx="127.51" cy="-100.71" rx="14.49" ry="14.49"/>
<ellipse fill="none" stroke="black" cx="127.51" cy="-100.71" rx="18.49" ry="18.49"/>
<text text-anchor="middle" x="127.51" y="-98.01" font-family="Times,serif" font-size="9.00">0</text>
</g>
<!-- &#45;2&#45;&gt;0 -->
<g id="edge1" class="edge">
<title>&#45;2&#45;&gt;0</title>
<path fill="none" stroke="red" stroke-width="0.22" d="M165.51,-85.11C162.01,-86.54 158.03,-88.17 154,-89.83"/>
<polygon fill="red" stroke="red" stroke-width="0.22" points="152.61,-86.62 144.69,-93.65 155.27,-93.09 152.61,-86.62"/>
<text text-anchor="middle" x="153.3" y="-88.97" font-family="Times,serif" font-size="5.00">&#45;0.606</text>
</g>
<!-- &#45;2&#45;&gt;8450 -->
<g id="edge5" class="edge">
<title>&#45;2&#45;&gt;8450</title>
<path fill="none" stroke="green" stroke-width="0.36" d="M165.5,-77.87C157.65,-76.28 146.78,-74.08 135.62,-71.83"/>
<polygon fill="green" stroke="green" stroke-width="0.36" points="136.3,-68.39 125.81,-69.84 134.92,-75.25 136.3,-68.39"/>
<text text-anchor="middle" x="144.93" y="-76.35" font-family="Times,serif" font-size="5.00">1.321</text>
</g>
<!-- &#45;3 -->
<g id="node3" class="node">
<title>&#45;3</title>
<polygon fill="lightgray" stroke="black" points="192.75,-18.7 168.75,-18.7 168.75,-0.1 192.75,-0.1 192.75,-18.7"/>
<text text-anchor="middle" x="180.75" y="-6.7" font-family="Times,serif" font-size="9.00">&#45;3</text>
</g>
<!-- &#45;4 -->
<g id="node4" class="node">
<title>&#45;4</title>
<polygon fill="lightgray" stroke="black" points="135.87,-18.7 111.86,-18.7 111.86,-0.1 135.87,-0.1 135.87,-18.7"/>
<text text-anchor="middle" x="123.87" y="-6.7" font-family="Times,serif" font-size="9.00">&#45;4</text>
</g>
<!-- &#45;4&#45;&gt;0 -->
<g id="edge2" class="edge">
<title>&#45;4&#45;&gt;0</title>
<path fill="none" stroke="red" stroke-width="0.31" stroke-dasharray="1,5" d="M124.24,-18.83C124.74,-31.24 125.63,-53.64 126.36,-71.87"/>
<polygon fill="red" stroke="red" stroke-width="0.31" points="122.87,-72.17 126.76,-82.02 129.86,-71.89 122.87,-72.17"/>
<text text-anchor="middle" x="131.76" y="-46.85" font-family="Times,serif" font-size="5.00">&#45;1.031</text>
</g>
<!-- &#45;4&#45;&gt;8450 -->
<g id="edge3" class="edge">
<title>&#45;4&#45;&gt;8450</title>
<path fill="none" stroke="red" stroke-width="0.15" stroke-dasharray="1,5" d="M117.1,-19.04C116.62,-19.72 116.13,-20.42 115.63,-21.14"/>
<polygon fill="red" stroke="red" stroke-width="0.15" points="112.63,-19.32 109.75,-29.51 118.36,-23.34 112.63,-19.32"/>
<text text-anchor="middle" x="110.74" y="-15.59" font-family="Times,serif" font-size="5.00">0.238</text>
</g>
<!-- 8450&#45;&gt;0 -->
<g id="edge4" class="edge">
<title>8450&#45;&gt;0</title>
<path fill="none" stroke="green" stroke-width="0.47" d="M115.56,-89.3C115.61,-89.35 115.67,-89.4 115.72,-89.45"/>
<polygon fill="green" stroke="green" stroke-width="0.47" points="106.22,-85.22 115.87,-89.6 111.06,-80.16 106.22,-85.22"/>
<text text-anchor="middle" x="110.01" y="-90.87" font-family="Times,serif" font-size="5.00">1.866</text>
</g>
</g>
</svg>
