<?xml version="1.0" encoding="UTF-8" standalone="no"?>
<!DOCTYPE svg PUBLIC "-//W3C//DTD SVG 1.1//EN"
 "http://www.w3.org/Graphics/SVG/1.1/DTD/svg11.dtd">
<!-- Generated by graphviz version 2.47.1 (20210417.1919)
 -->
<!-- Pages: 1 -->
<svg width="332pt" height="243pt"
 viewBox="0.00 0.00 331.78 242.64" xmlns="http://www.w3.org/2000/svg" xmlns:xlink="http://www.w3.org/1999/xlink">
<g id="graph0" class="graph" transform="scale(1 1) rotate(0) translate(4 238.64)">
<polygon fill="white" stroke="transparent" points="-4,4 -4,-238.64 327.78,-238.64 327.78,4 -4,4"/>
<!-- &#45;1 -->
<g id="node1" class="node">
<title>&#45;1</title>
<polygon fill="lightgray" stroke="black" points="232.75,-222.76 208.75,-222.76 208.75,-204.16 232.75,-204.16 232.75,-222.76"/>
<text text-anchor="middle" x="220.75" y="-210.76" font-family="Times,serif" font-size="9.00">&#45;1</text>
</g>
<!-- 5496 -->
<g id="node6" class="node">
<title>5496</title>
<ellipse fill="white" stroke="black" cx="291.96" cy="-202.82" rx="31.65" ry="31.65"/>
<text text-anchor="middle" x="291.96" y="-200.12" font-family="Times,serif" font-size="9.00">sigmoid</text>
</g>
<!-- &#45;1&#45;&gt;5496 -->
<g id="edge4" class="edge">
<title>&#45;1&#45;&gt;5496</title>
<path fill="none" stroke="green" stroke-width="0.3" d="M232.51,-211.7C237.48,-210.96 243.61,-210.05 250.02,-209.09"/>
<polygon fill="green" stroke="green" stroke-width="0.3" points="250.83,-212.51 260.21,-207.57 249.8,-205.58 250.83,-212.51"/>
<text text-anchor="middle" x="247.72" y="-211.9" font-family="Times,serif" font-size="5.00">&#45;1.000</text>
</g>
<!-- &#45;2 -->
<g id="node2" class="node">
<title>&#45;2</title>
<polygon fill="lightgray" stroke="black" points="111.39,-127.76 87.39,-127.76 87.39,-109.16 111.39,-109.16 111.39,-127.76"/>
<text text-anchor="middle" x="99.39" y="-115.76" font-family="Times,serif" font-size="9.00">&#45;2</text>
</g>
<!-- 0 -->
<g id="node5" class="node">
<title>0</title>
<ellipse fill="lightblue" stroke="black" cx="119.61" cy="-107" rx="14.49" ry="14.49"/>
<ellipse fill="none" stroke="black" cx="119.61" cy="-107" rx="18.49" ry="18.49"/>
<text text-anchor="middle" x="119.61" y="-104.3" font-family="Times,serif" font-size="9.00">0</text>
</g>
<!-- &#45;2&#45;&gt;0 -->
<g id="edge1" class="edge">
<title>&#45;2&#45;&gt;0</title>
<path fill="none" stroke="green" stroke-width="0.24" d="M111.38,-111.66C111.45,-111.62 111.52,-111.58 111.59,-111.55"/>
<polygon fill="green" stroke="green" stroke-width="0.24" points="104.82,-119.41 111.79,-111.43 101.36,-113.32 104.82,-119.41"/>
<text text-anchor="middle" x="117.94" y="-113.1" font-family="Times,serif" font-size="5.00">&#45;0.714</text>
</g>
<!-- 5694 -->
<g id="node7" class="node">
<title>5694</title>
<ellipse fill="white" stroke="black" cx="150" cy="-181.13" rx="30.52" ry="30.52"/>
<text text-anchor="middle" x="150" y="-178.43" font-family="Times,serif" font-size="9.00">identity</text>
</g>
<!-- &#45;2&#45;&gt;5694 -->
<g id="edge14" class="edge">
<title>&#45;2&#45;&gt;5694</title>
<path fill="none" stroke="green" stroke-width="0.24" d="M107.08,-127.98C111.67,-133.66 117.79,-141.24 123.97,-148.9"/>
<polygon fill="green" stroke="green" stroke-width="0.24" points="121.63,-151.57 130.63,-157.15 127.07,-147.17 121.63,-151.57"/>
<text text-anchor="middle" x="109.9" y="-139.94" font-family="Times,serif" font-size="5.00">0.692</text>
</g>
<!-- 5694 0 -->
<g id="node8" class="node">
<title>5694 0</title>
<ellipse fill="none" stroke="black" cx="66.9" cy="-181.98" rx="28.63" ry="28.63"/>
<text text-anchor="middle" x="66.9" y="-179.28" font-family="Times,serif" font-size="9.00">5694 0</text>
</g>
<!-- &#45;2&#45;&gt;5694 0 -->
<g id="edge5" class="edge">
<title>&#45;2&#45;&gt;5694 0</title>
<path fill="none" stroke="green" stroke-width="0.24" d="M94.6,-127.83C91.92,-133.07 88.39,-139.97 84.75,-147.08"/>
<polygon fill="green" stroke="green" stroke-width="0.24" points="81.58,-145.59 80.15,-156.09 87.82,-148.78 81.58,-145.59"/>
<text text-anchor="middle" x="84.05" y="-138.95" font-family="Times,serif" font-size="5.00">0.692</text>
</g>
<!-- 5694 1 -->
<g id="node9" class="node">
<title>5694 1</title>
<ellipse fill="none" stroke="black" cx="28.81" cy="-102.8" rx="28.63" ry="28.63"/>
<text text-anchor="middle" x="28.81" y="-100.1" font-family="Times,serif" font-size="9.00">5694 1</text>
</g>
<!-- &#45;2&#45;&gt;5694 1 -->
<g id="edge6" class="edge">
<title>&#45;2&#45;&gt;5694 1</title>
<path fill="none" stroke="green" stroke-width="0.24" d="M87.42,-115.8C81.62,-114.52 74.3,-112.89 66.82,-111.23"/>
<polygon fill="green" stroke="green" stroke-width="0.24" points="67.53,-107.81 57.01,-109.06 66.01,-114.64 67.53,-107.81"/>
<text text-anchor="middle" x="71.49" y="-115.02" font-family="Times,serif" font-size="5.00">0.692</text>
</g>
<!-- 5694 2 -->
<g id="node10" class="node">
<title>5694 2</title>
<ellipse fill="none" stroke="black" cx="186.13" cy="-74.95" rx="28.63" ry="28.63"/>
<text text-anchor="middle" x="186.13" y="-72.25" font-family="Times,serif" font-size="9.00">5694 2</text>
</g>
<!-- &#45;2&#45;&gt;5694 2 -->
<g id="edge7" class="edge">
<title>&#45;2&#45;&gt;5694 2</title>
<path fill="none" stroke="green" stroke-width="0.24" d="M111.45,-112.41C121.76,-107.24 137.12,-99.53 151.24,-92.45"/>
<polygon fill="green" stroke="green" stroke-width="0.24" points="152.9,-95.53 160.27,-87.92 149.76,-89.27 152.9,-95.53"/>
<text text-anchor="middle" x="136.97" y="-103.93" font-family="Times,serif" font-size="5.00">0.692</text>
</g>
<!-- 5694 3 -->
<g id="node11" class="node">
<title>5694 3</title>
<ellipse fill="none" stroke="black" cx="45.1" cy="-61.98" rx="28.63" ry="28.63"/>
<text text-anchor="middle" x="45.1" y="-59.28" font-family="Times,serif" font-size="9.00">5694 3</text>
</g>
<!-- &#45;2&#45;&gt;5694 3 -->
<g id="edge8" class="edge">
<title>&#45;2&#45;&gt;5694 3</title>
<path fill="none" stroke="green" stroke-width="0.24" d="M90.42,-109.13C85.38,-103.89 78.79,-97.03 72.2,-90.18"/>
<polygon fill="green" stroke="green" stroke-width="0.24" points="74.58,-87.6 65.13,-82.82 69.53,-92.45 74.58,-87.6"/>
<text text-anchor="middle" x="75.69" y="-95.15" font-family="Times,serif" font-size="5.00">0.692</text>
</g>
<!-- 5694 4 -->
<g id="node12" class="node">
<title>5694 4</title>
<ellipse fill="none" stroke="black" cx="154.33" cy="-46.54" rx="28.63" ry="28.63"/>
<text text-anchor="middle" x="154.33" y="-43.84" font-family="Times,serif" font-size="9.00">5694 4</text>
</g>
<!-- &#45;2&#45;&gt;5694 4 -->
<g id="edge9" class="edge">
<title>&#45;2&#45;&gt;5694 4</title>
<path fill="none" stroke="green" stroke-width="0.24" d="M106.57,-109.06C112.7,-101.03 121.88,-89.01 130.56,-77.65"/>
<polygon fill="green" stroke="green" stroke-width="0.24" points="133.45,-79.63 136.74,-69.56 127.89,-75.39 133.45,-79.63"/>
<text text-anchor="middle" x="112.94" y="-88.85" font-family="Times,serif" font-size="5.00">0.692</text>
</g>
<!-- 5694 5 -->
<g id="node13" class="node">
<title>5694 5</title>
<ellipse fill="none" stroke="black" cx="81.12" cy="-39.81" rx="28.63" ry="28.63"/>
<text text-anchor="middle" x="81.12" y="-37.11" font-family="Times,serif" font-size="9.00">5694 5</text>
</g>
<!-- &#45;2&#45;&gt;5694 5 -->
<g id="edge10" class="edge">
<title>&#45;2&#45;&gt;5694 5</title>
<path fill="none" stroke="green" stroke-width="0.24" d="M97.22,-109.13C95.41,-101.32 92.69,-89.64 90.01,-78.07"/>
<polygon fill="green" stroke="green" stroke-width="0.24" points="93.35,-76.99 87.68,-68.05 86.53,-78.58 93.35,-76.99"/>
<text text-anchor="middle" x="87.99" y="-95.1" font-family="Times,serif" font-size="5.00">0.692</text>
</g>
<!-- 5694 6 -->
<g id="node14" class="node">
<title>5694 6</title>
<ellipse fill="none" stroke="black" cx="36.19" cy="-147.78" rx="28.63" ry="28.63"/>
<text text-anchor="middle" x="36.19" y="-145.08" font-family="Times,serif" font-size="9.00">5694 6</text>
</g>
<!-- &#45;2&#45;&gt;5694 6 -->
<g id="edge11" class="edge">
<title>&#45;2&#45;&gt;5694 6</title>
<path fill="none" stroke="green" stroke-width="0.24" d="M87.5,-123.97C82.86,-126.13 77.26,-128.72 71.5,-131.4"/>
<polygon fill="green" stroke="green" stroke-width="0.24" points="70.03,-128.22 62.43,-135.61 72.97,-134.57 70.03,-128.22"/>
<text text-anchor="middle" x="73.88" y="-129.18" font-family="Times,serif" font-size="5.00">0.692</text>
</g>
<!-- 5694 7 -->
<g id="node15" class="node">
<title>5694 7</title>
<ellipse fill="none" stroke="black" cx="187.38" cy="-118.02" rx="28.63" ry="28.63"/>
<text text-anchor="middle" x="187.38" y="-115.32" font-family="Times,serif" font-size="9.00">5694 7</text>
</g>
<!-- &#45;2&#45;&gt;5694 7 -->
<g id="edge12" class="edge">
<title>&#45;2&#45;&gt;5694 7</title>
<path fill="none" stroke="green" stroke-width="0.24" d="M111.26,-118.4C120.82,-118.35 134.85,-118.28 148.27,-118.21"/>
<polygon fill="green" stroke="green" stroke-width="0.24" points="148.34,-121.71 158.32,-118.16 148.3,-114.71 148.34,-121.71"/>
<text text-anchor="middle" x="135.39" y="-113.81" font-family="Times,serif" font-size="5.00">0.692</text>
</g>
<!-- 5694 8 -->
<g id="node16" class="node">
<title>5694 8</title>
<ellipse fill="none" stroke="black" cx="109.59" cy="-194.35" rx="28.63" ry="28.63"/>
<text text-anchor="middle" x="109.59" y="-191.65" font-family="Times,serif" font-size="9.00">5694 8</text>
</g>
<!-- &#45;2&#45;&gt;5694 8 -->
<g id="edge13" class="edge">
<title>&#45;2&#45;&gt;5694 8</title>
<path fill="none" stroke="green" stroke-width="0.24" d="M100.64,-127.76C101.6,-134.9 102.99,-145.27 104.4,-155.71"/>
<polygon fill="green" stroke="green" stroke-width="0.24" points="100.93,-156.2 105.73,-165.64 107.87,-155.27 100.93,-156.2"/>
<text text-anchor="middle" x="96.89" y="-137.24" font-family="Times,serif" font-size="5.00">0.692</text>
</g>
<!-- &#45;3 -->
<g id="node3" class="node">
<title>&#45;3</title>
<polygon fill="lightgray" stroke="black" points="214.33,-169.07 190.33,-169.07 190.33,-150.46 214.33,-150.46 214.33,-169.07"/>
<text text-anchor="middle" x="202.33" y="-157.06" font-family="Times,serif" font-size="9.00">&#45;3</text>
</g>
<!-- &#45;3&#45;&gt;0 -->
<g id="edge2" class="edge">
<title>&#45;3&#45;&gt;0</title>
<path fill="none" stroke="green" stroke-width="0.35" d="M190.48,-152.2C178.38,-144.49 159.25,-132.28 143.91,-122.5"/>
<polygon fill="green" stroke="green" stroke-width="0.35" points="145.71,-119.5 135.4,-117.07 141.95,-125.4 145.71,-119.5"/>
<text text-anchor="middle" x="161.57" y="-138.85" font-family="Times,serif" font-size="5.00">1.258</text>
</g>
<!-- &#45;4 -->
<g id="node4" class="node">
<title>&#45;4</title>
<polygon fill="lightgray" stroke="black" points="136.65,-18.7 112.64,-18.7 112.64,-0.1 136.65,-0.1 136.65,-18.7"/>
<text text-anchor="middle" x="124.65" y="-6.7" font-family="Times,serif" font-size="9.00">&#45;4</text>
</g>
<!-- &#45;4&#45;&gt;0 -->
<g id="edge3" class="edge">
<title>&#45;4&#45;&gt;0</title>
<path fill="none" stroke="red" stroke-width="0.3" stroke-dasharray="1,5" d="M124.16,-18.76C123.47,-32.27 122.15,-57.82 121.11,-77.96"/>
<polygon fill="red" stroke="red" stroke-width="0.3" points="117.6,-78.03 120.58,-88.2 124.59,-78.39 117.6,-78.03"/>
<text text-anchor="middle" x="117.01" y="-49.86" font-family="Times,serif" font-size="5.00">0.991</text>
</g>
<!-- 5694&#45;&gt;0 -->
<g id="edge24" class="edge">
<title>5694&#45;&gt;0</title>
<path fill="none" stroke="red" stroke-width="0.27" d="M138.16,-152.26C135.69,-146.21 133.08,-139.87 130.64,-133.9"/>
<polygon fill="red" stroke="red" stroke-width="0.27" points="133.75,-132.26 126.72,-124.34 127.27,-134.92 133.75,-132.26"/>
<text text-anchor="middle" x="127.94" y="-144.58" font-family="Times,serif" font-size="5.00">&#45;0.833</text>
</g>
<!-- 5694 0&#45;&gt;0 -->
<g id="edge15" class="edge">
<title>5694 0&#45;&gt;0</title>
<path fill="none" stroke="red" stroke-width="0.27" d="M83.58,-158.26C89.73,-149.5 96.7,-139.59 102.86,-130.83"/>
<polygon fill="red" stroke="red" stroke-width="0.27" points="105.8,-132.73 108.69,-122.54 100.07,-128.7 105.8,-132.73"/>
<text text-anchor="middle" x="87.59" y="-146.04" font-family="Times,serif" font-size="5.00">0.833</text>
</g>
<!-- 5694 1&#45;&gt;0 -->
<g id="edge16" class="edge">
<title>5694 1&#45;&gt;0</title>
<path fill="none" stroke="red" stroke-width="0.27" d="M57.79,-104.14C68.38,-104.63 80.34,-105.19 90.9,-105.67"/>
<polygon fill="red" stroke="red" stroke-width="0.27" points="90.75,-109.17 100.9,-106.14 91.07,-102.18 90.75,-109.17"/>
<text text-anchor="middle" x="68.72" y="-106.41" font-family="Times,serif" font-size="5.00">0.648</text>
</g>
<!-- 5694 2&#45;&gt;0 -->
<g id="edge17" class="edge">
<title>5694 2&#45;&gt;0</title>
<path fill="none" stroke="red" stroke-width="0.27" d="M159.83,-87.62C155.18,-89.86 150.33,-92.2 145.68,-94.44"/>
<polygon fill="red" stroke="red" stroke-width="0.27" points="144.02,-91.35 136.53,-98.84 147.06,-97.66 144.02,-91.35"/>
<text text-anchor="middle" x="147.13" y="-92.53" font-family="Times,serif" font-size="5.00">0.463</text>
</g>
<!-- 5694 3&#45;&gt;0 -->
<g id="edge18" class="edge">
<title>5694 3&#45;&gt;0</title>
<path fill="none" stroke="red" stroke-width="0.27" d="M69.91,-76.97C77.91,-81.8 86.77,-87.16 94.77,-91.99"/>
<polygon fill="red" stroke="red" stroke-width="0.27" points="92.97,-95 103.34,-97.17 96.59,-89 92.97,-95"/>
<text text-anchor="middle" x="87.96" y="-85.98" font-family="Times,serif" font-size="5.00">0.278</text>
</g>
<!-- 5694 4&#45;&gt;0 -->
<g id="edge19" class="edge">
<title>5694 4&#45;&gt;0</title>
<path fill="none" stroke="red" stroke-width="0.27" d="M139.8,-71.83C137.83,-75.27 135.8,-78.79 133.84,-82.22"/>
<polygon fill="red" stroke="red" stroke-width="0.27" points="130.77,-80.53 128.83,-90.95 136.84,-84.02 130.77,-80.53"/>
<text text-anchor="middle" x="131.2" y="-78.53" font-family="Times,serif" font-size="5.00">0.093</text>
</g>
<!-- 5694 5&#45;&gt;0 -->
<g id="edge20" class="edge">
<title>5694 5&#45;&gt;0</title>
<path fill="none" stroke="red" stroke-width="0.27" d="M95.45,-64.83C98.63,-70.38 101.99,-76.25 105.17,-81.81"/>
<polygon fill="red" stroke="red" stroke-width="0.27" points="102.28,-83.79 110.28,-90.72 108.35,-80.31 102.28,-83.79"/>
<text text-anchor="middle" x="93.85" y="-74.82" font-family="Times,serif" font-size="5.00">&#45;0.093</text>
</g>
<!-- 5694 6&#45;&gt;0 -->
<g id="edge21" class="edge">
<title>5694 6&#45;&gt;0</title>
<path fill="none" stroke="red" stroke-width="0.27" d="M62.13,-135.1C72.2,-130.17 83.72,-124.54 93.78,-119.62"/>
<polygon fill="red" stroke="red" stroke-width="0.27" points="95.45,-122.71 102.89,-115.17 92.37,-116.42 95.45,-122.71"/>
<text text-anchor="middle" x="71.5" y="-122.86" font-family="Times,serif" font-size="5.00">&#45;0.278</text>
</g>
<!-- 5694 7&#45;&gt;0 -->
<g id="edge22" class="edge">
<title>5694 7&#45;&gt;0</title>
<path fill="none" stroke="red" stroke-width="0.27" d="M158.64,-113.35C155.17,-112.78 151.64,-112.21 148.17,-111.64"/>
<polygon fill="red" stroke="red" stroke-width="0.27" points="148.6,-108.17 138.17,-110.02 147.48,-115.08 148.6,-108.17"/>
<text text-anchor="middle" x="150.18" y="-108" font-family="Times,serif" font-size="5.00">&#45;0.463</text>
</g>
<!-- 5694 8&#45;&gt;0 -->
<g id="edge23" class="edge">
<title>5694 8&#45;&gt;0</title>
<path fill="none" stroke="red" stroke-width="0.27" d="M112.92,-165.26C114.02,-155.74 115.23,-145.18 116.32,-135.69"/>
<polygon fill="red" stroke="red" stroke-width="0.27" points="119.82,-135.88 117.48,-125.54 112.86,-135.08 119.82,-135.88"/>
<text text-anchor="middle" x="108.16" y="-151.97" font-family="Times,serif" font-size="5.00">&#45;0.648</text>
</g>
</g>
</svg>
