<?xml version="1.0" encoding="UTF-8" standalone="no"?>
<!DOCTYPE svg PUBLIC "-//W3C//DTD SVG 1.1//EN"
 "http://www.w3.org/Graphics/SVG/1.1/DTD/svg11.dtd">
<!-- Generated by graphviz version 2.47.1 (20210417.1919)
 -->
<!-- Pages: 1 -->
<svg width="391pt" height="508pt"
 viewBox="0.00 0.00 391.50 508.22" xmlns="http://www.w3.org/2000/svg" xmlns:xlink="http://www.w3.org/1999/xlink">
<g id="graph0" class="graph" transform="scale(1 1) rotate(0) translate(4 504.22)">
<polygon fill="white" stroke="transparent" points="-4,4 -4,-504.22 387.5,-504.22 387.5,4 -4,4"/>
<!-- &#45;1 -->
<g id="node1" class="node">
<title>&#45;1</title>
<polygon fill="lightgray" stroke="black" points="359.75,-186.7 335.75,-186.7 335.75,-168.1 359.75,-168.1 359.75,-186.7"/>
<text text-anchor="middle" x="347.75" y="-174.7" font-family="Times,serif" font-size="9.00">&#45;1</text>
</g>
<!-- &#45;2 -->
<g id="node2" class="node">
<title>&#45;2</title>
<polygon fill="lightgray" stroke="black" points="199.37,-299.47 175.37,-299.47 175.37,-280.86 199.37,-280.86 199.37,-299.47"/>
<text text-anchor="middle" x="187.37" y="-287.46" font-family="Times,serif" font-size="9.00">&#45;2</text>
</g>
<!-- 0 -->
<g id="node5" class="node">
<title>0</title>
<ellipse fill="lightblue" stroke="black" cx="191.52" cy="-194.7" rx="14.49" ry="14.49"/>
<ellipse fill="none" stroke="black" cx="191.52" cy="-194.7" rx="18.49" ry="18.49"/>
<text text-anchor="middle" x="191.52" y="-192" font-family="Times,serif" font-size="9.00">0</text>
</g>
<!-- &#45;2&#45;&gt;0 -->
<g id="edge7" class="edge">
<title>&#45;2&#45;&gt;0</title>
<path fill="none" stroke="green" stroke-width="0.17" stroke-dasharray="1,5" d="M187.78,-280.66C188.35,-267.45 189.42,-242.96 190.27,-223.49"/>
<polygon fill="green" stroke="green" stroke-width="0.17" points="193.77,-223.44 190.71,-213.29 186.78,-223.13 193.77,-223.44"/>
<text text-anchor="middle" x="183.4" y="-253.58" font-family="Times,serif" font-size="5.00">0.333</text>
</g>
<!-- 63963 -->
<g id="node15" class="node">
<title>63963</title>
<ellipse fill="white" stroke="black" cx="171.17" cy="-402.86" rx="27.42" ry="27.42"/>
<ellipse fill="none" stroke="black" cx="171.17" cy="-402.86" rx="31.45" ry="31.45"/>
<text text-anchor="middle" x="171.17" y="-400.16" font-family="Times,serif" font-size="9.00">63963</text>
</g>
<!-- &#45;2&#45;&gt;63963 -->
<g id="edge11" class="edge">
<title>&#45;2&#45;&gt;63963</title>
<path fill="none" stroke="green" stroke-width="0.11" d="M185.99,-299.77C184.02,-313.44 180.3,-339.31 177.08,-361.72"/>
<polygon fill="green" stroke="green" stroke-width="0.11" points="173.6,-361.32 175.65,-371.71 180.53,-362.31 173.6,-361.32"/>
<text text-anchor="middle" x="187.16" y="-332.24" font-family="Times,serif" font-size="5.00">0.047</text>
</g>
<!-- 64191 -->
<g id="node16" class="node">
<title>64191</title>
<ellipse fill="white" stroke="black" cx="284.13" cy="-286.83" rx="27.42" ry="27.42"/>
<ellipse fill="none" stroke="black" cx="284.13" cy="-286.83" rx="31.45" ry="31.45"/>
<text text-anchor="middle" x="284.13" y="-284.13" font-family="Times,serif" font-size="9.00">64191</text>
</g>
<!-- &#45;2&#45;&gt;64191 -->
<g id="edge12" class="edge">
<title>&#45;2&#45;&gt;64191</title>
<path fill="none" stroke="green" stroke-width="0.11" d="M199.23,-289.76C210.08,-289.38 226.78,-288.81 242.51,-288.26"/>
<polygon fill="green" stroke="green" stroke-width="0.11" points="242.76,-291.76 252.63,-287.92 242.52,-284.76 242.76,-291.76"/>
<text text-anchor="middle" x="215.24" y="-284.51" font-family="Times,serif" font-size="5.00">0.047</text>
</g>
<!-- 64192 -->
<g id="node17" class="node">
<title>64192</title>
<ellipse fill="white" stroke="black" cx="89.82" cy="-296.53" rx="27.42" ry="27.42"/>
<ellipse fill="none" stroke="black" cx="89.82" cy="-296.53" rx="31.45" ry="31.45"/>
<text text-anchor="middle" x="89.82" y="-293.83" font-family="Times,serif" font-size="9.00">64192</text>
</g>
<!-- &#45;2&#45;&gt;64192 -->
<g id="edge13" class="edge">
<title>&#45;2&#45;&gt;64192</title>
<path fill="none" stroke="green" stroke-width="0.11" d="M175.41,-290.95C164.39,-291.66 147.38,-292.77 131.42,-293.82"/>
<polygon fill="green" stroke="green" stroke-width="0.11" points="130.9,-290.34 121.15,-294.49 131.36,-297.33 130.9,-290.34"/>
<text text-anchor="middle" x="159.04" y="-293.88" font-family="Times,serif" font-size="5.00">0.047</text>
</g>
<!-- 63972 -->
<g id="node18" class="node">
<title>63972</title>
<ellipse fill="white" stroke="black" cx="205.54" cy="-344.28" rx="27.45" ry="27.45"/>
<text text-anchor="middle" x="205.54" y="-341.58" font-family="Times,serif" font-size="9.00">63972</text>
</g>
<!-- &#45;2&#45;&gt;63972 -->
<g id="edge14" class="edge">
<title>&#45;2&#45;&gt;63972</title>
<path fill="none" stroke="green" stroke-width="0.2" d="M190.53,-299.59C191.44,-302.28 192.48,-305.37 193.58,-308.65"/>
<polygon fill="green" stroke="green" stroke-width="0.2" points="190.29,-309.86 196.79,-318.22 196.93,-307.63 190.29,-309.86"/>
<text text-anchor="middle" x="186.43" y="-305.62" font-family="Times,serif" font-size="5.00">0.489</text>
</g>
<!-- 64193 -->
<g id="node19" class="node">
<title>64193</title>
<ellipse fill="white" stroke="black" cx="203.92" cy="-320" rx="27.45" ry="27.45"/>
<text text-anchor="middle" x="203.92" y="-317.3" font-family="Times,serif" font-size="9.00">64193</text>
</g>
<!-- &#45;2&#45;&gt;64193 -->
<g id="edge15" class="edge">
<title>&#45;2&#45;&gt;64193</title>
<path fill="none" stroke="green" stroke-width="0.2" d="M192.61,-299.6C192.64,-299.67 192.68,-299.74 192.72,-299.81"/>
<polygon fill="green" stroke="green" stroke-width="0.2" points="184.92,-292.97 192.83,-300.01 191.04,-289.57 184.92,-292.97"/>
<text text-anchor="middle" x="198.29" y="-301.21" font-family="Times,serif" font-size="5.00">0.489</text>
</g>
<!-- 64194 -->
<g id="node20" class="node">
<title>64194</title>
<ellipse fill="white" stroke="black" cx="179.45" cy="-333.41" rx="27.45" ry="27.45"/>
<text text-anchor="middle" x="179.45" y="-330.71" font-family="Times,serif" font-size="9.00">64194</text>
</g>
<!-- &#45;2&#45;&gt;64194 -->
<g id="edge16" class="edge">
<title>&#45;2&#45;&gt;64194</title>
<path fill="none" stroke="green" stroke-width="0.2" d="M185.61,-299.76C185.59,-299.89 185.56,-300.02 185.54,-300.16"/>
<polygon fill="green" stroke="green" stroke-width="0.2" points="182.72,-296.1 184.37,-306.56 189.61,-297.36 182.72,-296.1"/>
<text text-anchor="middle" x="179.95" y="-301.46" font-family="Times,serif" font-size="5.00">0.489</text>
</g>
<!-- 64182 -->
<g id="node21" class="node">
<title>64182</title>
<ellipse fill="white" stroke="black" cx="133.93" cy="-359.5" rx="27.45" ry="27.45"/>
<text text-anchor="middle" x="133.93" y="-356.8" font-family="Times,serif" font-size="9.00">64182</text>
</g>
<!-- &#45;2&#45;&gt;64182 -->
<g id="edge17" class="edge">
<title>&#45;2&#45;&gt;64182</title>
<path fill="none" stroke="green" stroke-width="0.3" d="M180.16,-299.52C174.17,-307.29 165.29,-318.8 156.92,-329.67"/>
<polygon fill="green" stroke="green" stroke-width="0.3" points="154,-327.72 150.67,-337.78 159.54,-332 154,-327.72"/>
<text text-anchor="middle" x="162.91" y="-316.09" font-family="Times,serif" font-size="5.00">1.000</text>
</g>
<!-- 64195 -->
<g id="node22" class="node">
<title>64195</title>
<ellipse fill="white" stroke="black" cx="260.95" cy="-348.17" rx="27.45" ry="27.45"/>
<text text-anchor="middle" x="260.95" y="-345.47" font-family="Times,serif" font-size="9.00">64195</text>
</g>
<!-- &#45;2&#45;&gt;64195 -->
<g id="edge18" class="edge">
<title>&#45;2&#45;&gt;64195</title>
<path fill="none" stroke="green" stroke-width="0.3" d="M199.19,-299.48C207.88,-306.34 220.1,-315.97 231.38,-324.86"/>
<polygon fill="green" stroke="green" stroke-width="0.3" points="229.34,-327.71 239.36,-331.16 233.67,-322.22 229.34,-327.71"/>
<text text-anchor="middle" x="220.91" y="-307.67" font-family="Times,serif" font-size="5.00">1.000</text>
</g>
<!-- 64196 -->
<g id="node23" class="node">
<title>64196</title>
<ellipse fill="white" stroke="black" cx="131.16" cy="-255.82" rx="27.45" ry="27.45"/>
<text text-anchor="middle" x="131.16" y="-253.12" font-family="Times,serif" font-size="9.00">64196</text>
</g>
<!-- &#45;2&#45;&gt;64196 -->
<g id="edge19" class="edge">
<title>&#45;2&#45;&gt;64196</title>
<path fill="none" stroke="green" stroke-width="0.3" d="M175.45,-282.88C171.85,-280.68 167.72,-278.16 163.45,-275.55"/>
<polygon fill="green" stroke="green" stroke-width="0.3" points="165,-272.4 154.64,-270.17 161.35,-278.37 165,-272.4"/>
<text text-anchor="middle" x="163.82" y="-280.72" font-family="Times,serif" font-size="5.00">1.000</text>
</g>
<!-- 63877 -->
<g id="node30" class="node">
<title>63877</title>
<ellipse fill="white" stroke="black" cx="191.38" cy="-391.9" rx="27.42" ry="27.42"/>
<ellipse fill="none" stroke="black" cx="191.38" cy="-391.9" rx="31.45" ry="31.45"/>
<text text-anchor="middle" x="191.38" y="-389.2" font-family="Times,serif" font-size="9.00">63877</text>
</g>
<!-- &#45;2&#45;&gt;63877 -->
<g id="edge26" class="edge">
<title>&#45;2&#45;&gt;63877</title>
<path fill="none" stroke="red" stroke-width="1.04" d="M187.74,-299.55C188.2,-311.18 189.01,-331.73 189.75,-350.51"/>
<polygon fill="red" stroke="red" stroke-width="1.04" points="186.26,-350.83 190.15,-360.69 193.25,-350.56 186.26,-350.83"/>
<text text-anchor="middle" x="195.2" y="-320.53" font-family="Times,serif" font-size="5.00">&#45;4.721</text>
</g>
<!-- 64189 -->
<g id="node31" class="node">
<title>64189</title>
<ellipse fill="white" stroke="black" cx="267.37" cy="-308.6" rx="27.42" ry="27.42"/>
<ellipse fill="none" stroke="black" cx="267.37" cy="-308.6" rx="31.45" ry="31.45"/>
<text text-anchor="middle" x="267.37" y="-305.9" font-family="Times,serif" font-size="9.00">64189</text>
</g>
<!-- &#45;2&#45;&gt;64189 -->
<g id="edge34" class="edge">
<title>&#45;2&#45;&gt;64189</title>
<path fill="none" stroke="red" stroke-width="1.04" d="M199.17,-292.88C206.6,-294.6 216.68,-296.92 226.8,-299.25"/>
<polygon fill="red" stroke="red" stroke-width="1.04" points="226.31,-302.73 236.84,-301.57 227.89,-295.91 226.31,-302.73"/>
<text text-anchor="middle" x="206.53" y="-291.57" font-family="Times,serif" font-size="5.00">&#45;4.721</text>
</g>
<!-- 64190 -->
<g id="node32" class="node">
<title>64190</title>
<ellipse fill="white" stroke="black" cx="116.04" cy="-312.67" rx="27.42" ry="27.42"/>
<ellipse fill="none" stroke="black" cx="116.04" cy="-312.67" rx="31.45" ry="31.45"/>
<text text-anchor="middle" x="116.04" y="-309.97" font-family="Times,serif" font-size="9.00">64190</text>
</g>
<!-- &#45;2&#45;&gt;64190 -->
<g id="edge42" class="edge">
<title>&#45;2&#45;&gt;64190</title>
<path fill="none" stroke="red" stroke-width="1.04" d="M175.59,-293.88C170.04,-295.63 163.06,-297.83 155.86,-300.11"/>
<polygon fill="red" stroke="red" stroke-width="1.04" points="154.48,-296.87 146,-303.22 156.59,-303.55 154.48,-296.87"/>
<text text-anchor="middle" x="168.95" y="-292.49" font-family="Times,serif" font-size="5.00">&#45;4.721</text>
</g>
<!-- &#45;3 -->
<g id="node3" class="node">
<title>&#45;3</title>
<polygon fill="lightgray" stroke="black" points="383.75,-450.7 359.75,-450.7 359.75,-432.1 383.75,-432.1 383.75,-450.7"/>
<text text-anchor="middle" x="371.75" y="-438.7" font-family="Times,serif" font-size="9.00">&#45;3</text>
</g>
<!-- &#45;4 -->
<g id="node4" class="node">
<title>&#45;4</title>
<polygon fill="lightgray" stroke="black" points="47.75,-450.7 23.75,-450.7 23.75,-432.1 47.75,-432.1 47.75,-450.7"/>
<text text-anchor="middle" x="35.75" y="-438.7" font-family="Times,serif" font-size="9.00">&#45;4</text>
</g>
<!-- 63236 -->
<g id="node6" class="node">
<title>63236</title>
<ellipse fill="white" stroke="black" cx="207.69" cy="-27.22" rx="27.45" ry="27.45"/>
<text text-anchor="middle" x="207.69" y="-24.52" font-family="Times,serif" font-size="9.00">63236</text>
</g>
<!-- 35217 -->
<g id="node12" class="node">
<title>35217</title>
<ellipse fill="white" stroke="black" cx="208.31" cy="-110.53" rx="27.45" ry="27.45"/>
<text text-anchor="middle" x="208.31" y="-107.83" font-family="Times,serif" font-size="9.00">35217</text>
</g>
<!-- 63236&#45;&gt;35217 -->
<g id="edge1" class="edge">
<title>63236&#45;&gt;35217</title>
<path fill="none" stroke="red" stroke-width="0.5" d="M207.89,-54.5C207.93,-60.4 207.98,-66.74 208.03,-72.95"/>
<polygon fill="red" stroke="red" stroke-width="0.5" points="204.53,-73.22 208.11,-83.19 211.53,-73.17 204.53,-73.22"/>
<text text-anchor="middle" x="201.5" y="-65.23" font-family="Times,serif" font-size="5.00">&#45;1.985</text>
</g>
<!-- 64187 -->
<g id="node7" class="node">
<title>64187</title>
<ellipse fill="white" stroke="black" cx="50.97" cy="-78.07" rx="27.45" ry="27.45"/>
<text text-anchor="middle" x="50.97" y="-75.37" font-family="Times,serif" font-size="9.00">64187</text>
</g>
<!-- 64185 -->
<g id="node13" class="node">
<title>64185</title>
<ellipse fill="white" stroke="black" cx="114.51" cy="-131.58" rx="27.45" ry="27.45"/>
<text text-anchor="middle" x="114.51" y="-128.88" font-family="Times,serif" font-size="9.00">64185</text>
</g>
<!-- 64187&#45;&gt;64185 -->
<g id="edge2" class="edge">
<title>64187&#45;&gt;64185</title>
<path fill="none" stroke="red" stroke-width="0.5" d="M72.13,-95.89C76.57,-99.63 81.32,-103.63 85.98,-107.55"/>
<polygon fill="red" stroke="red" stroke-width="0.5" points="83.76,-110.26 93.66,-114.02 88.27,-104.9 83.76,-110.26"/>
<text text-anchor="middle" x="85.51" y="-97.22" font-family="Times,serif" font-size="5.00">&#45;1.985</text>
</g>
<!-- 64188 -->
<g id="node8" class="node">
<title>64188</title>
<ellipse fill="white" stroke="black" cx="333.03" cy="-85.93" rx="27.45" ry="27.45"/>
<text text-anchor="middle" x="333.03" y="-83.23" font-family="Times,serif" font-size="9.00">64188</text>
</g>
<!-- 64186 -->
<g id="node14" class="node">
<title>64186</title>
<ellipse fill="white" stroke="black" cx="266.9" cy="-137.69" rx="27.45" ry="27.45"/>
<text text-anchor="middle" x="266.9" y="-134.99" font-family="Times,serif" font-size="9.00">64186</text>
</g>
<!-- 64188&#45;&gt;64186 -->
<g id="edge3" class="edge">
<title>64188&#45;&gt;64186</title>
<path fill="none" stroke="red" stroke-width="0.5" d="M311.38,-102.88C306.65,-106.58 301.56,-110.56 296.58,-114.46"/>
<polygon fill="red" stroke="red" stroke-width="0.5" points="294.09,-111.96 288.37,-120.88 298.41,-117.47 294.09,-111.96"/>
<text text-anchor="middle" x="297.52" y="-104.17" font-family="Times,serif" font-size="5.00">&#45;1.985</text>
</g>
<!-- 1262 -->
<g id="node9" class="node">
<title>1262</title>
<ellipse fill="white" stroke="black" cx="114.64" cy="-169.88" rx="24.08" ry="24.08"/>
<text text-anchor="middle" x="114.64" y="-167.18" font-family="Times,serif" font-size="9.00">1262</text>
</g>
<!-- 1262&#45;&gt;0 -->
<g id="edge8" class="edge">
<title>1262&#45;&gt;0</title>
<path fill="none" stroke="green" stroke-width="0.17" stroke-dasharray="1,5" d="M137.71,-177.32C145.97,-179.99 155.37,-183.03 163.98,-185.81"/>
<polygon fill="green" stroke="green" stroke-width="0.17" points="163.01,-189.17 173.6,-188.91 165.16,-182.51 163.01,-189.17"/>
<text text-anchor="middle" x="145.22" y="-183.07" font-family="Times,serif" font-size="5.00">0.333</text>
</g>
<!-- 64183 -->
<g id="node10" class="node">
<title>64183</title>
<ellipse fill="white" stroke="black" cx="169.45" cy="-131.79" rx="27.45" ry="27.45"/>
<text text-anchor="middle" x="169.45" y="-129.09" font-family="Times,serif" font-size="9.00">64183</text>
</g>
<!-- 64183&#45;&gt;0 -->
<g id="edge9" class="edge">
<title>64183&#45;&gt;0</title>
<path fill="none" stroke="green" stroke-width="0.17" stroke-dasharray="1,5" d="M178.55,-157.74C179.69,-160.99 180.86,-164.32 182.01,-167.58"/>
<polygon fill="green" stroke="green" stroke-width="0.17" points="178.71,-168.77 185.33,-177.05 185.32,-166.45 178.71,-168.77"/>
<text text-anchor="middle" x="174.65" y="-164.16" font-family="Times,serif" font-size="5.00">0.333</text>
</g>
<!-- 64184 -->
<g id="node11" class="node">
<title>64184</title>
<ellipse fill="white" stroke="black" cx="265.37" cy="-174.83" rx="27.45" ry="27.45"/>
<text text-anchor="middle" x="265.37" y="-172.13" font-family="Times,serif" font-size="9.00">64184</text>
</g>
<!-- 64184&#45;&gt;0 -->
<g id="edge10" class="edge">
<title>64184&#45;&gt;0</title>
<path fill="none" stroke="green" stroke-width="0.17" stroke-dasharray="1,5" d="M238.71,-182C232.57,-183.66 226.02,-185.42 219.81,-187.09"/>
<polygon fill="green" stroke="green" stroke-width="0.17" points="218.57,-183.8 209.82,-189.77 220.39,-190.56 218.57,-183.8"/>
<text text-anchor="middle" x="223.63" y="-186.05" font-family="Times,serif" font-size="5.00">0.333</text>
</g>
<!-- 35217&#45;&gt;0 -->
<g id="edge4" class="edge">
<title>35217&#45;&gt;0</title>
<path fill="none" stroke="green" stroke-width="0.44" d="M202.9,-137.63C201.07,-146.84 199.01,-157.16 197.15,-166.47"/>
<polygon fill="green" stroke="green" stroke-width="0.44" points="193.69,-165.94 195.16,-176.43 200.55,-167.31 193.69,-165.94"/>
<text text-anchor="middle" x="205.65" y="-153.55" font-family="Times,serif" font-size="5.00">1.691</text>
</g>
<!-- 64185&#45;&gt;0 -->
<g id="edge5" class="edge">
<title>64185&#45;&gt;0</title>
<path fill="none" stroke="red" stroke-width="0.1" d="M135.96,-149.16C146.22,-157.56 158.49,-167.62 168.89,-176.15"/>
<polygon fill="red" stroke="red" stroke-width="0.1" points="166.81,-178.97 176.76,-182.6 171.24,-173.55 166.81,-178.97"/>
<text text-anchor="middle" x="146.8" y="-164.15" font-family="Times,serif" font-size="5.00">0.000</text>
</g>
<!-- 64186&#45;&gt;0 -->
<g id="edge6" class="edge">
<title>64186&#45;&gt;0</title>
<path fill="none" stroke="red" stroke-width="0.44" d="M245.09,-154.18C235.54,-161.4 224.33,-169.88 214.63,-177.22"/>
<polygon fill="red" stroke="red" stroke-width="0.44" points="212.45,-174.48 206.58,-183.3 216.67,-180.06 212.45,-174.48"/>
<text text-anchor="middle" x="223.4" y="-167.2" font-family="Times,serif" font-size="5.00">&#45;1.691</text>
</g>
<!-- 64197 -->
<g id="node27" class="node">
<title>64197</title>
<ellipse fill="white" stroke="black" cx="234.94" cy="-458.38" rx="27.45" ry="27.45"/>
<text text-anchor="middle" x="234.94" y="-455.68" font-family="Times,serif" font-size="9.00">64197</text>
</g>
<!-- 63963&#45;&gt;64197 -->
<g id="edge23" class="edge">
<title>63963&#45;&gt;64197</title>
<path fill="none" stroke="green" stroke-width="0.3" d="M194.91,-423.54C198.7,-426.83 202.65,-430.27 206.53,-433.65"/>
<polygon fill="green" stroke="green" stroke-width="0.3" points="204.48,-436.5 214.32,-440.43 209.07,-431.22 204.48,-436.5"/>
<text text-anchor="middle" x="206.35" y="-430.09" font-family="Times,serif" font-size="5.00">1.000</text>
</g>
<!-- 64198 -->
<g id="node28" class="node">
<title>64198</title>
<ellipse fill="white" stroke="black" cx="180.4" cy="-473" rx="27.45" ry="27.45"/>
<text text-anchor="middle" x="180.4" y="-470.3" font-family="Times,serif" font-size="9.00">64198</text>
</g>
<!-- 63963&#45;&gt;64198 -->
<g id="edge24" class="edge">
<title>63963&#45;&gt;64198</title>
<path fill="none" stroke="green" stroke-width="0.3" d="M175.24,-433.83C175.33,-434.45 175.41,-435.07 175.49,-435.69"/>
<polygon fill="green" stroke="green" stroke-width="0.3" points="172.04,-436.27 176.81,-445.73 178.98,-435.35 172.04,-436.27"/>
<text text-anchor="middle" x="169.74" y="-436.26" font-family="Times,serif" font-size="5.00">1.000</text>
</g>
<!-- 64199 -->
<g id="node29" class="node">
<title>64199</title>
<ellipse fill="white" stroke="black" cx="123.36" cy="-454.49" rx="27.45" ry="27.45"/>
<text text-anchor="middle" x="123.36" y="-451.79" font-family="Times,serif" font-size="9.00">64199</text>
</g>
<!-- 63963&#45;&gt;64199 -->
<g id="edge25" class="edge">
<title>63963&#45;&gt;64199</title>
<path fill="none" stroke="green" stroke-width="0.3" d="M149.78,-425.96C149.54,-426.22 149.3,-426.48 149.05,-426.74"/>
<polygon fill="green" stroke="green" stroke-width="0.3" points="146.26,-424.61 142.03,-434.33 151.39,-429.37 146.26,-424.61"/>
<text text-anchor="middle" x="143.79" y="-421.85" font-family="Times,serif" font-size="5.00">1.000</text>
</g>
<!-- 64200 -->
<g id="node33" class="node">
<title>64200</title>
<ellipse fill="white" stroke="black" cx="346.3" cy="-271.69" rx="27.45" ry="27.45"/>
<text text-anchor="middle" x="346.3" y="-268.99" font-family="Times,serif" font-size="9.00">64200</text>
</g>
<!-- 64191&#45;&gt;64200 -->
<g id="edge50" class="edge">
<title>64191&#45;&gt;64200</title>
<path fill="none" stroke="green" stroke-width="0.3" d="M314.49,-279.44C314.6,-279.41 314.7,-279.38 314.81,-279.36"/>
<polygon fill="green" stroke="green" stroke-width="0.3" points="310.77,-283.95 319.66,-278.18 309.11,-277.14 310.77,-283.95"/>
<text text-anchor="middle" x="317.46" y="-274.9" font-family="Times,serif" font-size="5.00">1.000</text>
</g>
<!-- 64201 -->
<g id="node34" class="node">
<title>64201</title>
<ellipse fill="white" stroke="black" cx="334.14" cy="-365.37" rx="27.45" ry="27.45"/>
<text text-anchor="middle" x="334.14" y="-362.67" font-family="Times,serif" font-size="9.00">64201</text>
</g>
<!-- 64191&#45;&gt;64201 -->
<g id="edge51" class="edge">
<title>64191&#45;&gt;64201</title>
<path fill="none" stroke="green" stroke-width="0.3" d="M301.06,-313.42C305.15,-319.85 309.57,-326.78 313.8,-333.42"/>
<polygon fill="green" stroke="green" stroke-width="0.3" points="311.08,-335.67 319.4,-342.23 316.98,-331.91 311.08,-335.67"/>
<text text-anchor="middle" x="313.05" y="-324.92" font-family="Times,serif" font-size="5.00">1.000</text>
</g>
<!-- 64202 -->
<g id="node35" class="node">
<title>64202</title>
<ellipse fill="white" stroke="black" cx="351.69" cy="-322.24" rx="27.45" ry="27.45"/>
<text text-anchor="middle" x="351.69" y="-319.54" font-family="Times,serif" font-size="9.00">64202</text>
</g>
<!-- 64191&#45;&gt;64202 -->
<g id="edge52" class="edge">
<title>64191&#45;&gt;64202</title>
<path fill="none" stroke="green" stroke-width="0.3" d="M312,-301.44C314.07,-302.52 316.17,-303.62 318.26,-304.72"/>
<polygon fill="green" stroke="green" stroke-width="0.3" points="316.86,-307.93 327.34,-309.47 320.11,-301.73 316.86,-307.93"/>
<text text-anchor="middle" x="320.76" y="-304.58" font-family="Times,serif" font-size="5.00">1.000</text>
</g>
<!-- 64203 -->
<g id="node24" class="node">
<title>64203</title>
<ellipse fill="white" stroke="black" cx="27.22" cy="-324.77" rx="27.45" ry="27.45"/>
<text text-anchor="middle" x="27.22" y="-322.07" font-family="Times,serif" font-size="9.00">64203</text>
</g>
<!-- 64192&#45;&gt;64203 -->
<g id="edge20" class="edge">
<title>64192&#45;&gt;64203</title>
<path fill="none" stroke="green" stroke-width="0.3" d="M61.08,-309.49C60.99,-309.53 60.9,-309.58 60.81,-309.62"/>
<polygon fill="green" stroke="green" stroke-width="0.3" points="59.91,-306.18 52.23,-313.49 62.78,-312.57 59.91,-306.18"/>
<text text-anchor="middle" x="55.32" y="-311.05" font-family="Times,serif" font-size="5.00">1.000</text>
</g>
<!-- 64204 -->
<g id="node25" class="node">
<title>64204</title>
<ellipse fill="white" stroke="black" cx="31.85" cy="-272.39" rx="27.45" ry="27.45"/>
<text text-anchor="middle" x="31.85" y="-269.69" font-family="Times,serif" font-size="9.00">64204</text>
</g>
<!-- 64192&#45;&gt;64204 -->
<g id="edge21" class="edge">
<title>64192&#45;&gt;64204</title>
<path fill="none" stroke="green" stroke-width="0.3" d="M60.83,-284.46C60.68,-284.4 60.52,-284.33 60.37,-284.27"/>
<polygon fill="green" stroke="green" stroke-width="0.3" points="67.68,-283.52 57.11,-282.91 64.99,-289.99 67.68,-283.52"/>
<text text-anchor="middle" x="66.23" y="-285.87" font-family="Times,serif" font-size="5.00">1.000</text>
</g>
<!-- 64205 -->
<g id="node26" class="node">
<title>64205</title>
<ellipse fill="white" stroke="black" cx="47.05" cy="-366.82" rx="27.45" ry="27.45"/>
<text text-anchor="middle" x="47.05" y="-364.12" font-family="Times,serif" font-size="9.00">64205</text>
</g>
<!-- 64192&#45;&gt;64205 -->
<g id="edge22" class="edge">
<title>64192&#45;&gt;64205</title>
<path fill="none" stroke="green" stroke-width="0.3" d="M73.4,-323.51C71.18,-327.17 68.88,-330.95 66.6,-334.69"/>
<polygon fill="green" stroke="green" stroke-width="0.3" points="63.6,-332.88 61.4,-343.25 69.58,-336.52 63.6,-332.88"/>
<text text-anchor="middle" x="64.38" y="-330.6" font-family="Times,serif" font-size="5.00">1.000</text>
</g>
<!-- 63972&#45;&gt;63877 -->
<g id="edge31" class="edge">
<title>63972&#45;&gt;63877</title>
<path fill="none" stroke="green" stroke-width="0.14" stroke-dasharray="1,5" d="M197.72,-370.6C197.7,-370.64 197.69,-370.68 197.68,-370.73"/>
<polygon fill="green" stroke="green" stroke-width="0.14" points="197.14,-360.27 197.64,-370.86 203.85,-362.27 197.14,-360.27"/>
<text text-anchor="middle" x="192.07" y="-366.16" font-family="Times,serif" font-size="5.00">0.200</text>
</g>
<!-- 63972&#45;&gt;64189 -->
<g id="edge39" class="edge">
<title>63972&#45;&gt;64189</title>
<path fill="none" stroke="green" stroke-width="0.14" stroke-dasharray="1,5" d="M229.27,-330.58C229.93,-330.2 230.6,-329.82 231.27,-329.43"/>
<polygon fill="green" stroke="green" stroke-width="0.14" points="233.18,-332.37 240.09,-324.34 229.68,-326.31 233.18,-332.37"/>
<text text-anchor="middle" x="233.08" y="-325.51" font-family="Times,serif" font-size="5.00">0.200</text>
</g>
<!-- 63972&#45;&gt;64190 -->
<g id="edge47" class="edge">
<title>63972&#45;&gt;64190</title>
<path fill="none" stroke="green" stroke-width="0.14" stroke-dasharray="1,5" d="M179.66,-335.13C172.01,-332.43 163.47,-329.42 155.19,-326.49"/>
<polygon fill="green" stroke="green" stroke-width="0.14" points="156.25,-323.16 145.65,-323.13 153.92,-329.76 156.25,-323.16"/>
<text text-anchor="middle" x="161.8" y="-326.31" font-family="Times,serif" font-size="5.00">0.200</text>
</g>
<!-- 64193&#45;&gt;63877 -->
<g id="edge32" class="edge">
<title>64193&#45;&gt;63877</title>
<path fill="none" stroke="green" stroke-width="0.14" stroke-dasharray="1,5" d="M199.18,-347.18C198.99,-348.29 198.79,-349.42 198.59,-350.55"/>
<polygon fill="green" stroke="green" stroke-width="0.14" points="195.07,-350.37 196.8,-360.82 201.97,-351.57 195.07,-350.37"/>
<text text-anchor="middle" x="193.26" y="-350.37" font-family="Times,serif" font-size="5.00">0.200</text>
</g>
<!-- 64193&#45;&gt;64189 -->
<g id="edge40" class="edge">
<title>64193&#45;&gt;64189</title>
<path fill="none" stroke="green" stroke-width="0.14" stroke-dasharray="1,5" d="M230.83,-315.16C230.95,-315.14 231.07,-315.12 231.18,-315.1"/>
<polygon fill="green" stroke="green" stroke-width="0.14" points="227.32,-319.35 236.55,-314.14 226.08,-312.46 227.32,-319.35"/>
<text text-anchor="middle" x="236.63" y="-310.63" font-family="Times,serif" font-size="5.00">0.200</text>
</g>
<!-- 64193&#45;&gt;64190 -->
<g id="edge48" class="edge">
<title>64193&#45;&gt;64190</title>
<path fill="none" stroke="green" stroke-width="0.14" stroke-dasharray="1,5" d="M176.6,-317.72C170.52,-317.21 163.93,-316.66 157.43,-316.12"/>
<polygon fill="green" stroke="green" stroke-width="0.14" points="157.6,-312.62 147.34,-315.28 157.02,-319.6 157.6,-312.62"/>
<text text-anchor="middle" x="161.39" y="-318.42" font-family="Times,serif" font-size="5.00">0.200</text>
</g>
<!-- 64194&#45;&gt;63877 -->
<g id="edge33" class="edge">
<title>64194&#45;&gt;63877</title>
<path fill="none" stroke="green" stroke-width="0.14" stroke-dasharray="1,5" d="M184.93,-360.26C184.95,-360.38 184.98,-360.5 185,-360.62"/>
<polygon fill="green" stroke="green" stroke-width="0.14" points="179.65,-351.88 185.08,-360.98 186.5,-350.48 179.65,-351.88"/>
<text text-anchor="middle" x="187.78" y="-355.94" font-family="Times,serif" font-size="5.00">0.200</text>
</g>
<!-- 64194&#45;&gt;64189 -->
<g id="edge41" class="edge">
<title>64194&#45;&gt;64189</title>
<path fill="none" stroke="green" stroke-width="0.14" stroke-dasharray="1,5" d="M205.83,-325.96C212.64,-324.04 220.13,-321.93 227.47,-319.86"/>
<polygon fill="green" stroke="green" stroke-width="0.14" points="228.63,-323.17 237.31,-317.08 226.73,-316.43 228.63,-323.17"/>
<text text-anchor="middle" x="222.28" y="-324.41" font-family="Times,serif" font-size="5.00">0.200</text>
</g>
<!-- 64194&#45;&gt;64190 -->
<g id="edge49" class="edge">
<title>64194&#45;&gt;64190</title>
<path fill="none" stroke="green" stroke-width="0.14" stroke-dasharray="1,5" d="M153.3,-324.85C153.14,-324.8 152.99,-324.75 152.83,-324.7"/>
<polygon fill="green" stroke="green" stroke-width="0.14" points="156.44,-322.2 145.85,-322.42 154.27,-328.85 156.44,-322.2"/>
<text text-anchor="middle" x="150.25" y="-320.28" font-family="Times,serif" font-size="5.00">0.200</text>
</g>
<!-- 64182&#45;&gt;63877 -->
<g id="edge30" class="edge">
<title>64182&#45;&gt;63877</title>
<path fill="none" stroke="green" stroke-width="1.04" d="M157.96,-373.05C158.08,-373.12 158.21,-373.19 158.33,-373.26"/>
<polygon fill="green" stroke="green" stroke-width="1.04" points="153.49,-374.55 163.92,-376.41 156.93,-368.45 153.49,-374.55"/>
<text text-anchor="middle" x="160.96" y="-368.66" font-family="Times,serif" font-size="5.00">4.721</text>
</g>
<!-- 64195&#45;&gt;64189 -->
<g id="edge38" class="edge">
<title>64195&#45;&gt;64189</title>
<path fill="none" stroke="green" stroke-width="1.04" d="M265.33,-321.12C265.34,-321.07 265.35,-321.01 265.36,-320.96"/>
<polygon fill="green" stroke="green" stroke-width="1.04" points="267.24,-331.23 265.39,-320.8 260.33,-330.11 267.24,-331.23"/>
<text text-anchor="middle" x="259.72" y="-322.54" font-family="Times,serif" font-size="5.00">4.721</text>
</g>
<!-- 64196&#45;&gt;64190 -->
<g id="edge46" class="edge">
<title>64196&#45;&gt;64190</title>
<path fill="none" stroke="green" stroke-width="1.04" d="M124.13,-282.25C124.12,-282.31 124.1,-282.37 124.09,-282.42"/>
<polygon fill="green" stroke="green" stroke-width="1.04" points="123.23,-272.03 124.04,-282.6 130,-273.83 123.23,-272.03"/>
<text text-anchor="middle" x="129.74" y="-277.84" font-family="Times,serif" font-size="5.00">4.721</text>
</g>
<!-- 64203&#45;&gt;64190 -->
<g id="edge43" class="edge">
<title>64203&#45;&gt;64190</title>
<path fill="none" stroke="green" stroke-width="0.42" d="M54.36,-321.07C60.87,-320.18 67.97,-319.22 74.96,-318.27"/>
<polygon fill="green" stroke="green" stroke-width="0.42" points="75.6,-321.71 85.04,-316.89 74.66,-314.77 75.6,-321.71"/>
<text text-anchor="middle" x="70.28" y="-321.17" font-family="Times,serif" font-size="5.00">1.602</text>
</g>
<!-- 64204&#45;&gt;64190 -->
<g id="edge44" class="edge">
<title>64204&#45;&gt;64190</title>
<path fill="none" stroke="red" stroke-width="0.1" d="M56.66,-284.26C63.55,-287.56 71.18,-291.21 78.62,-294.77"/>
<polygon fill="red" stroke="red" stroke-width="0.1" points="77.34,-298.03 87.87,-299.19 80.36,-291.72 77.34,-298.03"/>
<text text-anchor="middle" x="73.27" y="-291.01" font-family="Times,serif" font-size="5.00">0.000</text>
</g>
<!-- 64205&#45;&gt;64190 -->
<g id="edge45" class="edge">
<title>64205&#45;&gt;64190</title>
<path fill="none" stroke="red" stroke-width="0.42" d="M68.5,-349.99C73.28,-346.24 78.45,-342.18 83.56,-338.17"/>
<polygon fill="red" stroke="red" stroke-width="0.42" points="85.77,-340.89 91.47,-331.96 81.44,-335.38 85.77,-340.89"/>
<text text-anchor="middle" x="82.49" y="-345.58" font-family="Times,serif" font-size="5.00">&#45;1.602</text>
</g>
<!-- 64197&#45;&gt;63877 -->
<g id="edge27" class="edge">
<title>64197&#45;&gt;63877</title>
<path fill="none" stroke="green" stroke-width="0.42" d="M219.95,-435.51C218.07,-432.64 216.12,-429.66 214.15,-426.66"/>
<polygon fill="green" stroke="green" stroke-width="0.42" points="217.05,-424.7 208.65,-418.25 211.2,-428.54 217.05,-424.7"/>
<text text-anchor="middle" x="222.68" y="-426.58" font-family="Times,serif" font-size="5.00">1.602</text>
</g>
<!-- 64198&#45;&gt;63877 -->
<g id="edge28" class="edge">
<title>64198&#45;&gt;63877</title>
<path fill="none" stroke="red" stroke-width="0.1" d="M184.06,-446C184.62,-441.85 185.21,-437.49 185.8,-433.12"/>
<polygon fill="red" stroke="red" stroke-width="0.1" points="189.3,-433.38 187.17,-423 182.36,-432.44 189.3,-433.38"/>
<text text-anchor="middle" x="190.55" y="-441.06" font-family="Times,serif" font-size="5.00">0.000</text>
</g>
<!-- 64199&#45;&gt;63877 -->
<g id="edge29" class="edge">
<title>64199&#45;&gt;63877</title>
<path fill="none" stroke="red" stroke-width="0.42" d="M143.4,-436.05C148.91,-430.98 155.02,-425.36 160.97,-419.89"/>
<polygon fill="red" stroke="red" stroke-width="0.42" points="163.39,-422.42 168.38,-413.07 158.65,-417.27 163.39,-422.42"/>
<text text-anchor="middle" x="158.64" y="-429.47" font-family="Times,serif" font-size="5.00">&#45;1.602</text>
</g>
<!-- 64200&#45;&gt;64189 -->
<g id="edge35" class="edge">
<title>64200&#45;&gt;64189</title>
<path fill="none" stroke="green" stroke-width="0.42" d="M321.33,-283.37C316.12,-285.8 310.52,-288.42 304.97,-291.02"/>
<polygon fill="green" stroke="green" stroke-width="0.42" points="303.33,-287.92 295.75,-295.33 306.29,-294.26 303.33,-287.92"/>
<text text-anchor="middle" x="315.96" y="-282.69" font-family="Times,serif" font-size="5.00">1.602</text>
</g>
<!-- 64201&#45;&gt;64189 -->
<g id="edge36" class="edge">
<title>64201&#45;&gt;64189</title>
<path fill="none" stroke="red" stroke-width="0.1" d="M313.38,-347.72C308.96,-343.97 304.2,-339.92 299.48,-335.9"/>
<polygon fill="red" stroke="red" stroke-width="0.1" points="301.51,-333.04 291.62,-329.22 296.97,-338.37 301.51,-333.04"/>
<text text-anchor="middle" x="300.8" y="-343.31" font-family="Times,serif" font-size="5.00">0.000</text>
</g>
<!-- 64202&#45;&gt;64189 -->
<g id="edge37" class="edge">
<title>64202&#45;&gt;64189</title>
<path fill="none" stroke="red" stroke-width="0.42" d="M324.55,-317.85C319.31,-317 313.72,-316.1 308.16,-315.2"/>
<polygon fill="red" stroke="red" stroke-width="0.42" points="308.7,-311.74 298.27,-313.6 307.58,-318.65 308.7,-311.74"/>
<text text-anchor="middle" x="309.9" y="-318.02" font-family="Times,serif" font-size="5.00">&#45;1.602</text>
</g>
</g>
</svg>
