<?xml version="1.0" encoding="UTF-8" standalone="no"?>
<!DOCTYPE svg PUBLIC "-//W3C//DTD SVG 1.1//EN"
 "http://www.w3.org/Graphics/SVG/1.1/DTD/svg11.dtd">
<!-- Generated by graphviz version 2.47.1 (20210417.1919)
 -->
<!-- Pages: 1 -->
<svg width="190pt" height="186pt"
 viewBox="0.00 0.00 190.23 185.53" xmlns="http://www.w3.org/2000/svg" xmlns:xlink="http://www.w3.org/1999/xlink">
<g id="graph0" class="graph" transform="scale(1 1) rotate(0) translate(4 181.53)">
<polygon fill="white" stroke="transparent" points="-4,4 -4,-181.53 186.23,-181.53 186.23,4 -4,4"/>
<!-- &#45;1 -->
<g id="node1" class="node">
<title>&#45;1</title>
<polygon fill="lightgray" stroke="black" points="23.75,-94.13 -0.25,-94.13 -0.25,-75.53 23.75,-75.53 23.75,-94.13"/>
<text text-anchor="middle" x="11.75" y="-82.13" font-family="Times,serif" font-size="9.00">&#45;1</text>
</g>
<!-- 0 -->
<g id="node5" class="node">
<title>0</title>
<ellipse fill="lightblue" stroke="black" cx="91.11" cy="-88.79" rx="14.49" ry="14.49"/>
<ellipse fill="none" stroke="black" cx="91.11" cy="-88.79" rx="18.49" ry="18.49"/>
<text text-anchor="middle" x="91.11" y="-86.09" font-family="Times,serif" font-size="9.00">0</text>
</g>
<!-- &#45;1&#45;&gt;0 -->
<g id="edge1" class="edge">
<title>&#45;1&#45;&gt;0</title>
<path fill="none" stroke="red" stroke-width="1.25" d="M23.8,-85.43C34,-85.94 49.03,-86.69 62.3,-87.35"/>
<polygon fill="red" stroke="red" stroke-width="1.25" points="62.28,-90.85 72.44,-87.86 62.63,-83.86 62.28,-90.85"/>
<text text-anchor="middle" x="36.59" y="-87.89" font-family="Times,serif" font-size="5.00">&#45;5.773</text>
</g>
<!-- &#45;2 -->
<g id="node2" class="node">
<title>&#45;2</title>
<polygon fill="lightgray" stroke="black" points="182.49,-101.55 158.48,-101.55 158.48,-82.95 182.49,-82.95 182.49,-101.55"/>
<text text-anchor="middle" x="170.49" y="-89.55" font-family="Times,serif" font-size="9.00">&#45;2</text>
</g>
<!-- &#45;2&#45;&gt;0 -->
<g id="edge4" class="edge">
<title>&#45;2&#45;&gt;0</title>
<path fill="none" stroke="red" stroke-width="0.18" d="M158.43,-91.73C148.23,-91.28 133.2,-90.62 119.93,-90.05"/>
<polygon fill="red" stroke="red" stroke-width="0.18" points="119.93,-86.54 109.79,-89.6 119.63,-93.54 119.93,-86.54"/>
<text text-anchor="middle" x="132.72" y="-92.39" font-family="Times,serif" font-size="5.00">&#45;0.402</text>
</g>
<!-- &#45;3 -->
<g id="node3" class="node">
<title>&#45;3</title>
<polygon fill="lightgray" stroke="black" points="106.37,-18.7 82.37,-18.7 82.37,-0.1 106.37,-0.1 106.37,-18.7"/>
<text text-anchor="middle" x="94.37" y="-6.7" font-family="Times,serif" font-size="9.00">&#45;3</text>
</g>
<!-- &#45;3&#45;&gt;0 -->
<g id="edge2" class="edge">
<title>&#45;3&#45;&gt;0</title>
<path fill="none" stroke="red" stroke-width="0.1" d="M93.98,-18.82C93.57,-28.93 92.89,-45.5 92.3,-59.98"/>
<polygon fill="red" stroke="red" stroke-width="0.1" points="88.8,-59.89 91.88,-70.02 95.79,-60.18 88.8,-59.89"/>
<text text-anchor="middle" x="87.51" y="-40.9" font-family="Times,serif" font-size="5.00">0.000</text>
</g>
<!-- &#45;4 -->
<g id="node4" class="node">
<title>&#45;4</title>
<polygon fill="lightgray" stroke="black" points="98.9,-177.43 74.9,-177.43 74.9,-158.83 98.9,-158.83 98.9,-177.43"/>
<text text-anchor="middle" x="86.9" y="-165.43" font-family="Times,serif" font-size="9.00">&#45;4</text>
</g>
<!-- &#45;4&#45;&gt;0 -->
<g id="edge3" class="edge">
<title>&#45;4&#45;&gt;0</title>
<path fill="none" stroke="green" stroke-width="1.25" d="M87.4,-158.72C87.94,-148.61 88.82,-132.05 89.59,-117.58"/>
<polygon fill="green" stroke="green" stroke-width="1.25" points="93.08,-117.71 90.12,-107.54 86.09,-117.34 93.08,-117.71"/>
<text text-anchor="middle" x="82.87" y="-139.65" font-family="Times,serif" font-size="5.00">5.773</text>
</g>
</g>
</svg>
