<?xml version="1.0" encoding="UTF-8" standalone="no"?>
<!DOCTYPE svg PUBLIC "-//W3C//DTD SVG 1.1//EN"
 "http://www.w3.org/Graphics/SVG/1.1/DTD/svg11.dtd">
<!-- Generated by graphviz version 2.47.1 (20210417.1919)
 -->
<!-- Pages: 1 -->
<svg width="422pt" height="402pt"
 viewBox="0.00 0.00 422.45 402.45" xmlns="http://www.w3.org/2000/svg" xmlns:xlink="http://www.w3.org/1999/xlink">
<g id="graph0" class="graph" transform="scale(1 1) rotate(0) translate(4 398.45)">
<polygon fill="white" stroke="transparent" points="-4,4 -4,-398.45 418.45,-398.45 418.45,4 -4,4"/>
<!-- &#45;1 -->
<g id="node1" class="node">
<title>&#45;1</title>
<polygon fill="lightgray" stroke="black" points="120.97,-181.43 96.97,-181.43 96.97,-162.83 120.97,-162.83 120.97,-181.43"/>
<text text-anchor="middle" x="108.97" y="-169.43" font-family="Times,serif" font-size="9.00">&#45;1</text>
</g>
<!-- 0 -->
<g id="node5" class="node">
<title>0</title>
<ellipse fill="lightblue" stroke="black" cx="185.24" cy="-182.39" rx="14.49" ry="14.49"/>
<ellipse fill="none" stroke="black" cx="185.24" cy="-182.39" rx="18.49" ry="18.49"/>
<text text-anchor="middle" x="185.24" y="-179.69" font-family="Times,serif" font-size="9.00">0</text>
</g>
<!-- &#45;1&#45;&gt;0 -->
<g id="edge6" class="edge">
<title>&#45;1&#45;&gt;0</title>
<path fill="none" stroke="green" stroke-width="1.05" d="M120.89,-173.73C130.51,-175.03 144.45,-176.9 156.89,-178.57"/>
<polygon fill="green" stroke="green" stroke-width="1.05" points="156.49,-182.05 166.87,-179.92 157.43,-175.11 156.49,-182.05"/>
<text text-anchor="middle" x="133.26" y="-171.65" font-family="Times,serif" font-size="5.00">4.727</text>
</g>
<!-- 64844 -->
<g id="node14" class="node">
<title>64844</title>
<ellipse fill="white" stroke="black" cx="46.96" cy="-114.42" rx="27.45" ry="27.45"/>
<text text-anchor="middle" x="46.96" y="-111.72" font-family="Times,serif" font-size="9.00">64844</text>
</g>
<!-- &#45;1&#45;&gt;64844 -->
<g id="edge10" class="edge">
<title>&#45;1&#45;&gt;64844</title>
<path fill="none" stroke="green" stroke-width="0.28" d="M98.73,-162.6C92.08,-156.41 83.07,-148.02 74.43,-139.98"/>
<polygon fill="green" stroke="green" stroke-width="0.28" points="76.7,-137.32 67,-133.07 71.94,-142.45 76.7,-137.32"/>
<text text-anchor="middle" x="80.95" y="-152.79" font-family="Times,serif" font-size="5.00">0.885</text>
</g>
<!-- 65839 -->
<g id="node17" class="node">
<title>65839</title>
<ellipse fill="white" stroke="black" cx="194.56" cy="-214.1" rx="27.42" ry="27.42"/>
<ellipse fill="none" stroke="black" cx="194.56" cy="-214.1" rx="31.45" ry="31.45"/>
<text text-anchor="middle" x="194.56" y="-211.4" font-family="Times,serif" font-size="9.00">65839</text>
</g>
<!-- &#45;1&#45;&gt;65839 -->
<g id="edge13" class="edge">
<title>&#45;1&#45;&gt;65839</title>
<path fill="none" stroke="green" stroke-width="0.27" d="M120.87,-177.97C130.26,-182.57 143.9,-189.26 156.89,-195.63"/>
<polygon fill="green" stroke="green" stroke-width="0.27" points="155.65,-198.92 166.17,-200.18 158.73,-192.64 155.65,-198.92"/>
<text text-anchor="middle" x="133.26" y="-188.3" font-family="Times,serif" font-size="5.00">0.868</text>
</g>
<!-- 66399 -->
<g id="node18" class="node">
<title>66399</title>
<ellipse fill="white" stroke="black" cx="155.23" cy="-223.59" rx="27.42" ry="27.42"/>
<ellipse fill="none" stroke="black" cx="155.23" cy="-223.59" rx="31.45" ry="31.45"/>
<text text-anchor="middle" x="155.23" y="-220.89" font-family="Times,serif" font-size="9.00">66399</text>
</g>
<!-- &#45;1&#45;&gt;66399 -->
<g id="edge17" class="edge">
<title>&#45;1&#45;&gt;66399</title>
<path fill="none" stroke="green" stroke-width="0.27" d="M117.45,-181.57C120.32,-184.75 123.68,-188.5 127.21,-192.42"/>
<polygon fill="green" stroke="green" stroke-width="0.27" points="124.81,-194.99 134.1,-200.09 130.02,-190.31 124.81,-194.99"/>
<text text-anchor="middle" x="116.71" y="-188.5" font-family="Times,serif" font-size="5.00">0.868</text>
</g>
<!-- 66400 -->
<g id="node19" class="node">
<title>66400</title>
<ellipse fill="white" stroke="black" cx="128.91" cy="-224.37" rx="27.42" ry="27.42"/>
<ellipse fill="none" stroke="black" cx="128.91" cy="-224.37" rx="31.45" ry="31.45"/>
<text text-anchor="middle" x="128.91" y="-221.67" font-family="Times,serif" font-size="9.00">66400</text>
</g>
<!-- &#45;1&#45;&gt;66400 -->
<g id="edge21" class="edge">
<title>&#45;1&#45;&gt;66400</title>
<path fill="none" stroke="green" stroke-width="0.27" d="M112.63,-181.71C113.09,-182.93 113.58,-184.22 114.1,-185.58"/>
<polygon fill="green" stroke="green" stroke-width="0.27" points="110.93,-187.09 117.77,-195.18 117.47,-184.59 110.93,-187.09"/>
<text text-anchor="middle" x="107.74" y="-185.14" font-family="Times,serif" font-size="5.00">0.868</text>
</g>
<!-- &#45;2 -->
<g id="node2" class="node">
<title>&#45;2</title>
<polygon fill="lightgray" stroke="black" points="340.92,-116.29 316.92,-116.29 316.92,-97.69 340.92,-97.69 340.92,-116.29"/>
<text text-anchor="middle" x="328.92" y="-104.29" font-family="Times,serif" font-size="9.00">&#45;2</text>
</g>
<!-- 66405 -->
<g id="node12" class="node">
<title>66405</title>
<ellipse fill="white" stroke="black" cx="235.49" cy="-106.23" rx="27.45" ry="27.45"/>
<text text-anchor="middle" x="235.49" y="-103.53" font-family="Times,serif" font-size="9.00">66405</text>
</g>
<!-- &#45;2&#45;&gt;66405 -->
<g id="edge1" class="edge">
<title>&#45;2&#45;&gt;66405</title>
<path fill="none" stroke="green" stroke-width="0.17" d="M317.09,-106.89C305.97,-106.8 288.73,-106.66 272.95,-106.53"/>
<polygon fill="green" stroke="green" stroke-width="0.17" points="272.91,-103.03 262.88,-106.45 272.85,-110.03 272.91,-103.03"/>
<text text-anchor="middle" x="289.4" y="-108.21" font-family="Times,serif" font-size="5.00">0.333</text>
</g>
<!-- &#45;3 -->
<g id="node3" class="node">
<title>&#45;3</title>
<polygon fill="lightgray" stroke="black" points="137.69,-168.1 113.69,-168.1 113.69,-149.5 137.69,-149.5 137.69,-168.1"/>
<text text-anchor="middle" x="125.69" y="-156.1" font-family="Times,serif" font-size="9.00">&#45;3</text>
</g>
<!-- &#45;3&#45;&gt;0 -->
<g id="edge7" class="edge">
<title>&#45;3&#45;&gt;0</title>
<path fill="none" stroke="green" stroke-width="1.05" d="M137.45,-163.46C143.42,-165.82 150.93,-168.8 158.22,-171.68"/>
<polygon fill="green" stroke="green" stroke-width="1.05" points="157.27,-175.07 167.85,-175.5 159.84,-168.56 157.27,-175.07"/>
<text text-anchor="middle" x="153.46" y="-169.07" font-family="Times,serif" font-size="5.00">4.727</text>
</g>
<!-- 66397 -->
<g id="node15" class="node">
<title>66397</title>
<ellipse fill="white" stroke="black" cx="27.22" cy="-162.63" rx="27.45" ry="27.45"/>
<text text-anchor="middle" x="27.22" y="-159.93" font-family="Times,serif" font-size="9.00">66397</text>
</g>
<!-- &#45;3&#45;&gt;66397 -->
<g id="edge11" class="edge">
<title>&#45;3&#45;&gt;66397</title>
<path fill="none" stroke="green" stroke-width="0.28" d="M113.62,-159.27C101.54,-159.74 82.33,-160.49 65.08,-161.16"/>
<polygon fill="green" stroke="green" stroke-width="0.28" points="64.54,-157.67 54.68,-161.56 64.81,-164.67 64.54,-157.67"/>
<text text-anchor="middle" x="83.73" y="-161.71" font-family="Times,serif" font-size="5.00">0.885</text>
</g>
<!-- &#45;3&#45;&gt;65839 -->
<g id="edge14" class="edge">
<title>&#45;3&#45;&gt;65839</title>
<path fill="none" stroke="green" stroke-width="0.27" d="M137.37,-168.18C144.19,-173.66 153.16,-180.86 161.97,-187.93"/>
<polygon fill="green" stroke="green" stroke-width="0.27" points="159.96,-190.81 169.95,-194.34 164.34,-185.35 159.96,-190.81"/>
<text text-anchor="middle" x="144.05" y="-179.56" font-family="Times,serif" font-size="5.00">0.868</text>
</g>
<!-- &#45;3&#45;&gt;66399 -->
<g id="edge18" class="edge">
<title>&#45;3&#45;&gt;66399</title>
<path fill="none" stroke="green" stroke-width="0.27" d="M130.05,-168.36C132.21,-173.09 134.96,-179.14 137.86,-185.5"/>
<polygon fill="green" stroke="green" stroke-width="0.27" points="134.82,-187.26 142.15,-194.9 141.19,-184.35 134.82,-187.26"/>
<text text-anchor="middle" x="128.33" y="-178.43" font-family="Times,serif" font-size="5.00">0.868</text>
</g>
<!-- &#45;3&#45;&gt;66400 -->
<g id="edge22" class="edge">
<title>&#45;3&#45;&gt;66400</title>
<path fill="none" stroke="green" stroke-width="0.27" d="M126.15,-168.2C126.35,-172.31 126.61,-177.45 126.87,-182.95"/>
<polygon fill="green" stroke="green" stroke-width="0.27" points="123.38,-183.24 127.37,-193.06 130.38,-182.9 123.38,-183.24"/>
<text text-anchor="middle" x="123.7" y="-171.07" font-family="Times,serif" font-size="5.00">0.868</text>
</g>
<!-- &#45;4 -->
<g id="node4" class="node">
<title>&#45;4</title>
<polygon fill="lightgray" stroke="black" points="253.71,-245.52 229.71,-245.52 229.71,-226.92 253.71,-226.92 253.71,-245.52"/>
<text text-anchor="middle" x="241.71" y="-233.52" font-family="Times,serif" font-size="9.00">&#45;4</text>
</g>
<!-- &#45;4&#45;&gt;0 -->
<g id="edge8" class="edge">
<title>&#45;4&#45;&gt;0</title>
<path fill="none" stroke="green" stroke-width="1.05" d="M231.87,-226.84C224.83,-220.13 215.09,-210.85 206.33,-202.5"/>
<polygon fill="green" stroke="green" stroke-width="1.05" points="208.63,-199.85 198.98,-195.49 203.8,-204.92 208.63,-199.85"/>
<text text-anchor="middle" x="224.73" y="-216.17" font-family="Times,serif" font-size="5.00">4.727</text>
</g>
<!-- 66398 -->
<g id="node16" class="node">
<title>66398</title>
<ellipse fill="white" stroke="black" cx="315.67" cy="-283.39" rx="27.45" ry="27.45"/>
<text text-anchor="middle" x="315.67" y="-280.69" font-family="Times,serif" font-size="9.00">66398</text>
</g>
<!-- &#45;4&#45;&gt;66398 -->
<g id="edge12" class="edge">
<title>&#45;4&#45;&gt;66398</title>
<path fill="none" stroke="green" stroke-width="0.28" d="M253.59,-243.8C261.84,-249.06 273.24,-256.33 284.03,-263.21"/>
<polygon fill="green" stroke="green" stroke-width="0.28" points="282.16,-266.17 292.47,-268.59 285.92,-260.27 282.16,-266.17"/>
<text text-anchor="middle" x="263.18" y="-255" font-family="Times,serif" font-size="5.00">0.885</text>
</g>
<!-- &#45;4&#45;&gt;65839 -->
<g id="edge15" class="edge">
<title>&#45;4&#45;&gt;65839</title>
<path fill="none" stroke="green" stroke-width="0.27" d="M229.81,-230.64C229.67,-230.58 229.54,-230.51 229.4,-230.45"/>
<polygon fill="green" stroke="green" stroke-width="0.27" points="233.38,-228.45 222.84,-227.37 230.4,-234.78 233.38,-228.45"/>
<text text-anchor="middle" x="232.42" y="-226.04" font-family="Times,serif" font-size="5.00">0.868</text>
</g>
<!-- &#45;4&#45;&gt;66399 -->
<g id="edge19" class="edge">
<title>&#45;4&#45;&gt;66399</title>
<path fill="none" stroke="green" stroke-width="0.27" d="M229.68,-234.46C220.91,-233.18 208.46,-231.37 196.25,-229.58"/>
<polygon fill="green" stroke="green" stroke-width="0.27" points="196.54,-226.09 186.14,-228.11 195.53,-233.02 196.54,-226.09"/>
<text text-anchor="middle" x="207.34" y="-233.52" font-family="Times,serif" font-size="5.00">0.868</text>
</g>
<!-- &#45;4&#45;&gt;66400 -->
<g id="edge23" class="edge">
<title>&#45;4&#45;&gt;66400</title>
<path fill="none" stroke="green" stroke-width="0.27" d="M229.64,-234.95C215.47,-233.46 191.23,-230.92 170.08,-228.69"/>
<polygon fill="green" stroke="green" stroke-width="0.27" points="170.31,-225.2 160,-227.64 169.58,-232.16 170.31,-225.2"/>
<text text-anchor="middle" x="194.23" y="-233.32" font-family="Times,serif" font-size="5.00">0.868</text>
</g>
<!-- 0&#45;&gt;66399 -->
<g id="edge20" class="edge">
<title>0&#45;&gt;66399</title>
<path fill="none" stroke="green" stroke-width="0.17" stroke-dasharray="1,5" d="M174.06,-197.73C174,-197.82 173.93,-197.91 173.86,-198.01"/>
<polygon fill="green" stroke="green" stroke-width="0.17" points="176.72,-188.14 173.66,-198.28 182.38,-192.26 176.72,-188.14"/>
<text text-anchor="middle" x="168.34" y="-193.37" font-family="Times,serif" font-size="5.00">0.333</text>
</g>
<!-- 0&#45;&gt;66400 -->
<g id="edge24" class="edge">
<title>0&#45;&gt;66400</title>
<path fill="none" stroke="green" stroke-width="0.17" stroke-dasharray="1,5" d="M170.14,-193.64C167.66,-195.48 165.01,-197.46 162.3,-199.48"/>
<polygon fill="green" stroke="green" stroke-width="0.17" points="159.98,-196.85 154.05,-205.63 164.16,-202.46 159.98,-196.85"/>
<text text-anchor="middle" x="160.59" y="-192.06" font-family="Times,serif" font-size="5.00">0.333</text>
</g>
<!-- 62560 -->
<g id="node23" class="node">
<title>62560</title>
<ellipse fill="white" stroke="black" cx="166.25" cy="-276.39" rx="27.42" ry="27.42"/>
<ellipse fill="none" stroke="black" cx="166.25" cy="-276.39" rx="31.45" ry="31.45"/>
<text text-anchor="middle" x="166.25" y="-273.69" font-family="Times,serif" font-size="9.00">62560</text>
</g>
<!-- 0&#45;&gt;62560 -->
<g id="edge28" class="edge">
<title>0&#45;&gt;62560</title>
<path fill="none" stroke="red" stroke-width="0.47" d="M181.48,-200.96C179.47,-210.91 176.91,-223.58 174.47,-235.68"/>
<polygon fill="red" stroke="red" stroke-width="0.47" points="171.01,-235.15 172.46,-245.65 177.87,-236.54 171.01,-235.15"/>
<text text-anchor="middle" x="171.52" y="-219.82" font-family="Times,serif" font-size="5.00">&#45;1.829</text>
</g>
<!-- 66395 -->
<g id="node24" class="node">
<title>66395</title>
<ellipse fill="white" stroke="black" cx="187.51" cy="-270.84" rx="27.42" ry="27.42"/>
<ellipse fill="none" stroke="black" cx="187.51" cy="-270.84" rx="31.45" ry="31.45"/>
<text text-anchor="middle" x="187.51" y="-268.14" font-family="Times,serif" font-size="9.00">66395</text>
</g>
<!-- 0&#45;&gt;66395 -->
<g id="edge35" class="edge">
<title>0&#45;&gt;66395</title>
<path fill="none" stroke="red" stroke-width="0.47" d="M185.72,-201.14C185.93,-209.43 186.19,-219.51 186.45,-229.41"/>
<polygon fill="red" stroke="red" stroke-width="0.47" points="182.95,-229.67 186.71,-239.58 189.95,-229.49 182.95,-229.67"/>
<text text-anchor="middle" x="192.54" y="-216.78" font-family="Times,serif" font-size="5.00">&#45;1.829</text>
</g>
<!-- 66396 -->
<g id="node25" class="node">
<title>66396</title>
<ellipse fill="white" stroke="black" cx="141.71" cy="-269.38" rx="27.42" ry="27.42"/>
<ellipse fill="none" stroke="black" cx="141.71" cy="-269.38" rx="31.45" ry="31.45"/>
<text text-anchor="middle" x="141.71" y="-266.68" font-family="Times,serif" font-size="9.00">66396</text>
</g>
<!-- 0&#45;&gt;66396 -->
<g id="edge42" class="edge">
<title>0&#45;&gt;66396</title>
<path fill="none" stroke="red" stroke-width="0.47" d="M176.84,-199.16C172.13,-208.59 166.04,-220.75 160.26,-232.3"/>
<polygon fill="red" stroke="red" stroke-width="0.47" points="157.07,-230.85 155.73,-241.36 163.33,-233.98 157.07,-230.85"/>
<text text-anchor="middle" x="175.01" y="-211.23" font-family="Times,serif" font-size="5.00">&#45;1.829</text>
</g>
<!-- 66050 -->
<g id="node6" class="node">
<title>66050</title>
<ellipse fill="white" stroke="black" cx="367.22" cy="-187.22" rx="27.45" ry="27.45"/>
<text text-anchor="middle" x="367.22" y="-184.52" font-family="Times,serif" font-size="9.00">66050</text>
</g>
<!-- 66401 -->
<g id="node7" class="node">
<title>66401</title>
<ellipse fill="white" stroke="black" cx="367.22" cy="-367.22" rx="27.45" ry="27.45"/>
<text text-anchor="middle" x="367.22" y="-364.52" font-family="Times,serif" font-size="9.00">66401</text>
</g>
<!-- 66402 -->
<g id="node8" class="node">
<title>66402</title>
<ellipse fill="white" stroke="black" cx="387.22" cy="-27.22" rx="27.45" ry="27.45"/>
<text text-anchor="middle" x="387.22" y="-24.52" font-family="Times,serif" font-size="9.00">66402</text>
</g>
<!-- 290 -->
<g id="node9" class="node">
<title>290</title>
<ellipse fill="white" stroke="black" cx="188.37" cy="-31.61" rx="20.72" ry="20.72"/>
<text text-anchor="middle" x="188.37" y="-28.91" font-family="Times,serif" font-size="9.00">290</text>
</g>
<!-- 290&#45;&gt;66405 -->
<g id="edge2" class="edge">
<title>290&#45;&gt;66405</title>
<path fill="none" stroke="green" stroke-width="0.17" d="M199.53,-49.29C204.26,-56.78 209.92,-65.74 215.33,-74.31"/>
<polygon fill="green" stroke="green" stroke-width="0.17" points="212.53,-76.43 220.83,-83.02 218.45,-72.69 212.53,-76.43"/>
<text text-anchor="middle" x="201.81" y="-63.3" font-family="Times,serif" font-size="5.00">0.333</text>
</g>
<!-- 66393 -->
<g id="node10" class="node">
<title>66393</title>
<ellipse fill="white" stroke="black" cx="243.58" cy="-27.22" rx="27.45" ry="27.45"/>
<text text-anchor="middle" x="243.58" y="-24.52" font-family="Times,serif" font-size="9.00">66393</text>
</g>
<!-- 66393&#45;&gt;66405 -->
<g id="edge3" class="edge">
<title>66393&#45;&gt;66405</title>
<path fill="none" stroke="green" stroke-width="0.17" d="M240.8,-54.41C240.31,-59.13 239.8,-64.11 239.3,-69.04"/>
<polygon fill="green" stroke="green" stroke-width="0.17" points="235.82,-68.68 238.28,-78.99 242.78,-69.4 235.82,-68.68"/>
<text text-anchor="middle" x="234.42" y="-63.22" font-family="Times,serif" font-size="5.00">0.333</text>
</g>
<!-- 66394 -->
<g id="node11" class="node">
<title>66394</title>
<ellipse fill="white" stroke="black" cx="298.55" cy="-56.23" rx="27.45" ry="27.45"/>
<text text-anchor="middle" x="298.55" y="-53.53" font-family="Times,serif" font-size="9.00">66394</text>
</g>
<!-- 66394&#45;&gt;66405 -->
<g id="edge4" class="edge">
<title>66394&#45;&gt;66405</title>
<path fill="none" stroke="green" stroke-width="0.17" d="M277.2,-73.16C273.38,-76.18 269.34,-79.39 265.33,-82.56"/>
<polygon fill="green" stroke="green" stroke-width="0.17" points="262.91,-80.02 257.25,-88.98 267.26,-85.51 262.91,-80.02"/>
<text text-anchor="middle" x="265.64" y="-73.36" font-family="Times,serif" font-size="5.00">0.333</text>
</g>
<!-- 66405&#45;&gt;0 -->
<g id="edge9" class="edge">
<title>66405&#45;&gt;0</title>
<path fill="none" stroke="green" stroke-width="0.17" stroke-dasharray="1,5" d="M220.41,-129.08C214.37,-138.24 207.39,-148.81 201.25,-158.12"/>
<polygon fill="green" stroke="green" stroke-width="0.17" points="198.27,-156.28 195.68,-166.56 204.11,-160.14 198.27,-156.28"/>
<text text-anchor="middle" x="205.21" y="-145.1" font-family="Times,serif" font-size="5.00">0.333</text>
</g>
<!-- 66406 -->
<g id="node13" class="node">
<title>66406</title>
<ellipse fill="white" stroke="black" cx="265.48" cy="-163.78" rx="27.45" ry="27.45"/>
<text text-anchor="middle" x="265.48" y="-161.08" font-family="Times,serif" font-size="9.00">66406</text>
</g>
<!-- 66405&#45;&gt;66406 -->
<g id="edge5" class="edge">
<title>66405&#45;&gt;66406</title>
<path fill="none" stroke="green" stroke-width="0.17" d="M248.21,-130.63C248.26,-130.73 248.3,-130.82 248.35,-130.91"/>
<polygon fill="green" stroke="green" stroke-width="0.17" points="245.11,-132.27 252.84,-139.52 251.32,-129.03 245.11,-132.27"/>
<text text-anchor="middle" x="242.65" y="-132.27" font-family="Times,serif" font-size="5.00">0.333</text>
</g>
<!-- 66406&#45;&gt;65839 -->
<g id="edge16" class="edge">
<title>66406&#45;&gt;65839</title>
<path fill="none" stroke="green" stroke-width="0.17" stroke-dasharray="1,5" d="M243.04,-179.7C238.36,-183.02 233.33,-186.59 228.34,-190.13"/>
<polygon fill="green" stroke="green" stroke-width="0.17" points="226.19,-187.36 220.06,-196.01 230.24,-193.07 226.19,-187.36"/>
<text text-anchor="middle" x="232.88" y="-180.42" font-family="Times,serif" font-size="5.00">0.333</text>
</g>
<!-- 66392 -->
<g id="node20" class="node">
<title>66392</title>
<ellipse fill="white" stroke="black" cx="214.9" cy="-313.53" rx="27.45" ry="27.45"/>
<text text-anchor="middle" x="214.9" y="-310.83" font-family="Times,serif" font-size="9.00">66392</text>
</g>
<!-- 65839&#45;&gt;66392 -->
<g id="edge25" class="edge">
<title>65839&#45;&gt;66392</title>
<path fill="none" stroke="green" stroke-width="0.3" d="M200.83,-244.75C202.92,-254.95 205.27,-266.42 207.44,-277.02"/>
<polygon fill="green" stroke="green" stroke-width="0.3" points="204.01,-277.76 209.45,-286.86 210.87,-276.36 204.01,-277.76"/>
<text text-anchor="middle" x="209.76" y="-262.39" font-family="Times,serif" font-size="5.00">1.000</text>
</g>
<!-- 65839&#45;&gt;62560 -->
<g id="edge29" class="edge">
<title>65839&#45;&gt;62560</title>
<path fill="none" stroke="green" stroke-width="0.53" d="M181.57,-242.7C181.52,-242.8 181.47,-242.9 181.42,-243.01"/>
<polygon fill="green" stroke="green" stroke-width="0.53" points="180.24,-237.14 179.29,-247.7 186.62,-240.04 180.24,-237.14"/>
<text text-anchor="middle" x="187.12" y="-244.35" font-family="Times,serif" font-size="5.00">2.153</text>
</g>
<!-- 65839&#45;&gt;66395 -->
<g id="edge36" class="edge">
<title>65839&#45;&gt;66395</title>
<path fill="none" stroke="green" stroke-width="0.53" d="M190.71,-245.13C190.7,-245.18 190.69,-245.23 190.69,-245.28"/>
<polygon fill="green" stroke="green" stroke-width="0.53" points="188.43,-235.08 190.67,-245.44 195.38,-235.95 188.43,-235.08"/>
<text text-anchor="middle" x="196.32" y="-246.71" font-family="Times,serif" font-size="5.00">2.153</text>
</g>
<!-- 65839&#45;&gt;66396 -->
<g id="edge43" class="edge">
<title>65839&#45;&gt;66396</title>
<path fill="none" stroke="green" stroke-width="0.53" d="M172.76,-236.9C171.99,-237.71 171.22,-238.52 170.44,-239.33"/>
<polygon fill="green" stroke="green" stroke-width="0.53" points="167.84,-236.98 163.46,-246.63 172.9,-241.82 167.84,-236.98"/>
<text text-anchor="middle" x="177.23" y="-233.62" font-family="Times,serif" font-size="5.00">2.153</text>
</g>
<!-- 66403 -->
<g id="node21" class="node">
<title>66403</title>
<ellipse fill="white" stroke="black" cx="138.05" cy="-328.36" rx="27.45" ry="27.45"/>
<text text-anchor="middle" x="138.05" y="-325.66" font-family="Times,serif" font-size="9.00">66403</text>
</g>
<!-- 66399&#45;&gt;66403 -->
<g id="edge26" class="edge">
<title>66399&#45;&gt;66403</title>
<path fill="none" stroke="green" stroke-width="0.3" d="M150.17,-254.46C148.29,-265.94 146.13,-279.1 144.16,-291.09"/>
<polygon fill="green" stroke="green" stroke-width="0.3" points="140.66,-290.83 142.49,-301.27 147.57,-291.97 140.66,-290.83"/>
<text text-anchor="middle" x="149.98" y="-268.28" font-family="Times,serif" font-size="5.00">1.000</text>
</g>
<!-- 66399&#45;&gt;62560 -->
<g id="edge30" class="edge">
<title>66399&#45;&gt;62560</title>
<path fill="none" stroke="red" stroke-width="0.1" d="M161.64,-254.31C161.65,-254.35 161.66,-254.4 161.67,-254.44"/>
<polygon fill="red" stroke="red" stroke-width="0.1" points="156.22,-245.51 161.7,-254.58 163.07,-244.07 156.22,-245.51"/>
<text text-anchor="middle" x="167.28" y="-255.88" font-family="Times,serif" font-size="5.00">0.000</text>
</g>
<!-- 66399&#45;&gt;66395 -->
<g id="edge37" class="edge">
<title>66399&#45;&gt;66395</title>
<path fill="none" stroke="red" stroke-width="0.1" d="M172.88,-249.43C172.91,-249.47 172.94,-249.52 172.97,-249.56"/>
<polygon fill="red" stroke="red" stroke-width="0.1" points="164.53,-243.4 173.06,-249.69 170.31,-239.45 164.53,-243.4"/>
<text text-anchor="middle" x="178.55" y="-250.99" font-family="Times,serif" font-size="5.00">0.000</text>
</g>
<!-- 66399&#45;&gt;66396 -->
<g id="edge44" class="edge">
<title>66399&#45;&gt;66396</title>
<path fill="none" stroke="red" stroke-width="0.1" d="M146.36,-253.62C146.34,-253.69 146.32,-253.76 146.3,-253.82"/>
<polygon fill="red" stroke="red" stroke-width="0.1" points="145.72,-243.44 146.24,-254.03 152.44,-245.43 145.72,-243.44"/>
<text text-anchor="middle" x="140.71" y="-255.22" font-family="Times,serif" font-size="5.00">0.000</text>
</g>
<!-- 66404 -->
<g id="node22" class="node">
<title>66404</title>
<ellipse fill="white" stroke="black" cx="91.29" cy="-294.43" rx="27.45" ry="27.45"/>
<text text-anchor="middle" x="91.29" y="-291.73" font-family="Times,serif" font-size="9.00">66404</text>
</g>
<!-- 66400&#45;&gt;66404 -->
<g id="edge27" class="edge">
<title>66400&#45;&gt;66404</title>
<path fill="none" stroke="green" stroke-width="0.3" d="M114.04,-252.06C112.44,-255.04 110.79,-258.1 109.16,-261.14"/>
<polygon fill="green" stroke="green" stroke-width="0.3" points="105.99,-259.65 104.34,-270.12 112.16,-262.96 105.99,-259.65"/>
<text text-anchor="middle" x="105.98" y="-258.1" font-family="Times,serif" font-size="5.00">1.000</text>
</g>
<!-- 66400&#45;&gt;62560 -->
<g id="edge31" class="edge">
<title>66400&#45;&gt;62560</title>
<path fill="none" stroke="red" stroke-width="0.53" d="M147.14,-249.77C147.21,-249.88 147.29,-249.98 147.36,-250.08"/>
<polygon fill="red" stroke="red" stroke-width="0.53" points="139.35,-244.93 148.03,-251.01 145.04,-240.85 139.35,-244.93"/>
<text text-anchor="middle" x="150.48" y="-245.43" font-family="Times,serif" font-size="5.00">&#45;2.153</text>
</g>
<!-- 66400&#45;&gt;66395 -->
<g id="edge38" class="edge">
<title>66400&#45;&gt;66395</title>
<path fill="none" stroke="red" stroke-width="0.53" d="M153.42,-243.81C153.91,-244.2 154.4,-244.59 154.9,-244.98"/>
<polygon fill="red" stroke="red" stroke-width="0.53" points="152.9,-247.86 162.91,-251.33 157.25,-242.37 152.9,-247.86"/>
<text text-anchor="middle" x="147.7" y="-239.89" font-family="Times,serif" font-size="5.00">&#45;2.153</text>
</g>
<!-- 66400&#45;&gt;66396 -->
<g id="edge45" class="edge">
<title>66400&#45;&gt;66396</title>
<path fill="none" stroke="red" stroke-width="0.53" d="M137.52,-254.64C137.54,-254.7 137.55,-254.77 137.57,-254.83"/>
<polygon fill="red" stroke="red" stroke-width="0.53" points="131.52,-246.36 137.63,-255.02 138.25,-244.44 131.52,-246.36"/>
<text text-anchor="middle" x="131.09" y="-256.24" font-family="Times,serif" font-size="5.00">&#45;2.153</text>
</g>
<!-- 66392&#45;&gt;62560 -->
<g id="edge32" class="edge">
<title>66392&#45;&gt;62560</title>
<path fill="none" stroke="red" stroke-width="0.62" d="M193.14,-296.92C192.99,-296.8 192.83,-296.69 192.68,-296.57"/>
<polygon fill="red" stroke="red" stroke-width="0.62" points="201.38,-298.81 191.31,-295.52 197.14,-304.37 201.38,-298.81"/>
<text text-anchor="middle" x="186.45" y="-298.24" font-family="Times,serif" font-size="5.00">&#45;2.625</text>
</g>
<!-- 66392&#45;&gt;66395 -->
<g id="edge39" class="edge">
<title>66392&#45;&gt;66395</title>
<path fill="none" stroke="red" stroke-width="0.62" d="M199.93,-290.19C199.88,-290.11 199.83,-290.03 199.78,-289.95"/>
<polygon fill="red" stroke="red" stroke-width="0.62" points="207.97,-296.25 199.63,-289.72 202.08,-300.03 207.97,-296.25"/>
<text text-anchor="middle" x="206.31" y="-291.57" font-family="Times,serif" font-size="5.00">&#45;2.625</text>
</g>
<!-- 66392&#45;&gt;66396 -->
<g id="edge46" class="edge">
<title>66392&#45;&gt;66396</title>
<path fill="none" stroke="red" stroke-width="0.62" d="M191.34,-299.32C186.8,-296.58 181.94,-293.65 177.12,-290.74"/>
<polygon fill="red" stroke="red" stroke-width="0.62" points="178.91,-287.73 168.54,-285.56 175.29,-293.72 178.91,-287.73"/>
<text text-anchor="middle" x="181" y="-290.53" font-family="Times,serif" font-size="5.00">&#45;2.625</text>
</g>
<!-- 66403&#45;&gt;62560 -->
<g id="edge33" class="edge">
<title>66403&#45;&gt;62560</title>
<path fill="none" stroke="red" stroke-width="0.62" d="M151.16,-304.2C151.19,-304.15 151.22,-304.09 151.25,-304.04"/>
<polygon fill="red" stroke="red" stroke-width="0.62" points="149.64,-314.34 151.33,-303.88 143.48,-311 149.64,-314.34"/>
<text text-anchor="middle" x="144.75" y="-305.62" font-family="Times,serif" font-size="5.00">&#45;2.625</text>
</g>
<!-- 66403&#45;&gt;66395 -->
<g id="edge40" class="edge">
<title>66403&#45;&gt;66395</title>
<path fill="none" stroke="red" stroke-width="0.62" d="M155.91,-307.59C157.24,-306.05 158.59,-304.47 159.96,-302.88"/>
<polygon fill="red" stroke="red" stroke-width="0.62" points="162.96,-304.76 166.82,-294.9 157.65,-300.2 162.96,-304.76"/>
<text text-anchor="middle" x="164.39" y="-306.74" font-family="Times,serif" font-size="5.00">&#45;2.625</text>
</g>
<!-- 66403&#45;&gt;66396 -->
<g id="edge47" class="edge">
<title>66403&#45;&gt;66396</title>
<path fill="none" stroke="red" stroke-width="0.62" d="M139.75,-300.94C139.76,-300.88 139.76,-300.82 139.76,-300.76"/>
<polygon fill="red" stroke="red" stroke-width="0.62" points="142.64,-310.78 139.78,-300.58 135.66,-310.34 142.64,-310.78"/>
<text text-anchor="middle" x="133.3" y="-302.35" font-family="Times,serif" font-size="5.00">&#45;2.625</text>
</g>
<!-- 66404&#45;&gt;62560 -->
<g id="edge34" class="edge">
<title>66404&#45;&gt;62560</title>
<path fill="none" stroke="red" stroke-width="0.62" d="M117.93,-288.02C120.56,-287.39 123.27,-286.73 126,-286.08"/>
<polygon fill="red" stroke="red" stroke-width="0.62" points="126.96,-289.45 135.86,-283.7 125.32,-282.64 126.96,-289.45"/>
<text text-anchor="middle" x="128.42" y="-288.55" font-family="Times,serif" font-size="5.00">&#45;2.625</text>
</g>
<!-- 66404&#45;&gt;66395 -->
<g id="edge41" class="edge">
<title>66404&#45;&gt;66395</title>
<path fill="none" stroke="red" stroke-width="0.62" d="M117.84,-287.92C126.93,-285.69 137.32,-283.14 147.26,-280.71"/>
<polygon fill="red" stroke="red" stroke-width="0.62" points="148.09,-284.11 156.97,-278.33 146.42,-277.31 148.09,-284.11"/>
<text text-anchor="middle" x="126.09" y="-279.81" font-family="Times,serif" font-size="5.00">&#45;2.625</text>
</g>
<!-- 66404&#45;&gt;66396 -->
<g id="edge48" class="edge">
<title>66404&#45;&gt;66396</title>
<path fill="none" stroke="red" stroke-width="0.62" d="M115.91,-282.2C115.96,-282.17 116.01,-282.15 116.06,-282.12"/>
<polygon fill="red" stroke="red" stroke-width="0.62" points="108.81,-289.64 116.21,-282.05 105.69,-283.37 108.81,-289.64"/>
<text text-anchor="middle" x="122.44" y="-283.66" font-family="Times,serif" font-size="5.00">&#45;2.625</text>
</g>
</g>
</svg>
