<?xml version="1.0" encoding="UTF-8" standalone="no"?>
<!DOCTYPE svg PUBLIC "-//W3C//DTD SVG 1.1//EN"
 "http://www.w3.org/Graphics/SVG/1.1/DTD/svg11.dtd">
<!-- Generated by graphviz version 2.47.1 (20210417.1919)
 -->
<!-- Pages: 1 -->
<svg width="247pt" height="243pt"
 viewBox="0.00 0.00 247.50 242.80" xmlns="http://www.w3.org/2000/svg" xmlns:xlink="http://www.w3.org/1999/xlink">
<g id="graph0" class="graph" transform="scale(1 1) rotate(0) translate(4 238.8)">
<polygon fill="white" stroke="transparent" points="-4,4 -4,-238.8 243.5,-238.8 243.5,4 -4,4"/>
<!-- &#45;1 -->
<g id="node1" class="node">
<title>&#45;1</title>
<polygon fill="lightgray" stroke="black" points="215.75,-222.7 191.75,-222.7 191.75,-204.1 215.75,-204.1 215.75,-222.7"/>
<text text-anchor="middle" x="203.75" y="-210.7" font-family="Times,serif" font-size="9.00">&#45;1</text>
</g>
<!-- &#45;2 -->
<g id="node2" class="node">
<title>&#45;2</title>
<polygon fill="lightgray" stroke="black" points="23.75,-110.06 -0.25,-110.06 -0.25,-91.45 23.75,-91.45 23.75,-110.06"/>
<text text-anchor="middle" x="11.75" y="-98.05" font-family="Times,serif" font-size="9.00">&#45;2</text>
</g>
<!-- 0 -->
<g id="node5" class="node">
<title>0</title>
<ellipse fill="lightblue" stroke="black" cx="95.13" cy="-107.01" rx="14.49" ry="14.49"/>
<ellipse fill="none" stroke="black" cx="95.13" cy="-107.01" rx="18.49" ry="18.49"/>
<text text-anchor="middle" x="95.13" y="-104.31" font-family="Times,serif" font-size="9.00">0</text>
</g>
<!-- &#45;2&#45;&gt;0 -->
<g id="edge4" class="edge">
<title>&#45;2&#45;&gt;0</title>
<path fill="none" stroke="green" stroke-width="0.17" stroke-dasharray="1,5" d="M23.7,-101.65C34.78,-102.48 51.73,-103.75 66.33,-104.85"/>
<polygon fill="green" stroke="green" stroke-width="0.17" points="66.2,-108.35 76.44,-105.61 66.73,-101.37 66.2,-108.35"/>
<text text-anchor="middle" x="39.39" y="-104.75" font-family="Times,serif" font-size="5.00">0.333</text>
</g>
<!-- &#45;3 -->
<g id="node3" class="node">
<title>&#45;3</title>
<polygon fill="lightgray" stroke="black" points="47.75,-234.7 23.75,-234.7 23.75,-216.1 47.75,-216.1 47.75,-234.7"/>
<text text-anchor="middle" x="35.75" y="-222.7" font-family="Times,serif" font-size="9.00">&#45;3</text>
</g>
<!-- &#45;4 -->
<g id="node4" class="node">
<title>&#45;4</title>
<polygon fill="lightgray" stroke="black" points="239.75,-150.7 215.75,-150.7 215.75,-132.1 239.75,-132.1 239.75,-150.7"/>
<text text-anchor="middle" x="227.75" y="-138.7" font-family="Times,serif" font-size="9.00">&#45;4</text>
</g>
<!-- 21843 -->
<g id="node6" class="node">
<title>21843</title>
<ellipse fill="white" stroke="black" cx="119.69" cy="-27.22" rx="27.45" ry="27.45"/>
<text text-anchor="middle" x="119.69" y="-24.52" font-family="Times,serif" font-size="9.00">21843</text>
</g>
<!-- 21843&#45;&gt;0 -->
<g id="edge5" class="edge">
<title>21843&#45;&gt;0</title>
<path fill="none" stroke="green" stroke-width="0.17" stroke-dasharray="1,5" d="M111.65,-53.35C109.11,-61.62 106.28,-70.79 103.7,-79.18"/>
<polygon fill="green" stroke="green" stroke-width="0.17" points="100.3,-78.32 100.71,-88.9 106.99,-80.38 100.3,-78.32"/>
<text text-anchor="middle" x="102.05" y="-67.76" font-family="Times,serif" font-size="5.00">0.333</text>
</g>
<!-- 64173 -->
<g id="node7" class="node">
<title>64173</title>
<ellipse fill="white" stroke="black" cx="106.42" cy="-189.82" rx="27.45" ry="27.45"/>
<text text-anchor="middle" x="106.42" y="-187.12" font-family="Times,serif" font-size="9.00">64173</text>
</g>
<!-- 64173&#45;&gt;0 -->
<g id="edge6" class="edge">
<title>64173&#45;&gt;0</title>
<path fill="none" stroke="green" stroke-width="0.17" stroke-dasharray="1,5" d="M102.72,-162.71C101.54,-154.05 100.23,-144.45 99.04,-135.69"/>
<polygon fill="green" stroke="green" stroke-width="0.17" points="102.48,-134.98 97.66,-125.54 95.54,-135.93 102.48,-134.98"/>
<text text-anchor="middle" x="95.26" y="-150.7" font-family="Times,serif" font-size="5.00">0.333</text>
</g>
<!-- 64174 -->
<g id="node8" class="node">
<title>64174</title>
<ellipse fill="white" stroke="black" cx="166.9" cy="-149.71" rx="27.45" ry="27.45"/>
<text text-anchor="middle" x="166.9" y="-147.01" font-family="Times,serif" font-size="9.00">64174</text>
</g>
<!-- 64174&#45;&gt;0 -->
<g id="edge7" class="edge">
<title>64174&#45;&gt;0</title>
<path fill="none" stroke="green" stroke-width="0.17" stroke-dasharray="1,5" d="M143.4,-135.73C136.04,-131.35 127.89,-126.5 120.42,-122.05"/>
<polygon fill="green" stroke="green" stroke-width="0.17" points="121.8,-118.8 111.42,-116.7 118.22,-124.82 121.8,-118.8"/>
<text text-anchor="middle" x="126.28" y="-130.39" font-family="Times,serif" font-size="5.00">0.333</text>
</g>
<!-- 64172 -->
<g id="node9" class="node">
<title>64172</title>
<ellipse fill="white" stroke="black" cx="37.82" cy="-167.83" rx="27.45" ry="27.45"/>
<text text-anchor="middle" x="37.82" y="-165.13" font-family="Times,serif" font-size="9.00">64172</text>
</g>
<!-- 64172&#45;&gt;0 -->
<g id="edge1" class="edge">
<title>64172&#45;&gt;0</title>
<path fill="none" stroke="red" stroke-width="0.72" d="M56.59,-147.92C62.46,-141.68 68.97,-134.77 74.94,-128.44"/>
<polygon fill="red" stroke="red" stroke-width="0.72" points="77.82,-130.49 82.13,-120.81 72.72,-125.69 77.82,-130.49"/>
<text text-anchor="middle" x="59.31" y="-133.68" font-family="Times,serif" font-size="5.00">&#45;3.124</text>
</g>
<!-- 64175 -->
<g id="node10" class="node">
<title>64175</title>
<ellipse fill="white" stroke="black" cx="47.85" cy="-38.14" rx="27.45" ry="27.45"/>
<text text-anchor="middle" x="47.85" y="-35.44" font-family="Times,serif" font-size="9.00">64175</text>
</g>
<!-- 64175&#45;&gt;0 -->
<g id="edge2" class="edge">
<title>64175&#45;&gt;0</title>
<path fill="none" stroke="red" stroke-width="0.1" d="M63.33,-60.69C68.18,-67.75 73.55,-75.57 78.48,-82.74"/>
<polygon fill="red" stroke="red" stroke-width="0.1" points="75.86,-85.12 84.41,-91.38 81.63,-81.15 75.86,-85.12"/>
<text text-anchor="middle" x="65.28" y="-73.22" font-family="Times,serif" font-size="5.00">0.000</text>
</g>
<!-- 64176 -->
<g id="node11" class="node">
<title>64176</title>
<ellipse fill="white" stroke="black" cx="173.03" cy="-77.05" rx="27.45" ry="27.45"/>
<text text-anchor="middle" x="173.03" y="-74.35" font-family="Times,serif" font-size="9.00">64176</text>
</g>
<!-- 64176&#45;&gt;0 -->
<g id="edge3" class="edge">
<title>64176&#45;&gt;0</title>
<path fill="none" stroke="green" stroke-width="0.72" d="M147.53,-86.86C139.45,-89.96 130.5,-93.41 122.31,-96.56"/>
<polygon fill="green" stroke="green" stroke-width="0.72" points="120.89,-93.35 112.81,-100.21 123.4,-99.89 120.89,-93.35"/>
<text text-anchor="middle" x="129.29" y="-93.21" font-family="Times,serif" font-size="5.00">3.124</text>
</g>
</g>
</svg>
