<?xml version="1.0" encoding="UTF-8" standalone="no"?>
<!DOCTYPE svg PUBLIC "-//W3C//DTD SVG 1.1//EN"
 "http://www.w3.org/Graphics/SVG/1.1/DTD/svg11.dtd">
<!-- Generated by graphviz version 2.47.1 (20210417.1919)
 -->
<!-- Pages: 1 -->
<svg width="339pt" height="323pt"
 viewBox="0.00 0.00 339.41 323.03" xmlns="http://www.w3.org/2000/svg" xmlns:xlink="http://www.w3.org/1999/xlink">
<g id="graph0" class="graph" transform="scale(1 1) rotate(0) translate(4 319.03)">
<polygon fill="white" stroke="transparent" points="-4,4 -4,-319.03 335.41,-319.03 335.41,4 -4,4"/>
<!-- &#45;1 -->
<g id="node1" class="node">
<title>&#45;1</title>
<polygon fill="lightgray" stroke="black" points="23.75,-191.84 -0.25,-191.84 -0.25,-173.24 23.75,-173.24 23.75,-191.84"/>
<text text-anchor="middle" x="11.75" y="-179.84" font-family="Times,serif" font-size="9.00">&#45;1</text>
</g>
<!-- 54308 -->
<g id="node6" class="node">
<title>54308</title>
<ellipse fill="white" stroke="black" cx="88.25" cy="-196.67" rx="27.45" ry="27.45"/>
<text text-anchor="middle" x="88.25" y="-193.97" font-family="Times,serif" font-size="9.00">54308</text>
</g>
<!-- &#45;1&#45;&gt;54308 -->
<g id="edge1" class="edge">
<title>&#45;1&#45;&gt;54308</title>
<path fill="none" stroke="green" stroke-width="0.32" d="M23.7,-184.75C31.2,-186.13 41.32,-188 51.32,-189.85"/>
<polygon fill="green" stroke="green" stroke-width="0.32" points="50.7,-193.29 61.17,-191.67 51.97,-186.41 50.7,-193.29"/>
<text text-anchor="middle" x="31.88" y="-188.8" font-family="Times,serif" font-size="5.00">1.099</text>
</g>
<!-- 67180 -->
<g id="node9" class="node">
<title>67180</title>
<ellipse fill="white" stroke="black" cx="83.36" cy="-149.02" rx="27.42" ry="27.42"/>
<ellipse fill="none" stroke="black" cx="83.36" cy="-149.02" rx="31.45" ry="31.45"/>
<text text-anchor="middle" x="83.36" y="-146.32" font-family="Times,serif" font-size="9.00">67180</text>
</g>
<!-- &#45;1&#45;&gt;67180 -->
<g id="edge4" class="edge">
<title>&#45;1&#45;&gt;67180</title>
<path fill="none" stroke="green" stroke-width="0.45" d="M23.57,-177C29.75,-174.11 37.69,-170.4 45.75,-166.63"/>
<polygon fill="green" stroke="green" stroke-width="0.45" points="47.24,-169.79 54.81,-162.38 44.27,-163.45 47.24,-169.79"/>
<text text-anchor="middle" x="29.04" y="-173.31" font-family="Times,serif" font-size="5.00">1.762</text>
</g>
<!-- &#45;2 -->
<g id="node2" class="node">
<title>&#45;2</title>
<polygon fill="lightgray" stroke="black" points="216.79,-314.93 192.78,-314.93 192.78,-296.33 216.79,-296.33 216.79,-314.93"/>
<text text-anchor="middle" x="204.78" y="-302.93" font-family="Times,serif" font-size="9.00">&#45;2</text>
</g>
<!-- 1623 -->
<g id="node12" class="node">
<title>1623</title>
<ellipse fill="white" stroke="black" cx="145.58" cy="-249.64" rx="24.08" ry="24.08"/>
<text text-anchor="middle" x="145.58" y="-246.94" font-family="Times,serif" font-size="9.00">1623</text>
</g>
<!-- &#45;2&#45;&gt;1623 -->
<g id="edge10" class="edge">
<title>&#45;2&#45;&gt;1623</title>
<path fill="none" stroke="red" stroke-width="0.25" d="M194.74,-296.13C188.18,-289.92 179.28,-281.51 170.87,-273.55"/>
<polygon fill="red" stroke="red" stroke-width="0.25" points="173.02,-270.78 163.35,-266.45 168.21,-275.86 173.02,-270.78"/>
<text text-anchor="middle" x="176.35" y="-286.34" font-family="Times,serif" font-size="5.00">&#45;0.768</text>
</g>
<!-- 67181 -->
<g id="node13" class="node">
<title>67181</title>
<ellipse fill="white" stroke="black" cx="229.36" cy="-228.63" rx="27.45" ry="27.45"/>
<text text-anchor="middle" x="229.36" y="-225.93" font-family="Times,serif" font-size="9.00">67181</text>
</g>
<!-- &#45;2&#45;&gt;67181 -->
<g id="edge11" class="edge">
<title>&#45;2&#45;&gt;67181</title>
<path fill="none" stroke="red" stroke-width="0.25" d="M207.8,-296.19C210.36,-288.15 214.21,-276.09 217.95,-264.37"/>
<polygon fill="red" stroke="red" stroke-width="0.25" points="221.33,-265.29 221.04,-254.7 214.66,-263.16 221.33,-265.29"/>
<text text-anchor="middle" x="206.42" y="-281.78" font-family="Times,serif" font-size="5.00">&#45;0.768</text>
</g>
<!-- 67182 -->
<g id="node14" class="node">
<title>67182</title>
<ellipse fill="white" stroke="black" cx="186.35" cy="-236.89" rx="27.45" ry="27.45"/>
<text text-anchor="middle" x="186.35" y="-234.19" font-family="Times,serif" font-size="9.00">67182</text>
</g>
<!-- &#45;2&#45;&gt;67182 -->
<g id="edge12" class="edge">
<title>&#45;2&#45;&gt;67182</title>
<path fill="none" stroke="red" stroke-width="0.25" d="M202.22,-296.07C200.59,-289.97 198.35,-281.64 196.08,-273.16"/>
<polygon fill="red" stroke="red" stroke-width="0.25" points="199.39,-272 193.42,-263.25 192.63,-273.82 199.39,-272"/>
<text text-anchor="middle" x="192.69" y="-286.11" font-family="Times,serif" font-size="5.00">&#45;0.768</text>
</g>
<!-- &#45;3 -->
<g id="node3" class="node">
<title>&#45;3</title>
<polygon fill="lightgray" stroke="black" points="146.26,-18.7 122.25,-18.7 122.25,-0.1 146.26,-0.1 146.26,-18.7"/>
<text text-anchor="middle" x="134.26" y="-6.7" font-family="Times,serif" font-size="9.00">&#45;3</text>
</g>
<!-- 67183 -->
<g id="node7" class="node">
<title>67183</title>
<ellipse fill="white" stroke="black" cx="127" cy="-87.71" rx="27.45" ry="27.45"/>
<text text-anchor="middle" x="127" y="-85.01" font-family="Times,serif" font-size="9.00">67183</text>
</g>
<!-- &#45;3&#45;&gt;67183 -->
<g id="edge2" class="edge">
<title>&#45;3&#45;&gt;67183</title>
<path fill="none" stroke="green" stroke-width="0.32" d="M133.37,-19C132.63,-26.96 131.53,-38.82 130.45,-50.45"/>
<polygon fill="green" stroke="green" stroke-width="0.32" points="126.96,-50.24 129.52,-60.52 133.93,-50.88 126.96,-50.24"/>
<text text-anchor="middle" x="126.28" y="-36.23" font-family="Times,serif" font-size="5.00">1.099</text>
</g>
<!-- 67185 -->
<g id="node10" class="node">
<title>67185</title>
<ellipse fill="white" stroke="black" cx="173.64" cy="-77.16" rx="27.42" ry="27.42"/>
<ellipse fill="none" stroke="black" cx="173.64" cy="-77.16" rx="31.45" ry="31.45"/>
<text text-anchor="middle" x="173.64" y="-74.46" font-family="Times,serif" font-size="9.00">67185</text>
</g>
<!-- &#45;3&#45;&gt;67185 -->
<g id="edge6" class="edge">
<title>&#45;3&#45;&gt;67185</title>
<path fill="none" stroke="green" stroke-width="0.45" d="M139.73,-18.82C143.21,-24.81 147.97,-32.99 152.81,-41.33"/>
<polygon fill="green" stroke="green" stroke-width="0.45" points="149.79,-43.1 157.84,-49.99 155.84,-39.58 149.79,-43.1"/>
<text text-anchor="middle" x="140.65" y="-31.57" font-family="Times,serif" font-size="5.00">1.762</text>
</g>
<!-- &#45;4 -->
<g id="node4" class="node">
<title>&#45;4</title>
<polygon fill="lightgray" stroke="black" points="331.66,-121.67 307.66,-121.67 307.66,-103.07 331.66,-103.07 331.66,-121.67"/>
<text text-anchor="middle" x="319.66" y="-109.67" font-family="Times,serif" font-size="9.00">&#45;4</text>
</g>
<!-- 67184 -->
<g id="node8" class="node">
<title>67184</title>
<ellipse fill="white" stroke="black" cx="256.18" cy="-156.79" rx="27.45" ry="27.45"/>
<text text-anchor="middle" x="256.18" y="-154.09" font-family="Times,serif" font-size="9.00">67184</text>
</g>
<!-- &#45;4&#45;&gt;67184 -->
<g id="edge3" class="edge">
<title>&#45;4&#45;&gt;67184</title>
<path fill="none" stroke="green" stroke-width="0.32" d="M307.72,-120.73C301.83,-124.84 294.44,-130.02 287.1,-135.16"/>
<polygon fill="green" stroke="green" stroke-width="0.32" points="284.79,-132.5 278.6,-141.1 288.8,-138.24 284.79,-132.5"/>
<text text-anchor="middle" x="291.78" y="-129.44" font-family="Times,serif" font-size="5.00">1.099</text>
</g>
<!-- 67186 -->
<g id="node11" class="node">
<title>67186</title>
<ellipse fill="white" stroke="black" cx="240.14" cy="-111.88" rx="27.42" ry="27.42"/>
<ellipse fill="none" stroke="black" cx="240.14" cy="-111.88" rx="31.45" ry="31.45"/>
<text text-anchor="middle" x="240.14" y="-109.18" font-family="Times,serif" font-size="9.00">67186</text>
</g>
<!-- &#45;4&#45;&gt;67186 -->
<g id="edge8" class="edge">
<title>&#45;4&#45;&gt;67186</title>
<path fill="none" stroke="green" stroke-width="0.45" d="M307.58,-112.3C300.56,-112.25 291.26,-112.19 281.81,-112.14"/>
<polygon fill="green" stroke="green" stroke-width="0.45" points="281.62,-108.63 271.6,-112.07 281.58,-115.63 281.62,-108.63"/>
<text text-anchor="middle" x="289.07" y="-113.72" font-family="Times,serif" font-size="5.00">1.762</text>
</g>
<!-- 0 -->
<g id="node5" class="node">
<title>0</title>
<ellipse fill="lightblue" stroke="black" cx="169" cy="-162.54" rx="14.49" ry="14.49"/>
<ellipse fill="none" stroke="black" cx="169" cy="-162.54" rx="18.49" ry="18.49"/>
<text text-anchor="middle" x="169" y="-159.84" font-family="Times,serif" font-size="9.00">0</text>
</g>
<!-- 54308&#45;&gt;0 -->
<g id="edge19" class="edge">
<title>54308&#45;&gt;0</title>
<path fill="none" stroke="green" stroke-width="0.17" stroke-dasharray="1,5" d="M113.36,-186.06C122.63,-182.14 133.17,-177.68 142.56,-173.71"/>
<polygon fill="green" stroke="green" stroke-width="0.17" points="143.99,-176.91 151.84,-169.8 141.26,-170.46 143.99,-176.91"/>
<text text-anchor="middle" x="122.34" y="-181.38" font-family="Times,serif" font-size="5.00">0.333</text>
</g>
<!-- 54308&#45;&gt;67180 -->
<g id="edge5" class="edge">
<title>54308&#45;&gt;67180</title>
<path fill="none" stroke="green" stroke-width="0.3" stroke-dasharray="1,5" d="M85.46,-169.51C85.45,-169.42 85.44,-169.34 85.44,-169.25"/>
<polygon fill="green" stroke="green" stroke-width="0.3" points="89.92,-178.59 85.41,-169 82.95,-179.31 89.92,-178.59"/>
<text text-anchor="middle" x="79.82" y="-164.88" font-family="Times,serif" font-size="5.00">1.000</text>
</g>
<!-- 67183&#45;&gt;0 -->
<g id="edge20" class="edge">
<title>67183&#45;&gt;0</title>
<path fill="none" stroke="green" stroke-width="0.17" stroke-dasharray="1,5" d="M140.52,-111.8C145.12,-120 150.27,-129.17 154.91,-137.45"/>
<polygon fill="green" stroke="green" stroke-width="0.17" points="151.94,-139.29 159.88,-146.3 158.04,-135.87 151.94,-139.29"/>
<text text-anchor="middle" x="142.09" y="-126.12" font-family="Times,serif" font-size="5.00">0.333</text>
</g>
<!-- 67183&#45;&gt;67185 -->
<g id="edge7" class="edge">
<title>67183&#45;&gt;67185</title>
<path fill="none" stroke="green" stroke-width="0.3" stroke-dasharray="1,5" d="M153.59,-81.7C153.67,-81.68 153.75,-81.66 153.83,-81.64"/>
<polygon fill="green" stroke="green" stroke-width="0.3" points="145.1,-87.21 154.08,-81.59 143.55,-80.38 145.1,-87.21"/>
<text text-anchor="middle" x="148.09" y="-83.17" font-family="Times,serif" font-size="5.00">1.000</text>
</g>
<!-- 67184&#45;&gt;0 -->
<g id="edge21" class="edge">
<title>67184&#45;&gt;0</title>
<path fill="none" stroke="green" stroke-width="0.17" stroke-dasharray="1,5" d="M228.59,-158.61C218.78,-159.26 207.7,-159.99 197.78,-160.64"/>
<polygon fill="green" stroke="green" stroke-width="0.17" points="197.34,-157.16 187.59,-161.32 197.8,-164.15 197.34,-157.16"/>
<text text-anchor="middle" x="207.56" y="-161.13" font-family="Times,serif" font-size="5.00">0.333</text>
</g>
<!-- 67184&#45;&gt;67186 -->
<g id="edge9" class="edge">
<title>67184&#45;&gt;67186</title>
<path fill="none" stroke="green" stroke-width="0.3" stroke-dasharray="1,5" d="M246.94,-130.92C246.91,-130.85 246.88,-130.77 246.86,-130.69"/>
<polygon fill="green" stroke="green" stroke-width="0.3" points="253.44,-138.7 246.77,-130.46 246.84,-141.05 253.44,-138.7"/>
<text text-anchor="middle" x="241.27" y="-132.31" font-family="Times,serif" font-size="5.00">1.000</text>
</g>
<!-- 67180&#45;&gt;0 -->
<g id="edge13" class="edge">
<title>67180&#45;&gt;0</title>
<path fill="none" stroke="green" stroke-width="0.66" d="M114.28,-153.9C122.83,-155.26 132.08,-156.71 140.49,-158.04"/>
<polygon fill="green" stroke="green" stroke-width="0.66" points="140.16,-161.53 150.59,-159.64 141.26,-154.62 140.16,-161.53"/>
<text text-anchor="middle" x="121.76" y="-157.47" font-family="Times,serif" font-size="5.00">2.791</text>
</g>
<!-- 67185&#45;&gt;0 -->
<g id="edge14" class="edge">
<title>67185&#45;&gt;0</title>
<path fill="none" stroke="green" stroke-width="0.66" d="M171.94,-108.47C171.49,-116.68 171.01,-125.49 170.57,-133.57"/>
<polygon fill="green" stroke="green" stroke-width="0.66" points="167.07,-133.48 170.03,-143.65 174.06,-133.86 167.07,-133.48"/>
<text text-anchor="middle" x="165.63" y="-122.52" font-family="Times,serif" font-size="5.00">2.791</text>
</g>
<!-- 67186&#45;&gt;0 -->
<g id="edge15" class="edge">
<title>67186&#45;&gt;0</title>
<path fill="none" stroke="green" stroke-width="0.66" d="M214.45,-130.17C207.29,-135.27 199.55,-140.79 192.51,-145.79"/>
<polygon fill="green" stroke="green" stroke-width="0.66" points="190.2,-143.15 184.09,-151.8 194.26,-148.85 190.2,-143.15"/>
<text text-anchor="middle" x="197.86" y="-139.48" font-family="Times,serif" font-size="5.00">2.791</text>
</g>
<!-- 1623&#45;&gt;0 -->
<g id="edge16" class="edge">
<title>1623&#45;&gt;0</title>
<path fill="none" stroke="green" stroke-width="0.17" stroke-dasharray="1,5" d="M151.86,-226.3C154.85,-215.16 158.46,-201.74 161.59,-190.1"/>
<polygon fill="green" stroke="green" stroke-width="0.17" points="164.98,-190.99 164.19,-180.42 158.22,-189.17 164.98,-190.99"/>
<text text-anchor="middle" x="151.1" y="-209.7" font-family="Times,serif" font-size="5.00">0.333</text>
</g>
<!-- 67181&#45;&gt;0 -->
<g id="edge17" class="edge">
<title>67181&#45;&gt;0</title>
<path fill="none" stroke="green" stroke-width="0.17" stroke-dasharray="1,5" d="M210.92,-208.44C203.85,-200.7 195.76,-191.84 188.58,-183.98"/>
<polygon fill="green" stroke="green" stroke-width="0.17" points="191.11,-181.56 181.78,-176.54 185.94,-186.28 191.11,-181.56"/>
<text text-anchor="middle" x="194.13" y="-197.71" font-family="Times,serif" font-size="5.00">0.333</text>
</g>
<!-- 67182&#45;&gt;0 -->
<g id="edge18" class="edge">
<title>67182&#45;&gt;0</title>
<path fill="none" stroke="green" stroke-width="0.17" stroke-dasharray="1,5" d="M180.08,-210.05C178.64,-203.87 177.1,-197.27 175.64,-191.02"/>
<polygon fill="green" stroke="green" stroke-width="0.17" points="178.98,-189.91 173.3,-180.97 172.16,-191.5 178.98,-189.91"/>
<text text-anchor="middle" x="172.24" y="-202.04" font-family="Times,serif" font-size="5.00">0.333</text>
</g>
</g>
</svg>
