<?xml version="1.0" encoding="utf-8" standalone="no"?>
<!DOCTYPE svg PUBLIC "-//W3C//DTD SVG 1.1//EN"
  "http://www.w3.org/Graphics/SVG/1.1/DTD/svg11.dtd">
<!-- Created with matplotlib (https://matplotlib.org/) -->
<svg height="345.6pt" version="1.1" viewBox="0 0 460.8 345.6" width="460.8pt" xmlns="http://www.w3.org/2000/svg" xmlns:xlink="http://www.w3.org/1999/xlink">
 <metadata>
  <rdf:RDF xmlns:cc="http://creativecommons.org/ns#" xmlns:dc="http://purl.org/dc/elements/1.1/" xmlns:rdf="http://www.w3.org/1999/02/22-rdf-syntax-ns#">
   <cc:Work>
    <dc:type rdf:resource="http://purl.org/dc/dcmitype/StillImage"/>
    <dc:date>2021-06-16T01:03:21.627095</dc:date>
    <dc:format>image/svg+xml</dc:format>
    <dc:creator>
     <cc:Agent>
      <dc:title>Matplotlib v3.3.0, https://matplotlib.org/</dc:title>
     </cc:Agent>
    </dc:creator>
   </cc:Work>
  </rdf:RDF>
 </metadata>
 <defs>
  <style type="text/css">*{stroke-linecap:butt;stroke-linejoin:round;}</style>
 </defs>
 <g id="figure_1">
  <g id="patch_1">
   <path d="M 0 345.6 
L 460.8 345.6 
L 460.8 0 
L 0 0 
z
" style="fill:#ffffff;"/>
  </g>
  <g id="axes_1">
   <g id="patch_2">
    <path d="M 57.6 307.584 
L 414.72 307.584 
L 414.72 41.472 
L 57.6 41.472 
z
" style="fill:#ffffff;"/>
   </g>
   <g id="matplotlib.axis_1">
    <g id="xtick_1">
     <g id="line2d_1">
      <path clip-path="url(#pbf36a7d8fa)" d="M 73.832727 307.584 
L 73.832727 41.472 
" style="fill:none;stroke:#b0b0b0;stroke-linecap:square;stroke-width:0.8;"/>
     </g>
     <g id="line2d_2">
      <defs>
       <path d="M 0 0 
L 0 3.5 
" id="ma0cb5bc6d7" style="stroke:#000000;stroke-width:0.8;"/>
      </defs>
      <g>
       <use style="stroke:#000000;stroke-width:0.8;" x="73.832727" xlink:href="#ma0cb5bc6d7" y="307.584"/>
      </g>
     </g>
     <g id="text_1">
      <!-- 0 -->
      <g transform="translate(70.651477 322.182437)scale(0.1 -0.1)">
       <defs>
        <path d="M 31.78125 66.40625 
Q 24.171875 66.40625 20.328125 58.90625 
Q 16.5 51.421875 16.5 36.375 
Q 16.5 21.390625 20.328125 13.890625 
Q 24.171875 6.390625 31.78125 6.390625 
Q 39.453125 6.390625 43.28125 13.890625 
Q 47.125 21.390625 47.125 36.375 
Q 47.125 51.421875 43.28125 58.90625 
Q 39.453125 66.40625 31.78125 66.40625 
z
M 31.78125 74.21875 
Q 44.046875 74.21875 50.515625 64.515625 
Q 56.984375 54.828125 56.984375 36.375 
Q 56.984375 17.96875 50.515625 8.265625 
Q 44.046875 -1.421875 31.78125 -1.421875 
Q 19.53125 -1.421875 13.0625 8.265625 
Q 6.59375 17.96875 6.59375 36.375 
Q 6.59375 54.828125 13.0625 64.515625 
Q 19.53125 74.21875 31.78125 74.21875 
z
" id="DejaVuSans-48"/>
       </defs>
       <use xlink:href="#DejaVuSans-48"/>
      </g>
     </g>
    </g>
    <g id="xtick_2">
     <g id="line2d_3">
      <path clip-path="url(#pbf36a7d8fa)" d="M 114.824463 307.584 
L 114.824463 41.472 
" style="fill:none;stroke:#b0b0b0;stroke-linecap:square;stroke-width:0.8;"/>
     </g>
     <g id="line2d_4">
      <g>
       <use style="stroke:#000000;stroke-width:0.8;" x="114.824463" xlink:href="#ma0cb5bc6d7" y="307.584"/>
      </g>
     </g>
     <g id="text_2">
      <!-- 50 -->
      <g transform="translate(108.461963 322.182437)scale(0.1 -0.1)">
       <defs>
        <path d="M 10.796875 72.90625 
L 49.515625 72.90625 
L 49.515625 64.59375 
L 19.828125 64.59375 
L 19.828125 46.734375 
Q 21.96875 47.46875 24.109375 47.828125 
Q 26.265625 48.1875 28.421875 48.1875 
Q 40.625 48.1875 47.75 41.5 
Q 54.890625 34.8125 54.890625 23.390625 
Q 54.890625 11.625 47.5625 5.09375 
Q 40.234375 -1.421875 26.90625 -1.421875 
Q 22.3125 -1.421875 17.546875 -0.640625 
Q 12.796875 0.140625 7.71875 1.703125 
L 7.71875 11.625 
Q 12.109375 9.234375 16.796875 8.0625 
Q 21.484375 6.890625 26.703125 6.890625 
Q 35.15625 6.890625 40.078125 11.328125 
Q 45.015625 15.765625 45.015625 23.390625 
Q 45.015625 31 40.078125 35.4375 
Q 35.15625 39.890625 26.703125 39.890625 
Q 22.75 39.890625 18.8125 39.015625 
Q 14.890625 38.140625 10.796875 36.28125 
z
" id="DejaVuSans-53"/>
       </defs>
       <use xlink:href="#DejaVuSans-53"/>
       <use x="63.623047" xlink:href="#DejaVuSans-48"/>
      </g>
     </g>
    </g>
    <g id="xtick_3">
     <g id="line2d_5">
      <path clip-path="url(#pbf36a7d8fa)" d="M 155.816198 307.584 
L 155.816198 41.472 
" style="fill:none;stroke:#b0b0b0;stroke-linecap:square;stroke-width:0.8;"/>
     </g>
     <g id="line2d_6">
      <g>
       <use style="stroke:#000000;stroke-width:0.8;" x="155.816198" xlink:href="#ma0cb5bc6d7" y="307.584"/>
      </g>
     </g>
     <g id="text_3">
      <!-- 100 -->
      <g transform="translate(146.272448 322.182437)scale(0.1 -0.1)">
       <defs>
        <path d="M 12.40625 8.296875 
L 28.515625 8.296875 
L 28.515625 63.921875 
L 10.984375 60.40625 
L 10.984375 69.390625 
L 28.421875 72.90625 
L 38.28125 72.90625 
L 38.28125 8.296875 
L 54.390625 8.296875 
L 54.390625 0 
L 12.40625 0 
z
" id="DejaVuSans-49"/>
       </defs>
       <use xlink:href="#DejaVuSans-49"/>
       <use x="63.623047" xlink:href="#DejaVuSans-48"/>
       <use x="127.246094" xlink:href="#DejaVuSans-48"/>
      </g>
     </g>
    </g>
    <g id="xtick_4">
     <g id="line2d_7">
      <path clip-path="url(#pbf36a7d8fa)" d="M 196.807934 307.584 
L 196.807934 41.472 
" style="fill:none;stroke:#b0b0b0;stroke-linecap:square;stroke-width:0.8;"/>
     </g>
     <g id="line2d_8">
      <g>
       <use style="stroke:#000000;stroke-width:0.8;" x="196.807934" xlink:href="#ma0cb5bc6d7" y="307.584"/>
      </g>
     </g>
     <g id="text_4">
      <!-- 150 -->
      <g transform="translate(187.264184 322.182437)scale(0.1 -0.1)">
       <use xlink:href="#DejaVuSans-49"/>
       <use x="63.623047" xlink:href="#DejaVuSans-53"/>
       <use x="127.246094" xlink:href="#DejaVuSans-48"/>
      </g>
     </g>
    </g>
    <g id="xtick_5">
     <g id="line2d_9">
      <path clip-path="url(#pbf36a7d8fa)" d="M 237.799669 307.584 
L 237.799669 41.472 
" style="fill:none;stroke:#b0b0b0;stroke-linecap:square;stroke-width:0.8;"/>
     </g>
     <g id="line2d_10">
      <g>
       <use style="stroke:#000000;stroke-width:0.8;" x="237.799669" xlink:href="#ma0cb5bc6d7" y="307.584"/>
      </g>
     </g>
     <g id="text_5">
      <!-- 200 -->
      <g transform="translate(228.255919 322.182437)scale(0.1 -0.1)">
       <defs>
        <path d="M 19.1875 8.296875 
L 53.609375 8.296875 
L 53.609375 0 
L 7.328125 0 
L 7.328125 8.296875 
Q 12.9375 14.109375 22.625 23.890625 
Q 32.328125 33.6875 34.8125 36.53125 
Q 39.546875 41.84375 41.421875 45.53125 
Q 43.3125 49.21875 43.3125 52.78125 
Q 43.3125 58.59375 39.234375 62.25 
Q 35.15625 65.921875 28.609375 65.921875 
Q 23.96875 65.921875 18.8125 64.3125 
Q 13.671875 62.703125 7.8125 59.421875 
L 7.8125 69.390625 
Q 13.765625 71.78125 18.9375 73 
Q 24.125 74.21875 28.421875 74.21875 
Q 39.75 74.21875 46.484375 68.546875 
Q 53.21875 62.890625 53.21875 53.421875 
Q 53.21875 48.921875 51.53125 44.890625 
Q 49.859375 40.875 45.40625 35.40625 
Q 44.1875 33.984375 37.640625 27.21875 
Q 31.109375 20.453125 19.1875 8.296875 
z
" id="DejaVuSans-50"/>
       </defs>
       <use xlink:href="#DejaVuSans-50"/>
       <use x="63.623047" xlink:href="#DejaVuSans-48"/>
       <use x="127.246094" xlink:href="#DejaVuSans-48"/>
      </g>
     </g>
    </g>
    <g id="xtick_6">
     <g id="line2d_11">
      <path clip-path="url(#pbf36a7d8fa)" d="M 278.791405 307.584 
L 278.791405 41.472 
" style="fill:none;stroke:#b0b0b0;stroke-linecap:square;stroke-width:0.8;"/>
     </g>
     <g id="line2d_12">
      <g>
       <use style="stroke:#000000;stroke-width:0.8;" x="278.791405" xlink:href="#ma0cb5bc6d7" y="307.584"/>
      </g>
     </g>
     <g id="text_6">
      <!-- 250 -->
      <g transform="translate(269.247655 322.182437)scale(0.1 -0.1)">
       <use xlink:href="#DejaVuSans-50"/>
       <use x="63.623047" xlink:href="#DejaVuSans-53"/>
       <use x="127.246094" xlink:href="#DejaVuSans-48"/>
      </g>
     </g>
    </g>
    <g id="xtick_7">
     <g id="line2d_13">
      <path clip-path="url(#pbf36a7d8fa)" d="M 319.78314 307.584 
L 319.78314 41.472 
" style="fill:none;stroke:#b0b0b0;stroke-linecap:square;stroke-width:0.8;"/>
     </g>
     <g id="line2d_14">
      <g>
       <use style="stroke:#000000;stroke-width:0.8;" x="319.78314" xlink:href="#ma0cb5bc6d7" y="307.584"/>
      </g>
     </g>
     <g id="text_7">
      <!-- 300 -->
      <g transform="translate(310.23939 322.182437)scale(0.1 -0.1)">
       <defs>
        <path d="M 40.578125 39.3125 
Q 47.65625 37.796875 51.625 33 
Q 55.609375 28.21875 55.609375 21.1875 
Q 55.609375 10.40625 48.1875 4.484375 
Q 40.765625 -1.421875 27.09375 -1.421875 
Q 22.515625 -1.421875 17.65625 -0.515625 
Q 12.796875 0.390625 7.625 2.203125 
L 7.625 11.71875 
Q 11.71875 9.328125 16.59375 8.109375 
Q 21.484375 6.890625 26.8125 6.890625 
Q 36.078125 6.890625 40.9375 10.546875 
Q 45.796875 14.203125 45.796875 21.1875 
Q 45.796875 27.640625 41.28125 31.265625 
Q 36.765625 34.90625 28.71875 34.90625 
L 20.21875 34.90625 
L 20.21875 43.015625 
L 29.109375 43.015625 
Q 36.375 43.015625 40.234375 45.921875 
Q 44.09375 48.828125 44.09375 54.296875 
Q 44.09375 59.90625 40.109375 62.90625 
Q 36.140625 65.921875 28.71875 65.921875 
Q 24.65625 65.921875 20.015625 65.03125 
Q 15.375 64.15625 9.8125 62.3125 
L 9.8125 71.09375 
Q 15.4375 72.65625 20.34375 73.4375 
Q 25.25 74.21875 29.59375 74.21875 
Q 40.828125 74.21875 47.359375 69.109375 
Q 53.90625 64.015625 53.90625 55.328125 
Q 53.90625 49.265625 50.4375 45.09375 
Q 46.96875 40.921875 40.578125 39.3125 
z
" id="DejaVuSans-51"/>
       </defs>
       <use xlink:href="#DejaVuSans-51"/>
       <use x="63.623047" xlink:href="#DejaVuSans-48"/>
       <use x="127.246094" xlink:href="#DejaVuSans-48"/>
      </g>
     </g>
    </g>
    <g id="xtick_8">
     <g id="line2d_15">
      <path clip-path="url(#pbf36a7d8fa)" d="M 360.774876 307.584 
L 360.774876 41.472 
" style="fill:none;stroke:#b0b0b0;stroke-linecap:square;stroke-width:0.8;"/>
     </g>
     <g id="line2d_16">
      <g>
       <use style="stroke:#000000;stroke-width:0.8;" x="360.774876" xlink:href="#ma0cb5bc6d7" y="307.584"/>
      </g>
     </g>
     <g id="text_8">
      <!-- 350 -->
      <g transform="translate(351.231126 322.182437)scale(0.1 -0.1)">
       <use xlink:href="#DejaVuSans-51"/>
       <use x="63.623047" xlink:href="#DejaVuSans-53"/>
       <use x="127.246094" xlink:href="#DejaVuSans-48"/>
      </g>
     </g>
    </g>
    <g id="xtick_9">
     <g id="line2d_17">
      <path clip-path="url(#pbf36a7d8fa)" d="M 401.766612 307.584 
L 401.766612 41.472 
" style="fill:none;stroke:#b0b0b0;stroke-linecap:square;stroke-width:0.8;"/>
     </g>
     <g id="line2d_18">
      <g>
       <use style="stroke:#000000;stroke-width:0.8;" x="401.766612" xlink:href="#ma0cb5bc6d7" y="307.584"/>
      </g>
     </g>
     <g id="text_9">
      <!-- 400 -->
      <g transform="translate(392.222862 322.182437)scale(0.1 -0.1)">
       <defs>
        <path d="M 37.796875 64.3125 
L 12.890625 25.390625 
L 37.796875 25.390625 
z
M 35.203125 72.90625 
L 47.609375 72.90625 
L 47.609375 25.390625 
L 58.015625 25.390625 
L 58.015625 17.1875 
L 47.609375 17.1875 
L 47.609375 0 
L 37.796875 0 
L 37.796875 17.1875 
L 4.890625 17.1875 
L 4.890625 26.703125 
z
" id="DejaVuSans-52"/>
       </defs>
       <use xlink:href="#DejaVuSans-52"/>
       <use x="63.623047" xlink:href="#DejaVuSans-48"/>
       <use x="127.246094" xlink:href="#DejaVuSans-48"/>
      </g>
     </g>
    </g>
    <g id="text_10">
     <!-- Generations -->
     <g transform="translate(205.662344 335.860562)scale(0.1 -0.1)">
      <defs>
       <path d="M 59.515625 10.40625 
L 59.515625 29.984375 
L 43.40625 29.984375 
L 43.40625 38.09375 
L 69.28125 38.09375 
L 69.28125 6.78125 
Q 63.578125 2.734375 56.6875 0.65625 
Q 49.8125 -1.421875 42 -1.421875 
Q 24.90625 -1.421875 15.25 8.5625 
Q 5.609375 18.5625 5.609375 36.375 
Q 5.609375 54.25 15.25 64.234375 
Q 24.90625 74.21875 42 74.21875 
Q 49.125 74.21875 55.546875 72.453125 
Q 61.96875 70.703125 67.390625 67.28125 
L 67.390625 56.78125 
Q 61.921875 61.421875 55.765625 63.765625 
Q 49.609375 66.109375 42.828125 66.109375 
Q 29.4375 66.109375 22.71875 58.640625 
Q 16.015625 51.171875 16.015625 36.375 
Q 16.015625 21.625 22.71875 14.15625 
Q 29.4375 6.6875 42.828125 6.6875 
Q 48.046875 6.6875 52.140625 7.59375 
Q 56.25 8.5 59.515625 10.40625 
z
" id="DejaVuSans-71"/>
       <path d="M 56.203125 29.59375 
L 56.203125 25.203125 
L 14.890625 25.203125 
Q 15.484375 15.921875 20.484375 11.0625 
Q 25.484375 6.203125 34.421875 6.203125 
Q 39.59375 6.203125 44.453125 7.46875 
Q 49.3125 8.734375 54.109375 11.28125 
L 54.109375 2.78125 
Q 49.265625 0.734375 44.1875 -0.34375 
Q 39.109375 -1.421875 33.890625 -1.421875 
Q 20.796875 -1.421875 13.15625 6.1875 
Q 5.515625 13.8125 5.515625 26.8125 
Q 5.515625 40.234375 12.765625 48.109375 
Q 20.015625 56 32.328125 56 
Q 43.359375 56 49.78125 48.890625 
Q 56.203125 41.796875 56.203125 29.59375 
z
M 47.21875 32.234375 
Q 47.125 39.59375 43.09375 43.984375 
Q 39.0625 48.390625 32.421875 48.390625 
Q 24.90625 48.390625 20.390625 44.140625 
Q 15.875 39.890625 15.1875 32.171875 
z
" id="DejaVuSans-101"/>
       <path d="M 54.890625 33.015625 
L 54.890625 0 
L 45.90625 0 
L 45.90625 32.71875 
Q 45.90625 40.484375 42.875 44.328125 
Q 39.84375 48.1875 33.796875 48.1875 
Q 26.515625 48.1875 22.3125 43.546875 
Q 18.109375 38.921875 18.109375 30.90625 
L 18.109375 0 
L 9.078125 0 
L 9.078125 54.6875 
L 18.109375 54.6875 
L 18.109375 46.1875 
Q 21.34375 51.125 25.703125 53.5625 
Q 30.078125 56 35.796875 56 
Q 45.21875 56 50.046875 50.171875 
Q 54.890625 44.34375 54.890625 33.015625 
z
" id="DejaVuSans-110"/>
       <path d="M 41.109375 46.296875 
Q 39.59375 47.171875 37.8125 47.578125 
Q 36.03125 48 33.890625 48 
Q 26.265625 48 22.1875 43.046875 
Q 18.109375 38.09375 18.109375 28.8125 
L 18.109375 0 
L 9.078125 0 
L 9.078125 54.6875 
L 18.109375 54.6875 
L 18.109375 46.1875 
Q 20.953125 51.171875 25.484375 53.578125 
Q 30.03125 56 36.53125 56 
Q 37.453125 56 38.578125 55.875 
Q 39.703125 55.765625 41.0625 55.515625 
z
" id="DejaVuSans-114"/>
       <path d="M 34.28125 27.484375 
Q 23.390625 27.484375 19.1875 25 
Q 14.984375 22.515625 14.984375 16.5 
Q 14.984375 11.71875 18.140625 8.90625 
Q 21.296875 6.109375 26.703125 6.109375 
Q 34.1875 6.109375 38.703125 11.40625 
Q 43.21875 16.703125 43.21875 25.484375 
L 43.21875 27.484375 
z
M 52.203125 31.203125 
L 52.203125 0 
L 43.21875 0 
L 43.21875 8.296875 
Q 40.140625 3.328125 35.546875 0.953125 
Q 30.953125 -1.421875 24.3125 -1.421875 
Q 15.921875 -1.421875 10.953125 3.296875 
Q 6 8.015625 6 15.921875 
Q 6 25.140625 12.171875 29.828125 
Q 18.359375 34.515625 30.609375 34.515625 
L 43.21875 34.515625 
L 43.21875 35.40625 
Q 43.21875 41.609375 39.140625 45 
Q 35.0625 48.390625 27.6875 48.390625 
Q 23 48.390625 18.546875 47.265625 
Q 14.109375 46.140625 10.015625 43.890625 
L 10.015625 52.203125 
Q 14.9375 54.109375 19.578125 55.046875 
Q 24.21875 56 28.609375 56 
Q 40.484375 56 46.34375 49.84375 
Q 52.203125 43.703125 52.203125 31.203125 
z
" id="DejaVuSans-97"/>
       <path d="M 18.3125 70.21875 
L 18.3125 54.6875 
L 36.8125 54.6875 
L 36.8125 47.703125 
L 18.3125 47.703125 
L 18.3125 18.015625 
Q 18.3125 11.328125 20.140625 9.421875 
Q 21.96875 7.515625 27.59375 7.515625 
L 36.8125 7.515625 
L 36.8125 0 
L 27.59375 0 
Q 17.1875 0 13.234375 3.875 
Q 9.28125 7.765625 9.28125 18.015625 
L 9.28125 47.703125 
L 2.6875 47.703125 
L 2.6875 54.6875 
L 9.28125 54.6875 
L 9.28125 70.21875 
z
" id="DejaVuSans-116"/>
       <path d="M 9.421875 54.6875 
L 18.40625 54.6875 
L 18.40625 0 
L 9.421875 0 
z
M 9.421875 75.984375 
L 18.40625 75.984375 
L 18.40625 64.59375 
L 9.421875 64.59375 
z
" id="DejaVuSans-105"/>
       <path d="M 30.609375 48.390625 
Q 23.390625 48.390625 19.1875 42.75 
Q 14.984375 37.109375 14.984375 27.296875 
Q 14.984375 17.484375 19.15625 11.84375 
Q 23.34375 6.203125 30.609375 6.203125 
Q 37.796875 6.203125 41.984375 11.859375 
Q 46.1875 17.53125 46.1875 27.296875 
Q 46.1875 37.015625 41.984375 42.703125 
Q 37.796875 48.390625 30.609375 48.390625 
z
M 30.609375 56 
Q 42.328125 56 49.015625 48.375 
Q 55.71875 40.765625 55.71875 27.296875 
Q 55.71875 13.875 49.015625 6.21875 
Q 42.328125 -1.421875 30.609375 -1.421875 
Q 18.84375 -1.421875 12.171875 6.21875 
Q 5.515625 13.875 5.515625 27.296875 
Q 5.515625 40.765625 12.171875 48.375 
Q 18.84375 56 30.609375 56 
z
" id="DejaVuSans-111"/>
       <path d="M 44.28125 53.078125 
L 44.28125 44.578125 
Q 40.484375 46.53125 36.375 47.5 
Q 32.28125 48.484375 27.875 48.484375 
Q 21.1875 48.484375 17.84375 46.4375 
Q 14.5 44.390625 14.5 40.28125 
Q 14.5 37.15625 16.890625 35.375 
Q 19.28125 33.59375 26.515625 31.984375 
L 29.59375 31.296875 
Q 39.15625 29.25 43.1875 25.515625 
Q 47.21875 21.78125 47.21875 15.09375 
Q 47.21875 7.46875 41.1875 3.015625 
Q 35.15625 -1.421875 24.609375 -1.421875 
Q 20.21875 -1.421875 15.453125 -0.5625 
Q 10.6875 0.296875 5.421875 2 
L 5.421875 11.28125 
Q 10.40625 8.6875 15.234375 7.390625 
Q 20.0625 6.109375 24.8125 6.109375 
Q 31.15625 6.109375 34.5625 8.28125 
Q 37.984375 10.453125 37.984375 14.40625 
Q 37.984375 18.0625 35.515625 20.015625 
Q 33.0625 21.96875 24.703125 23.78125 
L 21.578125 24.515625 
Q 13.234375 26.265625 9.515625 29.90625 
Q 5.8125 33.546875 5.8125 39.890625 
Q 5.8125 47.609375 11.28125 51.796875 
Q 16.75 56 26.8125 56 
Q 31.78125 56 36.171875 55.265625 
Q 40.578125 54.546875 44.28125 53.078125 
z
" id="DejaVuSans-115"/>
      </defs>
      <use xlink:href="#DejaVuSans-71"/>
      <use x="77.490234" xlink:href="#DejaVuSans-101"/>
      <use x="139.013672" xlink:href="#DejaVuSans-110"/>
      <use x="202.392578" xlink:href="#DejaVuSans-101"/>
      <use x="263.916016" xlink:href="#DejaVuSans-114"/>
      <use x="305.029297" xlink:href="#DejaVuSans-97"/>
      <use x="366.308594" xlink:href="#DejaVuSans-116"/>
      <use x="405.517578" xlink:href="#DejaVuSans-105"/>
      <use x="433.300781" xlink:href="#DejaVuSans-111"/>
      <use x="494.482422" xlink:href="#DejaVuSans-110"/>
      <use x="557.861328" xlink:href="#DejaVuSans-115"/>
     </g>
    </g>
   </g>
   <g id="matplotlib.axis_2">
    <g id="ytick_1">
     <g id="line2d_19">
      <path clip-path="url(#pbf36a7d8fa)" d="M 57.6 306.119563 
L 414.72 306.119563 
" style="fill:none;stroke:#b0b0b0;stroke-linecap:square;stroke-width:0.8;"/>
     </g>
     <g id="line2d_20">
      <defs>
       <path d="M 0 0 
L -3.5 0 
" id="m8d1d21909d" style="stroke:#000000;stroke-width:0.8;"/>
      </defs>
      <g>
       <use style="stroke:#000000;stroke-width:0.8;" x="57.6" xlink:href="#m8d1d21909d" y="306.119563"/>
      </g>
     </g>
     <g id="text_11">
      <!-- 200 -->
      <g transform="translate(31.5125 309.918781)scale(0.1 -0.1)">
       <use xlink:href="#DejaVuSans-50"/>
       <use x="63.623047" xlink:href="#DejaVuSans-48"/>
       <use x="127.246094" xlink:href="#DejaVuSans-48"/>
      </g>
     </g>
    </g>
    <g id="ytick_2">
     <g id="line2d_21">
      <path clip-path="url(#pbf36a7d8fa)" d="M 57.6 274.110493 
L 414.72 274.110493 
" style="fill:none;stroke:#b0b0b0;stroke-linecap:square;stroke-width:0.8;"/>
     </g>
     <g id="line2d_22">
      <g>
       <use style="stroke:#000000;stroke-width:0.8;" x="57.6" xlink:href="#m8d1d21909d" y="274.110493"/>
      </g>
     </g>
     <g id="text_12">
      <!-- 300 -->
      <g transform="translate(31.5125 277.909711)scale(0.1 -0.1)">
       <use xlink:href="#DejaVuSans-51"/>
       <use x="63.623047" xlink:href="#DejaVuSans-48"/>
       <use x="127.246094" xlink:href="#DejaVuSans-48"/>
      </g>
     </g>
    </g>
    <g id="ytick_3">
     <g id="line2d_23">
      <path clip-path="url(#pbf36a7d8fa)" d="M 57.6 242.101423 
L 414.72 242.101423 
" style="fill:none;stroke:#b0b0b0;stroke-linecap:square;stroke-width:0.8;"/>
     </g>
     <g id="line2d_24">
      <g>
       <use style="stroke:#000000;stroke-width:0.8;" x="57.6" xlink:href="#m8d1d21909d" y="242.101423"/>
      </g>
     </g>
     <g id="text_13">
      <!-- 400 -->
      <g transform="translate(31.5125 245.900641)scale(0.1 -0.1)">
       <use xlink:href="#DejaVuSans-52"/>
       <use x="63.623047" xlink:href="#DejaVuSans-48"/>
       <use x="127.246094" xlink:href="#DejaVuSans-48"/>
      </g>
     </g>
    </g>
    <g id="ytick_4">
     <g id="line2d_25">
      <path clip-path="url(#pbf36a7d8fa)" d="M 57.6 210.092353 
L 414.72 210.092353 
" style="fill:none;stroke:#b0b0b0;stroke-linecap:square;stroke-width:0.8;"/>
     </g>
     <g id="line2d_26">
      <g>
       <use style="stroke:#000000;stroke-width:0.8;" x="57.6" xlink:href="#m8d1d21909d" y="210.092353"/>
      </g>
     </g>
     <g id="text_14">
      <!-- 500 -->
      <g transform="translate(31.5125 213.891571)scale(0.1 -0.1)">
       <use xlink:href="#DejaVuSans-53"/>
       <use x="63.623047" xlink:href="#DejaVuSans-48"/>
       <use x="127.246094" xlink:href="#DejaVuSans-48"/>
      </g>
     </g>
    </g>
    <g id="ytick_5">
     <g id="line2d_27">
      <path clip-path="url(#pbf36a7d8fa)" d="M 57.6 178.083283 
L 414.72 178.083283 
" style="fill:none;stroke:#b0b0b0;stroke-linecap:square;stroke-width:0.8;"/>
     </g>
     <g id="line2d_28">
      <g>
       <use style="stroke:#000000;stroke-width:0.8;" x="57.6" xlink:href="#m8d1d21909d" y="178.083283"/>
      </g>
     </g>
     <g id="text_15">
      <!-- 600 -->
      <g transform="translate(31.5125 181.882501)scale(0.1 -0.1)">
       <defs>
        <path d="M 33.015625 40.375 
Q 26.375 40.375 22.484375 35.828125 
Q 18.609375 31.296875 18.609375 23.390625 
Q 18.609375 15.53125 22.484375 10.953125 
Q 26.375 6.390625 33.015625 6.390625 
Q 39.65625 6.390625 43.53125 10.953125 
Q 47.40625 15.53125 47.40625 23.390625 
Q 47.40625 31.296875 43.53125 35.828125 
Q 39.65625 40.375 33.015625 40.375 
z
M 52.59375 71.296875 
L 52.59375 62.3125 
Q 48.875 64.0625 45.09375 64.984375 
Q 41.3125 65.921875 37.59375 65.921875 
Q 27.828125 65.921875 22.671875 59.328125 
Q 17.53125 52.734375 16.796875 39.40625 
Q 19.671875 43.65625 24.015625 45.921875 
Q 28.375 48.1875 33.59375 48.1875 
Q 44.578125 48.1875 50.953125 41.515625 
Q 57.328125 34.859375 57.328125 23.390625 
Q 57.328125 12.15625 50.6875 5.359375 
Q 44.046875 -1.421875 33.015625 -1.421875 
Q 20.359375 -1.421875 13.671875 8.265625 
Q 6.984375 17.96875 6.984375 36.375 
Q 6.984375 53.65625 15.1875 63.9375 
Q 23.390625 74.21875 37.203125 74.21875 
Q 40.921875 74.21875 44.703125 73.484375 
Q 48.484375 72.75 52.59375 71.296875 
z
" id="DejaVuSans-54"/>
       </defs>
       <use xlink:href="#DejaVuSans-54"/>
       <use x="63.623047" xlink:href="#DejaVuSans-48"/>
       <use x="127.246094" xlink:href="#DejaVuSans-48"/>
      </g>
     </g>
    </g>
    <g id="ytick_6">
     <g id="line2d_29">
      <path clip-path="url(#pbf36a7d8fa)" d="M 57.6 146.074212 
L 414.72 146.074212 
" style="fill:none;stroke:#b0b0b0;stroke-linecap:square;stroke-width:0.8;"/>
     </g>
     <g id="line2d_30">
      <g>
       <use style="stroke:#000000;stroke-width:0.8;" x="57.6" xlink:href="#m8d1d21909d" y="146.074212"/>
      </g>
     </g>
     <g id="text_16">
      <!-- 700 -->
      <g transform="translate(31.5125 149.873431)scale(0.1 -0.1)">
       <defs>
        <path d="M 8.203125 72.90625 
L 55.078125 72.90625 
L 55.078125 68.703125 
L 28.609375 0 
L 18.3125 0 
L 43.21875 64.59375 
L 8.203125 64.59375 
z
" id="DejaVuSans-55"/>
       </defs>
       <use xlink:href="#DejaVuSans-55"/>
       <use x="63.623047" xlink:href="#DejaVuSans-48"/>
       <use x="127.246094" xlink:href="#DejaVuSans-48"/>
      </g>
     </g>
    </g>
    <g id="ytick_7">
     <g id="line2d_31">
      <path clip-path="url(#pbf36a7d8fa)" d="M 57.6 114.065142 
L 414.72 114.065142 
" style="fill:none;stroke:#b0b0b0;stroke-linecap:square;stroke-width:0.8;"/>
     </g>
     <g id="line2d_32">
      <g>
       <use style="stroke:#000000;stroke-width:0.8;" x="57.6" xlink:href="#m8d1d21909d" y="114.065142"/>
      </g>
     </g>
     <g id="text_17">
      <!-- 800 -->
      <g transform="translate(31.5125 117.864361)scale(0.1 -0.1)">
       <defs>
        <path d="M 31.78125 34.625 
Q 24.75 34.625 20.71875 30.859375 
Q 16.703125 27.09375 16.703125 20.515625 
Q 16.703125 13.921875 20.71875 10.15625 
Q 24.75 6.390625 31.78125 6.390625 
Q 38.8125 6.390625 42.859375 10.171875 
Q 46.921875 13.96875 46.921875 20.515625 
Q 46.921875 27.09375 42.890625 30.859375 
Q 38.875 34.625 31.78125 34.625 
z
M 21.921875 38.8125 
Q 15.578125 40.375 12.03125 44.71875 
Q 8.5 49.078125 8.5 55.328125 
Q 8.5 64.0625 14.71875 69.140625 
Q 20.953125 74.21875 31.78125 74.21875 
Q 42.671875 74.21875 48.875 69.140625 
Q 55.078125 64.0625 55.078125 55.328125 
Q 55.078125 49.078125 51.53125 44.71875 
Q 48 40.375 41.703125 38.8125 
Q 48.828125 37.15625 52.796875 32.3125 
Q 56.78125 27.484375 56.78125 20.515625 
Q 56.78125 9.90625 50.3125 4.234375 
Q 43.84375 -1.421875 31.78125 -1.421875 
Q 19.734375 -1.421875 13.25 4.234375 
Q 6.78125 9.90625 6.78125 20.515625 
Q 6.78125 27.484375 10.78125 32.3125 
Q 14.796875 37.15625 21.921875 38.8125 
z
M 18.3125 54.390625 
Q 18.3125 48.734375 21.84375 45.5625 
Q 25.390625 42.390625 31.78125 42.390625 
Q 38.140625 42.390625 41.71875 45.5625 
Q 45.3125 48.734375 45.3125 54.390625 
Q 45.3125 60.0625 41.71875 63.234375 
Q 38.140625 66.40625 31.78125 66.40625 
Q 25.390625 66.40625 21.84375 63.234375 
Q 18.3125 60.0625 18.3125 54.390625 
z
" id="DejaVuSans-56"/>
       </defs>
       <use xlink:href="#DejaVuSans-56"/>
       <use x="63.623047" xlink:href="#DejaVuSans-48"/>
       <use x="127.246094" xlink:href="#DejaVuSans-48"/>
      </g>
     </g>
    </g>
    <g id="ytick_8">
     <g id="line2d_33">
      <path clip-path="url(#pbf36a7d8fa)" d="M 57.6 82.056072 
L 414.72 82.056072 
" style="fill:none;stroke:#b0b0b0;stroke-linecap:square;stroke-width:0.8;"/>
     </g>
     <g id="line2d_34">
      <g>
       <use style="stroke:#000000;stroke-width:0.8;" x="57.6" xlink:href="#m8d1d21909d" y="82.056072"/>
      </g>
     </g>
     <g id="text_18">
      <!-- 900 -->
      <g transform="translate(31.5125 85.855291)scale(0.1 -0.1)">
       <defs>
        <path d="M 10.984375 1.515625 
L 10.984375 10.5 
Q 14.703125 8.734375 18.5 7.8125 
Q 22.3125 6.890625 25.984375 6.890625 
Q 35.75 6.890625 40.890625 13.453125 
Q 46.046875 20.015625 46.78125 33.40625 
Q 43.953125 29.203125 39.59375 26.953125 
Q 35.25 24.703125 29.984375 24.703125 
Q 19.046875 24.703125 12.671875 31.3125 
Q 6.296875 37.9375 6.296875 49.421875 
Q 6.296875 60.640625 12.9375 67.421875 
Q 19.578125 74.21875 30.609375 74.21875 
Q 43.265625 74.21875 49.921875 64.515625 
Q 56.59375 54.828125 56.59375 36.375 
Q 56.59375 19.140625 48.40625 8.859375 
Q 40.234375 -1.421875 26.421875 -1.421875 
Q 22.703125 -1.421875 18.890625 -0.6875 
Q 15.09375 0.046875 10.984375 1.515625 
z
M 30.609375 32.421875 
Q 37.25 32.421875 41.125 36.953125 
Q 45.015625 41.5 45.015625 49.421875 
Q 45.015625 57.28125 41.125 61.84375 
Q 37.25 66.40625 30.609375 66.40625 
Q 23.96875 66.40625 20.09375 61.84375 
Q 16.21875 57.28125 16.21875 49.421875 
Q 16.21875 41.5 20.09375 36.953125 
Q 23.96875 32.421875 30.609375 32.421875 
z
" id="DejaVuSans-57"/>
       </defs>
       <use xlink:href="#DejaVuSans-57"/>
       <use x="63.623047" xlink:href="#DejaVuSans-48"/>
       <use x="127.246094" xlink:href="#DejaVuSans-48"/>
      </g>
     </g>
    </g>
    <g id="ytick_9">
     <g id="line2d_35">
      <path clip-path="url(#pbf36a7d8fa)" d="M 57.6 50.047002 
L 414.72 50.047002 
" style="fill:none;stroke:#b0b0b0;stroke-linecap:square;stroke-width:0.8;"/>
     </g>
     <g id="line2d_36">
      <g>
       <use style="stroke:#000000;stroke-width:0.8;" x="57.6" xlink:href="#m8d1d21909d" y="50.047002"/>
      </g>
     </g>
     <g id="text_19">
      <!-- 1000 -->
      <g transform="translate(25.15 53.846221)scale(0.1 -0.1)">
       <use xlink:href="#DejaVuSans-49"/>
       <use x="63.623047" xlink:href="#DejaVuSans-48"/>
       <use x="127.246094" xlink:href="#DejaVuSans-48"/>
       <use x="190.869141" xlink:href="#DejaVuSans-48"/>
      </g>
     </g>
    </g>
    <g id="text_20">
     <!-- Fitness -->
     <g transform="translate(19.070312 191.845187)rotate(-90)scale(0.1 -0.1)">
      <defs>
       <path d="M 9.8125 72.90625 
L 51.703125 72.90625 
L 51.703125 64.59375 
L 19.671875 64.59375 
L 19.671875 43.109375 
L 48.578125 43.109375 
L 48.578125 34.8125 
L 19.671875 34.8125 
L 19.671875 0 
L 9.8125 0 
z
" id="DejaVuSans-70"/>
      </defs>
      <use xlink:href="#DejaVuSans-70"/>
      <use x="50.269531" xlink:href="#DejaVuSans-105"/>
      <use x="78.052734" xlink:href="#DejaVuSans-116"/>
      <use x="117.261719" xlink:href="#DejaVuSans-110"/>
      <use x="180.640625" xlink:href="#DejaVuSans-101"/>
      <use x="242.164062" xlink:href="#DejaVuSans-115"/>
      <use x="294.263672" xlink:href="#DejaVuSans-115"/>
     </g>
    </g>
   </g>
   <g id="line2d_37">
    <path clip-path="url(#pbf36a7d8fa)" d="M 73.832727 263.454673 
L 74.652562 263.313193 
L 75.472397 263.767722 
L 76.292231 263.870753 
L 77.112066 263.395284 
L 77.931901 263.403617 
L 78.751736 264.034896 
L 79.57157 263.305064 
L 80.391405 263.567783 
L 81.21124 263.507567 
L 82.031074 263.287624 
L 82.850909 263.349107 
L 83.670744 263.273046 
L 85.310413 263.588699 
L 86.130248 262.97197 
L 86.950083 263.444036 
L 87.769917 263.524988 
L 88.589752 263.240356 
L 89.409587 263.233811 
L 90.229421 263.657753 
L 91.049256 263.456322 
L 91.869091 263.475086 
L 92.688926 263.739554 
L 93.50876 263.454022 
L 95.14843 263.12311 
L 95.968264 263.704525 
L 96.788099 263.280356 
L 97.607934 263.603388 
L 98.427769 263.407109 
L 99.247603 263.493623 
L 100.067438 263.239603 
L 100.887273 262.862022 
L 101.707107 262.923323 
L 102.526942 265.529475 
L 103.346777 263.425865 
L 104.166612 260.778715 
L 104.986446 264.11406 
L 105.806281 262.824919 
L 106.626116 266.057518 
L 107.44595 262.419259 
L 108.265785 264.530178 
L 109.08562 262.783719 
L 109.905455 260.733237 
L 110.725289 264.124918 
L 111.545124 264.631371 
L 112.364959 262.016769 
L 113.184793 258.021228 
L 114.004628 264.315096 
L 114.824463 260.391405 
L 115.644298 261.284458 
L 116.464132 266.092221 
L 117.283967 261.668567 
L 118.103802 259.022296 
L 118.923636 263.743991 
L 119.743471 265.717003 
L 120.563306 263.001082 
L 121.38314 264.245297 
L 122.202975 265.94818 
L 123.02281 262.846501 
L 123.842645 263.994359 
L 124.662479 261.950279 
L 125.482314 260.330588 
L 126.302149 262.84912 
L 127.121983 261.393289 
L 127.941818 259.587978 
L 128.761653 260.871541 
L 130.401322 266.191449 
L 131.221157 263.004315 
L 132.040992 266.919544 
L 132.860826 268.285476 
L 133.680661 263.773826 
L 134.500496 261.303631 
L 135.320331 263.064163 
L 136.140165 265.293737 
L 136.96 263.538085 
L 137.779835 263.376362 
L 138.599669 263.591869 
L 139.419504 261.63637 
L 141.059174 263.131382 
L 141.879008 258.406843 
L 142.698843 264.439181 
L 143.518678 267.74709 
L 144.338512 262.942528 
L 145.158347 261.611265 
L 145.978182 265.949764 
L 146.798017 263.255378 
L 147.617851 267.655848 
L 148.437686 262.469967 
L 149.257521 260.267362 
L 150.077355 263.085146 
L 150.89719 263.586298 
L 151.717025 263.77706 
L 152.53686 265.494174 
L 153.356694 263.988441 
L 154.176529 259.900406 
L 154.996364 263.114245 
L 155.816198 263.88699 
L 156.636033 266.285701 
L 157.455868 259.248681 
L 158.275702 256.156891 
L 159.095537 266.903698 
L 159.915372 261.513982 
L 160.735207 263.914662 
L 161.555041 263.962667 
L 162.374876 261.178201 
L 163.194711 261.005603 
L 164.014545 264.753498 
L 165.654215 263.14184 
L 166.47405 263.043594 
L 167.293884 262.115014 
L 168.113719 262.369566 
L 168.933554 262.412921 
L 169.753388 264.745463 
L 170.573223 257.46251 
L 171.393058 258.011813 
L 172.212893 261.038506 
L 173.032727 262.558705 
L 173.852562 263.672335 
L 174.672397 262.641643 
L 175.492231 265.211971 
L 176.312066 264.735955 
L 177.131901 261.291019 
L 177.951736 267.228543 
L 178.77157 260.428992 
L 179.591405 262.17431 
L 180.41124 262.452789 
L 181.231074 262.885134 
L 182.050909 262.634766 
L 182.870744 260.657081 
L 183.690579 263.768362 
L 184.510413 264.655013 
L 185.330248 261.246047 
L 186.150083 264.026019 
L 186.969917 264.229713 
L 187.789752 261.50143 
L 188.609587 263.690114 
L 189.429421 263.716959 
L 190.249256 265.669701 
L 191.069091 258.759204 
L 191.888926 261.772451 
L 192.70876 263.986024 
L 193.528595 263.610884 
L 194.34843 261.799804 
L 195.168264 263.646728 
L 195.988099 264.09296 
L 196.807934 260.986774 
L 197.627769 264.400018 
L 198.447603 265.674971 
L 199.267438 268.425682 
L 200.087273 262.347159 
L 201.726942 267.004479 
L 202.546777 264.312516 
L 203.366612 263.105774 
L 204.186446 264.296512 
L 205.006281 266.025002 
L 205.826116 265.978287 
L 206.64595 261.791851 
L 207.465785 266.457415 
L 208.28562 263.321173 
L 209.105455 262.449588 
L 209.925289 265.536413 
L 210.745124 258.926784 
L 211.564959 264.308111 
L 212.384793 267.071666 
L 213.204628 260.519442 
L 214.024463 263.133645 
L 214.844298 268.597819 
L 215.664132 261.127614 
L 216.483967 263.275422 
L 218.123636 263.793969 
L 218.943471 261.912526 
L 219.763306 261.825412 
L 220.58314 263.941211 
L 221.402975 259.46872 
L 222.22281 262.504828 
L 223.042645 263.367254 
L 223.862479 262.672796 
L 224.682314 263.359972 
L 225.502149 261.778918 
L 226.321983 265.876872 
L 227.141818 262.070645 
L 227.961653 262.564595 
L 228.781488 260.135333 
L 229.601322 263.664761 
L 230.421157 262.484798 
L 232.060826 260.878988 
L 233.700496 261.777586 
L 234.520331 263.421403 
L 235.340165 258.477263 
L 236.16 261.892631 
L 236.979835 259.842687 
L 237.799669 260.825112 
L 238.619504 265.293737 
L 239.439339 262.565043 
L 240.259174 263.458762 
L 241.079008 264.123663 
L 241.898843 264.635155 
L 242.718678 265.866524 
L 243.538512 264.89188 
L 244.358347 263.655253 
L 245.178182 264.438049 
L 245.998017 264.042185 
L 246.817851 263.305007 
L 247.637686 261.377996 
L 248.457521 261.937346 
L 249.277355 259.716014 
L 250.09719 265.368816 
L 250.917025 261.681371 
L 251.73686 259.696904 
L 252.556694 259.202506 
L 253.376529 262.32929 
L 255.016198 267.046091 
L 255.836033 265.323689 
L 256.655868 261.485377 
L 257.475702 261.268834 
L 258.295537 259.860055 
L 259.115372 262.707658 
L 259.935207 264.059645 
L 260.755041 262.538729 
L 261.574876 261.730419 
L 262.394711 261.474833 
L 263.214545 266.610768 
L 264.03438 263.352244 
L 264.854215 262.907318 
L 265.67405 264.282757 
L 266.493884 264.552584 
L 267.313719 263.592765 
L 268.133554 264.86552 
L 268.953388 261.68717 
L 269.773223 263.79717 
L 270.593058 260.993112 
L 271.412893 260.295378 
L 272.232727 264.430174 
L 273.052562 262.187114 
L 273.872397 265.388021 
L 274.692231 265.946595 
L 275.512066 263.457874 
L 276.331901 262.798487 
L 277.97157 264.85347 
L 278.791405 261.280999 
L 279.61124 261.348064 
L 280.431074 262.398374 
L 281.250909 262.703624 
L 282.070744 263.311473 
L 282.890579 264.637101 
L 283.710413 261.213101 
L 284.530248 265.502905 
L 285.350083 260.30456 
L 286.169917 265.753273 
L 286.989752 259.559169 
L 288.629421 265.327204 
L 289.449256 265.826165 
L 290.269091 261.712524 
L 291.088926 261.059666 
L 291.90876 262.459191 
L 292.728595 259.015015 
L 293.54843 261.693509 
L 294.368264 264.92709 
L 295.188099 265.802051 
L 296.007934 263.511263 
L 296.827769 263.53004 
L 297.647603 260.752634 
L 299.287273 262.87142 
L 300.107107 260.676191 
L 300.926942 262.126689 
L 301.746777 260.714697 
L 303.386446 265.269892 
L 304.206281 261.617448 
L 305.026116 262.737858 
L 305.84595 264.144173 
L 306.665785 261.592771 
L 307.48562 263.42825 
L 308.305455 264.510879 
L 309.125289 262.481566 
L 309.945124 263.09676 
L 310.764959 261.284001 
L 311.584793 261.313331 
L 312.404628 264.142416 
L 313.224463 260.561022 
L 314.044298 261.711508 
L 314.864132 260.578815 
L 315.683967 263.98684 
L 316.503802 264.130065 
L 317.323636 264.158873 
L 318.143471 264.767045 
L 318.963306 260.820452 
L 319.78314 265.436035 
L 320.602975 263.58271 
L 321.42281 264.115504 
L 322.242645 265.518751 
L 323.062479 259.450985 
L 323.882314 260.557786 
L 324.702149 260.874742 
L 325.521983 260.721099 
L 326.341818 260.417724 
L 327.161653 256.248798 
L 327.981488 254.413822 
L 328.801322 253.503053 
L 329.621157 251.954512 
L 330.440992 251.219254 
L 331.260826 250.94873 
L 332.080661 249.938795 
L 332.900496 246.941582 
L 333.720331 247.274606 
L 334.540165 250.765211 
L 335.36 250.743872 
L 336.179835 250.235686 
L 336.999669 251.8956 
L 337.819504 246.597375 
L 338.639339 247.881004 
L 339.459174 248.474657 
L 340.279008 250.763022 
L 341.098843 250.256654 
L 341.918678 251.327422 
L 342.738512 248.148136 
L 343.558347 250.512261 
L 344.378182 249.491453 
L 345.198017 250.896046 
L 346.017851 249.717549 
L 346.837686 250.321457 
L 347.657521 249.886854 
L 348.477355 248.71663 
L 349.29719 250.731747 
L 350.117025 248.944574 
L 350.93686 250.408416 
L 351.756694 250.769276 
L 353.396364 251.800978 
L 354.216198 253.469977 
L 355.036033 253.420994 
L 355.855868 253.76187 
L 356.675702 253.632432 
L 357.495537 252.51866 
L 358.315372 253.783341 
L 359.135207 253.833318 
L 359.955041 255.020035 
L 360.774876 250.320048 
L 361.594711 250.613222 
L 362.414545 252.168891 
L 363.23438 249.932975 
L 364.054215 249.621937 
L 364.87405 252.743704 
L 365.693884 252.402803 
L 366.513719 251.513901 
L 367.333554 247.980824 
L 368.153388 249.609836 
L 368.973223 248.35801 
L 369.793058 246.433117 
L 370.612893 250.565082 
L 371.432727 248.629511 
L 372.252562 248.109497 
L 373.072397 249.846474 
L 373.892231 250.705461 
L 374.712066 250.190201 
L 375.531901 249.07649 
L 376.351736 250.468238 
L 377.17157 248.845081 
L 377.991405 249.937112 
L 378.81124 248.682487 
L 379.631074 250.399393 
L 380.450909 251.460265 
L 381.270744 251.332718 
L 382.090579 249.143418 
L 382.910413 253.254387 
L 383.730248 248.475268 
L 384.550083 249.475939 
L 385.369917 249.498028 
L 386.189752 247.628533 
L 387.009587 251.2351 
L 387.829421 252.635317 
L 388.649256 255.005281 
L 389.469091 249.130741 
L 390.288926 250.420612 
L 391.10876 254.096901 
L 391.928595 249.790001 
L 392.74843 253.441779 
L 393.568264 252.870415 
L 394.388099 248.033977 
L 395.207934 251.646222 
L 396.027769 253.731385 
L 396.847603 257.123053 
L 397.667438 256.95951 
L 398.487273 252.274602 
L 398.487273 252.274602 
" style="fill:none;stroke:#0000ff;stroke-linecap:square;stroke-width:1.5;"/>
   </g>
   <g id="line2d_38">
    <path clip-path="url(#pbf36a7d8fa)" d="M 73.832727 263.98121 
L 74.652562 267.031487 
L 75.472397 267.626782 
L 76.292231 271.558002 
L 77.112066 272.287655 
L 77.931901 271.022425 
L 78.751736 273.095217 
L 79.57157 269.324063 
L 81.21124 267.738234 
L 82.850909 268.334067 
L 84.490579 267.781568 
L 85.310413 267.939225 
L 86.130248 267.429348 
L 86.950083 267.855766 
L 87.769917 266.679399 
L 88.589752 268.441154 
L 89.409587 268.123919 
L 90.229421 268.762932 
L 91.049256 268.087281 
L 91.869091 265.615926 
L 92.688926 266.763145 
L 93.50876 264.013614 
L 95.14843 265.676305 
L 95.968264 267.079061 
L 96.788099 266.12611 
L 97.607934 268.101697 
L 98.427769 265.717275 
L 99.247603 264.11787 
L 100.067438 265.378378 
L 100.887273 270.270628 
L 101.707107 273.05978 
L 102.526942 274.918436 
L 103.346777 271.270998 
L 104.166612 272.376461 
L 104.986446 279.494067 
L 105.806281 279.768793 
L 106.626116 284.89593 
L 107.44595 285.254224 
L 108.265785 284.8147 
L 109.08562 284.590302 
L 109.905455 284.170291 
L 110.725289 287.969118 
L 111.545124 292.393213 
L 112.364959 288.870698 
L 113.184793 281.885635 
L 114.004628 285.710222 
L 114.824463 282.817089 
L 115.644298 283.776622 
L 116.464132 284.495592 
L 117.283967 280.36601 
L 118.103802 280.245012 
L 118.923636 286.080235 
L 119.743471 284.416878 
L 120.563306 285.709561 
L 121.38314 285.874211 
L 122.202975 288.287644 
L 123.02281 282.24509 
L 123.842645 285.398513 
L 124.662479 287.299822 
L 125.482314 281.621619 
L 126.302149 284.409209 
L 127.121983 284.060225 
L 127.941818 289.502767 
L 128.761653 282.523188 
L 129.581488 290.209142 
L 130.401322 293.576012 
L 131.221157 288.267566 
L 132.040992 288.115931 
L 132.860826 288.134116 
L 133.680661 285.804664 
L 134.500496 281.726975 
L 135.320331 285.591158 
L 136.140165 290.233473 
L 136.96 289.787492 
L 137.779835 289.893902 
L 138.599669 287.566219 
L 139.419504 285.711881 
L 140.239339 283.415237 
L 141.059174 286.015986 
L 141.879008 282.364849 
L 142.698843 287.535932 
L 143.518678 293.851199 
L 144.338512 286.724983 
L 145.158347 285.576875 
L 145.978182 291.360313 
L 146.798017 285.011997 
L 147.617851 287.583809 
L 148.437686 280.651487 
L 149.257521 282.848532 
L 150.077355 286.880109 
L 150.89719 289.287038 
L 151.717025 284.565067 
L 152.53686 286.239313 
L 153.356694 287.499205 
L 154.176529 279.167333 
L 154.996364 286.649442 
L 155.816198 290.399352 
L 156.636033 290.7851 
L 157.455868 282.749454 
L 158.275702 278.959736 
L 159.095537 284.449473 
L 159.915372 286.875466 
L 160.735207 288.366529 
L 161.555041 290.852004 
L 162.374876 287.364191 
L 163.194711 288.159942 
L 164.014545 289.641059 
L 164.83438 283.638497 
L 165.654215 283.496539 
L 166.47405 285.379901 
L 167.293884 284.068367 
L 168.113719 278.221644 
L 168.933554 283.43071 
L 169.753388 289.376396 
L 170.573223 276.133705 
L 171.393058 277.066904 
L 172.212893 283.046804 
L 173.032727 282.784725 
L 173.852562 287.064676 
L 174.672397 286.723743 
L 175.492231 286.224213 
L 176.312066 286.268177 
L 177.131901 286.718319 
L 177.951736 289.697063 
L 178.77157 279.891775 
L 179.591405 287.653301 
L 180.41124 289.513659 
L 181.231074 285.477255 
L 182.050909 287.305934 
L 182.870744 284.541487 
L 183.690579 287.91906 
L 184.510413 288.304514 
L 185.330248 286.536361 
L 186.150083 285.097429 
L 186.969917 284.953129 
L 187.789752 289.09433 
L 188.609587 287.622514 
L 189.429421 288.192531 
L 190.249256 288.925812 
L 191.069091 282.901453 
L 191.888926 290.470159 
L 192.70876 287.085382 
L 193.528595 287.97632 
L 194.34843 286.541528 
L 195.168264 287.78461 
L 195.988099 290.206868 
L 196.807934 286.669657 
L 197.627769 285.916119 
L 199.267438 290.798218 
L 200.087273 287.767213 
L 200.907107 287.046342 
L 201.726942 285.803098 
L 202.546777 289.326325 
L 203.366612 291.085539 
L 204.186446 288.419555 
L 205.006281 290.825964 
L 205.826116 290.064176 
L 206.64595 285.751482 
L 207.465785 294.716884 
L 208.28562 295.488 
L 209.105455 288.144649 
L 209.925289 288.530599 
L 210.745124 283.921043 
L 211.564959 291.011581 
L 212.384793 288.004334 
L 213.204628 284.28343 
L 214.024463 284.441247 
L 214.844298 295.1812 
L 215.664132 282.752119 
L 216.483967 288.371079 
L 218.123636 282.963734 
L 218.943471 282.089142 
L 219.763306 285.680772 
L 220.58314 288.006406 
L 221.402975 283.787508 
L 222.22281 283.609274 
L 223.042645 283.907113 
L 223.862479 288.209277 
L 224.682314 288.628734 
L 225.502149 286.181773 
L 226.321983 290.003957 
L 227.141818 281.949516 
L 227.961653 284.389274 
L 228.781488 284.356502 
L 229.601322 288.551652 
L 230.421157 285.300503 
L 231.240992 287.987566 
L 232.060826 286.327748 
L 232.880661 290.022887 
L 233.700496 282.547033 
L 234.520331 285.697667 
L 235.340165 281.794139 
L 236.16 287.744827 
L 237.799669 282.337867 
L 238.619504 284.198793 
L 239.439339 285.299951 
L 240.259174 284.309836 
L 241.079008 285.987334 
L 241.898843 285.408349 
L 242.718678 287.243903 
L 243.538512 289.652877 
L 244.358347 287.404977 
L 245.178182 286.624901 
L 245.998017 288.565651 
L 246.817851 283.703484 
L 247.637686 286.04601 
L 248.457521 281.374105 
L 249.277355 279.792079 
L 250.09719 289.614443 
L 250.917025 288.46782 
L 251.73686 283.67876 
L 253.376529 287.477193 
L 255.016198 287.82889 
L 255.836033 288.396209 
L 256.655868 284.437148 
L 257.475702 283.282807 
L 258.295537 285.628031 
L 259.115372 284.722072 
L 259.935207 284.258103 
L 260.755041 285.826017 
L 261.574876 284.392071 
L 262.394711 284.825737 
L 263.214545 285.484139 
L 264.03438 282.70775 
L 264.854215 286.027914 
L 265.67405 286.925709 
L 266.493884 285.169756 
L 267.313719 284.508624 
L 268.133554 289.877787 
L 268.953388 287.161597 
L 269.773223 290.68805 
L 270.593058 287.084329 
L 271.412893 281.151183 
L 272.232727 284.89258 
L 273.052562 285.715909 
L 273.872397 285.223077 
L 274.692231 287.977581 
L 276.331901 284.323877 
L 277.151736 283.059924 
L 277.97157 286.333043 
L 278.791405 287.187388 
L 279.61124 281.065568 
L 281.250909 287.664955 
L 282.070744 285.223437 
L 282.890579 289.674955 
L 283.710413 282.480351 
L 284.530248 287.723214 
L 285.350083 282.575845 
L 286.169917 289.274906 
L 286.989752 284.962533 
L 287.809587 287.31298 
L 288.629421 291.022227 
L 289.449256 292.179376 
L 290.269091 283.179706 
L 291.088926 286.360523 
L 291.90876 286.712901 
L 292.728595 284.09051 
L 293.54843 286.154985 
L 294.368264 290.730598 
L 295.188099 287.930299 
L 296.827769 283.494326 
L 297.647603 279.264961 
L 298.467438 278.484305 
L 299.287273 285.532367 
L 300.107107 281.89276 
L 300.926942 281.561201 
L 301.746777 281.872105 
L 302.566612 284.94178 
L 303.386446 286.534884 
L 304.206281 281.91723 
L 305.026116 283.989742 
L 305.84595 280.518419 
L 306.665785 282.330061 
L 307.48562 279.082945 
L 308.305455 284.161946 
L 309.125289 280.698303 
L 309.945124 280.893403 
L 310.764959 280.22597 
L 311.584793 281.447226 
L 312.404628 283.017051 
L 313.224463 279.136374 
L 314.044298 278.749559 
L 314.864132 282.072761 
L 315.683967 288.241404 
L 316.503802 285.486298 
L 317.323636 283.939292 
L 318.143471 281.608848 
L 318.963306 281.588159 
L 319.78314 286.580321 
L 320.602975 282.226881 
L 321.42281 283.39366 
L 322.242645 287.6701 
L 323.062479 279.314591 
L 323.882314 281.329761 
L 325.521983 279.378518 
L 326.341818 279.394375 
L 327.161653 274.145276 
L 327.981488 270.101052 
L 328.801322 268.279446 
L 329.621157 264.334589 
L 330.440992 264.312336 
L 331.260826 263.135699 
L 332.080661 263.645496 
L 332.900496 258.067425 
L 333.720331 259.212936 
L 334.540165 261.580954 
L 335.36 267.24809 
L 336.179835 264.402438 
L 336.999669 266.670272 
L 337.819504 260.514417 
L 338.639339 262.28677 
L 339.459174 263.109812 
L 340.279008 266.904978 
L 341.098843 267.539511 
L 342.738512 262.310467 
L 343.558347 263.239824 
L 344.378182 266.24578 
L 345.198017 263.45298 
L 346.017851 263.907338 
L 346.837686 264.827401 
L 347.657521 262.032596 
L 348.477355 261.868701 
L 349.29719 262.753041 
L 350.117025 261.891353 
L 350.93686 263.660379 
L 351.756694 264.38316 
L 352.576529 266.835515 
L 353.396364 267.064499 
L 354.216198 266.724527 
L 355.036033 266.915348 
L 355.855868 268.443913 
L 356.675702 266.630794 
L 357.495537 267.136323 
L 358.315372 267.356052 
L 359.135207 266.602154 
L 359.955041 272.028724 
L 360.774876 262.840678 
L 362.414545 266.297919 
L 363.23438 264.202195 
L 364.054215 269.496762 
L 364.87405 265.789166 
L 365.693884 266.337836 
L 367.333554 260.463458 
L 368.973223 263.206996 
L 369.793058 259.425046 
L 370.612893 268.093259 
L 371.432727 262.299633 
L 372.252562 259.538268 
L 373.072397 264.972716 
L 374.712066 261.601252 
L 375.531901 263.542458 
L 376.351736 263.792929 
L 377.17157 263.395978 
L 377.991405 267.75955 
L 378.81124 262.255565 
L 379.631074 265.356567 
L 380.450909 265.771101 
L 381.270744 265.681071 
L 382.090579 265.133368 
L 382.910413 274.803948 
L 383.730248 265.5381 
L 384.550083 268.06497 
L 385.369917 264.55143 
L 386.189752 266.587728 
L 387.009587 272.808234 
L 387.829421 268.922596 
L 388.649256 277.419049 
L 389.469091 272.290203 
L 390.288926 271.916628 
L 391.10876 271.254538 
L 391.928595 272.168026 
L 392.74843 270.031255 
L 393.568264 270.55578 
L 394.388099 262.222031 
L 396.027769 275.472448 
L 396.847603 274.124652 
L 397.667438 276.768271 
L 398.487273 279.862059 
L 398.487273 279.862059 
" style="fill:none;stroke:#008000;stroke-dasharray:9.6,2.4,1.5,2.4;stroke-dashoffset:0;stroke-width:1.5;"/>
   </g>
   <g id="line2d_39">
    <path clip-path="url(#pbf36a7d8fa)" d="M 73.832727 262.928136 
L 74.652562 259.594899 
L 75.472397 259.908662 
L 76.292231 256.183505 
L 77.112066 254.502914 
L 77.931901 255.784809 
L 78.751736 254.974575 
L 79.57157 257.286065 
L 80.391405 258.667858 
L 81.21124 259.276901 
L 82.031074 258.53314 
L 82.850909 258.364146 
L 83.670744 258.495944 
L 84.490579 259.157506 
L 85.310413 259.238174 
L 86.130248 258.514592 
L 86.950083 259.032306 
L 87.769917 260.370577 
L 88.589752 258.039558 
L 90.229421 258.552574 
L 91.049256 258.825363 
L 91.869091 261.334245 
L 92.688926 260.715963 
L 93.50876 262.89443 
L 95.14843 260.569914 
L 95.968264 260.329989 
L 96.788099 260.434602 
L 97.607934 259.10508 
L 99.247603 262.869376 
L 100.067438 261.100828 
L 100.887273 255.453417 
L 101.707107 252.786866 
L 102.526942 256.140514 
L 103.346777 255.580733 
L 104.166612 249.180969 
L 104.986446 248.734053 
L 105.806281 245.881044 
L 106.626116 247.219106 
L 107.44595 239.584294 
L 108.265785 244.245656 
L 109.905455 237.296182 
L 110.725289 240.280718 
L 111.545124 236.869529 
L 112.364959 235.16284 
L 113.184793 234.15682 
L 114.004628 242.919969 
L 114.824463 237.965721 
L 115.644298 238.792295 
L 116.464132 247.688849 
L 118.103802 237.799579 
L 118.923636 241.407747 
L 119.743471 247.017128 
L 120.563306 240.292603 
L 121.38314 242.616383 
L 122.202975 243.608715 
L 123.02281 243.447911 
L 123.842645 242.590205 
L 124.662479 236.600736 
L 126.302149 241.289031 
L 127.121983 238.726353 
L 127.941818 229.673189 
L 128.761653 239.219895 
L 129.581488 237.231555 
L 130.401322 238.806885 
L 131.221157 237.741065 
L 132.040992 245.723157 
L 132.860826 248.436836 
L 133.680661 241.742989 
L 134.500496 240.880288 
L 135.320331 240.537167 
L 136.140165 240.354001 
L 136.96 237.288679 
L 137.779835 236.858822 
L 138.599669 239.617518 
L 139.419504 237.560858 
L 140.239339 241.213181 
L 141.059174 240.246777 
L 141.879008 234.448837 
L 142.698843 241.34243 
L 143.518678 241.64298 
L 144.338512 239.160074 
L 145.158347 237.645654 
L 145.978182 240.539216 
L 146.798017 241.498759 
L 147.617851 247.727887 
L 148.437686 244.288446 
L 149.257521 237.686193 
L 150.077355 239.290184 
L 150.89719 237.885559 
L 151.717025 242.989052 
L 152.53686 244.749035 
L 153.356694 240.477677 
L 154.176529 240.633478 
L 154.996364 239.579049 
L 155.816198 237.374627 
L 156.636033 241.786302 
L 157.455868 235.747908 
L 158.275702 233.354045 
L 159.095537 249.357923 
L 159.915372 236.152499 
L 160.735207 239.462796 
L 162.374876 234.99221 
L 163.194711 233.851264 
L 164.014545 239.865937 
L 164.83438 244.15317 
L 165.654215 242.787141 
L 166.47405 240.707288 
L 167.293884 240.161662 
L 168.113719 246.517488 
L 168.933554 241.395132 
L 170.573223 238.791315 
L 172.212893 239.030207 
L 173.032727 242.332684 
L 173.852562 240.279994 
L 174.672397 238.559543 
L 175.492231 244.199729 
L 176.312066 243.203733 
L 177.131901 235.863718 
L 177.951736 244.760022 
L 179.591405 236.69532 
L 180.41124 235.39192 
L 181.231074 240.293012 
L 182.050909 237.963597 
L 182.870744 236.772675 
L 183.690579 239.617664 
L 184.510413 241.005512 
L 185.330248 235.955734 
L 186.150083 242.954609 
L 186.969917 243.506297 
L 187.789752 233.908529 
L 188.609587 239.757714 
L 189.429421 239.241388 
L 190.249256 242.41359 
L 191.069091 234.616955 
L 191.888926 233.074743 
L 192.70876 240.886665 
L 193.528595 239.245448 
L 194.34843 237.05808 
L 195.168264 239.508845 
L 195.988099 237.979053 
L 196.807934 235.303891 
L 197.627769 242.883918 
L 198.447603 243.137078 
L 199.267438 246.053145 
L 200.087273 236.927106 
L 201.726942 248.20586 
L 202.546777 239.298707 
L 203.366612 235.12601 
L 204.186446 240.173468 
L 205.006281 241.224039 
L 205.826116 241.892398 
L 206.64595 237.832219 
L 207.465785 238.197946 
L 208.28562 231.154346 
L 209.925289 242.542226 
L 210.745124 233.932525 
L 211.564959 237.604641 
L 212.384793 246.138999 
L 213.204628 236.755453 
L 214.024463 241.826043 
L 214.844298 242.014439 
L 215.664132 239.503109 
L 216.483967 238.179765 
L 218.123636 244.624205 
L 218.943471 241.735911 
L 219.763306 237.970051 
L 220.58314 239.876016 
L 221.402975 235.149932 
L 222.22281 241.400381 
L 223.042645 242.827395 
L 223.862479 237.136316 
L 224.682314 238.091209 
L 225.502149 237.376062 
L 226.321983 241.749788 
L 227.141818 242.191775 
L 227.961653 240.739915 
L 228.781488 235.914163 
L 229.601322 238.777869 
L 230.421157 239.669094 
L 231.240992 235.234336 
L 232.060826 235.430229 
L 232.880661 232.571443 
L 233.700496 241.008139 
L 234.520331 241.145139 
L 235.340165 235.160387 
L 236.16 236.040434 
L 236.979835 234.517927 
L 237.799669 239.312357 
L 238.619504 246.388681 
L 239.439339 239.830135 
L 240.259174 242.607687 
L 241.079008 242.259992 
L 241.898843 243.86196 
L 242.718678 244.489145 
L 243.538512 240.130884 
L 244.358347 239.905528 
L 245.178182 242.251197 
L 245.998017 239.518719 
L 246.817851 242.906529 
L 247.637686 236.709982 
L 248.457521 242.500587 
L 249.277355 239.639949 
L 250.09719 241.123189 
L 250.917025 234.894921 
L 251.73686 235.715047 
L 252.556694 232.7915 
L 255.016198 246.263291 
L 256.655868 238.533605 
L 257.475702 239.254861 
L 258.295537 234.092078 
L 259.115372 240.693244 
L 259.935207 243.861186 
L 260.755041 239.251441 
L 261.574876 239.068767 
L 262.394711 238.123929 
L 263.214545 247.737396 
L 264.854215 239.786722 
L 265.67405 241.639806 
L 266.493884 243.935412 
L 267.313719 242.676906 
L 268.133554 239.853253 
L 268.953388 236.212743 
L 269.773223 236.906291 
L 270.593058 234.901896 
L 272.232727 243.967768 
L 273.052562 238.658319 
L 273.872397 245.552965 
L 274.692231 243.915609 
L 275.512066 240.844238 
L 276.331901 241.273097 
L 277.151736 244.746388 
L 277.97157 243.373896 
L 278.791405 235.37461 
L 279.61124 241.63056 
L 280.431074 240.307287 
L 281.250909 237.742293 
L 282.070744 241.399509 
L 282.890579 239.599248 
L 283.710413 239.945851 
L 284.530248 243.282596 
L 285.350083 238.033276 
L 286.169917 242.23164 
L 286.989752 234.155806 
L 287.809587 237.285312 
L 288.629421 239.632181 
L 289.449256 239.472954 
L 290.269091 240.245343 
L 291.088926 235.758809 
L 291.90876 238.205481 
L 292.728595 233.939521 
L 293.54843 237.232033 
L 294.368264 239.123583 
L 295.188099 243.673804 
L 296.007934 241.439481 
L 296.827769 243.565754 
L 297.647603 242.240306 
L 298.467438 245.11145 
L 299.287273 240.210474 
L 300.107107 239.459622 
L 300.926942 242.692177 
L 301.746777 239.557289 
L 302.566612 241.000893 
L 303.386446 244.004901 
L 304.206281 241.317666 
L 305.026116 241.485975 
L 305.84595 247.769928 
L 306.665785 240.855481 
L 307.48562 247.773555 
L 308.305455 244.859813 
L 309.125289 244.26483 
L 309.945124 245.300116 
L 310.764959 242.342032 
L 311.584793 241.179437 
L 312.404628 245.26778 
L 313.224463 241.98567 
L 314.044298 244.673456 
L 314.864132 239.084869 
L 315.683967 239.732276 
L 316.503802 242.773831 
L 317.323636 244.378454 
L 318.143471 247.925243 
L 318.963306 240.052745 
L 319.78314 244.291748 
L 320.602975 244.938538 
L 321.42281 244.837347 
L 322.242645 243.367402 
L 323.062479 239.58738 
L 323.882314 239.785812 
L 324.702149 241.461861 
L 325.521983 242.063679 
L 326.341818 241.441073 
L 327.161653 238.35232 
L 327.981488 238.726593 
L 328.801322 238.726661 
L 329.621157 239.574435 
L 330.440992 238.126172 
L 331.260826 238.761761 
L 332.080661 236.232094 
L 333.720331 235.336276 
L 334.540165 239.949468 
L 335.36 234.239653 
L 336.179835 236.068935 
L 336.999669 237.120928 
L 337.819504 232.680334 
L 338.639339 233.475239 
L 339.459174 233.839502 
L 340.279008 234.621067 
L 341.098843 232.973797 
L 341.918678 237.850678 
L 342.738512 233.985805 
L 343.558347 237.784698 
L 344.378182 232.737127 
L 345.198017 238.339112 
L 346.017851 235.52776 
L 346.837686 235.815512 
L 347.657521 237.741113 
L 348.477355 235.56456 
L 349.29719 238.710453 
L 350.117025 235.997794 
L 350.93686 237.156454 
L 351.756694 237.155391 
L 352.576529 235.771244 
L 353.396364 236.537457 
L 354.216198 240.215427 
L 355.036033 239.926639 
L 355.855868 239.079826 
L 356.675702 240.63407 
L 357.495537 237.900997 
L 358.315372 240.210631 
L 359.135207 241.064482 
L 359.955041 238.011346 
L 360.774876 237.799417 
L 361.594711 236.712679 
L 362.414545 238.039863 
L 363.23438 235.663755 
L 364.054215 229.747113 
L 364.87405 239.698243 
L 365.693884 238.46777 
L 366.513719 239.806084 
L 367.333554 235.498191 
L 368.153388 237.486082 
L 368.973223 233.509025 
L 369.793058 233.441189 
L 370.612893 233.036905 
L 372.252562 236.680726 
L 373.072397 234.720233 
L 373.892231 238.142981 
L 374.712066 238.77915 
L 375.531901 234.610522 
L 376.351736 237.143547 
L 377.17157 234.294184 
L 377.991405 232.114675 
L 378.81124 235.10941 
L 379.631074 235.442219 
L 380.450909 237.149429 
L 381.270744 236.984365 
L 382.090579 233.153468 
L 382.910413 231.704825 
L 383.730248 231.412435 
L 384.550083 230.886908 
L 385.369917 234.444627 
L 386.189752 228.669339 
L 387.009587 229.661965 
L 387.829421 236.348037 
L 388.649256 232.591513 
L 389.469091 225.97128 
L 390.288926 228.924595 
L 391.10876 236.939264 
L 391.928595 227.411976 
L 392.74843 236.852303 
L 393.568264 235.185049 
L 394.388099 233.845924 
L 395.207934 234.639807 
L 396.027769 231.990321 
L 396.847603 240.121454 
L 397.667438 237.150749 
L 398.487273 224.687145 
L 398.487273 224.687145 
" style="fill:none;stroke:#008000;stroke-dasharray:9.6,2.4,1.5,2.4;stroke-dashoffset:0;stroke-width:1.5;"/>
   </g>
   <g id="line2d_40">
    <path clip-path="url(#pbf36a7d8fa)" d="M 73.832727 262.267137 
L 74.652562 220.015164 
L 75.472397 241.781332 
L 76.292231 199.84945 
L 77.112066 188.966366 
L 77.931901 219.695074 
L 78.751736 177.443101 
L 80.391405 220.975436 
L 81.21124 231.53843 
L 82.031074 209.452171 
L 82.850909 179.043555 
L 83.670744 210.732534 
L 84.490579 231.53843 
L 85.310413 231.85852 
L 86.130248 199.529359 
L 86.950083 231.218339 
L 87.769917 242.101423 
L 88.589752 188.966366 
L 90.229421 231.53843 
L 91.049256 220.655346 
L 92.688926 261.947046 
L 93.50876 261.626955 
L 94.328595 242.101423 
L 95.14843 231.85852 
L 95.968264 261.947046 
L 96.788099 231.218339 
L 97.607934 230.898248 
L 98.427769 241.781332 
L 99.247603 262.267137 
L 100.067438 242.101423 
L 100.887273 209.772262 
L 101.707107 210.412443 
L 102.526942 230.578157 
L 103.346777 221.295527 
L 104.986446 198.889178 
L 105.806281 220.015164 
L 106.626116 199.209269 
L 108.265785 199.209269 
L 109.08562 209.772262 
L 109.905455 200.489632 
L 110.725289 200.169541 
L 111.545124 188.326185 
L 112.364959 167.84038 
L 113.184793 199.209269 
L 114.004628 199.209269 
L 114.824463 199.529359 
L 115.644298 210.092353 
L 116.464132 210.412443 
L 117.283967 209.452171 
L 118.103802 199.84945 
L 118.923636 210.092353 
L 119.743471 199.529359 
L 120.563306 199.209269 
L 121.38314 199.529359 
L 122.202975 189.606548 
L 123.842645 209.772262 
L 124.662479 209.452171 
L 125.482314 199.529359 
L 126.302149 220.335255 
L 127.121983 189.286457 
L 127.941818 135.511219 
L 128.761653 187.365913 
L 129.581488 188.646276 
L 130.401322 178.723464 
L 132.040992 221.295527 
L 132.860826 220.335255 
L 133.680661 210.412443 
L 134.500496 209.452171 
L 135.320331 198.889178 
L 136.140165 210.412443 
L 136.96 188.646276 
L 137.779835 188.646276 
L 138.599669 198.889178 
L 139.419504 188.966366 
L 140.239339 209.452171 
L 141.059174 199.529359 
L 141.879008 198.889178 
L 142.698843 199.209269 
L 143.518678 199.84945 
L 144.338512 199.209269 
L 145.158347 188.646276 
L 145.978182 209.452171 
L 146.798017 210.092353 
L 147.617851 210.412443 
L 149.257521 188.646276 
L 150.077355 188.326185 
L 150.89719 199.529359 
L 151.717025 199.529359 
L 152.53686 199.209269 
L 153.356694 189.606548 
L 154.176529 209.452171 
L 154.996364 198.889178 
L 155.816198 198.889178 
L 156.636033 189.286457 
L 157.455868 198.889178 
L 158.275702 177.763192 
L 159.095537 210.092353 
L 159.915372 177.763192 
L 160.735207 198.569087 
L 161.555041 199.529359 
L 162.374876 199.209269 
L 163.194711 177.763192 
L 164.014545 199.209269 
L 164.83438 209.452171 
L 165.654215 199.209269 
L 166.47405 177.763192 
L 167.293884 188.966366 
L 168.113719 221.935708 
L 169.753388 199.84945 
L 170.573223 209.772262 
L 171.393058 199.84945 
L 172.212893 220.335255 
L 173.852562 179.043555 
L 174.672397 188.006094 
L 175.492231 209.772262 
L 176.312066 199.209269 
L 177.131901 178.083283 
L 177.951736 209.772262 
L 178.77157 209.772262 
L 179.591405 188.646276 
L 181.231074 210.412443 
L 182.050909 199.529359 
L 182.870744 199.84945 
L 183.690579 198.889178 
L 184.510413 167.84038 
L 185.330248 187.365913 
L 186.150083 211.052625 
L 186.969917 209.772262 
L 187.789752 178.403373 
L 188.609587 209.452171 
L 189.429421 211.052625 
L 190.249256 198.569087 
L 191.069091 189.926638 
L 191.888926 188.966366 
L 192.70876 198.889178 
L 193.528595 188.326185 
L 194.34843 188.326185 
L 195.168264 199.84945 
L 195.988099 188.646276 
L 196.807934 188.326185 
L 198.447603 210.412443 
L 199.267438 209.772262 
L 200.087273 189.286457 
L 200.907107 199.84945 
L 201.726942 220.975436 
L 202.546777 198.889178 
L 203.366612 188.646276 
L 204.186446 199.209269 
L 205.006281 199.529359 
L 205.826116 166.560017 
L 206.64595 199.529359 
L 207.465785 188.646276 
L 208.28562 135.83131 
L 209.105455 188.646276 
L 209.925289 209.452171 
L 210.745124 178.403373 
L 211.564959 177.443101 
L 212.384793 220.655346 
L 213.204628 146.394303 
L 214.024463 188.006094 
L 214.844298 188.646276 
L 215.664132 209.772262 
L 216.483967 146.074212 
L 217.303802 188.646276 
L 218.123636 210.412443 
L 218.943471 198.889178 
L 219.763306 198.889178 
L 220.58314 188.966366 
L 222.22281 210.412443 
L 223.042645 188.646276 
L 223.862479 198.889178 
L 224.682314 198.889178 
L 225.502149 209.452171 
L 226.321983 200.169541 
L 227.141818 209.772262 
L 227.961653 209.13208 
L 228.781488 156.637206 
L 229.601322 199.529359 
L 230.421157 188.646276 
L 231.240992 198.569087 
L 232.060826 199.529359 
L 232.880661 188.966366 
L 233.700496 220.015164 
L 234.520331 199.209269 
L 235.340165 188.006094 
L 236.16 188.006094 
L 236.979835 167.520289 
L 237.799669 178.403373 
L 238.619504 209.13208 
L 239.439339 188.326185 
L 240.259174 210.412443 
L 241.079008 188.326185 
L 241.898843 199.84945 
L 242.718678 220.335255 
L 244.358347 178.723464 
L 245.178182 189.286457 
L 245.998017 209.452171 
L 246.817851 210.092353 
L 247.637686 198.889178 
L 248.457521 209.452171 
L 249.277355 198.889178 
L 250.09719 220.655346 
L 250.917025 179.043555 
L 251.73686 209.772262 
L 252.556694 178.403373 
L 253.376529 199.209269 
L 254.196364 199.209269 
L 255.016198 209.452171 
L 255.836033 199.529359 
L 256.655868 200.169541 
L 257.475702 198.248997 
L 259.115372 178.403373 
L 259.935207 210.092353 
L 260.755041 189.286457 
L 261.574876 179.043555 
L 262.394711 177.12301 
L 263.214545 199.529359 
L 264.03438 199.529359 
L 264.854215 199.84945 
L 265.67405 199.529359 
L 266.493884 199.84945 
L 267.313719 188.646276 
L 268.133554 199.209269 
L 270.593058 199.209269 
L 271.412893 200.809722 
L 272.232727 188.326185 
L 273.052562 209.452171 
L 273.872397 210.092353 
L 274.692231 199.529359 
L 275.512066 209.772262 
L 276.331901 189.286457 
L 277.151736 209.772262 
L 277.97157 210.092353 
L 278.791405 198.889178 
L 279.61124 211.052625 
L 280.431074 209.13208 
L 281.250909 199.209269 
L 282.070744 209.452171 
L 282.890579 198.569087 
L 283.710413 199.209269 
L 284.530248 210.092353 
L 285.350083 188.006094 
L 286.169917 188.326185 
L 286.989752 177.763192 
L 287.809587 146.074212 
L 288.629421 199.84945 
L 289.449256 198.889178 
L 291.088926 178.723464 
L 291.90876 199.209269 
L 292.728595 199.209269 
L 293.54843 209.772262 
L 294.368264 198.889178 
L 295.188099 200.489632 
L 296.827769 198.569087 
L 297.647603 198.569087 
L 298.467438 199.84945 
L 299.287273 210.412443 
L 300.107107 200.169541 
L 300.926942 210.412443 
L 301.746777 200.489632 
L 302.566612 177.763192 
L 303.386446 208.491899 
L 304.206281 209.772262 
L 305.026116 199.209269 
L 305.84595 220.015164 
L 306.665785 199.529359 
L 307.48562 209.772262 
L 308.305455 209.13208 
L 309.945124 189.286457 
L 310.764959 198.889178 
L 311.584793 199.209269 
L 312.404628 209.772262 
L 313.224463 209.772262 
L 314.044298 210.412443 
L 314.864132 178.403373 
L 315.683967 199.84945 
L 316.503802 199.209269 
L 317.323636 199.529359 
L 318.143471 219.695074 
L 318.963306 177.763192 
L 319.78314 199.84945 
L 320.602975 210.092353 
L 321.42281 200.169541 
L 322.242645 199.529359 
L 323.062479 177.763192 
L 323.882314 199.84945 
L 325.521983 220.655346 
L 326.341818 221.295527 
L 327.161653 209.452171 
L 327.981488 221.295527 
L 328.801322 223.216071 
L 329.621157 220.015164 
L 330.440992 226.416978 
L 331.260826 212.012897 
L 332.080661 221.935708 
L 332.900496 220.655346 
L 333.720331 210.412443 
L 334.540165 220.015164 
L 335.36 224.816525 
L 336.179835 220.335255 
L 336.999669 222.895981 
L 337.819504 178.723464 
L 338.639339 209.772262 
L 339.459174 199.209269 
L 340.279008 210.732534 
L 341.098843 210.412443 
L 341.918678 228.337522 
L 342.738512 203.370448 
L 343.558347 217.134348 
L 344.378182 195.688271 
L 345.198017 217.134348 
L 346.017851 179.043555 
L 346.837686 188.646276 
L 347.657521 225.136615 
L 348.477355 214.573622 
L 349.29719 224.496434 
L 350.117025 191.527092 
L 350.93686 221.295527 
L 351.756694 188.646276 
L 352.576529 177.763192 
L 353.396364 220.655346 
L 354.216198 222.895981 
L 355.036033 228.977704 
L 355.855868 209.772262 
L 356.675702 223.216071 
L 357.495537 218.09462 
L 358.315372 221.295527 
L 359.135207 223.856253 
L 359.955041 225.456706 
L 360.774876 212.332987 
L 362.414545 220.975436 
L 363.23438 202.410176 
L 364.054215 188.326185 
L 364.87405 216.174076 
L 365.693884 222.255799 
L 366.513719 221.295527 
L 367.333554 208.171808 
L 368.153388 218.414711 
L 368.973223 209.13208 
L 369.793058 189.926638 
L 370.612893 209.13208 
L 371.432727 219.374983 
L 372.252562 222.895981 
L 373.072397 222.895981 
L 373.892231 210.732534 
L 374.712066 215.533894 
L 375.531901 214.253532 
L 376.351736 224.176343 
L 377.17157 220.975436 
L 377.991405 219.374983 
L 378.81124 219.695074 
L 379.631074 210.412443 
L 380.450909 212.653078 
L 381.270744 199.84945 
L 382.090579 197.608815 
L 382.910413 200.169541 
L 383.730248 156.957296 
L 384.550083 134.230857 
L 385.369917 215.533894 
L 386.189752 161.118475 
L 387.009587 151.515754 
L 387.829421 182.244462 
L 388.649256 142.233124 
L 389.469091 172.32165 
L 390.288926 154.07648 
L 391.10876 184.485097 
L 391.928595 168.800652 
L 392.74843 214.253532 
L 393.568264 212.012897 
L 394.388099 216.494167 
L 395.207934 198.889178 
L 396.027769 168.480561 
L 396.847603 205.611083 
L 397.667438 211.692806 
L 398.487273 53.568 
L 398.487273 53.568 
" style="fill:none;stroke:#ff0000;stroke-linecap:square;stroke-width:1.5;"/>
   </g>
   <g id="patch_3">
    <path d="M 57.6 307.584 
L 57.6 41.472 
" style="fill:none;stroke:#000000;stroke-linecap:square;stroke-linejoin:miter;stroke-width:0.8;"/>
   </g>
   <g id="patch_4">
    <path d="M 414.72 307.584 
L 414.72 41.472 
" style="fill:none;stroke:#000000;stroke-linecap:square;stroke-linejoin:miter;stroke-width:0.8;"/>
   </g>
   <g id="patch_5">
    <path d="M 57.6 307.584 
L 414.72 307.584 
" style="fill:none;stroke:#000000;stroke-linecap:square;stroke-linejoin:miter;stroke-width:0.8;"/>
   </g>
   <g id="patch_6">
    <path d="M 57.6 41.472 
L 414.72 41.472 
" style="fill:none;stroke:#000000;stroke-linecap:square;stroke-linejoin:miter;stroke-width:0.8;"/>
   </g>
   <g id="text_21">
    <!-- Population's average and best fitness -->
    <g transform="translate(123.529687 35.472)scale(0.12 -0.12)">
     <defs>
      <path d="M 19.671875 64.796875 
L 19.671875 37.40625 
L 32.078125 37.40625 
Q 38.96875 37.40625 42.71875 40.96875 
Q 46.484375 44.53125 46.484375 51.125 
Q 46.484375 57.671875 42.71875 61.234375 
Q 38.96875 64.796875 32.078125 64.796875 
z
M 9.8125 72.90625 
L 32.078125 72.90625 
Q 44.34375 72.90625 50.609375 67.359375 
Q 56.890625 61.8125 56.890625 51.125 
Q 56.890625 40.328125 50.609375 34.8125 
Q 44.34375 29.296875 32.078125 29.296875 
L 19.671875 29.296875 
L 19.671875 0 
L 9.8125 0 
z
" id="DejaVuSans-80"/>
      <path d="M 18.109375 8.203125 
L 18.109375 -20.796875 
L 9.078125 -20.796875 
L 9.078125 54.6875 
L 18.109375 54.6875 
L 18.109375 46.390625 
Q 20.953125 51.265625 25.265625 53.625 
Q 29.59375 56 35.59375 56 
Q 45.5625 56 51.78125 48.09375 
Q 58.015625 40.1875 58.015625 27.296875 
Q 58.015625 14.40625 51.78125 6.484375 
Q 45.5625 -1.421875 35.59375 -1.421875 
Q 29.59375 -1.421875 25.265625 0.953125 
Q 20.953125 3.328125 18.109375 8.203125 
z
M 48.6875 27.296875 
Q 48.6875 37.203125 44.609375 42.84375 
Q 40.53125 48.484375 33.40625 48.484375 
Q 26.265625 48.484375 22.1875 42.84375 
Q 18.109375 37.203125 18.109375 27.296875 
Q 18.109375 17.390625 22.1875 11.75 
Q 26.265625 6.109375 33.40625 6.109375 
Q 40.53125 6.109375 44.609375 11.75 
Q 48.6875 17.390625 48.6875 27.296875 
z
" id="DejaVuSans-112"/>
      <path d="M 8.5 21.578125 
L 8.5 54.6875 
L 17.484375 54.6875 
L 17.484375 21.921875 
Q 17.484375 14.15625 20.5 10.265625 
Q 23.53125 6.390625 29.59375 6.390625 
Q 36.859375 6.390625 41.078125 11.03125 
Q 45.3125 15.671875 45.3125 23.6875 
L 45.3125 54.6875 
L 54.296875 54.6875 
L 54.296875 0 
L 45.3125 0 
L 45.3125 8.40625 
Q 42.046875 3.421875 37.71875 1 
Q 33.40625 -1.421875 27.6875 -1.421875 
Q 18.265625 -1.421875 13.375 4.4375 
Q 8.5 10.296875 8.5 21.578125 
z
M 31.109375 56 
z
" id="DejaVuSans-117"/>
      <path d="M 9.421875 75.984375 
L 18.40625 75.984375 
L 18.40625 0 
L 9.421875 0 
z
" id="DejaVuSans-108"/>
      <path d="M 17.921875 72.90625 
L 17.921875 45.796875 
L 9.625 45.796875 
L 9.625 72.90625 
z
" id="DejaVuSans-39"/>
      <path id="DejaVuSans-32"/>
      <path d="M 2.984375 54.6875 
L 12.5 54.6875 
L 29.59375 8.796875 
L 46.6875 54.6875 
L 56.203125 54.6875 
L 35.6875 0 
L 23.484375 0 
z
" id="DejaVuSans-118"/>
      <path d="M 45.40625 27.984375 
Q 45.40625 37.75 41.375 43.109375 
Q 37.359375 48.484375 30.078125 48.484375 
Q 22.859375 48.484375 18.828125 43.109375 
Q 14.796875 37.75 14.796875 27.984375 
Q 14.796875 18.265625 18.828125 12.890625 
Q 22.859375 7.515625 30.078125 7.515625 
Q 37.359375 7.515625 41.375 12.890625 
Q 45.40625 18.265625 45.40625 27.984375 
z
M 54.390625 6.78125 
Q 54.390625 -7.171875 48.1875 -13.984375 
Q 42 -20.796875 29.203125 -20.796875 
Q 24.46875 -20.796875 20.265625 -20.09375 
Q 16.0625 -19.390625 12.109375 -17.921875 
L 12.109375 -9.1875 
Q 16.0625 -11.328125 19.921875 -12.34375 
Q 23.78125 -13.375 27.78125 -13.375 
Q 36.625 -13.375 41.015625 -8.765625 
Q 45.40625 -4.15625 45.40625 5.171875 
L 45.40625 9.625 
Q 42.625 4.78125 38.28125 2.390625 
Q 33.9375 0 27.875 0 
Q 17.828125 0 11.671875 7.65625 
Q 5.515625 15.328125 5.515625 27.984375 
Q 5.515625 40.671875 11.671875 48.328125 
Q 17.828125 56 27.875 56 
Q 33.9375 56 38.28125 53.609375 
Q 42.625 51.21875 45.40625 46.390625 
L 45.40625 54.6875 
L 54.390625 54.6875 
z
" id="DejaVuSans-103"/>
      <path d="M 45.40625 46.390625 
L 45.40625 75.984375 
L 54.390625 75.984375 
L 54.390625 0 
L 45.40625 0 
L 45.40625 8.203125 
Q 42.578125 3.328125 38.25 0.953125 
Q 33.9375 -1.421875 27.875 -1.421875 
Q 17.96875 -1.421875 11.734375 6.484375 
Q 5.515625 14.40625 5.515625 27.296875 
Q 5.515625 40.1875 11.734375 48.09375 
Q 17.96875 56 27.875 56 
Q 33.9375 56 38.25 53.625 
Q 42.578125 51.265625 45.40625 46.390625 
z
M 14.796875 27.296875 
Q 14.796875 17.390625 18.875 11.75 
Q 22.953125 6.109375 30.078125 6.109375 
Q 37.203125 6.109375 41.296875 11.75 
Q 45.40625 17.390625 45.40625 27.296875 
Q 45.40625 37.203125 41.296875 42.84375 
Q 37.203125 48.484375 30.078125 48.484375 
Q 22.953125 48.484375 18.875 42.84375 
Q 14.796875 37.203125 14.796875 27.296875 
z
" id="DejaVuSans-100"/>
      <path d="M 48.6875 27.296875 
Q 48.6875 37.203125 44.609375 42.84375 
Q 40.53125 48.484375 33.40625 48.484375 
Q 26.265625 48.484375 22.1875 42.84375 
Q 18.109375 37.203125 18.109375 27.296875 
Q 18.109375 17.390625 22.1875 11.75 
Q 26.265625 6.109375 33.40625 6.109375 
Q 40.53125 6.109375 44.609375 11.75 
Q 48.6875 17.390625 48.6875 27.296875 
z
M 18.109375 46.390625 
Q 20.953125 51.265625 25.265625 53.625 
Q 29.59375 56 35.59375 56 
Q 45.5625 56 51.78125 48.09375 
Q 58.015625 40.1875 58.015625 27.296875 
Q 58.015625 14.40625 51.78125 6.484375 
Q 45.5625 -1.421875 35.59375 -1.421875 
Q 29.59375 -1.421875 25.265625 0.953125 
Q 20.953125 3.328125 18.109375 8.203125 
L 18.109375 0 
L 9.078125 0 
L 9.078125 75.984375 
L 18.109375 75.984375 
z
" id="DejaVuSans-98"/>
      <path d="M 37.109375 75.984375 
L 37.109375 68.5 
L 28.515625 68.5 
Q 23.6875 68.5 21.796875 66.546875 
Q 19.921875 64.59375 19.921875 59.515625 
L 19.921875 54.6875 
L 34.71875 54.6875 
L 34.71875 47.703125 
L 19.921875 47.703125 
L 19.921875 0 
L 10.890625 0 
L 10.890625 47.703125 
L 2.296875 47.703125 
L 2.296875 54.6875 
L 10.890625 54.6875 
L 10.890625 58.5 
Q 10.890625 67.625 15.140625 71.796875 
Q 19.390625 75.984375 28.609375 75.984375 
z
" id="DejaVuSans-102"/>
     </defs>
     <use xlink:href="#DejaVuSans-80"/>
     <use x="56.677734" xlink:href="#DejaVuSans-111"/>
     <use x="117.859375" xlink:href="#DejaVuSans-112"/>
     <use x="181.335938" xlink:href="#DejaVuSans-117"/>
     <use x="244.714844" xlink:href="#DejaVuSans-108"/>
     <use x="272.498047" xlink:href="#DejaVuSans-97"/>
     <use x="333.777344" xlink:href="#DejaVuSans-116"/>
     <use x="372.986328" xlink:href="#DejaVuSans-105"/>
     <use x="400.769531" xlink:href="#DejaVuSans-111"/>
     <use x="461.951172" xlink:href="#DejaVuSans-110"/>
     <use x="525.330078" xlink:href="#DejaVuSans-39"/>
     <use x="552.820312" xlink:href="#DejaVuSans-115"/>
     <use x="604.919922" xlink:href="#DejaVuSans-32"/>
     <use x="636.707031" xlink:href="#DejaVuSans-97"/>
     <use x="697.986328" xlink:href="#DejaVuSans-118"/>
     <use x="757.166016" xlink:href="#DejaVuSans-101"/>
     <use x="818.689453" xlink:href="#DejaVuSans-114"/>
     <use x="859.802734" xlink:href="#DejaVuSans-97"/>
     <use x="921.082031" xlink:href="#DejaVuSans-103"/>
     <use x="984.558594" xlink:href="#DejaVuSans-101"/>
     <use x="1046.082031" xlink:href="#DejaVuSans-32"/>
     <use x="1077.869141" xlink:href="#DejaVuSans-97"/>
     <use x="1139.148438" xlink:href="#DejaVuSans-110"/>
     <use x="1202.527344" xlink:href="#DejaVuSans-100"/>
     <use x="1266.003906" xlink:href="#DejaVuSans-32"/>
     <use x="1297.791016" xlink:href="#DejaVuSans-98"/>
     <use x="1361.267578" xlink:href="#DejaVuSans-101"/>
     <use x="1422.791016" xlink:href="#DejaVuSans-115"/>
     <use x="1474.890625" xlink:href="#DejaVuSans-116"/>
     <use x="1514.099609" xlink:href="#DejaVuSans-32"/>
     <use x="1545.886719" xlink:href="#DejaVuSans-102"/>
     <use x="1581.091797" xlink:href="#DejaVuSans-105"/>
     <use x="1608.875" xlink:href="#DejaVuSans-116"/>
     <use x="1648.083984" xlink:href="#DejaVuSans-110"/>
     <use x="1711.462891" xlink:href="#DejaVuSans-101"/>
     <use x="1772.986328" xlink:href="#DejaVuSans-115"/>
     <use x="1825.085938" xlink:href="#DejaVuSans-115"/>
    </g>
   </g>
   <g id="legend_1">
    <g id="patch_7">
     <path d="M 64.6 108.1845 
L 137.540625 108.1845 
Q 139.540625 108.1845 139.540625 106.1845 
L 139.540625 48.472 
Q 139.540625 46.472 137.540625 46.472 
L 64.6 46.472 
Q 62.6 46.472 62.6 48.472 
L 62.6 106.1845 
Q 62.6 108.1845 64.6 108.1845 
z
" style="fill:#ffffff;opacity:0.8;stroke:#cccccc;stroke-linejoin:miter;"/>
    </g>
    <g id="line2d_41">
     <path d="M 66.6 54.570438 
L 86.6 54.570438 
" style="fill:none;stroke:#0000ff;stroke-linecap:square;stroke-width:1.5;"/>
    </g>
    <g id="line2d_42"/>
    <g id="text_22">
     <!-- average -->
     <g transform="translate(94.6 58.070438)scale(0.1 -0.1)">
      <use xlink:href="#DejaVuSans-97"/>
      <use x="61.279297" xlink:href="#DejaVuSans-118"/>
      <use x="120.458984" xlink:href="#DejaVuSans-101"/>
      <use x="181.982422" xlink:href="#DejaVuSans-114"/>
      <use x="223.095703" xlink:href="#DejaVuSans-97"/>
      <use x="284.375" xlink:href="#DejaVuSans-103"/>
      <use x="347.851562" xlink:href="#DejaVuSans-101"/>
     </g>
    </g>
    <g id="line2d_43">
     <path d="M 66.6 69.248563 
L 86.6 69.248563 
" style="fill:none;stroke:#008000;stroke-dasharray:9.6,2.4,1.5,2.4;stroke-dashoffset:0;stroke-width:1.5;"/>
    </g>
    <g id="line2d_44"/>
    <g id="text_23">
     <!-- -1 sd -->
     <g transform="translate(94.6 72.748563)scale(0.1 -0.1)">
      <defs>
       <path d="M 4.890625 31.390625 
L 31.203125 31.390625 
L 31.203125 23.390625 
L 4.890625 23.390625 
z
" id="DejaVuSans-45"/>
      </defs>
      <use xlink:href="#DejaVuSans-45"/>
      <use x="36.083984" xlink:href="#DejaVuSans-49"/>
      <use x="99.707031" xlink:href="#DejaVuSans-32"/>
      <use x="131.494141" xlink:href="#DejaVuSans-115"/>
      <use x="183.59375" xlink:href="#DejaVuSans-100"/>
     </g>
    </g>
    <g id="line2d_45">
     <path d="M 66.6 83.926688 
L 86.6 83.926688 
" style="fill:none;stroke:#008000;stroke-dasharray:9.6,2.4,1.5,2.4;stroke-dashoffset:0;stroke-width:1.5;"/>
    </g>
    <g id="line2d_46"/>
    <g id="text_24">
     <!-- +1 sd -->
     <g transform="translate(94.6 87.426688)scale(0.1 -0.1)">
      <defs>
       <path d="M 46 62.703125 
L 46 35.5 
L 73.1875 35.5 
L 73.1875 27.203125 
L 46 27.203125 
L 46 0 
L 37.796875 0 
L 37.796875 27.203125 
L 10.59375 27.203125 
L 10.59375 35.5 
L 37.796875 35.5 
L 37.796875 62.703125 
z
" id="DejaVuSans-43"/>
      </defs>
      <use xlink:href="#DejaVuSans-43"/>
      <use x="83.789062" xlink:href="#DejaVuSans-49"/>
      <use x="147.412109" xlink:href="#DejaVuSans-32"/>
      <use x="179.199219" xlink:href="#DejaVuSans-115"/>
      <use x="231.298828" xlink:href="#DejaVuSans-100"/>
     </g>
    </g>
    <g id="line2d_47">
     <path d="M 66.6 98.604813 
L 86.6 98.604813 
" style="fill:none;stroke:#ff0000;stroke-linecap:square;stroke-width:1.5;"/>
    </g>
    <g id="line2d_48"/>
    <g id="text_25">
     <!-- best -->
     <g transform="translate(94.6 102.104813)scale(0.1 -0.1)">
      <use xlink:href="#DejaVuSans-98"/>
      <use x="63.476562" xlink:href="#DejaVuSans-101"/>
      <use x="125" xlink:href="#DejaVuSans-115"/>
      <use x="177.099609" xlink:href="#DejaVuSans-116"/>
     </g>
    </g>
   </g>
  </g>
 </g>
 <defs>
  <clipPath id="pbf36a7d8fa">
   <rect height="266.112" width="357.12" x="57.6" y="41.472"/>
  </clipPath>
 </defs>
</svg>
