<?xml version="1.0" encoding="UTF-8" standalone="no"?>
<!DOCTYPE svg PUBLIC "-//W3C//DTD SVG 1.1//EN"
 "http://www.w3.org/Graphics/SVG/1.1/DTD/svg11.dtd">
<!-- Generated by graphviz version 2.47.1 (20210417.1919)
 -->
<!-- Pages: 1 -->
<svg width="448pt" height="409pt"
 viewBox="0.00 0.00 447.85 408.78" xmlns="http://www.w3.org/2000/svg" xmlns:xlink="http://www.w3.org/1999/xlink">
<g id="graph0" class="graph" transform="scale(1 1) rotate(0) translate(4 404.78)">
<polygon fill="white" stroke="transparent" points="-4,4 -4,-404.78 443.85,-404.78 443.85,4 -4,4"/>
<!-- &#45;1 -->
<g id="node1" class="node">
<title>&#45;1</title>
<polygon fill="lightgray" stroke="black" points="262.25,-285.84 238.25,-285.84 238.25,-267.24 262.25,-267.24 262.25,-285.84"/>
<text text-anchor="middle" x="250.25" y="-273.84" font-family="Times,serif" font-size="9.00">&#45;1</text>
</g>
<!-- 0 -->
<g id="node5" class="node">
<title>0</title>
<ellipse fill="lightblue" stroke="black" cx="247.77" cy="-194.36" rx="14.49" ry="14.49"/>
<text text-anchor="middle" x="247.77" y="-191.66" font-family="Times,serif" font-size="9.00">0</text>
</g>
<!-- &#45;1&#45;&gt;0 -->
<g id="edge43" class="edge">
<title>&#45;1&#45;&gt;0</title>
<path fill="none" stroke="red" stroke-width="0.8" d="M249.96,-267.12C249.61,-255.54 249.01,-235.45 248.52,-219.31"/>
<polygon fill="red" stroke="red" stroke-width="0.8" points="252.01,-218.81 248.21,-208.92 245.01,-219.02 252.01,-218.81"/>
<text text-anchor="middle" x="242.79" y="-244.71" font-family="Times,serif" font-size="5.00">&#45;3.524</text>
</g>
<!-- 10468 -->
<g id="node6" class="node">
<title>10468</title>
<ellipse fill="white" stroke="black" cx="293.68" cy="-358.8" rx="27.45" ry="27.45"/>
<text text-anchor="middle" x="293.68" y="-356.1" font-family="Times,serif" font-size="9.00">10468</text>
</g>
<!-- &#45;1&#45;&gt;10468 -->
<g id="edge1" class="edge">
<title>&#45;1&#45;&gt;10468</title>
<path fill="none" stroke="green" stroke-width="0.3" d="M255.23,-285.98C260.31,-295.6 268.49,-311.1 276.01,-325.33"/>
<polygon fill="green" stroke="green" stroke-width="0.3" points="273.05,-327.21 280.81,-334.42 279.24,-323.95 273.05,-327.21"/>
<text text-anchor="middle" x="259.99" y="-307.15" font-family="Times,serif" font-size="5.00">1.000</text>
</g>
<!-- 10469 -->
<g id="node7" class="node">
<title>10469</title>
<ellipse fill="white" stroke="black" cx="207.05" cy="-352.14" rx="27.45" ry="27.45"/>
<text text-anchor="middle" x="207.05" y="-349.44" font-family="Times,serif" font-size="9.00">10469</text>
</g>
<!-- &#45;1&#45;&gt;10469 -->
<g id="edge2" class="edge">
<title>&#45;1&#45;&gt;10469</title>
<path fill="none" stroke="green" stroke-width="0.3" d="M244.78,-286.12C239.96,-294.54 232.67,-307.31 225.77,-319.37"/>
<polygon fill="green" stroke="green" stroke-width="0.3" points="222.55,-317.97 220.63,-328.38 228.63,-321.44 222.55,-317.97"/>
<text text-anchor="middle" x="229.65" y="-304.25" font-family="Times,serif" font-size="5.00">1.000</text>
</g>
<!-- 10470 -->
<g id="node8" class="node">
<title>10470</title>
<ellipse fill="white" stroke="black" cx="323.53" cy="-325.54" rx="27.45" ry="27.45"/>
<text text-anchor="middle" x="323.53" y="-322.84" font-family="Times,serif" font-size="9.00">10470</text>
</g>
<!-- &#45;1&#45;&gt;10470 -->
<g id="edge3" class="edge">
<title>&#45;1&#45;&gt;10470</title>
<path fill="none" stroke="green" stroke-width="0.3" d="M262.02,-284.42C270.26,-289.92 281.67,-297.55 292.43,-304.75"/>
<polygon fill="green" stroke="green" stroke-width="0.3" points="290.59,-307.73 300.85,-310.37 294.48,-301.91 290.59,-307.73"/>
<text text-anchor="middle" x="282.85" y="-296.08" font-family="Times,serif" font-size="5.00">1.000</text>
</g>
<!-- 7229 -->
<g id="node9" class="node">
<title>7229</title>
<ellipse fill="white" stroke="black" cx="177.39" cy="-290.09" rx="24.08" ry="24.08"/>
<text text-anchor="middle" x="177.39" y="-287.39" font-family="Times,serif" font-size="9.00">7229</text>
</g>
<!-- &#45;1&#45;&gt;7229 -->
<g id="edge4" class="edge">
<title>&#45;1&#45;&gt;7229</title>
<path fill="none" stroke="green" stroke-width="0.3" d="M238.22,-278.78C230.78,-280.16 220.83,-282.01 211.13,-283.81"/>
<polygon fill="green" stroke="green" stroke-width="0.3" points="210.42,-280.39 201.23,-285.65 211.7,-287.27 210.42,-280.39"/>
<text text-anchor="middle" x="219.05" y="-282.8" font-family="Times,serif" font-size="5.00">1.000</text>
</g>
<!-- &#45;2 -->
<g id="node2" class="node">
<title>&#45;2</title>
<polygon fill="lightgray" stroke="black" points="207.14,-207.34 183.14,-207.34 183.14,-188.74 207.14,-188.74 207.14,-207.34"/>
<text text-anchor="middle" x="195.14" y="-195.34" font-family="Times,serif" font-size="9.00">&#45;2</text>
</g>
<!-- &#45;2&#45;&gt;0 -->
<g id="edge46" class="edge">
<title>&#45;2&#45;&gt;0</title>
<path fill="none" stroke="red" stroke-width="0.52" d="M207.09,-197.2C211.82,-196.87 217.44,-196.48 222.98,-196.09"/>
<polygon fill="red" stroke="red" stroke-width="0.52" points="223.52,-199.56 233.25,-195.38 223.03,-192.58 223.52,-199.56"/>
<text text-anchor="middle" x="221.49" y="-198.15" font-family="Times,serif" font-size="5.00">&#45;2.124</text>
</g>
<!-- &#45;2&#45;&gt;7229 -->
<g id="edge5" class="edge">
<title>&#45;2&#45;&gt;7229</title>
<path fill="none" stroke="green" stroke-width="0.48" d="M193.31,-207.54C191.09,-219.06 187.22,-239.1 183.86,-256.55"/>
<polygon fill="green" stroke="green" stroke-width="0.48" points="180.41,-255.96 181.95,-266.44 187.28,-257.28 180.41,-255.96"/>
<text text-anchor="middle" x="182.96" y="-233.54" font-family="Times,serif" font-size="5.00">1.914</text>
</g>
<!-- 10460 -->
<g id="node10" class="node">
<title>10460</title>
<ellipse fill="white" stroke="black" cx="112.1" cy="-172.04" rx="27.45" ry="27.45"/>
<text text-anchor="middle" x="112.1" y="-169.34" font-family="Times,serif" font-size="9.00">10460</text>
</g>
<!-- &#45;2&#45;&gt;10460 -->
<g id="edge7" class="edge">
<title>&#45;2&#45;&gt;10460</title>
<path fill="none" stroke="green" stroke-width="0.48" d="M183.24,-194.31C174.04,-191.43 160.79,-187.28 148.21,-183.34"/>
<polygon fill="green" stroke="green" stroke-width="0.48" points="148.95,-179.91 138.36,-180.26 146.86,-186.59 148.95,-179.91"/>
<text text-anchor="middle" x="160.1" y="-190.33" font-family="Times,serif" font-size="5.00">1.914</text>
</g>
<!-- 10461 -->
<g id="node11" class="node">
<title>10461</title>
<ellipse fill="white" stroke="black" cx="279.03" cy="-118.81" rx="27.45" ry="27.45"/>
<text text-anchor="middle" x="279.03" y="-116.11" font-family="Times,serif" font-size="9.00">10461</text>
</g>
<!-- &#45;2&#45;&gt;10461 -->
<g id="edge9" class="edge">
<title>&#45;2&#45;&gt;10461</title>
<path fill="none" stroke="green" stroke-width="0.48" d="M205.09,-188.64C216.51,-177.86 235.7,-159.73 251.67,-144.65"/>
<polygon fill="green" stroke="green" stroke-width="0.48" points="254.34,-146.95 259.2,-137.54 249.53,-141.86 254.34,-146.95"/>
<text text-anchor="middle" x="222.76" y="-168.14" font-family="Times,serif" font-size="5.00">1.914</text>
</g>
<!-- &#45;3 -->
<g id="node3" class="node">
<title>&#45;3</title>
<polygon fill="lightgray" stroke="black" points="196.25,-134.34 172.24,-134.34 172.24,-115.74 196.25,-115.74 196.25,-134.34"/>
<text text-anchor="middle" x="184.25" y="-122.34" font-family="Times,serif" font-size="9.00">&#45;3</text>
</g>
<!-- &#45;3&#45;&gt;0 -->
<g id="edge44" class="edge">
<title>&#45;3&#45;&gt;0</title>
<path fill="none" stroke="red" stroke-width="0.8" d="M192.81,-134.39C202.46,-144.92 218.39,-162.3 230.62,-175.64"/>
<polygon fill="red" stroke="red" stroke-width="0.8" points="228.33,-178.33 237.67,-183.34 233.49,-173.6 228.33,-178.33"/>
<text text-anchor="middle" x="205.26" y="-156.52" font-family="Times,serif" font-size="5.00">&#45;3.524</text>
</g>
<!-- &#45;3&#45;&gt;10460 -->
<g id="edge6" class="edge">
<title>&#45;3&#45;&gt;10460</title>
<path fill="none" stroke="green" stroke-width="0.3" d="M172.33,-132.8C164.45,-137.93 153.73,-144.92 143.51,-151.58"/>
<polygon fill="green" stroke="green" stroke-width="0.3" points="141.59,-148.65 135.12,-157.04 145.41,-154.52 141.59,-148.65"/>
<text text-anchor="middle" x="152.3" y="-143.69" font-family="Times,serif" font-size="5.00">1.000</text>
</g>
<!-- 10471 -->
<g id="node12" class="node">
<title>10471</title>
<ellipse fill="white" stroke="black" cx="112.82" cy="-72.04" rx="27.45" ry="27.45"/>
<text text-anchor="middle" x="112.82" y="-69.34" font-family="Times,serif" font-size="9.00">10471</text>
</g>
<!-- &#45;3&#45;&gt;10471 -->
<g id="edge10" class="edge">
<title>&#45;3&#45;&gt;10471</title>
<path fill="none" stroke="green" stroke-width="0.3" d="M172.45,-116.29C164.38,-110.3 153.3,-102.08 142.88,-94.35"/>
<polygon fill="green" stroke="green" stroke-width="0.3" points="144.85,-91.45 134.74,-88.3 140.68,-97.07 144.85,-91.45"/>
<text text-anchor="middle" x="152.04" y="-100.82" font-family="Times,serif" font-size="5.00">1.000</text>
</g>
<!-- 10472 -->
<g id="node13" class="node">
<title>10472</title>
<ellipse fill="white" stroke="black" cx="147.59" cy="-48.26" rx="27.45" ry="27.45"/>
<text text-anchor="middle" x="147.59" y="-45.56" font-family="Times,serif" font-size="9.00">10472</text>
</g>
<!-- &#45;3&#45;&gt;10472 -->
<g id="edge11" class="edge">
<title>&#45;3&#45;&gt;10472</title>
<path fill="none" stroke="green" stroke-width="0.3" d="M179.75,-115.63C175.73,-107.2 169.58,-94.33 163.73,-82.08"/>
<polygon fill="green" stroke="green" stroke-width="0.3" points="166.83,-80.44 159.36,-72.93 160.51,-83.46 166.83,-80.44"/>
<text text-anchor="middle" x="166.12" y="-94.35" font-family="Times,serif" font-size="5.00">1.000</text>
</g>
<!-- 10473 -->
<g id="node14" class="node">
<title>10473</title>
<ellipse fill="white" stroke="black" cx="188.61" cy="-48.57" rx="27.45" ry="27.45"/>
<text text-anchor="middle" x="188.61" y="-45.87" font-family="Times,serif" font-size="9.00">10473</text>
</g>
<!-- &#45;3&#45;&gt;10473 -->
<g id="edge12" class="edge">
<title>&#45;3&#45;&gt;10473</title>
<path fill="none" stroke="green" stroke-width="0.3" d="M184.78,-115.66C185.21,-108.09 185.85,-96.91 186.48,-85.83"/>
<polygon fill="green" stroke="green" stroke-width="0.3" points="189.98,-85.98 187.05,-75.8 182.99,-85.58 189.98,-85.98"/>
<text text-anchor="middle" x="180.01" y="-96.25" font-family="Times,serif" font-size="5.00">1.000</text>
</g>
<!-- &#45;4 -->
<g id="node4" class="node">
<title>&#45;4</title>
<polygon fill="lightgray" stroke="black" points="342.67,-188.72 318.67,-188.72 318.67,-170.12 342.67,-170.12 342.67,-188.72"/>
<text text-anchor="middle" x="330.67" y="-176.72" font-family="Times,serif" font-size="9.00">&#45;4</text>
</g>
<!-- &#45;4&#45;&gt;0 -->
<g id="edge45" class="edge">
<title>&#45;4&#45;&gt;0</title>
<path fill="none" stroke="red" stroke-width="0.8" d="M318.79,-181.56C306.64,-183.75 287.42,-187.22 272.04,-189.99"/>
<polygon fill="red" stroke="red" stroke-width="0.8" points="271.35,-186.56 262.13,-191.77 272.59,-193.45 271.35,-186.56"/>
<text text-anchor="middle" x="288.96" y="-187.28" font-family="Times,serif" font-size="5.00">&#45;3.524</text>
</g>
<!-- &#45;4&#45;&gt;10461 -->
<g id="edge8" class="edge">
<title>&#45;4&#45;&gt;10461</title>
<path fill="none" stroke="green" stroke-width="0.3" d="M322.6,-169.95C317.4,-163.85 310.33,-155.55 303.41,-147.42"/>
<polygon fill="green" stroke="green" stroke-width="0.3" points="306.02,-145.1 296.87,-139.76 300.69,-149.64 306.02,-145.1"/>
<text text-anchor="middle" x="318.63" y="-160.19" font-family="Times,serif" font-size="5.00">1.000</text>
</g>
<!-- 10474 -->
<g id="node15" class="node">
<title>10474</title>
<ellipse fill="white" stroke="black" cx="397.66" cy="-213.53" rx="27.45" ry="27.45"/>
<text text-anchor="middle" x="397.66" y="-210.83" font-family="Times,serif" font-size="9.00">10474</text>
</g>
<!-- &#45;4&#45;&gt;10474 -->
<g id="edge13" class="edge">
<title>&#45;4&#45;&gt;10474</title>
<path fill="none" stroke="green" stroke-width="0.3" d="M342.65,-185.52C348.76,-188.63 356.53,-192.59 364.29,-196.54"/>
<polygon fill="green" stroke="green" stroke-width="0.3" points="362.8,-199.71 373.3,-201.13 365.98,-193.47 362.8,-199.71"/>
<text text-anchor="middle" x="347.85" y="-192.53" font-family="Times,serif" font-size="5.00">1.000</text>
</g>
<!-- 10475 -->
<g id="node16" class="node">
<title>10475</title>
<ellipse fill="white" stroke="black" cx="412.63" cy="-170.27" rx="27.45" ry="27.45"/>
<text text-anchor="middle" x="412.63" y="-167.57" font-family="Times,serif" font-size="9.00">10475</text>
</g>
<!-- &#45;4&#45;&gt;10475 -->
<g id="edge14" class="edge">
<title>&#45;4&#45;&gt;10475</title>
<path fill="none" stroke="green" stroke-width="0.3" d="M342.76,-178.07C351.44,-177.1 363.64,-175.74 375.41,-174.43"/>
<polygon fill="green" stroke="green" stroke-width="0.3" points="376.01,-177.88 385.56,-173.29 375.23,-170.92 376.01,-177.88"/>
<text text-anchor="middle" x="364.71" y="-177.75" font-family="Times,serif" font-size="5.00">1.000</text>
</g>
<!-- 10476 -->
<g id="node17" class="node">
<title>10476</title>
<ellipse fill="white" stroke="black" cx="403.59" cy="-123.92" rx="27.45" ry="27.45"/>
<text text-anchor="middle" x="403.59" y="-121.22" font-family="Times,serif" font-size="9.00">10476</text>
</g>
<!-- &#45;4&#45;&gt;10476 -->
<g id="edge15" class="edge">
<title>&#45;4&#45;&gt;10476</title>
<path fill="none" stroke="green" stroke-width="0.3" d="M342.71,-170.26C351.15,-163.83 362.83,-154.94 373.71,-146.66"/>
<polygon fill="green" stroke="green" stroke-width="0.3" points="375.96,-149.35 381.8,-140.5 371.72,-143.78 375.96,-149.35"/>
<text text-anchor="middle" x="363.83" y="-159.96" font-family="Times,serif" font-size="5.00">1.000</text>
</g>
<!-- 7181 -->
<g id="node27" class="node">
<title>7181</title>
<ellipse fill="white" stroke="black" cx="252.54" cy="-292.41" rx="24.08" ry="24.08"/>
<ellipse fill="none" stroke="black" cx="252.54" cy="-292.41" rx="28.08" ry="28.08"/>
<text text-anchor="middle" x="252.54" y="-289.71" font-family="Times,serif" font-size="9.00">7181</text>
</g>
<!-- 10468&#45;&gt;7181 -->
<g id="edge28" class="edge">
<title>10468&#45;&gt;7181</title>
<path fill="none" stroke="red" stroke-width="0.91" d="M279.29,-335.58C277.22,-332.23 275.04,-328.72 272.88,-325.23"/>
<polygon fill="red" stroke="red" stroke-width="0.91" points="275.79,-323.29 267.55,-316.63 269.84,-326.98 275.79,-323.29"/>
<text text-anchor="middle" x="269.63" y="-325.9" font-family="Times,serif" font-size="5.00">&#45;4.043</text>
</g>
<!-- 10469&#45;&gt;7181 -->
<g id="edge29" class="edge">
<title>10469&#45;&gt;7181</title>
<path fill="none" stroke="red" stroke-width="0.1" d="M223.73,-330.24C225.49,-327.93 227.3,-325.55 229.12,-323.17"/>
<polygon fill="red" stroke="red" stroke-width="0.1" points="231.98,-325.19 235.25,-315.11 226.41,-320.95 231.98,-325.19"/>
<text text-anchor="middle" x="232.05" y="-322.2" font-family="Times,serif" font-size="5.00">0.000</text>
</g>
<!-- 10470&#45;&gt;7181 -->
<g id="edge30" class="edge">
<title>10470&#45;&gt;7181</title>
<path fill="none" stroke="green" stroke-width="0.91" d="M298.71,-313.96C294.93,-312.19 290.97,-310.35 287.03,-308.51"/>
<polygon fill="green" stroke="green" stroke-width="0.91" points="288.5,-305.33 277.96,-304.27 285.54,-311.67 288.5,-305.33"/>
<text text-anchor="middle" x="287.24" y="-312.73" font-family="Times,serif" font-size="5.00">4.043</text>
</g>
<!-- 10457 -->
<g id="node18" class="node">
<title>10457</title>
<ellipse fill="white" stroke="black" cx="100.93" cy="-331.46" rx="27.45" ry="27.45"/>
<text text-anchor="middle" x="100.93" y="-328.76" font-family="Times,serif" font-size="9.00">10457</text>
</g>
<!-- 7229&#45;&gt;10457 -->
<g id="edge16" class="edge">
<title>7229&#45;&gt;10457</title>
<path fill="none" stroke="green" stroke-width="0.3" d="M156.09,-301.61C149.32,-305.28 141.66,-309.42 134.25,-313.43"/>
<polygon fill="green" stroke="green" stroke-width="0.3" points="132.21,-310.56 125.08,-318.4 135.54,-316.71 132.21,-310.56"/>
<text text-anchor="middle" x="139.54" y="-309.02" font-family="Times,serif" font-size="5.00">1.000</text>
</g>
<!-- 7970 -->
<g id="node21" class="node">
<title>7970</title>
<ellipse fill="white" stroke="black" cx="152.52" cy="-376.74" rx="24.08" ry="24.08"/>
<text text-anchor="middle" x="152.52" y="-374.04" font-family="Times,serif" font-size="9.00">7970</text>
</g>
<!-- 7229&#45;&gt;7970 -->
<g id="edge19" class="edge">
<title>7229&#45;&gt;7970</title>
<path fill="none" stroke="red" stroke-width="1.39" d="M170.72,-313.31C168.05,-322.63 164.91,-333.55 162,-343.68"/>
<polygon fill="red" stroke="red" stroke-width="1.39" points="158.59,-342.87 159.2,-353.45 165.32,-344.8 158.59,-342.87"/>
<text text-anchor="middle" x="159.91" y="-329.99" font-family="Times,serif" font-size="5.00">&#45;6.473</text>
</g>
<!-- 7615 -->
<g id="node24" class="node">
<title>7615</title>
<ellipse fill="white" stroke="black" cx="221.22" cy="-356.34" rx="24.08" ry="24.08"/>
<text text-anchor="middle" x="221.22" y="-353.64" font-family="Times,serif" font-size="9.00">7615</text>
</g>
<!-- 7229&#45;&gt;7615 -->
<g id="edge22" class="edge">
<title>7229&#45;&gt;7615</title>
<path fill="none" stroke="green" stroke-width="0.45" d="M190.78,-310.32C194.43,-315.85 198.46,-321.94 202.36,-327.83"/>
<polygon fill="green" stroke="green" stroke-width="0.45" points="199.48,-329.82 207.91,-336.22 205.32,-325.95 199.48,-329.82"/>
<text text-anchor="middle" x="202.19" y="-314.57" font-family="Times,serif" font-size="5.00">1.728</text>
</g>
<!-- 7229&#45;&gt;7181 -->
<g id="edge31" class="edge">
<title>7229&#45;&gt;7181</title>
<path fill="none" stroke="green" stroke-width="0.51" d="M201.58,-290.83C205.69,-290.96 210.03,-291.1 214.39,-291.23"/>
<polygon fill="green" stroke="green" stroke-width="0.51" points="214.37,-294.73 224.47,-291.54 214.58,-287.74 214.37,-294.73"/>
<text text-anchor="middle" x="213.61" y="-292.53" font-family="Times,serif" font-size="5.00">2.060</text>
</g>
<!-- 10466 -->
<g id="node19" class="node">
<title>10466</title>
<ellipse fill="white" stroke="black" cx="32.57" cy="-202.99" rx="27.45" ry="27.45"/>
<text text-anchor="middle" x="32.57" y="-200.29" font-family="Times,serif" font-size="9.00">10466</text>
</g>
<!-- 10460&#45;&gt;10466 -->
<g id="edge17" class="edge">
<title>10460&#45;&gt;10466</title>
<path fill="none" stroke="green" stroke-width="0.3" d="M86.5,-182C80.54,-184.32 74.09,-186.83 67.79,-189.28"/>
<polygon fill="green" stroke="green" stroke-width="0.3" points="66.17,-186.16 58.12,-193.04 68.71,-192.68 66.17,-186.16"/>
<text text-anchor="middle" x="71.52" y="-187.14" font-family="Times,serif" font-size="5.00">1.000</text>
</g>
<!-- 10464 -->
<g id="node22" class="node">
<title>10464</title>
<ellipse fill="white" stroke="black" cx="27.22" cy="-133.97" rx="27.45" ry="27.45"/>
<text text-anchor="middle" x="27.22" y="-131.27" font-family="Times,serif" font-size="9.00">10464</text>
</g>
<!-- 10460&#45;&gt;10464 -->
<g id="edge20" class="edge">
<title>10460&#45;&gt;10464</title>
<path fill="none" stroke="red" stroke-width="1.39" d="M87.09,-160.82C79.13,-157.25 70.18,-153.24 61.68,-149.42"/>
<polygon fill="red" stroke="red" stroke-width="1.39" points="62.9,-146.14 52.34,-145.24 60.04,-152.52 62.9,-146.14"/>
<text text-anchor="middle" x="67.93" y="-156.62" font-family="Times,serif" font-size="5.00">&#45;6.473</text>
</g>
<!-- 10462 -->
<g id="node25" class="node">
<title>10462</title>
<ellipse fill="white" stroke="black" cx="84.05" cy="-126.27" rx="27.45" ry="27.45"/>
<text text-anchor="middle" x="84.05" y="-123.57" font-family="Times,serif" font-size="9.00">10462</text>
</g>
<!-- 10460&#45;&gt;10462 -->
<g id="edge24" class="edge">
<title>10460&#45;&gt;10462</title>
<path fill="none" stroke="green" stroke-width="0.45" d="M97.74,-148.61C97.72,-148.57 97.69,-148.53 97.66,-148.48"/>
<polygon fill="green" stroke="green" stroke-width="0.45" points="105.79,-155.05 97.58,-148.35 99.82,-158.71 105.79,-155.05"/>
<text text-anchor="middle" x="92.08" y="-144.05" font-family="Times,serif" font-size="5.00">1.728</text>
</g>
<!-- 10458 -->
<g id="node28" class="node">
<title>10458</title>
<ellipse fill="white" stroke="black" cx="163.2" cy="-132.55" rx="27.42" ry="27.42"/>
<ellipse fill="none" stroke="black" cx="163.2" cy="-132.55" rx="31.45" ry="31.45"/>
<text text-anchor="middle" x="163.2" y="-129.85" font-family="Times,serif" font-size="9.00">10458</text>
</g>
<!-- 10460&#45;&gt;10458 -->
<g id="edge36" class="edge">
<title>10460&#45;&gt;10458</title>
<path fill="none" stroke="green" stroke-width="0.51" d="M133.77,-155.29C133.86,-155.22 133.96,-155.14 134.05,-155.07"/>
<polygon fill="green" stroke="green" stroke-width="0.51" points="132.6,-160.61 138.37,-151.73 128.32,-155.08 132.6,-160.61"/>
<text text-anchor="middle" x="139.54" y="-156.68" font-family="Times,serif" font-size="5.00">2.060</text>
</g>
<!-- 10467 -->
<g id="node20" class="node">
<title>10467</title>
<ellipse fill="white" stroke="black" cx="274.73" cy="-27.22" rx="27.45" ry="27.45"/>
<text text-anchor="middle" x="274.73" y="-24.52" font-family="Times,serif" font-size="9.00">10467</text>
</g>
<!-- 10461&#45;&gt;10467 -->
<g id="edge18" class="edge">
<title>10461&#45;&gt;10467</title>
<path fill="none" stroke="green" stroke-width="0.3" d="M277.74,-91.33C277.35,-83 276.91,-73.7 276.49,-64.83"/>
<polygon fill="green" stroke="green" stroke-width="0.3" points="279.98,-64.51 276.02,-54.68 272.99,-64.84 279.98,-64.51"/>
<text text-anchor="middle" x="271.49" y="-79.58" font-family="Times,serif" font-size="5.00">1.000</text>
</g>
<!-- 10465 -->
<g id="node23" class="node">
<title>10465</title>
<ellipse fill="white" stroke="black" cx="330.7" cy="-37.43" rx="27.45" ry="27.45"/>
<text text-anchor="middle" x="330.7" y="-34.73" font-family="Times,serif" font-size="9.00">10465</text>
</g>
<!-- 10461&#45;&gt;10465 -->
<g id="edge21" class="edge">
<title>10461&#45;&gt;10465</title>
<path fill="none" stroke="red" stroke-width="1.39" d="M293.7,-95.71C298.93,-87.46 304.93,-78.02 310.55,-69.18"/>
<polygon fill="red" stroke="red" stroke-width="1.39" points="313.59,-70.91 316,-60.59 307.68,-67.16 313.59,-70.91"/>
<text text-anchor="middle" x="295.67" y="-83.94" font-family="Times,serif" font-size="5.00">&#45;6.473</text>
</g>
<!-- 10463 -->
<g id="node26" class="node">
<title>10463</title>
<ellipse fill="white" stroke="black" cx="343.03" cy="-91.29" rx="27.45" ry="27.45"/>
<text text-anchor="middle" x="343.03" y="-88.59" font-family="Times,serif" font-size="9.00">10463</text>
</g>
<!-- 10461&#45;&gt;10463 -->
<g id="edge26" class="edge">
<title>10461&#45;&gt;10463</title>
<path fill="none" stroke="green" stroke-width="0.45" d="M304.32,-107.93C305.72,-107.33 307.13,-106.72 308.56,-106.11"/>
<polygon fill="green" stroke="green" stroke-width="0.45" points="310.11,-109.25 317.92,-102.09 307.35,-102.82 310.11,-109.25"/>
<text text-anchor="middle" x="312.06" y="-108.52" font-family="Times,serif" font-size="5.00">1.728</text>
</g>
<!-- 10459 -->
<g id="node29" class="node">
<title>10459</title>
<ellipse fill="white" stroke="black" cx="332.12" cy="-157.02" rx="27.42" ry="27.42"/>
<ellipse fill="none" stroke="black" cx="332.12" cy="-157.02" rx="31.45" ry="31.45"/>
<text text-anchor="middle" x="332.12" y="-154.32" font-family="Times,serif" font-size="9.00">10459</text>
</g>
<!-- 10461&#45;&gt;10459 -->
<g id="edge41" class="edge">
<title>10461&#45;&gt;10459</title>
<path fill="none" stroke="green" stroke-width="0.51" d="M301.24,-134.79C301.35,-134.88 301.47,-134.96 301.58,-135.04"/>
<polygon fill="green" stroke="green" stroke-width="0.51" points="296.58,-135.76 306.74,-138.76 300.67,-130.07 296.58,-135.76"/>
<text text-anchor="middle" x="307.03" y="-136.42" font-family="Times,serif" font-size="5.00">2.060</text>
</g>
<!-- 10471&#45;&gt;10458 -->
<g id="edge33" class="edge">
<title>10471&#45;&gt;10458</title>
<path fill="none" stroke="red" stroke-width="0.91" d="M130.44,-93.2C132.35,-95.5 134.33,-97.88 136.33,-100.27"/>
<polygon fill="red" stroke="red" stroke-width="0.91" points="134,-102.95 143.09,-108.39 139.38,-98.47 134,-102.95"/>
<text text-anchor="middle" x="126.92" y="-98.24" font-family="Times,serif" font-size="5.00">&#45;4.043</text>
</g>
<!-- 10472&#45;&gt;10458 -->
<g id="edge34" class="edge">
<title>10472&#45;&gt;10458</title>
<path fill="none" stroke="red" stroke-width="0.1" d="M152.61,-75.39C153.58,-80.63 154.62,-86.22 155.65,-91.77"/>
<polygon fill="red" stroke="red" stroke-width="0.1" points="152.21,-92.46 157.48,-101.66 159.1,-91.19 152.21,-92.46"/>
<text text-anchor="middle" x="148.5" y="-85.08" font-family="Times,serif" font-size="5.00">0.000</text>
</g>
<!-- 10473&#45;&gt;10458 -->
<g id="edge35" class="edge">
<title>10473&#45;&gt;10458</title>
<path fill="none" stroke="green" stroke-width="0.91" d="M180.71,-74.68C178.95,-80.49 177.04,-86.78 175.16,-93"/>
<polygon fill="green" stroke="green" stroke-width="0.91" points="171.79,-92.05 172.25,-102.63 178.49,-94.08 171.79,-92.05"/>
<text text-anchor="middle" x="172.31" y="-85.34" font-family="Times,serif" font-size="5.00">4.043</text>
</g>
<!-- 10474&#45;&gt;10459 -->
<g id="edge38" class="edge">
<title>10474&#45;&gt;10459</title>
<path fill="none" stroke="red" stroke-width="0.91" d="M376.93,-195.65C372.8,-192.09 368.38,-188.28 363.98,-184.49"/>
<polygon fill="red" stroke="red" stroke-width="0.91" points="366.02,-181.62 356.16,-177.74 361.44,-186.92 366.02,-181.62"/>
<text text-anchor="middle" x="364" y="-191.57" font-family="Times,serif" font-size="5.00">&#45;4.043</text>
</g>
<!-- 10475&#45;&gt;10459 -->
<g id="edge39" class="edge">
<title>10475&#45;&gt;10459</title>
<path fill="none" stroke="red" stroke-width="0.1" d="M385.37,-165.78C381.43,-165.13 377.3,-164.45 373.17,-163.77"/>
<polygon fill="red" stroke="red" stroke-width="0.1" points="373.39,-160.26 362.95,-162.09 372.25,-167.17 373.39,-160.26"/>
<text text-anchor="middle" x="373.65" y="-166.28" font-family="Times,serif" font-size="5.00">0.000</text>
</g>
<!-- 10476&#45;&gt;10459 -->
<g id="edge40" class="edge">
<title>10476&#45;&gt;10459</title>
<path fill="none" stroke="green" stroke-width="0.91" d="M378.59,-135.5C375.78,-136.8 372.88,-138.14 369.96,-139.5"/>
<polygon fill="green" stroke="green" stroke-width="0.91" points="368.25,-136.43 360.65,-143.81 371.19,-142.78 368.25,-136.43"/>
<text text-anchor="middle" x="368.65" y="-139" font-family="Times,serif" font-size="5.00">4.043</text>
</g>
<!-- 7970&#45;&gt;7615 -->
<g id="edge23" class="edge">
<title>7970&#45;&gt;7615</title>
<path fill="none" stroke="green" stroke-width="0.43" d="M175.78,-369.83C179.81,-368.63 184.06,-367.37 188.29,-366.11"/>
<polygon fill="green" stroke="green" stroke-width="0.43" points="189.39,-369.44 197.98,-363.24 187.4,-362.73 189.39,-369.44"/>
<text text-anchor="middle" x="182.03" y="-363.47" font-family="Times,serif" font-size="5.00">1.666</text>
</g>
<!-- 10464&#45;&gt;10462 -->
<g id="edge25" class="edge">
<title>10464&#45;&gt;10462</title>
<path fill="none" stroke="green" stroke-width="0.43" d="M54.3,-130.3C54.42,-130.28 54.53,-130.27 54.65,-130.25"/>
<polygon fill="green" stroke="green" stroke-width="0.43" points="47.61,-134.74 57.05,-129.93 46.67,-127.8 47.61,-134.74"/>
<text text-anchor="middle" x="60.1" y="-131.77" font-family="Times,serif" font-size="5.00">1.666</text>
</g>
<!-- 10465&#45;&gt;10463 -->
<g id="edge27" class="edge">
<title>10465&#45;&gt;10463</title>
<path fill="none" stroke="green" stroke-width="0.43" d="M336.79,-64.04C336.82,-64.15 336.84,-64.26 336.86,-64.36"/>
<polygon fill="green" stroke="green" stroke-width="0.43" points="331.29,-55.71 336.94,-64.68 338.12,-54.15 331.29,-55.71"/>
<text text-anchor="middle" x="331.2" y="-65.7" font-family="Times,serif" font-size="5.00">1.666</text>
</g>
<!-- 7615&#45;&gt;7181 -->
<g id="edge32" class="edge">
<title>7615&#45;&gt;7181</title>
<path fill="none" stroke="green" stroke-width="0.15" stroke-dasharray="1,5" d="M231.83,-334.7C233.02,-332.27 234.25,-329.75 235.5,-327.21"/>
<polygon fill="green" stroke="green" stroke-width="0.15" points="238.74,-328.53 240,-318.01 232.46,-325.45 238.74,-328.53"/>
<text text-anchor="middle" x="239.29" y="-326.45" font-family="Times,serif" font-size="5.00">0.250</text>
</g>
<!-- 10462&#45;&gt;10458 -->
<g id="edge37" class="edge">
<title>10462&#45;&gt;10458</title>
<path fill="none" stroke="green" stroke-width="0.15" stroke-dasharray="1,5" d="M111.29,-128.43C114.7,-128.7 118.25,-128.98 121.82,-129.26"/>
<polygon fill="green" stroke="green" stroke-width="0.15" points="121.58,-132.75 131.83,-130.06 122.14,-125.78 121.58,-132.75"/>
<text text-anchor="middle" x="122.18" y="-130.34" font-family="Times,serif" font-size="5.00">0.250</text>
</g>
<!-- 10463&#45;&gt;10459 -->
<g id="edge42" class="edge">
<title>10463&#45;&gt;10459</title>
<path fill="none" stroke="green" stroke-width="0.15" stroke-dasharray="1,5" d="M338.53,-118.4C338.5,-118.56 338.48,-118.72 338.45,-118.88"/>
<polygon fill="green" stroke="green" stroke-width="0.15" points="335.43,-115.68 337.25,-126.12 342.34,-116.83 335.43,-115.68"/>
<text text-anchor="middle" x="332.86" y="-120.14" font-family="Times,serif" font-size="5.00">0.250</text>
</g>
<!-- 7181&#45;&gt;0 -->
<g id="edge47" class="edge">
<title>7181&#45;&gt;0</title>
<path fill="none" stroke="green" stroke-width="0.32" d="M251.18,-264.31C250.48,-250.03 249.64,-232.82 248.97,-219.04"/>
<polygon fill="green" stroke="green" stroke-width="0.32" points="252.46,-218.67 248.48,-208.86 245.47,-219.01 252.46,-218.67"/>
<text text-anchor="middle" x="244.45" y="-237.18" font-family="Times,serif" font-size="5.00">1.105</text>
</g>
<!-- 10458&#45;&gt;0 -->
<g id="edge48" class="edge">
<title>10458&#45;&gt;0</title>
<path fill="none" stroke="green" stroke-width="0.32" d="M188.57,-151.09C201.14,-160.28 216.08,-171.2 227.81,-179.77"/>
<polygon fill="green" stroke="green" stroke-width="0.32" points="225.93,-182.73 236.07,-185.81 230.06,-177.08 225.93,-182.73"/>
<text text-anchor="middle" x="202.57" y="-166.93" font-family="Times,serif" font-size="5.00">1.105</text>
</g>
<!-- 10459&#45;&gt;0 -->
<g id="edge49" class="edge">
<title>10459&#45;&gt;0</title>
<path fill="none" stroke="green" stroke-width="0.32" d="M303.57,-169.66C292.81,-174.42 280.73,-179.77 270.57,-184.27"/>
<polygon fill="green" stroke="green" stroke-width="0.32" points="268.9,-181.18 261.17,-188.43 271.73,-187.58 268.9,-181.18"/>
<text text-anchor="middle" x="281.44" y="-178.46" font-family="Times,serif" font-size="5.00">1.105</text>
</g>
</g>
</svg>
