<?xml version="1.0" encoding="UTF-8" standalone="no"?>
<!DOCTYPE svg PUBLIC "-//W3C//DTD SVG 1.1//EN"
 "http://www.w3.org/Graphics/SVG/1.1/DTD/svg11.dtd">
<!-- Generated by graphviz version 2.47.1 (20210417.1919)
 -->
<!-- Pages: 1 -->
<svg width="373pt" height="386pt"
 viewBox="0.00 0.00 373.28 385.54" xmlns="http://www.w3.org/2000/svg" xmlns:xlink="http://www.w3.org/1999/xlink">
<g id="graph0" class="graph" transform="scale(1 1) rotate(0) translate(4 381.54)">
<polygon fill="white" stroke="transparent" points="-4,4 -4,-381.54 369.28,-381.54 369.28,4 -4,4"/>
<!-- &#45;1 -->
<g id="node1" class="node">
<title>&#45;1</title>
<polygon fill="lightgray" stroke="black" points="139.31,-94.65 115.31,-94.65 115.31,-76.05 139.31,-76.05 139.31,-94.65"/>
<text text-anchor="middle" x="127.31" y="-82.65" font-family="Times,serif" font-size="9.00">&#45;1</text>
</g>
<!-- 6857 -->
<g id="node6" class="node">
<title>6857</title>
<ellipse fill="white" stroke="black" cx="182.34" cy="-121" rx="24.08" ry="24.08"/>
<text text-anchor="middle" x="182.34" y="-118.3" font-family="Times,serif" font-size="9.00">6857</text>
</g>
<!-- &#45;1&#45;&gt;6857 -->
<g id="edge1" class="edge">
<title>&#45;1&#45;&gt;6857</title>
<path fill="none" stroke="red" stroke-width="0.37" d="M139.25,-93.09C143.36,-95.75 148.16,-98.86 153.04,-102.02"/>
<polygon fill="red" stroke="red" stroke-width="0.37" points="151.47,-105.17 161.76,-107.67 155.27,-99.3 151.47,-105.17"/>
<text text-anchor="middle" x="139.69" y="-99.05" font-family="Times,serif" font-size="5.00">&#45;1.361</text>
</g>
<!-- 7115 -->
<g id="node7" class="node">
<title>7115</title>
<ellipse fill="white" stroke="black" cx="161.13" cy="-146.22" rx="24.08" ry="24.08"/>
<text text-anchor="middle" x="161.13" y="-143.52" font-family="Times,serif" font-size="9.00">7115</text>
</g>
<!-- &#45;1&#45;&gt;7115 -->
<g id="edge4" class="edge">
<title>&#45;1&#45;&gt;7115</title>
<path fill="none" stroke="red" stroke-width="0.37" d="M132.59,-94.86C135.82,-100.68 140.15,-108.47 144.46,-116.23"/>
<polygon fill="red" stroke="red" stroke-width="0.37" points="141.53,-118.15 149.44,-125.19 147.65,-114.75 141.53,-118.15"/>
<text text-anchor="middle" x="144.99" y="-107.05" font-family="Times,serif" font-size="5.00">&#45;1.361</text>
</g>
<!-- 7116 -->
<g id="node8" class="node">
<title>7116</title>
<ellipse fill="white" stroke="black" cx="186.78" cy="-151.69" rx="24.08" ry="24.08"/>
<text text-anchor="middle" x="186.78" y="-148.99" font-family="Times,serif" font-size="9.00">7116</text>
</g>
<!-- &#45;1&#45;&gt;7116 -->
<g id="edge7" class="edge">
<title>&#45;1&#45;&gt;7116</title>
<path fill="none" stroke="red" stroke-width="0.37" d="M135.83,-94.86C143.12,-102.99 153.95,-115.07 163.76,-126.01"/>
<polygon fill="red" stroke="red" stroke-width="0.37" points="161.37,-128.59 170.65,-133.7 166.58,-123.92 161.37,-128.59"/>
<text text-anchor="middle" x="143.34" y="-111.93" font-family="Times,serif" font-size="5.00">&#45;1.361</text>
</g>
<!-- 7119 -->
<g id="node9" class="node">
<title>7119</title>
<ellipse fill="white" stroke="black" cx="46.31" cy="-73.46" rx="24.08" ry="24.08"/>
<text text-anchor="middle" x="46.31" y="-70.76" font-family="Times,serif" font-size="9.00">7119</text>
</g>
<!-- &#45;1&#45;&gt;7119 -->
<g id="edge10" class="edge">
<title>&#45;1&#45;&gt;7119</title>
<path fill="none" stroke="green" stroke-width="0.3" d="M115.36,-83.6C106.14,-82.25 92.92,-80.3 80.5,-78.48"/>
<polygon fill="green" stroke="green" stroke-width="0.3" points="80.77,-74.98 70.37,-76.99 79.76,-81.91 80.77,-74.98"/>
<text text-anchor="middle" x="92.3" y="-82.54" font-family="Times,serif" font-size="5.00">1.000</text>
</g>
<!-- 7120 -->
<g id="node10" class="node">
<title>7120</title>
<ellipse fill="white" stroke="black" cx="134.6" cy="-24.04" rx="24.08" ry="24.08"/>
<text text-anchor="middle" x="134.6" y="-21.34" font-family="Times,serif" font-size="9.00">7120</text>
</g>
<!-- &#45;1&#45;&gt;7120 -->
<g id="edge11" class="edge">
<title>&#45;1&#45;&gt;7120</title>
<path fill="none" stroke="green" stroke-width="0.3" d="M128.41,-76.04C129,-71.16 129.75,-64.85 130.52,-58.31"/>
<polygon fill="green" stroke="green" stroke-width="0.3" points="134.04,-58.38 131.75,-48.03 127.09,-57.55 134.04,-58.38"/>
<text text-anchor="middle" x="123.84" y="-68.68" font-family="Times,serif" font-size="5.00">1.000</text>
</g>
<!-- 7121 -->
<g id="node11" class="node">
<title>7121</title>
<ellipse fill="white" stroke="black" cx="82.75" cy="-36.51" rx="24.08" ry="24.08"/>
<text text-anchor="middle" x="82.75" y="-33.81" font-family="Times,serif" font-size="9.00">7121</text>
</g>
<!-- &#45;1&#45;&gt;7121 -->
<g id="edge12" class="edge">
<title>&#45;1&#45;&gt;7121</title>
<path fill="none" stroke="green" stroke-width="0.3" d="M118.72,-75.94C115.06,-71.93 110.61,-67.05 106.1,-62.11"/>
<polygon fill="green" stroke="green" stroke-width="0.3" points="108.4,-59.43 99.07,-54.4 103.23,-64.15 108.4,-59.43"/>
<text text-anchor="middle" x="106.78" y="-70.52" font-family="Times,serif" font-size="5.00">1.000</text>
</g>
<!-- 991 -->
<g id="node12" class="node">
<title>991</title>
<ellipse fill="white" stroke="black" cx="107.27" cy="-169.67" rx="20.72" ry="20.72"/>
<text text-anchor="middle" x="107.27" y="-166.97" font-family="Times,serif" font-size="9.00">991</text>
</g>
<!-- &#45;1&#45;&gt;991 -->
<g id="edge14" class="edge">
<title>&#45;1&#45;&gt;991</title>
<path fill="none" stroke="red" stroke-width="0.43" d="M125.09,-94.7C122.55,-105.39 118.25,-123.45 114.52,-139.17"/>
<polygon fill="red" stroke="red" stroke-width="0.43" points="111.08,-138.52 112.17,-149.06 117.89,-140.14 111.08,-138.52"/>
<text text-anchor="middle" x="126.26" y="-118.43" font-family="Times,serif" font-size="5.00">&#45;1.655</text>
</g>
<!-- &#45;2 -->
<g id="node2" class="node">
<title>&#45;2</title>
<polygon fill="lightgray" stroke="black" points="215.62,-240.09 191.62,-240.09 191.62,-221.48 215.62,-221.48 215.62,-240.09"/>
<text text-anchor="middle" x="203.62" y="-228.09" font-family="Times,serif" font-size="9.00">&#45;2</text>
</g>
<!-- 0 -->
<g id="node5" class="node">
<title>0</title>
<ellipse fill="lightblue" stroke="black" cx="182" cy="-193.35" rx="14.49" ry="14.49"/>
<text text-anchor="middle" x="182" y="-190.65" font-family="Times,serif" font-size="9.00">0</text>
</g>
<!-- &#45;2&#45;&gt;0 -->
<g id="edge43" class="edge">
<title>&#45;2&#45;&gt;0</title>
<path fill="none" stroke="green" stroke-width="0.74" d="M198.16,-221.34C196.98,-219.29 195.69,-217.05 194.36,-214.75"/>
<polygon fill="green" stroke="green" stroke-width="0.74" points="197.28,-212.81 189.25,-205.9 191.22,-216.31 197.28,-212.81"/>
<text text-anchor="middle" x="190.64" y="-213.54" font-family="Times,serif" font-size="5.00">3.180</text>
</g>
<!-- &#45;2&#45;&gt;991 -->
<g id="edge13" class="edge">
<title>&#45;2&#45;&gt;991</title>
<path fill="none" stroke="red" stroke-width="0.45" d="M191.81,-223.29C177.41,-214.16 152.64,-198.45 133.62,-186.39"/>
<polygon fill="red" stroke="red" stroke-width="0.45" points="135.4,-183.37 125.08,-180.97 131.65,-189.28 135.4,-183.37"/>
<text text-anchor="middle" x="156.26" y="-206.34" font-family="Times,serif" font-size="5.00">&#45;1.752</text>
</g>
<!-- 7111 -->
<g id="node13" class="node">
<title>7111</title>
<ellipse fill="white" stroke="black" cx="264.5" cy="-210.47" rx="24.08" ry="24.08"/>
<text text-anchor="middle" x="264.5" y="-207.77" font-family="Times,serif" font-size="9.00">7111</text>
</g>
<!-- &#45;2&#45;&gt;7111 -->
<g id="edge15" class="edge">
<title>&#45;2&#45;&gt;7111</title>
<path fill="none" stroke="red" stroke-width="0.45" d="M215.65,-226.77C220.36,-225.2 226,-223.32 231.76,-221.4"/>
<polygon fill="red" stroke="red" stroke-width="0.45" points="233.03,-224.66 241.41,-218.18 230.81,-218.02 233.03,-224.66"/>
<text text-anchor="middle" x="230.16" y="-225.58" font-family="Times,serif" font-size="5.00">&#45;1.752</text>
</g>
<!-- 7112 -->
<g id="node14" class="node">
<title>7112</title>
<ellipse fill="white" stroke="black" cx="192.83" cy="-277.04" rx="24.08" ry="24.08"/>
<text text-anchor="middle" x="192.83" y="-274.34" font-family="Times,serif" font-size="9.00">7112</text>
</g>
<!-- &#45;2&#45;&gt;7112 -->
<g id="edge17" class="edge">
<title>&#45;2&#45;&gt;7112</title>
<path fill="none" stroke="red" stroke-width="0.45" d="M201.44,-240.15C201.18,-241.25 200.91,-242.41 200.63,-243.62"/>
<polygon fill="red" stroke="red" stroke-width="0.45" points="197.18,-243 198.31,-253.54 203.99,-244.59 197.18,-243"/>
<text text-anchor="middle" x="194.58" y="-243.38" font-family="Times,serif" font-size="5.00">&#45;1.752</text>
</g>
<!-- &#45;3 -->
<g id="node3" class="node">
<title>&#45;3</title>
<polygon fill="lightgray" stroke="black" points="267.97,-133.21 243.97,-133.21 243.97,-114.61 267.97,-114.61 267.97,-133.21"/>
<text text-anchor="middle" x="255.97" y="-121.21" font-family="Times,serif" font-size="9.00">&#45;3</text>
</g>
<!-- &#45;3&#45;&gt;6857 -->
<g id="edge2" class="edge">
<title>&#45;3&#45;&gt;6857</title>
<path fill="none" stroke="red" stroke-width="0.37" d="M244.14,-123.44C236.66,-123.14 226.57,-122.75 216.71,-122.36"/>
<polygon fill="red" stroke="red" stroke-width="0.37" points="216.78,-118.86 206.65,-121.96 216.5,-125.85 216.78,-118.86"/>
<text text-anchor="middle" x="223.97" y="-124.4" font-family="Times,serif" font-size="5.00">&#45;1.361</text>
</g>
<!-- &#45;3&#45;&gt;7115 -->
<g id="edge5" class="edge">
<title>&#45;3&#45;&gt;7115</title>
<path fill="none" stroke="red" stroke-width="0.37" d="M243.96,-126.73C231.54,-129.65 211.6,-134.35 194.4,-138.4"/>
<polygon fill="red" stroke="red" stroke-width="0.37" points="193.59,-134.99 184.66,-140.69 195.2,-141.8 193.59,-134.99"/>
<text text-anchor="middle" x="225.63" y="-134.06" font-family="Times,serif" font-size="5.00">&#45;1.361</text>
</g>
<!-- &#45;3&#45;&gt;7116 -->
<g id="edge8" class="edge">
<title>&#45;3&#45;&gt;7116</title>
<path fill="none" stroke="red" stroke-width="0.37" d="M243.91,-128.75C236.92,-131.55 227.75,-135.24 218.81,-138.83"/>
<polygon fill="red" stroke="red" stroke-width="0.37" points="217.28,-135.67 209.31,-142.64 219.89,-142.16 217.28,-135.67"/>
<text text-anchor="middle" x="237.82" y="-129.29" font-family="Times,serif" font-size="5.00">&#45;1.361</text>
</g>
<!-- &#45;3&#45;&gt;7111 -->
<g id="edge16" class="edge">
<title>&#45;3&#45;&gt;7111</title>
<path fill="none" stroke="red" stroke-width="0.43" d="M256.91,-133.5C257.93,-143.8 259.6,-160.76 261.12,-176.15"/>
<polygon fill="red" stroke="red" stroke-width="0.43" points="257.67,-176.83 262.13,-186.44 264.63,-176.15 257.67,-176.83"/>
<text text-anchor="middle" x="252.56" y="-156.32" font-family="Times,serif" font-size="5.00">&#45;1.655</text>
</g>
<!-- 7122 -->
<g id="node15" class="node">
<title>7122</title>
<ellipse fill="white" stroke="black" cx="339.52" cy="-151.33" rx="24.08" ry="24.08"/>
<text text-anchor="middle" x="339.52" y="-148.63" font-family="Times,serif" font-size="9.00">7122</text>
</g>
<!-- &#45;3&#45;&gt;7122 -->
<g id="edge19" class="edge">
<title>&#45;3&#45;&gt;7122</title>
<path fill="none" stroke="green" stroke-width="0.3" d="M267.94,-127.84C278.1,-131.17 293.18,-136.12 306.89,-140.62"/>
<polygon fill="green" stroke="green" stroke-width="0.3" points="305.93,-143.99 316.53,-143.78 308.12,-137.34 305.93,-143.99"/>
<text text-anchor="middle" x="281.79" y="-129.73" font-family="Times,serif" font-size="5.00">1.000</text>
</g>
<!-- 7123 -->
<g id="node16" class="node">
<title>7123</title>
<ellipse fill="white" stroke="black" cx="292.49" cy="-70.66" rx="24.08" ry="24.08"/>
<text text-anchor="middle" x="292.49" y="-67.96" font-family="Times,serif" font-size="9.00">7123</text>
</g>
<!-- &#45;3&#45;&gt;7123 -->
<g id="edge20" class="edge">
<title>&#45;3&#45;&gt;7123</title>
<path fill="none" stroke="green" stroke-width="0.3" d="M262.67,-114.14C265.64,-109.81 269.31,-104.46 273.04,-99.01"/>
<polygon fill="green" stroke="green" stroke-width="0.3" points="276.11,-100.74 278.88,-90.51 270.33,-96.78 276.11,-100.74"/>
<text text-anchor="middle" x="262.23" y="-108.08" font-family="Times,serif" font-size="5.00">1.000</text>
</g>
<!-- 7124 -->
<g id="node17" class="node">
<title>7124</title>
<ellipse fill="white" stroke="black" cx="325.28" cy="-102.99" rx="24.08" ry="24.08"/>
<text text-anchor="middle" x="325.28" y="-100.29" font-family="Times,serif" font-size="9.00">7124</text>
</g>
<!-- &#45;3&#45;&gt;7124 -->
<g id="edge21" class="edge">
<title>&#45;3&#45;&gt;7124</title>
<path fill="none" stroke="green" stroke-width="0.3" d="M267.72,-120.36C274.57,-118.29 283.58,-115.57 292.43,-112.9"/>
<polygon fill="green" stroke="green" stroke-width="0.3" points="293.66,-116.19 302.23,-109.95 291.64,-109.48 293.66,-116.19"/>
<text text-anchor="middle" x="274.45" y="-118.13" font-family="Times,serif" font-size="5.00">1.000</text>
</g>
<!-- &#45;4 -->
<g id="node4" class="node">
<title>&#45;4</title>
<polygon fill="lightgray" stroke="black" points="140.58,-235.46 116.58,-235.46 116.58,-216.86 140.58,-216.86 140.58,-235.46"/>
<text text-anchor="middle" x="128.58" y="-223.46" font-family="Times,serif" font-size="9.00">&#45;4</text>
</g>
<!-- &#45;4&#45;&gt;6857 -->
<g id="edge3" class="edge">
<title>&#45;4&#45;&gt;6857</title>
<path fill="none" stroke="red" stroke-width="0.37" d="M133.35,-216.83C140.77,-202.31 155.41,-173.69 166.76,-151.49"/>
<polygon fill="red" stroke="red" stroke-width="0.37" points="169.95,-152.93 171.39,-142.43 163.72,-149.74 169.95,-152.93"/>
<text text-anchor="middle" x="143.6" y="-185.66" font-family="Times,serif" font-size="5.00">&#45;1.361</text>
</g>
<!-- &#45;4&#45;&gt;7115 -->
<g id="edge6" class="edge">
<title>&#45;4&#45;&gt;7115</title>
<path fill="none" stroke="red" stroke-width="0.37" d="M132.44,-216.67C136.33,-207.13 142.54,-191.88 148.19,-178.01"/>
<polygon fill="red" stroke="red" stroke-width="0.37" points="151.45,-179.29 151.98,-168.71 144.96,-176.65 151.45,-179.29"/>
<text text-anchor="middle" x="133.86" y="-198.84" font-family="Times,serif" font-size="5.00">&#45;1.361</text>
</g>
<!-- &#45;4&#45;&gt;7116 -->
<g id="edge9" class="edge">
<title>&#45;4&#45;&gt;7116</title>
<path fill="none" stroke="red" stroke-width="0.37" d="M135.95,-216.73C143.4,-207.2 155.26,-192.02 165.65,-178.73"/>
<polygon fill="red" stroke="red" stroke-width="0.37" points="168.47,-180.79 171.87,-170.76 162.96,-176.48 168.47,-180.79"/>
<text text-anchor="middle" x="157.26" y="-199.23" font-family="Times,serif" font-size="5.00">&#45;1.361</text>
</g>
<!-- &#45;4&#45;&gt;7112 -->
<g id="edge18" class="edge">
<title>&#45;4&#45;&gt;7112</title>
<path fill="none" stroke="red" stroke-width="0.43" d="M140.37,-235.49C147.52,-241.16 156.97,-248.64 165.87,-255.69"/>
<polygon fill="red" stroke="red" stroke-width="0.43" points="163.79,-258.51 173.81,-261.98 168.14,-253.02 163.79,-258.51"/>
<text text-anchor="middle" x="146.66" y="-247.09" font-family="Times,serif" font-size="5.00">&#45;1.655</text>
</g>
<!-- 7125 -->
<g id="node18" class="node">
<title>7125</title>
<ellipse fill="white" stroke="black" cx="116.07" cy="-323.29" rx="24.08" ry="24.08"/>
<text text-anchor="middle" x="116.07" y="-320.59" font-family="Times,serif" font-size="9.00">7125</text>
</g>
<!-- &#45;4&#45;&gt;7125 -->
<g id="edge22" class="edge">
<title>&#45;4&#45;&gt;7125</title>
<path fill="none" stroke="green" stroke-width="0.3" d="M127.38,-235.47C125.8,-247.73 122.94,-269.96 120.49,-288.98"/>
<polygon fill="green" stroke="green" stroke-width="0.3" points="116.99,-288.77 119.18,-299.14 123.93,-289.67 116.99,-288.77"/>
<text text-anchor="middle" x="118.31" y="-263.73" font-family="Times,serif" font-size="5.00">1.000</text>
</g>
<!-- 7126 -->
<g id="node19" class="node">
<title>7126</title>
<ellipse fill="white" stroke="black" cx="59.44" cy="-258.65" rx="24.08" ry="24.08"/>
<text text-anchor="middle" x="59.44" y="-255.95" font-family="Times,serif" font-size="9.00">7126</text>
</g>
<!-- &#45;4&#45;&gt;7126 -->
<g id="edge23" class="edge">
<title>&#45;4&#45;&gt;7126</title>
<path fill="none" stroke="green" stroke-width="0.3" d="M116.54,-231.82C109.36,-235.19 99.89,-239.65 90.72,-243.95"/>
<polygon fill="green" stroke="green" stroke-width="0.3" points="88.96,-240.91 81.4,-248.34 91.94,-247.25 88.96,-240.91"/>
<text text-anchor="middle" x="98.01" y="-239.39" font-family="Times,serif" font-size="5.00">1.000</text>
</g>
<!-- 7127 -->
<g id="node20" class="node">
<title>7127</title>
<ellipse fill="white" stroke="black" cx="76.7" cy="-293.45" rx="24.08" ry="24.08"/>
<text text-anchor="middle" x="76.7" y="-290.75" font-family="Times,serif" font-size="9.00">7127</text>
</g>
<!-- &#45;4&#45;&gt;7127 -->
<g id="edge24" class="edge">
<title>&#45;4&#45;&gt;7127</title>
<path fill="none" stroke="green" stroke-width="0.3" d="M121.37,-235.52C115.24,-243.46 106.14,-255.27 97.74,-266.16"/>
<polygon fill="green" stroke="green" stroke-width="0.3" points="94.86,-264.17 91.52,-274.23 100.4,-268.44 94.86,-264.17"/>
<text text-anchor="middle" x="103.93" y="-252.34" font-family="Times,serif" font-size="5.00">1.000</text>
</g>
<!-- 5348 -->
<g id="node24" class="node">
<title>5348</title>
<ellipse fill="white" stroke="black" cx="100.26" cy="-115.37" rx="24.08" ry="24.08"/>
<ellipse fill="none" stroke="black" cx="100.26" cy="-115.37" rx="28.08" ry="28.08"/>
<text text-anchor="middle" x="100.26" y="-112.67" font-family="Times,serif" font-size="9.00">5348</text>
</g>
<!-- 7119&#45;&gt;5348 -->
<g id="edge28" class="edge">
<title>7119&#45;&gt;5348</title>
<path fill="none" stroke="red" stroke-width="0.41" d="M65.48,-88.35C66.85,-89.42 68.26,-90.51 69.68,-91.61"/>
<polygon fill="red" stroke="red" stroke-width="0.41" points="67.78,-94.58 77.83,-97.95 72.08,-89.05 67.78,-94.58"/>
<text text-anchor="middle" x="74.03" y="-85.48" font-family="Times,serif" font-size="5.00">&#45;1.534</text>
</g>
<!-- 7120&#45;&gt;5348 -->
<g id="edge29" class="edge">
<title>7120&#45;&gt;5348</title>
<path fill="none" stroke="red" stroke-width="0.1" d="M126.11,-46.62C122.39,-56.5 117.94,-68.35 113.78,-79.4"/>
<polygon fill="red" stroke="red" stroke-width="0.1" points="110.48,-78.25 110.23,-88.84 117.03,-80.71 110.48,-78.25"/>
<text text-anchor="middle" x="114.32" y="-58.51" font-family="Times,serif" font-size="5.00">0.000</text>
</g>
<!-- 7121&#45;&gt;5348 -->
<g id="edge30" class="edge">
<title>7121&#45;&gt;5348</title>
<path fill="none" stroke="green" stroke-width="0.41" d="M88,-60.17C89.24,-65.75 90.59,-71.83 91.93,-77.86"/>
<polygon fill="green" stroke="green" stroke-width="0.41" points="88.56,-78.84 94.15,-87.84 95.39,-77.32 88.56,-78.84"/>
<text text-anchor="middle" x="84.34" y="-70.51" font-family="Times,serif" font-size="5.00">1.534</text>
</g>
<!-- 991&#45;&gt;0 -->
<g id="edge44" class="edge">
<title>991&#45;&gt;0</title>
<path fill="none" stroke="red" stroke-width="0.75" d="M127.3,-176.02C136.79,-179.03 148.21,-182.64 158.15,-185.79"/>
<polygon fill="red" stroke="red" stroke-width="0.75" points="157.25,-189.18 167.84,-188.86 159.36,-182.5 157.25,-189.18"/>
<text text-anchor="middle" x="136.27" y="-176.4" font-family="Times,serif" font-size="5.00">&#45;3.245</text>
</g>
<!-- 7110 -->
<g id="node21" class="node">
<title>7110</title>
<ellipse fill="white" stroke="black" cx="24.04" cy="-143.84" rx="24.08" ry="24.08"/>
<text text-anchor="middle" x="24.04" y="-141.14" font-family="Times,serif" font-size="9.00">7110</text>
</g>
<!-- 991&#45;&gt;7110 -->
<g id="edge25" class="edge">
<title>991&#45;&gt;7110</title>
<path fill="none" stroke="green" stroke-width="0.3" d="M87.12,-163.42C78.1,-160.62 67.23,-157.25 57.07,-154.09"/>
<polygon fill="green" stroke="green" stroke-width="0.3" points="57.83,-150.66 47.24,-151.04 55.76,-157.35 57.83,-150.66"/>
<text text-anchor="middle" x="66.47" y="-160.26" font-family="Times,serif" font-size="5.00">1.000</text>
</g>
<!-- 991&#45;&gt;5348 -->
<g id="edge31" class="edge">
<title>991&#45;&gt;5348</title>
<path fill="none" stroke="green" stroke-width="0.17" stroke-dasharray="1,5" d="M104.58,-148.83C104.57,-148.72 104.55,-148.61 104.54,-148.49"/>
<polygon fill="green" stroke="green" stroke-width="0.17" points="108.63,-152.83 103.87,-143.36 101.68,-153.73 108.63,-152.83"/>
<text text-anchor="middle" x="98.93" y="-144.16" font-family="Times,serif" font-size="5.00">0.333</text>
</g>
<!-- 7111&#45;&gt;0 -->
<g id="edge45" class="edge">
<title>7111&#45;&gt;0</title>
<path fill="none" stroke="red" stroke-width="0.1" d="M240.64,-205.52C229.93,-203.29 217.31,-200.67 206.52,-198.44"/>
<polygon fill="red" stroke="red" stroke-width="0.1" points="206.99,-194.96 196.49,-196.35 205.57,-201.81 206.99,-194.96"/>
<text text-anchor="middle" x="217.95" y="-203.48" font-family="Times,serif" font-size="5.00">0.000</text>
</g>
<!-- 7117 -->
<g id="node22" class="node">
<title>7117</title>
<ellipse fill="white" stroke="black" cx="341.24" cy="-225.47" rx="24.08" ry="24.08"/>
<text text-anchor="middle" x="341.24" y="-222.77" font-family="Times,serif" font-size="9.00">7117</text>
</g>
<!-- 7111&#45;&gt;7117 -->
<g id="edge26" class="edge">
<title>7111&#45;&gt;7117</title>
<path fill="none" stroke="green" stroke-width="0.3" d="M288.36,-215.13C294.42,-216.32 301.05,-217.61 307.5,-218.88"/>
<polygon fill="green" stroke="green" stroke-width="0.3" points="306.91,-222.32 317.39,-220.81 308.25,-215.45 306.91,-222.32"/>
<text text-anchor="middle" x="303.56" y="-218.5" font-family="Times,serif" font-size="5.00">1.000</text>
</g>
<!-- 7113 -->
<g id="node25" class="node">
<title>7113</title>
<ellipse fill="white" stroke="black" cx="281.94" cy="-164.22" rx="24.08" ry="24.08"/>
<ellipse fill="none" stroke="black" cx="281.94" cy="-164.22" rx="28.08" ry="28.08"/>
<text text-anchor="middle" x="281.94" y="-161.52" font-family="Times,serif" font-size="9.00">7113</text>
</g>
<!-- 7111&#45;&gt;7113 -->
<g id="edge36" class="edge">
<title>7111&#45;&gt;7113</title>
<path fill="none" stroke="green" stroke-width="0.17" stroke-dasharray="1,5" d="M273.01,-187.89C273.03,-187.84 273.05,-187.79 273.07,-187.75"/>
<polygon fill="green" stroke="green" stroke-width="0.17" points="272.86,-198.2 273.12,-187.61 266.31,-195.73 272.86,-198.2"/>
<text text-anchor="middle" x="278.67" y="-189.32" font-family="Times,serif" font-size="5.00">0.333</text>
</g>
<!-- 7112&#45;&gt;0 -->
<g id="edge46" class="edge">
<title>7112&#45;&gt;0</title>
<path fill="none" stroke="green" stroke-width="0.75" d="M189.7,-252.84C188.29,-241.97 186.63,-229.17 185.22,-218.23"/>
<polygon fill="green" stroke="green" stroke-width="0.75" points="188.65,-217.52 183.9,-208.05 181.71,-218.41 188.65,-217.52"/>
<text text-anchor="middle" x="181.83" y="-237.03" font-family="Times,serif" font-size="5.00">3.245</text>
</g>
<!-- 7118 -->
<g id="node23" class="node">
<title>7118</title>
<ellipse fill="white" stroke="black" cx="186.66" cy="-353.5" rx="24.08" ry="24.08"/>
<text text-anchor="middle" x="186.66" y="-350.8" font-family="Times,serif" font-size="9.00">7118</text>
</g>
<!-- 7112&#45;&gt;7118 -->
<g id="edge27" class="edge">
<title>7112&#45;&gt;7118</title>
<path fill="none" stroke="green" stroke-width="0.3" d="M190.88,-301.24C190.41,-307.01 189.9,-313.28 189.41,-319.4"/>
<polygon fill="green" stroke="green" stroke-width="0.3" points="185.91,-319.22 188.6,-329.47 192.89,-319.78 185.91,-319.22"/>
<text text-anchor="middle" x="184.52" y="-311.82" font-family="Times,serif" font-size="5.00">1.000</text>
</g>
<!-- 7114 -->
<g id="node26" class="node">
<title>7114</title>
<ellipse fill="white" stroke="black" cx="142.57" cy="-282.38" rx="24.08" ry="24.08"/>
<ellipse fill="none" stroke="black" cx="142.57" cy="-282.38" rx="28.08" ry="28.08"/>
<text text-anchor="middle" x="142.57" y="-279.68" font-family="Times,serif" font-size="9.00">7114</text>
</g>
<!-- 7112&#45;&gt;7114 -->
<g id="edge41" class="edge">
<title>7112&#45;&gt;7114</title>
<path fill="none" stroke="green" stroke-width="0.17" stroke-dasharray="1,5" d="M168.88,-279.59C168.83,-279.59 168.78,-279.6 168.73,-279.6"/>
<polygon fill="green" stroke="green" stroke-width="0.17" points="178.15,-275.08 168.57,-279.62 178.89,-282.04 178.15,-275.08"/>
<text text-anchor="middle" x="163.18" y="-281.1" font-family="Times,serif" font-size="5.00">0.333</text>
</g>
<!-- 7122&#45;&gt;7113 -->
<g id="edge33" class="edge">
<title>7122&#45;&gt;7113</title>
<path fill="none" stroke="red" stroke-width="0.41" d="M315.77,-156.65C315.63,-156.67 315.5,-156.7 315.37,-156.73"/>
<polygon fill="red" stroke="red" stroke-width="0.41" points="318.38,-152.47 309.38,-158.07 319.91,-159.31 318.38,-152.47"/>
<text text-anchor="middle" x="309.11" y="-158.19" font-family="Times,serif" font-size="5.00">&#45;1.534</text>
</g>
<!-- 7123&#45;&gt;7113 -->
<g id="edge34" class="edge">
<title>7123&#45;&gt;7113</title>
<path fill="none" stroke="red" stroke-width="0.1" d="M289.78,-94.76C288.69,-104.36 287.42,-115.64 286.22,-126.29"/>
<polygon fill="red" stroke="red" stroke-width="0.1" points="282.74,-125.9 285.1,-136.23 289.7,-126.68 282.74,-125.9"/>
<text text-anchor="middle" x="282.37" y="-112.02" font-family="Times,serif" font-size="5.00">0.000</text>
</g>
<!-- 7124&#45;&gt;7113 -->
<g id="edge35" class="edge">
<title>7124&#45;&gt;7113</title>
<path fill="none" stroke="green" stroke-width="0.41" d="M311.33,-122.7C309.05,-125.91 306.65,-129.31 304.24,-132.72"/>
<polygon fill="green" stroke="green" stroke-width="0.41" points="301.2,-130.95 298.28,-141.13 306.92,-134.99 301.2,-130.95"/>
<text text-anchor="middle" x="302.16" y="-129.21" font-family="Times,serif" font-size="5.00">1.534</text>
</g>
<!-- 7125&#45;&gt;7114 -->
<g id="edge38" class="edge">
<title>7125&#45;&gt;7114</title>
<path fill="none" stroke="red" stroke-width="0.41" d="M129.32,-302.84C129.37,-302.76 129.42,-302.68 129.47,-302.6"/>
<polygon fill="red" stroke="red" stroke-width="0.41" points="127.13,-312.65 129.63,-302.36 121.25,-308.85 127.13,-312.65"/>
<text text-anchor="middle" x="122.94" y="-304.22" font-family="Times,serif" font-size="5.00">&#45;1.534</text>
</g>
<!-- 7126&#45;&gt;7114 -->
<g id="edge39" class="edge">
<title>7126&#45;&gt;7114</title>
<path fill="none" stroke="red" stroke-width="0.1" d="M82.6,-265.26C89.76,-267.31 97.83,-269.61 105.68,-271.85"/>
<polygon fill="red" stroke="red" stroke-width="0.1" points="104.84,-275.25 115.42,-274.63 106.76,-268.52 104.84,-275.25"/>
<text text-anchor="middle" x="99.77" y="-264.06" font-family="Times,serif" font-size="5.00">0.000</text>
</g>
<!-- 7127&#45;&gt;7114 -->
<g id="edge40" class="edge">
<title>7127&#45;&gt;7114</title>
<path fill="none" stroke="green" stroke-width="0.41" d="M100.48,-289.46C101.76,-289.24 103.07,-289.02 104.39,-288.8"/>
<polygon fill="green" stroke="green" stroke-width="0.41" points="105.28,-292.2 114.56,-287.09 104.12,-285.3 105.28,-292.2"/>
<text text-anchor="middle" x="108.06" y="-290.63" font-family="Times,serif" font-size="5.00">1.534</text>
</g>
<!-- 7110&#45;&gt;5348 -->
<g id="edge32" class="edge">
<title>7110&#45;&gt;5348</title>
<path fill="none" stroke="green" stroke-width="0.17" stroke-dasharray="1,5" d="M46.91,-135.3C52.36,-133.26 58.31,-131.04 64.19,-128.84"/>
<polygon fill="green" stroke="green" stroke-width="0.17" points="65.78,-131.98 73.93,-125.2 63.33,-125.43 65.78,-131.98"/>
<text text-anchor="middle" x="61.17" y="-133.57" font-family="Times,serif" font-size="5.00">0.333</text>
</g>
<!-- 7117&#45;&gt;7113 -->
<g id="edge37" class="edge">
<title>7117&#45;&gt;7113</title>
<path fill="none" stroke="green" stroke-width="0.17" stroke-dasharray="1,5" d="M324.4,-208.08C319.51,-203.02 314.03,-197.37 308.69,-191.85"/>
<polygon fill="green" stroke="green" stroke-width="0.17" points="311.01,-189.22 301.54,-184.47 305.98,-194.08 311.01,-189.22"/>
<text text-anchor="middle" x="310.92" y="-201.46" font-family="Times,serif" font-size="5.00">0.333</text>
</g>
<!-- 7118&#45;&gt;7114 -->
<g id="edge42" class="edge">
<title>7118&#45;&gt;7114</title>
<path fill="none" stroke="green" stroke-width="0.17" stroke-dasharray="1,5" d="M173.9,-332.93C170.45,-327.36 166.63,-321.2 162.87,-315.14"/>
<polygon fill="green" stroke="green" stroke-width="0.17" points="165.71,-313.08 157.47,-306.42 159.76,-316.77 165.71,-313.08"/>
<text text-anchor="middle" x="162.76" y="-319.53" font-family="Times,serif" font-size="5.00">0.333</text>
</g>
<!-- 5348&#45;&gt;0 -->
<g id="edge47" class="edge">
<title>5348&#45;&gt;0</title>
<path fill="none" stroke="red" stroke-width="1.4" d="M120.88,-135.04C134.2,-147.75 151.35,-164.11 164.09,-176.27"/>
<polygon fill="red" stroke="red" stroke-width="1.4" points="161.73,-178.85 171.38,-183.22 166.56,-173.79 161.73,-178.85"/>
<text text-anchor="middle" x="136.03" y="-157.16" font-family="Times,serif" font-size="5.00">&#45;6.500</text>
</g>
<!-- 7113&#45;&gt;0 -->
<g id="edge48" class="edge">
<title>7113&#45;&gt;0</title>
<path fill="none" stroke="red" stroke-width="1.4" d="M254.89,-172.1C239.64,-176.55 220.74,-182.06 206.01,-186.35"/>
<polygon fill="red" stroke="red" stroke-width="1.4" points="204.75,-183.07 196.13,-189.23 206.71,-189.79 204.75,-183.07"/>
<text text-anchor="middle" x="223.99" y="-180.72" font-family="Times,serif" font-size="5.00">&#45;6.500</text>
</g>
<!-- 7114&#45;&gt;0 -->
<g id="edge49" class="edge">
<title>7114&#45;&gt;0</title>
<path fill="none" stroke="red" stroke-width="1.4" d="M153.97,-256.63C159.68,-243.74 166.52,-228.29 172.02,-215.88"/>
<polygon fill="red" stroke="red" stroke-width="1.4" points="175.24,-217.24 176.09,-206.68 168.84,-214.41 175.24,-217.24"/>
<text text-anchor="middle" x="156.54" y="-237.75" font-family="Times,serif" font-size="5.00">&#45;6.500</text>
</g>
</g>
</svg>
