<?xml version="1.0" encoding="UTF-8" standalone="no"?>
<!DOCTYPE svg PUBLIC "-//W3C//DTD SVG 1.1//EN"
 "http://www.w3.org/Graphics/SVG/1.1/DTD/svg11.dtd">
<!-- Generated by graphviz version 2.47.1 (20210417.1919)
 -->
<!-- Pages: 1 -->
<svg width="512pt" height="452pt"
 viewBox="0.00 0.00 511.69 452.30" xmlns="http://www.w3.org/2000/svg" xmlns:xlink="http://www.w3.org/1999/xlink">
<g id="graph0" class="graph" transform="scale(1 1) rotate(0) translate(4 448.3)">
<polygon fill="white" stroke="transparent" points="-4,4 -4,-448.3 507.69,-448.3 507.69,4 -4,4"/>
<!-- &#45;1 -->
<g id="node1" class="node">
<title>&#45;1</title>
<polygon fill="lightgray" stroke="black" points="222.75,-104.55 198.75,-104.55 198.75,-85.94 222.75,-85.94 222.75,-104.55"/>
<text text-anchor="middle" x="210.75" y="-92.54" font-family="Times,serif" font-size="9.00">&#45;1</text>
</g>
<!-- 0 -->
<g id="node5" class="node">
<title>0</title>
<ellipse fill="lightblue" stroke="black" cx="244.04" cy="-180.53" rx="14.49" ry="14.49"/>
<text text-anchor="middle" x="244.04" y="-177.83" font-family="Times,serif" font-size="9.00">0</text>
</g>
<!-- &#45;1&#45;&gt;0 -->
<g id="edge43" class="edge">
<title>&#45;1&#45;&gt;0</title>
<path fill="none" stroke="green" stroke-width="0.57" d="M214.44,-104.7C219.36,-117.31 228.25,-140.08 235.01,-157.38"/>
<polygon fill="green" stroke="green" stroke-width="0.57" points="231.79,-158.78 238.69,-166.82 238.31,-156.23 231.79,-158.78"/>
<text text-anchor="middle" x="219.1" y="-132.54" font-family="Times,serif" font-size="5.00">2.371</text>
</g>
<!-- 902 -->
<g id="node6" class="node">
<title>902</title>
<ellipse fill="white" stroke="black" cx="240.03" cy="-128.08" rx="20.72" ry="20.72"/>
<text text-anchor="middle" x="240.03" y="-125.38" font-family="Times,serif" font-size="9.00">902</text>
</g>
<!-- &#45;1&#45;&gt;902 -->
<g id="edge1" class="edge">
<title>&#45;1&#45;&gt;902</title>
<path fill="none" stroke="green" stroke-width="0.25" d="M219.06,-104.57C219.2,-104.72 219.33,-104.87 219.47,-105.02"/>
<polygon fill="green" stroke="green" stroke-width="0.25" points="216.72,-107.2 225.99,-112.34 221.95,-102.54 216.72,-107.2"/>
<text text-anchor="middle" x="213.64" y="-106.3" font-family="Times,serif" font-size="5.00">0.746</text>
</g>
<!-- 911 -->
<g id="node9" class="node">
<title>911</title>
<ellipse fill="white" stroke="black" cx="145.01" cy="-41.64" rx="20.72" ry="20.72"/>
<text text-anchor="middle" x="145.01" y="-38.94" font-family="Times,serif" font-size="9.00">911</text>
</g>
<!-- &#45;1&#45;&gt;911 -->
<g id="edge4" class="edge">
<title>&#45;1&#45;&gt;911</title>
<path fill="none" stroke="green" stroke-width="0.3" d="M199.3,-85.91C191,-79.14 179.47,-69.74 169.17,-61.34"/>
<polygon fill="green" stroke="green" stroke-width="0.3" points="171.22,-58.49 161.25,-54.89 166.79,-63.92 171.22,-58.49"/>
<text text-anchor="middle" x="178.61" y="-75.12" font-family="Times,serif" font-size="5.00">1.000</text>
</g>
<!-- 912 -->
<g id="node10" class="node">
<title>912</title>
<ellipse fill="white" stroke="black" cx="224.63" cy="-21.13" rx="20.72" ry="20.72"/>
<text text-anchor="middle" x="224.63" y="-18.43" font-family="Times,serif" font-size="9.00">912</text>
</g>
<!-- &#45;1&#45;&gt;912 -->
<g id="edge5" class="edge">
<title>&#45;1&#45;&gt;912</title>
<path fill="none" stroke="green" stroke-width="0.3" d="M212.51,-85.86C214.11,-77.28 216.58,-64.09 218.87,-51.86"/>
<polygon fill="green" stroke="green" stroke-width="0.3" points="222.33,-52.4 220.73,-41.93 215.45,-51.11 222.33,-52.4"/>
<text text-anchor="middle" x="210.07" y="-70.36" font-family="Times,serif" font-size="5.00">1.000</text>
</g>
<!-- 913 -->
<g id="node11" class="node">
<title>913</title>
<ellipse fill="white" stroke="black" cx="183.35" cy="-20.86" rx="20.72" ry="20.72"/>
<text text-anchor="middle" x="183.35" y="-18.16" font-family="Times,serif" font-size="9.00">913</text>
</g>
<!-- &#45;1&#45;&gt;913 -->
<g id="edge6" class="edge">
<title>&#45;1&#45;&gt;913</title>
<path fill="none" stroke="green" stroke-width="0.3" d="M207.28,-85.82C203.95,-76.79 198.75,-62.68 194.05,-49.91"/>
<polygon fill="green" stroke="green" stroke-width="0.3" points="197.33,-48.69 190.59,-40.51 190.76,-51.11 197.33,-48.69"/>
<text text-anchor="middle" x="195.04" y="-69.37" font-family="Times,serif" font-size="5.00">1.000</text>
</g>
<!-- 125 -->
<g id="node12" class="node">
<title>125</title>
<ellipse fill="white" stroke="black" cx="174.07" cy="-156.76" rx="20.72" ry="20.72"/>
<text text-anchor="middle" x="174.07" y="-154.06" font-family="Times,serif" font-size="9.00">125</text>
</g>
<!-- &#45;1&#45;&gt;125 -->
<g id="edge7" class="edge">
<title>&#45;1&#45;&gt;125</title>
<path fill="none" stroke="green" stroke-width="0.3" d="M205.18,-104.59C201.15,-111.34 195.49,-120.84 190.1,-129.88"/>
<polygon fill="green" stroke="green" stroke-width="0.3" points="186.99,-128.26 184.87,-138.65 193,-131.85 186.99,-128.26"/>
<text text-anchor="middle" x="203.27" y="-118.73" font-family="Times,serif" font-size="5.00">1.000</text>
</g>
<!-- &#45;2 -->
<g id="node2" class="node">
<title>&#45;2</title>
<polygon fill="lightgray" stroke="black" points="265.8,-225.27 241.79,-225.27 241.79,-206.67 265.8,-206.67 265.8,-225.27"/>
<text text-anchor="middle" x="253.8" y="-213.27" font-family="Times,serif" font-size="9.00">&#45;2</text>
</g>
<!-- &#45;2&#45;&gt;0 -->
<g id="edge46" class="edge">
<title>&#45;2&#45;&gt;0</title>
<path fill="none" stroke="red" stroke-width="0.61" d="M251.23,-206.66C251.04,-205.97 250.85,-205.25 250.65,-204.52"/>
<polygon fill="red" stroke="red" stroke-width="0.61" points="253.94,-203.3 247.91,-194.59 247.19,-205.16 253.94,-203.3"/>
<text text-anchor="middle" x="244.48" y="-201.09" font-family="Times,serif" font-size="5.00">&#45;2.541</text>
</g>
<!-- &#45;2&#45;&gt;125 -->
<g id="edge8" class="edge">
<title>&#45;2&#45;&gt;125</title>
<path fill="none" stroke="green" stroke-width="0.63" d="M242.03,-207.24C230.74,-198.85 213.31,-185.91 198.94,-175.23"/>
<polygon fill="green" stroke="green" stroke-width="0.63" points="201.01,-172.41 190.9,-169.26 196.84,-178.03 201.01,-172.41"/>
<text text-anchor="middle" x="214.86" y="-192.73" font-family="Times,serif" font-size="5.00">2.659</text>
</g>
<!-- 905 -->
<g id="node13" class="node">
<title>905</title>
<ellipse fill="white" stroke="black" cx="319.82" cy="-207.2" rx="20.72" ry="20.72"/>
<text text-anchor="middle" x="319.82" y="-204.5" font-family="Times,serif" font-size="9.00">905</text>
</g>
<!-- &#45;2&#45;&gt;905 -->
<g id="edge10" class="edge">
<title>&#45;2&#45;&gt;905</title>
<path fill="none" stroke="green" stroke-width="0.63" d="M265.6,-214.4C272.19,-213.53 280.74,-212.39 289.09,-211.28"/>
<polygon fill="green" stroke="green" stroke-width="0.63" points="289.59,-214.75 299.04,-209.96 288.67,-207.81 289.59,-214.75"/>
<text text-anchor="middle" x="271.72" y="-214.34" font-family="Times,serif" font-size="5.00">2.659</text>
</g>
<!-- 906 -->
<g id="node14" class="node">
<title>906</title>
<ellipse fill="white" stroke="black" cx="261.33" cy="-265.91" rx="20.72" ry="20.72"/>
<text text-anchor="middle" x="261.33" y="-263.21" font-family="Times,serif" font-size="9.00">906</text>
</g>
<!-- &#45;2&#45;&gt;906 -->
<g id="edge12" class="edge">
<title>&#45;2&#45;&gt;906</title>
<path fill="none" stroke="green" stroke-width="0.63" d="M255.25,-225.6C255.68,-228.47 256.18,-231.77 256.7,-235.23"/>
<polygon fill="green" stroke="green" stroke-width="0.63" points="253.24,-235.78 258.2,-245.15 260.17,-234.74 253.24,-235.78"/>
<text text-anchor="middle" x="250.35" y="-231.92" font-family="Times,serif" font-size="5.00">2.659</text>
</g>
<!-- &#45;3 -->
<g id="node3" class="node">
<title>&#45;3</title>
<polygon fill="lightgray" stroke="black" points="335.79,-148.05 311.78,-148.05 311.78,-129.44 335.79,-129.44 335.79,-148.05"/>
<text text-anchor="middle" x="323.78" y="-136.05" font-family="Times,serif" font-size="9.00">&#45;3</text>
</g>
<!-- &#45;3&#45;&gt;0 -->
<g id="edge44" class="edge">
<title>&#45;3&#45;&gt;0</title>
<path fill="none" stroke="green" stroke-width="0.57" d="M312.02,-144.91C299.94,-151.24 280.85,-161.25 265.97,-169.04"/>
<polygon fill="green" stroke="green" stroke-width="0.57" points="264.15,-166.05 256.92,-173.79 267.4,-172.25 264.15,-166.05"/>
<text text-anchor="middle" x="283.37" y="-158.48" font-family="Times,serif" font-size="5.00">2.371</text>
</g>
<!-- 909 -->
<g id="node7" class="node">
<title>909</title>
<ellipse fill="white" stroke="black" cx="281.77" cy="-116.9" rx="20.72" ry="20.72"/>
<text text-anchor="middle" x="281.77" y="-114.2" font-family="Times,serif" font-size="9.00">909</text>
</g>
<!-- &#45;3&#45;&gt;909 -->
<g id="edge2" class="edge">
<title>&#45;3&#45;&gt;909</title>
<path fill="none" stroke="green" stroke-width="0.25" d="M311.86,-132.54C311.07,-132.13 310.27,-131.72 309.44,-131.29"/>
<polygon fill="green" stroke="green" stroke-width="0.25" points="310.81,-128.05 300.32,-126.55 307.58,-134.26 310.81,-128.05"/>
<text text-anchor="middle" x="307.84" y="-127.42" font-family="Times,serif" font-size="5.00">0.746</text>
</g>
<!-- &#45;3&#45;&gt;905 -->
<g id="edge9" class="edge">
<title>&#45;3&#45;&gt;905</title>
<path fill="none" stroke="green" stroke-width="0.3" d="M323.23,-148.26C322.81,-155.52 322.21,-165.94 321.62,-176.01"/>
<polygon fill="green" stroke="green" stroke-width="0.3" points="318.12,-176.04 321.03,-186.23 325.11,-176.45 318.12,-176.04"/>
<text text-anchor="middle" x="316.8" y="-163.64" font-family="Times,serif" font-size="5.00">1.000</text>
</g>
<!-- 914 -->
<g id="node15" class="node">
<title>914</title>
<ellipse fill="white" stroke="black" cx="409.19" cy="-140.91" rx="20.72" ry="20.72"/>
<text text-anchor="middle" x="409.19" y="-138.21" font-family="Times,serif" font-size="9.00">914</text>
</g>
<!-- &#45;3&#45;&gt;914 -->
<g id="edge13" class="edge">
<title>&#45;3&#45;&gt;914</title>
<path fill="none" stroke="green" stroke-width="0.3" d="M335.66,-139.05C346.58,-139.32 363.25,-139.75 377.96,-140.12"/>
<polygon fill="green" stroke="green" stroke-width="0.3" points="378.13,-143.62 388.22,-140.38 378.31,-136.63 378.13,-143.62"/>
<text text-anchor="middle" x="351.19" y="-135.08" font-family="Times,serif" font-size="5.00">1.000</text>
</g>
<!-- 915 -->
<g id="node16" class="node">
<title>915</title>
<ellipse fill="white" stroke="black" cx="364.27" cy="-74.2" rx="20.72" ry="20.72"/>
<text text-anchor="middle" x="364.27" y="-71.5" font-family="Times,serif" font-size="9.00">915</text>
</g>
<!-- &#45;3&#45;&gt;915 -->
<g id="edge14" class="edge">
<title>&#45;3&#45;&gt;915</title>
<path fill="none" stroke="green" stroke-width="0.3" d="M329.76,-129.22C334.49,-121.68 341.33,-110.77 347.68,-100.65"/>
<polygon fill="green" stroke="green" stroke-width="0.3" points="350.72,-102.4 353.07,-92.07 344.79,-98.68 350.72,-102.4"/>
<text text-anchor="middle" x="333.1" y="-116.44" font-family="Times,serif" font-size="5.00">1.000</text>
</g>
<!-- 916 -->
<g id="node17" class="node">
<title>916</title>
<ellipse fill="white" stroke="black" cx="394.43" cy="-101.15" rx="20.72" ry="20.72"/>
<text text-anchor="middle" x="394.43" y="-98.45" font-family="Times,serif" font-size="9.00">916</text>
</g>
<!-- &#45;3&#45;&gt;916 -->
<g id="edge15" class="edge">
<title>&#45;3&#45;&gt;916</title>
<path fill="none" stroke="green" stroke-width="0.3" d="M335.77,-132.37C344.3,-127.83 356.1,-121.55 366.89,-115.8"/>
<polygon fill="green" stroke="green" stroke-width="0.3" points="368.82,-118.74 376,-110.96 365.53,-112.56 368.82,-118.74"/>
<text text-anchor="middle" x="345.71" y="-125.59" font-family="Times,serif" font-size="5.00">1.000</text>
</g>
<!-- &#45;4 -->
<g id="node4" class="node">
<title>&#45;4</title>
<polygon fill="lightgray" stroke="black" points="202.3,-261.52 178.3,-261.52 178.3,-242.91 202.3,-242.91 202.3,-261.52"/>
<text text-anchor="middle" x="190.3" y="-249.51" font-family="Times,serif" font-size="9.00">&#45;4</text>
</g>
<!-- &#45;4&#45;&gt;0 -->
<g id="edge45" class="edge">
<title>&#45;4&#45;&gt;0</title>
<path fill="none" stroke="green" stroke-width="0.57" d="M197.32,-242.84C205.34,-232.16 218.66,-214.38 229.04,-200.54"/>
<polygon fill="green" stroke="green" stroke-width="0.57" points="231.85,-202.64 235.04,-192.54 226.24,-198.44 231.85,-202.64"/>
<text text-anchor="middle" x="207.56" y="-223.19" font-family="Times,serif" font-size="5.00">2.371</text>
</g>
<!-- 910 -->
<g id="node8" class="node">
<title>910</title>
<ellipse fill="white" stroke="black" cx="175.56" cy="-204.47" rx="20.72" ry="20.72"/>
<text text-anchor="middle" x="175.56" y="-201.77" font-family="Times,serif" font-size="9.00">910</text>
</g>
<!-- &#45;4&#45;&gt;910 -->
<g id="edge3" class="edge">
<title>&#45;4&#45;&gt;910</title>
<path fill="none" stroke="green" stroke-width="0.25" d="M187.32,-242.55C186.55,-240.07 185.69,-237.27 184.78,-234.34"/>
<polygon fill="green" stroke="green" stroke-width="0.25" points="188.12,-233.29 181.83,-224.77 181.43,-235.35 188.12,-233.29"/>
<text text-anchor="middle" x="180.42" y="-233.94" font-family="Times,serif" font-size="5.00">0.746</text>
</g>
<!-- &#45;4&#45;&gt;906 -->
<g id="edge11" class="edge">
<title>&#45;4&#45;&gt;906</title>
<path fill="none" stroke="green" stroke-width="0.3" d="M202.35,-254.54C210.1,-256.03 220.56,-258.05 230.51,-259.97"/>
<polygon fill="green" stroke="green" stroke-width="0.3" points="230.09,-263.45 240.57,-261.91 231.42,-256.58 230.09,-263.45"/>
<text text-anchor="middle" x="210.81" y="-258.75" font-family="Times,serif" font-size="5.00">1.000</text>
</g>
<!-- 917 -->
<g id="node18" class="node">
<title>917</title>
<ellipse fill="white" stroke="black" cx="174.01" cy="-336.52" rx="20.72" ry="20.72"/>
<text text-anchor="middle" x="174.01" y="-333.82" font-family="Times,serif" font-size="9.00">917</text>
</g>
<!-- &#45;4&#45;&gt;917 -->
<g id="edge16" class="edge">
<title>&#45;4&#45;&gt;917</title>
<path fill="none" stroke="green" stroke-width="0.3" d="M188.49,-261.56C186.43,-272.25 182.94,-290.31 179.9,-306.02"/>
<polygon fill="green" stroke="green" stroke-width="0.3" points="176.45,-305.43 177.99,-315.91 183.33,-306.75 176.45,-305.43"/>
<text text-anchor="middle" x="178.57" y="-285.29" font-family="Times,serif" font-size="5.00">1.000</text>
</g>
<!-- 918 -->
<g id="node19" class="node">
<title>918</title>
<ellipse fill="white" stroke="black" cx="117.94" cy="-281" rx="20.72" ry="20.72"/>
<text text-anchor="middle" x="117.94" y="-278.3" font-family="Times,serif" font-size="9.00">918</text>
</g>
<!-- &#45;4&#45;&gt;918 -->
<g id="edge17" class="edge">
<title>&#45;4&#45;&gt;918</title>
<path fill="none" stroke="green" stroke-width="0.3" d="M178.35,-256.97C169.78,-260.38 157.86,-265.12 146.86,-269.5"/>
<polygon fill="green" stroke="green" stroke-width="0.3" points="145.55,-266.25 137.55,-273.2 148.14,-272.76 145.55,-266.25"/>
<text text-anchor="middle" x="156.98" y="-264.73" font-family="Times,serif" font-size="5.00">1.000</text>
</g>
<!-- 919 -->
<g id="node20" class="node">
<title>919</title>
<ellipse fill="white" stroke="black" cx="137.8" cy="-315.33" rx="20.72" ry="20.72"/>
<text text-anchor="middle" x="137.8" y="-312.63" font-family="Times,serif" font-size="9.00">919</text>
</g>
<!-- &#45;4&#45;&gt;919 -->
<g id="edge18" class="edge">
<title>&#45;4&#45;&gt;919</title>
<path fill="none" stroke="green" stroke-width="0.3" d="M182.55,-261.53C176.07,-269.32 166.52,-280.79 157.91,-291.15"/>
<polygon fill="green" stroke="green" stroke-width="0.3" points="154.99,-289.19 151.28,-299.12 160.37,-293.67 154.99,-289.19"/>
<text text-anchor="middle" x="164.61" y="-277.84" font-family="Times,serif" font-size="5.00">1.000</text>
</g>
<!-- 902&#45;&gt;0 -->
<g id="edge53" class="edge">
<title>902&#45;&gt;0</title>
<path fill="none" stroke="green" stroke-width="0.62" d="M241.64,-149.11C241.81,-151.3 241.98,-153.53 242.15,-155.75"/>
<polygon fill="green" stroke="green" stroke-width="0.62" points="238.66,-156.08 242.91,-165.79 245.64,-155.55 238.66,-156.08"/>
<text text-anchor="middle" x="236.27" y="-153.93" font-family="Times,serif" font-size="5.00">2.597</text>
</g>
<!-- 909&#45;&gt;0 -->
<g id="edge54" class="edge">
<title>909&#45;&gt;0</title>
<path fill="none" stroke="green" stroke-width="0.62" d="M271.06,-134.96C266.61,-142.46 261.42,-151.23 256.78,-159.05"/>
<polygon fill="green" stroke="green" stroke-width="0.62" points="253.75,-157.29 251.66,-167.68 259.77,-160.86 253.75,-157.29"/>
<text text-anchor="middle" x="269.54" y="-148.51" font-family="Times,serif" font-size="5.00">2.597</text>
</g>
<!-- 910&#45;&gt;0 -->
<g id="edge55" class="edge">
<title>910&#45;&gt;0</title>
<path fill="none" stroke="green" stroke-width="0.62" d="M195.37,-197.55C203.35,-194.76 212.6,-191.52 220.89,-188.63"/>
<polygon fill="green" stroke="green" stroke-width="0.62" points="222.07,-191.92 230.36,-185.32 219.76,-185.31 222.07,-191.92"/>
<text text-anchor="middle" x="202.5" y="-194.59" font-family="Times,serif" font-size="5.00">2.597</text>
</g>
<!-- 98 -->
<g id="node30" class="node">
<title>98</title>
<ellipse fill="white" stroke="black" cx="179.14" cy="-102.77" rx="17.82" ry="17.82"/>
<ellipse fill="none" stroke="black" cx="179.14" cy="-102.77" rx="21.86" ry="21.86"/>
<text text-anchor="middle" x="179.14" y="-100.07" font-family="Times,serif" font-size="9.00">98</text>
</g>
<!-- 911&#45;&gt;98 -->
<g id="edge28" class="edge">
<title>911&#45;&gt;98</title>
<path fill="none" stroke="red" stroke-width="0.35" d="M155.25,-59.98C157.85,-64.64 160.71,-69.75 163.51,-74.77"/>
<polygon fill="red" stroke="red" stroke-width="0.35" points="160.5,-76.57 168.43,-83.59 166.62,-73.15 160.5,-76.57"/>
<text text-anchor="middle" x="152.92" y="-68.88" font-family="Times,serif" font-size="5.00">&#45;1.252</text>
</g>
<!-- 912&#45;&gt;98 -->
<g id="edge29" class="edge">
<title>912&#45;&gt;98</title>
<path fill="none" stroke="red" stroke-width="0.1" d="M214.31,-39.65C208.52,-50.05 201.18,-63.22 194.7,-74.84"/>
<polygon fill="red" stroke="red" stroke-width="0.1" points="191.55,-73.31 189.74,-83.75 197.66,-76.72 191.55,-73.31"/>
<text text-anchor="middle" x="198.88" y="-58.75" font-family="Times,serif" font-size="5.00">0.000</text>
</g>
<!-- 913&#45;&gt;98 -->
<g id="edge30" class="edge">
<title>913&#45;&gt;98</title>
<path fill="none" stroke="green" stroke-width="0.35" d="M182.26,-41.95C181.81,-50.72 181.28,-61.1 180.78,-70.77"/>
<polygon fill="green" stroke="green" stroke-width="0.35" points="177.28,-70.72 180.26,-80.89 184.27,-71.08 177.28,-70.72"/>
<text text-anchor="middle" x="175.9" y="-57.86" font-family="Times,serif" font-size="5.00">1.252</text>
</g>
<!-- 125&#45;&gt;0 -->
<g id="edge50" class="edge">
<title>125&#45;&gt;0</title>
<path fill="none" stroke="red" stroke-width="0.44" d="M193.94,-163.51C202.18,-166.31 211.82,-169.59 220.43,-172.51"/>
<polygon fill="red" stroke="red" stroke-width="0.44" points="219.32,-175.83 229.91,-175.73 221.57,-169.2 219.32,-175.83"/>
<text text-anchor="middle" x="200.72" y="-169.51" font-family="Times,serif" font-size="5.00">&#45;1.678</text>
</g>
<!-- 821 -->
<g id="node23" class="node">
<title>821</title>
<ellipse fill="white" stroke="black" cx="79.57" cy="-153.01" rx="20.74" ry="20.74"/>
<ellipse fill="none" stroke="black" cx="79.57" cy="-153.01" rx="24.72" ry="24.72"/>
<text text-anchor="middle" x="79.57" y="-150.31" font-family="Times,serif" font-size="9.00">821</text>
</g>
<!-- 125&#45;&gt;821 -->
<g id="edge20" class="edge">
<title>125&#45;&gt;821</title>
<path fill="none" stroke="green" stroke-width="0.4" d="M153.1,-155.93C141.77,-155.48 127.49,-154.91 114.53,-154.4"/>
<polygon fill="green" stroke="green" stroke-width="0.4" points="114.64,-150.9 104.51,-154 114.36,-157.89 114.64,-150.9"/>
<text text-anchor="middle" x="128.19" y="-156.66" font-family="Times,serif" font-size="5.00">1.500</text>
</g>
<!-- 125&#45;&gt;98 -->
<g id="edge31" class="edge">
<title>125&#45;&gt;98</title>
<path fill="none" stroke="green" stroke-width="0.17" stroke-dasharray="1,5" d="M176.05,-135.73C176.08,-135.39 176.11,-135.04 176.14,-134.7"/>
<polygon fill="green" stroke="green" stroke-width="0.17" points="179.65,-134.82 177.1,-124.54 172.68,-134.17 179.65,-134.82"/>
<text text-anchor="middle" x="170.47" y="-130.71" font-family="Times,serif" font-size="5.00">0.333</text>
</g>
<!-- 905&#45;&gt;0 -->
<g id="edge51" class="edge">
<title>905&#45;&gt;0</title>
<path fill="none" stroke="red" stroke-width="0.44" d="M299.91,-200.2C290.04,-196.72 278.06,-192.51 267.73,-188.87"/>
<polygon fill="red" stroke="red" stroke-width="0.44" points="268.67,-185.49 258.08,-185.47 266.35,-192.1 268.67,-185.49"/>
<text text-anchor="middle" x="277.36" y="-196.03" font-family="Times,serif" font-size="5.00">&#45;1.678</text>
</g>
<!-- 907 -->
<g id="node26" class="node">
<title>907</title>
<ellipse fill="white" stroke="black" cx="412.58" cy="-214.32" rx="20.74" ry="20.74"/>
<ellipse fill="none" stroke="black" cx="412.58" cy="-214.32" rx="24.72" ry="24.72"/>
<text text-anchor="middle" x="412.58" y="-211.62" font-family="Times,serif" font-size="9.00">907</text>
</g>
<!-- 905&#45;&gt;907 -->
<g id="edge23" class="edge">
<title>905&#45;&gt;907</title>
<path fill="none" stroke="green" stroke-width="0.4" d="M340.87,-208.82C351.73,-209.65 365.26,-210.69 377.63,-211.64"/>
<polygon fill="green" stroke="green" stroke-width="0.4" points="377.43,-215.13 387.67,-212.41 377.96,-208.16 377.43,-215.13"/>
<text text-anchor="middle" x="353.62" y="-211.73" font-family="Times,serif" font-size="5.00">1.500</text>
</g>
<!-- 903 -->
<g id="node31" class="node">
<title>903</title>
<ellipse fill="white" stroke="black" cx="342.31" cy="-166.25" rx="20.74" ry="20.74"/>
<ellipse fill="none" stroke="black" cx="342.31" cy="-166.25" rx="24.72" ry="24.72"/>
<text text-anchor="middle" x="342.31" y="-163.55" font-family="Times,serif" font-size="9.00">903</text>
</g>
<!-- 905&#45;&gt;903 -->
<g id="edge36" class="edge">
<title>905&#45;&gt;903</title>
<path fill="none" stroke="green" stroke-width="0.17" stroke-dasharray="1,5" d="M330.01,-188.64C330.06,-188.56 330.1,-188.47 330.15,-188.39"/>
<polygon fill="green" stroke="green" stroke-width="0.17" points="328.54,-198.59 330.29,-188.14 322.41,-195.22 328.54,-198.59"/>
<text text-anchor="middle" x="335.71" y="-190.02" font-family="Times,serif" font-size="5.00">0.333</text>
</g>
<!-- 906&#45;&gt;0 -->
<g id="edge52" class="edge">
<title>906&#45;&gt;0</title>
<path fill="none" stroke="red" stroke-width="0.44" d="M257.14,-245.25C254.68,-233.06 251.54,-217.58 248.96,-204.82"/>
<polygon fill="red" stroke="red" stroke-width="0.44" points="252.36,-203.97 246.95,-194.87 245.5,-205.36 252.36,-203.97"/>
<text text-anchor="middle" x="259.51" y="-226.53" font-family="Times,serif" font-size="5.00">&#45;1.678</text>
</g>
<!-- 908 -->
<g id="node29" class="node">
<title>908</title>
<ellipse fill="white" stroke="black" cx="299.51" cy="-345.53" rx="20.74" ry="20.74"/>
<ellipse fill="none" stroke="black" cx="299.51" cy="-345.53" rx="24.72" ry="24.72"/>
<text text-anchor="middle" x="299.51" y="-342.83" font-family="Times,serif" font-size="9.00">908</text>
</g>
<!-- 906&#45;&gt;908 -->
<g id="edge26" class="edge">
<title>906&#45;&gt;908</title>
<path fill="none" stroke="green" stroke-width="0.4" d="M270.37,-284.78C274.52,-293.43 279.55,-303.91 284.25,-313.72"/>
<polygon fill="green" stroke="green" stroke-width="0.4" points="281.14,-315.33 288.62,-322.83 287.45,-312.3 281.14,-315.33"/>
<text text-anchor="middle" x="271.69" y="-300.75" font-family="Times,serif" font-size="5.00">1.500</text>
</g>
<!-- 904 -->
<g id="node32" class="node">
<title>904</title>
<ellipse fill="white" stroke="black" cx="209.06" cy="-276.27" rx="20.74" ry="20.74"/>
<ellipse fill="none" stroke="black" cx="209.06" cy="-276.27" rx="24.72" ry="24.72"/>
<text text-anchor="middle" x="209.06" y="-273.57" font-family="Times,serif" font-size="9.00">904</text>
</g>
<!-- 906&#45;&gt;904 -->
<g id="edge41" class="edge">
<title>906&#45;&gt;904</title>
<path fill="none" stroke="green" stroke-width="0.17" stroke-dasharray="1,5" d="M240.67,-270.01C240.53,-270.04 240.38,-270.07 240.24,-270.09"/>
<polygon fill="green" stroke="green" stroke-width="0.17" points="242.85,-266.01 233.72,-271.39 244.21,-272.88 242.85,-266.01"/>
<text text-anchor="middle" x="234.83" y="-271.55" font-family="Times,serif" font-size="5.00">0.333</text>
</g>
<!-- 914&#45;&gt;903 -->
<g id="edge33" class="edge">
<title>914&#45;&gt;903</title>
<path fill="none" stroke="red" stroke-width="0.35" d="M389.49,-148.37C385.09,-150.04 380.32,-151.85 375.55,-153.66"/>
<polygon fill="red" stroke="red" stroke-width="0.35" points="374,-150.5 365.89,-157.31 376.48,-157.04 374,-150.5"/>
<text text-anchor="middle" x="376.06" y="-152.52" font-family="Times,serif" font-size="5.00">&#45;1.252</text>
</g>
<!-- 915&#45;&gt;903 -->
<g id="edge34" class="edge">
<title>915&#45;&gt;903</title>
<path fill="none" stroke="red" stroke-width="0.1" d="M359.4,-94.63C356.77,-105.66 353.45,-119.57 350.44,-132.19"/>
<polygon fill="red" stroke="red" stroke-width="0.1" points="347.02,-131.42 348.11,-141.96 353.83,-133.04 347.02,-131.42"/>
<text text-anchor="middle" x="349.29" y="-114.91" font-family="Times,serif" font-size="5.00">0.000</text>
</g>
<!-- 916&#45;&gt;903 -->
<g id="edge35" class="edge">
<title>916&#45;&gt;903</title>
<path fill="none" stroke="green" stroke-width="0.35" d="M381.28,-117.58C376.17,-123.97 370.16,-131.46 364.42,-138.63"/>
<polygon fill="green" stroke="green" stroke-width="0.35" points="361.39,-136.82 357.87,-146.82 366.85,-141.2 361.39,-136.82"/>
<text text-anchor="middle" x="367.23" y="-129.61" font-family="Times,serif" font-size="5.00">1.252</text>
</g>
<!-- 917&#45;&gt;904 -->
<g id="edge38" class="edge">
<title>917&#45;&gt;904</title>
<path fill="none" stroke="red" stroke-width="0.35" d="M184.53,-318.44C186.61,-314.86 188.86,-311 191.11,-307.12"/>
<polygon fill="red" stroke="red" stroke-width="0.35" points="194.32,-308.57 196.32,-298.17 188.27,-305.05 194.32,-308.57"/>
<text text-anchor="middle" x="181.36" y="-308.28" font-family="Times,serif" font-size="5.00">&#45;1.252</text>
</g>
<!-- 918&#45;&gt;904 -->
<g id="edge39" class="edge">
<title>918&#45;&gt;904</title>
<path fill="none" stroke="red" stroke-width="0.1" d="M139.07,-279.91C149.48,-279.37 162.31,-278.7 174.12,-278.09"/>
<polygon fill="red" stroke="red" stroke-width="0.1" points="174.35,-281.58 184.16,-277.57 173.99,-274.59 174.35,-281.58"/>
<text text-anchor="middle" x="150.97" y="-280.5" font-family="Times,serif" font-size="5.00">0.000</text>
</g>
<!-- 919&#45;&gt;904 -->
<g id="edge40" class="edge">
<title>919&#45;&gt;904</title>
<path fill="none" stroke="green" stroke-width="0.35" d="M156.15,-305.27C162.82,-301.62 170.55,-297.38 178.01,-293.29"/>
<polygon fill="green" stroke="green" stroke-width="0.35" points="180.13,-296.12 187.22,-288.24 176.77,-289.98 180.13,-296.12"/>
<text text-anchor="middle" x="172.7" y="-300.78" font-family="Times,serif" font-size="5.00">1.252</text>
</g>
<!-- 920 -->
<g id="node21" class="node">
<title>920</title>
<ellipse fill="white" stroke="black" cx="20.86" cy="-95.86" rx="20.72" ry="20.72"/>
<text text-anchor="middle" x="20.86" y="-93.16" font-family="Times,serif" font-size="9.00">920</text>
</g>
<!-- 921 -->
<g id="node22" class="node">
<title>921</title>
<ellipse fill="white" stroke="black" cx="92.68" cy="-80.22" rx="20.72" ry="20.72"/>
<text text-anchor="middle" x="92.68" y="-77.52" font-family="Times,serif" font-size="9.00">921</text>
</g>
<!-- 920&#45;&gt;921 -->
<g id="edge19" class="edge">
<title>920&#45;&gt;921</title>
<path fill="none" stroke="green" stroke-width="0.3" d="M41.25,-91.42C47.71,-90.01 55.01,-88.42 62.03,-86.89"/>
<polygon fill="green" stroke="green" stroke-width="0.3" points="62.97,-90.27 71.99,-84.72 61.48,-83.43 62.97,-90.27"/>
<text text-anchor="middle" x="57.27" y="-90.65" font-family="Times,serif" font-size="5.00">1.000</text>
</g>
<!-- 920&#45;&gt;821 -->
<g id="edge21" class="edge">
<title>920&#45;&gt;821</title>
<path fill="none" stroke="green" stroke-width="0.3" stroke-dasharray="1,5" d="M35.98,-110.57C41.43,-115.88 47.73,-122.02 53.83,-127.95"/>
<polygon fill="green" stroke="green" stroke-width="0.3" points="51.76,-130.82 61.36,-135.28 56.64,-125.8 51.76,-130.82"/>
<text text-anchor="middle" x="39.28" y="-120.76" font-family="Times,serif" font-size="5.00">1.000</text>
</g>
<!-- 921&#45;&gt;98 -->
<g id="edge32" class="edge">
<title>921&#45;&gt;98</title>
<path fill="none" stroke="green" stroke-width="0.17" stroke-dasharray="1,5" d="M113.17,-85.56C123.6,-88.28 136.5,-91.64 148.11,-94.67"/>
<polygon fill="green" stroke="green" stroke-width="0.17" points="147.34,-98.09 157.9,-97.22 149.1,-91.31 147.34,-98.09"/>
<text text-anchor="middle" x="125.02" y="-91.62" font-family="Times,serif" font-size="5.00">0.333</text>
</g>
<!-- 922 -->
<g id="node24" class="node">
<title>922</title>
<ellipse fill="white" stroke="black" cx="482.83" cy="-240.46" rx="20.72" ry="20.72"/>
<text text-anchor="middle" x="482.83" y="-237.76" font-family="Times,serif" font-size="9.00">922</text>
</g>
<!-- 923 -->
<g id="node25" class="node">
<title>923</title>
<ellipse fill="white" stroke="black" cx="407.22" cy="-240.7" rx="20.72" ry="20.72"/>
<text text-anchor="middle" x="407.22" y="-238" font-family="Times,serif" font-size="9.00">923</text>
</g>
<!-- 922&#45;&gt;923 -->
<g id="edge22" class="edge">
<title>922&#45;&gt;923</title>
<path fill="none" stroke="green" stroke-width="0.3" d="M461.77,-240.53C454.48,-240.55 446.14,-240.58 438.22,-240.6"/>
<polygon fill="green" stroke="green" stroke-width="0.3" points="438.16,-237.1 428.17,-240.63 438.18,-244.1 438.16,-237.1"/>
<text text-anchor="middle" x="444.37" y="-242.07" font-family="Times,serif" font-size="5.00">1.000</text>
</g>
<!-- 922&#45;&gt;907 -->
<g id="edge24" class="edge">
<title>922&#45;&gt;907</title>
<path fill="none" stroke="green" stroke-width="0.3" stroke-dasharray="1,5" d="M463.26,-233.18C457.72,-231.12 451.53,-228.82 445.43,-226.55"/>
<polygon fill="green" stroke="green" stroke-width="0.3" points="446.63,-223.26 436.04,-223.05 444.19,-229.82 446.63,-223.26"/>
<text text-anchor="middle" x="448.72" y="-231.36" font-family="Times,serif" font-size="5.00">1.000</text>
</g>
<!-- 923&#45;&gt;903 -->
<g id="edge37" class="edge">
<title>923&#45;&gt;903</title>
<path fill="none" stroke="green" stroke-width="0.17" stroke-dasharray="1,5" d="M393.45,-224.91C385.31,-215.57 374.78,-203.49 365.4,-192.73"/>
<polygon fill="green" stroke="green" stroke-width="0.17" points="368.02,-190.42 358.81,-185.18 362.75,-195.02 368.02,-190.42"/>
<text text-anchor="middle" x="373.8" y="-210.32" font-family="Times,serif" font-size="5.00">0.333</text>
</g>
<!-- 924 -->
<g id="node27" class="node">
<title>924</title>
<ellipse fill="white" stroke="black" cx="274.51" cy="-423.44" rx="20.72" ry="20.72"/>
<text text-anchor="middle" x="274.51" y="-420.74" font-family="Times,serif" font-size="9.00">924</text>
</g>
<!-- 925 -->
<g id="node28" class="node">
<title>925</title>
<ellipse fill="white" stroke="black" cx="230.49" cy="-364.26" rx="20.72" ry="20.72"/>
<text text-anchor="middle" x="230.49" y="-361.56" font-family="Times,serif" font-size="9.00">925</text>
</g>
<!-- 924&#45;&gt;925 -->
<g id="edge25" class="edge">
<title>924&#45;&gt;925</title>
<path fill="none" stroke="green" stroke-width="0.3" d="M262.01,-406.64C258.05,-401.31 253.58,-395.3 249.28,-389.52"/>
<polygon fill="green" stroke="green" stroke-width="0.3" points="251.95,-387.24 243.17,-381.31 246.33,-391.42 251.95,-387.24"/>
<text text-anchor="middle" x="250.02" y="-393.58" font-family="Times,serif" font-size="5.00">1.000</text>
</g>
<!-- 924&#45;&gt;908 -->
<g id="edge27" class="edge">
<title>924&#45;&gt;908</title>
<path fill="none" stroke="green" stroke-width="0.3" stroke-dasharray="1,5" d="M280.95,-403.38C283.31,-396.01 286.06,-387.44 288.7,-379.2"/>
<polygon fill="green" stroke="green" stroke-width="0.3" points="292.12,-380 291.84,-369.41 285.46,-377.86 292.12,-380"/>
<text text-anchor="middle" x="279.2" y="-392.79" font-family="Times,serif" font-size="5.00">1.000</text>
</g>
<!-- 925&#45;&gt;904 -->
<g id="edge42" class="edge">
<title>925&#45;&gt;904</title>
<path fill="none" stroke="green" stroke-width="0.17" stroke-dasharray="1,5" d="M225.52,-343.86C223.12,-333.98 220.16,-321.86 217.42,-310.62"/>
<polygon fill="green" stroke="green" stroke-width="0.17" points="220.76,-309.53 214.99,-300.64 213.96,-311.18 220.76,-309.53"/>
<text text-anchor="middle" x="215.85" y="-328.74" font-family="Times,serif" font-size="5.00">0.333</text>
</g>
<!-- 98&#45;&gt;0 -->
<g id="edge47" class="edge">
<title>98&#45;&gt;0</title>
<path fill="none" stroke="red" stroke-width="0.69" d="M193.22,-119.64C203.5,-131.95 217.44,-148.66 228.12,-161.45"/>
<polygon fill="red" stroke="red" stroke-width="0.69" points="225.5,-163.78 234.6,-169.22 230.88,-159.3 225.5,-163.78"/>
<text text-anchor="middle" x="204.22" y="-142.05" font-family="Times,serif" font-size="5.00">&#45;2.951</text>
</g>
<!-- 903&#45;&gt;0 -->
<g id="edge48" class="edge">
<title>903&#45;&gt;0</title>
<path fill="none" stroke="red" stroke-width="0.69" d="M317.51,-169.85C302.51,-172.03 283.45,-174.81 268.5,-176.98"/>
<polygon fill="red" stroke="red" stroke-width="0.69" points="267.86,-173.54 258.46,-178.44 268.86,-180.46 267.86,-173.54"/>
<text text-anchor="middle" x="286.55" y="-174.92" font-family="Times,serif" font-size="5.00">&#45;2.951</text>
</g>
<!-- 904&#45;&gt;0 -->
<g id="edge49" class="edge">
<title>904&#45;&gt;0</title>
<path fill="none" stroke="red" stroke-width="0.69" d="M217.71,-252.61C223.16,-237.67 230.18,-218.47 235.6,-203.64"/>
<polygon fill="red" stroke="red" stroke-width="0.69" points="238.91,-204.77 239.06,-194.18 232.34,-202.37 238.91,-204.77"/>
<text text-anchor="middle" x="220.2" y="-229.62" font-family="Times,serif" font-size="5.00">&#45;2.951</text>
</g>
</g>
</svg>
