<?xml version="1.0" encoding="utf-8" standalone="no"?>
<!DOCTYPE svg PUBLIC "-//W3C//DTD SVG 1.1//EN"
  "http://www.w3.org/Graphics/SVG/1.1/DTD/svg11.dtd">
<!-- Created with matplotlib (https://matplotlib.org/) -->
<svg height="345.6pt" version="1.1" viewBox="0 0 460.8 345.6" width="460.8pt" xmlns="http://www.w3.org/2000/svg" xmlns:xlink="http://www.w3.org/1999/xlink">
 <metadata>
  <rdf:RDF xmlns:cc="http://creativecommons.org/ns#" xmlns:dc="http://purl.org/dc/elements/1.1/" xmlns:rdf="http://www.w3.org/1999/02/22-rdf-syntax-ns#">
   <cc:Work>
    <dc:type rdf:resource="http://purl.org/dc/dcmitype/StillImage"/>
    <dc:date>2021-06-17T20:18:06.476355</dc:date>
    <dc:format>image/svg+xml</dc:format>
    <dc:creator>
     <cc:Agent>
      <dc:title>Matplotlib v3.3.0, https://matplotlib.org/</dc:title>
     </cc:Agent>
    </dc:creator>
   </cc:Work>
  </rdf:RDF>
 </metadata>
 <defs>
  <style type="text/css">*{stroke-linecap:butt;stroke-linejoin:round;}</style>
 </defs>
 <g id="figure_1">
  <g id="patch_1">
   <path d="M 0 345.6 
L 460.8 345.6 
L 460.8 0 
L 0 0 
z
" style="fill:#ffffff;"/>
  </g>
  <g id="axes_1">
   <g id="patch_2">
    <path d="M 57.6 307.584 
L 414.72 307.584 
L 414.72 41.472 
L 57.6 41.472 
z
" style="fill:#ffffff;"/>
   </g>
   <g id="matplotlib.axis_1">
    <g id="xtick_1">
     <g id="line2d_1">
      <path clip-path="url(#pb6d56f7ec2)" d="M 73.832727 307.584 
L 73.832727 41.472 
" style="fill:none;stroke:#b0b0b0;stroke-linecap:square;stroke-width:0.8;"/>
     </g>
     <g id="line2d_2">
      <defs>
       <path d="M 0 0 
L 0 3.5 
" id="m494a4edf58" style="stroke:#000000;stroke-width:0.8;"/>
      </defs>
      <g>
       <use style="stroke:#000000;stroke-width:0.8;" x="73.832727" xlink:href="#m494a4edf58" y="307.584"/>
      </g>
     </g>
     <g id="text_1">
      <!-- 0 -->
      <g transform="translate(70.651477 322.182437)scale(0.1 -0.1)">
       <defs>
        <path d="M 31.78125 66.40625 
Q 24.171875 66.40625 20.328125 58.90625 
Q 16.5 51.421875 16.5 36.375 
Q 16.5 21.390625 20.328125 13.890625 
Q 24.171875 6.390625 31.78125 6.390625 
Q 39.453125 6.390625 43.28125 13.890625 
Q 47.125 21.390625 47.125 36.375 
Q 47.125 51.421875 43.28125 58.90625 
Q 39.453125 66.40625 31.78125 66.40625 
z
M 31.78125 74.21875 
Q 44.046875 74.21875 50.515625 64.515625 
Q 56.984375 54.828125 56.984375 36.375 
Q 56.984375 17.96875 50.515625 8.265625 
Q 44.046875 -1.421875 31.78125 -1.421875 
Q 19.53125 -1.421875 13.0625 8.265625 
Q 6.59375 17.96875 6.59375 36.375 
Q 6.59375 54.828125 13.0625 64.515625 
Q 19.53125 74.21875 31.78125 74.21875 
z
" id="DejaVuSans-48"/>
       </defs>
       <use xlink:href="#DejaVuSans-48"/>
      </g>
     </g>
    </g>
    <g id="xtick_2">
     <g id="line2d_3">
      <path clip-path="url(#pb6d56f7ec2)" d="M 147.95477 307.584 
L 147.95477 41.472 
" style="fill:none;stroke:#b0b0b0;stroke-linecap:square;stroke-width:0.8;"/>
     </g>
     <g id="line2d_4">
      <g>
       <use style="stroke:#000000;stroke-width:0.8;" x="147.95477" xlink:href="#m494a4edf58" y="307.584"/>
      </g>
     </g>
     <g id="text_2">
      <!-- 50 -->
      <g transform="translate(141.59227 322.182437)scale(0.1 -0.1)">
       <defs>
        <path d="M 10.796875 72.90625 
L 49.515625 72.90625 
L 49.515625 64.59375 
L 19.828125 64.59375 
L 19.828125 46.734375 
Q 21.96875 47.46875 24.109375 47.828125 
Q 26.265625 48.1875 28.421875 48.1875 
Q 40.625 48.1875 47.75 41.5 
Q 54.890625 34.8125 54.890625 23.390625 
Q 54.890625 11.625 47.5625 5.09375 
Q 40.234375 -1.421875 26.90625 -1.421875 
Q 22.3125 -1.421875 17.546875 -0.640625 
Q 12.796875 0.140625 7.71875 1.703125 
L 7.71875 11.625 
Q 12.109375 9.234375 16.796875 8.0625 
Q 21.484375 6.890625 26.703125 6.890625 
Q 35.15625 6.890625 40.078125 11.328125 
Q 45.015625 15.765625 45.015625 23.390625 
Q 45.015625 31 40.078125 35.4375 
Q 35.15625 39.890625 26.703125 39.890625 
Q 22.75 39.890625 18.8125 39.015625 
Q 14.890625 38.140625 10.796875 36.28125 
z
" id="DejaVuSans-53"/>
       </defs>
       <use xlink:href="#DejaVuSans-53"/>
       <use x="63.623047" xlink:href="#DejaVuSans-48"/>
      </g>
     </g>
    </g>
    <g id="xtick_3">
     <g id="line2d_5">
      <path clip-path="url(#pb6d56f7ec2)" d="M 222.076812 307.584 
L 222.076812 41.472 
" style="fill:none;stroke:#b0b0b0;stroke-linecap:square;stroke-width:0.8;"/>
     </g>
     <g id="line2d_6">
      <g>
       <use style="stroke:#000000;stroke-width:0.8;" x="222.076812" xlink:href="#m494a4edf58" y="307.584"/>
      </g>
     </g>
     <g id="text_3">
      <!-- 100 -->
      <g transform="translate(212.533062 322.182437)scale(0.1 -0.1)">
       <defs>
        <path d="M 12.40625 8.296875 
L 28.515625 8.296875 
L 28.515625 63.921875 
L 10.984375 60.40625 
L 10.984375 69.390625 
L 28.421875 72.90625 
L 38.28125 72.90625 
L 38.28125 8.296875 
L 54.390625 8.296875 
L 54.390625 0 
L 12.40625 0 
z
" id="DejaVuSans-49"/>
       </defs>
       <use xlink:href="#DejaVuSans-49"/>
       <use x="63.623047" xlink:href="#DejaVuSans-48"/>
       <use x="127.246094" xlink:href="#DejaVuSans-48"/>
      </g>
     </g>
    </g>
    <g id="xtick_4">
     <g id="line2d_7">
      <path clip-path="url(#pb6d56f7ec2)" d="M 296.198854 307.584 
L 296.198854 41.472 
" style="fill:none;stroke:#b0b0b0;stroke-linecap:square;stroke-width:0.8;"/>
     </g>
     <g id="line2d_8">
      <g>
       <use style="stroke:#000000;stroke-width:0.8;" x="296.198854" xlink:href="#m494a4edf58" y="307.584"/>
      </g>
     </g>
     <g id="text_4">
      <!-- 150 -->
      <g transform="translate(286.655104 322.182437)scale(0.1 -0.1)">
       <use xlink:href="#DejaVuSans-49"/>
       <use x="63.623047" xlink:href="#DejaVuSans-53"/>
       <use x="127.246094" xlink:href="#DejaVuSans-48"/>
      </g>
     </g>
    </g>
    <g id="xtick_5">
     <g id="line2d_9">
      <path clip-path="url(#pb6d56f7ec2)" d="M 370.320897 307.584 
L 370.320897 41.472 
" style="fill:none;stroke:#b0b0b0;stroke-linecap:square;stroke-width:0.8;"/>
     </g>
     <g id="line2d_10">
      <g>
       <use style="stroke:#000000;stroke-width:0.8;" x="370.320897" xlink:href="#m494a4edf58" y="307.584"/>
      </g>
     </g>
     <g id="text_5">
      <!-- 200 -->
      <g transform="translate(360.777147 322.182437)scale(0.1 -0.1)">
       <defs>
        <path d="M 19.1875 8.296875 
L 53.609375 8.296875 
L 53.609375 0 
L 7.328125 0 
L 7.328125 8.296875 
Q 12.9375 14.109375 22.625 23.890625 
Q 32.328125 33.6875 34.8125 36.53125 
Q 39.546875 41.84375 41.421875 45.53125 
Q 43.3125 49.21875 43.3125 52.78125 
Q 43.3125 58.59375 39.234375 62.25 
Q 35.15625 65.921875 28.609375 65.921875 
Q 23.96875 65.921875 18.8125 64.3125 
Q 13.671875 62.703125 7.8125 59.421875 
L 7.8125 69.390625 
Q 13.765625 71.78125 18.9375 73 
Q 24.125 74.21875 28.421875 74.21875 
Q 39.75 74.21875 46.484375 68.546875 
Q 53.21875 62.890625 53.21875 53.421875 
Q 53.21875 48.921875 51.53125 44.890625 
Q 49.859375 40.875 45.40625 35.40625 
Q 44.1875 33.984375 37.640625 27.21875 
Q 31.109375 20.453125 19.1875 8.296875 
z
" id="DejaVuSans-50"/>
       </defs>
       <use xlink:href="#DejaVuSans-50"/>
       <use x="63.623047" xlink:href="#DejaVuSans-48"/>
       <use x="127.246094" xlink:href="#DejaVuSans-48"/>
      </g>
     </g>
    </g>
    <g id="text_6">
     <!-- Generations -->
     <g transform="translate(205.662344 335.860562)scale(0.1 -0.1)">
      <defs>
       <path d="M 59.515625 10.40625 
L 59.515625 29.984375 
L 43.40625 29.984375 
L 43.40625 38.09375 
L 69.28125 38.09375 
L 69.28125 6.78125 
Q 63.578125 2.734375 56.6875 0.65625 
Q 49.8125 -1.421875 42 -1.421875 
Q 24.90625 -1.421875 15.25 8.5625 
Q 5.609375 18.5625 5.609375 36.375 
Q 5.609375 54.25 15.25 64.234375 
Q 24.90625 74.21875 42 74.21875 
Q 49.125 74.21875 55.546875 72.453125 
Q 61.96875 70.703125 67.390625 67.28125 
L 67.390625 56.78125 
Q 61.921875 61.421875 55.765625 63.765625 
Q 49.609375 66.109375 42.828125 66.109375 
Q 29.4375 66.109375 22.71875 58.640625 
Q 16.015625 51.171875 16.015625 36.375 
Q 16.015625 21.625 22.71875 14.15625 
Q 29.4375 6.6875 42.828125 6.6875 
Q 48.046875 6.6875 52.140625 7.59375 
Q 56.25 8.5 59.515625 10.40625 
z
" id="DejaVuSans-71"/>
       <path d="M 56.203125 29.59375 
L 56.203125 25.203125 
L 14.890625 25.203125 
Q 15.484375 15.921875 20.484375 11.0625 
Q 25.484375 6.203125 34.421875 6.203125 
Q 39.59375 6.203125 44.453125 7.46875 
Q 49.3125 8.734375 54.109375 11.28125 
L 54.109375 2.78125 
Q 49.265625 0.734375 44.1875 -0.34375 
Q 39.109375 -1.421875 33.890625 -1.421875 
Q 20.796875 -1.421875 13.15625 6.1875 
Q 5.515625 13.8125 5.515625 26.8125 
Q 5.515625 40.234375 12.765625 48.109375 
Q 20.015625 56 32.328125 56 
Q 43.359375 56 49.78125 48.890625 
Q 56.203125 41.796875 56.203125 29.59375 
z
M 47.21875 32.234375 
Q 47.125 39.59375 43.09375 43.984375 
Q 39.0625 48.390625 32.421875 48.390625 
Q 24.90625 48.390625 20.390625 44.140625 
Q 15.875 39.890625 15.1875 32.171875 
z
" id="DejaVuSans-101"/>
       <path d="M 54.890625 33.015625 
L 54.890625 0 
L 45.90625 0 
L 45.90625 32.71875 
Q 45.90625 40.484375 42.875 44.328125 
Q 39.84375 48.1875 33.796875 48.1875 
Q 26.515625 48.1875 22.3125 43.546875 
Q 18.109375 38.921875 18.109375 30.90625 
L 18.109375 0 
L 9.078125 0 
L 9.078125 54.6875 
L 18.109375 54.6875 
L 18.109375 46.1875 
Q 21.34375 51.125 25.703125 53.5625 
Q 30.078125 56 35.796875 56 
Q 45.21875 56 50.046875 50.171875 
Q 54.890625 44.34375 54.890625 33.015625 
z
" id="DejaVuSans-110"/>
       <path d="M 41.109375 46.296875 
Q 39.59375 47.171875 37.8125 47.578125 
Q 36.03125 48 33.890625 48 
Q 26.265625 48 22.1875 43.046875 
Q 18.109375 38.09375 18.109375 28.8125 
L 18.109375 0 
L 9.078125 0 
L 9.078125 54.6875 
L 18.109375 54.6875 
L 18.109375 46.1875 
Q 20.953125 51.171875 25.484375 53.578125 
Q 30.03125 56 36.53125 56 
Q 37.453125 56 38.578125 55.875 
Q 39.703125 55.765625 41.0625 55.515625 
z
" id="DejaVuSans-114"/>
       <path d="M 34.28125 27.484375 
Q 23.390625 27.484375 19.1875 25 
Q 14.984375 22.515625 14.984375 16.5 
Q 14.984375 11.71875 18.140625 8.90625 
Q 21.296875 6.109375 26.703125 6.109375 
Q 34.1875 6.109375 38.703125 11.40625 
Q 43.21875 16.703125 43.21875 25.484375 
L 43.21875 27.484375 
z
M 52.203125 31.203125 
L 52.203125 0 
L 43.21875 0 
L 43.21875 8.296875 
Q 40.140625 3.328125 35.546875 0.953125 
Q 30.953125 -1.421875 24.3125 -1.421875 
Q 15.921875 -1.421875 10.953125 3.296875 
Q 6 8.015625 6 15.921875 
Q 6 25.140625 12.171875 29.828125 
Q 18.359375 34.515625 30.609375 34.515625 
L 43.21875 34.515625 
L 43.21875 35.40625 
Q 43.21875 41.609375 39.140625 45 
Q 35.0625 48.390625 27.6875 48.390625 
Q 23 48.390625 18.546875 47.265625 
Q 14.109375 46.140625 10.015625 43.890625 
L 10.015625 52.203125 
Q 14.9375 54.109375 19.578125 55.046875 
Q 24.21875 56 28.609375 56 
Q 40.484375 56 46.34375 49.84375 
Q 52.203125 43.703125 52.203125 31.203125 
z
" id="DejaVuSans-97"/>
       <path d="M 18.3125 70.21875 
L 18.3125 54.6875 
L 36.8125 54.6875 
L 36.8125 47.703125 
L 18.3125 47.703125 
L 18.3125 18.015625 
Q 18.3125 11.328125 20.140625 9.421875 
Q 21.96875 7.515625 27.59375 7.515625 
L 36.8125 7.515625 
L 36.8125 0 
L 27.59375 0 
Q 17.1875 0 13.234375 3.875 
Q 9.28125 7.765625 9.28125 18.015625 
L 9.28125 47.703125 
L 2.6875 47.703125 
L 2.6875 54.6875 
L 9.28125 54.6875 
L 9.28125 70.21875 
z
" id="DejaVuSans-116"/>
       <path d="M 9.421875 54.6875 
L 18.40625 54.6875 
L 18.40625 0 
L 9.421875 0 
z
M 9.421875 75.984375 
L 18.40625 75.984375 
L 18.40625 64.59375 
L 9.421875 64.59375 
z
" id="DejaVuSans-105"/>
       <path d="M 30.609375 48.390625 
Q 23.390625 48.390625 19.1875 42.75 
Q 14.984375 37.109375 14.984375 27.296875 
Q 14.984375 17.484375 19.15625 11.84375 
Q 23.34375 6.203125 30.609375 6.203125 
Q 37.796875 6.203125 41.984375 11.859375 
Q 46.1875 17.53125 46.1875 27.296875 
Q 46.1875 37.015625 41.984375 42.703125 
Q 37.796875 48.390625 30.609375 48.390625 
z
M 30.609375 56 
Q 42.328125 56 49.015625 48.375 
Q 55.71875 40.765625 55.71875 27.296875 
Q 55.71875 13.875 49.015625 6.21875 
Q 42.328125 -1.421875 30.609375 -1.421875 
Q 18.84375 -1.421875 12.171875 6.21875 
Q 5.515625 13.875 5.515625 27.296875 
Q 5.515625 40.765625 12.171875 48.375 
Q 18.84375 56 30.609375 56 
z
" id="DejaVuSans-111"/>
       <path d="M 44.28125 53.078125 
L 44.28125 44.578125 
Q 40.484375 46.53125 36.375 47.5 
Q 32.28125 48.484375 27.875 48.484375 
Q 21.1875 48.484375 17.84375 46.4375 
Q 14.5 44.390625 14.5 40.28125 
Q 14.5 37.15625 16.890625 35.375 
Q 19.28125 33.59375 26.515625 31.984375 
L 29.59375 31.296875 
Q 39.15625 29.25 43.1875 25.515625 
Q 47.21875 21.78125 47.21875 15.09375 
Q 47.21875 7.46875 41.1875 3.015625 
Q 35.15625 -1.421875 24.609375 -1.421875 
Q 20.21875 -1.421875 15.453125 -0.5625 
Q 10.6875 0.296875 5.421875 2 
L 5.421875 11.28125 
Q 10.40625 8.6875 15.234375 7.390625 
Q 20.0625 6.109375 24.8125 6.109375 
Q 31.15625 6.109375 34.5625 8.28125 
Q 37.984375 10.453125 37.984375 14.40625 
Q 37.984375 18.0625 35.515625 20.015625 
Q 33.0625 21.96875 24.703125 23.78125 
L 21.578125 24.515625 
Q 13.234375 26.265625 9.515625 29.90625 
Q 5.8125 33.546875 5.8125 39.890625 
Q 5.8125 47.609375 11.28125 51.796875 
Q 16.75 56 26.8125 56 
Q 31.78125 56 36.171875 55.265625 
Q 40.578125 54.546875 44.28125 53.078125 
z
" id="DejaVuSans-115"/>
      </defs>
      <use xlink:href="#DejaVuSans-71"/>
      <use x="77.490234" xlink:href="#DejaVuSans-101"/>
      <use x="139.013672" xlink:href="#DejaVuSans-110"/>
      <use x="202.392578" xlink:href="#DejaVuSans-101"/>
      <use x="263.916016" xlink:href="#DejaVuSans-114"/>
      <use x="305.029297" xlink:href="#DejaVuSans-97"/>
      <use x="366.308594" xlink:href="#DejaVuSans-116"/>
      <use x="405.517578" xlink:href="#DejaVuSans-105"/>
      <use x="433.300781" xlink:href="#DejaVuSans-111"/>
      <use x="494.482422" xlink:href="#DejaVuSans-110"/>
      <use x="557.861328" xlink:href="#DejaVuSans-115"/>
     </g>
    </g>
   </g>
   <g id="matplotlib.axis_2">
    <g id="ytick_1">
     <g id="line2d_11">
      <path clip-path="url(#pb6d56f7ec2)" d="M 57.6 280.7708 
L 414.72 280.7708 
" style="fill:none;stroke:#b0b0b0;stroke-linecap:square;stroke-width:0.8;"/>
     </g>
     <g id="line2d_12">
      <defs>
       <path d="M 0 0 
L -3.5 0 
" id="mbf0559767c" style="stroke:#000000;stroke-width:0.8;"/>
      </defs>
      <g>
       <use style="stroke:#000000;stroke-width:0.8;" x="57.6" xlink:href="#mbf0559767c" y="280.7708"/>
      </g>
     </g>
     <g id="text_7">
      <!-- 300 -->
      <g transform="translate(31.5125 284.570019)scale(0.1 -0.1)">
       <defs>
        <path d="M 40.578125 39.3125 
Q 47.65625 37.796875 51.625 33 
Q 55.609375 28.21875 55.609375 21.1875 
Q 55.609375 10.40625 48.1875 4.484375 
Q 40.765625 -1.421875 27.09375 -1.421875 
Q 22.515625 -1.421875 17.65625 -0.515625 
Q 12.796875 0.390625 7.625 2.203125 
L 7.625 11.71875 
Q 11.71875 9.328125 16.59375 8.109375 
Q 21.484375 6.890625 26.8125 6.890625 
Q 36.078125 6.890625 40.9375 10.546875 
Q 45.796875 14.203125 45.796875 21.1875 
Q 45.796875 27.640625 41.28125 31.265625 
Q 36.765625 34.90625 28.71875 34.90625 
L 20.21875 34.90625 
L 20.21875 43.015625 
L 29.109375 43.015625 
Q 36.375 43.015625 40.234375 45.921875 
Q 44.09375 48.828125 44.09375 54.296875 
Q 44.09375 59.90625 40.109375 62.90625 
Q 36.140625 65.921875 28.71875 65.921875 
Q 24.65625 65.921875 20.015625 65.03125 
Q 15.375 64.15625 9.8125 62.3125 
L 9.8125 71.09375 
Q 15.4375 72.65625 20.34375 73.4375 
Q 25.25 74.21875 29.59375 74.21875 
Q 40.828125 74.21875 47.359375 69.109375 
Q 53.90625 64.015625 53.90625 55.328125 
Q 53.90625 49.265625 50.4375 45.09375 
Q 46.96875 40.921875 40.578125 39.3125 
z
" id="DejaVuSans-51"/>
       </defs>
       <use xlink:href="#DejaVuSans-51"/>
       <use x="63.623047" xlink:href="#DejaVuSans-48"/>
       <use x="127.246094" xlink:href="#DejaVuSans-48"/>
      </g>
     </g>
    </g>
    <g id="ytick_2">
     <g id="line2d_13">
      <path clip-path="url(#pb6d56f7ec2)" d="M 57.6 245.977109 
L 414.72 245.977109 
" style="fill:none;stroke:#b0b0b0;stroke-linecap:square;stroke-width:0.8;"/>
     </g>
     <g id="line2d_14">
      <g>
       <use style="stroke:#000000;stroke-width:0.8;" x="57.6" xlink:href="#mbf0559767c" y="245.977109"/>
      </g>
     </g>
     <g id="text_8">
      <!-- 400 -->
      <g transform="translate(31.5125 249.776328)scale(0.1 -0.1)">
       <defs>
        <path d="M 37.796875 64.3125 
L 12.890625 25.390625 
L 37.796875 25.390625 
z
M 35.203125 72.90625 
L 47.609375 72.90625 
L 47.609375 25.390625 
L 58.015625 25.390625 
L 58.015625 17.1875 
L 47.609375 17.1875 
L 47.609375 0 
L 37.796875 0 
L 37.796875 17.1875 
L 4.890625 17.1875 
L 4.890625 26.703125 
z
" id="DejaVuSans-52"/>
       </defs>
       <use xlink:href="#DejaVuSans-52"/>
       <use x="63.623047" xlink:href="#DejaVuSans-48"/>
       <use x="127.246094" xlink:href="#DejaVuSans-48"/>
      </g>
     </g>
    </g>
    <g id="ytick_3">
     <g id="line2d_15">
      <path clip-path="url(#pb6d56f7ec2)" d="M 57.6 211.183419 
L 414.72 211.183419 
" style="fill:none;stroke:#b0b0b0;stroke-linecap:square;stroke-width:0.8;"/>
     </g>
     <g id="line2d_16">
      <g>
       <use style="stroke:#000000;stroke-width:0.8;" x="57.6" xlink:href="#mbf0559767c" y="211.183419"/>
      </g>
     </g>
     <g id="text_9">
      <!-- 500 -->
      <g transform="translate(31.5125 214.982637)scale(0.1 -0.1)">
       <use xlink:href="#DejaVuSans-53"/>
       <use x="63.623047" xlink:href="#DejaVuSans-48"/>
       <use x="127.246094" xlink:href="#DejaVuSans-48"/>
      </g>
     </g>
    </g>
    <g id="ytick_4">
     <g id="line2d_17">
      <path clip-path="url(#pb6d56f7ec2)" d="M 57.6 176.389728 
L 414.72 176.389728 
" style="fill:none;stroke:#b0b0b0;stroke-linecap:square;stroke-width:0.8;"/>
     </g>
     <g id="line2d_18">
      <g>
       <use style="stroke:#000000;stroke-width:0.8;" x="57.6" xlink:href="#mbf0559767c" y="176.389728"/>
      </g>
     </g>
     <g id="text_10">
      <!-- 600 -->
      <g transform="translate(31.5125 180.188947)scale(0.1 -0.1)">
       <defs>
        <path d="M 33.015625 40.375 
Q 26.375 40.375 22.484375 35.828125 
Q 18.609375 31.296875 18.609375 23.390625 
Q 18.609375 15.53125 22.484375 10.953125 
Q 26.375 6.390625 33.015625 6.390625 
Q 39.65625 6.390625 43.53125 10.953125 
Q 47.40625 15.53125 47.40625 23.390625 
Q 47.40625 31.296875 43.53125 35.828125 
Q 39.65625 40.375 33.015625 40.375 
z
M 52.59375 71.296875 
L 52.59375 62.3125 
Q 48.875 64.0625 45.09375 64.984375 
Q 41.3125 65.921875 37.59375 65.921875 
Q 27.828125 65.921875 22.671875 59.328125 
Q 17.53125 52.734375 16.796875 39.40625 
Q 19.671875 43.65625 24.015625 45.921875 
Q 28.375 48.1875 33.59375 48.1875 
Q 44.578125 48.1875 50.953125 41.515625 
Q 57.328125 34.859375 57.328125 23.390625 
Q 57.328125 12.15625 50.6875 5.359375 
Q 44.046875 -1.421875 33.015625 -1.421875 
Q 20.359375 -1.421875 13.671875 8.265625 
Q 6.984375 17.96875 6.984375 36.375 
Q 6.984375 53.65625 15.1875 63.9375 
Q 23.390625 74.21875 37.203125 74.21875 
Q 40.921875 74.21875 44.703125 73.484375 
Q 48.484375 72.75 52.59375 71.296875 
z
" id="DejaVuSans-54"/>
       </defs>
       <use xlink:href="#DejaVuSans-54"/>
       <use x="63.623047" xlink:href="#DejaVuSans-48"/>
       <use x="127.246094" xlink:href="#DejaVuSans-48"/>
      </g>
     </g>
    </g>
    <g id="ytick_5">
     <g id="line2d_19">
      <path clip-path="url(#pb6d56f7ec2)" d="M 57.6 141.596037 
L 414.72 141.596037 
" style="fill:none;stroke:#b0b0b0;stroke-linecap:square;stroke-width:0.8;"/>
     </g>
     <g id="line2d_20">
      <g>
       <use style="stroke:#000000;stroke-width:0.8;" x="57.6" xlink:href="#mbf0559767c" y="141.596037"/>
      </g>
     </g>
     <g id="text_11">
      <!-- 700 -->
      <g transform="translate(31.5125 145.395256)scale(0.1 -0.1)">
       <defs>
        <path d="M 8.203125 72.90625 
L 55.078125 72.90625 
L 55.078125 68.703125 
L 28.609375 0 
L 18.3125 0 
L 43.21875 64.59375 
L 8.203125 64.59375 
z
" id="DejaVuSans-55"/>
       </defs>
       <use xlink:href="#DejaVuSans-55"/>
       <use x="63.623047" xlink:href="#DejaVuSans-48"/>
       <use x="127.246094" xlink:href="#DejaVuSans-48"/>
      </g>
     </g>
    </g>
    <g id="ytick_6">
     <g id="line2d_21">
      <path clip-path="url(#pb6d56f7ec2)" d="M 57.6 106.802347 
L 414.72 106.802347 
" style="fill:none;stroke:#b0b0b0;stroke-linecap:square;stroke-width:0.8;"/>
     </g>
     <g id="line2d_22">
      <g>
       <use style="stroke:#000000;stroke-width:0.8;" x="57.6" xlink:href="#mbf0559767c" y="106.802347"/>
      </g>
     </g>
     <g id="text_12">
      <!-- 800 -->
      <g transform="translate(31.5125 110.601565)scale(0.1 -0.1)">
       <defs>
        <path d="M 31.78125 34.625 
Q 24.75 34.625 20.71875 30.859375 
Q 16.703125 27.09375 16.703125 20.515625 
Q 16.703125 13.921875 20.71875 10.15625 
Q 24.75 6.390625 31.78125 6.390625 
Q 38.8125 6.390625 42.859375 10.171875 
Q 46.921875 13.96875 46.921875 20.515625 
Q 46.921875 27.09375 42.890625 30.859375 
Q 38.875 34.625 31.78125 34.625 
z
M 21.921875 38.8125 
Q 15.578125 40.375 12.03125 44.71875 
Q 8.5 49.078125 8.5 55.328125 
Q 8.5 64.0625 14.71875 69.140625 
Q 20.953125 74.21875 31.78125 74.21875 
Q 42.671875 74.21875 48.875 69.140625 
Q 55.078125 64.0625 55.078125 55.328125 
Q 55.078125 49.078125 51.53125 44.71875 
Q 48 40.375 41.703125 38.8125 
Q 48.828125 37.15625 52.796875 32.3125 
Q 56.78125 27.484375 56.78125 20.515625 
Q 56.78125 9.90625 50.3125 4.234375 
Q 43.84375 -1.421875 31.78125 -1.421875 
Q 19.734375 -1.421875 13.25 4.234375 
Q 6.78125 9.90625 6.78125 20.515625 
Q 6.78125 27.484375 10.78125 32.3125 
Q 14.796875 37.15625 21.921875 38.8125 
z
M 18.3125 54.390625 
Q 18.3125 48.734375 21.84375 45.5625 
Q 25.390625 42.390625 31.78125 42.390625 
Q 38.140625 42.390625 41.71875 45.5625 
Q 45.3125 48.734375 45.3125 54.390625 
Q 45.3125 60.0625 41.71875 63.234375 
Q 38.140625 66.40625 31.78125 66.40625 
Q 25.390625 66.40625 21.84375 63.234375 
Q 18.3125 60.0625 18.3125 54.390625 
z
" id="DejaVuSans-56"/>
       </defs>
       <use xlink:href="#DejaVuSans-56"/>
       <use x="63.623047" xlink:href="#DejaVuSans-48"/>
       <use x="127.246094" xlink:href="#DejaVuSans-48"/>
      </g>
     </g>
    </g>
    <g id="ytick_7">
     <g id="line2d_23">
      <path clip-path="url(#pb6d56f7ec2)" d="M 57.6 72.008656 
L 414.72 72.008656 
" style="fill:none;stroke:#b0b0b0;stroke-linecap:square;stroke-width:0.8;"/>
     </g>
     <g id="line2d_24">
      <g>
       <use style="stroke:#000000;stroke-width:0.8;" x="57.6" xlink:href="#mbf0559767c" y="72.008656"/>
      </g>
     </g>
     <g id="text_13">
      <!-- 900 -->
      <g transform="translate(31.5125 75.807875)scale(0.1 -0.1)">
       <defs>
        <path d="M 10.984375 1.515625 
L 10.984375 10.5 
Q 14.703125 8.734375 18.5 7.8125 
Q 22.3125 6.890625 25.984375 6.890625 
Q 35.75 6.890625 40.890625 13.453125 
Q 46.046875 20.015625 46.78125 33.40625 
Q 43.953125 29.203125 39.59375 26.953125 
Q 35.25 24.703125 29.984375 24.703125 
Q 19.046875 24.703125 12.671875 31.3125 
Q 6.296875 37.9375 6.296875 49.421875 
Q 6.296875 60.640625 12.9375 67.421875 
Q 19.578125 74.21875 30.609375 74.21875 
Q 43.265625 74.21875 49.921875 64.515625 
Q 56.59375 54.828125 56.59375 36.375 
Q 56.59375 19.140625 48.40625 8.859375 
Q 40.234375 -1.421875 26.421875 -1.421875 
Q 22.703125 -1.421875 18.890625 -0.6875 
Q 15.09375 0.046875 10.984375 1.515625 
z
M 30.609375 32.421875 
Q 37.25 32.421875 41.125 36.953125 
Q 45.015625 41.5 45.015625 49.421875 
Q 45.015625 57.28125 41.125 61.84375 
Q 37.25 66.40625 30.609375 66.40625 
Q 23.96875 66.40625 20.09375 61.84375 
Q 16.21875 57.28125 16.21875 49.421875 
Q 16.21875 41.5 20.09375 36.953125 
Q 23.96875 32.421875 30.609375 32.421875 
z
" id="DejaVuSans-57"/>
       </defs>
       <use xlink:href="#DejaVuSans-57"/>
       <use x="63.623047" xlink:href="#DejaVuSans-48"/>
       <use x="127.246094" xlink:href="#DejaVuSans-48"/>
      </g>
     </g>
    </g>
    <g id="text_14">
     <!-- Fitness -->
     <g transform="translate(25.432812 191.845187)rotate(-90)scale(0.1 -0.1)">
      <defs>
       <path d="M 9.8125 72.90625 
L 51.703125 72.90625 
L 51.703125 64.59375 
L 19.671875 64.59375 
L 19.671875 43.109375 
L 48.578125 43.109375 
L 48.578125 34.8125 
L 19.671875 34.8125 
L 19.671875 0 
L 9.8125 0 
z
" id="DejaVuSans-70"/>
      </defs>
      <use xlink:href="#DejaVuSans-70"/>
      <use x="50.269531" xlink:href="#DejaVuSans-105"/>
      <use x="78.052734" xlink:href="#DejaVuSans-116"/>
      <use x="117.261719" xlink:href="#DejaVuSans-110"/>
      <use x="180.640625" xlink:href="#DejaVuSans-101"/>
      <use x="242.164062" xlink:href="#DejaVuSans-115"/>
      <use x="294.263672" xlink:href="#DejaVuSans-115"/>
     </g>
    </g>
   </g>
   <g id="line2d_25">
    <path clip-path="url(#pb6d56f7ec2)" d="M 73.832727 269.090558 
L 75.315168 269.014012 
L 76.797609 269.348314 
L 79.762491 269.360818 
L 81.244932 269.52609 
L 82.727372 268.711816 
L 84.209813 268.153708 
L 85.692254 269.224117 
L 87.174695 268.57 
L 90.139577 268.667197 
L 91.622017 269.021382 
L 93.104458 269.212494 
L 94.586899 268.116982 
L 96.06934 268.700637 
L 100.516663 268.373563 
L 101.999103 267.931031 
L 103.481544 267.898179 
L 104.963985 268.159442 
L 106.446426 267.064406 
L 107.928867 268.087089 
L 109.411308 267.518712 
L 110.893748 268.411165 
L 112.376189 268.198522 
L 113.85863 268.26632 
L 115.341071 268.03572 
L 116.823512 268.278362 
L 118.305953 269.125863 
L 119.788394 268.586291 
L 121.270834 268.328338 
L 122.753275 267.405929 
L 124.235716 268.933881 
L 125.718157 267.470568 
L 127.200598 268.658119 
L 128.683039 265.985603 
L 130.165479 268.391445 
L 131.64792 267.679342 
L 133.130361 265.871434 
L 134.612802 263.700895 
L 136.095243 264.177597 
L 137.577684 263.395134 
L 139.060125 263.161879 
L 140.542565 260.350383 
L 142.025006 258.031116 
L 143.507447 258.696501 
L 146.472329 254.145182 
L 147.95477 253.7105 
L 149.43721 255.349264 
L 150.919651 258.663192 
L 152.402092 256.892893 
L 153.884533 258.46831 
L 155.366974 256.996882 
L 156.849415 258.855781 
L 158.331856 257.257325 
L 159.814296 259.887183 
L 161.296737 261.800675 
L 162.779178 262.347541 
L 164.261619 259.926216 
L 165.74406 260.433888 
L 167.226501 261.79681 
L 168.708941 261.246569 
L 170.191382 258.963266 
L 171.673823 260.046318 
L 173.156264 259.563562 
L 174.638705 259.798348 
L 176.121146 259.890236 
L 177.603587 261.30384 
L 179.086027 261.902246 
L 180.568468 261.212107 
L 182.050909 260.677444 
L 183.53335 263.291003 
L 185.015791 262.206916 
L 186.498232 261.557724 
L 187.980672 259.38872 
L 189.463113 258.526669 
L 190.945554 258.372362 
L 192.427995 257.71998 
L 193.910436 257.603789 
L 195.392877 255.581852 
L 196.875318 255.773978 
L 198.357758 254.421158 
L 199.840199 258.045802 
L 201.32264 258.055947 
L 202.805081 259.482555 
L 204.287522 259.758436 
L 205.769963 255.73372 
L 207.252403 260.807207 
L 208.734844 262.61635 
L 210.217285 258.442452 
L 211.699726 257.876552 
L 213.182167 261.792423 
L 214.664608 261.046032 
L 216.147049 261.972609 
L 217.629489 259.841429 
L 219.11193 258.992527 
L 220.594371 257.614222 
L 222.076812 261.338899 
L 223.559253 259.564298 
L 225.041694 261.819188 
L 226.524134 260.692355 
L 228.006575 261.376446 
L 229.489016 259.801803 
L 230.971457 263.212413 
L 232.453898 262.505346 
L 233.936339 264.237539 
L 235.41878 261.501604 
L 236.90122 259.428149 
L 238.383661 263.347395 
L 239.866102 260.05129 
L 241.348543 260.528009 
L 242.830984 261.639974 
L 244.313425 262.134811 
L 245.795866 260.132491 
L 247.278306 259.584342 
L 248.760747 262.472344 
L 250.243188 257.81612 
L 251.725629 259.826188 
L 253.20807 260.880407 
L 254.690511 259.402873 
L 256.172951 257.691968 
L 257.655392 257.896036 
L 259.137833 261.223591 
L 262.102715 257.247482 
L 263.585156 257.024106 
L 265.067597 258.095976 
L 266.550037 258.099832 
L 268.032478 257.505078 
L 269.514919 261.652951 
L 270.99736 260.597418 
L 272.479801 262.368332 
L 273.962242 261.458154 
L 275.444682 261.987974 
L 276.927123 262.348038 
L 278.409564 262.982771 
L 279.892005 261.936325 
L 281.374446 260.329993 
L 282.856887 262.504112 
L 284.339328 261.784516 
L 285.821768 263.062643 
L 287.304209 261.672227 
L 288.78665 261.069136 
L 290.269091 261.899684 
L 293.233973 261.645791 
L 294.716413 260.781342 
L 296.198854 260.360207 
L 297.681295 257.334957 
L 299.163736 259.755955 
L 300.646177 261.023188 
L 302.128618 259.410075 
L 303.611059 255.813928 
L 305.093499 254.276428 
L 306.57594 254.109282 
L 308.058381 257.428917 
L 309.540822 259.940274 
L 311.023263 262.938155 
L 312.505704 259.866183 
L 313.988144 260.15466 
L 316.953026 256.669211 
L 318.435467 254.08056 
L 319.917908 257.643434 
L 321.400349 251.714657 
L 322.88279 252.832887 
L 324.36523 251.455341 
L 325.847671 255.204538 
L 327.330112 254.913407 
L 328.812553 261.040317 
L 330.294994 258.474435 
L 331.777435 261.374196 
L 333.259875 257.824716 
L 334.742316 258.592406 
L 336.224757 259.912338 
L 337.707198 260.334832 
L 339.189639 257.739507 
L 340.67208 249.86129 
L 342.154521 252.453559 
L 343.636961 255.889761 
L 345.119402 257.132612 
L 346.601843 254.647129 
L 348.084284 254.097957 
L 349.566725 259.605212 
L 351.049166 254.139709 
L 352.531606 246.839851 
L 354.014047 247.688678 
L 355.496488 248.688971 
L 356.978929 250.724209 
L 358.46137 242.627364 
L 359.943811 244.223645 
L 361.426252 248.037707 
L 362.908692 244.348765 
L 364.391133 244.286136 
L 365.873574 250.437028 
L 367.356015 246.406705 
L 370.320897 254.204587 
L 371.803337 250.965389 
L 373.285778 255.566251 
L 374.768219 248.12388 
L 376.25066 253.235556 
L 377.733101 245.107267 
L 379.215542 247.038317 
L 380.697983 247.180687 
L 382.180423 245.68189 
L 383.662864 250.006219 
L 385.145305 243.886009 
L 386.627746 249.070269 
L 388.110187 245.824017 
L 389.592628 245.246442 
L 391.075068 242.849192 
L 392.557509 241.572097 
L 394.03995 244.682139 
L 395.522391 244.664353 
L 397.004832 250.962349 
L 398.487273 254.90508 
L 398.487273 254.90508 
" style="fill:none;stroke:#0000ff;stroke-linecap:square;stroke-width:1.5;"/>
   </g>
   <g id="line2d_26">
    <path clip-path="url(#pb6d56f7ec2)" d="M 73.832727 269.677438 
L 75.315168 272.192752 
L 76.797609 273.569642 
L 78.28005 277.096031 
L 79.762491 277.974082 
L 81.244932 278.373702 
L 82.727372 278.62242 
L 84.209813 278.640558 
L 85.692254 281.250949 
L 87.174695 280.741826 
L 88.657136 281.25552 
L 90.139577 282.744589 
L 91.622017 281.690178 
L 94.586899 281.776458 
L 97.551781 279.200136 
L 99.034222 278.772551 
L 100.516663 278.033209 
L 101.999103 278.641309 
L 103.481544 278.07981 
L 104.963985 278.257786 
L 106.446426 277.618076 
L 107.928867 278.351258 
L 109.411308 278.123013 
L 110.893748 277.360399 
L 112.376189 277.126322 
L 113.85863 276.245383 
L 116.823512 277.226925 
L 118.305953 278.815014 
L 119.788394 277.399273 
L 121.270834 275.468878 
L 122.753275 274.38226 
L 124.235716 277.951185 
L 125.718157 276.197328 
L 127.200598 276.869769 
L 128.683039 274.763056 
L 130.165479 278.786083 
L 131.64792 281.163679 
L 133.130361 275.178575 
L 134.612802 276.125592 
L 136.095243 275.861295 
L 137.577684 274.733197 
L 139.060125 275.321763 
L 140.542565 272.478736 
L 142.025006 270.450068 
L 143.507447 273.709765 
L 144.989888 271.961115 
L 146.472329 270.411765 
L 147.95477 275.706581 
L 149.43721 271.585405 
L 150.919651 280.223139 
L 152.402092 273.77835 
L 153.884533 277.397922 
L 155.366974 275.177671 
L 156.849415 275.922074 
L 158.331856 274.50222 
L 159.814296 277.663627 
L 161.296737 276.895999 
L 162.779178 277.508132 
L 165.74406 276.563753 
L 167.226501 277.508707 
L 168.708941 278.082242 
L 170.191382 276.420154 
L 171.673823 276.264534 
L 173.156264 277.589961 
L 174.638705 276.327765 
L 176.121146 275.440768 
L 177.603587 278.686665 
L 179.086027 278.896057 
L 180.568468 277.661568 
L 182.050909 276.180235 
L 183.53335 278.799952 
L 185.015791 276.372886 
L 186.498232 279.933751 
L 187.980672 277.501097 
L 189.463113 275.835816 
L 190.945554 276.248079 
L 192.427995 274.965366 
L 193.910436 276.533354 
L 195.392877 278.472737 
L 198.357758 273.148396 
L 199.840199 277.568548 
L 201.32264 275.066807 
L 202.805081 276.904078 
L 204.287522 277.384182 
L 205.769963 274.470557 
L 207.252403 281.408699 
L 208.734844 286.911011 
L 210.217285 277.499305 
L 211.699726 278.410834 
L 213.182167 283.609758 
L 214.664608 281.109328 
L 216.147049 283.382424 
L 217.629489 280.0364 
L 219.11193 281.601557 
L 220.594371 277.346673 
L 222.076812 280.043817 
L 223.559253 280.122054 
L 225.041694 286.32695 
L 226.524134 281.680459 
L 228.006575 282.134694 
L 229.489016 281.317915 
L 230.971457 286.029428 
L 232.453898 286.755426 
L 233.936339 286.964607 
L 235.41878 284.384186 
L 236.90122 282.254987 
L 238.383661 284.657198 
L 239.866102 279.726305 
L 241.348543 280.554179 
L 242.830984 282.770505 
L 244.313425 283.903699 
L 245.795866 277.732432 
L 247.278306 276.641994 
L 248.760747 284.299987 
L 250.243188 275.713121 
L 251.725629 280.791735 
L 253.20807 283.372823 
L 254.690511 276.452789 
L 256.172951 275.425592 
L 257.655392 276.998547 
L 259.137833 280.358514 
L 260.620274 277.980158 
L 262.102715 277.467084 
L 263.585156 277.541047 
L 265.067597 279.807671 
L 266.550037 277.962503 
L 268.032478 277.201323 
L 269.514919 280.185563 
L 270.99736 276.989664 
L 272.479801 278.515681 
L 273.962242 278.510448 
L 275.444682 278.066514 
L 276.927123 280.81781 
L 278.409564 280.388407 
L 279.892005 278.987006 
L 281.374446 278.081647 
L 282.856887 282.212564 
L 284.339328 279.999678 
L 285.821768 278.808112 
L 287.304209 280.369142 
L 288.78665 278.627783 
L 290.269091 280.035462 
L 291.751532 279.811736 
L 293.233973 280.464035 
L 294.716413 277.864626 
L 296.198854 278.768939 
L 297.681295 278.544259 
L 299.163736 280.520437 
L 300.646177 284.303102 
L 302.128618 279.860619 
L 303.611059 276.116277 
L 305.093499 274.990002 
L 306.57594 278.035859 
L 308.058381 276.707266 
L 309.540822 280.155466 
L 311.023263 287.859891 
L 312.505704 280.773598 
L 313.988144 283.064668 
L 315.470585 281.927738 
L 316.953026 281.465854 
L 318.435467 275.228673 
L 319.917908 275.173893 
L 321.400349 276.589331 
L 322.88279 278.975129 
L 324.36523 275.531033 
L 325.847671 276.768507 
L 327.330112 279.562392 
L 328.812553 285.994559 
L 330.294994 281.855505 
L 331.777435 289.712763 
L 333.259875 276.410525 
L 334.742316 280.712697 
L 336.224757 280.578638 
L 337.707198 284.83472 
L 339.189639 284.62646 
L 340.67208 281.459997 
L 342.154521 280.354961 
L 343.636961 285.669494 
L 345.119402 283.061744 
L 346.601843 278.384906 
L 348.084284 279.377302 
L 349.566725 285.67022 
L 351.049166 280.77552 
L 352.531606 275.39276 
L 354.014047 276.328788 
L 355.496488 278.546557 
L 356.978929 286.334464 
L 358.46137 278.648725 
L 359.943811 277.641873 
L 361.426252 280.760938 
L 362.908692 271.839783 
L 364.391133 283.082927 
L 365.873574 281.539935 
L 367.356015 277.92082 
L 368.838456 281.007405 
L 370.320897 281.796075 
L 371.803337 278.721052 
L 373.285778 282.359576 
L 374.768219 280.427196 
L 376.25066 283.752682 
L 377.733101 275.69108 
L 379.215542 284.16217 
L 380.697983 288.15201 
L 382.180423 281.532726 
L 383.662864 284.392427 
L 385.145305 284.881083 
L 386.627746 288.332783 
L 388.110187 287.681863 
L 389.592628 291.059745 
L 391.075068 290.411998 
L 392.557509 295.124316 
L 394.03995 293.747006 
L 395.522391 295.488 
L 397.004832 295.103261 
L 398.487273 292.415424 
L 398.487273 292.415424 
" style="fill:none;stroke:#008000;stroke-dasharray:9.6,2.4,1.5,2.4;stroke-dashoffset:0;stroke-width:1.5;"/>
   </g>
   <g id="line2d_27">
    <path clip-path="url(#pb6d56f7ec2)" d="M 73.832727 268.503678 
L 75.315168 265.835272 
L 76.797609 265.126987 
L 78.28005 261.509489 
L 79.762491 260.747555 
L 81.244932 260.678478 
L 82.727372 258.801212 
L 84.209813 257.666859 
L 85.692254 257.197285 
L 87.174695 256.398175 
L 88.657136 256.034596 
L 90.139577 254.589805 
L 91.622017 256.352587 
L 93.104458 256.731574 
L 94.586899 254.457507 
L 96.06934 256.915524 
L 97.551781 257.932782 
L 99.034222 258.029373 
L 100.516663 258.713916 
L 101.999103 257.220753 
L 103.481544 257.716548 
L 104.963985 258.061098 
L 106.446426 256.510735 
L 107.928867 257.82292 
L 109.411308 256.91441 
L 110.893748 259.461931 
L 112.376189 259.270722 
L 113.85863 260.287256 
L 115.341071 259.291755 
L 118.305953 259.436711 
L 119.788394 259.773309 
L 121.270834 261.187799 
L 122.753275 260.429599 
L 124.235716 259.916576 
L 125.718157 258.743808 
L 127.200598 260.44647 
L 128.683039 257.208151 
L 130.165479 257.996807 
L 131.64792 254.195005 
L 133.130361 256.564293 
L 134.612802 251.276199 
L 136.095243 252.493898 
L 137.577684 252.05707 
L 139.060125 251.001995 
L 142.025006 245.612164 
L 143.507447 243.683237 
L 146.472329 237.878598 
L 147.95477 231.714419 
L 149.43721 239.113124 
L 150.919651 237.103244 
L 152.402092 240.007435 
L 153.884533 239.538698 
L 155.366974 238.816094 
L 156.849415 241.789488 
L 158.331856 240.012429 
L 159.814296 242.110738 
L 161.296737 246.705351 
L 162.779178 247.18695 
L 164.261619 242.809147 
L 165.74406 244.304023 
L 167.226501 246.084913 
L 168.708941 244.410897 
L 170.191382 241.506378 
L 171.673823 243.828101 
L 173.156264 241.537163 
L 174.638705 243.26893 
L 176.121146 244.339705 
L 177.603587 243.921014 
L 179.086027 244.908436 
L 180.568468 244.762645 
L 182.050909 245.174652 
L 183.53335 247.782054 
L 185.015791 248.040946 
L 186.498232 243.181698 
L 187.980672 241.276343 
L 189.463113 241.217522 
L 190.945554 240.496645 
L 192.427995 240.474594 
L 193.910436 238.674225 
L 195.392877 232.690966 
L 196.875318 235.847887 
L 198.357758 235.69392 
L 199.840199 238.523057 
L 201.32264 241.045086 
L 202.805081 242.061032 
L 204.287522 242.13269 
L 205.769963 236.996884 
L 207.252403 240.205716 
L 208.734844 238.32169 
L 210.217285 239.3856 
L 211.699726 237.342269 
L 213.182167 239.975088 
L 214.664608 240.982735 
L 216.147049 240.562794 
L 217.629489 239.646458 
L 219.11193 236.383497 
L 220.594371 237.881771 
L 222.076812 242.633981 
L 223.559253 239.006541 
L 225.041694 237.311425 
L 226.524134 239.704252 
L 228.006575 240.618199 
L 229.489016 238.28569 
L 230.971457 240.395398 
L 232.453898 238.255267 
L 233.936339 241.510471 
L 235.41878 238.619021 
L 236.90122 236.60131 
L 238.383661 242.037592 
L 239.866102 240.376275 
L 241.348543 240.501839 
L 242.830984 240.509443 
L 244.313425 240.365923 
L 245.795866 242.532551 
L 247.278306 242.52669 
L 248.760747 240.644702 
L 250.243188 239.91912 
L 251.725629 238.860641 
L 253.20807 238.387991 
L 254.690511 242.352957 
L 256.172951 239.958345 
L 257.655392 238.793525 
L 259.137833 242.088667 
L 260.620274 240.671315 
L 262.102715 237.027879 
L 263.585156 236.507166 
L 265.067597 236.384282 
L 266.550037 238.237161 
L 268.032478 237.808833 
L 269.514919 243.12034 
L 270.99736 244.205172 
L 272.479801 246.220983 
L 273.962242 244.40586 
L 275.444682 245.909434 
L 276.927123 243.878266 
L 278.409564 245.577136 
L 279.892005 244.885645 
L 281.374446 242.578338 
L 282.856887 242.795661 
L 284.339328 243.569354 
L 285.821768 247.317173 
L 287.304209 242.975312 
L 288.78665 243.510489 
L 290.269091 243.763905 
L 291.751532 243.64701 
L 293.233973 242.827548 
L 294.716413 243.698057 
L 296.198854 241.951475 
L 297.681295 236.125654 
L 299.163736 238.991472 
L 300.646177 237.743273 
L 302.128618 238.959532 
L 303.611059 235.511578 
L 305.093499 233.562854 
L 306.57594 230.182704 
L 308.058381 238.150568 
L 309.540822 239.725083 
L 311.023263 238.016419 
L 312.505704 238.958768 
L 313.988144 237.244651 
L 315.470585 234.888155 
L 316.953026 231.872567 
L 318.435467 232.932447 
L 319.917908 240.112975 
L 321.400349 226.839984 
L 322.88279 226.690644 
L 324.36523 227.379648 
L 325.847671 233.64057 
L 327.330112 230.264423 
L 328.812553 236.086076 
L 330.294994 235.093365 
L 331.777435 233.03563 
L 333.259875 239.238907 
L 334.742316 236.472115 
L 336.224757 239.246037 
L 337.707198 235.834945 
L 339.189639 230.852554 
L 340.67208 218.262583 
L 342.154521 224.552157 
L 343.636961 226.110028 
L 345.119402 231.203481 
L 346.601843 230.909353 
L 348.084284 228.818612 
L 349.566725 233.540205 
L 351.049166 227.503898 
L 352.531606 218.286942 
L 354.014047 219.048568 
L 355.496488 218.831385 
L 356.978929 215.113954 
L 358.46137 206.606002 
L 361.426252 215.314475 
L 362.908692 216.857747 
L 364.391133 205.489345 
L 365.873574 219.33412 
L 367.356015 214.89259 
L 368.838456 219.740128 
L 370.320897 226.613099 
L 371.803337 223.209725 
L 373.285778 228.772925 
L 374.768219 215.820564 
L 376.25066 222.71843 
L 377.733101 214.523455 
L 379.215542 209.914464 
L 380.697983 206.209364 
L 382.180423 209.831054 
L 383.662864 215.620011 
L 385.145305 202.890934 
L 386.627746 209.807754 
L 388.110187 203.966171 
L 389.592628 199.433139 
L 391.075068 195.286385 
L 392.557509 188.019877 
L 394.03995 195.617272 
L 395.522391 193.840706 
L 397.004832 206.821438 
L 398.487273 217.394736 
L 398.487273 217.394736 
" style="fill:none;stroke:#008000;stroke-dasharray:9.6,2.4,1.5,2.4;stroke-dashoffset:0;stroke-width:1.5;"/>
   </g>
   <g id="line2d_28">
    <path clip-path="url(#pb6d56f7ec2)" d="M 73.832727 267.897135 
L 75.315168 234.495191 
L 76.797609 245.629173 
L 78.28005 188.219583 
L 79.762491 210.835482 
L 81.244932 211.531356 
L 82.727372 199.005627 
L 84.209813 210.139608 
L 85.692254 187.871646 
L 87.174695 187.871646 
L 88.657136 188.219583 
L 90.139577 187.523709 
L 91.622017 199.005627 
L 93.104458 199.005627 
L 94.586899 187.175772 
L 96.06934 200.049438 
L 97.551781 197.961816 
L 99.034222 210.139608 
L 100.516663 211.183419 
L 101.999103 188.56752 
L 103.481544 201.093248 
L 104.963985 188.56752 
L 106.446426 177.085602 
L 107.928867 210.139608 
L 109.411308 199.005627 
L 110.893748 211.879293 
L 112.376189 187.175772 
L 113.85863 234.147255 
L 115.341071 200.049438 
L 116.823512 210.835482 
L 118.305953 231.711696 
L 119.788394 222.3174 
L 121.270834 223.013274 
L 122.753275 222.665337 
L 124.235716 233.103444 
L 125.718157 199.701501 
L 127.200598 234.495191 
L 128.683039 210.139608 
L 130.165479 234.147255 
L 131.64792 212.575166 
L 133.130361 233.103444 
L 134.612802 199.353564 
L 136.095243 233.103444 
L 137.577684 233.799318 
L 139.060125 232.059633 
L 140.542565 223.709147 
L 142.025006 216.750409 
L 143.507447 223.709147 
L 144.989888 220.229778 
L 146.472329 217.098346 
L 147.95477 216.750409 
L 149.43721 217.446283 
L 150.919651 220.229778 
L 152.402092 220.229778 
L 153.884533 217.446283 
L 155.366974 211.879293 
L 156.849415 209.095797 
L 158.331856 211.183419 
L 159.814296 212.227229 
L 161.296737 207.008176 
L 162.779178 205.616428 
L 164.261619 201.441185 
L 165.74406 211.183419 
L 167.226501 219.185968 
L 168.708941 215.358662 
L 170.191382 187.523709 
L 171.673823 210.487545 
L 173.156264 211.183419 
L 174.638705 214.314851 
L 176.121146 210.487545 
L 177.603587 205.268491 
L 179.086027 199.005627 
L 180.568468 215.706599 
L 182.050909 207.356113 
L 183.53335 215.706599 
L 185.015791 211.879293 
L 186.498232 215.010725 
L 187.980672 189.263394 
L 189.463113 208.051987 
L 190.945554 197.961816 
L 192.427995 214.314851 
L 193.910436 210.835482 
L 195.392877 198.65769 
L 196.875318 204.572618 
L 198.357758 209.443734 
L 199.840199 208.399923 
L 201.32264 213.618977 
L 202.805081 213.27104 
L 204.287522 211.531356 
L 205.769963 188.56752 
L 207.252403 212.923103 
L 208.734844 204.224681 
L 210.217285 207.356113 
L 211.699726 200.745312 
L 213.182167 200.397375 
L 214.664608 199.005627 
L 216.147049 198.65769 
L 219.11193 200.049438 
L 220.594371 197.613879 
L 222.076812 196.918006 
L 223.559253 199.701501 
L 225.041694 187.523709 
L 226.524134 210.139608 
L 228.006575 206.312302 
L 229.489016 199.353564 
L 230.971457 199.353564 
L 232.453898 208.051987 
L 233.936339 215.358662 
L 235.41878 198.65769 
L 236.90122 210.835482 
L 238.383661 216.054535 
L 239.866102 206.660239 
L 241.348543 209.095797 
L 242.830984 216.054535 
L 244.313425 199.701501 
L 245.795866 200.049438 
L 247.278306 210.139608 
L 248.760747 200.049438 
L 250.243188 207.70405 
L 251.725629 211.183419 
L 253.20807 209.095797 
L 254.690511 197.961816 
L 256.172951 208.399923 
L 257.655392 213.966914 
L 259.137833 207.356113 
L 260.620274 216.054535 
L 262.102715 209.095797 
L 263.585156 211.531356 
L 265.067597 210.487545 
L 266.550037 205.964365 
L 268.032478 200.049438 
L 269.514919 200.049438 
L 270.99736 205.616428 
L 272.479801 212.575166 
L 273.962242 208.051987 
L 275.444682 207.356113 
L 276.927123 204.572618 
L 279.892005 203.18087 
L 281.374446 211.879293 
L 282.856887 212.227229 
L 284.339328 200.049438 
L 285.821768 213.966914 
L 287.304209 211.531356 
L 288.78665 205.964365 
L 290.269091 211.183419 
L 291.751532 212.575166 
L 293.233973 213.618977 
L 294.716413 211.879293 
L 296.198854 210.835482 
L 297.681295 211.183419 
L 299.163736 207.008176 
L 300.646177 211.183419 
L 302.128618 210.487545 
L 303.611059 213.966914 
L 305.093499 215.358662 
L 306.57594 209.095797 
L 308.058381 217.098346 
L 309.540822 211.531356 
L 311.023263 188.56752 
L 312.505704 210.139608 
L 313.988144 212.227229 
L 315.470585 213.966914 
L 316.953026 212.923103 
L 318.435467 212.923103 
L 319.917908 210.139608 
L 321.400349 210.139608 
L 322.88279 210.487545 
L 324.36523 212.227229 
L 325.847671 210.139608 
L 327.330112 200.049438 
L 328.812553 207.70405 
L 330.294994 210.487545 
L 331.777435 188.915457 
L 333.259875 207.356113 
L 334.742316 180.912908 
L 336.224757 207.70405 
L 337.707198 205.268491 
L 339.189639 200.397375 
L 340.67208 115.848706 
L 342.154521 163.516063 
L 343.636961 148.554776 
L 345.119402 164.559873 
L 346.601843 165.603684 
L 349.566725 174.302107 
L 351.049166 125.59094 
L 352.531606 161.776378 
L 354.014047 147.163028 
L 355.496488 141.943974 
L 356.978929 109.237905 
L 358.46137 95.668366 
L 359.943811 140.20429 
L 361.426252 139.856353 
L 362.908692 187.871646 
L 364.391133 121.763634 
L 365.873574 145.075406 
L 367.356015 148.554776 
L 368.838456 144.379533 
L 370.320897 172.910359 
L 371.803337 142.291911 
L 373.285778 145.77128 
L 374.768219 141.596037 
L 376.25066 145.075406 
L 377.733101 145.423343 
L 379.215542 117.936328 
L 380.697983 92.536934 
L 382.180423 108.194094 
L 383.662864 143.683659 
L 385.145305 102.975041 
L 386.627746 100.887419 
L 388.110187 100.539482 
L 389.592628 73.052467 
L 391.075068 89.753438 
L 392.557509 73.400404 
L 394.03995 64.006107 
L 395.522391 59.134991 
L 397.004832 63.310233 
L 398.487273 53.568 
L 398.487273 53.568 
" style="fill:none;stroke:#ff0000;stroke-linecap:square;stroke-width:1.5;"/>
   </g>
   <g id="patch_3">
    <path d="M 57.6 307.584 
L 57.6 41.472 
" style="fill:none;stroke:#000000;stroke-linecap:square;stroke-linejoin:miter;stroke-width:0.8;"/>
   </g>
   <g id="patch_4">
    <path d="M 414.72 307.584 
L 414.72 41.472 
" style="fill:none;stroke:#000000;stroke-linecap:square;stroke-linejoin:miter;stroke-width:0.8;"/>
   </g>
   <g id="patch_5">
    <path d="M 57.6 307.584 
L 414.72 307.584 
" style="fill:none;stroke:#000000;stroke-linecap:square;stroke-linejoin:miter;stroke-width:0.8;"/>
   </g>
   <g id="patch_6">
    <path d="M 57.6 41.472 
L 414.72 41.472 
" style="fill:none;stroke:#000000;stroke-linecap:square;stroke-linejoin:miter;stroke-width:0.8;"/>
   </g>
   <g id="text_15">
    <!-- Population's average and best fitness -->
    <g transform="translate(123.529687 35.472)scale(0.12 -0.12)">
     <defs>
      <path d="M 19.671875 64.796875 
L 19.671875 37.40625 
L 32.078125 37.40625 
Q 38.96875 37.40625 42.71875 40.96875 
Q 46.484375 44.53125 46.484375 51.125 
Q 46.484375 57.671875 42.71875 61.234375 
Q 38.96875 64.796875 32.078125 64.796875 
z
M 9.8125 72.90625 
L 32.078125 72.90625 
Q 44.34375 72.90625 50.609375 67.359375 
Q 56.890625 61.8125 56.890625 51.125 
Q 56.890625 40.328125 50.609375 34.8125 
Q 44.34375 29.296875 32.078125 29.296875 
L 19.671875 29.296875 
L 19.671875 0 
L 9.8125 0 
z
" id="DejaVuSans-80"/>
      <path d="M 18.109375 8.203125 
L 18.109375 -20.796875 
L 9.078125 -20.796875 
L 9.078125 54.6875 
L 18.109375 54.6875 
L 18.109375 46.390625 
Q 20.953125 51.265625 25.265625 53.625 
Q 29.59375 56 35.59375 56 
Q 45.5625 56 51.78125 48.09375 
Q 58.015625 40.1875 58.015625 27.296875 
Q 58.015625 14.40625 51.78125 6.484375 
Q 45.5625 -1.421875 35.59375 -1.421875 
Q 29.59375 -1.421875 25.265625 0.953125 
Q 20.953125 3.328125 18.109375 8.203125 
z
M 48.6875 27.296875 
Q 48.6875 37.203125 44.609375 42.84375 
Q 40.53125 48.484375 33.40625 48.484375 
Q 26.265625 48.484375 22.1875 42.84375 
Q 18.109375 37.203125 18.109375 27.296875 
Q 18.109375 17.390625 22.1875 11.75 
Q 26.265625 6.109375 33.40625 6.109375 
Q 40.53125 6.109375 44.609375 11.75 
Q 48.6875 17.390625 48.6875 27.296875 
z
" id="DejaVuSans-112"/>
      <path d="M 8.5 21.578125 
L 8.5 54.6875 
L 17.484375 54.6875 
L 17.484375 21.921875 
Q 17.484375 14.15625 20.5 10.265625 
Q 23.53125 6.390625 29.59375 6.390625 
Q 36.859375 6.390625 41.078125 11.03125 
Q 45.3125 15.671875 45.3125 23.6875 
L 45.3125 54.6875 
L 54.296875 54.6875 
L 54.296875 0 
L 45.3125 0 
L 45.3125 8.40625 
Q 42.046875 3.421875 37.71875 1 
Q 33.40625 -1.421875 27.6875 -1.421875 
Q 18.265625 -1.421875 13.375 4.4375 
Q 8.5 10.296875 8.5 21.578125 
z
M 31.109375 56 
z
" id="DejaVuSans-117"/>
      <path d="M 9.421875 75.984375 
L 18.40625 75.984375 
L 18.40625 0 
L 9.421875 0 
z
" id="DejaVuSans-108"/>
      <path d="M 17.921875 72.90625 
L 17.921875 45.796875 
L 9.625 45.796875 
L 9.625 72.90625 
z
" id="DejaVuSans-39"/>
      <path id="DejaVuSans-32"/>
      <path d="M 2.984375 54.6875 
L 12.5 54.6875 
L 29.59375 8.796875 
L 46.6875 54.6875 
L 56.203125 54.6875 
L 35.6875 0 
L 23.484375 0 
z
" id="DejaVuSans-118"/>
      <path d="M 45.40625 27.984375 
Q 45.40625 37.75 41.375 43.109375 
Q 37.359375 48.484375 30.078125 48.484375 
Q 22.859375 48.484375 18.828125 43.109375 
Q 14.796875 37.75 14.796875 27.984375 
Q 14.796875 18.265625 18.828125 12.890625 
Q 22.859375 7.515625 30.078125 7.515625 
Q 37.359375 7.515625 41.375 12.890625 
Q 45.40625 18.265625 45.40625 27.984375 
z
M 54.390625 6.78125 
Q 54.390625 -7.171875 48.1875 -13.984375 
Q 42 -20.796875 29.203125 -20.796875 
Q 24.46875 -20.796875 20.265625 -20.09375 
Q 16.0625 -19.390625 12.109375 -17.921875 
L 12.109375 -9.1875 
Q 16.0625 -11.328125 19.921875 -12.34375 
Q 23.78125 -13.375 27.78125 -13.375 
Q 36.625 -13.375 41.015625 -8.765625 
Q 45.40625 -4.15625 45.40625 5.171875 
L 45.40625 9.625 
Q 42.625 4.78125 38.28125 2.390625 
Q 33.9375 0 27.875 0 
Q 17.828125 0 11.671875 7.65625 
Q 5.515625 15.328125 5.515625 27.984375 
Q 5.515625 40.671875 11.671875 48.328125 
Q 17.828125 56 27.875 56 
Q 33.9375 56 38.28125 53.609375 
Q 42.625 51.21875 45.40625 46.390625 
L 45.40625 54.6875 
L 54.390625 54.6875 
z
" id="DejaVuSans-103"/>
      <path d="M 45.40625 46.390625 
L 45.40625 75.984375 
L 54.390625 75.984375 
L 54.390625 0 
L 45.40625 0 
L 45.40625 8.203125 
Q 42.578125 3.328125 38.25 0.953125 
Q 33.9375 -1.421875 27.875 -1.421875 
Q 17.96875 -1.421875 11.734375 6.484375 
Q 5.515625 14.40625 5.515625 27.296875 
Q 5.515625 40.1875 11.734375 48.09375 
Q 17.96875 56 27.875 56 
Q 33.9375 56 38.25 53.625 
Q 42.578125 51.265625 45.40625 46.390625 
z
M 14.796875 27.296875 
Q 14.796875 17.390625 18.875 11.75 
Q 22.953125 6.109375 30.078125 6.109375 
Q 37.203125 6.109375 41.296875 11.75 
Q 45.40625 17.390625 45.40625 27.296875 
Q 45.40625 37.203125 41.296875 42.84375 
Q 37.203125 48.484375 30.078125 48.484375 
Q 22.953125 48.484375 18.875 42.84375 
Q 14.796875 37.203125 14.796875 27.296875 
z
" id="DejaVuSans-100"/>
      <path d="M 48.6875 27.296875 
Q 48.6875 37.203125 44.609375 42.84375 
Q 40.53125 48.484375 33.40625 48.484375 
Q 26.265625 48.484375 22.1875 42.84375 
Q 18.109375 37.203125 18.109375 27.296875 
Q 18.109375 17.390625 22.1875 11.75 
Q 26.265625 6.109375 33.40625 6.109375 
Q 40.53125 6.109375 44.609375 11.75 
Q 48.6875 17.390625 48.6875 27.296875 
z
M 18.109375 46.390625 
Q 20.953125 51.265625 25.265625 53.625 
Q 29.59375 56 35.59375 56 
Q 45.5625 56 51.78125 48.09375 
Q 58.015625 40.1875 58.015625 27.296875 
Q 58.015625 14.40625 51.78125 6.484375 
Q 45.5625 -1.421875 35.59375 -1.421875 
Q 29.59375 -1.421875 25.265625 0.953125 
Q 20.953125 3.328125 18.109375 8.203125 
L 18.109375 0 
L 9.078125 0 
L 9.078125 75.984375 
L 18.109375 75.984375 
z
" id="DejaVuSans-98"/>
      <path d="M 37.109375 75.984375 
L 37.109375 68.5 
L 28.515625 68.5 
Q 23.6875 68.5 21.796875 66.546875 
Q 19.921875 64.59375 19.921875 59.515625 
L 19.921875 54.6875 
L 34.71875 54.6875 
L 34.71875 47.703125 
L 19.921875 47.703125 
L 19.921875 0 
L 10.890625 0 
L 10.890625 47.703125 
L 2.296875 47.703125 
L 2.296875 54.6875 
L 10.890625 54.6875 
L 10.890625 58.5 
Q 10.890625 67.625 15.140625 71.796875 
Q 19.390625 75.984375 28.609375 75.984375 
z
" id="DejaVuSans-102"/>
     </defs>
     <use xlink:href="#DejaVuSans-80"/>
     <use x="56.677734" xlink:href="#DejaVuSans-111"/>
     <use x="117.859375" xlink:href="#DejaVuSans-112"/>
     <use x="181.335938" xlink:href="#DejaVuSans-117"/>
     <use x="244.714844" xlink:href="#DejaVuSans-108"/>
     <use x="272.498047" xlink:href="#DejaVuSans-97"/>
     <use x="333.777344" xlink:href="#DejaVuSans-116"/>
     <use x="372.986328" xlink:href="#DejaVuSans-105"/>
     <use x="400.769531" xlink:href="#DejaVuSans-111"/>
     <use x="461.951172" xlink:href="#DejaVuSans-110"/>
     <use x="525.330078" xlink:href="#DejaVuSans-39"/>
     <use x="552.820312" xlink:href="#DejaVuSans-115"/>
     <use x="604.919922" xlink:href="#DejaVuSans-32"/>
     <use x="636.707031" xlink:href="#DejaVuSans-97"/>
     <use x="697.986328" xlink:href="#DejaVuSans-118"/>
     <use x="757.166016" xlink:href="#DejaVuSans-101"/>
     <use x="818.689453" xlink:href="#DejaVuSans-114"/>
     <use x="859.802734" xlink:href="#DejaVuSans-97"/>
     <use x="921.082031" xlink:href="#DejaVuSans-103"/>
     <use x="984.558594" xlink:href="#DejaVuSans-101"/>
     <use x="1046.082031" xlink:href="#DejaVuSans-32"/>
     <use x="1077.869141" xlink:href="#DejaVuSans-97"/>
     <use x="1139.148438" xlink:href="#DejaVuSans-110"/>
     <use x="1202.527344" xlink:href="#DejaVuSans-100"/>
     <use x="1266.003906" xlink:href="#DejaVuSans-32"/>
     <use x="1297.791016" xlink:href="#DejaVuSans-98"/>
     <use x="1361.267578" xlink:href="#DejaVuSans-101"/>
     <use x="1422.791016" xlink:href="#DejaVuSans-115"/>
     <use x="1474.890625" xlink:href="#DejaVuSans-116"/>
     <use x="1514.099609" xlink:href="#DejaVuSans-32"/>
     <use x="1545.886719" xlink:href="#DejaVuSans-102"/>
     <use x="1581.091797" xlink:href="#DejaVuSans-105"/>
     <use x="1608.875" xlink:href="#DejaVuSans-116"/>
     <use x="1648.083984" xlink:href="#DejaVuSans-110"/>
     <use x="1711.462891" xlink:href="#DejaVuSans-101"/>
     <use x="1772.986328" xlink:href="#DejaVuSans-115"/>
     <use x="1825.085938" xlink:href="#DejaVuSans-115"/>
    </g>
   </g>
   <g id="legend_1">
    <g id="patch_7">
     <path d="M 64.6 108.1845 
L 137.540625 108.1845 
Q 139.540625 108.1845 139.540625 106.1845 
L 139.540625 48.472 
Q 139.540625 46.472 137.540625 46.472 
L 64.6 46.472 
Q 62.6 46.472 62.6 48.472 
L 62.6 106.1845 
Q 62.6 108.1845 64.6 108.1845 
z
" style="fill:#ffffff;opacity:0.8;stroke:#cccccc;stroke-linejoin:miter;"/>
    </g>
    <g id="line2d_29">
     <path d="M 66.6 54.570438 
L 86.6 54.570438 
" style="fill:none;stroke:#0000ff;stroke-linecap:square;stroke-width:1.5;"/>
    </g>
    <g id="line2d_30"/>
    <g id="text_16">
     <!-- average -->
     <g transform="translate(94.6 58.070438)scale(0.1 -0.1)">
      <use xlink:href="#DejaVuSans-97"/>
      <use x="61.279297" xlink:href="#DejaVuSans-118"/>
      <use x="120.458984" xlink:href="#DejaVuSans-101"/>
      <use x="181.982422" xlink:href="#DejaVuSans-114"/>
      <use x="223.095703" xlink:href="#DejaVuSans-97"/>
      <use x="284.375" xlink:href="#DejaVuSans-103"/>
      <use x="347.851562" xlink:href="#DejaVuSans-101"/>
     </g>
    </g>
    <g id="line2d_31">
     <path d="M 66.6 69.248563 
L 86.6 69.248563 
" style="fill:none;stroke:#008000;stroke-dasharray:9.6,2.4,1.5,2.4;stroke-dashoffset:0;stroke-width:1.5;"/>
    </g>
    <g id="line2d_32"/>
    <g id="text_17">
     <!-- -1 sd -->
     <g transform="translate(94.6 72.748563)scale(0.1 -0.1)">
      <defs>
       <path d="M 4.890625 31.390625 
L 31.203125 31.390625 
L 31.203125 23.390625 
L 4.890625 23.390625 
z
" id="DejaVuSans-45"/>
      </defs>
      <use xlink:href="#DejaVuSans-45"/>
      <use x="36.083984" xlink:href="#DejaVuSans-49"/>
      <use x="99.707031" xlink:href="#DejaVuSans-32"/>
      <use x="131.494141" xlink:href="#DejaVuSans-115"/>
      <use x="183.59375" xlink:href="#DejaVuSans-100"/>
     </g>
    </g>
    <g id="line2d_33">
     <path d="M 66.6 83.926688 
L 86.6 83.926688 
" style="fill:none;stroke:#008000;stroke-dasharray:9.6,2.4,1.5,2.4;stroke-dashoffset:0;stroke-width:1.5;"/>
    </g>
    <g id="line2d_34"/>
    <g id="text_18">
     <!-- +1 sd -->
     <g transform="translate(94.6 87.426688)scale(0.1 -0.1)">
      <defs>
       <path d="M 46 62.703125 
L 46 35.5 
L 73.1875 35.5 
L 73.1875 27.203125 
L 46 27.203125 
L 46 0 
L 37.796875 0 
L 37.796875 27.203125 
L 10.59375 27.203125 
L 10.59375 35.5 
L 37.796875 35.5 
L 37.796875 62.703125 
z
" id="DejaVuSans-43"/>
      </defs>
      <use xlink:href="#DejaVuSans-43"/>
      <use x="83.789062" xlink:href="#DejaVuSans-49"/>
      <use x="147.412109" xlink:href="#DejaVuSans-32"/>
      <use x="179.199219" xlink:href="#DejaVuSans-115"/>
      <use x="231.298828" xlink:href="#DejaVuSans-100"/>
     </g>
    </g>
    <g id="line2d_35">
     <path d="M 66.6 98.604813 
L 86.6 98.604813 
" style="fill:none;stroke:#ff0000;stroke-linecap:square;stroke-width:1.5;"/>
    </g>
    <g id="line2d_36"/>
    <g id="text_19">
     <!-- best -->
     <g transform="translate(94.6 102.104813)scale(0.1 -0.1)">
      <use xlink:href="#DejaVuSans-98"/>
      <use x="63.476562" xlink:href="#DejaVuSans-101"/>
      <use x="125" xlink:href="#DejaVuSans-115"/>
      <use x="177.099609" xlink:href="#DejaVuSans-116"/>
     </g>
    </g>
   </g>
  </g>
 </g>
 <defs>
  <clipPath id="pb6d56f7ec2">
   <rect height="266.112" width="357.12" x="57.6" y="41.472"/>
  </clipPath>
 </defs>
</svg>
