<?xml version="1.0" encoding="UTF-8" standalone="no"?>
<!DOCTYPE svg PUBLIC "-//W3C//DTD SVG 1.1//EN"
 "http://www.w3.org/Graphics/SVG/1.1/DTD/svg11.dtd">
<!-- Generated by graphviz version 2.47.1 (20210417.1919)
 -->
<!-- Pages: 1 -->
<svg width="386pt" height="342pt"
 viewBox="0.00 0.00 386.45 341.59" xmlns="http://www.w3.org/2000/svg" xmlns:xlink="http://www.w3.org/1999/xlink">
<g id="graph0" class="graph" transform="scale(1 1) rotate(0) translate(4 337.59)">
<polygon fill="white" stroke="transparent" points="-4,4 -4,-337.59 382.45,-337.59 382.45,4 -4,4"/>
<!-- &#45;1 -->
<g id="node1" class="node">
<title>&#45;1</title>
<polygon fill="lightgray" stroke="black" points="257.86,-231.82 233.86,-231.82 233.86,-213.21 257.86,-213.21 257.86,-231.82"/>
<text text-anchor="middle" x="245.86" y="-219.81" font-family="Times,serif" font-size="9.00">&#45;1</text>
</g>
<!-- 0 -->
<g id="node5" class="node">
<title>0</title>
<ellipse fill="lightblue" stroke="black" cx="283.65" cy="-142.56" rx="14.49" ry="14.49"/>
<ellipse fill="none" stroke="black" cx="283.65" cy="-142.56" rx="18.49" ry="18.49"/>
<text text-anchor="middle" x="283.65" y="-139.86" font-family="Times,serif" font-size="9.00">0</text>
</g>
<!-- &#45;1&#45;&gt;0 -->
<g id="edge1" class="edge">
<title>&#45;1&#45;&gt;0</title>
<path fill="none" stroke="red" stroke-width="0.36" stroke-dasharray="1,5" d="M250.34,-213.03C255.44,-202.24 263.99,-184.15 271.15,-169"/>
<polygon fill="red" stroke="red" stroke-width="0.36" points="274.5,-170.11 275.6,-159.58 268.17,-167.12 274.5,-170.11"/>
<text text-anchor="middle" x="254.29" y="-192.51" font-family="Times,serif" font-size="5.00">&#45;1.297</text>
</g>
<!-- 38117 -->
<g id="node6" class="node">
<title>38117</title>
<ellipse fill="white" stroke="black" cx="157.76" cy="-218.38" rx="30.52" ry="30.52"/>
<text text-anchor="middle" x="157.76" y="-215.68" font-family="Times,serif" font-size="9.00">identity</text>
</g>
<!-- &#45;1&#45;&gt;38117 -->
<g id="edge14" class="edge">
<title>&#45;1&#45;&gt;38117</title>
<path fill="none" stroke="red" stroke-width="0.12" d="M233.98,-221.96C224.86,-221.53 211.7,-220.91 198.88,-220.31"/>
<polygon fill="red" stroke="red" stroke-width="0.12" points="198.9,-216.81 188.75,-219.83 198.57,-223.8 198.9,-216.81"/>
<text text-anchor="middle" x="222.89" y="-222.63" font-family="Times,serif" font-size="5.00">&#45;0.107</text>
</g>
<!-- 54859 -->
<g id="node8" class="node">
<title>54859</title>
<ellipse fill="white" stroke="black" cx="323.67" cy="-251.63" rx="31.65" ry="31.65"/>
<text text-anchor="middle" x="323.67" y="-248.93" font-family="Times,serif" font-size="9.00">sigmoid</text>
</g>
<!-- &#45;1&#45;&gt;54859 -->
<g id="edge30" class="edge">
<title>&#45;1&#45;&gt;54859</title>
<path fill="none" stroke="green" stroke-width="0.44" d="M257.68,-226.94C264.82,-229.61 274.38,-233.19 284,-236.79"/>
<polygon fill="green" stroke="green" stroke-width="0.44" points="282.97,-240.14 293.56,-240.37 285.42,-233.58 282.97,-240.14"/>
<text text-anchor="middle" x="265.22" y="-233.36" font-family="Times,serif" font-size="5.00">1.690</text>
</g>
<!-- 38674 -->
<g id="node12" class="node">
<title>38674</title>
<ellipse fill="white" stroke="black" cx="225.4" cy="-298.24" rx="35.19" ry="35.19"/>
<text text-anchor="middle" x="225.4" y="-295.54" font-family="Times,serif" font-size="9.00">heaviside</text>
</g>
<!-- &#45;1&#45;&gt;38674 -->
<g id="edge17" class="edge">
<title>&#45;1&#45;&gt;38674</title>
<path fill="none" stroke="green" stroke-width="0.53" stroke-dasharray="1,5" d="M243.27,-232.11C241.69,-237.94 239.55,-245.86 237.3,-254.19"/>
<polygon fill="green" stroke="green" stroke-width="0.53" points="233.87,-253.48 234.64,-264.05 240.63,-255.31 233.87,-253.48"/>
<text text-anchor="middle" x="234.66" y="-244.65" font-family="Times,serif" font-size="5.00">2.149</text>
</g>
<!-- 6325 -->
<g id="node13" class="node">
<title>6325</title>
<ellipse fill="white" stroke="black" cx="227.69" cy="-142.58" rx="31.67" ry="31.67"/>
<ellipse fill="none" stroke="black" cx="227.69" cy="-142.58" rx="35.65" ry="35.65"/>
<text text-anchor="middle" x="227.69" y="-139.88" font-family="Times,serif" font-size="9.00">sigmoid</text>
</g>
<!-- &#45;1&#45;&gt;6325 -->
<g id="edge5" class="edge">
<title>&#45;1&#45;&gt;6325</title>
<path fill="none" stroke="green" stroke-width="0.14" stroke-dasharray="1,5" d="M243.7,-213.03C242.23,-206.52 240.14,-197.36 237.97,-187.79"/>
<polygon fill="green" stroke="green" stroke-width="0.14" points="241.32,-186.74 235.69,-177.77 234.49,-188.3 241.32,-186.74"/>
<text text-anchor="middle" x="235.21" y="-201.91" font-family="Times,serif" font-size="5.00">0.192</text>
</g>
<!-- 54774 -->
<g id="node14" class="node">
<title>54774</title>
<ellipse fill="white" stroke="black" cx="287.1" cy="-292.7" rx="30.55" ry="30.55"/>
<ellipse fill="none" stroke="black" cx="287.1" cy="-292.7" rx="34.52" ry="34.52"/>
<text text-anchor="middle" x="287.1" y="-290" font-family="Times,serif" font-size="9.00">identity</text>
</g>
<!-- &#45;1&#45;&gt;54774 -->
<g id="edge28" class="edge">
<title>&#45;1&#45;&gt;54774</title>
<path fill="none" stroke="green" stroke-width="0.27" stroke-dasharray="1,5" d="M251.42,-231.98C254.81,-237.75 259.4,-245.55 264.15,-253.64"/>
<polygon fill="green" stroke="green" stroke-width="0.27" points="261.24,-255.6 269.33,-262.45 267.28,-252.05 261.24,-255.6"/>
<text text-anchor="middle" x="252.16" y="-244.31" font-family="Times,serif" font-size="5.00">0.874</text>
</g>
<!-- 35800 -->
<g id="node15" class="node">
<title>35800</title>
<ellipse fill="white" stroke="black" cx="189.48" cy="-192.32" rx="30.52" ry="30.52"/>
<text text-anchor="middle" x="189.48" y="-189.62" font-family="Times,serif" font-size="9.00">identity</text>
</g>
<!-- &#45;1&#45;&gt;35800 -->
<g id="edge9" class="edge">
<title>&#45;1&#45;&gt;35800</title>
<path fill="none" stroke="red" stroke-width="0.14" d="M233.9,-216.11C231.38,-214.76 228.6,-213.27 225.69,-211.71"/>
<polygon fill="red" stroke="red" stroke-width="0.14" points="227.2,-208.55 216.73,-206.92 223.89,-214.72 227.2,-208.55"/>
<text text-anchor="middle" x="236.25" y="-209.41" font-family="Times,serif" font-size="5.00">&#45;0.185</text>
</g>
<!-- 37790 -->
<g id="node19" class="node">
<title>37790</title>
<ellipse fill="white" stroke="black" cx="166.37" cy="-262.96" rx="31.65" ry="31.65"/>
<text text-anchor="middle" x="166.37" y="-260.26" font-family="Times,serif" font-size="9.00">sigmoid</text>
</g>
<!-- &#45;1&#45;&gt;37790 -->
<g id="edge13" class="edge">
<title>&#45;1&#45;&gt;37790</title>
<path fill="none" stroke="green" stroke-width="0.17" stroke-dasharray="1,5" d="M233.79,-228.66C225.71,-232.77 214.61,-238.41 203.75,-243.94"/>
<polygon fill="green" stroke="green" stroke-width="0.17" points="202.07,-240.87 194.75,-248.52 205.25,-247.11 202.07,-240.87"/>
<text text-anchor="middle" x="213.14" y="-237.8" font-family="Times,serif" font-size="5.00">0.348</text>
</g>
<!-- &#45;2 -->
<g id="node2" class="node">
<title>&#45;2</title>
<polygon fill="lightgray" stroke="black" points="300.07,-77.5 276.07,-77.5 276.07,-58.89 300.07,-58.89 300.07,-77.5"/>
<text text-anchor="middle" x="288.07" y="-65.5" font-family="Times,serif" font-size="9.00">&#45;2</text>
</g>
<!-- &#45;2&#45;&gt;0 -->
<g id="edge2" class="edge">
<title>&#45;2&#45;&gt;0</title>
<path fill="none" stroke="red" stroke-width="0.2" d="M287.51,-77.61C286.97,-86.65 286.13,-100.77 285.37,-113.54"/>
<polygon fill="red" stroke="red" stroke-width="0.2" points="281.86,-113.62 284.76,-123.81 288.85,-114.04 281.86,-113.62"/>
<text text-anchor="middle" x="279.98" y="-97.08" font-family="Times,serif" font-size="5.00">&#45;0.497</text>
</g>
<!-- 32365 -->
<g id="node10" class="node">
<title>32365</title>
<ellipse fill="white" stroke="black" cx="205.63" cy="-85.99" rx="35.19" ry="35.19"/>
<text text-anchor="middle" x="205.63" y="-83.29" font-family="Times,serif" font-size="9.00">heaviside</text>
</g>
<!-- &#45;2&#45;&gt;32365 -->
<g id="edge6" class="edge">
<title>&#45;2&#45;&gt;32365</title>
<path fill="none" stroke="green" stroke-width="0.51" d="M276.26,-70.75C269.25,-72.26 259.88,-74.28 250.26,-76.36"/>
<polygon fill="green" stroke="green" stroke-width="0.51" points="249.27,-72.99 240.24,-78.52 250.75,-79.83 249.27,-72.99"/>
<text text-anchor="middle" x="257.64" y="-75.05" font-family="Times,serif" font-size="5.00">2.069</text>
</g>
<!-- &#45;3 -->
<g id="node3" class="node">
<title>&#45;3</title>
<polygon fill="lightgray" stroke="black" points="378.71,-136.85 354.7,-136.85 354.7,-118.25 378.71,-118.25 378.71,-136.85"/>
<text text-anchor="middle" x="366.7" y="-124.85" font-family="Times,serif" font-size="9.00">&#45;3</text>
</g>
<!-- &#45;3&#45;&gt;0 -->
<g id="edge3" class="edge">
<title>&#45;3&#45;&gt;0</title>
<path fill="none" stroke="red" stroke-width="0.4" stroke-dasharray="1,5" d="M354.8,-129.7C343.69,-131.71 326.66,-134.79 312.05,-137.43"/>
<polygon fill="red" stroke="red" stroke-width="0.4" points="311.17,-134.03 301.96,-139.25 312.42,-140.92 311.17,-134.03"/>
<text text-anchor="middle" x="326.97" y="-135.06" font-family="Times,serif" font-size="5.00">&#45;1.513</text>
</g>
<!-- &#45;4 -->
<g id="node4" class="node">
<title>&#45;4</title>
<polygon fill="lightgray" stroke="black" points="114.99,-199.49 90.99,-199.49 90.99,-180.88 114.99,-180.88 114.99,-199.49"/>
<text text-anchor="middle" x="102.99" y="-187.48" font-family="Times,serif" font-size="9.00">&#45;4</text>
</g>
<!-- &#45;4&#45;&gt;35800 -->
<g id="edge26" class="edge">
<title>&#45;4&#45;&gt;35800</title>
<path fill="none" stroke="red" stroke-width="0.22" stroke-dasharray="1,5" d="M115.01,-190.48C123.79,-190.7 136.24,-191.01 148.45,-191.31"/>
<polygon fill="red" stroke="red" stroke-width="0.22" points="148.48,-194.81 158.57,-191.56 148.65,-187.81 148.48,-194.81"/>
<text text-anchor="middle" x="125.27" y="-186.39" font-family="Times,serif" font-size="5.00">&#45;0.587</text>
</g>
<!-- 6781 -->
<g id="node18" class="node">
<title>6781</title>
<ellipse fill="white" stroke="black" cx="107.92" cy="-99.63" rx="30.52" ry="30.52"/>
<text text-anchor="middle" x="107.92" y="-96.93" font-family="Times,serif" font-size="9.00">identity</text>
</g>
<!-- &#45;4&#45;&gt;6781 -->
<g id="edge8" class="edge">
<title>&#45;4&#45;&gt;6781</title>
<path fill="none" stroke="green" stroke-width="0.16" stroke-dasharray="1,5" d="M103.5,-180.84C104.02,-171.29 104.86,-155.8 105.67,-140.89"/>
<polygon fill="green" stroke="green" stroke-width="0.16" points="109.18,-140.92 106.22,-130.74 102.19,-140.54 109.18,-140.92"/>
<text text-anchor="middle" x="98.96" y="-162.36" font-family="Times,serif" font-size="5.00">0.290</text>
</g>
<!-- &#45;4&#45;&gt;37790 -->
<g id="edge20" class="edge">
<title>&#45;4&#45;&gt;37790</title>
<path fill="none" stroke="green" stroke-width="0.13" stroke-dasharray="1,5" d="M111.27,-199.7C118.25,-207.71 128.66,-219.66 138.55,-231.01"/>
<polygon fill="green" stroke="green" stroke-width="0.13" points="136.06,-233.48 145.27,-238.73 141.34,-228.89 136.06,-233.48"/>
<text text-anchor="middle" x="119.29" y="-216.86" font-family="Times,serif" font-size="5.00">0.161</text>
</g>
<!-- 44268 -->
<g id="node11" class="node">
<title>44268</title>
<ellipse fill="white" stroke="black" cx="102.22" cy="-286.78" rx="31.65" ry="31.65"/>
<text text-anchor="middle" x="102.22" y="-284.08" font-family="Times,serif" font-size="9.00">sigmoid</text>
</g>
<!-- 38117&#45;&gt;44268 -->
<g id="edge22" class="edge">
<title>38117&#45;&gt;44268</title>
<path fill="none" stroke="red" stroke-width="0.53" stroke-dasharray="1,5" d="M138.33,-242.3C135.29,-246.05 132.09,-249.98 128.92,-253.89"/>
<polygon fill="red" stroke="red" stroke-width="0.53" points="126.07,-251.85 122.48,-261.82 131.5,-256.27 126.07,-251.85"/>
<text text-anchor="middle" x="127.17" y="-249.6" font-family="Times,serif" font-size="5.00">&#45;2.129</text>
</g>
<!-- 38117&#45;&gt;37790 -->
<g id="edge15" class="edge">
<title>38117&#45;&gt;37790</title>
<path fill="none" stroke="red" stroke-width="0.15" stroke-dasharray="1,5" d="M163.65,-248.85C163.66,-248.92 163.67,-248.98 163.68,-249.04"/>
<polygon fill="red" stroke="red" stroke-width="0.15" points="158.38,-240.07 163.72,-249.22 165.25,-238.74 158.38,-240.07"/>
<text text-anchor="middle" x="157.21" y="-250.45" font-family="Times,serif" font-size="5.00">&#45;0.239</text>
</g>
<!-- 44905 -->
<g id="node7" class="node">
<title>44905</title>
<ellipse fill="white" stroke="black" cx="160.74" cy="-34.76" rx="30.55" ry="30.55"/>
<ellipse fill="none" stroke="black" cx="160.74" cy="-34.76" rx="34.52" ry="34.52"/>
<text text-anchor="middle" x="160.74" y="-32.06" font-family="Times,serif" font-size="9.00">identity</text>
</g>
<!-- 6489 -->
<g id="node16" class="node">
<title>6489</title>
<ellipse fill="white" stroke="black" cx="159.46" cy="-124.86" rx="35.21" ry="35.21"/>
<ellipse fill="none" stroke="black" cx="159.46" cy="-124.86" rx="39.19" ry="39.19"/>
<text text-anchor="middle" x="159.46" y="-122.16" font-family="Times,serif" font-size="9.00">heaviside</text>
</g>
<!-- 44905&#45;&gt;6489 -->
<g id="edge25" class="edge">
<title>44905&#45;&gt;6489</title>
<path fill="none" stroke="red" stroke-width="0.8" stroke-dasharray="1,5" d="M160.24,-69.59C160.22,-71.37 160.19,-73.16 160.17,-74.96"/>
<polygon fill="red" stroke="red" stroke-width="0.8" points="156.66,-75.27 160.02,-85.32 163.66,-75.37 156.66,-75.27"/>
<text text-anchor="middle" x="153.75" y="-73.78" font-family="Times,serif" font-size="5.00">&#45;3.522</text>
</g>
<!-- 54859&#45;&gt;54774 -->
<g id="edge31" class="edge">
<title>54859&#45;&gt;54774</title>
<path fill="none" stroke="green" stroke-width="0.26" d="M302.4,-275.52C302.34,-275.59 302.27,-275.67 302.21,-275.74"/>
<polygon fill="green" stroke="green" stroke-width="0.26" points="306.06,-266.15 302.02,-275.95 311.29,-270.81 306.06,-266.15"/>
<text text-anchor="middle" x="296.68" y="-277.13" font-family="Times,serif" font-size="5.00">0.783</text>
</g>
<!-- 43564 -->
<g id="node9" class="node">
<title>43564</title>
<ellipse fill="white" stroke="black" cx="39.35" cy="-56.55" rx="35.21" ry="35.21"/>
<ellipse fill="none" stroke="black" cx="39.35" cy="-56.55" rx="39.19" ry="39.19"/>
<text text-anchor="middle" x="39.35" y="-53.85" font-family="Times,serif" font-size="9.00">heaviside</text>
</g>
<!-- 43564&#45;&gt;6781 -->
<g id="edge21" class="edge">
<title>43564&#45;&gt;6781</title>
<path fill="none" stroke="green" stroke-width="0.5" stroke-dasharray="1,5" d="M72.83,-77.59C72.92,-77.65 73.02,-77.7 73.11,-77.76"/>
<polygon fill="green" stroke="green" stroke-width="0.5" points="71.41,-80.83 81.74,-83.18 75.13,-74.9 71.41,-80.83"/>
<text text-anchor="middle" x="67.34" y="-79.17" font-family="Times,serif" font-size="5.00">2.010</text>
</g>
<!-- 32365&#45;&gt;0 -->
<g id="edge7" class="edge">
<title>32365&#45;&gt;0</title>
<path fill="none" stroke="green" stroke-width="0.36" d="M234.68,-107.06C243.08,-113.15 252.14,-119.71 260.16,-125.52"/>
<polygon fill="green" stroke="green" stroke-width="0.36" points="258.21,-128.44 268.36,-131.47 262.32,-122.77 258.21,-128.44"/>
<text text-anchor="middle" x="253.05" y="-117.79" font-family="Times,serif" font-size="5.00">1.321</text>
</g>
<!-- 32365&#45;&gt;44905 -->
<g id="edge24" class="edge">
<title>32365&#45;&gt;44905</title>
<path fill="none" stroke="red" stroke-width="0.27" stroke-dasharray="1,5" d="M182.14,-59.18C182.09,-59.13 182.05,-59.08 182.01,-59.03"/>
<polygon fill="red" stroke="red" stroke-width="0.27" points="191.11,-64.1 181.88,-58.89 185.84,-68.71 191.11,-64.1"/>
<text text-anchor="middle" x="188.53" y="-60.6" font-family="Times,serif" font-size="5.00">&#45;0.855</text>
</g>
<!-- 32365&#45;&gt;32365 -->
<g id="edge12" class="edge">
<title>32365&#45;&gt;32365</title>
<path fill="none" stroke="red" stroke-width="0.27" stroke-dasharray="1,5" d="M240.52,-92.73C250.9,-92.53 258.98,-90.28 258.98,-85.99 258.98,-83.25 255.67,-81.34 250.55,-80.27"/>
<polygon fill="red" stroke="red" stroke-width="0.27" points="250.82,-76.78 240.52,-79.26 250.12,-83.74 250.82,-76.78"/>
<text text-anchor="middle" x="265.44" y="-84.49" font-family="Times,serif" font-size="5.00">&#45;0.863</text>
</g>
<!-- 32365&#45;&gt;6325 -->
<g id="edge27" class="edge">
<title>32365&#45;&gt;6325</title>
<path fill="none" stroke="red" stroke-width="0.32" d="M218.59,-119.24C218.61,-119.29 218.63,-119.34 218.65,-119.38"/>
<polygon fill="red" stroke="red" stroke-width="0.32" points="211.81,-111.48 218.7,-119.53 218.33,-108.94 211.81,-111.48"/>
<text text-anchor="middle" x="212.16" y="-120.81" font-family="Times,serif" font-size="5.00">&#45;1.088</text>
</g>
<!-- 32365&#45;&gt;6489 -->
<g id="edge19" class="edge">
<title>32365&#45;&gt;6489</title>
<path fill="none" stroke="green" stroke-width="0.55" stroke-dasharray="1,5" d="M178.5,-108.83C178.43,-108.89 178.35,-108.96 178.27,-109.03"/>
<polygon fill="green" stroke="green" stroke-width="0.55" points="183.43,-100.11 178.03,-109.22 187.94,-105.46 183.43,-100.11"/>
<text text-anchor="middle" x="172.76" y="-110.43" font-family="Times,serif" font-size="5.00">2.229</text>
</g>
<!-- 55450 -->
<g id="node17" class="node">
<title>55450</title>
<ellipse fill="white" stroke="black" cx="243.76" cy="-47.78" rx="31.65" ry="31.65"/>
<text text-anchor="middle" x="243.76" y="-45.08" font-family="Times,serif" font-size="9.00">sigmoid</text>
</g>
<!-- 32365&#45;&gt;55450 -->
<g id="edge33" class="edge">
<title>32365&#45;&gt;55450</title>
<path fill="none" stroke="green" stroke-width="0.3" stroke-dasharray="1,5" d="M230.85,-60.72C230.91,-60.66 230.96,-60.61 231.02,-60.55"/>
<polygon fill="green" stroke="green" stroke-width="0.3" points="226.6,-69.94 231.18,-60.38 221.64,-64.99 226.6,-69.94"/>
<text text-anchor="middle" x="225.31" y="-62.13" font-family="Times,serif" font-size="5.00">1.000</text>
</g>
<!-- 32365&#45;&gt;6781 -->
<g id="edge32" class="edge">
<title>32365&#45;&gt;6781</title>
<path fill="none" stroke="green" stroke-width="0.42" stroke-dasharray="1,5" d="M170.36,-90.92C163.38,-91.89 156,-92.92 148.85,-93.92"/>
<polygon fill="green" stroke="green" stroke-width="0.42" points="148.04,-90.5 138.62,-95.35 149.01,-97.43 148.04,-90.5"/>
<text text-anchor="middle" x="153.98" y="-93.92" font-family="Times,serif" font-size="5.00">1.592</text>
</g>
<!-- 44268&#45;&gt;37790 -->
<g id="edge23" class="edge">
<title>44268&#45;&gt;37790</title>
<path fill="none" stroke="green" stroke-width="0.26" stroke-dasharray="1,5" d="M132.41,-275.57C132.58,-275.5 132.74,-275.44 132.9,-275.38"/>
<polygon fill="green" stroke="green" stroke-width="0.26" points="128.16,-280.88 136.32,-274.12 125.73,-274.31 128.16,-280.88"/>
<text text-anchor="middle" x="127.03" y="-276.97" font-family="Times,serif" font-size="5.00">0.800</text>
</g>
<!-- 38674&#45;&gt;37790 -->
<g id="edge18" class="edge">
<title>38674&#45;&gt;37790</title>
<path fill="none" stroke="green" stroke-width="0.18" d="M194.85,-279.98C194.76,-279.93 194.68,-279.88 194.6,-279.83"/>
<polygon fill="green" stroke="green" stroke-width="0.18" points="204.22,-281.5 193.84,-279.38 200.62,-287.51 204.22,-281.5"/>
<text text-anchor="middle" x="189.1" y="-281.4" font-family="Times,serif" font-size="5.00">0.389</text>
</g>
<!-- 6325&#45;&gt;6489 -->
<g id="edge4" class="edge">
<title>6325&#45;&gt;6489</title>
<path fill="none" stroke="green" stroke-width="0.16" d="M195.27,-127.19C195.2,-127.17 195.14,-127.15 195.07,-127.14"/>
<polygon fill="green" stroke="green" stroke-width="0.16" points="205.43,-126.2 194.87,-127.09 203.68,-132.98 205.43,-126.2"/>
<text text-anchor="middle" x="189.54" y="-128.66" font-family="Times,serif" font-size="5.00">0.316</text>
</g>
<!-- 54774&#45;&gt;38674 -->
<g id="edge29" class="edge">
<title>54774&#45;&gt;38674</title>
<path fill="none" stroke="red" stroke-width="0.24" d="M252.29,-295.83C252.23,-295.83 252.18,-295.84 252.12,-295.84"/>
<polygon fill="red" stroke="red" stroke-width="0.24" points="261.6,-291.47 251.96,-295.86 262.23,-298.44 261.6,-291.47"/>
<text text-anchor="middle" x="245.75" y="-297.34" font-family="Times,serif" font-size="5.00">&#45;0.715</text>
</g>
<!-- 35800&#45;&gt;6325 -->
<g id="edge10" class="edge">
<title>35800&#45;&gt;6325</title>
<path fill="none" stroke="green" stroke-width="0.38" d="M208.36,-167.74C208.4,-167.69 208.43,-167.65 208.47,-167.6"/>
<polygon fill="green" stroke="green" stroke-width="0.38" points="205.27,-177.51 208.58,-167.45 199.71,-173.25 205.27,-177.51"/>
<text text-anchor="middle" x="202.79" y="-169.17" font-family="Times,serif" font-size="5.00">1.395</text>
</g>
<!-- 6489&#45;&gt;38117 -->
<g id="edge16" class="edge">
<title>6489&#45;&gt;38117</title>
<path fill="none" stroke="red" stroke-width="0.14" stroke-dasharray="1,5" d="M158.74,-164.25C158.66,-168.63 158.58,-173.1 158.5,-177.5"/>
<polygon fill="red" stroke="red" stroke-width="0.14" points="155,-177.49 158.32,-187.56 162,-177.62 155,-177.49"/>
<text text-anchor="middle" x="152.16" y="-172.37" font-family="Times,serif" font-size="5.00">&#45;0.209</text>
</g>
<!-- 6489&#45;&gt;6325 -->
<g id="edge11" class="edge">
<title>6489&#45;&gt;6325</title>
<path fill="none" stroke="red" stroke-width="0.11" stroke-dasharray="1,5" d="M195.48,-141.16C195.54,-141.17 195.6,-141.19 195.66,-141.2"/>
<polygon fill="red" stroke="red" stroke-width="0.11" points="185.31,-142.32 195.85,-141.24 186.94,-135.51 185.31,-142.32"/>
<text text-anchor="middle" x="189.11" y="-142.68" font-family="Times,serif" font-size="5.00">&#45;0.073</text>
</g>
<!-- 55450&#45;&gt;6325 -->
<g id="edge34" class="edge">
<title>55450&#45;&gt;6325</title>
<path fill="none" stroke="red" stroke-width="0.32" d="M238.41,-79.35C237.44,-85.07 236.41,-91.15 235.38,-97.18"/>
<polygon fill="red" stroke="red" stroke-width="0.32" points="231.9,-96.78 233.68,-107.23 238.8,-97.95 231.9,-96.78"/>
<text text-anchor="middle" x="243.35" y="-89.77" font-family="Times,serif" font-size="5.00">&#45;1.088</text>
</g>
</g>
</svg>
