<?xml version="1.0" encoding="UTF-8" standalone="no"?>
<!DOCTYPE svg PUBLIC "-//W3C//DTD SVG 1.1//EN"
 "http://www.w3.org/Graphics/SVG/1.1/DTD/svg11.dtd">
<!-- Generated by graphviz version 2.47.1 (20210417.1919)
 -->
<!-- Pages: 1 -->
<svg width="207pt" height="208pt"
 viewBox="0.00 0.00 207.50 207.63" xmlns="http://www.w3.org/2000/svg" xmlns:xlink="http://www.w3.org/1999/xlink">
<g id="graph0" class="graph" transform="scale(1 1) rotate(0) translate(4 203.63)">
<polygon fill="white" stroke="transparent" points="-4,4 -4,-203.63 203.5,-203.63 203.5,4 -4,4"/>
<!-- &#45;1 -->
<g id="node1" class="node">
<title>&#45;1</title>
<polygon fill="lightgray" stroke="black" points="199.75,-130.7 175.75,-130.7 175.75,-112.1 199.75,-112.1 199.75,-130.7"/>
<text text-anchor="middle" x="187.75" y="-118.7" font-family="Times,serif" font-size="9.00">&#45;1</text>
</g>
<!-- &#45;2 -->
<g id="node2" class="node">
<title>&#45;2</title>
<polygon fill="lightgray" stroke="black" points="23.75,-112.97 -0.25,-112.97 -0.25,-94.37 23.75,-94.37 23.75,-112.97"/>
<text text-anchor="middle" x="11.75" y="-100.97" font-family="Times,serif" font-size="9.00">&#45;2</text>
</g>
<!-- 0 -->
<g id="node5" class="node">
<title>0</title>
<ellipse fill="lightblue" stroke="black" cx="103.02" cy="-84.5" rx="14.49" ry="14.49"/>
<ellipse fill="none" stroke="black" cx="103.02" cy="-84.5" rx="18.49" ry="18.49"/>
<text text-anchor="middle" x="103.02" y="-81.8" font-family="Times,serif" font-size="9.00">0</text>
</g>
<!-- &#45;2&#45;&gt;0 -->
<g id="edge1" class="edge">
<title>&#45;2&#45;&gt;0</title>
<path fill="none" stroke="green" stroke-width="0.17" d="M23.68,-101.17C36.56,-98.46 57.55,-94.05 74.7,-90.45"/>
<polygon fill="green" stroke="green" stroke-width="0.17" points="75.71,-93.82 84.78,-88.33 74.27,-86.96 75.71,-93.82"/>
<text text-anchor="middle" x="54.81" y="-97.31" font-family="Times,serif" font-size="5.00">0.339</text>
</g>
<!-- 18765 -->
<g id="node7" class="node">
<title>18765</title>
<ellipse fill="white" stroke="black" cx="35.53" cy="-156.13" rx="35.19" ry="35.19"/>
<text text-anchor="middle" x="35.53" y="-153.43" font-family="Times,serif" font-size="9.00">heaviside</text>
</g>
<!-- &#45;2&#45;&gt;18765 -->
<g id="edge6" class="edge">
<title>&#45;2&#45;&gt;18765</title>
<path fill="none" stroke="red" stroke-width="0.14" stroke-dasharray="1,5" d="M16.11,-113.29C16.28,-113.68 16.46,-114.07 16.64,-114.47"/>
<polygon fill="red" stroke="red" stroke-width="0.14" points="13.53,-116.08 20.85,-123.74 19.9,-113.19 13.53,-116.08"/>
<text text-anchor="middle" x="9.92" y="-115.38" font-family="Times,serif" font-size="5.00">&#45;0.208</text>
</g>
<!-- 397 -->
<g id="node8" class="node">
<title>397</title>
<ellipse fill="white" stroke="black" cx="40.71" cy="-62.4" rx="30.55" ry="30.55"/>
<ellipse fill="none" stroke="black" cx="40.71" cy="-62.4" rx="34.52" ry="34.52"/>
<text text-anchor="middle" x="40.71" y="-59.7" font-family="Times,serif" font-size="9.00">identity</text>
</g>
<!-- &#45;2&#45;&gt;397 -->
<g id="edge2" class="edge">
<title>&#45;2&#45;&gt;397</title>
<path fill="none" stroke="green" stroke-width="0.25" d="M18.46,-94.1C18.55,-93.98 18.63,-93.86 18.72,-93.74"/>
<polygon fill="green" stroke="green" stroke-width="0.25" points="17.68,-101.32 20.55,-91.12 11.95,-97.3 17.68,-101.32"/>
<text text-anchor="middle" x="12.97" y="-89.42" font-family="Times,serif" font-size="5.00">0.769</text>
</g>
<!-- &#45;3 -->
<g id="node3" class="node">
<title>&#45;3</title>
<polygon fill="lightgray" stroke="black" points="193.51,-77.11 169.51,-77.11 169.51,-58.51 193.51,-58.51 193.51,-77.11"/>
<text text-anchor="middle" x="181.51" y="-65.11" font-family="Times,serif" font-size="9.00">&#45;3</text>
</g>
<!-- &#45;3&#45;&gt;0 -->
<g id="edge5" class="edge">
<title>&#45;3&#45;&gt;0</title>
<path fill="none" stroke="green" stroke-width="0.2" stroke-dasharray="1,5" d="M169.59,-70.35C159.44,-72.51 144.44,-75.69 131.25,-78.5"/>
<polygon fill="green" stroke="green" stroke-width="0.2" points="130.24,-75.14 121.19,-80.64 131.7,-81.98 130.24,-75.14"/>
<text text-anchor="middle" x="144.8" y="-75.92" font-family="Times,serif" font-size="5.00">0.501</text>
</g>
<!-- &#45;4 -->
<g id="node4" class="node">
<title>&#45;4</title>
<polygon fill="lightgray" stroke="black" points="97.19,-18.7 73.19,-18.7 73.19,-0.1 97.19,-0.1 97.19,-18.7"/>
<text text-anchor="middle" x="85.19" y="-6.7" font-family="Times,serif" font-size="9.00">&#45;4</text>
</g>
<!-- &#45;4&#45;&gt;0 -->
<g id="edge7" class="edge">
<title>&#45;4&#45;&gt;0</title>
<path fill="none" stroke="green" stroke-width="0.19" stroke-dasharray="1,5" d="M87.45,-18.91C89.68,-28.32 93.21,-43.18 96.34,-56.38"/>
<polygon fill="green" stroke="green" stroke-width="0.19" points="93.02,-57.55 98.74,-66.47 99.83,-55.93 93.02,-57.55"/>
<text text-anchor="middle" x="86.27" y="-39.14" font-family="Times,serif" font-size="5.00">0.444</text>
</g>
<!-- &#45;4&#45;&gt;397 -->
<g id="edge4" class="edge">
<title>&#45;4&#45;&gt;397</title>
<path fill="none" stroke="red" stroke-width="0.33" stroke-dasharray="1,5" d="M77.03,-19.12C74.89,-21.67 72.46,-24.57 69.89,-27.64"/>
<polygon fill="red" stroke="red" stroke-width="0.33" points="67.04,-25.58 63.3,-35.49 72.41,-30.08 67.04,-25.58"/>
<text text-anchor="middle" x="67" y="-18.88" font-family="Times,serif" font-size="5.00">&#45;1.141</text>
</g>
<!-- 16187 -->
<g id="node6" class="node">
<title>16187</title>
<ellipse fill="white" stroke="black" cx="110.9" cy="-164.88" rx="30.55" ry="30.55"/>
<ellipse fill="none" stroke="black" cx="110.9" cy="-164.88" rx="34.52" ry="34.52"/>
<text text-anchor="middle" x="110.9" y="-162.18" font-family="Times,serif" font-size="9.00">identity</text>
</g>
<!-- 0&#45;&gt;16187 -->
<g id="edge8" class="edge">
<title>0&#45;&gt;16187</title>
<path fill="none" stroke="red" stroke-width="0.54" d="M104.85,-103.14C105.35,-108.31 105.93,-114.16 106.51,-120.14"/>
<polygon fill="red" stroke="red" stroke-width="0.54" points="103.05,-120.63 107.51,-130.24 110.01,-119.94 103.05,-120.63"/>
<text text-anchor="middle" x="99.22" y="-113.14" font-family="Times,serif" font-size="5.00">&#45;2.181</text>
</g>
<!-- 16187&#45;&gt;18765 -->
<g id="edge9" class="edge">
<title>16187&#45;&gt;18765</title>
<path fill="none" stroke="red" stroke-width="0.12" d="M76.31,-160.86C76.19,-160.85 76.07,-160.83 75.96,-160.82"/>
<polygon fill="red" stroke="red" stroke-width="0.12" points="81.06,-157.89 70.72,-160.21 80.25,-164.84 81.06,-157.89"/>
<text text-anchor="middle" x="69.68" y="-162.34" font-family="Times,serif" font-size="5.00">&#45;0.081</text>
</g>
<!-- 18765&#45;&gt;397 -->
<g id="edge10" class="edge">
<title>18765&#45;&gt;397</title>
<path fill="none" stroke="green" stroke-width="0.23" stroke-dasharray="1,5" d="M37.49,-120.7C37.73,-116.38 37.97,-111.93 38.22,-107.5"/>
<polygon fill="green" stroke="green" stroke-width="0.23" points="41.73,-107.44 38.78,-97.27 34.74,-107.06 41.73,-107.44"/>
<text text-anchor="middle" x="32.23" y="-115.6" font-family="Times,serif" font-size="5.00">0.666</text>
</g>
<!-- 397&#45;&gt;0 -->
<g id="edge3" class="edge">
<title>397&#45;&gt;0</title>
<path fill="none" stroke="red" stroke-width="0.5" d="M73.69,-74.1C74.45,-74.37 75.22,-74.64 75.98,-74.91"/>
<polygon fill="red" stroke="red" stroke-width="0.5" points="74.94,-78.26 85.54,-78.3 77.28,-71.66 74.94,-78.26"/>
<text text-anchor="middle" x="78.06" y="-70.01" font-family="Times,serif" font-size="5.00">&#45;1.995</text>
</g>
</g>
</svg>
