<?xml version="1.0" encoding="UTF-8" standalone="no"?>
<!DOCTYPE svg PUBLIC "-//W3C//DTD SVG 1.1//EN"
 "http://www.w3.org/Graphics/SVG/1.1/DTD/svg11.dtd">
<!-- Generated by graphviz version 2.47.1 (20210417.1919)
 -->
<!-- Pages: 1 -->
<svg width="331pt" height="523pt"
 viewBox="0.00 0.00 330.50 522.88" xmlns="http://www.w3.org/2000/svg" xmlns:xlink="http://www.w3.org/1999/xlink">
<g id="graph0" class="graph" transform="scale(1 1) rotate(0) translate(4 518.88)">
<polygon fill="white" stroke="transparent" points="-4,4 -4,-518.88 326.5,-518.88 326.5,4 -4,4"/>
<!-- &#45;1 -->
<g id="node1" class="node">
<title>&#45;1</title>
<polygon fill="lightgray" stroke="black" points="23.75,-195.36 -0.25,-195.36 -0.25,-176.76 23.75,-176.76 23.75,-195.36"/>
<text text-anchor="middle" x="11.75" y="-183.36" font-family="Times,serif" font-size="9.00">&#45;1</text>
</g>
<!-- 203 -->
<g id="node8" class="node">
<title>203</title>
<ellipse fill="white" stroke="black" cx="97.95" cy="-176.68" rx="30.55" ry="30.55"/>
<ellipse fill="none" stroke="black" cx="97.95" cy="-176.68" rx="34.52" ry="34.52"/>
<text text-anchor="middle" x="97.95" y="-173.98" font-family="Times,serif" font-size="9.00">identity</text>
</g>
<!-- &#45;1&#45;&gt;203 -->
<g id="edge6" class="edge">
<title>&#45;1&#45;&gt;203</title>
<path fill="none" stroke="green" stroke-width="0.47" d="M23.73,-184.76C31.6,-183.9 42.42,-182.72 53.37,-181.53"/>
<polygon fill="green" stroke="green" stroke-width="0.47" points="53.81,-185 63.38,-180.44 53.06,-178.05 53.81,-185"/>
<text text-anchor="middle" x="32.92" y="-184.64" font-family="Times,serif" font-size="5.00">1.849</text>
</g>
<!-- &#45;2 -->
<g id="node2" class="node">
<title>&#45;2</title>
<polygon fill="lightgray" stroke="black" points="179.84,-339.56 155.84,-339.56 155.84,-320.96 179.84,-320.96 179.84,-339.56"/>
<text text-anchor="middle" x="167.84" y="-327.56" font-family="Times,serif" font-size="9.00">&#45;2</text>
</g>
<!-- 0 -->
<g id="node5" class="node">
<title>0</title>
<ellipse fill="lightblue" stroke="black" cx="145.43" cy="-248.88" rx="14.49" ry="14.49"/>
<ellipse fill="none" stroke="black" cx="145.43" cy="-248.88" rx="18.49" ry="18.49"/>
<text text-anchor="middle" x="145.43" y="-246.18" font-family="Times,serif" font-size="9.00">0</text>
</g>
<!-- &#45;2&#45;&gt;0 -->
<g id="edge1" class="edge">
<title>&#45;2&#45;&gt;0</title>
<path fill="none" stroke="green" stroke-width="0.33" d="M165.27,-320.92C162.34,-310.27 157.4,-292.35 153.19,-277.05"/>
<polygon fill="green" stroke="green" stroke-width="0.33" points="156.45,-275.7 150.42,-266.99 149.7,-277.56 156.45,-275.7"/>
<text text-anchor="middle" x="153.6" y="-300.48" font-family="Times,serif" font-size="5.00">1.150</text>
</g>
<!-- 69260 -->
<g id="node9" class="node">
<title>69260</title>
<ellipse fill="white" stroke="black" cx="244.43" cy="-351.67" rx="35.21" ry="35.21"/>
<ellipse fill="none" stroke="black" cx="244.43" cy="-351.67" rx="39.19" ry="39.19"/>
<text text-anchor="middle" x="244.43" y="-348.97" font-family="Times,serif" font-size="9.00">heaviside</text>
</g>
<!-- &#45;2&#45;&gt;69260 -->
<g id="edge17" class="edge">
<title>&#45;2&#45;&gt;69260</title>
<path fill="none" stroke="green" stroke-width="0.26" d="M179.81,-333.6C184.56,-334.93 190.35,-336.55 196.5,-338.27"/>
<polygon fill="green" stroke="green" stroke-width="0.26" points="195.79,-341.7 206.36,-341.02 197.67,-334.96 195.79,-341.7"/>
<text text-anchor="middle" x="193.78" y="-337.44" font-family="Times,serif" font-size="5.00">0.794</text>
</g>
<!-- 2702 -->
<g id="node11" class="node">
<title>2702</title>
<ellipse fill="white" stroke="black" cx="141.36" cy="-406.33" rx="30.52" ry="30.52"/>
<text text-anchor="middle" x="141.36" y="-403.63" font-family="Times,serif" font-size="9.00">identity</text>
</g>
<!-- &#45;2&#45;&gt;2702 -->
<g id="edge10" class="edge">
<title>&#45;2&#45;&gt;2702</title>
<path fill="none" stroke="green" stroke-width="0.42" d="M164.59,-339.59C162.1,-346.75 158.47,-357.18 154.82,-367.66"/>
<polygon fill="green" stroke="green" stroke-width="0.42" points="151.47,-366.62 151.49,-377.22 158.09,-368.92 151.47,-366.62"/>
<text text-anchor="middle" x="154.08" y="-355.12" font-family="Times,serif" font-size="5.00">1.599</text>
</g>
<!-- 731 -->
<g id="node13" class="node">
<title>731</title>
<ellipse fill="white" stroke="black" cx="216.39" cy="-282.49" rx="35.19" ry="35.19"/>
<text text-anchor="middle" x="216.39" y="-279.79" font-family="Times,serif" font-size="9.00">heaviside</text>
</g>
<!-- &#45;2&#45;&gt;731 -->
<g id="edge7" class="edge">
<title>&#45;2&#45;&gt;731</title>
<path fill="none" stroke="green" stroke-width="0.45" stroke-dasharray="1,5" d="M177.67,-320.59C179.48,-318.8 181.47,-316.85 183.56,-314.79"/>
<polygon fill="green" stroke="green" stroke-width="0.45" points="186.24,-317.07 190.91,-307.56 181.33,-312.08 186.24,-317.07"/>
<text text-anchor="middle" x="174.99" y="-313.19" font-family="Times,serif" font-size="5.00">1.758</text>
</g>
<!-- &#45;3 -->
<g id="node3" class="node">
<title>&#45;3</title>
<polygon fill="lightgray" stroke="black" points="236.29,-229.02 212.29,-229.02 212.29,-210.41 236.29,-210.41 236.29,-229.02"/>
<text text-anchor="middle" x="224.29" y="-217.02" font-family="Times,serif" font-size="9.00">&#45;3</text>
</g>
<!-- &#45;3&#45;&gt;0 -->
<g id="edge2" class="edge">
<title>&#45;3&#45;&gt;0</title>
<path fill="none" stroke="red" stroke-width="0.28" stroke-dasharray="1,5" d="M212.31,-224.15C201.7,-228.07 185.83,-233.94 172.21,-238.98"/>
<polygon fill="red" stroke="red" stroke-width="0.28" points="170.96,-235.71 162.8,-242.46 173.39,-242.27 170.96,-235.71"/>
<text text-anchor="middle" x="185.8" y="-233.06" font-family="Times,serif" font-size="5.00">&#45;0.912</text>
</g>
<!-- &#45;3&#45;&gt;731 -->
<g id="edge11" class="edge">
<title>&#45;3&#45;&gt;731</title>
<path fill="none" stroke="green" stroke-width="0.18" d="M223.09,-229.25C222.8,-231.56 222.47,-234.19 222.11,-237.02"/>
<polygon fill="green" stroke="green" stroke-width="0.18" points="218.61,-236.81 220.83,-247.17 225.56,-237.68 218.61,-236.81"/>
<text text-anchor="middle" x="216.97" y="-234.63" font-family="Times,serif" font-size="5.00">0.384</text>
</g>
<!-- 68924 -->
<g id="node14" class="node">
<title>68924</title>
<ellipse fill="white" stroke="black" cx="290.68" cy="-252.26" rx="31.65" ry="31.65"/>
<text text-anchor="middle" x="290.68" y="-249.56" font-family="Times,serif" font-size="9.00">sigmoid</text>
</g>
<!-- &#45;3&#45;&gt;68924 -->
<g id="edge15" class="edge">
<title>&#45;3&#45;&gt;68924</title>
<path fill="none" stroke="green" stroke-width="0.45" stroke-dasharray="1,5" d="M236.16,-225.53C241.02,-227.92 246.94,-230.82 253.06,-233.82"/>
<polygon fill="green" stroke="green" stroke-width="0.45" points="251.56,-236.98 262.08,-238.24 254.64,-230.7 251.56,-236.98"/>
<text text-anchor="middle" x="238.99" y="-231.18" font-family="Times,serif" font-size="5.00">1.767</text>
</g>
<!-- &#45;4 -->
<g id="node4" class="node">
<title>&#45;4</title>
<polygon fill="lightgray" stroke="black" points="84.44,-295.61 60.44,-295.61 60.44,-277.01 84.44,-277.01 84.44,-295.61"/>
<text text-anchor="middle" x="72.44" y="-283.61" font-family="Times,serif" font-size="9.00">&#45;4</text>
</g>
<!-- &#45;4&#45;&gt;0 -->
<g id="edge3" class="edge">
<title>&#45;4&#45;&gt;0</title>
<path fill="none" stroke="red" stroke-width="0.28" stroke-dasharray="1,5" d="M84.49,-280.13C94.01,-275.25 107.64,-268.26 119.6,-262.13"/>
<polygon fill="red" stroke="red" stroke-width="0.28" points="121.42,-265.13 128.72,-257.45 118.22,-258.9 121.42,-265.13"/>
<text text-anchor="middle" x="95.59" y="-272.63" font-family="Times,serif" font-size="5.00">&#45;0.901</text>
</g>
<!-- 0&#45;&gt;0 -->
<g id="edge4" class="edge">
<title>0&#45;&gt;0</title>
<path fill="none" stroke="red" stroke-width="0.13" stroke-dasharray="1,5" d="M163.08,-255.31C172.89,-256.51 181.93,-254.37 181.93,-248.88 181.93,-245.46 178.4,-243.33 173.36,-242.52"/>
<polygon fill="red" stroke="red" stroke-width="0.13" points="173.1,-239.02 163.08,-242.46 173.06,-246.02 173.1,-239.02"/>
<text text-anchor="middle" x="188.38" y="-247.38" font-family="Times,serif" font-size="5.00">&#45;0.148</text>
</g>
<!-- 0&#45;&gt;203 -->
<g id="edge5" class="edge">
<title>0&#45;&gt;203</title>
<path fill="none" stroke="red" stroke-width="0.4" d="M135.13,-233.22C131.45,-227.62 127.12,-221.04 122.75,-214.39"/>
<polygon fill="red" stroke="red" stroke-width="0.4" points="125.65,-212.43 117.23,-206 119.8,-216.28 125.65,-212.43"/>
<text text-anchor="middle" x="122.48" y="-225.3" font-family="Times,serif" font-size="5.00">&#45;1.482</text>
</g>
<!-- 2786 -->
<g id="node6" class="node">
<title>2786</title>
<ellipse fill="white" stroke="black" cx="121.74" cy="-479.06" rx="31.67" ry="31.67"/>
<ellipse fill="none" stroke="black" cx="121.74" cy="-479.06" rx="35.65" ry="35.65"/>
<text text-anchor="middle" x="121.74" y="-476.36" font-family="Times,serif" font-size="9.00">sigmoid</text>
</g>
<!-- 69381 -->
<g id="node7" class="node">
<title>69381</title>
<ellipse fill="white" stroke="black" cx="87.16" cy="-31.82" rx="31.65" ry="31.65"/>
<text text-anchor="middle" x="87.16" y="-29.12" font-family="Times,serif" font-size="9.00">sigmoid</text>
</g>
<!-- 69323 -->
<g id="node10" class="node">
<title>69323</title>
<ellipse fill="white" stroke="black" cx="125.92" cy="-97.99" rx="31.65" ry="31.65"/>
<text text-anchor="middle" x="125.92" y="-95.29" font-family="Times,serif" font-size="9.00">sigmoid</text>
</g>
<!-- 69381&#45;&gt;69323 -->
<g id="edge22" class="edge">
<title>69381&#45;&gt;69323</title>
<path fill="none" stroke="green" stroke-width="0.3" d="M103.38,-59.5C103.77,-60.16 104.16,-60.83 104.55,-61.5"/>
<polygon fill="green" stroke="green" stroke-width="0.3" points="101.58,-63.35 109.65,-70.21 107.62,-59.81 101.58,-63.35"/>
<text text-anchor="middle" x="98.34" y="-62" font-family="Times,serif" font-size="5.00">1.000</text>
</g>
<!-- 203&#45;&gt;203 -->
<g id="edge9" class="edge">
<title>203&#45;&gt;203</title>
<path fill="none" stroke="green" stroke-width="0.22" d="M132.2,-183.42C142.59,-183.25 150.71,-181.01 150.71,-176.68 150.71,-173.91 147.37,-171.99 142.25,-170.93"/>
<polygon fill="green" stroke="green" stroke-width="0.22" points="142.49,-167.44 132.2,-169.94 141.81,-174.4 142.49,-167.44"/>
<text text-anchor="middle" x="156.33" y="-175.18" font-family="Times,serif" font-size="5.00">0.596</text>
</g>
<!-- 4183 -->
<g id="node12" class="node">
<title>4183</title>
<ellipse fill="white" stroke="black" cx="67.12" cy="-104.93" rx="35.19" ry="35.19"/>
<text text-anchor="middle" x="67.12" y="-102.23" font-family="Times,serif" font-size="9.00">heaviside</text>
</g>
<!-- 203&#45;&gt;4183 -->
<g id="edge13" class="edge">
<title>203&#45;&gt;4183</title>
<path fill="none" stroke="red" stroke-width="0.44" stroke-dasharray="1,5" d="M90.5,-142.35C90.46,-142.27 90.43,-142.18 90.39,-142.1"/>
<polygon fill="red" stroke="red" stroke-width="0.44" points="94.17,-142.01 87,-134.21 87.74,-144.78 94.17,-142.01"/>
<text text-anchor="middle" x="96.9" y="-137.72" font-family="Times,serif" font-size="5.00">&#45;1.709</text>
</g>
<!-- 69260&#45;&gt;731 -->
<g id="edge18" class="edge">
<title>69260&#45;&gt;731</title>
<path fill="none" stroke="green" stroke-width="0.28" d="M229.59,-315.05C229.57,-314.99 229.54,-314.92 229.51,-314.86"/>
<polygon fill="green" stroke="green" stroke-width="0.28" points="236.44,-322.61 229.44,-314.66 229.95,-325.25 236.44,-322.61"/>
<text text-anchor="middle" x="223.93" y="-316.45" font-family="Times,serif" font-size="5.00">0.917</text>
</g>
<!-- 69323&#45;&gt;203 -->
<g id="edge20" class="edge">
<title>69323&#45;&gt;203</title>
<path fill="none" stroke="green" stroke-width="0.26" d="M115.19,-128.19C114.51,-130.11 113.81,-132.06 113.12,-134.02"/>
<polygon fill="green" stroke="green" stroke-width="0.26" points="109.68,-133.22 109.63,-143.82 116.28,-135.57 109.68,-133.22"/>
<text text-anchor="middle" x="119.78" y="-132.6" font-family="Times,serif" font-size="5.00">0.802</text>
</g>
<!-- 2702&#45;&gt;2786 -->
<g id="edge12" class="edge">
<title>2702&#45;&gt;2786</title>
<path fill="none" stroke="green" stroke-width="0.27" d="M133.27,-436.33C133.24,-436.41 133.22,-436.5 133.2,-436.58"/>
<polygon fill="green" stroke="green" stroke-width="0.27" points="130.32,-433.83 131.09,-444.39 137.07,-435.65 130.32,-433.83"/>
<text text-anchor="middle" x="138.86" y="-437.96" font-family="Times,serif" font-size="5.00">0.834</text>
</g>
<!-- 4183&#45;&gt;69381 -->
<g id="edge21" class="edge">
<title>4183&#45;&gt;69381</title>
<path fill="none" stroke="green" stroke-width="0.13" stroke-dasharray="1,5" d="M76.55,-70.52C76.58,-70.43 76.6,-70.35 76.62,-70.27"/>
<polygon fill="green" stroke="green" stroke-width="0.13" points="79.47,-73.1 78.74,-62.53 72.72,-71.25 79.47,-73.1"/>
<text text-anchor="middle" x="70.96" y="-65.89" font-family="Times,serif" font-size="5.00">0.138</text>
</g>
<!-- 4183&#45;&gt;203 -->
<g id="edge14" class="edge">
<title>4183&#45;&gt;203</title>
<path fill="none" stroke="red" stroke-width="0.1" stroke-dasharray="1,5" d="M74.74,-139.68C74.77,-139.76 74.81,-139.85 74.84,-139.93"/>
<polygon fill="red" stroke="red" stroke-width="0.1" points="71.04,-139.97 78.22,-147.76 77.47,-137.19 71.04,-139.97"/>
<text text-anchor="middle" x="68.33" y="-135.31" font-family="Times,serif" font-size="5.00">&#45;0.001</text>
</g>
<!-- 4183&#45;&gt;69323 -->
<g id="edge19" class="edge">
<title>4183&#45;&gt;69323</title>
<path fill="none" stroke="green" stroke-width="0.3" d="M102.34,-100.77C102.39,-100.77 102.44,-100.76 102.49,-100.76"/>
<polygon fill="green" stroke="green" stroke-width="0.3" points="93.12,-105.39 102.64,-100.74 92.29,-98.44 93.12,-105.39"/>
<text text-anchor="middle" x="108.04" y="-102.26" font-family="Times,serif" font-size="5.00">1.000</text>
</g>
<!-- 731&#45;&gt;0 -->
<g id="edge8" class="edge">
<title>731&#45;&gt;0</title>
<path fill="none" stroke="red" stroke-width="0.3" d="M184.23,-267.26C179.94,-265.23 175.59,-263.16 171.42,-261.19"/>
<polygon fill="red" stroke="red" stroke-width="0.3" points="172.69,-257.92 162.16,-256.8 169.7,-264.25 172.69,-257.92"/>
<text text-anchor="middle" x="171.37" y="-265.72" font-family="Times,serif" font-size="5.00">&#45;1.005</text>
</g>
<!-- 68924&#45;&gt;731 -->
<g id="edge16" class="edge">
<title>68924&#45;&gt;731</title>
<path fill="none" stroke="red" stroke-width="0.6" d="M260.89,-264.38C260.31,-264.62 259.73,-264.85 259.15,-265.09"/>
<polygon fill="red" stroke="red" stroke-width="0.6" points="257.55,-261.96 249.6,-268.97 260.18,-268.45 257.55,-261.96"/>
<text text-anchor="middle" x="253.56" y="-266.24" font-family="Times,serif" font-size="5.00">&#45;2.475</text>
</g>
</g>
</svg>
