<?xml version="1.0" encoding="UTF-8" standalone="no"?>
<!DOCTYPE svg PUBLIC "-//W3C//DTD SVG 1.1//EN"
 "http://www.w3.org/Graphics/SVG/1.1/DTD/svg11.dtd">
<!-- Generated by graphviz version 2.47.1 (20210417.1919)
 -->
<!-- Pages: 1 -->
<svg width="340pt" height="341pt"
 viewBox="0.00 0.00 340.10 340.77" xmlns="http://www.w3.org/2000/svg" xmlns:xlink="http://www.w3.org/1999/xlink">
<g id="graph0" class="graph" transform="scale(1 1) rotate(0) translate(4 336.77)">
<polygon fill="white" stroke="transparent" points="-4,4 -4,-336.77 336.1,-336.77 336.1,4 -4,4"/>
<!-- &#45;1 -->
<g id="node1" class="node">
<title>&#45;1</title>
<polygon fill="lightgray" stroke="black" points="116.92,-159.82 92.92,-159.82 92.92,-141.22 116.92,-141.22 116.92,-159.82"/>
<text text-anchor="middle" x="104.92" y="-147.82" font-family="Times,serif" font-size="9.00">&#45;1</text>
</g>
<!-- 6054 -->
<g id="node7" class="node">
<title>6054</title>
<ellipse fill="white" stroke="black" cx="119.37" cy="-224.26" rx="30.55" ry="30.55"/>
<ellipse fill="none" stroke="black" cx="119.37" cy="-224.26" rx="34.52" ry="34.52"/>
<text text-anchor="middle" x="119.37" y="-221.56" font-family="Times,serif" font-size="9.00">identity</text>
</g>
<!-- &#45;1&#45;&gt;6054 -->
<g id="edge6" class="edge">
<title>&#45;1&#45;&gt;6054</title>
<path fill="none" stroke="red" stroke-width="0.25" d="M106.75,-159.86C107.81,-165.26 109.22,-172.48 110.72,-180.14"/>
<polygon fill="red" stroke="red" stroke-width="0.25" points="107.29,-180.82 112.65,-189.96 114.16,-179.48 107.29,-180.82"/>
<text text-anchor="middle" x="102.28" y="-171.5" font-family="Times,serif" font-size="5.00">&#45;0.726</text>
</g>
<!-- 13355 -->
<g id="node8" class="node">
<title>13355</title>
<ellipse fill="white" stroke="black" cx="171.93" cy="-162.05" rx="22.08" ry="22.08"/>
<ellipse fill="none" stroke="black" cx="171.93" cy="-162.05" rx="26.04" ry="26.04"/>
<text text-anchor="middle" x="171.93" y="-159.35" font-family="Times,serif" font-size="9.00">tanh</text>
</g>
<!-- &#45;1&#45;&gt;13355 -->
<g id="edge9" class="edge">
<title>&#45;1&#45;&gt;13355</title>
<path fill="none" stroke="red" stroke-width="0.12" stroke-dasharray="1,5" d="M116.9,-152.58C122.31,-153.51 129.03,-154.67 135.88,-155.85"/>
<polygon fill="red" stroke="red" stroke-width="0.12" points="135.44,-159.33 145.89,-157.57 136.63,-152.43 135.44,-159.33"/>
<text text-anchor="middle" x="132.85" y="-155.72" font-family="Times,serif" font-size="5.00">&#45;0.090</text>
</g>
<!-- &#45;2 -->
<g id="node2" class="node">
<title>&#45;2</title>
<polygon fill="lightgray" stroke="black" points="301.4,-102.48 277.4,-102.48 277.4,-83.88 301.4,-83.88 301.4,-102.48"/>
<text text-anchor="middle" x="289.4" y="-90.48" font-family="Times,serif" font-size="9.00">&#45;2</text>
</g>
<!-- 0 -->
<g id="node5" class="node">
<title>0</title>
<ellipse fill="lightblue" stroke="black" cx="284.35" cy="-41.71" rx="14.49" ry="14.49"/>
<ellipse fill="none" stroke="black" cx="284.35" cy="-41.71" rx="18.49" ry="18.49"/>
<text text-anchor="middle" x="284.35" y="-39.01" font-family="Times,serif" font-size="9.00">0</text>
</g>
<!-- &#45;2&#45;&gt;0 -->
<g id="edge1" class="edge">
<title>&#45;2&#45;&gt;0</title>
<path fill="none" stroke="green" stroke-width="0.64" d="M288.47,-83.74C288.1,-79.98 287.66,-75.44 287.2,-70.74"/>
<polygon fill="green" stroke="green" stroke-width="0.64" points="290.65,-70.08 286.19,-60.47 283.68,-70.77 290.65,-70.08"/>
<text text-anchor="middle" x="282.21" y="-78.74" font-family="Times,serif" font-size="5.00">2.694</text>
</g>
<!-- 537 -->
<g id="node12" class="node">
<title>537</title>
<ellipse fill="white" stroke="black" cx="223.05" cy="-101.77" rx="35.19" ry="35.19"/>
<text text-anchor="middle" x="223.05" y="-99.07" font-family="Times,serif" font-size="9.00">heaviside</text>
</g>
<!-- &#45;2&#45;&gt;537 -->
<g id="edge3" class="edge">
<title>&#45;2&#45;&gt;537</title>
<path fill="none" stroke="green" stroke-width="0.92" d="M277.54,-94.72C274.69,-95.08 271.48,-95.5 268.09,-95.94"/>
<polygon fill="green" stroke="green" stroke-width="0.92" points="267.61,-92.47 258.15,-97.23 268.51,-99.41 267.61,-92.47"/>
<text text-anchor="middle" x="267.19" y="-96.83" font-family="Times,serif" font-size="5.00">4.107</text>
</g>
<!-- 13787 -->
<g id="node13" class="node">
<title>13787</title>
<ellipse fill="white" stroke="black" cx="221.66" cy="-31.82" rx="31.65" ry="31.65"/>
<text text-anchor="middle" x="221.66" y="-29.12" font-family="Times,serif" font-size="9.00">sigmoid</text>
</g>
<!-- &#45;2&#45;&gt;13787 -->
<g id="edge11" class="edge">
<title>&#45;2&#45;&gt;13787</title>
<path fill="none" stroke="red" stroke-width="0.53" d="M279.11,-83.86C272.04,-77.46 262.26,-68.6 252.76,-59.99"/>
<polygon fill="red" stroke="red" stroke-width="0.53" points="255.03,-57.33 245.27,-53.21 250.33,-62.51 255.03,-57.33"/>
<text text-anchor="middle" x="272.39" y="-73.43" font-family="Times,serif" font-size="5.00">&#45;2.130</text>
</g>
<!-- &#45;3 -->
<g id="node3" class="node">
<title>&#45;3</title>
<polygon fill="lightgray" stroke="black" points="275.75,-186.7 251.75,-186.7 251.75,-168.1 275.75,-168.1 275.75,-186.7"/>
<text text-anchor="middle" x="263.75" y="-174.7" font-family="Times,serif" font-size="9.00">&#45;3</text>
</g>
<!-- &#45;4 -->
<g id="node4" class="node">
<title>&#45;4</title>
<polygon fill="lightgray" stroke="black" points="275.75,-249.7 251.75,-249.7 251.75,-231.1 275.75,-231.1 275.75,-249.7"/>
<text text-anchor="middle" x="263.75" y="-237.7" font-family="Times,serif" font-size="9.00">&#45;4</text>
</g>
<!-- 0&#45;&gt;0 -->
<g id="edge2" class="edge">
<title>0&#45;&gt;0</title>
<path fill="none" stroke="green" stroke-width="0.17" stroke-dasharray="1,5" d="M302,-48.13C311.81,-49.33 320.85,-47.19 320.85,-41.71 320.85,-38.28 317.32,-36.16 312.28,-35.34"/>
<polygon fill="green" stroke="green" stroke-width="0.17" points="312.02,-31.84 302,-35.28 311.98,-38.84 312.02,-31.84"/>
<text text-anchor="middle" x="326.47" y="-40.21" font-family="Times,serif" font-size="5.00">0.328</text>
</g>
<!-- 15227 -->
<g id="node6" class="node">
<title>15227</title>
<ellipse fill="white" stroke="black" cx="103.96" cy="-302.01" rx="30.52" ry="30.52"/>
<text text-anchor="middle" x="103.96" y="-299.31" font-family="Times,serif" font-size="9.00">identity</text>
</g>
<!-- 12526 -->
<g id="node9" class="node">
<title>12526</title>
<ellipse fill="white" stroke="black" cx="53.57" cy="-264.77" rx="22.04" ry="22.04"/>
<text text-anchor="middle" x="53.57" y="-262.07" font-family="Times,serif" font-size="9.00">tanh</text>
</g>
<!-- 15227&#45;&gt;12526 -->
<g id="edge18" class="edge">
<title>15227&#45;&gt;12526</title>
<path fill="none" stroke="red" stroke-width="0.18" d="M79.06,-283.61C78.91,-283.49 78.75,-283.38 78.6,-283.26"/>
<polygon fill="red" stroke="red" stroke-width="0.18" points="81.83,-281.3 71.71,-278.17 77.67,-286.93 81.83,-281.3"/>
<text text-anchor="middle" x="85.29" y="-284.93" font-family="Times,serif" font-size="5.00">&#45;0.409</text>
</g>
<!-- 6054&#45;&gt;15227 -->
<g id="edge17" class="edge">
<title>6054&#45;&gt;15227</title>
<path fill="none" stroke="green" stroke-width="0.3" d="M112.57,-258.59C112.35,-259.69 112.13,-260.79 111.91,-261.89"/>
<polygon fill="green" stroke="green" stroke-width="0.3" points="108.47,-261.28 109.96,-271.77 115.33,-262.65 108.47,-261.28"/>
<text text-anchor="middle" x="106.62" y="-261.74" font-family="Times,serif" font-size="5.00">0.979</text>
</g>
<!-- 6054&#45;&gt;6054 -->
<g id="edge5" class="edge">
<title>6054&#45;&gt;6054</title>
<path fill="none" stroke="red" stroke-width="0.26" stroke-dasharray="1,5" d="M153.62,-231C164.01,-230.83 172.13,-228.58 172.13,-224.26 172.13,-221.49 168.8,-219.57 163.67,-218.51"/>
<polygon fill="red" stroke="red" stroke-width="0.26" points="163.92,-215.01 153.62,-217.52 163.23,-221.98 163.92,-215.01"/>
<text text-anchor="middle" x="178.59" y="-222.76" font-family="Times,serif" font-size="5.00">&#45;0.814</text>
</g>
<!-- 6054&#45;&gt;12526 -->
<g id="edge7" class="edge">
<title>6054&#45;&gt;12526</title>
<path fill="none" stroke="red" stroke-width="0.42" stroke-dasharray="1,5" d="M86.8,-236.43C83.57,-238.34 80.34,-240.35 77.22,-242.39"/>
<polygon fill="red" stroke="red" stroke-width="0.42" points="75.1,-239.6 68.85,-248.15 79.07,-245.36 75.1,-239.6"/>
<text text-anchor="middle" x="75.55" y="-234.91" font-family="Times,serif" font-size="5.00">&#45;1.582</text>
</g>
<!-- 3759 -->
<g id="node10" class="node">
<title>3759</title>
<ellipse fill="white" stroke="black" cx="181.71" cy="-282.38" rx="30.52" ry="30.52"/>
<text text-anchor="middle" x="181.71" y="-279.68" font-family="Times,serif" font-size="9.00">identity</text>
</g>
<!-- 6054&#45;&gt;3759 -->
<g id="edge19" class="edge">
<title>6054&#45;&gt;3759</title>
<path fill="none" stroke="red" stroke-width="0.14" stroke-dasharray="1,5" d="M145.09,-248.23C147.08,-250.09 149.11,-251.98 151.13,-253.87"/>
<polygon fill="red" stroke="red" stroke-width="0.14" points="149.14,-256.8 158.85,-261.06 153.92,-251.68 149.14,-256.8"/>
<text text-anchor="middle" x="154.57" y="-246.55" font-family="Times,serif" font-size="5.00">&#45;0.190</text>
</g>
<!-- 13913 -->
<g id="node11" class="node">
<title>13913</title>
<ellipse fill="white" stroke="black" cx="34.76" cy="-206.04" rx="30.55" ry="30.55"/>
<ellipse fill="none" stroke="black" cx="34.76" cy="-206.04" rx="34.52" ry="34.52"/>
<text text-anchor="middle" x="34.76" y="-203.34" font-family="Times,serif" font-size="9.00">identity</text>
</g>
<!-- 6054&#45;&gt;13913 -->
<g id="edge14" class="edge">
<title>6054&#45;&gt;13913</title>
<path fill="none" stroke="red" stroke-width="0.3" stroke-dasharray="1,5" d="M84.96,-216.85C82.88,-216.4 80.78,-215.95 78.68,-215.5"/>
<polygon fill="red" stroke="red" stroke-width="0.3" points="79.38,-212.07 68.87,-213.39 77.91,-218.91 79.38,-212.07"/>
<text text-anchor="middle" x="75.36" y="-217.67" font-family="Times,serif" font-size="5.00">&#45;0.989</text>
</g>
<!-- 13355&#45;&gt;6054 -->
<g id="edge10" class="edge">
<title>13355&#45;&gt;6054</title>
<path fill="none" stroke="green" stroke-width="0.31" stroke-dasharray="1,5" d="M154.72,-182.42C152.81,-184.68 150.83,-187.02 148.82,-189.4"/>
<polygon fill="green" stroke="green" stroke-width="0.31" points="145.76,-187.61 141.98,-197.51 151.1,-192.13 145.76,-187.61"/>
<text text-anchor="middle" x="146.15" y="-181.41" font-family="Times,serif" font-size="5.00">1.050</text>
</g>
<!-- 13355&#45;&gt;13355 -->
<g id="edge13" class="edge">
<title>13355&#45;&gt;13355</title>
<path fill="none" stroke="green" stroke-width="0.12" stroke-dasharray="1,5" d="M197.41,-168.76C207.62,-169.14 216.2,-166.9 216.2,-162.05 216.2,-158.94 212.68,-156.91 207.47,-155.95"/>
<polygon fill="green" stroke="green" stroke-width="0.12" points="207.6,-152.45 197.41,-155.34 207.18,-159.44 207.6,-152.45"/>
<text text-anchor="middle" x="221.83" y="-160.55" font-family="Times,serif" font-size="5.00">0.103</text>
</g>
<!-- 12526&#45;&gt;6054 -->
<g id="edge8" class="edge">
<title>12526&#45;&gt;6054</title>
<path fill="none" stroke="green" stroke-width="0.38" stroke-dasharray="1,5" d="M75.11,-258.7C78.24,-257.09 81.53,-255.28 84.84,-253.36"/>
<polygon fill="green" stroke="green" stroke-width="0.38" points="86.85,-256.23 93.56,-248.03 83.2,-250.26 86.85,-256.23"/>
<text text-anchor="middle" x="79.98" y="-251.53" font-family="Times,serif" font-size="5.00">1.422</text>
</g>
<!-- 13913&#45;&gt;12526 -->
<g id="edge15" class="edge">
<title>13913&#45;&gt;12526</title>
<path fill="none" stroke="red" stroke-width="0.7" d="M45.37,-239.18C45.4,-239.27 45.43,-239.36 45.46,-239.45"/>
<polygon fill="red" stroke="red" stroke-width="0.7" points="40.37,-235.04 46.76,-243.5 47.04,-232.91 40.37,-235.04"/>
<text text-anchor="middle" x="38.96" y="-240.82" font-family="Times,serif" font-size="5.00">&#45;2.980</text>
</g>
<!-- 537&#45;&gt;0 -->
<g id="edge4" class="edge">
<title>537&#45;&gt;0</title>
<path fill="none" stroke="red" stroke-width="0.54" d="M248.34,-76.99C253.45,-71.99 258.76,-66.78 263.69,-61.95"/>
<polygon fill="red" stroke="red" stroke-width="0.54" points="266.33,-64.26 271.03,-54.76 261.43,-59.26 266.33,-64.26"/>
<text text-anchor="middle" x="262.47" y="-64.97" font-family="Times,serif" font-size="5.00">&#45;2.223</text>
</g>
<!-- 537&#45;&gt;13355 -->
<g id="edge16" class="edge">
<title>537&#45;&gt;13355</title>
<path fill="none" stroke="red" stroke-width="0.15" d="M200.18,-128.74C198.67,-130.52 197.15,-132.32 195.63,-134.1"/>
<polygon fill="red" stroke="red" stroke-width="0.15" points="192.91,-131.91 189.11,-141.8 198.24,-136.43 192.91,-131.91"/>
<text text-anchor="middle" x="191.45" y="-126.92" font-family="Times,serif" font-size="5.00">&#45;0.241</text>
</g>
<!-- 13787&#45;&gt;537 -->
<g id="edge12" class="edge">
<title>13787&#45;&gt;537</title>
<path fill="none" stroke="red" stroke-width="0.2" stroke-dasharray="1,5" d="M222.3,-63.93C222.3,-64.02 222.3,-64.11 222.31,-64.2"/>
<polygon fill="red" stroke="red" stroke-width="0.2" points="218.64,-56.16 222.34,-66.09 225.64,-56.02 218.64,-56.16"/>
<text text-anchor="middle" x="215.85" y="-65.56" font-family="Times,serif" font-size="5.00">&#45;0.521</text>
</g>
</g>
</svg>
