<?xml version="1.0" encoding="UTF-8" standalone="no"?>
<!DOCTYPE svg PUBLIC "-//W3C//DTD SVG 1.1//EN"
 "http://www.w3.org/Graphics/SVG/1.1/DTD/svg11.dtd">
<!-- Generated by graphviz version 2.47.1 (20210417.1919)
 -->
<!-- Pages: 1 -->
<svg width="255pt" height="225pt"
 viewBox="0.00 0.00 254.72 225.13" xmlns="http://www.w3.org/2000/svg" xmlns:xlink="http://www.w3.org/1999/xlink">
<g id="graph0" class="graph" transform="scale(1 1) rotate(0) translate(4 221.13)">
<polygon fill="white" stroke="transparent" points="-4,4 -4,-221.13 250.72,-221.13 250.72,4 -4,4"/>
<!-- &#45;1 -->
<g id="node1" class="node">
<title>&#45;1</title>
<polygon fill="lightgray" stroke="black" points="23.75,-155.4 -0.25,-155.4 -0.25,-136.8 23.75,-136.8 23.75,-155.4"/>
<text text-anchor="middle" x="11.75" y="-143.4" font-family="Times,serif" font-size="9.00">&#45;1</text>
</g>
<!-- 364 -->
<g id="node6" class="node">
<title>364</title>
<ellipse fill="white" stroke="black" cx="79.7" cy="-108.89" rx="31.65" ry="31.65"/>
<text text-anchor="middle" x="79.7" y="-106.19" font-family="Times,serif" font-size="9.00">sigmoid</text>
</g>
<!-- &#45;1&#45;&gt;364 -->
<g id="edge6" class="edge">
<title>&#45;1&#45;&gt;364</title>
<path fill="none" stroke="red" stroke-width="0.75" stroke-dasharray="1,5" d="M23.58,-139.62C29.04,-136.63 35.84,-132.91 42.81,-129.09"/>
<polygon fill="red" stroke="red" stroke-width="0.75" points="44.54,-132.13 51.63,-124.26 41.18,-125.99 44.54,-132.13"/>
<text text-anchor="middle" x="26.74" y="-129.86" font-family="Times,serif" font-size="5.00">&#45;3.262</text>
</g>
<!-- &#45;2 -->
<g id="node2" class="node">
<title>&#45;2</title>
<polygon fill="lightgray" stroke="black" points="138.65,-70.17 114.65,-70.17 114.65,-51.57 138.65,-51.57 138.65,-70.17"/>
<text text-anchor="middle" x="126.65" y="-58.17" font-family="Times,serif" font-size="9.00">&#45;2</text>
</g>
<!-- 0 -->
<g id="node5" class="node">
<title>0</title>
<ellipse fill="lightblue" stroke="black" cx="157.49" cy="-130.36" rx="14.49" ry="14.49"/>
<ellipse fill="none" stroke="black" cx="157.49" cy="-130.36" rx="18.49" ry="18.49"/>
<text text-anchor="middle" x="157.49" y="-127.66" font-family="Times,serif" font-size="9.00">0</text>
</g>
<!-- &#45;2&#45;&gt;0 -->
<g id="edge1" class="edge">
<title>&#45;2&#45;&gt;0</title>
<path fill="none" stroke="green" stroke-width="0.38" d="M130.81,-70.24C134.67,-78.95 140.62,-92.34 145.91,-104.27"/>
<polygon fill="green" stroke="green" stroke-width="0.38" points="142.71,-105.7 149.97,-113.42 149.11,-102.86 142.71,-105.7"/>
<text text-anchor="middle" x="132.74" y="-88.76" font-family="Times,serif" font-size="5.00">1.403</text>
</g>
<!-- &#45;2&#45;&gt;364 -->
<g id="edge4" class="edge">
<title>&#45;2&#45;&gt;364</title>
<path fill="none" stroke="green" stroke-width="1.37" d="M117.15,-70.58C114.81,-72.97 112.19,-75.66 109.44,-78.47"/>
<polygon fill="green" stroke="green" stroke-width="1.37" points="106.48,-76.49 101.99,-86.09 111.49,-81.38 106.48,-76.49"/>
<text text-anchor="middle" x="107.67" y="-70.03" font-family="Times,serif" font-size="5.00">6.363</text>
</g>
<!-- 42949 -->
<g id="node7" class="node">
<title>42949</title>
<ellipse fill="white" stroke="black" cx="60.54" cy="-31.82" rx="31.65" ry="31.65"/>
<text text-anchor="middle" x="60.54" y="-29.12" font-family="Times,serif" font-size="9.00">sigmoid</text>
</g>
<!-- &#45;2&#45;&gt;42949 -->
<g id="edge7" class="edge">
<title>&#45;2&#45;&gt;42949</title>
<path fill="none" stroke="green" stroke-width="0.3" d="M114.83,-55.67C110.36,-53.71 104.98,-51.35 99.38,-48.89"/>
<polygon fill="green" stroke="green" stroke-width="0.3" points="100.42,-45.52 89.86,-44.7 97.61,-51.93 100.42,-45.52"/>
<text text-anchor="middle" x="101.48" y="-53.78" font-family="Times,serif" font-size="5.00">1.000</text>
</g>
<!-- &#45;3 -->
<g id="node3" class="node">
<title>&#45;3</title>
<polygon fill="lightgray" stroke="black" points="246.97,-118.22 222.97,-118.22 222.97,-99.62 246.97,-99.62 246.97,-118.22"/>
<text text-anchor="middle" x="234.97" y="-106.22" font-family="Times,serif" font-size="9.00">&#45;3</text>
</g>
<!-- &#45;3&#45;&gt;0 -->
<g id="edge2" class="edge">
<title>&#45;3&#45;&gt;0</title>
<path fill="none" stroke="red" stroke-width="0.19" stroke-dasharray="1,5" d="M223.2,-112.18C213.18,-114.95 198.38,-119.04 185.36,-122.65"/>
<polygon fill="red" stroke="red" stroke-width="0.19" points="184.13,-119.36 175.43,-125.4 186,-126.1 184.13,-119.36"/>
<text text-anchor="middle" x="197.82" y="-118.91" font-family="Times,serif" font-size="5.00">&#45;0.456</text>
</g>
<!-- &#45;4 -->
<g id="node4" class="node">
<title>&#45;4</title>
<polygon fill="lightgray" stroke="black" points="186.56,-217.03 162.56,-217.03 162.56,-198.43 186.56,-198.43 186.56,-217.03"/>
<text text-anchor="middle" x="174.56" y="-205.03" font-family="Times,serif" font-size="9.00">&#45;4</text>
</g>
<!-- &#45;4&#45;&gt;0 -->
<g id="edge3" class="edge">
<title>&#45;4&#45;&gt;0</title>
<path fill="none" stroke="green" stroke-width="0.21" stroke-dasharray="1,5" d="M172.47,-198.24C170.3,-188.4 166.8,-172.54 163.72,-158.62"/>
<polygon fill="green" stroke="green" stroke-width="0.21" points="167.06,-157.5 161.49,-148.49 160.23,-159.01 167.06,-157.5"/>
<text text-anchor="middle" x="162.47" y="-179.93" font-family="Times,serif" font-size="5.00">0.547</text>
</g>
<!-- 364&#45;&gt;0 -->
<g id="edge5" class="edge">
<title>364&#45;&gt;0</title>
<path fill="none" stroke="red" stroke-width="0.29" d="M110.44,-117.38C116.76,-119.12 123.37,-120.94 129.57,-122.66"/>
<polygon fill="red" stroke="red" stroke-width="0.29" points="128.94,-126.11 139.51,-125.4 130.8,-119.36 128.94,-126.11"/>
<text text-anchor="middle" x="126.47" y="-121.52" font-family="Times,serif" font-size="5.00">&#45;0.962</text>
</g>
<!-- 42949&#45;&gt;364 -->
<g id="edge8" class="edge">
<title>42949&#45;&gt;364</title>
<path fill="none" stroke="green" stroke-width="1.37" d="M68.22,-62.73C68.65,-64.45 69.09,-66.2 69.52,-67.96"/>
<polygon fill="green" stroke="green" stroke-width="1.37" points="66.21,-69.12 72.02,-77.98 73,-67.43 66.21,-69.12"/>
<text text-anchor="middle" x="63.25" y="-66.84" font-family="Times,serif" font-size="5.00">6.363</text>
</g>
</g>
</svg>
