<?xml version="1.0" encoding="UTF-8" standalone="no"?>
<!DOCTYPE svg PUBLIC "-//W3C//DTD SVG 1.1//EN"
 "http://www.w3.org/Graphics/SVG/1.1/DTD/svg11.dtd">
<!-- Generated by graphviz version 2.47.1 (20210417.1919)
 -->
<!-- Pages: 1 -->
<svg width="172pt" height="150pt"
 viewBox="0.00 0.00 172.22 150.15" xmlns="http://www.w3.org/2000/svg" xmlns:xlink="http://www.w3.org/1999/xlink">
<g id="graph0" class="graph" transform="scale(1 1) rotate(0) translate(4 146.15)">
<polygon fill="white" stroke="transparent" points="-4,4 -4,-146.15 168.22,-146.15 168.22,4 -4,4"/>
<!-- &#45;1 -->
<g id="node1" class="node">
<title>&#45;1</title>
<polygon fill="lightgray" stroke="black" points="114.75,-135.7 90.75,-135.7 90.75,-117.1 114.75,-117.1 114.75,-135.7"/>
<text text-anchor="middle" x="102.75" y="-123.7" font-family="Times,serif" font-size="9.00">&#45;1</text>
</g>
<!-- &#45;2 -->
<g id="node2" class="node">
<title>&#45;2</title>
<polygon fill="lightgray" stroke="black" points="45.61,-117.67 21.61,-117.67 21.61,-99.07 45.61,-99.07 45.61,-117.67"/>
<text text-anchor="middle" x="33.61" y="-105.67" font-family="Times,serif" font-size="9.00">&#45;2</text>
</g>
<!-- 0 -->
<g id="node5" class="node">
<title>0</title>
<ellipse fill="lightblue" stroke="black" cx="101.5" cy="-72.84" rx="14.49" ry="14.49"/>
<ellipse fill="none" stroke="black" cx="101.5" cy="-72.84" rx="18.49" ry="18.49"/>
<text text-anchor="middle" x="101.5" y="-70.14" font-family="Times,serif" font-size="9.00">0</text>
</g>
<!-- &#45;2&#45;&gt;0 -->
<g id="edge1" class="edge">
<title>&#45;2&#45;&gt;0</title>
<path fill="none" stroke="green" stroke-width="0.28" d="M45.44,-102.18C53.81,-97.8 65.37,-91.75 75.82,-86.28"/>
<polygon fill="green" stroke="green" stroke-width="0.28" points="77.74,-89.22 84.98,-81.49 74.5,-83.02 77.74,-89.22"/>
<text text-anchor="middle" x="55" y="-95.73" font-family="Times,serif" font-size="5.00">0.889</text>
</g>
<!-- 1222 -->
<g id="node6" class="node">
<title>1222</title>
<ellipse fill="white" stroke="black" cx="31.82" cy="-40.94" rx="31.65" ry="31.65"/>
<text text-anchor="middle" x="31.82" y="-38.24" font-family="Times,serif" font-size="9.00">sigmoid</text>
</g>
<!-- &#45;2&#45;&gt;1222 -->
<g id="edge4" class="edge">
<title>&#45;2&#45;&gt;1222</title>
<path fill="none" stroke="green" stroke-width="0.2" stroke-dasharray="1,5" d="M33.36,-98.99C33.25,-94.59 33.1,-89 32.94,-83.03"/>
<polygon fill="green" stroke="green" stroke-width="0.2" points="36.43,-82.69 32.67,-72.79 29.43,-82.87 36.43,-82.69"/>
<text text-anchor="middle" x="27.53" y="-92.51" font-family="Times,serif" font-size="5.00">0.495</text>
</g>
<!-- &#45;3 -->
<g id="node3" class="node">
<title>&#45;3</title>
<polygon fill="lightgray" stroke="black" points="164.47,-142.05 140.47,-142.05 140.47,-123.45 164.47,-123.45 164.47,-142.05"/>
<text text-anchor="middle" x="152.47" y="-130.05" font-family="Times,serif" font-size="9.00">&#45;3</text>
</g>
<!-- &#45;3&#45;&gt;0 -->
<g id="edge2" class="edge">
<title>&#45;3&#45;&gt;0</title>
<path fill="none" stroke="green" stroke-width="0.2" stroke-dasharray="1,5" d="M144.5,-123.39C138.03,-115.78 128.63,-104.73 120.27,-94.91"/>
<polygon fill="green" stroke="green" stroke-width="0.2" points="122.73,-92.39 113.58,-87.04 117.39,-96.92 122.73,-92.39"/>
<text text-anchor="middle" x="126.76" y="-110.65" font-family="Times,serif" font-size="5.00">0.506</text>
</g>
<!-- &#45;4 -->
<g id="node4" class="node">
<title>&#45;4</title>
<polygon fill="lightgray" stroke="black" points="160.17,-18.7 136.17,-18.7 136.17,-0.1 160.17,-0.1 160.17,-18.7"/>
<text text-anchor="middle" x="148.17" y="-6.7" font-family="Times,serif" font-size="9.00">&#45;4</text>
</g>
<!-- &#45;4&#45;&gt;0 -->
<g id="edge3" class="edge">
<title>&#45;4&#45;&gt;0</title>
<path fill="none" stroke="red" stroke-width="0.19" stroke-dasharray="1,5" d="M141.29,-18.76C135.36,-26.81 126.57,-38.77 118.75,-49.4"/>
<polygon fill="red" stroke="red" stroke-width="0.19" points="115.87,-47.41 112.76,-57.53 121.51,-51.55 115.87,-47.41"/>
<text text-anchor="middle" x="123.56" y="-35.58" font-family="Times,serif" font-size="5.00">&#45;0.458</text>
</g>
<!-- 1222&#45;&gt;0 -->
<g id="edge5" class="edge">
<title>1222&#45;&gt;0</title>
<path fill="none" stroke="red" stroke-width="0.37" d="M60.97,-54.28C65.75,-56.47 70.68,-58.73 75.39,-60.88"/>
<polygon fill="red" stroke="red" stroke-width="0.37" points="74.05,-64.12 84.6,-65.1 76.97,-57.76 74.05,-64.12"/>
<text text-anchor="middle" x="74.63" y="-59.08" font-family="Times,serif" font-size="5.00">&#45;1.333</text>
</g>
<!-- 1222&#45;&gt;1222 -->
<g id="edge6" class="edge">
<title>1222&#45;&gt;1222</title>
<path fill="none" stroke="red" stroke-width="0.2" d="M62.96,-47.69C73.34,-47.69 81.64,-45.44 81.64,-40.94 81.64,-38.06 78.24,-36.1 73.06,-35.06"/>
<polygon fill="red" stroke="red" stroke-width="0.2" points="73.23,-31.56 62.96,-34.19 72.62,-38.54 73.23,-31.56"/>
<text text-anchor="middle" x="88.1" y="-39.44" font-family="Times,serif" font-size="5.00">&#45;0.484</text>
</g>
</g>
</svg>
