<?xml version="1.0" encoding="UTF-8" standalone="no"?>
<!DOCTYPE svg PUBLIC "-//W3C//DTD SVG 1.1//EN"
 "http://www.w3.org/Graphics/SVG/1.1/DTD/svg11.dtd">
<!-- Generated by graphviz version 2.47.1 (20210417.1919)
 -->
<!-- Pages: 1 -->
<svg width="173pt" height="195pt"
 viewBox="0.00 0.00 172.93 194.70" xmlns="http://www.w3.org/2000/svg" xmlns:xlink="http://www.w3.org/1999/xlink">
<g id="graph0" class="graph" transform="scale(1 1) rotate(0) translate(4 190.7)">
<polygon fill="white" stroke="transparent" points="-4,4 -4,-190.7 168.93,-190.7 168.93,4 -4,4"/>
<!-- &#45;1 -->
<g id="node1" class="node">
<title>&#45;1</title>
<polygon fill="lightgray" stroke="black" points="23.75,-100.55 -0.25,-100.55 -0.25,-81.94 23.75,-81.94 23.75,-100.55"/>
<text text-anchor="middle" x="11.75" y="-88.55" font-family="Times,serif" font-size="9.00">&#45;1</text>
</g>
<!-- 0 -->
<g id="node5" class="node">
<title>0</title>
<ellipse fill="lightblue" stroke="black" cx="90.46" cy="-99.85" rx="14.49" ry="14.49"/>
<ellipse fill="none" stroke="black" cx="90.46" cy="-99.85" rx="18.49" ry="18.49"/>
<text text-anchor="middle" x="90.46" y="-97.15" font-family="Times,serif" font-size="9.00">0</text>
</g>
<!-- &#45;1&#45;&gt;0 -->
<g id="edge3" class="edge">
<title>&#45;1&#45;&gt;0</title>
<path fill="none" stroke="red" stroke-width="0.2" stroke-dasharray="1,5" d="M23.7,-92.55C33.81,-93.66 48.72,-95.29 61.88,-96.72"/>
<polygon fill="red" stroke="red" stroke-width="0.2" points="61.61,-100.22 71.94,-97.82 62.38,-93.26 61.61,-100.22"/>
<text text-anchor="middle" x="36.33" y="-96.14" font-family="Times,serif" font-size="5.00">&#45;0.505</text>
</g>
<!-- 984 -->
<g id="node6" class="node">
<title>984</title>
<ellipse fill="white" stroke="black" cx="67.91" cy="-46.72" rx="22.08" ry="22.08"/>
<ellipse fill="none" stroke="black" cx="67.91" cy="-46.72" rx="26.04" ry="26.04"/>
<text text-anchor="middle" x="67.91" y="-44.02" font-family="Times,serif" font-size="9.00">tanh</text>
</g>
<!-- &#45;1&#45;&gt;984 -->
<g id="edge7" class="edge">
<title>&#45;1&#45;&gt;984</title>
<path fill="none" stroke="red" stroke-width="0.1" stroke-dasharray="1,5" d="M23.66,-81.8C28.25,-78.17 33.71,-73.84 39.2,-69.48"/>
<polygon fill="red" stroke="red" stroke-width="0.1" points="41.51,-72.12 47.17,-63.17 37.16,-66.63 41.51,-72.12"/>
<text text-anchor="middle" x="24.97" y="-77.14" font-family="Times,serif" font-size="5.00">&#45;0.024</text>
</g>
<!-- &#45;2 -->
<g id="node2" class="node">
<title>&#45;2</title>
<polygon fill="lightgray" stroke="black" points="165.18,-84.33 141.18,-84.33 141.18,-65.73 165.18,-65.73 165.18,-84.33"/>
<text text-anchor="middle" x="153.18" y="-72.33" font-family="Times,serif" font-size="9.00">&#45;2</text>
</g>
<!-- &#45;2&#45;&gt;0 -->
<g id="edge1" class="edge">
<title>&#45;2&#45;&gt;0</title>
<path fill="none" stroke="red" stroke-width="0.3" d="M141.38,-79.7C134.65,-82.36 125.91,-85.82 117.58,-89.12"/>
<polygon fill="red" stroke="red" stroke-width="0.3" points="116.14,-85.92 108.13,-92.86 118.72,-92.43 116.14,-85.92"/>
<text text-anchor="middle" x="123.03" y="-85.91" font-family="Times,serif" font-size="5.00">&#45;1.022</text>
</g>
<!-- &#45;2&#45;&gt;984 -->
<g id="edge4" class="edge">
<title>&#45;2&#45;&gt;984</title>
<path fill="none" stroke="green" stroke-width="0.3" d="M141.33,-71.1C131.31,-67.77 116.44,-62.83 102.7,-58.27"/>
<polygon fill="green" stroke="green" stroke-width="0.3" points="103.57,-54.87 92.98,-55.04 101.37,-61.52 103.57,-54.87"/>
<text text-anchor="middle" x="116.39" y="-66.18" font-family="Times,serif" font-size="5.00">1.001</text>
</g>
<!-- &#45;3 -->
<g id="node3" class="node">
<title>&#45;3</title>
<polygon fill="lightgray" stroke="black" points="123.17,-18.7 99.17,-18.7 99.17,-0.1 123.17,-0.1 123.17,-18.7"/>
<text text-anchor="middle" x="111.17" y="-6.7" font-family="Times,serif" font-size="9.00">&#45;3</text>
</g>
<!-- &#45;3&#45;&gt;0 -->
<g id="edge2" class="edge">
<title>&#45;3&#45;&gt;0</title>
<path fill="none" stroke="green" stroke-width="0.4" stroke-dasharray="1,5" d="M109.03,-18.74C106.18,-31.17 101.02,-53.71 96.86,-71.87"/>
<polygon fill="green" stroke="green" stroke-width="0.4" points="93.44,-71.16 94.62,-81.69 100.26,-72.72 93.44,-71.16"/>
<text text-anchor="middle" x="108.57" y="-46.81" font-family="Times,serif" font-size="5.00">1.480</text>
</g>
<!-- &#45;3&#45;&gt;984 -->
<g id="edge8" class="edge">
<title>&#45;3&#45;&gt;984</title>
<path fill="none" stroke="green" stroke-width="0.26" stroke-dasharray="1,5" d="M100.26,-18.82C98.87,-20.02 97.4,-21.28 95.88,-22.59"/>
<polygon fill="green" stroke="green" stroke-width="0.26" points="93.38,-20.13 88.09,-29.31 97.95,-25.43 93.38,-20.13"/>
<text text-anchor="middle" x="92.45" y="-16.2" font-family="Times,serif" font-size="5.00">0.810</text>
</g>
<!-- &#45;4 -->
<g id="node4" class="node">
<title>&#45;4</title>
<polygon fill="lightgray" stroke="black" points="113.74,-186.6 89.74,-186.6 89.74,-168 113.74,-168 113.74,-186.6"/>
<text text-anchor="middle" x="101.74" y="-174.6" font-family="Times,serif" font-size="9.00">&#45;4</text>
</g>
<!-- &#45;4&#45;&gt;0 -->
<g id="edge6" class="edge">
<title>&#45;4&#45;&gt;0</title>
<path fill="none" stroke="red" stroke-width="0.18" stroke-dasharray="1,5" d="M100.35,-167.8C98.93,-158.02 96.64,-142.28 94.62,-128.41"/>
<polygon fill="red" stroke="red" stroke-width="0.18" points="98.05,-127.69 93.14,-118.3 91.12,-128.7 98.05,-127.69"/>
<text text-anchor="middle" x="91.03" y="-149.61" font-family="Times,serif" font-size="5.00">&#45;0.421</text>
</g>
<!-- 984&#45;&gt;0 -->
<g id="edge5" class="edge">
<title>984&#45;&gt;0</title>
<path fill="none" stroke="green" stroke-width="0.42" d="M78.26,-71.11C78.57,-71.84 78.89,-72.58 79.2,-73.32"/>
<polygon fill="green" stroke="green" stroke-width="0.42" points="76.07,-74.9 83.2,-82.74 82.51,-72.16 76.07,-74.9"/>
<text text-anchor="middle" x="73.11" y="-73.71" font-family="Times,serif" font-size="5.00">1.621</text>
</g>
</g>
</svg>
