<?xml version="1.0" encoding="UTF-8" standalone="no"?>
<!DOCTYPE svg PUBLIC "-//W3C//DTD SVG 1.1//EN"
 "http://www.w3.org/Graphics/SVG/1.1/DTD/svg11.dtd">
<!-- Generated by graphviz version 2.47.1 (20210417.1919)
 -->
<!-- Pages: 1 -->
<svg width="270pt" height="411pt"
 viewBox="0.00 0.00 269.92 411.29" xmlns="http://www.w3.org/2000/svg" xmlns:xlink="http://www.w3.org/1999/xlink">
<g id="graph0" class="graph" transform="scale(1 1) rotate(0) translate(4 407.29)">
<polygon fill="white" stroke="transparent" points="-4,4 -4,-407.29 265.92,-407.29 265.92,4 -4,4"/>
<!-- &#45;1 -->
<g id="node1" class="node">
<title>&#45;1</title>
<polygon fill="lightgray" stroke="black" points="152.6,-403.19 128.6,-403.19 128.6,-384.59 152.6,-384.59 152.6,-403.19"/>
<text text-anchor="middle" x="140.6" y="-391.19" font-family="Times,serif" font-size="9.00">&#45;1</text>
</g>
<!-- 52250 -->
<g id="node13" class="node">
<title>52250</title>
<ellipse fill="white" stroke="black" cx="145.59" cy="-318.05" rx="31.65" ry="31.65"/>
<text text-anchor="middle" x="145.59" y="-315.35" font-family="Times,serif" font-size="9.00">sigmoid</text>
</g>
<!-- &#45;1&#45;&gt;52250 -->
<g id="edge26" class="edge">
<title>&#45;1&#45;&gt;52250</title>
<path fill="none" stroke="red" stroke-width="0.57" d="M141.23,-384.29C141.65,-377.97 142.22,-369.23 142.82,-360.16"/>
<polygon fill="red" stroke="red" stroke-width="0.57" points="146.33,-360.1 143.5,-349.89 139.35,-359.64 146.33,-360.1"/>
<text text-anchor="middle" x="135.57" y="-373.72" font-family="Times,serif" font-size="5.00">&#45;2.326</text>
</g>
<!-- &#45;2 -->
<g id="node2" class="node">
<title>&#45;2</title>
<polygon fill="lightgray" stroke="black" points="183.29,-218.46 159.29,-218.46 159.29,-199.86 183.29,-199.86 183.29,-218.46"/>
<text text-anchor="middle" x="171.29" y="-206.46" font-family="Times,serif" font-size="9.00">&#45;2</text>
</g>
<!-- 0 -->
<g id="node5" class="node">
<title>0</title>
<ellipse fill="lightblue" stroke="black" cx="239.2" cy="-177.4" rx="14.49" ry="14.49"/>
<ellipse fill="none" stroke="black" cx="239.2" cy="-177.4" rx="18.49" ry="18.49"/>
<text text-anchor="middle" x="239.2" y="-174.7" font-family="Times,serif" font-size="9.00">0</text>
</g>
<!-- &#45;2&#45;&gt;0 -->
<g id="edge1" class="edge">
<title>&#45;2&#45;&gt;0</title>
<path fill="none" stroke="green" stroke-width="0.32" d="M183.12,-203.63C191.44,-199.73 202.9,-194.37 213.29,-189.51"/>
<polygon fill="green" stroke="green" stroke-width="0.32" points="214.84,-192.65 222.42,-185.25 211.88,-186.31 214.84,-192.65"/>
<text text-anchor="middle" x="192.58" y="-198.07" font-family="Times,serif" font-size="5.00">1.123</text>
</g>
<!-- 5921 -->
<g id="node6" class="node">
<title>5921</title>
<ellipse fill="white" stroke="black" cx="105.93" cy="-256.81" rx="22.04" ry="22.04"/>
<text text-anchor="middle" x="105.93" y="-254.11" font-family="Times,serif" font-size="9.00">tanh</text>
</g>
<!-- &#45;2&#45;&gt;5921 -->
<g id="edge9" class="edge">
<title>&#45;2&#45;&gt;5921</title>
<path fill="none" stroke="green" stroke-width="0.23" stroke-dasharray="1,5" d="M159.3,-217.9C151.74,-223.41 141.66,-230.75 132.31,-237.57"/>
<polygon fill="green" stroke="green" stroke-width="0.23" points="130.03,-234.91 124.01,-243.62 134.15,-240.56 130.03,-234.91"/>
<text text-anchor="middle" x="140.18" y="-229.24" font-family="Times,serif" font-size="5.00">0.668</text>
</g>
<!-- 209 -->
<g id="node10" class="node">
<title>209</title>
<ellipse fill="white" stroke="black" cx="174.7" cy="-242.96" rx="30.55" ry="30.55"/>
<ellipse fill="none" stroke="black" cx="174.7" cy="-242.96" rx="34.52" ry="34.52"/>
<text text-anchor="middle" x="174.7" y="-240.26" font-family="Times,serif" font-size="9.00">identity</text>
</g>
<!-- &#45;2&#45;&gt;209 -->
<g id="edge4" class="edge">
<title>&#45;2&#45;&gt;209</title>
<path fill="none" stroke="green" stroke-width="0.35" d="M172.26,-218.75C172.26,-218.83 172.27,-218.91 172.28,-218.99"/>
<polygon fill="green" stroke="green" stroke-width="0.35" points="167.81,-209.63 172.3,-219.23 174.78,-208.92 167.81,-209.63"/>
<text text-anchor="middle" x="166.64" y="-220.37" font-family="Times,serif" font-size="5.00">1.262</text>
</g>
<!-- 21623 -->
<g id="node11" class="node">
<title>21623</title>
<ellipse fill="white" stroke="black" cx="129.78" cy="-148.21" rx="30.52" ry="30.52"/>
<text text-anchor="middle" x="129.78" y="-145.51" font-family="Times,serif" font-size="9.00">identity</text>
</g>
<!-- &#45;2&#45;&gt;21623 -->
<g id="edge13" class="edge">
<title>&#45;2&#45;&gt;21623</title>
<path fill="none" stroke="red" stroke-width="0.19" stroke-dasharray="1,5" d="M164.8,-199.64C161.54,-194.85 157.37,-188.72 153.05,-182.38"/>
<polygon fill="red" stroke="red" stroke-width="0.19" points="155.66,-180 147.14,-173.71 149.88,-183.94 155.66,-180"/>
<text text-anchor="middle" x="152.47" y="-192.51" font-family="Times,serif" font-size="5.00">&#45;0.429</text>
</g>
<!-- 219 -->
<g id="node14" class="node">
<title>219</title>
<ellipse fill="white" stroke="black" cx="99.24" cy="-187.63" rx="31.67" ry="31.67"/>
<ellipse fill="none" stroke="black" cx="99.24" cy="-187.63" rx="35.65" ry="35.65"/>
<text text-anchor="middle" x="99.24" y="-184.93" font-family="Times,serif" font-size="9.00">sigmoid</text>
</g>
<!-- &#45;2&#45;&gt;219 -->
<g id="edge6" class="edge">
<title>&#45;2&#45;&gt;219</title>
<path fill="none" stroke="red" stroke-width="0.32" d="M159.39,-205.6C154.88,-204.26 149.45,-202.63 143.7,-200.92"/>
<polygon fill="red" stroke="red" stroke-width="0.32" points="144.45,-197.49 133.87,-197.98 142.45,-204.19 144.45,-197.49"/>
<text text-anchor="middle" x="145.09" y="-198.76" font-family="Times,serif" font-size="5.00">&#45;1.085</text>
</g>
<!-- 52605 -->
<g id="node15" class="node">
<title>52605</title>
<ellipse fill="white" stroke="black" cx="239.64" cy="-267.59" rx="22.04" ry="22.04"/>
<text text-anchor="middle" x="239.64" y="-264.89" font-family="Times,serif" font-size="9.00">tanh</text>
</g>
<!-- &#45;2&#45;&gt;52605 -->
<g id="edge29" class="edge">
<title>&#45;2&#45;&gt;52605</title>
<path fill="none" stroke="green" stroke-width="0.17" d="M182.27,-218.55C191.02,-226.02 203.6,-236.78 214.76,-246.31"/>
<polygon fill="green" stroke="green" stroke-width="0.17" points="212.67,-249.14 222.55,-252.98 217.22,-243.82 212.67,-249.14"/>
<text text-anchor="middle" x="192.89" y="-233.93" font-family="Times,serif" font-size="5.00">0.362</text>
</g>
<!-- &#45;3 -->
<g id="node3" class="node">
<title>&#45;3</title>
<polygon fill="lightgray" stroke="black" points="225.3,-97.62 201.3,-97.62 201.3,-79.02 225.3,-79.02 225.3,-97.62"/>
<text text-anchor="middle" x="213.3" y="-85.62" font-family="Times,serif" font-size="9.00">&#45;3</text>
</g>
<!-- &#45;3&#45;&gt;0 -->
<g id="edge2" class="edge">
<title>&#45;3&#45;&gt;0</title>
<path fill="none" stroke="green" stroke-width="0.21" stroke-dasharray="1,5" d="M216.07,-97.86C219.63,-110.09 225.95,-131.83 231.09,-149.5"/>
<polygon fill="green" stroke="green" stroke-width="0.21" points="227.79,-150.7 233.95,-159.33 234.51,-148.75 227.79,-150.7"/>
<text text-anchor="middle" x="217.95" y="-125.18" font-family="Times,serif" font-size="5.00">0.526</text>
</g>
<!-- 52742 -->
<g id="node8" class="node">
<title>52742</title>
<ellipse fill="white" stroke="black" cx="172.57" cy="-31.82" rx="31.65" ry="31.65"/>
<text text-anchor="middle" x="172.57" y="-29.12" font-family="Times,serif" font-size="9.00">sigmoid</text>
</g>
<!-- &#45;3&#45;&gt;52742 -->
<g id="edge31" class="edge">
<title>&#45;3&#45;&gt;52742</title>
<path fill="none" stroke="green" stroke-width="0.3" d="M206.57,-78.99C203.98,-75.39 200.83,-71.02 197.51,-66.42"/>
<polygon fill="green" stroke="green" stroke-width="0.3" points="200.13,-64.06 191.44,-57.99 194.45,-68.15 200.13,-64.06"/>
<text text-anchor="middle" x="196.42" y="-74.21" font-family="Times,serif" font-size="5.00">1.000</text>
</g>
<!-- 29611 -->
<g id="node9" class="node">
<title>29611</title>
<ellipse fill="white" stroke="black" cx="129.44" cy="-97.73" rx="35.19" ry="35.19"/>
<text text-anchor="middle" x="129.44" y="-95.03" font-family="Times,serif" font-size="9.00">heaviside</text>
</g>
<!-- &#45;3&#45;&gt;29611 -->
<g id="edge21" class="edge">
<title>&#45;3&#45;&gt;29611</title>
<path fill="none" stroke="green" stroke-width="0.12" d="M201.28,-89.67C194.16,-90.47 184.63,-91.54 174.84,-92.64"/>
<polygon fill="green" stroke="green" stroke-width="0.12" points="174.19,-89.19 164.64,-93.78 174.97,-96.14 174.19,-89.19"/>
<text text-anchor="middle" x="182.44" y="-92.65" font-family="Times,serif" font-size="5.00">0.086</text>
</g>
<!-- &#45;4 -->
<g id="node4" class="node">
<title>&#45;4</title>
<polygon fill="lightgray" stroke="black" points="204.85,-163.26 180.85,-163.26 180.85,-144.65 204.85,-144.65 204.85,-163.26"/>
<text text-anchor="middle" x="192.85" y="-151.25" font-family="Times,serif" font-size="9.00">&#45;4</text>
</g>
<!-- &#45;4&#45;&gt;0 -->
<g id="edge3" class="edge">
<title>&#45;4&#45;&gt;0</title>
<path fill="none" stroke="red" stroke-width="0.19" stroke-dasharray="1,5" d="M205.03,-160.11C207.71,-161.47 210.65,-162.96 213.64,-164.47"/>
<polygon fill="red" stroke="red" stroke-width="0.19" points="212.07,-167.6 222.57,-168.99 215.23,-161.35 212.07,-167.6"/>
<text text-anchor="middle" x="212.56" y="-157.79" font-family="Times,serif" font-size="5.00">&#45;0.437</text>
</g>
<!-- &#45;4&#45;&gt;29611 -->
<g id="edge22" class="edge">
<title>&#45;4&#45;&gt;29611</title>
<path fill="none" stroke="red" stroke-width="0.37" d="M182.1,-144.42C176.97,-139.87 170.51,-134.15 163.9,-128.28"/>
<polygon fill="red" stroke="red" stroke-width="0.37" points="165.93,-125.41 156.13,-121.39 161.29,-130.64 165.93,-125.41"/>
<text text-anchor="middle" x="166.54" y="-137.85" font-family="Times,serif" font-size="5.00">&#45;1.357</text>
</g>
<!-- &#45;4&#45;&gt;209 -->
<g id="edge8" class="edge">
<title>&#45;4&#45;&gt;209</title>
<path fill="none" stroke="green" stroke-width="0.11" stroke-dasharray="1,5" d="M190.91,-163.48C189.16,-172.06 186.46,-185.32 183.75,-198.56"/>
<polygon fill="green" stroke="green" stroke-width="0.11" points="180.27,-198.12 181.7,-208.61 187.13,-199.51 180.27,-198.12"/>
<text text-anchor="middle" x="181.71" y="-182.52" font-family="Times,serif" font-size="5.00">0.062</text>
</g>
<!-- 35737 -->
<g id="node12" class="node">
<title>35737</title>
<ellipse fill="white" stroke="black" cx="34.76" cy="-233.58" rx="30.55" ry="30.55"/>
<ellipse fill="none" stroke="black" cx="34.76" cy="-233.58" rx="34.52" ry="34.52"/>
<text text-anchor="middle" x="34.76" y="-230.88" font-family="Times,serif" font-size="9.00">identity</text>
</g>
<!-- 5921&#45;&gt;35737 -->
<g id="edge19" class="edge">
<title>5921&#45;&gt;35737</title>
<path fill="none" stroke="green" stroke-width="0.31" stroke-dasharray="1,5" d="M84.57,-249.84C82.28,-249.09 79.89,-248.31 77.46,-247.52"/>
<polygon fill="green" stroke="green" stroke-width="0.31" points="78.54,-244.19 67.95,-244.41 76.37,-250.84 78.54,-244.19"/>
<text text-anchor="middle" x="75.39" y="-250.18" font-family="Times,serif" font-size="5.00">1.049</text>
</g>
<!-- 5921&#45;&gt;219 -->
<g id="edge10" class="edge">
<title>5921&#45;&gt;219</title>
<path fill="none" stroke="red" stroke-width="0.46" stroke-dasharray="1,5" d="M110.12,-234.69C110.1,-233.94 110.08,-233.18 110.05,-232.42"/>
<polygon fill="red" stroke="red" stroke-width="0.46" points="113.52,-231.94 109.36,-222.2 106.54,-232.41 113.52,-231.94"/>
<text text-anchor="middle" x="103.63" y="-229.06" font-family="Times,serif" font-size="5.00">&#45;1.778</text>
</g>
<!-- 52473 -->
<g id="node7" class="node">
<title>52473</title>
<ellipse fill="white" stroke="black" cx="65.84" cy="-47.49" rx="31.65" ry="31.65"/>
<text text-anchor="middle" x="65.84" y="-44.79" font-family="Times,serif" font-size="9.00">sigmoid</text>
</g>
<!-- 29759 -->
<g id="node16" class="node">
<title>29759</title>
<ellipse fill="white" stroke="black" cx="57.55" cy="-118.54" rx="22.08" ry="22.08"/>
<ellipse fill="none" stroke="black" cx="57.55" cy="-118.54" rx="26.04" ry="26.04"/>
<text text-anchor="middle" x="57.55" y="-115.84" font-family="Times,serif" font-size="9.00">tanh</text>
</g>
<!-- 52473&#45;&gt;29759 -->
<g id="edge28" class="edge">
<title>52473&#45;&gt;29759</title>
<path fill="none" stroke="green" stroke-width="0.36" stroke-dasharray="1,5" d="M62.13,-79.28C62.02,-80.22 61.91,-81.16 61.8,-82.1"/>
<polygon fill="green" stroke="green" stroke-width="0.36" points="58.32,-81.77 60.63,-92.1 65.27,-82.58 58.32,-81.77"/>
<text text-anchor="middle" x="56.34" y="-82.19" font-family="Times,serif" font-size="5.00">1.282</text>
</g>
<!-- 52742&#45;&gt;29611 -->
<g id="edge32" class="edge">
<title>52742&#45;&gt;29611</title>
<path fill="none" stroke="green" stroke-width="0.2" d="M155.03,-58.63C154.84,-58.92 154.64,-59.22 154.45,-59.51"/>
<polygon fill="green" stroke="green" stroke-width="0.2" points="151.35,-57.87 148.8,-68.15 157.2,-61.7 151.35,-57.87"/>
<text text-anchor="middle" x="149.12" y="-54.57" font-family="Times,serif" font-size="5.00">0.509</text>
</g>
<!-- 29611&#45;&gt;52473 -->
<g id="edge27" class="edge">
<title>29611&#45;&gt;52473</title>
<path fill="none" stroke="green" stroke-width="0.25" stroke-dasharray="1,5" d="M101.36,-75.55C100.6,-74.95 99.84,-74.35 99.08,-73.75"/>
<polygon fill="green" stroke="green" stroke-width="0.25" points="100.98,-70.79 90.96,-67.34 96.64,-76.29 100.98,-70.79"/>
<text text-anchor="middle" x="105.85" y="-76.15" font-family="Times,serif" font-size="5.00">0.741</text>
</g>
<!-- 29611&#45;&gt;219 -->
<g id="edge16" class="edge">
<title>29611&#45;&gt;219</title>
<path fill="none" stroke="red" stroke-width="0.4" d="M118.11,-131.46C116.75,-135.5 115.35,-139.66 113.96,-143.81"/>
<polygon fill="red" stroke="red" stroke-width="0.4" points="110.6,-142.82 110.74,-153.41 117.24,-145.05 110.6,-142.82"/>
<text text-anchor="middle" x="122.49" y="-139.14" font-family="Times,serif" font-size="5.00">&#45;1.475</text>
</g>
<!-- 29611&#45;&gt;29759 -->
<g id="edge17" class="edge">
<title>29611&#45;&gt;29759</title>
<path fill="none" stroke="green" stroke-width="0.46" stroke-dasharray="1,5" d="M95.18,-107.65C94.42,-107.87 93.66,-108.09 92.9,-108.31"/>
<polygon fill="green" stroke="green" stroke-width="0.46" points="91.78,-104.99 83.15,-111.13 93.73,-111.71 91.78,-104.99"/>
<text text-anchor="middle" x="88.41" y="-109.48" font-family="Times,serif" font-size="5.00">1.815</text>
</g>
<!-- 209&#45;&gt;0 -->
<g id="edge5" class="edge">
<title>209&#45;&gt;0</title>
<path fill="none" stroke="red" stroke-width="0.2" d="M199.08,-218.18C205.51,-211.65 212.37,-204.67 218.57,-198.37"/>
<polygon fill="red" stroke="red" stroke-width="0.2" points="221.47,-200.41 225.99,-190.82 216.48,-195.5 221.47,-200.41"/>
<text text-anchor="middle" x="202.37" y="-203.77" font-family="Times,serif" font-size="5.00">&#45;0.480</text>
</g>
<!-- 209&#45;&gt;5921 -->
<g id="edge12" class="edge">
<title>209&#45;&gt;5921</title>
<path fill="none" stroke="green" stroke-width="0.52" stroke-dasharray="1,5" d="M140.31,-249.88C139.53,-250.04 138.75,-250.2 137.97,-250.36"/>
<polygon fill="green" stroke="green" stroke-width="0.52" points="137.18,-246.95 128.06,-252.35 138.56,-253.81 137.18,-246.95"/>
<text text-anchor="middle" x="133.52" y="-251.62" font-family="Times,serif" font-size="5.00">2.122</text>
</g>
<!-- 209&#45;&gt;52250 -->
<g id="edge23" class="edge">
<title>209&#45;&gt;52250</title>
<path fill="none" stroke="green" stroke-width="0.47" stroke-dasharray="1,5" d="M162.02,-275.68C161.67,-276.58 161.32,-277.48 160.97,-278.38"/>
<polygon fill="green" stroke="green" stroke-width="0.47" points="157.58,-277.45 157.22,-288.04 164.1,-279.98 157.58,-277.45"/>
<text text-anchor="middle" x="155.87" y="-278.53" font-family="Times,serif" font-size="5.00">1.868</text>
</g>
<!-- 21623&#45;&gt;29611 -->
<g id="edge15" class="edge">
<title>21623&#45;&gt;29611</title>
<path fill="none" stroke="red" stroke-width="0.27" stroke-dasharray="1,5" d="M129.57,-117.39C129.57,-117.31 129.57,-117.23 129.57,-117.15"/>
<polygon fill="red" stroke="red" stroke-width="0.27" points="133.14,-126.88 129.57,-116.9 126.14,-126.93 133.14,-126.88"/>
<text text-anchor="middle" x="123.12" y="-112.77" font-family="Times,serif" font-size="5.00">&#45;0.838</text>
</g>
<!-- 21623&#45;&gt;219 -->
<g id="edge14" class="edge">
<title>21623&#45;&gt;219</title>
<path fill="none" stroke="red" stroke-width="0.26" d="M110.61,-172.95C110.56,-173.01 110.52,-173.08 110.47,-173.14"/>
<polygon fill="red" stroke="red" stroke-width="0.26" points="113.68,-163.27 110.32,-173.32 119.22,-167.56 113.68,-163.27"/>
<text text-anchor="middle" x="110.54" y="-168.55" font-family="Times,serif" font-size="5.00">&#45;0.784</text>
</g>
<!-- 35737&#45;&gt;219 -->
<g id="edge20" class="edge">
<title>35737&#45;&gt;219</title>
<path fill="none" stroke="red" stroke-width="0.26" stroke-dasharray="1,5" d="M63.23,-213.29C63.36,-213.19 63.5,-213.1 63.63,-213"/>
<polygon fill="red" stroke="red" stroke-width="0.26" points="63.62,-217.31 69.74,-208.65 59.56,-211.61 63.62,-217.31"/>
<text text-anchor="middle" x="56.97" y="-214.65" font-family="Times,serif" font-size="5.00">&#45;0.793</text>
</g>
<!-- 52250&#45;&gt;5921 -->
<g id="edge24" class="edge">
<title>52250&#45;&gt;5921</title>
<path fill="none" stroke="red" stroke-width="0.11" d="M128.08,-291.01C126.63,-288.77 125.16,-286.5 123.7,-284.25"/>
<polygon fill="red" stroke="red" stroke-width="0.11" points="126.61,-282.3 118.23,-275.81 120.73,-286.1 126.61,-282.3"/>
<text text-anchor="middle" x="119.43" y="-283.13" font-family="Times,serif" font-size="5.00">&#45;0.067</text>
</g>
<!-- 52250&#45;&gt;52250 -->
<g id="edge25" class="edge">
<title>52250&#45;&gt;52250</title>
<path fill="none" stroke="red" stroke-width="0.36" d="M176.73,-324.8C187.11,-324.8 195.42,-322.55 195.42,-318.05 195.42,-315.17 192.01,-313.21 186.83,-312.17"/>
<polygon fill="red" stroke="red" stroke-width="0.36" points="187,-308.67 176.73,-311.3 186.39,-315.65 187,-308.67"/>
<text text-anchor="middle" x="201.87" y="-316.55" font-family="Times,serif" font-size="5.00">&#45;1.279</text>
</g>
<!-- 219&#45;&gt;5921 -->
<g id="edge11" class="edge">
<title>219&#45;&gt;5921</title>
<path fill="none" stroke="red" stroke-width="0.53" stroke-dasharray="1,5" d="M95.94,-223.68C96.02,-224.48 96.11,-225.27 96.2,-226.07"/>
<polygon fill="red" stroke="red" stroke-width="0.53" points="92.75,-226.68 97.61,-236.09 99.68,-225.7 92.75,-226.68"/>
<text text-anchor="middle" x="89.61" y="-226.37" font-family="Times,serif" font-size="5.00">&#45;2.156</text>
</g>
<!-- 219&#45;&gt;209 -->
<g id="edge7" class="edge">
<title>219&#45;&gt;209</title>
<path fill="none" stroke="green" stroke-width="0.1" stroke-dasharray="1,5" d="M128.2,-208.86C131.47,-211.26 134.84,-213.73 138.19,-216.19"/>
<polygon fill="green" stroke="green" stroke-width="0.1" points="136.31,-219.15 146.44,-222.24 140.44,-213.5 136.31,-219.15"/>
<text text-anchor="middle" x="138.82" y="-208.03" font-family="Times,serif" font-size="5.00">0.007</text>
</g>
<!-- 52605&#45;&gt;209 -->
<g id="edge30" class="edge">
<title>52605&#45;&gt;209</title>
<path fill="none" stroke="green" stroke-width="0.43" stroke-dasharray="1,5" d="M218.74,-259.66C218.18,-259.45 217.62,-259.24 217.05,-259.02"/>
<polygon fill="green" stroke="green" stroke-width="0.43" points="218.21,-255.72 207.62,-255.45 215.73,-262.26 218.21,-255.72"/>
<text text-anchor="middle" x="212.27" y="-260.84" font-family="Times,serif" font-size="5.00">1.640</text>
</g>
<!-- 29759&#45;&gt;219 -->
<g id="edge18" class="edge">
<title>29759&#45;&gt;219</title>
<path fill="none" stroke="green" stroke-width="0.29" stroke-dasharray="1,5" d="M71.2,-141.17C72.53,-143.37 73.9,-145.65 75.3,-147.96"/>
<polygon fill="green" stroke="green" stroke-width="0.29" points="72.55,-150.17 80.71,-156.93 78.54,-146.56 72.55,-150.17"/>
<text text-anchor="middle" x="67.62" y="-146.06" font-family="Times,serif" font-size="5.00">0.937</text>
</g>
</g>
</svg>
