<?xml version="1.0" encoding="UTF-8" standalone="no"?>
<!DOCTYPE svg PUBLIC "-//W3C//DTD SVG 1.1//EN"
 "http://www.w3.org/Graphics/SVG/1.1/DTD/svg11.dtd">
<!-- Generated by graphviz version 2.47.1 (20210417.1919)
 -->
<!-- Pages: 1 -->
<svg width="484pt" height="370pt"
 viewBox="0.00 0.00 483.79 370.49" xmlns="http://www.w3.org/2000/svg" xmlns:xlink="http://www.w3.org/1999/xlink">
<g id="graph0" class="graph" transform="scale(1 1) rotate(0) translate(4 366.49)">
<polygon fill="white" stroke="transparent" points="-4,4 -4,-366.49 479.79,-366.49 479.79,4 -4,4"/>
<!-- &#45;1 -->
<g id="node1" class="node">
<title>&#45;1</title>
<polygon fill="lightgray" stroke="black" points="215.47,-18.7 191.47,-18.7 191.47,-0.1 215.47,-0.1 215.47,-18.7"/>
<text text-anchor="middle" x="203.47" y="-6.7" font-family="Times,serif" font-size="9.00">&#45;1</text>
</g>
<!-- 16279 -->
<g id="node16" class="node">
<title>16279</title>
<ellipse fill="white" stroke="black" cx="207.46" cy="-94.22" rx="31.65" ry="31.65"/>
<text text-anchor="middle" x="207.46" y="-91.52" font-family="Times,serif" font-size="9.00">sigmoid</text>
</g>
<!-- &#45;1&#45;&gt;16279 -->
<g id="edge31" class="edge">
<title>&#45;1&#45;&gt;16279</title>
<path fill="none" stroke="green" stroke-width="0.12" stroke-dasharray="1,5" d="M203.91,-18.8C204.29,-26.96 204.88,-39.37 205.46,-51.79"/>
<polygon fill="green" stroke="green" stroke-width="0.12" points="201.98,-52.3 205.95,-62.13 208.97,-51.97 201.98,-52.3"/>
<text text-anchor="middle" x="199.06" y="-36.79" font-family="Times,serif" font-size="5.00">0.090</text>
</g>
<!-- &#45;2 -->
<g id="node2" class="node">
<title>&#45;2</title>
<polygon fill="lightgray" stroke="black" points="380.05,-151.19 356.04,-151.19 356.04,-132.58 380.05,-132.58 380.05,-151.19"/>
<text text-anchor="middle" x="368.05" y="-139.18" font-family="Times,serif" font-size="9.00">&#45;2</text>
</g>
<!-- 0 -->
<g id="node5" class="node">
<title>0</title>
<ellipse fill="lightblue" stroke="black" cx="288.28" cy="-175.36" rx="14.49" ry="14.49"/>
<ellipse fill="none" stroke="black" cx="288.28" cy="-175.36" rx="18.49" ry="18.49"/>
<text text-anchor="middle" x="288.28" y="-172.66" font-family="Times,serif" font-size="9.00">0</text>
</g>
<!-- &#45;2&#45;&gt;0 -->
<g id="edge1" class="edge">
<title>&#45;2&#45;&gt;0</title>
<path fill="none" stroke="red" stroke-width="0.39" stroke-dasharray="1,5" d="M356.28,-146.82C345.36,-151.4 328.73,-158.38 314.65,-164.29"/>
<polygon fill="red" stroke="red" stroke-width="0.39" points="313.28,-161.07 305.41,-168.17 315.98,-167.53 313.28,-161.07"/>
<text text-anchor="middle" x="329.01" y="-157.06" font-family="Times,serif" font-size="5.00">&#45;1.459</text>
</g>
<!-- 9538 -->
<g id="node7" class="node">
<title>9538</title>
<ellipse fill="white" stroke="black" cx="415.78" cy="-218.66" rx="30.52" ry="30.52"/>
<text text-anchor="middle" x="415.78" y="-215.96" font-family="Times,serif" font-size="9.00">identity</text>
</g>
<!-- &#45;2&#45;&gt;9538 -->
<g id="edge11" class="edge">
<title>&#45;2&#45;&gt;9538</title>
<path fill="none" stroke="green" stroke-width="0.55" stroke-dasharray="1,5" d="M373.9,-151.3C378.99,-159.48 386.69,-171.87 394.1,-183.8"/>
<polygon fill="green" stroke="green" stroke-width="0.55" points="391.16,-185.69 399.41,-192.33 397.1,-181.99 391.16,-185.69"/>
<text text-anchor="middle" x="389.63" y="-163.05" font-family="Times,serif" font-size="5.00">2.272</text>
</g>
<!-- &#45;3 -->
<g id="node3" class="node">
<title>&#45;3</title>
<polygon fill="lightgray" stroke="black" points="128.64,-235.07 104.64,-235.07 104.64,-216.46 128.64,-216.46 128.64,-235.07"/>
<text text-anchor="middle" x="116.64" y="-223.06" font-family="Times,serif" font-size="9.00">&#45;3</text>
</g>
<!-- 192 -->
<g id="node6" class="node">
<title>192</title>
<ellipse fill="white" stroke="black" cx="181.04" cy="-162.79" rx="35.21" ry="35.21"/>
<ellipse fill="none" stroke="black" cx="181.04" cy="-162.79" rx="39.19" ry="39.19"/>
<text text-anchor="middle" x="181.04" y="-160.09" font-family="Times,serif" font-size="9.00">heaviside</text>
</g>
<!-- &#45;3&#45;&gt;192 -->
<g id="edge7" class="edge">
<title>&#45;3&#45;&gt;192</title>
<path fill="none" stroke="green" stroke-width="0.3" d="M126.42,-216.2C131.59,-211.15 138.29,-204.6 145.21,-197.83"/>
<polygon fill="green" stroke="green" stroke-width="0.3" points="148.05,-199.95 152.75,-190.45 143.15,-194.94 148.05,-199.95"/>
<text text-anchor="middle" x="130.19" y="-208.51" font-family="Times,serif" font-size="5.00">0.995</text>
</g>
<!-- 11232 -->
<g id="node8" class="node">
<title>11232</title>
<ellipse fill="white" stroke="black" cx="173.83" cy="-280.67" rx="30.52" ry="30.52"/>
<text text-anchor="middle" x="173.83" y="-277.97" font-family="Times,serif" font-size="9.00">identity</text>
</g>
<!-- &#45;3&#45;&gt;11232 -->
<g id="edge26" class="edge">
<title>&#45;3&#45;&gt;11232</title>
<path fill="none" stroke="red" stroke-width="0.31" d="M126.34,-235.08C131.29,-239.83 137.6,-245.89 144,-252.03"/>
<polygon fill="red" stroke="red" stroke-width="0.31" points="141.83,-254.8 151.47,-259.2 146.68,-249.75 141.83,-254.8"/>
<text text-anchor="middle" x="128.71" y="-245.06" font-family="Times,serif" font-size="5.00">&#45;1.034</text>
</g>
<!-- 15201 -->
<g id="node9" class="node">
<title>15201</title>
<ellipse fill="white" stroke="black" cx="46.59" cy="-216.38" rx="30.55" ry="30.55"/>
<ellipse fill="none" stroke="black" cx="46.59" cy="-216.38" rx="34.52" ry="34.52"/>
<text text-anchor="middle" x="46.59" y="-213.68" font-family="Times,serif" font-size="9.00">identity</text>
</g>
<!-- &#45;3&#45;&gt;15201 -->
<g id="edge23" class="edge">
<title>&#45;3&#45;&gt;15201</title>
<path fill="none" stroke="green" stroke-width="0.45" d="M104.76,-224.17C100.86,-223.65 96.28,-223.04 91.42,-222.38"/>
<polygon fill="green" stroke="green" stroke-width="0.45" points="91.58,-218.87 81.2,-221.01 90.65,-225.81 91.58,-218.87"/>
<text text-anchor="middle" x="92.47" y="-224.78" font-family="Times,serif" font-size="5.00">1.729</text>
</g>
<!-- 17115 -->
<g id="node18" class="node">
<title>17115</title>
<ellipse fill="white" stroke="black" cx="35.82" cy="-266.7" rx="31.67" ry="31.67"/>
<ellipse fill="none" stroke="black" cx="35.82" cy="-266.7" rx="35.65" ry="35.65"/>
<text text-anchor="middle" x="35.82" y="-264" font-family="Times,serif" font-size="9.00">sigmoid</text>
</g>
<!-- &#45;3&#45;&gt;17115 -->
<g id="edge33" class="edge">
<title>&#45;3&#45;&gt;17115</title>
<path fill="none" stroke="red" stroke-width="0.1" d="M104.72,-231.8C97.32,-235.55 87.33,-240.61 77.26,-245.71"/>
<polygon fill="red" stroke="red" stroke-width="0.1" points="75.4,-242.73 68.06,-250.37 78.56,-248.97 75.4,-242.73"/>
<text text-anchor="middle" x="97.45" y="-240.26" font-family="Times,serif" font-size="5.00">&#45;0.020</text>
</g>
<!-- 13405 -->
<g id="node20" class="node">
<title>13405</title>
<ellipse fill="white" stroke="black" cx="100.17" cy="-289.85" rx="30.52" ry="30.52"/>
<text text-anchor="middle" x="100.17" y="-287.15" font-family="Times,serif" font-size="9.00">identity</text>
</g>
<!-- &#45;3&#45;&gt;13405 -->
<g id="edge17" class="edge">
<title>&#45;3&#45;&gt;13405</title>
<path fill="none" stroke="green" stroke-width="0.19" d="M114.21,-235.22C113.15,-239.36 111.82,-244.51 110.41,-249.99"/>
<polygon fill="green" stroke="green" stroke-width="0.19" points="106.93,-249.5 107.83,-260.06 113.71,-251.24 106.93,-249.5"/>
<text text-anchor="middle" x="117.94" y="-238.11" font-family="Times,serif" font-size="5.00">0.450</text>
</g>
<!-- &#45;4 -->
<g id="node4" class="node">
<title>&#45;4</title>
<polygon fill="lightgray" stroke="black" points="272.06,-255.99 248.06,-255.99 248.06,-237.39 272.06,-237.39 272.06,-255.99"/>
<text text-anchor="middle" x="260.06" y="-243.99" font-family="Times,serif" font-size="9.00">&#45;4</text>
</g>
<!-- &#45;4&#45;&gt;0 -->
<g id="edge2" class="edge">
<title>&#45;4&#45;&gt;0</title>
<path fill="none" stroke="red" stroke-width="1.08" stroke-dasharray="1,5" d="M263.75,-237.36C267.28,-228.42 272.8,-214.5 277.7,-202.1"/>
<polygon fill="red" stroke="red" stroke-width="1.08" points="281.03,-203.21 281.45,-192.62 274.52,-200.63 281.03,-203.21"/>
<text text-anchor="middle" x="264.27" y="-221.23" font-family="Times,serif" font-size="5.00">&#45;4.918</text>
</g>
<!-- &#45;4&#45;&gt;11232 -->
<g id="edge14" class="edge">
<title>&#45;4&#45;&gt;11232</title>
<path fill="none" stroke="red" stroke-width="0.11" d="M248.07,-251.41C238.78,-255.08 225.35,-260.37 212.47,-265.45"/>
<polygon fill="red" stroke="red" stroke-width="0.11" points="210.82,-262.33 202.8,-269.26 213.39,-268.85 210.82,-262.33"/>
<text text-anchor="middle" x="223.81" y="-253.93" font-family="Times,serif" font-size="5.00">&#45;0.057</text>
</g>
<!-- 10857 -->
<g id="node11" class="node">
<title>10857</title>
<ellipse fill="white" stroke="black" cx="219.16" cy="-199.83" rx="22.04" ry="22.04"/>
<text text-anchor="middle" x="219.16" y="-197.13" font-family="Times,serif" font-size="9.00">tanh</text>
</g>
<!-- &#45;4&#45;&gt;10857 -->
<g id="edge12" class="edge">
<title>&#45;4&#45;&gt;10857</title>
<path fill="none" stroke="red" stroke-width="0.12" d="M251.78,-237.21C248.49,-233.44 244.54,-228.91 240.54,-224.33"/>
<polygon fill="red" stroke="red" stroke-width="0.12" points="243.09,-221.93 233.88,-216.7 237.81,-226.53 243.09,-221.93"/>
<text text-anchor="middle" x="239.7" y="-232.27" font-family="Times,serif" font-size="5.00">&#45;0.115</text>
</g>
<!-- 17163 -->
<g id="node12" class="node">
<title>17163</title>
<ellipse fill="white" stroke="black" cx="217.96" cy="-327.14" rx="35.19" ry="35.19"/>
<text text-anchor="middle" x="217.96" y="-324.44" font-family="Times,serif" font-size="9.00">heaviside</text>
</g>
<!-- &#45;4&#45;&gt;17163 -->
<g id="edge35" class="edge">
<title>&#45;4&#45;&gt;17163</title>
<path fill="none" stroke="green" stroke-width="0.34" d="M255.06,-256.23C251.04,-263.92 245.1,-275.28 239.14,-286.67"/>
<polygon fill="green" stroke="green" stroke-width="0.34" points="235.92,-285.26 234.39,-295.74 242.13,-288.51 235.92,-285.26"/>
<text text-anchor="middle" x="252.72" y="-272.95" font-family="Times,serif" font-size="5.00">1.215</text>
</g>
<!-- 14319 -->
<g id="node13" class="node">
<title>14319</title>
<ellipse fill="white" stroke="black" cx="314.84" cy="-313.97" rx="22.08" ry="22.08"/>
<ellipse fill="none" stroke="black" cx="314.84" cy="-313.97" rx="26.04" ry="26.04"/>
<text text-anchor="middle" x="314.84" y="-311.27" font-family="Times,serif" font-size="9.00">tanh</text>
</g>
<!-- &#45;4&#45;&gt;14319 -->
<g id="edge20" class="edge">
<title>&#45;4&#45;&gt;14319</title>
<path fill="none" stroke="red" stroke-width="0.33" stroke-dasharray="1,5" d="M267.68,-256.04C273.91,-263.7 283.06,-274.94 291.65,-285.49"/>
<polygon fill="red" stroke="red" stroke-width="0.33" points="289.03,-287.81 298.06,-293.35 294.46,-283.39 289.03,-287.81"/>
<text text-anchor="middle" x="273.21" y="-272.27" font-family="Times,serif" font-size="5.00">&#45;1.132</text>
</g>
<!-- 16528 -->
<g id="node14" class="node">
<title>16528</title>
<ellipse fill="white" stroke="black" cx="259.86" cy="-291.24" rx="30.55" ry="30.55"/>
<ellipse fill="none" stroke="black" cx="259.86" cy="-291.24" rx="34.52" ry="34.52"/>
<text text-anchor="middle" x="259.86" y="-288.54" font-family="Times,serif" font-size="9.00">identity</text>
</g>
<!-- &#45;4&#45;&gt;16528 -->
<g id="edge29" class="edge">
<title>&#45;4&#45;&gt;16528</title>
<path fill="none" stroke="green" stroke-width="0.14" d="M260.02,-256.14C260.02,-256.19 260.02,-256.24 260.02,-256.29"/>
<polygon fill="green" stroke="green" stroke-width="0.14" points="256.56,-246.43 260.01,-256.44 263.56,-246.46 256.56,-246.43"/>
<text text-anchor="middle" x="265.64" y="-257.71" font-family="Times,serif" font-size="5.00">0.186</text>
</g>
<!-- 8626 -->
<g id="node15" class="node">
<title>8626</title>
<ellipse fill="white" stroke="black" cx="348" cy="-263.19" rx="31.67" ry="31.67"/>
<ellipse fill="none" stroke="black" cx="348" cy="-263.19" rx="35.65" ry="35.65"/>
<text text-anchor="middle" x="348" y="-260.49" font-family="Times,serif" font-size="9.00">sigmoid</text>
</g>
<!-- &#45;4&#45;&gt;8626 -->
<g id="edge5" class="edge">
<title>&#45;4&#45;&gt;8626</title>
<path fill="none" stroke="green" stroke-width="0.29" stroke-dasharray="1,5" d="M271.92,-248.91C279.97,-250.43 291.18,-252.53 302.52,-254.66"/>
<polygon fill="green" stroke="green" stroke-width="0.29" points="301.97,-258.12 312.44,-256.52 303.26,-251.24 301.97,-258.12"/>
<text text-anchor="middle" x="281.59" y="-247.29" font-family="Times,serif" font-size="5.00">0.973</text>
</g>
<!-- 7420 -->
<g id="node19" class="node">
<title>7420</title>
<ellipse fill="white" stroke="black" cx="251.59" cy="-158.4" rx="31.67" ry="31.67"/>
<ellipse fill="none" stroke="black" cx="251.59" cy="-158.4" rx="35.65" ry="35.65"/>
<text text-anchor="middle" x="251.59" y="-155.7" font-family="Times,serif" font-size="9.00">sigmoid</text>
</g>
<!-- &#45;4&#45;&gt;7420 -->
<g id="edge18" class="edge">
<title>&#45;4&#45;&gt;7420</title>
<path fill="none" stroke="red" stroke-width="0.42" stroke-dasharray="1,5" d="M259.15,-237.24C258.37,-229.1 257.18,-216.7 255.98,-204.13"/>
<polygon fill="red" stroke="red" stroke-width="0.42" points="259.45,-203.71 255.01,-194.09 252.48,-204.38 259.45,-203.71"/>
<text text-anchor="middle" x="251.11" y="-222.18" font-family="Times,serif" font-size="5.00">&#45;1.622</text>
</g>
<!-- 4389 -->
<g id="node10" class="node">
<title>4389</title>
<ellipse fill="white" stroke="black" cx="361.9" cy="-197.13" rx="30.52" ry="30.52"/>
<text text-anchor="middle" x="361.9" y="-194.43" font-family="Times,serif" font-size="9.00">identity</text>
</g>
<!-- 0&#45;&gt;4389 -->
<g id="edge13" class="edge">
<title>0&#45;&gt;4389</title>
<path fill="none" stroke="red" stroke-width="0.25" d="M303.71,-185.97C308.9,-188.1 314.95,-190.22 321.16,-192.11"/>
<polygon fill="red" stroke="red" stroke-width="0.25" points="320.35,-195.52 330.93,-194.87 322.26,-188.78 320.35,-195.52"/>
<text text-anchor="middle" x="318.89" y="-190.54" font-family="Times,serif" font-size="5.00">&#45;0.774</text>
</g>
<!-- 192&#45;&gt;0 -->
<g id="edge3" class="edge">
<title>192&#45;&gt;0</title>
<path fill="none" stroke="green" stroke-width="1.51" d="M220.36,-167.4C233.4,-168.93 247.66,-170.6 259.73,-172.01"/>
<polygon fill="green" stroke="green" stroke-width="1.51" points="259.34,-175.49 269.68,-173.18 260.16,-168.54 259.34,-175.49"/>
<text text-anchor="middle" x="245.67" y="-171.2" font-family="Times,serif" font-size="5.00">7.050</text>
</g>
<!-- 9596 -->
<g id="node17" class="node">
<title>9596</title>
<ellipse fill="white" stroke="black" cx="247.37" cy="-105.37" rx="30.55" ry="30.55"/>
<ellipse fill="none" stroke="black" cx="247.37" cy="-105.37" rx="34.52" ry="34.52"/>
<text text-anchor="middle" x="247.37" y="-102.67" font-family="Times,serif" font-size="9.00">identity</text>
</g>
<!-- 192&#45;&gt;9596 -->
<g id="edge22" class="edge">
<title>192&#45;&gt;9596</title>
<path fill="none" stroke="green" stroke-width="0.27" d="M211.1,-136.77C211.82,-136.14 212.54,-135.52 213.26,-134.89"/>
<polygon fill="green" stroke="green" stroke-width="0.27" points="215.7,-137.42 220.97,-128.23 211.11,-132.13 215.7,-137.42"/>
<text text-anchor="middle" x="206.56" y="-137.33" font-family="Times,serif" font-size="5.00">0.849</text>
</g>
<!-- 9538&#45;&gt;9538 -->
<g id="edge10" class="edge">
<title>9538&#45;&gt;9538</title>
<path fill="none" stroke="green" stroke-width="0.17" d="M446.25,-225.41C456.41,-225.41 464.54,-223.16 464.54,-218.66 464.54,-215.85 461.36,-213.92 456.5,-212.86"/>
<polygon fill="green" stroke="green" stroke-width="0.17" points="456.53,-209.35 446.25,-211.91 455.89,-216.32 456.53,-209.35"/>
<text text-anchor="middle" x="470.16" y="-217.16" font-family="Times,serif" font-size="5.00">0.327</text>
</g>
<!-- 11232&#45;&gt;13405 -->
<g id="edge19" class="edge">
<title>11232&#45;&gt;13405</title>
<path fill="none" stroke="red" stroke-width="0.14" d="M143.02,-284.51C142.4,-284.59 141.79,-284.67 141.17,-284.74"/>
<polygon fill="red" stroke="red" stroke-width="0.14" points="140.59,-281.29 131.1,-286 141.45,-288.24 140.59,-281.29"/>
<text text-anchor="middle" x="135.64" y="-286.13" font-family="Times,serif" font-size="5.00">&#45;0.189</text>
</g>
<!-- 15201&#45;&gt;13405 -->
<g id="edge24" class="edge">
<title>15201&#45;&gt;13405</title>
<path fill="none" stroke="green" stroke-width="0.2" stroke-dasharray="1,5" d="M61.54,-248.02C64.51,-252.39 67.7,-256.85 70.94,-261.15"/>
<polygon fill="green" stroke="green" stroke-width="0.2" points="68.28,-263.43 77.17,-269.18 73.8,-259.14 68.28,-263.43"/>
<text text-anchor="middle" x="71.86" y="-256.09" font-family="Times,serif" font-size="5.00">0.485</text>
</g>
<!-- 4389&#45;&gt;0 -->
<g id="edge4" class="edge">
<title>4389&#45;&gt;0</title>
<path fill="none" stroke="red" stroke-width="0.26" d="M334.68,-182.18C328.91,-180.26 322.8,-178.48 316.98,-177.04"/>
<polygon fill="red" stroke="red" stroke-width="0.26" points="317.46,-173.56 306.94,-174.83 315.96,-180.4 317.46,-173.56"/>
<text text-anchor="middle" x="319.37" y="-181.11" font-family="Times,serif" font-size="5.00">&#45;0.817</text>
</g>
<!-- 4389&#45;&gt;9538 -->
<g id="edge16" class="edge">
<title>4389&#45;&gt;9538</title>
<path fill="none" stroke="red" stroke-width="0.16" stroke-dasharray="1,5" d="M390.73,-208.65C390.78,-208.67 390.83,-208.69 390.88,-208.71"/>
<polygon fill="red" stroke="red" stroke-width="0.16" points="380.45,-208.31 391.03,-208.77 383.05,-201.81 380.45,-208.31"/>
<text text-anchor="middle" x="397.26" y="-210.18" font-family="Times,serif" font-size="5.00">&#45;0.323</text>
</g>
<!-- 17163&#45;&gt;11232 -->
<g id="edge36" class="edge">
<title>17163&#45;&gt;11232</title>
<path fill="none" stroke="green" stroke-width="0.52" d="M193.57,-301.46C193.53,-301.42 193.49,-301.38 193.45,-301.34"/>
<polygon fill="green" stroke="green" stroke-width="0.52" points="202.76,-306.05 193.33,-301.21 197.68,-310.87 202.76,-306.05"/>
<text text-anchor="middle" x="187.89" y="-302.9" font-family="Times,serif" font-size="5.00">2.118</text>
</g>
<!-- 14319&#45;&gt;16528 -->
<g id="edge37" class="edge">
<title>14319&#45;&gt;16528</title>
<path fill="none" stroke="red" stroke-width="0.21" d="M290.25,-303.8C290.19,-303.77 290.13,-303.75 290.08,-303.73"/>
<polygon fill="red" stroke="red" stroke-width="0.21" points="300.48,-304.24 289.9,-303.66 297.81,-310.71 300.48,-304.24"/>
<text text-anchor="middle" x="283.7" y="-305.26" font-family="Times,serif" font-size="5.00">&#45;0.564</text>
</g>
<!-- 14319&#45;&gt;8626 -->
<g id="edge21" class="edge">
<title>14319&#45;&gt;8626</title>
<path fill="none" stroke="green" stroke-width="0.26" d="M329.29,-291.84C329.33,-291.79 329.36,-291.74 329.4,-291.68"/>
<polygon fill="green" stroke="green" stroke-width="0.26" points="326.96,-301.81 329.5,-291.52 321.1,-297.98 326.96,-301.81"/>
<text text-anchor="middle" x="323.72" y="-293.26" font-family="Times,serif" font-size="5.00">0.797</text>
</g>
<!-- 16528&#45;&gt;10857 -->
<g id="edge30" class="edge">
<title>16528&#45;&gt;10857</title>
<path fill="none" stroke="green" stroke-width="0.19" d="M245.62,-259.27C241.34,-249.64 236.65,-239.12 232.43,-229.63"/>
<polygon fill="green" stroke="green" stroke-width="0.19" points="235.5,-227.92 228.23,-220.21 229.1,-230.77 235.5,-227.92"/>
<text text-anchor="middle" x="233.4" y="-245.95" font-family="Times,serif" font-size="5.00">0.430</text>
</g>
<!-- 8626&#45;&gt;9538 -->
<g id="edge15" class="edge">
<title>8626&#45;&gt;9538</title>
<path fill="none" stroke="red" stroke-width="0.3" d="M378.32,-243.27C379.27,-242.65 380.23,-242.02 381.19,-241.39"/>
<polygon fill="red" stroke="red" stroke-width="0.3" points="383.29,-244.19 389.73,-235.78 379.45,-238.34 383.29,-244.19"/>
<text text-anchor="middle" x="382.98" y="-237.83" font-family="Times,serif" font-size="5.00">&#45;1.012</text>
</g>
<!-- 8626&#45;&gt;4389 -->
<g id="edge6" class="edge">
<title>8626&#45;&gt;4389</title>
<path fill="none" stroke="red" stroke-width="0.47" stroke-dasharray="1,5" d="M355.44,-227.84C355.45,-227.78 355.47,-227.72 355.48,-227.66"/>
<polygon fill="red" stroke="red" stroke-width="0.47" points="356.88,-237.98 355.52,-227.47 350.03,-236.54 356.88,-237.98"/>
<text text-anchor="middle" x="355.46" y="-223.25" font-family="Times,serif" font-size="5.00">&#45;1.847</text>
</g>
<!-- 16279&#45;&gt;10857 -->
<g id="edge28" class="edge">
<title>16279&#45;&gt;10857</title>
<path fill="none" stroke="red" stroke-width="0.28" stroke-dasharray="1,5" d="M210.97,-125.9C212.42,-139.04 214.11,-154.27 215.57,-167.47"/>
<polygon fill="red" stroke="red" stroke-width="0.28" points="212.11,-168 216.69,-177.55 219.07,-167.23 212.11,-168"/>
<text text-anchor="middle" x="206.81" y="-148.19" font-family="Times,serif" font-size="5.00">&#45;0.883</text>
</g>
<!-- 9596&#45;&gt;0 -->
<g id="edge8" class="edge">
<title>9596&#45;&gt;0</title>
<path fill="none" stroke="green" stroke-width="0.27" d="M264.96,-135.46C267.86,-140.42 270.85,-145.52 273.67,-150.35"/>
<polygon fill="green" stroke="green" stroke-width="0.27" points="270.76,-152.31 278.83,-159.18 276.8,-148.78 270.76,-152.31"/>
<text text-anchor="middle" x="263.69" y="-144.4" font-family="Times,serif" font-size="5.00">0.831</text>
</g>
<!-- 9596&#45;&gt;9596 -->
<g id="edge25" class="edge">
<title>9596&#45;&gt;9596</title>
<path fill="none" stroke="green" stroke-width="0.11" d="M281.63,-112.11C292.01,-111.94 300.13,-109.69 300.13,-105.37 300.13,-102.6 296.8,-100.68 291.67,-99.62"/>
<polygon fill="green" stroke="green" stroke-width="0.11" points="291.92,-96.12 281.63,-98.63 291.24,-103.09 291.92,-96.12"/>
<text text-anchor="middle" x="305.76" y="-103.87" font-family="Times,serif" font-size="5.00">0.055</text>
</g>
<!-- 17115&#45;&gt;15201 -->
<g id="edge34" class="edge">
<title>17115&#45;&gt;15201</title>
<path fill="none" stroke="red" stroke-width="0.6" d="M43.36,-231.48C43.38,-231.41 43.39,-231.34 43.4,-231.28"/>
<polygon fill="red" stroke="red" stroke-width="0.6" points="44.77,-241.59 43.45,-231.08 37.93,-240.12 44.77,-241.59"/>
<text text-anchor="middle" x="36.93" y="-232.88" font-family="Times,serif" font-size="5.00">&#45;2.500</text>
</g>
<!-- 7420&#45;&gt;0 -->
<g id="edge9" class="edge">
<title>7420&#45;&gt;0</title>
<path fill="none" stroke="red" stroke-width="0.22" d="M284.36,-173.54C284.43,-173.58 284.51,-173.61 284.58,-173.65"/>
<polygon fill="red" stroke="red" stroke-width="0.22" points="274.25,-172.73 284.8,-173.75 277.19,-166.37 274.25,-172.73"/>
<text text-anchor="middle" x="284.47" y="-169.09" font-family="Times,serif" font-size="5.00">&#45;0.605</text>
</g>
<!-- 7420&#45;&gt;16279 -->
<g id="edge27" class="edge">
<title>7420&#45;&gt;16279</title>
<path fill="none" stroke="red" stroke-width="0.31" d="M231.08,-128.56C230.96,-128.4 230.85,-128.23 230.74,-128.07"/>
<polygon fill="red" stroke="red" stroke-width="0.31" points="234.23,-126.97 225.68,-120.72 228.46,-130.94 234.23,-126.97"/>
<text text-anchor="middle" x="237.36" y="-129.82" font-family="Times,serif" font-size="5.00">&#45;1.039</text>
</g>
<!-- 13405&#45;&gt;15201 -->
<g id="edge32" class="edge">
<title>13405&#45;&gt;15201</title>
<path fill="none" stroke="green" stroke-width="0.51" stroke-dasharray="1,5" d="M87.51,-261.61C84.66,-257.3 81.54,-252.82 78.32,-248.43"/>
<polygon fill="green" stroke="green" stroke-width="0.51" points="80.89,-246.03 72.06,-240.17 75.31,-250.25 80.89,-246.03"/>
<text text-anchor="middle" x="88.54" y="-250.52" font-family="Times,serif" font-size="5.00">2.028</text>
</g>
</g>
</svg>
