<?xml version="1.0" encoding="UTF-8" standalone="no"?>
<!DOCTYPE svg PUBLIC "-//W3C//DTD SVG 1.1//EN"
 "http://www.w3.org/Graphics/SVG/1.1/DTD/svg11.dtd">
<!-- Generated by graphviz version 2.47.1 (20210417.1919)
 -->
<!-- Pages: 1 -->
<svg width="216pt" height="204pt"
 viewBox="0.00 0.00 216.13 203.53" xmlns="http://www.w3.org/2000/svg" xmlns:xlink="http://www.w3.org/1999/xlink">
<g id="graph0" class="graph" transform="scale(1 1) rotate(0) translate(4 199.53)">
<polygon fill="white" stroke="transparent" points="-4,4 -4,-199.53 212.13,-199.53 212.13,4 -4,4"/>
<!-- &#45;1 -->
<g id="node1" class="node">
<title>&#45;1</title>
<polygon fill="lightgray" stroke="black" points="69.91,-133.54 45.91,-133.54 45.91,-114.94 69.91,-114.94 69.91,-133.54"/>
<text text-anchor="middle" x="57.91" y="-121.54" font-family="Times,serif" font-size="9.00">&#45;1</text>
</g>
<!-- 0 -->
<g id="node5" class="node">
<title>0</title>
<ellipse fill="lightblue" stroke="black" cx="124.48" cy="-103.29" rx="14.49" ry="14.49"/>
<ellipse fill="none" stroke="black" cx="124.48" cy="-103.29" rx="18.49" ry="18.49"/>
<text text-anchor="middle" x="124.48" y="-100.59" font-family="Times,serif" font-size="9.00">0</text>
</g>
<!-- &#45;1&#45;&gt;0 -->
<g id="edge1" class="edge">
<title>&#45;1&#45;&gt;0</title>
<path fill="none" stroke="green" stroke-width="0.29" d="M69.81,-120.5C77.42,-118.1 87.61,-114.9 97.12,-111.9"/>
<polygon fill="green" stroke="green" stroke-width="0.29" points="98.18,-115.24 106.67,-108.9 96.08,-108.56 98.18,-115.24"/>
<text text-anchor="middle" x="77.84" y="-117.7" font-family="Times,serif" font-size="5.00">0.970</text>
</g>
<!-- 17071 -->
<g id="node6" class="node">
<title>17071</title>
<ellipse fill="white" stroke="black" cx="103.93" cy="-53.29" rx="35.19" ry="35.19"/>
<text text-anchor="middle" x="103.93" y="-50.59" font-family="Times,serif" font-size="9.00">heaviside</text>
</g>
<!-- &#45;1&#45;&gt;17071 -->
<g id="edge12" class="edge">
<title>&#45;1&#45;&gt;17071</title>
<path fill="none" stroke="green" stroke-width="0.19" d="M64.12,-114.67C68.05,-108.6 73.44,-100.31 78.97,-91.78"/>
<polygon fill="green" stroke="green" stroke-width="0.19" points="82,-93.54 84.5,-83.24 76.13,-89.73 82,-93.54"/>
<text text-anchor="middle" x="65.92" y="-104.72" font-family="Times,serif" font-size="5.00">0.458</text>
</g>
<!-- &#45;2 -->
<g id="node2" class="node">
<title>&#45;2</title>
<polygon fill="lightgray" stroke="black" points="208.38,-154.16 184.38,-154.16 184.38,-135.56 208.38,-135.56 208.38,-154.16"/>
<text text-anchor="middle" x="196.38" y="-142.16" font-family="Times,serif" font-size="9.00">&#45;2</text>
</g>
<!-- &#45;2&#45;&gt;0 -->
<g id="edge4" class="edge">
<title>&#45;2&#45;&gt;0</title>
<path fill="none" stroke="green" stroke-width="0.41" stroke-dasharray="1,5" d="M184.51,-138C174.97,-132.49 161.25,-124.55 149.34,-117.67"/>
<polygon fill="green" stroke="green" stroke-width="0.41" points="151.09,-114.63 140.68,-112.66 147.58,-120.69 151.09,-114.63"/>
<text text-anchor="middle" x="161.3" y="-129.33" font-family="Times,serif" font-size="5.00">1.548</text>
</g>
<!-- &#45;3 -->
<g id="node3" class="node">
<title>&#45;3</title>
<polygon fill="lightgray" stroke="black" points="148.77,-18.7 124.77,-18.7 124.77,-0.1 148.77,-0.1 148.77,-18.7"/>
<text text-anchor="middle" x="136.77" y="-6.7" font-family="Times,serif" font-size="9.00">&#45;3</text>
</g>
<!-- &#45;3&#45;&gt;0 -->
<g id="edge3" class="edge">
<title>&#45;3&#45;&gt;0</title>
<path fill="none" stroke="green" stroke-width="0.1" d="M135.54,-18.75C133.85,-31.66 130.73,-55.53 128.23,-74.63"/>
<polygon fill="green" stroke="green" stroke-width="0.1" points="124.75,-74.27 126.92,-84.64 131.69,-75.18 124.75,-74.27"/>
<text text-anchor="middle" x="137.51" y="-48.19" font-family="Times,serif" font-size="5.00">0.016</text>
</g>
<!-- &#45;3&#45;&gt;17071 -->
<g id="edge11" class="edge">
<title>&#45;3&#45;&gt;17071</title>
<path fill="none" stroke="green" stroke-width="0.38" d="M129.8,-18.71C129.71,-18.83 129.62,-18.95 129.53,-19.07"/>
<polygon fill="green" stroke="green" stroke-width="0.38" points="128.34,-14.82 125.15,-24.93 133.94,-19.02 128.34,-14.82"/>
<text text-anchor="middle" x="124.04" y="-14.39" font-family="Times,serif" font-size="5.00">1.397</text>
</g>
<!-- &#45;4 -->
<g id="node4" class="node">
<title>&#45;4</title>
<polygon fill="lightgray" stroke="black" points="129.5,-195.43 105.49,-195.43 105.49,-176.82 129.5,-176.82 129.5,-195.43"/>
<text text-anchor="middle" x="117.49" y="-183.43" font-family="Times,serif" font-size="9.00">&#45;4</text>
</g>
<!-- &#45;4&#45;&gt;0 -->
<g id="edge2" class="edge">
<title>&#45;4&#45;&gt;0</title>
<path fill="none" stroke="green" stroke-width="0.12" stroke-dasharray="1,5" d="M118.3,-176.62C119.21,-165.78 120.75,-147.54 122.06,-131.96"/>
<polygon fill="green" stroke="green" stroke-width="0.12" points="125.57,-131.98 122.93,-121.73 118.6,-131.4 125.57,-131.98"/>
<text text-anchor="middle" x="114.55" y="-155.79" font-family="Times,serif" font-size="5.00">0.092</text>
</g>
<!-- 0&#45;&gt;17071 -->
<g id="edge9" class="edge">
<title>0&#45;&gt;17071</title>
<path fill="none" stroke="red" stroke-width="0.16" d="M117.41,-86.09C117.38,-86.03 117.36,-85.97 117.34,-85.92"/>
<polygon fill="red" stroke="red" stroke-width="0.16" points="124.31,-93.66 117.27,-85.75 117.84,-96.33 124.31,-93.66"/>
<text text-anchor="middle" x="110.92" y="-81.5" font-family="Times,serif" font-size="5.00">&#45;0.306</text>
</g>
<!-- 16687 -->
<g id="node8" class="node">
<title>16687</title>
<ellipse fill="white" stroke="black" cx="184.09" cy="-58.82" rx="22.04" ry="22.04"/>
<text text-anchor="middle" x="184.09" y="-56.12" font-family="Times,serif" font-size="9.00">tanh</text>
</g>
<!-- 0&#45;&gt;16687 -->
<g id="edge8" class="edge">
<title>0&#45;&gt;16687</title>
<path fill="none" stroke="red" stroke-width="0.34" d="M142.1,-97.43C148.46,-93.63 155.68,-88.6 162.34,-83.4"/>
<polygon fill="red" stroke="red" stroke-width="0.34" points="164.87,-85.85 170.37,-76.8 160.42,-80.45 164.87,-85.85"/>
<text text-anchor="middle" x="158.68" y="-91.91" font-family="Times,serif" font-size="5.00">&#45;1.216</text>
</g>
<!-- 17071&#45;&gt;16687 -->
<g id="edge10" class="edge">
<title>17071&#45;&gt;16687</title>
<path fill="none" stroke="red" stroke-width="0.11" d="M139.32,-55.73C143.33,-56.01 147.41,-56.29 151.38,-56.56"/>
<polygon fill="red" stroke="red" stroke-width="0.11" points="151.34,-60.07 161.55,-57.26 151.82,-53.08 151.34,-60.07"/>
<text text-anchor="middle" x="151.81" y="-57.65" font-family="Times,serif" font-size="5.00">&#45;0.054</text>
</g>
<!-- 14320 -->
<g id="node7" class="node">
<title>14320</title>
<ellipse fill="white" stroke="black" cx="35.35" cy="-67.51" rx="35.19" ry="35.19"/>
<text text-anchor="middle" x="35.35" y="-64.81" font-family="Times,serif" font-size="9.00">heaviside</text>
</g>
<!-- 14320&#45;&gt;0 -->
<g id="edge5" class="edge">
<title>14320&#45;&gt;0</title>
<path fill="none" stroke="green" stroke-width="1.15" d="M68.28,-80.73C77.9,-84.59 88.29,-88.76 97.49,-92.46"/>
<polygon fill="green" stroke="green" stroke-width="1.15" points="96.33,-95.76 106.91,-96.24 98.94,-89.27 96.33,-95.76"/>
<text text-anchor="middle" x="77.26" y="-88.1" font-family="Times,serif" font-size="5.00">5.271</text>
</g>
<!-- 14320&#45;&gt;14320 -->
<g id="edge6" class="edge">
<title>14320&#45;&gt;14320</title>
<path fill="none" stroke="green" stroke-width="0.61" d="M70.24,-74.25C80.62,-74.05 88.69,-71.8 88.69,-67.51 88.69,-64.76 85.38,-62.85 80.27,-61.78"/>
<polygon fill="green" stroke="green" stroke-width="0.61" points="80.54,-58.29 70.24,-60.78 79.84,-65.26 80.54,-58.29"/>
<text text-anchor="middle" x="94.32" y="-66.01" font-family="Times,serif" font-size="5.00">2.535</text>
</g>
<!-- 16687&#45;&gt;0 -->
<g id="edge7" class="edge">
<title>16687&#45;&gt;0</title>
<path fill="none" stroke="green" stroke-width="2.04" d="M163.15,-66.72C156.51,-70.93 149.23,-76.21 142.79,-81.46"/>
<polygon fill="green" stroke="green" stroke-width="2.04" points="140.47,-78.84 135.17,-88.02 145.03,-84.14 140.47,-78.84"/>
<text text-anchor="middle" x="147.34" y="-75.59" font-family="Times,serif" font-size="5.00">9.695</text>
</g>
</g>
</svg>
