<?xml version="1.0" encoding="UTF-8" standalone="no"?>
<!DOCTYPE svg PUBLIC "-//W3C//DTD SVG 1.1//EN"
 "http://www.w3.org/Graphics/SVG/1.1/DTD/svg11.dtd">
<!-- Generated by graphviz version 2.47.1 (20210417.1919)
 -->
<!-- Pages: 1 -->
<svg width="222pt" height="321pt"
 viewBox="0.00 0.00 222.07 320.74" xmlns="http://www.w3.org/2000/svg" xmlns:xlink="http://www.w3.org/1999/xlink">
<g id="graph0" class="graph" transform="scale(1 1) rotate(0) translate(4 316.74)">
<polygon fill="white" stroke="transparent" points="-4,4 -4,-316.74 218.07,-316.74 218.07,4 -4,4"/>
<!-- &#45;1 -->
<g id="node1" class="node">
<title>&#45;1</title>
<polygon fill="lightgray" stroke="black" points="23.75,-269.71 -0.25,-269.71 -0.25,-251.1 23.75,-251.1 23.75,-269.71"/>
<text text-anchor="middle" x="11.75" y="-257.7" font-family="Times,serif" font-size="9.00">&#45;1</text>
</g>
<!-- 0 -->
<g id="node5" class="node">
<title>0</title>
<ellipse fill="lightblue" stroke="black" cx="86.17" cy="-223.55" rx="14.49" ry="14.49"/>
<ellipse fill="none" stroke="black" cx="86.17" cy="-223.55" rx="18.49" ry="18.49"/>
<text text-anchor="middle" x="86.17" y="-220.85" font-family="Times,serif" font-size="9.00">0</text>
</g>
<!-- &#45;1&#45;&gt;0 -->
<g id="edge2" class="edge">
<title>&#45;1&#45;&gt;0</title>
<path fill="none" stroke="red" stroke-width="0.19" stroke-dasharray="1,5" d="M23.7,-254.48C33.59,-249.59 47.99,-242.46 60.46,-236.28"/>
<polygon fill="red" stroke="red" stroke-width="0.19" points="62.12,-239.36 69.53,-231.79 59.01,-233.09 62.12,-239.36"/>
<text text-anchor="middle" x="35.63" y="-246.88" font-family="Times,serif" font-size="5.00">&#45;0.457</text>
</g>
<!-- &#45;2 -->
<g id="node2" class="node">
<title>&#45;2</title>
<polygon fill="lightgray" stroke="black" points="111.34,-312.64 87.34,-312.64 87.34,-294.04 111.34,-294.04 111.34,-312.64"/>
<text text-anchor="middle" x="99.34" y="-300.64" font-family="Times,serif" font-size="9.00">&#45;2</text>
</g>
<!-- &#45;2&#45;&gt;0 -->
<g id="edge4" class="edge">
<title>&#45;2&#45;&gt;0</title>
<path fill="none" stroke="green" stroke-width="0.43" d="M97.78,-293.88C96.09,-283.64 93.31,-266.84 90.9,-252.22"/>
<polygon fill="green" stroke="green" stroke-width="0.43" points="94.31,-251.39 89.23,-242.09 87.4,-252.53 94.31,-251.39"/>
<text text-anchor="middle" x="88.71" y="-274.55" font-family="Times,serif" font-size="5.00">1.671</text>
</g>
<!-- &#45;3 -->
<g id="node3" class="node">
<title>&#45;3</title>
<polygon fill="lightgray" stroke="black" points="23.75,-102.7 -0.25,-102.7 -0.25,-84.1 23.75,-84.1 23.75,-102.7"/>
<text text-anchor="middle" x="11.75" y="-90.7" font-family="Times,serif" font-size="9.00">&#45;3</text>
</g>
<!-- &#45;4 -->
<g id="node4" class="node">
<title>&#45;4</title>
<polygon fill="lightgray" stroke="black" points="92.87,-140.19 68.87,-140.19 68.87,-121.58 92.87,-121.58 92.87,-140.19"/>
<text text-anchor="middle" x="80.87" y="-128.19" font-family="Times,serif" font-size="9.00">&#45;4</text>
</g>
<!-- &#45;4&#45;&gt;0 -->
<g id="edge1" class="edge">
<title>&#45;4&#45;&gt;0</title>
<path fill="none" stroke="green" stroke-width="0.32" stroke-dasharray="1,5" d="M81.42,-140.45C82.14,-153.19 83.46,-176.28 84.53,-194.89"/>
<polygon fill="green" stroke="green" stroke-width="0.32" points="81.04,-195.16 85.1,-204.94 88.03,-194.76 81.04,-195.16"/>
<text text-anchor="middle" x="88.6" y="-169.17" font-family="Times,serif" font-size="5.00">1.085</text>
</g>
<!-- 8208 -->
<g id="node8" class="node">
<title>8208</title>
<ellipse fill="white" stroke="black" cx="43.71" cy="-171.24" rx="30.55" ry="30.55"/>
<ellipse fill="none" stroke="black" cx="43.71" cy="-171.24" rx="34.52" ry="34.52"/>
<text text-anchor="middle" x="43.71" y="-168.54" font-family="Times,serif" font-size="9.00">identity</text>
</g>
<!-- &#45;4&#45;&gt;8208 -->
<g id="edge7" class="edge">
<title>&#45;4&#45;&gt;8208</title>
<path fill="none" stroke="red" stroke-width="0.2" d="M72.25,-140.25C72.15,-140.35 72.06,-140.46 71.96,-140.56"/>
<polygon fill="red" stroke="red" stroke-width="0.2" points="71.49,-135.9 67.3,-145.63 76.64,-140.64 71.49,-135.9"/>
<text text-anchor="middle" x="78.56" y="-141.9" font-family="Times,serif" font-size="5.00">&#45;0.520</text>
</g>
<!-- 15600 -->
<g id="node9" class="node">
<title>15600</title>
<ellipse fill="white" stroke="black" cx="148.93" cy="-96.6" rx="35.19" ry="35.19"/>
<text text-anchor="middle" x="148.93" y="-93.9" font-family="Times,serif" font-size="9.00">heaviside</text>
</g>
<!-- &#45;4&#45;&gt;15600 -->
<g id="edge8" class="edge">
<title>&#45;4&#45;&gt;15600</title>
<path fill="none" stroke="red" stroke-width="0.26" d="M92.72,-124.91C97.22,-122.65 102.64,-119.92 108.31,-117.06"/>
<polygon fill="red" stroke="red" stroke-width="0.26" points="109.97,-120.15 117.33,-112.52 106.82,-113.89 109.97,-120.15"/>
<text text-anchor="middle" x="94.06" y="-116.49" font-family="Times,serif" font-size="5.00">&#45;0.795</text>
</g>
<!-- 16206 -->
<g id="node6" class="node">
<title>16206</title>
<ellipse fill="white" stroke="black" cx="166.95" cy="-231.93" rx="22.04" ry="22.04"/>
<text text-anchor="middle" x="166.95" y="-229.23" font-family="Times,serif" font-size="9.00">tanh</text>
</g>
<!-- 16206&#45;&gt;0 -->
<g id="edge13" class="edge">
<title>16206&#45;&gt;0</title>
<path fill="none" stroke="red" stroke-width="1.12" d="M144.45,-229.59C135.26,-228.64 124.52,-227.53 114.79,-226.52"/>
<polygon fill="red" stroke="red" stroke-width="1.12" points="115.04,-223.02 104.73,-225.47 114.32,-229.99 115.04,-223.02"/>
<text text-anchor="middle" x="123.16" y="-229.55" font-family="Times,serif" font-size="5.00">&#45;5.082</text>
</g>
<!-- 12175 -->
<g id="node7" class="node">
<title>12175</title>
<ellipse fill="white" stroke="black" cx="132.28" cy="-171.92" rx="35.19" ry="35.19"/>
<text text-anchor="middle" x="132.28" y="-169.22" font-family="Times,serif" font-size="9.00">heaviside</text>
</g>
<!-- 12175&#45;&gt;0 -->
<g id="edge6" class="edge">
<title>12175&#45;&gt;0</title>
<path fill="none" stroke="red" stroke-width="0.15" d="M108.68,-198.34C107.6,-199.55 106.52,-200.75 105.46,-201.95"/>
<polygon fill="red" stroke="red" stroke-width="0.15" points="102.72,-199.76 98.67,-209.55 107.94,-204.42 102.72,-199.76"/>
<text text-anchor="middle" x="100.61" y="-195.64" font-family="Times,serif" font-size="5.00">&#45;0.239</text>
</g>
<!-- 12175&#45;&gt;16206 -->
<g id="edge12" class="edge">
<title>12175&#45;&gt;16206</title>
<path fill="none" stroke="red" stroke-width="0.31" d="M150.02,-202.63C150.2,-202.94 150.38,-203.25 150.56,-203.57"/>
<polygon fill="red" stroke="red" stroke-width="0.31" points="147.67,-205.55 155.7,-212.46 153.73,-202.05 147.67,-205.55"/>
<text text-anchor="middle" x="143.83" y="-204.6" font-family="Times,serif" font-size="5.00">&#45;1.043</text>
</g>
<!-- 12175&#45;&gt;15600 -->
<g id="edge9" class="edge">
<title>12175&#45;&gt;15600</title>
<path fill="none" stroke="red" stroke-width="0.69" d="M146.39,-139.24C146.42,-139.09 146.46,-138.95 146.49,-138.8"/>
<polygon fill="red" stroke="red" stroke-width="0.69" points="149.21,-142.73 147.94,-132.21 142.38,-141.23 149.21,-142.73"/>
<text text-anchor="middle" x="139.98" y="-134.52" font-family="Times,serif" font-size="5.00">&#45;2.968</text>
</g>
<!-- 8208&#45;&gt;0 -->
<g id="edge3" class="edge">
<title>8208&#45;&gt;0</title>
<path fill="none" stroke="red" stroke-width="1.8" d="M65.69,-198.31C66.43,-199.24 67.18,-200.16 67.92,-201.07"/>
<polygon fill="red" stroke="red" stroke-width="1.8" points="65.35,-203.46 74.37,-209.01 70.79,-199.04 65.35,-203.46"/>
<text text-anchor="middle" x="73.26" y="-201.19" font-family="Times,serif" font-size="5.00">&#45;8.492</text>
</g>
<!-- 8208&#45;&gt;12175 -->
<g id="edge5" class="edge">
<title>8208&#45;&gt;12175</title>
<path fill="none" stroke="green" stroke-width="0.28" d="M78.72,-171.51C81.3,-171.53 83.92,-171.55 86.55,-171.57"/>
<polygon fill="green" stroke="green" stroke-width="0.28" points="86.63,-175.07 96.66,-171.65 86.69,-168.07 86.63,-175.07"/>
<text text-anchor="middle" x="88.26" y="-173.04" font-family="Times,serif" font-size="5.00">0.894</text>
</g>
<!-- 15600&#45;&gt;12175 -->
<g id="edge11" class="edge">
<title>15600&#45;&gt;12175</title>
<path fill="none" stroke="red" stroke-width="0.11" stroke-dasharray="1,5" d="M134.82,-129.28C134.78,-129.43 134.75,-129.57 134.72,-129.72"/>
<polygon fill="red" stroke="red" stroke-width="0.11" points="132,-125.79 133.27,-136.31 138.83,-127.29 132,-125.79"/>
<text text-anchor="middle" x="128.31" y="-131" font-family="Times,serif" font-size="5.00">&#45;0.051</text>
</g>
<!-- 16051 -->
<g id="node10" class="node">
<title>16051</title>
<ellipse fill="white" stroke="black" cx="183.32" cy="-30.76" rx="30.52" ry="30.52"/>
<text text-anchor="middle" x="183.32" y="-28.06" font-family="Times,serif" font-size="9.00">identity</text>
</g>
<!-- 15600&#45;&gt;16051 -->
<g id="edge10" class="edge">
<title>15600&#45;&gt;16051</title>
<path fill="none" stroke="red" stroke-width="0.11" stroke-dasharray="1,5" d="M165.32,-65.22C165.4,-65.07 165.47,-64.93 165.55,-64.78"/>
<polygon fill="red" stroke="red" stroke-width="0.11" points="167.52,-68.57 169.04,-58.09 161.31,-65.33 167.52,-68.57"/>
<text text-anchor="middle" x="158.98" y="-66.5" font-family="Times,serif" font-size="5.00">&#45;0.055</text>
</g>
</g>
</svg>
