<?xml version="1.0" encoding="UTF-8" standalone="no"?>
<!DOCTYPE svg PUBLIC "-//W3C//DTD SVG 1.1//EN"
 "http://www.w3.org/Graphics/SVG/1.1/DTD/svg11.dtd">
<!-- Generated by graphviz version 2.47.1 (20210417.1919)
 -->
<!-- Pages: 1 -->
<svg width="189pt" height="181pt"
 viewBox="0.00 0.00 188.61 181.12" xmlns="http://www.w3.org/2000/svg" xmlns:xlink="http://www.w3.org/1999/xlink">
<g id="graph0" class="graph" transform="scale(1 1) rotate(0) translate(4 177.12)">
<polygon fill="white" stroke="transparent" points="-4,4 -4,-177.12 184.61,-177.12 184.61,4 -4,4"/>
<!-- &#45;1 -->
<g id="node1" class="node">
<title>&#45;1</title>
<polygon fill="lightgray" stroke="black" points="30.17,-56.19 6.17,-56.19 6.17,-37.59 30.17,-37.59 30.17,-56.19"/>
<text text-anchor="middle" x="18.17" y="-44.19" font-family="Times,serif" font-size="9.00">&#45;1</text>
</g>
<!-- 0 -->
<g id="node5" class="node">
<title>0</title>
<ellipse fill="lightblue" stroke="black" cx="87.95" cy="-88.58" rx="14.49" ry="14.49"/>
<ellipse fill="none" stroke="black" cx="87.95" cy="-88.58" rx="18.49" ry="18.49"/>
<text text-anchor="middle" x="87.95" y="-85.88" font-family="Times,serif" font-size="9.00">0</text>
</g>
<!-- &#45;1&#45;&gt;0 -->
<g id="edge1" class="edge">
<title>&#45;1&#45;&gt;0</title>
<path fill="none" stroke="red" stroke-width="0.92" d="M30.01,-53.96C39.09,-59.39 51.94,-67.07 63.23,-73.81"/>
<polygon fill="red" stroke="red" stroke-width="0.92" points="61.48,-76.84 71.86,-78.97 65.07,-70.83 61.48,-76.84"/>
<text text-anchor="middle" x="40.16" y="-65.39" font-family="Times,serif" font-size="5.00">&#45;4.086</text>
</g>
<!-- &#45;2 -->
<g id="node2" class="node">
<title>&#45;2</title>
<polygon fill="lightgray" stroke="black" points="180.86,-91.27 156.86,-91.27 156.86,-72.67 180.86,-72.67 180.86,-91.27"/>
<text text-anchor="middle" x="168.86" y="-79.27" font-family="Times,serif" font-size="9.00">&#45;2</text>
</g>
<!-- &#45;2&#45;&gt;0 -->
<g id="edge2" class="edge">
<title>&#45;2&#45;&gt;0</title>
<path fill="none" stroke="red" stroke-width="1.67" d="M156.92,-82.95C146.34,-83.81 130.47,-85.11 116.62,-86.24"/>
<polygon fill="red" stroke="red" stroke-width="1.67" points="116.22,-82.76 106.54,-87.06 116.79,-89.73 116.22,-82.76"/>
<text text-anchor="middle" x="130.31" y="-86.09" font-family="Times,serif" font-size="5.00">&#45;7.868</text>
</g>
<!-- &#45;3 -->
<g id="node3" class="node">
<title>&#45;3</title>
<polygon fill="lightgray" stroke="black" points="117.99,-18.7 93.99,-18.7 93.99,-0.1 117.99,-0.1 117.99,-18.7"/>
<text text-anchor="middle" x="105.99" y="-6.7" font-family="Times,serif" font-size="9.00">&#45;3</text>
</g>
<!-- &#45;3&#45;&gt;0 -->
<g id="edge3" class="edge">
<title>&#45;3&#45;&gt;0</title>
<path fill="none" stroke="red" stroke-width="0.19" stroke-dasharray="1,5" d="M103.85,-18.79C101.52,-29.01 97.69,-45.84 94.37,-60.41"/>
<polygon fill="red" stroke="red" stroke-width="0.19" points="90.88,-59.96 92.07,-70.49 97.7,-61.52 90.88,-59.96"/>
<text text-anchor="middle" x="92.65" y="-41.1" font-family="Times,serif" font-size="5.00">&#45;0.468</text>
</g>
<!-- &#45;4 -->
<g id="node4" class="node">
<title>&#45;4</title>
<polygon fill="lightgray" stroke="black" points="130.84,-173.02 106.83,-173.02 106.83,-154.42 130.84,-154.42 130.84,-173.02"/>
<text text-anchor="middle" x="118.84" y="-161.02" font-family="Times,serif" font-size="9.00">&#45;4</text>
</g>
<!-- &#45;4&#45;&gt;0 -->
<g id="edge4" class="edge">
<title>&#45;4&#45;&gt;0</title>
<path fill="none" stroke="green" stroke-width="0.31" stroke-dasharray="1,5" d="M114.92,-154.2C110.9,-144.41 104.45,-128.73 98.87,-115.14"/>
<polygon fill="green" stroke="green" stroke-width="0.31" points="102.04,-113.66 95,-105.74 95.56,-116.32 102.04,-113.66"/>
<text text-anchor="middle" x="101.27" y="-136.17" font-family="Times,serif" font-size="5.00">1.063</text>
</g>
<!-- 16384 -->
<g id="node6" class="node">
<title>16384</title>
<ellipse fill="white" stroke="black" cx="26.27" cy="-141.55" rx="22.08" ry="22.08"/>
<ellipse fill="none" stroke="black" cx="26.27" cy="-141.55" rx="26.04" ry="26.04"/>
<text text-anchor="middle" x="26.27" y="-138.85" font-family="Times,serif" font-size="9.00">tanh</text>
</g>
<!-- 16384&#45;&gt;0 -->
<g id="edge5" class="edge">
<title>16384&#45;&gt;0</title>
<path fill="none" stroke="red" stroke-width="1.44" d="M46.47,-124.2C52.69,-118.86 59.57,-112.94 65.92,-107.5"/>
<polygon fill="red" stroke="red" stroke-width="1.44" points="68.26,-110.1 73.57,-100.93 63.7,-104.79 68.26,-110.1"/>
<text text-anchor="middle" x="49.73" y="-111.35" font-family="Times,serif" font-size="5.00">&#45;6.723</text>
</g>
</g>
</svg>
