<?xml version="1.0" encoding="UTF-8" standalone="no"?>
<!DOCTYPE svg PUBLIC "-//W3C//DTD SVG 1.1//EN"
 "http://www.w3.org/Graphics/SVG/1.1/DTD/svg11.dtd">
<!-- Generated by graphviz version 2.47.1 (20210417.1919)
 -->
<!-- Pages: 1 -->
<svg width="163pt" height="259pt"
 viewBox="0.00 0.00 163.00 258.60" xmlns="http://www.w3.org/2000/svg" xmlns:xlink="http://www.w3.org/1999/xlink">
<g id="graph0" class="graph" transform="scale(1 1) rotate(0) translate(4 254.6)">
<polygon fill="white" stroke="transparent" points="-4,4 -4,-254.6 159,-254.6 159,4 -4,4"/>
<!-- &#45;1 -->
<g id="node1" class="node">
<title>&#45;1</title>
<polygon fill="lightgray" stroke="black" points="23.75,-220.02 -0.25,-220.02 -0.25,-201.42 23.75,-201.42 23.75,-220.02"/>
<text text-anchor="middle" x="11.75" y="-208.02" font-family="Times,serif" font-size="9.00">&#45;1</text>
</g>
<!-- 0 -->
<g id="node5" class="node">
<title>0</title>
<ellipse fill="lightblue" stroke="black" cx="82.5" cy="-171.17" rx="14.49" ry="14.49"/>
<ellipse fill="none" stroke="black" cx="82.5" cy="-171.17" rx="18.49" ry="18.49"/>
<text text-anchor="middle" x="82.5" y="-168.47" font-family="Times,serif" font-size="9.00">0</text>
</g>
<!-- &#45;1&#45;&gt;0 -->
<g id="edge1" class="edge">
<title>&#45;1&#45;&gt;0</title>
<path fill="none" stroke="green" stroke-width="1.16" d="M23.75,-204.01C32.96,-198.86 45.99,-191.58 57.44,-185.18"/>
<polygon fill="green" stroke="green" stroke-width="1.16" points="59.16,-188.23 66.18,-180.29 55.74,-182.12 59.16,-188.23"/>
<text text-anchor="middle" x="34.97" y="-196.09" font-family="Times,serif" font-size="5.00">5.324</text>
</g>
<!-- &#45;2 -->
<g id="node2" class="node">
<title>&#45;2</title>
<polygon fill="lightgray" stroke="black" points="155.25,-149.32 131.25,-149.32 131.25,-130.72 155.25,-130.72 155.25,-149.32"/>
<text text-anchor="middle" x="143.25" y="-137.32" font-family="Times,serif" font-size="9.00">&#45;2</text>
</g>
<!-- &#45;2&#45;&gt;0 -->
<g id="edge4" class="edge">
<title>&#45;2&#45;&gt;0</title>
<path fill="none" stroke="green" stroke-width="1.04" d="M131.25,-146.17C124.69,-149.54 116.29,-153.84 108.33,-157.93"/>
<polygon fill="green" stroke="green" stroke-width="1.04" points="106.6,-154.88 99.3,-162.55 109.8,-161.11 106.6,-154.88"/>
<text text-anchor="middle" x="114.16" y="-153.55" font-family="Times,serif" font-size="5.00">4.707</text>
</g>
<!-- 2899 -->
<g id="node6" class="node">
<title>2899</title>
<ellipse fill="white" stroke="black" cx="60.73" cy="-108.05" rx="30.52" ry="30.52"/>
<text text-anchor="middle" x="60.73" y="-105.35" font-family="Times,serif" font-size="9.00">identity</text>
</g>
<!-- &#45;2&#45;&gt;2899 -->
<g id="edge7" class="edge">
<title>&#45;2&#45;&gt;2899</title>
<path fill="none" stroke="red" stroke-width="0.37" stroke-dasharray="1,5" d="M131.43,-135.44C122.93,-132.15 110.96,-127.51 99.29,-122.99"/>
<polygon fill="red" stroke="red" stroke-width="0.37" points="100.21,-119.59 89.63,-119.24 97.69,-126.12 100.21,-119.59"/>
<text text-anchor="middle" x="108.9" y="-130.71" font-family="Times,serif" font-size="5.00">&#45;1.360</text>
</g>
<!-- &#45;3 -->
<g id="node3" class="node">
<title>&#45;3</title>
<polygon fill="lightgray" stroke="black" points="118.54,-92.12 94.54,-92.12 94.54,-73.52 118.54,-73.52 118.54,-92.12"/>
<text text-anchor="middle" x="106.54" y="-80.12" font-family="Times,serif" font-size="9.00">&#45;3</text>
</g>
<!-- &#45;3&#45;&gt;0 -->
<g id="edge3" class="edge">
<title>&#45;3&#45;&gt;0</title>
<path fill="none" stroke="green" stroke-width="0.11" stroke-dasharray="1,5" d="M103.97,-92.27C100.66,-104.41 94.8,-125.98 90.03,-143.5"/>
<polygon fill="green" stroke="green" stroke-width="0.11" points="86.62,-142.68 87.37,-153.25 93.38,-144.52 86.62,-142.68"/>
<text text-anchor="middle" x="102.62" y="-119.39" font-family="Times,serif" font-size="5.00">0.044</text>
</g>
<!-- &#45;3&#45;&gt;2899 -->
<g id="edge6" class="edge">
<title>&#45;3&#45;&gt;2899</title>
<path fill="none" stroke="green" stroke-width="0.7" d="M94.5,-89.45C94.37,-89.52 94.24,-89.6 94.1,-89.67"/>
<polygon fill="green" stroke="green" stroke-width="0.7" points="94.83,-85.27 87.76,-93.16 98.21,-91.41 94.83,-85.27"/>
<text text-anchor="middle" x="99.93" y="-91.06" font-family="Times,serif" font-size="5.00">2.978</text>
</g>
<!-- 15687 -->
<g id="node7" class="node">
<title>15687</title>
<ellipse fill="white" stroke="black" cx="55.76" cy="-31.82" rx="31.65" ry="31.65"/>
<text text-anchor="middle" x="55.76" y="-29.12" font-family="Times,serif" font-size="9.00">sigmoid</text>
</g>
<!-- &#45;3&#45;&gt;15687 -->
<g id="edge8" class="edge">
<title>&#45;3&#45;&gt;15687</title>
<path fill="none" stroke="green" stroke-width="0.12" d="M97.23,-73.47C93.85,-70.08 89.83,-66.04 85.64,-61.83"/>
<polygon fill="green" stroke="green" stroke-width="0.12" points="88.06,-59.3 78.52,-54.68 83.1,-64.24 88.06,-59.3"/>
<text text-anchor="middle" x="85.81" y="-69.15" font-family="Times,serif" font-size="5.00">0.096</text>
</g>
<!-- &#45;4 -->
<g id="node4" class="node">
<title>&#45;4</title>
<polygon fill="lightgray" stroke="black" points="133.9,-250.51 109.9,-250.51 109.9,-231.9 133.9,-231.9 133.9,-250.51"/>
<text text-anchor="middle" x="121.9" y="-238.5" font-family="Times,serif" font-size="9.00">&#45;4</text>
</g>
<!-- &#45;4&#45;&gt;0 -->
<g id="edge2" class="edge">
<title>&#45;4&#45;&gt;0</title>
<path fill="none" stroke="green" stroke-width="0.32" stroke-dasharray="1,5" d="M116.59,-231.76C111.5,-222.72 103.59,-208.67 96.68,-196.37"/>
<polygon fill="green" stroke="green" stroke-width="0.32" points="99.6,-194.43 91.64,-187.43 93.5,-197.86 99.6,-194.43"/>
<text text-anchor="middle" x="101.01" y="-215.57" font-family="Times,serif" font-size="5.00">1.090</text>
</g>
<!-- 2899&#45;&gt;0 -->
<g id="edge5" class="edge">
<title>2899&#45;&gt;0</title>
<path fill="none" stroke="green" stroke-width="1.82" d="M70.85,-137.4C71.59,-139.56 72.35,-141.74 73.09,-143.89"/>
<polygon fill="green" stroke="green" stroke-width="1.82" points="69.87,-145.28 76.43,-153.6 76.48,-143 69.87,-145.28"/>
<text text-anchor="middle" x="66.34" y="-142.14" font-family="Times,serif" font-size="5.00">8.613</text>
</g>
<!-- 15687&#45;&gt;2899 -->
<g id="edge9" class="edge">
<title>15687&#45;&gt;2899</title>
<path fill="none" stroke="green" stroke-width="0.72" d="M57.84,-63.71C57.91,-64.81 57.98,-65.92 58.06,-67.03"/>
<polygon fill="green" stroke="green" stroke-width="0.72" points="54.56,-67.27 58.71,-77.03 61.55,-66.82 54.56,-67.27"/>
<text text-anchor="middle" x="52.32" y="-66.87" font-family="Times,serif" font-size="5.00">3.107</text>
</g>
</g>
</svg>
