<?xml version="1.0" encoding="UTF-8" standalone="no"?>
<!DOCTYPE svg PUBLIC "-//W3C//DTD SVG 1.1//EN"
 "http://www.w3.org/Graphics/SVG/1.1/DTD/svg11.dtd">
<!-- Generated by graphviz version 2.47.1 (20210417.1919)
 -->
<!-- Pages: 1 -->
<svg width="184pt" height="264pt"
 viewBox="0.00 0.00 184.42 263.84" xmlns="http://www.w3.org/2000/svg" xmlns:xlink="http://www.w3.org/1999/xlink">
<g id="graph0" class="graph" transform="scale(1 1) rotate(0) translate(4 259.84)">
<polygon fill="white" stroke="transparent" points="-4,4 -4,-259.84 180.42,-259.84 180.42,4 -4,4"/>
<!-- &#45;1 -->
<g id="node1" class="node">
<title>&#45;1</title>
<polygon fill="lightgray" stroke="black" points="24.42,-217.2 0.42,-217.2 0.42,-198.6 24.42,-198.6 24.42,-217.2"/>
<text text-anchor="middle" x="12.42" y="-205.2" font-family="Times,serif" font-size="9.00">&#45;1</text>
</g>
<!-- 0 -->
<g id="node5" class="node">
<title>0</title>
<ellipse fill="lightblue" stroke="black" cx="86.25" cy="-167.27" rx="14.49" ry="14.49"/>
<ellipse fill="none" stroke="black" cx="86.25" cy="-167.27" rx="18.49" ry="18.49"/>
<text text-anchor="middle" x="86.25" y="-164.57" font-family="Times,serif" font-size="9.00">0</text>
</g>
<!-- &#45;1&#45;&gt;0 -->
<g id="edge3" class="edge">
<title>&#45;1&#45;&gt;0</title>
<path fill="none" stroke="green" stroke-width="0.4" d="M24.28,-201.37C34.16,-195.94 48.56,-188.01 60.99,-181.17"/>
<polygon fill="green" stroke="green" stroke-width="0.4" points="62.94,-184.09 70.01,-176.21 59.56,-177.96 62.94,-184.09"/>
<text text-anchor="middle" x="37.01" y="-192.77" font-family="Times,serif" font-size="5.00">1.505</text>
</g>
<!-- &#45;2 -->
<g id="node2" class="node">
<title>&#45;2</title>
<polygon fill="lightgray" stroke="black" points="176.67,-206.86 152.67,-206.86 152.67,-188.26 176.67,-188.26 176.67,-206.86"/>
<text text-anchor="middle" x="164.67" y="-194.86" font-family="Times,serif" font-size="9.00">&#45;2</text>
</g>
<!-- &#45;2&#45;&gt;0 -->
<g id="edge4" class="edge">
<title>&#45;2&#45;&gt;0</title>
<path fill="none" stroke="red" stroke-width="0.28" stroke-dasharray="1,5" d="M152.76,-192.96C142.21,-188.89 126.42,-182.79 112.88,-177.56"/>
<polygon fill="red" stroke="red" stroke-width="0.28" points="114.11,-174.28 103.52,-173.94 111.58,-180.81 114.11,-174.28"/>
<text text-anchor="middle" x="126.36" y="-186.76" font-family="Times,serif" font-size="5.00">&#45;0.890</text>
</g>
<!-- &#45;3 -->
<g id="node3" class="node">
<title>&#45;3</title>
<polygon fill="lightgray" stroke="black" points="93.32,-107.96 69.31,-107.96 69.31,-89.36 93.32,-89.36 93.32,-107.96"/>
<text text-anchor="middle" x="81.31" y="-95.96" font-family="Times,serif" font-size="9.00">&#45;3</text>
</g>
<!-- &#45;3&#45;&gt;0 -->
<g id="edge1" class="edge">
<title>&#45;3&#45;&gt;0</title>
<path fill="none" stroke="red" stroke-width="0.61" stroke-dasharray="1,5" d="M82,-108.2C82.57,-116.13 83.41,-127.83 84.2,-138.73"/>
<polygon fill="red" stroke="red" stroke-width="0.61" points="80.71,-139.06 84.92,-148.78 87.69,-138.56 80.71,-139.06"/>
<text text-anchor="middle" x="76.64" y="-124.96" font-family="Times,serif" font-size="5.00">&#45;2.544</text>
</g>
<!-- 14298 -->
<g id="node6" class="node">
<title>14298</title>
<ellipse fill="white" stroke="black" cx="75.6" cy="-35.82" rx="31.67" ry="31.67"/>
<ellipse fill="none" stroke="black" cx="75.6" cy="-35.82" rx="35.65" ry="35.65"/>
<text text-anchor="middle" x="75.6" y="-33.12" font-family="Times,serif" font-size="9.00">sigmoid</text>
</g>
<!-- &#45;3&#45;&gt;14298 -->
<g id="edge10" class="edge">
<title>&#45;3&#45;&gt;14298</title>
<path fill="none" stroke="green" stroke-width="0.3" d="M80.45,-89.12C80.25,-86.94 80.02,-84.48 79.78,-81.85"/>
<polygon fill="green" stroke="green" stroke-width="0.3" points="83.26,-81.37 78.86,-71.73 76.28,-82.01 83.26,-81.37"/>
<text text-anchor="middle" x="74.49" y="-80.98" font-family="Times,serif" font-size="5.00">1.000</text>
</g>
<!-- 8507 -->
<g id="node7" class="node">
<title>8507</title>
<ellipse fill="white" stroke="black" cx="26.27" cy="-104.05" rx="22.08" ry="22.08"/>
<ellipse fill="none" stroke="black" cx="26.27" cy="-104.05" rx="26.04" ry="26.04"/>
<text text-anchor="middle" x="26.27" y="-101.35" font-family="Times,serif" font-size="9.00">tanh</text>
</g>
<!-- &#45;3&#45;&gt;8507 -->
<g id="edge9" class="edge">
<title>&#45;3&#45;&gt;8507</title>
<path fill="none" stroke="red" stroke-width="0.14" d="M69.37,-99.83C67.29,-100.04 65.03,-100.26 62.68,-100.49"/>
<polygon fill="red" stroke="red" stroke-width="0.14" points="62.26,-97.01 52.65,-101.47 62.95,-103.98 62.26,-97.01"/>
<text text-anchor="middle" x="59.57" y="-101.66" font-family="Times,serif" font-size="5.00">&#45;0.186</text>
</g>
<!-- 11398 -->
<g id="node8" class="node">
<title>11398</title>
<ellipse fill="white" stroke="black" cx="136.01" cy="-95.33" rx="30.55" ry="30.55"/>
<ellipse fill="none" stroke="black" cx="136.01" cy="-95.33" rx="34.52" ry="34.52"/>
<text text-anchor="middle" x="136.01" y="-92.63" font-family="Times,serif" font-size="9.00">identity</text>
</g>
<!-- &#45;3&#45;&gt;11398 -->
<g id="edge8" class="edge">
<title>&#45;3&#45;&gt;11398</title>
<path fill="none" stroke="green" stroke-width="0.27" d="M93.18,-97.94C93.33,-97.93 93.48,-97.92 93.63,-97.91"/>
<polygon fill="green" stroke="green" stroke-width="0.27" points="91.16,-101.57 100.93,-97.47 90.73,-94.58 91.16,-101.57"/>
<text text-anchor="middle" x="99.03" y="-99.43" font-family="Times,serif" font-size="5.00">0.842</text>
</g>
<!-- &#45;4 -->
<g id="node4" class="node">
<title>&#45;4</title>
<polygon fill="lightgray" stroke="black" points="103.18,-255.75 79.18,-255.75 79.18,-237.14 103.18,-237.14 103.18,-255.75"/>
<text text-anchor="middle" x="91.18" y="-243.74" font-family="Times,serif" font-size="9.00">&#45;4</text>
</g>
<!-- &#45;4&#45;&gt;0 -->
<g id="edge2" class="edge">
<title>&#45;4&#45;&gt;0</title>
<path fill="none" stroke="green" stroke-width="0.12" stroke-dasharray="1,5" d="M90.6,-237.05C89.97,-226.97 88.94,-210.44 88.04,-196"/>
<polygon fill="green" stroke="green" stroke-width="0.12" points="91.53,-195.75 87.41,-185.98 84.54,-196.18 91.53,-195.75"/>
<text text-anchor="middle" x="83.69" y="-218.03" font-family="Times,serif" font-size="5.00">0.125</text>
</g>
<!-- 14298&#45;&gt;8507 -->
<g id="edge12" class="edge">
<title>14298&#45;&gt;8507</title>
<path fill="none" stroke="red" stroke-width="0.61" d="M54.39,-65.15C52.24,-68.13 50.05,-71.16 47.89,-74.15"/>
<polygon fill="red" stroke="red" stroke-width="0.61" points="44.97,-72.22 41.95,-82.37 50.64,-76.32 44.97,-72.22"/>
<text text-anchor="middle" x="44.68" y="-71.15" font-family="Times,serif" font-size="5.00">&#45;2.558</text>
</g>
<!-- 14298&#45;&gt;11398 -->
<g id="edge11" class="edge">
<title>14298&#45;&gt;11398</title>
<path fill="none" stroke="green" stroke-width="0.11" d="M101.22,-61.06C102.02,-61.85 102.83,-62.65 103.64,-63.45"/>
<polygon fill="green" stroke="green" stroke-width="0.11" points="101.35,-66.1 110.93,-70.62 106.26,-61.11 101.35,-66.1"/>
<text text-anchor="middle" x="96.8" y="-63.75" font-family="Times,serif" font-size="5.00">0.062</text>
</g>
<!-- 8507&#45;&gt;0 -->
<g id="edge5" class="edge">
<title>8507&#45;&gt;0</title>
<path fill="none" stroke="green" stroke-width="2.34" d="M44.59,-123.36C51.37,-130.51 59.09,-138.65 66.03,-145.96"/>
<polygon fill="green" stroke="green" stroke-width="2.34" points="63.75,-148.64 73.17,-153.49 68.83,-143.83 63.75,-148.64"/>
<text text-anchor="middle" x="48.44" y="-136.16" font-family="Times,serif" font-size="5.00">11.181</text>
</g>
<!-- 8507&#45;&gt;8507 -->
<g id="edge7" class="edge">
<title>8507&#45;&gt;8507</title>
<path fill="none" stroke="red" stroke-width="0.46" d="M51.75,-110.76C61.97,-111.14 70.54,-108.9 70.54,-104.05 70.54,-100.94 67.02,-98.91 61.81,-97.95"/>
<polygon fill="red" stroke="red" stroke-width="0.46" points="61.94,-94.45 51.75,-97.34 61.52,-101.44 61.94,-94.45"/>
<text text-anchor="middle" x="77" y="-102.55" font-family="Times,serif" font-size="5.00">&#45;1.794</text>
</g>
<!-- 11398&#45;&gt;0 -->
<g id="edge6" class="edge">
<title>11398&#45;&gt;0</title>
<path fill="none" stroke="green" stroke-width="2.13" d="M116.06,-124.18C111.62,-130.59 106.97,-137.31 102.7,-143.49"/>
<polygon fill="green" stroke="green" stroke-width="2.13" points="99.59,-141.84 96.78,-152.05 105.34,-145.82 99.59,-141.84"/>
<text text-anchor="middle" x="102.5" y="-135.33" font-family="Times,serif" font-size="5.00">10.127</text>
</g>
</g>
</svg>
