<?xml version="1.0" encoding="UTF-8" standalone="no"?>
<!DOCTYPE svg PUBLIC "-//W3C//DTD SVG 1.1//EN"
 "http://www.w3.org/Graphics/SVG/1.1/DTD/svg11.dtd">
<!-- Generated by graphviz version 2.47.1 (20210417.1919)
 -->
<!-- Pages: 1 -->
<svg width="321pt" height="256pt"
 viewBox="0.00 0.00 320.87 256.32" xmlns="http://www.w3.org/2000/svg" xmlns:xlink="http://www.w3.org/1999/xlink">
<g id="graph0" class="graph" transform="scale(1 1) rotate(0) translate(4 252.32)">
<polygon fill="white" stroke="transparent" points="-4,4 -4,-252.32 316.87,-252.32 316.87,4 -4,4"/>
<!-- &#45;1 -->
<g id="node1" class="node">
<title>&#45;1</title>
<polygon fill="lightgray" stroke="black" points="240.17,-95.75 216.16,-95.75 216.16,-77.15 240.17,-77.15 240.17,-95.75"/>
<text text-anchor="middle" x="228.16" y="-83.75" font-family="Times,serif" font-size="9.00">&#45;1</text>
</g>
<!-- 2088 -->
<g id="node6" class="node">
<title>2088</title>
<ellipse fill="white" stroke="black" cx="191.35" cy="-128.2" rx="22.04" ry="22.04"/>
<text text-anchor="middle" x="191.35" y="-125.5" font-family="Times,serif" font-size="9.00">tanh</text>
</g>
<!-- &#45;1&#45;&gt;2088 -->
<g id="edge8" class="edge">
<title>&#45;1&#45;&gt;2088</title>
<path fill="none" stroke="red" stroke-width="0.89" stroke-dasharray="1,5" d="M219.63,-96.13C217.63,-98.4 215.41,-100.91 213.12,-103.51"/>
<polygon fill="red" stroke="red" stroke-width="0.89" points="210.18,-101.55 206.19,-111.37 215.43,-106.18 210.18,-101.55"/>
<text text-anchor="middle" x="209.92" y="-101.32" font-family="Times,serif" font-size="5.00">&#45;3.936</text>
</g>
<!-- 14161 -->
<g id="node8" class="node">
<title>14161</title>
<ellipse fill="white" stroke="black" cx="186.59" cy="-168.43" rx="22.04" ry="22.04"/>
<text text-anchor="middle" x="186.59" y="-165.73" font-family="Times,serif" font-size="9.00">tanh</text>
</g>
<!-- &#45;1&#45;&gt;14161 -->
<g id="edge22" class="edge">
<title>&#45;1&#45;&gt;14161</title>
<path fill="none" stroke="red" stroke-width="0.16" d="M223.39,-95.85C218.02,-106.44 209.04,-124.16 201.29,-139.44"/>
<polygon fill="red" stroke="red" stroke-width="0.16" points="198.07,-138.05 196.66,-148.56 204.31,-141.22 198.07,-138.05"/>
<text text-anchor="middle" x="218.8" y="-119.15" font-family="Times,serif" font-size="5.00">&#45;0.283</text>
</g>
<!-- 1336 -->
<g id="node10" class="node">
<title>1336</title>
<ellipse fill="white" stroke="black" cx="274.57" cy="-90.58" rx="30.55" ry="30.55"/>
<ellipse fill="none" stroke="black" cx="274.57" cy="-90.58" rx="34.52" ry="34.52"/>
<text text-anchor="middle" x="274.57" y="-87.88" font-family="Times,serif" font-size="9.00">identity</text>
</g>
<!-- &#45;1&#45;&gt;1336 -->
<g id="edge5" class="edge">
<title>&#45;1&#45;&gt;1336</title>
<path fill="none" stroke="green" stroke-width="0.5" d="M240.36,-87.53C240.41,-87.54 240.46,-87.54 240.52,-87.55"/>
<polygon fill="green" stroke="green" stroke-width="0.5" points="230.41,-90.16 240.68,-87.56 231.03,-83.18 230.41,-90.16"/>
<text text-anchor="middle" x="234.81" y="-89.04" font-family="Times,serif" font-size="5.00">2.001</text>
</g>
<!-- &#45;2 -->
<g id="node2" class="node">
<title>&#45;2</title>
<polygon fill="lightgray" stroke="black" points="182.08,-224.36 158.08,-224.36 158.08,-205.76 182.08,-205.76 182.08,-224.36"/>
<text text-anchor="middle" x="170.08" y="-212.36" font-family="Times,serif" font-size="9.00">&#45;2</text>
</g>
<!-- 0 -->
<g id="node5" class="node">
<title>0</title>
<ellipse fill="lightblue" stroke="black" cx="118.44" cy="-165.61" rx="14.49" ry="14.49"/>
<ellipse fill="none" stroke="black" cx="118.44" cy="-165.61" rx="18.49" ry="18.49"/>
<text text-anchor="middle" x="118.44" y="-162.91" font-family="Times,serif" font-size="9.00">0</text>
</g>
<!-- &#45;2&#45;&gt;0 -->
<g id="edge1" class="edge">
<title>&#45;2&#45;&gt;0</title>
<path fill="none" stroke="red" stroke-width="0.29" d="M160.13,-205.52C154.27,-199.92 146.64,-192.61 139.51,-185.78"/>
<polygon fill="red" stroke="red" stroke-width="0.29" points="141.72,-183.05 132.08,-178.66 136.88,-188.11 141.72,-183.05"/>
<text text-anchor="middle" x="143.36" y="-197.15" font-family="Times,serif" font-size="5.00">&#45;0.938</text>
</g>
<!-- &#45;2&#45;&gt;2088 -->
<g id="edge15" class="edge">
<title>&#45;2&#45;&gt;2088</title>
<path fill="none" stroke="red" stroke-width="0.37" stroke-dasharray="1,5" d="M172.44,-205.43C175.1,-194.56 179.57,-176.3 183.5,-160.26"/>
<polygon fill="red" stroke="red" stroke-width="0.37" points="187,-160.69 185.98,-150.15 180.2,-159.03 187,-160.69"/>
<text text-anchor="middle" x="171.51" y="-184.35" font-family="Times,serif" font-size="5.00">&#45;1.350</text>
</g>
<!-- 14142 -->
<g id="node12" class="node">
<title>14142</title>
<ellipse fill="white" stroke="black" cx="234.29" cy="-212.97" rx="35.19" ry="35.19"/>
<text text-anchor="middle" x="234.29" y="-210.27" font-family="Times,serif" font-size="9.00">heaviside</text>
</g>
<!-- &#45;2&#45;&gt;14142 -->
<g id="edge17" class="edge">
<title>&#45;2&#45;&gt;14142</title>
<path fill="none" stroke="red" stroke-width="0.3" stroke-dasharray="1,5" d="M181.86,-214.68C184.01,-214.61 186.37,-214.53 188.87,-214.45"/>
<polygon fill="red" stroke="red" stroke-width="0.3" points="189.08,-217.94 198.96,-214.12 188.85,-210.95 189.08,-217.94"/>
<text text-anchor="middle" x="191.82" y="-216.06" font-family="Times,serif" font-size="5.00">&#45;1.006</text>
</g>
<!-- &#45;3 -->
<g id="node3" class="node">
<title>&#45;3</title>
<polygon fill="lightgray" stroke="black" points="112.4,-121.56 88.4,-121.56 88.4,-102.96 112.4,-102.96 112.4,-121.56"/>
<text text-anchor="middle" x="100.4" y="-109.56" font-family="Times,serif" font-size="9.00">&#45;3</text>
</g>
<!-- &#45;3&#45;&gt;0 -->
<g id="edge2" class="edge">
<title>&#45;3&#45;&gt;0</title>
<path fill="none" stroke="red" stroke-width="0.19" stroke-dasharray="1,5" d="M103.71,-122.05C105.28,-126.67 107.23,-132.45 109.2,-138.26"/>
<polygon fill="red" stroke="red" stroke-width="0.19" points="105.94,-139.55 112.46,-147.9 112.57,-137.31 105.94,-139.55"/>
<text text-anchor="middle" x="100" y="-131.65" font-family="Times,serif" font-size="5.00">&#45;0.462</text>
</g>
<!-- &#45;3&#45;&gt;2088 -->
<g id="edge9" class="edge">
<title>&#45;3&#45;&gt;2088</title>
<path fill="none" stroke="red" stroke-width="0.13" d="M112.29,-114.35C124.14,-116.42 142.86,-119.7 159.11,-122.55"/>
<polygon fill="red" stroke="red" stroke-width="0.13" points="158.89,-126.07 169.34,-124.35 160.09,-119.17 158.89,-126.07"/>
<text text-anchor="middle" x="129.25" y="-119.95" font-family="Times,serif" font-size="5.00">&#45;0.131</text>
</g>
<!-- 16941 -->
<g id="node7" class="node">
<title>16941</title>
<ellipse fill="white" stroke="black" cx="39.35" cy="-142.78" rx="35.21" ry="35.21"/>
<ellipse fill="none" stroke="black" cx="39.35" cy="-142.78" rx="39.19" ry="39.19"/>
<text text-anchor="middle" x="39.35" y="-140.08" font-family="Times,serif" font-size="9.00">heaviside</text>
</g>
<!-- &#45;3&#45;&gt;16941 -->
<g id="edge23" class="edge">
<title>&#45;3&#45;&gt;16941</title>
<path fill="none" stroke="red" stroke-width="0.21" stroke-dasharray="1,5" d="M88.63,-118.15C87.1,-118.91 85.46,-119.73 83.75,-120.59"/>
<polygon fill="red" stroke="red" stroke-width="0.21" points="82.1,-117.5 74.72,-125.1 85.23,-123.76 82.1,-117.5"/>
<text text-anchor="middle" x="92.65" y="-120.87" font-family="Times,serif" font-size="5.00">&#45;0.554</text>
</g>
<!-- 11348 -->
<g id="node9" class="node">
<title>11348</title>
<ellipse fill="white" stroke="black" cx="133.65" cy="-83.54" rx="31.67" ry="31.67"/>
<ellipse fill="none" stroke="black" cx="133.65" cy="-83.54" rx="35.65" ry="35.65"/>
<text text-anchor="middle" x="133.65" y="-80.84" font-family="Times,serif" font-size="9.00">sigmoid</text>
</g>
<!-- &#45;3&#45;&gt;11348 -->
<g id="edge10" class="edge">
<title>&#45;3&#45;&gt;11348</title>
<path fill="none" stroke="red" stroke-width="0.17" d="M111.29,-102.86C111.37,-102.79 111.44,-102.73 111.52,-102.66"/>
<polygon fill="red" stroke="red" stroke-width="0.17" points="106.47,-111.65 111.75,-102.46 101.89,-106.35 106.47,-111.65"/>
<text text-anchor="middle" x="104.95" y="-98.26" font-family="Times,serif" font-size="5.00">&#45;0.371</text>
</g>
<!-- &#45;4 -->
<g id="node4" class="node">
<title>&#45;4</title>
<polygon fill="lightgray" stroke="black" points="82.42,-242.89 58.42,-242.89 58.42,-224.29 82.42,-224.29 82.42,-242.89"/>
<text text-anchor="middle" x="70.42" y="-230.89" font-family="Times,serif" font-size="9.00">&#45;4</text>
</g>
<!-- &#45;4&#45;&gt;0 -->
<g id="edge3" class="edge">
<title>&#45;4&#45;&gt;0</title>
<path fill="none" stroke="green" stroke-width="0.32" stroke-dasharray="1,5" d="M77.1,-224.13C83.48,-215.09 93.38,-201.09 101.88,-189.05"/>
<polygon fill="green" stroke="green" stroke-width="0.32" points="104.85,-190.91 107.76,-180.73 99.13,-186.87 104.85,-190.91"/>
<text text-anchor="middle" x="83.87" y="-208.09" font-family="Times,serif" font-size="5.00">1.076</text>
</g>
<!-- 0&#45;&gt;14161 -->
<g id="edge18" class="edge">
<title>0&#45;&gt;14161</title>
<path fill="none" stroke="red" stroke-width="0.34" d="M135.74,-172.32C141.52,-173.14 148.15,-173.66 154.67,-173.85"/>
<polygon fill="red" stroke="red" stroke-width="0.34" points="154.69,-177.35 164.69,-173.86 154.7,-170.35 154.69,-177.35"/>
<text text-anchor="middle" x="151.66" y="-174.58" font-family="Times,serif" font-size="5.00">&#45;1.185</text>
</g>
<!-- 0&#45;&gt;11348 -->
<g id="edge19" class="edge">
<title>0&#45;&gt;11348</title>
<path fill="none" stroke="red" stroke-width="0.26" d="M121.82,-147.39C122.84,-141.88 124.01,-135.56 125.21,-129.08"/>
<polygon fill="red" stroke="red" stroke-width="0.26" points="128.72,-129.35 127.1,-118.88 121.84,-128.07 128.72,-129.35"/>
<text text-anchor="middle" x="117.06" y="-139.74" font-family="Times,serif" font-size="5.00">&#45;0.795</text>
</g>
<!-- 2088&#45;&gt;0 -->
<g id="edge4" class="edge">
<title>2088&#45;&gt;0</title>
<path fill="none" stroke="green" stroke-width="1.84" d="M171.43,-138.42C163.13,-142.68 153.38,-147.68 144.53,-152.23"/>
<polygon fill="green" stroke="green" stroke-width="1.84" points="142.68,-149.24 135.38,-156.92 145.87,-155.47 142.68,-149.24"/>
<text text-anchor="middle" x="152.35" y="-146.83" font-family="Times,serif" font-size="5.00">8.707</text>
</g>
<!-- 2088&#45;&gt;2088 -->
<g id="edge6" class="edge">
<title>2088&#45;&gt;2088</title>
<path fill="none" stroke="red" stroke-width="0.13" d="M212.89,-134.82C222.89,-135.54 231.62,-133.34 231.62,-128.2 231.62,-125 228.21,-122.93 223.21,-122.01"/>
<polygon fill="red" stroke="red" stroke-width="0.13" points="223.03,-118.5 212.89,-121.59 222.74,-125.49 223.03,-118.5"/>
<text text-anchor="middle" x="238.08" y="-126.7" font-family="Times,serif" font-size="5.00">&#45;0.161</text>
</g>
<!-- 2088&#45;&gt;11348 -->
<g id="edge21" class="edge">
<title>2088&#45;&gt;11348</title>
<path fill="none" stroke="red" stroke-width="0.13" stroke-dasharray="1,5" d="M173.72,-114.56C172.56,-113.66 171.37,-112.74 170.17,-111.81"/>
<polygon fill="red" stroke="red" stroke-width="0.13" points="172.06,-108.85 162.01,-105.5 167.78,-114.39 172.06,-108.85"/>
<text text-anchor="middle" x="165.49" y="-114.68" font-family="Times,serif" font-size="5.00">&#45;0.143</text>
</g>
<!-- 2088&#45;&gt;1336 -->
<g id="edge14" class="edge">
<title>2088&#45;&gt;1336</title>
<path fill="none" stroke="red" stroke-width="0.12" stroke-dasharray="1,5" d="M213.47,-124.61C220.65,-122.06 228.81,-118.71 236.78,-115.07"/>
<polygon fill="red" stroke="red" stroke-width="0.12" points="238.44,-118.16 245.98,-110.71 235.44,-111.83 238.44,-118.16"/>
<text text-anchor="middle" x="231.58" y="-121.34" font-family="Times,serif" font-size="5.00">&#45;0.102</text>
</g>
<!-- 2088&#45;&gt;14142 -->
<g id="edge11" class="edge">
<title>2088&#45;&gt;14142</title>
<path fill="none" stroke="red" stroke-width="0.45" d="M195.95,-150.04C199.13,-157.91 203.37,-167.01 207.9,-175.8"/>
<polygon fill="red" stroke="red" stroke-width="0.45" points="204.9,-177.61 212.69,-184.8 211.08,-174.32 204.9,-177.61"/>
<text text-anchor="middle" x="208.38" y="-164.42" font-family="Times,serif" font-size="5.00">&#45;1.769</text>
</g>
<!-- 17727 -->
<g id="node13" class="node">
<title>17727</title>
<ellipse fill="white" stroke="black" cx="277.05" cy="-158.56" rx="31.67" ry="31.67"/>
<ellipse fill="none" stroke="black" cx="277.05" cy="-158.56" rx="35.65" ry="35.65"/>
<text text-anchor="middle" x="277.05" y="-155.86" font-family="Times,serif" font-size="9.00">sigmoid</text>
</g>
<!-- 2088&#45;&gt;17727 -->
<g id="edge25" class="edge">
<title>2088&#45;&gt;17727</title>
<path fill="none" stroke="green" stroke-width="0.3" d="M209.71,-140.9C216.33,-143.89 224.12,-146.98 232.02,-149.77"/>
<polygon fill="green" stroke="green" stroke-width="0.3" points="231.03,-153.13 241.62,-153.01 233.26,-146.5 231.03,-153.13"/>
<text text-anchor="middle" x="226.49" y="-146.84" font-family="Times,serif" font-size="5.00">1.000</text>
</g>
<!-- 16941&#45;&gt;0 -->
<g id="edge24" class="edge">
<title>16941&#45;&gt;0</title>
<path fill="none" stroke="green" stroke-width="0.17" d="M77.51,-153.79C82.04,-155.1 86.6,-156.42 90.94,-157.67"/>
<polygon fill="green" stroke="green" stroke-width="0.17" points="89.99,-161.04 100.57,-160.45 91.94,-154.32 89.99,-161.04"/>
<text text-anchor="middle" x="89.85" y="-157.23" font-family="Times,serif" font-size="5.00">0.361</text>
</g>
<!-- 14161&#45;&gt;0 -->
<g id="edge12" class="edge">
<title>14161&#45;&gt;0</title>
<path fill="none" stroke="red" stroke-width="1.18" d="M165.29,-161.21C159.31,-160.54 152.72,-160.16 146.42,-160.12"/>
<polygon fill="red" stroke="red" stroke-width="1.18" points="146.16,-156.62 136.24,-160.35 146.32,-163.62 146.16,-156.62"/>
<text text-anchor="middle" x="149.39" y="-162.16" font-family="Times,serif" font-size="5.00">&#45;5.408</text>
</g>
<!-- 14161&#45;&gt;2088 -->
<g id="edge13" class="edge">
<title>14161&#45;&gt;2088</title>
<path fill="none" stroke="green" stroke-width="0.13" d="M189.25,-145.96C189.25,-145.89 189.26,-145.82 189.27,-145.75"/>
<polygon fill="green" stroke="green" stroke-width="0.13" points="191.59,-155.88 189.3,-145.53 184.64,-155.05 191.59,-155.88"/>
<text text-anchor="middle" x="183.63" y="-141.36" font-family="Times,serif" font-size="5.00">0.153</text>
</g>
<!-- 1336&#45;&gt;2088 -->
<g id="edge7" class="edge">
<title>1336&#45;&gt;2088</title>
<path fill="none" stroke="green" stroke-width="0.47" d="M240.4,-98.82C232.95,-101.9 225.17,-105.44 218.06,-109.01"/>
<polygon fill="green" stroke="green" stroke-width="0.47" points="216.08,-106.1 208.86,-113.86 219.34,-112.29 216.08,-106.1"/>
<text text-anchor="middle" x="223.6" y="-105.42" font-family="Times,serif" font-size="5.00">1.871</text>
</g>
<!-- 16218 -->
<g id="node11" class="node">
<title>16218</title>
<ellipse fill="white" stroke="black" cx="190.95" cy="-35.82" rx="31.67" ry="31.67"/>
<ellipse fill="none" stroke="black" cx="190.95" cy="-35.82" rx="35.65" ry="35.65"/>
<text text-anchor="middle" x="190.95" y="-33.12" font-family="Times,serif" font-size="9.00">sigmoid</text>
</g>
<!-- 16218&#45;&gt;2088 -->
<g id="edge20" class="edge">
<title>16218&#45;&gt;2088</title>
<path fill="none" stroke="green" stroke-width="0.75" d="M191.11,-71.8C191.14,-79.68 191.18,-87.96 191.21,-95.69"/>
<polygon fill="green" stroke="green" stroke-width="0.75" points="187.71,-95.8 191.25,-105.79 194.71,-95.77 187.71,-95.8"/>
<text text-anchor="middle" x="185.53" y="-85.25" font-family="Times,serif" font-size="5.00">3.228</text>
</g>
<!-- 14142&#45;&gt;2088 -->
<g id="edge16" class="edge">
<title>14142&#45;&gt;2088</title>
<path fill="none" stroke="green" stroke-width="0.24" d="M224.37,-178.94C220.46,-170.5 215.91,-161.61 211.43,-153.66"/>
<polygon fill="green" stroke="green" stroke-width="0.24" points="214.33,-151.69 206.24,-144.85 208.3,-155.24 214.33,-151.69"/>
<text text-anchor="middle" x="223.52" y="-167.8" font-family="Times,serif" font-size="5.00">0.708</text>
</g>
<!-- 17727&#45;&gt;2088 -->
<g id="edge26" class="edge">
<title>17727&#45;&gt;2088</title>
<path fill="none" stroke="red" stroke-width="0.25" d="M245.87,-140.51C238.52,-137.66 230.67,-134.93 223.29,-132.66"/>
<polygon fill="red" stroke="red" stroke-width="0.25" points="224.17,-129.27 213.59,-129.89 222.24,-136 224.17,-129.27"/>
<text text-anchor="middle" x="228.12" y="-138.09" font-family="Times,serif" font-size="5.00">&#45;0.727</text>
</g>
</g>
</svg>
