<?xml version="1.0" encoding="UTF-8" standalone="no"?>
<!DOCTYPE svg PUBLIC "-//W3C//DTD SVG 1.1//EN"
 "http://www.w3.org/Graphics/SVG/1.1/DTD/svg11.dtd">
<!-- Generated by graphviz version 2.47.1 (20210417.1919)
 -->
<!-- Pages: 1 -->
<svg width="420pt" height="281pt"
 viewBox="0.00 0.00 420.12 280.66" xmlns="http://www.w3.org/2000/svg" xmlns:xlink="http://www.w3.org/1999/xlink">
<g id="graph0" class="graph" transform="scale(1 1) rotate(0) translate(4 276.66)">
<polygon fill="white" stroke="transparent" points="-4,4 -4,-276.66 416.12,-276.66 416.12,4 -4,4"/>
<!-- &#45;1 -->
<g id="node1" class="node">
<title>&#45;1</title>
<polygon fill="lightgray" stroke="black" points="201.78,-209.74 177.78,-209.74 177.78,-191.14 201.78,-191.14 201.78,-209.74"/>
<text text-anchor="middle" x="189.78" y="-197.74" font-family="Times,serif" font-size="9.00">&#45;1</text>
</g>
<!-- 0 -->
<g id="node5" class="node">
<title>0</title>
<ellipse fill="lightblue" stroke="black" cx="234.11" cy="-123.2" rx="14.49" ry="14.49"/>
<ellipse fill="none" stroke="black" cx="234.11" cy="-123.2" rx="18.49" ry="18.49"/>
<text text-anchor="middle" x="234.11" y="-120.5" font-family="Times,serif" font-size="9.00">0</text>
</g>
<!-- &#45;1&#45;&gt;0 -->
<g id="edge6" class="edge">
<title>&#45;1&#45;&gt;0</title>
<path fill="none" stroke="red" stroke-width="0.41" d="M195.21,-190.97C201.25,-180.46 211.23,-163.07 219.57,-148.54"/>
<polygon fill="red" stroke="red" stroke-width="0.41" points="222.81,-149.92 224.76,-139.5 216.74,-146.43 222.81,-149.92"/>
<text text-anchor="middle" x="200.94" y="-171.25" font-family="Times,serif" font-size="5.00">&#45;1.573</text>
</g>
<!-- 6808 -->
<g id="node8" class="node">
<title>6808</title>
<ellipse fill="white" stroke="black" cx="162.4" cy="-150.39" rx="22.04" ry="22.04"/>
<text text-anchor="middle" x="162.4" y="-147.69" font-family="Times,serif" font-size="9.00">tanh</text>
</g>
<!-- &#45;1&#45;&gt;6808 -->
<g id="edge9" class="edge">
<title>&#45;1&#45;&gt;6808</title>
<path fill="none" stroke="red" stroke-width="0.22" d="M184.5,-190.79C182.58,-187.28 180.3,-183.11 177.95,-178.81"/>
<polygon fill="red" stroke="red" stroke-width="0.22" points="180.97,-177.05 173.11,-169.96 174.83,-180.41 180.97,-177.05"/>
<text text-anchor="middle" x="174.77" y="-186.3" font-family="Times,serif" font-size="5.00">&#45;0.601</text>
</g>
<!-- 12634 -->
<g id="node12" class="node">
<title>12634</title>
<ellipse fill="white" stroke="black" cx="103.42" cy="-191.32" rx="35.21" ry="35.21"/>
<ellipse fill="none" stroke="black" cx="103.42" cy="-191.32" rx="39.19" ry="39.19"/>
<text text-anchor="middle" x="103.42" y="-188.62" font-family="Times,serif" font-size="9.00">heaviside</text>
</g>
<!-- &#45;1&#45;&gt;12634 -->
<g id="edge15" class="edge">
<title>&#45;1&#45;&gt;12634</title>
<path fill="none" stroke="red" stroke-width="0.23" stroke-dasharray="1,5" d="M177.77,-199.17C171.03,-198.46 162.12,-197.52 152.82,-196.54"/>
<polygon fill="red" stroke="red" stroke-width="0.23" points="152.97,-193.03 142.66,-195.46 152.23,-199.99 152.97,-193.03"/>
<text text-anchor="middle" x="158.84" y="-199.35" font-family="Times,serif" font-size="5.00">&#45;0.640</text>
</g>
<!-- &#45;2 -->
<g id="node2" class="node">
<title>&#45;2</title>
<polygon fill="lightgray" stroke="black" points="82.59,-272.56 58.59,-272.56 58.59,-253.96 82.59,-253.96 82.59,-272.56"/>
<text text-anchor="middle" x="70.59" y="-260.56" font-family="Times,serif" font-size="9.00">&#45;2</text>
</g>
<!-- &#45;2&#45;&gt;12634 -->
<g id="edge12" class="edge">
<title>&#45;2&#45;&gt;12634</title>
<path fill="none" stroke="red" stroke-width="0.17" d="M74.88,-253.86C77.06,-249.09 79.87,-242.92 82.89,-236.31"/>
<polygon fill="red" stroke="red" stroke-width="0.17" points="86.11,-237.68 87.08,-227.13 79.74,-234.77 86.11,-237.68"/>
<text text-anchor="middle" x="72.43" y="-246.59" font-family="Times,serif" font-size="5.00">&#45;0.351</text>
</g>
<!-- &#45;3 -->
<g id="node3" class="node">
<title>&#45;3</title>
<polygon fill="lightgray" stroke="black" points="320.39,-99.51 296.39,-99.51 296.39,-80.91 320.39,-80.91 320.39,-99.51"/>
<text text-anchor="middle" x="308.39" y="-87.51" font-family="Times,serif" font-size="9.00">&#45;3</text>
</g>
<!-- &#45;3&#45;&gt;0 -->
<g id="edge1" class="edge">
<title>&#45;3&#45;&gt;0</title>
<path fill="none" stroke="green" stroke-width="0.41" stroke-dasharray="1,5" d="M296.45,-95.51C286.81,-99.8 272.88,-105.99 260.63,-111.43"/>
<polygon fill="green" stroke="green" stroke-width="0.41" points="258.99,-108.32 251.28,-115.58 261.84,-114.72 258.99,-108.32"/>
<text text-anchor="middle" x="272.91" y="-104.97" font-family="Times,serif" font-size="5.00">1.538</text>
</g>
<!-- 15579 -->
<g id="node13" class="node">
<title>15579</title>
<ellipse fill="white" stroke="black" cx="381.36" cy="-68.87" rx="30.52" ry="30.52"/>
<text text-anchor="middle" x="381.36" y="-66.17" font-family="Times,serif" font-size="9.00">identity</text>
</g>
<!-- &#45;3&#45;&gt;15579 -->
<g id="edge14" class="edge">
<title>&#45;3&#45;&gt;15579</title>
<path fill="none" stroke="green" stroke-width="0.22" stroke-dasharray="1,5" d="M320.44,-86.69C326.41,-84.94 334.01,-82.72 341.8,-80.44"/>
<polygon fill="green" stroke="green" stroke-width="0.22" points="343.03,-83.73 351.65,-77.56 341.07,-77.01 343.03,-83.73"/>
<text text-anchor="middle" x="336.74" y="-85.06" font-family="Times,serif" font-size="5.00">0.594</text>
</g>
<!-- &#45;4 -->
<g id="node4" class="node">
<title>&#45;4</title>
<polygon fill="lightgray" stroke="black" points="303.61,-193.01 279.61,-193.01 279.61,-174.41 303.61,-174.41 303.61,-193.01"/>
<text text-anchor="middle" x="291.61" y="-181.01" font-family="Times,serif" font-size="9.00">&#45;4</text>
</g>
<!-- &#45;4&#45;&gt;0 -->
<g id="edge2" class="edge">
<title>&#45;4&#45;&gt;0</title>
<path fill="none" stroke="green" stroke-width="0.12" stroke-dasharray="1,5" d="M282.63,-174.26C274.98,-166.21 263.7,-154.34 253.95,-144.08"/>
<polygon fill="green" stroke="green" stroke-width="0.12" points="256.3,-141.47 246.87,-136.63 251.23,-146.29 256.3,-141.47"/>
<text text-anchor="middle" x="262.66" y="-160.67" font-family="Times,serif" font-size="5.00">0.076</text>
</g>
<!-- 7530 -->
<g id="node7" class="node">
<title>7530</title>
<ellipse fill="white" stroke="black" cx="165.46" cy="-87.83" rx="30.52" ry="30.52"/>
<text text-anchor="middle" x="165.46" y="-85.13" font-family="Times,serif" font-size="9.00">identity</text>
</g>
<!-- 0&#45;&gt;7530 -->
<g id="edge19" class="edge">
<title>0&#45;&gt;7530</title>
<path fill="none" stroke="red" stroke-width="0.12" stroke-dasharray="1,5" d="M220.85,-109.84C216.07,-106.73 210.42,-103.47 204.58,-100.4"/>
<polygon fill="red" stroke="red" stroke-width="0.12" points="205.86,-97.13 195.35,-95.8 202.74,-103.39 205.86,-97.13"/>
<text text-anchor="middle" x="206.26" y="-106.62" font-family="Times,serif" font-size="5.00">&#45;0.096</text>
</g>
<!-- 14688 -->
<g id="node6" class="node">
<title>14688</title>
<ellipse fill="white" stroke="black" cx="96.81" cy="-112.45" rx="30.55" ry="30.55"/>
<ellipse fill="none" stroke="black" cx="96.81" cy="-112.45" rx="34.52" ry="34.52"/>
<text text-anchor="middle" x="96.81" y="-109.75" font-family="Times,serif" font-size="9.00">identity</text>
</g>
<!-- 14688&#45;&gt;14688 -->
<g id="edge21" class="edge">
<title>14688&#45;&gt;14688</title>
<path fill="none" stroke="red" stroke-width="0.36" d="M131.06,-119.19C141.45,-119.02 149.57,-116.77 149.57,-112.45 149.57,-109.68 146.23,-107.76 141.11,-106.7"/>
<polygon fill="red" stroke="red" stroke-width="0.36" points="141.35,-103.2 131.06,-105.71 140.67,-110.17 141.35,-103.2"/>
<text text-anchor="middle" x="156.02" y="-110.95" font-family="Times,serif" font-size="5.00">&#45;1.301</text>
</g>
<!-- 14688&#45;&gt;7530 -->
<g id="edge11" class="edge">
<title>14688&#45;&gt;7530</title>
<path fill="none" stroke="green" stroke-width="0.14" stroke-dasharray="1,5" d="M129.53,-100.72C129.66,-100.67 129.8,-100.62 129.94,-100.57"/>
<polygon fill="green" stroke="green" stroke-width="0.14" points="127.92,-105.01 136.15,-98.34 125.55,-98.42 127.92,-105.01"/>
<text text-anchor="middle" x="132.55" y="-96.14" font-family="Times,serif" font-size="5.00">0.222</text>
</g>
<!-- 14688&#45;&gt;6808 -->
<g id="edge18" class="edge">
<title>14688&#45;&gt;6808</title>
<path fill="none" stroke="green" stroke-width="0.1" d="M123.17,-135.46C125.97,-137.14 128.83,-138.77 131.68,-140.32"/>
<polygon fill="green" stroke="green" stroke-width="0.1" points="130.09,-143.44 140.59,-144.89 133.29,-137.21 130.09,-143.44"/>
<text text-anchor="middle" x="133.05" y="-139.39" font-family="Times,serif" font-size="5.00">0.023</text>
</g>
<!-- 16656 -->
<g id="node9" class="node">
<title>16656</title>
<ellipse fill="white" stroke="black" cx="35.35" cy="-150.01" rx="35.19" ry="35.19"/>
<text text-anchor="middle" x="35.35" y="-147.31" font-family="Times,serif" font-size="9.00">heaviside</text>
</g>
<!-- 14688&#45;&gt;16656 -->
<g id="edge22" class="edge">
<title>14688&#45;&gt;16656</title>
<path fill="none" stroke="red" stroke-width="0.57" d="M66.8,-130.79C66.71,-130.85 66.61,-130.9 66.52,-130.96"/>
<polygon fill="red" stroke="red" stroke-width="0.57" points="72.41,-123.26 65.7,-131.46 76.06,-129.23 72.41,-123.26"/>
<text text-anchor="middle" x="73.12" y="-132.37" font-family="Times,serif" font-size="5.00">&#45;2.338</text>
</g>
<!-- 15954 -->
<g id="node10" class="node">
<title>15954</title>
<ellipse fill="white" stroke="black" cx="123.41" cy="-35.63" rx="30.55" ry="30.55"/>
<ellipse fill="none" stroke="black" cx="123.41" cy="-35.63" rx="34.52" ry="34.52"/>
<text text-anchor="middle" x="123.41" y="-32.93" font-family="Times,serif" font-size="9.00">identity</text>
</g>
<!-- 14688&#45;&gt;15954 -->
<g id="edge16" class="edge">
<title>14688&#45;&gt;15954</title>
<path fill="none" stroke="red" stroke-width="0.43" stroke-dasharray="1,5" d="M108.24,-79.43C108.4,-78.98 108.55,-78.53 108.71,-78.08"/>
<polygon fill="red" stroke="red" stroke-width="0.43" points="112.02,-79.22 111.98,-68.63 105.4,-76.93 112.02,-79.22"/>
<text text-anchor="middle" x="108.47" y="-74.25" font-family="Times,serif" font-size="5.00">&#45;1.632</text>
</g>
<!-- 14688&#45;&gt;12634 -->
<g id="edge13" class="edge">
<title>14688&#45;&gt;12634</title>
<path fill="none" stroke="red" stroke-width="0.27" d="M99.73,-147.27C99.73,-147.36 99.74,-147.46 99.75,-147.55"/>
<polygon fill="red" stroke="red" stroke-width="0.27" points="95.78,-142.07 100.1,-151.75 102.75,-141.49 95.78,-142.07"/>
<text text-anchor="middle" x="93.28" y="-148.91" font-family="Times,serif" font-size="5.00">&#45;0.855</text>
</g>
<!-- 7530&#45;&gt;0 -->
<g id="edge5" class="edge">
<title>7530&#45;&gt;0</title>
<path fill="none" stroke="green" stroke-width="0.57" d="M189.18,-107.47C194.77,-110.61 200.77,-113.66 206.51,-116.3"/>
<polygon fill="green" stroke="green" stroke-width="0.57" points="205.24,-119.56 215.81,-120.26 207.98,-113.12 205.24,-119.56"/>
<text text-anchor="middle" x="203.47" y="-113.39" font-family="Times,serif" font-size="5.00">2.332</text>
</g>
<!-- 6808&#45;&gt;0 -->
<g id="edge3" class="edge">
<title>6808&#45;&gt;0</title>
<path fill="none" stroke="red" stroke-width="2.14" d="M183.53,-142.38C190.97,-139.56 199.43,-136.35 207.27,-133.38"/>
<polygon fill="red" stroke="red" stroke-width="2.14" points="208.64,-136.6 216.75,-129.79 206.16,-130.06 208.64,-136.6"/>
<text text-anchor="middle" x="203.11" y="-139.38" font-family="Times,serif" font-size="5.00">&#45;10.180</text>
</g>
<!-- 6808&#45;&gt;14688 -->
<g id="edge10" class="edge">
<title>6808&#45;&gt;14688</title>
<path fill="none" stroke="green" stroke-width="0.17" d="M146.86,-134.29C144.29,-132.53 141.53,-130.74 138.67,-128.97"/>
<polygon fill="green" stroke="green" stroke-width="0.17" points="140.28,-125.86 129.89,-123.81 136.74,-131.9 140.28,-125.86"/>
<text text-anchor="middle" x="137.14" y="-127.13" font-family="Times,serif" font-size="5.00">0.348</text>
</g>
<!-- 6808&#45;&gt;7530 -->
<g id="edge4" class="edge">
<title>6808&#45;&gt;7530</title>
<path fill="none" stroke="green" stroke-width="0.37" d="M163.51,-127.8C163.51,-127.71 163.52,-127.62 163.52,-127.53"/>
<polygon fill="green" stroke="green" stroke-width="0.37" points="166.96,-128.92 163.95,-118.77 159.97,-128.58 166.96,-128.92"/>
<text text-anchor="middle" x="157.89" y="-123.17" font-family="Times,serif" font-size="5.00">1.360</text>
</g>
<!-- 6808&#45;&gt;12634 -->
<g id="edge8" class="edge">
<title>6808&#45;&gt;12634</title>
<path fill="none" stroke="green" stroke-width="0.32" stroke-dasharray="1,5" d="M144.06,-163.12C143.9,-163.23 143.74,-163.34 143.58,-163.45"/>
<polygon fill="green" stroke="green" stroke-width="0.32" points="142.27,-160.1 136.05,-168.68 146.26,-165.85 142.27,-160.1"/>
<text text-anchor="middle" x="149.45" y="-164.78" font-family="Times,serif" font-size="5.00">1.075</text>
</g>
<!-- 16656&#45;&gt;12634 -->
<g id="edge23" class="edge">
<title>16656&#45;&gt;12634</title>
<path fill="none" stroke="green" stroke-width="0.24" d="M65.8,-168.49C65.96,-168.59 66.12,-168.68 66.28,-168.78"/>
<polygon fill="green" stroke="green" stroke-width="0.24" points="59.27,-168.62 69.63,-170.82 62.9,-162.64 59.27,-168.62"/>
<text text-anchor="middle" x="71.66" y="-170.14" font-family="Times,serif" font-size="5.00">0.718</text>
</g>
<!-- 15954&#45;&gt;7530 -->
<g id="edge17" class="edge">
<title>15954&#45;&gt;7530</title>
<path fill="none" stroke="green" stroke-width="0.59" stroke-dasharray="1,5" d="M145.42,-62.95C145.54,-63.1 145.66,-63.25 145.78,-63.4"/>
<polygon fill="green" stroke="green" stroke-width="0.59" points="137.14,-58.25 146.14,-63.84 142.59,-53.86 137.14,-58.25"/>
<text text-anchor="middle" x="139.97" y="-64.67" font-family="Times,serif" font-size="5.00">2.474</text>
</g>
<!-- 11160 -->
<g id="node11" class="node">
<title>11160</title>
<ellipse fill="white" stroke="black" cx="210.03" cy="-35.82" rx="31.67" ry="31.67"/>
<ellipse fill="none" stroke="black" cx="210.03" cy="-35.82" rx="35.65" ry="35.65"/>
<text text-anchor="middle" x="210.03" y="-33.12" font-family="Times,serif" font-size="9.00">sigmoid</text>
</g>
<!-- 15954&#45;&gt;11160 -->
<g id="edge20" class="edge">
<title>15954&#45;&gt;11160</title>
<path fill="none" stroke="red" stroke-width="0.37" stroke-dasharray="1,5" d="M158.64,-35.71C160.38,-35.71 162.14,-35.72 163.9,-35.72"/>
<polygon fill="red" stroke="red" stroke-width="0.37" points="163.98,-39.22 173.99,-35.74 163.99,-32.22 163.98,-39.22"/>
<text text-anchor="middle" x="167.73" y="-37.22" font-family="Times,serif" font-size="5.00">&#45;1.368</text>
</g>
<!-- 11160&#45;&gt;0 -->
<g id="edge7" class="edge">
<title>11160&#45;&gt;0</title>
<path fill="none" stroke="red" stroke-width="0.11" d="M219.55,-70.36C221.82,-78.58 224.21,-87.26 226.38,-95.16"/>
<polygon fill="red" stroke="red" stroke-width="0.11" points="223.06,-96.27 229.09,-104.98 229.81,-94.41 223.06,-96.27"/>
<text text-anchor="middle" x="216.51" y="-84.26" font-family="Times,serif" font-size="5.00">&#45;0.045</text>
</g>
</g>
</svg>
