<?xml version="1.0" encoding="UTF-8" standalone="no"?>
<!DOCTYPE svg PUBLIC "-//W3C//DTD SVG 1.1//EN"
 "http://www.w3.org/Graphics/SVG/1.1/DTD/svg11.dtd">
<!-- Generated by graphviz version 2.38.0 (20140413.2041)
 -->
<!-- Title: %3 Pages: 1 -->
<svg width="265pt" height="230pt"
 viewBox="0.00 0.00 264.68 230.31" xmlns="http://www.w3.org/2000/svg" xmlns:xlink="http://www.w3.org/1999/xlink">
<g id="graph0" class="graph" transform="scale(1 1) rotate(0) translate(124.183 106.392)">
<title>%3</title>
<polygon fill="white" stroke="none" points="-124.183,123.922 -124.183,-106.392 140.5,-106.392 140.5,123.922 -124.183,123.922"/>
<!-- &#45;1 -->
<g id="node1" class="node"><title>&#45;1</title>
<polygon fill="lightgray" stroke="black" points="128.5,-78 105.5,-78 105.5,-60 128.5,-60 128.5,-78"/>
<text text-anchor="middle" x="117" y="-66.8" font-family="Times New Roman,serif" font-size="9.00">H</text>
</g>
<!-- &#45;2 -->
<g id="node2" class="node"><title>&#45;2</title>
<polygon fill="lightgray" stroke="black" points="12.1576,6.02215 -10.8424,6.02215 -10.8424,24.0222 12.1576,24.0222 12.1576,6.02215"/>
<text text-anchor="middle" x="0.657623" y="17.2222" font-family="Times New Roman,serif" font-size="9.00">T</text>
</g>
<!-- 0 -->
<g id="node5" class="node"><title>0</title>
<ellipse fill="lightblue" stroke="black" cx="-25.1347" cy="2.68646" rx="14.7314" ry="14.7314"/>
<ellipse fill="none" stroke="black" cx="-25.1347" cy="2.68646" rx="18.6997" ry="18.6997"/>
<text text-anchor="middle" x="-25.1347" y="4.88646" font-family="Times New Roman,serif" font-size="9.00">0</text>
</g>
<!-- &#45;2&#45;&gt;0 -->
<g id="edge1" class="edge"><title>&#45;2&#45;&gt;0</title>
<path fill="none" stroke="green" stroke-width="0.364434" d="M-11.0311,9.43179C-11.0844,9.40629 -11.1377,9.38078 -11.1911,9.35526"/>
<polygon fill="green" stroke="green" stroke-width="0.364434" points="-3.84065,16.7541 -11.3513,9.27865 -0.818175,10.4388 -3.84065,16.7541"/>
<text text-anchor="middle" x="-4.11109" y="7.39352" font-family="Times New Roman,serif" font-size="5.00">1.322</text>
</g>
<!-- 6284 -->
<g id="node6" class="node"><title>6284</title>
<ellipse fill="white" stroke="black" cx="0.307367" cy="-71.2794" rx="31.2258" ry="31.2258"/>
<text text-anchor="middle" x="0.307367" y="-69.0794" font-family="Times New Roman,serif" font-size="9.00">sigmoid</text>
</g>
<!-- &#45;2&#45;&gt;6284 -->
<g id="edge10" class="edge"><title>&#45;2&#45;&gt;6284</title>
<path fill="none" stroke="green" stroke-width="0.432938" d="M0.62014,5.78638C0.584982,-2.87631 0.529831,-16.4653 0.475568,-29.8355"/>
<polygon fill="green" stroke="green" stroke-width="0.432938" points="-3.0247,-29.9177 0.434592,-39.9318 3.97525,-29.9462 -3.0247,-29.9177"/>
<text text-anchor="middle" x="7.54785" y="-14.0245" font-family="Times New Roman,serif" font-size="5.00">1.665</text>
</g>
<!-- 6284 0 -->
<g id="node7" class="node"><title>6284 0</title>
<ellipse fill="white" stroke="black" cx="46.6367" cy="-45.4787" rx="31.2258" ry="31.2258"/>
<text text-anchor="middle" x="46.6367" y="-43.2787" font-family="Times New Roman,serif" font-size="9.00">sigmoid</text>
</g>
<!-- &#45;2&#45;&gt;6284 0 -->
<g id="edge3" class="edge"><title>&#45;2&#45;&gt;6284 0</title>
<path fill="none" stroke="green" stroke-width="0.432938" d="M7.64085,5.83338C11.3856,0.905897 16.2552,-5.5017 21.2773,-12.1099"/>
<polygon fill="green" stroke="green" stroke-width="0.432938" points="18.8096,-14.6473 27.6469,-20.4913 24.3828,-10.4118 18.8096,-14.6473"/>
<text text-anchor="middle" x="7.45907" y="-5.13827" font-family="Times New Roman,serif" font-size="5.00">1.665</text>
</g>
<!-- 6284 1 -->
<g id="node8" class="node"><title>6284 1</title>
<ellipse fill="white" stroke="black" cx="-51.6565" cy="-60.7742" rx="31.2258" ry="31.2258"/>
<text text-anchor="middle" x="-51.6565" y="-58.5742" font-family="Times New Roman,serif" font-size="9.00">sigmoid</text>
</g>
<!-- &#45;2&#45;&gt;6284 1 -->
<g id="edge4" class="edge"><title>&#45;2&#45;&gt;6284 1</title>
<path fill="none" stroke="green" stroke-width="0.432938" d="M-5.75712,5.72803C-11.3776,-2.41533 -19.9056,-14.7712 -28.0916,-26.6317"/>
<polygon fill="green" stroke="green" stroke-width="0.432938" points="-31.1455,-24.8948 -33.9454,-35.113 -25.3845,-28.8711 -31.1455,-24.8948"/>
<text text-anchor="middle" x="-9.92435" y="-12.4518" font-family="Times New Roman,serif" font-size="5.00">1.665</text>
</g>
<!-- 6284 2 -->
<g id="node9" class="node"><title>6284 2</title>
<ellipse fill="white" stroke="black" cx="67.8633" cy="6.75114" rx="31.2258" ry="31.2258"/>
<text text-anchor="middle" x="67.8633" y="8.95114" font-family="Times New Roman,serif" font-size="9.00">sigmoid</text>
</g>
<!-- &#45;2&#45;&gt;6284 2 -->
<g id="edge5" class="edge"><title>&#45;2&#45;&gt;6284 2</title>
<path fill="none" stroke="green" stroke-width="0.432938" d="M12.364,13.5815C16.5348,13.0681 21.5029,12.4567 26.727,11.8138"/>
<polygon fill="green" stroke="green" stroke-width="0.432938" points="26.594,8.30383 36.9467,10.556 27.4491,15.2514 26.594,8.30383"/>
<text text-anchor="middle" x="26.5455" y="10.6976" font-family="Times New Roman,serif" font-size="5.00">1.665</text>
</g>
<!-- 6284 3 -->
<g id="node10" class="node"><title>6284 3</title>
<ellipse fill="white" stroke="black" cx="-5.99343" cy="88.8095" rx="31.2258" ry="31.2258"/>
<text text-anchor="middle" x="-5.99343" y="91.0095" font-family="Times New Roman,serif" font-size="9.00">sigmoid</text>
</g>
<!-- &#45;2&#45;&gt;6284 3 -->
<g id="edge6" class="edge"><title>&#45;2&#45;&gt;6284 3</title>
<path fill="none" stroke="green" stroke-width="0.432938" d="M-0.157926,24.0699C-0.707351,30.1653 -1.47531,38.6851 -2.274,47.5459"/>
<polygon fill="green" stroke="green" stroke-width="0.432938" points="1.20489,47.9385 -3.17881,57.5839 -5.76685,47.31 1.20489,47.9385"/>
<text text-anchor="middle" x="-8.21596" y="33.8079" font-family="Times New Roman,serif" font-size="5.00">1.665</text>
</g>
<!-- 6284 4 -->
<g id="node11" class="node"><title>6284 4</title>
<ellipse fill="white" stroke="black" cx="-88.4984" cy="32.619" rx="31.2258" ry="31.2258"/>
<text text-anchor="middle" x="-88.4984" y="34.819" font-family="Times New Roman,serif" font-size="9.00">sigmoid</text>
</g>
<!-- &#45;2&#45;&gt;6284 4 -->
<g id="edge7" class="edge"><title>&#45;2&#45;&gt;6284 4</title>
<path fill="none" stroke="green" stroke-width="0.432938" d="M-10.998,17.3226C-20.4012,19.1786 -34.2203,21.9061 -47.5952,24.5459"/>
<polygon fill="green" stroke="green" stroke-width="0.432938" points="-47.1675,28.0289 -57.656,26.5316 -48.523,21.1614 -47.1675,28.0289"/>
<text text-anchor="middle" x="-36.2966" y="24.9343" font-family="Times New Roman,serif" font-size="5.00">1.665</text>
</g>
<!-- 6284 5 -->
<g id="node12" class="node"><title>6284 5</title>
<ellipse fill="white" stroke="black" cx="-58.083" cy="75.3982" rx="31.2258" ry="31.2258"/>
<text text-anchor="middle" x="-58.083" y="77.5982" font-family="Times New Roman,serif" font-size="9.00">sigmoid</text>
</g>
<!-- &#45;2&#45;&gt;6284 5 -->
<g id="edge8" class="edge"><title>&#45;2&#45;&gt;6284 5</title>
<path fill="none" stroke="green" stroke-width="0.432938" d="M-8.26382,24.192C-13.9647,30.0515 -21.706,38.0084 -29.386,45.9022"/>
<polygon fill="green" stroke="green" stroke-width="0.432938" points="-26.8795,48.345 -36.3614,53.0719 -31.8967,43.4637 -26.8795,48.345"/>
<text text-anchor="middle" x="-25.8249" y="33.0471" font-family="Times New Roman,serif" font-size="5.00">1.665</text>
</g>
<!-- 6284 6 -->
<g id="node13" class="node"><title>6284 6</title>
<ellipse fill="white" stroke="black" cx="46.5843" cy="63.5097" rx="31.2258" ry="31.2258"/>
<text text-anchor="middle" x="46.5843" y="65.7097" font-family="Times New Roman,serif" font-size="9.00">sigmoid</text>
</g>
<!-- &#45;2&#45;&gt;6284 6 -->
<g id="edge9" class="edge"><title>&#45;2&#45;&gt;6284 6</title>
<path fill="none" stroke="green" stroke-width="0.432938" d="M9.51275,24.371C12.1047,27.1075 15.0881,30.2573 18.2133,33.5567"/>
<polygon fill="green" stroke="green" stroke-width="0.432938" points="20.8484,31.2491 25.184,40.9162 15.7662,36.0628 20.8484,31.2491"/>
<text text-anchor="middle" x="20.863" y="26.9639" font-family="Times New Roman,serif" font-size="5.00">1.665</text>
</g>
<!-- &#45;3 -->
<g id="node3" class="node"><title>&#45;3</title>
<polygon fill="lightgray" stroke="black" points="136.5,87 105.5,87 105.5,105 136.5,105 136.5,87"/>
<text text-anchor="middle" x="121" y="98.2" font-family="Times New Roman,serif" font-size="9.00">ME</text>
</g>
<!-- &#45;4 -->
<g id="node4" class="node"><title>&#45;4</title>
<polygon fill="lightgray" stroke="black" points="-97.1832,-39.264 -120.183,-39.264 -120.183,-21.264 -97.1832,-21.264 -97.1832,-39.264"/>
<text text-anchor="middle" x="-108.683" y="-28.064" font-family="Times New Roman,serif" font-size="9.00">R</text>
</g>
<!-- &#45;4&#45;&gt;0 -->
<g id="edge2" class="edge"><title>&#45;4&#45;&gt;0</title>
<path fill="none" stroke="green" stroke-width="0.49769" stroke-dasharray="1,5" d="M-97.0661,-25.6824C-85.517,-21.1275 -67.3829,-13.9757 -52.2124,-7.99265"/>
<polygon fill="green" stroke="green" stroke-width="0.49769" points="-50.7887,-11.1936 -42.7702,-4.26876 -53.357,-4.68174 -50.7887,-11.1936"/>
<text text-anchor="middle" x="-82.6393" y="-18.8375" font-family="Times New Roman,serif" font-size="5.00">&#45;1.988</text>
</g>
<!-- 6284&#45;&gt;0 -->
<g id="edge18" class="edge"><title>6284&#45;&gt;0</title>
<path fill="none" stroke="green" stroke-width="0.649932" d="M-9.89428,-41.6208C-11.7476,-36.2327 -13.6753,-30.6285 -15.5113,-25.2908"/>
<polygon fill="green" stroke="green" stroke-width="0.649932" points="-12.323,-23.7994 -18.8854,-15.4816 -18.9423,-26.0763 -12.323,-23.7994"/>
<text text-anchor="middle" x="-5.7028" y="-35.4558" font-family="Times New Roman,serif" font-size="5.00">2.750</text>
</g>
<!-- 6284 0&#45;&gt;0 -->
<g id="edge11" class="edge"><title>6284 0&#45;&gt;0</title>
<path fill="none" stroke="green" stroke-width="0.649932" d="M20.7256,-28.09C13.724,-23.3913 6.17213,-18.3233 -0.743059,-13.6825"/>
<polygon fill="green" stroke="green" stroke-width="0.649932" points="1.18142,-10.759 -9.07246,-8.09275 -2.7193,-16.5714 1.18142,-10.759"/>
<text text-anchor="middle" x="1.99126" y="-22.8862" font-family="Times New Roman,serif" font-size="5.00">&#45;2.750</text>
</g>
<!-- 6284 1&#45;&gt;0 -->
<g id="edge12" class="edge"><title>6284 1&#45;&gt;0</title>
<path fill="none" stroke="green" stroke-width="0.649932" d="M-39.6372,-32.0147C-38.5193,-29.3399 -37.3896,-26.6367 -36.2801,-23.982"/>
<polygon fill="green" stroke="green" stroke-width="0.649932" points="-33.035,-25.2937 -32.4082,-14.7174 -39.4936,-22.5944 -33.035,-25.2937"/>
<text text-anchor="middle" x="-45.9586" y="-23.9983" font-family="Times New Roman,serif" font-size="5.00">&#45;1.964</text>
</g>
<!-- 6284 2&#45;&gt;0 -->
<g id="edge13" class="edge"><title>6284 2&#45;&gt;0</title>
<path fill="none" stroke="green" stroke-width="0.649932" d="M36.6376,5.38635C26.1419,4.92761 14.4782,4.41783 4.13808,3.96589"/>
<polygon fill="green" stroke="green" stroke-width="0.649932" points="3.78378,7.45384 -6.05382,3.52043 4.0895,0.460519 3.78378,7.45384"/>
<text text-anchor="middle" x="12.3878" y="2.67612" font-family="Times New Roman,serif" font-size="5.00">&#45;1.178</text>
</g>
<!-- 6284 3&#45;&gt;0 -->
<g id="edge14" class="edge"><title>6284 3&#45;&gt;0</title>
<path fill="none" stroke="green" stroke-width="0.649932" d="M-12.7958,58.2033C-14.7515,49.4039 -16.8759,39.8453 -18.802,31.1792"/>
<polygon fill="green" stroke="green" stroke-width="0.649932" points="-22.2753,31.6832 -21.0284,21.162 -15.4421,30.1644 -22.2753,31.6832"/>
<text text-anchor="middle" x="-23.7989" y="42.6912" font-family="Times New Roman,serif" font-size="5.00">&#45;0.393</text>
</g>
<!-- 6284 4&#45;&gt;0 -->
<g id="edge15" class="edge"><title>6284 4&#45;&gt;0</title>
<path fill="none" stroke="green" stroke-width="0.649932" d="M-60.1525,19.2286C-57.3104,17.8861 -54.4322,16.5264 -51.6106,15.1935"/>
<polygon fill="green" stroke="green" stroke-width="0.649932" points="-52.9075,11.9353 -42.3706,10.8286 -49.9175,18.2646 -52.9075,11.9353"/>
<text text-anchor="middle" x="-48.8815" y="15.2111" font-family="Times New Roman,serif" font-size="5.00">0.393</text>
</g>
<!-- 6284 5&#45;&gt;0 -->
<g id="edge16" class="edge"><title>6284 5&#45;&gt;0</title>
<path fill="none" stroke="green" stroke-width="0.649932" d="M-45.061,46.6606C-42.4337,40.8625 -39.6837,34.7938 -37.0949,29.0808"/>
<polygon fill="green" stroke="green" stroke-width="0.649932" points="-40.2558,27.5763 -32.9404,19.9124 -33.8798,30.4655 -40.2558,27.5763"/>
<text text-anchor="middle" x="-48.0779" y="35.8707" font-family="Times New Roman,serif" font-size="5.00">1.178</text>
</g>
<!-- 6284 6&#45;&gt;0 -->
<g id="edge17" class="edge"><title>6284 6&#45;&gt;0</title>
<path fill="none" stroke="green" stroke-width="0.649932" d="M22.7029,43.2565C14.5125,36.3104 5.38027,28.5655 -2.69207,21.7195"/>
<polygon fill="green" stroke="green" stroke-width="0.649932" points="-4.97412,24.3734 -10.337,15.2361 -0.446515,19.0347 -4.97412,24.3734"/>
<text text-anchor="middle" x="6.50543" y="36.488" font-family="Times New Roman,serif" font-size="5.00">1.964</text>
</g>
</g>
</svg>
