<?xml version="1.0" encoding="UTF-8" standalone="no"?>
<!DOCTYPE svg PUBLIC "-//W3C//DTD SVG 1.1//EN"
 "http://www.w3.org/Graphics/SVG/1.1/DTD/svg11.dtd">
<!-- Generated by graphviz version 2.47.1 (20210417.1919)
 -->
<!-- Pages: 1 -->
<svg width="173pt" height="137pt"
 viewBox="0.00 0.00 172.62 136.80" xmlns="http://www.w3.org/2000/svg" xmlns:xlink="http://www.w3.org/1999/xlink">
<g id="graph0" class="graph" transform="scale(1 1) rotate(0) translate(4 132.8)">
<polygon fill="white" stroke="transparent" points="-4,4 -4,-132.8 168.62,-132.8 168.62,4 -4,4"/>
<!-- &#45;1 -->
<g id="node1" class="node">
<title>&#45;1</title>
<polygon fill="lightgray" stroke="black" points="113.75,-88.7 89.75,-88.7 89.75,-70.1 113.75,-70.1 113.75,-88.7"/>
<text text-anchor="middle" x="101.75" y="-76.7" font-family="Times,serif" font-size="9.00">&#45;1</text>
</g>
<!-- &#45;2 -->
<g id="node2" class="node">
<title>&#45;2</title>
<polygon fill="lightgray" stroke="black" points="23.75,-30.96 -0.25,-30.96 -0.25,-12.36 23.75,-12.36 23.75,-30.96"/>
<text text-anchor="middle" x="11.75" y="-18.96" font-family="Times,serif" font-size="9.00">&#45;2</text>
</g>
<!-- 0 -->
<g id="node5" class="node">
<title>0</title>
<ellipse fill="lightblue" stroke="black" cx="83.53" cy="-33.28" rx="14.49" ry="14.49"/>
<ellipse fill="none" stroke="black" cx="83.53" cy="-33.28" rx="18.49" ry="18.49"/>
<text text-anchor="middle" x="83.53" y="-30.58" font-family="Times,serif" font-size="9.00">0</text>
</g>
<!-- &#45;2&#45;&gt;0 -->
<g id="edge1" class="edge">
<title>&#45;2&#45;&gt;0</title>
<path fill="none" stroke="green" stroke-width="0.67" d="M23.6,-23.58C32.17,-24.97 44.13,-26.9 55.11,-28.68"/>
<polygon fill="green" stroke="green" stroke-width="0.67" points="54.76,-32.17 65.19,-30.31 55.88,-25.26 54.76,-32.17"/>
<text text-anchor="middle" x="33.73" y="-27.63" font-family="Times,serif" font-size="5.00">2.855</text>
</g>
<!-- 23453 -->
<g id="node6" class="node">
<title>23453</title>
<ellipse fill="white" stroke="black" cx="36.68" cy="-89" rx="31.65" ry="31.65"/>
<text text-anchor="middle" x="36.68" y="-86.3" font-family="Times,serif" font-size="9.00">sigmoid</text>
</g>
<!-- &#45;2&#45;&gt;23453 -->
<g id="edge3" class="edge">
<title>&#45;2&#45;&gt;23453</title>
<path fill="none" stroke="green" stroke-width="0.29" stroke-dasharray="1,5" d="M15.21,-31.02C17.07,-36.04 19.5,-42.6 22.06,-49.5"/>
<polygon fill="green" stroke="green" stroke-width="0.29" points="18.82,-50.84 25.57,-59 25.38,-48.41 18.82,-50.84"/>
<text text-anchor="middle" x="13.01" y="-41.76" font-family="Times,serif" font-size="5.00">0.942</text>
</g>
<!-- &#45;3 -->
<g id="node3" class="node">
<title>&#45;3</title>
<polygon fill="lightgray" stroke="black" points="153.75,-128.7 129.75,-128.7 129.75,-110.1 153.75,-110.1 153.75,-128.7"/>
<text text-anchor="middle" x="141.75" y="-116.7" font-family="Times,serif" font-size="9.00">&#45;3</text>
</g>
<!-- &#45;4 -->
<g id="node4" class="node">
<title>&#45;4</title>
<polygon fill="lightgray" stroke="black" points="164.87,-18.7 140.87,-18.7 140.87,-0.1 164.87,-0.1 164.87,-18.7"/>
<text text-anchor="middle" x="152.87" y="-6.7" font-family="Times,serif" font-size="9.00">&#45;4</text>
</g>
<!-- &#45;4&#45;&gt;0 -->
<g id="edge2" class="edge">
<title>&#45;4&#45;&gt;0</title>
<path fill="none" stroke="red" stroke-width="0.31" stroke-dasharray="1,5" d="M141.11,-13.45C132.79,-16.31 121.3,-20.27 110.76,-23.9"/>
<polygon fill="red" stroke="red" stroke-width="0.31" points="109.4,-20.67 101.09,-27.23 111.68,-27.28 109.4,-20.67"/>
<text text-anchor="middle" x="119.48" y="-20.18" font-family="Times,serif" font-size="5.00">&#45;1.044</text>
</g>
<!-- 23453&#45;&gt;0 -->
<g id="edge4" class="edge">
<title>23453&#45;&gt;0</title>
<path fill="none" stroke="red" stroke-width="0.31" d="M57.37,-64.4C59.84,-61.45 62.36,-58.45 64.81,-55.54"/>
<polygon fill="red" stroke="red" stroke-width="0.31" points="67.67,-57.58 71.42,-47.68 62.31,-53.08 67.67,-57.58"/>
<text text-anchor="middle" x="67.54" y="-55.47" font-family="Times,serif" font-size="5.00">&#45;1.071</text>
</g>
</g>
</svg>
