<?xml version="1.0" encoding="UTF-8" standalone="no"?>
<!DOCTYPE svg PUBLIC "-//W3C//DTD SVG 1.1//EN"
 "http://www.w3.org/Graphics/SVG/1.1/DTD/svg11.dtd">
<!-- Generated by graphviz version 2.47.1 (20210417.1919)
 -->
<!-- Pages: 1 -->
<svg width="182pt" height="196pt"
 viewBox="0.00 0.00 181.80 195.59" xmlns="http://www.w3.org/2000/svg" xmlns:xlink="http://www.w3.org/1999/xlink">
<g id="graph0" class="graph" transform="scale(1 1) rotate(0) translate(4 191.59)">
<polygon fill="white" stroke="transparent" points="-4,4 -4,-191.59 177.8,-191.59 177.8,4 -4,4"/>
<!-- &#45;1 -->
<g id="node1" class="node">
<title>&#45;1</title>
<polygon fill="lightgray" stroke="black" points="23.75,-123.62 -0.25,-123.62 -0.25,-105.02 23.75,-105.02 23.75,-123.62"/>
<text text-anchor="middle" x="11.75" y="-111.62" font-family="Times,serif" font-size="9.00">&#45;1</text>
</g>
<!-- 0 -->
<g id="node5" class="node">
<title>0</title>
<ellipse fill="lightblue" stroke="black" cx="85.76" cy="-87.63" rx="14.49" ry="14.49"/>
<ellipse fill="none" stroke="black" cx="85.76" cy="-87.63" rx="18.49" ry="18.49"/>
<text text-anchor="middle" x="85.76" y="-84.93" font-family="Times,serif" font-size="9.00">0</text>
</g>
<!-- &#45;1&#45;&gt;0 -->
<g id="edge1" class="edge">
<title>&#45;1&#45;&gt;0</title>
<path fill="none" stroke="green" stroke-width="0.51" stroke-dasharray="1,5" d="M23.64,-110.03C33.03,-106.65 46.49,-101.79 58.49,-97.46"/>
<polygon fill="green" stroke="green" stroke-width="0.51" points="59.88,-100.68 68.1,-94 57.51,-94.1 59.88,-100.68"/>
<text text-anchor="middle" x="35.44" y="-105.25" font-family="Times,serif" font-size="5.00">2.064</text>
</g>
<!-- &#45;2 -->
<g id="node2" class="node">
<title>&#45;2</title>
<polygon fill="lightgray" stroke="black" points="174.06,-103.92 150.05,-103.92 150.05,-85.31 174.06,-85.31 174.06,-103.92"/>
<text text-anchor="middle" x="162.06" y="-91.92" font-family="Times,serif" font-size="9.00">&#45;2</text>
</g>
<!-- &#45;2&#45;&gt;0 -->
<g id="edge2" class="edge">
<title>&#45;2&#45;&gt;0</title>
<path fill="none" stroke="green" stroke-width="0.87" d="M150.13,-93.52C140.67,-92.66 127.03,-91.41 114.74,-90.28"/>
<polygon fill="green" stroke="green" stroke-width="0.87" points="114.7,-86.77 104.43,-89.34 114.07,-93.74 114.7,-86.77"/>
<text text-anchor="middle" x="126.81" y="-93.4" font-family="Times,serif" font-size="5.00">3.848</text>
</g>
<!-- 5140 -->
<g id="node6" class="node">
<title>5140</title>
<ellipse fill="white" stroke="black" cx="126.98" cy="-152.24" rx="35.19" ry="35.19"/>
<text text-anchor="middle" x="126.98" y="-149.54" font-family="Times,serif" font-size="9.00">heaviside</text>
</g>
<!-- &#45;2&#45;&gt;5140 -->
<g id="edge4" class="edge">
<title>&#45;2&#45;&gt;5140</title>
<path fill="none" stroke="green" stroke-width="0.32" d="M156.26,-104.13C154.6,-106.86 152.68,-110.01 150.64,-113.38"/>
<polygon fill="green" stroke="green" stroke-width="0.32" points="147.57,-111.68 145.36,-122.04 153.55,-115.32 147.57,-111.68"/>
<text text-anchor="middle" x="147.83" y="-110.25" font-family="Times,serif" font-size="5.00">1.105</text>
</g>
<!-- &#45;3 -->
<g id="node3" class="node">
<title>&#45;3</title>
<polygon fill="lightgray" stroke="black" points="88.79,-18.7 64.78,-18.7 64.78,-0.1 88.79,-0.1 88.79,-18.7"/>
<text text-anchor="middle" x="76.78" y="-6.7" font-family="Times,serif" font-size="9.00">&#45;3</text>
</g>
<!-- &#45;3&#45;&gt;0 -->
<g id="edge3" class="edge">
<title>&#45;3&#45;&gt;0</title>
<path fill="none" stroke="red" stroke-width="0.22" stroke-dasharray="1,5" d="M77.88,-18.99C79.02,-28.88 80.84,-44.77 82.45,-58.78"/>
<polygon fill="red" stroke="red" stroke-width="0.22" points="79.01,-59.46 83.62,-68.99 85.96,-58.66 79.01,-59.46"/>
<text text-anchor="middle" x="73.71" y="-40.39" font-family="Times,serif" font-size="5.00">&#45;0.619</text>
</g>
<!-- &#45;4 -->
<g id="node4" class="node">
<title>&#45;4</title>
<polygon fill="lightgray" stroke="black" points="158.75,-63.7 134.75,-63.7 134.75,-45.1 158.75,-45.1 158.75,-63.7"/>
<text text-anchor="middle" x="146.75" y="-51.7" font-family="Times,serif" font-size="9.00">&#45;4</text>
</g>
<!-- 5140&#45;&gt;0 -->
<g id="edge5" class="edge">
<title>5140&#45;&gt;0</title>
<path fill="none" stroke="red" stroke-width="0.28" d="M107.82,-122.21C105.63,-118.77 103.42,-115.31 101.29,-111.96"/>
<polygon fill="red" stroke="red" stroke-width="0.28" points="104.22,-110.05 95.89,-103.5 98.32,-113.82 104.22,-110.05"/>
<text text-anchor="middle" x="98.1" y="-112.59" font-family="Times,serif" font-size="5.00">&#45;0.907</text>
</g>
</g>
</svg>
