<?xml version="1.0" encoding="UTF-8" standalone="no"?>
<!DOCTYPE svg PUBLIC "-//W3C//DTD SVG 1.1//EN"
 "http://www.w3.org/Graphics/SVG/1.1/DTD/svg11.dtd">
<!-- Generated by graphviz version 2.47.1 (20210417.1919)
 -->
<!-- Pages: 1 -->
<svg width="273pt" height="317pt"
 viewBox="0.00 0.00 273.50 316.62" xmlns="http://www.w3.org/2000/svg" xmlns:xlink="http://www.w3.org/1999/xlink">
<g id="graph0" class="graph" transform="scale(1 1) rotate(0) translate(4 312.62)">
<polygon fill="white" stroke="transparent" points="-4,4 -4,-312.62 269.5,-312.62 269.5,4 -4,4"/>
<!-- &#45;1 -->
<g id="node1" class="node">
<title>&#45;1</title>
<polygon fill="lightgray" stroke="black" points="265.75,-62.7 241.75,-62.7 241.75,-44.1 265.75,-44.1 265.75,-62.7"/>
<text text-anchor="middle" x="253.75" y="-50.7" font-family="Times,serif" font-size="9.00">&#45;1</text>
</g>
<!-- &#45;2 -->
<g id="node2" class="node">
<title>&#45;2</title>
<polygon fill="lightgray" stroke="black" points="134.28,-212.53 110.28,-212.53 110.28,-193.93 134.28,-193.93 134.28,-212.53"/>
<text text-anchor="middle" x="122.28" y="-200.53" font-family="Times,serif" font-size="9.00">&#45;2</text>
</g>
<!-- 0 -->
<g id="node5" class="node">
<title>0</title>
<ellipse fill="lightblue" stroke="black" cx="171.04" cy="-216.37" rx="14.49" ry="14.49"/>
<ellipse fill="none" stroke="black" cx="171.04" cy="-216.37" rx="18.49" ry="18.49"/>
<text text-anchor="middle" x="171.04" y="-213.67" font-family="Times,serif" font-size="9.00">0</text>
</g>
<!-- &#45;2&#45;&gt;0 -->
<g id="edge1" class="edge">
<title>&#45;2&#45;&gt;0</title>
<path fill="none" stroke="red" stroke-width="0.45" d="M134.08,-206.41C136.82,-207.15 139.84,-207.96 142.94,-208.8"/>
<polygon fill="red" stroke="red" stroke-width="0.45" points="142.31,-212.25 152.87,-211.48 144.13,-205.49 142.31,-212.25"/>
<text text-anchor="middle" x="144.14" y="-209.11" font-family="Times,serif" font-size="5.00">1.757</text>
</g>
<!-- 9156 -->
<g id="node6" class="node">
<title>9156</title>
<ellipse fill="white" stroke="black" cx="185" cy="-159.48" rx="31.65" ry="31.65"/>
<text text-anchor="middle" x="185" y="-156.78" font-family="Times,serif" font-size="9.00">sigmoid</text>
</g>
<!-- &#45;2&#45;&gt;9156 -->
<g id="edge39" class="edge">
<title>&#45;2&#45;&gt;9156</title>
<path fill="none" stroke="green" stroke-width="0.55" d="M134.08,-195C138.75,-191.74 144.39,-187.81 150.19,-183.77"/>
<polygon fill="green" stroke="green" stroke-width="0.55" points="152.5,-186.42 158.7,-177.83 148.49,-180.68 152.5,-186.42"/>
<text text-anchor="middle" x="135.67" y="-190.88" font-family="Times,serif" font-size="5.00">&#45;2.265</text>
</g>
<!-- 10314 -->
<g id="node7" class="node">
<title>10314</title>
<ellipse fill="white" stroke="black" cx="127.4" cy="-276.8" rx="31.65" ry="31.65"/>
<text text-anchor="middle" x="127.4" y="-274.1" font-family="Times,serif" font-size="9.00">sigmoid</text>
</g>
<!-- &#45;2&#45;&gt;10314 -->
<g id="edge40" class="edge">
<title>&#45;2&#45;&gt;10314</title>
<path fill="none" stroke="green" stroke-width="0.2" d="M122.93,-212.55C123.34,-218.38 123.89,-226.34 124.47,-234.68"/>
<polygon fill="green" stroke="green" stroke-width="0.2" points="121,-235.18 125.18,-244.92 127.98,-234.7 121,-235.18"/>
<text text-anchor="middle" x="118.08" y="-225.11" font-family="Times,serif" font-size="5.00">0.501</text>
</g>
<!-- 9156 0 -->
<g id="node10" class="node">
<title>9156 0</title>
<ellipse fill="none" stroke="black" cx="43.27" cy="-160.83" rx="28.63" ry="28.63"/>
<text text-anchor="middle" x="43.27" y="-158.13" font-family="Times,serif" font-size="9.00">9156 0</text>
</g>
<!-- &#45;2&#45;&gt;9156 0 -->
<g id="edge33" class="edge">
<title>&#45;2&#45;&gt;9156 0</title>
<path fill="none" stroke="green" stroke-width="0.55" d="M110.28,-196.79C101.63,-192.15 89.48,-185.63 77.9,-179.42"/>
<polygon fill="green" stroke="green" stroke-width="0.55" points="79.28,-176.19 68.82,-174.54 75.97,-182.35 79.28,-176.19"/>
<text text-anchor="middle" x="100.55" y="-189.61" font-family="Times,serif" font-size="5.00">&#45;2.265</text>
</g>
<!-- 9156 1 -->
<g id="node11" class="node">
<title>9156 1</title>
<ellipse fill="none" stroke="black" cx="176.02" cy="-112.3" rx="28.63" ry="28.63"/>
<text text-anchor="middle" x="176.02" y="-109.6" font-family="Times,serif" font-size="9.00">9156 1</text>
</g>
<!-- &#45;2&#45;&gt;9156 1 -->
<g id="edge34" class="edge">
<title>&#45;2&#45;&gt;9156 1</title>
<path fill="none" stroke="green" stroke-width="0.55" d="M127.83,-193.85C134.5,-182.56 146.06,-163.01 156.18,-145.87"/>
<polygon fill="green" stroke="green" stroke-width="0.55" points="159.24,-147.58 161.31,-137.19 153.21,-144.02 159.24,-147.58"/>
<text text-anchor="middle" x="135.55" y="-171.36" font-family="Times,serif" font-size="5.00">&#45;2.265</text>
</g>
<!-- 9156 2 -->
<g id="node12" class="node">
<title>9156 2</title>
<ellipse fill="none" stroke="black" cx="52.09" cy="-136.96" rx="28.63" ry="28.63"/>
<text text-anchor="middle" x="52.09" y="-134.26" font-family="Times,serif" font-size="9.00">9156 2</text>
</g>
<!-- &#45;2&#45;&gt;9156 2 -->
<g id="edge35" class="edge">
<title>&#45;2&#45;&gt;9156 2</title>
<path fill="none" stroke="green" stroke-width="0.55" d="M112.23,-193.74C103.97,-185.94 91.86,-174.51 80.67,-163.94"/>
<polygon fill="green" stroke="green" stroke-width="0.55" points="82.8,-161.14 73.12,-156.82 77.99,-166.23 82.8,-161.14"/>
<text text-anchor="middle" x="102.9" y="-180.34" font-family="Times,serif" font-size="5.00">&#45;2.265</text>
</g>
<!-- 9156 3 -->
<g id="node13" class="node">
<title>9156 3</title>
<ellipse fill="none" stroke="black" cx="57.24" cy="-186.25" rx="28.63" ry="28.63"/>
<text text-anchor="middle" x="57.24" y="-183.55" font-family="Times,serif" font-size="9.00">9156 3</text>
</g>
<!-- &#45;2&#45;&gt;9156 3 -->
<g id="edge36" class="edge">
<title>&#45;2&#45;&gt;9156 3</title>
<path fill="none" stroke="green" stroke-width="0.55" d="M110.35,-200.12C105.95,-198.97 100.7,-197.6 95.23,-196.17"/>
<polygon fill="green" stroke="green" stroke-width="0.55" points="95.86,-192.72 85.3,-193.58 94.09,-199.49 95.86,-192.72"/>
<text text-anchor="middle" x="96.33" y="-199.64" font-family="Times,serif" font-size="5.00">&#45;2.265</text>
</g>
<!-- 9156 4 -->
<g id="node14" class="node">
<title>9156 4</title>
<ellipse fill="none" stroke="black" cx="194.83" cy="-131.76" rx="28.63" ry="28.63"/>
<text text-anchor="middle" x="194.83" y="-129.06" font-family="Times,serif" font-size="9.00">9156 4</text>
</g>
<!-- &#45;2&#45;&gt;9156 4 -->
<g id="edge37" class="edge">
<title>&#45;2&#45;&gt;9156 4</title>
<path fill="none" stroke="green" stroke-width="0.55" d="M131.77,-193.89C140.61,-185.18 154.25,-171.74 166.58,-159.59"/>
<polygon fill="green" stroke="green" stroke-width="0.55" points="169.38,-161.75 174.04,-152.24 164.46,-156.77 169.38,-161.75"/>
<text text-anchor="middle" x="142.72" y="-178.24" font-family="Times,serif" font-size="5.00">&#45;2.265</text>
</g>
<!-- 9156 5 -->
<g id="node15" class="node">
<title>9156 5</title>
<ellipse fill="none" stroke="black" cx="152.73" cy="-164.09" rx="28.63" ry="28.63"/>
<text text-anchor="middle" x="152.73" y="-161.39" font-family="Times,serif" font-size="9.00">9156 5</text>
</g>
<!-- &#45;2&#45;&gt;9156 5 -->
<g id="edge38" class="edge">
<title>&#45;2&#45;&gt;9156 5</title>
<path fill="none" stroke="green" stroke-width="0.55" d="M129.65,-193.76C129.75,-193.63 129.86,-193.5 129.96,-193.37"/>
<polygon fill="green" stroke="green" stroke-width="0.55" points="131.51,-197.07 134.89,-187.03 125.99,-192.77 131.51,-197.07"/>
<text text-anchor="middle" x="123.35" y="-189.06" font-family="Times,serif" font-size="5.00">&#45;2.265</text>
</g>
<!-- &#45;3 -->
<g id="node3" class="node">
<title>&#45;3</title>
<polygon fill="lightgray" stroke="black" points="249.27,-273.9 225.27,-273.9 225.27,-255.3 249.27,-255.3 249.27,-273.9"/>
<text text-anchor="middle" x="237.27" y="-261.9" font-family="Times,serif" font-size="9.00">&#45;3</text>
</g>
<!-- &#45;3&#45;&gt;0 -->
<g id="edge3" class="edge">
<title>&#45;3&#45;&gt;0</title>
<path fill="none" stroke="green" stroke-width="0.49" stroke-dasharray="1,5" d="M225.43,-255.98C216.82,-249.71 204.9,-241.03 194.4,-233.38"/>
<polygon fill="green" stroke="green" stroke-width="0.49" points="196.17,-230.35 186.03,-227.29 192.05,-236 196.17,-230.35"/>
<text text-anchor="middle" x="204.29" y="-246.18" font-family="Times,serif" font-size="5.00">1.953</text>
</g>
<!-- &#45;4 -->
<g id="node4" class="node">
<title>&#45;4</title>
<polygon fill="lightgray" stroke="black" points="129.37,-129.16 105.36,-129.16 105.36,-110.56 129.37,-110.56 129.37,-129.16"/>
<text text-anchor="middle" x="117.36" y="-117.16" font-family="Times,serif" font-size="9.00">&#45;4</text>
</g>
<!-- &#45;4&#45;&gt;0 -->
<g id="edge2" class="edge">
<title>&#45;4&#45;&gt;0</title>
<path fill="none" stroke="green" stroke-width="0.1" stroke-dasharray="1,5" d="M122.71,-129.46C130.63,-143.7 145.76,-170.91 156.99,-191.1"/>
<polygon fill="green" stroke="green" stroke-width="0.1" points="154.07,-193.05 161.98,-200.09 160.18,-189.65 154.07,-193.05"/>
<text text-anchor="middle" x="133.39" y="-161.78" font-family="Times,serif" font-size="5.00">&#45;0.017</text>
</g>
<!-- &#45;4&#45;&gt;9156 -->
<g id="edge10" class="edge">
<title>&#45;4&#45;&gt;9156</title>
<path fill="none" stroke="green" stroke-width="0.37" d="M129.15,-126.76C134.63,-129.97 141.48,-133.98 148.48,-138.09"/>
<polygon fill="green" stroke="green" stroke-width="0.37" points="146.95,-141.24 157.35,-143.28 150.49,-135.2 146.95,-141.24"/>
<text text-anchor="middle" x="141.63" y="-127.92" font-family="Times,serif" font-size="5.00">1.336</text>
</g>
<!-- 9207 -->
<g id="node8" class="node">
<title>9207</title>
<ellipse fill="white" stroke="black" cx="108.73" cy="-99.7" rx="22.08" ry="22.08"/>
<ellipse fill="none" stroke="black" cx="108.73" cy="-99.7" rx="26.04" ry="26.04"/>
<text text-anchor="middle" x="108.73" y="-97" font-family="Times,serif" font-size="9.00">tanh</text>
</g>
<!-- &#45;4&#45;&gt;9207 -->
<g id="edge11" class="edge">
<title>&#45;4&#45;&gt;9207</title>
<path fill="none" stroke="red" stroke-width="0.4" d="M113.25,-110.25C113.22,-110.17 113.18,-110.09 113.15,-110"/>
<polygon fill="red" stroke="red" stroke-width="0.4" points="120.2,-117.58 113.04,-109.76 113.76,-120.33 120.2,-117.58"/>
<text text-anchor="middle" x="106.74" y="-105.63" font-family="Times,serif" font-size="5.00">&#45;1.484</text>
</g>
<!-- 9497 -->
<g id="node9" class="node">
<title>9497</title>
<ellipse fill="white" stroke="black" cx="189.39" cy="-60.78" rx="22.04" ry="22.04"/>
<text text-anchor="middle" x="189.39" y="-58.08" font-family="Times,serif" font-size="9.00">tanh</text>
</g>
<!-- &#45;4&#45;&gt;9497 -->
<g id="edge25" class="edge">
<title>&#45;4&#45;&gt;9497</title>
<path fill="none" stroke="red" stroke-width="0.17" d="M128.94,-110.36C138.37,-102.63 152.04,-91.41 164,-81.61"/>
<polygon fill="red" stroke="red" stroke-width="0.17" points="166.42,-84.15 171.93,-75.1 161.98,-78.74 166.42,-84.15"/>
<text text-anchor="middle" x="140.01" y="-97.48" font-family="Times,serif" font-size="5.00">&#45;0.341</text>
</g>
<!-- &#45;4&#45;&gt;9156 0 -->
<g id="edge4" class="edge">
<title>&#45;4&#45;&gt;9156 0</title>
<path fill="none" stroke="green" stroke-width="0.37" d="M105.46,-126.44C97.88,-130.63 87.64,-136.29 77.66,-141.81"/>
<polygon fill="green" stroke="green" stroke-width="0.37" points="75.71,-138.89 68.66,-146.79 79.1,-145.02 75.71,-138.89"/>
<text text-anchor="middle" x="85.94" y="-129.63" font-family="Times,serif" font-size="5.00">1.336</text>
</g>
<!-- &#45;4&#45;&gt;9156 1 -->
<g id="edge5" class="edge">
<title>&#45;4&#45;&gt;9156 1</title>
<path fill="none" stroke="green" stroke-width="0.37" d="M129.23,-118.33C131.68,-118.01 134.39,-117.66 137.22,-117.3"/>
<polygon fill="green" stroke="green" stroke-width="0.37" points="137.72,-120.76 147.19,-116.02 136.83,-113.82 137.72,-120.76"/>
<text text-anchor="middle" x="138.85" y="-119.31" font-family="Times,serif" font-size="5.00">1.336</text>
</g>
<!-- &#45;4&#45;&gt;9156 2 -->
<g id="edge6" class="edge">
<title>&#45;4&#45;&gt;9156 2</title>
<path fill="none" stroke="green" stroke-width="0.37" d="M105.39,-122.99C100.93,-124.16 95.59,-125.56 90.04,-127.01"/>
<polygon fill="green" stroke="green" stroke-width="0.37" points="88.76,-123.73 79.97,-129.65 90.53,-130.5 88.76,-123.73"/>
<text text-anchor="middle" x="103.34" y="-126.5" font-family="Times,serif" font-size="5.00">1.336</text>
</g>
<!-- &#45;4&#45;&gt;9156 3 -->
<g id="edge7" class="edge">
<title>&#45;4&#45;&gt;9156 3</title>
<path fill="none" stroke="green" stroke-width="0.37" d="M108.75,-129.37C102.13,-136.68 92.6,-147.2 83.54,-157.2"/>
<polygon fill="green" stroke="green" stroke-width="0.37" points="80.88,-154.93 76.76,-164.69 86.07,-159.63 80.88,-154.93"/>
<text text-anchor="middle" x="101.77" y="-144.79" font-family="Times,serif" font-size="5.00">1.336</text>
</g>
<!-- &#45;4&#45;&gt;9156 4 -->
<g id="edge8" class="edge">
<title>&#45;4&#45;&gt;9156 4</title>
<path fill="none" stroke="green" stroke-width="0.37" d="M129.13,-121.66C136.42,-122.79 146.23,-124.29 156.05,-125.8"/>
<polygon fill="green" stroke="green" stroke-width="0.37" points="155.77,-129.3 166.18,-127.36 156.83,-122.38 155.77,-129.3"/>
<text text-anchor="middle" x="136.97" y="-125.23" font-family="Times,serif" font-size="5.00">1.336</text>
</g>
<!-- &#45;4&#45;&gt;9156 5 -->
<g id="edge9" class="edge">
<title>&#45;4&#45;&gt;9156 5</title>
<path fill="none" stroke="green" stroke-width="0.37" d="M124.86,-129.24C125.84,-130.46 126.88,-131.76 127.96,-133.11"/>
<polygon fill="green" stroke="green" stroke-width="0.37" points="125.49,-135.63 134.47,-141.25 130.96,-131.26 125.49,-135.63"/>
<text text-anchor="middle" x="120.79" y="-132.67" font-family="Times,serif" font-size="5.00">1.336</text>
</g>
<!-- 9497 0 -->
<g id="node16" class="node">
<title>9497 0</title>
<ellipse fill="none" stroke="black" cx="85.39" cy="-182.54" rx="28.63" ry="28.63"/>
<text text-anchor="middle" x="85.39" y="-179.84" font-family="Times,serif" font-size="9.00">9497 0</text>
</g>
<!-- &#45;4&#45;&gt;9497 0 -->
<g id="edge19" class="edge">
<title>&#45;4&#45;&gt;9497 0</title>
<path fill="none" stroke="red" stroke-width="0.17" d="M112.51,-129.38C109.96,-134.37 106.67,-140.83 103.26,-147.51"/>
<polygon fill="red" stroke="red" stroke-width="0.17" points="100.02,-146.15 98.6,-156.65 106.26,-149.33 100.02,-146.15"/>
<text text-anchor="middle" x="101.43" y="-133.94" font-family="Times,serif" font-size="5.00">&#45;0.341</text>
</g>
<!-- 9497 1 -->
<g id="node17" class="node">
<title>9497 1</title>
<ellipse fill="none" stroke="black" cx="158.13" cy="-38.52" rx="28.63" ry="28.63"/>
<text text-anchor="middle" x="158.13" y="-35.82" font-family="Times,serif" font-size="9.00">9497 1</text>
</g>
<!-- &#45;4&#45;&gt;9497 1 -->
<g id="edge20" class="edge">
<title>&#45;4&#45;&gt;9497 1</title>
<path fill="none" stroke="red" stroke-width="0.17" d="M122.04,-110.53C126.59,-101.44 133.8,-87.06 140.58,-73.53"/>
<polygon fill="red" stroke="red" stroke-width="0.17" points="143.82,-74.88 145.17,-64.38 137.56,-71.75 143.82,-74.88"/>
<text text-anchor="middle" x="137.77" y="-87.53" font-family="Times,serif" font-size="5.00">&#45;0.341</text>
</g>
<!-- 9497 2 -->
<g id="node18" class="node">
<title>9497 2</title>
<ellipse fill="none" stroke="black" cx="121.51" cy="-28.81" rx="28.63" ry="28.63"/>
<text text-anchor="middle" x="121.51" y="-26.11" font-family="Times,serif" font-size="9.00">9497 2</text>
</g>
<!-- &#45;4&#45;&gt;9497 2 -->
<g id="edge21" class="edge">
<title>&#45;4&#45;&gt;9497 2</title>
<path fill="none" stroke="red" stroke-width="0.17" d="M117.79,-110.46C118.25,-100.32 119.02,-83.51 119.74,-67.77"/>
<polygon fill="red" stroke="red" stroke-width="0.17" points="123.24,-67.82 120.2,-57.67 116.25,-67.5 123.24,-67.82"/>
<text text-anchor="middle" x="115.54" y="-84.62" font-family="Times,serif" font-size="5.00">&#45;0.341</text>
</g>
<!-- 9497 3 -->
<g id="node19" class="node">
<title>9497 3</title>
<ellipse fill="none" stroke="black" cx="28.81" cy="-90.02" rx="28.63" ry="28.63"/>
<text text-anchor="middle" x="28.81" y="-87.32" font-family="Times,serif" font-size="9.00">9497 3</text>
</g>
<!-- &#45;4&#45;&gt;9497 3 -->
<g id="edge22" class="edge">
<title>&#45;4&#45;&gt;9497 3</title>
<path fill="none" stroke="red" stroke-width="0.17" d="M105.42,-115.83C95.22,-112.39 79.98,-107.26 65.77,-102.47"/>
<polygon fill="red" stroke="red" stroke-width="0.17" points="66.77,-99.12 56.18,-99.24 64.54,-105.75 66.77,-99.12"/>
<text text-anchor="middle" x="79.14" y="-104.65" font-family="Times,serif" font-size="5.00">&#45;0.341</text>
</g>
<!-- 9497 4 -->
<g id="node20" class="node">
<title>9497 4</title>
<ellipse fill="none" stroke="black" cx="82.86" cy="-35.11" rx="28.63" ry="28.63"/>
<text text-anchor="middle" x="82.86" y="-32.41" font-family="Times,serif" font-size="9.00">9497 4</text>
</g>
<!-- &#45;4&#45;&gt;9497 4 -->
<g id="edge23" class="edge">
<title>&#45;4&#45;&gt;9497 4</title>
<path fill="none" stroke="red" stroke-width="0.17" d="M113.54,-110.46C109.69,-101.01 103.51,-85.82 97.7,-71.55"/>
<polygon fill="red" stroke="red" stroke-width="0.17" points="100.78,-69.84 93.77,-61.9 94.3,-72.48 100.78,-69.84"/>
<text text-anchor="middle" x="99.16" y="-92.51" font-family="Times,serif" font-size="5.00">&#45;0.341</text>
</g>
<!-- 9497 5 -->
<g id="node21" class="node">
<title>9497 5</title>
<ellipse fill="none" stroke="black" cx="50.44" cy="-57.29" rx="28.63" ry="28.63"/>
<text text-anchor="middle" x="50.44" y="-54.59" font-family="Times,serif" font-size="9.00">9497 5</text>
</g>
<!-- &#45;4&#45;&gt;9497 5 -->
<g id="edge24" class="edge">
<title>&#45;4&#45;&gt;9497 5</title>
<path fill="none" stroke="red" stroke-width="0.17" d="M107.2,-110.35C99.68,-103.32 89.05,-93.38 79.01,-84"/>
<polygon fill="red" stroke="red" stroke-width="0.17" points="81.22,-81.27 71.52,-77 76.43,-86.38 81.22,-81.27"/>
<text text-anchor="middle" x="86.65" y="-98.68" font-family="Times,serif" font-size="5.00">&#45;0.341</text>
</g>
<!-- 10314&#45;&gt;0 -->
<g id="edge41" class="edge">
<title>10314&#45;&gt;0</title>
<path fill="none" stroke="red" stroke-width="0.32" d="M146.16,-250.82C148.74,-247.25 151.37,-243.6 153.92,-240.08"/>
<polygon fill="red" stroke="red" stroke-width="0.32" points="156.96,-241.84 159.98,-231.69 151.29,-237.74 156.96,-241.84"/>
<text text-anchor="middle" x="156.5" y="-240.95" font-family="Times,serif" font-size="5.00">&#45;1.096</text>
</g>
<!-- 9207&#45;&gt;9156 -->
<g id="edge18" class="edge">
<title>9207&#45;&gt;9156</title>
<path fill="none" stroke="green" stroke-width="0.1" stroke-dasharray="1,5" d="M129.57,-116.03C136.44,-121.41 144.25,-127.54 151.81,-133.46"/>
<polygon fill="green" stroke="green" stroke-width="0.1" points="149.81,-136.34 159.84,-139.76 154.13,-130.83 149.81,-136.34"/>
<text text-anchor="middle" x="143.5" y="-120.25" font-family="Times,serif" font-size="5.00">0.019</text>
</g>
<!-- 9207&#45;&gt;9156 0 -->
<g id="edge12" class="edge">
<title>9207&#45;&gt;9156 0</title>
<path fill="none" stroke="green" stroke-width="0.1" stroke-dasharray="1,5" d="M89.45,-117.71C83.93,-122.86 77.8,-128.59 71.85,-134.14"/>
<polygon fill="green" stroke="green" stroke-width="0.1" points="69.4,-131.64 64.48,-141.02 74.18,-136.76 69.4,-131.64"/>
<text text-anchor="middle" x="86.27" y="-127.42" font-family="Times,serif" font-size="5.00">0.019</text>
</g>
<!-- 9207&#45;&gt;9156 1 -->
<g id="edge13" class="edge">
<title>9207&#45;&gt;9156 1</title>
<path fill="none" stroke="green" stroke-width="0.1" stroke-dasharray="1,5" d="M134.56,-104.53C135.63,-104.74 136.72,-104.94 137.81,-105.14"/>
<polygon fill="green" stroke="green" stroke-width="0.1" points="137.22,-108.59 147.69,-107 138.51,-101.71 137.22,-108.59"/>
<text text-anchor="middle" x="141.81" y="-106.34" font-family="Times,serif" font-size="5.00">0.019</text>
</g>
<!-- 9207&#45;&gt;9156 2 -->
<g id="edge14" class="edge">
<title>9207&#45;&gt;9156 2</title>
<path fill="none" stroke="green" stroke-width="0.1" stroke-dasharray="1,5" d="M86.67,-114.21C86.15,-114.55 85.62,-114.9 85.09,-115.25"/>
<polygon fill="green" stroke="green" stroke-width="0.1" points="82.87,-112.52 76.44,-120.94 86.71,-118.37 82.87,-112.52"/>
<text text-anchor="middle" x="80.25" y="-116.23" font-family="Times,serif" font-size="5.00">0.019</text>
</g>
<!-- 9207&#45;&gt;9156 3 -->
<g id="edge15" class="edge">
<title>9207&#45;&gt;9156 3</title>
<path fill="none" stroke="green" stroke-width="0.1" stroke-dasharray="1,5" d="M95.2,-122.44C89.72,-131.66 83.27,-142.5 77.26,-152.6"/>
<polygon fill="green" stroke="green" stroke-width="0.1" points="74.23,-150.84 72.13,-161.23 80.25,-154.42 74.23,-150.84"/>
<text text-anchor="middle" x="91.86" y="-139.02" font-family="Times,serif" font-size="5.00">0.019</text>
</g>
<!-- 9207&#45;&gt;9156 4 -->
<g id="edge16" class="edge">
<title>9207&#45;&gt;9156 4</title>
<path fill="none" stroke="green" stroke-width="0.1" stroke-dasharray="1,5" d="M133.64,-108.97C141.27,-111.82 149.85,-115.01 158.1,-118.08"/>
<polygon fill="green" stroke="green" stroke-width="0.1" points="156.98,-121.4 167.57,-121.61 159.42,-114.84 156.98,-121.4"/>
<text text-anchor="middle" x="140.24" y="-109.03" font-family="Times,serif" font-size="5.00">0.019</text>
</g>
<!-- 9207&#45;&gt;9156 5 -->
<g id="edge17" class="edge">
<title>9207&#45;&gt;9156 5</title>
<path fill="none" stroke="green" stroke-width="0.1" stroke-dasharray="1,5" d="M123.63,-121.5C125.86,-124.77 128.21,-128.2 130.56,-131.64"/>
<polygon fill="green" stroke="green" stroke-width="0.1" points="127.81,-133.82 136.34,-140.1 133.59,-129.87 127.81,-133.82"/>
<text text-anchor="middle" x="132.72" y="-128.07" font-family="Times,serif" font-size="5.00">0.019</text>
</g>
<!-- 9497&#45;&gt;9207 -->
<g id="edge32" class="edge">
<title>9497&#45;&gt;9207</title>
<path fill="none" stroke="green" stroke-width="0.42" stroke-dasharray="1,5" d="M169.04,-70.6C160.71,-74.62 150.86,-79.37 141.56,-83.86"/>
<polygon fill="green" stroke="green" stroke-width="0.42" points="140,-80.72 132.52,-88.22 143.05,-87.03 140,-80.72"/>
<text text-anchor="middle" x="149.67" y="-78.73" font-family="Times,serif" font-size="5.00">1.590</text>
</g>
<!-- 9497 0&#45;&gt;9207 -->
<g id="edge26" class="edge">
<title>9497 0&#45;&gt;9207</title>
<path fill="none" stroke="green" stroke-width="0.42" stroke-dasharray="1,5" d="M93.3,-154.49C95.05,-148.27 96.93,-141.6 98.75,-135.12"/>
<polygon fill="green" stroke="green" stroke-width="0.42" points="102.2,-135.78 101.55,-125.21 95.47,-133.88 102.2,-135.78"/>
<text text-anchor="middle" x="90.4" y="-146.31" font-family="Times,serif" font-size="5.00">1.590</text>
</g>
<!-- 9497 1&#45;&gt;9207 -->
<g id="edge27" class="edge">
<title>9497 1&#45;&gt;9207</title>
<path fill="none" stroke="green" stroke-width="0.42" stroke-dasharray="1,5" d="M140.02,-60.95C137.35,-64.25 134.58,-67.69 131.83,-71.09"/>
<polygon fill="green" stroke="green" stroke-width="0.42" points="129.09,-68.91 125.53,-78.89 134.54,-73.31 129.09,-68.91"/>
<text text-anchor="middle" x="130.3" y="-67.52" font-family="Times,serif" font-size="5.00">1.590</text>
</g>
<!-- 9497 2&#45;&gt;9207 -->
<g id="edge28" class="edge">
<title>9497 2&#45;&gt;9207</title>
<path fill="none" stroke="green" stroke-width="0.42" stroke-dasharray="1,5" d="M116.39,-57.24C116.01,-59.34 115.62,-61.48 115.24,-63.63"/>
<polygon fill="green" stroke="green" stroke-width="0.42" points="111.78,-63.1 113.45,-73.56 118.66,-64.34 111.78,-63.1"/>
<text text-anchor="middle" x="121.44" y="-61.93" font-family="Times,serif" font-size="5.00">1.590</text>
</g>
<!-- 9497 3&#45;&gt;9207 -->
<g id="edge29" class="edge">
<title>9497 3&#45;&gt;9207</title>
<path fill="none" stroke="green" stroke-width="0.42" stroke-dasharray="1,5" d="M57.67,-93.51C62.5,-94.1 67.57,-94.71 72.55,-95.32"/>
<polygon fill="green" stroke="green" stroke-width="0.42" points="72.23,-98.8 82.58,-96.53 73.07,-91.85 72.23,-98.8"/>
<text text-anchor="middle" x="70.74" y="-95.91" font-family="Times,serif" font-size="5.00">1.590</text>
</g>
<!-- 9497 4&#45;&gt;9207 -->
<g id="edge30" class="edge">
<title>9497 4&#45;&gt;9207</title>
<path fill="none" stroke="green" stroke-width="0.42" stroke-dasharray="1,5" d="M93.68,-62.13C94.16,-63.33 94.65,-64.55 95.14,-65.77"/>
<polygon fill="green" stroke="green" stroke-width="0.42" points="91.89,-67.07 98.86,-75.05 98.39,-64.47 91.89,-67.07"/>
<text text-anchor="middle" x="88.79" y="-65.45" font-family="Times,serif" font-size="5.00">1.590</text>
</g>
<!-- 9497 5&#45;&gt;9207 -->
<g id="edge31" class="edge">
<title>9497 5&#45;&gt;9207</title>
<path fill="none" stroke="green" stroke-width="0.42" stroke-dasharray="1,5" d="M73.81,-74.29C75.48,-75.5 77.17,-76.73 78.86,-77.96"/>
<polygon fill="green" stroke="green" stroke-width="0.42" points="77.1,-81.01 87.24,-84.06 81.21,-75.35 77.1,-81.01"/>
<text text-anchor="middle" x="81.96" y="-71.63" font-family="Times,serif" font-size="5.00">1.590</text>
</g>
</g>
</svg>
