<?xml version="1.0" encoding="UTF-8" standalone="no"?>
<!DOCTYPE svg PUBLIC "-//W3C//DTD SVG 1.1//EN"
 "http://www.w3.org/Graphics/SVG/1.1/DTD/svg11.dtd">
<!-- Generated by graphviz version 2.47.1 (20210417.1919)
 -->
<!-- Pages: 1 -->
<svg width="255pt" height="223pt"
 viewBox="0.00 0.00 255.50 222.80" xmlns="http://www.w3.org/2000/svg" xmlns:xlink="http://www.w3.org/1999/xlink">
<g id="graph0" class="graph" transform="scale(1 1) rotate(0) translate(4 218.8)">
<polygon fill="white" stroke="transparent" points="-4,4 -4,-218.8 251.5,-218.8 251.5,4 -4,4"/>
<!-- &#45;1 -->
<g id="node1" class="node">
<title>&#45;1</title>
<polygon fill="lightgray" stroke="black" points="219.75,-214.7 195.75,-214.7 195.75,-196.1 219.75,-196.1 219.75,-214.7"/>
<text text-anchor="middle" x="207.75" y="-202.7" font-family="Times,serif" font-size="9.00">&#45;1</text>
</g>
<!-- &#45;2 -->
<g id="node2" class="node">
<title>&#45;2</title>
<polygon fill="lightgray" stroke="black" points="107.25,-110.96 83.24,-110.96 83.24,-92.36 107.25,-92.36 107.25,-110.96"/>
<text text-anchor="middle" x="95.24" y="-98.96" font-family="Times,serif" font-size="9.00">&#45;2</text>
</g>
<!-- 0 -->
<g id="node5" class="node">
<title>0</title>
<ellipse fill="lightblue" stroke="black" cx="120.44" cy="-115.32" rx="14.49" ry="14.49"/>
<ellipse fill="none" stroke="black" cx="120.44" cy="-115.32" rx="18.49" ry="18.49"/>
<text text-anchor="middle" x="120.44" y="-112.62" font-family="Times,serif" font-size="9.00">0</text>
</g>
<!-- &#45;2&#45;&gt;0 -->
<g id="edge1" class="edge">
<title>&#45;2&#45;&gt;0</title>
<path fill="none" stroke="green" stroke-width="0.36" d="M107.25,-108.17C107.3,-108.2 107.35,-108.22 107.4,-108.25"/>
<polygon fill="green" stroke="green" stroke-width="0.36" points="97.09,-106.64 107.55,-108.33 100.43,-100.49 97.09,-106.64"/>
<text text-anchor="middle" x="112.95" y="-109.71" font-family="Times,serif" font-size="5.00">1.322</text>
</g>
<!-- 6284 -->
<g id="node6" class="node">
<title>6284</title>
<ellipse fill="white" stroke="black" cx="40.66" cy="-152.1" rx="31.65" ry="31.65"/>
<text text-anchor="middle" x="40.66" y="-149.4" font-family="Times,serif" font-size="9.00">sigmoid</text>
</g>
<!-- &#45;2&#45;&gt;6284 -->
<g id="edge10" class="edge">
<title>&#45;2&#45;&gt;6284</title>
<path fill="none" stroke="green" stroke-width="0.43" d="M84.98,-111.15C81.17,-114.67 76.62,-118.87 71.91,-123.22"/>
<polygon fill="green" stroke="green" stroke-width="0.43" points="69.43,-120.74 64.46,-130.1 74.18,-125.89 69.43,-120.74"/>
<text text-anchor="middle" x="72.82" y="-112.68" font-family="Times,serif" font-size="5.00">1.665</text>
</g>
<!-- 6284 0 -->
<g id="node7" class="node">
<title>6284 0</title>
<ellipse fill="none" stroke="black" cx="135.38" cy="-183.63" rx="28.63" ry="28.63"/>
<text text-anchor="middle" x="135.38" y="-180.93" font-family="Times,serif" font-size="9.00">6284 0</text>
</g>
<!-- &#45;2&#45;&gt;6284 0 -->
<g id="edge3" class="edge">
<title>&#45;2&#45;&gt;6284 0</title>
<path fill="none" stroke="green" stroke-width="0.43" d="M99.85,-111.06C104.33,-120.22 111.43,-134.72 118.1,-148.35"/>
<polygon fill="green" stroke="green" stroke-width="0.43" points="115.08,-150.14 122.62,-157.58 121.37,-147.06 115.08,-150.14"/>
<text text-anchor="middle" x="103.35" y="-131.21" font-family="Times,serif" font-size="5.00">1.665</text>
</g>
<!-- 6284 1 -->
<g id="node8" class="node">
<title>6284 1</title>
<ellipse fill="none" stroke="black" cx="82.87" cy="-185.34" rx="28.63" ry="28.63"/>
<text text-anchor="middle" x="82.87" y="-182.64" font-family="Times,serif" font-size="9.00">6284 1</text>
</g>
<!-- &#45;2&#45;&gt;6284 1 -->
<g id="edge4" class="edge">
<title>&#45;2&#45;&gt;6284 1</title>
<path fill="none" stroke="green" stroke-width="0.43" d="M93.83,-111.26C92.54,-119.93 90.57,-133.29 88.64,-146.29"/>
<polygon fill="green" stroke="green" stroke-width="0.43" points="85.13,-146.13 87.13,-156.54 92.05,-147.16 85.13,-146.13"/>
<text text-anchor="middle" x="85.61" y="-124.27" font-family="Times,serif" font-size="5.00">1.665</text>
</g>
<!-- 6284 2 -->
<g id="node9" class="node">
<title>6284 2</title>
<ellipse fill="none" stroke="black" cx="61.59" cy="-43.06" rx="28.63" ry="28.63"/>
<text text-anchor="middle" x="61.59" y="-40.36" font-family="Times,serif" font-size="9.00">6284 2</text>
</g>
<!-- &#45;2&#45;&gt;6284 2 -->
<g id="edge5" class="edge">
<title>&#45;2&#45;&gt;6284 2</title>
<path fill="none" stroke="green" stroke-width="0.43" d="M89.84,-92.24C87.37,-87.96 84.29,-82.59 81.08,-76.99"/>
<polygon fill="green" stroke="green" stroke-width="0.43" points="84,-75.06 75.99,-68.13 77.93,-78.54 84,-75.06"/>
<text text-anchor="middle" x="79.83" y="-86.12" font-family="Times,serif" font-size="5.00">1.665</text>
</g>
<!-- 6284 3 -->
<g id="node10" class="node">
<title>6284 3</title>
<ellipse fill="none" stroke="black" cx="164.72" cy="-50.58" rx="28.63" ry="28.63"/>
<text text-anchor="middle" x="164.72" y="-47.88" font-family="Times,serif" font-size="9.00">6284 3</text>
</g>
<!-- &#45;2&#45;&gt;6284 3 -->
<g id="edge6" class="edge">
<title>&#45;2&#45;&gt;6284 3</title>
<path fill="none" stroke="green" stroke-width="0.43" d="M107.03,-93C114.2,-87.72 123.74,-80.71 132.99,-73.91"/>
<polygon fill="green" stroke="green" stroke-width="0.43" points="135.34,-76.52 141.33,-67.78 131.2,-70.88 135.34,-76.52"/>
<text text-anchor="middle" x="114.39" y="-84.95" font-family="Times,serif" font-size="5.00">1.665</text>
</g>
<!-- 6284 4 -->
<g id="node11" class="node">
<title>6284 4</title>
<ellipse fill="none" stroke="black" cx="28.81" cy="-94.77" rx="28.63" ry="28.63"/>
<text text-anchor="middle" x="28.81" y="-92.07" font-family="Times,serif" font-size="9.00">6284 4</text>
</g>
<!-- &#45;2&#45;&gt;6284 4 -->
<g id="edge7" class="edge">
<title>&#45;2&#45;&gt;6284 4</title>
<path fill="none" stroke="green" stroke-width="0.43" d="M83.37,-100.43C78.89,-99.96 73.51,-99.41 67.91,-98.83"/>
<polygon fill="green" stroke="green" stroke-width="0.43" points="68.02,-95.32 57.71,-97.77 67.3,-102.28 68.02,-95.32"/>
<text text-anchor="middle" x="70.01" y="-95.13" font-family="Times,serif" font-size="5.00">1.665</text>
</g>
<!-- 6284 5 -->
<g id="node12" class="node">
<title>6284 5</title>
<ellipse fill="none" stroke="black" cx="116.45" cy="-28.81" rx="28.63" ry="28.63"/>
<text text-anchor="middle" x="116.45" y="-26.11" font-family="Times,serif" font-size="9.00">6284 5</text>
</g>
<!-- &#45;2&#45;&gt;6284 5 -->
<g id="edge8" class="edge">
<title>&#45;2&#45;&gt;6284 5</title>
<path fill="none" stroke="green" stroke-width="0.43" d="M98.02,-92.14C99.97,-85.44 102.72,-76 105.5,-66.45"/>
<polygon fill="green" stroke="green" stroke-width="0.43" points="108.94,-67.15 108.37,-56.57 102.22,-65.19 108.94,-67.15"/>
<text text-anchor="middle" x="96.13" y="-80.79" font-family="Times,serif" font-size="5.00">1.665</text>
</g>
<!-- 6284 6 -->
<g id="node13" class="node">
<title>6284 6</title>
<ellipse fill="none" stroke="black" cx="186.94" cy="-98.39" rx="28.63" ry="28.63"/>
<text text-anchor="middle" x="186.94" y="-95.69" font-family="Times,serif" font-size="9.00">6284 6</text>
</g>
<!-- &#45;2&#45;&gt;6284 6 -->
<g id="edge9" class="edge">
<title>&#45;2&#45;&gt;6284 6</title>
<path fill="none" stroke="green" stroke-width="0.43" d="M107.23,-101.23C117.55,-100.87 133.02,-100.31 147.6,-99.79"/>
<polygon fill="green" stroke="green" stroke-width="0.43" points="148.11,-103.28 157.97,-99.42 147.86,-96.28 148.11,-103.28"/>
<text text-anchor="middle" x="121.79" y="-96.01" font-family="Times,serif" font-size="5.00">1.665</text>
</g>
<!-- &#45;3 -->
<g id="node3" class="node">
<title>&#45;3</title>
<polygon fill="lightgray" stroke="black" points="247.75,-18.7 223.75,-18.7 223.75,-0.1 247.75,-0.1 247.75,-18.7"/>
<text text-anchor="middle" x="235.75" y="-6.7" font-family="Times,serif" font-size="9.00">&#45;3</text>
</g>
<!-- &#45;4 -->
<g id="node4" class="node">
<title>&#45;4</title>
<polygon fill="lightgray" stroke="black" points="209.99,-170.45 185.98,-170.45 185.98,-151.85 209.99,-151.85 209.99,-170.45"/>
<text text-anchor="middle" x="197.99" y="-158.45" font-family="Times,serif" font-size="9.00">&#45;4</text>
</g>
<!-- &#45;4&#45;&gt;0 -->
<g id="edge2" class="edge">
<title>&#45;4&#45;&gt;0</title>
<path fill="none" stroke="green" stroke-width="0.5" stroke-dasharray="1,5" d="M186.21,-154.19C175.4,-147.8 159.03,-138.13 145.33,-130.03"/>
<polygon fill="green" stroke="green" stroke-width="0.5" points="146.76,-126.81 136.37,-124.73 143.2,-132.83 146.76,-126.81"/>
<text text-anchor="middle" x="159.31" y="-143.61" font-family="Times,serif" font-size="5.00">&#45;1.988</text>
</g>
<!-- 6284&#45;&gt;0 -->
<g id="edge18" class="edge">
<title>6284&#45;&gt;0</title>
<path fill="none" stroke="green" stroke-width="0.65" d="M69.91,-138.61C77.79,-134.98 86.27,-131.07 93.98,-127.51"/>
<polygon fill="green" stroke="green" stroke-width="0.65" points="95.63,-130.61 103.25,-123.24 92.7,-124.25 95.63,-130.61"/>
<text text-anchor="middle" x="87.57" y="-134.56" font-family="Times,serif" font-size="5.00">2.750</text>
</g>
<!-- 6284 0&#45;&gt;0 -->
<g id="edge11" class="edge">
<title>6284 0&#45;&gt;0</title>
<path fill="none" stroke="green" stroke-width="0.65" d="M129.21,-155.45C128.36,-151.55 127.48,-147.54 126.63,-143.63"/>
<polygon fill="green" stroke="green" stroke-width="0.65" points="130.01,-142.7 124.45,-133.68 123.17,-144.19 130.01,-142.7"/>
<text text-anchor="middle" x="121.46" y="-145.04" font-family="Times,serif" font-size="5.00">&#45;2.750</text>
</g>
<!-- 6284 1&#45;&gt;0 -->
<g id="edge12" class="edge">
<title>6284 1&#45;&gt;0</title>
<path fill="none" stroke="green" stroke-width="0.65" d="M96.64,-159.66C99.94,-153.51 103.46,-146.95 106.76,-140.81"/>
<polygon fill="green" stroke="green" stroke-width="0.65" points="110.04,-142.1 111.68,-131.63 103.87,-138.79 110.04,-142.1"/>
<text text-anchor="middle" x="95.24" y="-151.74" font-family="Times,serif" font-size="5.00">&#45;1.964</text>
</g>
<!-- 6284 2&#45;&gt;0 -->
<g id="edge13" class="edge">
<title>6284 2&#45;&gt;0</title>
<path fill="none" stroke="green" stroke-width="0.65" d="M79.89,-65.52C86.94,-74.19 95,-84.09 102.06,-92.76"/>
<polygon fill="green" stroke="green" stroke-width="0.65" points="99.44,-95.08 108.47,-100.62 104.87,-90.66 99.44,-95.08"/>
<text text-anchor="middle" x="84.52" y="-74.64" font-family="Times,serif" font-size="5.00">&#45;1.178</text>
</g>
<!-- 6284 3&#45;&gt;0 -->
<g id="edge14" class="edge">
<title>6284 3&#45;&gt;0</title>
<path fill="none" stroke="green" stroke-width="0.65" d="M148.23,-74.69C144.42,-80.26 140.37,-86.17 136.58,-91.72"/>
<polygon fill="green" stroke="green" stroke-width="0.65" points="133.66,-89.79 130.9,-100.02 139.43,-93.75 133.66,-89.79"/>
<text text-anchor="middle" x="135.95" y="-84.7" font-family="Times,serif" font-size="5.00">&#45;0.393</text>
</g>
<!-- 6284 4&#45;&gt;0 -->
<g id="edge15" class="edge">
<title>6284 4&#45;&gt;0</title>
<path fill="none" stroke="green" stroke-width="0.65" d="M57.05,-101.1C68.21,-103.61 81,-106.48 92.16,-108.98"/>
<polygon fill="green" stroke="green" stroke-width="0.65" points="91.73,-112.47 102.26,-111.24 93.26,-105.64 91.73,-112.47"/>
<text text-anchor="middle" x="68.98" y="-106.54" font-family="Times,serif" font-size="5.00">0.393</text>
</g>
<!-- 6284 5&#45;&gt;0 -->
<g id="edge16" class="edge">
<title>6284 5&#45;&gt;0</title>
<path fill="none" stroke="green" stroke-width="0.65" d="M117.78,-57.62C118.21,-66.98 118.69,-77.35 119.12,-86.69"/>
<polygon fill="green" stroke="green" stroke-width="0.65" points="115.62,-86.86 119.58,-96.69 122.61,-86.54 115.62,-86.86"/>
<text text-anchor="middle" x="112.82" y="-73.66" font-family="Times,serif" font-size="5.00">1.178</text>
</g>
<!-- 6284 6&#45;&gt;0 -->
<g id="edge17" class="edge">
<title>6284 6&#45;&gt;0</title>
<path fill="none" stroke="green" stroke-width="0.65" d="M158.74,-105.57C155.34,-106.43 151.87,-107.32 148.47,-108.18"/>
<polygon fill="green" stroke="green" stroke-width="0.65" points="147.48,-104.82 138.65,-110.68 149.21,-111.61 147.48,-104.82"/>
<text text-anchor="middle" x="147.98" y="-108.38" font-family="Times,serif" font-size="5.00">1.964</text>
</g>
</g>
</svg>
