<?xml version="1.0" encoding="UTF-8" standalone="no"?>
<!DOCTYPE svg PUBLIC "-//W3C//DTD SVG 1.1//EN"
 "http://www.w3.org/Graphics/SVG/1.1/DTD/svg11.dtd">
<!-- Generated by graphviz version 2.47.1 (20210417.1919)
 -->
<!-- Pages: 1 -->
<svg width="168pt" height="205pt"
 viewBox="0.00 0.00 168.44 204.94" xmlns="http://www.w3.org/2000/svg" xmlns:xlink="http://www.w3.org/1999/xlink">
<g id="graph0" class="graph" transform="scale(1 1) rotate(0) translate(4 200.94)">
<polygon fill="white" stroke="transparent" points="-4,4 -4,-200.94 164.44,-200.94 164.44,4 -4,4"/>
<!-- &#45;1 -->
<g id="node1" class="node">
<title>&#45;1</title>
<polygon fill="lightgray" stroke="black" points="23.75,-95.42 -0.25,-95.42 -0.25,-76.81 23.75,-76.81 23.75,-95.42"/>
<text text-anchor="middle" x="11.75" y="-83.41" font-family="Times,serif" font-size="9.00">&#45;1</text>
</g>
<!-- 0 -->
<g id="node5" class="node">
<title>0</title>
<ellipse fill="lightblue" stroke="black" cx="75.08" cy="-100.09" rx="14.49" ry="14.49"/>
<ellipse fill="none" stroke="black" cx="75.08" cy="-100.09" rx="18.49" ry="18.49"/>
<text text-anchor="middle" x="75.08" y="-97.39" font-family="Times,serif" font-size="9.00">0</text>
</g>
<!-- &#45;1&#45;&gt;0 -->
<g id="edge2" class="edge">
<title>&#45;1&#45;&gt;0</title>
<path fill="none" stroke="red" stroke-width="0.3" stroke-dasharray="1,5" d="M23.66,-88.74C30.21,-90.19 38.64,-92.05 46.77,-93.84"/>
<polygon fill="red" stroke="red" stroke-width="0.3" points="46.22,-97.31 56.74,-96.05 47.73,-90.47 46.22,-97.31"/>
<text text-anchor="middle" x="41.67" y="-92.79" font-family="Times,serif" font-size="5.00">&#45;0.984</text>
</g>
<!-- 21337 -->
<g id="node6" class="node">
<title>21337</title>
<ellipse fill="white" stroke="black" cx="95.82" cy="-48.54" rx="35.19" ry="35.19"/>
<text text-anchor="middle" x="95.82" y="-45.84" font-family="Times,serif" font-size="9.00">heaviside</text>
</g>
<!-- &#45;1&#45;&gt;21337 -->
<g id="edge6" class="edge">
<title>&#45;1&#45;&gt;21337</title>
<path fill="none" stroke="red" stroke-width="0.26" stroke-dasharray="1,5" d="M23.79,-80.73C31.88,-77.12 43.06,-72.12 54.2,-67.14"/>
<polygon fill="red" stroke="red" stroke-width="0.26" points="55.78,-70.27 63.48,-63 52.92,-63.88 55.78,-70.27"/>
<text text-anchor="middle" x="32.54" y="-75.44" font-family="Times,serif" font-size="5.00">&#45;0.818</text>
</g>
<!-- &#45;2 -->
<g id="node2" class="node">
<title>&#45;2</title>
<polygon fill="lightgray" stroke="black" points="160.69,-111.2 136.69,-111.2 136.69,-92.6 160.69,-92.6 160.69,-111.2"/>
<text text-anchor="middle" x="148.69" y="-99.2" font-family="Times,serif" font-size="9.00">&#45;2</text>
</g>
<!-- &#45;2&#45;&gt;0 -->
<g id="edge1" class="edge">
<title>&#45;2&#45;&gt;0</title>
<path fill="none" stroke="red" stroke-width="0.47" stroke-dasharray="1,5" d="M136.86,-101.61C127.96,-101.39 115.38,-101.08 103.88,-100.8"/>
<polygon fill="red" stroke="red" stroke-width="0.47" points="103.86,-97.3 93.77,-100.55 103.68,-104.3 103.86,-97.3"/>
<text text-anchor="middle" x="114.75" y="-102.71" font-family="Times,serif" font-size="5.00">1.850</text>
</g>
<!-- &#45;2&#45;&gt;21337 -->
<g id="edge4" class="edge">
<title>&#45;2&#45;&gt;21337</title>
<path fill="none" stroke="green" stroke-width="0.45" d="M138.99,-92.12C135.79,-88.88 132.03,-85.08 128.08,-81.1"/>
<polygon fill="green" stroke="green" stroke-width="0.45" points="130.39,-78.46 120.87,-73.82 125.42,-83.39 130.39,-78.46"/>
<text text-anchor="middle" x="127.91" y="-88.11" font-family="Times,serif" font-size="5.00">1.726</text>
</g>
<!-- 22364 -->
<g id="node7" class="node">
<title>22364</title>
<ellipse fill="white" stroke="black" cx="114.3" cy="-165.12" rx="31.65" ry="31.65"/>
<text text-anchor="middle" x="114.3" y="-162.42" font-family="Times,serif" font-size="9.00">sigmoid</text>
</g>
<!-- &#45;2&#45;&gt;22364 -->
<g id="edge8" class="edge">
<title>&#45;2&#45;&gt;22364</title>
<path fill="none" stroke="green" stroke-width="0.3" d="M143.62,-111.23C141.1,-115.85 137.89,-121.75 134.52,-127.95"/>
<polygon fill="green" stroke="green" stroke-width="0.3" points="131.23,-126.67 129.53,-137.13 137.38,-130.02 131.23,-126.67"/>
<text text-anchor="middle" x="133.44" y="-121.09" font-family="Times,serif" font-size="5.00">1.000</text>
</g>
<!-- &#45;3 -->
<g id="node3" class="node">
<title>&#45;3</title>
<polygon fill="lightgray" stroke="black" points="53.75,-183.7 29.75,-183.7 29.75,-165.1 53.75,-165.1 53.75,-183.7"/>
<text text-anchor="middle" x="41.75" y="-171.7" font-family="Times,serif" font-size="9.00">&#45;3</text>
</g>
<!-- &#45;4 -->
<g id="node4" class="node">
<title>&#45;4</title>
<polygon fill="lightgray" stroke="black" points="67.51,-18.7 43.5,-18.7 43.5,-0.1 67.51,-0.1 67.51,-18.7"/>
<text text-anchor="middle" x="55.5" y="-6.7" font-family="Times,serif" font-size="9.00">&#45;4</text>
</g>
<!-- &#45;4&#45;&gt;0 -->
<g id="edge3" class="edge">
<title>&#45;4&#45;&gt;0</title>
<path fill="none" stroke="red" stroke-width="0.51" stroke-dasharray="1,5" d="M57.53,-18.76C60.22,-31.23 65.09,-53.83 69.03,-72.04"/>
<polygon fill="red" stroke="red" stroke-width="0.51" points="65.62,-72.85 71.15,-81.88 72.46,-71.37 65.62,-72.85"/>
<text text-anchor="middle" x="56.82" y="-46.9" font-family="Times,serif" font-size="5.00">&#45;2.032</text>
</g>
<!-- &#45;4&#45;&gt;21337 -->
<g id="edge7" class="edge">
<title>&#45;4&#45;&gt;21337</title>
<path fill="none" stroke="green" stroke-width="0.12" d="M65.26,-18.88C65.36,-18.97 65.46,-19.07 65.56,-19.17"/>
<polygon fill="green" stroke="green" stroke-width="0.12" points="60.7,-19.32 70.31,-23.78 65.58,-14.3 60.7,-19.32"/>
<text text-anchor="middle" x="58.96" y="-20.52" font-family="Times,serif" font-size="5.00">&#45;0.080</text>
</g>
<!-- 21337&#45;&gt;0 -->
<g id="edge5" class="edge">
<title>21337&#45;&gt;0</title>
<path fill="none" stroke="green" stroke-width="0.17" d="M82.57,-81.48C82.52,-81.6 82.47,-81.72 82.43,-81.84"/>
<polygon fill="green" stroke="green" stroke-width="0.17" points="82.49,-72.31 82,-82.89 88.98,-74.92 82.49,-72.31"/>
<text text-anchor="middle" x="88.12" y="-77.16" font-family="Times,serif" font-size="5.00">0.365</text>
</g>
<!-- 22364&#45;&gt;0 -->
<g id="edge9" class="edge">
<title>22364&#45;&gt;0</title>
<path fill="none" stroke="red" stroke-width="0.39" d="M97.67,-137.54C95.11,-133.3 92.48,-128.94 89.96,-124.77"/>
<polygon fill="red" stroke="red" stroke-width="0.39" points="92.86,-122.79 84.7,-116.04 86.87,-126.41 92.86,-122.79"/>
<text text-anchor="middle" x="87.36" y="-126.66" font-family="Times,serif" font-size="5.00">&#45;1.428</text>
</g>
</g>
</svg>
