<?xml version="1.0" encoding="UTF-8" standalone="no"?>
<!DOCTYPE svg PUBLIC "-//W3C//DTD SVG 1.1//EN"
 "http://www.w3.org/Graphics/SVG/1.1/DTD/svg11.dtd">
<!-- Generated by graphviz version 2.47.1 (20210417.1919)
 -->
<!-- Pages: 1 -->
<svg width="239pt" height="229pt"
 viewBox="0.00 0.00 239.47 229.25" xmlns="http://www.w3.org/2000/svg" xmlns:xlink="http://www.w3.org/1999/xlink">
<g id="graph0" class="graph" transform="scale(1 1) rotate(0) translate(4 225.25)">
<polygon fill="white" stroke="transparent" points="-4,4 -4,-225.25 235.47,-225.25 235.47,4 -4,4"/>
<!-- &#45;1 -->
<g id="node1" class="node">
<title>&#45;1</title>
<polygon fill="lightgray" stroke="black" points="23.75,-117.17 -0.25,-117.17 -0.25,-98.57 23.75,-98.57 23.75,-117.17"/>
<text text-anchor="middle" x="11.75" y="-105.17" font-family="Times,serif" font-size="9.00">&#45;1</text>
</g>
<!-- 0 -->
<g id="node5" class="node">
<title>0</title>
<ellipse fill="lightblue" stroke="black" cx="108.29" cy="-109.13" rx="14.49" ry="14.49"/>
<ellipse fill="none" stroke="black" cx="108.29" cy="-109.13" rx="18.49" ry="18.49"/>
<text text-anchor="middle" x="108.29" y="-106.43" font-family="Times,serif" font-size="9.00">0</text>
</g>
<!-- &#45;1&#45;&gt;0 -->
<g id="edge2" class="edge">
<title>&#45;1&#45;&gt;0</title>
<path fill="none" stroke="red" stroke-width="0.13" stroke-dasharray="1,5" d="M23.59,-108.03C37.46,-108.21 60.92,-108.51 79.64,-108.75"/>
<polygon fill="red" stroke="red" stroke-width="0.13" points="79.69,-112.26 89.73,-108.89 79.78,-105.26 79.69,-112.26"/>
<text text-anchor="middle" x="45.16" y="-109.89" font-family="Times,serif" font-size="5.00">&#45;0.157</text>
</g>
<!-- &#45;2 -->
<g id="node2" class="node">
<title>&#45;2</title>
<polygon fill="lightgray" stroke="black" points="148.3,-120.27 124.3,-120.27 124.3,-101.66 148.3,-101.66 148.3,-120.27"/>
<text text-anchor="middle" x="136.3" y="-108.26" font-family="Times,serif" font-size="9.00">&#45;2</text>
</g>
<!-- &#45;2&#45;&gt;0 -->
<g id="edge1" class="edge">
<title>&#45;2&#45;&gt;0</title>
<path fill="none" stroke="red" stroke-width="0.5" d="M124.26,-110.18C124.2,-110.17 124.14,-110.17 124.08,-110.16"/>
<polygon fill="red" stroke="red" stroke-width="0.5" points="134.11,-107.32 123.9,-110.15 133.65,-114.3 134.11,-107.32"/>
<text text-anchor="middle" x="118.54" y="-111.67" font-family="Times,serif" font-size="5.00">1.976</text>
</g>
<!-- 22976 -->
<g id="node6" class="node">
<title>22976</title>
<ellipse fill="white" stroke="black" cx="102.46" cy="-185.47" rx="31.65" ry="31.65"/>
<text text-anchor="middle" x="102.46" y="-182.77" font-family="Times,serif" font-size="9.00">sigmoid</text>
</g>
<!-- &#45;2&#45;&gt;22976 -->
<g id="edge14" class="edge">
<title>&#45;2&#45;&gt;22976</title>
<path fill="none" stroke="green" stroke-width="0.21" stroke-dasharray="1,5" d="M132.01,-120.4C128.91,-127.23 124.5,-136.94 120.02,-146.8"/>
<polygon fill="green" stroke="green" stroke-width="0.21" points="116.7,-145.64 115.75,-156.19 123.08,-148.53 116.7,-145.64"/>
<text text-anchor="middle" x="120.39" y="-135.1" font-family="Times,serif" font-size="5.00">0.547</text>
</g>
<!-- 22976 0 -->
<g id="node7" class="node">
<title>22976 0</title>
<ellipse fill="none" stroke="black" cx="48.28" cy="-75.8" rx="31.99" ry="31.99"/>
<text text-anchor="middle" x="48.28" y="-73.1" font-family="Times,serif" font-size="9.00">22976 0</text>
</g>
<!-- &#45;2&#45;&gt;22976 0 -->
<g id="edge5" class="edge">
<title>&#45;2&#45;&gt;22976 0</title>
<path fill="none" stroke="green" stroke-width="0.21" stroke-dasharray="1,5" d="M124.43,-106.22C114.91,-102.42 100.99,-96.86 87.64,-91.53"/>
<polygon fill="green" stroke="green" stroke-width="0.21" points="88.69,-88.17 78.1,-87.71 86.09,-94.67 88.69,-88.17"/>
<text text-anchor="middle" x="111.66" y="-100.37" font-family="Times,serif" font-size="5.00">0.547</text>
</g>
<!-- 22976 1 -->
<g id="node8" class="node">
<title>22976 1</title>
<ellipse fill="none" stroke="black" cx="198.62" cy="-85.86" rx="31.99" ry="31.99"/>
<text text-anchor="middle" x="198.62" y="-83.16" font-family="Times,serif" font-size="9.00">22976 1</text>
</g>
<!-- &#45;2&#45;&gt;22976 1 -->
<g id="edge6" class="edge">
<title>&#45;2&#45;&gt;22976 1</title>
<path fill="none" stroke="green" stroke-width="0.21" stroke-dasharray="1,5" d="M148.31,-106.12C151.62,-104.79 155.39,-103.27 159.35,-101.68"/>
<polygon fill="green" stroke="green" stroke-width="0.21" points="160.82,-104.86 168.79,-97.87 158.21,-98.36 160.82,-104.86"/>
<text text-anchor="middle" x="159.45" y="-105.4" font-family="Times,serif" font-size="5.00">0.547</text>
</g>
<!-- 22976 2 -->
<g id="node9" class="node">
<title>22976 2</title>
<ellipse fill="none" stroke="black" cx="81.62" cy="-48.75" rx="31.99" ry="31.99"/>
<text text-anchor="middle" x="81.62" y="-46.05" font-family="Times,serif" font-size="9.00">22976 2</text>
</g>
<!-- &#45;2&#45;&gt;22976 2 -->
<g id="edge7" class="edge">
<title>&#45;2&#45;&gt;22976 2</title>
<path fill="none" stroke="green" stroke-width="0.21" stroke-dasharray="1,5" d="M127.99,-101.52C122.98,-95.81 116.26,-88.16 109.5,-80.47"/>
<polygon fill="green" stroke="green" stroke-width="0.21" points="112.01,-78.03 102.78,-72.83 106.75,-82.65 112.01,-78.03"/>
<text text-anchor="middle" x="113.12" y="-86.49" font-family="Times,serif" font-size="5.00">0.547</text>
</g>
<!-- 22976 3 -->
<g id="node10" class="node">
<title>22976 3</title>
<ellipse fill="none" stroke="black" cx="175.85" cy="-49.54" rx="31.99" ry="31.99"/>
<text text-anchor="middle" x="175.85" y="-46.84" font-family="Times,serif" font-size="9.00">22976 3</text>
</g>
<!-- &#45;2&#45;&gt;22976 3 -->
<g id="edge8" class="edge">
<title>&#45;2&#45;&gt;22976 3</title>
<path fill="none" stroke="green" stroke-width="0.21" stroke-dasharray="1,5" d="M142.3,-101.64C145.28,-97.02 149.07,-91.13 153.03,-84.97"/>
<polygon fill="green" stroke="green" stroke-width="0.21" points="156.01,-86.82 158.48,-76.52 150.12,-83.03 156.01,-86.82"/>
<text text-anchor="middle" x="142.04" y="-94.8" font-family="Times,serif" font-size="5.00">0.547</text>
</g>
<!-- 22976 4 -->
<g id="node11" class="node">
<title>22976 4</title>
<ellipse fill="none" stroke="black" cx="139.65" cy="-32" rx="31.99" ry="31.99"/>
<text text-anchor="middle" x="139.65" y="-29.3" font-family="Times,serif" font-size="9.00">22976 4</text>
</g>
<!-- &#45;2&#45;&gt;22976 4 -->
<g id="edge9" class="edge">
<title>&#45;2&#45;&gt;22976 4</title>
<path fill="none" stroke="green" stroke-width="0.21" stroke-dasharray="1,5" d="M136.7,-101.6C136.99,-94.67 137.41,-84.7 137.85,-74.47"/>
<polygon fill="green" stroke="green" stroke-width="0.21" points="141.36,-74.38 138.28,-64.24 134.36,-74.08 141.36,-74.38"/>
<text text-anchor="middle" x="131.65" y="-83.53" font-family="Times,serif" font-size="5.00">0.547</text>
</g>
<!-- 22976 5 -->
<g id="node12" class="node">
<title>22976 5</title>
<ellipse fill="none" stroke="black" cx="53.43" cy="-142.19" rx="31.99" ry="31.99"/>
<text text-anchor="middle" x="53.43" y="-139.49" font-family="Times,serif" font-size="9.00">22976 5</text>
</g>
<!-- &#45;2&#45;&gt;22976 5 -->
<g id="edge10" class="edge">
<title>&#45;2&#45;&gt;22976 5</title>
<path fill="none" stroke="green" stroke-width="0.21" stroke-dasharray="1,5" d="M124.42,-115.44C116.1,-118.57 104.46,-122.96 93.01,-127.27"/>
<polygon fill="green" stroke="green" stroke-width="0.21" points="91.64,-124.05 83.51,-130.85 94.1,-130.6 91.64,-124.05"/>
<text text-anchor="middle" x="103.09" y="-122.86" font-family="Times,serif" font-size="5.00">0.547</text>
</g>
<!-- 22976 6 -->
<g id="node13" class="node">
<title>22976 6</title>
<ellipse fill="none" stroke="black" cx="199.47" cy="-130.68" rx="31.99" ry="31.99"/>
<text text-anchor="middle" x="199.47" y="-127.98" font-family="Times,serif" font-size="9.00">22976 6</text>
</g>
<!-- &#45;2&#45;&gt;22976 6 -->
<g id="edge11" class="edge">
<title>&#45;2&#45;&gt;22976 6</title>
<path fill="none" stroke="green" stroke-width="0.21" stroke-dasharray="1,5" d="M148.18,-114.67C151.39,-115.67 155.04,-116.82 158.89,-118.02"/>
<polygon fill="green" stroke="green" stroke-width="0.21" points="158.13,-121.45 168.72,-121.08 160.22,-114.76 158.13,-121.45"/>
<text text-anchor="middle" x="159.16" y="-117.85" font-family="Times,serif" font-size="5.00">0.547</text>
</g>
<!-- 22976 7 -->
<g id="node14" class="node">
<title>22976 7</title>
<ellipse fill="none" stroke="black" cx="177.23" cy="-168.32" rx="31.99" ry="31.99"/>
<text text-anchor="middle" x="177.23" y="-165.62" font-family="Times,serif" font-size="9.00">22976 7</text>
</g>
<!-- &#45;2&#45;&gt;22976 7 -->
<g id="edge12" class="edge">
<title>&#45;2&#45;&gt;22976 7</title>
<path fill="none" stroke="green" stroke-width="0.21" stroke-dasharray="1,5" d="M143.06,-120.44C145.79,-124.27 149.13,-128.95 152.64,-133.86"/>
<polygon fill="green" stroke="green" stroke-width="0.21" points="149.97,-136.14 158.62,-142.25 155.66,-132.08 149.97,-136.14"/>
<text text-anchor="middle" x="142.22" y="-128.65" font-family="Times,serif" font-size="5.00">0.547</text>
</g>
<!-- 22976 8 -->
<g id="node15" class="node">
<title>22976 8</title>
<ellipse fill="none" stroke="black" cx="141.62" cy="-189.25" rx="31.99" ry="31.99"/>
<text text-anchor="middle" x="141.62" y="-186.55" font-family="Times,serif" font-size="9.00">22976 8</text>
</g>
<!-- &#45;2&#45;&gt;22976 8 -->
<g id="edge13" class="edge">
<title>&#45;2&#45;&gt;22976 8</title>
<path fill="none" stroke="green" stroke-width="0.21" stroke-dasharray="1,5" d="M136.95,-120.56C137.42,-127.42 138.08,-137.18 138.76,-147.19"/>
<polygon fill="green" stroke="green" stroke-width="0.21" points="135.27,-147.45 139.44,-157.19 142.26,-146.97 135.27,-147.45"/>
<text text-anchor="middle" x="132.23" y="-135.38" font-family="Times,serif" font-size="5.00">0.547</text>
</g>
<!-- &#45;3 -->
<g id="node3" class="node">
<title>&#45;3</title>
<polygon fill="lightgray" stroke="black" points="94.48,-20.24 70.48,-20.24 70.48,-1.64 94.48,-1.64 94.48,-20.24"/>
<text text-anchor="middle" x="82.48" y="-8.24" font-family="Times,serif" font-size="9.00">&#45;3</text>
</g>
<!-- &#45;3&#45;&gt;0 -->
<g id="edge3" class="edge">
<title>&#45;3&#45;&gt;0</title>
<path fill="none" stroke="green" stroke-width="0.41" stroke-dasharray="1,5" d="M84.96,-20.36C88.6,-34.24 95.57,-60.75 100.95,-81.2"/>
<polygon fill="green" stroke="green" stroke-width="0.41" points="97.59,-82.18 103.51,-90.96 104.36,-80.4 97.59,-82.18"/>
<text text-anchor="middle" x="87.33" y="-52.28" font-family="Times,serif" font-size="5.00">1.536</text>
</g>
<!-- &#45;4 -->
<g id="node4" class="node">
<title>&#45;4</title>
<polygon fill="lightgray" stroke="black" points="62.97,-197.99 38.97,-197.99 38.97,-179.39 62.97,-179.39 62.97,-197.99"/>
<text text-anchor="middle" x="50.97" y="-185.99" font-family="Times,serif" font-size="9.00">&#45;4</text>
</g>
<!-- &#45;4&#45;&gt;0 -->
<g id="edge4" class="edge">
<title>&#45;4&#45;&gt;0</title>
<path fill="none" stroke="red" stroke-width="0.19" stroke-dasharray="1,5" d="M57.77,-179.25C66.03,-167.79 80.24,-148.05 91.5,-132.44"/>
<polygon fill="red" stroke="red" stroke-width="0.19" points="94.38,-134.42 97.39,-124.26 88.7,-130.33 94.38,-134.42"/>
<text text-anchor="middle" x="69.01" y="-157.34" font-family="Times,serif" font-size="5.00">0.444</text>
</g>
<!-- 22976&#45;&gt;0 -->
<g id="edge24" class="edge">
<title>22976&#45;&gt;0</title>
<path fill="none" stroke="red" stroke-width="0.64" d="M104.9,-153.54C105.3,-148.29 105.71,-142.89 106.1,-137.74"/>
<polygon fill="red" stroke="red" stroke-width="0.64" points="109.6,-137.88 106.87,-127.64 102.62,-137.35 109.6,-137.88"/>
<text text-anchor="middle" x="99.04" y="-147.14" font-family="Times,serif" font-size="5.00">&#45;2.717</text>
</g>
<!-- 22976 0&#45;&gt;0 -->
<g id="edge15" class="edge">
<title>22976 0&#45;&gt;0</title>
<path fill="none" stroke="red" stroke-width="0.64" d="M76.53,-91.49C78.65,-92.67 80.79,-93.85 82.89,-95.02"/>
<polygon fill="red" stroke="red" stroke-width="0.64" points="81.35,-98.17 91.79,-99.96 84.75,-92.05 81.35,-98.17"/>
<text text-anchor="middle" x="85.34" y="-94.76" font-family="Times,serif" font-size="5.00">2.717</text>
</g>
<!-- 22976 1&#45;&gt;0 -->
<g id="edge16" class="edge">
<title>22976 1&#45;&gt;0</title>
<path fill="none" stroke="red" stroke-width="0.64" d="M167.53,-93.87C157.31,-96.5 146.01,-99.41 136.05,-101.98"/>
<polygon fill="red" stroke="red" stroke-width="0.64" points="135.06,-98.62 126.25,-104.5 136.81,-105.4 135.06,-98.62"/>
<text text-anchor="middle" x="157.41" y="-93.42" font-family="Times,serif" font-size="5.00">2.114</text>
</g>
<!-- 22976 2&#45;&gt;0 -->
<g id="edge17" class="edge">
<title>22976 2&#45;&gt;0</title>
<path fill="none" stroke="red" stroke-width="0.64" d="M94.64,-78.23C95.31,-79.73 95.97,-81.23 96.62,-82.71"/>
<polygon fill="red" stroke="red" stroke-width="0.64" points="93.57,-84.46 100.81,-92.19 99.97,-81.63 93.57,-84.46"/>
<text text-anchor="middle" x="90.01" y="-81.97" font-family="Times,serif" font-size="5.00">1.510</text>
</g>
<!-- 22976 3&#45;&gt;0 -->
<g id="edge18" class="edge">
<title>22976 3&#45;&gt;0</title>
<path fill="none" stroke="red" stroke-width="0.64" d="M151.84,-70.71C144.75,-76.97 137.04,-83.77 130.1,-89.89"/>
<polygon fill="red" stroke="red" stroke-width="0.64" points="127.57,-87.45 122.39,-96.69 132.2,-92.7 127.57,-87.45"/>
<text text-anchor="middle" x="135.34" y="-75.8" font-family="Times,serif" font-size="5.00">0.906</text>
</g>
<!-- 22976 4&#45;&gt;0 -->
<g id="edge19" class="edge">
<title>22976 4&#45;&gt;0</title>
<path fill="none" stroke="red" stroke-width="0.64" d="M127.44,-62.04C124.73,-68.7 121.87,-75.72 119.22,-82.25"/>
<polygon fill="red" stroke="red" stroke-width="0.64" points="115.79,-81.39 115.26,-91.97 122.27,-84.03 115.79,-81.39"/>
<text text-anchor="middle" x="128.95" y="-67.64" font-family="Times,serif" font-size="5.00">0.302</text>
</g>
<!-- 22976 5&#45;&gt;0 -->
<g id="edge20" class="edge">
<title>22976 5&#45;&gt;0</title>
<path fill="none" stroke="red" stroke-width="0.64" d="M80.86,-125.66C81.85,-125.06 82.84,-124.46 83.83,-123.87"/>
<polygon fill="red" stroke="red" stroke-width="0.64" points="85.66,-126.85 92.42,-118.69 82.05,-120.85 85.66,-126.85"/>
<text text-anchor="middle" x="88.8" y="-126.26" font-family="Times,serif" font-size="5.00">&#45;0.302</text>
</g>
<!-- 22976 6&#45;&gt;0 -->
<g id="edge21" class="edge">
<title>22976 6&#45;&gt;0</title>
<path fill="none" stroke="red" stroke-width="0.64" d="M168.09,-123.26C157.77,-120.82 146.37,-118.13 136.31,-115.75"/>
<polygon fill="red" stroke="red" stroke-width="0.64" points="136.96,-112.31 126.42,-113.41 135.35,-119.12 136.96,-112.31"/>
<text text-anchor="middle" x="145.74" y="-121.01" font-family="Times,serif" font-size="5.00">&#45;0.906</text>
</g>
<!-- 22976 7&#45;&gt;0 -->
<g id="edge22" class="edge">
<title>22976 7&#45;&gt;0</title>
<path fill="none" stroke="red" stroke-width="0.64" d="M152.73,-147.29C145.5,-141.08 137.62,-134.32 130.54,-128.23"/>
<polygon fill="red" stroke="red" stroke-width="0.64" points="132.54,-125.34 122.68,-121.48 127.98,-130.65 132.54,-125.34"/>
<text text-anchor="middle" x="135.18" y="-139.26" font-family="Times,serif" font-size="5.00">&#45;1.510</text>
</g>
<!-- 22976 8&#45;&gt;0 -->
<g id="edge23" class="edge">
<title>22976 8&#45;&gt;0</title>
<path fill="none" stroke="red" stroke-width="0.64" d="M129.21,-159.42C126.02,-151.75 122.6,-143.54 119.48,-136.02"/>
<polygon fill="red" stroke="red" stroke-width="0.64" points="122.65,-134.54 115.58,-126.65 116.19,-137.23 122.65,-134.54"/>
<text text-anchor="middle" x="117.89" y="-149.22" font-family="Times,serif" font-size="5.00">&#45;2.114</text>
</g>
</g>
</svg>
