<?xml version="1.0" encoding="UTF-8" standalone="no"?>
<!DOCTYPE svg PUBLIC "-//W3C//DTD SVG 1.1//EN"
 "http://www.w3.org/Graphics/SVG/1.1/DTD/svg11.dtd">
<!-- Generated by graphviz version 2.47.1 (20210417.1919)
 -->
<!-- Pages: 1 -->
<svg width="182pt" height="192pt"
 viewBox="0.00 0.00 181.80 192.07" xmlns="http://www.w3.org/2000/svg" xmlns:xlink="http://www.w3.org/1999/xlink">
<g id="graph0" class="graph" transform="scale(1 1) rotate(0) translate(4 188.07)">
<polygon fill="white" stroke="transparent" points="-4,4 -4,-188.07 177.8,-188.07 177.8,4 -4,4"/>
<!-- &#45;1 -->
<g id="node1" class="node">
<title>&#45;1</title>
<polygon fill="lightgray" stroke="black" points="23.75,-123.62 -0.25,-123.62 -0.25,-105.02 23.75,-105.02 23.75,-123.62"/>
<text text-anchor="middle" x="11.75" y="-111.62" font-family="Times,serif" font-size="9.00">&#45;1</text>
</g>
<!-- 0 -->
<g id="node5" class="node">
<title>0</title>
<ellipse fill="lightblue" stroke="black" cx="85.76" cy="-87.63" rx="14.49" ry="14.49"/>
<ellipse fill="none" stroke="black" cx="85.76" cy="-87.63" rx="18.49" ry="18.49"/>
<text text-anchor="middle" x="85.76" y="-84.93" font-family="Times,serif" font-size="9.00">0</text>
</g>
<!-- &#45;1&#45;&gt;0 -->
<g id="edge1" class="edge">
<title>&#45;1&#45;&gt;0</title>
<path fill="none" stroke="red" stroke-width="0.49" stroke-dasharray="1,5" d="M23.64,-110.03C33.03,-106.65 46.49,-101.79 58.49,-97.46"/>
<polygon fill="red" stroke="red" stroke-width="0.49" points="59.88,-100.68 68.1,-94 57.51,-94.1 59.88,-100.68"/>
<text text-anchor="middle" x="35.44" y="-105.25" font-family="Times,serif" font-size="5.00">1.945</text>
</g>
<!-- &#45;2 -->
<g id="node2" class="node">
<title>&#45;2</title>
<polygon fill="lightgray" stroke="black" points="174.06,-103.92 150.05,-103.92 150.05,-85.31 174.06,-85.31 174.06,-103.92"/>
<text text-anchor="middle" x="162.06" y="-91.92" font-family="Times,serif" font-size="9.00">&#45;2</text>
</g>
<!-- &#45;2&#45;&gt;0 -->
<g id="edge2" class="edge">
<title>&#45;2&#45;&gt;0</title>
<path fill="none" stroke="green" stroke-width="0.46" d="M150.13,-93.52C140.67,-92.66 127.03,-91.41 114.74,-90.28"/>
<polygon fill="green" stroke="green" stroke-width="0.46" points="114.7,-86.77 104.43,-89.34 114.07,-93.74 114.7,-86.77"/>
<text text-anchor="middle" x="126.81" y="-93.4" font-family="Times,serif" font-size="5.00">1.814</text>
</g>
<!-- 4020 -->
<g id="node6" class="node">
<title>4020</title>
<ellipse fill="white" stroke="black" cx="126.98" cy="-152.24" rx="31.65" ry="31.65"/>
<text text-anchor="middle" x="126.98" y="-149.54" font-family="Times,serif" font-size="9.00">sigmoid</text>
</g>
<!-- &#45;2&#45;&gt;4020 -->
<g id="edge4" class="edge">
<title>&#45;2&#45;&gt;4020</title>
<path fill="none" stroke="green" stroke-width="0.55" d="M156.26,-104.13C154.13,-107.64 151.57,-111.85 148.86,-116.3"/>
<polygon fill="green" stroke="green" stroke-width="0.55" points="145.74,-114.69 143.53,-125.05 151.72,-118.33 145.74,-114.69"/>
<text text-anchor="middle" x="146.93" y="-111.72" font-family="Times,serif" font-size="5.00">2.267</text>
</g>
<!-- &#45;3 -->
<g id="node3" class="node">
<title>&#45;3</title>
<polygon fill="lightgray" stroke="black" points="158.75,-63.7 134.75,-63.7 134.75,-45.1 158.75,-45.1 158.75,-63.7"/>
<text text-anchor="middle" x="146.75" y="-51.7" font-family="Times,serif" font-size="9.00">&#45;3</text>
</g>
<!-- &#45;4 -->
<g id="node4" class="node">
<title>&#45;4</title>
<polygon fill="lightgray" stroke="black" points="88.79,-18.7 64.78,-18.7 64.78,-0.1 88.79,-0.1 88.79,-18.7"/>
<text text-anchor="middle" x="76.78" y="-6.7" font-family="Times,serif" font-size="9.00">&#45;4</text>
</g>
<!-- &#45;4&#45;&gt;0 -->
<g id="edge3" class="edge">
<title>&#45;4&#45;&gt;0</title>
<path fill="none" stroke="green" stroke-width="0.18" d="M77.88,-18.99C79.02,-28.88 80.84,-44.77 82.45,-58.78"/>
<polygon fill="green" stroke="green" stroke-width="0.18" points="79.01,-59.46 83.62,-68.99 85.96,-58.66 79.01,-59.46"/>
<text text-anchor="middle" x="74.54" y="-40.39" font-family="Times,serif" font-size="5.00">0.406</text>
</g>
<!-- 4020&#45;&gt;0 -->
<g id="edge5" class="edge">
<title>4020&#45;&gt;0</title>
<path fill="none" stroke="red" stroke-width="0.27" d="M109.74,-125.22C106.91,-120.78 104,-116.21 101.21,-111.85"/>
<polygon fill="red" stroke="red" stroke-width="0.27" points="104.09,-109.85 95.76,-103.3 98.19,-113.61 104.09,-109.85"/>
<text text-anchor="middle" x="99.02" y="-114.03" font-family="Times,serif" font-size="5.00">&#45;0.831</text>
</g>
</g>
</svg>
