<?xml version="1.0" encoding="UTF-8" standalone="no"?>
<!DOCTYPE svg PUBLIC "-//W3C//DTD SVG 1.1//EN"
 "http://www.w3.org/Graphics/SVG/1.1/DTD/svg11.dtd">
<!-- Generated by graphviz version 2.47.1 (20210417.1919)
 -->
<!-- Pages: 1 -->
<svg width="213pt" height="222pt"
 viewBox="0.00 0.00 213.50 221.80" xmlns="http://www.w3.org/2000/svg" xmlns:xlink="http://www.w3.org/1999/xlink">
<g id="graph0" class="graph" transform="scale(1 1) rotate(0) translate(4 217.8)">
<polygon fill="white" stroke="transparent" points="-4,4 -4,-217.8 209.5,-217.8 209.5,4 -4,4"/>
<!-- &#45;1 -->
<g id="node1" class="node">
<title>&#45;1</title>
<polygon fill="lightgray" stroke="black" points="192.75,-213.7 168.75,-213.7 168.75,-195.1 192.75,-195.1 192.75,-213.7"/>
<text text-anchor="middle" x="180.75" y="-201.7" font-family="Times,serif" font-size="9.00">&#45;1</text>
</g>
<!-- &#45;2 -->
<g id="node2" class="node">
<title>&#45;2</title>
<polygon fill="lightgray" stroke="black" points="25.93,-53.68 1.93,-53.68 1.93,-35.08 25.93,-35.08 25.93,-53.68"/>
<text text-anchor="middle" x="13.93" y="-41.68" font-family="Times,serif" font-size="9.00">&#45;2</text>
</g>
<!-- 0 -->
<g id="node5" class="node">
<title>0</title>
<ellipse fill="lightblue" stroke="black" cx="74.62" cy="-18.5" rx="14.49" ry="14.49"/>
<ellipse fill="none" stroke="black" cx="74.62" cy="-18.5" rx="18.49" ry="18.49"/>
<text text-anchor="middle" x="74.62" y="-15.8" font-family="Times,serif" font-size="9.00">0</text>
</g>
<!-- &#45;2&#45;&gt;0 -->
<g id="edge1" class="edge">
<title>&#45;2&#45;&gt;0</title>
<path fill="none" stroke="red" stroke-width="0.39" stroke-dasharray="1,5" d="M25.92,-39.27C32.23,-36.57 40.25,-33.15 47.94,-29.87"/>
<polygon fill="red" stroke="red" stroke-width="0.39" points="49.54,-33 57.37,-25.85 46.8,-26.56 49.54,-33"/>
<text text-anchor="middle" x="30.47" y="-30.07" font-family="Times,serif" font-size="5.00">&#45;1.470</text>
</g>
<!-- 3639 -->
<g id="node8" class="node">
<title>3639</title>
<ellipse fill="white" stroke="black" cx="74.49" cy="-108.62" rx="35.19" ry="35.19"/>
<text text-anchor="middle" x="74.49" y="-105.92" font-family="Times,serif" font-size="9.00">heaviside</text>
</g>
<!-- &#45;2&#45;&gt;3639 -->
<g id="edge5" class="edge">
<title>&#45;2&#45;&gt;3639</title>
<path fill="none" stroke="green" stroke-width="0.23" d="M22.86,-53.86C28.24,-59.56 35.45,-67.21 42.77,-74.97"/>
<polygon fill="green" stroke="green" stroke-width="0.23" points="40.66,-77.84 50.07,-82.71 45.75,-73.03 40.66,-77.84"/>
<text text-anchor="middle" x="27.19" y="-65.92" font-family="Times,serif" font-size="5.00">0.669</text>
</g>
<!-- 3639 0 -->
<g id="node9" class="node">
<title>3639 0</title>
<ellipse fill="none" stroke="black" cx="66.87" cy="-85.58" rx="28.63" ry="28.63"/>
<text text-anchor="middle" x="66.87" y="-82.88" font-family="Times,serif" font-size="9.00">3639 0</text>
</g>
<!-- &#45;2&#45;&gt;3639 0 -->
<g id="edge3" class="edge">
<title>&#45;2&#45;&gt;3639 0</title>
<path fill="none" stroke="green" stroke-width="0.23" d="M25.68,-53.52C28.78,-55.94 32.27,-58.66 35.88,-61.47"/>
<polygon fill="green" stroke="green" stroke-width="0.23" points="33.82,-64.3 43.86,-67.68 38.12,-58.77 33.82,-64.3"/>
<text text-anchor="middle" x="25.15" y="-59" font-family="Times,serif" font-size="5.00">0.669</text>
</g>
<!-- 3639 1 -->
<g id="node10" class="node">
<title>3639 1</title>
<ellipse fill="none" stroke="black" cx="86.56" cy="-92.98" rx="28.63" ry="28.63"/>
<text text-anchor="middle" x="86.56" y="-90.28" font-family="Times,serif" font-size="9.00">3639 1</text>
</g>
<!-- &#45;2&#45;&gt;3639 1 -->
<g id="edge4" class="edge">
<title>&#45;2&#45;&gt;3639 1</title>
<path fill="none" stroke="green" stroke-width="0.23" d="M25.92,-52.4C33.59,-57.53 43.93,-64.45 53.9,-71.12"/>
<polygon fill="green" stroke="green" stroke-width="0.23" points="52.23,-74.22 62.49,-76.87 56.13,-68.4 52.23,-74.22"/>
<text text-anchor="middle" x="34.29" y="-57.26" font-family="Times,serif" font-size="5.00">0.669</text>
</g>
<!-- &#45;3 -->
<g id="node3" class="node">
<title>&#45;3</title>
<polygon fill="lightgray" stroke="black" points="205.75,-44.7 181.75,-44.7 181.75,-26.1 205.75,-26.1 205.75,-44.7"/>
<text text-anchor="middle" x="193.75" y="-32.7" font-family="Times,serif" font-size="9.00">&#45;3</text>
</g>
<!-- &#45;4 -->
<g id="node4" class="node">
<title>&#45;4</title>
<polygon fill="lightgray" stroke="black" points="148.62,-82.71 124.62,-82.71 124.62,-64.11 148.62,-64.11 148.62,-82.71"/>
<text text-anchor="middle" x="136.62" y="-70.71" font-family="Times,serif" font-size="9.00">&#45;4</text>
</g>
<!-- &#45;4&#45;&gt;0 -->
<g id="edge2" class="edge">
<title>&#45;4&#45;&gt;0</title>
<path fill="none" stroke="red" stroke-width="0.31" d="M126.1,-64.1C118.03,-56.95 106.61,-46.83 96.58,-37.94"/>
<polygon fill="red" stroke="red" stroke-width="0.31" points="98.72,-35.17 88.92,-31.16 94.08,-40.41 98.72,-35.17"/>
<text text-anchor="middle" x="105.71" y="-52.52" font-family="Times,serif" font-size="5.00">1.074</text>
</g>
<!-- 5134 -->
<g id="node7" class="node">
<title>5134</title>
<ellipse fill="white" stroke="black" cx="128" cy="-145.74" rx="22.04" ry="22.04"/>
<text text-anchor="middle" x="128" y="-143.04" font-family="Times,serif" font-size="9.00">tanh</text>
</g>
<!-- &#45;4&#45;&gt;5134 -->
<g id="edge14" class="edge">
<title>&#45;4&#45;&gt;5134</title>
<path fill="none" stroke="red" stroke-width="0.39" stroke-dasharray="1,5" d="M135.49,-82.87C134.56,-90.73 133.17,-102.38 131.84,-113.53"/>
<polygon fill="red" stroke="red" stroke-width="0.39" points="128.36,-113.16 130.65,-123.5 135.31,-113.99 128.36,-113.16"/>
<text text-anchor="middle" x="140.12" y="-93.7" font-family="Times,serif" font-size="5.00">&#45;1.464</text>
</g>
<!-- &#45;4&#45;&gt;3639 -->
<g id="edge11" class="edge">
<title>&#45;4&#45;&gt;3639</title>
<path fill="none" stroke="green" stroke-width="0.2" d="M124.64,-80.2C121.51,-81.98 117.95,-83.99 114.21,-86.11"/>
<polygon fill="green" stroke="green" stroke-width="0.2" points="112.25,-83.2 105.27,-91.18 115.7,-89.29 112.25,-83.2"/>
<text text-anchor="middle" x="125.05" y="-84.66" font-family="Times,serif" font-size="5.00">0.485</text>
</g>
<!-- &#45;4&#45;&gt;3639 0 -->
<g id="edge9" class="edge">
<title>&#45;4&#45;&gt;3639 0</title>
<path fill="none" stroke="green" stroke-width="0.2" d="M124.79,-75.48C119.36,-76.43 112.57,-77.61 105.58,-78.83"/>
<polygon fill="green" stroke="green" stroke-width="0.2" points="104.58,-75.45 95.33,-80.62 105.78,-82.35 104.58,-75.45"/>
<text text-anchor="middle" x="120.81" y="-78.65" font-family="Times,serif" font-size="5.00">0.485</text>
</g>
<!-- &#45;4&#45;&gt;3639 1 -->
<g id="edge10" class="edge">
<title>&#45;4&#45;&gt;3639 1</title>
<path fill="none" stroke="green" stroke-width="0.2" d="M124.76,-78.05C124.23,-78.25 123.7,-78.46 123.15,-78.68"/>
<polygon fill="green" stroke="green" stroke-width="0.2" points="121.78,-75.45 113.74,-82.35 124.33,-81.97 121.78,-75.45"/>
<text text-anchor="middle" x="118.33" y="-73.86" font-family="Times,serif" font-size="5.00">0.485</text>
</g>
<!-- 5134 0 -->
<g id="node11" class="node">
<title>5134 0</title>
<ellipse fill="none" stroke="black" cx="28.81" cy="-114.39" rx="28.63" ry="28.63"/>
<text text-anchor="middle" x="28.81" y="-111.69" font-family="Times,serif" font-size="9.00">5134 0</text>
</g>
<!-- &#45;4&#45;&gt;5134 0 -->
<g id="edge12" class="edge">
<title>&#45;4&#45;&gt;5134 0</title>
<path fill="none" stroke="red" stroke-width="0.39" stroke-dasharray="1,5" d="M124.67,-77.96C110.47,-83.35 86.11,-92.61 65.5,-100.45"/>
<polygon fill="red" stroke="red" stroke-width="0.39" points="64.15,-97.21 56.05,-104.04 66.64,-103.76 64.15,-97.21"/>
<text text-anchor="middle" x="101.54" y="-90.7" font-family="Times,serif" font-size="5.00">&#45;1.464</text>
</g>
<!-- 5134 1 -->
<g id="node12" class="node">
<title>5134 1</title>
<ellipse fill="none" stroke="black" cx="141.3" cy="-128.99" rx="28.63" ry="28.63"/>
<text text-anchor="middle" x="141.3" y="-126.29" font-family="Times,serif" font-size="9.00">5134 1</text>
</g>
<!-- &#45;4&#45;&gt;5134 1 -->
<g id="edge13" class="edge">
<title>&#45;4&#45;&gt;5134 1</title>
<path fill="none" stroke="red" stroke-width="0.39" stroke-dasharray="1,5" d="M137.41,-82.84C137.6,-85.03 137.8,-87.49 138.03,-90.12"/>
<polygon fill="red" stroke="red" stroke-width="0.39" points="134.54,-90.42 138.86,-100.09 141.51,-89.83 134.54,-90.42"/>
<text text-anchor="middle" x="144.18" y="-87.98" font-family="Times,serif" font-size="5.00">&#45;1.464</text>
</g>
<!-- 6300 -->
<g id="node6" class="node">
<title>6300</title>
<ellipse fill="white" stroke="black" cx="82.46" cy="-173.44" rx="31.67" ry="31.67"/>
<ellipse fill="none" stroke="black" cx="82.46" cy="-173.44" rx="35.65" ry="35.65"/>
<text text-anchor="middle" x="82.46" y="-170.74" font-family="Times,serif" font-size="9.00">sigmoid</text>
</g>
<!-- 6300&#45;&gt;3639 -->
<g id="edge41" class="edge">
<title>6300&#45;&gt;3639</title>
<path fill="none" stroke="red" stroke-width="0.1" d="M78.05,-137.62C78.05,-137.56 78.04,-137.5 78.03,-137.44"/>
<polygon fill="red" stroke="red" stroke-width="0.1" points="82.71,-146.76 78.01,-137.26 75.76,-147.62 82.71,-146.76"/>
<text text-anchor="middle" x="84.5" y="-133.03" font-family="Times,serif" font-size="5.00">&#45;0.021</text>
</g>
<!-- 6300&#45;&gt;3639 0 -->
<g id="edge35" class="edge">
<title>6300&#45;&gt;3639 0</title>
<path fill="none" stroke="red" stroke-width="0.1" d="M76.16,-137.96C75.35,-133.39 74.52,-128.69 73.7,-124.08"/>
<polygon fill="red" stroke="red" stroke-width="0.1" points="77.14,-123.42 71.94,-114.18 70.24,-124.64 77.14,-123.42"/>
<text text-anchor="middle" x="68.47" y="-126.52" font-family="Times,serif" font-size="5.00">&#45;0.021</text>
</g>
<!-- 6300&#45;&gt;3639 1 -->
<g id="edge38" class="edge">
<title>6300&#45;&gt;3639 1</title>
<path fill="none" stroke="red" stroke-width="0.1" d="M84.29,-137.44C84.38,-135.66 84.47,-133.87 84.57,-132.07"/>
<polygon fill="red" stroke="red" stroke-width="0.1" points="88.07,-132.11 85.08,-121.94 81.08,-131.75 88.07,-132.11"/>
<text text-anchor="middle" x="90.89" y="-130.26" font-family="Times,serif" font-size="5.00">&#45;0.021</text>
</g>
<!-- 5134&#45;&gt;6300 -->
<g id="edge32" class="edge">
<title>5134&#45;&gt;6300</title>
<path fill="none" stroke="green" stroke-width="0.3" stroke-dasharray="1,5" d="M108.95,-157.33C108.9,-157.36 108.85,-157.39 108.8,-157.42"/>
<polygon fill="green" stroke="green" stroke-width="0.3" points="115.38,-149.31 108.66,-157.5 119.02,-155.3 115.38,-149.31"/>
<text text-anchor="middle" x="103.25" y="-158.87" font-family="Times,serif" font-size="5.00">1.000</text>
</g>
<!-- 5134&#45;&gt;3639 -->
<g id="edge23" class="edge">
<title>5134&#45;&gt;3639</title>
<path fill="none" stroke="red" stroke-width="0.1" stroke-dasharray="1,5" d="M109.59,-132.96C109.47,-132.88 109.34,-132.79 109.22,-132.71"/>
<polygon fill="red" stroke="red" stroke-width="0.1" points="113.85,-131.66 103.63,-128.83 109.86,-137.41 113.85,-131.66"/>
<text text-anchor="middle" x="106.18" y="-128.34" font-family="Times,serif" font-size="5.00">&#45;0.021</text>
</g>
<!-- 5134&#45;&gt;3639 0 -->
<g id="edge17" class="edge">
<title>5134&#45;&gt;3639 0</title>
<path fill="none" stroke="red" stroke-width="0.1" stroke-dasharray="1,5" d="M111.94,-129.93C106.67,-124.74 100.64,-118.82 94.75,-113.02"/>
<polygon fill="red" stroke="red" stroke-width="0.1" points="97.02,-110.34 87.43,-105.82 92.11,-115.33 97.02,-110.34"/>
<text text-anchor="middle" x="96.89" y="-116.98" font-family="Times,serif" font-size="5.00">&#45;0.021</text>
</g>
<!-- 5134&#45;&gt;3639 1 -->
<g id="edge20" class="edge">
<title>5134&#45;&gt;3639 1</title>
<path fill="none" stroke="red" stroke-width="0.1" stroke-dasharray="1,5" d="M114.2,-128.17C113.13,-126.81 112.04,-125.41 110.93,-124"/>
<polygon fill="red" stroke="red" stroke-width="0.1" points="113.43,-121.52 104.5,-115.82 107.93,-125.84 113.43,-121.52"/>
<text text-anchor="middle" x="119.02" y="-127.58" font-family="Times,serif" font-size="5.00">&#45;0.021</text>
</g>
<!-- 6300 0 -->
<g id="node13" class="node">
<title>6300 0</title>
<ellipse fill="none" stroke="black" cx="123.54" cy="-57.54" rx="28.63" ry="28.63"/>
<text text-anchor="middle" x="123.54" y="-54.84" font-family="Times,serif" font-size="9.00">6300 0</text>
</g>
<!-- 5134&#45;&gt;6300 0 -->
<g id="edge26" class="edge">
<title>5134&#45;&gt;6300 0</title>
<path fill="none" stroke="green" stroke-width="0.3" stroke-dasharray="1,5" d="M126.88,-123.48C126.46,-115.32 125.98,-105.83 125.52,-96.64"/>
<polygon fill="green" stroke="green" stroke-width="0.3" points="129,-96.27 125,-86.46 122.01,-96.63 129,-96.27"/>
<text text-anchor="middle" x="131.82" y="-111.56" font-family="Times,serif" font-size="5.00">1.000</text>
</g>
<!-- 6300 1 -->
<g id="node14" class="node">
<title>6300 1</title>
<ellipse fill="none" stroke="black" cx="54.12" cy="-165.68" rx="28.63" ry="28.63"/>
<text text-anchor="middle" x="54.12" y="-162.98" font-family="Times,serif" font-size="9.00">6300 1</text>
</g>
<!-- 5134&#45;&gt;6300 1 -->
<g id="edge29" class="edge">
<title>5134&#45;&gt;6300 1</title>
<path fill="none" stroke="green" stroke-width="0.3" stroke-dasharray="1,5" d="M106.23,-151.61C101.74,-152.83 96.87,-154.14 91.99,-155.46"/>
<polygon fill="green" stroke="green" stroke-width="0.3" points="90.79,-152.16 82.04,-158.14 92.61,-158.91 90.79,-152.16"/>
<text text-anchor="middle" x="96.3" y="-149.03" font-family="Times,serif" font-size="5.00">1.000</text>
</g>
<!-- 3639&#45;&gt;0 -->
<g id="edge8" class="edge">
<title>3639&#45;&gt;0</title>
<path fill="none" stroke="green" stroke-width="0.46" d="M74.54,-73.26C74.55,-64.68 74.57,-55.62 74.58,-47.39"/>
<polygon fill="green" stroke="green" stroke-width="0.46" points="78.08,-47.16 74.59,-37.15 71.08,-47.15 78.08,-47.16"/>
<text text-anchor="middle" x="68.93" y="-55.82" font-family="Times,serif" font-size="5.00">1.791</text>
</g>
<!-- 3639 0&#45;&gt;0 -->
<g id="edge6" class="edge">
<title>3639 0&#45;&gt;0</title>
<path fill="none" stroke="green" stroke-width="0.46" d="M70.2,-56.74C70.57,-53.51 70.95,-50.22 71.33,-46.99"/>
<polygon fill="green" stroke="green" stroke-width="0.46" points="74.81,-47.37 72.48,-37.04 67.85,-46.57 74.81,-47.37"/>
<text text-anchor="middle" x="64.31" y="-47.36" font-family="Times,serif" font-size="5.00">&#45;1.791</text>
</g>
<!-- 3639 1&#45;&gt;0 -->
<g id="edge7" class="edge">
<title>3639 1&#45;&gt;0</title>
<path fill="none" stroke="green" stroke-width="0.46" d="M81.98,-64.39C81.06,-58.65 80.09,-52.62 79.17,-46.88"/>
<polygon fill="green" stroke="green" stroke-width="0.46" points="82.63,-46.32 77.59,-37 75.71,-47.43 82.63,-46.32"/>
<text text-anchor="middle" x="86.2" y="-51.14" font-family="Times,serif" font-size="5.00">0.000</text>
</g>
<!-- 5134 0&#45;&gt;6300 -->
<g id="edge30" class="edge">
<title>5134 0&#45;&gt;6300</title>
<path fill="none" stroke="green" stroke-width="0.3" stroke-dasharray="1,5" d="M48.48,-136.04C49.36,-137.01 50.24,-137.98 51.14,-138.96"/>
<polygon fill="green" stroke="green" stroke-width="0.3" points="48.73,-141.52 58.04,-146.57 53.91,-136.81 48.73,-141.52"/>
<text text-anchor="middle" x="44.18" y="-133" font-family="Times,serif" font-size="5.00">1.000</text>
</g>
<!-- 5134 0&#45;&gt;3639 -->
<g id="edge21" class="edge">
<title>5134 0&#45;&gt;3639</title>
<path fill="none" stroke="red" stroke-width="0.1" stroke-dasharray="1,5" d="M57.48,-110.77C57.55,-110.76 57.62,-110.75 57.7,-110.74"/>
<polygon fill="red" stroke="red" stroke-width="0.1" points="48.43,-115.44 57.91,-110.71 47.55,-108.5 48.43,-115.44"/>
<text text-anchor="middle" x="51.13" y="-112.25" font-family="Times,serif" font-size="5.00">&#45;0.021</text>
</g>
<!-- 5134 0&#45;&gt;3639 0 -->
<g id="edge15" class="edge">
<title>5134 0&#45;&gt;3639 0</title>
<path fill="none" stroke="red" stroke-width="0.1" stroke-dasharray="1,5" d="M51.83,-96.97C51.89,-96.92 51.95,-96.87 52.02,-96.83"/>
<polygon fill="red" stroke="red" stroke-width="0.1" points="46.34,-105.51 52.2,-96.69 42.12,-99.93 46.34,-105.51"/>
<text text-anchor="middle" x="45.47" y="-98.4" font-family="Times,serif" font-size="5.00">&#45;0.021</text>
</g>
<!-- 5134 0&#45;&gt;3639 1 -->
<g id="edge18" class="edge">
<title>5134 0&#45;&gt;3639 1</title>
<path fill="none" stroke="red" stroke-width="0.1" stroke-dasharray="1,5" d="M56,-104.31C56.14,-104.26 56.29,-104.2 56.44,-104.15"/>
<polygon fill="red" stroke="red" stroke-width="0.1" points="51.35,-109.77 59.51,-103.01 48.92,-103.2 51.35,-109.77"/>
<text text-anchor="middle" x="49.76" y="-105.73" font-family="Times,serif" font-size="5.00">&#45;0.021</text>
</g>
<!-- 5134 0&#45;&gt;6300 0 -->
<g id="edge24" class="edge">
<title>5134 0&#45;&gt;6300 0</title>
<path fill="none" stroke="green" stroke-width="0.3" stroke-dasharray="1,5" d="M53.7,-99.45C64.8,-92.79 78.03,-84.85 89.98,-77.68"/>
<polygon fill="green" stroke="green" stroke-width="0.3" points="92.04,-80.52 98.82,-72.37 88.44,-74.52 92.04,-80.52"/>
<text text-anchor="middle" x="66.22" y="-90.06" font-family="Times,serif" font-size="5.00">1.000</text>
</g>
<!-- 5134 0&#45;&gt;6300 1 -->
<g id="edge27" class="edge">
<title>5134 0&#45;&gt;6300 1</title>
<path fill="none" stroke="green" stroke-width="0.3" stroke-dasharray="1,5" d="M41.62,-140.33C41.64,-140.38 41.66,-140.43 41.69,-140.48"/>
<polygon fill="green" stroke="green" stroke-width="0.3" points="34.2,-133.21 41.76,-140.63 40.47,-130.11 34.2,-133.21"/>
<text text-anchor="middle" x="36.03" y="-141.91" font-family="Times,serif" font-size="5.00">1.000</text>
</g>
<!-- 5134 1&#45;&gt;6300 -->
<g id="edge31" class="edge">
<title>5134 1&#45;&gt;6300</title>
<path fill="none" stroke="green" stroke-width="0.3" stroke-dasharray="1,5" d="M118.04,-146.56C117.9,-146.66 117.77,-146.76 117.63,-146.87"/>
<polygon fill="green" stroke="green" stroke-width="0.3" points="117.26,-142.76 111.4,-151.58 121.48,-148.34 117.26,-142.76"/>
<text text-anchor="middle" x="115.02" y="-142.21" font-family="Times,serif" font-size="5.00">1.000</text>
</g>
<!-- 5134 1&#45;&gt;3639 -->
<g id="edge22" class="edge">
<title>5134 1&#45;&gt;3639</title>
<path fill="none" stroke="red" stroke-width="0.1" stroke-dasharray="1,5" d="M113.35,-120.47C113.25,-120.44 113.15,-120.41 113.06,-120.38"/>
<polygon fill="red" stroke="red" stroke-width="0.1" points="119.18,-118.59 108.6,-119.02 117.14,-125.28 119.18,-118.59"/>
<text text-anchor="middle" x="116.43" y="-115.92" font-family="Times,serif" font-size="5.00">&#45;0.021</text>
</g>
<!-- 5134 1&#45;&gt;3639 0 -->
<g id="edge16" class="edge">
<title>5134 1&#45;&gt;3639 0</title>
<path fill="none" stroke="red" stroke-width="0.1" stroke-dasharray="1,5" d="M116.1,-114.29C111.07,-111.36 105.72,-108.24 100.47,-105.18"/>
<polygon fill="red" stroke="red" stroke-width="0.1" points="102.19,-102.13 91.79,-100.12 98.66,-108.18 102.19,-102.13"/>
<text text-anchor="middle" x="101.82" y="-111.24" font-family="Times,serif" font-size="5.00">&#45;0.021</text>
</g>
<!-- 5134 1&#45;&gt;3639 1 -->
<g id="edge19" class="edge">
<title>5134 1&#45;&gt;3639 1</title>
<path fill="none" stroke="red" stroke-width="0.1" stroke-dasharray="1,5" d="M117.13,-113.09C117,-113 116.87,-112.92 116.74,-112.83"/>
<polygon fill="red" stroke="red" stroke-width="0.1" points="121.19,-111.57 110.92,-109 117.35,-117.42 121.19,-111.57"/>
<text text-anchor="middle" x="116.94" y="-108.46" font-family="Times,serif" font-size="5.00">&#45;0.021</text>
</g>
<!-- 5134 1&#45;&gt;6300 0 -->
<g id="edge25" class="edge">
<title>5134 1&#45;&gt;6300 0</title>
<path fill="none" stroke="green" stroke-width="0.3" stroke-dasharray="1,5" d="M134.28,-100.75C133.85,-99.03 133.42,-97.29 132.98,-95.54"/>
<polygon fill="green" stroke="green" stroke-width="0.3" points="136.31,-94.43 130.5,-85.57 129.52,-96.12 136.31,-94.43"/>
<text text-anchor="middle" x="128" y="-93.65" font-family="Times,serif" font-size="5.00">1.000</text>
</g>
<!-- 5134 1&#45;&gt;6300 1 -->
<g id="edge28" class="edge">
<title>5134 1&#45;&gt;6300 1</title>
<path fill="none" stroke="green" stroke-width="0.3" stroke-dasharray="1,5" d="M114.67,-140.2C106.96,-143.44 98.43,-147.03 90.25,-150.47"/>
<polygon fill="green" stroke="green" stroke-width="0.3" points="88.75,-147.31 80.89,-154.41 91.46,-153.76 88.75,-147.31"/>
<text text-anchor="middle" x="96.83" y="-146.83" font-family="Times,serif" font-size="5.00">1.000</text>
</g>
<!-- 6300 0&#45;&gt;3639 -->
<g id="edge39" class="edge">
<title>6300 0&#45;&gt;3639</title>
<path fill="none" stroke="red" stroke-width="0.1" d="M103.3,-78.61C103.22,-78.7 103.13,-78.79 103.05,-78.88"/>
<polygon fill="red" stroke="red" stroke-width="0.1" points="103.55,-73.3 99.15,-82.93 108.6,-78.14 103.55,-73.3"/>
<text text-anchor="middle" x="106.4" y="-74.24" font-family="Times,serif" font-size="5.00">&#45;0.021</text>
</g>
<!-- 6300 0&#45;&gt;3639 0 -->
<g id="edge33" class="edge">
<title>6300 0&#45;&gt;3639 0</title>
<path fill="none" stroke="red" stroke-width="0.1" d="M97.52,-70.41C97.43,-70.46 97.34,-70.5 97.24,-70.55"/>
<polygon fill="red" stroke="red" stroke-width="0.1" points="100.39,-65.09 92.98,-72.66 103.49,-71.36 100.39,-65.09"/>
<text text-anchor="middle" x="103.84" y="-65.98" font-family="Times,serif" font-size="5.00">&#45;0.021</text>
</g>
<!-- 6300 0&#45;&gt;3639 1 -->
<g id="edge36" class="edge">
<title>6300 0&#45;&gt;3639 1</title>
<path fill="none" stroke="red" stroke-width="0.1" d="M102.46,-77.74C102.39,-77.8 102.33,-77.86 102.26,-77.93"/>
<polygon fill="red" stroke="red" stroke-width="0.1" points="106.87,-68.66 102.07,-78.11 111.71,-73.72 106.87,-68.66"/>
<text text-anchor="middle" x="105.59" y="-73.33" font-family="Times,serif" font-size="5.00">&#45;0.021</text>
</g>
<!-- 6300 1&#45;&gt;3639 -->
<g id="edge40" class="edge">
<title>6300 1&#45;&gt;3639</title>
<path fill="none" stroke="red" stroke-width="0.1" d="M63.83,-138.48C63.85,-138.43 63.87,-138.37 63.89,-138.31"/>
<polygon fill="red" stroke="red" stroke-width="0.1" points="63.88,-148.73 63.95,-138.14 57.29,-146.38 63.88,-148.73"/>
<text text-anchor="middle" x="70.31" y="-133.9" font-family="Times,serif" font-size="5.00">&#45;0.021</text>
</g>
<!-- 6300 1&#45;&gt;3639 0 -->
<g id="edge34" class="edge">
<title>6300 1&#45;&gt;3639 0</title>
<path fill="none" stroke="red" stroke-width="0.1" d="M58.65,-137.21C59.32,-133.02 60.02,-128.63 60.71,-124.27"/>
<polygon fill="red" stroke="red" stroke-width="0.1" points="64.19,-124.65 62.31,-114.23 57.28,-123.55 64.19,-124.65"/>
<text text-anchor="middle" x="53.22" y="-126.24" font-family="Times,serif" font-size="5.00">&#45;0.021</text>
</g>
<!-- 6300 1&#45;&gt;3639 1 -->
<g id="edge37" class="edge">
<title>6300 1&#45;&gt;3639 1</title>
<path fill="none" stroke="red" stroke-width="0.1" d="M66.02,-139.02C67.47,-135.76 68.97,-132.39 70.48,-129.02"/>
<polygon fill="red" stroke="red" stroke-width="0.1" points="73.79,-130.19 74.67,-119.63 67.4,-127.34 73.79,-130.19"/>
<text text-anchor="middle" x="71.47" y="-129.52" font-family="Times,serif" font-size="5.00">&#45;0.021</text>
</g>
</g>
</svg>
