<?xml version="1.0" encoding="UTF-8" standalone="no"?>
<!DOCTYPE svg PUBLIC "-//W3C//DTD SVG 1.1//EN"
 "http://www.w3.org/Graphics/SVG/1.1/DTD/svg11.dtd">
<!-- Generated by graphviz version 2.47.1 (20210417.1919)
 -->
<!-- Pages: 1 -->
<svg width="189pt" height="195pt"
 viewBox="0.00 0.00 189.06 194.66" xmlns="http://www.w3.org/2000/svg" xmlns:xlink="http://www.w3.org/1999/xlink">
<g id="graph0" class="graph" transform="scale(1 1) rotate(0) translate(4 190.66)">
<polygon fill="white" stroke="transparent" points="-4,4 -4,-190.66 185.06,-190.66 185.06,4 -4,4"/>
<!-- &#45;1 -->
<g id="node1" class="node">
<title>&#45;1</title>
<polygon fill="lightgray" stroke="black" points="23.75,-79.4 -0.25,-79.4 -0.25,-60.79 23.75,-60.79 23.75,-79.4"/>
<text text-anchor="middle" x="11.75" y="-67.39" font-family="Times,serif" font-size="9.00">&#45;1</text>
</g>
<!-- 0 -->
<g id="node5" class="node">
<title>0</title>
<ellipse fill="lightblue" stroke="black" cx="89.76" cy="-88.8" rx="14.49" ry="14.49"/>
<ellipse fill="none" stroke="black" cx="89.76" cy="-88.8" rx="18.49" ry="18.49"/>
<text text-anchor="middle" x="89.76" y="-86.1" font-family="Times,serif" font-size="9.00">0</text>
</g>
<!-- &#45;1&#45;&gt;0 -->
<g id="edge5" class="edge">
<title>&#45;1&#45;&gt;0</title>
<path fill="none" stroke="green" stroke-width="0.44" stroke-dasharray="1,5" d="M23.6,-72.94C33.69,-75.35 48.59,-78.93 61.7,-82.07"/>
<polygon fill="green" stroke="green" stroke-width="0.44" points="61.16,-85.54 71.7,-84.47 62.79,-78.73 61.16,-85.54"/>
<text text-anchor="middle" x="37.02" y="-79" font-family="Times,serif" font-size="5.00">1.700</text>
</g>
<!-- &#45;2 -->
<g id="node2" class="node">
<title>&#45;2</title>
<polygon fill="lightgray" stroke="black" points="181.31,-103.68 157.31,-103.68 157.31,-85.07 181.31,-85.07 181.31,-103.68"/>
<text text-anchor="middle" x="169.31" y="-91.67" font-family="Times,serif" font-size="9.00">&#45;2</text>
</g>
<!-- &#45;2&#45;&gt;0 -->
<g id="edge1" class="edge">
<title>&#45;2&#45;&gt;0</title>
<path fill="none" stroke="green" stroke-width="0.35" d="M157.23,-93.53C147.01,-92.81 131.95,-91.76 118.64,-90.82"/>
<polygon fill="green" stroke="green" stroke-width="0.35" points="118.7,-87.32 108.48,-90.11 118.21,-94.3 118.7,-87.32"/>
<text text-anchor="middle" x="131.48" y="-93.68" font-family="Times,serif" font-size="5.00">&#45;1.271</text>
</g>
<!-- 2616 -->
<g id="node6" class="node">
<title>2616</title>
<ellipse fill="white" stroke="black" cx="131.33" cy="-150.84" rx="31.67" ry="31.67"/>
<ellipse fill="none" stroke="black" cx="131.33" cy="-150.84" rx="35.65" ry="35.65"/>
<text text-anchor="middle" x="131.33" y="-148.14" font-family="Times,serif" font-size="9.00">sigmoid</text>
</g>
<!-- &#45;2&#45;&gt;2616 -->
<g id="edge8" class="edge">
<title>&#45;2&#45;&gt;2616</title>
<path fill="none" stroke="green" stroke-width="0.27" d="M163.04,-103.7C161.34,-106.23 159.39,-109.13 157.3,-112.23"/>
<polygon fill="green" stroke="green" stroke-width="0.27" points="154.24,-110.51 151.57,-120.76 160.05,-114.41 154.24,-110.51"/>
<text text-anchor="middle" x="154.55" y="-109.46" font-family="Times,serif" font-size="5.00">0.863</text>
</g>
<!-- &#45;3 -->
<g id="node3" class="node">
<title>&#45;3</title>
<polygon fill="lightgray" stroke="black" points="112.75,-18.7 88.75,-18.7 88.75,-0.1 112.75,-0.1 112.75,-18.7"/>
<text text-anchor="middle" x="100.75" y="-6.7" font-family="Times,serif" font-size="9.00">&#45;3</text>
</g>
<!-- &#45;3&#45;&gt;0 -->
<g id="edge2" class="edge">
<title>&#45;3&#45;&gt;0</title>
<path fill="none" stroke="green" stroke-width="0.2" stroke-dasharray="1,5" d="M99.45,-18.82C98.04,-29 95.72,-45.72 93.71,-60.27"/>
<polygon fill="green" stroke="green" stroke-width="0.2" points="90.22,-59.96 92.31,-70.35 97.15,-60.92 90.22,-59.96"/>
<text text-anchor="middle" x="90.12" y="-41.04" font-family="Times,serif" font-size="5.00">&#45;0.502</text>
</g>
<!-- &#45;4 -->
<g id="node4" class="node">
<title>&#45;4</title>
<polygon fill="lightgray" stroke="black" points="76.69,-173.78 52.69,-173.78 52.69,-155.18 76.69,-155.18 76.69,-173.78"/>
<text text-anchor="middle" x="64.69" y="-161.78" font-family="Times,serif" font-size="9.00">&#45;4</text>
</g>
<!-- &#45;4&#45;&gt;0 -->
<g id="edge3" class="edge">
<title>&#45;4&#45;&gt;0</title>
<path fill="none" stroke="red" stroke-width="0.3" stroke-dasharray="1,5" d="M67.86,-154.9C71.08,-145.2 76.2,-129.75 80.68,-116.22"/>
<polygon fill="red" stroke="red" stroke-width="0.3" points="84.11,-116.97 83.94,-106.38 77.47,-114.77 84.11,-116.97"/>
<text text-anchor="middle" x="67.81" y="-137.06" font-family="Times,serif" font-size="5.00">&#45;0.987</text>
</g>
<!-- &#45;4&#45;&gt;2616 -->
<g id="edge6" class="edge">
<title>&#45;4&#45;&gt;2616</title>
<path fill="none" stroke="green" stroke-width="0.26" stroke-dasharray="1,5" d="M76.6,-162.04C79.46,-161.46 82.68,-160.8 86.09,-160.1"/>
<polygon fill="green" stroke="green" stroke-width="0.26" points="86.98,-163.49 96.08,-158.06 85.58,-156.63 86.98,-163.49"/>
<text text-anchor="middle" x="86.97" y="-162.57" font-family="Times,serif" font-size="5.00">0.778</text>
</g>
<!-- 0&#45;&gt;0 -->
<g id="edge4" class="edge">
<title>0&#45;&gt;0</title>
<path fill="none" stroke="red" stroke-width="0.33" d="M107.41,-95.23C117.22,-96.43 126.26,-94.28 126.26,-88.8 126.26,-85.37 122.73,-83.25 117.69,-82.43"/>
<polygon fill="red" stroke="red" stroke-width="0.33" points="117.43,-78.93 107.41,-82.37 117.39,-85.93 117.43,-78.93"/>
<text text-anchor="middle" x="131.88" y="-87.3" font-family="Times,serif" font-size="5.00">1.169</text>
</g>
<!-- 2616&#45;&gt;0 -->
<g id="edge7" class="edge">
<title>2616&#45;&gt;0</title>
<path fill="none" stroke="green" stroke-width="0.38" d="M111.28,-120.91C109.49,-118.24 107.69,-115.55 105.94,-112.94"/>
<polygon fill="green" stroke="green" stroke-width="0.38" points="108.71,-110.79 100.23,-104.43 102.89,-114.69 108.71,-110.79"/>
<text text-anchor="middle" x="102.98" y="-112.43" font-family="Times,serif" font-size="5.00">1.381</text>
</g>
</g>
</svg>
