<?xml version="1.0" encoding="UTF-8" standalone="no"?>
<!DOCTYPE svg PUBLIC "-//W3C//DTD SVG 1.1//EN"
 "http://www.w3.org/Graphics/SVG/1.1/DTD/svg11.dtd">
<!-- Generated by graphviz version 2.47.1 (20210417.1919)
 -->
<!-- Pages: 1 -->
<svg width="225pt" height="197pt"
 viewBox="0.00 0.00 224.53 196.79" xmlns="http://www.w3.org/2000/svg" xmlns:xlink="http://www.w3.org/1999/xlink">
<g id="graph0" class="graph" transform="scale(1 1) rotate(0) translate(4 192.79)">
<polygon fill="white" stroke="transparent" points="-4,4 -4,-192.79 220.53,-192.79 220.53,4 -4,4"/>
<!-- &#45;1 -->
<g id="node1" class="node">
<title>&#45;1</title>
<polygon fill="lightgray" stroke="black" points="47.88,-103.98 23.88,-103.98 23.88,-85.38 47.88,-85.38 47.88,-103.98"/>
<text text-anchor="middle" x="35.88" y="-91.98" font-family="Times,serif" font-size="9.00">&#45;1</text>
</g>
<!-- 3761 -->
<g id="node6" class="node">
<title>3761</title>
<ellipse fill="white" stroke="black" cx="87.01" cy="-96.48" rx="35.19" ry="35.19"/>
<text text-anchor="middle" x="87.01" y="-93.78" font-family="Times,serif" font-size="9.00">heaviside</text>
</g>
<!-- &#45;1&#45;&gt;3761 -->
<g id="edge19" class="edge">
<title>&#45;1&#45;&gt;3761</title>
<path fill="none" stroke="red" stroke-width="0.24" d="M47.74,-95.09C47.89,-95.1 48.04,-95.11 48.19,-95.11"/>
<polygon fill="red" stroke="red" stroke-width="0.24" points="41.31,-98.37 51.43,-95.23 41.56,-91.37 41.31,-98.37"/>
<text text-anchor="middle" x="53.59" y="-96.6" font-family="Times,serif" font-size="5.00">0.723</text>
</g>
<!-- 1714 -->
<g id="node7" class="node">
<title>1714</title>
<ellipse fill="white" stroke="black" cx="51.64" cy="-154.03" rx="30.55" ry="30.55"/>
<ellipse fill="none" stroke="black" cx="51.64" cy="-154.03" rx="34.52" ry="34.52"/>
<text text-anchor="middle" x="51.64" y="-151.33" font-family="Times,serif" font-size="9.00">identity</text>
</g>
<!-- &#45;1&#45;&gt;1714 -->
<g id="edge18" class="edge">
<title>&#45;1&#45;&gt;1714</title>
<path fill="none" stroke="green" stroke-width="0.16" stroke-dasharray="1,5" d="M38.41,-104.21C38.92,-106.12 39.48,-108.24 40.08,-110.49"/>
<polygon fill="green" stroke="green" stroke-width="0.16" points="36.75,-111.59 42.7,-120.36 43.52,-109.8 36.75,-111.59"/>
<text text-anchor="middle" x="33.62" y="-108.85" font-family="Times,serif" font-size="5.00">0.281</text>
</g>
<!-- 1714 0 -->
<g id="node8" class="node">
<title>1714 0</title>
<ellipse fill="none" stroke="black" cx="86.18" cy="-154.81" rx="28.63" ry="28.63"/>
<text text-anchor="middle" x="86.18" y="-152.11" font-family="Times,serif" font-size="9.00">1714 0</text>
</g>
<!-- &#45;1&#45;&gt;1714 0 -->
<g id="edge14" class="edge">
<title>&#45;1&#45;&gt;1714 0</title>
<path fill="none" stroke="green" stroke-width="0.16" stroke-dasharray="1,5" d="M43.74,-104.07C48.41,-109.65 54.61,-117.07 60.84,-124.51"/>
<polygon fill="green" stroke="green" stroke-width="0.16" points="58.42,-127.08 67.52,-132.5 63.79,-122.59 58.42,-127.08"/>
<text text-anchor="middle" x="46.66" y="-109.79" font-family="Times,serif" font-size="5.00">0.281</text>
</g>
<!-- 1714 1 -->
<g id="node9" class="node">
<title>1714 1</title>
<ellipse fill="none" stroke="black" cx="43.87" cy="-35.5" rx="28.63" ry="28.63"/>
<text text-anchor="middle" x="43.87" y="-32.8" font-family="Times,serif" font-size="9.00">1714 1</text>
</g>
<!-- &#45;1&#45;&gt;1714 1 -->
<g id="edge15" class="edge">
<title>&#45;1&#45;&gt;1714 1</title>
<path fill="none" stroke="green" stroke-width="0.16" stroke-dasharray="1,5" d="M37.17,-85.17C37.59,-82.02 38.09,-78.31 38.63,-74.34"/>
<polygon fill="green" stroke="green" stroke-width="0.16" points="42.13,-74.55 40,-64.17 35.19,-73.61 42.13,-74.55"/>
<text text-anchor="middle" x="32.27" y="-81.26" font-family="Times,serif" font-size="5.00">0.281</text>
</g>
<!-- 1714 2 -->
<g id="node10" class="node">
<title>1714 2</title>
<ellipse fill="none" stroke="black" cx="102.79" cy="-40.13" rx="28.63" ry="28.63"/>
<text text-anchor="middle" x="102.79" y="-37.43" font-family="Times,serif" font-size="9.00">1714 2</text>
</g>
<!-- &#45;1&#45;&gt;1714 2 -->
<g id="edge16" class="edge">
<title>&#45;1&#45;&gt;1714 2</title>
<path fill="none" stroke="green" stroke-width="0.16" stroke-dasharray="1,5" d="M47.54,-85.18C54.42,-79.57 63.48,-72.18 72.26,-65.02"/>
<polygon fill="green" stroke="green" stroke-width="0.16" points="74.65,-67.59 80.19,-58.56 70.22,-62.17 74.65,-67.59"/>
<text text-anchor="middle" x="54.28" y="-76.6" font-family="Times,serif" font-size="5.00">0.281</text>
</g>
<!-- 1714 3 -->
<g id="node11" class="node">
<title>1714 3</title>
<ellipse fill="none" stroke="black" cx="74.64" cy="-28.81" rx="28.63" ry="28.63"/>
<text text-anchor="middle" x="74.64" y="-26.11" font-family="Times,serif" font-size="9.00">1714 3</text>
</g>
<!-- &#45;1&#45;&gt;1714 3 -->
<g id="edge17" class="edge">
<title>&#45;1&#45;&gt;1714 3</title>
<path fill="none" stroke="green" stroke-width="0.16" stroke-dasharray="1,5" d="M41.44,-85.24C45.01,-79.17 49.89,-70.87 54.81,-62.51"/>
<polygon fill="green" stroke="green" stroke-width="0.16" points="57.84,-64.26 59.9,-53.87 51.81,-60.71 57.84,-64.26"/>
<text text-anchor="middle" x="42.5" y="-75.38" font-family="Times,serif" font-size="5.00">0.281</text>
</g>
<!-- &#45;2 -->
<g id="node2" class="node">
<title>&#45;2</title>
<polygon fill="lightgray" stroke="black" points="23.75,-96.7 -0.25,-96.7 -0.25,-78.09 23.75,-78.09 23.75,-96.7"/>
<text text-anchor="middle" x="11.75" y="-84.7" font-family="Times,serif" font-size="9.00">&#45;2</text>
</g>
<!-- &#45;2&#45;&gt;1714 -->
<g id="edge8" class="edge">
<title>&#45;2&#45;&gt;1714</title>
<path fill="none" stroke="green" stroke-width="0.63" d="M17.46,-96.94C20.46,-101.95 24.36,-108.46 28.44,-115.28"/>
<polygon fill="green" stroke="green" stroke-width="0.63" points="25.52,-117.21 33.66,-123.99 31.52,-113.61 25.52,-117.21"/>
<text text-anchor="middle" x="17.33" y="-107.61" font-family="Times,serif" font-size="5.00">2.650</text>
</g>
<!-- &#45;2&#45;&gt;1714 0 -->
<g id="edge4" class="edge">
<title>&#45;2&#45;&gt;1714 0</title>
<path fill="none" stroke="green" stroke-width="0.63" d="M22.1,-96.77C31.16,-104.98 44.78,-117.31 57.13,-128.5"/>
<polygon fill="green" stroke="green" stroke-width="0.63" points="54.85,-131.15 64.61,-135.27 59.55,-125.96 54.85,-131.15"/>
<text text-anchor="middle" x="33.99" y="-114.13" font-family="Times,serif" font-size="5.00">2.650</text>
</g>
<!-- &#45;2&#45;&gt;1714 1 -->
<g id="edge5" class="edge">
<title>&#45;2&#45;&gt;1714 1</title>
<path fill="none" stroke="green" stroke-width="0.63" d="M17.64,-77.88C19.34,-75.13 21.31,-71.95 23.38,-68.61"/>
<polygon fill="green" stroke="green" stroke-width="0.63" points="26.37,-70.43 28.65,-60.09 20.41,-66.75 26.37,-70.43"/>
<text text-anchor="middle" x="14.88" y="-68.74" font-family="Times,serif" font-size="5.00">2.650</text>
</g>
<!-- &#45;2&#45;&gt;1714 2 -->
<g id="edge6" class="edge">
<title>&#45;2&#45;&gt;1714 2</title>
<path fill="none" stroke="green" stroke-width="0.63" d="M23.65,-81.22C34.93,-75.36 52.44,-66.27 68.12,-58.13"/>
<polygon fill="green" stroke="green" stroke-width="0.63" points="69.82,-61.19 77.08,-53.48 66.6,-54.98 69.82,-61.19"/>
<text text-anchor="middle" x="40.26" y="-65.17" font-family="Times,serif" font-size="5.00">2.650</text>
</g>
<!-- &#45;2&#45;&gt;1714 3 -->
<g id="edge7" class="edge">
<title>&#45;2&#45;&gt;1714 3</title>
<path fill="none" stroke="green" stroke-width="0.63" d="M21.85,-77.98C28.41,-71.88 37.3,-63.6 45.92,-55.57"/>
<polygon fill="green" stroke="green" stroke-width="0.63" points="48.43,-58.02 53.36,-48.64 43.65,-52.89 48.43,-58.02"/>
<text text-anchor="middle" x="28.26" y="-68.28" font-family="Times,serif" font-size="5.00">2.650</text>
</g>
<!-- &#45;3 -->
<g id="node3" class="node">
<title>&#45;3</title>
<polygon fill="lightgray" stroke="black" points="216.78,-60.21 192.78,-60.21 192.78,-41.6 216.78,-41.6 216.78,-60.21"/>
<text text-anchor="middle" x="204.78" y="-48.21" font-family="Times,serif" font-size="9.00">&#45;3</text>
</g>
<!-- 0 -->
<g id="node5" class="node">
<title>0</title>
<ellipse fill="lightblue" stroke="black" cx="133.03" cy="-93.49" rx="14.49" ry="14.49"/>
<ellipse fill="none" stroke="black" cx="133.03" cy="-93.49" rx="18.49" ry="18.49"/>
<text text-anchor="middle" x="133.03" y="-90.79" font-family="Times,serif" font-size="9.00">0</text>
</g>
<!-- &#45;3&#45;&gt;0 -->
<g id="edge1" class="edge">
<title>&#45;3&#45;&gt;0</title>
<path fill="none" stroke="red" stroke-width="0.21" stroke-dasharray="1,5" d="M192.93,-57.94C183.42,-63.58 169.73,-71.71 157.84,-78.77"/>
<polygon fill="red" stroke="red" stroke-width="0.21" points="156.01,-75.78 149.2,-83.9 159.58,-81.8 156.01,-75.78"/>
<text text-anchor="middle" x="169.76" y="-69.85" font-family="Times,serif" font-size="5.00">0.537</text>
</g>
<!-- &#45;4 -->
<g id="node4" class="node">
<title>&#45;4</title>
<polygon fill="lightgray" stroke="black" points="207.64,-155.48 183.64,-155.48 183.64,-136.87 207.64,-136.87 207.64,-155.48"/>
<text text-anchor="middle" x="195.64" y="-143.47" font-family="Times,serif" font-size="9.00">&#45;4</text>
</g>
<!-- &#45;4&#45;&gt;0 -->
<g id="edge2" class="edge">
<title>&#45;4&#45;&gt;0</title>
<path fill="none" stroke="red" stroke-width="0.39" stroke-dasharray="1,5" d="M184.45,-136.76C176.31,-129.91 165.04,-120.42 155.12,-112.08"/>
<polygon fill="red" stroke="red" stroke-width="0.39" points="157.11,-109.18 147.21,-105.42 152.6,-114.53 157.11,-109.18"/>
<text text-anchor="middle" x="163.33" y="-125.92" font-family="Times,serif" font-size="5.00">&#45;1.453</text>
</g>
<!-- 0&#45;&gt;0 -->
<g id="edge3" class="edge">
<title>0&#45;&gt;0</title>
<path fill="none" stroke="green" stroke-width="0.43" stroke-dasharray="1,5" d="M150.68,-99.92C160.49,-101.12 169.53,-98.97 169.53,-93.49 169.53,-90.06 166,-87.94 160.96,-87.12"/>
<polygon fill="green" stroke="green" stroke-width="0.43" points="160.7,-83.62 150.68,-87.06 160.66,-90.62 160.7,-83.62"/>
<text text-anchor="middle" x="175.99" y="-91.99" font-family="Times,serif" font-size="5.00">&#45;1.668</text>
</g>
<!-- 0&#45;&gt;3761 -->
<g id="edge25" class="edge">
<title>0&#45;&gt;3761</title>
<path fill="none" stroke="red" stroke-width="0.26" d="M114.32,-94.71C114.27,-94.71 114.22,-94.71 114.17,-94.72"/>
<polygon fill="red" stroke="red" stroke-width="0.26" points="123.77,-90.58 114.02,-94.73 124.22,-97.56 123.77,-90.58"/>
<text text-anchor="middle" x="107.78" y="-96.21" font-family="Times,serif" font-size="5.00">&#45;0.795</text>
</g>
<!-- 3761&#45;&gt;1714 -->
<g id="edge24" class="edge">
<title>3761&#45;&gt;1714</title>
<path fill="none" stroke="red" stroke-width="0.27" stroke-dasharray="1,5" d="M68.5,-126.6C68.46,-126.66 68.43,-126.71 68.4,-126.77"/>
<polygon fill="red" stroke="red" stroke-width="0.27" points="70.55,-116.58 68.3,-126.93 76.52,-120.24 70.55,-116.58"/>
<text text-anchor="middle" x="61.99" y="-128.19" font-family="Times,serif" font-size="5.00">&#45;0.848</text>
</g>
<!-- 3761&#45;&gt;1714 0 -->
<g id="edge20" class="edge">
<title>3761&#45;&gt;1714 0</title>
<path fill="none" stroke="red" stroke-width="0.27" stroke-dasharray="1,5" d="M86.51,-132.09C86.51,-132.14 86.5,-132.18 86.5,-132.23"/>
<polygon fill="red" stroke="red" stroke-width="0.27" points="83.15,-122.32 86.5,-132.37 90.15,-122.43 83.15,-122.32"/>
<text text-anchor="middle" x="92.96" y="-133.66" font-family="Times,serif" font-size="5.00">&#45;0.848</text>
</g>
<!-- 3761&#45;&gt;1714 1 -->
<g id="edge21" class="edge">
<title>3761&#45;&gt;1714 1</title>
<path fill="none" stroke="red" stroke-width="0.27" stroke-dasharray="1,5" d="M66.45,-67.42C66.39,-67.34 66.33,-67.25 66.27,-67.17"/>
<polygon fill="red" stroke="red" stroke-width="0.27" points="69.38,-65.5 60.75,-59.36 63.67,-69.55 69.38,-65.5"/>
<text text-anchor="middle" x="59.91" y="-68.79" font-family="Times,serif" font-size="5.00">&#45;0.848</text>
</g>
<!-- 3761&#45;&gt;1714 2 -->
<g id="edge22" class="edge">
<title>3761&#45;&gt;1714 2</title>
<path fill="none" stroke="red" stroke-width="0.27" stroke-dasharray="1,5" d="M96.56,-62.4C96.57,-62.36 96.58,-62.31 96.6,-62.26"/>
<polygon fill="red" stroke="red" stroke-width="0.27" points="97.3,-72.7 96.63,-62.13 90.56,-70.81 97.3,-72.7"/>
<text text-anchor="middle" x="90.12" y="-63.83" font-family="Times,serif" font-size="5.00">&#45;0.848</text>
</g>
<!-- 3761&#45;&gt;1714 3 -->
<g id="edge23" class="edge">
<title>3761&#45;&gt;1714 3</title>
<path fill="none" stroke="red" stroke-width="0.27" stroke-dasharray="1,5" d="M80.61,-61.46C80.59,-61.37 80.58,-61.28 80.56,-61.19"/>
<polygon fill="red" stroke="red" stroke-width="0.27" points="85.08,-66.43 79.84,-57.22 78.19,-67.69 85.08,-66.43"/>
<text text-anchor="middle" x="74.13" y="-56.83" font-family="Times,serif" font-size="5.00">&#45;0.848</text>
</g>
<!-- 1714&#45;&gt;0 -->
<g id="edge13" class="edge">
<title>1714&#45;&gt;0</title>
<path fill="none" stroke="red" stroke-width="0.54" d="M79.65,-133.2C89.51,-125.86 100.47,-117.71 109.88,-110.71"/>
<polygon fill="red" stroke="red" stroke-width="0.54" points="112.08,-113.44 118.02,-104.66 107.9,-107.82 112.08,-113.44"/>
<text text-anchor="middle" x="101.22" y="-117.45" font-family="Times,serif" font-size="5.00">&#45;2.217</text>
</g>
<!-- 1714 0&#45;&gt;0 -->
<g id="edge9" class="edge">
<title>1714 0&#45;&gt;0</title>
<path fill="none" stroke="red" stroke-width="0.54" d="M103.89,-131.63C107.68,-126.67 111.68,-121.44 115.46,-116.49"/>
<polygon fill="red" stroke="red" stroke-width="0.54" points="118.25,-118.61 121.54,-108.54 112.68,-114.36 118.25,-118.61"/>
<text text-anchor="middle" x="115.3" y="-119.56" font-family="Times,serif" font-size="5.00">2.217</text>
</g>
<!-- 1714 1&#45;&gt;0 -->
<g id="edge10" class="edge">
<title>1714 1&#45;&gt;0</title>
<path fill="none" stroke="red" stroke-width="0.54" d="M68.23,-51.35C80.85,-59.55 96.2,-69.54 108.8,-77.73"/>
<polygon fill="red" stroke="red" stroke-width="0.54" points="107.11,-80.81 117.4,-83.32 110.93,-74.94 107.11,-80.81"/>
<text text-anchor="middle" x="94.14" y="-60.04" font-family="Times,serif" font-size="5.00">1.109</text>
</g>
<!-- 1714 2&#45;&gt;0 -->
<g id="edge11" class="edge">
<title>1714 2&#45;&gt;0</title>
<path fill="none" stroke="red" stroke-width="0.54" d="M117.03,-65.25C117.61,-66.28 118.19,-67.31 118.78,-68.33"/>
<polygon fill="red" stroke="red" stroke-width="0.54" points="115.9,-70.36 123.88,-77.33 121.99,-66.91 115.9,-70.36"/>
<text text-anchor="middle" x="123.53" y="-68.29" font-family="Times,serif" font-size="5.00">0.000</text>
</g>
<!-- 1714 3&#45;&gt;0 -->
<g id="edge12" class="edge">
<title>1714 3&#45;&gt;0</title>
<path fill="none" stroke="red" stroke-width="0.54" d="M94.09,-50.35C100.38,-57.32 107.36,-65.05 113.65,-72.02"/>
<polygon fill="red" stroke="red" stroke-width="0.54" points="111.34,-74.68 120.64,-79.76 116.53,-69.99 111.34,-74.68"/>
<text text-anchor="middle" x="110.33" y="-56.69" font-family="Times,serif" font-size="5.00">&#45;1.109</text>
</g>
</g>
</svg>
