<?xml version="1.0" encoding="UTF-8" standalone="no"?>
<!DOCTYPE svg PUBLIC "-//W3C//DTD SVG 1.1//EN"
 "http://www.w3.org/Graphics/SVG/1.1/DTD/svg11.dtd">
<!-- Generated by graphviz version 2.47.1 (20210417.1919)
 -->
<!-- Pages: 1 -->
<svg width="171pt" height="131pt"
 viewBox="0.00 0.00 171.50 131.11" xmlns="http://www.w3.org/2000/svg" xmlns:xlink="http://www.w3.org/1999/xlink">
<g id="graph0" class="graph" transform="scale(1 1) rotate(0) translate(4 127.11)">
<polygon fill="white" stroke="transparent" points="-4,4 -4,-127.11 167.5,-127.11 167.5,4 -4,4"/>
<!-- &#45;1 -->
<g id="node1" class="node">
<title>&#45;1</title>
<polygon fill="lightgray" stroke="black" points="153.75,-118.7 129.75,-118.7 129.75,-100.1 153.75,-100.1 153.75,-118.7"/>
<text text-anchor="middle" x="141.75" y="-106.7" font-family="Times,serif" font-size="9.00">&#45;1</text>
</g>
<!-- &#45;2 -->
<g id="node2" class="node">
<title>&#45;2</title>
<polygon fill="lightgray" stroke="black" points="23.75,-51.97 -0.25,-51.97 -0.25,-33.37 23.75,-33.37 23.75,-51.97"/>
<text text-anchor="middle" x="11.75" y="-39.97" font-family="Times,serif" font-size="9.00">&#45;2</text>
</g>
<!-- 0 -->
<g id="node5" class="node">
<title>0</title>
<ellipse fill="lightblue" stroke="black" cx="81.59" cy="-18.5" rx="14.49" ry="14.49"/>
<ellipse fill="none" stroke="black" cx="81.59" cy="-18.5" rx="18.49" ry="18.49"/>
<text text-anchor="middle" x="81.59" y="-15.8" font-family="Times,serif" font-size="9.00">0</text>
</g>
<!-- &#45;2&#45;&gt;0 -->
<g id="edge1" class="edge">
<title>&#45;2&#45;&gt;0</title>
<path fill="none" stroke="red" stroke-width="0.41" d="M23.6,-38.57C31.97,-35.67 43.55,-31.66 54.17,-27.99"/>
<polygon fill="red" stroke="red" stroke-width="0.41" points="55.6,-31.19 63.91,-24.62 53.31,-24.58 55.6,-31.19"/>
<text text-anchor="middle" x="33.26" y="-34.78" font-family="Times,serif" font-size="5.00">1.550</text>
</g>
<!-- 272 -->
<g id="node6" class="node">
<title>272</title>
<ellipse fill="white" stroke="black" cx="70.4" cy="-87.76" rx="35.19" ry="35.19"/>
<text text-anchor="middle" x="70.4" y="-85.06" font-family="Times,serif" font-size="9.00">heaviside</text>
</g>
<!-- &#45;2&#45;&gt;272 -->
<g id="edge6" class="edge">
<title>&#45;2&#45;&gt;272</title>
<path fill="none" stroke="green" stroke-width="0.47" d="M23.62,-51.79C26.71,-54.18 30.22,-56.87 33.88,-59.69"/>
<polygon fill="green" stroke="green" stroke-width="0.47" points="32,-62.66 42.06,-65.98 36.27,-57.11 32,-62.66"/>
<text text-anchor="middle" x="23.12" y="-57.24" font-family="Times,serif" font-size="5.00">1.834</text>
</g>
<!-- &#45;3 -->
<g id="node3" class="node">
<title>&#45;3</title>
<polygon fill="lightgray" stroke="black" points="163.75,-28.7 139.75,-28.7 139.75,-10.1 163.75,-10.1 163.75,-28.7"/>
<text text-anchor="middle" x="151.75" y="-16.7" font-family="Times,serif" font-size="9.00">&#45;3</text>
</g>
<!-- &#45;4 -->
<g id="node4" class="node">
<title>&#45;4</title>
<polygon fill="lightgray" stroke="black" points="152.27,-72.74 128.27,-72.74 128.27,-54.13 152.27,-54.13 152.27,-72.74"/>
<text text-anchor="middle" x="140.27" y="-60.74" font-family="Times,serif" font-size="9.00">&#45;4</text>
</g>
<!-- &#45;4&#45;&gt;0 -->
<g id="edge2" class="edge">
<title>&#45;4&#45;&gt;0</title>
<path fill="none" stroke="red" stroke-width="0.26" d="M128.39,-54.34C121.53,-49.09 112.67,-42.3 104.51,-36.05"/>
<polygon fill="red" stroke="red" stroke-width="0.26" points="106.43,-33.11 96.36,-29.81 102.18,-38.67 106.43,-33.11"/>
<text text-anchor="middle" x="109.99" y="-46.69" font-family="Times,serif" font-size="5.00">&#45;0.783</text>
</g>
<!-- &#45;4&#45;&gt;272 -->
<g id="edge4" class="edge">
<title>&#45;4&#45;&gt;272</title>
<path fill="none" stroke="red" stroke-width="0.35" stroke-dasharray="1,5" d="M128.41,-67.56C124.18,-69.04 119.13,-70.8 113.8,-72.65"/>
<polygon fill="red" stroke="red" stroke-width="0.35" points="112.3,-69.47 104.01,-76.06 114.6,-76.08 112.3,-69.47"/>
<text text-anchor="middle" x="114.65" y="-71.61" font-family="Times,serif" font-size="5.00">&#45;1.247</text>
</g>
<!-- 0&#45;&gt;0 -->
<g id="edge3" class="edge">
<title>0&#45;&gt;0</title>
<path fill="none" stroke="red" stroke-width="0.28" stroke-dasharray="1,5" d="M99.24,-24.92C109.05,-26.12 118.09,-23.98 118.09,-18.5 118.09,-15.07 114.56,-12.95 109.52,-12.13"/>
<polygon fill="red" stroke="red" stroke-width="0.28" points="109.26,-8.63 99.24,-12.07 109.22,-15.63 109.26,-8.63"/>
<text text-anchor="middle" x="124.54" y="-17" font-family="Times,serif" font-size="5.00">&#45;0.893</text>
</g>
<!-- 272&#45;&gt;0 -->
<g id="edge5" class="edge">
<title>272&#45;&gt;0</title>
<path fill="none" stroke="red" stroke-width="0.44" d="M76.06,-52.72C76.38,-50.75 76.7,-48.77 77.01,-46.82"/>
<polygon fill="red" stroke="red" stroke-width="0.44" points="80.49,-47.24 78.63,-36.81 73.58,-46.12 80.49,-47.24"/>
<text text-anchor="middle" x="70.08" y="-45.27" font-family="Times,serif" font-size="5.00">&#45;1.682</text>
</g>
</g>
</svg>
