<?xml version="1.0" encoding="UTF-8" standalone="no"?>
<!DOCTYPE svg PUBLIC "-//W3C//DTD SVG 1.1//EN"
 "http://www.w3.org/Graphics/SVG/1.1/DTD/svg11.dtd">
<!-- Generated by graphviz version 2.47.1 (20210417.1919)
 -->
<!-- Pages: 1 -->
<svg width="235pt" height="231pt"
 viewBox="0.00 0.00 235.50 230.80" xmlns="http://www.w3.org/2000/svg" xmlns:xlink="http://www.w3.org/1999/xlink">
<g id="graph0" class="graph" transform="scale(1 1) rotate(0) translate(4 226.8)">
<polygon fill="white" stroke="transparent" points="-4,4 -4,-226.8 231.5,-226.8 231.5,4 -4,4"/>
<!-- &#45;1 -->
<g id="node1" class="node">
<title>&#45;1</title>
<polygon fill="lightgray" stroke="black" points="111.08,-141.82 87.08,-141.82 87.08,-123.22 111.08,-123.22 111.08,-141.82"/>
<text text-anchor="middle" x="99.08" y="-129.82" font-family="Times,serif" font-size="9.00">&#45;1</text>
</g>
<!-- 1100 -->
<g id="node6" class="node">
<title>1100</title>
<ellipse fill="white" stroke="black" cx="130.63" cy="-191.91" rx="22.08" ry="22.08"/>
<ellipse fill="none" stroke="black" cx="130.63" cy="-191.91" rx="26.04" ry="26.04"/>
<text text-anchor="middle" x="130.63" y="-189.21" font-family="Times,serif" font-size="9.00">tanh</text>
</g>
<!-- &#45;1&#45;&gt;1100 -->
<g id="edge8" class="edge">
<title>&#45;1&#45;&gt;1100</title>
<path fill="none" stroke="green" stroke-width="0.17" stroke-dasharray="1,5" d="M104.15,-142.06C106.7,-146.86 109.96,-153 113.31,-159.31"/>
<polygon fill="green" stroke="green" stroke-width="0.17" points="110.44,-161.36 118.22,-168.55 116.62,-158.08 110.44,-161.36"/>
<text text-anchor="middle" x="103.11" y="-152.18" font-family="Times,serif" font-size="5.00">0.336</text>
</g>
<!-- 1100 0 -->
<g id="node7" class="node">
<title>1100 0</title>
<ellipse fill="none" stroke="black" cx="61.51" cy="-183.26" rx="28.63" ry="28.63"/>
<text text-anchor="middle" x="61.51" y="-180.56" font-family="Times,serif" font-size="9.00">1100 0</text>
</g>
<!-- &#45;1&#45;&gt;1100 0 -->
<g id="edge2" class="edge">
<title>&#45;1&#45;&gt;1100 0</title>
<path fill="none" stroke="green" stroke-width="0.17" stroke-dasharray="1,5" d="M92.19,-141.82C89.98,-144.8 87.41,-148.28 84.7,-151.93"/>
<polygon fill="green" stroke="green" stroke-width="0.17" points="81.81,-149.96 78.67,-160.08 87.43,-154.13 81.81,-149.96"/>
<text text-anchor="middle" x="82.82" y="-148.38" font-family="Times,serif" font-size="5.00">0.336</text>
</g>
<!-- 1100 1 -->
<g id="node8" class="node">
<title>1100 1</title>
<ellipse fill="none" stroke="black" cx="28.81" cy="-134.95" rx="28.63" ry="28.63"/>
<text text-anchor="middle" x="28.81" y="-132.25" font-family="Times,serif" font-size="9.00">1100 1</text>
</g>
<!-- &#45;1&#45;&gt;1100 1 -->
<g id="edge3" class="edge">
<title>&#45;1&#45;&gt;1100 1</title>
<path fill="none" stroke="green" stroke-width="0.17" stroke-dasharray="1,5" d="M87.16,-132.93C81.74,-133.12 74.99,-133.35 68.02,-133.59"/>
<polygon fill="green" stroke="green" stroke-width="0.17" points="67.66,-130.1 57.78,-133.95 67.9,-137.1 67.66,-130.1"/>
<text text-anchor="middle" x="71.96" y="-134.76" font-family="Times,serif" font-size="5.00">0.336</text>
</g>
<!-- 1100 2 -->
<g id="node9" class="node">
<title>1100 2</title>
<ellipse fill="none" stroke="black" cx="178.31" cy="-141.67" rx="28.63" ry="28.63"/>
<text text-anchor="middle" x="178.31" y="-138.97" font-family="Times,serif" font-size="9.00">1100 2</text>
</g>
<!-- &#45;1&#45;&gt;1100 2 -->
<g id="edge4" class="edge">
<title>&#45;1&#45;&gt;1100 2</title>
<path fill="none" stroke="green" stroke-width="0.17" stroke-dasharray="1,5" d="M111.11,-133.91C118.71,-134.78 128.99,-135.97 139.23,-137.15"/>
<polygon fill="green" stroke="green" stroke-width="0.17" points="139.01,-140.65 149.35,-138.32 139.82,-133.7 139.01,-140.65"/>
<text text-anchor="middle" x="130.8" y="-137.03" font-family="Times,serif" font-size="5.00">0.336</text>
</g>
<!-- 1100 3 -->
<g id="node10" class="node">
<title>1100 3</title>
<ellipse fill="none" stroke="black" cx="37.19" cy="-81.8" rx="28.63" ry="28.63"/>
<text text-anchor="middle" x="37.19" y="-79.1" font-family="Times,serif" font-size="9.00">1100 3</text>
</g>
<!-- &#45;1&#45;&gt;1100 3 -->
<g id="edge5" class="edge">
<title>&#45;1&#45;&gt;1100 3</title>
<path fill="none" stroke="green" stroke-width="0.17" stroke-dasharray="1,5" d="M87.73,-123.22C81.94,-118.47 74.59,-112.45 67.3,-106.48"/>
<polygon fill="green" stroke="green" stroke-width="0.17" points="69.45,-103.71 59.5,-100.08 65.01,-109.13 69.45,-103.71"/>
<text text-anchor="middle" x="71.89" y="-116.35" font-family="Times,serif" font-size="5.00">0.336</text>
</g>
<!-- 1100 4 -->
<g id="node11" class="node">
<title>1100 4</title>
<ellipse fill="none" stroke="black" cx="173.78" cy="-85.6" rx="28.63" ry="28.63"/>
<text text-anchor="middle" x="173.78" y="-82.9" font-family="Times,serif" font-size="9.00">1100 4</text>
</g>
<!-- &#45;1&#45;&gt;1100 4 -->
<g id="edge6" class="edge">
<title>&#45;1&#45;&gt;1100 4</title>
<path fill="none" stroke="green" stroke-width="0.17" stroke-dasharray="1,5" d="M111.08,-124.98C119.07,-119.96 129.99,-113.1 140.48,-106.51"/>
<polygon fill="green" stroke="green" stroke-width="0.17" points="142.51,-109.37 149.12,-101.09 138.79,-103.44 142.51,-109.37"/>
<text text-anchor="middle" x="128.59" y="-111.25" font-family="Times,serif" font-size="5.00">0.336</text>
</g>
<!-- 1100 5 -->
<g id="node12" class="node">
<title>1100 5</title>
<ellipse fill="none" stroke="black" cx="135.62" cy="-49.53" rx="28.63" ry="28.63"/>
<text text-anchor="middle" x="135.62" y="-46.83" font-family="Times,serif" font-size="9.00">1100 5</text>
</g>
<!-- &#45;1&#45;&gt;1100 5 -->
<g id="edge7" class="edge">
<title>&#45;1&#45;&gt;1100 5</title>
<path fill="none" stroke="green" stroke-width="0.17" stroke-dasharray="1,5" d="M103.27,-123C107.35,-113.73 113.81,-99.05 119.89,-85.25"/>
<polygon fill="green" stroke="green" stroke-width="0.17" points="123.18,-86.47 124,-75.91 116.77,-83.65 123.18,-86.47"/>
<text text-anchor="middle" x="117.21" y="-105.62" font-family="Times,serif" font-size="5.00">0.336</text>
</g>
<!-- &#45;2 -->
<g id="node2" class="node">
<title>&#45;2</title>
<polygon fill="lightgray" stroke="black" points="129.55,-139.55 105.54,-139.55 105.54,-120.95 129.55,-120.95 129.55,-139.55"/>
<text text-anchor="middle" x="117.55" y="-127.55" font-family="Times,serif" font-size="9.00">&#45;2</text>
</g>
<!-- 0 -->
<g id="node5" class="node">
<title>0</title>
<ellipse fill="lightblue" stroke="black" cx="96.74" cy="-96.37" rx="14.49" ry="14.49"/>
<ellipse fill="none" stroke="black" cx="96.74" cy="-96.37" rx="18.49" ry="18.49"/>
<text text-anchor="middle" x="96.74" y="-93.67" font-family="Times,serif" font-size="9.00">0</text>
</g>
<!-- &#45;2&#45;&gt;0 -->
<g id="edge23" class="edge">
<title>&#45;2&#45;&gt;0</title>
<path fill="none" stroke="red" stroke-width="0.11" stroke-dasharray="1,5" d="M111.64,-120.63C111.54,-120.47 111.44,-120.31 111.34,-120.14"/>
<polygon fill="red" stroke="red" stroke-width="0.11" points="114.78,-119.05 106.56,-112.36 108.81,-122.71 114.78,-119.05"/>
<text text-anchor="middle" x="105.03" y="-115.89" font-family="Times,serif" font-size="5.00">&#45;0.050</text>
</g>
<!-- &#45;2&#45;&gt;1100 -->
<g id="edge22" class="edge">
<title>&#45;2&#45;&gt;1100</title>
<path fill="none" stroke="green" stroke-width="0.25" d="M119.53,-139.61C120.52,-144.26 121.78,-150.19 123.09,-156.38"/>
<polygon fill="green" stroke="green" stroke-width="0.25" points="119.67,-157.12 125.17,-166.18 126.52,-155.67 119.67,-157.12"/>
<text text-anchor="middle" x="115.69" y="-149.5" font-family="Times,serif" font-size="5.00">0.741</text>
</g>
<!-- &#45;2&#45;&gt;1100 0 -->
<g id="edge16" class="edge">
<title>&#45;2&#45;&gt;1100 0</title>
<path fill="none" stroke="green" stroke-width="0.25" d="M107.53,-139.73C102.55,-144.43 96.26,-150.39 89.94,-156.37"/>
<polygon fill="green" stroke="green" stroke-width="0.25" points="87.44,-153.91 82.58,-163.32 92.25,-159 87.44,-153.91"/>
<text text-anchor="middle" x="104.36" y="-143.55" font-family="Times,serif" font-size="5.00">0.741</text>
</g>
<!-- &#45;2&#45;&gt;1100 1 -->
<g id="edge17" class="edge">
<title>&#45;2&#45;&gt;1100 1</title>
<path fill="none" stroke="green" stroke-width="0.25" d="M105.58,-130.88C95.85,-131.4 81.56,-132.16 67.94,-132.88"/>
<polygon fill="green" stroke="green" stroke-width="0.25" points="67.54,-129.4 57.74,-133.42 67.91,-136.39 67.54,-129.4"/>
<text text-anchor="middle" x="81.13" y="-127.38" font-family="Times,serif" font-size="5.00">0.741</text>
</g>
<!-- &#45;2&#45;&gt;1100 2 -->
<g id="edge18" class="edge">
<title>&#45;2&#45;&gt;1100 2</title>
<path fill="none" stroke="green" stroke-width="0.25" d="M129.55,-132.5C132.67,-133.09 136.21,-133.76 139.92,-134.45"/>
<polygon fill="green" stroke="green" stroke-width="0.25" points="139.5,-137.94 149.98,-136.34 140.79,-131.06 139.5,-137.94"/>
<text text-anchor="middle" x="140.36" y="-128.98" font-family="Times,serif" font-size="5.00">0.741</text>
</g>
<!-- &#45;2&#45;&gt;1100 3 -->
<g id="edge19" class="edge">
<title>&#45;2&#45;&gt;1100 3</title>
<path fill="none" stroke="green" stroke-width="0.25" d="M105.69,-123.1C96.48,-117.55 83.25,-109.57 70.85,-102.1"/>
<polygon fill="green" stroke="green" stroke-width="0.25" points="72.42,-98.96 62.05,-96.79 68.81,-104.95 72.42,-98.96"/>
<text text-anchor="middle" x="82.65" y="-114.1" font-family="Times,serif" font-size="5.00">0.741</text>
</g>
<!-- &#45;2&#45;&gt;1100 4 -->
<g id="edge20" class="edge">
<title>&#45;2&#45;&gt;1100 4</title>
<path fill="none" stroke="green" stroke-width="0.25" d="M129.47,-120.78C133.52,-117.57 138.25,-113.81 143.08,-109.98"/>
<polygon fill="green" stroke="green" stroke-width="0.25" points="145.54,-112.49 151.2,-103.53 141.19,-107 145.54,-112.49"/>
<text text-anchor="middle" x="141.9" y="-116.88" font-family="Times,serif" font-size="5.00">0.741</text>
</g>
<!-- &#45;2&#45;&gt;1100 5 -->
<g id="edge21" class="edge">
<title>&#45;2&#45;&gt;1100 5</title>
<path fill="none" stroke="green" stroke-width="0.25" d="M119.69,-120.67C121.53,-112.45 124.31,-100.03 127.04,-87.86"/>
<polygon fill="green" stroke="green" stroke-width="0.25" points="130.52,-88.31 129.29,-77.79 123.69,-86.78 130.52,-88.31"/>
<text text-anchor="middle" x="126.18" y="-99.77" font-family="Times,serif" font-size="5.00">0.741</text>
</g>
<!-- &#45;3 -->
<g id="node3" class="node">
<title>&#45;3</title>
<polygon fill="lightgray" stroke="black" points="227.75,-222.7 203.75,-222.7 203.75,-204.1 227.75,-204.1 227.75,-222.7"/>
<text text-anchor="middle" x="215.75" y="-210.7" font-family="Times,serif" font-size="9.00">&#45;3</text>
</g>
<!-- &#45;4 -->
<g id="node4" class="node">
<title>&#45;4</title>
<polygon fill="lightgray" stroke="black" points="82.95,-18.7 58.95,-18.7 58.95,-0.1 82.95,-0.1 82.95,-18.7"/>
<text text-anchor="middle" x="70.95" y="-6.7" font-family="Times,serif" font-size="9.00">&#45;4</text>
</g>
<!-- &#45;4&#45;&gt;0 -->
<g id="edge24" class="edge">
<title>&#45;4&#45;&gt;0</title>
<path fill="none" stroke="green" stroke-width="0.39" stroke-dasharray="1,5" d="M73.71,-18.71C77.19,-30.46 83.35,-51.23 88.43,-68.33"/>
<polygon fill="green" stroke="green" stroke-width="0.39" points="85.21,-69.8 91.41,-78.39 91.92,-67.8 85.21,-69.8"/>
<text text-anchor="middle" x="75.44" y="-45.02" font-family="Times,serif" font-size="5.00">1.432</text>
</g>
<!-- 0&#45;&gt;0 -->
<g id="edge1" class="edge">
<title>0&#45;&gt;0</title>
<path fill="none" stroke="red" stroke-width="0.41" stroke-dasharray="1,5" d="M114.39,-102.79C124.2,-103.99 133.24,-101.85 133.24,-96.37 133.24,-92.94 129.71,-90.82 124.67,-90"/>
<polygon fill="red" stroke="red" stroke-width="0.41" points="124.41,-86.5 114.39,-89.94 124.37,-93.5 124.41,-86.5"/>
<text text-anchor="middle" x="139.7" y="-94.87" font-family="Times,serif" font-size="5.00">&#45;1.527</text>
</g>
<!-- 1100&#45;&gt;0 -->
<g id="edge15" class="edge">
<title>1100&#45;&gt;0</title>
<path fill="none" stroke="red" stroke-width="0.3" d="M121.73,-166.81C117.04,-153.59 111.28,-137.36 106.48,-123.81"/>
<polygon fill="red" stroke="red" stroke-width="0.3" points="109.66,-122.32 103.02,-114.07 103.06,-124.66 109.66,-122.32"/>
<text text-anchor="middle" x="117.33" y="-140.81" font-family="Times,serif" font-size="5.00">&#45;0.982</text>
</g>
<!-- 1100 0&#45;&gt;0 -->
<g id="edge9" class="edge">
<title>1100 0&#45;&gt;0</title>
<path fill="none" stroke="red" stroke-width="0.3" d="M72.46,-156.24C76.75,-145.67 81.65,-133.58 85.93,-123.04"/>
<polygon fill="red" stroke="red" stroke-width="0.3" points="89.28,-124.1 89.79,-113.51 82.79,-121.47 89.28,-124.1"/>
<text text-anchor="middle" x="73.57" y="-141.14" font-family="Times,serif" font-size="5.00">0.982</text>
</g>
<!-- 1100 1&#45;&gt;0 -->
<g id="edge10" class="edge">
<title>1100 1&#45;&gt;0</title>
<path fill="none" stroke="red" stroke-width="0.3" d="M54.11,-120.59C59.72,-117.4 65.66,-114.02 71.27,-110.84"/>
<polygon fill="red" stroke="red" stroke-width="0.3" points="73.32,-113.7 80.29,-105.71 69.87,-107.61 73.32,-113.7"/>
<text text-anchor="middle" x="65.5" y="-111.21" font-family="Times,serif" font-size="5.00">0.655</text>
</g>
<!-- 1100 2&#45;&gt;0 -->
<g id="edge11" class="edge">
<title>1100 2&#45;&gt;0</title>
<path fill="none" stroke="red" stroke-width="0.3" d="M152.95,-127.58C143.17,-122.15 132,-115.95 122.21,-110.51"/>
<polygon fill="red" stroke="red" stroke-width="0.3" points="123.77,-107.38 113.33,-105.58 120.37,-113.5 123.77,-107.38"/>
<text text-anchor="middle" x="131.95" y="-114.55" font-family="Times,serif" font-size="5.00">0.327</text>
</g>
<!-- 1100 3&#45;&gt;0 -->
<g id="edge12" class="edge">
<title>1100 3&#45;&gt;0</title>
<path fill="none" stroke="red" stroke-width="0.3" d="M65.22,-88.66C66.37,-88.94 67.52,-89.22 68.66,-89.5"/>
<polygon fill="red" stroke="red" stroke-width="0.3" points="68.16,-92.98 78.71,-91.96 69.83,-86.18 68.16,-92.98"/>
<text text-anchor="middle" x="73.4" y="-90.58" font-family="Times,serif" font-size="5.00">&#45;0.000</text>
</g>
<!-- 1100 4&#45;&gt;0 -->
<g id="edge13" class="edge">
<title>1100 4&#45;&gt;0</title>
<path fill="none" stroke="red" stroke-width="0.3" d="M145.09,-89.61C138.74,-90.5 131.99,-91.44 125.63,-92.33"/>
<polygon fill="red" stroke="red" stroke-width="0.3" points="124.82,-88.91 115.4,-93.76 125.79,-95.84 124.82,-88.91"/>
<text text-anchor="middle" x="128.9" y="-86.47" font-family="Times,serif" font-size="5.00">&#45;0.327</text>
</g>
<!-- 1100 5&#45;&gt;0 -->
<g id="edge14" class="edge">
<title>1100 5&#45;&gt;0</title>
<path fill="none" stroke="red" stroke-width="0.3" d="M117.09,-71.85C116.46,-72.61 115.82,-73.38 115.19,-74.14"/>
<polygon fill="red" stroke="red" stroke-width="0.3" points="112.28,-72.17 108.59,-82.1 117.66,-76.64 112.28,-72.17"/>
<text text-anchor="middle" x="109.68" y="-68.49" font-family="Times,serif" font-size="5.00">&#45;0.655</text>
</g>
</g>
</svg>
