<?xml version="1.0" encoding="UTF-8" standalone="no"?>
<!DOCTYPE svg PUBLIC "-//W3C//DTD SVG 1.1//EN"
 "http://www.w3.org/Graphics/SVG/1.1/DTD/svg11.dtd">
<!-- Generated by graphviz version 2.47.1 (20210417.1919)
 -->
<!-- Pages: 1 -->
<svg width="235pt" height="231pt"
 viewBox="0.00 0.00 235.50 230.80" xmlns="http://www.w3.org/2000/svg" xmlns:xlink="http://www.w3.org/1999/xlink">
<g id="graph0" class="graph" transform="scale(1 1) rotate(0) translate(4 226.8)">
<polygon fill="white" stroke="transparent" points="-4,4 -4,-226.8 231.5,-226.8 231.5,4 -4,4"/>
<!-- &#45;1 -->
<g id="node1" class="node">
<title>&#45;1</title>
<polygon fill="lightgray" stroke="black" points="227.75,-222.7 203.75,-222.7 203.75,-204.1 227.75,-204.1 227.75,-222.7"/>
<text text-anchor="middle" x="215.75" y="-210.7" font-family="Times,serif" font-size="9.00">&#45;1</text>
</g>
<!-- &#45;2 -->
<g id="node2" class="node">
<title>&#45;2</title>
<polygon fill="lightgray" stroke="black" points="98.14,-109.09 74.14,-109.09 74.14,-90.49 98.14,-90.49 98.14,-109.09"/>
<text text-anchor="middle" x="86.14" y="-97.09" font-family="Times,serif" font-size="9.00">&#45;2</text>
</g>
<!-- 0 -->
<g id="node5" class="node">
<title>0</title>
<ellipse fill="lightblue" stroke="black" cx="100.44" cy="-126.33" rx="14.49" ry="14.49"/>
<ellipse fill="none" stroke="black" cx="100.44" cy="-126.33" rx="18.49" ry="18.49"/>
<text text-anchor="middle" x="100.44" y="-123.63" font-family="Times,serif" font-size="9.00">0</text>
</g>
<!-- &#45;2&#45;&gt;0 -->
<g id="edge30" class="edge">
<title>&#45;2&#45;&gt;0</title>
<path fill="none" stroke="green" stroke-width="0.25" d="M91.3,-109.37C91.34,-109.43 91.37,-109.49 91.4,-109.55"/>
<polygon fill="green" stroke="green" stroke-width="0.25" points="83.67,-102.59 91.5,-109.73 89.83,-99.27 83.67,-102.59"/>
<text text-anchor="middle" x="84.9" y="-110.96" font-family="Times,serif" font-size="5.00">&#45;0.761</text>
</g>
<!-- 659 -->
<g id="node6" class="node">
<title>659</title>
<ellipse fill="white" stroke="black" cx="123.99" cy="-178.7" rx="35.21" ry="35.21"/>
<ellipse fill="none" stroke="black" cx="123.99" cy="-178.7" rx="39.19" ry="39.19"/>
<text text-anchor="middle" x="123.99" y="-176" font-family="Times,serif" font-size="9.00">heaviside</text>
</g>
<!-- &#45;2&#45;&gt;659 -->
<g id="edge10" class="edge">
<title>&#45;2&#45;&gt;659</title>
<path fill="none" stroke="red" stroke-width="0.75" d="M90.63,-109.15C93.69,-115.53 97.98,-124.48 102.48,-133.84"/>
<polygon fill="red" stroke="red" stroke-width="0.75" points="99.33,-135.38 106.81,-142.88 105.64,-132.35 99.33,-135.38"/>
<text text-anchor="middle" x="102.18" y="-117" font-family="Times,serif" font-size="5.00">3.255</text>
</g>
<!-- 659 0 -->
<g id="node7" class="node">
<title>659 0</title>
<ellipse fill="none" stroke="black" cx="66.53" cy="-174.07" rx="25.77" ry="25.77"/>
<text text-anchor="middle" x="66.53" y="-171.37" font-family="Times,serif" font-size="9.00">659 0</text>
</g>
<!-- &#45;2&#45;&gt;659 0 -->
<g id="edge2" class="edge">
<title>&#45;2&#45;&gt;659 0</title>
<path fill="none" stroke="red" stroke-width="0.75" d="M83.66,-109.2C81.64,-116.85 78.65,-128.15 75.74,-139.18"/>
<polygon fill="red" stroke="red" stroke-width="0.75" points="72.28,-138.57 73.11,-149.13 79.05,-140.35 72.28,-138.57"/>
<text text-anchor="middle" x="74.07" y="-125.69" font-family="Times,serif" font-size="5.00">3.255</text>
</g>
<!-- 659 1 -->
<g id="node8" class="node">
<title>659 1</title>
<ellipse fill="none" stroke="black" cx="25.63" cy="-83.4" rx="25.77" ry="25.77"/>
<text text-anchor="middle" x="25.63" y="-80.7" font-family="Times,serif" font-size="9.00">659 1</text>
</g>
<!-- &#45;2&#45;&gt;659 1 -->
<g id="edge3" class="edge">
<title>&#45;2&#45;&gt;659 1</title>
<path fill="none" stroke="red" stroke-width="0.75" d="M74.19,-96.55C70.07,-95.44 65.24,-94.13 60.24,-92.77"/>
<polygon fill="red" stroke="red" stroke-width="0.75" points="61.14,-89.39 50.57,-90.16 59.31,-96.15 61.14,-89.39"/>
<text text-anchor="middle" x="61.59" y="-96.16" font-family="Times,serif" font-size="5.00">3.255</text>
</g>
<!-- 659 2 -->
<g id="node9" class="node">
<title>659 2</title>
<ellipse fill="none" stroke="black" cx="178.54" cy="-96.19" rx="25.77" ry="25.77"/>
<text text-anchor="middle" x="178.54" y="-93.49" font-family="Times,serif" font-size="9.00">659 2</text>
</g>
<!-- &#45;2&#45;&gt;659 2 -->
<g id="edge4" class="edge">
<title>&#45;2&#45;&gt;659 2</title>
<path fill="none" stroke="red" stroke-width="0.75" d="M98.22,-99.32C109.54,-98.88 127.02,-98.2 142.79,-97.59"/>
<polygon fill="red" stroke="red" stroke-width="0.75" points="142.97,-101.08 152.83,-97.2 142.7,-94.09 142.97,-101.08"/>
<text text-anchor="middle" x="126.13" y="-99.95" font-family="Times,serif" font-size="5.00">3.255</text>
</g>
<!-- 659 3 -->
<g id="node10" class="node">
<title>659 3</title>
<ellipse fill="none" stroke="black" cx="55.63" cy="-39.77" rx="25.77" ry="25.77"/>
<text text-anchor="middle" x="55.63" y="-37.07" font-family="Times,serif" font-size="9.00">659 3</text>
</g>
<!-- &#45;2&#45;&gt;659 3 -->
<g id="edge5" class="edge">
<title>&#45;2&#45;&gt;659 3</title>
<path fill="none" stroke="red" stroke-width="0.75" d="M81.38,-90.41C78.79,-85.34 75.44,-78.73 72,-71.98"/>
<polygon fill="red" stroke="red" stroke-width="0.75" points="74.99,-70.13 67.34,-62.81 68.75,-73.31 74.99,-70.13"/>
<text text-anchor="middle" x="71.06" y="-76.7" font-family="Times,serif" font-size="5.00">3.255</text>
</g>
<!-- 659 4 -->
<g id="node11" class="node">
<title>659 4</title>
<ellipse fill="none" stroke="black" cx="108.92" cy="-25.63" rx="25.77" ry="25.77"/>
<text text-anchor="middle" x="108.92" y="-22.93" font-family="Times,serif" font-size="9.00">659 4</text>
</g>
<!-- &#45;2&#45;&gt;659 4 -->
<g id="edge6" class="edge">
<title>&#45;2&#45;&gt;659 4</title>
<path fill="none" stroke="red" stroke-width="0.75" d="M89.03,-90.4C91.42,-82.62 94.97,-71.07 98.41,-59.87"/>
<polygon fill="red" stroke="red" stroke-width="0.75" points="101.78,-60.8 101.37,-50.21 95.09,-58.74 101.78,-60.8"/>
<text text-anchor="middle" x="96.53" y="-70.63" font-family="Times,serif" font-size="5.00">3.255</text>
</g>
<!-- 659 5 -->
<g id="node12" class="node">
<title>659 5</title>
<ellipse fill="none" stroke="black" cx="156.56" cy="-48.67" rx="25.77" ry="25.77"/>
<text text-anchor="middle" x="156.56" y="-45.97" font-family="Times,serif" font-size="9.00">659 5</text>
</g>
<!-- &#45;2&#45;&gt;659 5 -->
<g id="edge7" class="edge">
<title>&#45;2&#45;&gt;659 5</title>
<path fill="none" stroke="red" stroke-width="0.75" d="M98.09,-91.12C106.12,-85.29 117.07,-77.33 127.33,-69.89"/>
<polygon fill="red" stroke="red" stroke-width="0.75" points="129.67,-72.52 135.7,-63.81 125.55,-66.85 129.67,-72.52"/>
<text text-anchor="middle" x="118.33" y="-82" font-family="Times,serif" font-size="5.00">3.255</text>
</g>
<!-- 659 6 -->
<g id="node13" class="node">
<title>659 6</title>
<ellipse fill="none" stroke="black" cx="29.98" cy="-135.52" rx="25.77" ry="25.77"/>
<text text-anchor="middle" x="29.98" y="-132.82" font-family="Times,serif" font-size="9.00">659 6</text>
</g>
<!-- &#45;2&#45;&gt;659 6 -->
<g id="edge8" class="edge">
<title>&#45;2&#45;&gt;659 6</title>
<path fill="none" stroke="red" stroke-width="0.75" d="M74.23,-107.37C70.13,-109.98 65.32,-113.04 60.42,-116.15"/>
<polygon fill="red" stroke="red" stroke-width="0.75" points="58.18,-113.43 51.62,-121.75 61.94,-119.34 58.18,-113.43"/>
<text text-anchor="middle" x="61.7" y="-113.26" font-family="Times,serif" font-size="5.00">3.255</text>
</g>
<!-- 659 7 -->
<g id="node14" class="node">
<title>659 7</title>
<ellipse fill="none" stroke="black" cx="166.28" cy="-146" rx="25.77" ry="25.77"/>
<text text-anchor="middle" x="166.28" y="-143.3" font-family="Times,serif" font-size="9.00">659 7</text>
</g>
<!-- &#45;2&#45;&gt;659 7 -->
<g id="edge9" class="edge">
<title>&#45;2&#45;&gt;659 7</title>
<path fill="none" stroke="red" stroke-width="0.75" d="M97.97,-106.61C107.73,-112.24 122.05,-120.49 135.06,-127.99"/>
<polygon fill="red" stroke="red" stroke-width="0.75" points="133.37,-131.06 143.78,-133.02 136.86,-125 133.37,-131.06"/>
<text text-anchor="middle" x="122.14" y="-118.8" font-family="Times,serif" font-size="5.00">3.255</text>
</g>
<!-- &#45;3 -->
<g id="node3" class="node">
<title>&#45;3</title>
<polygon fill="lightgray" stroke="black" points="127.98,-109.83 103.97,-109.83 103.97,-91.23 127.98,-91.23 127.98,-109.83"/>
<text text-anchor="middle" x="115.98" y="-97.83" font-family="Times,serif" font-size="9.00">&#45;3</text>
</g>
<!-- &#45;3&#45;&gt;0 -->
<g id="edge1" class="edge">
<title>&#45;3&#45;&gt;0</title>
<path fill="none" stroke="green" stroke-width="0.4" stroke-dasharray="1,5" d="M110.37,-109.85C110.33,-109.9 110.3,-109.96 110.26,-110.02"/>
<polygon fill="green" stroke="green" stroke-width="0.4" points="112.32,-99.82 110.16,-110.19 118.32,-103.43 112.32,-99.82"/>
<text text-anchor="middle" x="115.94" y="-111.43" font-family="Times,serif" font-size="5.00">1.516</text>
</g>
<!-- &#45;3&#45;&gt;659 -->
<g id="edge39" class="edge">
<title>&#45;3&#45;&gt;659</title>
<path fill="none" stroke="green" stroke-width="0.39" stroke-dasharray="1,5" d="M116.96,-110.11C117.49,-115.27 118.19,-122.07 118.94,-129.38"/>
<polygon fill="green" stroke="green" stroke-width="0.39" points="115.48,-129.97 119.98,-139.56 122.44,-129.25 115.48,-129.97"/>
<text text-anchor="middle" x="124.4" y="-115.25" font-family="Times,serif" font-size="5.00">&#45;1.465</text>
</g>
<!-- &#45;3&#45;&gt;659 0 -->
<g id="edge31" class="edge">
<title>&#45;3&#45;&gt;659 0</title>
<path fill="none" stroke="green" stroke-width="0.39" stroke-dasharray="1,5" d="M109.71,-109.84C103.94,-118.43 95.05,-131.65 86.83,-143.87"/>
<polygon fill="green" stroke="green" stroke-width="0.39" points="83.7,-142.26 81.02,-152.51 89.51,-146.16 83.7,-142.26"/>
<text text-anchor="middle" x="104.73" y="-128.36" font-family="Times,serif" font-size="5.00">&#45;1.465</text>
</g>
<!-- &#45;3&#45;&gt;659 1 -->
<g id="edge32" class="edge">
<title>&#45;3&#45;&gt;659 1</title>
<path fill="none" stroke="green" stroke-width="0.39" stroke-dasharray="1,5" d="M104.17,-98.29C93.28,-96.23 76.57,-93.06 61.35,-90.17"/>
<polygon fill="green" stroke="green" stroke-width="0.39" points="61.62,-86.66 51.14,-88.24 60.32,-93.54 61.62,-86.66"/>
<text text-anchor="middle" x="76.3" y="-89.73" font-family="Times,serif" font-size="5.00">&#45;1.465</text>
</g>
<!-- &#45;3&#45;&gt;659 2 -->
<g id="edge33" class="edge">
<title>&#45;3&#45;&gt;659 2</title>
<path fill="none" stroke="green" stroke-width="0.39" stroke-dasharray="1,5" d="M127.74,-99.71C132.06,-99.42 137.2,-99.06 142.52,-98.69"/>
<polygon fill="green" stroke="green" stroke-width="0.39" points="143.09,-102.16 152.83,-97.98 142.61,-95.18 143.09,-102.16"/>
<text text-anchor="middle" x="141.59" y="-100.7" font-family="Times,serif" font-size="5.00">&#45;1.465</text>
</g>
<!-- &#45;3&#45;&gt;659 3 -->
<g id="edge34" class="edge">
<title>&#45;3&#45;&gt;659 3</title>
<path fill="none" stroke="green" stroke-width="0.39" stroke-dasharray="1,5" d="M106.55,-91.04C99.64,-84.08 89.93,-74.3 80.83,-65.15"/>
<polygon fill="green" stroke="green" stroke-width="0.39" points="83.27,-62.63 73.74,-58 78.3,-67.56 83.27,-62.63"/>
<text text-anchor="middle" x="87.23" y="-73.59" font-family="Times,serif" font-size="5.00">&#45;1.465</text>
</g>
<!-- &#45;3&#45;&gt;659 4 -->
<g id="edge35" class="edge">
<title>&#45;3&#45;&gt;659 4</title>
<path fill="none" stroke="green" stroke-width="0.39" stroke-dasharray="1,5" d="M115.08,-91.04C114.38,-83.53 113.34,-72.52 112.32,-61.67"/>
<polygon fill="green" stroke="green" stroke-width="0.39" points="115.78,-61.06 111.35,-51.43 108.81,-61.71 115.78,-61.06"/>
<text text-anchor="middle" x="120.16" y="-71.86" font-family="Times,serif" font-size="5.00">&#45;1.465</text>
</g>
<!-- &#45;3&#45;&gt;659 5 -->
<g id="edge36" class="edge">
<title>&#45;3&#45;&gt;659 5</title>
<path fill="none" stroke="green" stroke-width="0.39" stroke-dasharray="1,5" d="M123.42,-91.02C126.6,-86.95 130.5,-81.96 134.49,-76.86"/>
<polygon fill="green" stroke="green" stroke-width="0.39" points="137.35,-78.89 140.75,-68.86 131.84,-74.58 137.35,-78.89"/>
<text text-anchor="middle" x="135.41" y="-79.44" font-family="Times,serif" font-size="5.00">&#45;1.465</text>
</g>
<!-- &#45;3&#45;&gt;659 6 -->
<g id="edge37" class="edge">
<title>&#45;3&#45;&gt;659 6</title>
<path fill="none" stroke="green" stroke-width="0.39" stroke-dasharray="1,5" d="M104.02,-105.39C93.52,-109.67 77.73,-116.09 63.43,-121.91"/>
<polygon fill="green" stroke="green" stroke-width="0.39" points="61.79,-118.79 53.85,-125.81 64.43,-125.28 61.79,-118.79"/>
<text text-anchor="middle" x="77.27" y="-115.15" font-family="Times,serif" font-size="5.00">&#45;1.465</text>
</g>
<!-- &#45;3&#45;&gt;659 7 -->
<g id="edge38" class="edge">
<title>&#45;3&#45;&gt;659 7</title>
<path fill="none" stroke="green" stroke-width="0.39" stroke-dasharray="1,5" d="M126.65,-110.17C130.41,-113.58 134.84,-117.58 139.35,-121.65"/>
<polygon fill="green" stroke="green" stroke-width="0.39" points="137.13,-124.37 146.9,-128.47 141.82,-119.17 137.13,-124.37"/>
<text text-anchor="middle" x="139.45" y="-111.41" font-family="Times,serif" font-size="5.00">&#45;1.465</text>
</g>
<!-- &#45;4 -->
<g id="node4" class="node">
<title>&#45;4</title>
<polygon fill="lightgray" stroke="black" points="113.11,-97.55 89.1,-97.55 89.1,-78.95 113.11,-78.95 113.11,-97.55"/>
<text text-anchor="middle" x="101.11" y="-85.55" font-family="Times,serif" font-size="9.00">&#45;4</text>
</g>
<!-- &#45;4&#45;&gt;0 -->
<g id="edge29" class="edge">
<title>&#45;4&#45;&gt;0</title>
<path fill="none" stroke="red" stroke-width="0.39" stroke-dasharray="1,5" d="M100.94,-97.86C100.94,-97.95 100.93,-98.05 100.93,-98.14"/>
<polygon fill="red" stroke="red" stroke-width="0.39" points="97.44,-97.61 100.77,-107.67 104.44,-97.73 97.44,-97.61"/>
<text text-anchor="middle" x="94.48" y="-99.5" font-family="Times,serif" font-size="5.00">&#45;1.429</text>
</g>
<!-- &#45;4&#45;&gt;659 -->
<g id="edge28" class="edge">
<title>&#45;4&#45;&gt;659</title>
<path fill="none" stroke="red" stroke-width="0.82" stroke-dasharray="1,5" d="M103.47,-97.59C105.49,-105.57 108.56,-117.7 111.71,-130.17"/>
<polygon fill="red" stroke="red" stroke-width="0.82" points="108.4,-131.34 114.25,-140.18 115.19,-129.62 108.4,-131.34"/>
<text text-anchor="middle" x="101.97" y="-115.38" font-family="Times,serif" font-size="5.00">3.581</text>
</g>
<!-- &#45;4&#45;&gt;659 0 -->
<g id="edge20" class="edge">
<title>&#45;4&#45;&gt;659 0</title>
<path fill="none" stroke="red" stroke-width="0.82" stroke-dasharray="1,5" d="M97.27,-97.76C93.08,-108.17 86.12,-125.44 79.88,-140.92"/>
<polygon fill="red" stroke="red" stroke-width="0.82" points="76.62,-139.66 76.13,-150.25 83.11,-142.28 76.62,-139.66"/>
<text text-anchor="middle" x="82.95" y="-120.84" font-family="Times,serif" font-size="5.00">3.581</text>
</g>
<!-- &#45;4&#45;&gt;659 1 -->
<g id="edge21" class="edge">
<title>&#45;4&#45;&gt;659 1</title>
<path fill="none" stroke="red" stroke-width="0.82" stroke-dasharray="1,5" d="M89.31,-87.49C81.8,-87.01 71.64,-86.36 61.64,-85.71"/>
<polygon fill="red" stroke="red" stroke-width="0.82" points="61.6,-82.2 51.39,-85.05 61.15,-89.19 61.6,-82.2"/>
<text text-anchor="middle" x="81.1" y="-82.1" font-family="Times,serif" font-size="5.00">3.581</text>
</g>
<!-- &#45;4&#45;&gt;659 2 -->
<g id="edge22" class="edge">
<title>&#45;4&#45;&gt;659 2</title>
<path fill="none" stroke="red" stroke-width="0.82" stroke-dasharray="1,5" d="M112.87,-89.46C120.88,-90.28 131.96,-91.41 142.73,-92.52"/>
<polygon fill="red" stroke="red" stroke-width="0.82" points="142.55,-96.02 152.85,-93.56 143.26,-89.06 142.55,-96.02"/>
<text text-anchor="middle" x="133.42" y="-92.49" font-family="Times,serif" font-size="5.00">3.581</text>
</g>
<!-- &#45;4&#45;&gt;659 3 -->
<g id="edge23" class="edge">
<title>&#45;4&#45;&gt;659 3</title>
<path fill="none" stroke="red" stroke-width="0.82" stroke-dasharray="1,5" d="M92.34,-78.9C88.9,-75.24 84.76,-70.83 80.53,-66.31"/>
<polygon fill="red" stroke="red" stroke-width="0.82" points="82.8,-63.62 73.41,-58.72 77.7,-68.41 82.8,-63.62"/>
<text text-anchor="middle" x="80.81" y="-68.11" font-family="Times,serif" font-size="5.00">3.581</text>
</g>
<!-- &#45;4&#45;&gt;659 4 -->
<g id="edge24" class="edge">
<title>&#45;4&#45;&gt;659 4</title>
<path fill="none" stroke="red" stroke-width="0.82" stroke-dasharray="1,5" d="M102.29,-78.74C102.89,-73.93 103.66,-67.77 104.46,-61.35"/>
<polygon fill="red" stroke="red" stroke-width="0.82" points="107.96,-61.58 105.73,-51.22 101.02,-60.71 107.96,-61.58"/>
<text text-anchor="middle" x="109" y="-65.55" font-family="Times,serif" font-size="5.00">3.581</text>
</g>
<!-- &#45;4&#45;&gt;659 5 -->
<g id="edge25" class="edge">
<title>&#45;4&#45;&gt;659 5</title>
<path fill="none" stroke="red" stroke-width="0.82" stroke-dasharray="1,5" d="M112.86,-79.85C117.1,-76.83 122.09,-73.27 127.16,-69.65"/>
<polygon fill="red" stroke="red" stroke-width="0.82" points="129.53,-72.26 135.63,-63.6 125.46,-66.56 129.53,-72.26"/>
<text text-anchor="middle" x="114.39" y="-76.25" font-family="Times,serif" font-size="5.00">3.581</text>
</g>
<!-- &#45;4&#45;&gt;659 6 -->
<g id="edge26" class="edge">
<title>&#45;4&#45;&gt;659 6</title>
<path fill="none" stroke="red" stroke-width="0.82" stroke-dasharray="1,5" d="M89.04,-96.27C80.99,-101.62 70.03,-108.9 59.74,-115.74"/>
<polygon fill="red" stroke="red" stroke-width="0.82" points="57.72,-112.88 51.33,-121.33 61.59,-118.71 57.72,-112.88"/>
<text text-anchor="middle" x="68.76" y="-101.5" font-family="Times,serif" font-size="5.00">3.581</text>
</g>
<!-- &#45;4&#45;&gt;659 7 -->
<g id="edge27" class="edge">
<title>&#45;4&#45;&gt;659 7</title>
<path fill="none" stroke="red" stroke-width="0.82" stroke-dasharray="1,5" d="M111.87,-97.78C119.4,-104.46 129.81,-113.68 139.51,-122.28"/>
<polygon fill="red" stroke="red" stroke-width="0.82" points="137.26,-124.96 147.07,-128.97 141.91,-119.72 137.26,-124.96"/>
<text text-anchor="middle" x="131.31" y="-105.53" font-family="Times,serif" font-size="5.00">3.581</text>
</g>
<!-- 659&#45;&gt;0 -->
<g id="edge19" class="edge">
<title>659&#45;&gt;0</title>
<path fill="none" stroke="red" stroke-width="0.39" d="M107.76,-142.61C107.73,-142.54 107.7,-142.47 107.67,-142.4"/>
<polygon fill="red" stroke="red" stroke-width="0.39" points="114.87,-149.87 107.57,-142.19 108.49,-152.75 114.87,-149.87"/>
<text text-anchor="middle" x="101.26" y="-144.01" font-family="Times,serif" font-size="5.00">&#45;1.448</text>
</g>
<!-- 659 0&#45;&gt;0 -->
<g id="edge11" class="edge">
<title>659 0&#45;&gt;0</title>
<path fill="none" stroke="red" stroke-width="0.39" d="M81.5,-152.99C82.28,-151.9 83.06,-150.79 83.85,-149.69"/>
<polygon fill="red" stroke="red" stroke-width="0.39" points="86.78,-151.6 89.72,-141.42 81.07,-147.55 86.78,-151.6"/>
<text text-anchor="middle" x="77.05" y="-146.84" font-family="Times,serif" font-size="5.00">1.448</text>
</g>
<!-- 659 1&#45;&gt;0 -->
<g id="edge12" class="edge">
<title>659 1&#45;&gt;0</title>
<path fill="none" stroke="red" stroke-width="0.39" d="M48.08,-96.28C56.64,-101.19 66.45,-106.82 75.25,-111.87"/>
<polygon fill="red" stroke="red" stroke-width="0.39" points="73.54,-114.93 83.96,-116.87 77.03,-108.86 73.54,-114.93"/>
<text text-anchor="middle" x="56.04" y="-105.58" font-family="Times,serif" font-size="5.00">1.086</text>
</g>
<!-- 659 2&#45;&gt;0 -->
<g id="edge13" class="edge">
<title>659 2&#45;&gt;0</title>
<path fill="none" stroke="red" stroke-width="0.39" d="M154.25,-105.57C145.67,-108.88 135.96,-112.63 127.18,-116.01"/>
<polygon fill="red" stroke="red" stroke-width="0.39" points="125.84,-112.78 117.77,-119.65 128.36,-119.31 125.84,-112.78"/>
<text text-anchor="middle" x="146.34" y="-106.29" font-family="Times,serif" font-size="5.00">0.724</text>
</g>
<!-- 659 3&#45;&gt;0 -->
<g id="edge14" class="edge">
<title>659 3&#45;&gt;0</title>
<path fill="none" stroke="red" stroke-width="0.39" d="M67.64,-62.97C73.65,-74.59 80.95,-88.68 87.14,-100.63"/>
<polygon fill="red" stroke="red" stroke-width="0.39" points="84.1,-102.39 91.81,-109.66 90.32,-99.17 84.1,-102.39"/>
<text text-anchor="middle" x="71.76" y="-83.3" font-family="Times,serif" font-size="5.00">0.362</text>
</g>
<!-- 659 4&#45;&gt;0 -->
<g id="edge15" class="edge">
<title>659 4&#45;&gt;0</title>
<path fill="none" stroke="red" stroke-width="0.39" d="M106.76,-51.3C105.57,-65.47 104.08,-83.09 102.85,-97.69"/>
<polygon fill="red" stroke="red" stroke-width="0.39" points="99.36,-97.44 102.01,-107.7 106.34,-98.03 99.36,-97.44"/>
<text text-anchor="middle" x="107.62" y="-70" font-family="Times,serif" font-size="5.00">0.000</text>
</g>
<!-- 659 5&#45;&gt;0 -->
<g id="edge16" class="edge">
<title>659 5&#45;&gt;0</title>
<path fill="none" stroke="red" stroke-width="0.39" d="M141.52,-69.48C134.11,-79.73 125.15,-92.13 117.49,-102.74"/>
<polygon fill="red" stroke="red" stroke-width="0.39" points="114.44,-100.98 111.42,-111.13 120.12,-105.07 114.44,-100.98"/>
<text text-anchor="middle" x="123.05" y="-87.61" font-family="Times,serif" font-size="5.00">&#45;0.362</text>
</g>
<!-- 659 6&#45;&gt;0 -->
<g id="edge17" class="edge">
<title>659 6&#45;&gt;0</title>
<path fill="none" stroke="red" stroke-width="0.39" d="M55.42,-132.2C60.7,-131.51 66.31,-130.78 71.7,-130.08"/>
<polygon fill="red" stroke="red" stroke-width="0.39" points="72.21,-133.54 81.67,-128.78 71.31,-126.6 72.21,-133.54"/>
<text text-anchor="middle" x="70.02" y="-132.64" font-family="Times,serif" font-size="5.00">&#45;0.724</text>
</g>
<!-- 659 7&#45;&gt;0 -->
<g id="edge18" class="edge">
<title>659 7&#45;&gt;0</title>
<path fill="none" stroke="red" stroke-width="0.39" d="M141.39,-138.56C137.05,-137.27 132.51,-135.91 128.1,-134.59"/>
<polygon fill="red" stroke="red" stroke-width="0.39" points="128.77,-131.14 118.19,-131.63 126.77,-137.85 128.77,-131.14"/>
<text text-anchor="middle" x="128.29" y="-132.08" font-family="Times,serif" font-size="5.00">&#45;1.086</text>
</g>
</g>
</svg>
