<?xml version="1.0" encoding="UTF-8" standalone="no"?>
<!DOCTYPE svg PUBLIC "-//W3C//DTD SVG 1.1//EN"
 "http://www.w3.org/Graphics/SVG/1.1/DTD/svg11.dtd">
<!-- Generated by graphviz version 2.47.1 (20210417.1919)
 -->
<!-- Pages: 1 -->
<svg width="180pt" height="150pt"
 viewBox="0.00 0.00 179.74 150.15" xmlns="http://www.w3.org/2000/svg" xmlns:xlink="http://www.w3.org/1999/xlink">
<g id="graph0" class="graph" transform="scale(1 1) rotate(0) translate(4 146.15)">
<polygon fill="white" stroke="transparent" points="-4,4 -4,-146.15 175.74,-146.15 175.74,4 -4,4"/>
<!-- &#45;1 -->
<g id="node1" class="node">
<title>&#45;1</title>
<polygon fill="lightgray" stroke="black" points="114.75,-135.7 90.75,-135.7 90.75,-117.1 114.75,-117.1 114.75,-135.7"/>
<text text-anchor="middle" x="102.75" y="-123.7" font-family="Times,serif" font-size="9.00">&#45;1</text>
</g>
<!-- &#45;2 -->
<g id="node2" class="node">
<title>&#45;2</title>
<polygon fill="lightgray" stroke="black" points="53.14,-117.67 29.13,-117.67 29.13,-99.07 53.14,-99.07 53.14,-117.67"/>
<text text-anchor="middle" x="41.14" y="-105.67" font-family="Times,serif" font-size="9.00">&#45;2</text>
</g>
<!-- 0 -->
<g id="node5" class="node">
<title>0</title>
<ellipse fill="lightblue" stroke="black" cx="109.03" cy="-72.84" rx="14.49" ry="14.49"/>
<ellipse fill="none" stroke="black" cx="109.03" cy="-72.84" rx="18.49" ry="18.49"/>
<text text-anchor="middle" x="109.03" y="-70.14" font-family="Times,serif" font-size="9.00">0</text>
</g>
<!-- &#45;2&#45;&gt;0 -->
<g id="edge7" class="edge">
<title>&#45;2&#45;&gt;0</title>
<path fill="none" stroke="green" stroke-width="0.17" d="M52.96,-102.18C61.34,-97.8 72.9,-91.75 83.35,-86.28"/>
<polygon fill="green" stroke="green" stroke-width="0.17" points="85.27,-89.22 92.51,-81.49 82.02,-83.02 85.27,-89.22"/>
<text text-anchor="middle" x="61.7" y="-95.73" font-family="Times,serif" font-size="5.00">&#45;0.372</text>
</g>
<!-- 3734 -->
<g id="node6" class="node">
<title>3734</title>
<ellipse fill="white" stroke="black" cx="39.35" cy="-40.94" rx="35.21" ry="35.21"/>
<ellipse fill="none" stroke="black" cx="39.35" cy="-40.94" rx="39.19" ry="39.19"/>
<text text-anchor="middle" x="39.35" y="-38.24" font-family="Times,serif" font-size="9.00">heaviside</text>
</g>
<!-- &#45;2&#45;&gt;3734 -->
<g id="edge4" class="edge">
<title>&#45;2&#45;&gt;3734</title>
<path fill="none" stroke="green" stroke-width="0.87" d="M40.89,-98.99C40.82,-96.46 40.74,-93.53 40.66,-90.37"/>
<polygon fill="green" stroke="green" stroke-width="0.87" points="44.16,-90.23 40.39,-80.32 37.16,-90.41 44.16,-90.23"/>
<text text-anchor="middle" x="35.15" y="-90.18" font-family="Times,serif" font-size="5.00">3.832</text>
</g>
<!-- &#45;3 -->
<g id="node3" class="node">
<title>&#45;3</title>
<polygon fill="lightgray" stroke="black" points="171.99,-142.05 147.99,-142.05 147.99,-123.45 171.99,-123.45 171.99,-142.05"/>
<text text-anchor="middle" x="159.99" y="-130.05" font-family="Times,serif" font-size="9.00">&#45;3</text>
</g>
<!-- &#45;3&#45;&gt;0 -->
<g id="edge1" class="edge">
<title>&#45;3&#45;&gt;0</title>
<path fill="none" stroke="red" stroke-width="0.19" stroke-dasharray="1,5" d="M152.03,-123.39C145.55,-115.78 136.16,-104.73 127.8,-94.91"/>
<polygon fill="red" stroke="red" stroke-width="0.19" points="130.25,-92.39 121.1,-87.04 124.92,-96.92 130.25,-92.39"/>
<text text-anchor="middle" x="133.46" y="-110.65" font-family="Times,serif" font-size="5.00">&#45;0.471</text>
</g>
<!-- &#45;4 -->
<g id="node4" class="node">
<title>&#45;4</title>
<polygon fill="lightgray" stroke="black" points="167.7,-18.7 143.69,-18.7 143.69,-0.1 167.7,-0.1 167.7,-18.7"/>
<text text-anchor="middle" x="155.7" y="-6.7" font-family="Times,serif" font-size="9.00">&#45;4</text>
</g>
<!-- &#45;4&#45;&gt;0 -->
<g id="edge2" class="edge">
<title>&#45;4&#45;&gt;0</title>
<path fill="none" stroke="green" stroke-width="0.37" stroke-dasharray="1,5" d="M148.81,-18.76C142.89,-26.81 134.09,-38.77 126.27,-49.4"/>
<polygon fill="green" stroke="green" stroke-width="0.37" points="123.39,-47.41 120.29,-57.53 129.03,-51.55 123.39,-47.41"/>
<text text-anchor="middle" x="131.92" y="-35.58" font-family="Times,serif" font-size="5.00">1.374</text>
</g>
<!-- 0&#45;&gt;0 -->
<g id="edge3" class="edge">
<title>0&#45;&gt;0</title>
<path fill="none" stroke="green" stroke-width="0.27" d="M126.68,-79.27C136.49,-80.47 145.52,-78.33 145.52,-72.84 145.52,-69.41 141.99,-67.29 136.95,-66.47"/>
<polygon fill="green" stroke="green" stroke-width="0.27" points="136.7,-62.97 126.68,-66.41 136.66,-69.97 136.7,-62.97"/>
<text text-anchor="middle" x="151.98" y="-71.34" font-family="Times,serif" font-size="5.00">&#45;0.834</text>
</g>
<!-- 3734&#45;&gt;0 -->
<g id="edge5" class="edge">
<title>3734&#45;&gt;0</title>
<path fill="none" stroke="red" stroke-width="0.44" d="M75.41,-57.45C77.97,-58.62 80.52,-59.79 83,-60.93"/>
<polygon fill="red" stroke="red" stroke-width="0.44" points="81.6,-64.13 92.15,-65.11 84.51,-57.77 81.6,-64.13"/>
<text text-anchor="middle" x="84.83" y="-60.69" font-family="Times,serif" font-size="5.00">1.712</text>
</g>
<!-- 3734&#45;&gt;3734 -->
<g id="edge6" class="edge">
<title>3734&#45;&gt;3734</title>
<path fill="none" stroke="red" stroke-width="0.26" stroke-dasharray="1,5" d="M78.21,-47.64C88.71,-47.29 96.69,-45.05 96.69,-40.94 96.69,-38.31 93.42,-36.44 88.3,-35.35"/>
<polygon fill="red" stroke="red" stroke-width="0.26" points="88.53,-31.85 78.21,-34.24 87.77,-38.81 88.53,-31.85"/>
<text text-anchor="middle" x="103.15" y="-39.44" font-family="Times,serif" font-size="5.00">&#45;0.791</text>
</g>
</g>
</svg>
