<?xml version="1.0" encoding="UTF-8" standalone="no"?>
<!DOCTYPE svg PUBLIC "-//W3C//DTD SVG 1.1//EN"
 "http://www.w3.org/Graphics/SVG/1.1/DTD/svg11.dtd">
<!-- Generated by graphviz version 2.47.1 (20210417.1919)
 -->
<!-- Pages: 1 -->
<svg width="265pt" height="278pt"
 viewBox="0.00 0.00 265.45 278.45" xmlns="http://www.w3.org/2000/svg" xmlns:xlink="http://www.w3.org/1999/xlink">
<g id="graph0" class="graph" transform="scale(1 1) rotate(0) translate(4 274.45)">
<polygon fill="white" stroke="transparent" points="-4,4 -4,-274.45 261.45,-274.45 261.45,4 -4,4"/>
<!-- &#45;1 -->
<g id="node1" class="node">
<title>&#45;1</title>
<polygon fill="lightgray" stroke="black" points="23.75,-133.85 -0.25,-133.85 -0.25,-115.25 23.75,-115.25 23.75,-133.85"/>
<text text-anchor="middle" x="11.75" y="-121.85" font-family="Times,serif" font-size="9.00">&#45;1</text>
</g>
<!-- 0 -->
<g id="node5" class="node">
<title>0</title>
<ellipse fill="lightblue" stroke="black" cx="98.08" cy="-104.64" rx="14.49" ry="14.49"/>
<ellipse fill="none" stroke="black" cx="98.08" cy="-104.64" rx="18.49" ry="18.49"/>
<text text-anchor="middle" x="98.08" y="-101.94" font-family="Times,serif" font-size="9.00">0</text>
</g>
<!-- &#45;1&#45;&gt;0 -->
<g id="edge7" class="edge">
<title>&#45;1&#45;&gt;0</title>
<path fill="none" stroke="green" stroke-width="1.75" d="M23.75,-121.78C35.69,-119.03 54.42,-114.71 70.1,-111.09"/>
<polygon fill="green" stroke="green" stroke-width="1.75" points="70.9,-114.5 79.86,-108.84 69.33,-107.68 70.9,-114.5"/>
<text text-anchor="middle" x="41.3" y="-117.94" font-family="Times,serif" font-size="5.00">8.266</text>
</g>
<!-- 21056 -->
<g id="node9" class="node">
<title>21056</title>
<ellipse fill="white" stroke="black" cx="50.69" cy="-175.87" rx="27.45" ry="27.45"/>
<text text-anchor="middle" x="50.69" y="-173.17" font-family="Times,serif" font-size="9.00">21056</text>
</g>
<!-- &#45;1&#45;&gt;21056 -->
<g id="edge1" class="edge">
<title>&#45;1&#45;&gt;21056</title>
<path fill="none" stroke="green" stroke-width="0.3" d="M18.89,-133.96C21.58,-137.51 24.8,-141.76 28.15,-146.17"/>
<polygon fill="green" stroke="green" stroke-width="0.3" points="25.39,-148.32 34.22,-154.17 30.96,-144.08 25.39,-148.32"/>
<text text-anchor="middle" x="17.89" y="-141.57" font-family="Times,serif" font-size="5.00">1.000</text>
</g>
<!-- &#45;2 -->
<g id="node2" class="node">
<title>&#45;2</title>
<polygon fill="lightgray" stroke="black" points="116,-149.12 91.99,-149.12 91.99,-130.51 116,-130.51 116,-149.12"/>
<text text-anchor="middle" x="104" y="-137.11" font-family="Times,serif" font-size="9.00">&#45;2</text>
</g>
<!-- &#45;2&#45;&gt;21056 -->
<g id="edge2" class="edge">
<title>&#45;2&#45;&gt;21056</title>
<path fill="none" stroke="green" stroke-width="0.68" d="M92.16,-147.82C89.06,-149.92 85.56,-152.28 81.94,-154.73"/>
<polygon fill="green" stroke="green" stroke-width="0.68" points="79.75,-151.99 73.43,-160.49 83.67,-157.79 79.75,-151.99"/>
<text text-anchor="middle" x="92.68" y="-152.77" font-family="Times,serif" font-size="5.00">2.887</text>
</g>
<!-- 21059 -->
<g id="node10" class="node">
<title>21059</title>
<ellipse fill="white" stroke="black" cx="64.34" cy="-53.67" rx="27.45" ry="27.45"/>
<text text-anchor="middle" x="64.34" y="-50.97" font-family="Times,serif" font-size="9.00">21059</text>
</g>
<!-- &#45;2&#45;&gt;21059 -->
<g id="edge4" class="edge">
<title>&#45;2&#45;&gt;21059</title>
<path fill="none" stroke="green" stroke-width="0.68" d="M99.6,-130.27C94.89,-120.04 87.14,-103.2 80.1,-87.92"/>
<polygon fill="green" stroke="green" stroke-width="0.68" points="83.21,-86.3 75.85,-78.68 76.85,-89.22 83.21,-86.3"/>
<text text-anchor="middle" x="84.23" y="-110.59" font-family="Times,serif" font-size="5.00">2.887</text>
</g>
<!-- 21060 -->
<g id="node11" class="node">
<title>21060</title>
<ellipse fill="white" stroke="black" cx="174.03" cy="-109.44" rx="27.45" ry="27.45"/>
<text text-anchor="middle" x="174.03" y="-106.74" font-family="Times,serif" font-size="9.00">21060</text>
</g>
<!-- &#45;2&#45;&gt;21060 -->
<g id="edge6" class="edge">
<title>&#45;2&#45;&gt;21060</title>
<path fill="none" stroke="green" stroke-width="0.68" d="M115.88,-134.66C122.52,-131.78 131.19,-128.02 139.79,-124.29"/>
<polygon fill="green" stroke="green" stroke-width="0.68" points="141.22,-127.49 149,-120.3 138.43,-121.06 141.22,-127.49"/>
<text text-anchor="middle" x="122.21" y="-130.98" font-family="Times,serif" font-size="5.00">2.887</text>
</g>
<!-- &#45;3 -->
<g id="node3" class="node">
<title>&#45;3</title>
<polygon fill="lightgray" stroke="black" points="128.91,-31.7 104.91,-31.7 104.91,-13.1 128.91,-13.1 128.91,-31.7"/>
<text text-anchor="middle" x="116.91" y="-19.7" font-family="Times,serif" font-size="9.00">&#45;3</text>
</g>
<!-- &#45;3&#45;&gt;0 -->
<g id="edge8" class="edge">
<title>&#45;3&#45;&gt;0</title>
<path fill="none" stroke="green" stroke-width="1.75" d="M114.75,-31.83C112.28,-42.6 108.14,-60.71 104.6,-76.18"/>
<polygon fill="green" stroke="green" stroke-width="1.75" points="101.09,-75.81 102.27,-86.34 107.91,-77.37 101.09,-75.81"/>
<text text-anchor="middle" x="104.05" y="-55.5" font-family="Times,serif" font-size="5.00">8.266</text>
</g>
<!-- &#45;3&#45;&gt;21059 -->
<g id="edge3" class="edge">
<title>&#45;3&#45;&gt;21059</title>
<path fill="none" stroke="green" stroke-width="0.3" d="M104.98,-29.5C102.36,-31.06 99.46,-32.78 96.45,-34.57"/>
<polygon fill="green" stroke="green" stroke-width="0.3" points="94.64,-31.58 87.83,-39.7 98.22,-37.59 94.64,-31.58"/>
<text text-anchor="middle" x="106.34" y="-33.53" font-family="Times,serif" font-size="5.00">1.000</text>
</g>
<!-- &#45;4 -->
<g id="node4" class="node">
<title>&#45;4</title>
<polygon fill="lightgray" stroke="black" points="178.38,-177.77 154.38,-177.77 154.38,-159.17 178.38,-159.17 178.38,-177.77"/>
<text text-anchor="middle" x="166.38" y="-165.77" font-family="Times,serif" font-size="9.00">&#45;4</text>
</g>
<!-- &#45;4&#45;&gt;0 -->
<g id="edge9" class="edge">
<title>&#45;4&#45;&gt;0</title>
<path fill="none" stroke="green" stroke-width="1.75" d="M156.3,-159.05C146.62,-150.01 131.69,-136.05 119.38,-124.54"/>
<polygon fill="green" stroke="green" stroke-width="1.75" points="121.44,-121.67 111.74,-117.4 116.66,-126.79 121.44,-121.67"/>
<text text-anchor="middle" x="132.21" y="-143.3" font-family="Times,serif" font-size="5.00">8.266</text>
</g>
<!-- &#45;4&#45;&gt;21060 -->
<g id="edge5" class="edge">
<title>&#45;4&#45;&gt;21060</title>
<path fill="none" stroke="green" stroke-width="0.3" d="M167.61,-158.99C168.07,-155.45 168.62,-151.17 169.21,-146.64"/>
<polygon fill="green" stroke="green" stroke-width="0.3" points="172.71,-146.86 170.52,-136.49 165.77,-145.96 172.71,-146.86"/>
<text text-anchor="middle" x="162.78" y="-154.32" font-family="Times,serif" font-size="5.00">1.000</text>
</g>
<!-- 2802 -->
<g id="node6" class="node">
<title>2802</title>
<ellipse fill="white" stroke="black" cx="184.04" cy="-28.04" rx="24.08" ry="24.08"/>
<ellipse fill="none" stroke="black" cx="184.04" cy="-28.04" rx="28.08" ry="28.08"/>
<text text-anchor="middle" x="184.04" y="-25.34" font-family="Times,serif" font-size="9.00">2802</text>
</g>
<!-- 21057 -->
<g id="node7" class="node">
<title>21057</title>
<ellipse fill="white" stroke="black" cx="226.22" cy="-239.22" rx="27.42" ry="27.42"/>
<ellipse fill="none" stroke="black" cx="226.22" cy="-239.22" rx="31.45" ry="31.45"/>
<text text-anchor="middle" x="226.22" y="-236.52" font-family="Times,serif" font-size="9.00">21057</text>
</g>
<!-- 21058 -->
<g id="node8" class="node">
<title>21058</title>
<ellipse fill="white" stroke="black" cx="135.22" cy="-239.22" rx="27.42" ry="27.42"/>
<ellipse fill="none" stroke="black" cx="135.22" cy="-239.22" rx="31.45" ry="31.45"/>
<text text-anchor="middle" x="135.22" y="-236.52" font-family="Times,serif" font-size="9.00">21058</text>
</g>
<!-- 21056&#45;&gt;0 -->
<g id="edge10" class="edge">
<title>21056&#45;&gt;0</title>
<path fill="none" stroke="green" stroke-width="1.75" d="M65.94,-152.94C71.13,-145.14 76.95,-136.4 82.18,-128.53"/>
<polygon fill="green" stroke="green" stroke-width="1.75" points="85.17,-130.36 87.79,-120.1 79.34,-126.48 85.17,-130.36"/>
<text text-anchor="middle" x="68.44" y="-142.23" font-family="Times,serif" font-size="5.00">8.266</text>
</g>
<!-- 21059&#45;&gt;0 -->
<g id="edge11" class="edge">
<title>21059&#45;&gt;0</title>
<path fill="none" stroke="green" stroke-width="1.75" d="M79.43,-76.47C80.31,-77.8 81.19,-79.13 82.07,-80.46"/>
<polygon fill="green" stroke="green" stroke-width="1.75" points="79.3,-82.61 87.74,-89.02 85.14,-78.75 79.3,-82.61"/>
<text text-anchor="middle" x="75.13" y="-79.97" font-family="Times,serif" font-size="5.00">8.266</text>
</g>
<!-- 21060&#45;&gt;0 -->
<g id="edge12" class="edge">
<title>21060&#45;&gt;0</title>
<path fill="none" stroke="green" stroke-width="1.75" d="M146.61,-107.71C140.29,-107.31 133.56,-106.88 127.17,-106.48"/>
<polygon fill="green" stroke="green" stroke-width="1.75" points="127.1,-102.96 116.9,-105.83 126.66,-109.95 127.1,-102.96"/>
<text text-anchor="middle" x="131.27" y="-108.59" font-family="Times,serif" font-size="5.00">8.266</text>
</g>
</g>
</svg>
