<?xml version="1.0" encoding="UTF-8" standalone="no"?>
<!DOCTYPE svg PUBLIC "-//W3C//DTD SVG 1.1//EN"
 "http://www.w3.org/Graphics/SVG/1.1/DTD/svg11.dtd">
<!-- Generated by graphviz version 2.47.1 (20210417.1919)
 -->
<!-- Pages: 1 -->
<svg width="365pt" height="305pt"
 viewBox="0.00 0.00 364.88 304.68" xmlns="http://www.w3.org/2000/svg" xmlns:xlink="http://www.w3.org/1999/xlink">
<g id="graph0" class="graph" transform="scale(1 1) rotate(0) translate(4 300.68)">
<polygon fill="white" stroke="transparent" points="-4,4 -4,-300.68 360.88,-300.68 360.88,4 -4,4"/>
<!-- &#45;1 -->
<g id="node1" class="node">
<title>&#45;1</title>
<polygon fill="lightgray" stroke="black" points="126.07,-176.23 102.07,-176.23 102.07,-157.63 126.07,-157.63 126.07,-176.23"/>
<text text-anchor="middle" x="114.07" y="-164.23" font-family="Times,serif" font-size="9.00">&#45;1</text>
</g>
<!-- 0 -->
<g id="node5" class="node">
<title>0</title>
<ellipse fill="lightblue" stroke="black" cx="168.24" cy="-172.04" rx="14.49" ry="14.49"/>
<ellipse fill="none" stroke="black" cx="168.24" cy="-172.04" rx="18.49" ry="18.49"/>
<text text-anchor="middle" x="168.24" y="-169.34" font-family="Times,serif" font-size="9.00">0</text>
</g>
<!-- &#45;1&#45;&gt;0 -->
<g id="edge70" class="edge">
<title>&#45;1&#45;&gt;0</title>
<path fill="none" stroke="green" stroke-width="1.31" d="M125.82,-168.04C129.96,-168.43 134.81,-168.89 139.72,-169.35"/>
<polygon fill="green" stroke="green" stroke-width="1.31" points="139.41,-172.84 149.69,-170.29 140.06,-165.87 139.41,-172.84"/>
<text text-anchor="middle" x="132.77" y="-164.19" font-family="Times,serif" font-size="5.00">6.069</text>
</g>
<!-- 17382 -->
<g id="node14" class="node">
<title>17382</title>
<ellipse fill="white" stroke="black" cx="170.32" cy="-153.55" rx="27.42" ry="27.42"/>
<ellipse fill="none" stroke="black" cx="170.32" cy="-153.55" rx="31.45" ry="31.45"/>
<text text-anchor="middle" x="170.32" y="-150.85" font-family="Times,serif" font-size="9.00">17382</text>
</g>
<!-- &#45;1&#45;&gt;17382 -->
<g id="edge8" class="edge">
<title>&#45;1&#45;&gt;17382</title>
<path fill="none" stroke="green" stroke-width="0.96" d="M126,-164.09C127.29,-163.78 128.65,-163.46 130.06,-163.12"/>
<polygon fill="green" stroke="green" stroke-width="0.96" points="130.97,-166.5 139.89,-160.78 129.35,-159.69 130.97,-166.5"/>
<text text-anchor="middle" x="130.84" y="-159.11" font-family="Times,serif" font-size="5.00">4.315</text>
</g>
<!-- 24128 -->
<g id="node17" class="node">
<title>24128</title>
<ellipse fill="white" stroke="black" cx="192.21" cy="-99.78" rx="27.42" ry="27.42"/>
<ellipse fill="none" stroke="black" cx="192.21" cy="-99.78" rx="31.45" ry="31.45"/>
<text text-anchor="middle" x="192.21" y="-97.08" font-family="Times,serif" font-size="9.00">24128</text>
</g>
<!-- &#45;1&#45;&gt;24128 -->
<g id="edge18" class="edge">
<title>&#45;1&#45;&gt;24128</title>
<path fill="none" stroke="green" stroke-width="0.96" d="M124.93,-157.59C134.17,-149.65 147.91,-137.84 160.57,-126.96"/>
<polygon fill="green" stroke="green" stroke-width="0.96" points="162.96,-129.53 168.27,-120.35 158.4,-124.22 162.96,-129.53"/>
<text text-anchor="middle" x="137.13" y="-143.78" font-family="Times,serif" font-size="5.00">4.315</text>
</g>
<!-- 24129 -->
<g id="node20" class="node">
<title>24129</title>
<ellipse fill="white" stroke="black" cx="177.74" cy="-126.85" rx="27.42" ry="27.42"/>
<ellipse fill="none" stroke="black" cx="177.74" cy="-126.85" rx="31.45" ry="31.45"/>
<text text-anchor="middle" x="177.74" y="-124.15" font-family="Times,serif" font-size="9.00">24129</text>
</g>
<!-- &#45;1&#45;&gt;24129 -->
<g id="edge28" class="edge">
<title>&#45;1&#45;&gt;24129</title>
<path fill="none" stroke="green" stroke-width="0.96" d="M126.04,-159.39C130.84,-156.37 136.63,-152.73 142.58,-148.98"/>
<polygon fill="green" stroke="green" stroke-width="0.96" points="144.71,-151.78 151.31,-143.49 140.98,-145.85 144.71,-151.78"/>
<text text-anchor="middle" x="128.69" y="-149.69" font-family="Times,serif" font-size="5.00">4.315</text>
</g>
<!-- &#45;2 -->
<g id="node2" class="node">
<title>&#45;2</title>
<polygon fill="lightgray" stroke="black" points="119.47,-120.28 95.47,-120.28 95.47,-101.68 119.47,-101.68 119.47,-120.28"/>
<text text-anchor="middle" x="107.47" y="-108.28" font-family="Times,serif" font-size="9.00">&#45;2</text>
</g>
<!-- &#45;2&#45;&gt;0 -->
<g id="edge76" class="edge">
<title>&#45;2&#45;&gt;0</title>
<path fill="none" stroke="green" stroke-width="0.13" stroke-dasharray="1,5" d="M116.96,-120.52C125.13,-128.73 137.2,-140.85 147.57,-151.28"/>
<polygon fill="green" stroke="green" stroke-width="0.13" points="145.22,-153.87 154.75,-158.49 150.18,-148.94 145.22,-153.87"/>
<text text-anchor="middle" x="126.64" y="-137.4" font-family="Times,serif" font-size="5.00">0.167</text>
</g>
<!-- 14652 -->
<g id="node9" class="node">
<title>14652</title>
<ellipse fill="white" stroke="black" cx="27.22" cy="-86.07" rx="27.45" ry="27.45"/>
<text text-anchor="middle" x="27.22" y="-83.37" font-family="Times,serif" font-size="9.00">14652</text>
</g>
<!-- &#45;2&#45;&gt;14652 -->
<g id="edge1" class="edge">
<title>&#45;2&#45;&gt;14652</title>
<path fill="none" stroke="green" stroke-width="0.28" d="M95.63,-107.3C86.98,-104.62 74.76,-100.83 63.03,-97.19"/>
<polygon fill="green" stroke="green" stroke-width="0.28" points="63.98,-93.82 53.39,-94.19 61.9,-100.5 63.98,-93.82"/>
<text text-anchor="middle" x="73.71" y="-97.75" font-family="Times,serif" font-size="5.00">0.897</text>
</g>
<!-- 24126 -->
<g id="node10" class="node">
<title>24126</title>
<ellipse fill="white" stroke="black" cx="64.12" cy="-33.35" rx="27.45" ry="27.45"/>
<text text-anchor="middle" x="64.12" y="-30.65" font-family="Times,serif" font-size="9.00">24126</text>
</g>
<!-- &#45;2&#45;&gt;24126 -->
<g id="edge2" class="edge">
<title>&#45;2&#45;&gt;24126</title>
<path fill="none" stroke="green" stroke-width="0.28" d="M102.15,-101.46C97.24,-92.66 89.65,-79.07 82.54,-66.33"/>
<polygon fill="green" stroke="green" stroke-width="0.28" points="85.42,-64.31 77.49,-57.29 79.31,-67.73 85.42,-64.31"/>
<text text-anchor="middle" x="86.72" y="-85.4" font-family="Times,serif" font-size="5.00">0.897</text>
</g>
<!-- 24127 -->
<g id="node11" class="node">
<title>24127</title>
<ellipse fill="white" stroke="black" cx="42.42" cy="-54.99" rx="27.45" ry="27.45"/>
<text text-anchor="middle" x="42.42" y="-52.29" font-family="Times,serif" font-size="9.00">24127</text>
</g>
<!-- &#45;2&#45;&gt;24127 -->
<g id="edge3" class="edge">
<title>&#45;2&#45;&gt;24127</title>
<path fill="none" stroke="green" stroke-width="0.28" d="M96.43,-101.48C89.42,-95.45 80,-87.34 70.99,-79.59"/>
<polygon fill="green" stroke="green" stroke-width="0.28" points="73.12,-76.8 63.25,-72.93 68.55,-82.1 73.12,-76.8"/>
<text text-anchor="middle" x="78.09" y="-92.04" font-family="Times,serif" font-size="5.00">0.897</text>
</g>
<!-- &#45;2&#45;&gt;17382 -->
<g id="edge11" class="edge">
<title>&#45;2&#45;&gt;17382</title>
<path fill="none" stroke="green" stroke-width="0.21" d="M119.29,-118.99C124.02,-122.19 129.74,-126.06 135.61,-130.04"/>
<polygon fill="green" stroke="green" stroke-width="0.21" points="133.98,-133.16 144.23,-135.87 137.91,-127.37 133.98,-133.16"/>
<text text-anchor="middle" x="121.82" y="-126.01" font-family="Times,serif" font-size="5.00">0.541</text>
</g>
<!-- &#45;2&#45;&gt;24128 -->
<g id="edge21" class="edge">
<title>&#45;2&#45;&gt;24128</title>
<path fill="none" stroke="green" stroke-width="0.21" d="M119.25,-109.42C127.62,-108.32 139.41,-106.76 151.06,-105.22"/>
<polygon fill="green" stroke="green" stroke-width="0.21" points="151.73,-108.66 161.19,-103.88 150.82,-101.72 151.73,-108.66"/>
<text text-anchor="middle" x="129.53" y="-108.82" font-family="Times,serif" font-size="5.00">0.541</text>
</g>
<!-- &#45;2&#45;&gt;24129 -->
<g id="edge31" class="edge">
<title>&#45;2&#45;&gt;24129</title>
<path fill="none" stroke="green" stroke-width="0.21" d="M119.39,-113.67C124.43,-114.81 130.62,-116.21 137.06,-117.66"/>
<polygon fill="green" stroke="green" stroke-width="0.21" points="136.74,-121.18 147.27,-119.97 138.28,-114.35 136.74,-121.18"/>
<text text-anchor="middle" x="122.6" y="-117.17" font-family="Times,serif" font-size="5.00">0.541</text>
</g>
<!-- &#45;3 -->
<g id="node3" class="node">
<title>&#45;3</title>
<polygon fill="lightgray" stroke="black" points="151.63,-117.2 127.63,-117.2 127.63,-98.6 151.63,-98.6 151.63,-117.2"/>
<text text-anchor="middle" x="139.63" y="-105.2" font-family="Times,serif" font-size="9.00">&#45;3</text>
</g>
<!-- &#45;3&#45;&gt;0 -->
<g id="edge71" class="edge">
<title>&#45;3&#45;&gt;0</title>
<path fill="none" stroke="green" stroke-width="1.31" d="M143.85,-117.36C147.2,-124.86 152.04,-135.72 156.53,-145.79"/>
<polygon fill="green" stroke="green" stroke-width="1.31" points="153.39,-147.35 160.66,-155.06 159.79,-144.5 153.39,-147.35"/>
<text text-anchor="middle" x="144.57" y="-133.08" font-family="Times,serif" font-size="5.00">6.069</text>
</g>
<!-- &#45;3&#45;&gt;17382 -->
<g id="edge9" class="edge">
<title>&#45;3&#45;&gt;17382</title>
<path fill="none" stroke="green" stroke-width="0.96" d="M146.14,-117.58C146.45,-118.04 146.76,-118.51 147.08,-118.98"/>
<polygon fill="green" stroke="green" stroke-width="0.96" points="144.23,-121.01 152.71,-127.36 150.04,-117.1 144.23,-121.01"/>
<text text-anchor="middle" x="140.99" y="-119.78" font-family="Times,serif" font-size="5.00">4.315</text>
</g>
<!-- &#45;3&#45;&gt;24128 -->
<g id="edge19" class="edge">
<title>&#45;3&#45;&gt;24128</title>
<path fill="none" stroke="green" stroke-width="0.96" d="M151.56,-106.06C151.65,-106.04 151.74,-106.03 151.84,-106.01"/>
<polygon fill="green" stroke="green" stroke-width="0.96" points="151.73,-109.57 161.07,-104.59 150.66,-102.65 151.73,-109.57"/>
<text text-anchor="middle" x="157.32" y="-107.54" font-family="Times,serif" font-size="5.00">4.315</text>
</g>
<!-- &#45;3&#45;&gt;24129 -->
<g id="edge29" class="edge">
<title>&#45;3&#45;&gt;24129</title>
<path fill="none" stroke="green" stroke-width="0.96" d="M151.69,-113.9C151.73,-113.92 151.78,-113.94 151.82,-113.96"/>
<polygon fill="green" stroke="green" stroke-width="0.96" points="141.44,-112.7 151.95,-114.03 144.56,-106.44 141.44,-112.7"/>
<text text-anchor="middle" x="157.38" y="-115.43" font-family="Times,serif" font-size="5.00">4.315</text>
</g>
<!-- &#45;4 -->
<g id="node4" class="node">
<title>&#45;4</title>
<polygon fill="lightgray" stroke="black" points="137.63,-201.19 113.63,-201.19 113.63,-182.58 137.63,-182.58 137.63,-201.19"/>
<text text-anchor="middle" x="125.63" y="-189.18" font-family="Times,serif" font-size="9.00">&#45;4</text>
</g>
<!-- &#45;4&#45;&gt;0 -->
<g id="edge72" class="edge">
<title>&#45;4&#45;&gt;0</title>
<path fill="none" stroke="green" stroke-width="1.31" d="M137.73,-186.25C139.18,-185.57 140.71,-184.86 142.27,-184.14"/>
<polygon fill="green" stroke="green" stroke-width="1.31" points="143.75,-187.31 151.34,-179.91 140.8,-180.96 143.75,-187.31"/>
<text text-anchor="middle" x="145.62" y="-186.69" font-family="Times,serif" font-size="5.00">6.069</text>
</g>
<!-- &#45;4&#45;&gt;17382 -->
<g id="edge10" class="edge">
<title>&#45;4&#45;&gt;17382</title>
<path fill="none" stroke="green" stroke-width="0.96" d="M136.91,-182.21C137.45,-181.74 138.01,-181.27 138.57,-180.78"/>
<polygon fill="green" stroke="green" stroke-width="0.96" points="141,-183.31 146.31,-174.15 136.44,-178 141,-183.31"/>
<text text-anchor="middle" x="132.11" y="-177" font-family="Times,serif" font-size="5.00">4.315</text>
</g>
<!-- &#45;4&#45;&gt;24128 -->
<g id="edge20" class="edge">
<title>&#45;4&#45;&gt;24128</title>
<path fill="none" stroke="green" stroke-width="0.96" d="M132.51,-182.37C140.79,-170.92 155.15,-151.05 167.72,-133.67"/>
<polygon fill="green" stroke="green" stroke-width="0.96" points="170.68,-135.53 173.71,-125.38 165.01,-131.43 170.68,-135.53"/>
<text text-anchor="middle" x="144.49" y="-159.52" font-family="Times,serif" font-size="5.00">4.315</text>
</g>
<!-- &#45;4&#45;&gt;24129 -->
<g id="edge30" class="edge">
<title>&#45;4&#45;&gt;24129</title>
<path fill="none" stroke="green" stroke-width="0.96" d="M133.1,-182.57C138.1,-176.33 145,-167.71 151.89,-159.12"/>
<polygon fill="green" stroke="green" stroke-width="0.96" points="154.63,-161.3 158.15,-151.31 149.16,-156.92 154.63,-161.3"/>
<text text-anchor="middle" x="136.87" y="-172.34" font-family="Times,serif" font-size="5.00">4.315</text>
</g>
<!-- 23431 -->
<g id="node6" class="node">
<title>23431</title>
<ellipse fill="white" stroke="black" cx="182.3" cy="-240.62" rx="27.45" ry="27.45"/>
<text text-anchor="middle" x="182.3" y="-237.92" font-family="Times,serif" font-size="9.00">23431</text>
</g>
<!-- 23431&#45;&gt;17382 -->
<g id="edge12" class="edge">
<title>23431&#45;&gt;17382</title>
<path fill="none" stroke="red" stroke-width="0.84" d="M178.58,-213.55C177.75,-207.52 176.85,-201 175.96,-194.55"/>
<polygon fill="red" stroke="red" stroke-width="0.84" points="179.42,-193.99 174.59,-184.56 172.48,-194.94 179.42,-193.99"/>
<text text-anchor="middle" x="170.81" y="-205.55" font-family="Times,serif" font-size="5.00">&#45;3.698</text>
</g>
<!-- 23598 -->
<g id="node21" class="node">
<title>23598</title>
<ellipse fill="white" stroke="black" cx="235.92" cy="-175" rx="27.45" ry="27.45"/>
<text text-anchor="middle" x="235.92" y="-172.3" font-family="Times,serif" font-size="9.00">23598</text>
</g>
<!-- 23431&#45;&gt;23598 -->
<g id="edge37" class="edge">
<title>23431&#45;&gt;23598</title>
<path fill="none" stroke="green" stroke-width="0.16" d="M199.56,-219.5C203.58,-214.58 207.93,-209.26 212.17,-204.07"/>
<polygon fill="green" stroke="green" stroke-width="0.16" points="215.08,-206.04 218.69,-196.08 209.66,-201.61 215.08,-206.04"/>
<text text-anchor="middle" x="200.24" y="-207.28" font-family="Times,serif" font-size="5.00">0.322</text>
</g>
<!-- 24130 -->
<g id="node7" class="node">
<title>24130</title>
<ellipse fill="white" stroke="black" cx="264.57" cy="-55.41" rx="27.45" ry="27.45"/>
<text text-anchor="middle" x="264.57" y="-52.71" font-family="Times,serif" font-size="9.00">24130</text>
</g>
<!-- 24130&#45;&gt;24128 -->
<g id="edge22" class="edge">
<title>24130&#45;&gt;24128</title>
<path fill="none" stroke="red" stroke-width="0.84" d="M241.28,-69.69C236.95,-72.35 232.33,-75.18 227.73,-78"/>
<polygon fill="red" stroke="red" stroke-width="0.84" points="225.68,-75.15 218.98,-83.36 229.34,-81.12 225.68,-75.15"/>
<text text-anchor="middle" x="228.05" y="-75.35" font-family="Times,serif" font-size="5.00">&#45;3.698</text>
</g>
<!-- 24132 -->
<g id="node22" class="node">
<title>24132</title>
<ellipse fill="white" stroke="black" cx="249.29" cy="-141.49" rx="27.45" ry="27.45"/>
<text text-anchor="middle" x="249.29" y="-138.79" font-family="Times,serif" font-size="9.00">24132</text>
</g>
<!-- 24130&#45;&gt;24132 -->
<g id="edge41" class="edge">
<title>24130&#45;&gt;24132</title>
<path fill="none" stroke="green" stroke-width="0.16" d="M259.73,-82.65C258.51,-89.54 257.17,-97.07 255.88,-104.36"/>
<polygon fill="green" stroke="green" stroke-width="0.16" points="252.39,-103.97 254.09,-114.43 259.29,-105.2 252.39,-103.97"/>
<text text-anchor="middle" x="252.18" y="-95.01" font-family="Times,serif" font-size="5.00">0.322</text>
</g>
<!-- 24131 -->
<g id="node8" class="node">
<title>24131</title>
<ellipse fill="white" stroke="black" cx="252.85" cy="-70.69" rx="27.45" ry="27.45"/>
<text text-anchor="middle" x="252.85" y="-67.99" font-family="Times,serif" font-size="9.00">24131</text>
</g>
<!-- 24131&#45;&gt;24129 -->
<g id="edge32" class="edge">
<title>24131&#45;&gt;24129</title>
<path fill="none" stroke="red" stroke-width="0.84" d="M230.72,-87.24C224.57,-91.83 217.76,-96.93 211.13,-101.89"/>
<polygon fill="red" stroke="red" stroke-width="0.84" points="208.79,-99.27 202.88,-108.06 212.98,-104.87 208.79,-99.27"/>
<text text-anchor="middle" x="227.38" y="-96.06" font-family="Times,serif" font-size="5.00">&#45;3.698</text>
</g>
<!-- 24133 -->
<g id="node23" class="node">
<title>24133</title>
<ellipse fill="white" stroke="black" cx="245.08" cy="-154.09" rx="27.45" ry="27.45"/>
<text text-anchor="middle" x="245.08" y="-151.39" font-family="Times,serif" font-size="9.00">24133</text>
</g>
<!-- 24131&#45;&gt;24133 -->
<g id="edge45" class="edge">
<title>24131&#45;&gt;24133</title>
<path fill="none" stroke="green" stroke-width="0.16" d="M250.3,-98C249.75,-103.9 249.16,-110.24 248.58,-116.47"/>
<polygon fill="green" stroke="green" stroke-width="0.16" points="245.07,-116.44 247.63,-126.72 252.04,-117.09 245.07,-116.44"/>
<text text-anchor="middle" x="243.82" y="-108.73" font-family="Times,serif" font-size="5.00">0.322</text>
</g>
<!-- 24136 -->
<g id="node12" class="node">
<title>24136</title>
<ellipse fill="white" stroke="black" cx="83.25" cy="-90.62" rx="27.45" ry="27.45"/>
<text text-anchor="middle" x="83.25" y="-87.92" font-family="Times,serif" font-size="9.00">24136</text>
</g>
<!-- 14652&#45;&gt;24136 -->
<g id="edge4" class="edge">
<title>14652&#45;&gt;24136</title>
<path fill="none" stroke="green" stroke-width="0.14" d="M54.58,-88.29C54.69,-88.3 54.8,-88.31 54.92,-88.32"/>
<polygon fill="green" stroke="green" stroke-width="0.14" points="45.67,-91.08 55.92,-88.4 46.23,-84.1 45.67,-91.08"/>
<text text-anchor="middle" x="60.37" y="-89.8" font-family="Times,serif" font-size="5.00">0.200</text>
</g>
<!-- 24138 -->
<g id="node15" class="node">
<title>24138</title>
<ellipse fill="white" stroke="black" cx="121.99" cy="-27.22" rx="27.45" ry="27.45"/>
<text text-anchor="middle" x="121.99" y="-24.52" font-family="Times,serif" font-size="9.00">24138</text>
</g>
<!-- 14652&#45;&gt;24138 -->
<g id="edge14" class="edge">
<title>14652&#45;&gt;24138</title>
<path fill="none" stroke="green" stroke-width="0.14" d="M50.65,-71.52C62.58,-64.11 77.27,-54.99 90.21,-46.96"/>
<polygon fill="green" stroke="green" stroke-width="0.14" points="92.18,-49.85 98.83,-41.6 88.49,-43.91 92.18,-49.85"/>
<text text-anchor="middle" x="76.05" y="-60.74" font-family="Times,serif" font-size="5.00">0.200</text>
</g>
<!-- 24140 -->
<g id="node18" class="node">
<title>24140</title>
<ellipse fill="white" stroke="black" cx="57.57" cy="-132.26" rx="27.45" ry="27.45"/>
<text text-anchor="middle" x="57.57" y="-129.56" font-family="Times,serif" font-size="9.00">24140</text>
</g>
<!-- 14652&#45;&gt;24140 -->
<g id="edge24" class="edge">
<title>14652&#45;&gt;24140</title>
<path fill="none" stroke="green" stroke-width="0.14" d="M42.22,-108.89C42.28,-108.98 42.34,-109.08 42.4,-109.17"/>
<polygon fill="green" stroke="green" stroke-width="0.14" points="34.16,-103 42.58,-109.44 40.01,-99.16 34.16,-103"/>
<text text-anchor="middle" x="36.69" y="-110.53" font-family="Times,serif" font-size="5.00">0.200</text>
</g>
<!-- 24126&#45;&gt;24136 -->
<g id="edge5" class="edge">
<title>24126&#45;&gt;24136</title>
<path fill="none" stroke="green" stroke-width="0.14" d="M72.79,-59.3C72.83,-59.41 72.87,-59.52 72.9,-59.64"/>
<polygon fill="green" stroke="green" stroke-width="0.14" points="68.09,-56.27 74.58,-64.64 74.73,-54.05 68.09,-56.27"/>
<text text-anchor="middle" x="75.66" y="-54.97" font-family="Times,serif" font-size="5.00">0.200</text>
</g>
<!-- 24126&#45;&gt;24138 -->
<g id="edge15" class="edge">
<title>24126&#45;&gt;24138</title>
<path fill="none" stroke="green" stroke-width="0.14" d="M91.36,-30.47C91.51,-30.45 91.65,-30.44 91.8,-30.42"/>
<polygon fill="green" stroke="green" stroke-width="0.14" points="85.31,-34.63 94.88,-30.09 84.57,-27.67 85.31,-34.63"/>
<text text-anchor="middle" x="97.21" y="-31.94" font-family="Times,serif" font-size="5.00">0.200</text>
</g>
<!-- 24126&#45;&gt;24140 -->
<g id="edge25" class="edge">
<title>24126&#45;&gt;24140</title>
<path fill="none" stroke="green" stroke-width="0.14" d="M62.32,-60.64C61.62,-71.23 60.8,-83.54 60.05,-94.93"/>
<polygon fill="green" stroke="green" stroke-width="0.14" points="56.54,-94.85 59.38,-105.06 63.53,-95.31 56.54,-94.85"/>
<text text-anchor="middle" x="55.56" y="-79.28" font-family="Times,serif" font-size="5.00">0.200</text>
</g>
<!-- 24127&#45;&gt;24136 -->
<g id="edge6" class="edge">
<title>24127&#45;&gt;24136</title>
<path fill="none" stroke="green" stroke-width="0.14" d="M63.31,-73.22C63.39,-73.29 63.47,-73.36 63.55,-73.43"/>
<polygon fill="green" stroke="green" stroke-width="0.14" points="53.95,-69.7 63.78,-73.63 58.55,-64.42 53.95,-69.7"/>
<text text-anchor="middle" x="69.06" y="-74.82" font-family="Times,serif" font-size="5.00">0.200</text>
</g>
<!-- 24127&#45;&gt;24138 -->
<g id="edge16" class="edge">
<title>24127&#45;&gt;24138</title>
<path fill="none" stroke="green" stroke-width="0.14" d="M68.47,-45.9C74.16,-43.91 80.28,-41.78 86.27,-39.69"/>
<polygon fill="green" stroke="green" stroke-width="0.14" points="87.86,-42.84 96.15,-36.24 85.55,-36.23 87.86,-42.84"/>
<text text-anchor="middle" x="83" y="-44.29" font-family="Times,serif" font-size="5.00">0.200</text>
</g>
<!-- 24127&#45;&gt;24140 -->
<g id="edge26" class="edge">
<title>24127&#45;&gt;24140</title>
<path fill="none" stroke="green" stroke-width="0.14" d="M47.72,-82.02C48.58,-86.39 49.48,-90.99 50.37,-95.55"/>
<polygon fill="green" stroke="green" stroke-width="0.14" points="46.94,-96.24 52.3,-105.38 53.81,-94.89 46.94,-96.24"/>
<text text-anchor="middle" x="43.42" y="-90.28" font-family="Times,serif" font-size="5.00">0.200</text>
</g>
<!-- 24137 -->
<g id="node13" class="node">
<title>24137</title>
<ellipse fill="white" stroke="black" cx="146.27" cy="-65.42" rx="27.45" ry="27.45"/>
<text text-anchor="middle" x="146.27" y="-62.72" font-family="Times,serif" font-size="9.00">24137</text>
</g>
<!-- 24136&#45;&gt;24137 -->
<g id="edge7" class="edge">
<title>24136&#45;&gt;24137</title>
<path fill="none" stroke="green" stroke-width="0.14" d="M108.88,-80.37C109.75,-80.02 110.62,-79.68 111.49,-79.33"/>
<polygon fill="green" stroke="green" stroke-width="0.14" points="112.88,-82.54 120.87,-75.58 110.28,-76.04 112.88,-82.54"/>
<text text-anchor="middle" x="115.81" y="-81.35" font-family="Times,serif" font-size="5.00">0.200</text>
</g>
<!-- 24136&#45;&gt;17382 -->
<g id="edge13" class="edge">
<title>24136&#45;&gt;17382</title>
<path fill="none" stroke="green" stroke-width="0.14" stroke-dasharray="1,5" d="M105.68,-106.82C115.14,-113.66 126.36,-121.77 136.77,-129.3"/>
<polygon fill="green" stroke="green" stroke-width="0.14" points="134.74,-132.15 144.9,-135.17 138.84,-126.48 134.74,-132.15"/>
<text text-anchor="middle" x="126.85" y="-119.56" font-family="Times,serif" font-size="5.00">0.200</text>
</g>
<!-- 24137&#45;&gt;0 -->
<g id="edge77" class="edge">
<title>24137&#45;&gt;0</title>
<path fill="none" stroke="green" stroke-width="0.13" stroke-dasharray="1,5" d="M151.81,-92.33C155.07,-108.12 159.17,-128.04 162.46,-144.02"/>
<polygon fill="green" stroke="green" stroke-width="0.13" points="159.05,-144.78 164.49,-153.87 165.9,-143.37 159.05,-144.78"/>
<text text-anchor="middle" x="151.51" y="-119.67" font-family="Times,serif" font-size="5.00">0.167</text>
</g>
<!-- 17382&#45;&gt;23598 -->
<g id="edge34" class="edge">
<title>17382&#45;&gt;23598</title>
<path fill="none" stroke="green" stroke-width="0.58" d="M200.05,-163.27C200.15,-163.3 200.25,-163.33 200.36,-163.37"/>
<polygon fill="green" stroke="green" stroke-width="0.58" points="199.21,-166.68 209.81,-166.46 201.39,-160.02 199.21,-166.68"/>
<text text-anchor="middle" x="205.83" y="-164.82" font-family="Times,serif" font-size="5.00">2.396</text>
</g>
<!-- 17382&#45;&gt;24132 -->
<g id="edge38" class="edge">
<title>17382&#45;&gt;24132</title>
<path fill="none" stroke="green" stroke-width="0.58" d="M201.53,-148.78C205.04,-148.25 208.65,-147.7 212.22,-147.15"/>
<polygon fill="green" stroke="green" stroke-width="0.58" points="212.78,-150.61 222.14,-145.64 211.72,-143.69 212.78,-150.61"/>
<text text-anchor="middle" x="212.5" y="-143.47" font-family="Times,serif" font-size="5.00">2.396</text>
</g>
<!-- 17382&#45;&gt;24133 -->
<g id="edge42" class="edge">
<title>17382&#45;&gt;24133</title>
<path fill="none" stroke="green" stroke-width="0.58" d="M201.59,-153.77C203.49,-153.79 205.41,-153.8 207.33,-153.81"/>
<polygon fill="green" stroke="green" stroke-width="0.58" points="207.47,-157.32 217.5,-153.89 207.53,-150.32 207.47,-157.32"/>
<text text-anchor="middle" x="207.27" y="-149.29" font-family="Times,serif" font-size="5.00">2.396</text>
</g>
<!-- 24139 -->
<g id="node16" class="node">
<title>24139</title>
<ellipse fill="white" stroke="black" cx="183.9" cy="-46.6" rx="27.45" ry="27.45"/>
<text text-anchor="middle" x="183.9" y="-43.9" font-family="Times,serif" font-size="9.00">24139</text>
</g>
<!-- 24138&#45;&gt;24139 -->
<g id="edge17" class="edge">
<title>24138&#45;&gt;24139</title>
<path fill="none" stroke="green" stroke-width="0.14" d="M148.24,-35.44C148.34,-35.47 148.44,-35.5 148.54,-35.53"/>
<polygon fill="green" stroke="green" stroke-width="0.14" points="147.21,-38.78 157.8,-38.43 149.3,-32.1 147.21,-38.78"/>
<text text-anchor="middle" x="151.21" y="-30.99" font-family="Times,serif" font-size="5.00">0.200</text>
</g>
<!-- 24138&#45;&gt;24128 -->
<g id="edge23" class="edge">
<title>24138&#45;&gt;24128</title>
<path fill="none" stroke="green" stroke-width="0.14" stroke-dasharray="1,5" d="M141.18,-47.05C147.94,-54.04 155.7,-62.05 163.09,-69.7"/>
<polygon fill="green" stroke="green" stroke-width="0.14" points="160.85,-72.41 170.32,-77.16 165.88,-67.54 160.85,-72.41"/>
<text text-anchor="middle" x="146.51" y="-59.87" font-family="Times,serif" font-size="5.00">0.200</text>
</g>
<!-- 24139&#45;&gt;0 -->
<g id="edge78" class="edge">
<title>24139&#45;&gt;0</title>
<path fill="none" stroke="green" stroke-width="0.13" stroke-dasharray="1,5" d="M180.5,-73.82C177.94,-94.31 174.44,-122.35 171.84,-143.22"/>
<polygon fill="green" stroke="green" stroke-width="0.13" points="168.33,-143.05 170.56,-153.41 175.28,-143.92 168.33,-143.05"/>
<text text-anchor="middle" x="181.79" y="-110.02" font-family="Times,serif" font-size="5.00">0.167</text>
</g>
<!-- 24128&#45;&gt;23598 -->
<g id="edge35" class="edge">
<title>24128&#45;&gt;23598</title>
<path fill="none" stroke="green" stroke-width="0.58" d="M207.99,-126.94C210.87,-131.88 213.89,-137.09 216.85,-142.17"/>
<polygon fill="green" stroke="green" stroke-width="0.58" points="214,-144.23 222.05,-151.12 220.05,-140.72 214,-144.23"/>
<text text-anchor="middle" x="206.8" y="-136.05" font-family="Times,serif" font-size="5.00">2.396</text>
</g>
<!-- 24128&#45;&gt;24132 -->
<g id="edge39" class="edge">
<title>24128&#45;&gt;24132</title>
<path fill="none" stroke="green" stroke-width="0.58" d="M217.75,-118.44C218.13,-118.72 218.52,-119 218.91,-119.29"/>
<polygon fill="green" stroke="green" stroke-width="0.58" points="216.86,-122.13 227,-125.2 220.99,-116.48 216.86,-122.13"/>
<text text-anchor="middle" x="223.95" y="-114.36" font-family="Times,serif" font-size="5.00">2.396</text>
</g>
<!-- 24128&#45;&gt;24133 -->
<g id="edge43" class="edge">
<title>24128&#45;&gt;24133</title>
<path fill="none" stroke="green" stroke-width="0.58" d="M214.02,-122.18C215.64,-123.84 217.28,-125.53 218.92,-127.22"/>
<polygon fill="green" stroke="green" stroke-width="0.58" points="216.54,-129.79 226.02,-134.51 221.56,-124.91 216.54,-129.79"/>
<text text-anchor="middle" x="213.66" y="-120.2" font-family="Times,serif" font-size="5.00">2.396</text>
</g>
<!-- 24141 -->
<g id="node19" class="node">
<title>24141</title>
<ellipse fill="white" stroke="black" cx="69.42" cy="-206.44" rx="27.45" ry="27.45"/>
<text text-anchor="middle" x="69.42" y="-203.74" font-family="Times,serif" font-size="9.00">24141</text>
</g>
<!-- 24140&#45;&gt;24141 -->
<g id="edge27" class="edge">
<title>24140&#45;&gt;24141</title>
<path fill="none" stroke="green" stroke-width="0.14" d="M61.92,-159.46C62.43,-162.68 62.96,-166.02 63.5,-169.35"/>
<polygon fill="green" stroke="green" stroke-width="0.14" points="60.04,-169.92 65.08,-179.24 66.95,-168.81 60.04,-169.92"/>
<text text-anchor="middle" x="57.08" y="-165.9" font-family="Times,serif" font-size="5.00">0.200</text>
</g>
<!-- 24140&#45;&gt;24129 -->
<g id="edge33" class="edge">
<title>24140&#45;&gt;24129</title>
<path fill="none" stroke="green" stroke-width="0.14" stroke-dasharray="1,5" d="M84.84,-131.03C99.98,-130.35 119.13,-129.49 136.11,-128.73"/>
<polygon fill="green" stroke="green" stroke-width="0.14" points="136.51,-132.21 146.34,-128.26 136.19,-125.22 136.51,-132.21"/>
<text text-anchor="middle" x="104.85" y="-131.38" font-family="Times,serif" font-size="5.00">0.200</text>
</g>
<!-- 24141&#45;&gt;0 -->
<g id="edge79" class="edge">
<title>24141&#45;&gt;0</title>
<path fill="none" stroke="green" stroke-width="0.13" stroke-dasharray="1,5" d="M95.38,-197.4C109.37,-192.53 126.62,-186.53 140.83,-181.58"/>
<polygon fill="green" stroke="green" stroke-width="0.13" points="142.25,-184.8 150.54,-178.2 139.95,-178.18 142.25,-184.8"/>
<text text-anchor="middle" x="112.48" y="-190.99" font-family="Times,serif" font-size="5.00">0.167</text>
</g>
<!-- 24129&#45;&gt;23598 -->
<g id="edge36" class="edge">
<title>24129&#45;&gt;23598</title>
<path fill="none" stroke="green" stroke-width="0.58" d="M202.08,-146.99C203.67,-148.31 205.28,-149.64 206.88,-150.97"/>
<polygon fill="green" stroke="green" stroke-width="0.58" points="204.89,-153.86 214.83,-157.54 209.35,-148.47 204.89,-153.86"/>
<text text-anchor="middle" x="210.11" y="-150.48" font-family="Times,serif" font-size="5.00">2.396</text>
</g>
<!-- 24129&#45;&gt;24132 -->
<g id="edge40" class="edge">
<title>24129&#45;&gt;24132</title>
<path fill="none" stroke="green" stroke-width="0.58" d="M208.5,-133.15C209.82,-133.42 211.15,-133.69 212.48,-133.96"/>
<polygon fill="green" stroke="green" stroke-width="0.58" points="212.11,-137.46 222.61,-136.03 213.52,-130.6 212.11,-137.46"/>
<text text-anchor="middle" x="216.12" y="-135.05" font-family="Times,serif" font-size="5.00">2.396</text>
</g>
<!-- 24129&#45;&gt;24133 -->
<g id="edge44" class="edge">
<title>24129&#45;&gt;24133</title>
<path fill="none" stroke="green" stroke-width="0.58" d="M206.69,-138.56C207.76,-138.99 208.84,-139.43 209.91,-139.86"/>
<polygon fill="green" stroke="green" stroke-width="0.58" points="208.97,-143.26 219.55,-143.76 211.59,-136.77 208.97,-143.26"/>
<text text-anchor="middle" x="213.93" y="-140.71" font-family="Times,serif" font-size="5.00">2.396</text>
</g>
<!-- 23598&#45;&gt;0 -->
<g id="edge73" class="edge">
<title>23598&#45;&gt;0</title>
<path fill="none" stroke="green" stroke-width="1.25" d="M208.39,-173.8C204.69,-173.64 200.89,-173.47 197.17,-173.31"/>
<polygon fill="green" stroke="green" stroke-width="1.25" points="197.19,-169.81 187.05,-172.87 196.88,-176.8 197.19,-169.81"/>
<text text-anchor="middle" x="208.41" y="-175.05" font-family="Times,serif" font-size="5.00">5.762</text>
</g>
<!-- 24142 -->
<g id="node24" class="node">
<title>24142</title>
<ellipse fill="white" stroke="black" cx="282.2" cy="-228.63" rx="27.45" ry="27.45"/>
<text text-anchor="middle" x="282.2" y="-225.93" font-family="Times,serif" font-size="9.00">24142</text>
</g>
<!-- 23598&#45;&gt;24142 -->
<g id="edge46" class="edge">
<title>23598&#45;&gt;24142</title>
<path fill="none" stroke="green" stroke-width="0.17" d="M253.95,-195.89C255.1,-197.22 256.27,-198.58 257.44,-199.94"/>
<polygon fill="green" stroke="green" stroke-width="0.17" points="254.96,-202.43 264.15,-207.71 260.26,-197.86 254.96,-202.43"/>
<text text-anchor="middle" x="261.32" y="-193.42" font-family="Times,serif" font-size="5.00">0.333</text>
</g>
<!-- 24125 -->
<g id="node26" class="node">
<title>24125</title>
<ellipse fill="white" stroke="black" cx="319.29" cy="-154.6" rx="27.42" ry="27.42"/>
<ellipse fill="none" stroke="black" cx="319.29" cy="-154.6" rx="31.45" ry="31.45"/>
<text text-anchor="middle" x="319.29" y="-151.9" font-family="Times,serif" font-size="9.00">24125</text>
</g>
<!-- 23598&#45;&gt;24125 -->
<g id="edge50" class="edge">
<title>23598&#45;&gt;24125</title>
<path fill="none" stroke="green" stroke-width="0.34" d="M262.76,-168.43C267.94,-167.17 273.47,-165.82 278.96,-164.47"/>
<polygon fill="green" stroke="green" stroke-width="0.34" points="279.86,-167.86 288.74,-162.08 278.19,-161.06 279.86,-167.86"/>
<text text-anchor="middle" x="276.49" y="-167.95" font-family="Times,serif" font-size="5.00">1.188</text>
</g>
<!-- 24144 -->
<g id="node27" class="node">
<title>24144</title>
<ellipse fill="white" stroke="black" cx="256.05" cy="-226.58" rx="27.45" ry="27.45"/>
<text text-anchor="middle" x="256.05" y="-223.88" font-family="Times,serif" font-size="9.00">24144</text>
</g>
<!-- 23598&#45;&gt;24144 -->
<g id="edge54" class="edge">
<title>23598&#45;&gt;24144</title>
<path fill="none" stroke="green" stroke-width="0.17" d="M245.87,-200.49C245.91,-200.59 245.95,-200.69 245.99,-200.79"/>
<polygon fill="green" stroke="green" stroke-width="0.17" points="239.21,-193.05 246.11,-201.09 245.73,-190.51 239.21,-193.05"/>
<text text-anchor="middle" x="240.3" y="-196.14" font-family="Times,serif" font-size="5.00">0.333</text>
</g>
<!-- 24134 -->
<g id="node29" class="node">
<title>24134</title>
<ellipse fill="white" stroke="black" cx="308.94" cy="-130.35" rx="27.42" ry="27.42"/>
<ellipse fill="none" stroke="black" cx="308.94" cy="-130.35" rx="31.45" ry="31.45"/>
<text text-anchor="middle" x="308.94" y="-127.65" font-family="Times,serif" font-size="9.00">24134</text>
</g>
<!-- 23598&#45;&gt;24134 -->
<g id="edge58" class="edge">
<title>23598&#45;&gt;24134</title>
<path fill="none" stroke="green" stroke-width="0.34" d="M259.43,-160.63C263.96,-157.85 268.8,-154.89 273.62,-151.95"/>
<polygon fill="green" stroke="green" stroke-width="0.34" points="275.48,-154.92 282.18,-146.71 271.82,-148.94 275.48,-154.92"/>
<text text-anchor="middle" x="272.15" y="-157.79" font-family="Times,serif" font-size="5.00">1.188</text>
</g>
<!-- 24146 -->
<g id="node30" class="node">
<title>24146</title>
<ellipse fill="white" stroke="black" cx="300.21" cy="-211.28" rx="27.45" ry="27.45"/>
<text text-anchor="middle" x="300.21" y="-208.58" font-family="Times,serif" font-size="9.00">24146</text>
</g>
<!-- 23598&#45;&gt;24146 -->
<g id="edge62" class="edge">
<title>23598&#45;&gt;24146</title>
<path fill="none" stroke="green" stroke-width="0.17" d="M259.86,-188.51C262.4,-189.94 265.02,-191.42 267.64,-192.9"/>
<polygon fill="green" stroke="green" stroke-width="0.17" points="266.03,-196.01 276.46,-197.88 269.48,-189.92 266.03,-196.01"/>
<text text-anchor="middle" x="269.37" y="-186.21" font-family="Times,serif" font-size="5.00">0.333</text>
</g>
<!-- 24135 -->
<g id="node32" class="node">
<title>24135</title>
<ellipse fill="white" stroke="black" cx="325.65" cy="-174.05" rx="27.42" ry="27.42"/>
<ellipse fill="none" stroke="black" cx="325.65" cy="-174.05" rx="31.45" ry="31.45"/>
<text text-anchor="middle" x="325.65" y="-171.35" font-family="Times,serif" font-size="9.00">24135</text>
</g>
<!-- 23598&#45;&gt;24135 -->
<g id="edge66" class="edge">
<title>23598&#45;&gt;24135</title>
<path fill="none" stroke="green" stroke-width="0.34" d="M263.33,-174.71C269.91,-174.64 277.08,-174.57 284.15,-174.49"/>
<polygon fill="green" stroke="green" stroke-width="0.34" points="284.37,-177.99 294.33,-174.38 284.29,-170.99 284.37,-177.99"/>
<text text-anchor="middle" x="279.36" y="-176.1" font-family="Times,serif" font-size="5.00">1.188</text>
</g>
<!-- 24132&#45;&gt;0 -->
<g id="edge74" class="edge">
<title>24132&#45;&gt;0</title>
<path fill="none" stroke="green" stroke-width="1.25" d="M223.64,-151.16C214.65,-154.55 204.53,-158.37 195.41,-161.8"/>
<polygon fill="green" stroke="green" stroke-width="1.25" points="194.15,-158.54 186.03,-165.34 196.62,-165.09 194.15,-158.54"/>
<text text-anchor="middle" x="203.9" y="-157.98" font-family="Times,serif" font-size="5.00">5.762</text>
</g>
<!-- 24132&#45;&gt;24142 -->
<g id="edge47" class="edge">
<title>24132&#45;&gt;24142</title>
<path fill="none" stroke="green" stroke-width="0.17" d="M258.99,-167.17C262.13,-175.5 265.68,-184.89 269.03,-193.77"/>
<polygon fill="green" stroke="green" stroke-width="0.17" points="265.76,-195.02 272.57,-203.14 272.31,-192.55 265.76,-195.02"/>
<text text-anchor="middle" x="269.63" y="-181.97" font-family="Times,serif" font-size="5.00">0.333</text>
</g>
<!-- 24132&#45;&gt;24125 -->
<g id="edge51" class="edge">
<title>24132&#45;&gt;24125</title>
<path fill="none" stroke="green" stroke-width="0.34" d="M276.16,-146.52C276.91,-146.66 277.66,-146.81 278.43,-146.95"/>
<polygon fill="green" stroke="green" stroke-width="0.34" points="277.94,-150.42 288.41,-148.82 279.23,-143.54 277.94,-150.42"/>
<text text-anchor="middle" x="282.92" y="-148.24" font-family="Times,serif" font-size="5.00">1.188</text>
</g>
<!-- 24132&#45;&gt;24144 -->
<g id="edge55" class="edge">
<title>24132&#45;&gt;24144</title>
<path fill="none" stroke="green" stroke-width="0.17" d="M251.47,-168.88C251.97,-175.26 252.52,-182.16 253.06,-188.89"/>
<polygon fill="green" stroke="green" stroke-width="0.17" points="249.6,-189.55 253.88,-199.24 256.57,-188.99 249.6,-189.55"/>
<text text-anchor="middle" x="246.64" y="-180.39" font-family="Times,serif" font-size="5.00">0.333</text>
</g>
<!-- 24132&#45;&gt;24134 -->
<g id="edge59" class="edge">
<title>24132&#45;&gt;24134</title>
<path fill="none" stroke="green" stroke-width="0.34" d="M276.32,-136.44C276.48,-136.41 276.63,-136.39 276.79,-136.36"/>
<polygon fill="green" stroke="green" stroke-width="0.34" points="268.99,-141.37 278.18,-136.1 267.7,-134.49 268.99,-141.37"/>
<text text-anchor="middle" x="282.18" y="-137.9" font-family="Times,serif" font-size="5.00">1.188</text>
</g>
<!-- 24132&#45;&gt;24146 -->
<g id="edge63" class="edge">
<title>24132&#45;&gt;24146</title>
<path fill="none" stroke="green" stroke-width="0.17" d="M265.4,-163.57C269.39,-169.05 273.74,-175.01 277.97,-180.81"/>
<polygon fill="green" stroke="green" stroke-width="0.17" points="275.3,-183.09 284.03,-189.1 280.96,-178.96 275.3,-183.09"/>
<text text-anchor="middle" x="277.31" y="-173.69" font-family="Times,serif" font-size="5.00">0.333</text>
</g>
<!-- 24132&#45;&gt;24135 -->
<g id="edge67" class="edge">
<title>24132&#45;&gt;24135</title>
<path fill="none" stroke="green" stroke-width="0.34" d="M274.72,-152.33C278.83,-154.09 283.17,-155.94 287.5,-157.79"/>
<polygon fill="green" stroke="green" stroke-width="0.34" points="286.34,-161.09 296.91,-161.8 289.08,-154.65 286.34,-161.09"/>
<text text-anchor="middle" x="278.3" y="-150.56" font-family="Times,serif" font-size="5.00">1.188</text>
</g>
<!-- 24133&#45;&gt;0 -->
<g id="edge75" class="edge">
<title>24133&#45;&gt;0</title>
<path fill="none" stroke="green" stroke-width="1.25" d="M218.2,-160.37C211.11,-162.03 203.43,-163.82 196.28,-165.49"/>
<polygon fill="green" stroke="green" stroke-width="1.25" points="195.24,-162.14 186.3,-167.82 196.83,-168.96 195.24,-162.14"/>
<text text-anchor="middle" x="201.62" y="-164.43" font-family="Times,serif" font-size="5.00">5.762</text>
</g>
<!-- 24133&#45;&gt;24142 -->
<g id="edge48" class="edge">
<title>24133&#45;&gt;24142</title>
<path fill="none" stroke="green" stroke-width="0.17" d="M257.23,-178.5C259.86,-183.78 262.68,-189.44 265.45,-195"/>
<polygon fill="green" stroke="green" stroke-width="0.17" points="262.43,-196.78 270.02,-204.17 268.69,-193.66 262.43,-196.78"/>
<text text-anchor="middle" x="255.72" y="-188.25" font-family="Times,serif" font-size="5.00">0.333</text>
</g>
<!-- 24133&#45;&gt;24125 -->
<g id="edge52" class="edge">
<title>24133&#45;&gt;24125</title>
<path fill="none" stroke="green" stroke-width="0.34" d="M272.71,-154.28C274.41,-154.29 276.14,-154.3 277.88,-154.32"/>
<polygon fill="green" stroke="green" stroke-width="0.34" points="277.86,-157.82 287.89,-154.39 277.91,-150.82 277.86,-157.82"/>
<text text-anchor="middle" x="278.11" y="-149.8" font-family="Times,serif" font-size="5.00">1.188</text>
</g>
<!-- 24133&#45;&gt;24144 -->
<g id="edge56" class="edge">
<title>24133&#45;&gt;24144</title>
<path fill="none" stroke="green" stroke-width="0.17" d="M249.16,-181.08C249.57,-183.78 249.99,-186.55 250.41,-189.33"/>
<polygon fill="green" stroke="green" stroke-width="0.17" points="246.97,-189.96 251.92,-199.32 253.89,-188.91 246.97,-189.96"/>
<text text-anchor="middle" x="244.16" y="-186.71" font-family="Times,serif" font-size="5.00">0.333</text>
</g>
<!-- 24133&#45;&gt;24134 -->
<g id="edge60" class="edge">
<title>24133&#45;&gt;24134</title>
<path fill="none" stroke="green" stroke-width="0.34" d="M270.69,-144.57C270.78,-144.54 270.87,-144.5 270.96,-144.47"/>
<polygon fill="green" stroke="green" stroke-width="0.34" points="271.39,-148.04 279.55,-141.28 268.96,-141.48 271.39,-148.04"/>
<text text-anchor="middle" x="265.2" y="-140.02" font-family="Times,serif" font-size="5.00">1.188</text>
</g>
<!-- 24133&#45;&gt;24146 -->
<g id="edge64" class="edge">
<title>24133&#45;&gt;24146</title>
<path fill="none" stroke="green" stroke-width="0.17" d="M264.05,-173.77C267.22,-177.06 270.56,-180.52 273.87,-183.96"/>
<polygon fill="green" stroke="green" stroke-width="0.17" points="271.55,-186.6 281.01,-191.37 276.59,-181.74 271.55,-186.6"/>
<text text-anchor="middle" x="274.58" y="-180.37" font-family="Times,serif" font-size="5.00">0.333</text>
</g>
<!-- 24133&#45;&gt;24135 -->
<g id="edge68" class="edge">
<title>24133&#45;&gt;24135</title>
<path fill="none" stroke="green" stroke-width="0.34" d="M271.91,-160.74C276.25,-161.81 280.82,-162.95 285.4,-164.08"/>
<polygon fill="green" stroke="green" stroke-width="0.34" points="284.77,-167.53 295.32,-166.54 286.46,-160.74 284.77,-167.53"/>
<text text-anchor="middle" x="284.28" y="-163.91" font-family="Times,serif" font-size="5.00">1.188</text>
</g>
<!-- 24143 -->
<g id="node25" class="node">
<title>24143</title>
<ellipse fill="white" stroke="black" cx="186.92" cy="-269.46" rx="27.45" ry="27.45"/>
<text text-anchor="middle" x="186.92" y="-266.76" font-family="Times,serif" font-size="9.00">24143</text>
</g>
<!-- 24142&#45;&gt;24143 -->
<g id="edge49" class="edge">
<title>24142&#45;&gt;24143</title>
<path fill="none" stroke="green" stroke-width="0.17" d="M257.16,-239.36C246.31,-244.01 233.42,-249.54 221.66,-254.57"/>
<polygon fill="green" stroke="green" stroke-width="0.17" points="219.93,-251.51 212.12,-258.66 222.69,-257.94 219.93,-251.51"/>
<text text-anchor="middle" x="233.79" y="-248.47" font-family="Times,serif" font-size="5.00">0.333</text>
</g>
<!-- 24142&#45;&gt;24125 -->
<g id="edge53" class="edge">
<title>24142&#45;&gt;24125</title>
<path fill="none" stroke="green" stroke-width="0.17" stroke-dasharray="1,5" d="M294.55,-203.98C296.52,-200.04 298.6,-195.89 300.68,-191.74"/>
<polygon fill="green" stroke="green" stroke-width="0.17" points="303.85,-193.24 305.2,-182.73 297.59,-190.1 303.85,-193.24"/>
<text text-anchor="middle" x="291.99" y="-193.36" font-family="Times,serif" font-size="5.00">0.333</text>
</g>
<!-- 24143&#45;&gt;0 -->
<g id="edge80" class="edge">
<title>24143&#45;&gt;0</title>
<path fill="none" stroke="green" stroke-width="0.13" stroke-dasharray="1,5" d="M181.76,-242.58C179.24,-229.43 176.21,-213.6 173.65,-200.27"/>
<polygon fill="green" stroke="green" stroke-width="0.13" points="177.04,-199.38 171.72,-190.21 170.17,-200.69 177.04,-199.38"/>
<text text-anchor="middle" x="172.08" y="-222.92" font-family="Times,serif" font-size="5.00">0.167</text>
</g>
<!-- 24145 -->
<g id="node28" class="node">
<title>24145</title>
<ellipse fill="white" stroke="black" cx="146.38" cy="-259.33" rx="27.45" ry="27.45"/>
<text text-anchor="middle" x="146.38" y="-256.63" font-family="Times,serif" font-size="9.00">24145</text>
</g>
<!-- 24144&#45;&gt;24145 -->
<g id="edge57" class="edge">
<title>24144&#45;&gt;24145</title>
<path fill="none" stroke="green" stroke-width="0.17" d="M229.78,-234.42C215.64,-238.65 197.98,-243.92 182.56,-248.53"/>
<polygon fill="green" stroke="green" stroke-width="0.17" points="181.39,-245.22 172.81,-251.44 183.39,-251.93 181.39,-245.22"/>
<text text-anchor="middle" x="211.8" y="-236.97" font-family="Times,serif" font-size="5.00">0.333</text>
</g>
<!-- 24144&#45;&gt;24134 -->
<g id="edge61" class="edge">
<title>24144&#45;&gt;24134</title>
<path fill="none" stroke="green" stroke-width="0.17" stroke-dasharray="1,5" d="M269.4,-202.29C275.3,-191.56 282.36,-178.7 288.88,-166.85"/>
<polygon fill="green" stroke="green" stroke-width="0.17" points="291.98,-168.48 293.73,-158.03 285.84,-165.11 291.98,-168.48"/>
<text text-anchor="middle" x="284.76" y="-180.07" font-family="Times,serif" font-size="5.00">0.333</text>
</g>
<!-- 24145&#45;&gt;0 -->
<g id="edge81" class="edge">
<title>24145&#45;&gt;0</title>
<path fill="none" stroke="green" stroke-width="0.13" stroke-dasharray="1,5" d="M153.05,-232.67C155.65,-222.29 158.63,-210.4 161.26,-199.91"/>
<polygon fill="green" stroke="green" stroke-width="0.13" points="164.71,-200.54 163.74,-189.99 157.92,-198.84 164.71,-200.54"/>
<text text-anchor="middle" x="151.53" y="-211.79" font-family="Times,serif" font-size="5.00">0.167</text>
</g>
<!-- 24147 -->
<g id="node31" class="node">
<title>24147</title>
<ellipse fill="white" stroke="black" cx="219.56" cy="-255.79" rx="27.45" ry="27.45"/>
<text text-anchor="middle" x="219.56" y="-253.09" font-family="Times,serif" font-size="9.00">24147</text>
</g>
<!-- 24146&#45;&gt;24147 -->
<g id="edge65" class="edge">
<title>24146&#45;&gt;24147</title>
<path fill="none" stroke="green" stroke-width="0.17" d="M276.01,-224.64C268.61,-228.72 260.34,-233.29 252.46,-237.64"/>
<polygon fill="green" stroke="green" stroke-width="0.17" points="250.53,-234.7 243.46,-242.6 253.91,-240.83 250.53,-234.7"/>
<text text-anchor="middle" x="258.61" y="-232.64" font-family="Times,serif" font-size="5.00">0.333</text>
</g>
<!-- 24146&#45;&gt;24135 -->
<g id="edge69" class="edge">
<title>24146&#45;&gt;24135</title>
<path fill="none" stroke="green" stroke-width="0.17" stroke-dasharray="1,5" d="M315.6,-188.77C315.64,-188.71 315.68,-188.64 315.72,-188.58"/>
<polygon fill="green" stroke="green" stroke-width="0.17" points="313.09,-198.63 315.85,-188.4 307.31,-194.68 313.09,-198.63"/>
<text text-anchor="middle" x="310.03" y="-190.17" font-family="Times,serif" font-size="5.00">0.333</text>
</g>
<!-- 24147&#45;&gt;0 -->
<g id="edge82" class="edge">
<title>24147&#45;&gt;0</title>
<path fill="none" stroke="green" stroke-width="0.13" stroke-dasharray="1,5" d="M205.27,-232.46C198.39,-221.24 190.14,-207.78 183.18,-196.42"/>
<polygon fill="green" stroke="green" stroke-width="0.13" points="186.13,-194.54 177.92,-187.84 180.16,-198.19 186.13,-194.54"/>
<text text-anchor="middle" x="188.6" y="-209.94" font-family="Times,serif" font-size="5.00">0.167</text>
</g>
</g>
</svg>
