<?xml version="1.0" encoding="UTF-8" standalone="no"?>
<!DOCTYPE svg PUBLIC "-//W3C//DTD SVG 1.1//EN"
 "http://www.w3.org/Graphics/SVG/1.1/DTD/svg11.dtd">
<!-- Generated by graphviz version 2.47.1 (20210417.1919)
 -->
<!-- Pages: 1 -->
<svg width="319pt" height="297pt"
 viewBox="0.00 0.00 318.85 296.64" xmlns="http://www.w3.org/2000/svg" xmlns:xlink="http://www.w3.org/1999/xlink">
<g id="graph0" class="graph" transform="scale(1 1) rotate(0) translate(4 292.64)">
<polygon fill="white" stroke="transparent" points="-4,4 -4,-292.64 314.85,-292.64 314.85,4 -4,4"/>
<!-- &#45;1 -->
<g id="node1" class="node">
<title>&#45;1</title>
<polygon fill="lightgray" stroke="black" points="96.69,-134.35 72.68,-134.35 72.68,-115.74 96.69,-115.74 96.69,-134.35"/>
<text text-anchor="middle" x="84.69" y="-122.35" font-family="Times,serif" font-size="9.00">&#45;1</text>
</g>
<!-- 0 -->
<g id="node5" class="node">
<title>0</title>
<ellipse fill="lightblue" stroke="black" cx="110.07" cy="-159.58" rx="14.49" ry="14.49"/>
<text text-anchor="middle" x="110.07" y="-156.88" font-family="Times,serif" font-size="9.00">0</text>
</g>
<!-- &#45;1&#45;&gt;0 -->
<g id="edge38" class="edge">
<title>&#45;1&#45;&gt;0</title>
<path fill="none" stroke="green" stroke-width="0.57" d="M91.62,-134.48C92.75,-136.01 93.94,-137.64 95.17,-139.31"/>
<polygon fill="green" stroke="green" stroke-width="0.57" points="92.58,-141.7 101.33,-147.68 98.22,-137.55 92.58,-141.7"/>
<text text-anchor="middle" x="87.77" y="-138.4" font-family="Times,serif" font-size="5.00">2.361</text>
</g>
<!-- 14195 -->
<g id="node6" class="node">
<title>14195</title>
<ellipse fill="white" stroke="black" cx="27.22" cy="-162.44" rx="27.45" ry="27.45"/>
<text text-anchor="middle" x="27.22" y="-159.74" font-family="Times,serif" font-size="9.00">14195</text>
</g>
<!-- &#45;1&#45;&gt;14195 -->
<g id="edge1" class="edge">
<title>&#45;1&#45;&gt;14195</title>
<path fill="none" stroke="green" stroke-width="0.3" d="M72.78,-132.79C68.75,-135.42 64.04,-138.48 59.21,-141.62"/>
<polygon fill="green" stroke="green" stroke-width="0.3" points="56.97,-138.91 50.5,-147.3 60.79,-144.77 56.97,-138.91"/>
<text text-anchor="middle" x="60.37" y="-138.71" font-family="Times,serif" font-size="5.00">1.000</text>
</g>
<!-- 11733 -->
<g id="node18" class="node">
<title>11733</title>
<ellipse fill="white" stroke="black" cx="178.29" cy="-124.8" rx="27.42" ry="27.42"/>
<ellipse fill="none" stroke="black" cx="178.29" cy="-124.8" rx="31.45" ry="31.45"/>
<text text-anchor="middle" x="178.29" y="-122.1" font-family="Times,serif" font-size="9.00">11733</text>
</g>
<!-- &#45;1&#45;&gt;11733 -->
<g id="edge17" class="edge">
<title>&#45;1&#45;&gt;11733</title>
<path fill="none" stroke="red" stroke-width="0.82" d="M96.54,-125.02C106.67,-124.99 121.89,-124.95 136.45,-124.91"/>
<polygon fill="red" stroke="red" stroke-width="0.82" points="136.87,-128.41 146.86,-124.88 136.85,-121.41 136.87,-128.41"/>
<text text-anchor="middle" x="110.04" y="-126.46" font-family="Times,serif" font-size="5.00">&#45;3.582</text>
</g>
<!-- 14198 -->
<g id="node19" class="node">
<title>14198</title>
<ellipse fill="white" stroke="black" cx="134.55" cy="-183.37" rx="27.42" ry="27.42"/>
<ellipse fill="none" stroke="black" cx="134.55" cy="-183.37" rx="31.45" ry="31.45"/>
<text text-anchor="middle" x="134.55" y="-180.67" font-family="Times,serif" font-size="9.00">14198</text>
</g>
<!-- &#45;1&#45;&gt;14198 -->
<g id="edge24" class="edge">
<title>&#45;1&#45;&gt;14198</title>
<path fill="none" stroke="red" stroke-width="0.82" d="M92.7,-134.42C96.76,-139.17 101.96,-145.25 107.31,-151.5"/>
<polygon fill="red" stroke="red" stroke-width="0.82" points="104.92,-154.1 114.08,-159.42 110.24,-149.55 104.92,-154.1"/>
<text text-anchor="middle" x="106.46" y="-138.46" font-family="Times,serif" font-size="5.00">&#45;3.582</text>
</g>
<!-- 14199 -->
<g id="node20" class="node">
<title>14199</title>
<ellipse fill="white" stroke="black" cx="145.69" cy="-168.06" rx="27.42" ry="27.42"/>
<ellipse fill="none" stroke="black" cx="145.69" cy="-168.06" rx="31.45" ry="31.45"/>
<text text-anchor="middle" x="145.69" y="-165.36" font-family="Times,serif" font-size="9.00">14199</text>
</g>
<!-- &#45;1&#45;&gt;14199 -->
<g id="edge31" class="edge">
<title>&#45;1&#45;&gt;14199</title>
<path fill="none" stroke="red" stroke-width="0.82" d="M96.45,-133.34C100.86,-136.45 106.12,-140.16 111.53,-143.98"/>
<polygon fill="red" stroke="red" stroke-width="0.82" points="109.88,-147.1 120.07,-150 113.92,-141.38 109.88,-147.1"/>
<text text-anchor="middle" x="97.53" y="-140.16" font-family="Times,serif" font-size="5.00">&#45;3.582</text>
</g>
<!-- &#45;2 -->
<g id="node2" class="node">
<title>&#45;2</title>
<polygon fill="lightgray" stroke="black" points="210.72,-191.91 186.71,-191.91 186.71,-173.31 210.72,-173.31 210.72,-191.91"/>
<text text-anchor="middle" x="198.72" y="-179.91" font-family="Times,serif" font-size="9.00">&#45;2</text>
</g>
<!-- &#45;2&#45;&gt;0 -->
<g id="edge37" class="edge">
<title>&#45;2&#45;&gt;0</title>
<path fill="none" stroke="green" stroke-width="1" d="M186.76,-179.5C173.3,-176.01 151.08,-170.23 134.01,-165.8"/>
<polygon fill="green" stroke="green" stroke-width="1" points="134.73,-162.37 124.17,-163.24 132.97,-169.14 134.73,-162.37"/>
<text text-anchor="middle" x="154.76" y="-174.15" font-family="Times,serif" font-size="5.00">4.516</text>
</g>
<!-- 14202 -->
<g id="node9" class="node">
<title>14202</title>
<ellipse fill="white" stroke="black" cx="231.41" cy="-78.06" rx="27.45" ry="27.45"/>
<text text-anchor="middle" x="231.41" y="-75.36" font-family="Times,serif" font-size="9.00">14202</text>
</g>
<!-- &#45;2&#45;&gt;14202 -->
<g id="edge4" class="edge">
<title>&#45;2&#45;&gt;14202</title>
<path fill="none" stroke="green" stroke-width="0.3" d="M201.73,-172.96C205.91,-159.61 213.68,-134.77 220.22,-113.86"/>
<polygon fill="green" stroke="green" stroke-width="0.3" points="223.57,-114.87 223.22,-104.28 216.89,-112.78 223.57,-114.87"/>
<text text-anchor="middle" x="216.6" y="-144.91" font-family="Times,serif" font-size="5.00">1.000</text>
</g>
<!-- 5235 -->
<g id="node11" class="node">
<title>5235</title>
<ellipse fill="white" stroke="black" cx="158.64" cy="-103.93" rx="24.08" ry="24.08"/>
<ellipse fill="none" stroke="black" cx="158.64" cy="-103.93" rx="28.08" ry="28.08"/>
<text text-anchor="middle" x="158.64" y="-101.23" font-family="Times,serif" font-size="9.00">5235</text>
</g>
<!-- &#45;2&#45;&gt;5235 -->
<g id="edge6" class="edge">
<title>&#45;2&#45;&gt;5235</title>
<path fill="none" stroke="green" stroke-width="0.23" d="M193.96,-173.28C189.52,-164.56 182.62,-151.02 176.09,-138.2"/>
<polygon fill="green" stroke="green" stroke-width="0.23" points="179.1,-136.4 171.44,-129.08 172.87,-139.58 179.1,-136.4"/>
<text text-anchor="middle" x="190.65" y="-157.24" font-family="Times,serif" font-size="5.00">0.672</text>
</g>
<!-- 14204 -->
<g id="node12" class="node">
<title>14204</title>
<ellipse fill="white" stroke="black" cx="230.81" cy="-261.42" rx="27.45" ry="27.45"/>
<text text-anchor="middle" x="230.81" y="-258.72" font-family="Times,serif" font-size="9.00">14204</text>
</g>
<!-- &#45;2&#45;&gt;14204 -->
<g id="edge8" class="edge">
<title>&#45;2&#45;&gt;14204</title>
<path fill="none" stroke="green" stroke-width="0.3" d="M202.52,-191.96C206.02,-200.54 211.42,-213.79 216.56,-226.43"/>
<polygon fill="green" stroke="green" stroke-width="0.3" points="213.4,-227.95 220.42,-235.89 219.89,-225.31 213.4,-227.95"/>
<text text-anchor="middle" x="203.92" y="-210.7" font-family="Times,serif" font-size="5.00">1.000</text>
</g>
<!-- 14196 -->
<g id="node14" class="node">
<title>14196</title>
<ellipse fill="white" stroke="black" cx="159.89" cy="-241.29" rx="27.42" ry="27.42"/>
<ellipse fill="none" stroke="black" cx="159.89" cy="-241.29" rx="31.45" ry="31.45"/>
<text text-anchor="middle" x="159.89" y="-238.59" font-family="Times,serif" font-size="9.00">14196</text>
</g>
<!-- &#45;2&#45;&gt;14196 -->
<g id="edge10" class="edge">
<title>&#45;2&#45;&gt;14196</title>
<path fill="none" stroke="green" stroke-width="0.23" d="M192.48,-192.04C189.75,-196.16 186.36,-201.28 182.81,-206.65"/>
<polygon fill="green" stroke="green" stroke-width="0.23" points="179.77,-204.9 177.17,-215.17 185.61,-208.76 179.77,-204.9"/>
<text text-anchor="middle" x="182.02" y="-200.84" font-family="Times,serif" font-size="5.00">0.672</text>
</g>
<!-- 14206 -->
<g id="node15" class="node">
<title>14206</title>
<ellipse fill="white" stroke="black" cx="283.62" cy="-161.17" rx="27.45" ry="27.45"/>
<text text-anchor="middle" x="283.62" y="-158.47" font-family="Times,serif" font-size="9.00">14206</text>
</g>
<!-- &#45;2&#45;&gt;14206 -->
<g id="edge12" class="edge">
<title>&#45;2&#45;&gt;14206</title>
<path fill="none" stroke="green" stroke-width="0.3" d="M210.52,-179.63C220.04,-177.23 233.95,-173.71 247.08,-170.4"/>
<polygon fill="green" stroke="green" stroke-width="0.3" points="248.06,-173.76 256.9,-167.92 246.34,-166.97 248.06,-173.76"/>
<text text-anchor="middle" x="234.43" y="-170.51" font-family="Times,serif" font-size="5.00">1.000</text>
</g>
<!-- 14197 -->
<g id="node17" class="node">
<title>14197</title>
<ellipse fill="white" stroke="black" cx="206.22" cy="-154.4" rx="27.42" ry="27.42"/>
<ellipse fill="none" stroke="black" cx="206.22" cy="-154.4" rx="31.45" ry="31.45"/>
<text text-anchor="middle" x="206.22" y="-151.7" font-family="Times,serif" font-size="9.00">14197</text>
</g>
<!-- &#45;2&#45;&gt;14197 -->
<g id="edge14" class="edge">
<title>&#45;2&#45;&gt;14197</title>
<path fill="none" stroke="green" stroke-width="0.23" d="M201.26,-173.06C201.27,-172.99 201.29,-172.93 201.31,-172.87"/>
<polygon fill="green" stroke="green" stroke-width="0.23" points="202.17,-183.24 201.36,-172.67 195.4,-181.44 202.17,-183.24"/>
<text text-anchor="middle" x="195.66" y="-168.46" font-family="Times,serif" font-size="5.00">0.672</text>
</g>
<!-- &#45;2&#45;&gt;11733 -->
<g id="edge16" class="edge">
<title>&#45;2&#45;&gt;11733</title>
<path fill="none" stroke="green" stroke-width="0.66" d="M195.34,-173.06C194.4,-170.39 193.31,-167.3 192.14,-164"/>
<polygon fill="green" stroke="green" stroke-width="0.66" points="195.36,-162.61 188.73,-154.34 188.76,-164.94 195.36,-162.61"/>
<text text-anchor="middle" x="188.12" y="-170.03" font-family="Times,serif" font-size="5.00">2.792</text>
</g>
<!-- &#45;2&#45;&gt;14198 -->
<g id="edge23" class="edge">
<title>&#45;2&#45;&gt;14198</title>
<path fill="none" stroke="green" stroke-width="0.66" d="M186.95,-182.75C183.7,-182.79 179.99,-182.83 176.06,-182.88"/>
<polygon fill="green" stroke="green" stroke-width="0.66" points="176,-179.38 166.04,-183 176.08,-186.38 176,-179.38"/>
<text text-anchor="middle" x="175.88" y="-184.31" font-family="Times,serif" font-size="5.00">2.792</text>
</g>
<!-- &#45;2&#45;&gt;14199 -->
<g id="edge30" class="edge">
<title>&#45;2&#45;&gt;14199</title>
<path fill="none" stroke="green" stroke-width="0.66" d="M186.95,-179.38C186.64,-179.3 186.33,-179.21 186.01,-179.12"/>
<polygon fill="green" stroke="green" stroke-width="0.66" points="186.63,-175.66 176.06,-176.39 184.78,-182.42 186.63,-175.66"/>
<text text-anchor="middle" x="192.1" y="-180.75" font-family="Times,serif" font-size="5.00">2.792</text>
</g>
<!-- &#45;3 -->
<g id="node3" class="node">
<title>&#45;3</title>
<polygon fill="lightgray" stroke="black" points="123.15,-102.32 99.15,-102.32 99.15,-83.71 123.15,-83.71 123.15,-102.32"/>
<text text-anchor="middle" x="111.15" y="-90.31" font-family="Times,serif" font-size="9.00">&#45;3</text>
</g>
<!-- &#45;3&#45;&gt;0 -->
<g id="edge39" class="edge">
<title>&#45;3&#45;&gt;0</title>
<path fill="none" stroke="red" stroke-width="0.1" d="M110.99,-102.55C110.86,-110.94 110.65,-123.53 110.47,-134.75"/>
<polygon fill="red" stroke="red" stroke-width="0.1" points="106.97,-134.85 110.31,-144.91 113.97,-134.96 106.97,-134.85"/>
<text text-anchor="middle" x="105.11" y="-120.15" font-family="Times,serif" font-size="5.00">0.000</text>
</g>
<!-- 14200 -->
<g id="node7" class="node">
<title>14200</title>
<ellipse fill="white" stroke="black" cx="46.62" cy="-90.09" rx="27.45" ry="27.45"/>
<text text-anchor="middle" x="46.62" y="-87.39" font-family="Times,serif" font-size="9.00">14200</text>
</g>
<!-- &#45;3&#45;&gt;14200 -->
<g id="edge2" class="edge">
<title>&#45;3&#45;&gt;14200</title>
<path fill="none" stroke="green" stroke-width="0.3" d="M99.31,-92.48C94.85,-92.28 89.51,-92.03 83.97,-91.78"/>
<polygon fill="green" stroke="green" stroke-width="0.3" points="84.06,-88.28 73.91,-91.32 83.74,-95.27 84.06,-88.28"/>
<text text-anchor="middle" x="86.01" y="-93.63" font-family="Times,serif" font-size="5.00">1.000</text>
</g>
<!-- &#45;3&#45;&gt;11733 -->
<g id="edge18" class="edge">
<title>&#45;3&#45;&gt;11733</title>
<path fill="none" stroke="red" stroke-width="0.82" d="M123.15,-98.7C128.17,-101.07 134.3,-103.98 140.63,-106.97"/>
<polygon fill="red" stroke="red" stroke-width="0.82" points="139.4,-110.26 149.94,-111.38 142.4,-103.94 139.4,-110.26"/>
<text text-anchor="middle" x="125.43" y="-104.34" font-family="Times,serif" font-size="5.00">&#45;3.582</text>
</g>
<!-- &#45;3&#45;&gt;14198 -->
<g id="edge25" class="edge">
<title>&#45;3&#45;&gt;14198</title>
<path fill="none" stroke="red" stroke-width="0.82" d="M113.56,-102.34C116.09,-112.11 120.24,-128.11 124.18,-143.32"/>
<polygon fill="red" stroke="red" stroke-width="0.82" points="120.82,-144.33 126.72,-153.13 127.6,-142.57 120.82,-144.33"/>
<text text-anchor="middle" x="122.1" y="-118.33" font-family="Times,serif" font-size="5.00">&#45;3.582</text>
</g>
<!-- &#45;3&#45;&gt;14199 -->
<g id="edge32" class="edge">
<title>&#45;3&#45;&gt;14199</title>
<path fill="none" stroke="red" stroke-width="0.82" d="M115.52,-102.52C118.8,-109.65 123.52,-119.91 128.26,-130.2"/>
<polygon fill="red" stroke="red" stroke-width="0.82" points="125.22,-131.95 132.58,-139.57 131.57,-129.03 125.22,-131.95"/>
<text text-anchor="middle" x="115.43" y="-111.86" font-family="Times,serif" font-size="5.00">&#45;3.582</text>
</g>
<!-- &#45;4 -->
<g id="node4" class="node">
<title>&#45;4</title>
<polygon fill="lightgray" stroke="black" points="122.08,-230.72 98.08,-230.72 98.08,-212.11 122.08,-212.11 122.08,-230.72"/>
<text text-anchor="middle" x="110.08" y="-218.72" font-family="Times,serif" font-size="9.00">&#45;4</text>
</g>
<!-- &#45;4&#45;&gt;0 -->
<g id="edge40" class="edge">
<title>&#45;4&#45;&gt;0</title>
<path fill="none" stroke="red" stroke-width="0.57" d="M110.08,-212.02C110.08,-204.68 110.07,-194.12 110.07,-184.39"/>
<polygon fill="red" stroke="red" stroke-width="0.57" points="113.57,-184.36 110.07,-174.36 106.57,-184.37 113.57,-184.36"/>
<text text-anchor="middle" x="103.62" y="-199.71" font-family="Times,serif" font-size="5.00">&#45;2.361</text>
</g>
<!-- 14201 -->
<g id="node8" class="node">
<title>14201</title>
<ellipse fill="white" stroke="black" cx="52.27" cy="-231.38" rx="27.45" ry="27.45"/>
<text text-anchor="middle" x="52.27" y="-228.68" font-family="Times,serif" font-size="9.00">14201</text>
</g>
<!-- &#45;4&#45;&gt;14201 -->
<g id="edge3" class="edge">
<title>&#45;4&#45;&gt;14201</title>
<path fill="none" stroke="green" stroke-width="0.3" d="M98.1,-223.48C95.47,-223.93 92.56,-224.44 89.51,-224.96"/>
<polygon fill="green" stroke="green" stroke-width="0.3" points="88.75,-221.54 79.49,-226.69 89.94,-228.44 88.75,-221.54"/>
<text text-anchor="middle" x="88.18" y="-225.72" font-family="Times,serif" font-size="5.00">1.000</text>
</g>
<!-- &#45;4&#45;&gt;11733 -->
<g id="edge19" class="edge">
<title>&#45;4&#45;&gt;11733</title>
<path fill="none" stroke="red" stroke-width="0.82" d="M116.87,-211.8C125.52,-199.55 140.93,-177.71 154.16,-158.99"/>
<polygon fill="red" stroke="red" stroke-width="0.82" points="157.14,-160.83 160.04,-150.64 151.42,-156.8 157.14,-160.83"/>
<text text-anchor="middle" x="135.51" y="-180.89" font-family="Times,serif" font-size="5.00">&#45;3.582</text>
</g>
<!-- &#45;4&#45;&gt;14198 -->
<g id="edge26" class="edge">
<title>&#45;4&#45;&gt;14198</title>
<path fill="none" stroke="red" stroke-width="0.82" d="M116.25,-211.81C116.31,-211.73 116.37,-211.64 116.42,-211.55"/>
<polygon fill="red" stroke="red" stroke-width="0.82" points="115.19,-219.94 117.65,-209.64 109.3,-216.15 115.19,-219.94"/>
<text text-anchor="middle" x="109.88" y="-207.18" font-family="Times,serif" font-size="5.00">&#45;3.582</text>
</g>
<!-- &#45;4&#45;&gt;14199 -->
<g id="edge33" class="edge">
<title>&#45;4&#45;&gt;14199</title>
<path fill="none" stroke="red" stroke-width="0.82" d="M116.61,-211.63C118.41,-208.93 120.47,-205.84 122.65,-202.58"/>
<polygon fill="red" stroke="red" stroke-width="0.82" points="125.57,-204.51 128.21,-194.25 119.75,-200.62 125.57,-204.51"/>
<text text-anchor="middle" x="126.09" y="-202.61" font-family="Times,serif" font-size="5.00">&#45;3.582</text>
</g>
<!-- 14195&#45;&gt;0 -->
<g id="edge47" class="edge">
<title>14195&#45;&gt;0</title>
<path fill="none" stroke="red" stroke-width="0.57" d="M54.81,-161.49C64.66,-161.15 75.69,-160.77 85.29,-160.44"/>
<polygon fill="red" stroke="red" stroke-width="0.57" points="85.51,-163.93 95.38,-160.09 85.26,-156.93 85.51,-163.93"/>
<text text-anchor="middle" x="63.59" y="-162.46" font-family="Times,serif" font-size="5.00">&#45;2.351</text>
</g>
<!-- 14200&#45;&gt;0 -->
<g id="edge48" class="edge">
<title>14200&#45;&gt;0</title>
<path fill="none" stroke="red" stroke-width="0.57" d="M65.31,-110.56C74.13,-120.22 84.58,-131.66 93.17,-141.06"/>
<polygon fill="red" stroke="red" stroke-width="0.57" points="90.81,-143.68 100.14,-148.7 95.98,-138.96 90.81,-143.68"/>
<text text-anchor="middle" x="72.78" y="-127.31" font-family="Times,serif" font-size="5.00">&#45;2.351</text>
</g>
<!-- 14201&#45;&gt;0 -->
<g id="edge49" class="edge">
<title>14201&#45;&gt;0</title>
<path fill="none" stroke="red" stroke-width="0.57" d="M69.61,-209.84C77.46,-200.1 86.66,-188.67 94.3,-179.17"/>
<polygon fill="red" stroke="red" stroke-width="0.57" points="97.26,-181.08 100.8,-171.1 91.8,-176.69 97.26,-181.08"/>
<text text-anchor="middle" x="75.5" y="-196.01" font-family="Times,serif" font-size="5.00">&#45;2.351</text>
</g>
<!-- 14203 -->
<g id="node10" class="node">
<title>14203</title>
<ellipse fill="white" stroke="black" cx="190.17" cy="-27.22" rx="27.45" ry="27.45"/>
<text text-anchor="middle" x="190.17" y="-24.52" font-family="Times,serif" font-size="9.00">14203</text>
</g>
<!-- 14202&#45;&gt;14203 -->
<g id="edge5" class="edge">
<title>14202&#45;&gt;14203</title>
<path fill="none" stroke="green" stroke-width="0.3" d="M214.16,-56.8C214.09,-56.71 214.03,-56.63 213.96,-56.54"/>
<polygon fill="green" stroke="green" stroke-width="0.3" points="216.51,-54.13 207.49,-48.57 211.07,-58.54 216.51,-54.13"/>
<text text-anchor="middle" x="208.43" y="-58.17" font-family="Times,serif" font-size="5.00">1.000</text>
</g>
<!-- 14202&#45;&gt;5235 -->
<g id="edge7" class="edge">
<title>14202&#45;&gt;5235</title>
<path fill="none" stroke="green" stroke-width="0.3" stroke-dasharray="1,5" d="M205.55,-87.26C202.08,-88.49 198.47,-89.78 194.85,-91.06"/>
<polygon fill="green" stroke="green" stroke-width="0.3" points="193.65,-87.77 185.4,-94.42 196,-94.37 193.65,-87.77"/>
<text text-anchor="middle" x="194.58" y="-84.66" font-family="Times,serif" font-size="5.00">1.000</text>
</g>
<!-- 14203&#45;&gt;11733 -->
<g id="edge20" class="edge">
<title>14203&#45;&gt;11733</title>
<path fill="none" stroke="green" stroke-width="0.15" stroke-dasharray="1,5" d="M186.86,-54.4C185.76,-63.44 184.51,-73.73 183.31,-83.58"/>
<polygon fill="green" stroke="green" stroke-width="0.15" points="179.82,-83.28 182.09,-93.63 186.77,-84.13 179.82,-83.28"/>
<text text-anchor="middle" x="179.46" y="-70.49" font-family="Times,serif" font-size="5.00">0.250</text>
</g>
<!-- 5235&#45;&gt;0 -->
<g id="edge41" class="edge">
<title>5235&#45;&gt;0</title>
<path fill="none" stroke="red" stroke-width="0.43" d="M140,-125.29C135.54,-130.39 130.82,-135.81 126.47,-140.78"/>
<polygon fill="red" stroke="red" stroke-width="0.43" points="123.57,-138.79 119.63,-148.63 128.84,-143.39 123.57,-138.79"/>
<text text-anchor="middle" x="126.78" y="-128.54" font-family="Times,serif" font-size="5.00">&#45;1.631</text>
</g>
<!-- 5235&#45;&gt;14198 -->
<g id="edge27" class="edge">
<title>5235&#45;&gt;14198</title>
<path fill="none" stroke="green" stroke-width="0.15" stroke-dasharray="1,5" d="M150.48,-130.83C149.25,-134.88 147.96,-139.13 146.67,-143.38"/>
<polygon fill="green" stroke="green" stroke-width="0.15" points="143.24,-142.64 143.69,-153.22 149.94,-144.67 143.24,-142.64"/>
<text text-anchor="middle" x="142.95" y="-132.6" font-family="Times,serif" font-size="5.00">0.250</text>
</g>
<!-- 5235&#45;&gt;14199 -->
<g id="edge34" class="edge">
<title>5235&#45;&gt;14199</title>
<path fill="none" stroke="green" stroke-width="0.15" stroke-dasharray="1,5" d="M153.07,-131.5C153.05,-131.62 153.02,-131.74 153,-131.86"/>
<polygon fill="green" stroke="green" stroke-width="0.15" points="150.46,-126.75 151.91,-137.24 157.32,-128.13 150.46,-126.75"/>
<text text-anchor="middle" x="158.66" y="-133.18" font-family="Times,serif" font-size="5.00">0.250</text>
</g>
<!-- 14205 -->
<g id="node13" class="node">
<title>14205</title>
<ellipse fill="white" stroke="black" cx="259.6" cy="-202.6" rx="27.45" ry="27.45"/>
<text text-anchor="middle" x="259.6" y="-199.9" font-family="Times,serif" font-size="9.00">14205</text>
</g>
<!-- 14204&#45;&gt;14205 -->
<g id="edge9" class="edge">
<title>14204&#45;&gt;14205</title>
<path fill="none" stroke="green" stroke-width="0.3" d="M242.85,-236.82C242.9,-236.72 242.95,-236.62 243,-236.52"/>
<polygon fill="green" stroke="green" stroke-width="0.3" points="246.26,-237.82 247.51,-227.29 239.97,-234.74 246.26,-237.82"/>
<text text-anchor="middle" x="237.3" y="-232.17" font-family="Times,serif" font-size="5.00">1.000</text>
</g>
<!-- 14204&#45;&gt;14196 -->
<g id="edge11" class="edge">
<title>14204&#45;&gt;14196</title>
<path fill="none" stroke="green" stroke-width="0.3" stroke-dasharray="1,5" d="M204.4,-253.92C202.98,-253.52 201.53,-253.11 200.07,-252.69"/>
<polygon fill="green" stroke="green" stroke-width="0.3" points="200.96,-249.31 190.38,-249.95 199.05,-256.04 200.96,-249.31"/>
<text text-anchor="middle" x="196.61" y="-254.81" font-family="Times,serif" font-size="5.00">1.000</text>
</g>
<!-- 14205&#45;&gt;11733 -->
<g id="edge21" class="edge">
<title>14205&#45;&gt;11733</title>
<path fill="none" stroke="green" stroke-width="0.15" stroke-dasharray="1,5" d="M239.92,-183.77C230.46,-174.72 218.92,-163.68 208.4,-153.61"/>
<polygon fill="green" stroke="green" stroke-width="0.15" points="210.6,-150.87 200.96,-146.49 205.76,-155.93 210.6,-150.87"/>
<text text-anchor="middle" x="229.78" y="-164.19" font-family="Times,serif" font-size="5.00">0.250</text>
</g>
<!-- 14196&#45;&gt;0 -->
<g id="edge42" class="edge">
<title>14196&#45;&gt;0</title>
<path fill="none" stroke="red" stroke-width="0.1" d="M143.58,-214.54C136.88,-203.56 129.25,-191.04 122.96,-180.72"/>
<polygon fill="red" stroke="red" stroke-width="0.1" points="125.82,-178.69 117.63,-171.97 119.84,-182.33 125.82,-178.69"/>
<text text-anchor="middle" x="127.64" y="-199.13" font-family="Times,serif" font-size="5.00">0.000</text>
</g>
<!-- 14196&#45;&gt;14198 -->
<g id="edge28" class="edge">
<title>14196&#45;&gt;14198</title>
<path fill="none" stroke="green" stroke-width="0.15" stroke-dasharray="1,5" d="M147.37,-212.67C147.32,-212.56 147.27,-212.44 147.22,-212.33"/>
<polygon fill="green" stroke="green" stroke-width="0.15" points="154.28,-219.74 147.07,-211.99 147.87,-222.55 154.28,-219.74"/>
<text text-anchor="middle" x="141.67" y="-208" font-family="Times,serif" font-size="5.00">0.250</text>
</g>
<!-- 14196&#45;&gt;14199 -->
<g id="edge35" class="edge">
<title>14196&#45;&gt;14199</title>
<path fill="none" stroke="green" stroke-width="0.15" stroke-dasharray="1,5" d="M153.87,-210.24C153.78,-209.77 153.68,-209.3 153.59,-208.83"/>
<polygon fill="green" stroke="green" stroke-width="0.15" points="157.01,-208.08 151.67,-198.93 150.14,-209.42 157.01,-208.08"/>
<text text-anchor="middle" x="159.35" y="-205.03" font-family="Times,serif" font-size="5.00">0.250</text>
</g>
<!-- 14207 -->
<g id="node16" class="node">
<title>14207</title>
<ellipse fill="white" stroke="black" cx="270.33" cy="-91.6" rx="27.45" ry="27.45"/>
<text text-anchor="middle" x="270.33" y="-88.9" font-family="Times,serif" font-size="9.00">14207</text>
</g>
<!-- 14206&#45;&gt;14207 -->
<g id="edge13" class="edge">
<title>14206&#45;&gt;14207</title>
<path fill="none" stroke="green" stroke-width="0.3" d="M278.44,-134.07C278.11,-132.34 277.78,-130.58 277.44,-128.82"/>
<polygon fill="green" stroke="green" stroke-width="0.3" points="280.83,-127.9 275.51,-118.74 273.95,-129.22 280.83,-127.9"/>
<text text-anchor="middle" x="272.32" y="-126.94" font-family="Times,serif" font-size="5.00">1.000</text>
</g>
<!-- 14206&#45;&gt;14197 -->
<g id="edge15" class="edge">
<title>14206&#45;&gt;14197</title>
<path fill="none" stroke="green" stroke-width="0.3" stroke-dasharray="1,5" d="M256.11,-158.76C253.26,-158.51 250.32,-158.25 247.36,-158"/>
<polygon fill="green" stroke="green" stroke-width="0.3" points="247.6,-154.5 237.33,-157.12 246.99,-161.48 247.6,-154.5"/>
<text text-anchor="middle" x="246.11" y="-159.88" font-family="Times,serif" font-size="5.00">1.000</text>
</g>
<!-- 14207&#45;&gt;11733 -->
<g id="edge22" class="edge">
<title>14207&#45;&gt;11733</title>
<path fill="none" stroke="green" stroke-width="0.15" stroke-dasharray="1,5" d="M244.69,-100.85C236.16,-103.92 226.47,-107.42 217.17,-110.78"/>
<polygon fill="green" stroke="green" stroke-width="0.15" points="215.91,-107.51 207.69,-114.2 218.28,-114.1 215.91,-107.51"/>
<text text-anchor="middle" x="225.3" y="-107.31" font-family="Times,serif" font-size="5.00">0.250</text>
</g>
<!-- 14197&#45;&gt;0 -->
<g id="edge43" class="edge">
<title>14197&#45;&gt;0</title>
<path fill="none" stroke="green" stroke-width="0.43" d="M175,-156.08C162.07,-156.78 147.28,-157.57 135.08,-158.23"/>
<polygon fill="green" stroke="green" stroke-width="0.43" points="134.54,-154.75 124.74,-158.79 134.91,-161.74 134.54,-154.75"/>
<text text-anchor="middle" x="160.67" y="-158.65" font-family="Times,serif" font-size="5.00">1.631</text>
</g>
<!-- 14197&#45;&gt;14198 -->
<g id="edge29" class="edge">
<title>14197&#45;&gt;14198</title>
<path fill="none" stroke="green" stroke-width="0.15" stroke-dasharray="1,5" d="M177.07,-166.18C175.85,-166.67 174.62,-167.17 173.38,-167.67"/>
<polygon fill="green" stroke="green" stroke-width="0.15" points="171.87,-164.51 163.91,-171.5 174.49,-171 171.87,-164.51"/>
<text text-anchor="middle" x="175.22" y="-162.42" font-family="Times,serif" font-size="5.00">0.250</text>
</g>
<!-- 14197&#45;&gt;14199 -->
<g id="edge36" class="edge">
<title>14197&#45;&gt;14199</title>
<path fill="none" stroke="green" stroke-width="0.15" stroke-dasharray="1,5" d="M175.6,-161.31C175.54,-161.32 175.48,-161.34 175.42,-161.35"/>
<polygon fill="green" stroke="green" stroke-width="0.15" points="184.23,-155.77 175.25,-161.39 185.77,-162.6 184.23,-155.77"/>
<text text-anchor="middle" x="175.51" y="-156.83" font-family="Times,serif" font-size="5.00">0.250</text>
</g>
<!-- 11733&#45;&gt;0 -->
<g id="edge44" class="edge">
<title>11733&#45;&gt;0</title>
<path fill="none" stroke="green" stroke-width="0.5" d="M150.15,-139.15C144.13,-142.22 137.86,-145.41 132.11,-148.35"/>
<polygon fill="green" stroke="green" stroke-width="0.5" points="130.38,-145.29 123.06,-152.95 133.56,-151.53 130.38,-145.29"/>
<text text-anchor="middle" x="141.13" y="-139.25" font-family="Times,serif" font-size="5.00">2.010</text>
</g>
<!-- 14198&#45;&gt;0 -->
<g id="edge45" class="edge">
<title>14198&#45;&gt;0</title>
<path fill="none" stroke="green" stroke-width="0.5" d="M111.99,-161.44C111.92,-161.37 111.84,-161.3 111.77,-161.23"/>
<polygon fill="green" stroke="green" stroke-width="0.5" points="121.18,-165.49 111.57,-161.03 116.3,-170.51 121.18,-165.49"/>
<text text-anchor="middle" x="106.26" y="-162.84" font-family="Times,serif" font-size="5.00">2.010</text>
</g>
<!-- 14199&#45;&gt;0 -->
<g id="edge46" class="edge">
<title>14199&#45;&gt;0</title>
<path fill="none" stroke="green" stroke-width="0.5" d="M115.02,-160.76C114.98,-160.75 114.93,-160.74 114.88,-160.72"/>
<polygon fill="green" stroke="green" stroke-width="0.5" points="125.29,-159.61 114.75,-160.69 123.66,-166.42 125.29,-159.61"/>
<text text-anchor="middle" x="109.33" y="-156.24" font-family="Times,serif" font-size="5.00">2.010</text>
</g>
</g>
</svg>
