<?xml version="1.0" encoding="UTF-8" standalone="no"?>
<!DOCTYPE svg PUBLIC "-//W3C//DTD SVG 1.1//EN"
 "http://www.w3.org/Graphics/SVG/1.1/DTD/svg11.dtd">
<!-- Generated by graphviz version 2.47.1 (20210417.1919)
 -->
<!-- Pages: 1 -->
<svg width="401pt" height="403pt"
 viewBox="0.00 0.00 400.59 402.99" xmlns="http://www.w3.org/2000/svg" xmlns:xlink="http://www.w3.org/1999/xlink">
<g id="graph0" class="graph" transform="scale(1 1) rotate(0) translate(4 398.99)">
<polygon fill="white" stroke="transparent" points="-4,4 -4,-398.99 396.59,-398.99 396.59,4 -4,4"/>
<!-- &#45;1 -->
<g id="node1" class="node">
<title>&#45;1</title>
<polygon fill="lightgray" stroke="black" points="166.73,-114.59 142.72,-114.59 142.72,-95.99 166.73,-95.99 166.73,-114.59"/>
<text text-anchor="middle" x="154.72" y="-102.59" font-family="Times,serif" font-size="9.00">&#45;1</text>
</g>
<!-- 0 -->
<g id="node5" class="node">
<title>0</title>
<ellipse fill="lightblue" stroke="black" cx="192.91" cy="-198.32" rx="14.49" ry="14.49"/>
<text text-anchor="middle" x="192.91" y="-195.62" font-family="Times,serif" font-size="9.00">0</text>
</g>
<!-- &#45;1&#45;&gt;0 -->
<g id="edge43" class="edge">
<title>&#45;1&#45;&gt;0</title>
<path fill="none" stroke="red" stroke-width="0.39" d="M158.67,-114.89C164.48,-129.05 175.51,-155.92 183.48,-175.35"/>
<polygon fill="red" stroke="red" stroke-width="0.39" points="180.3,-176.81 187.33,-184.73 186.77,-174.15 180.3,-176.81"/>
<text text-anchor="middle" x="177.53" y="-146.62" font-family="Times,serif" font-size="5.00">&#45;1.467</text>
</g>
<!-- 11587 -->
<g id="node6" class="node">
<title>11587</title>
<ellipse fill="white" stroke="black" cx="68.52" cy="-80.22" rx="27.45" ry="27.45"/>
<text text-anchor="middle" x="68.52" y="-77.52" font-family="Times,serif" font-size="9.00">11587</text>
</g>
<!-- &#45;1&#45;&gt;11587 -->
<g id="edge1" class="edge">
<title>&#45;1&#45;&gt;11587</title>
<path fill="none" stroke="green" stroke-width="0.3" d="M142.74,-101.8C132.84,-98.92 118.24,-94.68 104.61,-90.71"/>
<polygon fill="green" stroke="green" stroke-width="0.3" points="105.52,-87.33 94.94,-87.9 103.56,-94.05 105.52,-87.33"/>
<text text-anchor="middle" x="118.05" y="-97.76" font-family="Times,serif" font-size="5.00">1.000</text>
</g>
<!-- 24131 -->
<g id="node9" class="node">
<title>24131</title>
<ellipse fill="white" stroke="black" cx="125.95" cy="-37.49" rx="27.45" ry="27.45"/>
<text text-anchor="middle" x="125.95" y="-34.79" font-family="Times,serif" font-size="9.00">24131</text>
</g>
<!-- &#45;1&#45;&gt;24131 -->
<g id="edge4" class="edge">
<title>&#45;1&#45;&gt;24131</title>
<path fill="none" stroke="green" stroke-width="0.3" d="M150.72,-95.86C148.05,-89.56 144.34,-80.83 140.61,-72.05"/>
<polygon fill="green" stroke="green" stroke-width="0.3" points="143.74,-70.44 136.61,-62.61 137.29,-73.18 143.74,-70.44"/>
<text text-anchor="middle" x="140.04" y="-85.45" font-family="Times,serif" font-size="5.00">1.000</text>
</g>
<!-- 24132 -->
<g id="node10" class="node">
<title>24132</title>
<ellipse fill="white" stroke="black" cx="219.56" cy="-39.86" rx="27.45" ry="27.45"/>
<text text-anchor="middle" x="219.56" y="-37.16" font-family="Times,serif" font-size="9.00">24132</text>
</g>
<!-- &#45;1&#45;&gt;24132 -->
<g id="edge5" class="edge">
<title>&#45;1&#45;&gt;24132</title>
<path fill="none" stroke="green" stroke-width="0.3" d="M164.01,-95.91C171.56,-88.29 182.61,-77.15 192.86,-66.8"/>
<polygon fill="green" stroke="green" stroke-width="0.3" points="195.58,-69.03 200.13,-59.46 190.61,-64.1 195.58,-69.03"/>
<text text-anchor="middle" x="172.81" y="-76.86" font-family="Times,serif" font-size="5.00">1.000</text>
</g>
<!-- 24133 -->
<g id="node11" class="node">
<title>24133</title>
<ellipse fill="white" stroke="black" cx="174.31" cy="-27.22" rx="27.45" ry="27.45"/>
<text text-anchor="middle" x="174.31" y="-24.52" font-family="Times,serif" font-size="9.00">24133</text>
</g>
<!-- &#45;1&#45;&gt;24133 -->
<g id="edge6" class="edge">
<title>&#45;1&#45;&gt;24133</title>
<path fill="none" stroke="green" stroke-width="0.3" d="M157.13,-95.72C159.17,-87.57 162.24,-75.34 165.22,-63.46"/>
<polygon fill="green" stroke="green" stroke-width="0.3" points="168.64,-64.2 167.68,-53.65 161.85,-62.5 168.64,-64.2"/>
<text text-anchor="middle" x="155.55" y="-75.09" font-family="Times,serif" font-size="5.00">1.000</text>
</g>
<!-- 9850 -->
<g id="node15" class="node">
<title>9850</title>
<ellipse fill="white" stroke="black" cx="101.31" cy="-128.17" rx="24.08" ry="24.08"/>
<text text-anchor="middle" x="101.31" y="-125.47" font-family="Times,serif" font-size="9.00">9850</text>
</g>
<!-- &#45;1&#45;&gt;9850 -->
<g id="edge10" class="edge">
<title>&#45;1&#45;&gt;9850</title>
<path fill="none" stroke="green" stroke-width="0.3" d="M142.87,-110.37C139.87,-111.65 136.49,-113.1 133,-114.59"/>
<polygon fill="green" stroke="green" stroke-width="0.3" points="131.48,-111.44 123.66,-118.6 134.23,-117.87 131.48,-111.44"/>
<text text-anchor="middle" x="132.31" y="-113.98" font-family="Times,serif" font-size="5.00">1.000</text>
</g>
<!-- &#45;2 -->
<g id="node2" class="node">
<title>&#45;2</title>
<polygon fill="lightgray" stroke="black" points="164.37,-226.95 140.37,-226.95 140.37,-208.35 164.37,-208.35 164.37,-226.95"/>
<text text-anchor="middle" x="152.37" y="-214.95" font-family="Times,serif" font-size="9.00">&#45;2</text>
</g>
<!-- &#45;2&#45;&gt;0 -->
<g id="edge46" class="edge">
<title>&#45;2&#45;&gt;0</title>
<path fill="none" stroke="red" stroke-width="1.08" d="M164.32,-211.96C166.29,-211.01 168.39,-210.01 170.52,-209"/>
<polygon fill="red" stroke="red" stroke-width="1.08" points="172.26,-212.05 179.78,-204.58 169.24,-205.73 172.26,-212.05"/>
<text text-anchor="middle" x="170.65" y="-205.98" font-family="Times,serif" font-size="5.00">&#45;4.902</text>
</g>
<!-- 17868 -->
<g id="node12" class="node">
<title>17868</title>
<ellipse fill="white" stroke="black" cx="132.83" cy="-170.54" rx="27.45" ry="27.45"/>
<text text-anchor="middle" x="132.83" y="-167.84" font-family="Times,serif" font-size="9.00">17868</text>
</g>
<!-- &#45;2&#45;&gt;17868 -->
<g id="edge7" class="edge">
<title>&#45;2&#45;&gt;17868</title>
<path fill="none" stroke="green" stroke-width="0.31" d="M148.42,-208.12C148.05,-207.23 147.66,-206.3 147.26,-205.34"/>
<polygon fill="green" stroke="green" stroke-width="0.31" points="150.47,-203.94 143.41,-196.05 144.01,-206.63 150.47,-203.94"/>
<text text-anchor="middle" x="142.22" y="-202.23" font-family="Times,serif" font-size="5.00">1.066</text>
</g>
<!-- 24127 -->
<g id="node13" class="node">
<title>24127</title>
<ellipse fill="white" stroke="black" cx="107.11" cy="-202.95" rx="27.45" ry="27.45"/>
<text text-anchor="middle" x="107.11" y="-200.25" font-family="Times,serif" font-size="9.00">24127</text>
</g>
<!-- &#45;2&#45;&gt;24127 -->
<g id="edge8" class="edge">
<title>&#45;2&#45;&gt;24127</title>
<path fill="none" stroke="green" stroke-width="0.31" d="M140.48,-213.79C140.33,-213.74 140.19,-213.69 140.04,-213.65"/>
<polygon fill="green" stroke="green" stroke-width="0.31" points="143.71,-211.16 133.12,-211.4 141.55,-217.81 143.71,-211.16"/>
<text text-anchor="middle" x="140.26" y="-209.22" font-family="Times,serif" font-size="5.00">1.066</text>
</g>
<!-- 24128 -->
<g id="node14" class="node">
<title>24128</title>
<ellipse fill="white" stroke="black" cx="211.01" cy="-238.85" rx="27.45" ry="27.45"/>
<text text-anchor="middle" x="211.01" y="-236.15" font-family="Times,serif" font-size="9.00">24128</text>
</g>
<!-- &#45;2&#45;&gt;24128 -->
<g id="edge9" class="edge">
<title>&#45;2&#45;&gt;24128</title>
<path fill="none" stroke="green" stroke-width="0.31" d="M164.24,-221.94C167.63,-223.17 171.5,-224.57 175.54,-226.03"/>
<polygon fill="green" stroke="green" stroke-width="0.31" points="174.52,-229.38 185.11,-229.49 176.9,-222.8 174.52,-229.38"/>
<text text-anchor="middle" x="175.52" y="-225.48" font-family="Times,serif" font-size="5.00">1.066</text>
</g>
<!-- &#45;2&#45;&gt;9850 -->
<g id="edge11" class="edge">
<title>&#45;2&#45;&gt;9850</title>
<path fill="none" stroke="green" stroke-width="0.16" d="M146.91,-208.07C140.12,-196.17 128.21,-175.3 118.26,-157.88"/>
<polygon fill="green" stroke="green" stroke-width="0.16" points="121.27,-156.09 113.28,-149.14 115.19,-159.56 121.27,-156.09"/>
<text text-anchor="middle" x="126.96" y="-184.48" font-family="Times,serif" font-size="5.00">0.278</text>
</g>
<!-- 24123 -->
<g id="node16" class="node">
<title>24123</title>
<ellipse fill="white" stroke="black" cx="74.92" cy="-255.71" rx="27.45" ry="27.45"/>
<text text-anchor="middle" x="74.92" y="-253.01" font-family="Times,serif" font-size="9.00">24123</text>
</g>
<!-- &#45;2&#45;&gt;24123 -->
<g id="edge15" class="edge">
<title>&#45;2&#45;&gt;24123</title>
<path fill="none" stroke="green" stroke-width="0.16" d="M140.61,-223.43C132.14,-227.59 120.27,-233.43 108.94,-238.99"/>
<polygon fill="green" stroke="green" stroke-width="0.16" points="107.07,-236.01 99.64,-243.56 110.16,-242.3 107.07,-236.01"/>
<text text-anchor="middle" x="119.15" y="-232.71" font-family="Times,serif" font-size="5.00">0.278</text>
</g>
<!-- 24124 -->
<g id="node17" class="node">
<title>24124</title>
<ellipse fill="white" stroke="black" cx="250.18" cy="-273.39" rx="27.45" ry="27.45"/>
<text text-anchor="middle" x="250.18" y="-270.69" font-family="Times,serif" font-size="9.00">24124</text>
</g>
<!-- &#45;2&#45;&gt;24124 -->
<g id="edge19" class="edge">
<title>&#45;2&#45;&gt;24124</title>
<path fill="none" stroke="green" stroke-width="0.16" d="M164.36,-224.49C177.54,-232 199.27,-244.38 217.57,-254.81"/>
<polygon fill="green" stroke="green" stroke-width="0.16" points="216.07,-257.98 226.49,-259.89 219.53,-251.9 216.07,-257.98"/>
<text text-anchor="middle" x="185.34" y="-241.15" font-family="Times,serif" font-size="5.00">0.278</text>
</g>
<!-- &#45;3 -->
<g id="node3" class="node">
<title>&#45;3</title>
<polygon fill="lightgray" stroke="black" points="133.25,-290.76 109.25,-290.76 109.25,-272.16 133.25,-272.16 133.25,-290.76"/>
<text text-anchor="middle" x="121.25" y="-278.76" font-family="Times,serif" font-size="9.00">&#45;3</text>
</g>
<!-- &#45;3&#45;&gt;0 -->
<g id="edge44" class="edge">
<title>&#45;3&#45;&gt;0</title>
<path fill="none" stroke="red" stroke-width="0.39" d="M129.47,-271.92C140.97,-258.58 162.1,-234.07 176.8,-217.01"/>
<polygon fill="red" stroke="red" stroke-width="0.39" points="179.55,-219.18 183.43,-209.32 174.25,-214.61 179.55,-219.18"/>
<text text-anchor="middle" x="146.68" y="-245.97" font-family="Times,serif" font-size="5.00">&#45;1.467</text>
</g>
<!-- 24125 -->
<g id="node7" class="node">
<title>24125</title>
<ellipse fill="white" stroke="black" cx="27.22" cy="-277.45" rx="27.45" ry="27.45"/>
<text text-anchor="middle" x="27.22" y="-274.75" font-family="Times,serif" font-size="9.00">24125</text>
</g>
<!-- &#45;3&#45;&gt;24125 -->
<g id="edge2" class="edge">
<title>&#45;3&#45;&gt;24125</title>
<path fill="none" stroke="green" stroke-width="0.3" d="M109.34,-280.95C98.15,-280.47 80.8,-279.73 64.93,-279.05"/>
<polygon fill="green" stroke="green" stroke-width="0.3" points="64.93,-275.55 54.79,-278.62 64.63,-282.55 64.93,-275.55"/>
<text text-anchor="middle" x="92.76" y="-281.5" font-family="Times,serif" font-size="5.00">1.000</text>
</g>
<!-- &#45;3&#45;&gt;24123 -->
<g id="edge14" class="edge">
<title>&#45;3&#45;&gt;24123</title>
<path fill="none" stroke="green" stroke-width="0.3" d="M109.08,-274.69C108.69,-274.48 108.3,-274.26 107.9,-274.04"/>
<polygon fill="green" stroke="green" stroke-width="0.3" points="109.47,-270.91 99.03,-269.11 106.07,-277.03 109.47,-270.91"/>
<text text-anchor="middle" x="108.49" y="-269.87" font-family="Times,serif" font-size="5.00">1.000</text>
</g>
<!-- 24134 -->
<g id="node18" class="node">
<title>24134</title>
<ellipse fill="white" stroke="black" cx="157.11" cy="-367.76" rx="27.45" ry="27.45"/>
<text text-anchor="middle" x="157.11" y="-365.06" font-family="Times,serif" font-size="9.00">24134</text>
</g>
<!-- &#45;3&#45;&gt;24134 -->
<g id="edge22" class="edge">
<title>&#45;3&#45;&gt;24134</title>
<path fill="none" stroke="green" stroke-width="0.3" d="M125.23,-291.02C129.41,-301.1 136.26,-317.58 142.54,-332.69"/>
<polygon fill="green" stroke="green" stroke-width="0.3" points="139.48,-334.45 146.55,-342.34 145.94,-331.77 139.48,-334.45"/>
<text text-anchor="middle" x="128.26" y="-313.36" font-family="Times,serif" font-size="5.00">1.000</text>
</g>
<!-- 24135 -->
<g id="node19" class="node">
<title>24135</title>
<ellipse fill="white" stroke="black" cx="70.14" cy="-336.15" rx="27.45" ry="27.45"/>
<text text-anchor="middle" x="70.14" y="-333.45" font-family="Times,serif" font-size="9.00">24135</text>
</g>
<!-- &#45;3&#45;&gt;24135 -->
<g id="edge23" class="edge">
<title>&#45;3&#45;&gt;24135</title>
<path fill="none" stroke="green" stroke-width="0.3" d="M112.35,-290.98C107.74,-295.91 101.86,-302.21 95.96,-308.52"/>
<polygon fill="green" stroke="green" stroke-width="0.3" points="93.37,-306.17 89.1,-315.86 98.48,-310.95 93.37,-306.17"/>
<text text-anchor="middle" x="98.53" y="-301.25" font-family="Times,serif" font-size="5.00">1.000</text>
</g>
<!-- 24136 -->
<g id="node20" class="node">
<title>24136</title>
<ellipse fill="white" stroke="black" cx="111.03" cy="-362.93" rx="27.45" ry="27.45"/>
<text text-anchor="middle" x="111.03" y="-360.23" font-family="Times,serif" font-size="9.00">24136</text>
</g>
<!-- &#45;3&#45;&gt;24136 -->
<g id="edge24" class="edge">
<title>&#45;3&#45;&gt;24136</title>
<path fill="none" stroke="green" stroke-width="0.3" d="M120.08,-290.8C119,-299.38 117.34,-312.66 115.73,-325.5"/>
<polygon fill="green" stroke="green" stroke-width="0.3" points="112.23,-325.25 114.46,-335.61 119.18,-326.12 112.23,-325.25"/>
<text text-anchor="middle" x="112.28" y="-309.65" font-family="Times,serif" font-size="5.00">1.000</text>
</g>
<!-- &#45;4 -->
<g id="node4" class="node">
<title>&#45;4</title>
<polygon fill="lightgray" stroke="black" points="300.18,-240.96 276.18,-240.96 276.18,-222.35 300.18,-222.35 300.18,-240.96"/>
<text text-anchor="middle" x="288.18" y="-228.95" font-family="Times,serif" font-size="9.00">&#45;4</text>
</g>
<!-- &#45;4&#45;&gt;0 -->
<g id="edge45" class="edge">
<title>&#45;4&#45;&gt;0</title>
<path fill="none" stroke="red" stroke-width="0.39" d="M276.12,-227.43C261.16,-222.2 235.34,-213.17 216.42,-206.55"/>
<polygon fill="red" stroke="red" stroke-width="0.39" points="217.32,-203.15 206.73,-203.16 215.01,-209.76 217.32,-203.15"/>
<text text-anchor="middle" x="246.27" y="-212.49" font-family="Times,serif" font-size="5.00">&#45;1.467</text>
</g>
<!-- 24126 -->
<g id="node8" class="node">
<title>24126</title>
<ellipse fill="white" stroke="black" cx="307.81" cy="-312.74" rx="27.45" ry="27.45"/>
<text text-anchor="middle" x="307.81" y="-310.04" font-family="Times,serif" font-size="9.00">24126</text>
</g>
<!-- &#45;4&#45;&gt;24126 -->
<g id="edge3" class="edge">
<title>&#45;4&#45;&gt;24126</title>
<path fill="none" stroke="green" stroke-width="0.3" d="M290.43,-240.96C292.55,-249.71 295.86,-263.39 299.03,-276.47"/>
<polygon fill="green" stroke="green" stroke-width="0.3" points="295.64,-277.36 301.4,-286.26 302.45,-275.72 295.64,-277.36"/>
<text text-anchor="middle" x="289.11" y="-260.21" font-family="Times,serif" font-size="5.00">1.000</text>
</g>
<!-- &#45;4&#45;&gt;24124 -->
<g id="edge18" class="edge">
<title>&#45;4&#45;&gt;24124</title>
<path fill="none" stroke="green" stroke-width="0.3" d="M279.37,-241.33C278.15,-242.67 276.86,-244.09 275.51,-245.57"/>
<polygon fill="green" stroke="green" stroke-width="0.3" points="272.69,-243.48 268.54,-253.23 277.86,-248.19 272.69,-243.48"/>
<text text-anchor="middle" x="283.07" y="-244.95" font-family="Times,serif" font-size="5.00">1.000</text>
</g>
<!-- 24137 -->
<g id="node21" class="node">
<title>24137</title>
<ellipse fill="white" stroke="black" cx="365.37" cy="-211.97" rx="27.45" ry="27.45"/>
<text text-anchor="middle" x="365.37" y="-209.27" font-family="Times,serif" font-size="9.00">24137</text>
</g>
<!-- &#45;4&#45;&gt;24137 -->
<g id="edge25" class="edge">
<title>&#45;4&#45;&gt;24137</title>
<path fill="none" stroke="green" stroke-width="0.3" d="M300.24,-228.58C308.02,-226.6 318.58,-223.9 328.93,-221.26"/>
<polygon fill="green" stroke="green" stroke-width="0.3" points="329.87,-224.64 338.7,-218.77 328.14,-217.85 329.87,-224.64"/>
<text text-anchor="middle" x="320.21" y="-226.42" font-family="Times,serif" font-size="5.00">1.000</text>
</g>
<!-- 24138 -->
<g id="node22" class="node">
<title>24138</title>
<ellipse fill="white" stroke="black" cx="351.47" cy="-165.62" rx="27.45" ry="27.45"/>
<text text-anchor="middle" x="351.47" y="-162.92" font-family="Times,serif" font-size="9.00">24138</text>
</g>
<!-- &#45;4&#45;&gt;24138 -->
<g id="edge26" class="edge">
<title>&#45;4&#45;&gt;24138</title>
<path fill="none" stroke="green" stroke-width="0.3" d="M297.25,-222.19C304.62,-214.5 315.4,-203.25 325.41,-192.81"/>
<polygon fill="green" stroke="green" stroke-width="0.3" points="328.11,-195.05 332.5,-185.41 323.06,-190.21 328.11,-195.05"/>
<text text-anchor="middle" x="316.95" y="-209" font-family="Times,serif" font-size="5.00">1.000</text>
</g>
<!-- 24139 -->
<g id="node23" class="node">
<title>24139</title>
<ellipse fill="white" stroke="black" cx="355.3" cy="-261.78" rx="27.45" ry="27.45"/>
<text text-anchor="middle" x="355.3" y="-259.08" font-family="Times,serif" font-size="9.00">24139</text>
</g>
<!-- &#45;4&#45;&gt;24139 -->
<g id="edge27" class="edge">
<title>&#45;4&#45;&gt;24139</title>
<path fill="none" stroke="green" stroke-width="0.3" d="M300.18,-237.04C306.07,-239.68 313.49,-243.01 320.96,-246.37"/>
<polygon fill="green" stroke="green" stroke-width="0.3" points="319.78,-249.68 330.34,-250.58 322.65,-243.29 319.78,-249.68"/>
<text text-anchor="middle" x="304.94" y="-243.2" font-family="Times,serif" font-size="5.00">1.000</text>
</g>
<!-- 11587&#45;&gt;9850 -->
<g id="edge12" class="edge">
<title>11587&#45;&gt;9850</title>
<path fill="none" stroke="green" stroke-width="0.25" d="M83.96,-102.79C84.04,-102.91 84.12,-103.02 84.19,-103.14"/>
<polygon fill="green" stroke="green" stroke-width="0.25" points="79.2,-102.04 87.74,-108.32 84.98,-98.09 79.2,-102.04"/>
<text text-anchor="middle" x="89.7" y="-98.46" font-family="Times,serif" font-size="5.00">0.729</text>
</g>
<!-- 24125&#45;&gt;24123 -->
<g id="edge16" class="edge">
<title>24125&#45;&gt;24123</title>
<path fill="none" stroke="green" stroke-width="0.25" d="M52.19,-266.07C52.24,-266.05 52.28,-266.03 52.33,-266.01"/>
<polygon fill="green" stroke="green" stroke-width="0.25" points="44.81,-273.28 52.46,-265.95 41.91,-266.91 44.81,-273.28"/>
<text text-anchor="middle" x="46.63" y="-267.54" font-family="Times,serif" font-size="5.00">0.729</text>
</g>
<!-- 24126&#45;&gt;24124 -->
<g id="edge20" class="edge">
<title>24126&#45;&gt;24124</title>
<path fill="none" stroke="green" stroke-width="0.25" d="M285.03,-297.19C283.77,-296.33 282.5,-295.46 281.22,-294.59"/>
<polygon fill="green" stroke="green" stroke-width="0.25" points="283.02,-291.58 272.79,-288.83 279.08,-297.36 283.02,-291.58"/>
<text text-anchor="middle" x="277.5" y="-297.39" font-family="Times,serif" font-size="5.00">0.729</text>
</g>
<!-- 1379 -->
<g id="node24" class="node">
<title>1379</title>
<ellipse fill="white" stroke="black" cx="181.21" cy="-106.92" rx="24.08" ry="24.08"/>
<ellipse fill="none" stroke="black" cx="181.21" cy="-106.92" rx="28.08" ry="28.08"/>
<text text-anchor="middle" x="181.21" y="-104.22" font-family="Times,serif" font-size="9.00">1379</text>
</g>
<!-- 24131&#45;&gt;1379 -->
<g id="edge28" class="edge">
<title>24131&#45;&gt;1379</title>
<path fill="none" stroke="green" stroke-width="0.97" d="M143.13,-59.08C147.57,-64.66 152.44,-70.77 157.17,-76.71"/>
<polygon fill="green" stroke="green" stroke-width="0.97" points="154.5,-78.98 163.47,-84.63 159.98,-74.62 154.5,-78.98"/>
<text text-anchor="middle" x="144.52" y="-69.39" font-family="Times,serif" font-size="5.00">4.359</text>
</g>
<!-- 24132&#45;&gt;1379 -->
<g id="edge29" class="edge">
<title>24132&#45;&gt;1379</title>
<path fill="none" stroke="red" stroke-width="0.1" d="M205.93,-63.69C204.1,-66.89 202.2,-70.22 200.3,-73.54"/>
<polygon fill="red" stroke="red" stroke-width="0.1" points="197.24,-71.84 195.32,-82.26 203.32,-75.31 197.24,-71.84"/>
<text text-anchor="middle" x="197.49" y="-70.12" font-family="Times,serif" font-size="5.00">0.000</text>
</g>
<!-- 24133&#45;&gt;1379 -->
<g id="edge30" class="edge">
<title>24133&#45;&gt;1379</title>
<path fill="none" stroke="red" stroke-width="0.97" d="M176.68,-54.65C177.08,-59.18 177.49,-63.95 177.9,-68.68"/>
<polygon fill="red" stroke="red" stroke-width="0.97" points="174.44,-69.24 178.79,-78.9 181.41,-68.63 174.44,-69.24"/>
<text text-anchor="middle" x="170.84" y="-63.17" font-family="Times,serif" font-size="5.00">&#45;4.359</text>
</g>
<!-- 17868&#45;&gt;0 -->
<g id="edge50" class="edge">
<title>17868&#45;&gt;0</title>
<path fill="none" stroke="green" stroke-width="1.1" d="M157.61,-182C161.83,-183.95 166.19,-185.97 170.35,-187.89"/>
<polygon fill="green" stroke="green" stroke-width="1.1" points="168.97,-191.11 179.52,-192.13 171.91,-184.75 168.97,-191.11"/>
<text text-anchor="middle" x="169.61" y="-186.45" font-family="Times,serif" font-size="5.00">4.979</text>
</g>
<!-- 17868&#45;&gt;9850 -->
<g id="edge13" class="edge">
<title>17868&#45;&gt;9850</title>
<path fill="none" stroke="green" stroke-width="0.83" d="M116.33,-148.36C116.27,-148.28 116.21,-148.2 116.15,-148.12"/>
<polygon fill="green" stroke="green" stroke-width="0.83" points="124.75,-153.82 115.97,-147.88 119.14,-158 124.75,-153.82"/>
<text text-anchor="middle" x="121.87" y="-149.74" font-family="Times,serif" font-size="5.00">3.665</text>
</g>
<!-- 24127&#45;&gt;0 -->
<g id="edge51" class="edge">
<title>24127&#45;&gt;0</title>
<path fill="none" stroke="green" stroke-width="1.1" d="M134.73,-201.46C145.49,-200.88 157.73,-200.22 168.2,-199.65"/>
<polygon fill="green" stroke="green" stroke-width="1.1" points="168.53,-203.14 178.33,-199.11 168.15,-196.15 168.53,-203.14"/>
<text text-anchor="middle" x="157.09" y="-202.06" font-family="Times,serif" font-size="5.00">4.979</text>
</g>
<!-- 24127&#45;&gt;24123 -->
<g id="edge17" class="edge">
<title>24127&#45;&gt;24123</title>
<path fill="none" stroke="green" stroke-width="0.83" d="M92.9,-226.24C92.82,-226.37 92.74,-226.49 92.67,-226.62"/>
<polygon fill="green" stroke="green" stroke-width="0.83" points="91.46,-221.87 89.24,-232.23 97.44,-225.52 91.46,-221.87"/>
<text text-anchor="middle" x="87.16" y="-221.93" font-family="Times,serif" font-size="5.00">3.665</text>
</g>
<!-- 24128&#45;&gt;0 -->
<g id="edge52" class="edge">
<title>24128&#45;&gt;0</title>
<path fill="none" stroke="green" stroke-width="1.1" d="M199.86,-213.87C199.81,-213.78 199.77,-213.68 199.73,-213.58"/>
<polygon fill="green" stroke="green" stroke-width="1.1" points="206.1,-219.27 198.83,-211.56 199.71,-222.12 206.1,-219.27"/>
<text text-anchor="middle" x="205.42" y="-209.23" font-family="Times,serif" font-size="5.00">4.979</text>
</g>
<!-- 24128&#45;&gt;24124 -->
<g id="edge21" class="edge">
<title>24128&#45;&gt;24124</title>
<path fill="none" stroke="green" stroke-width="0.83" d="M231.51,-256.93C231.59,-257 231.66,-257.06 231.74,-257.13"/>
<polygon fill="green" stroke="green" stroke-width="0.83" points="222.14,-253.33 231.96,-257.32 226.77,-248.08 222.14,-253.33"/>
<text text-anchor="middle" x="237.25" y="-258.53" font-family="Times,serif" font-size="5.00">3.665</text>
</g>
<!-- 9850&#45;&gt;1379 -->
<g id="edge31" class="edge">
<title>9850&#45;&gt;1379</title>
<path fill="none" stroke="green" stroke-width="0.17" stroke-dasharray="1,5" d="M124.85,-121.91C130.83,-120.32 137.41,-118.57 143.89,-116.84"/>
<polygon fill="green" stroke="green" stroke-width="0.17" points="145.14,-120.13 153.9,-114.18 143.34,-113.37 145.14,-120.13"/>
<text text-anchor="middle" x="140" y="-120.88" font-family="Times,serif" font-size="5.00">0.333</text>
</g>
<!-- 24121 -->
<g id="node25" class="node">
<title>24121</title>
<ellipse fill="white" stroke="black" cx="147.29" cy="-290.8" rx="27.42" ry="27.42"/>
<ellipse fill="none" stroke="black" cx="147.29" cy="-290.8" rx="31.45" ry="31.45"/>
<text text-anchor="middle" x="147.29" y="-288.1" font-family="Times,serif" font-size="9.00">24121</text>
</g>
<!-- 24123&#45;&gt;24121 -->
<g id="edge35" class="edge">
<title>24123&#45;&gt;24121</title>
<path fill="none" stroke="green" stroke-width="0.17" stroke-dasharray="1,5" d="M99.42,-267.59C102.78,-269.22 106.28,-270.92 109.8,-272.62"/>
<polygon fill="green" stroke="green" stroke-width="0.17" points="108.54,-275.9 119.07,-277.12 111.6,-269.6 108.54,-275.9"/>
<text text-anchor="middle" x="110.24" y="-265.61" font-family="Times,serif" font-size="5.00">0.333</text>
</g>
<!-- 24122 -->
<g id="node26" class="node">
<title>24122</title>
<ellipse fill="white" stroke="black" cx="285.64" cy="-205.05" rx="27.42" ry="27.42"/>
<ellipse fill="none" stroke="black" cx="285.64" cy="-205.05" rx="31.45" ry="31.45"/>
<text text-anchor="middle" x="285.64" y="-202.35" font-family="Times,serif" font-size="9.00">24122</text>
</g>
<!-- 24124&#45;&gt;24122 -->
<g id="edge39" class="edge">
<title>24124&#45;&gt;24122</title>
<path fill="none" stroke="green" stroke-width="0.17" stroke-dasharray="1,5" d="M262.78,-249.1C263.97,-246.82 265.18,-244.47 266.41,-242.11"/>
<polygon fill="green" stroke="green" stroke-width="0.17" points="269.64,-243.48 271.14,-232.99 263.43,-240.25 269.64,-243.48"/>
<text text-anchor="middle" x="258.97" y="-241.11" font-family="Times,serif" font-size="5.00">0.333</text>
</g>
<!-- 24134&#45;&gt;24121 -->
<g id="edge32" class="edge">
<title>24134&#45;&gt;24121</title>
<path fill="none" stroke="green" stroke-width="0.97" d="M153.62,-340.41C153.28,-337.71 152.92,-334.93 152.56,-332.12"/>
<polygon fill="green" stroke="green" stroke-width="0.97" points="156.01,-331.47 151.27,-322 149.06,-332.36 156.01,-331.47"/>
<text text-anchor="middle" x="147.47" y="-331.77" font-family="Times,serif" font-size="5.00">4.359</text>
</g>
<!-- 24135&#45;&gt;24121 -->
<g id="edge33" class="edge">
<title>24135&#45;&gt;24121</title>
<path fill="none" stroke="red" stroke-width="0.1" d="M93.71,-322.29C99.36,-318.97 105.53,-315.34 111.6,-311.77"/>
<polygon fill="red" stroke="red" stroke-width="0.1" points="113.51,-314.71 120.36,-306.63 109.96,-308.68 113.51,-314.71"/>
<text text-anchor="middle" x="108.28" y="-318.53" font-family="Times,serif" font-size="5.00">0.000</text>
</g>
<!-- 24136&#45;&gt;24121 -->
<g id="edge34" class="edge">
<title>24136&#45;&gt;24121</title>
<path fill="none" stroke="red" stroke-width="0.97" d="M123.31,-338.51C124.99,-335.16 126.74,-331.67 128.51,-328.16"/>
<polygon fill="red" stroke="red" stroke-width="0.97" points="131.79,-329.43 133.15,-318.92 125.53,-326.28 131.79,-329.43"/>
<text text-anchor="middle" x="119.45" y="-328.83" font-family="Times,serif" font-size="5.00">&#45;4.359</text>
</g>
<!-- 24137&#45;&gt;24122 -->
<g id="edge36" class="edge">
<title>24137&#45;&gt;24122</title>
<path fill="none" stroke="green" stroke-width="0.97" d="M337.93,-209.59C334.45,-209.29 330.82,-208.97 327.18,-208.66"/>
<polygon fill="green" stroke="green" stroke-width="0.97" points="327.23,-205.15 316.96,-207.77 326.62,-212.12 327.23,-205.15"/>
<text text-anchor="middle" x="332.55" y="-204.62" font-family="Times,serif" font-size="5.00">4.359</text>
</g>
<!-- 24138&#45;&gt;24122 -->
<g id="edge37" class="edge">
<title>24138&#45;&gt;24122</title>
<path fill="none" stroke="red" stroke-width="0.1" d="M328.07,-179.63C325.87,-180.95 323.61,-182.3 321.33,-183.67"/>
<polygon fill="red" stroke="red" stroke-width="0.1" points="319.33,-180.79 312.55,-188.93 322.93,-186.79 319.33,-180.79"/>
<text text-anchor="middle" x="319.08" y="-183.15" font-family="Times,serif" font-size="5.00">0.000</text>
</g>
<!-- 24139&#45;&gt;24122 -->
<g id="edge38" class="edge">
<title>24139&#45;&gt;24122</title>
<path fill="none" stroke="red" stroke-width="0.97" d="M334.02,-244.45C328.96,-240.33 323.46,-235.85 318.03,-231.43"/>
<polygon fill="red" stroke="red" stroke-width="0.97" points="320.17,-228.66 310.2,-225.05 315.75,-234.08 320.17,-228.66"/>
<text text-anchor="middle" x="319.57" y="-239.44" font-family="Times,serif" font-size="5.00">&#45;4.359</text>
</g>
<!-- 1379&#45;&gt;0 -->
<g id="edge47" class="edge">
<title>1379&#45;&gt;0</title>
<path fill="none" stroke="red" stroke-width="0.77" d="M184.79,-134.84C186.37,-147.22 188.22,-161.66 189.75,-173.64"/>
<polygon fill="red" stroke="red" stroke-width="0.77" points="186.31,-174.34 191.06,-183.82 193.26,-173.46 186.31,-174.34"/>
<text text-anchor="middle" x="180.81" y="-155.74" font-family="Times,serif" font-size="5.00">&#45;3.347</text>
</g>
<!-- 24120 -->
<g id="node27" class="node">
<title>24120</title>
<ellipse fill="white" stroke="black" cx="225.99" cy="-131.92" rx="27.45" ry="27.45"/>
<text text-anchor="middle" x="225.99" y="-129.22" font-family="Times,serif" font-size="9.00">24120</text>
</g>
<!-- 1379&#45;&gt;24120 -->
<g id="edge40" class="edge">
<title>1379&#45;&gt;24120</title>
<path fill="none" stroke="green" stroke-width="0.3" d="M205.96,-120.73C206.04,-120.78 206.12,-120.82 206.2,-120.87"/>
<polygon fill="green" stroke="green" stroke-width="0.3" points="196,-119.18 206.44,-121 199.42,-113.07 196,-119.18"/>
<text text-anchor="middle" x="200.45" y="-122.3" font-family="Times,serif" font-size="5.00">1.000</text>
</g>
<!-- 24121&#45;&gt;0 -->
<g id="edge48" class="edge">
<title>24121&#45;&gt;0</title>
<path fill="none" stroke="red" stroke-width="0.1" d="M161.22,-262.55C167.84,-249.14 175.64,-233.33 181.84,-220.76"/>
<polygon fill="red" stroke="red" stroke-width="0.1" points="185.14,-221.99 186.42,-211.47 178.86,-218.89 185.14,-221.99"/>
<text text-anchor="middle" x="165.91" y="-243.15" font-family="Times,serif" font-size="5.00">0.000</text>
</g>
<!-- 24129 -->
<g id="node28" class="node">
<title>24129</title>
<ellipse fill="white" stroke="black" cx="200.64" cy="-282.74" rx="27.45" ry="27.45"/>
<text text-anchor="middle" x="200.64" y="-280.04" font-family="Times,serif" font-size="9.00">24129</text>
</g>
<!-- 24121&#45;&gt;24129 -->
<g id="edge41" class="edge">
<title>24121&#45;&gt;24129</title>
<path fill="none" stroke="green" stroke-width="0.3" d="M178.32,-286.11C178.37,-286.1 178.41,-286.1 178.46,-286.09"/>
<polygon fill="green" stroke="green" stroke-width="0.3" points="169.23,-291.03 178.6,-286.07 168.19,-284.11 169.23,-291.03"/>
<text text-anchor="middle" x="184.02" y="-287.6" font-family="Times,serif" font-size="5.00">1.000</text>
</g>
<!-- 24122&#45;&gt;0 -->
<g id="edge49" class="edge">
<title>24122&#45;&gt;0</title>
<path fill="none" stroke="green" stroke-width="0.77" d="M254.24,-202.77C242.22,-201.9 228.69,-200.92 217.4,-200.1"/>
<polygon fill="green" stroke="green" stroke-width="0.77" points="217.62,-196.6 207.39,-199.37 217.11,-203.59 217.62,-196.6"/>
<text text-anchor="middle" x="230.2" y="-202.93" font-family="Times,serif" font-size="5.00">3.347</text>
</g>
<!-- 24130 -->
<g id="node29" class="node">
<title>24130</title>
<ellipse fill="white" stroke="black" cx="259.39" cy="-161.73" rx="27.45" ry="27.45"/>
<text text-anchor="middle" x="259.39" y="-159.03" font-family="Times,serif" font-size="9.00">24130</text>
</g>
<!-- 24122&#45;&gt;24130 -->
<g id="edge42" class="edge">
<title>24122&#45;&gt;24130</title>
<path fill="none" stroke="green" stroke-width="0.3" d="M269.17,-177.86C269.12,-177.79 269.08,-177.73 269.04,-177.66"/>
<polygon fill="green" stroke="green" stroke-width="0.3" points="277.1,-184.19 268.92,-177.46 271.11,-187.82 277.1,-184.19"/>
<text text-anchor="middle" x="274.73" y="-179.26" font-family="Times,serif" font-size="5.00">1.000</text>
</g>
<!-- 24120&#45;&gt;0 -->
<g id="edge53" class="edge">
<title>24120&#45;&gt;0</title>
<path fill="none" stroke="green" stroke-width="0.77" d="M213.67,-156.64C210.49,-163.03 207.08,-169.87 203.97,-176.12"/>
<polygon fill="green" stroke="green" stroke-width="0.77" points="200.72,-174.8 199.39,-185.31 206.98,-177.92 200.72,-174.8"/>
<text text-anchor="middle" x="203.2" y="-167.88" font-family="Times,serif" font-size="5.00">3.347</text>
</g>
<!-- 24129&#45;&gt;0 -->
<g id="edge54" class="edge">
<title>24129&#45;&gt;0</title>
<path fill="none" stroke="green" stroke-width="0.77" d="M198.15,-255.56C197.21,-245.23 196.13,-233.51 195.21,-223.38"/>
<polygon fill="green" stroke="green" stroke-width="0.77" points="198.67,-222.79 194.27,-213.15 191.7,-223.43 198.67,-222.79"/>
<text text-anchor="middle" x="191.05" y="-234.97" font-family="Times,serif" font-size="5.00">3.347</text>
</g>
<!-- 24130&#45;&gt;0 -->
<g id="edge55" class="edge">
<title>24130&#45;&gt;0</title>
<path fill="none" stroke="green" stroke-width="0.77" d="M235.39,-174.94C228.7,-178.63 221.45,-182.61 214.88,-186.23"/>
<polygon fill="green" stroke="green" stroke-width="0.77" points="212.94,-183.3 205.87,-191.19 216.32,-189.44 212.94,-183.3"/>
<text text-anchor="middle" x="219.51" y="-182.09" font-family="Times,serif" font-size="5.00">3.347</text>
</g>
</g>
</svg>
