<?xml version="1.0" encoding="UTF-8" standalone="no"?>
<!DOCTYPE svg PUBLIC "-//W3C//DTD SVG 1.1//EN"
 "http://www.w3.org/Graphics/SVG/1.1/DTD/svg11.dtd">
<!-- Generated by graphviz version 2.47.1 (20210417.1919)
 -->
<!-- Pages: 1 -->
<svg width="472pt" height="516pt"
 viewBox="0.00 0.00 471.86 516.20" xmlns="http://www.w3.org/2000/svg" xmlns:xlink="http://www.w3.org/1999/xlink">
<g id="graph0" class="graph" transform="scale(1 1) rotate(0) translate(4 512.2)">
<polygon fill="white" stroke="transparent" points="-4,4 -4,-512.2 467.86,-512.2 467.86,4 -4,4"/>
<!-- &#45;1 -->
<g id="node1" class="node">
<title>&#45;1</title>
<polygon fill="lightgray" stroke="black" points="462.22,-99.99 438.21,-99.99 438.21,-81.39 462.22,-81.39 462.22,-99.99"/>
<text text-anchor="middle" x="450.21" y="-87.99" font-family="Times,serif" font-size="9.00">&#45;1</text>
</g>
<!-- 1537 -->
<g id="node6" class="node">
<title>1537</title>
<ellipse fill="white" stroke="black" cx="378.73" cy="-139.36" rx="24.08" ry="24.08"/>
<ellipse fill="none" stroke="black" cx="378.73" cy="-139.36" rx="28.08" ry="28.08"/>
<text text-anchor="middle" x="378.73" y="-136.66" font-family="Times,serif" font-size="9.00">1537</text>
</g>
<!-- &#45;1&#45;&gt;1537 -->
<g id="edge1" class="edge">
<title>&#45;1&#45;&gt;1537</title>
<path fill="none" stroke="green" stroke-width="0.3" d="M438.41,-98.73C430.8,-103.91 420.52,-110.91 410.64,-117.64"/>
<polygon fill="green" stroke="green" stroke-width="0.3" points="408.42,-114.91 402.13,-123.43 412.36,-120.7 408.42,-114.91"/>
<text text-anchor="middle" x="430.15" y="-109.68" font-family="Times,serif" font-size="5.00">1.000</text>
</g>
<!-- 1698 -->
<g id="node9" class="node">
<title>1698</title>
<ellipse fill="white" stroke="black" cx="402.54" cy="-24.04" rx="24.08" ry="24.08"/>
<text text-anchor="middle" x="402.54" y="-21.34" font-family="Times,serif" font-size="9.00">1698</text>
</g>
<!-- &#45;1&#45;&gt;1698 -->
<g id="edge4" class="edge">
<title>&#45;1&#45;&gt;1698</title>
<path fill="none" stroke="green" stroke-width="0.3" d="M443.38,-81.14C437.95,-73.55 430.07,-62.52 422.67,-52.18"/>
<polygon fill="green" stroke="green" stroke-width="0.3" points="425.3,-49.84 416.63,-43.74 419.6,-53.91 425.3,-49.84"/>
<text text-anchor="middle" x="427.4" y="-68.16" font-family="Times,serif" font-size="5.00">1.000</text>
</g>
<!-- 1709 -->
<g id="node12" class="node">
<title>1709</title>
<ellipse fill="white" stroke="black" cx="371.51" cy="-90.02" rx="24.08" ry="24.08"/>
<text text-anchor="middle" x="371.51" y="-87.32" font-family="Times,serif" font-size="9.00">1709</text>
</g>
<!-- &#45;1&#45;&gt;1709 -->
<g id="edge7" class="edge">
<title>&#45;1&#45;&gt;1709</title>
<path fill="none" stroke="green" stroke-width="0.3" d="M438.26,-90.59C429.63,-90.52 417.52,-90.41 405.98,-90.31"/>
<polygon fill="green" stroke="green" stroke-width="0.3" points="405.68,-86.81 395.65,-90.23 405.62,-93.81 405.68,-86.81"/>
<text text-anchor="middle" x="427.74" y="-91.95" font-family="Times,serif" font-size="5.00">1.000</text>
</g>
<!-- 1710 -->
<g id="node13" class="node">
<title>1710</title>
<ellipse fill="white" stroke="black" cx="426" cy="-179.56" rx="24.08" ry="24.08"/>
<text text-anchor="middle" x="426" y="-176.86" font-family="Times,serif" font-size="9.00">1710</text>
</g>
<!-- &#45;1&#45;&gt;1710 -->
<g id="edge8" class="edge">
<title>&#45;1&#45;&gt;1710</title>
<path fill="none" stroke="green" stroke-width="0.3" d="M447.62,-100.2C444.63,-111.18 439.55,-129.83 435.06,-146.3"/>
<polygon fill="green" stroke="green" stroke-width="0.3" points="431.62,-145.61 432.37,-156.18 438.38,-147.45 431.62,-145.61"/>
<text text-anchor="middle" x="435.72" y="-124.75" font-family="Times,serif" font-size="5.00">1.000</text>
</g>
<!-- 1711 -->
<g id="node14" class="node">
<title>1711</title>
<ellipse fill="white" stroke="black" cx="439.81" cy="-158.5" rx="24.08" ry="24.08"/>
<text text-anchor="middle" x="439.81" y="-155.8" font-family="Times,serif" font-size="9.00">1711</text>
</g>
<!-- &#45;1&#45;&gt;1711 -->
<g id="edge9" class="edge">
<title>&#45;1&#45;&gt;1711</title>
<path fill="none" stroke="green" stroke-width="0.3" d="M448.77,-100.12C447.78,-106.57 446.4,-115.55 445.02,-124.54"/>
<polygon fill="green" stroke="green" stroke-width="0.3" points="441.54,-124.14 443.49,-134.56 448.46,-125.2 441.54,-124.14"/>
<text text-anchor="middle" x="441.27" y="-113.83" font-family="Times,serif" font-size="5.00">1.000</text>
</g>
<!-- &#45;2 -->
<g id="node2" class="node">
<title>&#45;2</title>
<polygon fill="lightgray" stroke="black" points="281.24,-226.14 257.24,-226.14 257.24,-207.54 281.24,-207.54 281.24,-226.14"/>
<text text-anchor="middle" x="269.24" y="-214.14" font-family="Times,serif" font-size="9.00">&#45;2</text>
</g>
<!-- 1626 -->
<g id="node15" class="node">
<title>1626</title>
<ellipse fill="white" stroke="black" cx="248.3" cy="-125.42" rx="24.08" ry="24.08"/>
<text text-anchor="middle" x="248.3" y="-122.72" font-family="Times,serif" font-size="9.00">1626</text>
</g>
<!-- &#45;2&#45;&gt;1626 -->
<g id="edge10" class="edge">
<title>&#45;2&#45;&gt;1626</title>
<path fill="none" stroke="red" stroke-width="0.3" d="M267.08,-207.4C264.46,-195.96 259.9,-176.06 255.93,-158.73"/>
<polygon fill="red" stroke="red" stroke-width="0.3" points="259.33,-157.87 253.68,-148.91 252.5,-159.43 259.33,-157.87"/>
<text text-anchor="middle" x="255.05" y="-184.56" font-family="Times,serif" font-size="5.00">&#45;1.000</text>
</g>
<!-- 1705 -->
<g id="node16" class="node">
<title>1705</title>
<ellipse fill="white" stroke="black" cx="205.23" cy="-170.21" rx="24.08" ry="24.08"/>
<text text-anchor="middle" x="205.23" y="-167.51" font-family="Times,serif" font-size="9.00">1705</text>
</g>
<!-- &#45;2&#45;&gt;1705 -->
<g id="edge11" class="edge">
<title>&#45;2&#45;&gt;1705</title>
<path fill="none" stroke="red" stroke-width="0.3" d="M257.2,-208.07C250.36,-203.08 241.48,-196.62 233.01,-190.45"/>
<polygon fill="red" stroke="red" stroke-width="0.3" points="234.91,-187.5 224.76,-184.44 230.79,-193.16 234.91,-187.5"/>
<text text-anchor="middle" x="238.65" y="-200.76" font-family="Times,serif" font-size="5.00">&#45;1.000</text>
</g>
<!-- 1706 -->
<g id="node17" class="node">
<title>1706</title>
<ellipse fill="white" stroke="black" cx="344.04" cy="-251.99" rx="24.08" ry="24.08"/>
<text text-anchor="middle" x="344.04" y="-249.29" font-family="Times,serif" font-size="9.00">1706</text>
</g>
<!-- &#45;2&#45;&gt;1706 -->
<g id="edge12" class="edge">
<title>&#45;2&#45;&gt;1706</title>
<path fill="none" stroke="red" stroke-width="0.3" d="M281.26,-222.49C289.84,-226.52 301.8,-232.14 312.98,-237.39"/>
<polygon fill="red" stroke="red" stroke-width="0.3" points="311.56,-240.59 322.1,-241.68 314.53,-234.25 311.56,-240.59"/>
<text text-anchor="middle" x="290.66" y="-231.44" font-family="Times,serif" font-size="5.00">&#45;1.000</text>
</g>
<!-- 1119 -->
<g id="node18" class="node">
<title>1119</title>
<ellipse fill="white" stroke="black" cx="301.25" cy="-147.49" rx="24.08" ry="24.08"/>
<text text-anchor="middle" x="301.25" y="-144.79" font-family="Times,serif" font-size="9.00">1119</text>
</g>
<!-- &#45;2&#45;&gt;1119 -->
<g id="edge13" class="edge">
<title>&#45;2&#45;&gt;1119</title>
<path fill="none" stroke="green" stroke-width="0.37" d="M273.56,-207.49C276.98,-200.07 281.97,-189.26 286.78,-178.84"/>
<polygon fill="green" stroke="green" stroke-width="0.37" points="290.08,-180.05 291.09,-169.51 283.72,-177.12 290.08,-180.05"/>
<text text-anchor="middle" x="274.54" y="-194.67" font-family="Times,serif" font-size="5.00">1.326</text>
</g>
<!-- 1701 -->
<g id="node19" class="node">
<title>1701</title>
<ellipse fill="white" stroke="black" cx="196.01" cy="-238.08" rx="24.08" ry="24.08"/>
<text text-anchor="middle" x="196.01" y="-235.38" font-family="Times,serif" font-size="9.00">1701</text>
</g>
<!-- &#45;2&#45;&gt;1701 -->
<g id="edge16" class="edge">
<title>&#45;2&#45;&gt;1701</title>
<path fill="none" stroke="green" stroke-width="0.37" d="M257.48,-220.25C249.77,-222.49 239.29,-225.53 229.17,-228.46"/>
<polygon fill="green" stroke="green" stroke-width="0.37" points="227.91,-225.19 219.28,-231.33 229.86,-231.91 227.91,-225.19"/>
<text text-anchor="middle" x="237.7" y="-225.86" font-family="Times,serif" font-size="5.00">1.326</text>
</g>
<!-- 1702 -->
<g id="node20" class="node">
<title>1702</title>
<ellipse fill="white" stroke="black" cx="311.46" cy="-296.68" rx="24.08" ry="24.08"/>
<text text-anchor="middle" x="311.46" y="-293.98" font-family="Times,serif" font-size="9.00">1702</text>
</g>
<!-- &#45;2&#45;&gt;1702 -->
<g id="edge19" class="edge">
<title>&#45;2&#45;&gt;1702</title>
<path fill="none" stroke="green" stroke-width="0.37" d="M274.25,-226.31C279.45,-236.14 287.85,-252.02 295.35,-266.22"/>
<polygon fill="green" stroke="green" stroke-width="0.37" points="292.34,-268.01 300.11,-275.22 298.53,-264.74 292.34,-268.01"/>
<text text-anchor="middle" x="290.43" y="-247.76" font-family="Times,serif" font-size="5.00">1.326</text>
</g>
<!-- &#45;3 -->
<g id="node3" class="node">
<title>&#45;3</title>
<polygon fill="lightgray" stroke="black" points="47.72,-281.4 23.71,-281.4 23.71,-262.79 47.72,-262.79 47.72,-281.4"/>
<text text-anchor="middle" x="35.71" y="-269.4" font-family="Times,serif" font-size="9.00">&#45;3</text>
</g>
<!-- 1703 -->
<g id="node7" class="node">
<title>1703</title>
<ellipse fill="white" stroke="black" cx="134.61" cy="-278.77" rx="24.08" ry="24.08"/>
<ellipse fill="none" stroke="black" cx="134.61" cy="-278.77" rx="28.08" ry="28.08"/>
<text text-anchor="middle" x="134.61" y="-276.07" font-family="Times,serif" font-size="9.00">1703</text>
</g>
<!-- &#45;3&#45;&gt;1703 -->
<g id="edge2" class="edge">
<title>&#45;3&#45;&gt;1703</title>
<path fill="none" stroke="green" stroke-width="0.3" d="M47.84,-272.91C59.89,-273.73 79,-275.02 96.22,-276.18"/>
<polygon fill="green" stroke="green" stroke-width="0.3" points="96.41,-279.7 106.62,-276.88 96.88,-272.72 96.41,-279.7"/>
<text text-anchor="middle" x="66.41" y="-276.05" font-family="Times,serif" font-size="5.00">1.000</text>
</g>
<!-- 1707 -->
<g id="node10" class="node">
<title>1707</title>
<ellipse fill="white" stroke="black" cx="24.04" cy="-184.07" rx="24.08" ry="24.08"/>
<text text-anchor="middle" x="24.04" y="-181.37" font-family="Times,serif" font-size="9.00">1707</text>
</g>
<!-- &#45;3&#45;&gt;1707 -->
<g id="edge5" class="edge">
<title>&#45;3&#45;&gt;1707</title>
<path fill="none" stroke="green" stroke-width="0.3" d="M34.47,-262.68C33.06,-252.05 30.68,-234.16 28.56,-218.13"/>
<polygon fill="green" stroke="green" stroke-width="0.3" points="31.99,-217.42 27.21,-207.96 25.06,-218.34 31.99,-217.42"/>
<text text-anchor="middle" x="25.89" y="-241.9" font-family="Times,serif" font-size="5.00">1.000</text>
</g>
<!-- 1712 -->
<g id="node21" class="node">
<title>1712</title>
<ellipse fill="white" stroke="black" cx="85.3" cy="-245.02" rx="24.08" ry="24.08"/>
<text text-anchor="middle" x="85.3" y="-242.32" font-family="Times,serif" font-size="9.00">1712</text>
</g>
<!-- &#45;3&#45;&gt;1712 -->
<g id="edge22" class="edge">
<title>&#45;3&#45;&gt;1712</title>
<path fill="none" stroke="green" stroke-width="0.3" d="M47.47,-265.68C49.77,-264.42 52.29,-263.04 54.9,-261.62"/>
<polygon fill="green" stroke="green" stroke-width="0.3" points="56.82,-264.56 63.92,-256.69 53.47,-258.41 56.82,-264.56"/>
<text text-anchor="middle" x="54" y="-259.15" font-family="Times,serif" font-size="5.00">1.000</text>
</g>
<!-- 1713 -->
<g id="node22" class="node">
<title>1713</title>
<ellipse fill="white" stroke="black" cx="90.38" cy="-293.92" rx="24.08" ry="24.08"/>
<text text-anchor="middle" x="90.38" y="-291.22" font-family="Times,serif" font-size="9.00">1713</text>
</g>
<!-- &#45;3&#45;&gt;1713 -->
<g id="edge23" class="edge">
<title>&#45;3&#45;&gt;1713</title>
<path fill="none" stroke="green" stroke-width="0.3" d="M47.58,-276.83C50.81,-278.12 54.46,-279.58 58.25,-281.09"/>
<polygon fill="green" stroke="green" stroke-width="0.3" points="57.16,-284.42 67.75,-284.88 59.76,-277.92 57.16,-284.42"/>
<text text-anchor="middle" x="52.91" y="-274.46" font-family="Times,serif" font-size="5.00">1.000</text>
</g>
<!-- 1714 -->
<g id="node23" class="node">
<title>1714</title>
<ellipse fill="white" stroke="black" cx="107.63" cy="-317.57" rx="24.08" ry="24.08"/>
<text text-anchor="middle" x="107.63" y="-314.87" font-family="Times,serif" font-size="9.00">1714</text>
</g>
<!-- &#45;3&#45;&gt;1714 -->
<g id="edge24" class="edge">
<title>&#45;3&#45;&gt;1714</title>
<path fill="none" stroke="green" stroke-width="0.3" d="M47.59,-279.6C56.09,-284.98 67.91,-292.45 78.82,-299.35"/>
<polygon fill="green" stroke="green" stroke-width="0.3" points="76.97,-302.32 87.29,-304.71 80.71,-296.4 76.97,-302.32"/>
<text text-anchor="middle" x="57.58" y="-290.98" font-family="Times,serif" font-size="5.00">1.000</text>
</g>
<!-- &#45;4 -->
<g id="node4" class="node">
<title>&#45;4</title>
<polygon fill="lightgray" stroke="black" points="404.47,-449.4 380.46,-449.4 380.46,-430.8 404.47,-430.8 404.47,-449.4"/>
<text text-anchor="middle" x="392.47" y="-437.4" font-family="Times,serif" font-size="9.00">&#45;4</text>
</g>
<!-- 1704 -->
<g id="node8" class="node">
<title>1704</title>
<ellipse fill="white" stroke="black" cx="364.29" cy="-344.01" rx="24.08" ry="24.08"/>
<ellipse fill="none" stroke="black" cx="364.29" cy="-344.01" rx="28.08" ry="28.08"/>
<text text-anchor="middle" x="364.29" y="-341.31" font-family="Times,serif" font-size="9.00">1704</text>
</g>
<!-- &#45;4&#45;&gt;1704 -->
<g id="edge3" class="edge">
<title>&#45;4&#45;&gt;1704</title>
<path fill="none" stroke="green" stroke-width="0.3" d="M389.66,-430.53C386.26,-418.92 380.31,-398.64 375.03,-380.64"/>
<polygon fill="green" stroke="green" stroke-width="0.3" points="378.36,-379.55 372.19,-370.94 371.64,-381.52 378.36,-379.55"/>
<text text-anchor="middle" x="376.72" y="-407.09" font-family="Times,serif" font-size="5.00">1.000</text>
</g>
<!-- 1708 -->
<g id="node11" class="node">
<title>1708</title>
<ellipse fill="white" stroke="black" cx="314.72" cy="-484.16" rx="24.08" ry="24.08"/>
<text text-anchor="middle" x="314.72" y="-481.46" font-family="Times,serif" font-size="9.00">1708</text>
</g>
<!-- &#45;4&#45;&gt;1708 -->
<g id="edge6" class="edge">
<title>&#45;4&#45;&gt;1708</title>
<path fill="none" stroke="green" stroke-width="0.3" d="M380.66,-446.79C371.09,-452.21 357.17,-460.1 344.58,-467.23"/>
<polygon fill="green" stroke="green" stroke-width="0.3" points="342.71,-464.27 335.74,-472.24 346.16,-470.36 342.71,-464.27"/>
<text text-anchor="middle" x="357" y="-458.51" font-family="Times,serif" font-size="5.00">1.000</text>
</g>
<!-- 1715 -->
<g id="node24" class="node">
<title>1715</title>
<ellipse fill="white" stroke="black" cx="380.28" cy="-385.26" rx="24.08" ry="24.08"/>
<text text-anchor="middle" x="380.28" y="-382.56" font-family="Times,serif" font-size="9.00">1715</text>
</g>
<!-- &#45;4&#45;&gt;1715 -->
<g id="edge25" class="edge">
<title>&#45;4&#45;&gt;1715</title>
<path fill="none" stroke="green" stroke-width="0.3" d="M390.34,-430.55C389.59,-427.16 388.7,-423.14 387.76,-418.9"/>
<polygon fill="green" stroke="green" stroke-width="0.3" points="391.11,-417.85 385.52,-408.84 384.27,-419.36 391.11,-417.85"/>
<text text-anchor="middle" x="383.42" y="-426.22" font-family="Times,serif" font-size="5.00">1.000</text>
</g>
<!-- 1716 -->
<g id="node25" class="node">
<title>1716</title>
<ellipse fill="white" stroke="black" cx="341.56" cy="-408.41" rx="24.08" ry="24.08"/>
<text text-anchor="middle" x="341.56" y="-405.71" font-family="Times,serif" font-size="9.00">1716</text>
</g>
<!-- &#45;4&#45;&gt;1716 -->
<g id="edge26" class="edge">
<title>&#45;4&#45;&gt;1716</title>
<path fill="none" stroke="green" stroke-width="0.3" d="M380.66,-432.75C377.64,-430.87 374.26,-428.76 370.78,-426.6"/>
<polygon fill="green" stroke="green" stroke-width="0.3" points="372.42,-423.5 362.08,-421.19 368.72,-429.44 372.42,-423.5"/>
<text text-anchor="middle" x="370.09" y="-431.17" font-family="Times,serif" font-size="5.00">1.000</text>
</g>
<!-- 1717 -->
<g id="node26" class="node">
<title>1717</title>
<ellipse fill="white" stroke="black" cx="405.88" cy="-364.64" rx="24.08" ry="24.08"/>
<text text-anchor="middle" x="405.88" y="-361.94" font-family="Times,serif" font-size="9.00">1717</text>
</g>
<!-- &#45;4&#45;&gt;1717 -->
<g id="edge27" class="edge">
<title>&#45;4&#45;&gt;1717</title>
<path fill="none" stroke="green" stroke-width="0.3" d="M394.16,-430.54C395.61,-422.38 397.79,-410.14 399.88,-398.41"/>
<polygon fill="green" stroke="green" stroke-width="0.3" points="403.36,-398.81 401.66,-388.35 396.47,-397.59 403.36,-398.81"/>
<text text-anchor="middle" x="391.39" y="-415.98" font-family="Times,serif" font-size="5.00">1.000</text>
</g>
<!-- 0 -->
<g id="node5" class="node">
<title>0</title>
<ellipse fill="lightblue" stroke="black" cx="267.5" cy="-248.34" rx="14.49" ry="14.49"/>
<text text-anchor="middle" x="267.5" y="-245.64" font-family="Times,serif" font-size="9.00">0</text>
</g>
<!-- 1537&#45;&gt;1119 -->
<g id="edge14" class="edge">
<title>1537&#45;&gt;1119</title>
<path fill="none" stroke="red" stroke-width="0.23" d="M350.76,-142.29C345.82,-142.81 340.62,-143.36 335.53,-143.89"/>
<polygon fill="red" stroke="red" stroke-width="0.23" points="334.92,-140.44 325.34,-144.96 335.65,-147.4 334.92,-140.44"/>
<text text-anchor="middle" x="336.69" y="-138.59" font-family="Times,serif" font-size="5.00">&#45;0.664</text>
</g>
<!-- 32 -->
<g id="node30" class="node">
<title>32</title>
<ellipse fill="white" stroke="black" cx="341.76" cy="-162.06" rx="17.82" ry="17.82"/>
<ellipse fill="none" stroke="black" cx="341.76" cy="-162.06" rx="21.86" ry="21.86"/>
<text text-anchor="middle" x="341.76" y="-159.36" font-family="Times,serif" font-size="9.00">32</text>
</g>
<!-- 1537&#45;&gt;32 -->
<g id="edge34" class="edge">
<title>1537&#45;&gt;32</title>
<path fill="none" stroke="green" stroke-width="0.25" d="M354.69,-154.12C354.64,-154.16 354.58,-154.19 354.53,-154.22"/>
<polygon fill="green" stroke="green" stroke-width="0.25" points="361.05,-146.11 354.36,-154.33 364.72,-152.07 361.05,-146.11"/>
<text text-anchor="middle" x="348.99" y="-155.67" font-family="Times,serif" font-size="5.00">0.765</text>
</g>
<!-- 1703&#45;&gt;1701 -->
<g id="edge17" class="edge">
<title>1703&#45;&gt;1701</title>
<path fill="none" stroke="red" stroke-width="0.23" d="M158.17,-263.16C161.17,-261.17 164.27,-259.12 167.34,-257.08"/>
<polygon fill="red" stroke="red" stroke-width="0.23" points="169.41,-259.91 175.81,-251.47 165.54,-254.08 169.41,-259.91"/>
<text text-anchor="middle" x="169.21" y="-261.62" font-family="Times,serif" font-size="5.00">&#45;0.664</text>
</g>
<!-- 1699 -->
<g id="node31" class="node">
<title>1699</title>
<ellipse fill="white" stroke="black" cx="157.51" cy="-232.7" rx="24.08" ry="24.08"/>
<ellipse fill="none" stroke="black" cx="157.51" cy="-232.7" rx="28.08" ry="28.08"/>
<text text-anchor="middle" x="157.51" y="-230" font-family="Times,serif" font-size="9.00">1699</text>
</g>
<!-- 1703&#45;&gt;1699 -->
<g id="edge42" class="edge">
<title>1703&#45;&gt;1699</title>
<path fill="none" stroke="green" stroke-width="0.25" d="M147.13,-253.58C147.15,-253.54 147.17,-253.49 147.2,-253.45"/>
<polygon fill="green" stroke="green" stroke-width="0.25" points="145.94,-263.84 147.26,-253.33 139.67,-260.72 145.94,-263.84"/>
<text text-anchor="middle" x="152.79" y="-255.02" font-family="Times,serif" font-size="5.00">0.765</text>
</g>
<!-- 1704&#45;&gt;1702 -->
<g id="edge20" class="edge">
<title>1704&#45;&gt;1702</title>
<path fill="none" stroke="red" stroke-width="0.23" d="M343.11,-325.03C341.15,-323.27 339.15,-321.48 337.15,-319.7"/>
<polygon fill="red" stroke="red" stroke-width="0.23" points="339.37,-316.98 329.59,-312.92 334.7,-322.2 339.37,-316.98"/>
<text text-anchor="middle" x="333.67" y="-323.86" font-family="Times,serif" font-size="5.00">&#45;0.664</text>
</g>
<!-- 1700 -->
<g id="node32" class="node">
<title>1700</title>
<ellipse fill="white" stroke="black" cx="302.31" cy="-344.51" rx="24.08" ry="24.08"/>
<ellipse fill="none" stroke="black" cx="302.31" cy="-344.51" rx="28.08" ry="28.08"/>
<text text-anchor="middle" x="302.31" y="-341.81" font-family="Times,serif" font-size="9.00">1700</text>
</g>
<!-- 1704&#45;&gt;1700 -->
<g id="edge50" class="edge">
<title>1704&#45;&gt;1700</title>
<path fill="none" stroke="green" stroke-width="0.25" d="M336.2,-344.23C336.08,-344.24 335.96,-344.24 335.84,-344.24"/>
<polygon fill="green" stroke="green" stroke-width="0.25" points="340.4,-340.7 330.42,-344.28 340.45,-347.7 340.4,-340.7"/>
<text text-anchor="middle" x="336.02" y="-339.74" font-family="Times,serif" font-size="5.00">0.765</text>
</g>
<!-- 1718 -->
<g id="node27" class="node">
<title>1718</title>
<ellipse fill="white" stroke="black" cx="404.93" cy="-100.84" rx="24.08" ry="24.08"/>
<text text-anchor="middle" x="404.93" y="-98.14" font-family="Times,serif" font-size="9.00">1718</text>
</g>
<!-- 1698&#45;&gt;1718 -->
<g id="edge28" class="edge">
<title>1698&#45;&gt;1718</title>
<path fill="none" stroke="green" stroke-width="0.3" d="M403.3,-48.34C403.48,-54.14 403.67,-60.44 403.87,-66.59"/>
<polygon fill="green" stroke="green" stroke-width="0.3" points="400.37,-66.81 404.18,-76.7 407.37,-66.6 400.37,-66.81"/>
<text text-anchor="middle" x="397.96" y="-58.97" font-family="Times,serif" font-size="5.00">1.000</text>
</g>
<!-- 1719 -->
<g id="node28" class="node">
<title>1719</title>
<ellipse fill="white" stroke="black" cx="338.17" cy="-60.66" rx="24.08" ry="24.08"/>
<text text-anchor="middle" x="338.17" y="-57.96" font-family="Times,serif" font-size="9.00">1719</text>
</g>
<!-- 1698&#45;&gt;1719 -->
<g id="edge29" class="edge">
<title>1698&#45;&gt;1719</title>
<path fill="none" stroke="green" stroke-width="0.3" d="M381.47,-36.03C377.09,-38.52 372.4,-41.19 367.77,-43.82"/>
<polygon fill="green" stroke="green" stroke-width="0.3" points="366.04,-40.78 359.08,-48.77 369.5,-46.86 366.04,-40.78"/>
<text text-anchor="middle" x="369" y="-41.43" font-family="Times,serif" font-size="5.00">1.000</text>
</g>
<!-- 1720 -->
<g id="node29" class="node">
<title>1720</title>
<ellipse fill="white" stroke="black" cx="312.26" cy="-62.4" rx="24.08" ry="24.08"/>
<text text-anchor="middle" x="312.26" y="-59.7" font-family="Times,serif" font-size="9.00">1720</text>
</g>
<!-- 1698&#45;&gt;1720 -->
<g id="edge30" class="edge">
<title>1698&#45;&gt;1720</title>
<path fill="none" stroke="green" stroke-width="0.3" d="M380.22,-33.52C369.26,-38.18 355.87,-43.87 343.87,-48.97"/>
<polygon fill="green" stroke="green" stroke-width="0.3" points="342.46,-45.76 334.63,-52.89 345.2,-52.2 342.46,-45.76"/>
<text text-anchor="middle" x="367.67" y="-36.74" font-family="Times,serif" font-size="5.00">1.000</text>
</g>
<!-- 1721 -->
<g id="node33" class="node">
<title>1721</title>
<ellipse fill="white" stroke="black" cx="94.12" cy="-164.16" rx="24.08" ry="24.08"/>
<text text-anchor="middle" x="94.12" y="-161.46" font-family="Times,serif" font-size="9.00">1721</text>
</g>
<!-- 1707&#45;&gt;1721 -->
<g id="edge55" class="edge">
<title>1707&#45;&gt;1721</title>
<path fill="none" stroke="green" stroke-width="0.3" d="M47.38,-177.44C51.7,-176.21 56.3,-174.9 60.85,-173.61"/>
<polygon fill="green" stroke="green" stroke-width="0.3" points="61.98,-176.93 70.64,-170.83 60.07,-170.19 61.98,-176.93"/>
<text text-anchor="middle" x="56.93" y="-171.02" font-family="Times,serif" font-size="5.00">1.000</text>
</g>
<!-- 1722 -->
<g id="node34" class="node">
<title>1722</title>
<ellipse fill="white" stroke="black" cx="89.01" cy="-197.43" rx="24.08" ry="24.08"/>
<text text-anchor="middle" x="89.01" y="-194.73" font-family="Times,serif" font-size="9.00">1722</text>
</g>
<!-- 1707&#45;&gt;1722 -->
<g id="edge56" class="edge">
<title>1707&#45;&gt;1722</title>
<path fill="none" stroke="green" stroke-width="0.3" d="M47.87,-188.97C50.25,-189.46 52.7,-189.96 55.16,-190.47"/>
<polygon fill="green" stroke="green" stroke-width="0.3" points="54.69,-193.94 65.19,-192.53 56.1,-187.09 54.69,-193.94"/>
<text text-anchor="middle" x="57.14" y="-191.22" font-family="Times,serif" font-size="5.00">1.000</text>
</g>
<!-- 1723 -->
<g id="node35" class="node">
<title>1723</title>
<ellipse fill="white" stroke="black" cx="115.73" cy="-151.43" rx="24.08" ry="24.08"/>
<text text-anchor="middle" x="115.73" y="-148.73" font-family="Times,serif" font-size="9.00">1723</text>
</g>
<!-- 1707&#45;&gt;1723 -->
<g id="edge57" class="edge">
<title>1707&#45;&gt;1723</title>
<path fill="none" stroke="green" stroke-width="0.3" d="M46.71,-176C57.73,-172.08 71.17,-167.29 83.26,-162.99"/>
<polygon fill="green" stroke="green" stroke-width="0.3" points="84.76,-166.17 93.01,-159.52 82.41,-159.58 84.76,-166.17"/>
<text text-anchor="middle" x="59.36" y="-165" font-family="Times,serif" font-size="5.00">1.000</text>
</g>
<!-- 1724 -->
<g id="node36" class="node">
<title>1724</title>
<ellipse fill="white" stroke="black" cx="297.41" cy="-419.51" rx="24.08" ry="24.08"/>
<text text-anchor="middle" x="297.41" y="-416.81" font-family="Times,serif" font-size="9.00">1724</text>
</g>
<!-- 1708&#45;&gt;1724 -->
<g id="edge58" class="edge">
<title>1708&#45;&gt;1724</title>
<path fill="none" stroke="green" stroke-width="0.3" d="M308.47,-460.82C307.77,-458.19 307.04,-455.49 306.32,-452.77"/>
<polygon fill="green" stroke="green" stroke-width="0.3" points="309.68,-451.78 303.71,-443.03 302.91,-453.59 309.68,-451.78"/>
<text text-anchor="middle" x="301.77" y="-452.29" font-family="Times,serif" font-size="5.00">1.000</text>
</g>
<!-- 1725 -->
<g id="node37" class="node">
<title>1725</title>
<ellipse fill="white" stroke="black" cx="251.81" cy="-406.95" rx="24.08" ry="24.08"/>
<text text-anchor="middle" x="251.81" y="-404.25" font-family="Times,serif" font-size="9.00">1725</text>
</g>
<!-- 1708&#45;&gt;1725 -->
<g id="edge59" class="edge">
<title>1708&#45;&gt;1725</title>
<path fill="none" stroke="green" stroke-width="0.3" d="M299.49,-465.47C291.74,-455.96 282.19,-444.23 273.67,-433.78"/>
<polygon fill="green" stroke="green" stroke-width="0.3" points="276.15,-431.28 267.11,-425.74 270.72,-435.7 276.15,-431.28"/>
<text text-anchor="middle" x="292.2" y="-445.12" font-family="Times,serif" font-size="5.00">1.000</text>
</g>
<!-- 1726 -->
<g id="node38" class="node">
<title>1726</title>
<ellipse fill="white" stroke="black" cx="264.34" cy="-429.47" rx="24.08" ry="24.08"/>
<text text-anchor="middle" x="264.34" y="-426.77" font-family="Times,serif" font-size="9.00">1726</text>
</g>
<!-- 1708&#45;&gt;1726 -->
<g id="edge60" class="edge">
<title>1708&#45;&gt;1726</title>
<path fill="none" stroke="green" stroke-width="0.3" d="M298.22,-466.25C294.79,-462.53 291.12,-458.54 287.51,-454.62"/>
<polygon fill="green" stroke="green" stroke-width="0.3" points="290.05,-452.21 280.7,-447.23 284.9,-456.95 290.05,-452.21"/>
<text text-anchor="middle" x="287.24" y="-455.93" font-family="Times,serif" font-size="5.00">1.000</text>
</g>
<!-- 1709&#45;&gt;32 -->
<g id="edge31" class="edge">
<title>1709&#45;&gt;32</title>
<path fill="none" stroke="red" stroke-width="0.66" d="M362.26,-112.42C359.65,-118.75 356.76,-125.73 354,-132.42"/>
<polygon fill="red" stroke="red" stroke-width="0.66" points="350.68,-131.3 350.1,-141.88 357.15,-133.97 350.68,-131.3"/>
<text text-anchor="middle" x="351.68" y="-123.92" font-family="Times,serif" font-size="5.00">&#45;2.792</text>
</g>
<!-- 1710&#45;&gt;32 -->
<g id="edge32" class="edge">
<title>1710&#45;&gt;32</title>
<path fill="none" stroke="red" stroke-width="0.1" d="M402.09,-174.59C393.09,-172.72 382.71,-170.57 373.13,-168.58"/>
<polygon fill="red" stroke="red" stroke-width="0.1" points="373.65,-165.11 363.15,-166.5 372.23,-171.97 373.65,-165.11"/>
<text text-anchor="middle" x="381.98" y="-173.08" font-family="Times,serif" font-size="5.00">0.000</text>
</g>
<!-- 1711&#45;&gt;32 -->
<g id="edge33" class="edge">
<title>1711&#45;&gt;32</title>
<path fill="none" stroke="green" stroke-width="0.66" d="M415.58,-159.38C403.05,-159.84 387.59,-160.4 374.06,-160.89"/>
<polygon fill="green" stroke="green" stroke-width="0.66" points="373.58,-157.4 363.71,-161.27 373.83,-164.4 373.58,-157.4"/>
<text text-anchor="middle" x="389.19" y="-161.64" font-family="Times,serif" font-size="5.00">2.792</text>
</g>
<!-- 1626&#45;&gt;1119 -->
<g id="edge15" class="edge">
<title>1626&#45;&gt;1119</title>
<path fill="none" stroke="green" stroke-width="0.41" d="M270.76,-134.78C270.84,-134.81 270.93,-134.85 271.01,-134.88"/>
<polygon fill="green" stroke="green" stroke-width="0.41" points="268.35,-137.57 278.93,-138.19 271.05,-131.11 268.35,-137.57"/>
<text text-anchor="middle" x="276.51" y="-136.33" font-family="Times,serif" font-size="5.00">1.542</text>
</g>
<!-- 1705&#45;&gt;1701 -->
<g id="edge18" class="edge">
<title>1705&#45;&gt;1701</title>
<path fill="none" stroke="green" stroke-width="0.41" d="M201.95,-194.33C201.53,-197.43 201.09,-200.65 200.66,-203.88"/>
<polygon fill="green" stroke="green" stroke-width="0.41" points="197.15,-203.66 199.28,-214.04 204.09,-204.6 197.15,-203.66"/>
<text text-anchor="middle" x="195.68" y="-200.6" font-family="Times,serif" font-size="5.00">1.542</text>
</g>
<!-- 1706&#45;&gt;1702 -->
<g id="edge21" class="edge">
<title>1706&#45;&gt;1702</title>
<path fill="none" stroke="green" stroke-width="0.41" d="M329.84,-271.46C329.76,-271.58 329.67,-271.69 329.59,-271.81"/>
<polygon fill="green" stroke="green" stroke-width="0.41" points="328.77,-266.99 325.71,-277.13 334.43,-271.11 328.77,-266.99"/>
<text text-anchor="middle" x="324.09" y="-267.14" font-family="Times,serif" font-size="5.00">1.542</text>
</g>
<!-- 1119&#45;&gt;32 -->
<g id="edge38" class="edge">
<title>1119&#45;&gt;32</title>
<path fill="none" stroke="green" stroke-width="0.13" stroke-dasharray="1,5" d="M323.87,-155.63C323.95,-155.65 324.02,-155.68 324.09,-155.71"/>
<polygon fill="green" stroke="green" stroke-width="0.13" points="313.71,-155.69 324.31,-155.78 316.08,-149.1 313.71,-155.69"/>
<text text-anchor="middle" x="318.36" y="-157.17" font-family="Times,serif" font-size="5.00">0.143</text>
</g>
<!-- 1701&#45;&gt;1699 -->
<g id="edge46" class="edge">
<title>1701&#45;&gt;1699</title>
<path fill="none" stroke="green" stroke-width="0.13" stroke-dasharray="1,5" d="M171.85,-234.7C171.78,-234.7 171.72,-234.69 171.66,-234.68"/>
<polygon fill="green" stroke="green" stroke-width="0.13" points="181.87,-232.58 171.48,-234.65 180.9,-239.51 181.87,-232.58"/>
<text text-anchor="middle" x="166.13" y="-236.19" font-family="Times,serif" font-size="5.00">0.143</text>
</g>
<!-- 1702&#45;&gt;1700 -->
<g id="edge54" class="edge">
<title>1702&#45;&gt;1700</title>
<path fill="none" stroke="green" stroke-width="0.13" stroke-dasharray="1,5" d="M306.94,-320.31C306.93,-320.36 306.92,-320.41 306.91,-320.45"/>
<polygon fill="green" stroke="green" stroke-width="0.13" points="305.33,-310.11 306.89,-320.59 312.21,-311.43 305.33,-310.11"/>
<text text-anchor="middle" x="301.3" y="-321.88" font-family="Times,serif" font-size="5.00">0.143</text>
</g>
<!-- 1712&#45;&gt;1699 -->
<g id="edge39" class="edge">
<title>1712&#45;&gt;1699</title>
<path fill="none" stroke="red" stroke-width="0.66" d="M109.35,-240.92C112.73,-240.34 116.27,-239.74 119.84,-239.13"/>
<polygon fill="red" stroke="red" stroke-width="0.66" points="120.55,-242.56 129.82,-237.42 119.38,-235.65 120.55,-242.56"/>
<text text-anchor="middle" x="121.05" y="-241.52" font-family="Times,serif" font-size="5.00">&#45;2.792</text>
</g>
<!-- 1713&#45;&gt;1699 -->
<g id="edge40" class="edge">
<title>1713&#45;&gt;1699</title>
<path fill="none" stroke="red" stroke-width="0.1" d="M108.37,-277.51C114.76,-271.69 122.12,-264.98 129.16,-258.56"/>
<polygon fill="red" stroke="red" stroke-width="0.1" points="131.58,-261.08 136.62,-251.75 126.87,-255.91 131.58,-261.08"/>
<text text-anchor="middle" x="118.77" y="-263.53" font-family="Times,serif" font-size="5.00">0.000</text>
</g>
<!-- 1714&#45;&gt;1699 -->
<g id="edge41" class="edge">
<title>1714&#45;&gt;1699</title>
<path fill="none" stroke="green" stroke-width="0.66" d="M119.96,-296.59C125.4,-287.33 131.94,-276.21 138.01,-265.87"/>
<polygon fill="green" stroke="green" stroke-width="0.66" points="141.15,-267.44 143.2,-257.04 135.12,-263.89 141.15,-267.44"/>
<text text-anchor="middle" x="123.36" y="-282.73" font-family="Times,serif" font-size="5.00">2.792</text>
</g>
<!-- 1715&#45;&gt;1700 -->
<g id="edge47" class="edge">
<title>1715&#45;&gt;1700</title>
<path fill="none" stroke="red" stroke-width="0.66" d="M358.56,-373.91C351.72,-370.33 343.99,-366.29 336.49,-362.37"/>
<polygon fill="red" stroke="red" stroke-width="0.66" points="337.7,-359.05 327.22,-357.52 334.46,-365.26 337.7,-359.05"/>
<text text-anchor="middle" x="341.07" y="-369.64" font-family="Times,serif" font-size="5.00">&#45;2.792</text>
</g>
<!-- 1716&#45;&gt;1700 -->
<g id="edge48" class="edge">
<title>1716&#45;&gt;1700</title>
<path fill="none" stroke="red" stroke-width="0.1" d="M328.93,-387.84C326.87,-384.49 324.69,-380.94 322.51,-377.38"/>
<polygon fill="red" stroke="red" stroke-width="0.1" points="325.33,-375.29 317.11,-368.6 319.37,-378.96 325.33,-375.29"/>
<text text-anchor="middle" x="320.09" y="-378.11" font-family="Times,serif" font-size="5.00">0.000</text>
</g>
<!-- 1717&#45;&gt;1700 -->
<g id="edge49" class="edge">
<title>1717&#45;&gt;1700</title>
<path fill="none" stroke="green" stroke-width="0.66" d="M382.12,-360.02C369.62,-357.59 354.02,-354.56 339.92,-351.82"/>
<polygon fill="green" stroke="green" stroke-width="0.66" points="340.48,-348.36 330,-349.89 339.15,-355.23 340.48,-348.36"/>
<text text-anchor="middle" x="366.65" y="-357.42" font-family="Times,serif" font-size="5.00">2.792</text>
</g>
<!-- 1718&#45;&gt;32 -->
<g id="edge35" class="edge">
<title>1718&#45;&gt;32</title>
<path fill="none" stroke="red" stroke-width="0.13" d="M387.33,-117.9C380.47,-124.55 372.5,-132.27 365.17,-139.38"/>
<polygon fill="red" stroke="red" stroke-width="0.13" points="362.29,-137.3 357.54,-146.77 367.16,-142.33 362.29,-137.3"/>
<text text-anchor="middle" x="369.79" y="-130.14" font-family="Times,serif" font-size="5.00">&#45;0.168</text>
</g>
<!-- 1719&#45;&gt;32 -->
<g id="edge36" class="edge">
<title>1719&#45;&gt;32</title>
<path fill="none" stroke="red" stroke-width="0.1" d="M339.02,-84.69C339.51,-98.26 340.11,-115.4 340.63,-130.1"/>
<polygon fill="red" stroke="red" stroke-width="0.1" points="337.14,-130.41 340.99,-140.28 344.14,-130.16 337.14,-130.41"/>
<text text-anchor="middle" x="334.2" y="-108.89" font-family="Times,serif" font-size="5.00">0.000</text>
</g>
<!-- 1720&#45;&gt;32 -->
<g id="edge37" class="edge">
<title>1720&#45;&gt;32</title>
<path fill="none" stroke="green" stroke-width="0.13" d="M319.1,-85.51C323.14,-99.16 328.3,-116.59 332.68,-131.38"/>
<polygon fill="green" stroke="green" stroke-width="0.13" points="329.36,-132.51 335.56,-141.11 336.08,-130.53 329.36,-132.51"/>
<text text-anchor="middle" x="320.26" y="-109.95" font-family="Times,serif" font-size="5.00">0.168</text>
</g>
<!-- 32&#45;&gt;0 -->
<g id="edge61" class="edge">
<title>32&#45;&gt;0</title>
<path fill="none" stroke="green" stroke-width="1.94" d="M327.44,-178.7C314.93,-193.24 296.76,-214.35 283.71,-229.51"/>
<polygon fill="green" stroke="green" stroke-width="1.94" points="280.93,-227.38 277.06,-237.24 286.23,-231.94 280.93,-227.38"/>
<text text-anchor="middle" x="299.95" y="-205.6" font-family="Times,serif" font-size="5.00">9.200</text>
</g>
<!-- 1699&#45;&gt;0 -->
<g id="edge62" class="edge">
<title>1699&#45;&gt;0</title>
<path fill="none" stroke="green" stroke-width="1.94" d="M185.55,-236.69C203.2,-239.2 225.76,-242.41 242.75,-244.82"/>
<polygon fill="green" stroke="green" stroke-width="1.94" points="242.6,-248.34 252.99,-246.28 243.59,-241.41 242.6,-248.34"/>
<text text-anchor="middle" x="219.77" y="-242.25" font-family="Times,serif" font-size="5.00">9.200</text>
</g>
<!-- 1700&#45;&gt;0 -->
<g id="edge63" class="edge">
<title>1700&#45;&gt;0</title>
<path fill="none" stroke="green" stroke-width="1.94" d="M292.71,-317.97C287.43,-303.39 280.94,-285.47 275.87,-271.46"/>
<polygon fill="green" stroke="green" stroke-width="1.94" points="279.16,-270.27 272.47,-262.06 272.58,-272.65 279.16,-270.27"/>
<text text-anchor="middle" x="278.67" y="-296.22" font-family="Times,serif" font-size="5.00">9.200</text>
</g>
<!-- 1721&#45;&gt;1699 -->
<g id="edge43" class="edge">
<title>1721&#45;&gt;1699</title>
<path fill="none" stroke="red" stroke-width="0.13" d="M110.44,-181.81C116.82,-188.71 124.3,-196.8 131.4,-204.47"/>
<polygon fill="red" stroke="red" stroke-width="0.13" points="128.95,-206.98 138.31,-211.94 134.09,-202.22 128.95,-206.98"/>
<text text-anchor="middle" x="127.38" y="-194.64" font-family="Times,serif" font-size="5.00">&#45;0.168</text>
</g>
<!-- 1722&#45;&gt;1699 -->
<g id="edge44" class="edge">
<title>1722&#45;&gt;1699</title>
<path fill="none" stroke="red" stroke-width="0.1" d="M110.69,-208.59C114.67,-210.64 118.93,-212.83 123.18,-215.02"/>
<polygon fill="red" stroke="red" stroke-width="0.1" points="121.9,-218.3 132.39,-219.77 125.1,-212.08 121.9,-218.3"/>
<text text-anchor="middle" x="122.56" y="-213.31" font-family="Times,serif" font-size="5.00">0.000</text>
</g>
<!-- 1723&#45;&gt;1699 -->
<g id="edge45" class="edge">
<title>1723&#45;&gt;1699</title>
<path fill="none" stroke="green" stroke-width="0.13" d="M126.92,-173.21C130.94,-181.01 135.56,-190.01 139.98,-198.6"/>
<polygon fill="green" stroke="green" stroke-width="0.13" points="136.97,-200.4 144.65,-207.7 143.19,-197.2 136.97,-200.4"/>
<text text-anchor="middle" x="127.83" y="-187.41" font-family="Times,serif" font-size="5.00">0.168</text>
</g>
<!-- 1724&#45;&gt;1700 -->
<g id="edge51" class="edge">
<title>1724&#45;&gt;1700</title>
<path fill="none" stroke="red" stroke-width="0.13" d="M298.99,-395.36C299.26,-391.27 299.54,-386.93 299.83,-382.58"/>
<polygon fill="red" stroke="red" stroke-width="0.13" points="303.32,-382.73 300.48,-372.52 296.34,-382.27 303.32,-382.73"/>
<text text-anchor="middle" x="292.95" y="-390.47" font-family="Times,serif" font-size="5.00">&#45;0.168</text>
</g>
<!-- 1725&#45;&gt;1700 -->
<g id="edge52" class="edge">
<title>1725&#45;&gt;1700</title>
<path fill="none" stroke="red" stroke-width="0.1" d="M266.96,-388.22C270.38,-384 274.09,-379.41 277.77,-374.85"/>
<polygon fill="red" stroke="red" stroke-width="0.1" points="280.76,-376.73 284.32,-366.75 275.31,-372.33 280.76,-376.73"/>
<text text-anchor="middle" x="266.74" y="-377.03" font-family="Times,serif" font-size="5.00">0.000</text>
</g>
<!-- 1726&#45;&gt;1700 -->
<g id="edge53" class="edge">
<title>1726&#45;&gt;1700</title>
<path fill="none" stroke="green" stroke-width="0.13" d="M274.32,-407.14C278.07,-398.75 282.43,-388.99 286.58,-379.71"/>
<polygon fill="green" stroke="green" stroke-width="0.13" points="289.91,-380.85 290.79,-370.29 283.51,-377.99 289.91,-380.85"/>
<text text-anchor="middle" x="280.45" y="-388.93" font-family="Times,serif" font-size="5.00">0.168</text>
</g>
</g>
</svg>
