<?xml version="1.0" encoding="UTF-8" standalone="no"?>
<!DOCTYPE svg PUBLIC "-//W3C//DTD SVG 1.1//EN"
 "http://www.w3.org/Graphics/SVG/1.1/DTD/svg11.dtd">
<!-- Generated by graphviz version 2.47.1 (20210417.1919)
 -->
<!-- Pages: 1 -->
<svg width="284pt" height="321pt"
 viewBox="0.00 0.00 284.42 320.89" xmlns="http://www.w3.org/2000/svg" xmlns:xlink="http://www.w3.org/1999/xlink">
<g id="graph0" class="graph" transform="scale(1 1) rotate(0) translate(4 316.89)">
<polygon fill="white" stroke="transparent" points="-4,4 -4,-316.89 280.42,-316.89 280.42,4 -4,4"/>
<!-- &#45;1 -->
<g id="node1" class="node">
<title>&#45;1</title>
<polygon fill="lightgray" stroke="black" points="76,-215.36 51.99,-215.36 51.99,-196.76 76,-196.76 76,-215.36"/>
<text text-anchor="middle" x="63.99" y="-203.36" font-family="Times,serif" font-size="9.00">&#45;1</text>
</g>
<!-- 0 -->
<g id="node5" class="node">
<title>0</title>
<ellipse fill="lightblue" stroke="black" cx="146.66" cy="-168.42" rx="14.49" ry="14.49"/>
<ellipse fill="none" stroke="black" cx="146.66" cy="-168.42" rx="18.49" ry="18.49"/>
<text text-anchor="middle" x="146.66" y="-165.72" font-family="Times,serif" font-size="9.00">0</text>
</g>
<!-- &#45;1&#45;&gt;0 -->
<g id="edge10" class="edge">
<title>&#45;1&#45;&gt;0</title>
<path fill="none" stroke="green" stroke-width="1.23" d="M75.84,-200.67C87.41,-195.4 105.42,-187.2 120.38,-180.39"/>
<polygon fill="green" stroke="green" stroke-width="1.23" points="122.02,-183.48 129.67,-176.15 119.12,-177.11 122.02,-183.48"/>
<text text-anchor="middle" x="92.48" y="-192.03" font-family="Times,serif" font-size="5.00">5.647</text>
</g>
<!-- 10893 -->
<g id="node6" class="node">
<title>10893</title>
<ellipse fill="white" stroke="black" cx="27.22" cy="-273.81" rx="27.45" ry="27.45"/>
<text text-anchor="middle" x="27.22" y="-271.11" font-family="Times,serif" font-size="9.00">10893</text>
</g>
<!-- &#45;1&#45;&gt;10893 -->
<g id="edge1" class="edge">
<title>&#45;1&#45;&gt;10893</title>
<path fill="none" stroke="green" stroke-width="0.33" d="M58.88,-215.48C55.3,-222.08 50.28,-231.33 45.29,-240.52"/>
<polygon fill="green" stroke="green" stroke-width="0.33" points="42.06,-239.14 40.37,-249.6 48.21,-242.48 42.06,-239.14"/>
<text text-anchor="middle" x="46.46" y="-229.5" font-family="Times,serif" font-size="5.00">1.166</text>
</g>
<!-- &#45;2 -->
<g id="node2" class="node">
<title>&#45;2</title>
<polygon fill="lightgray" stroke="black" points="185.23,-128.78 161.23,-128.78 161.23,-110.18 185.23,-110.18 185.23,-128.78"/>
<text text-anchor="middle" x="173.23" y="-116.78" font-family="Times,serif" font-size="9.00">&#45;2</text>
</g>
<!-- &#45;2&#45;&gt;0 -->
<g id="edge13" class="edge">
<title>&#45;2&#45;&gt;0</title>
<path fill="none" stroke="green" stroke-width="0.17" stroke-dasharray="1,5" d="M168.11,-128.92C165.88,-133.02 163.16,-138.03 160.41,-143.09"/>
<polygon fill="green" stroke="green" stroke-width="0.17" points="157.23,-141.61 155.53,-152.07 163.38,-144.95 157.23,-141.61"/>
<text text-anchor="middle" x="158.63" y="-137.51" font-family="Times,serif" font-size="5.00">0.333</text>
</g>
<!-- 10688 -->
<g id="node9" class="node">
<title>10688</title>
<ellipse fill="white" stroke="black" cx="100.56" cy="-142.47" rx="27.45" ry="27.45"/>
<text text-anchor="middle" x="100.56" y="-139.77" font-family="Times,serif" font-size="9.00">10688</text>
</g>
<!-- &#45;2&#45;&gt;10688 -->
<g id="edge4" class="edge">
<title>&#45;2&#45;&gt;10688</title>
<path fill="none" stroke="red" stroke-width="0.3" d="M161.23,-123.28C154.36,-125.45 145.35,-128.3 136.37,-131.14"/>
<polygon fill="red" stroke="red" stroke-width="0.3" points="135.24,-127.83 126.76,-134.18 137.35,-134.51 135.24,-127.83"/>
<text text-anchor="middle" x="142.34" y="-128.71" font-family="Times,serif" font-size="5.00">&#45;1.000</text>
</g>
<!-- 11781 -->
<g id="node10" class="node">
<title>11781</title>
<ellipse fill="white" stroke="black" cx="228.08" cy="-148.82" rx="27.45" ry="27.45"/>
<text text-anchor="middle" x="228.08" y="-146.12" font-family="Times,serif" font-size="9.00">11781</text>
</g>
<!-- &#45;2&#45;&gt;11781 -->
<g id="edge5" class="edge">
<title>&#45;2&#45;&gt;11781</title>
<path fill="none" stroke="red" stroke-width="0.3" d="M185.13,-125.85C188.16,-127.47 191.57,-129.3 195.11,-131.19"/>
<polygon fill="red" stroke="red" stroke-width="0.3" points="193.56,-134.33 204.03,-135.96 196.86,-128.16 193.56,-134.33"/>
<text text-anchor="middle" x="193.35" y="-124.02" font-family="Times,serif" font-size="5.00">&#45;1.000</text>
</g>
<!-- 11782 -->
<g id="node11" class="node">
<title>11782</title>
<ellipse fill="white" stroke="black" cx="212.4" cy="-94.25" rx="27.45" ry="27.45"/>
<text text-anchor="middle" x="212.4" y="-91.55" font-family="Times,serif" font-size="9.00">11782</text>
</g>
<!-- &#45;2&#45;&gt;11782 -->
<g id="edge6" class="edge">
<title>&#45;2&#45;&gt;11782</title>
<path fill="none" stroke="red" stroke-width="0.3" d="M185.2,-111.77C185.28,-111.72 185.37,-111.67 185.45,-111.61"/>
<polygon fill="red" stroke="red" stroke-width="0.3" points="182.88,-117.43 189.39,-109.08 179.08,-111.55 182.88,-117.43"/>
<text text-anchor="middle" x="178.87" y="-107.19" font-family="Times,serif" font-size="5.00">&#45;1.000</text>
</g>
<!-- &#45;3 -->
<g id="node3" class="node">
<title>&#45;3</title>
<polygon fill="lightgray" stroke="black" points="81.91,-115.57 57.91,-115.57 57.91,-96.97 81.91,-96.97 81.91,-115.57"/>
<text text-anchor="middle" x="69.91" y="-103.57" font-family="Times,serif" font-size="9.00">&#45;3</text>
</g>
<!-- &#45;3&#45;&gt;0 -->
<g id="edge11" class="edge">
<title>&#45;3&#45;&gt;0</title>
<path fill="none" stroke="green" stroke-width="1.23" d="M81.57,-115.71C92.82,-124.82 110.15,-138.86 124.1,-150.16"/>
<polygon fill="green" stroke="green" stroke-width="1.23" points="122.29,-153.19 132.27,-156.77 126.7,-147.75 122.29,-153.19"/>
<text text-anchor="middle" x="97.21" y="-134.43" font-family="Times,serif" font-size="5.00">5.647</text>
</g>
<!-- 11783 -->
<g id="node7" class="node">
<title>11783</title>
<ellipse fill="white" stroke="black" cx="59.99" cy="-27.22" rx="27.45" ry="27.45"/>
<text text-anchor="middle" x="59.99" y="-24.52" font-family="Times,serif" font-size="9.00">11783</text>
</g>
<!-- &#45;3&#45;&gt;11783 -->
<g id="edge2" class="edge">
<title>&#45;3&#45;&gt;11783</title>
<path fill="none" stroke="green" stroke-width="0.33" d="M68.73,-96.89C67.71,-88.78 66.17,-76.49 64.67,-64.48"/>
<polygon fill="green" stroke="green" stroke-width="0.33" points="68.14,-64.04 63.42,-54.55 61.19,-64.91 68.14,-64.04"/>
<text text-anchor="middle" x="61.07" y="-82.19" font-family="Times,serif" font-size="5.00">1.166</text>
</g>
<!-- &#45;4 -->
<g id="node4" class="node">
<title>&#45;4</title>
<polygon fill="lightgray" stroke="black" points="191.8,-256.13 167.8,-256.13 167.8,-237.52 191.8,-237.52 191.8,-256.13"/>
<text text-anchor="middle" x="179.8" y="-244.12" font-family="Times,serif" font-size="9.00">&#45;4</text>
</g>
<!-- &#45;4&#45;&gt;0 -->
<g id="edge12" class="edge">
<title>&#45;4&#45;&gt;0</title>
<path fill="none" stroke="green" stroke-width="1.23" d="M175.86,-237.52C171.49,-227.17 164.22,-209.98 158.03,-195.33"/>
<polygon fill="green" stroke="green" stroke-width="1.23" points="161.08,-193.56 153.97,-185.71 154.64,-196.29 161.08,-193.56"/>
<text text-anchor="middle" x="161.32" y="-217.93" font-family="Times,serif" font-size="5.00">5.647</text>
</g>
<!-- 11784 -->
<g id="node8" class="node">
<title>11784</title>
<ellipse fill="white" stroke="black" cx="249.2" cy="-285.67" rx="27.45" ry="27.45"/>
<text text-anchor="middle" x="249.2" y="-282.97" font-family="Times,serif" font-size="9.00">11784</text>
</g>
<!-- &#45;4&#45;&gt;11784 -->
<g id="edge3" class="edge">
<title>&#45;4&#45;&gt;11784</title>
<path fill="none" stroke="green" stroke-width="0.33" d="M191.57,-253.41C198.47,-257.28 207.57,-262.37 216.49,-267.36"/>
<polygon fill="green" stroke="green" stroke-width="0.33" points="214.82,-270.44 225.26,-272.27 218.24,-264.33 214.82,-270.44"/>
<text text-anchor="middle" x="198.4" y="-261.89" font-family="Times,serif" font-size="5.00">1.166</text>
</g>
<!-- 11780 -->
<g id="node12" class="node">
<title>11780</title>
<ellipse fill="white" stroke="black" cx="100.21" cy="-242.3" rx="27.45" ry="27.45"/>
<text text-anchor="middle" x="100.21" y="-239.6" font-family="Times,serif" font-size="9.00">11780</text>
</g>
<!-- 10893&#45;&gt;11780 -->
<g id="edge7" class="edge">
<title>10893&#45;&gt;11780</title>
<path fill="none" stroke="green" stroke-width="0.35" d="M52.34,-262.96C56.54,-261.15 60.95,-259.24 65.34,-257.35"/>
<polygon fill="green" stroke="green" stroke-width="0.35" points="67,-260.45 74.8,-253.27 64.23,-254.02 67,-260.45"/>
<text text-anchor="middle" x="64.47" y="-261.66" font-family="Times,serif" font-size="5.00">1.242</text>
</g>
<!-- 11785 -->
<g id="node13" class="node">
<title>11785</title>
<ellipse fill="white" stroke="black" cx="124.08" cy="-73.61" rx="27.45" ry="27.45"/>
<text text-anchor="middle" x="124.08" y="-70.91" font-family="Times,serif" font-size="9.00">11785</text>
</g>
<!-- 11783&#45;&gt;11785 -->
<g id="edge8" class="edge">
<title>11783&#45;&gt;11785</title>
<path fill="none" stroke="green" stroke-width="0.35" d="M82.05,-43.19C85.73,-45.86 89.61,-48.66 93.47,-51.45"/>
<polygon fill="green" stroke="green" stroke-width="0.35" points="91.62,-54.43 101.77,-57.46 95.72,-48.76 91.62,-54.43"/>
<text text-anchor="middle" x="93.38" y="-42.82" font-family="Times,serif" font-size="5.00">1.242</text>
</g>
<!-- 11786 -->
<g id="node14" class="node">
<title>11786</title>
<ellipse fill="white" stroke="black" cx="219.85" cy="-214.89" rx="27.45" ry="27.45"/>
<text text-anchor="middle" x="219.85" y="-212.19" font-family="Times,serif" font-size="9.00">11786</text>
</g>
<!-- 11784&#45;&gt;11786 -->
<g id="edge9" class="edge">
<title>11784&#45;&gt;11786</title>
<path fill="none" stroke="green" stroke-width="0.35" d="M238.77,-260.52C237.33,-257.05 235.84,-253.45 234.35,-249.85"/>
<polygon fill="green" stroke="green" stroke-width="0.35" points="237.51,-248.34 230.44,-240.44 231.04,-251.02 237.51,-248.34"/>
<text text-anchor="middle" x="230.93" y="-250.68" font-family="Times,serif" font-size="5.00">1.242</text>
</g>
<!-- 10688&#45;&gt;0 -->
<g id="edge14" class="edge">
<title>10688&#45;&gt;0</title>
<path fill="none" stroke="green" stroke-width="0.17" stroke-dasharray="1,5" d="M124.42,-155.9C124.55,-155.97 124.67,-156.04 124.8,-156.11"/>
<polygon fill="green" stroke="green" stroke-width="0.17" points="119.96,-157.41 130.39,-159.26 123.4,-151.31 119.96,-157.41"/>
<text text-anchor="middle" x="130.23" y="-157.51" font-family="Times,serif" font-size="5.00">0.333</text>
</g>
<!-- 11781&#45;&gt;0 -->
<g id="edge15" class="edge">
<title>11781&#45;&gt;0</title>
<path fill="none" stroke="green" stroke-width="0.17" stroke-dasharray="1,5" d="M201.42,-155.24C192.98,-157.27 183.62,-159.52 175.06,-161.58"/>
<polygon fill="green" stroke="green" stroke-width="0.17" points="174.04,-158.23 165.13,-163.97 175.67,-165.03 174.04,-158.23"/>
<text text-anchor="middle" x="182.61" y="-159.91" font-family="Times,serif" font-size="5.00">0.333</text>
</g>
<!-- 11782&#45;&gt;0 -->
<g id="edge16" class="edge">
<title>11782&#45;&gt;0</title>
<path fill="none" stroke="green" stroke-width="0.17" stroke-dasharray="1,5" d="M194.09,-114.91C185.34,-124.78 174.85,-136.61 165.97,-146.63"/>
<polygon fill="green" stroke="green" stroke-width="0.17" points="163.27,-144.4 159.26,-154.2 168.51,-149.04 163.27,-144.4"/>
<text text-anchor="middle" x="174.41" y="-132.27" font-family="Times,serif" font-size="5.00">0.333</text>
</g>
<!-- 11780&#45;&gt;0 -->
<g id="edge17" class="edge">
<title>11780&#45;&gt;0</title>
<path fill="none" stroke="green" stroke-width="0.17" stroke-dasharray="1,5" d="M114.9,-218.92C120.13,-210.6 126.04,-201.21 131.32,-192.81"/>
<polygon fill="green" stroke="green" stroke-width="0.17" points="134.39,-194.51 136.75,-184.18 128.46,-190.78 134.39,-194.51"/>
<text text-anchor="middle" x="117.49" y="-207.37" font-family="Times,serif" font-size="5.00">0.333</text>
</g>
<!-- 11785&#45;&gt;0 -->
<g id="edge18" class="edge">
<title>11785&#45;&gt;0</title>
<path fill="none" stroke="green" stroke-width="0.17" stroke-dasharray="1,5" d="M130.43,-100.27C133.41,-112.77 136.95,-127.66 139.97,-140.33"/>
<polygon fill="green" stroke="green" stroke-width="0.17" points="136.63,-141.43 142.35,-150.34 143.44,-139.81 136.63,-141.43"/>
<text text-anchor="middle" x="140.82" y="-121.8" font-family="Times,serif" font-size="5.00">0.333</text>
</g>
<!-- 11786&#45;&gt;0 -->
<g id="edge19" class="edge">
<title>11786&#45;&gt;0</title>
<path fill="none" stroke="green" stroke-width="0.17" stroke-dasharray="1,5" d="M196.69,-200.19C188.57,-195.03 179.43,-189.22 171.2,-184"/>
<polygon fill="green" stroke="green" stroke-width="0.17" points="173.04,-181.02 162.72,-178.62 169.28,-186.93 173.04,-181.02"/>
<text text-anchor="middle" x="178.32" y="-193.59" font-family="Times,serif" font-size="5.00">0.333</text>
</g>
</g>
</svg>
