<?xml version="1.0" encoding="UTF-8" standalone="no"?>
<!DOCTYPE svg PUBLIC "-//W3C//DTD SVG 1.1//EN"
 "http://www.w3.org/Graphics/SVG/1.1/DTD/svg11.dtd">
<!-- Generated by graphviz version 2.30.1 (20201013.1554)
 -->
<!-- Title: %3 Pages: 1 -->
<svg width="542pt" height="367pt"
 viewBox="0.00 0.00 541.65 366.55" xmlns="http://www.w3.org/2000/svg" xmlns:xlink="http://www.w3.org/1999/xlink">
<g id="graph0" class="graph" transform="scale(1 1) rotate(0) translate(4 362.552)">
<title>%3</title>
<polygon fill="white" stroke="white" points="-4,5 -4,-362.552 538.648,-362.552 538.648,5 -4,5"/>
<!-- &#45;1 -->
<g id="node1" class="node"><title>&#45;1</title>
<polygon fill="lightgray" stroke="black" points="209.844,-200.22 183.844,-200.22 183.844,-182.22 209.844,-182.22 209.844,-200.22"/>
<text text-anchor="middle" x="196.844" y="-189.02" font-family="Times,serif" font-size="9.00">&#45;1</text>
</g>
<!-- 8119 -->
<g id="node19" class="node"><title>8119</title>
<ellipse fill="white" stroke="black" cx="268.331" cy="-163.488" rx="42.3593" ry="42.3593"/>
<ellipse fill="none" stroke="black" cx="268.331" cy="-163.488" rx="46.3529" ry="46.3529"/>
<text text-anchor="middle" x="268.331" y="-161.288" font-family="Times,serif" font-size="9.00">heaviside</text>
</g>
<!-- &#45;1&#45;&gt;8119 -->
<g id="edge17" class="edge"><title>&#45;1&#45;&gt;8119</title>
<path fill="none" stroke="green" stroke-width="0.181973" d="M209.955,-186.134C211.588,-185.501 213.327,-184.826 215.147,-184.12"/>
<polygon fill="green" stroke="green" points="216.726,-187.262 224.783,-180.382 214.194,-180.735 216.726,-187.262"/>
<text text-anchor="middle" x="219.551" y="-187.127" font-family="Times,serif" font-size="5.00">0.410</text>
</g>
<!-- 8934 -->
<g id="node24" class="node"><title>8934</title>
<ellipse fill="white" stroke="black" cx="261.466" cy="-237.435" rx="37.4556" ry="37.4556"/>
<ellipse fill="none" stroke="black" cx="261.466" cy="-237.435" rx="41.4533" ry="41.4533"/>
<text text-anchor="middle" x="261.466" y="-235.235" font-family="Times,serif" font-size="9.00">sigmoid</text>
</g>
<!-- &#45;1&#45;&gt;8934 -->
<g id="edge20" class="edge"><title>&#45;1&#45;&gt;8934</title>
<path fill="none" stroke="red" stroke-width="0.122502" stroke-dasharray="1,5" d="M209.611,-200.351C212.549,-202.452 215.832,-204.8 219.282,-207.267"/>
<polygon fill="red" stroke="red" points="217.378,-210.208 227.548,-213.179 221.45,-204.515 217.378,-210.208"/>
<text text-anchor="middle" x="206.446" y="-205.809" font-family="Times,serif" font-size="5.00">&#45;0.113</text>
</g>
<!-- 10042 -->
<g id="node21" class="node"><title>10042</title>
<ellipse fill="white" stroke="black" cx="176.408" cy="-220.406" rx="42.3529" ry="42.3529"/>
<text text-anchor="middle" x="176.408" y="-218.206" font-family="Times,serif" font-size="9.00">heaviside</text>
</g>
<!-- &#45;1&#45;&gt;10042 -->
<g id="edge21" class="edge"><title>&#45;1&#45;&gt;10042</title>
<path fill="none" stroke="red" stroke-width="0.26983" d="M190.378,-200.455C190.331,-200.522 190.284,-200.589 190.237,-200.656"/>
<polygon fill="red" stroke="red" points="192.966,-190.657 190.096,-200.858 198.7,-194.674 192.966,-190.657"/>
<text text-anchor="middle" x="182.307" y="-202.555" font-family="Times,serif" font-size="5.00">&#45;0.849</text>
</g>
<!-- 10181 -->
<g id="node22" class="node"><title>10181</title>
<ellipse fill="white" stroke="black" cx="127.417" cy="-167.413" rx="26.7407" ry="26.7407"/>
<text text-anchor="middle" x="127.417" y="-165.213" font-family="Times,serif" font-size="9.00">tanh</text>
</g>
<!-- &#45;1&#45;&gt;10181 -->
<g id="edge25" class="edge"><title>&#45;1&#45;&gt;10181</title>
<path fill="none" stroke="green" stroke-width="0.367159" stroke-dasharray="1,5" d="M183.785,-186.742C177.709,-184.659 170.159,-182.07 162.581,-179.471"/>
<polygon fill="green" stroke="green" points="163.67,-176.144 153.075,-176.211 161.399,-182.766 163.67,-176.144"/>
<text text-anchor="middle" x="166.183" y="-185.107" font-family="Times,serif" font-size="5.00">1.336</text>
</g>
<!-- 10123 -->
<g id="node7" class="node"><title>10123</title>
<ellipse fill="white" stroke="black" cx="205.079" cy="-117.734" rx="37.4533" ry="37.4533"/>
<text text-anchor="middle" x="205.079" y="-115.534" font-family="Times,serif" font-size="9.00">identity</text>
</g>
<!-- &#45;1&#45;&gt;10123 -->
<g id="edge33" class="edge"><title>&#45;1&#45;&gt;10123</title>
<path fill="none" stroke="green" stroke-width="0.12627" d="M197.853,-182.21C198.361,-177.682 199.019,-171.812 199.73,-165.46"/>
<polygon fill="green" stroke="green" points="203.244,-165.532 200.88,-155.204 196.288,-164.752 203.244,-165.532"/>
<text text-anchor="middle" x="191.792" y="-169.835" font-family="Times,serif" font-size="5.00">0.131</text>
</g>
<!-- 11399 -->
<g id="node6" class="node"><title>11399</title>
<ellipse fill="white" stroke="black" cx="109.627" cy="-230.62" rx="26.7407" ry="26.7407"/>
<text text-anchor="middle" x="109.627" y="-228.42" font-family="Times,serif" font-size="9.00">tanh</text>
</g>
<!-- &#45;1&#45;&gt;11399 -->
<g id="edge34" class="edge"><title>&#45;1&#45;&gt;11399</title>
<path fill="none" stroke="green" stroke-width="0.403834" stroke-dasharray="1,5" d="M183.597,-197.204C172.988,-201.997 157.62,-208.939 143.637,-215.256"/>
<polygon fill="green" stroke="green" points="141.926,-212.188 134.253,-219.495 144.808,-218.568 141.926,-212.188"/>
<text text-anchor="middle" x="156.617" y="-208.23" font-family="Times,serif" font-size="5.00">1.519</text>
</g>
<!-- &#45;2 -->
<g id="node2" class="node"><title>&#45;2</title>
<polygon fill="lightgray" stroke="black" points="431.68,-214.082 405.68,-214.082 405.68,-196.082 431.68,-196.082 431.68,-214.082"/>
<text text-anchor="middle" x="418.68" y="-202.882" font-family="Times,serif" font-size="9.00">&#45;2</text>
</g>
<!-- 0 -->
<g id="node5" class="node"><title>0</title>
<ellipse fill="lightblue" stroke="black" cx="334.623" cy="-186.78" rx="16.0303" ry="16.0303"/>
<text text-anchor="middle" x="334.623" y="-184.58" font-family="Times,serif" font-size="9.00">0</text>
</g>
<!-- &#45;2&#45;&gt;0 -->
<g id="edge1" class="edge"><title>&#45;2&#45;&gt;0</title>
<path fill="none" stroke="green" stroke-width="0.462234" d="M405.546,-202.222C393.582,-199.617 375.563,-195.694 360.682,-192.454"/>
<polygon fill="green" stroke="green" points="361.048,-188.952 350.532,-190.244 359.558,-195.791 361.048,-188.952"/>
<text text-anchor="middle" x="376.114" y="-199.338" font-family="Times,serif" font-size="5.00">1.811</text>
</g>
<!-- 6818 -->
<g id="node10" class="node"><title>6818</title>
<ellipse fill="white" stroke="black" cx="391.146" cy="-153.371" rx="42.3593" ry="42.3593"/>
<ellipse fill="none" stroke="black" cx="391.146" cy="-153.371" rx="46.3529" ry="46.3529"/>
<text text-anchor="middle" x="391.146" y="-151.171" font-family="Times,serif" font-size="9.00">heaviside</text>
</g>
<!-- &#45;2&#45;&gt;6818 -->
<g id="edge7" class="edge"><title>&#45;2&#45;&gt;6818</title>
<path fill="none" stroke="green" stroke-width="0.389187" d="M413.884,-196.075C413.822,-195.959 413.76,-195.842 413.698,-195.725"/>
<polygon fill="green" stroke="green" points="420.914,-201.83 413.125,-194.649 414.736,-205.12 420.914,-201.83"/>
<text text-anchor="middle" x="406.791" y="-191.9" font-family="Times,serif" font-size="5.00">1.446</text>
</g>
<!-- 9062 -->
<g id="node25" class="node"><title>9062</title>
<ellipse fill="white" stroke="black" cx="460.88" cy="-155.492" rx="37.4533" ry="37.4533"/>
<text text-anchor="middle" x="460.88" y="-153.292" font-family="Times,serif" font-size="9.00">sigmoid</text>
</g>
<!-- &#45;2&#45;&gt;9062 -->
<g id="edge11" class="edge"><title>&#45;2&#45;&gt;9062</title>
<path fill="none" stroke="red" stroke-width="0.563323" d="M426.42,-195.986C427.526,-194.686 428.716,-193.288 429.965,-191.821"/>
<polygon fill="red" stroke="red" points="432.773,-193.922 436.588,-184.038 427.442,-189.385 432.773,-193.922"/>
<text text-anchor="middle" x="436.192" y="-195.903" font-family="Times,serif" font-size="5.00">&#45;2.317</text>
</g>
<!-- 13859 -->
<g id="node11" class="node"><title>13859</title>
<ellipse fill="white" stroke="black" cx="496.172" cy="-211.397" rx="37.4533" ry="37.4533"/>
<text text-anchor="middle" x="496.172" y="-209.197" font-family="Times,serif" font-size="9.00">sigmoid</text>
</g>
<!-- &#45;2&#45;&gt;13859 -->
<g id="edge53" class="edge"><title>&#45;2&#45;&gt;13859</title>
<path fill="none" stroke="green" stroke-width="0.3" d="M431.825,-206.153C436.583,-206.541 442.274,-207.005 448.275,-207.494"/>
<polygon fill="green" stroke="green" points="448.306,-211.008 458.557,-208.332 448.875,-204.031 448.306,-211.008"/>
<text text-anchor="middle" x="447.05" y="-208.823" font-family="Times,serif" font-size="5.00">1.000</text>
</g>
<!-- &#45;3 -->
<g id="node3" class="node"><title>&#45;3</title>
<polygon fill="lightgray" stroke="black" points="293.417,-109.165 267.417,-109.165 267.417,-91.1649 293.417,-91.1649 293.417,-109.165"/>
<text text-anchor="middle" x="280.417" y="-97.9649" font-family="Times,serif" font-size="9.00">&#45;3</text>
</g>
<!-- &#45;3&#45;&gt;0 -->
<g id="edge2" class="edge"><title>&#45;3&#45;&gt;0</title>
<path fill="none" stroke="red" stroke-width="0.744708" stroke-dasharray="1,5" d="M286.218,-109.434C294.312,-122.367 309.252,-146.24 320.402,-164.057"/>
<polygon fill="red" stroke="red" points="317.559,-166.111 325.831,-172.731 323.493,-162.398 317.559,-166.111"/>
<text text-anchor="middle" x="307.31" y="-132.745" font-family="Times,serif" font-size="5.00">&#45;3.224</text>
</g>
<!-- 5909 -->
<g id="node9" class="node"><title>5909</title>
<ellipse fill="white" stroke="black" cx="277.794" cy="-39.9689" rx="37.4533" ry="37.4533"/>
<text text-anchor="middle" x="277.794" y="-37.7689" font-family="Times,serif" font-size="9.00">identity</text>
</g>
<!-- &#45;3&#45;&gt;5909 -->
<g id="edge6" class="edge"><title>&#45;3&#45;&gt;5909</title>
<path fill="none" stroke="red" stroke-width="0.549996" stroke-dasharray="1,5" d="M280.019,-91.0224C279.972,-89.9494 279.922,-88.8058 279.87,-87.605"/>
<polygon fill="red" stroke="red" points="283.362,-87.3393 279.43,-77.5012 276.368,-87.6441 283.362,-87.3393"/>
<text text-anchor="middle" x="271.944" y="-85.3137" font-family="Times,serif" font-size="5.00">&#45;2.250</text>
</g>
<!-- &#45;3&#45;&gt;10123 -->
<g id="edge23" class="edge"><title>&#45;3&#45;&gt;10123</title>
<path fill="none" stroke="red" stroke-width="0.729715" d="M267.294,-103.225C262.703,-104.296 257.25,-105.568 251.509,-106.906"/>
<polygon fill="red" stroke="red" points="250.623,-103.519 241.679,-109.199 252.212,-110.336 250.623,-103.519"/>
<text text-anchor="middle" x="267.402" y="-107.066" font-family="Times,serif" font-size="5.00">&#45;3.149</text>
</g>
<!-- 10233 -->
<g id="node28" class="node"><title>10233</title>
<ellipse fill="white" stroke="black" cx="228.949" cy="-27.7779" rx="26.7407" ry="26.7407"/>
<text text-anchor="middle" x="228.949" y="-25.5779" font-family="Times,serif" font-size="9.00">tanh</text>
</g>
<!-- &#45;3&#45;&gt;10233 -->
<g id="edge27" class="edge"><title>&#45;3&#45;&gt;10233</title>
<path fill="none" stroke="red" stroke-width="0.405512" stroke-dasharray="1,5" d="M273.899,-90.9971C268.022,-82.7315 259.038,-70.0969 250.643,-58.2898"/>
<polygon fill="red" stroke="red" points="253.335,-56.0346 244.687,-49.9128 247.63,-60.0909 253.335,-56.0346"/>
<text text-anchor="middle" x="270.271" y="-76.6434" font-family="Times,serif" font-size="5.00">&#45;1.528</text>
</g>
<!-- &#45;4 -->
<g id="node4" class="node"><title>&#45;4</title>
<polygon fill="lightgray" stroke="black" points="225.933,-298.379 199.933,-298.379 199.933,-280.379 225.933,-280.379 225.933,-298.379"/>
<text text-anchor="middle" x="212.933" y="-287.179" font-family="Times,serif" font-size="9.00">&#45;4</text>
</g>
<!-- &#45;4&#45;&gt;10042 -->
<g id="edge30" class="edge"><title>&#45;4&#45;&gt;10042</title>
<path fill="none" stroke="green" stroke-width="0.2615" stroke-dasharray="1,5" d="M208.158,-280.362C206.224,-276.711 203.835,-272.198 201.241,-267.301"/>
<polygon fill="green" stroke="green" points="204.18,-265.371 196.407,-258.172 197.994,-268.647 204.18,-265.371"/>
<text text-anchor="middle" x="197.699" y="-275.832" font-family="Times,serif" font-size="5.00">0.807</text>
</g>
<!-- &#45;4&#45;&gt;8934 -->
<g id="edge32" class="edge"><title>&#45;4&#45;&gt;8934</title>
<path fill="none" stroke="green" stroke-width="0.408547" stroke-dasharray="1,5" d="M221.386,-280.331C222.86,-278.754 224.471,-277.03 226.174,-275.207"/>
<polygon fill="green" stroke="green" points="228.833,-277.489 233.102,-267.792 223.718,-272.71 228.833,-277.489"/>
<text text-anchor="middle" x="216.78" y="-273.769" font-family="Times,serif" font-size="5.00">1.543</text>
</g>
<!-- 12143 -->
<g id="node27" class="node"><title>12143</title>
<ellipse fill="white" stroke="black" cx="270.746" cy="-321.076" rx="37.4533" ry="37.4533"/>
<text text-anchor="middle" x="270.746" y="-318.876" font-family="Times,serif" font-size="9.00">sigmoid</text>
</g>
<!-- &#45;4&#45;&gt;12143 -->
<g id="edge39" class="edge"><title>&#45;4&#45;&gt;12143</title>
<path fill="none" stroke="green" stroke-width="0.199184" d="M226.051,-296.572C226.809,-296.987 227.588,-297.414 228.384,-297.851"/>
<polygon fill="green" stroke="green" points="226.984,-301.074 237.435,-302.813 230.349,-294.936 226.984,-301.074"/>
<text text-anchor="middle" x="220.218" y="-299.211" font-family="Times,serif" font-size="5.00">0.496</text>
</g>
<!-- 13648 -->
<g id="node23" class="node"><title>13648</title>
<ellipse fill="white" stroke="black" cx="144.155" cy="-298.823" rx="37.4556" ry="37.4556"/>
<ellipse fill="none" stroke="black" cx="144.155" cy="-298.823" rx="41.4533" ry="41.4533"/>
<text text-anchor="middle" x="144.155" y="-296.623" font-family="Times,serif" font-size="9.00">sigmoid</text>
</g>
<!-- &#45;4&#45;&gt;13648 -->
<g id="edge51" class="edge"><title>&#45;4&#45;&gt;13648</title>
<path fill="none" stroke="green" stroke-width="0.400266" d="M199.671,-291.2C198.354,-291.381 196.969,-291.571 195.531,-291.768"/>
<polygon fill="green" stroke="green" points="194.859,-288.328 185.429,-293.156 195.812,-295.263 194.859,-288.328"/>
<text text-anchor="middle" x="190.601" y="-293.484" font-family="Times,serif" font-size="5.00">1.501</text>
</g>
<!-- 0&#45;&gt;6818 -->
<g id="edge4" class="edge"><title>0&#45;&gt;6818</title>
<path fill="none" stroke="red" stroke-width="0.327052" d="M348.886,-178.35C349.049,-178.253 349.214,-178.156 349.379,-178.058"/>
<polygon fill="red" stroke="red" points="344.058,-185.269 350.886,-177.167 340.496,-179.243 344.058,-185.269"/>
<text text-anchor="middle" x="357.132" y="-180.204" font-family="Times,serif" font-size="5.00">&#45;1.135</text>
</g>
<!-- 0&#45;&gt;8119 -->
<g id="edge8" class="edge"><title>0&#45;&gt;8119</title>
<path fill="none" stroke="red" stroke-width="0.886403" d="M319.247,-181.378C319.109,-181.329 318.969,-181.28 318.83,-181.231"/>
<polygon fill="red" stroke="red" points="322.797,-178.915 312.202,-178.903 320.477,-185.52 322.797,-178.915"/>
<text text-anchor="middle" x="327.038" y="-183.305" font-family="Times,serif" font-size="5.00">&#45;3.932</text>
</g>
<!-- 0&#45;&gt;8934 -->
<g id="edge9" class="edge"><title>0&#45;&gt;8934</title>
<path fill="none" stroke="red" stroke-width="0.130594" stroke-dasharray="1,5" d="M321.205,-196.071C316.27,-199.488 310.38,-203.566 304.251,-207.81"/>
<polygon fill="red" stroke="red" points="302.041,-205.083 295.812,-213.654 306.026,-210.838 302.041,-205.083"/>
<text text-anchor="middle" x="304.728" y="-203.941" font-family="Times,serif" font-size="5.00">&#45;0.153</text>
</g>
<!-- 9526 -->
<g id="node18" class="node"><title>9526</title>
<ellipse fill="white" stroke="black" cx="395.945" cy="-225.319" rx="37.4556" ry="37.4556"/>
<ellipse fill="none" stroke="black" cx="395.945" cy="-225.319" rx="41.4533" ry="41.4533"/>
<text text-anchor="middle" x="395.945" y="-223.119" font-family="Times,serif" font-size="9.00">sigmoid</text>
</g>
<!-- 0&#45;&gt;9526 -->
<g id="edge15" class="edge"><title>0&#45;&gt;9526</title>
<path fill="none" stroke="green" stroke-width="0.268026" stroke-dasharray="1,5" d="M348.537,-195.525C349.686,-196.247 350.88,-196.997 352.108,-197.769"/>
<polygon fill="green" stroke="green" points="350.283,-200.756 360.612,-203.114 354.008,-194.829 350.283,-200.756"/>
<text text-anchor="middle" x="357.323" y="-198.647" font-family="Times,serif" font-size="5.00">0.840</text>
</g>
<!-- 9776 -->
<g id="node17" class="node"><title>9776</title>
<ellipse fill="white" stroke="black" cx="341.809" cy="-112.189" rx="37.4556" ry="37.4556"/>
<ellipse fill="none" stroke="black" cx="341.809" cy="-112.189" rx="41.4533" ry="41.4533"/>
<text text-anchor="middle" x="341.809" y="-109.989" font-family="Times,serif" font-size="9.00">identity</text>
</g>
<!-- 0&#45;&gt;9776 -->
<g id="edge18" class="edge"><title>0&#45;&gt;9776</title>
<path fill="none" stroke="green" stroke-width="0.303921" stroke-dasharray="1,5" d="M336.218,-170.226C336.412,-168.203 336.619,-166.061 336.833,-163.839"/>
<polygon fill="green" stroke="green" points="340.334,-163.993 337.809,-153.704 333.366,-163.322 340.334,-163.993"/>
<text text-anchor="middle" x="329.525" y="-163.033" font-family="Times,serif" font-size="5.00">1.020</text>
</g>
<!-- 11399&#45;&gt;10181 -->
<g id="edge35" class="edge"><title>11399&#45;&gt;10181</title>
<path fill="none" stroke="green" stroke-width="0.305123" stroke-dasharray="1,5" d="M116.966,-204.546C117.095,-204.087 117.224,-203.626 117.354,-203.164"/>
<polygon fill="green" stroke="green" points="120.755,-204.001 120.095,-193.426 114.017,-202.104 120.755,-204.001"/>
<text text-anchor="middle" x="110.16" y="-199.855" font-family="Times,serif" font-size="5.00">1.026</text>
</g>
<!-- 10123&#45;&gt;5909 -->
<g id="edge24" class="edge"><title>10123&#45;&gt;5909</title>
<path fill="none" stroke="green" stroke-width="0.252589" stroke-dasharray="1,5" d="M230.92,-90.0983C235.528,-85.1706 240.382,-79.9792 245.15,-74.8799"/>
<polygon fill="green" stroke="green" points="247.763,-77.2108 252.036,-67.5161 242.65,-72.4299 247.763,-77.2108"/>
<text text-anchor="middle" x="231.035" y="-84.4891" font-family="Times,serif" font-size="5.00">0.763</text>
</g>
<!-- 10123&#45;&gt;8119 -->
<g id="edge43" class="edge"><title>10123&#45;&gt;8119</title>
<path fill="none" stroke="green" stroke-width="0.158261" d="M235.593,-139.807C235.656,-139.853 235.719,-139.899 235.783,-139.944"/>
<polygon fill="green" stroke="green" points="225.817,-137.055 235.972,-140.081 229.921,-131.383 225.817,-137.055"/>
<text text-anchor="middle" x="228.688" y="-141.876" font-family="Times,serif" font-size="5.00">0.291</text>
</g>
<!-- 10123&#45;&gt;10181 -->
<g id="edge48" class="edge"><title>10123&#45;&gt;10181</title>
<path fill="none" stroke="green" stroke-width="0.54331" d="M173.491,-137.94C168.661,-141.03 163.677,-144.218 158.851,-147.305"/>
<polygon fill="green" stroke="green" points="156.941,-144.372 150.403,-152.709 160.713,-150.269 156.941,-144.372"/>
<text text-anchor="middle" x="159.171" y="-144.623" font-family="Times,serif" font-size="5.00">2.217</text>
</g>
<!-- 13487 -->
<g id="node15" class="node"><title>13487</title>
<ellipse fill="white" stroke="black" cx="116.926" cy="-96.23" rx="42.3529" ry="42.3529"/>
<text text-anchor="middle" x="116.926" y="-94.03" font-family="Times,serif" font-size="9.00">heaviside</text>
</g>
<!-- 10123&#45;&gt;13487 -->
<g id="edge49" class="edge"><title>10123&#45;&gt;13487</title>
<path fill="none" stroke="green" stroke-width="0.382053" stroke-dasharray="1,5" d="M168.46,-108.801C168.356,-108.776 168.253,-108.751 168.149,-108.726"/>
<polygon fill="green" stroke="green" points="168.974,-105.325 158.43,-106.355 167.315,-112.125 168.974,-105.325"/>
<text text-anchor="middle" x="175.304" y="-110.764" font-family="Times,serif" font-size="5.00">1.410</text>
</g>
<!-- 4370 -->
<g id="node8" class="node"><title>4370</title>
<ellipse fill="white" stroke="black" cx="168.254" cy="-106.108" rx="42.3593" ry="42.3593"/>
<ellipse fill="none" stroke="black" cx="168.254" cy="-106.108" rx="46.3529" ry="46.3529"/>
<text text-anchor="middle" x="168.254" y="-103.908" font-family="Times,serif" font-size="9.00">heaviside</text>
</g>
<!-- 4370&#45;&gt;10233 -->
<g id="edge41" class="edge"><title>4370&#45;&gt;10233</title>
<path fill="none" stroke="red" stroke-width="0.213416" d="M196.825,-69.2368C199.882,-65.291 202.963,-61.3141 205.944,-57.467"/>
<polygon fill="red" stroke="red" points="208.903,-59.3633 212.261,-49.3148 203.369,-55.0758 208.903,-59.3633"/>
<text text-anchor="middle" x="193.384" y="-59.3519" font-family="Times,serif" font-size="5.00">&#45;0.567</text>
</g>
<!-- 5909&#45;&gt;5909 -->
<g id="edge3" class="edge"><title>5909&#45;&gt;5909</title>
<path fill="none" stroke="red" stroke-width="0.368604" stroke-dasharray="1,5" d="M314.869,-46.6855C325.28,-46.3913 333.271,-44.1525 333.271,-39.9689 333.271,-37.2888 329.991,-35.4068 324.897,-34.3229"/>
<polygon fill="red" stroke="red" points="325.184,-30.8337 314.869,-33.2522 324.441,-37.7941 325.184,-30.8337"/>
<text text-anchor="middle" x="341.271" y="-38.9689" font-family="Times,serif" font-size="5.00">&#45;1.343</text>
</g>
<!-- 6181 -->
<g id="node13" class="node"><title>6181</title>
<ellipse fill="white" stroke="black" cx="301.417" cy="-172.325" rx="42.3529" ry="42.3529"/>
<text text-anchor="middle" x="301.417" y="-170.125" font-family="Times,serif" font-size="9.00">heaviside</text>
</g>
<!-- 6818&#45;&gt;6181 -->
<g id="edge5" class="edge"><title>6818&#45;&gt;6181</title>
<path fill="none" stroke="red" stroke-width="0.430294" d="M345.493,-163.015C345.395,-163.035 345.298,-163.056 345.201,-163.076"/>
<polygon fill="red" stroke="red" points="352.217,-158.017 343.157,-163.508 353.664,-164.865 352.217,-158.017"/>
<text text-anchor="middle" x="353.347" y="-165.046" font-family="Times,serif" font-size="5.00">&#45;1.651</text>
</g>
<!-- 13859&#45;&gt;9062 -->
<g id="edge54" class="edge"><title>13859&#45;&gt;9062</title>
<path fill="none" stroke="red" stroke-width="0.49261" d="M476.051,-179.525C476.02,-179.476 475.99,-179.427 475.959,-179.378"/>
<polygon fill="red" stroke="red" points="484.167,-185.819 475.866,-179.231 478.247,-189.557 484.167,-185.819"/>
<text text-anchor="middle" x="468.005" y="-181.451" font-family="Times,serif" font-size="5.00">&#45;1.963</text>
</g>
<!-- 13092 -->
<g id="node12" class="node"><title>13092</title>
<ellipse fill="white" stroke="black" cx="41.4767" cy="-166.82" rx="37.4556" ry="37.4556"/>
<ellipse fill="none" stroke="black" cx="41.4767" cy="-166.82" rx="41.4533" ry="41.4533"/>
<text text-anchor="middle" x="41.4767" y="-164.62" font-family="Times,serif" font-size="9.00">sigmoid</text>
</g>
<!-- 13092&#45;&gt;10181 -->
<g id="edge45" class="edge"><title>13092&#45;&gt;10181</title>
<path fill="none" stroke="green" stroke-width="0.17784" d="M83.1883,-167.108C85.5511,-167.124 87.9191,-167.14 90.2635,-167.156"/>
<polygon fill="green" stroke="green" points="90.2787,-170.657 100.303,-167.226 90.327,-163.657 90.2787,-170.657"/>
<text text-anchor="middle" x="93.7259" y="-169.132" font-family="Times,serif" font-size="5.00">0.389</text>
</g>
<!-- 9136 -->
<g id="node16" class="node"><title>9136</title>
<ellipse fill="white" stroke="black" cx="232.111" cy="-85.9778" rx="26.7574" ry="26.7574"/>
<ellipse fill="none" stroke="black" cx="232.111" cy="-85.9778" rx="30.7407" ry="30.7407"/>
<text text-anchor="middle" x="232.111" y="-83.7778" font-family="Times,serif" font-size="9.00">tanh</text>
</g>
<!-- 6181&#45;&gt;9136 -->
<g id="edge13" class="edge"><title>6181&#45;&gt;9136</title>
<path fill="none" stroke="red" stroke-width="0.34737" d="M274.82,-139.188C269.278,-132.283 263.444,-125.015 257.931,-118.146"/>
<polygon fill="red" stroke="red" points="260.631,-115.918 251.642,-110.311 255.172,-120.3 260.631,-115.918"/>
<text text-anchor="middle" x="258.375" y="-124.667" font-family="Times,serif" font-size="5.00">&#45;1.237</text>
</g>
<!-- 12075 -->
<g id="node14" class="node"><title>12075</title>
<ellipse fill="white" stroke="black" cx="432.422" cy="-82.7053" rx="42.3593" ry="42.3593"/>
<ellipse fill="none" stroke="black" cx="432.422" cy="-82.7053" rx="46.3529" ry="46.3529"/>
<text text-anchor="middle" x="432.422" y="-80.5053" font-family="Times,serif" font-size="9.00">heaviside</text>
</g>
<!-- 12075&#45;&gt;6818 -->
<g id="edge38" class="edge"><title>12075&#45;&gt;6818</title>
<path fill="none" stroke="green" stroke-width="0.288504" stroke-dasharray="1,5" d="M408.89,-122.992C408.854,-123.054 408.818,-123.116 408.781,-123.178"/>
<polygon fill="green" stroke="green" points="410.696,-112.962 408.673,-123.364 416.741,-116.495 410.696,-112.962"/>
<text text-anchor="middle" x="401.836" y="-125.085" font-family="Times,serif" font-size="5.00">0.943</text>
</g>
<!-- 10297 -->
<g id="node20" class="node"><title>10297</title>
<ellipse fill="white" stroke="black" cx="362.095" cy="-37.4767" rx="37.4533" ry="37.4533"/>
<text text-anchor="middle" x="362.095" y="-35.2767" font-family="Times,serif" font-size="9.00">sigmoid</text>
</g>
<!-- 12075&#45;&gt;10297 -->
<g id="edge42" class="edge"><title>12075&#45;&gt;10297</title>
<path fill="none" stroke="green" stroke-width="0.304503" d="M393.146,-57.4462C393.083,-57.4058 393.02,-57.3653 392.958,-57.3249"/>
<polygon fill="green" stroke="green" points="403.074,-59.6708 392.769,-57.2036 399.287,-65.5588 403.074,-59.6708"/>
<text text-anchor="middle" x="386.052" y="-59.3856" font-family="Times,serif" font-size="5.00">1.023</text>
</g>
<!-- 13487&#45;&gt;10181 -->
<g id="edge50" class="edge"><title>13487&#45;&gt;10181</title>
<path fill="none" stroke="green" stroke-width="0.310381" stroke-dasharray="1,5" d="M123.15,-138.46C123.163,-138.55 123.176,-138.639 123.19,-138.729"/>
<polygon fill="green" stroke="green" points="118.545,-131.22 123.466,-140.603 125.47,-130.199 118.545,-131.22"/>
<text text-anchor="middle" x="116.17" y="-140.595" font-family="Times,serif" font-size="5.00">1.052</text>
</g>
<!-- 9136&#45;&gt;4370 -->
<g id="edge14" class="edge"><title>9136&#45;&gt;4370</title>
<path fill="none" stroke="red" stroke-width="0.621866" d="M202.426,-95.3359C202.361,-95.3564 202.296,-95.3769 202.231,-95.3975"/>
<polygon fill="red" stroke="red" points="210.519,-89.111 202.035,-95.4591 212.626,-95.7872 210.519,-89.111"/>
<text text-anchor="middle" x="194.328" y="-97.3667" font-family="Times,serif" font-size="5.00">&#45;2.609</text>
</g>
<!-- 13159 -->
<g id="node26" class="node"><title>13159</title>
<ellipse fill="white" stroke="black" cx="154.444" cy="-30.7012" rx="26.7407" ry="26.7407"/>
<text text-anchor="middle" x="154.444" y="-28.5012" font-family="Times,serif" font-size="9.00">tanh</text>
</g>
<!-- 9136&#45;&gt;13159 -->
<g id="edge46" class="edge"><title>9136&#45;&gt;13159</title>
<path fill="none" stroke="red" stroke-width="0.170449" d="M206.68,-67.8782C199.685,-62.8994 192.028,-57.4499 184.785,-52.2954"/>
<polygon fill="red" stroke="red" points="186.715,-49.3727 176.538,-46.4257 182.656,-55.0758 186.715,-49.3727"/>
<text text-anchor="middle" x="191.733" y="-56.0868" font-family="Times,serif" font-size="5.00">&#45;0.352</text>
</g>
<!-- 9776&#45;&gt;8119 -->
<g id="edge19" class="edge"><title>9776&#45;&gt;8119</title>
<path fill="none" stroke="red" stroke-width="0.146945" d="M307.651,-136.037C307.502,-136.141 307.352,-136.246 307.202,-136.351"/>
<polygon fill="red" stroke="red" points="312.947,-128.07 306.751,-136.665 316.955,-133.81 312.947,-128.07"/>
<text text-anchor="middle" x="299.427" y="-138.194" font-family="Times,serif" font-size="5.00">&#45;0.235</text>
</g>
<!-- 9526&#45;&gt;6818 -->
<g id="edge16" class="edge"><title>9526&#45;&gt;6818</title>
<path fill="none" stroke="red" stroke-width="0.159925" d="M393.181,-183.883C393.177,-183.821 393.172,-183.759 393.168,-183.696"/>
<polygon fill="red" stroke="red" points="397.319,-193.252 393.156,-183.509 390.334,-193.721 397.319,-193.252"/>
<text text-anchor="middle" x="385.175" y="-179.79" font-family="Times,serif" font-size="5.00">&#45;0.300</text>
</g>
<!-- 10297&#45;&gt;5909 -->
<g id="edge29" class="edge"><title>10297&#45;&gt;5909</title>
<path fill="none" stroke="green" stroke-width="0.602758" d="M324.383,-38.5916C324.29,-38.5943 324.197,-38.5971 324.104,-38.5998"/>
<polygon fill="green" stroke="green" points="325.303,-35.0627 315.411,-38.8568 325.51,-42.0597 325.303,-35.0627"/>
<text text-anchor="middle" x="317.243" y="-40.5957" font-family="Times,serif" font-size="5.00">2.514</text>
</g>
<!-- 10297&#45;&gt;9776 -->
<g id="edge36" class="edge"><title>10297&#45;&gt;9776</title>
<path fill="none" stroke="green" stroke-width="0.60207" stroke-dasharray="1,5" d="M352.19,-73.9576C352.17,-74.0316 352.15,-74.1057 352.13,-74.1798"/>
<polygon fill="green" stroke="green" points="351.315,-63.8331 352.069,-74.4021 358.071,-65.6696 351.315,-63.8331"/>
<text text-anchor="middle" x="345.16" y="-76.0687" font-family="Times,serif" font-size="5.00">2.510</text>
</g>
<!-- 10042&#45;&gt;8934 -->
<g id="edge22" class="edge"><title>10042&#45;&gt;8934</title>
<path fill="none" stroke="green" stroke-width="0.311756" stroke-dasharray="1,5" d="M218.439,-228.821C218.533,-228.84 218.627,-228.859 218.722,-228.878"/>
<polygon fill="green" stroke="green" points="210.206,-230.742 220.699,-229.273 211.581,-223.878 210.206,-230.742"/>
<text text-anchor="middle" x="225.58" y="-230.849" font-family="Times,serif" font-size="5.00">1.059</text>
</g>
<!-- 10042&#45;&gt;4370 -->
<g id="edge44" class="edge"><title>10042&#45;&gt;4370</title>
<path fill="none" stroke="red" stroke-width="0.331025" stroke-dasharray="1,5" d="M173.372,-177.846C173.023,-172.947 172.662,-167.894 172.302,-162.846"/>
<polygon fill="red" stroke="red" points="175.77,-162.267 171.567,-152.541 168.788,-162.765 175.77,-162.267"/>
<text text-anchor="middle" x="164.837" y="-172.346" font-family="Times,serif" font-size="5.00">&#45;1.155</text>
</g>
<!-- 10181&#45;&gt;10042 -->
<g id="edge26" class="edge"><title>10181&#45;&gt;10042</title>
<path fill="none" stroke="red" stroke-width="0.295649" stroke-dasharray="1,5" d="M145.66,-187.145C145.796,-187.293 145.932,-187.44 146.069,-187.588"/>
<polygon fill="red" stroke="red" points="137.946,-183.957 147.304,-188.924 143.086,-179.205 137.946,-183.957"/>
<text text-anchor="middle" x="137.864" y="-189.367" font-family="Times,serif" font-size="5.00">&#45;0.978</text>
</g>
<!-- 13648&#45;&gt;10042 -->
<g id="edge52" class="edge"><title>13648&#45;&gt;10042</title>
<path fill="none" stroke="red" stroke-width="0.12381" stroke-dasharray="1,5" d="M160.093,-260.074C160.124,-259.997 160.156,-259.919 160.188,-259.842"/>
<polygon fill="red" stroke="red" points="159.714,-270.192 160.283,-259.611 153.24,-267.527 159.714,-270.192"/>
<text text-anchor="middle" x="152.14" y="-255.958" font-family="Times,serif" font-size="5.00">&#45;0.119</text>
</g>
<!-- 8934&#45;&gt;6181 -->
<g id="edge10" class="edge"><title>8934&#45;&gt;6181</title>
<path fill="none" stroke="red" stroke-width="0.242394" stroke-dasharray="1,5" d="M283.312,-201.832C283.348,-201.773 283.385,-201.714 283.421,-201.654"/>
<polygon fill="red" stroke="red" points="281.282,-211.832 283.53,-201.476 275.315,-208.169 281.282,-211.832"/>
<text text-anchor="middle" x="275.367" y="-203.743" font-family="Times,serif" font-size="5.00">&#45;0.712</text>
</g>
<!-- 9062&#45;&gt;6818 -->
<g id="edge12" class="edge"><title>9062&#45;&gt;6818</title>
<path fill="none" stroke="red" stroke-width="0.174005" d="M423.155,-154.345C423.091,-154.343 423.027,-154.341 422.963,-154.339"/>
<polygon fill="red" stroke="red" points="432.874,-151.143 422.77,-154.333 432.658,-158.14 432.874,-151.143"/>
<text text-anchor="middle" x="415.059" y="-156.342" font-family="Times,serif" font-size="5.00">&#45;0.370</text>
</g>
<!-- 9062&#45;&gt;9526 -->
<g id="edge31" class="edge"><title>9062&#45;&gt;9526</title>
<path fill="none" stroke="green" stroke-width="0.256712" d="M435.216,-183.089C433.997,-184.4 432.765,-185.725 431.527,-187.056"/>
<polygon fill="green" stroke="green" points="428.667,-184.992 424.42,-194.698 433.793,-189.759 428.667,-184.992"/>
<text text-anchor="middle" x="440.371" y="-187.073" font-family="Times,serif" font-size="5.00">0.784</text>
</g>
<!-- 9062&#45;&gt;12075 -->
<g id="edge37" class="edge"><title>9062&#45;&gt;12075</title>
<path fill="none" stroke="red" stroke-width="0.35595" d="M447.151,-120.378C447.122,-120.305 447.094,-120.232 447.066,-120.16"/>
<polygon fill="red" stroke="red" points="453.884,-127.98 446.98,-119.941 447.364,-130.531 453.884,-127.98"/>
<text text-anchor="middle" x="455.108" y="-122.269" font-family="Times,serif" font-size="5.00">&#45;1.280</text>
</g>
<!-- 13159&#45;&gt;4370 -->
<g id="edge47" class="edge"><title>13159&#45;&gt;4370</title>
<path fill="none" stroke="red" stroke-width="0.443783" stroke-dasharray="1,5" d="M159.352,-57.4993C159.373,-57.6157 159.395,-57.7322 159.416,-57.849"/>
<polygon fill="red" stroke="red" points="154.624,-51.114 159.869,-60.3198 161.509,-49.8527 154.624,-51.114"/>
<text text-anchor="middle" x="167.384" y="-59.6741" font-family="Times,serif" font-size="5.00">&#45;1.719</text>
</g>
<!-- 12143&#45;&gt;8934 -->
<g id="edge40" class="edge"><title>12143&#45;&gt;8934</title>
<path fill="none" stroke="red" stroke-width="0.188852" stroke-dasharray="1,5" d="M266.594,-283.659C266.583,-283.556 266.572,-283.452 266.56,-283.349"/>
<polygon fill="red" stroke="red" points="270.624,-288.236 266.042,-278.683 263.667,-289.008 270.624,-288.236"/>
<text text-anchor="middle" x="258.577" y="-279.504" font-family="Times,serif" font-size="5.00">&#45;0.444</text>
</g>
<!-- 10233&#45;&gt;5909 -->
<g id="edge28" class="edge"><title>10233&#45;&gt;5909</title>
<path fill="none" stroke="red" stroke-width="0.364075" stroke-dasharray="1,5" d="M255.088,-34.3016C255.133,-34.313 255.178,-34.3243 255.224,-34.3356"/>
<polygon fill="red" stroke="red" points="244.808,-35.3385 255.36,-34.3696 246.507,-28.5467 244.808,-35.3385"/>
<text text-anchor="middle" x="263.156" y="-36.3186" font-family="Times,serif" font-size="5.00">&#45;1.320</text>
</g>
</g>
</svg>
