<?xml version="1.0" encoding="UTF-8" standalone="no"?>
<!DOCTYPE svg PUBLIC "-//W3C//DTD SVG 1.1//EN"
 "http://www.w3.org/Graphics/SVG/1.1/DTD/svg11.dtd">
<!-- Generated by graphviz version 2.30.1 (20201013.1554)
 -->
<!-- Title: %3 Pages: 1 -->
<svg width="401pt" height="417pt"
 viewBox="0.00 0.00 401.37 416.59" xmlns="http://www.w3.org/2000/svg" xmlns:xlink="http://www.w3.org/1999/xlink">
<g id="graph0" class="graph" transform="scale(1 1) rotate(0) translate(4 412.589)">
<title>%3</title>
<polygon fill="white" stroke="white" points="-4,5 -4,-412.589 398.366,-412.589 398.366,5 -4,5"/>
<!-- &#45;1 -->
<g id="node1" class="node"><title>&#45;1</title>
<polygon fill="lightgray" stroke="black" points="188.295,-408.589 162.295,-408.589 162.295,-390.589 188.295,-390.589 188.295,-408.589"/>
<text text-anchor="middle" x="175.295" y="-397.389" font-family="Times,serif" font-size="9.00">&#45;1</text>
</g>
<!-- 0 -->
<g id="node5" class="node"><title>0</title>
<ellipse fill="lightblue" stroke="black" cx="164.295" cy="-311.809" rx="16.0758" ry="16.0758"/>
<ellipse fill="none" stroke="black" cx="164.295" cy="-311.809" rx="20.0296" ry="20.0296"/>
<text text-anchor="middle" x="164.295" y="-309.609" font-family="Times,serif" font-size="9.00">0</text>
</g>
<!-- &#45;1&#45;&gt;0 -->
<g id="edge2" class="edge"><title>&#45;1&#45;&gt;0</title>
<path fill="none" stroke="green" stroke-width="0.368509" stroke-dasharray="1,5" d="M174.159,-390.526C172.741,-379.208 170.242,-359.267 168.114,-342.288"/>
<polygon fill="green" stroke="green" points="171.567,-341.69 166.851,-332.203 164.621,-342.561 171.567,-341.69"/>
<text text-anchor="middle" x="164.137" y="-368.407" font-family="Times,serif" font-size="5.00">1.343</text>
</g>
<!-- &#45;2 -->
<g id="node2" class="node"><title>&#45;2</title>
<polygon fill="lightgray" stroke="black" points="239.842,-279.35 213.842,-279.35 213.842,-261.35 239.842,-261.35 239.842,-279.35"/>
<text text-anchor="middle" x="226.842" y="-268.15" font-family="Times,serif" font-size="9.00">&#45;2</text>
</g>
<!-- &#45;2&#45;&gt;0 -->
<g id="edge1" class="edge"><title>&#45;2&#45;&gt;0</title>
<path fill="none" stroke="red" stroke-width="0.346088" d="M213.577,-279.142C206.731,-283.681 198.136,-289.377 190.051,-294.737"/>
<polygon fill="red" stroke="red" points="187.984,-291.908 181.583,-300.35 191.852,-297.742 187.984,-291.908"/>
<text text-anchor="middle" x="193.814" y="-288.94" font-family="Times,serif" font-size="5.00">&#45;1.230</text>
</g>
<!-- 7758 -->
<g id="node12" class="node"><title>7758</title>
<ellipse fill="white" stroke="black" cx="208.484" cy="-166.491" rx="26.7407" ry="26.7407"/>
<text text-anchor="middle" x="208.484" y="-164.291" font-family="Times,serif" font-size="9.00">tanh</text>
</g>
<!-- &#45;2&#45;&gt;7758 -->
<g id="edge14" class="edge"><title>&#45;2&#45;&gt;7758</title>
<path fill="none" stroke="green" stroke-width="0.39245" stroke-dasharray="1,5" d="M225.213,-261.133C222.931,-248.222 218.651,-224.01 214.992,-203.308"/>
<polygon fill="green" stroke="green" points="218.39,-202.425 213.203,-193.187 211.497,-203.644 218.39,-202.425"/>
<text text-anchor="middle" x="213.102" y="-234.22" font-family="Times,serif" font-size="5.00">1.462</text>
</g>
<!-- 9439 -->
<g id="node21" class="node"><title>9439</title>
<ellipse fill="white" stroke="black" cx="235.993" cy="-211.221" rx="37.4556" ry="37.4556"/>
<ellipse fill="none" stroke="black" cx="235.993" cy="-211.221" rx="41.4533" ry="41.4533"/>
<text text-anchor="middle" x="235.993" y="-209.021" font-family="Times,serif" font-size="9.00">identity</text>
</g>
<!-- &#45;2&#45;&gt;9439 -->
<g id="edge16" class="edge"><title>&#45;2&#45;&gt;9439</title>
<path fill="none" stroke="green" stroke-width="0.448565" stroke-dasharray="1,5" d="M228.272,-261.111C228.284,-261.03 228.297,-260.948 228.31,-260.866"/>
<polygon fill="green" stroke="green" points="231.567,-262.706 229.637,-252.288 224.649,-261.635 231.567,-262.706"/>
<text text-anchor="middle" x="221.291" y="-256.989" font-family="Times,serif" font-size="5.00">1.743</text>
</g>
<!-- 8283 -->
<g id="node19" class="node"><title>8283</title>
<ellipse fill="white" stroke="black" cx="138.689" cy="-256.594" rx="26.7407" ry="26.7407"/>
<text text-anchor="middle" x="138.689" y="-254.394" font-family="Times,serif" font-size="9.00">tanh</text>
</g>
<!-- &#45;2&#45;&gt;8283 -->
<g id="edge32" class="edge"><title>&#45;2&#45;&gt;8283</title>
<path fill="none" stroke="red" stroke-width="0.401881" d="M213.835,-268.32C203.683,-266.736 189.057,-264.454 175.402,-262.323"/>
<polygon fill="red" stroke="red" points="175.659,-258.821 165.239,-260.737 174.579,-265.737 175.659,-258.821"/>
<text text-anchor="middle" x="202.618" y="-267.322" font-family="Times,serif" font-size="5.00">&#45;1.509</text>
</g>
<!-- 9511 -->
<g id="node9" class="node"><title>9511</title>
<ellipse fill="white" stroke="black" cx="208.061" cy="-327.277" rx="42.3593" ry="42.3593"/>
<ellipse fill="none" stroke="black" cx="208.061" cy="-327.277" rx="46.3529" ry="46.3529"/>
<text text-anchor="middle" x="208.061" y="-325.077" font-family="Times,serif" font-size="9.00">heaviside</text>
</g>
<!-- &#45;2&#45;&gt;9511 -->
<g id="edge35" class="edge"><title>&#45;2&#45;&gt;9511</title>
<path fill="none" stroke="green" stroke-width="0.278012" d="M223.825,-279.496C223.778,-279.638 223.731,-279.78 223.683,-279.924"/>
<polygon fill="green" stroke="green" points="222.443,-272.512 222.634,-283.106 229.091,-274.706 222.443,-272.512"/>
<text text-anchor="middle" x="216.754" y="-281.71" font-family="Times,serif" font-size="5.00">0.890</text>
</g>
<!-- &#45;3 -->
<g id="node3" class="node"><title>&#45;3</title>
<polygon fill="lightgray" stroke="black" points="275.912,-120.006 249.912,-120.006 249.912,-102.006 275.912,-102.006 275.912,-120.006"/>
<text text-anchor="middle" x="262.912" y="-108.806" font-family="Times,serif" font-size="9.00">&#45;3</text>
</g>
<!-- 8087 -->
<g id="node16" class="node"><title>8087</title>
<ellipse fill="white" stroke="black" cx="295.69" cy="-41.4767" rx="37.4556" ry="37.4556"/>
<ellipse fill="none" stroke="black" cx="295.69" cy="-41.4767" rx="41.4533" ry="41.4533"/>
<text text-anchor="middle" x="295.69" y="-39.2767" font-family="Times,serif" font-size="9.00">sigmoid</text>
</g>
<!-- &#45;3&#45;&gt;8087 -->
<g id="edge8" class="edge"><title>&#45;3&#45;&gt;8087</title>
<path fill="none" stroke="green" stroke-width="0.453234" stroke-dasharray="1,5" d="M267.198,-101.917C268.955,-98.1896 271.131,-93.5731 273.492,-88.5645"/>
<polygon fill="green" stroke="green" points="276.793,-89.7711 277.891,-79.2333 270.461,-86.7861 276.793,-89.7711"/>
<text text-anchor="middle" x="263.345" y="-97.2406" font-family="Times,serif" font-size="5.00">1.766</text>
</g>
<!-- &#45;3&#45;&gt;7758 -->
<g id="edge15" class="edge"><title>&#45;3&#45;&gt;7758</title>
<path fill="none" stroke="red" stroke-width="0.126139" stroke-dasharray="1,5" d="M253.925,-120.169C248.692,-125.503 241.795,-132.534 234.96,-139.502"/>
<polygon fill="red" stroke="red" points="232.154,-137.364 227.649,-146.954 237.151,-142.266 232.154,-137.364"/>
<text text-anchor="middle" x="236.442" y="-131.835" font-family="Times,serif" font-size="5.00">&#45;0.131</text>
</g>
<!-- 10680 -->
<g id="node17" class="node"><title>10680</title>
<ellipse fill="white" stroke="black" cx="282.249" cy="-185.497" rx="26.7407" ry="26.7407"/>
<text text-anchor="middle" x="282.249" y="-183.297" font-family="Times,serif" font-size="9.00">tanh</text>
</g>
<!-- &#45;3&#45;&gt;10680 -->
<g id="edge21" class="edge"><title>&#45;3&#45;&gt;10680</title>
<path fill="none" stroke="red" stroke-width="0.261421" d="M265.283,-120.141C267.214,-127.577 270.072,-138.587 272.894,-149.46"/>
<polygon fill="red" stroke="red" points="269.548,-150.5 275.449,-159.3 276.324,-148.742 269.548,-150.5"/>
<text text-anchor="middle" x="261.089" y="-136.8" font-family="Times,serif" font-size="5.00">&#45;0.807</text>
</g>
<!-- &#45;4 -->
<g id="node4" class="node"><title>&#45;4</title>
<polygon fill="lightgray" stroke="black" points="114.752,-346.602 88.7516,-346.602 88.7516,-328.602 114.752,-328.602 114.752,-346.602"/>
<text text-anchor="middle" x="101.752" y="-335.402" font-family="Times,serif" font-size="9.00">&#45;4</text>
</g>
<!-- 7689 -->
<g id="node10" class="node"><title>7689</title>
<ellipse fill="white" stroke="black" cx="93.394" cy="-259.674" rx="42.3529" ry="42.3529"/>
<text text-anchor="middle" x="93.394" y="-257.474" font-family="Times,serif" font-size="9.00">heaviside</text>
</g>
<!-- &#45;4&#45;&gt;7689 -->
<g id="edge25" class="edge"><title>&#45;4&#45;&gt;7689</title>
<path fill="none" stroke="green" stroke-width="0.181857" stroke-dasharray="1,5" d="M100.76,-328.357C100.289,-323.965 99.685,-318.332 99.0258,-312.186"/>
<polygon fill="green" stroke="green" points="102.502,-311.78 97.9559,-302.21 95.5423,-312.526 102.502,-311.78"/>
<text text-anchor="middle" x="92.8929" y="-322.272" font-family="Times,serif" font-size="5.00">0.409</text>
</g>
<!-- &#45;4&#45;&gt;9511 -->
<g id="edge38" class="edge"><title>&#45;4&#45;&gt;9511</title>
<path fill="none" stroke="red" stroke-width="0.136984" d="M114.787,-336.336C124.246,-335.418 137.756,-334.106 151.568,-332.764"/>
<polygon fill="red" stroke="red" points="152.011,-336.238 161.625,-331.787 151.334,-329.27 152.011,-336.238"/>
<text text-anchor="middle" x="125.178" y="-336.55" font-family="Times,serif" font-size="5.00">&#45;0.185</text>
</g>
<!-- 7303 -->
<g id="node8" class="node"><title>7303</title>
<ellipse fill="white" stroke="black" cx="201.099" cy="-240.892" rx="37.4556" ry="37.4556"/>
<ellipse fill="none" stroke="black" cx="201.099" cy="-240.892" rx="41.4533" ry="41.4533"/>
<text text-anchor="middle" x="201.099" y="-238.692" font-family="Times,serif" font-size="9.00">identity</text>
</g>
<!-- 0&#45;&gt;7303 -->
<g id="edge5" class="edge"><title>0&#45;&gt;7303</title>
<path fill="none" stroke="red" stroke-width="0.251834" stroke-dasharray="1,5" d="M178.643,-297.004C180.169,-294.618 181.726,-292.044 183.277,-289.355"/>
<polygon fill="red" stroke="red" points="186.413,-290.916 188.163,-280.467 180.279,-287.544 186.413,-290.916"/>
<text text-anchor="middle" x="172.96" y="-295.179" font-family="Times,serif" font-size="5.00">&#45;0.759</text>
</g>
<!-- 0&#45;&gt;9511 -->
<g id="edge18" class="edge"><title>0&#45;&gt;9511</title>
<path fill="none" stroke="green" stroke-width="0.251383" stroke-dasharray="1,5" d="M183.619,-318.639C183.665,-318.655 183.71,-318.671 183.756,-318.687"/>
<polygon fill="green" stroke="green" points="173.297,-318.699 183.894,-318.736 175.633,-312.099 173.297,-318.699"/>
<text text-anchor="middle" x="176.688" y="-320.663" font-family="Times,serif" font-size="5.00">0.757</text>
</g>
<!-- 0&#45;&gt;7689 -->
<g id="edge20" class="edge"><title>0&#45;&gt;7689</title>
<path fill="none" stroke="green" stroke-width="0.136927" d="M147.851,-299.717C144.161,-297.005 140.082,-294.005 135.865,-290.904"/>
<polygon fill="green" stroke="green" points="137.78,-287.968 127.65,-284.864 133.633,-293.607 137.78,-287.968"/>
<text text-anchor="middle" x="145.358" y="-291.311" font-family="Times,serif" font-size="5.00">0.185</text>
</g>
<!-- 10725 -->
<g id="node6" class="node"><title>10725</title>
<ellipse fill="white" stroke="black" cx="48.2383" cy="-142.569" rx="42.3593" ry="42.3593"/>
<ellipse fill="none" stroke="black" cx="48.2383" cy="-142.569" rx="46.3529" ry="46.3529"/>
<text text-anchor="middle" x="48.2383" y="-140.369" font-family="Times,serif" font-size="9.00">heaviside</text>
</g>
<!-- 8854 -->
<g id="node15" class="node"><title>8854</title>
<ellipse fill="white" stroke="black" cx="37.4767" cy="-218.778" rx="37.4533" ry="37.4533"/>
<text text-anchor="middle" x="37.4767" y="-216.578" font-family="Times,serif" font-size="9.00">identity</text>
</g>
<!-- 10725&#45;&gt;8854 -->
<g id="edge24" class="edge"><title>10725&#45;&gt;8854</title>
<path fill="none" stroke="red" stroke-width="0.123919" stroke-dasharray="1,5" d="M41.7299,-188.658C41.7211,-188.721 41.7122,-188.784 41.7034,-188.846"/>
<polygon fill="red" stroke="red" points="39.614,-178.641 41.6769,-189.034 46.5453,-179.623 39.614,-178.641"/>
<text text-anchor="middle" x="33.7167" y="-190.752" font-family="Times,serif" font-size="5.00">&#45;0.120</text>
</g>
<!-- 11877 -->
<g id="node7" class="node"><title>11877</title>
<ellipse fill="white" stroke="black" cx="66.9153" cy="-196.763" rx="26.7407" ry="26.7407"/>
<text text-anchor="middle" x="66.9153" y="-194.563" font-family="Times,serif" font-size="9.00">tanh</text>
</g>
<!-- 11507 -->
<g id="node13" class="node"><title>11507</title>
<ellipse fill="white" stroke="black" cx="153.008" cy="-185.439" rx="42.3529" ry="42.3529"/>
<text text-anchor="middle" x="153.008" y="-183.239" font-family="Times,serif" font-size="9.00">heaviside</text>
</g>
<!-- 11877&#45;&gt;11507 -->
<g id="edge31" class="edge"><title>11877&#45;&gt;11507</title>
<path fill="none" stroke="green" stroke-width="0.639727" stroke-dasharray="1,5" d="M93.6837,-193.242C95.9743,-192.94 98.3371,-192.63 100.74,-192.314"/>
<polygon fill="green" stroke="green" points="101.305,-195.769 110.764,-190.995 100.393,-188.829 101.305,-195.769"/>
<text text-anchor="middle" x="90.2119" y="-194.778" font-family="Times,serif" font-size="5.00">2.699</text>
</g>
<!-- 6746 -->
<g id="node18" class="node"><title>6746</title>
<ellipse fill="white" stroke="black" cx="121.625" cy="-185.612" rx="42.3593" ry="42.3593"/>
<ellipse fill="none" stroke="black" cx="121.625" cy="-185.612" rx="46.3529" ry="46.3529"/>
<text text-anchor="middle" x="121.625" y="-183.412" font-family="Times,serif" font-size="9.00">heaviside</text>
</g>
<!-- 7303&#45;&gt;6746 -->
<g id="edge4" class="edge"><title>7303&#45;&gt;6746</title>
<path fill="none" stroke="red" stroke-width="0.257585" stroke-dasharray="1,5" d="M166.934,-217.128C166.786,-217.025 166.639,-216.923 166.492,-216.82"/>
<polygon fill="red" stroke="red" points="170.028,-215.016 159.82,-212.179 166.031,-220.763 170.028,-215.016"/>
<text text-anchor="middle" x="158.713" y="-218.974" font-family="Times,serif" font-size="5.00">&#45;0.788</text>
</g>
<!-- 7303&#45;&gt;0 -->
<g id="edge9" class="edge"><title>7303&#45;&gt;0</title>
<path fill="none" stroke="green" stroke-width="0.189427" stroke-dasharray="1,5" d="M176.062,-274.49C174.709,-277.131 173.405,-279.786 172.18,-282.396"/>
<polygon fill="green" stroke="green" points="168.975,-280.989 168.143,-291.551 175.38,-283.813 168.975,-280.989"/>
<text text-anchor="middle" x="181.121" y="-274.443" font-family="Times,serif" font-size="5.00">0.447</text>
</g>
<!-- 9511&#45;&gt;7303 -->
<g id="edge19" class="edge"><title>9511&#45;&gt;7303</title>
<path fill="none" stroke="green" stroke-width="0.266533" d="M204.315,-280.798C204.309,-280.718 204.302,-280.638 204.296,-280.558"/>
<polygon fill="green" stroke="green" points="208.572,-290.004 204.276,-280.319 201.595,-290.569 208.572,-290.004"/>
<text text-anchor="middle" x="197.305" y="-276.678" font-family="Times,serif" font-size="5.00">0.833</text>
</g>
<!-- 7689&#45;&gt;11507 -->
<g id="edge28" class="edge"><title>7689&#45;&gt;11507</title>
<path fill="none" stroke="green" stroke-width="0.540231" d="M120.062,-226.465C120.194,-226.301 120.326,-226.136 120.458,-225.972"/>
<polygon fill="green" stroke="green" points="122.875,-228.552 126.407,-218.564 117.417,-224.169 122.875,-228.552"/>
<text text-anchor="middle" x="113.26" y="-222.218" font-family="Times,serif" font-size="5.00">2.201</text>
</g>
<!-- 7689&#45;&gt;11877 -->
<g id="edge30" class="edge"><title>7689&#45;&gt;11877</title>
<path fill="none" stroke="red" stroke-width="0.126468" stroke-dasharray="1,5" d="M76.9258,-220.547C76.9047,-220.497 76.8837,-220.447 76.8627,-220.397"/>
<polygon fill="red" stroke="red" points="83.9088,-228.106 76.7997,-220.247 77.4567,-230.824 83.9088,-228.106"/>
<text text-anchor="middle" x="68.8942" y="-216.472" font-family="Times,serif" font-size="5.00">&#45;0.132</text>
</g>
<!-- 12074 -->
<g id="node11" class="node"><title>12074</title>
<ellipse fill="white" stroke="black" cx="95.2069" cy="-101.916" rx="26.7574" ry="26.7574"/>
<ellipse fill="none" stroke="black" cx="95.2069" cy="-101.916" rx="30.7407" ry="30.7407"/>
<text text-anchor="middle" x="95.2069" y="-99.7156" font-family="Times,serif" font-size="9.00">tanh</text>
</g>
<!-- 12074&#45;&gt;10725 -->
<g id="edge34" class="edge"><title>12074&#45;&gt;10725</title>
<path fill="none" stroke="red" stroke-width="0.269316" stroke-dasharray="1,5" d="M71.7226,-122.242C71.6767,-122.282 71.6308,-122.322 71.585,-122.361"/>
<polygon fill="red" stroke="red" points="76.7186,-113.287 71.4474,-122.48 81.301,-118.581 76.7186,-113.287"/>
<text text-anchor="middle" x="63.6538" y="-124.302" font-family="Times,serif" font-size="5.00">&#45;0.847</text>
</g>
<!-- 7758&#45;&gt;6746 -->
<g id="edge7" class="edge"><title>7758&#45;&gt;6746</title>
<path fill="none" stroke="red" stroke-width="0.391076" d="M181.951,-172.332C180.339,-172.687 178.69,-173.05 177.016,-173.419"/>
<polygon fill="red" stroke="red" points="176.234,-170.007 167.221,-175.575 177.739,-176.843 176.234,-170.007"/>
<text text-anchor="middle" x="171.484" y="-174.875" font-family="Times,serif" font-size="5.00">&#45;1.455</text>
</g>
<!-- 11507&#45;&gt;7758 -->
<g id="edge27" class="edge"><title>11507&#45;&gt;7758</title>
<path fill="none" stroke="red" stroke-width="0.323975" stroke-dasharray="1,5" d="M193.325,-171.669C193.392,-171.646 193.459,-171.623 193.526,-171.6"/>
<polygon fill="red" stroke="red" points="185.395,-178.079 193.726,-171.532 183.131,-171.455 185.395,-178.079"/>
<text text-anchor="middle" x="185.425" y="-167.634" font-family="Times,serif" font-size="5.00">&#45;1.120</text>
</g>
<!-- 11707 -->
<g id="node14" class="node"><title>11707</title>
<ellipse fill="white" stroke="black" cx="362.496" cy="-197.302" rx="26.7574" ry="26.7574"/>
<ellipse fill="none" stroke="black" cx="362.496" cy="-197.302" rx="30.7407" ry="30.7407"/>
<text text-anchor="middle" x="362.496" y="-195.102" font-family="Times,serif" font-size="9.00">tanh</text>
</g>
<!-- 11707&#45;&gt;10680 -->
<g id="edge29" class="edge"><title>11707&#45;&gt;10680</title>
<path fill="none" stroke="green" stroke-width="0.237051" stroke-dasharray="1,5" d="M331.7,-192.772C327.591,-192.168 323.343,-191.543 319.143,-190.925"/>
<polygon fill="green" stroke="green" points="319.31,-187.412 308.907,-189.419 318.291,-194.337 319.31,-187.412"/>
<text text-anchor="middle" x="318.422" y="-193.849" font-family="Times,serif" font-size="5.00">0.685</text>
</g>
<!-- 8854&#45;&gt;7689 -->
<g id="edge13" class="edge"><title>8854&#45;&gt;7689</title>
<path fill="none" stroke="green" stroke-width="0.223459" stroke-dasharray="1,5" d="M67.7265,-240.902C67.778,-240.94 67.8294,-240.977 67.8809,-241.015"/>
<polygon fill="green" stroke="green" points="57.8956,-238.048 68.0352,-241.128 62.0294,-232.397 57.8956,-238.048"/>
<text text-anchor="middle" x="60.8037" y="-242.958" font-family="Times,serif" font-size="5.00">0.617</text>
</g>
<!-- 10680&#45;&gt;7758 -->
<g id="edge22" class="edge"><title>10680&#45;&gt;7758</title>
<path fill="none" stroke="red" stroke-width="0.27226" stroke-dasharray="1,5" d="M256.034,-178.743C252.23,-177.763 248.26,-176.74 244.306,-175.721"/>
<polygon fill="red" stroke="red" points="245.171,-172.33 234.614,-173.224 243.424,-179.108 245.171,-172.33"/>
<text text-anchor="middle" x="246.17" y="-173.232" font-family="Times,serif" font-size="5.00">&#45;0.861</text>
</g>
<!-- 10680&#45;&gt;10680 -->
<g id="edge36" class="edge"><title>10680&#45;&gt;10680</title>
<path fill="none" stroke="green" stroke-width="0.248499" d="M308.52,-192.221C318.677,-192.52 327.119,-190.279 327.119,-185.497 327.119,-182.509 323.821,-180.513 318.868,-179.509"/>
<polygon fill="green" stroke="green" points="318.743,-175.992 308.52,-178.774 318.246,-182.974 318.743,-175.992"/>
<text text-anchor="middle" x="334.119" y="-184.497" font-family="Times,serif" font-size="5.00">0.742</text>
</g>
<!-- 10680&#45;&gt;7303 -->
<g id="edge37" class="edge"><title>10680&#45;&gt;7303</title>
<path fill="none" stroke="red" stroke-width="0.311352" stroke-dasharray="1,5" d="M259.644,-200.928C254.72,-204.289 249.353,-207.953 243.933,-211.653"/>
<polygon fill="red" stroke="red" points="241.712,-208.931 235.426,-217.46 245.658,-214.713 241.712,-208.931"/>
<text text-anchor="middle" x="243.788" y="-208.291" font-family="Times,serif" font-size="5.00">&#45;1.057</text>
</g>
<!-- 6746&#45;&gt;6746 -->
<g id="edge3" class="edge"><title>6746&#45;&gt;6746</title>
<path fill="none" stroke="red" stroke-width="0.121765" d="M167.665,-192.213C178.265,-191.644 186.052,-189.444 186.052,-185.612 186.052,-183.157 182.856,-181.372 177.772,-180.256"/>
<polygon fill="red" stroke="red" points="178.018,-176.76 167.665,-179.011 177.162,-183.707 178.018,-176.76"/>
<text text-anchor="middle" x="194.052" y="-184.612" font-family="Times,serif" font-size="5.00">&#45;0.109</text>
</g>
<!-- 6746&#45;&gt;7689 -->
<g id="edge6" class="edge"><title>6746&#45;&gt;7689</title>
<path fill="none" stroke="red" stroke-width="0.268895" stroke-dasharray="1,5" d="M105.04,-229.123C105.016,-229.186 104.992,-229.248 104.968,-229.311"/>
<polygon fill="red" stroke="red" points="105.19,-218.908 104.896,-229.5 111.731,-221.403 105.19,-218.908"/>
<text text-anchor="middle" x="97.0037" y="-231.217" font-family="Times,serif" font-size="5.00">&#45;0.844</text>
</g>
<!-- 6746&#45;&gt;8283 -->
<g id="edge10" class="edge"><title>6746&#45;&gt;8283</title>
<path fill="none" stroke="green" stroke-width="0.367293" d="M132.529,-230.968C132.542,-231.022 132.555,-231.077 132.568,-231.131"/>
<polygon fill="green" stroke="green" points="126.862,-222.39 132.607,-231.294 133.668,-220.751 126.862,-222.39"/>
<text text-anchor="middle" x="139.548" y="-227.049" font-family="Times,serif" font-size="5.00">1.336</text>
</g>
<!-- 6746&#45;&gt;8854 -->
<g id="edge12" class="edge"><title>6746&#45;&gt;8854</title>
<path fill="none" stroke="red" stroke-width="0.184107" d="M78.072,-202.778C77.9617,-202.822 77.8514,-202.865 77.7412,-202.908"/>
<polygon fill="red" stroke="red" points="80.8212,-197.932 72.8012,-204.856 83.3881,-204.445 80.8212,-197.932"/>
<text text-anchor="middle" x="85.9066" y="-204.843" font-family="Times,serif" font-size="5.00">&#45;0.421</text>
</g>
<!-- 6746&#45;&gt;10725 -->
<g id="edge23" class="edge"><title>6746&#45;&gt;10725</title>
<path fill="none" stroke="red" stroke-width="0.270469" stroke-dasharray="1,5" d="M81.4962,-162.075C81.4293,-162.036 81.3623,-161.997 81.2955,-161.958"/>
<polygon fill="red" stroke="red" points="91.4927,-163.882 81.0948,-161.84 87.9497,-169.921 91.4927,-163.882"/>
<text text-anchor="middle" x="73.3958" y="-164.016" font-family="Times,serif" font-size="5.00">&#45;0.852</text>
</g>
<!-- 6746&#45;&gt;12074 -->
<g id="edge33" class="edge"><title>6746&#45;&gt;12074</title>
<path fill="none" stroke="red" stroke-width="0.190996" stroke-dasharray="1,5" d="M107.642,-141.313C107.61,-141.21 107.577,-141.107 107.545,-141.004"/>
<polygon fill="red" stroke="red" points="110.916,-140.057 104.569,-131.575 104.241,-142.164 110.916,-140.057"/>
<text text-anchor="middle" x="115.594" y="-137.159" font-family="Times,serif" font-size="5.00">&#45;0.455</text>
</g>
<!-- 8283&#45;&gt;7689 -->
<g id="edge11" class="edge"><title>8283&#45;&gt;7689</title>
<path fill="none" stroke="green" stroke-width="0.136712" d="M111.817,-258.421C111.741,-258.427 111.665,-258.432 111.589,-258.437"/>
<polygon fill="green" stroke="green" points="121.099,-254.278 111.361,-258.452 121.577,-261.262 121.099,-254.278"/>
<text text-anchor="middle" x="104.703" y="-260.429" font-family="Times,serif" font-size="5.00">0.184</text>
</g>
<!-- 9565 -->
<g id="node20" class="node"><title>9565</title>
<ellipse fill="white" stroke="black" cx="338.477" cy="-338.477" rx="37.4556" ry="37.4556"/>
<ellipse fill="none" stroke="black" cx="338.477" cy="-338.477" rx="41.4533" ry="41.4533"/>
<text text-anchor="middle" x="338.477" y="-336.277" font-family="Times,serif" font-size="9.00">identity</text>
</g>
<!-- 9439&#45;&gt;7758 -->
<g id="edge17" class="edge"><title>9439&#45;&gt;7758</title>
<path fill="none" stroke="green" stroke-width="0.288355" stroke-dasharray="1,5" d="M214.051,-175.543C213.999,-175.46 213.949,-175.377 213.898,-175.295"/>
<polygon fill="green" stroke="green" points="221.969,-181.734 213.747,-175.05 216.006,-185.402 221.969,-181.734"/>
<text text-anchor="middle" x="206.974" y="-177.419" font-family="Times,serif" font-size="5.00">0.942</text>
</g>
<!-- 9439&#45;&gt;11507 -->
<g id="edge26" class="edge"><title>9439&#45;&gt;11507</title>
<path fill="none" stroke="green" stroke-width="0.246305" stroke-dasharray="1,5" d="M195.959,-198.783C195.793,-198.732 195.627,-198.68 195.461,-198.629"/>
<polygon fill="green" stroke="green" points="204.557,-197.79 193.968,-198.165 202.48,-204.475 204.557,-197.79"/>
<text text-anchor="middle" x="195.71" y="-194.706" font-family="Times,serif" font-size="5.00">0.732</text>
</g>
</g>
</svg>
