<?xml version="1.0" encoding="UTF-8" standalone="no"?>
<!DOCTYPE svg PUBLIC "-//W3C//DTD SVG 1.1//EN"
 "http://www.w3.org/Graphics/SVG/1.1/DTD/svg11.dtd">
<!-- Generated by graphviz version 2.30.1 (20201013.1554)
 -->
<!-- Title: %3 Pages: 1 -->
<svg width="361pt" height="277pt"
 viewBox="0.00 0.00 361.19 276.90" xmlns="http://www.w3.org/2000/svg" xmlns:xlink="http://www.w3.org/1999/xlink">
<g id="graph0" class="graph" transform="scale(1 1) rotate(0) translate(4 272.895)">
<title>%3</title>
<polygon fill="white" stroke="white" points="-4,5 -4,-272.895 358.194,-272.895 358.194,5 -4,5"/>
<!-- &#45;1 -->
<g id="node1" class="node"><title>&#45;1</title>
<polygon fill="lightgray" stroke="black" points="26,-194.054 0,-194.054 0,-176.054 26,-176.054 26,-194.054"/>
<text text-anchor="middle" x="13" y="-182.854" font-family="Times,serif" font-size="9.00">&#45;1</text>
</g>
<!-- 2611 -->
<g id="node8" class="node"><title>2611</title>
<ellipse fill="white" stroke="black" cx="93.246" cy="-177.958" rx="26.7407" ry="26.7407"/>
<text text-anchor="middle" x="93.246" y="-175.758" font-family="Times,serif" font-size="9.00">tanh</text>
</g>
<!-- &#45;1&#45;&gt;2611 -->
<g id="edge12" class="edge"><title>&#45;1&#45;&gt;2611</title>
<path fill="none" stroke="green" stroke-width="0.117375" d="M26.251,-183.882C34.4822,-183.154 45.506,-182.18 56.2317,-181.231"/>
<polygon fill="green" stroke="green" points="56.6701,-184.706 66.3229,-180.339 56.0535,-177.733 56.6701,-184.706"/>
<text text-anchor="middle" x="34.2414" y="-184.557" font-family="Times,serif" font-size="5.00">0.087</text>
</g>
<!-- &#45;2 -->
<g id="node2" class="node"><title>&#45;2</title>
<polygon fill="lightgray" stroke="black" points="252.097,-101.445 226.097,-101.445 226.097,-83.4446 252.097,-83.4446 252.097,-101.445"/>
<text text-anchor="middle" x="239.097" y="-90.2446" font-family="Times,serif" font-size="9.00">&#45;2</text>
</g>
<!-- 0 -->
<g id="node5" class="node"><title>0</title>
<ellipse fill="lightblue" stroke="black" cx="227.792" cy="-152.264" rx="16.0758" ry="16.0758"/>
<ellipse fill="none" stroke="black" cx="227.792" cy="-152.264" rx="20.0296" ry="20.0296"/>
<text text-anchor="middle" x="227.792" y="-150.064" font-family="Times,serif" font-size="9.00">0</text>
</g>
<!-- &#45;2&#45;&gt;0 -->
<g id="edge1" class="edge"><title>&#45;2&#45;&gt;0</title>
<path fill="none" stroke="red" stroke-width="0.704535" d="M237.38,-101.53C236.327,-107.102 234.912,-114.59 233.493,-122.098"/>
<polygon fill="red" stroke="red" points="230.007,-121.697 231.589,-132.173 236.885,-122.997 230.007,-121.697"/>
<text text-anchor="middle" x="227.437" y="-113.814" font-family="Times,serif" font-size="5.00">&#45;3.023</text>
</g>
<!-- 962 -->
<g id="node6" class="node"><title>962</title>
<ellipse fill="white" stroke="black" cx="157.723" cy="-106.991" rx="42.3529" ry="42.3529"/>
<text text-anchor="middle" x="157.723" y="-104.791" font-family="Times,serif" font-size="9.00">heaviside</text>
</g>
<!-- &#45;2&#45;&gt;962 -->
<g id="edge5" class="edge"><title>&#45;2&#45;&gt;962</title>
<path fill="none" stroke="green" stroke-width="0.480989" d="M226.023,-94.7816C221.361,-95.6151 215.782,-96.6123 209.85,-97.6726"/>
<polygon fill="green" stroke="green" points="208.862,-94.2937 199.634,-99.4988 210.094,-101.184 208.862,-94.2937"/>
<text text-anchor="middle" x="210.937" y="-98.2271" font-family="Times,serif" font-size="5.00">1.905</text>
</g>
<!-- 2744 -->
<g id="node10" class="node"><title>2744</title>
<ellipse fill="white" stroke="black" cx="315.717" cy="-80.9416" rx="37.4533" ry="37.4533"/>
<text text-anchor="middle" x="315.717" y="-78.7416" font-family="Times,serif" font-size="9.00">identity</text>
</g>
<!-- &#45;2&#45;&gt;2744 -->
<g id="edge7" class="edge"><title>&#45;2&#45;&gt;2744</title>
<path fill="none" stroke="green" stroke-width="0.172038" stroke-dasharray="1,5" d="M252.443,-90.4409C257.113,-89.7399 262.659,-88.9073 268.497,-88.0309"/>
<polygon fill="green" stroke="green" points="269.125,-91.4758 278.494,-86.5299 268.086,-84.5534 269.125,-91.4758"/>
<text text-anchor="middle" x="267.47" y="-91.2359" font-family="Times,serif" font-size="5.00">0.360</text>
</g>
<!-- &#45;3 -->
<g id="node3" class="node"><title>&#45;3</title>
<polygon fill="lightgray" stroke="black" points="184.559,-35.7502 158.559,-35.7502 158.559,-17.7502 184.559,-17.7502 184.559,-35.7502"/>
<text text-anchor="middle" x="171.559" y="-24.5502" font-family="Times,serif" font-size="9.00">&#45;3</text>
</g>
<!-- &#45;3&#45;&gt;962 -->
<g id="edge2" class="edge"><title>&#45;3&#45;&gt;962</title>
<path fill="none" stroke="red" stroke-width="0.322178" d="M169.971,-35.9548C169.103,-40.9924 167.95,-47.68 166.698,-54.941"/>
<polygon fill="red" stroke="red" points="163.197,-54.6474 164.947,-65.0968 170.095,-55.8369 163.197,-54.6474"/>
<text text-anchor="middle" x="160.335" y="-47.4479" font-family="Times,serif" font-size="5.00">&#45;1.111</text>
</g>
<!-- &#45;4 -->
<g id="node4" class="node"><title>&#45;4</title>
<polygon fill="lightgray" stroke="black" points="108.656,-268.895 82.6561,-268.895 82.6561,-250.895 108.656,-250.895 108.656,-268.895"/>
<text text-anchor="middle" x="95.6561" y="-257.695" font-family="Times,serif" font-size="9.00">&#45;4</text>
</g>
<!-- &#45;4&#45;&gt;2611 -->
<g id="edge13" class="edge"><title>&#45;4&#45;&gt;2611</title>
<path fill="none" stroke="green" stroke-width="0.307787" d="M95.389,-250.813C95.1337,-242.134 94.7314,-228.457 94.3439,-215.286"/>
<polygon fill="green" stroke="green" points="97.8321,-214.829 94.0395,-204.936 90.8351,-215.035 97.8321,-214.829"/>
<text text-anchor="middle" x="87.8665" y="-235.049" font-family="Times,serif" font-size="5.00">1.039</text>
</g>
<!-- 962&#45;&gt;0 -->
<g id="edge3" class="edge"><title>962&#45;&gt;0</title>
<path fill="none" stroke="red" stroke-width="0.116415" stroke-dasharray="1,5" d="M193.579,-130.158C196.449,-132.012 199.312,-133.862 202.091,-135.657"/>
<polygon fill="red" stroke="red" points="200.285,-138.658 210.584,-141.145 204.084,-132.778 200.285,-138.658"/>
<text text-anchor="middle" x="205.835" y="-128.907" font-family="Times,serif" font-size="5.00">&#45;0.082</text>
</g>
<!-- 962&#45;&gt;962 -->
<g id="edge4" class="edge"><title>962&#45;&gt;962</title>
<path fill="none" stroke="red" stroke-width="0.286923" d="M199.8,-113.648C210.301,-113.182 218.15,-110.963 218.15,-106.991 218.15,-104.446 214.928,-102.62 209.852,-101.515"/>
<polygon fill="red" stroke="red" points="210.14,-98.0243 199.8,-100.333 209.323,-104.976 210.14,-98.0243"/>
<text text-anchor="middle" x="226.15" y="-105.991" font-family="Times,serif" font-size="5.00">&#45;0.935</text>
</g>
<!-- 4010 -->
<g id="node7" class="node"><title>4010</title>
<ellipse fill="white" stroke="black" cx="92.8125" cy="-120.275" rx="37.4556" ry="37.4556"/>
<ellipse fill="none" stroke="black" cx="92.8125" cy="-120.275" rx="41.4533" ry="41.4533"/>
<text text-anchor="middle" x="92.8125" y="-118.075" font-family="Times,serif" font-size="9.00">sigmoid</text>
</g>
<!-- 4010&#45;&gt;962 -->
<g id="edge11" class="edge"><title>4010&#45;&gt;962</title>
<path fill="none" stroke="green" stroke-width="0.209554" stroke-dasharray="1,5" d="M133.553,-111.937C133.604,-111.927 133.655,-111.916 133.706,-111.906"/>
<polygon fill="green" stroke="green" points="124.765,-117.314 133.858,-111.875 123.358,-110.456 124.765,-117.314"/>
<text text-anchor="middle" x="126.629" y="-113.921" font-family="Times,serif" font-size="5.00">0.548</text>
</g>
<!-- 2611&#45;&gt;962 -->
<g id="edge6" class="edge"><title>2611&#45;&gt;962</title>
<path fill="none" stroke="green" stroke-width="0.207234" d="M111.55,-157.811C114.862,-154.166 118.418,-150.252 122.032,-146.275"/>
<polygon fill="green" stroke="green" points="124.871,-148.354 129.005,-138.599 119.69,-143.647 124.871,-148.354"/>
<text text-anchor="middle" x="109.791" y="-154.043" font-family="Times,serif" font-size="5.00">0.536</text>
</g>
<!-- 3100 -->
<g id="node11" class="node"><title>3100</title>
<ellipse fill="white" stroke="black" cx="147.582" cy="-172.47" rx="42.3529" ry="42.3529"/>
<text text-anchor="middle" x="147.582" y="-170.27" font-family="Times,serif" font-size="9.00">heaviside</text>
</g>
<!-- 2611&#45;&gt;3100 -->
<g id="edge8" class="edge"><title>2611&#45;&gt;3100</title>
<path fill="none" stroke="red" stroke-width="0.283378" d="M120.096,-175.246C120.149,-175.241 120.203,-175.236 120.256,-175.23"/>
<polygon fill="red" stroke="red" points="110.821,-179.707 120.416,-175.214 110.113,-172.742 110.821,-179.707"/>
<text text-anchor="middle" x="128.176" y="-177.238" font-family="Times,serif" font-size="5.00">&#45;0.917</text>
</g>
<!-- 2611&#45;&gt;4010 -->
<g id="edge10" class="edge"><title>2611&#45;&gt;4010</title>
<path fill="none" stroke="red" stroke-width="0.772877" d="M93.0419,-150.806C93.0415,-150.747 93.041,-150.689 93.0406,-150.63"/>
<polygon fill="red" stroke="red" points="96.62,-160.426 93.0393,-150.455 89.6202,-160.483 96.62,-160.426"/>
<text text-anchor="middle" x="85.0412" y="-146.718" font-family="Times,serif" font-size="5.00">&#45;3.364</text>
</g>
<!-- 4342 -->
<g id="node9" class="node"><title>4342</title>
<ellipse fill="white" stroke="black" cx="104.458" cy="-37.4767" rx="37.4533" ry="37.4533"/>
<text text-anchor="middle" x="104.458" y="-35.2767" font-family="Times,serif" font-size="9.00">sigmoid</text>
</g>
<!-- 4342&#45;&gt;962 -->
<g id="edge14" class="edge"><title>4342&#45;&gt;962</title>
<path fill="none" stroke="green" stroke-width="0.244978" d="M127.356,-67.3602C127.448,-67.4798 127.54,-67.5995 127.632,-67.7192"/>
<polygon fill="green" stroke="green" points="122.923,-67.3283 131.783,-73.1372 128.479,-63.0707 122.923,-67.3283"/>
<text text-anchor="middle" x="120.494" y="-69.5397" font-family="Times,serif" font-size="5.00">0.725</text>
</g>
<!-- 3100&#45;&gt;962 -->
<g id="edge9" class="edge"><title>3100&#45;&gt;962</title>
<path fill="none" stroke="red" stroke-width="0.159506" stroke-dasharray="1,5" d="M154.119,-130.261C154.127,-130.211 154.135,-130.162 154.142,-130.112"/>
<polygon fill="red" stroke="red" points="156.088,-140.384 154.165,-129.964 149.17,-139.309 156.088,-140.384"/>
<text text-anchor="middle" x="146.131" y="-126.186" font-family="Times,serif" font-size="5.00">&#45;0.298</text>
</g>
<!-- 3100&#45;&gt;4010 -->
<g id="edge15" class="edge"><title>3100&#45;&gt;4010</title>
<path fill="none" stroke="green" stroke-width="0.2305" d="M116.676,-143.017C116.627,-142.971 116.579,-142.924 116.53,-142.878"/>
<polygon fill="green" stroke="green" points="126.041,-147.106 116.385,-142.739 121.21,-152.174 126.041,-147.106"/>
<text text-anchor="middle" x="109.603" y="-144.947" font-family="Times,serif" font-size="5.00">0.653</text>
</g>
</g>
</svg>
