<?xml version="1.0" encoding="UTF-8" standalone="no"?>
<!DOCTYPE svg PUBLIC "-//W3C//DTD SVG 1.1//EN"
 "http://www.w3.org/Graphics/SVG/1.1/DTD/svg11.dtd">
<!-- Generated by graphviz version 2.47.1 (20210417.1919)
 -->
<!-- Pages: 1 -->
<svg width="406pt" height="414pt"
 viewBox="0.00 0.00 406.47 414.41" xmlns="http://www.w3.org/2000/svg" xmlns:xlink="http://www.w3.org/1999/xlink">
<g id="graph0" class="graph" transform="scale(1 1) rotate(0) translate(4 410.41)">
<polygon fill="white" stroke="transparent" points="-4,4 -4,-410.41 402.47,-410.41 402.47,4 -4,4"/>
<!-- &#45;1 -->
<g id="node1" class="node">
<title>&#45;1</title>
<polygon fill="lightgray" stroke="black" points="251.5,-112.58 227.5,-112.58 227.5,-93.97 251.5,-93.97 251.5,-112.58"/>
<text text-anchor="middle" x="239.5" y="-100.57" font-family="Times,serif" font-size="9.00">&#45;1</text>
</g>
<!-- 0 -->
<g id="node5" class="node">
<title>0</title>
<ellipse fill="lightblue" stroke="black" cx="202.99" cy="-200.13" rx="14.49" ry="14.49"/>
<text text-anchor="middle" x="202.99" y="-197.43" font-family="Times,serif" font-size="9.00">0</text>
</g>
<!-- &#45;1&#45;&gt;0 -->
<g id="edge61" class="edge">
<title>&#45;1&#45;&gt;0</title>
<path fill="none" stroke="red" stroke-width="1.14" d="M235.87,-112.92C230.28,-127.73 219.42,-156.53 211.71,-176.98"/>
<polygon fill="red" stroke="red" stroke-width="1.14" points="208.37,-175.93 208.12,-186.52 214.92,-178.4 208.37,-175.93"/>
<text text-anchor="middle" x="217.33" y="-146.45" font-family="Times,serif" font-size="5.00">&#45;5.216</text>
</g>
<!-- 97 -->
<g id="node6" class="node">
<title>97</title>
<ellipse fill="white" stroke="black" cx="275.63" cy="-163.1" rx="17.86" ry="17.86"/>
<text text-anchor="middle" x="275.63" y="-160.4" font-family="Times,serif" font-size="9.00">97</text>
</g>
<!-- &#45;1&#45;&gt;97 -->
<g id="edge1" class="edge">
<title>&#45;1&#45;&gt;97</title>
<path fill="none" stroke="green" stroke-width="0.53" d="M245.15,-112.62C249.37,-119.62 255.36,-129.54 260.91,-138.73"/>
<polygon fill="green" stroke="green" stroke-width="0.53" points="258.07,-140.79 266.23,-147.54 264.06,-137.17 258.07,-140.79"/>
<text text-anchor="middle" x="258.65" y="-127.17" font-family="Times,serif" font-size="5.00">2.171</text>
</g>
<!-- 1260 -->
<g id="node9" class="node">
<title>1260</title>
<ellipse fill="white" stroke="black" cx="173.64" cy="-37.03" rx="24.08" ry="24.08"/>
<text text-anchor="middle" x="173.64" y="-34.33" font-family="Times,serif" font-size="9.00">1260</text>
</g>
<!-- &#45;1&#45;&gt;1260 -->
<g id="edge4" class="edge">
<title>&#45;1&#45;&gt;1260</title>
<path fill="none" stroke="green" stroke-width="0.3" d="M230.07,-93.78C221.66,-85.33 209,-72.59 197.8,-61.33"/>
<polygon fill="green" stroke="green" stroke-width="0.3" points="200.24,-58.82 190.71,-54.2 195.28,-63.76 200.24,-58.82"/>
<text text-anchor="middle" x="208.31" y="-79.06" font-family="Times,serif" font-size="5.00">1.000</text>
</g>
<!-- 1261 -->
<g id="node10" class="node">
<title>1261</title>
<ellipse fill="white" stroke="black" cx="238.96" cy="-24.04" rx="24.08" ry="24.08"/>
<text text-anchor="middle" x="238.96" y="-21.34" font-family="Times,serif" font-size="9.00">1261</text>
</g>
<!-- &#45;1&#45;&gt;1261 -->
<g id="edge5" class="edge">
<title>&#45;1&#45;&gt;1261</title>
<path fill="none" stroke="green" stroke-width="0.3" d="M239.44,-93.87C239.38,-85.08 239.28,-71.38 239.2,-58.45"/>
<polygon fill="green" stroke="green" stroke-width="0.3" points="242.69,-58.31 239.13,-48.34 235.69,-58.36 242.69,-58.31"/>
<text text-anchor="middle" x="233.69" y="-77.66" font-family="Times,serif" font-size="5.00">1.000</text>
</g>
<!-- 1262 -->
<g id="node11" class="node">
<title>1262</title>
<ellipse fill="white" stroke="black" cx="205.2" cy="-25.34" rx="24.08" ry="24.08"/>
<text text-anchor="middle" x="205.2" y="-22.64" font-family="Times,serif" font-size="9.00">1262</text>
</g>
<!-- &#45;1&#45;&gt;1262 -->
<g id="edge6" class="edge">
<title>&#45;1&#45;&gt;1262</title>
<path fill="none" stroke="green" stroke-width="0.3" d="M235.3,-93.72C231.24,-84.5 224.86,-70.02 219.03,-56.75"/>
<polygon fill="green" stroke="green" stroke-width="0.3" points="222.14,-55.15 214.91,-47.4 215.74,-57.96 222.14,-55.15"/>
<text text-anchor="middle" x="221.54" y="-76.74" font-family="Times,serif" font-size="5.00">1.000</text>
</g>
<!-- 1269 -->
<g id="node12" class="node">
<title>1269</title>
<ellipse fill="white" stroke="black" cx="283.81" cy="-48.32" rx="24.08" ry="24.08"/>
<text text-anchor="middle" x="283.81" y="-45.62" font-family="Times,serif" font-size="9.00">1269</text>
</g>
<!-- &#45;1&#45;&gt;1269 -->
<g id="edge7" class="edge">
<title>&#45;1&#45;&gt;1269</title>
<path fill="none" stroke="green" stroke-width="0.3" d="M247.22,-93.7C251.33,-88.6 256.62,-82.04 261.9,-75.5"/>
<polygon fill="green" stroke="green" stroke-width="0.3" points="264.92,-77.32 268.47,-67.34 259.47,-72.93 264.92,-77.32"/>
<text text-anchor="middle" x="248.93" y="-86.1" font-family="Times,serif" font-size="5.00">1.000</text>
</g>
<!-- 1270 -->
<g id="node13" class="node">
<title>1270</title>
<ellipse fill="white" stroke="black" cx="311.66" cy="-63.64" rx="24.08" ry="24.08"/>
<text text-anchor="middle" x="311.66" y="-60.94" font-family="Times,serif" font-size="9.00">1270</text>
</g>
<!-- &#45;1&#45;&gt;1270 -->
<g id="edge8" class="edge">
<title>&#45;1&#45;&gt;1270</title>
<path fill="none" stroke="green" stroke-width="0.3" d="M251.42,-96.73C259.59,-92.24 270.83,-86.07 281.38,-80.27"/>
<polygon fill="green" stroke="green" stroke-width="0.3" points="283.31,-83.21 290.39,-75.33 279.94,-77.07 283.31,-83.21"/>
<text text-anchor="middle" x="260.77" y="-90" font-family="Times,serif" font-size="5.00">1.000</text>
</g>
<!-- 1271 -->
<g id="node14" class="node">
<title>1271</title>
<ellipse fill="white" stroke="black" cx="330.54" cy="-88.78" rx="24.08" ry="24.08"/>
<text text-anchor="middle" x="330.54" y="-86.08" font-family="Times,serif" font-size="9.00">1271</text>
</g>
<!-- &#45;1&#45;&gt;1271 -->
<g id="edge9" class="edge">
<title>&#45;1&#45;&gt;1271</title>
<path fill="none" stroke="green" stroke-width="0.3" d="M251.4,-101.38C262.87,-99.55 280.77,-96.7 296.64,-94.18"/>
<polygon fill="green" stroke="green" stroke-width="0.3" points="297.37,-97.6 306.69,-92.57 296.27,-90.69 297.37,-97.6"/>
<text text-anchor="middle" x="268.4" y="-99.28" font-family="Times,serif" font-size="5.00">1.000</text>
</g>
<!-- &#45;2 -->
<g id="node2" class="node">
<title>&#45;2</title>
<polygon fill="lightgray" stroke="black" points="245.29,-206.98 221.29,-206.98 221.29,-188.38 245.29,-188.38 245.29,-206.98"/>
<text text-anchor="middle" x="233.29" y="-194.98" font-family="Times,serif" font-size="9.00">&#45;2</text>
</g>
<!-- &#45;2&#45;&gt;0 -->
<g id="edge64" class="edge">
<title>&#45;2&#45;&gt;0</title>
<path fill="none" stroke="red" stroke-width="0.65" d="M221.31,-198.65C221.16,-198.66 221.01,-198.67 220.86,-198.68"/>
<polygon fill="red" stroke="red" stroke-width="0.65" points="227.37,-194.64 217.69,-198.94 227.94,-201.62 227.37,-194.64"/>
<text text-anchor="middle" x="214.63" y="-200.17" font-family="Times,serif" font-size="5.00">&#45;2.766</text>
</g>
<!-- 826 -->
<g id="node30" class="node">
<title>826</title>
<ellipse fill="white" stroke="black" cx="322.39" cy="-168.43" rx="20.72" ry="20.72"/>
<text text-anchor="middle" x="322.39" y="-165.73" font-family="Times,serif" font-size="9.00">826</text>
</g>
<!-- &#45;2&#45;&gt;826 -->
<g id="edge26" class="edge">
<title>&#45;2&#45;&gt;826</title>
<path fill="none" stroke="green" stroke-width="1.05" d="M245.31,-193.73C257.42,-189.75 276.6,-183.46 292.79,-178.14"/>
<polygon fill="green" stroke="green" stroke-width="1.05" points="293.99,-181.43 302.4,-174.99 291.81,-174.78 293.99,-181.43"/>
<text text-anchor="middle" x="263.42" y="-187.44" font-family="Times,serif" font-size="5.00">4.735</text>
</g>
<!-- 1256 -->
<g id="node31" class="node">
<title>1256</title>
<ellipse fill="white" stroke="black" cx="145.12" cy="-199.59" rx="24.08" ry="24.08"/>
<text text-anchor="middle" x="145.12" y="-196.89" font-family="Times,serif" font-size="9.00">1256</text>
</g>
<!-- &#45;2&#45;&gt;1256 -->
<g id="edge29" class="edge">
<title>&#45;2&#45;&gt;1256</title>
<path fill="none" stroke="green" stroke-width="1.05" d="M221.4,-197.93C210.73,-198.17 194.54,-198.52 179.81,-198.84"/>
<polygon fill="green" stroke="green" stroke-width="1.05" points="179.37,-195.34 169.45,-199.06 179.52,-202.34 179.37,-195.34"/>
<text text-anchor="middle" x="194.98" y="-199.88" font-family="Times,serif" font-size="5.00">4.735</text>
</g>
<!-- 1257 -->
<g id="node32" class="node">
<title>1257</title>
<ellipse fill="white" stroke="black" cx="305.77" cy="-252.41" rx="24.08" ry="24.08"/>
<text text-anchor="middle" x="305.77" y="-249.71" font-family="Times,serif" font-size="9.00">1257</text>
</g>
<!-- &#45;2&#45;&gt;1257 -->
<g id="edge32" class="edge">
<title>&#45;2&#45;&gt;1257</title>
<path fill="none" stroke="green" stroke-width="1.05" d="M245.26,-206.72C254.25,-213.51 266.94,-223.09 278.38,-231.73"/>
<polygon fill="green" stroke="green" stroke-width="1.05" points="276.32,-234.56 286.41,-237.79 280.54,-228.97 276.32,-234.56"/>
<text text-anchor="middle" x="256.19" y="-214.72" font-family="Times,serif" font-size="5.00">4.735</text>
</g>
<!-- 639 -->
<g id="node33" class="node">
<title>639</title>
<ellipse fill="white" stroke="black" cx="264.86" cy="-134.55" rx="20.74" ry="20.74"/>
<ellipse fill="none" stroke="black" cx="264.86" cy="-134.55" rx="24.72" ry="24.72"/>
<text text-anchor="middle" x="264.86" y="-131.85" font-family="Times,serif" font-size="9.00">639</text>
</g>
<!-- &#45;2&#45;&gt;639 -->
<g id="edge38" class="edge">
<title>&#45;2&#45;&gt;639</title>
<path fill="none" stroke="green" stroke-width="0.18" d="M237.95,-188.36C240.94,-182.38 245.01,-174.23 249.09,-166.09"/>
<polygon fill="green" stroke="green" stroke-width="0.18" points="252.28,-167.52 253.63,-157.01 246.02,-164.39 252.28,-167.52"/>
<text text-anchor="middle" x="237.89" y="-172.73" font-family="Times,serif" font-size="5.00">0.405</text>
</g>
<!-- 1254 -->
<g id="node34" class="node">
<title>1254</title>
<ellipse fill="white" stroke="black" cx="146.67" cy="-180.8" rx="24.08" ry="24.08"/>
<ellipse fill="none" stroke="black" cx="146.67" cy="-180.8" rx="28.08" ry="28.08"/>
<text text-anchor="middle" x="146.67" y="-178.1" font-family="Times,serif" font-size="9.00">1254</text>
</g>
<!-- &#45;2&#45;&gt;1254 -->
<g id="edge44" class="edge">
<title>&#45;2&#45;&gt;1254</title>
<path fill="none" stroke="green" stroke-width="0.18" d="M221.24,-195.33C211.61,-193.45 197.56,-190.72 184.25,-188.12"/>
<polygon fill="green" stroke="green" stroke-width="0.18" points="184.78,-184.66 174.3,-186.18 183.44,-191.53 184.78,-184.66"/>
<text text-anchor="middle" x="197.12" y="-193.23" font-family="Times,serif" font-size="5.00">0.405</text>
</g>
<!-- 1255 -->
<g id="node35" class="node">
<title>1255</title>
<ellipse fill="white" stroke="black" cx="215.71" cy="-271.49" rx="24.08" ry="24.08"/>
<ellipse fill="none" stroke="black" cx="215.71" cy="-271.49" rx="28.08" ry="28.08"/>
<text text-anchor="middle" x="215.71" y="-268.79" font-family="Times,serif" font-size="9.00">1255</text>
</g>
<!-- &#45;2&#45;&gt;1255 -->
<g id="edge50" class="edge">
<title>&#45;2&#45;&gt;1255</title>
<path fill="none" stroke="green" stroke-width="0.18" d="M231.06,-207.03C229.4,-214.01 227.01,-224.05 224.61,-234.14"/>
<polygon fill="green" stroke="green" stroke-width="0.18" points="221.14,-233.59 222.23,-244.13 227.95,-235.21 221.14,-233.59"/>
<text text-anchor="middle" x="222.21" y="-222.08" font-family="Times,serif" font-size="5.00">0.405</text>
</g>
<!-- &#45;3 -->
<g id="node3" class="node">
<title>&#45;3</title>
<polygon fill="lightgray" stroke="black" points="114.6,-219.52 90.6,-219.52 90.6,-200.92 114.6,-200.92 114.6,-219.52"/>
<text text-anchor="middle" x="102.6" y="-207.52" font-family="Times,serif" font-size="9.00">&#45;3</text>
</g>
<!-- &#45;3&#45;&gt;0 -->
<g id="edge62" class="edge">
<title>&#45;3&#45;&gt;0</title>
<path fill="none" stroke="red" stroke-width="0.1" d="M114.51,-209.03C130.18,-207.45 158.11,-204.64 178.41,-202.6"/>
<polygon fill="red" stroke="red" stroke-width="0.1" points="178.9,-206.07 188.5,-201.59 178.2,-199.11 178.9,-206.07"/>
<text text-anchor="middle" x="140.83" y="-207.31" font-family="Times,serif" font-size="5.00">0.000</text>
</g>
<!-- 1250 -->
<g id="node7" class="node">
<title>1250</title>
<ellipse fill="white" stroke="black" cx="138.06" cy="-150.47" rx="24.08" ry="24.08"/>
<text text-anchor="middle" x="138.06" y="-147.77" font-family="Times,serif" font-size="9.00">1250</text>
</g>
<!-- &#45;3&#45;&gt;1250 -->
<g id="edge2" class="edge">
<title>&#45;3&#45;&gt;1250</title>
<path fill="none" stroke="green" stroke-width="0.53" d="M108.14,-200.89C111.5,-195.22 115.99,-187.65 120.47,-180.1"/>
<polygon fill="green" stroke="green" stroke-width="0.53" points="123.56,-181.75 125.66,-171.37 117.54,-178.18 123.56,-181.75"/>
<text text-anchor="middle" x="108.68" y="-191.99" font-family="Times,serif" font-size="5.00">2.171</text>
</g>
<!-- 1272 -->
<g id="node15" class="node">
<title>1272</title>
<ellipse fill="white" stroke="black" cx="88.32" cy="-271.18" rx="24.08" ry="24.08"/>
<text text-anchor="middle" x="88.32" y="-268.48" font-family="Times,serif" font-size="9.00">1272</text>
</g>
<!-- &#45;3&#45;&gt;1272 -->
<g id="edge10" class="edge">
<title>&#45;3&#45;&gt;1272</title>
<path fill="none" stroke="green" stroke-width="0.3" d="M100.37,-219.75C99.22,-224.63 97.76,-230.89 96.24,-237.36"/>
<polygon fill="green" stroke="green" stroke-width="0.3" points="92.73,-236.99 93.86,-247.53 99.55,-238.59 92.73,-236.99"/>
<text text-anchor="middle" x="92.68" y="-224.06" font-family="Times,serif" font-size="5.00">1.000</text>
</g>
<!-- 1273 -->
<g id="node16" class="node">
<title>1273</title>
<ellipse fill="white" stroke="black" cx="48.14" cy="-166.95" rx="24.08" ry="24.08"/>
<text text-anchor="middle" x="48.14" y="-164.25" font-family="Times,serif" font-size="9.00">1273</text>
</g>
<!-- &#45;3&#45;&gt;1273 -->
<g id="edge11" class="edge">
<title>&#45;3&#45;&gt;1273</title>
<path fill="none" stroke="green" stroke-width="0.3" d="M90.78,-200.83C86.16,-197.16 80.65,-192.78 75.15,-188.41"/>
<polygon fill="green" stroke="green" stroke-width="0.3" points="77.22,-185.58 67.21,-182.1 72.86,-191.06 77.22,-185.58"/>
<text text-anchor="middle" x="77.34" y="-196.12" font-family="Times,serif" font-size="5.00">1.000</text>
</g>
<!-- 1274 -->
<g id="node17" class="node">
<title>1274</title>
<ellipse fill="white" stroke="black" cx="64.07" cy="-138.51" rx="24.08" ry="24.08"/>
<text text-anchor="middle" x="64.07" y="-135.81" font-family="Times,serif" font-size="9.00">1274</text>
</g>
<!-- &#45;3&#45;&gt;1274 -->
<g id="edge12" class="edge">
<title>&#45;3&#45;&gt;1274</title>
<path fill="none" stroke="green" stroke-width="0.3" d="M97.56,-200.85C93.18,-192.7 86.59,-180.43 80.41,-168.92"/>
<polygon fill="green" stroke="green" stroke-width="0.3" points="83.41,-167.11 75.59,-159.96 77.24,-170.42 83.41,-167.11"/>
<text text-anchor="middle" x="83.36" y="-186.39" font-family="Times,serif" font-size="5.00">1.000</text>
</g>
<!-- 1263 -->
<g id="node18" class="node">
<title>1263</title>
<ellipse fill="white" stroke="black" cx="53.72" cy="-292.58" rx="24.08" ry="24.08"/>
<text text-anchor="middle" x="53.72" y="-289.88" font-family="Times,serif" font-size="9.00">1263</text>
</g>
<!-- &#45;3&#45;&gt;1263 -->
<g id="edge13" class="edge">
<title>&#45;3&#45;&gt;1263</title>
<path fill="none" stroke="green" stroke-width="0.3" d="M96.99,-219.67C90.74,-230.2 80.33,-247.74 71.29,-262.98"/>
<polygon fill="green" stroke="green" stroke-width="0.3" points="68.26,-261.23 66.16,-271.62 74.28,-264.8 68.26,-261.23"/>
<text text-anchor="middle" x="78.51" y="-242.83" font-family="Times,serif" font-size="5.00">1.000</text>
</g>
<!-- 1264 -->
<g id="node19" class="node">
<title>1264</title>
<ellipse fill="white" stroke="black" cx="24.04" cy="-214.16" rx="24.08" ry="24.08"/>
<text text-anchor="middle" x="24.04" y="-211.46" font-family="Times,serif" font-size="9.00">1264</text>
</g>
<!-- &#45;3&#45;&gt;1264 -->
<g id="edge14" class="edge">
<title>&#45;3&#45;&gt;1264</title>
<path fill="none" stroke="green" stroke-width="0.3" d="M90.67,-210.82C82.06,-211.25 69.97,-211.86 58.45,-212.44"/>
<polygon fill="green" stroke="green" stroke-width="0.3" points="57.95,-208.96 48.14,-212.95 58.3,-215.95 57.95,-208.96"/>
<text text-anchor="middle" x="68.93" y="-213.13" font-family="Times,serif" font-size="5.00">1.000</text>
</g>
<!-- 1265 -->
<g id="node20" class="node">
<title>1265</title>
<ellipse fill="white" stroke="black" cx="31.01" cy="-252.99" rx="24.08" ry="24.08"/>
<text text-anchor="middle" x="31.01" y="-250.29" font-family="Times,serif" font-size="9.00">1265</text>
</g>
<!-- &#45;3&#45;&gt;1265 -->
<g id="edge15" class="edge">
<title>&#45;3&#45;&gt;1265</title>
<path fill="none" stroke="green" stroke-width="0.3" d="M90.78,-217.29C82.52,-222.22 71.12,-229.03 60.49,-235.38"/>
<polygon fill="green" stroke="green" stroke-width="0.3" points="58.62,-232.42 51.83,-240.56 62.21,-238.43 58.62,-232.42"/>
<text text-anchor="middle" x="70.01" y="-221.83" font-family="Times,serif" font-size="5.00">1.000</text>
</g>
<!-- &#45;4 -->
<g id="node4" class="node">
<title>&#45;4</title>
<polygon fill="lightgray" stroke="black" points="248.28,-307.49 224.27,-307.49 224.27,-288.89 248.28,-288.89 248.28,-307.49"/>
<text text-anchor="middle" x="236.27" y="-295.49" font-family="Times,serif" font-size="9.00">&#45;4</text>
</g>
<!-- &#45;4&#45;&gt;0 -->
<g id="edge63" class="edge">
<title>&#45;4&#45;&gt;0</title>
<path fill="none" stroke="green" stroke-width="1.14" d="M233.08,-288.79C228.04,-273.94 218.09,-244.62 211.01,-223.77"/>
<polygon fill="green" stroke="green" stroke-width="1.14" points="214.23,-222.38 207.71,-214.03 207.61,-224.63 214.23,-222.38"/>
<text text-anchor="middle" x="227.67" y="-257.78" font-family="Times,serif" font-size="5.00">5.216</text>
</g>
<!-- 1251 -->
<g id="node8" class="node">
<title>1251</title>
<ellipse fill="white" stroke="black" cx="265.88" cy="-240.42" rx="24.08" ry="24.08"/>
<text text-anchor="middle" x="265.88" y="-237.72" font-family="Times,serif" font-size="9.00">1251</text>
</g>
<!-- &#45;4&#45;&gt;1251 -->
<g id="edge3" class="edge">
<title>&#45;4&#45;&gt;1251</title>
<path fill="none" stroke="green" stroke-width="0.53" d="M241.16,-288.65C243.63,-283.83 246.79,-277.67 250.01,-271.38"/>
<polygon fill="green" stroke="green" stroke-width="0.53" points="253.26,-272.71 254.71,-262.22 247.03,-269.52 253.26,-272.71"/>
<text text-anchor="middle" x="251.21" y="-281.52" font-family="Times,serif" font-size="5.00">2.171</text>
</g>
<!-- 1275 -->
<g id="node21" class="node">
<title>1275</title>
<ellipse fill="white" stroke="black" cx="203.25" cy="-362.61" rx="24.08" ry="24.08"/>
<text text-anchor="middle" x="203.25" y="-359.91" font-family="Times,serif" font-size="9.00">1275</text>
</g>
<!-- &#45;4&#45;&gt;1275 -->
<g id="edge16" class="edge">
<title>&#45;4&#45;&gt;1275</title>
<path fill="none" stroke="green" stroke-width="0.3" d="M231.4,-307.7C228.07,-314.19 223.46,-323.19 218.93,-332.02"/>
<polygon fill="green" stroke="green" stroke-width="0.3" points="215.74,-330.56 214.3,-341.06 221.97,-333.76 215.74,-330.56"/>
<text text-anchor="middle" x="219.54" y="-321.36" font-family="Times,serif" font-size="5.00">1.000</text>
</g>
<!-- 1276 -->
<g id="node22" class="node">
<title>1276</title>
<ellipse fill="white" stroke="black" cx="175.93" cy="-347.53" rx="24.08" ry="24.08"/>
<text text-anchor="middle" x="175.93" y="-344.83" font-family="Times,serif" font-size="9.00">1276</text>
</g>
<!-- &#45;4&#45;&gt;1276 -->
<g id="edge17" class="edge">
<title>&#45;4&#45;&gt;1276</title>
<path fill="none" stroke="green" stroke-width="0.3" d="M224.64,-307.7C218.4,-312.8 210.44,-319.32 202.77,-325.59"/>
<polygon fill="green" stroke="green" stroke-width="0.3" points="200.18,-323.19 194.65,-332.23 204.61,-328.6 200.18,-323.19"/>
<text text-anchor="middle" x="208.08" y="-318.15" font-family="Times,serif" font-size="5.00">1.000</text>
</g>
<!-- 1277 -->
<g id="node23" class="node">
<title>1277</title>
<ellipse fill="white" stroke="black" cx="258.44" cy="-352.32" rx="24.08" ry="24.08"/>
<text text-anchor="middle" x="258.44" y="-349.62" font-family="Times,serif" font-size="9.00">1277</text>
</g>
<!-- &#45;4&#45;&gt;1277 -->
<g id="edge18" class="edge">
<title>&#45;4&#45;&gt;1277</title>
<path fill="none" stroke="green" stroke-width="0.3" d="M240.13,-307.62C241.64,-311.29 243.45,-315.72 245.35,-320.35"/>
<polygon fill="green" stroke="green" stroke-width="0.3" points="242.25,-322.03 249.28,-329.96 248.73,-319.38 242.25,-322.03"/>
<text text-anchor="middle" x="237.12" y="-309.49" font-family="Times,serif" font-size="5.00">1.000</text>
</g>
<!-- 1266 -->
<g id="node24" class="node">
<title>1266</title>
<ellipse fill="white" stroke="black" cx="307.72" cy="-354.55" rx="24.08" ry="24.08"/>
<text text-anchor="middle" x="307.72" y="-351.85" font-family="Times,serif" font-size="9.00">1266</text>
</g>
<!-- &#45;4&#45;&gt;1266 -->
<g id="edge19" class="edge">
<title>&#45;4&#45;&gt;1266</title>
<path fill="none" stroke="green" stroke-width="0.3" d="M248.07,-307.5C256.94,-314.49 269.44,-324.36 280.71,-333.25"/>
<polygon fill="green" stroke="green" stroke-width="0.3" points="278.62,-336.05 288.63,-339.5 282.95,-330.55 278.62,-336.05"/>
<text text-anchor="middle" x="258.77" y="-321.87" font-family="Times,serif" font-size="5.00">1.000</text>
</g>
<!-- 1267 -->
<g id="node25" class="node">
<title>1267</title>
<ellipse fill="white" stroke="black" cx="253.13" cy="-382.37" rx="24.08" ry="24.08"/>
<text text-anchor="middle" x="253.13" y="-379.67" font-family="Times,serif" font-size="9.00">1267</text>
</g>
<!-- &#45;4&#45;&gt;1267 -->
<g id="edge20" class="edge">
<title>&#45;4&#45;&gt;1267</title>
<path fill="none" stroke="green" stroke-width="0.3" d="M238.14,-307.52C240.13,-317.47 243.41,-333.8 246.38,-348.68"/>
<polygon fill="green" stroke="green" stroke-width="0.3" points="242.98,-349.53 248.38,-358.65 249.85,-348.15 242.98,-349.53"/>
<text text-anchor="middle" x="236.64" y="-323.6" font-family="Times,serif" font-size="5.00">1.000</text>
</g>
<!-- 1268 -->
<g id="node26" class="node">
<title>1268</title>
<ellipse fill="white" stroke="black" cx="331.44" cy="-323.19" rx="24.08" ry="24.08"/>
<text text-anchor="middle" x="331.44" y="-320.49" font-family="Times,serif" font-size="9.00">1268</text>
</g>
<!-- &#45;4&#45;&gt;1268 -->
<g id="edge21" class="edge">
<title>&#45;4&#45;&gt;1268</title>
<path fill="none" stroke="green" stroke-width="0.3" d="M248.33,-301.36C260.79,-304.63 280.79,-309.89 298.06,-314.42"/>
<polygon fill="green" stroke="green" stroke-width="0.3" points="297.27,-317.83 307.83,-316.99 299.04,-311.06 297.27,-317.83"/>
<text text-anchor="middle" x="267.57" y="-309.39" font-family="Times,serif" font-size="5.00">1.000</text>
</g>
<!-- 97&#45;&gt;0 -->
<g id="edge65" class="edge">
<title>97&#45;&gt;0</title>
<path fill="none" stroke="red" stroke-width="0.27" d="M259.87,-171.14C249.8,-176.27 236.58,-183.01 225.43,-188.69"/>
<polygon fill="red" stroke="red" stroke-width="0.27" points="223.6,-185.69 216.28,-193.35 226.78,-191.93 223.6,-185.69"/>
<text text-anchor="middle" x="236.19" y="-181.42" font-family="Times,serif" font-size="5.00">&#45;0.850</text>
</g>
<!-- 1249 -->
<g id="node27" class="node">
<title>1249</title>
<ellipse fill="white" stroke="black" cx="374.43" cy="-145.22" rx="24.08" ry="24.08"/>
<text text-anchor="middle" x="374.43" y="-142.52" font-family="Times,serif" font-size="9.00">1249</text>
</g>
<!-- 97&#45;&gt;1249 -->
<g id="edge22" class="edge">
<title>97&#45;&gt;1249</title>
<path fill="none" stroke="green" stroke-width="0.3" d="M293.29,-159.9C306.41,-157.53 324.69,-154.22 340.59,-151.34"/>
<polygon fill="green" stroke="green" stroke-width="0.3" points="341.39,-154.75 350.61,-149.53 340.14,-147.87 341.39,-154.75"/>
<text text-anchor="middle" x="311.31" y="-157.12" font-family="Times,serif" font-size="5.00">1.000</text>
</g>
<!-- 97&#45;&gt;826 -->
<g id="edge25" class="edge">
<title>97&#45;&gt;826</title>
<path fill="none" stroke="green" stroke-width="0.15" d="M293.31,-165.12C293.39,-165.13 293.48,-165.13 293.56,-165.14"/>
<polygon fill="green" stroke="green" stroke-width="0.15" points="291.21,-168.4 301.54,-166.05 292.01,-161.44 291.21,-168.4"/>
<text text-anchor="middle" x="299.06" y="-166.63" font-family="Times,serif" font-size="5.00">0.257</text>
</g>
<!-- 97&#45;&gt;639 -->
<g id="edge34" class="edge">
<title>97&#45;&gt;639</title>
<path fill="none" stroke="red" stroke-width="0.36" d="M269.36,-146.5C269.34,-146.45 269.32,-146.4 269.31,-146.35"/>
<polygon fill="red" stroke="red" stroke-width="0.36" points="276.06,-154.32 269.25,-146.2 269.51,-156.79 276.06,-154.32"/>
<text text-anchor="middle" x="262.88" y="-147.92" font-family="Times,serif" font-size="5.00">&#45;1.283</text>
</g>
<!-- 1250&#45;&gt;0 -->
<g id="edge66" class="edge">
<title>1250&#45;&gt;0</title>
<path fill="none" stroke="red" stroke-width="0.1" d="M157.19,-165.1C165.41,-171.38 175,-178.73 183.28,-185.06"/>
<polygon fill="red" stroke="red" stroke-width="0.1" points="181.25,-187.91 191.32,-191.21 185.51,-182.35 181.25,-187.91"/>
<text text-anchor="middle" x="175.86" y="-176.58" font-family="Times,serif" font-size="5.00">0.000</text>
</g>
<!-- 1258 -->
<g id="node28" class="node">
<title>1258</title>
<ellipse fill="white" stroke="black" cx="88.31" cy="-100.44" rx="24.08" ry="24.08"/>
<text text-anchor="middle" x="88.31" y="-97.74" font-family="Times,serif" font-size="9.00">1258</text>
</g>
<!-- 1250&#45;&gt;1258 -->
<g id="edge23" class="edge">
<title>1250&#45;&gt;1258</title>
<path fill="none" stroke="green" stroke-width="0.3" d="M120.94,-133.25C118.25,-130.55 115.43,-127.71 112.62,-124.88"/>
<polygon fill="green" stroke="green" stroke-width="0.3" points="114.83,-122.14 105.3,-117.52 109.87,-127.08 114.83,-122.14"/>
<text text-anchor="middle" x="111.15" y="-130.57" font-family="Times,serif" font-size="5.00">1.000</text>
</g>
<!-- 1250&#45;&gt;1256 -->
<g id="edge28" class="edge">
<title>1250&#45;&gt;1256</title>
<path fill="none" stroke="green" stroke-width="0.15" d="M141.51,-174.45C141.52,-174.55 141.54,-174.65 141.55,-174.74"/>
<polygon fill="green" stroke="green" stroke-width="0.15" points="136.79,-166.22 141.68,-175.62 143.72,-165.22 136.79,-166.22"/>
<text text-anchor="middle" x="135.91" y="-176.1" font-family="Times,serif" font-size="5.00">0.257</text>
</g>
<!-- 1250&#45;&gt;1254 -->
<g id="edge40" class="edge">
<title>1250&#45;&gt;1254</title>
<path fill="none" stroke="red" stroke-width="0.36" d="M144.67,-173.76C144.69,-173.83 144.71,-173.89 144.72,-173.95"/>
<polygon fill="red" stroke="red" stroke-width="0.36" points="138.68,-165.48 144.78,-174.14 145.41,-163.57 138.68,-165.48"/>
<text text-anchor="middle" x="141.47" y="-169.36" font-family="Times,serif" font-size="5.00">&#45;1.283</text>
</g>
<!-- 1251&#45;&gt;0 -->
<g id="edge67" class="edge">
<title>1251&#45;&gt;0</title>
<path fill="none" stroke="green" stroke-width="0.27" d="M245.63,-227.45C238.82,-223.09 231.2,-218.2 224.3,-213.79"/>
<polygon fill="green" stroke="green" stroke-width="0.27" points="225.81,-210.59 215.5,-208.15 222.03,-216.49 225.81,-210.59"/>
<text text-anchor="middle" x="234.97" y="-216.12" font-family="Times,serif" font-size="5.00">0.850</text>
</g>
<!-- 1259 -->
<g id="node29" class="node">
<title>1259</title>
<ellipse fill="white" stroke="black" cx="366.98" cy="-257.71" rx="24.08" ry="24.08"/>
<text text-anchor="middle" x="366.98" y="-255.01" font-family="Times,serif" font-size="9.00">1259</text>
</g>
<!-- 1251&#45;&gt;1259 -->
<g id="edge24" class="edge">
<title>1251&#45;&gt;1259</title>
<path fill="none" stroke="green" stroke-width="0.3" d="M289.58,-244.47C302.55,-246.69 318.83,-249.47 333.11,-251.92"/>
<polygon fill="green" stroke="green" stroke-width="0.3" points="332.63,-255.39 343.08,-253.62 333.81,-248.49 332.63,-255.39"/>
<text text-anchor="middle" x="305.72" y="-249.69" font-family="Times,serif" font-size="5.00">1.000</text>
</g>
<!-- 1251&#45;&gt;1257 -->
<g id="edge31" class="edge">
<title>1251&#45;&gt;1257</title>
<path fill="none" stroke="green" stroke-width="0.15" d="M289.09,-247.4C289.15,-247.42 289.22,-247.44 289.29,-247.46"/>
<polygon fill="green" stroke="green" stroke-width="0.15" points="278.91,-247.99 289.5,-247.52 280.93,-241.29 278.91,-247.99"/>
<text text-anchor="middle" x="294.81" y="-248.93" font-family="Times,serif" font-size="5.00">0.257</text>
</g>
<!-- 1251&#45;&gt;1255 -->
<g id="edge46" class="edge">
<title>1251&#45;&gt;1255</title>
<path fill="none" stroke="red" stroke-width="0.36" d="M245.18,-253.24C245.07,-253.31 244.95,-253.38 244.84,-253.45"/>
<polygon fill="red" stroke="red" stroke-width="0.36" points="246.28,-248.44 239.62,-256.68 249.97,-254.39 246.28,-248.44"/>
<text text-anchor="middle" x="251.47" y="-248.84" font-family="Times,serif" font-size="5.00">&#45;1.283</text>
</g>
<!-- 434 -->
<g id="node36" class="node">
<title>434</title>
<ellipse fill="white" stroke="black" cx="190.83" cy="-105.89" rx="20.72" ry="20.72"/>
<text text-anchor="middle" x="190.83" y="-103.19" font-family="Times,serif" font-size="9.00">434</text>
</g>
<!-- 1260&#45;&gt;434 -->
<g id="edge52" class="edge">
<title>1260&#45;&gt;434</title>
<path fill="none" stroke="red" stroke-width="0.56" d="M179.55,-60.73C180.75,-65.53 182.03,-70.65 183.28,-75.64"/>
<polygon fill="red" stroke="red" stroke-width="0.56" points="179.94,-76.74 185.76,-85.59 186.73,-75.04 179.94,-76.74"/>
<text text-anchor="middle" x="174.96" y="-69.69" font-family="Times,serif" font-size="5.00">&#45;2.289</text>
</g>
<!-- 1261&#45;&gt;434 -->
<g id="edge53" class="edge">
<title>1261&#45;&gt;434</title>
<path fill="none" stroke="red" stroke-width="0.1" d="M226.56,-45.12C220.52,-55.41 213.17,-67.9 206.71,-78.88"/>
<polygon fill="red" stroke="red" stroke-width="0.1" points="203.6,-77.27 201.55,-87.67 209.63,-80.82 203.6,-77.27"/>
<text text-anchor="middle" x="211.01" y="-63.5" font-family="Times,serif" font-size="5.00">0.000</text>
</g>
<!-- 1262&#45;&gt;434 -->
<g id="edge54" class="edge">
<title>1262&#45;&gt;434</title>
<path fill="none" stroke="green" stroke-width="0.56" d="M200.97,-49.08C199.49,-57.35 197.81,-66.75 196.25,-75.49"/>
<polygon fill="green" stroke="green" stroke-width="0.56" points="192.81,-74.87 194.5,-85.33 199.7,-76.1 192.81,-74.87"/>
<text text-anchor="middle" x="192.99" y="-63.78" font-family="Times,serif" font-size="5.00">2.289</text>
</g>
<!-- 1269&#45;&gt;639 -->
<g id="edge35" class="edge">
<title>1269&#45;&gt;639</title>
<path fill="none" stroke="green" stroke-width="0.25" d="M278.63,-71.88C276.71,-80.6 274.5,-90.67 272.42,-100.15"/>
<polygon fill="green" stroke="green" stroke-width="0.25" points="268.95,-99.6 270.23,-110.12 275.79,-101.1 268.95,-99.6"/>
<text text-anchor="middle" x="269.9" y="-81.52" font-family="Times,serif" font-size="5.00">0.726</text>
</g>
<!-- 1270&#45;&gt;639 -->
<g id="edge36" class="edge">
<title>1270&#45;&gt;639</title>
<path fill="none" stroke="red" stroke-width="0.1" d="M298.37,-83.77C294.04,-90.34 289.13,-97.77 284.44,-104.88"/>
<polygon fill="red" stroke="red" stroke-width="0.1" points="281.25,-103.36 278.66,-113.63 287.09,-107.21 281.25,-103.36"/>
<text text-anchor="middle" x="285.78" y="-95.83" font-family="Times,serif" font-size="5.00">0.000</text>
</g>
<!-- 1271&#45;&gt;639 -->
<g id="edge37" class="edge">
<title>1271&#45;&gt;639</title>
<path fill="none" stroke="red" stroke-width="0.25" d="M310.48,-102.76C305.33,-106.35 299.68,-110.28 294.17,-114.13"/>
<polygon fill="red" stroke="red" stroke-width="0.25" points="291.91,-111.43 285.71,-120.02 295.91,-117.18 291.91,-111.43"/>
<text text-anchor="middle" x="295.86" y="-109.94" font-family="Times,serif" font-size="5.00">&#45;0.726</text>
</g>
<!-- 1272&#45;&gt;1254 -->
<g id="edge41" class="edge">
<title>1272&#45;&gt;1254</title>
<path fill="none" stroke="green" stroke-width="0.25" d="M101.56,-250.67C108.77,-239.5 117.86,-225.43 125.98,-212.84"/>
<polygon fill="green" stroke="green" stroke-width="0.25" points="128.93,-214.72 131.42,-204.42 123.05,-210.92 128.93,-214.72"/>
<text text-anchor="middle" x="108.15" y="-233.26" font-family="Times,serif" font-size="5.00">0.726</text>
</g>
<!-- 1273&#45;&gt;1254 -->
<g id="edge42" class="edge">
<title>1273&#45;&gt;1254</title>
<path fill="none" stroke="red" stroke-width="0.1" d="M71.99,-170.3C83.03,-171.85 96.4,-173.73 108.77,-175.47"/>
<polygon fill="red" stroke="red" stroke-width="0.1" points="108.45,-178.96 118.84,-176.89 109.43,-172.03 108.45,-178.96"/>
<text text-anchor="middle" x="84.75" y="-174.38" font-family="Times,serif" font-size="5.00">0.000</text>
</g>
<!-- 1274&#45;&gt;1254 -->
<g id="edge43" class="edge">
<title>1274&#45;&gt;1254</title>
<path fill="none" stroke="red" stroke-width="0.25" d="M85.77,-149.62C93.93,-153.8 103.42,-158.66 112.44,-163.28"/>
<polygon fill="red" stroke="red" stroke-width="0.25" points="111.11,-166.53 121.6,-167.97 114.3,-160.29 111.11,-166.53"/>
<text text-anchor="middle" x="105.56" y="-157.95" font-family="Times,serif" font-size="5.00">&#45;0.726</text>
</g>
<!-- 1252 -->
<g id="node37" class="node">
<title>1252</title>
<ellipse fill="white" stroke="black" cx="120.57" cy="-248.03" rx="24.08" ry="24.08"/>
<text text-anchor="middle" x="120.57" y="-245.33" font-family="Times,serif" font-size="9.00">1252</text>
</g>
<!-- 1263&#45;&gt;1252 -->
<g id="edge55" class="edge">
<title>1263&#45;&gt;1252</title>
<path fill="none" stroke="red" stroke-width="0.56" d="M73.78,-279.21C79.46,-275.43 85.77,-271.22 91.86,-267.17"/>
<polygon fill="red" stroke="red" stroke-width="0.56" points="94.15,-269.84 100.53,-261.39 90.27,-264.02 94.15,-269.84"/>
<text text-anchor="middle" x="89.28" y="-274.69" font-family="Times,serif" font-size="5.00">&#45;2.289</text>
</g>
<!-- 1264&#45;&gt;1252 -->
<g id="edge56" class="edge">
<title>1264&#45;&gt;1252</title>
<path fill="none" stroke="red" stroke-width="0.1" d="M46.92,-222.19C59.3,-226.53 74.8,-231.97 88.38,-236.73"/>
<polygon fill="red" stroke="red" stroke-width="0.1" points="87.27,-240.05 97.86,-240.06 89.58,-233.44 87.27,-240.05"/>
<text text-anchor="middle" x="62.03" y="-230.96" font-family="Times,serif" font-size="5.00">0.000</text>
</g>
<!-- 1265&#45;&gt;1252 -->
<g id="edge57" class="edge">
<title>1265&#45;&gt;1252</title>
<path fill="none" stroke="green" stroke-width="0.56" d="M55.48,-251.64C64.94,-251.11 75.93,-250.5 86.16,-249.93"/>
<polygon fill="green" stroke="green" stroke-width="0.56" points="86.65,-253.41 96.44,-249.36 86.26,-246.42 86.65,-253.41"/>
<text text-anchor="middle" x="65.19" y="-246.29" font-family="Times,serif" font-size="5.00">2.289</text>
</g>
<!-- 1275&#45;&gt;1255 -->
<g id="edge47" class="edge">
<title>1275&#45;&gt;1255</title>
<path fill="none" stroke="green" stroke-width="0.25" d="M206.52,-338.67C207.74,-329.75 209.16,-319.38 210.51,-309.51"/>
<polygon fill="green" stroke="green" stroke-width="0.25" points="214,-309.86 211.88,-299.47 207.06,-308.91 214,-309.86"/>
<text text-anchor="middle" x="214.14" y="-325.59" font-family="Times,serif" font-size="5.00">0.726</text>
</g>
<!-- 1276&#45;&gt;1255 -->
<g id="edge48" class="edge">
<title>1276&#45;&gt;1255</title>
<path fill="none" stroke="red" stroke-width="0.1" d="M187.22,-325.95C190.54,-319.61 194.25,-312.51 197.87,-305.6"/>
<polygon fill="red" stroke="red" stroke-width="0.1" points="201.17,-306.84 202.7,-296.36 194.97,-303.59 201.17,-306.84"/>
<text text-anchor="middle" x="186.92" y="-317.27" font-family="Times,serif" font-size="5.00">0.000</text>
</g>
<!-- 1277&#45;&gt;1255 -->
<g id="edge49" class="edge">
<title>1277&#45;&gt;1255</title>
<path fill="none" stroke="red" stroke-width="0.25" d="M246.99,-330.66C242.88,-322.9 238.15,-313.95 233.64,-305.4"/>
<polygon fill="red" stroke="red" stroke-width="0.25" points="236.62,-303.57 228.85,-296.36 230.43,-306.84 236.62,-303.57"/>
<text text-anchor="middle" x="246.77" y="-313.53" font-family="Times,serif" font-size="5.00">&#45;0.726</text>
</g>
<!-- 1253 -->
<g id="node38" class="node">
<title>1253</title>
<ellipse fill="white" stroke="black" cx="263.35" cy="-280.92" rx="24.08" ry="24.08"/>
<text text-anchor="middle" x="263.35" y="-278.22" font-family="Times,serif" font-size="9.00">1253</text>
</g>
<!-- 1266&#45;&gt;1253 -->
<g id="edge58" class="edge">
<title>1266&#45;&gt;1253</title>
<path fill="none" stroke="red" stroke-width="0.56" d="M295.12,-333.65C290.73,-326.36 285.72,-318.04 280.99,-310.19"/>
<polygon fill="red" stroke="red" stroke-width="0.56" points="283.98,-308.38 275.82,-301.62 277.99,-311.99 283.98,-308.38"/>
<text text-anchor="middle" x="281.6" y="-323.42" font-family="Times,serif" font-size="5.00">&#45;2.289</text>
</g>
<!-- 1267&#45;&gt;1253 -->
<g id="edge59" class="edge">
<title>1267&#45;&gt;1253</title>
<path fill="none" stroke="red" stroke-width="0.1" d="M255.55,-358.32C256.84,-345.53 258.45,-329.57 259.87,-315.48"/>
<polygon fill="red" stroke="red" stroke-width="0.1" points="263.39,-315.44 260.91,-305.14 256.43,-314.74 263.39,-315.44"/>
<text text-anchor="middle" x="252.09" y="-338.4" font-family="Times,serif" font-size="5.00">0.000</text>
</g>
<!-- 1268&#45;&gt;1253 -->
<g id="edge60" class="edge">
<title>1268&#45;&gt;1253</title>
<path fill="none" stroke="green" stroke-width="0.56" d="M311.01,-310.51C305.32,-306.98 299.03,-303.08 292.94,-299.29"/>
<polygon fill="green" stroke="green" stroke-width="0.56" points="294.58,-296.19 284.24,-293.89 290.88,-302.14 294.58,-296.19"/>
<text text-anchor="middle" x="296.35" y="-306.4" font-family="Times,serif" font-size="5.00">2.289</text>
</g>
<!-- 1249&#45;&gt;826 -->
<g id="edge27" class="edge">
<title>1249&#45;&gt;826</title>
<path fill="none" stroke="red" stroke-width="0.48" d="M352.36,-155.06C351.92,-155.26 351.47,-155.46 351.03,-155.65"/>
<polygon fill="red" stroke="red" stroke-width="0.48" points="349.4,-152.55 341.7,-159.82 352.25,-158.94 349.4,-152.55"/>
<text text-anchor="middle" x="345.24" y="-156.86" font-family="Times,serif" font-size="5.00">&#45;1.902</text>
</g>
<!-- 1258&#45;&gt;1256 -->
<g id="edge30" class="edge">
<title>1258&#45;&gt;1256</title>
<path fill="none" stroke="red" stroke-width="0.48" d="M100.36,-121.47C108.42,-135.53 119.14,-154.25 128.08,-169.84"/>
<polygon fill="red" stroke="red" stroke-width="0.48" points="125.08,-171.66 133.09,-178.59 131.16,-168.18 125.08,-171.66"/>
<text text-anchor="middle" x="107.76" y="-147.15" font-family="Times,serif" font-size="5.00">&#45;1.902</text>
</g>
<!-- 1259&#45;&gt;1257 -->
<g id="edge33" class="edge">
<title>1259&#45;&gt;1257</title>
<path fill="none" stroke="red" stroke-width="0.48" d="M342.79,-255.62C341.86,-255.54 340.91,-255.45 339.96,-255.37"/>
<polygon fill="red" stroke="red" stroke-width="0.48" points="340.06,-251.87 329.79,-254.49 339.45,-258.84 340.06,-251.87"/>
<text text-anchor="middle" x="334.92" y="-256.99" font-family="Times,serif" font-size="5.00">&#45;1.902</text>
</g>
<!-- 826&#45;&gt;639 -->
<g id="edge39" class="edge">
<title>826&#45;&gt;639</title>
<path fill="none" stroke="green" stroke-width="0.14" stroke-dasharray="1,5" d="M304.19,-157.71C301.27,-155.99 298.18,-154.17 295.07,-152.34"/>
<polygon fill="green" stroke="green" stroke-width="0.14" points="296.76,-149.27 286.36,-147.21 293.2,-155.3 296.76,-149.27"/>
<text text-anchor="middle" x="296.82" y="-150.52" font-family="Times,serif" font-size="5.00">0.200</text>
</g>
<!-- 1256&#45;&gt;1254 -->
<g id="edge45" class="edge">
<title>1256&#45;&gt;1254</title>
<path fill="none" stroke="green" stroke-width="0.14" stroke-dasharray="1,5" d="M146.66,-180.85C146.66,-180.85 146.66,-180.84 146.66,-180.83"/>
<polygon fill="green" stroke="green" stroke-width="0.14" points="149.28,-191.09 146.67,-180.81 142.3,-190.48 149.28,-191.09"/>
<text text-anchor="middle" x="141.04" y="-182.34" font-family="Times,serif" font-size="5.00">0.200</text>
</g>
<!-- 1257&#45;&gt;1255 -->
<g id="edge51" class="edge">
<title>1257&#45;&gt;1255</title>
<path fill="none" stroke="green" stroke-width="0.14" stroke-dasharray="1,5" d="M282.11,-257.43C273.29,-259.3 263.05,-261.47 253.29,-263.53"/>
<polygon fill="green" stroke="green" stroke-width="0.14" points="252.43,-260.14 243.37,-265.63 253.88,-266.99 252.43,-260.14"/>
<text text-anchor="middle" x="262.07" y="-255.98" font-family="Times,serif" font-size="5.00">0.200</text>
</g>
<!-- 639&#45;&gt;0 -->
<g id="edge68" class="edge">
<title>639&#45;&gt;0</title>
<path fill="none" stroke="red" stroke-width="0.98" d="M247.62,-152.82C238.99,-161.97 228.58,-173 219.99,-182.11"/>
<polygon fill="red" stroke="red" stroke-width="0.98" points="217.31,-179.85 212.99,-189.53 222.4,-184.66 217.31,-179.85"/>
<text text-anchor="middle" x="227.35" y="-162.97" font-family="Times,serif" font-size="5.00">&#45;4.410</text>
</g>
<!-- 1254&#45;&gt;0 -->
<g id="edge69" class="edge">
<title>1254&#45;&gt;0</title>
<path fill="none" stroke="red" stroke-width="0.98" d="M173.51,-190.01C175.55,-190.71 177.6,-191.42 179.61,-192.11"/>
<polygon fill="red" stroke="red" stroke-width="0.98" points="178.61,-195.47 189.21,-195.4 180.89,-188.85 178.61,-195.47"/>
<text text-anchor="middle" x="183.02" y="-192.56" font-family="Times,serif" font-size="5.00">&#45;4.410</text>
</g>
<!-- 1255&#45;&gt;0 -->
<g id="edge70" class="edge">
<title>1255&#45;&gt;0</title>
<path fill="none" stroke="red" stroke-width="0.98" d="M210.75,-243.7C209.66,-237.54 208.5,-231.04 207.42,-225"/>
<polygon fill="red" stroke="red" stroke-width="0.98" points="210.8,-224.03 205.6,-214.8 203.91,-225.26 210.8,-224.03"/>
<text text-anchor="middle" x="202.63" y="-235.85" font-family="Times,serif" font-size="5.00">&#45;4.410</text>
</g>
<!-- 434&#45;&gt;0 -->
<g id="edge71" class="edge">
<title>434&#45;&gt;0</title>
<path fill="none" stroke="red" stroke-width="0.16" d="M193.53,-126.81C195.38,-141.21 197.86,-160.4 199.81,-175.53"/>
<polygon fill="red" stroke="red" stroke-width="0.16" points="196.37,-176.24 201.13,-185.71 203.32,-175.34 196.37,-176.24"/>
<text text-anchor="middle" x="190.21" y="-152.67" font-family="Times,serif" font-size="5.00">&#45;0.309</text>
</g>
<!-- 1252&#45;&gt;0 -->
<g id="edge72" class="edge">
<title>1252&#45;&gt;0</title>
<path fill="none" stroke="red" stroke-width="0.16" d="M141.37,-235.94C153.68,-228.79 169.24,-219.74 181.65,-212.53"/>
<polygon fill="red" stroke="red" stroke-width="0.16" points="183.53,-215.49 190.41,-207.44 180.01,-209.44 183.53,-215.49"/>
<text text-anchor="middle" x="155.05" y="-225.74" font-family="Times,serif" font-size="5.00">&#45;0.309</text>
</g>
<!-- 1253&#45;&gt;0 -->
<g id="edge73" class="edge">
<title>1253&#45;&gt;0</title>
<path fill="none" stroke="red" stroke-width="0.16" d="M248.74,-261.37C239.33,-248.77 227.13,-232.45 217.7,-219.82"/>
<polygon fill="red" stroke="red" stroke-width="0.16" points="220.47,-217.68 211.68,-211.77 214.86,-221.87 220.47,-217.68"/>
<text text-anchor="middle" x="226.76" y="-236.09" font-family="Times,serif" font-size="5.00">&#45;0.309</text>
</g>
</g>
</svg>
