<?xml version="1.0" encoding="utf-8" standalone="no"?>
<!DOCTYPE svg PUBLIC "-//W3C//DTD SVG 1.1//EN"
  "http://www.w3.org/Graphics/SVG/1.1/DTD/svg11.dtd">
<!-- Created with matplotlib (https://matplotlib.org/) -->
<svg height="345.6pt" version="1.1" viewBox="0 0 460.8 345.6" width="460.8pt" xmlns="http://www.w3.org/2000/svg" xmlns:xlink="http://www.w3.org/1999/xlink">
 <metadata>
  <rdf:RDF xmlns:cc="http://creativecommons.org/ns#" xmlns:dc="http://purl.org/dc/elements/1.1/" xmlns:rdf="http://www.w3.org/1999/02/22-rdf-syntax-ns#">
   <cc:Work>
    <dc:type rdf:resource="http://purl.org/dc/dcmitype/StillImage"/>
    <dc:date>2021-06-19T15:08:50.320034</dc:date>
    <dc:format>image/svg+xml</dc:format>
    <dc:creator>
     <cc:Agent>
      <dc:title>Matplotlib v3.3.0, https://matplotlib.org/</dc:title>
     </cc:Agent>
    </dc:creator>
   </cc:Work>
  </rdf:RDF>
 </metadata>
 <defs>
  <style type="text/css">*{stroke-linecap:butt;stroke-linejoin:round;}</style>
 </defs>
 <g id="figure_1">
  <g id="patch_1">
   <path d="M 0 345.6 
L 460.8 345.6 
L 460.8 0 
L 0 0 
z
" style="fill:#ffffff;"/>
  </g>
  <g id="axes_1">
   <g id="patch_2">
    <path d="M 57.6 307.584 
L 414.72 307.584 
L 414.72 41.472 
L 57.6 41.472 
z
" style="fill:#ffffff;"/>
   </g>
   <g id="matplotlib.axis_1">
    <g id="xtick_1">
     <g id="line2d_1">
      <path clip-path="url(#pd74be85718)" d="M 73.832727 307.584 
L 73.832727 41.472 
" style="fill:none;stroke:#b0b0b0;stroke-linecap:square;stroke-width:0.8;"/>
     </g>
     <g id="line2d_2">
      <defs>
       <path d="M 0 0 
L 0 3.5 
" id="m26876e8020" style="stroke:#000000;stroke-width:0.8;"/>
      </defs>
      <g>
       <use style="stroke:#000000;stroke-width:0.8;" x="73.832727" xlink:href="#m26876e8020" y="307.584"/>
      </g>
     </g>
     <g id="text_1">
      <!-- 0 -->
      <g transform="translate(70.651477 322.182437)scale(0.1 -0.1)">
       <defs>
        <path d="M 31.78125 66.40625 
Q 24.171875 66.40625 20.328125 58.90625 
Q 16.5 51.421875 16.5 36.375 
Q 16.5 21.390625 20.328125 13.890625 
Q 24.171875 6.390625 31.78125 6.390625 
Q 39.453125 6.390625 43.28125 13.890625 
Q 47.125 21.390625 47.125 36.375 
Q 47.125 51.421875 43.28125 58.90625 
Q 39.453125 66.40625 31.78125 66.40625 
z
M 31.78125 74.21875 
Q 44.046875 74.21875 50.515625 64.515625 
Q 56.984375 54.828125 56.984375 36.375 
Q 56.984375 17.96875 50.515625 8.265625 
Q 44.046875 -1.421875 31.78125 -1.421875 
Q 19.53125 -1.421875 13.0625 8.265625 
Q 6.59375 17.96875 6.59375 36.375 
Q 6.59375 54.828125 13.0625 64.515625 
Q 19.53125 74.21875 31.78125 74.21875 
z
" id="DejaVuSans-48"/>
       </defs>
       <use xlink:href="#DejaVuSans-48"/>
      </g>
     </g>
    </g>
    <g id="xtick_2">
     <g id="line2d_3">
      <path clip-path="url(#pd74be85718)" d="M 152.824101 307.584 
L 152.824101 41.472 
" style="fill:none;stroke:#b0b0b0;stroke-linecap:square;stroke-width:0.8;"/>
     </g>
     <g id="line2d_4">
      <g>
       <use style="stroke:#000000;stroke-width:0.8;" x="152.824101" xlink:href="#m26876e8020" y="307.584"/>
      </g>
     </g>
     <g id="text_2">
      <!-- 100 -->
      <g transform="translate(143.280351 322.182437)scale(0.1 -0.1)">
       <defs>
        <path d="M 12.40625 8.296875 
L 28.515625 8.296875 
L 28.515625 63.921875 
L 10.984375 60.40625 
L 10.984375 69.390625 
L 28.421875 72.90625 
L 38.28125 72.90625 
L 38.28125 8.296875 
L 54.390625 8.296875 
L 54.390625 0 
L 12.40625 0 
z
" id="DejaVuSans-49"/>
       </defs>
       <use xlink:href="#DejaVuSans-49"/>
       <use x="63.623047" xlink:href="#DejaVuSans-48"/>
       <use x="127.246094" xlink:href="#DejaVuSans-48"/>
      </g>
     </g>
    </g>
    <g id="xtick_3">
     <g id="line2d_5">
      <path clip-path="url(#pd74be85718)" d="M 231.815474 307.584 
L 231.815474 41.472 
" style="fill:none;stroke:#b0b0b0;stroke-linecap:square;stroke-width:0.8;"/>
     </g>
     <g id="line2d_6">
      <g>
       <use style="stroke:#000000;stroke-width:0.8;" x="231.815474" xlink:href="#m26876e8020" y="307.584"/>
      </g>
     </g>
     <g id="text_3">
      <!-- 200 -->
      <g transform="translate(222.271724 322.182437)scale(0.1 -0.1)">
       <defs>
        <path d="M 19.1875 8.296875 
L 53.609375 8.296875 
L 53.609375 0 
L 7.328125 0 
L 7.328125 8.296875 
Q 12.9375 14.109375 22.625 23.890625 
Q 32.328125 33.6875 34.8125 36.53125 
Q 39.546875 41.84375 41.421875 45.53125 
Q 43.3125 49.21875 43.3125 52.78125 
Q 43.3125 58.59375 39.234375 62.25 
Q 35.15625 65.921875 28.609375 65.921875 
Q 23.96875 65.921875 18.8125 64.3125 
Q 13.671875 62.703125 7.8125 59.421875 
L 7.8125 69.390625 
Q 13.765625 71.78125 18.9375 73 
Q 24.125 74.21875 28.421875 74.21875 
Q 39.75 74.21875 46.484375 68.546875 
Q 53.21875 62.890625 53.21875 53.421875 
Q 53.21875 48.921875 51.53125 44.890625 
Q 49.859375 40.875 45.40625 35.40625 
Q 44.1875 33.984375 37.640625 27.21875 
Q 31.109375 20.453125 19.1875 8.296875 
z
" id="DejaVuSans-50"/>
       </defs>
       <use xlink:href="#DejaVuSans-50"/>
       <use x="63.623047" xlink:href="#DejaVuSans-48"/>
       <use x="127.246094" xlink:href="#DejaVuSans-48"/>
      </g>
     </g>
    </g>
    <g id="xtick_4">
     <g id="line2d_7">
      <path clip-path="url(#pd74be85718)" d="M 310.806848 307.584 
L 310.806848 41.472 
" style="fill:none;stroke:#b0b0b0;stroke-linecap:square;stroke-width:0.8;"/>
     </g>
     <g id="line2d_8">
      <g>
       <use style="stroke:#000000;stroke-width:0.8;" x="310.806848" xlink:href="#m26876e8020" y="307.584"/>
      </g>
     </g>
     <g id="text_4">
      <!-- 300 -->
      <g transform="translate(301.263098 322.182437)scale(0.1 -0.1)">
       <defs>
        <path d="M 40.578125 39.3125 
Q 47.65625 37.796875 51.625 33 
Q 55.609375 28.21875 55.609375 21.1875 
Q 55.609375 10.40625 48.1875 4.484375 
Q 40.765625 -1.421875 27.09375 -1.421875 
Q 22.515625 -1.421875 17.65625 -0.515625 
Q 12.796875 0.390625 7.625 2.203125 
L 7.625 11.71875 
Q 11.71875 9.328125 16.59375 8.109375 
Q 21.484375 6.890625 26.8125 6.890625 
Q 36.078125 6.890625 40.9375 10.546875 
Q 45.796875 14.203125 45.796875 21.1875 
Q 45.796875 27.640625 41.28125 31.265625 
Q 36.765625 34.90625 28.71875 34.90625 
L 20.21875 34.90625 
L 20.21875 43.015625 
L 29.109375 43.015625 
Q 36.375 43.015625 40.234375 45.921875 
Q 44.09375 48.828125 44.09375 54.296875 
Q 44.09375 59.90625 40.109375 62.90625 
Q 36.140625 65.921875 28.71875 65.921875 
Q 24.65625 65.921875 20.015625 65.03125 
Q 15.375 64.15625 9.8125 62.3125 
L 9.8125 71.09375 
Q 15.4375 72.65625 20.34375 73.4375 
Q 25.25 74.21875 29.59375 74.21875 
Q 40.828125 74.21875 47.359375 69.109375 
Q 53.90625 64.015625 53.90625 55.328125 
Q 53.90625 49.265625 50.4375 45.09375 
Q 46.96875 40.921875 40.578125 39.3125 
z
" id="DejaVuSans-51"/>
       </defs>
       <use xlink:href="#DejaVuSans-51"/>
       <use x="63.623047" xlink:href="#DejaVuSans-48"/>
       <use x="127.246094" xlink:href="#DejaVuSans-48"/>
      </g>
     </g>
    </g>
    <g id="xtick_5">
     <g id="line2d_9">
      <path clip-path="url(#pd74be85718)" d="M 389.798222 307.584 
L 389.798222 41.472 
" style="fill:none;stroke:#b0b0b0;stroke-linecap:square;stroke-width:0.8;"/>
     </g>
     <g id="line2d_10">
      <g>
       <use style="stroke:#000000;stroke-width:0.8;" x="389.798222" xlink:href="#m26876e8020" y="307.584"/>
      </g>
     </g>
     <g id="text_5">
      <!-- 400 -->
      <g transform="translate(380.254472 322.182437)scale(0.1 -0.1)">
       <defs>
        <path d="M 37.796875 64.3125 
L 12.890625 25.390625 
L 37.796875 25.390625 
z
M 35.203125 72.90625 
L 47.609375 72.90625 
L 47.609375 25.390625 
L 58.015625 25.390625 
L 58.015625 17.1875 
L 47.609375 17.1875 
L 47.609375 0 
L 37.796875 0 
L 37.796875 17.1875 
L 4.890625 17.1875 
L 4.890625 26.703125 
z
" id="DejaVuSans-52"/>
       </defs>
       <use xlink:href="#DejaVuSans-52"/>
       <use x="63.623047" xlink:href="#DejaVuSans-48"/>
       <use x="127.246094" xlink:href="#DejaVuSans-48"/>
      </g>
     </g>
    </g>
    <g id="text_6">
     <!-- Generations -->
     <g transform="translate(205.662344 335.860562)scale(0.1 -0.1)">
      <defs>
       <path d="M 59.515625 10.40625 
L 59.515625 29.984375 
L 43.40625 29.984375 
L 43.40625 38.09375 
L 69.28125 38.09375 
L 69.28125 6.78125 
Q 63.578125 2.734375 56.6875 0.65625 
Q 49.8125 -1.421875 42 -1.421875 
Q 24.90625 -1.421875 15.25 8.5625 
Q 5.609375 18.5625 5.609375 36.375 
Q 5.609375 54.25 15.25 64.234375 
Q 24.90625 74.21875 42 74.21875 
Q 49.125 74.21875 55.546875 72.453125 
Q 61.96875 70.703125 67.390625 67.28125 
L 67.390625 56.78125 
Q 61.921875 61.421875 55.765625 63.765625 
Q 49.609375 66.109375 42.828125 66.109375 
Q 29.4375 66.109375 22.71875 58.640625 
Q 16.015625 51.171875 16.015625 36.375 
Q 16.015625 21.625 22.71875 14.15625 
Q 29.4375 6.6875 42.828125 6.6875 
Q 48.046875 6.6875 52.140625 7.59375 
Q 56.25 8.5 59.515625 10.40625 
z
" id="DejaVuSans-71"/>
       <path d="M 56.203125 29.59375 
L 56.203125 25.203125 
L 14.890625 25.203125 
Q 15.484375 15.921875 20.484375 11.0625 
Q 25.484375 6.203125 34.421875 6.203125 
Q 39.59375 6.203125 44.453125 7.46875 
Q 49.3125 8.734375 54.109375 11.28125 
L 54.109375 2.78125 
Q 49.265625 0.734375 44.1875 -0.34375 
Q 39.109375 -1.421875 33.890625 -1.421875 
Q 20.796875 -1.421875 13.15625 6.1875 
Q 5.515625 13.8125 5.515625 26.8125 
Q 5.515625 40.234375 12.765625 48.109375 
Q 20.015625 56 32.328125 56 
Q 43.359375 56 49.78125 48.890625 
Q 56.203125 41.796875 56.203125 29.59375 
z
M 47.21875 32.234375 
Q 47.125 39.59375 43.09375 43.984375 
Q 39.0625 48.390625 32.421875 48.390625 
Q 24.90625 48.390625 20.390625 44.140625 
Q 15.875 39.890625 15.1875 32.171875 
z
" id="DejaVuSans-101"/>
       <path d="M 54.890625 33.015625 
L 54.890625 0 
L 45.90625 0 
L 45.90625 32.71875 
Q 45.90625 40.484375 42.875 44.328125 
Q 39.84375 48.1875 33.796875 48.1875 
Q 26.515625 48.1875 22.3125 43.546875 
Q 18.109375 38.921875 18.109375 30.90625 
L 18.109375 0 
L 9.078125 0 
L 9.078125 54.6875 
L 18.109375 54.6875 
L 18.109375 46.1875 
Q 21.34375 51.125 25.703125 53.5625 
Q 30.078125 56 35.796875 56 
Q 45.21875 56 50.046875 50.171875 
Q 54.890625 44.34375 54.890625 33.015625 
z
" id="DejaVuSans-110"/>
       <path d="M 41.109375 46.296875 
Q 39.59375 47.171875 37.8125 47.578125 
Q 36.03125 48 33.890625 48 
Q 26.265625 48 22.1875 43.046875 
Q 18.109375 38.09375 18.109375 28.8125 
L 18.109375 0 
L 9.078125 0 
L 9.078125 54.6875 
L 18.109375 54.6875 
L 18.109375 46.1875 
Q 20.953125 51.171875 25.484375 53.578125 
Q 30.03125 56 36.53125 56 
Q 37.453125 56 38.578125 55.875 
Q 39.703125 55.765625 41.0625 55.515625 
z
" id="DejaVuSans-114"/>
       <path d="M 34.28125 27.484375 
Q 23.390625 27.484375 19.1875 25 
Q 14.984375 22.515625 14.984375 16.5 
Q 14.984375 11.71875 18.140625 8.90625 
Q 21.296875 6.109375 26.703125 6.109375 
Q 34.1875 6.109375 38.703125 11.40625 
Q 43.21875 16.703125 43.21875 25.484375 
L 43.21875 27.484375 
z
M 52.203125 31.203125 
L 52.203125 0 
L 43.21875 0 
L 43.21875 8.296875 
Q 40.140625 3.328125 35.546875 0.953125 
Q 30.953125 -1.421875 24.3125 -1.421875 
Q 15.921875 -1.421875 10.953125 3.296875 
Q 6 8.015625 6 15.921875 
Q 6 25.140625 12.171875 29.828125 
Q 18.359375 34.515625 30.609375 34.515625 
L 43.21875 34.515625 
L 43.21875 35.40625 
Q 43.21875 41.609375 39.140625 45 
Q 35.0625 48.390625 27.6875 48.390625 
Q 23 48.390625 18.546875 47.265625 
Q 14.109375 46.140625 10.015625 43.890625 
L 10.015625 52.203125 
Q 14.9375 54.109375 19.578125 55.046875 
Q 24.21875 56 28.609375 56 
Q 40.484375 56 46.34375 49.84375 
Q 52.203125 43.703125 52.203125 31.203125 
z
" id="DejaVuSans-97"/>
       <path d="M 18.3125 70.21875 
L 18.3125 54.6875 
L 36.8125 54.6875 
L 36.8125 47.703125 
L 18.3125 47.703125 
L 18.3125 18.015625 
Q 18.3125 11.328125 20.140625 9.421875 
Q 21.96875 7.515625 27.59375 7.515625 
L 36.8125 7.515625 
L 36.8125 0 
L 27.59375 0 
Q 17.1875 0 13.234375 3.875 
Q 9.28125 7.765625 9.28125 18.015625 
L 9.28125 47.703125 
L 2.6875 47.703125 
L 2.6875 54.6875 
L 9.28125 54.6875 
L 9.28125 70.21875 
z
" id="DejaVuSans-116"/>
       <path d="M 9.421875 54.6875 
L 18.40625 54.6875 
L 18.40625 0 
L 9.421875 0 
z
M 9.421875 75.984375 
L 18.40625 75.984375 
L 18.40625 64.59375 
L 9.421875 64.59375 
z
" id="DejaVuSans-105"/>
       <path d="M 30.609375 48.390625 
Q 23.390625 48.390625 19.1875 42.75 
Q 14.984375 37.109375 14.984375 27.296875 
Q 14.984375 17.484375 19.15625 11.84375 
Q 23.34375 6.203125 30.609375 6.203125 
Q 37.796875 6.203125 41.984375 11.859375 
Q 46.1875 17.53125 46.1875 27.296875 
Q 46.1875 37.015625 41.984375 42.703125 
Q 37.796875 48.390625 30.609375 48.390625 
z
M 30.609375 56 
Q 42.328125 56 49.015625 48.375 
Q 55.71875 40.765625 55.71875 27.296875 
Q 55.71875 13.875 49.015625 6.21875 
Q 42.328125 -1.421875 30.609375 -1.421875 
Q 18.84375 -1.421875 12.171875 6.21875 
Q 5.515625 13.875 5.515625 27.296875 
Q 5.515625 40.765625 12.171875 48.375 
Q 18.84375 56 30.609375 56 
z
" id="DejaVuSans-111"/>
       <path d="M 44.28125 53.078125 
L 44.28125 44.578125 
Q 40.484375 46.53125 36.375 47.5 
Q 32.28125 48.484375 27.875 48.484375 
Q 21.1875 48.484375 17.84375 46.4375 
Q 14.5 44.390625 14.5 40.28125 
Q 14.5 37.15625 16.890625 35.375 
Q 19.28125 33.59375 26.515625 31.984375 
L 29.59375 31.296875 
Q 39.15625 29.25 43.1875 25.515625 
Q 47.21875 21.78125 47.21875 15.09375 
Q 47.21875 7.46875 41.1875 3.015625 
Q 35.15625 -1.421875 24.609375 -1.421875 
Q 20.21875 -1.421875 15.453125 -0.5625 
Q 10.6875 0.296875 5.421875 2 
L 5.421875 11.28125 
Q 10.40625 8.6875 15.234375 7.390625 
Q 20.0625 6.109375 24.8125 6.109375 
Q 31.15625 6.109375 34.5625 8.28125 
Q 37.984375 10.453125 37.984375 14.40625 
Q 37.984375 18.0625 35.515625 20.015625 
Q 33.0625 21.96875 24.703125 23.78125 
L 21.578125 24.515625 
Q 13.234375 26.265625 9.515625 29.90625 
Q 5.8125 33.546875 5.8125 39.890625 
Q 5.8125 47.609375 11.28125 51.796875 
Q 16.75 56 26.8125 56 
Q 31.78125 56 36.171875 55.265625 
Q 40.578125 54.546875 44.28125 53.078125 
z
" id="DejaVuSans-115"/>
      </defs>
      <use xlink:href="#DejaVuSans-71"/>
      <use x="77.490234" xlink:href="#DejaVuSans-101"/>
      <use x="139.013672" xlink:href="#DejaVuSans-110"/>
      <use x="202.392578" xlink:href="#DejaVuSans-101"/>
      <use x="263.916016" xlink:href="#DejaVuSans-114"/>
      <use x="305.029297" xlink:href="#DejaVuSans-97"/>
      <use x="366.308594" xlink:href="#DejaVuSans-116"/>
      <use x="405.517578" xlink:href="#DejaVuSans-105"/>
      <use x="433.300781" xlink:href="#DejaVuSans-111"/>
      <use x="494.482422" xlink:href="#DejaVuSans-110"/>
      <use x="557.861328" xlink:href="#DejaVuSans-115"/>
     </g>
    </g>
   </g>
   <g id="matplotlib.axis_2">
    <g id="ytick_1">
     <g id="line2d_11">
      <path clip-path="url(#pd74be85718)" d="M 57.6 288.090336 
L 414.72 288.090336 
" style="fill:none;stroke:#b0b0b0;stroke-linecap:square;stroke-width:0.8;"/>
     </g>
     <g id="line2d_12">
      <defs>
       <path d="M 0 0 
L -3.5 0 
" id="m00a492fca1" style="stroke:#000000;stroke-width:0.8;"/>
      </defs>
      <g>
       <use style="stroke:#000000;stroke-width:0.8;" x="57.6" xlink:href="#m00a492fca1" y="288.090336"/>
      </g>
     </g>
     <g id="text_7">
      <!-- 300 -->
      <g transform="translate(31.5125 291.889555)scale(0.1 -0.1)">
       <use xlink:href="#DejaVuSans-51"/>
       <use x="63.623047" xlink:href="#DejaVuSans-48"/>
       <use x="127.246094" xlink:href="#DejaVuSans-48"/>
      </g>
     </g>
    </g>
    <g id="ytick_2">
     <g id="line2d_13">
      <path clip-path="url(#pd74be85718)" d="M 57.6 252.610407 
L 414.72 252.610407 
" style="fill:none;stroke:#b0b0b0;stroke-linecap:square;stroke-width:0.8;"/>
     </g>
     <g id="line2d_14">
      <g>
       <use style="stroke:#000000;stroke-width:0.8;" x="57.6" xlink:href="#m00a492fca1" y="252.610407"/>
      </g>
     </g>
     <g id="text_8">
      <!-- 400 -->
      <g transform="translate(31.5125 256.409625)scale(0.1 -0.1)">
       <use xlink:href="#DejaVuSans-52"/>
       <use x="63.623047" xlink:href="#DejaVuSans-48"/>
       <use x="127.246094" xlink:href="#DejaVuSans-48"/>
      </g>
     </g>
    </g>
    <g id="ytick_3">
     <g id="line2d_15">
      <path clip-path="url(#pd74be85718)" d="M 57.6 217.130477 
L 414.72 217.130477 
" style="fill:none;stroke:#b0b0b0;stroke-linecap:square;stroke-width:0.8;"/>
     </g>
     <g id="line2d_16">
      <g>
       <use style="stroke:#000000;stroke-width:0.8;" x="57.6" xlink:href="#m00a492fca1" y="217.130477"/>
      </g>
     </g>
     <g id="text_9">
      <!-- 500 -->
      <g transform="translate(31.5125 220.929695)scale(0.1 -0.1)">
       <defs>
        <path d="M 10.796875 72.90625 
L 49.515625 72.90625 
L 49.515625 64.59375 
L 19.828125 64.59375 
L 19.828125 46.734375 
Q 21.96875 47.46875 24.109375 47.828125 
Q 26.265625 48.1875 28.421875 48.1875 
Q 40.625 48.1875 47.75 41.5 
Q 54.890625 34.8125 54.890625 23.390625 
Q 54.890625 11.625 47.5625 5.09375 
Q 40.234375 -1.421875 26.90625 -1.421875 
Q 22.3125 -1.421875 17.546875 -0.640625 
Q 12.796875 0.140625 7.71875 1.703125 
L 7.71875 11.625 
Q 12.109375 9.234375 16.796875 8.0625 
Q 21.484375 6.890625 26.703125 6.890625 
Q 35.15625 6.890625 40.078125 11.328125 
Q 45.015625 15.765625 45.015625 23.390625 
Q 45.015625 31 40.078125 35.4375 
Q 35.15625 39.890625 26.703125 39.890625 
Q 22.75 39.890625 18.8125 39.015625 
Q 14.890625 38.140625 10.796875 36.28125 
z
" id="DejaVuSans-53"/>
       </defs>
       <use xlink:href="#DejaVuSans-53"/>
       <use x="63.623047" xlink:href="#DejaVuSans-48"/>
       <use x="127.246094" xlink:href="#DejaVuSans-48"/>
      </g>
     </g>
    </g>
    <g id="ytick_4">
     <g id="line2d_17">
      <path clip-path="url(#pd74be85718)" d="M 57.6 181.650547 
L 414.72 181.650547 
" style="fill:none;stroke:#b0b0b0;stroke-linecap:square;stroke-width:0.8;"/>
     </g>
     <g id="line2d_18">
      <g>
       <use style="stroke:#000000;stroke-width:0.8;" x="57.6" xlink:href="#m00a492fca1" y="181.650547"/>
      </g>
     </g>
     <g id="text_10">
      <!-- 600 -->
      <g transform="translate(31.5125 185.449766)scale(0.1 -0.1)">
       <defs>
        <path d="M 33.015625 40.375 
Q 26.375 40.375 22.484375 35.828125 
Q 18.609375 31.296875 18.609375 23.390625 
Q 18.609375 15.53125 22.484375 10.953125 
Q 26.375 6.390625 33.015625 6.390625 
Q 39.65625 6.390625 43.53125 10.953125 
Q 47.40625 15.53125 47.40625 23.390625 
Q 47.40625 31.296875 43.53125 35.828125 
Q 39.65625 40.375 33.015625 40.375 
z
M 52.59375 71.296875 
L 52.59375 62.3125 
Q 48.875 64.0625 45.09375 64.984375 
Q 41.3125 65.921875 37.59375 65.921875 
Q 27.828125 65.921875 22.671875 59.328125 
Q 17.53125 52.734375 16.796875 39.40625 
Q 19.671875 43.65625 24.015625 45.921875 
Q 28.375 48.1875 33.59375 48.1875 
Q 44.578125 48.1875 50.953125 41.515625 
Q 57.328125 34.859375 57.328125 23.390625 
Q 57.328125 12.15625 50.6875 5.359375 
Q 44.046875 -1.421875 33.015625 -1.421875 
Q 20.359375 -1.421875 13.671875 8.265625 
Q 6.984375 17.96875 6.984375 36.375 
Q 6.984375 53.65625 15.1875 63.9375 
Q 23.390625 74.21875 37.203125 74.21875 
Q 40.921875 74.21875 44.703125 73.484375 
Q 48.484375 72.75 52.59375 71.296875 
z
" id="DejaVuSans-54"/>
       </defs>
       <use xlink:href="#DejaVuSans-54"/>
       <use x="63.623047" xlink:href="#DejaVuSans-48"/>
       <use x="127.246094" xlink:href="#DejaVuSans-48"/>
      </g>
     </g>
    </g>
    <g id="ytick_5">
     <g id="line2d_19">
      <path clip-path="url(#pd74be85718)" d="M 57.6 146.170617 
L 414.72 146.170617 
" style="fill:none;stroke:#b0b0b0;stroke-linecap:square;stroke-width:0.8;"/>
     </g>
     <g id="line2d_20">
      <g>
       <use style="stroke:#000000;stroke-width:0.8;" x="57.6" xlink:href="#m00a492fca1" y="146.170617"/>
      </g>
     </g>
     <g id="text_11">
      <!-- 700 -->
      <g transform="translate(31.5125 149.969836)scale(0.1 -0.1)">
       <defs>
        <path d="M 8.203125 72.90625 
L 55.078125 72.90625 
L 55.078125 68.703125 
L 28.609375 0 
L 18.3125 0 
L 43.21875 64.59375 
L 8.203125 64.59375 
z
" id="DejaVuSans-55"/>
       </defs>
       <use xlink:href="#DejaVuSans-55"/>
       <use x="63.623047" xlink:href="#DejaVuSans-48"/>
       <use x="127.246094" xlink:href="#DejaVuSans-48"/>
      </g>
     </g>
    </g>
    <g id="ytick_6">
     <g id="line2d_21">
      <path clip-path="url(#pd74be85718)" d="M 57.6 110.690687 
L 414.72 110.690687 
" style="fill:none;stroke:#b0b0b0;stroke-linecap:square;stroke-width:0.8;"/>
     </g>
     <g id="line2d_22">
      <g>
       <use style="stroke:#000000;stroke-width:0.8;" x="57.6" xlink:href="#m00a492fca1" y="110.690687"/>
      </g>
     </g>
     <g id="text_12">
      <!-- 800 -->
      <g transform="translate(31.5125 114.489906)scale(0.1 -0.1)">
       <defs>
        <path d="M 31.78125 34.625 
Q 24.75 34.625 20.71875 30.859375 
Q 16.703125 27.09375 16.703125 20.515625 
Q 16.703125 13.921875 20.71875 10.15625 
Q 24.75 6.390625 31.78125 6.390625 
Q 38.8125 6.390625 42.859375 10.171875 
Q 46.921875 13.96875 46.921875 20.515625 
Q 46.921875 27.09375 42.890625 30.859375 
Q 38.875 34.625 31.78125 34.625 
z
M 21.921875 38.8125 
Q 15.578125 40.375 12.03125 44.71875 
Q 8.5 49.078125 8.5 55.328125 
Q 8.5 64.0625 14.71875 69.140625 
Q 20.953125 74.21875 31.78125 74.21875 
Q 42.671875 74.21875 48.875 69.140625 
Q 55.078125 64.0625 55.078125 55.328125 
Q 55.078125 49.078125 51.53125 44.71875 
Q 48 40.375 41.703125 38.8125 
Q 48.828125 37.15625 52.796875 32.3125 
Q 56.78125 27.484375 56.78125 20.515625 
Q 56.78125 9.90625 50.3125 4.234375 
Q 43.84375 -1.421875 31.78125 -1.421875 
Q 19.734375 -1.421875 13.25 4.234375 
Q 6.78125 9.90625 6.78125 20.515625 
Q 6.78125 27.484375 10.78125 32.3125 
Q 14.796875 37.15625 21.921875 38.8125 
z
M 18.3125 54.390625 
Q 18.3125 48.734375 21.84375 45.5625 
Q 25.390625 42.390625 31.78125 42.390625 
Q 38.140625 42.390625 41.71875 45.5625 
Q 45.3125 48.734375 45.3125 54.390625 
Q 45.3125 60.0625 41.71875 63.234375 
Q 38.140625 66.40625 31.78125 66.40625 
Q 25.390625 66.40625 21.84375 63.234375 
Q 18.3125 60.0625 18.3125 54.390625 
z
" id="DejaVuSans-56"/>
       </defs>
       <use xlink:href="#DejaVuSans-56"/>
       <use x="63.623047" xlink:href="#DejaVuSans-48"/>
       <use x="127.246094" xlink:href="#DejaVuSans-48"/>
      </g>
     </g>
    </g>
    <g id="ytick_7">
     <g id="line2d_23">
      <path clip-path="url(#pd74be85718)" d="M 57.6 75.210757 
L 414.72 75.210757 
" style="fill:none;stroke:#b0b0b0;stroke-linecap:square;stroke-width:0.8;"/>
     </g>
     <g id="line2d_24">
      <g>
       <use style="stroke:#000000;stroke-width:0.8;" x="57.6" xlink:href="#m00a492fca1" y="75.210757"/>
      </g>
     </g>
     <g id="text_13">
      <!-- 900 -->
      <g transform="translate(31.5125 79.009976)scale(0.1 -0.1)">
       <defs>
        <path d="M 10.984375 1.515625 
L 10.984375 10.5 
Q 14.703125 8.734375 18.5 7.8125 
Q 22.3125 6.890625 25.984375 6.890625 
Q 35.75 6.890625 40.890625 13.453125 
Q 46.046875 20.015625 46.78125 33.40625 
Q 43.953125 29.203125 39.59375 26.953125 
Q 35.25 24.703125 29.984375 24.703125 
Q 19.046875 24.703125 12.671875 31.3125 
Q 6.296875 37.9375 6.296875 49.421875 
Q 6.296875 60.640625 12.9375 67.421875 
Q 19.578125 74.21875 30.609375 74.21875 
Q 43.265625 74.21875 49.921875 64.515625 
Q 56.59375 54.828125 56.59375 36.375 
Q 56.59375 19.140625 48.40625 8.859375 
Q 40.234375 -1.421875 26.421875 -1.421875 
Q 22.703125 -1.421875 18.890625 -0.6875 
Q 15.09375 0.046875 10.984375 1.515625 
z
M 30.609375 32.421875 
Q 37.25 32.421875 41.125 36.953125 
Q 45.015625 41.5 45.015625 49.421875 
Q 45.015625 57.28125 41.125 61.84375 
Q 37.25 66.40625 30.609375 66.40625 
Q 23.96875 66.40625 20.09375 61.84375 
Q 16.21875 57.28125 16.21875 49.421875 
Q 16.21875 41.5 20.09375 36.953125 
Q 23.96875 32.421875 30.609375 32.421875 
z
" id="DejaVuSans-57"/>
       </defs>
       <use xlink:href="#DejaVuSans-57"/>
       <use x="63.623047" xlink:href="#DejaVuSans-48"/>
       <use x="127.246094" xlink:href="#DejaVuSans-48"/>
      </g>
     </g>
    </g>
    <g id="text_14">
     <!-- Fitness -->
     <g transform="translate(25.432812 191.845187)rotate(-90)scale(0.1 -0.1)">
      <defs>
       <path d="M 9.8125 72.90625 
L 51.703125 72.90625 
L 51.703125 64.59375 
L 19.671875 64.59375 
L 19.671875 43.109375 
L 48.578125 43.109375 
L 48.578125 34.8125 
L 19.671875 34.8125 
L 19.671875 0 
L 9.8125 0 
z
" id="DejaVuSans-70"/>
      </defs>
      <use xlink:href="#DejaVuSans-70"/>
      <use x="50.269531" xlink:href="#DejaVuSans-105"/>
      <use x="78.052734" xlink:href="#DejaVuSans-116"/>
      <use x="117.261719" xlink:href="#DejaVuSans-110"/>
      <use x="180.640625" xlink:href="#DejaVuSans-101"/>
      <use x="242.164062" xlink:href="#DejaVuSans-115"/>
      <use x="294.263672" xlink:href="#DejaVuSans-115"/>
     </g>
    </g>
   </g>
   <g id="line2d_25">
    <path clip-path="url(#pd74be85718)" d="M 73.832727 276.307452 
L 74.622641 276.625588 
L 75.412555 276.127687 
L 76.202468 276.850801 
L 76.992382 275.757883 
L 77.782296 276.851547 
L 78.57221 274.666522 
L 79.362123 277.583359 
L 80.152037 276.007319 
L 80.941951 275.96286 
L 81.731865 276.590389 
L 82.521778 277.656525 
L 83.311692 276.121314 
L 84.101606 275.716997 
L 84.89152 276.090601 
L 86.471347 275.612086 
L 87.261261 275.795831 
L 88.051175 274.682658 
L 88.841088 275.02812 
L 89.631002 274.620128 
L 90.420916 276.06264 
L 91.210829 274.069095 
L 92.000743 274.155197 
L 92.790657 275.154945 
L 94.370484 271.951596 
L 95.160398 271.144001 
L 95.950312 272.196045 
L 96.740226 267.350078 
L 97.530139 268.114791 
L 98.320053 268.520527 
L 99.109967 264.976206 
L 99.899881 265.337962 
L 101.479708 261.285597 
L 102.269622 264.833242 
L 103.059536 266.754617 
L 104.639363 263.849196 
L 105.429277 262.329757 
L 106.21919 263.080534 
L 107.009104 263.411316 
L 107.799018 262.558701 
L 109.378845 265.365789 
L 110.168759 267.796556 
L 110.958673 264.734508 
L 111.748587 265.917172 
L 112.5385 263.857544 
L 113.328414 263.587897 
L 114.908242 261.569089 
L 115.698155 258.886806 
L 116.488069 255.661681 
L 117.277983 257.840148 
L 118.067896 254.395264 
L 118.85781 257.605981 
L 119.647724 255.8036 
L 120.437638 253.121318 
L 121.227551 254.643679 
L 122.017465 255.386797 
L 122.807379 256.986265 
L 123.597293 255.220228 
L 124.387206 254.498077 
L 125.17712 259.599608 
L 125.967034 258.258525 
L 126.756948 258.200306 
L 127.546861 257.337585 
L 128.336775 259.97518 
L 129.126689 255.626201 
L 129.916603 257.027658 
L 130.706516 253.10572 
L 131.49643 253.157087 
L 132.286344 254.929145 
L 133.076257 253.606017 
L 133.866171 254.70094 
L 134.656085 254.756767 
L 135.445999 251.949033 
L 137.025826 253.37512 
L 137.81574 253.506187 
L 138.605654 254.522189 
L 139.395567 254.581123 
L 140.185481 249.14853 
L 140.975395 253.427836 
L 141.765309 252.115734 
L 142.555222 256.503062 
L 143.345136 256.989644 
L 144.13505 253.834102 
L 145.714877 254.962726 
L 146.504791 259.76183 
L 147.294705 259.901532 
L 148.084618 255.624478 
L 148.874532 255.324621 
L 149.664446 258.691175 
L 150.45436 253.848656 
L 151.244273 252.538764 
L 152.034187 254.188524 
L 152.824101 250.492472 
L 153.614015 250.031964 
L 154.403928 252.485183 
L 155.193842 256.817313 
L 155.983756 255.903947 
L 156.77367 255.357466 
L 157.563583 255.480733 
L 158.353497 258.167758 
L 159.143411 258.215519 
L 159.933324 255.072279 
L 160.723238 253.63136 
L 161.513152 253.621047 
L 162.303066 255.361911 
L 163.092979 258.009679 
L 163.882893 256.95582 
L 164.672807 253.223242 
L 165.462721 253.09192 
L 166.252634 254.560011 
L 167.042548 256.907823 
L 167.832462 258.084453 
L 168.622376 257.219214 
L 169.412289 254.429623 
L 170.202203 254.012039 
L 170.992117 254.611475 
L 171.782031 251.776628 
L 172.571944 250.897335 
L 173.361858 251.997571 
L 174.151772 252.848122 
L 174.941685 251.810369 
L 175.731599 253.05654 
L 176.521513 253.264568 
L 177.311427 250.326386 
L 178.10134 252.431215 
L 178.891254 254.869537 
L 179.681168 252.490969 
L 180.471082 252.979398 
L 181.260995 255.814244 
L 182.050909 254.314146 
L 182.840823 255.154927 
L 185.210564 253.039122 
L 186.000478 254.518358 
L 186.790392 254.241752 
L 187.580305 251.675027 
L 188.370219 255.141552 
L 189.160133 254.516081 
L 189.950046 255.43794 
L 190.73996 254.018852 
L 191.529874 250.076126 
L 192.319788 252.588684 
L 193.109701 252.624888 
L 193.899615 254.782208 
L 194.689529 252.990293 
L 195.479443 255.304125 
L 196.269356 252.989087 
L 197.05927 253.102208 
L 197.849184 254.295703 
L 198.639098 253.171327 
L 199.429011 252.589536 
L 200.218925 252.827631 
L 201.008839 251.632898 
L 201.798752 251.80856 
L 203.37858 256.397346 
L 204.958407 255.470304 
L 205.748321 254.19309 
L 206.538235 255.218009 
L 207.328149 251.431221 
L 208.118062 251.539119 
L 208.907976 251.904093 
L 209.69789 253.146153 
L 210.487804 252.680697 
L 211.277717 253.047083 
L 212.067631 250.416792 
L 212.857545 251.425446 
L 213.647459 250.373481 
L 214.437372 248.971179 
L 215.227286 249.069045 
L 216.0172 250.963862 
L 216.807113 248.486304 
L 217.597027 247.492163 
L 218.386941 250.239392 
L 219.176855 247.508393 
L 219.966768 246.832743 
L 220.756682 251.236877 
L 221.546596 253.731572 
L 222.33651 246.079992 
L 223.916337 254.496635 
L 224.706251 253.844963 
L 225.496165 255.257209 
L 226.286078 254.615023 
L 227.075992 247.382547 
L 227.865906 256.567505 
L 228.65582 257.531929 
L 229.445733 251.925644 
L 230.235647 253.334057 
L 231.025561 253.393775 
L 231.815474 254.970908 
L 232.605388 249.037327 
L 233.395302 246.611073 
L 234.185216 251.063189 
L 234.975129 254.456811 
L 236.554957 248.786459 
L 237.344871 251.01381 
L 238.134784 255.108633 
L 238.924698 254.847814 
L 239.714612 253.927187 
L 240.504526 253.740253 
L 242.084353 254.153611 
L 242.874267 255.025771 
L 243.66418 254.100564 
L 244.454094 256.132118 
L 245.244008 259.565878 
L 246.033922 257.505955 
L 246.823835 257.626777 
L 247.613749 253.897002 
L 248.403663 255.662369 
L 249.193577 252.689251 
L 249.98349 253.8559 
L 250.773404 256.432729 
L 251.563318 255.470523 
L 252.353232 259.554828 
L 253.143145 255.29828 
L 253.933059 260.31206 
L 255.512887 260.471428 
L 257.092714 255.395581 
L 257.882628 260.129979 
L 258.672541 257.272971 
L 259.462455 257.064343 
L 260.252369 254.1104 
L 261.042283 259.650955 
L 261.832196 257.085222 
L 263.412024 260.213756 
L 264.201938 257.023008 
L 264.991851 256.593995 
L 265.781765 256.450587 
L 266.571679 255.663831 
L 267.361593 255.320781 
L 268.151506 251.921885 
L 268.94142 250.106342 
L 269.731334 250.254004 
L 271.311161 252.624742 
L 272.890989 241.021467 
L 273.680902 241.274748 
L 274.470816 240.396709 
L 275.26073 241.017883 
L 276.050644 237.51938 
L 276.840557 245.114402 
L 277.630471 243.037921 
L 278.420385 242.971692 
L 279.210299 243.225617 
L 280.000212 238.66645 
L 280.790126 239.748071 
L 281.58004 245.040218 
L 282.369954 246.382098 
L 283.159867 244.740958 
L 283.949781 235.207501 
L 284.739695 238.046578 
L 285.529608 237.188693 
L 286.319522 235.857556 
L 287.109436 232.184104 
L 287.89935 241.361182 
L 288.689263 244.249789 
L 289.479177 243.483985 
L 290.269091 239.912892 
L 291.059005 246.432725 
L 291.848918 242.732232 
L 292.638832 245.914 
L 293.428746 246.004556 
L 294.21866 250.721622 
L 295.008573 246.387227 
L 295.798487 251.822343 
L 296.588401 250.449995 
L 297.378315 250.034564 
L 298.958142 249.47373 
L 299.748056 249.435724 
L 300.537969 245.514421 
L 301.327883 244.506393 
L 302.117797 242.572033 
L 302.907711 244.240945 
L 303.697624 244.415485 
L 304.487538 239.422101 
L 305.277452 245.594636 
L 306.067366 243.801247 
L 306.857279 243.712414 
L 307.647193 243.015532 
L 308.437107 245.787343 
L 309.227021 246.072844 
L 310.016934 248.772404 
L 310.806848 246.345242 
L 311.596762 246.428029 
L 312.386676 247.709741 
L 313.176589 251.095568 
L 313.966503 249.28961 
L 314.756417 249.189777 
L 315.54633 250.610073 
L 316.336244 246.118202 
L 317.126158 247.470699 
L 317.916072 250.150663 
L 318.705985 253.698656 
L 319.495899 252.087383 
L 320.285813 252.32777 
L 321.075727 258.281519 
L 321.86564 256.178268 
L 322.655554 257.679736 
L 323.445468 254.151748 
L 324.235382 253.476117 
L 325.025295 252.992039 
L 325.815209 254.166945 
L 326.605123 253.468596 
L 327.395036 250.771364 
L 328.18495 252.356978 
L 328.974864 254.257039 
L 329.764778 252.645567 
L 330.554691 247.659056 
L 331.344605 248.730192 
L 332.134519 250.689135 
L 332.924433 245.825775 
L 333.714346 243.926606 
L 334.50426 242.508482 
L 335.294174 246.539028 
L 336.084088 246.634666 
L 336.874001 244.555409 
L 337.663915 243.195682 
L 338.453829 243.466421 
L 339.243743 245.364313 
L 340.033656 241.854016 
L 340.82357 234.026019 
L 341.613484 237.922405 
L 342.403397 230.082443 
L 343.193311 235.910249 
L 343.983225 227.825629 
L 344.773139 239.283043 
L 345.563052 233.550179 
L 346.352966 225.316731 
L 347.14288 233.588246 
L 347.932794 232.897758 
L 348.722707 229.284092 
L 349.512621 233.280941 
L 350.302535 227.878387 
L 351.092449 233.248502 
L 351.882362 236.855884 
L 352.672276 237.492408 
L 353.46219 240.231459 
L 354.252104 230.851796 
L 355.042017 233.103613 
L 355.831931 232.066163 
L 356.621845 229.356923 
L 357.411758 231.12808 
L 358.201672 229.471322 
L 358.991586 224.271619 
L 359.7815 222.560173 
L 360.571413 224.44657 
L 361.361327 231.4076 
L 362.151241 226.113756 
L 362.941155 229.431075 
L 363.731068 233.706909 
L 364.520982 233.22226 
L 365.310896 238.347945 
L 366.10081 236.634444 
L 366.890723 235.772646 
L 367.680637 232.488572 
L 368.470551 230.356754 
L 369.260464 231.101685 
L 370.050378 230.05763 
L 370.840292 228.671232 
L 371.630206 232.161065 
L 372.420119 236.855752 
L 373.210033 234.935943 
L 373.999947 237.691222 
L 374.789861 238.634837 
L 375.579774 239.790325 
L 376.369688 242.010777 
L 377.159602 242.661154 
L 377.949516 242.947831 
L 378.739429 240.936365 
L 379.529343 243.385625 
L 380.319257 243.776383 
L 381.109171 243.080831 
L 381.899084 244.909318 
L 382.688998 244.331756 
L 383.478912 241.754107 
L 384.268825 242.379915 
L 385.058739 241.108763 
L 385.848653 237.681775 
L 386.638567 233.379082 
L 387.42848 232.097148 
L 388.218394 232.735421 
L 389.008308 226.932985 
L 389.798222 228.710392 
L 390.588135 235.852963 
L 392.167963 241.150919 
L 392.957877 241.969221 
L 393.74779 243.859614 
L 394.537704 238.919845 
L 395.327618 241.063302 
L 396.907445 242.388276 
L 397.697359 243.501904 
L 398.487273 239.975446 
L 398.487273 239.975446 
" style="fill:none;stroke:#0000ff;stroke-linecap:square;stroke-width:1.5;"/>
   </g>
   <g id="line2d_26">
    <path clip-path="url(#pd74be85718)" d="M 73.832727 276.848553 
L 74.622641 279.665879 
L 75.412555 281.604594 
L 76.202468 287.225174 
L 76.992382 283.457638 
L 77.782296 286.35886 
L 78.57221 287.06019 
L 79.362123 290.210427 
L 80.152037 287.975865 
L 80.941951 286.814063 
L 81.731865 287.121701 
L 82.521778 290.302967 
L 83.311692 282.678115 
L 84.89152 284.441743 
L 86.471347 283.165671 
L 87.261261 284.38733 
L 88.051175 282.587413 
L 88.841088 283.904022 
L 89.631002 283.419551 
L 90.420916 285.345593 
L 91.210829 283.453338 
L 92.000743 284.362922 
L 92.790657 288.084276 
L 94.370484 280.936208 
L 95.160398 286.66076 
L 95.950312 286.523376 
L 96.740226 282.03293 
L 97.530139 283.647699 
L 98.320053 283.139406 
L 99.109967 280.123904 
L 99.899881 282.713021 
L 100.689794 280.542689 
L 101.479708 279.465867 
L 102.269622 285.78704 
L 103.059536 283.37231 
L 103.849449 284.598377 
L 104.639363 281.156324 
L 105.429277 282.345412 
L 106.21919 279.237464 
L 107.009104 279.063357 
L 107.799018 280.784212 
L 108.588932 282.783509 
L 109.378845 280.962119 
L 110.168759 281.591267 
L 110.958673 278.713074 
L 111.748587 280.067544 
L 112.5385 283.166158 
L 113.328414 280.148765 
L 114.118328 278.065318 
L 114.908242 276.964139 
L 115.698155 275.025354 
L 116.488069 270.736017 
L 117.277983 276.239331 
L 118.067896 270.869918 
L 118.85781 274.412736 
L 120.437638 270.11345 
L 121.227551 272.861724 
L 122.017465 276.35198 
L 122.807379 274.550838 
L 123.597293 273.665718 
L 124.387206 272.292879 
L 125.17712 282.22539 
L 125.967034 274.960544 
L 126.756948 274.259334 
L 127.546861 277.429953 
L 128.336775 277.280483 
L 129.126689 273.175376 
L 129.916603 274.33331 
L 130.706516 270.0615 
L 131.49643 269.572276 
L 132.286344 274.468621 
L 133.076257 269.281616 
L 133.866171 272.898056 
L 134.656085 272.009435 
L 135.445999 269.14786 
L 136.235912 270.092411 
L 137.025826 275.428983 
L 137.81574 274.537718 
L 138.605654 278.614589 
L 139.395567 271.669826 
L 140.185481 267.95692 
L 140.975395 270.336588 
L 141.765309 271.990307 
L 142.555222 277.780455 
L 143.345136 275.173721 
L 144.13505 270.78843 
L 144.924964 271.312188 
L 145.714877 271.474405 
L 146.504791 278.403594 
L 147.294705 277.460863 
L 148.084618 272.354293 
L 148.874532 272.359967 
L 149.664446 278.509627 
L 150.45436 270.41558 
L 151.244273 269.273484 
L 152.034187 273.457621 
L 152.824101 268.126874 
L 153.614015 266.55989 
L 154.403928 271.067363 
L 155.193842 274.04483 
L 155.983756 273.531962 
L 156.77367 275.7834 
L 157.563583 271.386595 
L 158.353497 276.448286 
L 159.143411 277.339539 
L 159.933324 273.163055 
L 160.723238 270.784922 
L 161.513152 271.381382 
L 163.092979 276.968248 
L 163.882893 276.966745 
L 164.672807 272.618663 
L 165.462721 275.112894 
L 167.042548 278.845144 
L 167.832462 275.930108 
L 168.622376 278.381876 
L 169.412289 275.227254 
L 170.202203 274.056319 
L 170.992117 275.167832 
L 171.782031 270.438894 
L 172.571944 270.084818 
L 173.361858 272.32563 
L 174.151772 272.380979 
L 174.941685 273.729391 
L 175.731599 280.028943 
L 176.521513 278.680503 
L 177.311427 274.469625 
L 178.10134 281.30203 
L 178.891254 280.244781 
L 179.681168 276.90364 
L 180.471082 280.395992 
L 181.260995 281.416914 
L 182.050909 279.676271 
L 182.840823 285.179233 
L 183.630737 278.89194 
L 184.42065 278.218317 
L 185.210564 281.166801 
L 186.000478 283.398953 
L 186.790392 280.99063 
L 187.580305 276.496456 
L 188.370219 280.51919 
L 189.160133 279.834211 
L 189.950046 282.563148 
L 190.73996 282.544428 
L 191.529874 280.894897 
L 192.319788 283.079854 
L 193.109701 279.839567 
L 193.899615 286.547071 
L 194.689529 280.276855 
L 195.479443 282.490254 
L 196.269356 281.993387 
L 197.05927 283.934819 
L 197.849184 283.060426 
L 198.639098 280.853157 
L 199.429011 280.716514 
L 200.218925 281.378016 
L 201.008839 284.28085 
L 201.798752 284.734188 
L 202.588666 280.075576 
L 203.37858 282.896315 
L 204.168494 282.222307 
L 204.958407 279.850188 
L 205.748321 278.782924 
L 206.538235 278.923261 
L 207.328149 279.504281 
L 208.118062 282.754332 
L 208.907976 281.807712 
L 209.69789 281.097786 
L 210.487804 283.799536 
L 211.277717 280.97262 
L 212.067631 278.561034 
L 212.857545 282.475607 
L 213.647459 280.81282 
L 214.437372 280.069284 
L 215.227286 280.09456 
L 216.0172 282.552158 
L 216.807113 278.853314 
L 217.597027 277.80061 
L 218.386941 283.824818 
L 219.176855 280.190966 
L 219.966768 272.926607 
L 220.756682 278.124538 
L 221.546596 282.510967 
L 222.33651 271.809121 
L 223.126423 276.703303 
L 223.916337 280.285185 
L 224.706251 280.269199 
L 225.496165 284.781134 
L 226.286078 288.184601 
L 227.075992 272.209164 
L 227.865906 290.873817 
L 228.65582 284.55659 
L 229.445733 282.131559 
L 230.235647 284.000197 
L 231.025561 280.855964 
L 231.815474 285.729856 
L 232.605388 279.945116 
L 233.395302 278.944113 
L 234.185216 278.80583 
L 234.975129 284.726901 
L 235.765043 280.856225 
L 236.554957 279.647655 
L 237.344871 280.146558 
L 238.134784 283.327265 
L 238.924698 284.133417 
L 239.714612 277.270336 
L 240.504526 280.062474 
L 241.294439 276.095562 
L 242.084353 278.202522 
L 242.874267 281.286823 
L 243.66418 279.871347 
L 244.454094 279.544377 
L 245.244008 280.188046 
L 246.033922 279.060693 
L 246.823835 279.215306 
L 247.613749 275.847779 
L 248.403663 279.494504 
L 249.193577 276.253593 
L 249.98349 275.53897 
L 250.773404 279.206227 
L 251.563318 276.902198 
L 252.353232 281.635765 
L 253.143145 277.654992 
L 253.933059 282.871363 
L 254.722973 283.13447 
L 255.512887 283.125529 
L 256.3028 282.817694 
L 257.092714 279.109097 
L 257.882628 286.850898 
L 258.672541 279.061383 
L 259.462455 281.307719 
L 260.252369 280.667479 
L 261.042283 288.615866 
L 261.832196 283.843801 
L 262.62211 287.629075 
L 263.412024 292.139986 
L 264.201938 284.663799 
L 264.991851 284.03755 
L 265.781765 282.98215 
L 266.571679 282.480234 
L 267.361593 284.756458 
L 268.151506 281.4269 
L 268.94142 282.811072 
L 269.731334 287.446808 
L 270.521248 289.193972 
L 271.311161 293.88418 
L 272.101075 287.204241 
L 272.890989 281.966971 
L 273.680902 282.927171 
L 274.470816 283.464416 
L 276.050644 280.345584 
L 276.840557 288.593297 
L 277.630471 285.230853 
L 278.420385 283.803548 
L 279.210299 286.53059 
L 280.000212 283.505842 
L 280.790126 282.122939 
L 281.58004 287.630505 
L 282.369954 287.09959 
L 283.159867 291.654586 
L 283.949781 279.723386 
L 284.739695 285.900375 
L 285.529608 280.656189 
L 286.319522 280.808345 
L 287.109436 279.586129 
L 287.89935 286.808459 
L 288.689263 288.886825 
L 289.479177 294.580795 
L 290.269091 285.902053 
L 291.059005 289.119699 
L 291.848918 286.307416 
L 293.428746 295.488 
L 295.008573 288.090181 
L 295.798487 294.520612 
L 296.588401 292.740945 
L 297.378315 291.872085 
L 298.168228 289.770729 
L 298.958142 289.5593 
L 299.748056 286.47085 
L 300.537969 284.372499 
L 301.327883 284.929804 
L 302.117797 282.409626 
L 302.907711 284.169902 
L 303.697624 283.909992 
L 304.487538 280.886777 
L 305.277452 286.477671 
L 306.067366 283.333094 
L 306.857279 283.940622 
L 307.647193 285.098977 
L 309.227021 284.747314 
L 310.016934 286.683995 
L 310.806848 288.019651 
L 311.596762 288.62498 
L 312.386676 288.511317 
L 313.176589 290.79388 
L 313.966503 289.885249 
L 314.756417 288.425107 
L 315.54633 290.455411 
L 316.336244 283.49251 
L 317.126158 287.837867 
L 317.916072 288.291057 
L 318.705985 291.47173 
L 319.495899 291.389189 
L 320.285813 288.50505 
L 321.075727 294.989898 
L 321.86564 292.3964 
L 322.655554 292.296589 
L 323.445468 289.490839 
L 324.235382 291.291941 
L 325.025295 288.08691 
L 325.815209 291.608663 
L 326.605123 292.787222 
L 327.395036 289.977569 
L 328.18495 292.929106 
L 328.974864 291.607503 
L 329.764778 292.858644 
L 330.554691 286.467821 
L 331.344605 285.21953 
L 332.134519 288.234428 
L 332.924433 287.565225 
L 333.714346 282.168957 
L 334.50426 282.636733 
L 335.294174 283.328067 
L 336.084088 285.411486 
L 336.874001 285.292152 
L 337.663915 283.81757 
L 338.453829 284.345866 
L 339.243743 283.740233 
L 340.033656 282.217108 
L 340.82357 276.714252 
L 341.613484 279.048209 
L 342.403397 273.656445 
L 343.193311 277.328249 
L 343.983225 273.091011 
L 344.773139 286.687458 
L 345.563052 281.349312 
L 346.352966 270.761096 
L 347.14288 280.794443 
L 347.932794 276.192848 
L 348.722707 275.157884 
L 349.512621 278.873147 
L 350.302535 273.892451 
L 351.092449 276.734573 
L 351.882362 285.643617 
L 352.672276 283.808325 
L 353.46219 284.03476 
L 354.252104 281.33853 
L 355.042017 277.391969 
L 355.831931 279.53116 
L 356.621845 274.736413 
L 357.411758 276.068051 
L 358.201672 276.352901 
L 358.991586 271.155414 
L 359.7815 270.121192 
L 360.571413 271.767252 
L 361.361327 279.426477 
L 362.151241 273.750708 
L 362.941155 277.997616 
L 363.731068 281.236456 
L 364.520982 280.930352 
L 365.310896 286.317444 
L 366.10081 282.964619 
L 366.890723 282.945694 
L 367.680637 278.539682 
L 368.470551 277.585878 
L 369.260464 278.845007 
L 370.050378 276.523675 
L 370.840292 275.62146 
L 371.630206 279.532203 
L 372.420119 284.286437 
L 373.210033 281.901812 
L 373.999947 282.846525 
L 375.579774 284.239728 
L 376.369688 285.911976 
L 377.159602 286.606696 
L 377.949516 286.298677 
L 378.739429 283.512372 
L 379.529343 284.575953 
L 381.899084 290.824626 
L 382.688998 289.799511 
L 384.268825 291.123099 
L 385.058739 287.258011 
L 385.848653 282.456736 
L 386.638567 278.669795 
L 387.42848 277.733888 
L 388.218394 278.467095 
L 389.008308 273.936144 
L 389.798222 276.738178 
L 390.588135 282.788695 
L 391.378049 284.67095 
L 392.167963 289.165243 
L 392.957877 289.740519 
L 393.74779 289.273714 
L 394.537704 285.60998 
L 395.327618 286.154675 
L 396.117532 286.113794 
L 396.907445 286.961573 
L 397.697359 288.514757 
L 398.487273 288.787303 
L 398.487273 288.787303 
" style="fill:none;stroke:#008000;stroke-dasharray:9.6,2.4,1.5,2.4;stroke-dashoffset:0;stroke-width:1.5;"/>
   </g>
   <g id="line2d_27">
    <path clip-path="url(#pd74be85718)" d="M 73.832727 275.766351 
L 74.622641 273.585298 
L 75.412555 270.650779 
L 76.202468 266.476429 
L 76.992382 268.058127 
L 77.782296 267.344234 
L 78.57221 262.272854 
L 79.362123 264.956292 
L 80.152037 264.038774 
L 81.731865 266.059078 
L 82.521778 265.010083 
L 83.311692 269.564514 
L 84.101606 267.924687 
L 84.89152 267.739459 
L 85.681433 267.975299 
L 86.471347 268.058502 
L 87.261261 267.204332 
L 88.051175 266.777902 
L 88.841088 266.152218 
L 89.631002 265.820705 
L 90.420916 266.779688 
L 91.210829 264.684852 
L 92.000743 263.947471 
L 92.790657 262.225614 
L 93.580571 262.475843 
L 94.370484 262.966984 
L 95.160398 255.627243 
L 95.950312 257.868714 
L 96.740226 252.667226 
L 97.530139 252.581884 
L 98.320053 253.901647 
L 99.109967 249.828507 
L 100.689794 245.889557 
L 101.479708 243.105327 
L 102.269622 243.879445 
L 103.059536 250.136925 
L 103.849449 245.785359 
L 104.639363 246.542068 
L 105.429277 242.314102 
L 106.21919 246.923604 
L 107.009104 247.759275 
L 107.799018 244.333189 
L 108.588932 244.949667 
L 110.168759 254.001844 
L 110.958673 250.755941 
L 111.748587 251.7668 
L 112.5385 244.548931 
L 113.328414 247.027029 
L 114.118328 247.073928 
L 114.908242 246.174039 
L 115.698155 242.748258 
L 116.488069 240.587344 
L 117.277983 239.440965 
L 118.067896 237.920611 
L 118.85781 240.799225 
L 119.647724 239.27974 
L 120.437638 236.129185 
L 121.227551 236.425635 
L 122.017465 234.421614 
L 122.807379 239.421691 
L 123.597293 236.774738 
L 124.387206 236.703274 
L 125.17712 236.973826 
L 125.967034 241.556506 
L 126.756948 242.141278 
L 127.546861 237.245218 
L 128.336775 242.669876 
L 129.126689 238.077025 
L 129.916603 239.722006 
L 130.706516 236.14994 
L 131.49643 236.741898 
L 132.286344 235.38967 
L 133.076257 237.930418 
L 133.866171 236.503824 
L 134.656085 237.504098 
L 135.445999 234.750206 
L 136.235912 235.121235 
L 137.025826 231.321256 
L 137.81574 232.474656 
L 138.605654 230.429789 
L 139.395567 237.492421 
L 140.185481 230.34014 
L 140.975395 236.519085 
L 141.765309 232.241162 
L 142.555222 235.225668 
L 143.345136 238.805567 
L 144.13505 236.879774 
L 144.924964 237.414042 
L 145.714877 238.451047 
L 146.504791 241.120066 
L 147.294705 242.342202 
L 148.084618 238.894664 
L 148.874532 238.289275 
L 149.664446 238.872722 
L 151.244273 235.804045 
L 152.034187 234.919428 
L 152.824101 232.858069 
L 153.614015 233.504039 
L 154.403928 233.903003 
L 155.193842 239.589795 
L 155.983756 238.275933 
L 156.77367 234.931533 
L 157.563583 239.574871 
L 158.353497 239.88723 
L 159.143411 239.091498 
L 159.933324 236.981504 
L 161.513152 235.860711 
L 162.303066 236.712838 
L 163.092979 239.05111 
L 163.882893 236.944895 
L 165.462721 231.070945 
L 166.252634 232.005605 
L 167.042548 234.970501 
L 167.832462 240.238797 
L 168.622376 236.056551 
L 169.412289 233.631991 
L 170.202203 233.96776 
L 170.992117 234.055117 
L 171.782031 233.114362 
L 172.571944 231.709852 
L 173.361858 231.669513 
L 174.151772 233.315265 
L 175.731599 226.084138 
L 176.521513 227.848633 
L 177.311427 226.183147 
L 178.10134 223.5604 
L 178.891254 229.494292 
L 179.681168 228.078298 
L 180.471082 225.562804 
L 181.260995 230.211574 
L 182.050909 228.95202 
L 182.840823 225.13062 
L 183.630737 230.03049 
L 184.42065 229.277601 
L 185.210564 224.911444 
L 186.000478 225.637763 
L 186.790392 227.492873 
L 187.580305 226.853597 
L 188.370219 229.763914 
L 189.160133 229.197951 
L 189.950046 228.312732 
L 190.73996 225.493277 
L 191.529874 219.257355 
L 192.319788 222.097514 
L 193.109701 225.41021 
L 193.899615 223.017346 
L 195.479443 228.117997 
L 196.269356 223.984786 
L 197.05927 222.269596 
L 197.849184 225.530981 
L 198.639098 225.489498 
L 199.429011 224.462558 
L 200.218925 224.277246 
L 201.008839 218.984947 
L 201.798752 218.882932 
L 202.588666 228.15017 
L 203.37858 229.898377 
L 204.168494 229.580395 
L 204.958407 231.09042 
L 205.748321 229.603256 
L 206.538235 231.512757 
L 207.328149 223.358161 
L 208.118062 220.323907 
L 208.907976 222.000474 
L 209.69789 225.194521 
L 210.487804 221.561858 
L 211.277717 225.121545 
L 212.067631 222.272549 
L 212.857545 220.375284 
L 213.647459 219.934143 
L 214.437372 217.873075 
L 215.227286 218.04353 
L 216.0172 219.375566 
L 216.807113 218.119294 
L 217.597027 217.183717 
L 218.386941 216.653966 
L 219.176855 214.82582 
L 219.966768 220.73888 
L 220.756682 224.349215 
L 221.546596 224.952178 
L 222.33651 220.350863 
L 223.126423 223.872865 
L 223.916337 228.708086 
L 224.706251 227.420728 
L 225.496165 225.733285 
L 226.286078 221.045445 
L 227.075992 222.555931 
L 227.865906 222.261193 
L 228.65582 230.507269 
L 229.445733 221.719729 
L 230.235647 222.667916 
L 231.025561 225.931586 
L 231.815474 224.21196 
L 232.605388 218.129537 
L 233.395302 214.278033 
L 234.185216 223.320548 
L 234.975129 224.186721 
L 235.765043 222.334152 
L 236.554957 217.925262 
L 237.344871 221.881061 
L 238.134784 226.89 
L 238.924698 225.562212 
L 239.714612 230.584039 
L 240.504526 227.418031 
L 241.294439 231.839283 
L 242.084353 230.1047 
L 242.874267 228.764719 
L 243.66418 228.32978 
L 244.454094 232.719859 
L 245.244008 238.94371 
L 246.033922 235.951216 
L 246.823835 236.038247 
L 247.613749 231.946225 
L 248.403663 231.830235 
L 249.193577 229.124909 
L 249.98349 232.172829 
L 250.773404 233.659231 
L 251.563318 234.038849 
L 252.353232 237.473891 
L 253.143145 232.941568 
L 253.933059 237.752757 
L 255.512887 237.817328 
L 256.3028 233.264896 
L 257.092714 231.682065 
L 257.882628 233.409061 
L 258.672541 235.484559 
L 259.462455 232.820968 
L 260.252369 227.55332 
L 261.042283 230.686045 
L 261.832196 230.326644 
L 262.62211 229.604229 
L 263.412024 228.287525 
L 264.201938 229.382216 
L 264.991851 229.150439 
L 265.781765 229.919024 
L 266.571679 228.847428 
L 267.361593 225.885103 
L 268.151506 222.416871 
L 269.731334 213.061199 
L 270.521248 213.532273 
L 271.311161 211.365304 
L 272.890989 200.075963 
L 273.680902 199.622325 
L 274.470816 197.329003 
L 275.26073 200.067803 
L 276.050644 194.693176 
L 276.840557 201.635506 
L 277.630471 200.84499 
L 278.420385 202.139837 
L 279.210299 199.920644 
L 280.000212 193.827057 
L 280.790126 197.373203 
L 281.58004 202.44993 
L 282.369954 205.664606 
L 283.949781 190.691615 
L 284.739695 190.19278 
L 285.529608 193.721198 
L 286.319522 190.906768 
L 287.109436 184.782079 
L 287.89935 195.913904 
L 288.689263 199.612754 
L 289.479177 192.387175 
L 290.269091 193.923732 
L 291.059005 203.74575 
L 291.848918 199.157048 
L 292.638832 200.951582 
L 293.428746 196.521111 
L 294.21866 209.45332 
L 295.008573 204.684273 
L 295.798487 209.124073 
L 296.588401 208.159045 
L 297.378315 208.197043 
L 298.168228 209.734938 
L 298.958142 209.38816 
L 299.748056 212.400599 
L 300.537969 206.656342 
L 301.327883 204.082981 
L 302.117797 202.73444 
L 302.907711 204.311987 
L 303.697624 204.920978 
L 304.487538 197.957425 
L 305.277452 204.711601 
L 306.067366 204.2694 
L 306.857279 203.484205 
L 307.647193 200.932088 
L 308.437107 206.656002 
L 309.227021 207.398374 
L 310.016934 210.860813 
L 310.806848 204.670834 
L 311.596762 204.231078 
L 312.386676 206.908165 
L 313.176589 211.397256 
L 313.966503 208.69397 
L 314.756417 209.954448 
L 315.54633 210.764734 
L 316.336244 208.743894 
L 317.126158 207.103532 
L 317.916072 212.01027 
L 318.705985 215.925583 
L 319.495899 212.785578 
L 320.285813 216.15049 
L 321.075727 221.573139 
L 321.86564 219.960136 
L 322.655554 223.062883 
L 323.445468 218.812657 
L 324.235382 215.660293 
L 325.025295 217.897169 
L 325.815209 216.725228 
L 327.395036 211.565158 
L 328.18495 211.784851 
L 328.974864 216.906575 
L 329.764778 212.43249 
L 330.554691 208.85029 
L 331.344605 212.240855 
L 332.134519 213.143842 
L 332.924433 204.086325 
L 333.714346 205.684255 
L 334.50426 202.380231 
L 335.294174 209.749989 
L 336.084088 207.857847 
L 336.874001 203.818665 
L 337.663915 202.573793 
L 338.453829 202.586975 
L 339.243743 206.988393 
L 340.033656 201.490924 
L 340.82357 191.337787 
L 341.613484 196.7966 
L 342.403397 186.50844 
L 343.193311 194.49225 
L 343.983225 182.560246 
L 344.773139 191.878628 
L 346.352966 179.872367 
L 347.14288 186.382049 
L 347.932794 189.602667 
L 348.722707 183.410299 
L 349.512621 187.688734 
L 350.302535 181.864322 
L 351.092449 189.762431 
L 351.882362 188.068152 
L 352.672276 191.176492 
L 353.46219 196.428158 
L 354.252104 180.365063 
L 355.042017 188.815257 
L 355.831931 184.601165 
L 356.621845 183.977433 
L 357.411758 186.18811 
L 358.201672 182.589743 
L 358.991586 177.387824 
L 359.7815 174.999155 
L 360.571413 177.125887 
L 361.361327 183.388724 
L 362.151241 178.476805 
L 362.941155 180.864534 
L 363.731068 186.177361 
L 364.520982 185.514169 
L 365.310896 190.378445 
L 366.10081 190.304268 
L 366.890723 188.599597 
L 367.680637 186.437463 
L 368.470551 183.127631 
L 370.050378 183.591585 
L 370.840292 181.721004 
L 371.630206 184.789928 
L 372.420119 189.425068 
L 373.210033 187.970074 
L 373.999947 192.535919 
L 374.789861 193.660043 
L 375.579774 195.340922 
L 376.369688 198.109579 
L 377.159602 198.715613 
L 377.949516 199.596986 
L 378.739429 198.360358 
L 379.529343 202.195296 
L 380.319257 200.825133 
L 381.109171 197.587674 
L 381.899084 198.994009 
L 382.688998 198.864002 
L 383.478912 193.05607 
L 384.268825 193.636732 
L 385.058739 194.959515 
L 385.848653 192.906814 
L 386.638567 188.088369 
L 387.42848 186.460408 
L 388.218394 187.003747 
L 389.008308 179.929825 
L 389.798222 180.682606 
L 390.588135 188.91723 
L 391.378049 192.526094 
L 392.167963 193.136594 
L 392.957877 194.197924 
L 393.74779 198.445515 
L 394.537704 192.22971 
L 395.327618 195.971929 
L 396.117532 197.377016 
L 396.907445 197.814978 
L 397.697359 198.48905 
L 398.487273 191.16359 
L 398.487273 191.16359 
" style="fill:none;stroke:#008000;stroke-dasharray:9.6,2.4,1.5,2.4;stroke-dashoffset:0;stroke-width:1.5;"/>
   </g>
   <g id="line2d_28">
    <path clip-path="url(#pd74be85718)" d="M 73.832727 274.607963 
L 74.622641 274.607963 
L 75.412555 228.129255 
L 76.202468 194.068522 
L 76.992382 228.484054 
L 77.782296 228.484054 
L 78.57221 182.005346 
L 79.362123 204.712501 
L 80.152037 182.714945 
L 80.941951 228.484054 
L 81.731865 217.130477 
L 83.311692 240.54723 
L 84.89152 216.775677 
L 86.471347 240.90203 
L 87.261261 229.193653 
L 88.051175 228.838854 
L 88.841088 249.772012 
L 89.631002 206.486498 
L 90.420916 229.548452 
L 91.210829 205.776899 
L 92.000743 227.774456 
L 92.790657 216.066079 
L 93.580571 240.90203 
L 94.370484 245.86922 
L 95.160398 215.711279 
L 95.950312 228.129255 
L 96.740226 222.097667 
L 97.530139 226.355258 
L 98.320053 224.936061 
L 99.109967 224.581262 
L 99.899881 221.388068 
L 100.689794 221.742868 
L 101.479708 216.420878 
L 102.269622 222.097667 
L 103.059536 222.097667 
L 103.849449 223.871663 
L 104.639363 224.936061 
L 105.429277 226.355258 
L 106.21919 223.162065 
L 107.009104 222.807265 
L 107.799018 217.130477 
L 108.588932 217.130477 
L 109.378845 218.549674 
L 110.168759 220.67847 
L 111.748587 229.193653 
L 112.5385 218.549674 
L 113.328414 221.033269 
L 114.118328 218.194875 
L 114.908242 224.936061 
L 115.698155 215.35648 
L 116.488069 216.420878 
L 117.277983 216.066079 
L 118.067896 209.324892 
L 118.85781 210.38929 
L 119.647724 199.390512 
L 120.437638 215.35648 
L 121.227551 207.905695 
L 122.017465 215.35648 
L 122.807379 204.002903 
L 123.597293 209.679691 
L 124.387206 210.034491 
L 125.17712 201.874107 
L 125.967034 214.292082 
L 126.756948 213.937283 
L 127.546861 212.518086 
L 128.336775 213.227684 
L 129.126689 206.841297 
L 129.916603 213.227684 
L 130.706516 209.324892 
L 131.49643 215.711279 
L 132.286344 219.614072 
L 133.076257 208.260494 
L 133.866171 194.423322 
L 134.656085 196.906917 
L 135.445999 210.744089 
L 136.235912 205.067301 
L 137.025826 204.002903 
L 137.81574 215.711279 
L 138.605654 207.550896 
L 139.395567 207.905695 
L 140.185481 213.227684 
L 140.975395 212.872885 
L 141.765309 193.713723 
L 142.555222 218.549674 
L 143.345136 210.744089 
L 144.13505 205.4221 
L 144.924964 206.841297 
L 145.714877 216.775677 
L 146.504791 217.130477 
L 147.294705 228.838854 
L 148.084618 194.068522 
L 148.874532 227.774456 
L 149.664446 223.162065 
L 150.45436 201.874107 
L 151.244273 217.130477 
L 152.034187 203.648103 
L 152.824101 219.968871 
L 153.614015 225.290861 
L 154.403928 224.936061 
L 155.983756 212.872885 
L 156.77367 214.646882 
L 157.563583 222.097667 
L 159.933324 214.292082 
L 160.723238 215.711279 
L 161.513152 222.097667 
L 162.303066 214.646882 
L 163.092979 208.260494 
L 163.882893 203.648103 
L 164.672807 212.518086 
L 165.462721 212.518086 
L 166.252634 204.002903 
L 167.042548 215.35648 
L 167.832462 200.809709 
L 168.622376 208.260494 
L 169.412289 201.519308 
L 170.202203 210.744089 
L 170.992117 205.067301 
L 171.782031 204.357702 
L 172.571944 200.10011 
L 173.361858 197.261716 
L 174.151772 196.197318 
L 174.941685 200.45491 
L 175.731599 163.910582 
L 176.521513 173.135364 
L 178.10134 165.684578 
L 178.891254 167.813374 
L 179.681168 167.103776 
L 180.471082 164.265381 
L 181.260995 168.877772 
L 182.050909 163.555783 
L 182.840823 165.684578 
L 183.630737 165.329779 
L 184.42065 166.748976 
L 185.210564 168.522973 
L 186.000478 165.684578 
L 186.790392 167.458575 
L 187.580305 163.555783 
L 188.370219 166.039378 
L 189.160133 164.97498 
L 189.950046 164.97498 
L 190.73996 164.265381 
L 191.529874 164.97498 
L 192.319788 162.846184 
L 193.109701 166.394177 
L 193.899615 166.394177 
L 194.689529 167.458575 
L 195.479443 164.265381 
L 196.269356 162.136585 
L 197.05927 162.846184 
L 197.849184 164.62018 
L 198.639098 167.103776 
L 199.429011 163.910582 
L 200.218925 164.97498 
L 201.008839 168.168173 
L 201.798752 165.329779 
L 202.588666 164.97498 
L 203.37858 166.748976 
L 204.958407 163.910582 
L 205.748321 164.62018 
L 206.538235 162.136585 
L 207.328149 164.62018 
L 208.907976 163.200983 
L 209.69789 163.555783 
L 210.487804 164.265381 
L 211.277717 163.200983 
L 212.067631 163.910582 
L 212.857545 165.684578 
L 213.647459 163.555783 
L 214.437372 163.910582 
L 215.227286 164.97498 
L 216.0172 163.555783 
L 216.807113 164.97498 
L 217.597027 164.97498 
L 218.386941 166.039378 
L 219.176855 166.394177 
L 220.756682 164.97498 
L 221.546596 164.62018 
L 223.126423 166.748976 
L 223.916337 165.329779 
L 224.706251 165.684578 
L 225.496165 163.200983 
L 226.286078 165.329779 
L 227.075992 163.555783 
L 227.865906 166.748976 
L 228.65582 167.103776 
L 229.445733 163.200983 
L 230.235647 164.265381 
L 231.025561 167.103776 
L 231.815474 167.103776 
L 232.605388 165.684578 
L 234.185216 167.103776 
L 234.975129 163.200983 
L 235.765043 165.329779 
L 236.554957 164.62018 
L 237.344871 164.265381 
L 238.134784 166.039378 
L 238.924698 164.97498 
L 239.714612 164.97498 
L 240.504526 164.265381 
L 241.294439 165.329779 
L 242.084353 165.329779 
L 242.874267 164.62018 
L 243.66418 162.846184 
L 244.454094 163.200983 
L 245.244008 165.329779 
L 246.033922 165.329779 
L 247.613749 164.62018 
L 248.403663 165.684578 
L 249.193577 169.232571 
L 249.98349 165.329779 
L 250.773404 165.329779 
L 251.563318 166.039378 
L 252.353232 171.006568 
L 253.143145 166.394177 
L 253.933059 168.522973 
L 254.722973 166.039378 
L 255.512887 162.846184 
L 256.3028 169.232571 
L 257.092714 165.329779 
L 257.882628 172.070966 
L 258.672541 168.522973 
L 259.462455 169.232571 
L 260.252369 165.684578 
L 261.832196 166.394177 
L 262.62211 169.232571 
L 264.201938 163.910582 
L 264.991851 166.394177 
L 265.781765 165.329779 
L 266.571679 168.877772 
L 267.361593 165.684578 
L 268.151506 166.039378 
L 268.94142 163.200983 
L 269.731334 163.555783 
L 270.521248 164.265381 
L 271.311161 163.910582 
L 272.101075 162.136585 
L 272.890989 162.136585 
L 273.680902 161.072187 
L 274.470816 164.97498 
L 275.26073 164.265381 
L 276.050644 161.072187 
L 276.840557 164.97498 
L 277.630471 161.781786 
L 278.420385 164.62018 
L 279.210299 161.426987 
L 280.000212 162.846184 
L 280.790126 160.00779 
L 281.58004 161.781786 
L 282.369954 162.846184 
L 283.159867 161.072187 
L 283.949781 162.491385 
L 284.739695 161.781786 
L 285.529608 164.265381 
L 286.319522 161.781786 
L 287.109436 163.555783 
L 287.89935 164.265381 
L 288.689263 162.136585 
L 289.479177 161.426987 
L 290.269091 162.846184 
L 291.059005 163.200983 
L 291.848918 163.200983 
L 292.638832 161.072187 
L 293.428746 163.910582 
L 294.21866 162.491385 
L 295.008573 164.97498 
L 295.798487 162.846184 
L 296.588401 163.910582 
L 297.378315 162.846184 
L 298.168228 161.426987 
L 298.958142 161.426987 
L 299.748056 162.491385 
L 300.537969 162.846184 
L 301.327883 160.362589 
L 302.117797 162.491385 
L 302.907711 163.555783 
L 305.277452 163.555783 
L 306.067366 162.136585 
L 306.857279 162.491385 
L 307.647193 161.072187 
L 308.437107 164.62018 
L 309.227021 161.781786 
L 310.016934 161.426987 
L 310.806848 163.555783 
L 311.596762 160.00779 
L 312.386676 163.555783 
L 313.176589 163.910582 
L 313.966503 163.555783 
L 314.756417 162.136585 
L 315.54633 163.555783 
L 316.336244 162.491385 
L 317.126158 163.910582 
L 317.916072 164.97498 
L 318.705985 164.62018 
L 319.495899 161.426987 
L 320.285813 163.200983 
L 321.075727 146.880216 
L 321.86564 163.200983 
L 322.655554 161.426987 
L 323.445468 162.846184 
L 324.235382 165.684578 
L 325.025295 162.491385 
L 326.605123 106.787895 
L 327.395036 127.721053 
L 328.18495 162.491385 
L 328.974864 161.072187 
L 329.764778 162.846184 
L 330.554691 128.430652 
L 332.134519 161.426987 
L 332.924433 107.497493 
L 333.714346 128.785451 
L 334.50426 158.588592 
L 335.294174 161.781786 
L 336.084088 107.142694 
L 336.874001 107.497493 
L 337.663915 163.910582 
L 338.453829 164.62018 
L 339.243743 163.910582 
L 340.033656 162.846184 
L 340.82357 163.200983 
L 341.613484 163.200983 
L 342.403397 161.426987 
L 343.193311 162.491385 
L 343.983225 162.846184 
L 344.773139 163.555783 
L 345.563052 163.200983 
L 346.352966 163.910582 
L 347.14288 164.97498 
L 347.932794 163.910582 
L 348.722707 161.072187 
L 349.512621 160.717388 
L 350.302535 163.200983 
L 351.092449 161.781786 
L 352.672276 163.200983 
L 353.46219 162.491385 
L 354.252104 163.555783 
L 355.042017 163.200983 
L 355.831931 161.781786 
L 356.621845 161.781786 
L 357.411758 163.555783 
L 358.201672 162.846184 
L 358.991586 163.200983 
L 359.7815 161.781786 
L 360.571413 160.717388 
L 361.361327 160.362589 
L 362.151241 162.846184 
L 362.941155 161.072187 
L 363.731068 162.491385 
L 364.520982 163.200983 
L 365.310896 161.781786 
L 366.10081 160.717388 
L 366.890723 163.200983 
L 367.680637 162.136585 
L 368.470551 153.976202 
L 369.260464 156.104997 
L 370.050378 163.910582 
L 370.840292 159.65299 
L 371.630206 127.366254 
L 372.420119 128.075853 
L 373.210033 161.426987 
L 373.999947 162.491385 
L 374.789861 163.200983 
L 375.579774 161.781786 
L 376.369688 163.910582 
L 377.159602 162.846184 
L 377.949516 163.555783 
L 378.739429 162.491385 
L 379.529343 162.136585 
L 380.319257 163.910582 
L 381.109171 159.65299 
L 381.899084 163.200983 
L 382.688998 161.781786 
L 383.478912 161.781786 
L 384.268825 162.846184 
L 385.058739 161.781786 
L 385.848653 162.846184 
L 386.638567 162.846184 
L 387.42848 161.781786 
L 388.218394 163.555783 
L 389.008308 160.362589 
L 389.798222 162.846184 
L 390.588135 162.846184 
L 391.378049 163.910582 
L 392.167963 163.200983 
L 392.957877 163.555783 
L 393.74779 161.781786 
L 394.537704 162.491385 
L 395.327618 161.426987 
L 396.117532 163.555783 
L 396.907445 162.491385 
L 397.697359 163.555783 
L 398.487273 53.568 
L 398.487273 53.568 
" style="fill:none;stroke:#ff0000;stroke-linecap:square;stroke-width:1.5;"/>
   </g>
   <g id="patch_3">
    <path d="M 57.6 307.584 
L 57.6 41.472 
" style="fill:none;stroke:#000000;stroke-linecap:square;stroke-linejoin:miter;stroke-width:0.8;"/>
   </g>
   <g id="patch_4">
    <path d="M 414.72 307.584 
L 414.72 41.472 
" style="fill:none;stroke:#000000;stroke-linecap:square;stroke-linejoin:miter;stroke-width:0.8;"/>
   </g>
   <g id="patch_5">
    <path d="M 57.6 307.584 
L 414.72 307.584 
" style="fill:none;stroke:#000000;stroke-linecap:square;stroke-linejoin:miter;stroke-width:0.8;"/>
   </g>
   <g id="patch_6">
    <path d="M 57.6 41.472 
L 414.72 41.472 
" style="fill:none;stroke:#000000;stroke-linecap:square;stroke-linejoin:miter;stroke-width:0.8;"/>
   </g>
   <g id="text_15">
    <!-- Population's average and best fitness -->
    <g transform="translate(123.529687 35.472)scale(0.12 -0.12)">
     <defs>
      <path d="M 19.671875 64.796875 
L 19.671875 37.40625 
L 32.078125 37.40625 
Q 38.96875 37.40625 42.71875 40.96875 
Q 46.484375 44.53125 46.484375 51.125 
Q 46.484375 57.671875 42.71875 61.234375 
Q 38.96875 64.796875 32.078125 64.796875 
z
M 9.8125 72.90625 
L 32.078125 72.90625 
Q 44.34375 72.90625 50.609375 67.359375 
Q 56.890625 61.8125 56.890625 51.125 
Q 56.890625 40.328125 50.609375 34.8125 
Q 44.34375 29.296875 32.078125 29.296875 
L 19.671875 29.296875 
L 19.671875 0 
L 9.8125 0 
z
" id="DejaVuSans-80"/>
      <path d="M 18.109375 8.203125 
L 18.109375 -20.796875 
L 9.078125 -20.796875 
L 9.078125 54.6875 
L 18.109375 54.6875 
L 18.109375 46.390625 
Q 20.953125 51.265625 25.265625 53.625 
Q 29.59375 56 35.59375 56 
Q 45.5625 56 51.78125 48.09375 
Q 58.015625 40.1875 58.015625 27.296875 
Q 58.015625 14.40625 51.78125 6.484375 
Q 45.5625 -1.421875 35.59375 -1.421875 
Q 29.59375 -1.421875 25.265625 0.953125 
Q 20.953125 3.328125 18.109375 8.203125 
z
M 48.6875 27.296875 
Q 48.6875 37.203125 44.609375 42.84375 
Q 40.53125 48.484375 33.40625 48.484375 
Q 26.265625 48.484375 22.1875 42.84375 
Q 18.109375 37.203125 18.109375 27.296875 
Q 18.109375 17.390625 22.1875 11.75 
Q 26.265625 6.109375 33.40625 6.109375 
Q 40.53125 6.109375 44.609375 11.75 
Q 48.6875 17.390625 48.6875 27.296875 
z
" id="DejaVuSans-112"/>
      <path d="M 8.5 21.578125 
L 8.5 54.6875 
L 17.484375 54.6875 
L 17.484375 21.921875 
Q 17.484375 14.15625 20.5 10.265625 
Q 23.53125 6.390625 29.59375 6.390625 
Q 36.859375 6.390625 41.078125 11.03125 
Q 45.3125 15.671875 45.3125 23.6875 
L 45.3125 54.6875 
L 54.296875 54.6875 
L 54.296875 0 
L 45.3125 0 
L 45.3125 8.40625 
Q 42.046875 3.421875 37.71875 1 
Q 33.40625 -1.421875 27.6875 -1.421875 
Q 18.265625 -1.421875 13.375 4.4375 
Q 8.5 10.296875 8.5 21.578125 
z
M 31.109375 56 
z
" id="DejaVuSans-117"/>
      <path d="M 9.421875 75.984375 
L 18.40625 75.984375 
L 18.40625 0 
L 9.421875 0 
z
" id="DejaVuSans-108"/>
      <path d="M 17.921875 72.90625 
L 17.921875 45.796875 
L 9.625 45.796875 
L 9.625 72.90625 
z
" id="DejaVuSans-39"/>
      <path id="DejaVuSans-32"/>
      <path d="M 2.984375 54.6875 
L 12.5 54.6875 
L 29.59375 8.796875 
L 46.6875 54.6875 
L 56.203125 54.6875 
L 35.6875 0 
L 23.484375 0 
z
" id="DejaVuSans-118"/>
      <path d="M 45.40625 27.984375 
Q 45.40625 37.75 41.375 43.109375 
Q 37.359375 48.484375 30.078125 48.484375 
Q 22.859375 48.484375 18.828125 43.109375 
Q 14.796875 37.75 14.796875 27.984375 
Q 14.796875 18.265625 18.828125 12.890625 
Q 22.859375 7.515625 30.078125 7.515625 
Q 37.359375 7.515625 41.375 12.890625 
Q 45.40625 18.265625 45.40625 27.984375 
z
M 54.390625 6.78125 
Q 54.390625 -7.171875 48.1875 -13.984375 
Q 42 -20.796875 29.203125 -20.796875 
Q 24.46875 -20.796875 20.265625 -20.09375 
Q 16.0625 -19.390625 12.109375 -17.921875 
L 12.109375 -9.1875 
Q 16.0625 -11.328125 19.921875 -12.34375 
Q 23.78125 -13.375 27.78125 -13.375 
Q 36.625 -13.375 41.015625 -8.765625 
Q 45.40625 -4.15625 45.40625 5.171875 
L 45.40625 9.625 
Q 42.625 4.78125 38.28125 2.390625 
Q 33.9375 0 27.875 0 
Q 17.828125 0 11.671875 7.65625 
Q 5.515625 15.328125 5.515625 27.984375 
Q 5.515625 40.671875 11.671875 48.328125 
Q 17.828125 56 27.875 56 
Q 33.9375 56 38.28125 53.609375 
Q 42.625 51.21875 45.40625 46.390625 
L 45.40625 54.6875 
L 54.390625 54.6875 
z
" id="DejaVuSans-103"/>
      <path d="M 45.40625 46.390625 
L 45.40625 75.984375 
L 54.390625 75.984375 
L 54.390625 0 
L 45.40625 0 
L 45.40625 8.203125 
Q 42.578125 3.328125 38.25 0.953125 
Q 33.9375 -1.421875 27.875 -1.421875 
Q 17.96875 -1.421875 11.734375 6.484375 
Q 5.515625 14.40625 5.515625 27.296875 
Q 5.515625 40.1875 11.734375 48.09375 
Q 17.96875 56 27.875 56 
Q 33.9375 56 38.25 53.625 
Q 42.578125 51.265625 45.40625 46.390625 
z
M 14.796875 27.296875 
Q 14.796875 17.390625 18.875 11.75 
Q 22.953125 6.109375 30.078125 6.109375 
Q 37.203125 6.109375 41.296875 11.75 
Q 45.40625 17.390625 45.40625 27.296875 
Q 45.40625 37.203125 41.296875 42.84375 
Q 37.203125 48.484375 30.078125 48.484375 
Q 22.953125 48.484375 18.875 42.84375 
Q 14.796875 37.203125 14.796875 27.296875 
z
" id="DejaVuSans-100"/>
      <path d="M 48.6875 27.296875 
Q 48.6875 37.203125 44.609375 42.84375 
Q 40.53125 48.484375 33.40625 48.484375 
Q 26.265625 48.484375 22.1875 42.84375 
Q 18.109375 37.203125 18.109375 27.296875 
Q 18.109375 17.390625 22.1875 11.75 
Q 26.265625 6.109375 33.40625 6.109375 
Q 40.53125 6.109375 44.609375 11.75 
Q 48.6875 17.390625 48.6875 27.296875 
z
M 18.109375 46.390625 
Q 20.953125 51.265625 25.265625 53.625 
Q 29.59375 56 35.59375 56 
Q 45.5625 56 51.78125 48.09375 
Q 58.015625 40.1875 58.015625 27.296875 
Q 58.015625 14.40625 51.78125 6.484375 
Q 45.5625 -1.421875 35.59375 -1.421875 
Q 29.59375 -1.421875 25.265625 0.953125 
Q 20.953125 3.328125 18.109375 8.203125 
L 18.109375 0 
L 9.078125 0 
L 9.078125 75.984375 
L 18.109375 75.984375 
z
" id="DejaVuSans-98"/>
      <path d="M 37.109375 75.984375 
L 37.109375 68.5 
L 28.515625 68.5 
Q 23.6875 68.5 21.796875 66.546875 
Q 19.921875 64.59375 19.921875 59.515625 
L 19.921875 54.6875 
L 34.71875 54.6875 
L 34.71875 47.703125 
L 19.921875 47.703125 
L 19.921875 0 
L 10.890625 0 
L 10.890625 47.703125 
L 2.296875 47.703125 
L 2.296875 54.6875 
L 10.890625 54.6875 
L 10.890625 58.5 
Q 10.890625 67.625 15.140625 71.796875 
Q 19.390625 75.984375 28.609375 75.984375 
z
" id="DejaVuSans-102"/>
     </defs>
     <use xlink:href="#DejaVuSans-80"/>
     <use x="56.677734" xlink:href="#DejaVuSans-111"/>
     <use x="117.859375" xlink:href="#DejaVuSans-112"/>
     <use x="181.335938" xlink:href="#DejaVuSans-117"/>
     <use x="244.714844" xlink:href="#DejaVuSans-108"/>
     <use x="272.498047" xlink:href="#DejaVuSans-97"/>
     <use x="333.777344" xlink:href="#DejaVuSans-116"/>
     <use x="372.986328" xlink:href="#DejaVuSans-105"/>
     <use x="400.769531" xlink:href="#DejaVuSans-111"/>
     <use x="461.951172" xlink:href="#DejaVuSans-110"/>
     <use x="525.330078" xlink:href="#DejaVuSans-39"/>
     <use x="552.820312" xlink:href="#DejaVuSans-115"/>
     <use x="604.919922" xlink:href="#DejaVuSans-32"/>
     <use x="636.707031" xlink:href="#DejaVuSans-97"/>
     <use x="697.986328" xlink:href="#DejaVuSans-118"/>
     <use x="757.166016" xlink:href="#DejaVuSans-101"/>
     <use x="818.689453" xlink:href="#DejaVuSans-114"/>
     <use x="859.802734" xlink:href="#DejaVuSans-97"/>
     <use x="921.082031" xlink:href="#DejaVuSans-103"/>
     <use x="984.558594" xlink:href="#DejaVuSans-101"/>
     <use x="1046.082031" xlink:href="#DejaVuSans-32"/>
     <use x="1077.869141" xlink:href="#DejaVuSans-97"/>
     <use x="1139.148438" xlink:href="#DejaVuSans-110"/>
     <use x="1202.527344" xlink:href="#DejaVuSans-100"/>
     <use x="1266.003906" xlink:href="#DejaVuSans-32"/>
     <use x="1297.791016" xlink:href="#DejaVuSans-98"/>
     <use x="1361.267578" xlink:href="#DejaVuSans-101"/>
     <use x="1422.791016" xlink:href="#DejaVuSans-115"/>
     <use x="1474.890625" xlink:href="#DejaVuSans-116"/>
     <use x="1514.099609" xlink:href="#DejaVuSans-32"/>
     <use x="1545.886719" xlink:href="#DejaVuSans-102"/>
     <use x="1581.091797" xlink:href="#DejaVuSans-105"/>
     <use x="1608.875" xlink:href="#DejaVuSans-116"/>
     <use x="1648.083984" xlink:href="#DejaVuSans-110"/>
     <use x="1711.462891" xlink:href="#DejaVuSans-101"/>
     <use x="1772.986328" xlink:href="#DejaVuSans-115"/>
     <use x="1825.085938" xlink:href="#DejaVuSans-115"/>
    </g>
   </g>
   <g id="legend_1">
    <g id="patch_7">
     <path d="M 64.6 108.1845 
L 137.540625 108.1845 
Q 139.540625 108.1845 139.540625 106.1845 
L 139.540625 48.472 
Q 139.540625 46.472 137.540625 46.472 
L 64.6 46.472 
Q 62.6 46.472 62.6 48.472 
L 62.6 106.1845 
Q 62.6 108.1845 64.6 108.1845 
z
" style="fill:#ffffff;opacity:0.8;stroke:#cccccc;stroke-linejoin:miter;"/>
    </g>
    <g id="line2d_29">
     <path d="M 66.6 54.570438 
L 86.6 54.570438 
" style="fill:none;stroke:#0000ff;stroke-linecap:square;stroke-width:1.5;"/>
    </g>
    <g id="line2d_30"/>
    <g id="text_16">
     <!-- average -->
     <g transform="translate(94.6 58.070438)scale(0.1 -0.1)">
      <use xlink:href="#DejaVuSans-97"/>
      <use x="61.279297" xlink:href="#DejaVuSans-118"/>
      <use x="120.458984" xlink:href="#DejaVuSans-101"/>
      <use x="181.982422" xlink:href="#DejaVuSans-114"/>
      <use x="223.095703" xlink:href="#DejaVuSans-97"/>
      <use x="284.375" xlink:href="#DejaVuSans-103"/>
      <use x="347.851562" xlink:href="#DejaVuSans-101"/>
     </g>
    </g>
    <g id="line2d_31">
     <path d="M 66.6 69.248563 
L 86.6 69.248563 
" style="fill:none;stroke:#008000;stroke-dasharray:9.6,2.4,1.5,2.4;stroke-dashoffset:0;stroke-width:1.5;"/>
    </g>
    <g id="line2d_32"/>
    <g id="text_17">
     <!-- -1 sd -->
     <g transform="translate(94.6 72.748563)scale(0.1 -0.1)">
      <defs>
       <path d="M 4.890625 31.390625 
L 31.203125 31.390625 
L 31.203125 23.390625 
L 4.890625 23.390625 
z
" id="DejaVuSans-45"/>
      </defs>
      <use xlink:href="#DejaVuSans-45"/>
      <use x="36.083984" xlink:href="#DejaVuSans-49"/>
      <use x="99.707031" xlink:href="#DejaVuSans-32"/>
      <use x="131.494141" xlink:href="#DejaVuSans-115"/>
      <use x="183.59375" xlink:href="#DejaVuSans-100"/>
     </g>
    </g>
    <g id="line2d_33">
     <path d="M 66.6 83.926688 
L 86.6 83.926688 
" style="fill:none;stroke:#008000;stroke-dasharray:9.6,2.4,1.5,2.4;stroke-dashoffset:0;stroke-width:1.5;"/>
    </g>
    <g id="line2d_34"/>
    <g id="text_18">
     <!-- +1 sd -->
     <g transform="translate(94.6 87.426688)scale(0.1 -0.1)">
      <defs>
       <path d="M 46 62.703125 
L 46 35.5 
L 73.1875 35.5 
L 73.1875 27.203125 
L 46 27.203125 
L 46 0 
L 37.796875 0 
L 37.796875 27.203125 
L 10.59375 27.203125 
L 10.59375 35.5 
L 37.796875 35.5 
L 37.796875 62.703125 
z
" id="DejaVuSans-43"/>
      </defs>
      <use xlink:href="#DejaVuSans-43"/>
      <use x="83.789062" xlink:href="#DejaVuSans-49"/>
      <use x="147.412109" xlink:href="#DejaVuSans-32"/>
      <use x="179.199219" xlink:href="#DejaVuSans-115"/>
      <use x="231.298828" xlink:href="#DejaVuSans-100"/>
     </g>
    </g>
    <g id="line2d_35">
     <path d="M 66.6 98.604813 
L 86.6 98.604813 
" style="fill:none;stroke:#ff0000;stroke-linecap:square;stroke-width:1.5;"/>
    </g>
    <g id="line2d_36"/>
    <g id="text_19">
     <!-- best -->
     <g transform="translate(94.6 102.104813)scale(0.1 -0.1)">
      <use xlink:href="#DejaVuSans-98"/>
      <use x="63.476562" xlink:href="#DejaVuSans-101"/>
      <use x="125" xlink:href="#DejaVuSans-115"/>
      <use x="177.099609" xlink:href="#DejaVuSans-116"/>
     </g>
    </g>
   </g>
  </g>
 </g>
 <defs>
  <clipPath id="pd74be85718">
   <rect height="266.112" width="357.12" x="57.6" y="41.472"/>
  </clipPath>
 </defs>
</svg>
