<?xml version="1.0" encoding="UTF-8" standalone="no"?>
<!DOCTYPE svg PUBLIC "-//W3C//DTD SVG 1.1//EN"
 "http://www.w3.org/Graphics/SVG/1.1/DTD/svg11.dtd">
<!-- Generated by graphviz version 2.47.1 (20210417.1919)
 -->
<!-- Pages: 1 -->
<svg width="297pt" height="303pt"
 viewBox="0.00 0.00 296.51 302.60" xmlns="http://www.w3.org/2000/svg" xmlns:xlink="http://www.w3.org/1999/xlink">
<g id="graph0" class="graph" transform="scale(1 1) rotate(0) translate(4 298.6)">
<polygon fill="white" stroke="transparent" points="-4,4 -4,-298.6 292.51,-298.6 292.51,4 -4,4"/>
<!-- &#45;1 -->
<g id="node1" class="node">
<title>&#45;1</title>
<polygon fill="lightgray" stroke="black" points="121.66,-85.11 97.65,-85.11 97.65,-66.5 121.66,-66.5 121.66,-85.11"/>
<text text-anchor="middle" x="109.65" y="-73.11" font-family="Times,serif" font-size="9.00">&#45;1</text>
</g>
<!-- 4039 -->
<g id="node6" class="node">
<title>4039</title>
<ellipse fill="white" stroke="black" cx="110.17" cy="-156.89" rx="24.08" ry="24.08"/>
<ellipse fill="none" stroke="black" cx="110.17" cy="-156.89" rx="28.08" ry="28.08"/>
<text text-anchor="middle" x="110.17" y="-154.19" font-family="Times,serif" font-size="9.00">4039</text>
</g>
<!-- &#45;1&#45;&gt;4039 -->
<g id="edge1" class="edge">
<title>&#45;1&#45;&gt;4039</title>
<path fill="none" stroke="green" stroke-width="0.55" d="M109.71,-85.11C109.76,-93.36 109.84,-106 109.92,-118.39"/>
<polygon fill="green" stroke="green" stroke-width="0.55" points="106.42,-118.65 109.99,-128.63 113.42,-118.61 106.42,-118.65"/>
<text text-anchor="middle" x="104.19" y="-103.25" font-family="Times,serif" font-size="5.00">2.258</text>
</g>
<!-- 6600 -->
<g id="node7" class="node">
<title>6600</title>
<ellipse fill="white" stroke="black" cx="79.45" cy="-155.71" rx="24.08" ry="24.08"/>
<ellipse fill="none" stroke="black" cx="79.45" cy="-155.71" rx="28.08" ry="28.08"/>
<text text-anchor="middle" x="79.45" y="-153.01" font-family="Times,serif" font-size="9.00">6600</text>
</g>
<!-- &#45;1&#45;&gt;6600 -->
<g id="edge4" class="edge">
<title>&#45;1&#45;&gt;6600</title>
<path fill="none" stroke="green" stroke-width="0.55" d="M106.07,-85.28C102.83,-93.85 97.85,-107.01 93.08,-119.65"/>
<polygon fill="green" stroke="green" stroke-width="0.55" points="89.76,-118.54 89.49,-129.13 96.3,-121.02 89.76,-118.54"/>
<text text-anchor="middle" x="93.95" y="-103.97" font-family="Times,serif" font-size="5.00">2.258</text>
</g>
<!-- 6601 -->
<g id="node8" class="node">
<title>6601</title>
<ellipse fill="white" stroke="black" cx="155.2" cy="-132.09" rx="24.08" ry="24.08"/>
<ellipse fill="none" stroke="black" cx="155.2" cy="-132.09" rx="28.08" ry="28.08"/>
<text text-anchor="middle" x="155.2" y="-129.39" font-family="Times,serif" font-size="9.00">6601</text>
</g>
<!-- &#45;1&#45;&gt;6601 -->
<g id="edge7" class="edge">
<title>&#45;1&#45;&gt;6601</title>
<path fill="none" stroke="green" stroke-width="0.55" d="M117.38,-85.35C121.15,-90.01 125.91,-95.9 130.78,-101.91"/>
<polygon fill="green" stroke="green" stroke-width="0.55" points="128.38,-104.51 137.39,-110.08 133.82,-100.1 128.38,-104.51"/>
<text text-anchor="middle" x="129.71" y="-95.13" font-family="Times,serif" font-size="5.00">2.258</text>
</g>
<!-- 5934 -->
<g id="node9" class="node">
<title>5934</title>
<ellipse fill="white" stroke="black" cx="28.04" cy="-118.57" rx="24.08" ry="24.08"/>
<ellipse fill="none" stroke="black" cx="28.04" cy="-118.57" rx="28.08" ry="28.08"/>
<text text-anchor="middle" x="28.04" y="-115.87" font-family="Times,serif" font-size="9.00">5934</text>
</g>
<!-- &#45;1&#45;&gt;5934 -->
<g id="edge10" class="edge">
<title>&#45;1&#45;&gt;5934</title>
<path fill="none" stroke="green" stroke-width="0.9" d="M97.61,-82.11C88.19,-87.05 74.61,-94.16 61.95,-100.8"/>
<polygon fill="green" stroke="green" stroke-width="0.9" points="60.19,-97.77 52.96,-105.51 63.44,-103.97 60.19,-97.77"/>
<text text-anchor="middle" x="74.15" y="-92.96" font-family="Times,serif" font-size="5.00">3.995</text>
</g>
<!-- 6602 -->
<g id="node10" class="node">
<title>6602</title>
<ellipse fill="white" stroke="black" cx="155.3" cy="-28.04" rx="24.08" ry="24.08"/>
<ellipse fill="none" stroke="black" cx="155.3" cy="-28.04" rx="28.08" ry="28.08"/>
<text text-anchor="middle" x="155.3" y="-25.34" font-family="Times,serif" font-size="9.00">6602</text>
</g>
<!-- &#45;1&#45;&gt;6602 -->
<g id="edge13" class="edge">
<title>&#45;1&#45;&gt;6602</title>
<path fill="none" stroke="green" stroke-width="0.9" d="M118.89,-66.14C121.87,-63.02 125.35,-59.38 128.94,-55.63"/>
<polygon fill="green" stroke="green" stroke-width="0.9" points="131.52,-57.99 135.89,-48.35 126.46,-53.16 131.52,-57.99"/>
<text text-anchor="middle" x="118.29" y="-62.38" font-family="Times,serif" font-size="5.00">3.995</text>
</g>
<!-- 6603 -->
<g id="node11" class="node">
<title>6603</title>
<ellipse fill="white" stroke="black" cx="182.79" cy="-70.15" rx="24.08" ry="24.08"/>
<ellipse fill="none" stroke="black" cx="182.79" cy="-70.15" rx="28.08" ry="28.08"/>
<text text-anchor="middle" x="182.79" y="-67.45" font-family="Times,serif" font-size="9.00">6603</text>
</g>
<!-- &#45;1&#45;&gt;6603 -->
<g id="edge16" class="edge">
<title>&#45;1&#45;&gt;6603</title>
<path fill="none" stroke="green" stroke-width="0.9" d="M121.4,-74.9C127.78,-74.4 136.06,-73.76 144.46,-73.11"/>
<polygon fill="green" stroke="green" stroke-width="0.9" points="144.95,-76.58 154.65,-72.32 144.41,-69.61 144.95,-76.58"/>
<text text-anchor="middle" x="138.56" y="-75.5" font-family="Times,serif" font-size="5.00">3.995</text>
</g>
<!-- &#45;2 -->
<g id="node2" class="node">
<title>&#45;2</title>
<polygon fill="lightgray" stroke="black" points="212.92,-288.68 188.91,-288.68 188.91,-270.08 212.92,-270.08 212.92,-288.68"/>
<text text-anchor="middle" x="200.92" y="-276.68" font-family="Times,serif" font-size="9.00">&#45;2</text>
</g>
<!-- 353 -->
<g id="node15" class="node">
<title>353</title>
<ellipse fill="white" stroke="black" cx="110.13" cy="-273.74" rx="20.72" ry="20.72"/>
<text text-anchor="middle" x="110.13" y="-271.04" font-family="Times,serif" font-size="9.00">353</text>
</g>
<!-- &#45;2&#45;&gt;353 -->
<g id="edge22" class="edge">
<title>&#45;2&#45;&gt;353</title>
<path fill="none" stroke="green" stroke-width="1.7" d="M189.05,-278.64C176.98,-277.89 157.78,-276.7 141.34,-275.68"/>
<polygon fill="green" stroke="green" stroke-width="1.7" points="141.23,-272.16 131.03,-275.04 140.8,-279.15 141.23,-272.16"/>
<text text-anchor="middle" x="159.57" y="-278.66" font-family="Times,serif" font-size="5.00">7.986</text>
</g>
<!-- 6598 -->
<g id="node16" class="node">
<title>6598</title>
<ellipse fill="white" stroke="black" cx="234.88" cy="-190.42" rx="24.08" ry="24.08"/>
<text text-anchor="middle" x="234.88" y="-187.72" font-family="Times,serif" font-size="9.00">6598</text>
</g>
<!-- &#45;2&#45;&gt;6598 -->
<g id="edge24" class="edge">
<title>&#45;2&#45;&gt;6598</title>
<path fill="none" stroke="green" stroke-width="1.7" d="M204.55,-269.86C208.84,-258.62 216.21,-239.33 222.61,-222.57"/>
<polygon fill="green" stroke="green" stroke-width="1.7" points="225.93,-223.67 226.23,-213.08 219.39,-221.18 225.93,-223.67"/>
<text text-anchor="middle" x="207.95" y="-247.72" font-family="Times,serif" font-size="5.00">7.986</text>
</g>
<!-- 6599 -->
<g id="node17" class="node">
<title>6599</title>
<ellipse fill="white" stroke="black" cx="240.79" cy="-230.29" rx="24.08" ry="24.08"/>
<text text-anchor="middle" x="240.79" y="-227.59" font-family="Times,serif" font-size="9.00">6599</text>
</g>
<!-- &#45;2&#45;&gt;6599 -->
<g id="edge26" class="edge">
<title>&#45;2&#45;&gt;6599</title>
<path fill="none" stroke="green" stroke-width="1.7" d="M208.6,-269.91C211.68,-266.13 215.38,-261.57 219.17,-256.9"/>
<polygon fill="green" stroke="green" stroke-width="1.7" points="221.94,-259.04 225.53,-249.07 216.51,-254.63 221.94,-259.04"/>
<text text-anchor="middle" x="208.26" y="-264.91" font-family="Times,serif" font-size="5.00">7.986</text>
</g>
<!-- &#45;3 -->
<g id="node3" class="node">
<title>&#45;3</title>
<polygon fill="lightgray" stroke="black" points="100.22,-86.05 76.22,-86.05 76.22,-67.45 100.22,-67.45 100.22,-86.05"/>
<text text-anchor="middle" x="88.22" y="-74.05" font-family="Times,serif" font-size="9.00">&#45;3</text>
</g>
<!-- &#45;3&#45;&gt;4039 -->
<g id="edge2" class="edge">
<title>&#45;3&#45;&gt;4039</title>
<path fill="none" stroke="green" stroke-width="0.55" d="M90.83,-86.26C93.12,-94.63 96.61,-107.39 100,-119.78"/>
<polygon fill="green" stroke="green" stroke-width="0.55" points="96.66,-120.81 102.68,-129.54 103.41,-118.97 96.66,-120.81"/>
<text text-anchor="middle" x="89.79" y="-98.52" font-family="Times,serif" font-size="5.00">2.258</text>
</g>
<!-- &#45;3&#45;&gt;6600 -->
<g id="edge5" class="edge">
<title>&#45;3&#45;&gt;6600</title>
<path fill="none" stroke="green" stroke-width="0.55" d="M87.18,-86.12C86.3,-94.02 84.98,-105.87 83.68,-117.57"/>
<polygon fill="green" stroke="green" stroke-width="0.55" points="80.18,-117.39 82.56,-127.71 87.14,-118.16 80.18,-117.39"/>
<text text-anchor="middle" x="79.81" y="-103.35" font-family="Times,serif" font-size="5.00">2.258</text>
</g>
<!-- &#45;3&#45;&gt;6601 -->
<g id="edge8" class="edge">
<title>&#45;3&#45;&gt;6601</title>
<path fill="none" stroke="green" stroke-width="0.55" d="M99.58,-86.14C106.74,-92.05 116.35,-99.98 125.55,-107.59"/>
<polygon fill="green" stroke="green" stroke-width="0.55" points="123.54,-110.46 133.47,-114.13 127.99,-105.07 123.54,-110.46"/>
<text text-anchor="middle" x="118.19" y="-98.36" font-family="Times,serif" font-size="5.00">2.258</text>
</g>
<!-- &#45;3&#45;&gt;5934 -->
<g id="edge11" class="edge">
<title>&#45;3&#45;&gt;5934</title>
<path fill="none" stroke="red" stroke-width="0.1" d="M76.33,-85.01C71.55,-88.34 65.77,-92.35 59.91,-96.42"/>
<polygon fill="red" stroke="red" stroke-width="0.1" points="57.58,-93.78 51.36,-102.36 61.57,-99.53 57.58,-93.78"/>
<text text-anchor="middle" x="62.5" y="-92.22" font-family="Times,serif" font-size="5.00">0.000</text>
</g>
<!-- &#45;3&#45;&gt;6602 -->
<g id="edge14" class="edge">
<title>&#45;3&#45;&gt;6602</title>
<path fill="none" stroke="red" stroke-width="0.1" d="M100.21,-68.04C107.01,-63.11 115.85,-56.68 124.46,-50.44"/>
<polygon fill="red" stroke="red" stroke-width="0.1" points="126.53,-53.26 132.56,-44.55 122.41,-47.6 126.53,-53.26"/>
<text text-anchor="middle" x="106.71" y="-60.74" font-family="Times,serif" font-size="5.00">0.000</text>
</g>
<!-- &#45;3&#45;&gt;6603 -->
<g id="edge17" class="edge">
<title>&#45;3&#45;&gt;6603</title>
<path fill="none" stroke="red" stroke-width="0.1" d="M100.2,-75.91C111.37,-75.13 128.65,-73.93 144.52,-72.82"/>
<polygon fill="red" stroke="red" stroke-width="0.1" points="144.94,-76.3 154.67,-72.11 144.45,-69.31 144.94,-76.3"/>
<text text-anchor="middle" x="127.99" y="-69.87" font-family="Times,serif" font-size="5.00">0.000</text>
</g>
<!-- &#45;4 -->
<g id="node4" class="node">
<title>&#45;4</title>
<polygon fill="lightgray" stroke="black" points="120.31,-105.9 96.31,-105.9 96.31,-87.3 120.31,-87.3 120.31,-105.9"/>
<text text-anchor="middle" x="108.31" y="-93.9" font-family="Times,serif" font-size="9.00">&#45;4</text>
</g>
<!-- &#45;4&#45;&gt;4039 -->
<g id="edge3" class="edge">
<title>&#45;4&#45;&gt;4039</title>
<path fill="none" stroke="green" stroke-width="0.55" d="M108.6,-106.02C108.71,-109.58 108.84,-113.89 108.98,-118.48"/>
<polygon fill="green" stroke="green" stroke-width="0.55" points="105.5,-118.89 109.3,-128.78 112.49,-118.67 105.5,-118.89"/>
<text text-anchor="middle" x="114.42" y="-113.75" font-family="Times,serif" font-size="5.00">2.258</text>
</g>
<!-- &#45;4&#45;&gt;6600 -->
<g id="edge6" class="edge">
<title>&#45;4&#45;&gt;6600</title>
<path fill="none" stroke="green" stroke-width="0.55" d="M103.67,-106.1C101.61,-110.32 99.04,-115.58 96.36,-121.08"/>
<polygon fill="green" stroke="green" stroke-width="0.55" points="93.04,-119.9 91.8,-130.42 99.33,-122.97 93.04,-119.9"/>
<text text-anchor="middle" x="94.39" y="-115.09" font-family="Times,serif" font-size="5.00">2.258</text>
</g>
<!-- &#45;4&#45;&gt;6601 -->
<g id="edge9" class="edge">
<title>&#45;4&#45;&gt;6601</title>
<path fill="none" stroke="green" stroke-width="0.55" d="M120.14,-105.55C121.45,-106.54 122.82,-107.58 124.23,-108.65"/>
<polygon fill="green" stroke="green" stroke-width="0.55" points="122.5,-111.73 132.59,-114.97 126.73,-106.15 122.5,-111.73"/>
<text text-anchor="middle" x="116.56" y="-108.6" font-family="Times,serif" font-size="5.00">2.258</text>
</g>
<!-- &#45;4&#45;&gt;5934 -->
<g id="edge12" class="edge">
<title>&#45;4&#45;&gt;5934</title>
<path fill="none" stroke="red" stroke-width="0.9" d="M96.47,-99.84C88.1,-102.13 76.4,-105.33 65.04,-108.44"/>
<polygon fill="red" stroke="red" stroke-width="0.9" points="63.95,-105.11 55.23,-111.13 65.8,-111.86 63.95,-105.11"/>
<text text-anchor="middle" x="74.3" y="-105.64" font-family="Times,serif" font-size="5.00">&#45;3.995</text>
</g>
<!-- &#45;4&#45;&gt;6602 -->
<g id="edge15" class="edge">
<title>&#45;4&#45;&gt;6602</title>
<path fill="none" stroke="red" stroke-width="0.9" d="M114.85,-87.07C119.72,-79.95 126.68,-69.79 133.46,-59.9"/>
<polygon fill="red" stroke="red" stroke-width="0.9" points="136.55,-61.59 139.31,-51.37 130.77,-57.64 136.55,-61.59"/>
<text text-anchor="middle" x="130.61" y="-68.99" font-family="Times,serif" font-size="5.00">&#45;3.995</text>
</g>
<!-- &#45;4&#45;&gt;6603 -->
<g id="edge18" class="edge">
<title>&#45;4&#45;&gt;6603</title>
<path fill="none" stroke="red" stroke-width="0.9" d="M120.28,-92.35C127.56,-89.76 137.27,-86.31 146.88,-82.9"/>
<polygon fill="red" stroke="red" stroke-width="0.9" points="148.09,-86.19 156.34,-79.54 145.75,-79.59 148.09,-86.19"/>
<text text-anchor="middle" x="127.12" y="-89.13" font-family="Times,serif" font-size="5.00">&#45;3.995</text>
</g>
<!-- 0 -->
<g id="node5" class="node">
<title>0</title>
<ellipse fill="lightblue" stroke="black" cx="156.86" cy="-208.85" rx="14.49" ry="14.49"/>
<ellipse fill="none" stroke="black" cx="156.86" cy="-208.85" rx="18.49" ry="18.49"/>
<text text-anchor="middle" x="156.86" y="-206.15" font-family="Times,serif" font-size="9.00">0</text>
</g>
<!-- 4039&#45;&gt;0 -->
<g id="edge28" class="edge">
<title>4039&#45;&gt;0</title>
<path fill="none" stroke="green" stroke-width="1" d="M129.16,-178.03C131.98,-181.16 134.88,-184.39 137.7,-187.53"/>
<polygon fill="green" stroke="green" stroke-width="1" points="135.15,-189.93 144.44,-195.03 140.36,-185.25 135.15,-189.93"/>
<text text-anchor="middle" x="139.06" y="-184.28" font-family="Times,serif" font-size="5.00">4.476</text>
</g>
<!-- 6600&#45;&gt;0 -->
<g id="edge29" class="edge">
<title>6600&#45;&gt;0</title>
<path fill="none" stroke="red" stroke-width="0.1" d="M102.67,-171.65C112.22,-178.21 123.27,-185.79 132.9,-192.4"/>
<polygon fill="red" stroke="red" stroke-width="0.1" points="131.02,-195.36 141.25,-198.13 134.98,-189.59 131.02,-195.36"/>
<text text-anchor="middle" x="112.16" y="-183.53" font-family="Times,serif" font-size="5.00">0.000</text>
</g>
<!-- 6601&#45;&gt;0 -->
<g id="edge30" class="edge">
<title>6601&#45;&gt;0</title>
<path fill="none" stroke="red" stroke-width="1" d="M155.81,-160.23C155.95,-166.59 156.1,-173.36 156.23,-179.76"/>
<polygon fill="red" stroke="red" stroke-width="1" points="152.74,-180.12 156.46,-190.04 159.74,-179.97 152.74,-180.12"/>
<text text-anchor="middle" x="149.57" y="-171.5" font-family="Times,serif" font-size="5.00">&#45;4.476</text>
</g>
<!-- 6597 -->
<g id="node12" class="node">
<title>6597</title>
<ellipse fill="white" stroke="black" cx="29.57" cy="-222.26" rx="24.08" ry="24.08"/>
<ellipse fill="none" stroke="black" cx="29.57" cy="-222.26" rx="28.08" ry="28.08"/>
<text text-anchor="middle" x="29.57" y="-219.56" font-family="Times,serif" font-size="9.00">6597</text>
</g>
<!-- 5934&#45;&gt;6597 -->
<g id="edge19" class="edge">
<title>5934&#45;&gt;6597</title>
<path fill="none" stroke="green" stroke-width="0.28" d="M28.46,-146.63C28.63,-158.15 28.83,-171.68 29.01,-184.09"/>
<polygon fill="green" stroke="green" stroke-width="0.28" points="25.51,-184.23 29.16,-194.17 32.51,-184.12 25.51,-184.23"/>
<text text-anchor="middle" x="23.11" y="-166.86" font-family="Times,serif" font-size="5.00">0.876</text>
</g>
<!-- 6604 -->
<g id="node13" class="node">
<title>6604</title>
<ellipse fill="white" stroke="black" cx="244.18" cy="-85.94" rx="24.08" ry="24.08"/>
<ellipse fill="none" stroke="black" cx="244.18" cy="-85.94" rx="28.08" ry="28.08"/>
<text text-anchor="middle" x="244.18" y="-83.24" font-family="Times,serif" font-size="9.00">6604</text>
</g>
<!-- 6602&#45;&gt;6604 -->
<g id="edge20" class="edge">
<title>6602&#45;&gt;6604</title>
<path fill="none" stroke="green" stroke-width="0.28" d="M179.12,-43.56C189.26,-50.16 201.25,-57.97 212.15,-65.07"/>
<polygon fill="green" stroke="green" stroke-width="0.28" points="210.32,-68.06 220.61,-70.58 214.14,-62.19 210.32,-68.06"/>
<text text-anchor="middle" x="190.01" y="-55.82" font-family="Times,serif" font-size="5.00">0.876</text>
</g>
<!-- 6605 -->
<g id="node14" class="node">
<title>6605</title>
<ellipse fill="white" stroke="black" cx="260.47" cy="-135.95" rx="24.08" ry="24.08"/>
<ellipse fill="none" stroke="black" cx="260.47" cy="-135.95" rx="28.08" ry="28.08"/>
<text text-anchor="middle" x="260.47" y="-133.25" font-family="Times,serif" font-size="9.00">6605</text>
</g>
<!-- 6603&#45;&gt;6605 -->
<g id="edge21" class="edge">
<title>6603&#45;&gt;6605</title>
<path fill="none" stroke="green" stroke-width="0.28" d="M204.43,-88.48C212.68,-95.47 222.22,-103.55 231.07,-111.05"/>
<polygon fill="green" stroke="green" stroke-width="0.28" points="229.05,-113.93 238.95,-117.72 233.58,-108.59 229.05,-113.93"/>
<text text-anchor="middle" x="212.13" y="-101.26" font-family="Times,serif" font-size="5.00">0.876</text>
</g>
<!-- 6597&#45;&gt;353 -->
<g id="edge23" class="edge">
<title>6597&#45;&gt;353</title>
<path fill="none" stroke="red" stroke-width="1.89" d="M53.31,-237.42C62.9,-243.55 74.01,-250.65 83.85,-256.94"/>
<polygon fill="red" stroke="red" stroke-width="1.89" points="82.14,-260 92.45,-262.44 85.91,-254.1 82.14,-260"/>
<text text-anchor="middle" x="75.04" y="-248.68" font-family="Times,serif" font-size="5.00">&#45;8.966</text>
</g>
<!-- 6604&#45;&gt;6598 -->
<g id="edge25" class="edge">
<title>6604&#45;&gt;6598</title>
<path fill="none" stroke="red" stroke-width="1.89" d="M241.69,-113.94C240.53,-126.94 239.15,-142.52 237.93,-156.22"/>
<polygon fill="red" stroke="red" stroke-width="1.89" points="234.44,-155.98 237.04,-166.25 241.41,-156.6 234.44,-155.98"/>
<text text-anchor="middle" x="233.35" y="-136.58" font-family="Times,serif" font-size="5.00">&#45;8.966</text>
</g>
<!-- 6605&#45;&gt;6599 -->
<g id="edge27" class="edge">
<title>6605&#45;&gt;6599</title>
<path fill="none" stroke="red" stroke-width="1.89" d="M254.72,-163.49C252.55,-173.88 250.07,-185.81 247.8,-196.69"/>
<polygon fill="red" stroke="red" stroke-width="1.89" points="244.32,-196.21 245.71,-206.71 251.17,-197.64 244.32,-196.21"/>
<text text-anchor="middle" x="257.72" y="-181.59" font-family="Times,serif" font-size="5.00">&#45;8.966</text>
</g>
<!-- 353&#45;&gt;0 -->
<g id="edge31" class="edge">
<title>353&#45;&gt;0</title>
<path fill="none" stroke="green" stroke-width="0.17" stroke-dasharray="1,5" d="M122.41,-256.69C127.73,-249.3 134.05,-240.52 139.82,-232.52"/>
<polygon fill="green" stroke="green" stroke-width="0.17" points="142.78,-234.39 145.78,-224.23 137.1,-230.3 142.78,-234.39"/>
<text text-anchor="middle" x="125.49" y="-246.1" font-family="Times,serif" font-size="5.00">0.333</text>
</g>
<!-- 6598&#45;&gt;0 -->
<g id="edge32" class="edge">
<title>6598&#45;&gt;0</title>
<path fill="none" stroke="green" stroke-width="0.17" stroke-dasharray="1,5" d="M211.47,-195.95C203.09,-197.93 193.55,-200.19 184.81,-202.25"/>
<polygon fill="green" stroke="green" stroke-width="0.17" points="183.97,-198.85 175.05,-204.56 185.58,-205.66 183.97,-198.85"/>
<text text-anchor="middle" x="192.52" y="-200.6" font-family="Times,serif" font-size="5.00">0.333</text>
</g>
<!-- 6599&#45;&gt;0 -->
<g id="edge33" class="edge">
<title>6599&#45;&gt;0</title>
<path fill="none" stroke="green" stroke-width="0.17" stroke-dasharray="1,5" d="M217.41,-224.32C207.3,-221.73 195.38,-218.69 184.8,-215.99"/>
<polygon fill="green" stroke="green" stroke-width="0.17" points="185.35,-212.52 174.79,-213.43 183.62,-219.3 185.35,-212.52"/>
<text text-anchor="middle" x="195.48" y="-221.65" font-family="Times,serif" font-size="5.00">0.333</text>
</g>
</g>
</svg>
