<?xml version="1.0" encoding="UTF-8" standalone="no"?>
<!DOCTYPE svg PUBLIC "-//W3C//DTD SVG 1.1//EN"
 "http://www.w3.org/Graphics/SVG/1.1/DTD/svg11.dtd">
<!-- Generated by graphviz version 2.47.1 (20210417.1919)
 -->
<!-- Pages: 1 -->
<svg width="519pt" height="449pt"
 viewBox="0.00 0.00 519.47 449.47" xmlns="http://www.w3.org/2000/svg" xmlns:xlink="http://www.w3.org/1999/xlink">
<g id="graph0" class="graph" transform="scale(1 1) rotate(0) translate(4 445.47)">
<polygon fill="white" stroke="transparent" points="-4,4 -4,-445.47 515.47,-445.47 515.47,4 -4,4"/>
<!-- &#45;1 -->
<g id="node1" class="node">
<title>&#45;1</title>
<polygon fill="lightgray" stroke="black" points="185.56,-124.77 161.55,-124.77 161.55,-106.17 185.56,-106.17 185.56,-124.77"/>
<text text-anchor="middle" x="173.55" y="-112.77" font-family="Times,serif" font-size="9.00">&#45;1</text>
</g>
<!-- 0 -->
<g id="node5" class="node">
<title>0</title>
<ellipse fill="lightblue" stroke="black" cx="255.44" cy="-180.25" rx="14.49" ry="14.49"/>
<ellipse fill="none" stroke="black" cx="255.44" cy="-180.25" rx="18.49" ry="18.49"/>
<text text-anchor="middle" x="255.44" y="-177.55" font-family="Times,serif" font-size="9.00">0</text>
</g>
<!-- &#45;1&#45;&gt;0 -->
<g id="edge34" class="edge">
<title>&#45;1&#45;&gt;0</title>
<path fill="none" stroke="green" stroke-width="0.17" stroke-dasharray="1,5" d="M185.64,-125.03C198.03,-134.83 217.58,-150.3 232.85,-162.38"/>
<polygon fill="green" stroke="green" stroke-width="0.17" points="230.8,-165.22 240.82,-168.68 235.15,-159.73 230.8,-165.22"/>
<text text-anchor="middle" x="203.62" y="-145.2" font-family="Times,serif" font-size="5.00">0.333</text>
</g>
<!-- 5395 -->
<g id="node9" class="node">
<title>5395</title>
<ellipse fill="white" stroke="black" cx="101.28" cy="-91.63" rx="24.08" ry="24.08"/>
<text text-anchor="middle" x="101.28" y="-88.93" font-family="Times,serif" font-size="9.00">5395</text>
</g>
<!-- &#45;1&#45;&gt;5395 -->
<g id="edge1" class="edge">
<title>&#45;1&#45;&gt;5395</title>
<path fill="none" stroke="green" stroke-width="0.3" d="M161.62,-111.54C154.04,-109.04 143.84,-105.67 133.97,-102.42"/>
<polygon fill="green" stroke="green" stroke-width="0.3" points="134.93,-99.05 124.34,-99.24 132.74,-105.69 134.93,-99.05"/>
<text text-anchor="middle" x="142.17" y="-108.48" font-family="Times,serif" font-size="5.00">1.000</text>
</g>
<!-- 5396 -->
<g id="node10" class="node">
<title>5396</title>
<ellipse fill="white" stroke="black" cx="159.74" cy="-24.04" rx="24.08" ry="24.08"/>
<text text-anchor="middle" x="159.74" y="-21.34" font-family="Times,serif" font-size="9.00">5396</text>
</g>
<!-- &#45;1&#45;&gt;5396 -->
<g id="edge2" class="edge">
<title>&#45;1&#45;&gt;5396</title>
<path fill="none" stroke="green" stroke-width="0.3" d="M172.13,-106.03C170.43,-94.77 167.49,-75.32 164.9,-58.19"/>
<polygon fill="green" stroke="green" stroke-width="0.3" points="168.3,-57.28 163.35,-47.91 161.38,-58.32 168.3,-57.28"/>
<text text-anchor="middle" x="162.89" y="-83.61" font-family="Times,serif" font-size="5.00">1.000</text>
</g>
<!-- 5397 -->
<g id="node11" class="node">
<title>5397</title>
<ellipse fill="white" stroke="black" cx="134.83" cy="-47.16" rx="24.08" ry="24.08"/>
<text text-anchor="middle" x="134.83" y="-44.46" font-family="Times,serif" font-size="9.00">5397</text>
</g>
<!-- &#45;1&#45;&gt;5397 -->
<g id="edge3" class="edge">
<title>&#45;1&#45;&gt;5397</title>
<path fill="none" stroke="green" stroke-width="0.3" d="M168.17,-105.98C163.9,-98.43 157.67,-87.46 151.76,-77.02"/>
<polygon fill="green" stroke="green" stroke-width="0.3" points="154.67,-75.07 146.7,-68.09 148.58,-78.52 154.67,-75.07"/>
<text text-anchor="middle" x="154.34" y="-93" font-family="Times,serif" font-size="5.00">1.000</text>
</g>
<!-- 5404 -->
<g id="node21" class="node">
<title>5404</title>
<ellipse fill="white" stroke="black" cx="91.8" cy="-153.18" rx="24.08" ry="24.08"/>
<text text-anchor="middle" x="91.8" y="-150.48" font-family="Times,serif" font-size="9.00">5404</text>
</g>
<!-- &#45;1&#45;&gt;5404 -->
<g id="edge19" class="edge">
<title>&#45;1&#45;&gt;5404</title>
<path fill="none" stroke="green" stroke-width="0.3" d="M161.49,-121.04C151.41,-125.69 136.58,-132.53 123.19,-138.7"/>
<polygon fill="green" stroke="green" stroke-width="0.3" points="121.39,-135.68 113.78,-143.04 124.32,-142.03 121.39,-135.68"/>
<text text-anchor="middle" x="136.71" y="-131.37" font-family="Times,serif" font-size="5.00">1.000</text>
</g>
<!-- &#45;2 -->
<g id="node2" class="node">
<title>&#45;2</title>
<polygon fill="lightgray" stroke="black" points="299.8,-147.34 275.79,-147.34 275.79,-128.74 299.8,-128.74 299.8,-147.34"/>
<text text-anchor="middle" x="287.79" y="-135.34" font-family="Times,serif" font-size="9.00">&#45;2</text>
</g>
<!-- &#45;2&#45;&gt;0 -->
<g id="edge37" class="edge">
<title>&#45;2&#45;&gt;0</title>
<path fill="none" stroke="green" stroke-width="0.17" stroke-dasharray="1,5" d="M280.61,-147.41C278.35,-150.36 275.75,-153.76 273.09,-157.23"/>
<polygon fill="green" stroke="green" stroke-width="0.17" points="270.23,-155.21 266.92,-165.27 275.79,-159.46 270.23,-155.21"/>
<text text-anchor="middle" x="271.23" y="-153.82" font-family="Times,serif" font-size="5.00">0.333</text>
</g>
<!-- &#45;3 -->
<g id="node3" class="node">
<title>&#45;3</title>
<polygon fill="lightgray" stroke="black" points="360.2,-152.41 336.2,-152.41 336.2,-133.8 360.2,-133.8 360.2,-152.41"/>
<text text-anchor="middle" x="348.2" y="-140.4" font-family="Times,serif" font-size="9.00">&#45;3</text>
</g>
<!-- &#45;3&#45;&gt;0 -->
<g id="edge35" class="edge">
<title>&#45;3&#45;&gt;0</title>
<path fill="none" stroke="green" stroke-width="0.17" stroke-dasharray="1,5" d="M336.07,-147.96C322.4,-153.44 299.75,-162.5 281.94,-169.64"/>
<polygon fill="green" stroke="green" stroke-width="0.17" points="280.6,-166.4 272.62,-173.37 283.21,-172.9 280.6,-166.4"/>
<text text-anchor="middle" x="303.38" y="-160.3" font-family="Times,serif" font-size="5.00">0.333</text>
</g>
<!-- 5398 -->
<g id="node12" class="node">
<title>5398</title>
<ellipse fill="white" stroke="black" cx="407.68" cy="-94.6" rx="24.08" ry="24.08"/>
<text text-anchor="middle" x="407.68" y="-91.9" font-family="Times,serif" font-size="9.00">5398</text>
</g>
<!-- &#45;3&#45;&gt;5398 -->
<g id="edge4" class="edge">
<title>&#45;3&#45;&gt;5398</title>
<path fill="none" stroke="green" stroke-width="0.3" d="M359.67,-133.75C365.71,-128.82 373.41,-122.54 380.86,-116.47"/>
<polygon fill="green" stroke="green" stroke-width="0.3" points="383.22,-119.06 388.75,-110.03 378.79,-113.64 383.22,-119.06"/>
<text text-anchor="middle" x="364.64" y="-126.61" font-family="Times,serif" font-size="5.00">1.000</text>
</g>
<!-- 5399 -->
<g id="node13" class="node">
<title>5399</title>
<ellipse fill="white" stroke="black" cx="390.41" cy="-63.1" rx="24.08" ry="24.08"/>
<text text-anchor="middle" x="390.41" y="-60.4" font-family="Times,serif" font-size="9.00">5399</text>
</g>
<!-- &#45;3&#45;&gt;5399 -->
<g id="edge5" class="edge">
<title>&#45;3&#45;&gt;5399</title>
<path fill="none" stroke="green" stroke-width="0.3" d="M353.21,-133.61C358.4,-123.77 366.8,-107.85 374.3,-93.62"/>
<polygon fill="green" stroke="green" stroke-width="0.3" points="377.49,-95.08 379.06,-84.6 371.3,-91.81 377.49,-95.08"/>
<text text-anchor="middle" x="358.13" y="-115.12" font-family="Times,serif" font-size="5.00">1.000</text>
</g>
<!-- 5400 -->
<g id="node14" class="node">
<title>5400</title>
<ellipse fill="white" stroke="black" cx="431.83" cy="-190.19" rx="24.08" ry="24.08"/>
<text text-anchor="middle" x="431.83" y="-187.49" font-family="Times,serif" font-size="9.00">5400</text>
</g>
<!-- &#45;3&#45;&gt;5400 -->
<g id="edge6" class="edge">
<title>&#45;3&#45;&gt;5400</title>
<path fill="none" stroke="green" stroke-width="0.3" d="M360.18,-149.85C371,-155.94 387.38,-165.16 401.74,-173.25"/>
<polygon fill="green" stroke="green" stroke-width="0.3" points="400.39,-176.51 410.82,-178.36 403.82,-170.41 400.39,-176.51"/>
<text text-anchor="middle" x="375.34" y="-163.05" font-family="Times,serif" font-size="5.00">1.000</text>
</g>
<!-- 5406 -->
<g id="node24" class="node">
<title>5406</title>
<ellipse fill="white" stroke="black" cx="413.34" cy="-150.2" rx="24.08" ry="24.08"/>
<text text-anchor="middle" x="413.34" y="-147.5" font-family="Times,serif" font-size="9.00">5406</text>
</g>
<!-- &#45;3&#45;&gt;5406 -->
<g id="edge23" class="edge">
<title>&#45;3&#45;&gt;5406</title>
<path fill="none" stroke="green" stroke-width="0.3" d="M360.15,-144.41C365.63,-145 372.43,-145.74 379.32,-146.49"/>
<polygon fill="green" stroke="green" stroke-width="0.3" points="379.01,-149.98 389.33,-147.58 379.76,-143.02 379.01,-149.98"/>
<text text-anchor="middle" x="375.36" y="-146.95" font-family="Times,serif" font-size="5.00">1.000</text>
</g>
<!-- &#45;4 -->
<g id="node4" class="node">
<title>&#45;4</title>
<polygon fill="lightgray" stroke="black" points="276.38,-286.16 252.38,-286.16 252.38,-267.56 276.38,-267.56 276.38,-286.16"/>
<text text-anchor="middle" x="264.38" y="-274.16" font-family="Times,serif" font-size="9.00">&#45;4</text>
</g>
<!-- &#45;4&#45;&gt;0 -->
<g id="edge36" class="edge">
<title>&#45;4&#45;&gt;0</title>
<path fill="none" stroke="green" stroke-width="0.17" stroke-dasharray="1,5" d="M263.49,-267.25C262.24,-253.73 259.91,-228.56 258.08,-208.76"/>
<polygon fill="green" stroke="green" stroke-width="0.17" points="261.56,-208.34 257.15,-198.7 254.59,-208.98 261.56,-208.34"/>
<text text-anchor="middle" x="255.16" y="-239.5" font-family="Times,serif" font-size="5.00">0.333</text>
</g>
<!-- 5401 -->
<g id="node15" class="node">
<title>5401</title>
<ellipse fill="white" stroke="black" cx="238.87" cy="-351.07" rx="24.08" ry="24.08"/>
<text text-anchor="middle" x="238.87" y="-348.37" font-family="Times,serif" font-size="9.00">5401</text>
</g>
<!-- &#45;4&#45;&gt;5401 -->
<g id="edge7" class="edge">
<title>&#45;4&#45;&gt;5401</title>
<path fill="none" stroke="green" stroke-width="0.3" d="M261.15,-286.26C258.34,-294.43 254.11,-306.75 250.08,-318.47"/>
<polygon fill="green" stroke="green" stroke-width="0.3" points="246.72,-317.47 246.78,-328.06 253.34,-319.75 246.72,-317.47"/>
<text text-anchor="middle" x="249.99" y="-303.87" font-family="Times,serif" font-size="5.00">1.000</text>
</g>
<!-- 5402 -->
<g id="node16" class="node">
<title>5402</title>
<ellipse fill="white" stroke="black" cx="292.1" cy="-348.86" rx="24.08" ry="24.08"/>
<text text-anchor="middle" x="292.1" y="-346.16" font-family="Times,serif" font-size="9.00">5402</text>
</g>
<!-- &#45;4&#45;&gt;5402 -->
<g id="edge8" class="edge">
<title>&#45;4&#45;&gt;5402</title>
<path fill="none" stroke="green" stroke-width="0.3" d="M268,-286.28C271.02,-294.12 275.51,-305.76 279.79,-316.89"/>
<polygon fill="green" stroke="green" stroke-width="0.3" points="276.6,-318.34 283.46,-326.42 283.13,-315.83 276.6,-318.34"/>
<text text-anchor="middle" x="268.27" y="-303.08" font-family="Times,serif" font-size="5.00">1.000</text>
</g>
<!-- 5403 -->
<g id="node17" class="node">
<title>5403</title>
<ellipse fill="white" stroke="black" cx="325.11" cy="-341.74" rx="24.08" ry="24.08"/>
<text text-anchor="middle" x="325.11" y="-339.04" font-family="Times,serif" font-size="9.00">5403</text>
</g>
<!-- &#45;4&#45;&gt;5403 -->
<g id="edge9" class="edge">
<title>&#45;4&#45;&gt;5403</title>
<path fill="none" stroke="green" stroke-width="0.3" d="M273.34,-286.44C280.77,-294.38 291.69,-306.04 301.58,-316.61"/>
<polygon fill="green" stroke="green" stroke-width="0.3" points="299.15,-319.14 308.54,-324.05 304.26,-314.35 299.15,-319.14"/>
<text text-anchor="middle" x="281.84" y="-303.02" font-family="Times,serif" font-size="5.00">1.000</text>
</g>
<!-- 5408 -->
<g id="node27" class="node">
<title>5408</title>
<ellipse fill="white" stroke="black" cx="186.55" cy="-326.22" rx="24.08" ry="24.08"/>
<text text-anchor="middle" x="186.55" y="-323.52" font-family="Times,serif" font-size="9.00">5408</text>
</g>
<!-- &#45;4&#45;&gt;5408 -->
<g id="edge27" class="edge">
<title>&#45;4&#45;&gt;5408</title>
<path fill="none" stroke="green" stroke-width="0.3" d="M252.56,-284.36C242.75,-290.58 228.37,-299.7 215.54,-307.84"/>
<polygon fill="green" stroke="green" stroke-width="0.3" points="213.54,-304.96 206.97,-313.27 217.29,-310.87 213.54,-304.96"/>
<text text-anchor="middle" x="228.42" y="-297.6" font-family="Times,serif" font-size="5.00">1.000</text>
</g>
<!-- 277 -->
<g id="node6" class="node">
<title>277</title>
<ellipse fill="white" stroke="black" cx="208.8" cy="-208.76" rx="20.72" ry="20.72"/>
<text text-anchor="middle" x="208.8" y="-206.06" font-family="Times,serif" font-size="9.00">277</text>
</g>
<!-- 277&#45;&gt;0 -->
<g id="edge31" class="edge">
<title>277&#45;&gt;0</title>
<path fill="none" stroke="red" stroke-width="1.04" d="M226.7,-197.82C228.02,-197.01 229.36,-196.19 230.71,-195.37"/>
<polygon fill="red" stroke="red" stroke-width="1.04" points="232.79,-198.2 239.5,-190 229.14,-192.23 232.79,-198.2"/>
<text text-anchor="middle" x="235.16" y="-198.1" font-family="Times,serif" font-size="5.00">&#45;4.690</text>
</g>
<!-- 5389 -->
<g id="node7" class="node">
<title>5389</title>
<ellipse fill="white" stroke="black" cx="236.79" cy="-122.58" rx="24.08" ry="24.08"/>
<text text-anchor="middle" x="236.79" y="-119.88" font-family="Times,serif" font-size="9.00">5389</text>
</g>
<!-- 5389&#45;&gt;0 -->
<g id="edge32" class="edge">
<title>5389&#45;&gt;0</title>
<path fill="none" stroke="red" stroke-width="0.1" d="M244.27,-145.7C245.04,-148.08 245.82,-150.52 246.61,-152.93"/>
<polygon fill="red" stroke="red" stroke-width="0.1" points="243.33,-154.19 249.74,-162.62 249.99,-152.03 243.33,-154.19"/>
<text text-anchor="middle" x="239.81" y="-150.82" font-family="Times,serif" font-size="5.00">0.000</text>
</g>
<!-- 5390 -->
<g id="node8" class="node">
<title>5390</title>
<ellipse fill="white" stroke="black" cx="268.68" cy="-93.36" rx="24.08" ry="24.08"/>
<text text-anchor="middle" x="268.68" y="-90.66" font-family="Times,serif" font-size="9.00">5390</text>
</g>
<!-- 5390&#45;&gt;0 -->
<g id="edge33" class="edge">
<title>5390&#45;&gt;0</title>
<path fill="none" stroke="green" stroke-width="1.04" d="M264.99,-117.57C263.37,-128.22 261.45,-140.81 259.76,-151.9"/>
<polygon fill="green" stroke="green" stroke-width="1.04" points="256.28,-151.55 258.23,-161.96 263.2,-152.6 256.28,-151.55"/>
<text text-anchor="middle" x="268" y="-136.23" font-family="Times,serif" font-size="5.00">4.690</text>
</g>
<!-- 5388 -->
<g id="node18" class="node">
<title>5388</title>
<ellipse fill="white" stroke="black" cx="68" cy="-25.96" rx="24.08" ry="24.08"/>
<text text-anchor="middle" x="68" y="-23.26" font-family="Times,serif" font-size="9.00">5388</text>
</g>
<!-- 5395&#45;&gt;5388 -->
<g id="edge10" class="edge">
<title>5395&#45;&gt;5388</title>
<path fill="none" stroke="red" stroke-width="0.3" d="M90.38,-70.13C88.22,-65.86 85.91,-61.31 83.63,-56.8"/>
<polygon fill="red" stroke="red" stroke-width="0.3" points="86.68,-55.08 79.03,-47.74 80.43,-58.24 86.68,-55.08"/>
<text text-anchor="middle" x="80.55" y="-58.97" font-family="Times,serif" font-size="5.00">&#45;1.000</text>
</g>
<!-- 5396&#45;&gt;5388 -->
<g id="edge11" class="edge">
<title>5396&#45;&gt;5388</title>
<path fill="none" stroke="red" stroke-width="0.1" d="M135.64,-24.55C125.5,-24.76 113.51,-25.01 102.47,-25.24"/>
<polygon fill="red" stroke="red" stroke-width="0.1" points="102.19,-21.75 92.26,-25.46 102.33,-28.74 102.19,-21.75"/>
<text text-anchor="middle" x="113.43" y="-20.39" font-family="Times,serif" font-size="5.00">0.000</text>
</g>
<!-- 5397&#45;&gt;5388 -->
<g id="edge12" class="edge">
<title>5397&#45;&gt;5388</title>
<path fill="none" stroke="green" stroke-width="0.3" d="M111.83,-39.87C108.3,-38.75 104.6,-37.57 100.9,-36.4"/>
<polygon fill="green" stroke="green" stroke-width="0.3" points="101.86,-33.03 91.27,-33.34 99.74,-39.7 101.86,-33.03"/>
<text text-anchor="middle" x="100.74" y="-39.63" font-family="Times,serif" font-size="5.00">1.000</text>
</g>
<!-- 5393 -->
<g id="node19" class="node">
<title>5393</title>
<ellipse fill="white" stroke="black" cx="478.63" cy="-120.02" rx="24.08" ry="24.08"/>
<text text-anchor="middle" x="478.63" y="-117.32" font-family="Times,serif" font-size="9.00">5393</text>
</g>
<!-- 5398&#45;&gt;5393 -->
<g id="edge13" class="edge">
<title>5398&#45;&gt;5393</title>
<path fill="none" stroke="red" stroke-width="0.3" d="M430.52,-102.78C435.58,-104.59 441.04,-106.55 446.4,-108.47"/>
<polygon fill="red" stroke="red" stroke-width="0.3" points="445.24,-111.77 455.83,-111.85 447.6,-105.18 445.24,-111.77"/>
<text text-anchor="middle" x="444.92" y="-107.12" font-family="Times,serif" font-size="5.00">&#45;1.000</text>
</g>
<!-- 5399&#45;&gt;5393 -->
<g id="edge14" class="edge">
<title>5399&#45;&gt;5393</title>
<path fill="none" stroke="red" stroke-width="0.1" d="M410.87,-76.3C422.45,-83.77 437.12,-93.24 449.84,-101.45"/>
<polygon fill="red" stroke="red" stroke-width="0.1" points="447.98,-104.41 458.28,-106.89 451.78,-98.53 447.98,-104.41"/>
<text text-anchor="middle" x="435.98" y="-90.37" font-family="Times,serif" font-size="5.00">0.000</text>
</g>
<!-- 5400&#45;&gt;5393 -->
<g id="edge15" class="edge">
<title>5400&#45;&gt;5393</title>
<path fill="none" stroke="green" stroke-width="0.3" d="M445.37,-169.9C449.77,-163.29 454.75,-155.83 459.48,-148.74"/>
<polygon fill="green" stroke="green" stroke-width="0.3" points="462.65,-150.29 465.29,-140.03 456.83,-146.41 462.65,-150.29"/>
<text text-anchor="middle" x="446.8" y="-160.82" font-family="Times,serif" font-size="5.00">1.000</text>
</g>
<!-- 5394 -->
<g id="node20" class="node">
<title>5394</title>
<ellipse fill="white" stroke="black" cx="273.82" cy="-416.91" rx="24.08" ry="24.08"/>
<text text-anchor="middle" x="273.82" y="-414.21" font-family="Times,serif" font-size="9.00">5394</text>
</g>
<!-- 5401&#45;&gt;5394 -->
<g id="edge16" class="edge">
<title>5401&#45;&gt;5394</title>
<path fill="none" stroke="red" stroke-width="0.3" d="M250.31,-372.63C252.69,-377.11 255.24,-381.91 257.75,-386.63"/>
<polygon fill="red" stroke="red" stroke-width="0.3" points="254.69,-388.34 262.47,-395.53 260.87,-385.06 254.69,-388.34"/>
<text text-anchor="middle" x="247.57" y="-381.13" font-family="Times,serif" font-size="5.00">&#45;1.000</text>
</g>
<!-- 5402&#45;&gt;5394 -->
<g id="edge17" class="edge">
<title>5402&#45;&gt;5394</title>
<path fill="none" stroke="red" stroke-width="0.1" d="M285.81,-372.28C284.79,-376.06 283.72,-380.04 282.66,-384"/>
<polygon fill="red" stroke="red" stroke-width="0.1" points="279.27,-383.11 280.06,-393.68 286.03,-384.93 279.27,-383.11"/>
<text text-anchor="middle" x="278.61" y="-379.64" font-family="Times,serif" font-size="5.00">0.000</text>
</g>
<!-- 5403&#45;&gt;5394 -->
<g id="edge18" class="edge">
<title>5403&#45;&gt;5394</title>
<path fill="none" stroke="green" stroke-width="0.3" d="M311.36,-361.89C305.8,-370.04 299.27,-379.6 293.24,-388.45"/>
<polygon fill="green" stroke="green" stroke-width="0.3" points="290.17,-386.74 287.42,-396.97 295.95,-390.69 290.17,-386.74"/>
<text text-anchor="middle" x="296.68" y="-376.67" font-family="Times,serif" font-size="5.00">1.000</text>
</g>
<!-- 727 -->
<g id="node23" class="node">
<title>727</title>
<ellipse fill="white" stroke="black" cx="24.86" cy="-97.18" rx="20.74" ry="20.74"/>
<ellipse fill="none" stroke="black" cx="24.86" cy="-97.18" rx="24.72" ry="24.72"/>
<text text-anchor="middle" x="24.86" y="-94.48" font-family="Times,serif" font-size="9.00">727</text>
</g>
<!-- 5388&#45;&gt;727 -->
<g id="edge21" class="edge">
<title>5388&#45;&gt;727</title>
<path fill="none" stroke="green" stroke-width="0.46" d="M55.52,-46.56C51.6,-53.03 47.19,-60.31 42.97,-67.29"/>
<polygon fill="green" stroke="green" stroke-width="0.46" points="39.95,-65.52 37.76,-75.89 45.93,-69.15 39.95,-65.52"/>
<text text-anchor="middle" x="43.62" y="-58.43" font-family="Times,serif" font-size="5.00">1.806</text>
</g>
<!-- 5391 -->
<g id="node26" class="node">
<title>5391</title>
<ellipse fill="white" stroke="black" cx="483.43" cy="-74.39" rx="24.08" ry="24.08"/>
<ellipse fill="none" stroke="black" cx="483.43" cy="-74.39" rx="28.08" ry="28.08"/>
<text text-anchor="middle" x="483.43" y="-71.69" font-family="Times,serif" font-size="9.00">5391</text>
</g>
<!-- 5393&#45;&gt;5391 -->
<g id="edge25" class="edge">
<title>5393&#45;&gt;5391</title>
<path fill="none" stroke="green" stroke-width="0.46" d="M481.17,-95.87C481.17,-95.82 481.18,-95.78 481.18,-95.74"/>
<polygon fill="green" stroke="green" stroke-width="0.46" points="483.63,-105.92 481.2,-95.61 476.66,-105.19 483.63,-105.92"/>
<text text-anchor="middle" x="486.8" y="-91.3" font-family="Times,serif" font-size="5.00">1.806</text>
</g>
<!-- 5392 -->
<g id="node29" class="node">
<title>5392</title>
<ellipse fill="white" stroke="black" cx="192.45" cy="-413.43" rx="24.08" ry="24.08"/>
<ellipse fill="none" stroke="black" cx="192.45" cy="-413.43" rx="28.08" ry="28.08"/>
<text text-anchor="middle" x="192.45" y="-410.73" font-family="Times,serif" font-size="9.00">5392</text>
</g>
<!-- 5394&#45;&gt;5392 -->
<g id="edge29" class="edge">
<title>5394&#45;&gt;5392</title>
<path fill="none" stroke="green" stroke-width="0.46" d="M249.41,-415.87C243.59,-415.62 237.24,-415.35 230.96,-415.08"/>
<polygon fill="green" stroke="green" stroke-width="0.46" points="230.7,-411.57 220.56,-414.64 230.4,-418.56 230.7,-411.57"/>
<text text-anchor="middle" x="234.56" y="-416.97" font-family="Times,serif" font-size="5.00">1.806</text>
</g>
<!-- 5405 -->
<g id="node22" class="node">
<title>5405</title>
<ellipse fill="white" stroke="black" cx="167.36" cy="-182.55" rx="24.08" ry="24.08"/>
<text text-anchor="middle" x="167.36" y="-179.85" font-family="Times,serif" font-size="9.00">5405</text>
</g>
<!-- 5404&#45;&gt;5405 -->
<g id="edge20" class="edge">
<title>5404&#45;&gt;5405</title>
<path fill="none" stroke="green" stroke-width="0.3" d="M114.47,-161.99C121.05,-164.55 128.35,-167.39 135.39,-170.12"/>
<polygon fill="green" stroke="green" stroke-width="0.3" points="134.12,-173.38 144.71,-173.75 136.66,-166.86 134.12,-173.38"/>
<text text-anchor="middle" x="130.55" y="-167.56" font-family="Times,serif" font-size="5.00">1.000</text>
</g>
<!-- 5404&#45;&gt;727 -->
<g id="edge22" class="edge">
<title>5404&#45;&gt;727</title>
<path fill="none" stroke="green" stroke-width="0.3" stroke-dasharray="1,5" d="M73.16,-137.58C66.7,-132.18 59.33,-126.02 52.32,-120.15"/>
<polygon fill="green" stroke="green" stroke-width="0.3" points="54.26,-117.21 44.34,-113.48 49.77,-122.58 54.26,-117.21"/>
<text text-anchor="middle" x="57.12" y="-130.37" font-family="Times,serif" font-size="5.00">1.000</text>
</g>
<!-- 5405&#45;&gt;0 -->
<g id="edge38" class="edge">
<title>5405&#45;&gt;0</title>
<path fill="none" stroke="green" stroke-width="0.17" stroke-dasharray="1,5" d="M191.43,-181.92C202.24,-181.64 215.08,-181.3 226.42,-181.01"/>
<polygon fill="green" stroke="green" stroke-width="0.17" points="226.81,-184.5 236.71,-180.74 226.62,-177.5 226.81,-184.5"/>
<text text-anchor="middle" x="203.3" y="-182.96" font-family="Times,serif" font-size="5.00">0.333</text>
</g>
<!-- 5407 -->
<g id="node25" class="node">
<title>5407</title>
<ellipse fill="white" stroke="black" cx="332.07" cy="-194.33" rx="24.08" ry="24.08"/>
<text text-anchor="middle" x="332.07" y="-191.63" font-family="Times,serif" font-size="9.00">5407</text>
</g>
<!-- 5406&#45;&gt;5407 -->
<g id="edge24" class="edge">
<title>5406&#45;&gt;5407</title>
<path fill="none" stroke="green" stroke-width="0.3" d="M391.99,-161.79C382.85,-166.76 372,-172.65 362.07,-178.04"/>
<polygon fill="green" stroke="green" stroke-width="0.3" points="360.4,-174.97 353.28,-182.81 363.74,-181.12 360.4,-174.97"/>
<text text-anchor="middle" x="371.41" y="-171.42" font-family="Times,serif" font-size="5.00">1.000</text>
</g>
<!-- 5406&#45;&gt;5391 -->
<g id="edge26" class="edge">
<title>5406&#45;&gt;5391</title>
<path fill="none" stroke="green" stroke-width="0.3" stroke-dasharray="1,5" d="M429.95,-132.23C438.15,-123.37 448.22,-112.47 457.4,-102.54"/>
<polygon fill="green" stroke="green" stroke-width="0.3" points="459.99,-104.9 464.21,-95.18 454.85,-100.14 459.99,-104.9"/>
<text text-anchor="middle" x="438.05" y="-118.89" font-family="Times,serif" font-size="5.00">1.000</text>
</g>
<!-- 5407&#45;&gt;0 -->
<g id="edge39" class="edge">
<title>5407&#45;&gt;0</title>
<path fill="none" stroke="green" stroke-width="0.17" stroke-dasharray="1,5" d="M308.25,-189.95C300.55,-188.54 291.94,-186.95 283.94,-185.48"/>
<polygon fill="green" stroke="green" stroke-width="0.17" points="284.37,-182 273.9,-183.64 283.1,-188.89 284.37,-182"/>
<text text-anchor="middle" x="290.47" y="-189.22" font-family="Times,serif" font-size="5.00">0.333</text>
</g>
<!-- 5409 -->
<g id="node28" class="node">
<title>5409</title>
<ellipse fill="white" stroke="black" cx="214.1" cy="-250.65" rx="24.08" ry="24.08"/>
<text text-anchor="middle" x="214.1" y="-247.95" font-family="Times,serif" font-size="9.00">5409</text>
</g>
<!-- 5408&#45;&gt;5409 -->
<g id="edge28" class="edge">
<title>5408&#45;&gt;5409</title>
<path fill="none" stroke="green" stroke-width="0.3" d="M194.81,-303.55C197.16,-297.12 199.75,-290 202.26,-283.11"/>
<polygon fill="green" stroke="green" stroke-width="0.3" points="205.7,-283.9 205.84,-273.31 199.12,-281.5 205.7,-283.9"/>
<text text-anchor="middle" x="192.91" y="-294.83" font-family="Times,serif" font-size="5.00">1.000</text>
</g>
<!-- 5408&#45;&gt;5392 -->
<g id="edge30" class="edge">
<title>5408&#45;&gt;5392</title>
<path fill="none" stroke="green" stroke-width="0.3" stroke-dasharray="1,5" d="M188.19,-350.52C188.71,-358.18 189.3,-366.85 189.87,-375.25"/>
<polygon fill="green" stroke="green" stroke-width="0.3" points="186.38,-375.52 190.55,-385.26 193.36,-375.05 186.38,-375.52"/>
<text text-anchor="middle" x="183.4" y="-364.38" font-family="Times,serif" font-size="5.00">1.000</text>
</g>
<!-- 5409&#45;&gt;0 -->
<g id="edge40" class="edge">
<title>5409&#45;&gt;0</title>
<path fill="none" stroke="green" stroke-width="0.17" stroke-dasharray="1,5" d="M226.28,-229.9C230.85,-222.12 236.09,-213.21 240.85,-205.09"/>
<polygon fill="green" stroke="green" stroke-width="0.17" points="243.92,-206.77 245.97,-196.38 237.89,-203.23 243.92,-206.77"/>
<text text-anchor="middle" x="239.19" y="-219" font-family="Times,serif" font-size="5.00">0.333</text>
</g>
</g>
</svg>
