<?xml version="1.0" encoding="UTF-8" standalone="no"?>
<!DOCTYPE svg PUBLIC "-//W3C//DTD SVG 1.1//EN"
 "http://www.w3.org/Graphics/SVG/1.1/DTD/svg11.dtd">
<!-- Generated by graphviz version 2.47.1 (20210417.1919)
 -->
<!-- Pages: 1 -->
<svg width="311pt" height="344pt"
 viewBox="0.00 0.00 310.88 344.08" xmlns="http://www.w3.org/2000/svg" xmlns:xlink="http://www.w3.org/1999/xlink">
<g id="graph0" class="graph" transform="scale(1 1) rotate(0) translate(4 340.08)">
<polygon fill="white" stroke="transparent" points="-4,4 -4,-340.08 306.88,-340.08 306.88,4 -4,4"/>
<!-- &#45;1 -->
<g id="node1" class="node">
<title>&#45;1</title>
<polygon fill="lightgray" stroke="black" points="33.85,-161.43 9.84,-161.43 9.84,-142.82 33.85,-142.82 33.85,-161.43"/>
<text text-anchor="middle" x="21.84" y="-149.43" font-family="Times,serif" font-size="9.00">&#45;1</text>
</g>
<!-- 0 -->
<g id="node5" class="node">
<title>0</title>
<ellipse fill="lightblue" stroke="black" cx="106.21" cy="-161.71" rx="14.49" ry="14.49"/>
<text text-anchor="middle" x="106.21" y="-159.01" font-family="Times,serif" font-size="9.00">0</text>
</g>
<!-- &#45;1&#45;&gt;0 -->
<g id="edge4" class="edge">
<title>&#45;1&#45;&gt;0</title>
<path fill="none" stroke="green" stroke-width="1.2" d="M33.93,-153.5C46.3,-154.9 65.86,-157.13 81.51,-158.91"/>
<polygon fill="green" stroke="green" stroke-width="1.2" points="81.26,-162.4 91.59,-160.05 82.05,-155.44 81.26,-162.4"/>
<text text-anchor="middle" x="52.1" y="-157.7" font-family="Times,serif" font-size="5.00">5.478</text>
</g>
<!-- &#45;2 -->
<g id="node2" class="node">
<title>&#45;2</title>
<polygon fill="lightgray" stroke="black" points="163.55,-197.58 139.55,-197.58 139.55,-178.98 163.55,-178.98 163.55,-197.58"/>
<text text-anchor="middle" x="151.55" y="-185.58" font-family="Times,serif" font-size="9.00">&#45;2</text>
</g>
<!-- 1480 -->
<g id="node9" class="node">
<title>1480</title>
<ellipse fill="white" stroke="black" cx="73.41" cy="-229.39" rx="24.08" ry="24.08"/>
<text text-anchor="middle" x="73.41" y="-226.69" font-family="Times,serif" font-size="9.00">1480</text>
</g>
<!-- &#45;2&#45;&gt;1480 -->
<g id="edge1" class="edge">
<title>&#45;2&#45;&gt;1480</title>
<path fill="none" stroke="red" stroke-width="0.33" d="M139.69,-194.52C130.13,-199.55 116.28,-206.84 103.7,-213.45"/>
<polygon fill="red" stroke="red" stroke-width="0.33" points="102.07,-210.36 94.85,-218.11 105.33,-216.55 102.07,-210.36"/>
<text text-anchor="middle" x="115.24" y="-205.49" font-family="Times,serif" font-size="5.00">&#45;1.138</text>
</g>
<!-- 5944 -->
<g id="node10" class="node">
<title>5944</title>
<ellipse fill="white" stroke="black" cx="149.76" cy="-100.78" rx="24.08" ry="24.08"/>
<text text-anchor="middle" x="149.76" y="-98.08" font-family="Times,serif" font-size="9.00">5944</text>
</g>
<!-- &#45;2&#45;&gt;5944 -->
<g id="edge2" class="edge">
<title>&#45;2&#45;&gt;5944</title>
<path fill="none" stroke="red" stroke-width="0.33" d="M151.36,-178.91C151.15,-168.43 150.78,-150.82 150.46,-134.97"/>
<polygon fill="red" stroke="red" stroke-width="0.33" points="153.96,-134.83 150.25,-124.9 146.96,-134.97 153.96,-134.83"/>
<text text-anchor="middle" x="144.45" y="-158.44" font-family="Times,serif" font-size="5.00">&#45;1.138</text>
</g>
<!-- 5945 -->
<g id="node11" class="node">
<title>5945</title>
<ellipse fill="white" stroke="black" cx="203.23" cy="-171.2" rx="24.08" ry="24.08"/>
<text text-anchor="middle" x="203.23" y="-168.5" font-family="Times,serif" font-size="9.00">5945</text>
</g>
<!-- &#45;2&#45;&gt;5945 -->
<g id="edge3" class="edge">
<title>&#45;2&#45;&gt;5945</title>
<path fill="none" stroke="red" stroke-width="0.33" d="M163.54,-184.32C165.73,-183.59 168.11,-182.81 170.58,-181.99"/>
<polygon fill="red" stroke="red" stroke-width="0.33" points="171.94,-185.23 180.34,-178.76 169.74,-178.58 171.94,-185.23"/>
<text text-anchor="middle" x="173.52" y="-184.65" font-family="Times,serif" font-size="5.00">&#45;1.138</text>
</g>
<!-- &#45;3 -->
<g id="node3" class="node">
<title>&#45;3</title>
<polygon fill="lightgray" stroke="black" points="70.9,-100.67 46.9,-100.67 46.9,-82.07 70.9,-82.07 70.9,-100.67"/>
<text text-anchor="middle" x="58.9" y="-88.67" font-family="Times,serif" font-size="9.00">&#45;3</text>
</g>
<!-- &#45;3&#45;&gt;0 -->
<g id="edge5" class="edge">
<title>&#45;3&#45;&gt;0</title>
<path fill="none" stroke="red" stroke-width="0.1" d="M65.28,-100.86C72.16,-111.09 83.34,-127.72 92.28,-141"/>
<polygon fill="red" stroke="red" stroke-width="0.1" points="89.54,-143.21 98.03,-149.55 95.35,-139.3 89.54,-143.21"/>
<text text-anchor="middle" x="73.15" y="-122.43" font-family="Times,serif" font-size="5.00">0.000</text>
</g>
<!-- &#45;4 -->
<g id="node4" class="node">
<title>&#45;4</title>
<polygon fill="lightgray" stroke="black" points="149.01,-257.83 125.01,-257.83 125.01,-239.23 149.01,-239.23 149.01,-257.83"/>
<text text-anchor="middle" x="137.01" y="-245.83" font-family="Times,serif" font-size="9.00">&#45;4</text>
</g>
<!-- &#45;4&#45;&gt;0 -->
<g id="edge6" class="edge">
<title>&#45;4&#45;&gt;0</title>
<path fill="none" stroke="red" stroke-width="1.2" d="M133.59,-238.91C129.04,-226.06 120.82,-202.89 114.57,-185.28"/>
<polygon fill="red" stroke="red" stroke-width="1.2" points="117.8,-183.92 111.16,-175.67 111.2,-186.26 117.8,-183.92"/>
<text text-anchor="middle" x="117.62" y="-213.59" font-family="Times,serif" font-size="5.00">&#45;5.478</text>
</g>
<!-- 4811 -->
<g id="node6" class="node">
<title>4811</title>
<ellipse fill="white" stroke="black" cx="276.04" cy="-276.04" rx="24.08" ry="24.08"/>
<text text-anchor="middle" x="276.04" y="-273.34" font-family="Times,serif" font-size="9.00">4811</text>
</g>
<!-- 5946 -->
<g id="node7" class="node">
<title>5946</title>
<ellipse fill="white" stroke="black" cx="258.04" cy="-78.04" rx="24.08" ry="24.08"/>
<text text-anchor="middle" x="258.04" y="-75.34" font-family="Times,serif" font-size="9.00">5946</text>
</g>
<!-- 5947 -->
<g id="node8" class="node">
<title>5947</title>
<ellipse fill="white" stroke="black" cx="186.04" cy="-312.04" rx="24.08" ry="24.08"/>
<text text-anchor="middle" x="186.04" y="-309.34" font-family="Times,serif" font-size="9.00">5947</text>
</g>
<!-- 1480&#45;&gt;0 -->
<g id="edge7" class="edge">
<title>1480&#45;&gt;0</title>
<path fill="none" stroke="red" stroke-width="0.9" d="M83.97,-207.6C87.66,-200 91.79,-191.45 95.49,-183.82"/>
<polygon fill="red" stroke="red" stroke-width="0.9" points="98.66,-185.3 99.88,-174.78 92.37,-182.25 98.66,-185.3"/>
<text text-anchor="middle" x="83.27" y="-197.21" font-family="Times,serif" font-size="5.00">&#45;4.015</text>
</g>
<!-- 5943 -->
<g id="node12" class="node">
<title>5943</title>
<ellipse fill="white" stroke="black" cx="24.04" cy="-291.9" rx="24.08" ry="24.08"/>
<text text-anchor="middle" x="24.04" y="-289.2" font-family="Times,serif" font-size="9.00">5943</text>
</g>
<!-- 1480&#45;&gt;5943 -->
<g id="edge10" class="edge">
<title>1480&#45;&gt;5943</title>
<path fill="none" stroke="green" stroke-width="0.78" d="M58.33,-248.48C54.22,-253.7 49.68,-259.44 45.29,-265"/>
<polygon fill="green" stroke="green" stroke-width="0.78" points="42.48,-262.91 39.03,-272.92 47.97,-267.25 42.48,-262.91"/>
<text text-anchor="middle" x="46.19" y="-258.24" font-family="Times,serif" font-size="5.00">3.379</text>
</g>
<!-- 5944&#45;&gt;0 -->
<g id="edge8" class="edge">
<title>5944&#45;&gt;0</title>
<path fill="none" stroke="red" stroke-width="0.9" d="M135.74,-120.4C131.02,-127 125.74,-134.38 120.97,-141.06"/>
<polygon fill="red" stroke="red" stroke-width="0.9" points="117.84,-139.42 114.87,-149.59 123.53,-143.49 117.84,-139.42"/>
<text text-anchor="middle" x="121.9" y="-132.23" font-family="Times,serif" font-size="5.00">&#45;4.015</text>
</g>
<!-- 5948 -->
<g id="node13" class="node">
<title>5948</title>
<ellipse fill="white" stroke="black" cx="171.52" cy="-24.04" rx="24.08" ry="24.08"/>
<text text-anchor="middle" x="171.52" y="-21.34" font-family="Times,serif" font-size="9.00">5948</text>
</g>
<!-- 5944&#45;&gt;5948 -->
<g id="edge11" class="edge">
<title>5944&#45;&gt;5948</title>
<path fill="none" stroke="green" stroke-width="0.78" d="M156.41,-77.34C158.22,-70.94 160.22,-63.89 162.15,-57.07"/>
<polygon fill="green" stroke="green" stroke-width="0.78" points="165.55,-57.91 164.91,-47.34 158.82,-56 165.55,-57.91"/>
<text text-anchor="middle" x="153.65" y="-68.7" font-family="Times,serif" font-size="5.00">3.379</text>
</g>
<!-- 5945&#45;&gt;0 -->
<g id="edge9" class="edge">
<title>5945&#45;&gt;0</title>
<path fill="none" stroke="red" stroke-width="0.9" d="M179.25,-168.85C164.53,-167.41 145.72,-165.57 130.87,-164.12"/>
<polygon fill="red" stroke="red" stroke-width="0.9" points="131.17,-160.64 120.88,-163.15 130.49,-167.6 131.17,-160.64"/>
<text text-anchor="middle" x="148.6" y="-167.99" font-family="Times,serif" font-size="5.00">&#45;4.015</text>
</g>
<!-- 5949 -->
<g id="node14" class="node">
<title>5949</title>
<ellipse fill="white" stroke="black" cx="278.84" cy="-190.2" rx="24.08" ry="24.08"/>
<text text-anchor="middle" x="278.84" y="-187.5" font-family="Times,serif" font-size="9.00">5949</text>
</g>
<!-- 5945&#45;&gt;5949 -->
<g id="edge12" class="edge">
<title>5945&#45;&gt;5949</title>
<path fill="none" stroke="green" stroke-width="0.78" d="M226.74,-177.11C232.71,-178.61 239.25,-180.25 245.61,-181.85"/>
<polygon fill="green" stroke="green" stroke-width="0.78" points="244.8,-185.25 255.35,-184.3 246.5,-178.46 244.8,-185.25"/>
<text text-anchor="middle" x="241.8" y="-180.98" font-family="Times,serif" font-size="5.00">3.379</text>
</g>
</g>
</svg>
