<?xml version="1.0" encoding="UTF-8" standalone="no"?>
<!DOCTYPE svg PUBLIC "-//W3C//DTD SVG 1.1//EN"
 "http://www.w3.org/Graphics/SVG/1.1/DTD/svg11.dtd">
<!-- Generated by graphviz version 2.47.1 (20210417.1919)
 -->
<!-- Pages: 1 -->
<svg width="298pt" height="302pt"
 viewBox="0.00 0.00 297.57 302.14" xmlns="http://www.w3.org/2000/svg" xmlns:xlink="http://www.w3.org/1999/xlink">
<g id="graph0" class="graph" transform="scale(1 1) rotate(0) translate(4 298.14)">
<polygon fill="white" stroke="transparent" points="-4,4 -4,-298.14 293.57,-298.14 293.57,4 -4,4"/>
<!-- &#45;1 -->
<g id="node1" class="node">
<title>&#45;1</title>
<polygon fill="lightgray" stroke="black" points="92.99,-118.18 68.99,-118.18 68.99,-99.58 92.99,-99.58 92.99,-118.18"/>
<text text-anchor="middle" x="80.99" y="-106.18" font-family="Times,serif" font-size="9.00">&#45;1</text>
</g>
<!-- 0 -->
<g id="node5" class="node">
<title>0</title>
<ellipse fill="lightblue" stroke="black" cx="134.76" cy="-144.11" rx="14.49" ry="14.49"/>
<ellipse fill="none" stroke="black" cx="134.76" cy="-144.11" rx="18.49" ry="18.49"/>
<text text-anchor="middle" x="134.76" y="-141.41" font-family="Times,serif" font-size="9.00">0</text>
</g>
<!-- &#45;1&#45;&gt;0 -->
<g id="edge37" class="edge">
<title>&#45;1&#45;&gt;0</title>
<path fill="none" stroke="red" stroke-width="0.79" d="M92.92,-116.7C98.08,-120.08 104.31,-124.16 110.37,-128.13"/>
<polygon fill="red" stroke="red" stroke-width="0.79" points="108.7,-131.22 118.98,-133.78 112.54,-125.37 108.7,-131.22"/>
<text text-anchor="middle" x="108.1" y="-123.92" font-family="Times,serif" font-size="5.00">&#45;3.458</text>
</g>
<!-- 6834 -->
<g id="node6" class="node">
<title>6834</title>
<ellipse fill="white" stroke="black" cx="24.04" cy="-110.65" rx="24.08" ry="24.08"/>
<text text-anchor="middle" x="24.04" y="-107.95" font-family="Times,serif" font-size="9.00">6834</text>
</g>
<!-- &#45;1&#45;&gt;6834 -->
<g id="edge1" class="edge">
<title>&#45;1&#45;&gt;6834</title>
<path fill="none" stroke="green" stroke-width="0.33" d="M69.19,-109.25C66.01,-109.35 62.39,-109.46 58.63,-109.58"/>
<polygon fill="green" stroke="green" stroke-width="0.33" points="58.4,-106.08 48.51,-109.89 58.61,-113.08 58.4,-106.08"/>
<text text-anchor="middle" x="58.29" y="-110.91" font-family="Times,serif" font-size="5.00">1.170</text>
</g>
<!-- 6841 -->
<g id="node7" class="node">
<title>6841</title>
<ellipse fill="white" stroke="black" cx="66.14" cy="-38.08" rx="24.08" ry="24.08"/>
<text text-anchor="middle" x="66.14" y="-35.38" font-family="Times,serif" font-size="9.00">6841</text>
</g>
<!-- &#45;1&#45;&gt;6841 -->
<g id="edge4" class="edge">
<title>&#45;1&#45;&gt;6841</title>
<path fill="none" stroke="green" stroke-width="0.33" d="M78.99,-99.33C77.48,-92.14 75.31,-81.82 73.19,-71.7"/>
<polygon fill="green" stroke="green" stroke-width="0.33" points="76.58,-70.83 71.11,-61.76 69.73,-72.27 76.58,-70.83"/>
<text text-anchor="middle" x="70.46" y="-87.02" font-family="Times,serif" font-size="5.00">1.170</text>
</g>
<!-- 6842 -->
<g id="node8" class="node">
<title>6842</title>
<ellipse fill="white" stroke="black" cx="120.11" cy="-24.04" rx="24.08" ry="24.08"/>
<text text-anchor="middle" x="120.11" y="-21.34" font-family="Times,serif" font-size="9.00">6842</text>
</g>
<!-- &#45;1&#45;&gt;6842 -->
<g id="edge7" class="edge">
<title>&#45;1&#45;&gt;6842</title>
<path fill="none" stroke="green" stroke-width="0.33" d="M85.33,-99.48C90.21,-88.9 98.39,-71.16 105.59,-55.54"/>
<polygon fill="green" stroke="green" stroke-width="0.33" points="108.9,-56.72 109.91,-46.17 102.54,-53.79 108.9,-56.72"/>
<text text-anchor="middle" x="89.83" y="-73.01" font-family="Times,serif" font-size="5.00">1.170</text>
</g>
<!-- 5407 -->
<g id="node9" class="node">
<title>5407</title>
<ellipse fill="white" stroke="black" cx="59.21" cy="-161.64" rx="24.08" ry="24.08"/>
<ellipse fill="none" stroke="black" cx="59.21" cy="-161.64" rx="28.08" ry="28.08"/>
<text text-anchor="middle" x="59.21" y="-158.94" font-family="Times,serif" font-size="9.00">5407</text>
</g>
<!-- &#45;1&#45;&gt;5407 -->
<g id="edge10" class="edge">
<title>&#45;1&#45;&gt;5407</title>
<path fill="none" stroke="green" stroke-width="0.77" d="M77,-118.56C76.08,-120.79 75.04,-123.29 73.95,-125.94"/>
<polygon fill="green" stroke="green" stroke-width="0.77" points="70.67,-124.72 70.08,-135.3 77.14,-127.39 70.67,-124.72"/>
<text text-anchor="middle" x="69.85" y="-123.75" font-family="Times,serif" font-size="5.00">3.348</text>
</g>
<!-- 6837 -->
<g id="node10" class="node">
<title>6837</title>
<ellipse fill="white" stroke="black" cx="150.06" cy="-57.95" rx="24.08" ry="24.08"/>
<ellipse fill="none" stroke="black" cx="150.06" cy="-57.95" rx="28.08" ry="28.08"/>
<text text-anchor="middle" x="150.06" y="-55.25" font-family="Times,serif" font-size="9.00">6837</text>
</g>
<!-- &#45;1&#45;&gt;6837 -->
<g id="edge14" class="edge">
<title>&#45;1&#45;&gt;6837</title>
<path fill="none" stroke="green" stroke-width="0.77" d="M93.02,-100.01C100.24,-94.69 109.79,-87.65 119,-80.86"/>
<polygon fill="green" stroke="green" stroke-width="0.77" points="121.32,-83.49 127.29,-74.74 117.16,-77.86 121.32,-83.49"/>
<text text-anchor="middle" x="111.64" y="-91.93" font-family="Times,serif" font-size="5.00">3.348</text>
</g>
<!-- 6838 -->
<g id="node11" class="node">
<title>6838</title>
<ellipse fill="white" stroke="black" cx="168.44" cy="-83.2" rx="24.08" ry="24.08"/>
<ellipse fill="none" stroke="black" cx="168.44" cy="-83.2" rx="28.08" ry="28.08"/>
<text text-anchor="middle" x="168.44" y="-80.5" font-family="Times,serif" font-size="9.00">6838</text>
</g>
<!-- &#45;1&#45;&gt;6838 -->
<g id="edge18" class="edge">
<title>&#45;1&#45;&gt;6838</title>
<path fill="none" stroke="green" stroke-width="0.77" d="M92.79,-105.42C102.77,-102.49 117.62,-98.12 131.54,-94.04"/>
<polygon fill="green" stroke="green" stroke-width="0.77" points="132.81,-97.31 141.42,-91.14 130.84,-90.6 132.81,-97.31"/>
<text text-anchor="middle" x="117.79" y="-101.23" font-family="Times,serif" font-size="5.00">3.348</text>
</g>
<!-- 787 -->
<g id="node15" class="node">
<title>787</title>
<ellipse fill="white" stroke="black" cx="107.05" cy="-203.91" rx="20.72" ry="20.72"/>
<text text-anchor="middle" x="107.05" y="-201.21" font-family="Times,serif" font-size="9.00">787</text>
</g>
<!-- &#45;1&#45;&gt;787 -->
<g id="edge26" class="edge">
<title>&#45;1&#45;&gt;787</title>
<path fill="none" stroke="green" stroke-width="0.12" d="M83.59,-118.34C87.1,-131.16 93.53,-154.62 98.78,-173.75"/>
<polygon fill="green" stroke="green" stroke-width="0.12" points="95.45,-174.83 101.47,-183.55 102.2,-172.98 95.45,-174.83"/>
<text text-anchor="middle" x="96.81" y="-147.54" font-family="Times,serif" font-size="5.00">0.099</text>
</g>
<!-- &#45;2 -->
<g id="node2" class="node">
<title>&#45;2</title>
<polygon fill="lightgray" stroke="black" points="202.19,-220.06 178.19,-220.06 178.19,-201.45 202.19,-201.45 202.19,-220.06"/>
<text text-anchor="middle" x="190.19" y="-208.05" font-family="Times,serif" font-size="9.00">&#45;2</text>
</g>
<!-- 6325 -->
<g id="node12" class="node">
<title>6325</title>
<ellipse fill="white" stroke="black" cx="139.38" cy="-270.1" rx="24.08" ry="24.08"/>
<text text-anchor="middle" x="139.38" y="-267.4" font-family="Times,serif" font-size="9.00">6325</text>
</g>
<!-- &#45;2&#45;&gt;6325 -->
<g id="edge22" class="edge">
<title>&#45;2&#45;&gt;6325</title>
<path fill="none" stroke="red" stroke-width="0.34" d="M182.03,-220.29C176.59,-226.65 169.14,-235.34 162,-243.68"/>
<polygon fill="red" stroke="red" stroke-width="0.34" points="159.16,-241.62 155.32,-251.49 164.48,-246.17 159.16,-241.62"/>
<text text-anchor="middle" x="165.56" y="-233.49" font-family="Times,serif" font-size="5.00">&#45;1.211</text>
</g>
<!-- 6839 -->
<g id="node13" class="node">
<title>6839</title>
<ellipse fill="white" stroke="black" cx="265.53" cy="-160" rx="24.08" ry="24.08"/>
<text text-anchor="middle" x="265.53" y="-157.3" font-family="Times,serif" font-size="9.00">6839</text>
</g>
<!-- &#45;2&#45;&gt;6839 -->
<g id="edge23" class="edge">
<title>&#45;2&#45;&gt;6839</title>
<path fill="none" stroke="red" stroke-width="0.34" d="M201.96,-202.82C211.29,-196.54 224.71,-187.5 236.83,-179.34"/>
<polygon fill="red" stroke="red" stroke-width="0.34" points="239,-182.09 245.34,-173.6 235.09,-176.29 239,-182.09"/>
<text text-anchor="middle" x="212.94" y="-192.58" font-family="Times,serif" font-size="5.00">&#45;1.211</text>
</g>
<!-- 6840 -->
<g id="node14" class="node">
<title>6840</title>
<ellipse fill="white" stroke="black" cx="242.84" cy="-228.77" rx="24.08" ry="24.08"/>
<text text-anchor="middle" x="242.84" y="-226.07" font-family="Times,serif" font-size="9.00">6840</text>
</g>
<!-- &#45;2&#45;&gt;6840 -->
<g id="edge24" class="edge">
<title>&#45;2&#45;&gt;6840</title>
<path fill="none" stroke="red" stroke-width="0.34" d="M202.14,-214.84C204.58,-215.68 207.27,-216.6 210.06,-217.55"/>
<polygon fill="red" stroke="red" stroke-width="0.34" points="209.14,-220.94 219.73,-220.86 211.4,-214.31 209.14,-220.94"/>
<text text-anchor="middle" x="209.33" y="-211.7" font-family="Times,serif" font-size="5.00">&#45;1.211</text>
</g>
<!-- &#45;2&#45;&gt;787 -->
<g id="edge25" class="edge">
<title>&#45;2&#45;&gt;787</title>
<path fill="none" stroke="red" stroke-width="0.45" d="M178.28,-209.77C167.83,-208.91 152.17,-207.62 138.19,-206.47"/>
<polygon fill="red" stroke="red" stroke-width="0.45" points="138.19,-202.96 127.94,-205.63 137.62,-209.94 138.19,-202.96"/>
<text text-anchor="middle" x="151.78" y="-209.62" font-family="Times,serif" font-size="5.00">&#45;1.774</text>
</g>
<!-- 6835 -->
<g id="node16" class="node">
<title>6835</title>
<ellipse fill="white" stroke="black" cx="201.38" cy="-118.29" rx="24.08" ry="24.08"/>
<text text-anchor="middle" x="201.38" y="-115.59" font-family="Times,serif" font-size="9.00">6835</text>
</g>
<!-- &#45;2&#45;&gt;6835 -->
<g id="edge29" class="edge">
<title>&#45;2&#45;&gt;6835</title>
<path fill="none" stroke="red" stroke-width="0.45" d="M191.35,-201.21C192.72,-189.82 195.1,-170.15 197.2,-152.82"/>
<polygon fill="red" stroke="red" stroke-width="0.45" points="200.73,-152.78 198.46,-142.43 193.78,-151.94 200.73,-152.78"/>
<text text-anchor="middle" x="187.82" y="-178.51" font-family="Times,serif" font-size="5.00">&#45;1.774</text>
</g>
<!-- 6836 -->
<g id="node17" class="node">
<title>6836</title>
<ellipse fill="white" stroke="black" cx="187.97" cy="-158.34" rx="24.08" ry="24.08"/>
<text text-anchor="middle" x="187.97" y="-155.64" font-family="Times,serif" font-size="9.00">6836</text>
</g>
<!-- &#45;2&#45;&gt;6836 -->
<g id="edge33" class="edge">
<title>&#45;2&#45;&gt;6836</title>
<path fill="none" stroke="red" stroke-width="0.45" d="M189.78,-201.14C189.68,-198.62 189.56,-195.75 189.43,-192.73"/>
<polygon fill="red" stroke="red" stroke-width="0.45" points="192.92,-192.57 189,-182.72 185.93,-192.86 192.92,-192.57"/>
<text text-anchor="middle" x="183.15" y="-192.43" font-family="Times,serif" font-size="5.00">&#45;1.774</text>
</g>
<!-- &#45;3 -->
<g id="node3" class="node">
<title>&#45;3</title>
<polygon fill="lightgray" stroke="black" points="116.67,-91.75 92.67,-91.75 92.67,-73.14 116.67,-73.14 116.67,-91.75"/>
<text text-anchor="middle" x="104.67" y="-79.75" font-family="Times,serif" font-size="9.00">&#45;3</text>
</g>
<!-- &#45;3&#45;&gt;0 -->
<g id="edge38" class="edge">
<title>&#45;3&#45;&gt;0</title>
<path fill="none" stroke="red" stroke-width="0.79" d="M109.24,-91.81C112.69,-98.89 117.61,-108.96 122.2,-118.38"/>
<polygon fill="red" stroke="red" stroke-width="0.79" points="119.09,-119.99 126.62,-127.44 125.38,-116.92 119.09,-119.99"/>
<text text-anchor="middle" x="122.18" y="-106.59" font-family="Times,serif" font-size="5.00">&#45;3.458</text>
</g>
<!-- &#45;3&#45;&gt;6834 -->
<g id="edge2" class="edge">
<title>&#45;3&#45;&gt;6834</title>
<path fill="none" stroke="green" stroke-width="0.33" d="M92.77,-86.61C83.21,-89.95 69.3,-94.82 56.5,-99.29"/>
<polygon fill="green" stroke="green" stroke-width="0.33" points="55.29,-96.01 47.01,-102.61 57.6,-102.62 55.29,-96.01"/>
<text text-anchor="middle" x="69.01" y="-94.45" font-family="Times,serif" font-size="5.00">1.170</text>
</g>
<!-- &#45;3&#45;&gt;6841 -->
<g id="edge5" class="edge">
<title>&#45;3&#45;&gt;6841</title>
<path fill="none" stroke="green" stroke-width="0.33" d="M96.5,-73.04C94.11,-70.29 91.38,-67.15 88.56,-63.89"/>
<polygon fill="green" stroke="green" stroke-width="0.33" points="91.12,-61.51 81.92,-56.25 85.83,-66.1 91.12,-61.51"/>
<text text-anchor="middle" x="86.9" y="-63.97" font-family="Times,serif" font-size="5.00">1.170</text>
</g>
<!-- &#45;3&#45;&gt;6842 -->
<g id="edge8" class="edge">
<title>&#45;3&#45;&gt;6842</title>
<path fill="none" stroke="green" stroke-width="0.33" d="M107.15,-73.06C108.32,-68.64 109.79,-63.07 111.32,-57.29"/>
<polygon fill="green" stroke="green" stroke-width="0.33" points="114.73,-58.08 113.91,-47.52 107.97,-56.29 114.73,-58.08"/>
<text text-anchor="middle" x="103.61" y="-66.68" font-family="Times,serif" font-size="5.00">1.170</text>
</g>
<!-- &#45;3&#45;&gt;5407 -->
<g id="edge11" class="edge">
<title>&#45;3&#45;&gt;5407</title>
<path fill="none" stroke="green" stroke-width="0.77" d="M99.27,-91.84C94.12,-100.83 86.02,-114.93 78.45,-128.11"/>
<polygon fill="green" stroke="green" stroke-width="0.77" points="75.29,-126.6 73.34,-137.01 81.36,-130.08 75.29,-126.6"/>
<text text-anchor="middle" x="91.68" y="-105.48" font-family="Times,serif" font-size="5.00">3.348</text>
</g>
<!-- &#45;3&#45;&gt;6837 -->
<g id="edge15" class="edge">
<title>&#45;3&#45;&gt;6837</title>
<path fill="none" stroke="green" stroke-width="0.77" d="M116.59,-76.01C116.68,-75.96 116.77,-75.92 116.85,-75.87"/>
<polygon fill="green" stroke="green" stroke-width="0.77" points="118.24,-79.1 125.38,-71.27 114.92,-72.94 118.24,-79.1"/>
<text text-anchor="middle" x="116.72" y="-71.44" font-family="Times,serif" font-size="5.00">3.348</text>
</g>
<!-- &#45;3&#45;&gt;6838 -->
<g id="edge19" class="edge">
<title>&#45;3&#45;&gt;6838</title>
<path fill="none" stroke="green" stroke-width="0.77" d="M116.66,-82.59C120.65,-82.63 125.32,-82.69 130.21,-82.75"/>
<polygon fill="green" stroke="green" stroke-width="0.77" points="130.32,-86.25 140.36,-82.87 130.4,-79.25 130.32,-86.25"/>
<text text-anchor="middle" x="117.81" y="-84.17" font-family="Times,serif" font-size="5.00">3.348</text>
</g>
<!-- &#45;3&#45;&gt;6835 -->
<g id="edge30" class="edge">
<title>&#45;3&#45;&gt;6835</title>
<path fill="none" stroke="green" stroke-width="0.12" d="M116.53,-86.84C129.55,-91.67 151.01,-99.62 169.1,-106.32"/>
<polygon fill="green" stroke="green" stroke-width="0.12" points="168.13,-109.7 178.72,-109.89 170.56,-103.13 168.13,-109.7"/>
<text text-anchor="middle" x="137.19" y="-98.08" font-family="Times,serif" font-size="5.00">0.099</text>
</g>
<!-- &#45;4 -->
<g id="node4" class="node">
<title>&#45;4</title>
<polygon fill="lightgray" stroke="black" points="119.26,-114.33 95.26,-114.33 95.26,-95.73 119.26,-95.73 119.26,-114.33"/>
<text text-anchor="middle" x="107.26" y="-102.33" font-family="Times,serif" font-size="9.00">&#45;4</text>
</g>
<!-- &#45;4&#45;&gt;0 -->
<g id="edge39" class="edge">
<title>&#45;4&#45;&gt;0</title>
<path fill="none" stroke="red" stroke-width="0.79" d="M113.92,-114.49C115.25,-116.39 116.71,-118.46 118.22,-120.6"/>
<polygon fill="red" stroke="red" stroke-width="0.79" points="115.47,-122.78 124.09,-128.95 121.2,-118.76 115.47,-122.78"/>
<text text-anchor="middle" x="122.52" y="-119.05" font-family="Times,serif" font-size="5.00">&#45;3.458</text>
</g>
<!-- &#45;4&#45;&gt;6834 -->
<g id="edge3" class="edge">
<title>&#45;4&#45;&gt;6834</title>
<path fill="none" stroke="green" stroke-width="0.33" d="M95.34,-105.84C85.69,-106.49 71.6,-107.44 58.49,-108.32"/>
<polygon fill="green" stroke="green" stroke-width="0.33" points="58.04,-104.85 48.29,-109.01 58.51,-111.83 58.04,-104.85"/>
<text text-anchor="middle" x="71.29" y="-108.58" font-family="Times,serif" font-size="5.00">1.170</text>
</g>
<!-- &#45;4&#45;&gt;6841 -->
<g id="edge6" class="edge">
<title>&#45;4&#45;&gt;6841</title>
<path fill="none" stroke="green" stroke-width="0.33" d="M101.54,-95.72C97,-88.33 90.39,-77.57 84.11,-67.34"/>
<polygon fill="green" stroke="green" stroke-width="0.33" points="86.95,-65.28 78.74,-58.59 80.99,-68.95 86.95,-65.28"/>
<text text-anchor="middle" x="87.2" y="-83.03" font-family="Times,serif" font-size="5.00">1.170</text>
</g>
<!-- &#45;4&#45;&gt;6842 -->
<g id="edge9" class="edge">
<title>&#45;4&#45;&gt;6842</title>
<path fill="none" stroke="green" stroke-width="0.33" d="M108.79,-95.42C110.26,-86.14 112.58,-71.53 114.74,-57.93"/>
<polygon fill="green" stroke="green" stroke-width="0.33" points="118.23,-58.27 116.34,-47.84 111.31,-57.17 118.23,-58.27"/>
<text text-anchor="middle" x="117.39" y="-78.18" font-family="Times,serif" font-size="5.00">1.170</text>
</g>
<!-- &#45;4&#45;&gt;5407 -->
<g id="edge12" class="edge">
<title>&#45;4&#45;&gt;5407</title>
<path fill="none" stroke="green" stroke-width="0.77" d="M99.33,-114.38C95.2,-119.24 89.91,-125.47 84.53,-131.81"/>
<polygon fill="green" stroke="green" stroke-width="0.77" points="81.55,-129.91 77.75,-139.8 86.89,-134.44 81.55,-129.91"/>
<text text-anchor="middle" x="86.3" y="-124.6" font-family="Times,serif" font-size="5.00">3.348</text>
</g>
<!-- &#45;4&#45;&gt;6837 -->
<g id="edge16" class="edge">
<title>&#45;4&#45;&gt;6837</title>
<path fill="none" stroke="green" stroke-width="0.77" d="M115.92,-95.5C118.46,-92.71 121.38,-89.5 124.42,-86.16"/>
<polygon fill="green" stroke="green" stroke-width="0.77" points="127.02,-88.5 131.16,-78.74 121.84,-83.79 127.02,-88.5"/>
<text text-anchor="middle" x="125.8" y="-92.33" font-family="Times,serif" font-size="5.00">3.348</text>
</g>
<!-- &#45;4&#45;&gt;6838 -->
<g id="edge20" class="edge">
<title>&#45;4&#45;&gt;6838</title>
<path fill="none" stroke="green" stroke-width="0.77" d="M119.06,-100.82C123.04,-99.4 127.71,-97.74 132.56,-96"/>
<polygon fill="green" stroke="green" stroke-width="0.77" points="133.74,-99.3 141.99,-92.64 131.39,-92.7 133.74,-99.3"/>
<text text-anchor="middle" x="131.43" y="-99.91" font-family="Times,serif" font-size="5.00">3.348</text>
</g>
<!-- &#45;4&#45;&gt;6836 -->
<g id="edge34" class="edge">
<title>&#45;4&#45;&gt;6836</title>
<path fill="none" stroke="green" stroke-width="0.12" d="M119.17,-112.9C129.67,-119.83 145.41,-130.23 159.18,-139.32"/>
<polygon fill="green" stroke="green" stroke-width="0.12" points="157.6,-142.47 167.87,-145.06 161.45,-136.63 157.6,-142.47"/>
<text text-anchor="middle" x="144.8" y="-121.61" font-family="Times,serif" font-size="5.00">0.099</text>
</g>
<!-- 6834&#45;&gt;5407 -->
<g id="edge13" class="edge">
<title>6834&#45;&gt;5407</title>
<path fill="none" stroke="red" stroke-width="0.98" d="M37.74,-130.51C37.85,-130.67 37.96,-130.83 38.07,-130.99"/>
<polygon fill="red" stroke="red" stroke-width="0.98" points="34.59,-132.11 43.15,-138.36 40.35,-128.14 34.59,-132.11"/>
<text text-anchor="middle" x="44.36" y="-126.25" font-family="Times,serif" font-size="5.00">&#45;4.424</text>
</g>
<!-- 6841&#45;&gt;6837 -->
<g id="edge17" class="edge">
<title>6841&#45;&gt;6837</title>
<path fill="none" stroke="red" stroke-width="0.98" d="M89.96,-43.72C97.04,-45.39 104.97,-47.27 112.68,-49.1"/>
<polygon fill="red" stroke="red" stroke-width="0.98" points="112.08,-52.55 122.62,-51.45 113.7,-45.74 112.08,-52.55"/>
<text text-anchor="middle" x="94.87" y="-47.91" font-family="Times,serif" font-size="5.00">&#45;4.424</text>
</g>
<!-- 6842&#45;&gt;6838 -->
<g id="edge21" class="edge">
<title>6842&#45;&gt;6838</title>
<path fill="none" stroke="red" stroke-width="0.98" d="M135.41,-42.76C138.16,-46.12 141.08,-49.71 144.02,-53.3"/>
<polygon fill="red" stroke="red" stroke-width="0.98" points="141.34,-55.56 150.38,-61.09 146.76,-51.13 141.34,-55.56"/>
<text text-anchor="middle" x="133.25" y="-49.53" font-family="Times,serif" font-size="5.00">&#45;4.424</text>
</g>
<!-- 5407&#45;&gt;0 -->
<g id="edge40" class="edge">
<title>5407&#45;&gt;0</title>
<path fill="none" stroke="green" stroke-width="0.83" d="M86.91,-155.21C93.43,-153.7 100.39,-152.09 106.92,-150.57"/>
<polygon fill="green" stroke="green" stroke-width="0.83" points="107.75,-153.97 116.7,-148.3 106.17,-147.15 107.75,-153.97"/>
<text text-anchor="middle" x="102.54" y="-154.39" font-family="Times,serif" font-size="5.00">3.647</text>
</g>
<!-- 5407&#45;&gt;787 -->
<g id="edge27" class="edge">
<title>5407&#45;&gt;787</title>
<path fill="none" stroke="green" stroke-width="0.71" d="M80.33,-180.3C81.49,-181.32 82.65,-182.36 83.82,-183.38"/>
<polygon fill="green" stroke="green" stroke-width="0.71" points="81.54,-186.04 91.35,-190.04 86.18,-180.8 81.54,-186.04"/>
<text text-anchor="middle" x="87.7" y="-177.34" font-family="Times,serif" font-size="5.00">3.026</text>
</g>
<!-- 6837&#45;&gt;0 -->
<g id="edge41" class="edge">
<title>6837&#45;&gt;0</title>
<path fill="none" stroke="green" stroke-width="0.83" d="M145.13,-85.69C143.43,-95.3 141.51,-106.08 139.8,-115.74"/>
<polygon fill="green" stroke="green" stroke-width="0.83" points="136.34,-115.22 138.03,-125.67 143.23,-116.44 136.34,-115.22"/>
<text text-anchor="middle" x="148.09" y="-102.21" font-family="Times,serif" font-size="5.00">3.647</text>
</g>
<!-- 6837&#45;&gt;6835 -->
<g id="edge31" class="edge">
<title>6837&#45;&gt;6835</title>
<path fill="none" stroke="green" stroke-width="0.71" d="M168.3,-79.39C171.74,-83.44 175.37,-87.71 178.93,-91.89"/>
<polygon fill="green" stroke="green" stroke-width="0.71" points="176.44,-94.37 185.58,-99.72 181.77,-89.83 176.44,-94.37"/>
<text text-anchor="middle" x="167.99" y="-87.14" font-family="Times,serif" font-size="5.00">3.026</text>
</g>
<!-- 6838&#45;&gt;0 -->
<g id="edge42" class="edge">
<title>6838&#45;&gt;0</title>
<path fill="none" stroke="green" stroke-width="0.83" d="M154.74,-107.97C152.71,-111.65 150.62,-115.44 148.58,-119.12"/>
<polygon fill="green" stroke="green" stroke-width="0.83" points="145.5,-117.46 143.72,-127.91 151.62,-120.85 145.5,-117.46"/>
<text text-anchor="middle" x="146.04" y="-115.05" font-family="Times,serif" font-size="5.00">3.647</text>
</g>
<!-- 6838&#45;&gt;6836 -->
<g id="edge35" class="edge">
<title>6838&#45;&gt;6836</title>
<path fill="none" stroke="green" stroke-width="0.71" d="M175.6,-110.75C176.79,-115.3 178.03,-120.07 179.24,-124.75"/>
<polygon fill="green" stroke="green" stroke-width="0.71" points="175.94,-125.95 181.84,-134.75 182.71,-124.19 175.94,-125.95"/>
<text text-anchor="middle" x="171.8" y="-119.25" font-family="Times,serif" font-size="5.00">3.026</text>
</g>
<!-- 6325&#45;&gt;787 -->
<g id="edge28" class="edge">
<title>6325&#45;&gt;787</title>
<path fill="none" stroke="green" stroke-width="0.23" d="M128.79,-248.43C126.2,-243.11 123.38,-237.35 120.67,-231.79"/>
<polygon fill="green" stroke="green" stroke-width="0.23" points="123.78,-230.19 116.24,-222.74 117.49,-233.26 123.78,-230.19"/>
<text text-anchor="middle" x="119.1" y="-241.61" font-family="Times,serif" font-size="5.00">0.631</text>
</g>
<!-- 6839&#45;&gt;6835 -->
<g id="edge32" class="edge">
<title>6839&#45;&gt;6835</title>
<path fill="none" stroke="green" stroke-width="0.23" d="M245.23,-146.8C240.55,-143.76 235.48,-140.46 230.51,-137.23"/>
<polygon fill="green" stroke="green" stroke-width="0.23" points="232.05,-134.06 221.76,-131.54 228.24,-139.93 232.05,-134.06"/>
<text text-anchor="middle" x="232.24" y="-143.52" font-family="Times,serif" font-size="5.00">0.631</text>
</g>
<!-- 6840&#45;&gt;6836 -->
<g id="edge36" class="edge">
<title>6840&#45;&gt;6836</title>
<path fill="none" stroke="green" stroke-width="0.23" d="M227.84,-209.52C222.1,-202.15 215.43,-193.58 209.21,-185.6"/>
<polygon fill="green" stroke="green" stroke-width="0.23" points="211.85,-183.3 202.94,-177.56 206.33,-187.6 211.85,-183.3"/>
<text text-anchor="middle" x="212.9" y="-199.06" font-family="Times,serif" font-size="5.00">0.631</text>
</g>
<!-- 787&#45;&gt;0 -->
<g id="edge43" class="edge">
<title>787&#45;&gt;0</title>
<path fill="none" stroke="green" stroke-width="0.13" stroke-dasharray="1,5" d="M115.97,-184.66C118.13,-180 120.47,-174.94 122.75,-170.03"/>
<polygon fill="green" stroke="green" stroke-width="0.13" points="125.95,-171.45 126.98,-160.91 119.6,-168.51 125.95,-171.45"/>
<text text-anchor="middle" x="113.73" y="-178.85" font-family="Times,serif" font-size="5.00">0.167</text>
</g>
<!-- 6835&#45;&gt;0 -->
<g id="edge44" class="edge">
<title>6835&#45;&gt;0</title>
<path fill="none" stroke="green" stroke-width="0.13" stroke-dasharray="1,5" d="M178.82,-127.03C173.21,-129.21 167.15,-131.56 161.36,-133.8"/>
<polygon fill="green" stroke="green" stroke-width="0.13" points="160.08,-130.54 152.02,-137.42 162.61,-137.07 160.08,-130.54"/>
<text text-anchor="middle" x="164.47" y="-125.92" font-family="Times,serif" font-size="5.00">0.167</text>
</g>
<!-- 6836&#45;&gt;0 -->
<g id="edge45" class="edge">
<title>6836&#45;&gt;0</title>
<path fill="none" stroke="green" stroke-width="0.13" stroke-dasharray="1,5" d="M164.48,-152.06C163.87,-151.89 163.26,-151.73 162.64,-151.57"/>
<polygon fill="green" stroke="green" stroke-width="0.13" points="163.42,-148.15 152.85,-148.95 161.61,-154.91 163.42,-148.15"/>
<text text-anchor="middle" x="157.94" y="-153.31" font-family="Times,serif" font-size="5.00">0.167</text>
</g>
</g>
</svg>
