<?xml version="1.0" encoding="UTF-8" standalone="no"?>
<!DOCTYPE svg PUBLIC "-//W3C//DTD SVG 1.1//EN"
 "http://www.w3.org/Graphics/SVG/1.1/DTD/svg11.dtd">
<!-- Generated by graphviz version 2.47.1 (20210417.1919)
 -->
<!-- Pages: 1 -->
<svg width="240pt" height="183pt"
 viewBox="0.00 0.00 240.48 182.80" xmlns="http://www.w3.org/2000/svg" xmlns:xlink="http://www.w3.org/1999/xlink">
<g id="graph0" class="graph" transform="scale(1 1) rotate(0) translate(4 178.8)">
<polygon fill="white" stroke="transparent" points="-4,4 -4,-178.8 236.48,-178.8 236.48,4 -4,4"/>
<!-- &#45;1 -->
<g id="node1" class="node">
<title>&#45;1</title>
<polygon fill="lightgray" stroke="black" points="23.75,-91.43 -0.25,-91.43 -0.25,-72.83 23.75,-72.83 23.75,-91.43"/>
<text text-anchor="middle" x="11.75" y="-79.43" font-family="Times,serif" font-size="9.00">&#45;1</text>
</g>
<!-- 0 -->
<g id="node5" class="node">
<title>0</title>
<ellipse fill="lightblue" stroke="black" cx="91.09" cy="-87.47" rx="14.49" ry="14.49"/>
<ellipse fill="none" stroke="black" cx="91.09" cy="-87.47" rx="18.49" ry="18.49"/>
<text text-anchor="middle" x="91.09" y="-84.77" font-family="Times,serif" font-size="9.00">0</text>
</g>
<!-- &#45;1&#45;&gt;0 -->
<g id="edge4" class="edge">
<title>&#45;1&#45;&gt;0</title>
<path fill="none" stroke="red" stroke-width="0.91" d="M23.8,-82.94C33.99,-83.63 49.02,-84.64 62.29,-85.53"/>
<polygon fill="red" stroke="red" stroke-width="0.91" points="62.21,-89.03 72.42,-86.21 62.68,-82.05 62.21,-89.03"/>
<text text-anchor="middle" x="36.59" y="-85.74" font-family="Times,serif" font-size="5.00">&#45;4.038</text>
</g>
<!-- &#45;2 -->
<g id="node2" class="node">
<title>&#45;2</title>
<polygon fill="lightgray" stroke="black" points="232.73,-108.5 208.73,-108.5 208.73,-89.9 232.73,-89.9 232.73,-108.5"/>
<text text-anchor="middle" x="220.73" y="-96.5" font-family="Times,serif" font-size="9.00">&#45;2</text>
</g>
<!-- 5403 -->
<g id="node6" class="node">
<title>5403</title>
<ellipse fill="white" stroke="black" cx="152.74" cy="-150.76" rx="24.08" ry="24.08"/>
<text text-anchor="middle" x="152.74" y="-148.06" font-family="Times,serif" font-size="9.00">5403</text>
</g>
<!-- &#45;2&#45;&gt;5403 -->
<g id="edge1" class="edge">
<title>&#45;2&#45;&gt;5403</title>
<path fill="none" stroke="green" stroke-width="0.22" d="M208.88,-108.18C200.98,-114.18 190.24,-122.32 180.27,-129.88"/>
<polygon fill="green" stroke="green" stroke-width="0.22" points="178.01,-127.2 172.16,-136.03 182.24,-132.78 178.01,-127.2"/>
<text text-anchor="middle" x="188.95" y="-120.53" font-family="Times,serif" font-size="5.00">0.607</text>
</g>
<!-- 5404 -->
<g id="node7" class="node">
<title>5404</title>
<ellipse fill="white" stroke="black" cx="162.68" cy="-34.68" rx="24.08" ry="24.08"/>
<text text-anchor="middle" x="162.68" y="-31.98" font-family="Times,serif" font-size="9.00">5404</text>
</g>
<!-- &#45;2&#45;&gt;5404 -->
<g id="edge2" class="edge">
<title>&#45;2&#45;&gt;5404</title>
<path fill="none" stroke="green" stroke-width="0.22" d="M212.16,-89.68C205.23,-81.97 195.12,-70.74 185.85,-60.43"/>
<polygon fill="green" stroke="green" stroke-width="0.22" points="188.27,-57.89 178.98,-52.8 183.07,-62.57 188.27,-57.89"/>
<text text-anchor="middle" x="193.38" y="-76.56" font-family="Times,serif" font-size="5.00">0.607</text>
</g>
<!-- 5405 -->
<g id="node8" class="node">
<title>5405</title>
<ellipse fill="white" stroke="black" cx="159.31" cy="-89.8" rx="24.08" ry="24.08"/>
<text text-anchor="middle" x="159.31" y="-87.1" font-family="Times,serif" font-size="9.00">5405</text>
</g>
<!-- &#45;2&#45;&gt;5405 -->
<g id="edge3" class="edge">
<title>&#45;2&#45;&gt;5405</title>
<path fill="none" stroke="green" stroke-width="0.22" d="M208.89,-97.39C204.35,-96.7 198.93,-95.87 193.35,-95.01"/>
<polygon fill="green" stroke="green" stroke-width="0.22" points="193.74,-91.53 183.32,-93.48 192.68,-98.45 193.74,-91.53"/>
<text text-anchor="middle" x="195.5" y="-97.7" font-family="Times,serif" font-size="5.00">0.607</text>
</g>
<!-- &#45;3 -->
<g id="node3" class="node">
<title>&#45;3</title>
<polygon fill="lightgray" stroke="black" points="71.88,-18.7 47.88,-18.7 47.88,-0.1 71.88,-0.1 71.88,-18.7"/>
<text text-anchor="middle" x="59.88" y="-6.7" font-family="Times,serif" font-size="9.00">&#45;3</text>
</g>
<!-- &#45;3&#45;&gt;0 -->
<g id="edge5" class="edge">
<title>&#45;3&#45;&gt;0</title>
<path fill="none" stroke="red" stroke-width="0.91" d="M63.71,-18.97C67.84,-29.29 74.59,-46.19 80.36,-60.61"/>
<polygon fill="red" stroke="red" stroke-width="0.91" points="77.19,-62.11 84.15,-70.09 83.69,-59.51 77.19,-62.11"/>
<text text-anchor="middle" x="65.58" y="-41.29" font-family="Times,serif" font-size="5.00">&#45;4.038</text>
</g>
<!-- &#45;4 -->
<g id="node4" class="node">
<title>&#45;4</title>
<polygon fill="lightgray" stroke="black" points="61.71,-169.79 37.71,-169.79 37.71,-151.19 61.71,-151.19 61.71,-169.79"/>
<text text-anchor="middle" x="49.71" y="-157.79" font-family="Times,serif" font-size="9.00">&#45;4</text>
</g>
<!-- &#45;4&#45;&gt;0 -->
<g id="edge6" class="edge">
<title>&#45;4&#45;&gt;0</title>
<path fill="none" stroke="red" stroke-width="0.91" d="M55.12,-150.95C60.64,-141.21 69.43,-125.69 76.95,-112.43"/>
<polygon fill="red" stroke="red" stroke-width="0.91" points="80,-114.14 81.89,-103.72 73.91,-110.69 80,-114.14"/>
<text text-anchor="middle" x="59.58" y="-133.19" font-family="Times,serif" font-size="5.00">&#45;4.038</text>
</g>
<!-- 5403&#45;&gt;0 -->
<g id="edge7" class="edge">
<title>5403&#45;&gt;0</title>
<path fill="none" stroke="green" stroke-width="0.17" stroke-dasharray="1,5" d="M135.9,-133.46C128.33,-125.7 119.34,-116.47 111.41,-108.32"/>
<polygon fill="green" stroke="green" stroke-width="0.17" points="113.69,-105.65 104.21,-100.93 108.68,-110.54 113.69,-105.65"/>
<text text-anchor="middle" x="118.03" y="-122.39" font-family="Times,serif" font-size="5.00">0.333</text>
</g>
<!-- 5404&#45;&gt;0 -->
<g id="edge8" class="edge">
<title>5404&#45;&gt;0</title>
<path fill="none" stroke="green" stroke-width="0.17" stroke-dasharray="1,5" d="M143.12,-49.1C134.25,-55.65 123.68,-63.44 114.4,-70.28"/>
<polygon fill="green" stroke="green" stroke-width="0.17" points="112.29,-67.49 106.32,-76.24 116.45,-73.12 112.29,-67.49"/>
<text text-anchor="middle" x="123.14" y="-61.19" font-family="Times,serif" font-size="5.00">0.333</text>
</g>
<!-- 5405&#45;&gt;0 -->
<g id="edge9" class="edge">
<title>5405&#45;&gt;0</title>
<path fill="none" stroke="green" stroke-width="0.17" stroke-dasharray="1,5" d="M135.07,-88.97C130.16,-88.81 124.95,-88.63 119.9,-88.46"/>
<polygon fill="green" stroke="green" stroke-width="0.17" points="120.01,-84.96 109.9,-88.11 119.77,-91.95 120.01,-84.96"/>
<text text-anchor="middle" x="121.86" y="-90.21" font-family="Times,serif" font-size="5.00">0.333</text>
</g>
</g>
</svg>
