<?xml version="1.0" encoding="UTF-8" standalone="no"?>
<!DOCTYPE svg PUBLIC "-//W3C//DTD SVG 1.1//EN"
 "http://www.w3.org/Graphics/SVG/1.1/DTD/svg11.dtd">
<!-- Generated by graphviz version 2.47.1 (20210417.1919)
 -->
<!-- Pages: 1 -->
<svg width="399pt" height="482pt"
 viewBox="0.00 0.00 399.03 482.15" xmlns="http://www.w3.org/2000/svg" xmlns:xlink="http://www.w3.org/1999/xlink">
<g id="graph0" class="graph" transform="scale(1 1) rotate(0) translate(4 478.15)">
<polygon fill="white" stroke="transparent" points="-4,4 -4,-478.15 395.03,-478.15 395.03,4 -4,4"/>
<!-- &#45;1 -->
<g id="node1" class="node">
<title>&#45;1</title>
<polygon fill="lightgray" stroke="black" points="66.13,-276.74 42.13,-276.74 42.13,-258.14 66.13,-258.14 66.13,-276.74"/>
<text text-anchor="middle" x="54.13" y="-264.74" font-family="Times,serif" font-size="9.00">&#45;1</text>
</g>
<!-- 3222 -->
<g id="node12" class="node">
<title>3222</title>
<ellipse fill="white" stroke="black" cx="67.43" cy="-325" rx="24.08" ry="24.08"/>
<text text-anchor="middle" x="67.43" y="-322.3" font-family="Times,serif" font-size="9.00">3222</text>
</g>
<!-- &#45;1&#45;&gt;3222 -->
<g id="edge4" class="edge">
<title>&#45;1&#45;&gt;3222</title>
<path fill="none" stroke="green" stroke-width="0.45" d="M56.33,-276.95C57.26,-280.99 58.42,-285.98 59.62,-291.2"/>
<polygon fill="green" stroke="green" stroke-width="0.45" points="56.3,-292.37 61.96,-301.32 63.12,-290.79 56.3,-292.37"/>
<text text-anchor="middle" x="52.35" y="-285.57" font-family="Times,serif" font-size="5.00">1.740</text>
</g>
<!-- 6696 -->
<g id="node15" class="node">
<title>6696</title>
<ellipse fill="white" stroke="black" cx="28.04" cy="-228.41" rx="24.08" ry="24.08"/>
<ellipse fill="none" stroke="black" cx="28.04" cy="-228.41" rx="28.08" ry="28.08"/>
<text text-anchor="middle" x="28.04" y="-225.71" font-family="Times,serif" font-size="9.00">6696</text>
</g>
<!-- &#45;1&#45;&gt;6696 -->
<g id="edge10" class="edge">
<title>&#45;1&#45;&gt;6696</title>
<path fill="none" stroke="green" stroke-width="0.3" d="M47.81,-257.99C47.74,-257.88 47.66,-257.76 47.58,-257.64"/>
<polygon fill="green" stroke="green" stroke-width="0.3" points="52.2,-258.26 43.74,-251.89 46.38,-262.15 52.2,-258.26"/>
<text text-anchor="middle" x="42.07" y="-259.32" font-family="Times,serif" font-size="5.00">1.000</text>
</g>
<!-- 6709 -->
<g id="node16" class="node">
<title>6709</title>
<ellipse fill="white" stroke="black" cx="35.3" cy="-202.06" rx="24.08" ry="24.08"/>
<ellipse fill="none" stroke="black" cx="35.3" cy="-202.06" rx="28.08" ry="28.08"/>
<text text-anchor="middle" x="35.3" y="-199.36" font-family="Times,serif" font-size="9.00">6709</text>
</g>
<!-- &#45;1&#45;&gt;6709 -->
<g id="edge13" class="edge">
<title>&#45;1&#45;&gt;6709</title>
<path fill="none" stroke="green" stroke-width="0.3" d="M51.43,-258.08C49.94,-252.88 47.97,-246.05 45.92,-238.94"/>
<polygon fill="green" stroke="green" stroke-width="0.3" points="49.25,-237.86 43.12,-229.22 42.53,-239.8 49.25,-237.86"/>
<text text-anchor="middle" x="54.3" y="-250.01" font-family="Times,serif" font-size="5.00">1.000</text>
</g>
<!-- 6710 -->
<g id="node17" class="node">
<title>6710</title>
<ellipse fill="white" stroke="black" cx="52.8" cy="-184.05" rx="24.08" ry="24.08"/>
<ellipse fill="none" stroke="black" cx="52.8" cy="-184.05" rx="28.08" ry="28.08"/>
<text text-anchor="middle" x="52.8" y="-181.35" font-family="Times,serif" font-size="9.00">6710</text>
</g>
<!-- &#45;1&#45;&gt;6710 -->
<g id="edge16" class="edge">
<title>&#45;1&#45;&gt;6710</title>
<path fill="none" stroke="green" stroke-width="0.3" d="M53.98,-257.88C53.84,-249.17 53.62,-235.71 53.42,-222.66"/>
<polygon fill="green" stroke="green" stroke-width="0.3" points="56.91,-222.32 53.25,-212.38 49.91,-222.44 56.91,-222.32"/>
<text text-anchor="middle" x="59.32" y="-241.77" font-family="Times,serif" font-size="5.00">1.000</text>
</g>
<!-- 1790 -->
<g id="node18" class="node">
<title>1790</title>
<ellipse fill="white" stroke="black" cx="113.8" cy="-237.64" rx="24.08" ry="24.08"/>
<ellipse fill="none" stroke="black" cx="113.8" cy="-237.64" rx="28.08" ry="28.08"/>
<text text-anchor="middle" x="113.8" y="-234.94" font-family="Times,serif" font-size="9.00">1790</text>
</g>
<!-- &#45;1&#45;&gt;1790 -->
<g id="edge19" class="edge">
<title>&#45;1&#45;&gt;1790</title>
<path fill="none" stroke="red" stroke-width="1.42" d="M65.92,-261.55C69.99,-259.52 74.79,-257.12 79.74,-254.65"/>
<polygon fill="red" stroke="red" stroke-width="1.42" points="81.33,-257.77 88.71,-250.17 78.2,-251.51 81.33,-257.77"/>
<text text-anchor="middle" x="66.37" y="-253.6" font-family="Times,serif" font-size="5.00">&#45;6.591</text>
</g>
<!-- 6697 -->
<g id="node19" class="node">
<title>6697</title>
<ellipse fill="white" stroke="black" cx="114.9" cy="-219.93" rx="24.08" ry="24.08"/>
<ellipse fill="none" stroke="black" cx="114.9" cy="-219.93" rx="28.08" ry="28.08"/>
<text text-anchor="middle" x="114.9" y="-217.23" font-family="Times,serif" font-size="9.00">6697</text>
</g>
<!-- &#45;1&#45;&gt;6697 -->
<g id="edge23" class="edge">
<title>&#45;1&#45;&gt;6697</title>
<path fill="none" stroke="red" stroke-width="1.42" d="M66.14,-258.06C71.39,-253.95 77.82,-248.92 84.26,-243.89"/>
<polygon fill="red" stroke="red" stroke-width="1.42" points="86.62,-246.48 92.34,-237.57 82.31,-240.97 86.62,-246.48"/>
<text text-anchor="middle" x="75.2" y="-246.47" font-family="Times,serif" font-size="5.00">&#45;6.591</text>
</g>
<!-- 6698 -->
<g id="node20" class="node">
<title>6698</title>
<ellipse fill="white" stroke="black" cx="132.3" cy="-215.9" rx="24.08" ry="24.08"/>
<ellipse fill="none" stroke="black" cx="132.3" cy="-215.9" rx="28.08" ry="28.08"/>
<text text-anchor="middle" x="132.3" y="-213.2" font-family="Times,serif" font-size="9.00">6698</text>
</g>
<!-- &#45;1&#45;&gt;6698 -->
<g id="edge27" class="edge">
<title>&#45;1&#45;&gt;6698</title>
<path fill="none" stroke="red" stroke-width="1.42" d="M66,-259.61C75.08,-253.63 88.03,-245.09 100.09,-237.14"/>
<polygon fill="red" stroke="red" stroke-width="1.42" points="102.22,-239.93 108.64,-231.5 98.37,-234.08 102.22,-239.93"/>
<text text-anchor="middle" x="76.59" y="-249.88" font-family="Times,serif" font-size="5.00">&#45;6.591</text>
</g>
<!-- 1864 -->
<g id="node24" class="node">
<title>1864</title>
<ellipse fill="white" stroke="black" cx="125.44" cy="-310.05" rx="24.08" ry="24.08"/>
<text text-anchor="middle" x="125.44" y="-307.35" font-family="Times,serif" font-size="9.00">1864</text>
</g>
<!-- &#45;1&#45;&gt;1864 -->
<g id="edge38" class="edge">
<title>&#45;1&#45;&gt;1864</title>
<path fill="none" stroke="green" stroke-width="0.81" d="M65.91,-274.48C74.13,-279.39 85.48,-286.17 96.07,-292.5"/>
<polygon fill="green" stroke="green" stroke-width="0.81" points="94.33,-295.54 104.71,-297.66 97.92,-289.53 94.33,-295.54"/>
<text text-anchor="middle" x="75.36" y="-284.99" font-family="Times,serif" font-size="5.00">3.570</text>
</g>
<!-- &#45;2 -->
<g id="node2" class="node">
<title>&#45;2</title>
<polygon fill="lightgray" stroke="black" points="222.15,-302.09 198.15,-302.09 198.15,-283.48 222.15,-283.48 222.15,-302.09"/>
<text text-anchor="middle" x="210.15" y="-290.08" font-family="Times,serif" font-size="9.00">&#45;2</text>
</g>
<!-- 6493 -->
<g id="node21" class="node">
<title>6493</title>
<ellipse fill="white" stroke="black" cx="179.85" cy="-365.59" rx="24.08" ry="24.08"/>
<text text-anchor="middle" x="179.85" y="-362.89" font-family="Times,serif" font-size="9.00">6493</text>
</g>
<!-- &#45;2&#45;&gt;6493 -->
<g id="edge31" class="edge">
<title>&#45;2&#45;&gt;6493</title>
<path fill="none" stroke="green" stroke-width="0.32" d="M206.19,-302.3C202.83,-310.37 197.81,-322.43 193.06,-333.86"/>
<polygon fill="green" stroke="green" stroke-width="0.32" points="189.78,-332.63 189.16,-343.21 196.24,-335.32 189.78,-332.63"/>
<text text-anchor="middle" x="194" y="-319.58" font-family="Times,serif" font-size="5.00">1.125</text>
</g>
<!-- 6705 -->
<g id="node22" class="node">
<title>6705</title>
<ellipse fill="white" stroke="black" cx="253.8" cy="-203.6" rx="24.08" ry="24.08"/>
<text text-anchor="middle" x="253.8" y="-200.9" font-family="Times,serif" font-size="9.00">6705</text>
</g>
<!-- &#45;2&#45;&gt;6705 -->
<g id="edge32" class="edge">
<title>&#45;2&#45;&gt;6705</title>
<path fill="none" stroke="green" stroke-width="0.32" d="M214.82,-283.24C220.5,-271.64 230.36,-251.49 238.75,-234.36"/>
<polygon fill="green" stroke="green" stroke-width="0.32" points="241.96,-235.74 243.21,-225.22 235.68,-232.67 241.96,-235.74"/>
<text text-anchor="middle" x="226.78" y="-254.3" font-family="Times,serif" font-size="5.00">1.125</text>
</g>
<!-- 6706 -->
<g id="node23" class="node">
<title>6706</title>
<ellipse fill="white" stroke="black" cx="247.05" cy="-330.75" rx="24.08" ry="24.08"/>
<text text-anchor="middle" x="247.05" y="-328.05" font-family="Times,serif" font-size="9.00">6706</text>
</g>
<!-- &#45;2&#45;&gt;6706 -->
<g id="edge33" class="edge">
<title>&#45;2&#45;&gt;6706</title>
<path fill="none" stroke="green" stroke-width="0.32" d="M219.46,-302.36C220.58,-303.51 221.75,-304.72 222.97,-305.97"/>
<polygon fill="green" stroke="green" stroke-width="0.32" points="220.65,-308.6 230.13,-313.34 225.67,-303.72 220.65,-308.6"/>
<text text-anchor="middle" x="215.59" y="-305.67" font-family="Times,serif" font-size="5.00">1.125</text>
</g>
<!-- &#45;2&#45;&gt;1864 -->
<g id="edge34" class="edge">
<title>&#45;2&#45;&gt;1864</title>
<path fill="none" stroke="red" stroke-width="0.39" d="M198.37,-295.19C188.2,-297.26 173,-300.36 159.1,-303.19"/>
<polygon fill="red" stroke="red" stroke-width="0.39" points="158.4,-299.76 149.3,-305.19 159.8,-306.62 158.4,-299.76"/>
<text text-anchor="middle" x="172.28" y="-300.69" font-family="Times,serif" font-size="5.00">&#45;1.450</text>
</g>
<!-- 6699 -->
<g id="node25" class="node">
<title>6699</title>
<ellipse fill="white" stroke="black" cx="179.04" cy="-186.77" rx="24.08" ry="24.08"/>
<text text-anchor="middle" x="179.04" y="-184.07" font-family="Times,serif" font-size="9.00">6699</text>
</g>
<!-- &#45;2&#45;&gt;6699 -->
<g id="edge41" class="edge">
<title>&#45;2&#45;&gt;6699</title>
<path fill="none" stroke="red" stroke-width="0.39" d="M207.39,-283.38C203.24,-269.23 195.18,-241.78 188.72,-219.74"/>
<polygon fill="red" stroke="red" stroke-width="0.39" points="192.05,-218.68 185.88,-210.07 185.34,-220.65 192.05,-218.68"/>
<text text-anchor="middle" x="191.6" y="-253.06" font-family="Times,serif" font-size="5.00">&#45;1.450</text>
</g>
<!-- 6700 -->
<g id="node26" class="node">
<title>6700</title>
<ellipse fill="white" stroke="black" cx="192.08" cy="-253.47" rx="24.08" ry="24.08"/>
<text text-anchor="middle" x="192.08" y="-250.77" font-family="Times,serif" font-size="9.00">6700</text>
</g>
<!-- &#45;2&#45;&gt;6700 -->
<g id="edge48" class="edge">
<title>&#45;2&#45;&gt;6700</title>
<path fill="none" stroke="red" stroke-width="0.39" d="M205.78,-283.27C205.71,-283.12 205.64,-282.97 205.57,-282.82"/>
<polygon fill="red" stroke="red" stroke-width="0.39" points="209.6,-283.2 202.24,-275.58 203.24,-286.13 209.6,-283.2"/>
<text text-anchor="middle" x="199.22" y="-278.55" font-family="Times,serif" font-size="5.00">&#45;1.450</text>
</g>
<!-- &#45;3 -->
<g id="node3" class="node">
<title>&#45;3</title>
<polygon fill="lightgray" stroke="black" points="106.4,-169.08 82.4,-169.08 82.4,-150.48 106.4,-150.48 106.4,-169.08"/>
<text text-anchor="middle" x="94.4" y="-157.08" font-family="Times,serif" font-size="9.00">&#45;3</text>
</g>
<!-- 6701 -->
<g id="node13" class="node">
<title>6701</title>
<ellipse fill="white" stroke="black" cx="143.9" cy="-131.74" rx="24.08" ry="24.08"/>
<text text-anchor="middle" x="143.9" y="-129.04" font-family="Times,serif" font-size="9.00">6701</text>
</g>
<!-- &#45;3&#45;&gt;6701 -->
<g id="edge6" class="edge">
<title>&#45;3&#45;&gt;6701</title>
<path fill="none" stroke="green" stroke-width="0.45" d="M106.38,-152.99C108.69,-151.68 111.2,-150.26 113.79,-148.79"/>
<polygon fill="green" stroke="green" stroke-width="0.45" points="115.77,-151.69 122.75,-143.72 112.32,-145.6 115.77,-151.69"/>
<text text-anchor="middle" x="104.46" y="-146.39" font-family="Times,serif" font-size="5.00">1.740</text>
</g>
<!-- &#45;3&#45;&gt;6696 -->
<g id="edge11" class="edge">
<title>&#45;3&#45;&gt;6696</title>
<path fill="none" stroke="green" stroke-width="0.3" d="M85.17,-169.32C77.3,-177.46 65.58,-189.58 54.8,-200.73"/>
<polygon fill="green" stroke="green" stroke-width="0.3" points="51.98,-198.61 47.55,-208.24 57.01,-203.48 51.98,-198.61"/>
<text text-anchor="middle" x="75.61" y="-186.53" font-family="Times,serif" font-size="5.00">1.000</text>
</g>
<!-- &#45;3&#45;&gt;6709 -->
<g id="edge14" class="edge">
<title>&#45;3&#45;&gt;6709</title>
<path fill="none" stroke="green" stroke-width="0.3" d="M82.44,-168.33C77.82,-171.64 72.29,-175.6 66.68,-179.61"/>
<polygon fill="green" stroke="green" stroke-width="0.3" points="64.58,-176.81 58.48,-185.48 68.65,-182.5 64.58,-176.81"/>
<text text-anchor="middle" x="80.18" y="-175.47" font-family="Times,serif" font-size="5.00">1.000</text>
</g>
<!-- &#45;3&#45;&gt;6710 -->
<g id="edge17" class="edge">
<title>&#45;3&#45;&gt;6710</title>
<path fill="none" stroke="green" stroke-width="0.3" d="M82.59,-166.67C82.48,-166.73 82.37,-166.79 82.27,-166.86"/>
<polygon fill="green" stroke="green" stroke-width="0.3" points="84.03,-161.78 77.16,-169.84 87.56,-167.82 84.03,-161.78"/>
<text text-anchor="middle" x="88.05" y="-168.26" font-family="Times,serif" font-size="5.00">1.000</text>
</g>
<!-- &#45;3&#45;&gt;1790 -->
<g id="edge20" class="edge">
<title>&#45;3&#45;&gt;1790</title>
<path fill="none" stroke="red" stroke-width="0.1" d="M96.78,-169.32C98.73,-177.18 101.64,-188.84 104.5,-200.32"/>
<polygon fill="red" stroke="red" stroke-width="0.1" points="101.16,-201.4 106.98,-210.26 107.95,-199.71 101.16,-201.4"/>
<text text-anchor="middle" x="95.01" y="-186.32" font-family="Times,serif" font-size="5.00">0.000</text>
</g>
<!-- &#45;3&#45;&gt;6697 -->
<g id="edge24" class="edge">
<title>&#45;3&#45;&gt;6697</title>
<path fill="none" stroke="red" stroke-width="0.1" d="M97.6,-169.18C98.98,-173.22 100.69,-178.24 102.5,-183.53"/>
<polygon fill="red" stroke="red" stroke-width="0.1" points="99.25,-184.86 105.79,-193.2 105.88,-182.6 99.25,-184.86"/>
<text text-anchor="middle" x="94.43" y="-177.85" font-family="Times,serif" font-size="5.00">0.000</text>
</g>
<!-- &#45;3&#45;&gt;6698 -->
<g id="edge28" class="edge">
<title>&#45;3&#45;&gt;6698</title>
<path fill="none" stroke="red" stroke-width="0.1" d="M100.83,-169.3C103.66,-173.48 107.16,-178.67 110.79,-184.04"/>
<polygon fill="red" stroke="red" stroke-width="0.1" points="108.02,-186.2 116.51,-192.52 113.82,-182.28 108.02,-186.2"/>
<text text-anchor="middle" x="111.43" y="-178.17" font-family="Times,serif" font-size="5.00">0.000</text>
</g>
<!-- &#45;3&#45;&gt;6699 -->
<g id="edge45" class="edge">
<title>&#45;3&#45;&gt;6699</title>
<path fill="none" stroke="green" stroke-width="0.81" d="M106.17,-163.53C116.48,-166.82 131.96,-171.76 146.01,-176.24"/>
<polygon fill="green" stroke="green" stroke-width="0.81" points="145.3,-179.69 155.89,-179.39 147.43,-173.02 145.3,-179.69"/>
<text text-anchor="middle" x="120.47" y="-171.38" font-family="Times,serif" font-size="5.00">3.570</text>
</g>
<!-- &#45;4 -->
<g id="node4" class="node">
<title>&#45;4</title>
<polygon fill="lightgray" stroke="black" points="112.75,-276.23 88.74,-276.23 88.74,-257.63 112.75,-257.63 112.75,-276.23"/>
<text text-anchor="middle" x="100.74" y="-264.23" font-family="Times,serif" font-size="9.00">&#45;4</text>
</g>
<!-- 6702 -->
<g id="node14" class="node">
<title>6702</title>
<ellipse fill="white" stroke="black" cx="218.93" cy="-262.45" rx="24.08" ry="24.08"/>
<text text-anchor="middle" x="218.93" y="-259.75" font-family="Times,serif" font-size="9.00">6702</text>
</g>
<!-- &#45;4&#45;&gt;6702 -->
<g id="edge8" class="edge">
<title>&#45;4&#45;&gt;6702</title>
<path fill="none" stroke="green" stroke-width="0.45" d="M112.51,-266.49C129.09,-265.86 160.02,-264.69 184.27,-263.77"/>
<polygon fill="green" stroke="green" stroke-width="0.45" points="184.68,-267.25 194.54,-263.38 184.41,-260.26 184.68,-267.25"/>
<text text-anchor="middle" x="142.77" y="-266.63" font-family="Times,serif" font-size="5.00">1.740</text>
</g>
<!-- &#45;4&#45;&gt;6696 -->
<g id="edge12" class="edge">
<title>&#45;4&#45;&gt;6696</title>
<path fill="none" stroke="green" stroke-width="0.3" d="M88.74,-260.57C81.4,-256.69 71.62,-251.5 62.05,-246.43"/>
<polygon fill="green" stroke="green" stroke-width="0.3" points="63.51,-243.24 53.04,-241.66 60.23,-249.43 63.51,-243.24"/>
<text text-anchor="middle" x="81.02" y="-255" font-family="Times,serif" font-size="5.00">1.000</text>
</g>
<!-- &#45;4&#45;&gt;6709 -->
<g id="edge15" class="edge">
<title>&#45;4&#45;&gt;6709</title>
<path fill="none" stroke="green" stroke-width="0.3" d="M91.09,-257.36C83.54,-249.88 72.65,-239.08 62.49,-229.01"/>
<polygon fill="green" stroke="green" stroke-width="0.3" points="64.85,-226.42 55.28,-221.87 59.92,-231.39 64.85,-226.42"/>
<text text-anchor="middle" x="71.16" y="-238.69" font-family="Times,serif" font-size="5.00">1.000</text>
</g>
<!-- &#45;4&#45;&gt;6710 -->
<g id="edge18" class="edge">
<title>&#45;4&#45;&gt;6710</title>
<path fill="none" stroke="green" stroke-width="0.3" d="M95.24,-257.43C89.58,-247.64 80.43,-231.82 72.07,-217.37"/>
<polygon fill="green" stroke="green" stroke-width="0.3" points="75.05,-215.52 67.01,-208.61 68.99,-219.02 75.05,-215.52"/>
<text text-anchor="middle" x="78.03" y="-232.9" font-family="Times,serif" font-size="5.00">1.000</text>
</g>
<!-- &#45;4&#45;&gt;1790 -->
<g id="edge21" class="edge">
<title>&#45;4&#45;&gt;1790</title>
<path fill="none" stroke="green" stroke-width="1.42" d="M105.02,-257.34C105.05,-257.28 105.08,-257.21 105.11,-257.14"/>
<polygon fill="green" stroke="green" stroke-width="1.42" points="104.32,-267.5 105.2,-256.94 97.93,-264.65 104.32,-267.5"/>
<text text-anchor="middle" x="110.69" y="-252.74" font-family="Times,serif" font-size="5.00">6.591</text>
</g>
<!-- &#45;4&#45;&gt;6697 -->
<g id="edge25" class="edge">
<title>&#45;4&#45;&gt;6697</title>
<path fill="none" stroke="green" stroke-width="1.42" d="M103.61,-257.42C103.7,-257.13 103.79,-256.83 103.88,-256.53"/>
<polygon fill="green" stroke="green" stroke-width="1.42" points="107.24,-257.52 106.77,-246.94 100.53,-255.5 107.24,-257.52"/>
<text text-anchor="middle" x="98.12" y="-252.48" font-family="Times,serif" font-size="5.00">6.591</text>
</g>
<!-- &#45;4&#45;&gt;6698 -->
<g id="edge29" class="edge">
<title>&#45;4&#45;&gt;6698</title>
<path fill="none" stroke="green" stroke-width="1.42" d="M106.53,-257.57C108.16,-254.95 110.02,-251.93 111.99,-248.74"/>
<polygon fill="green" stroke="green" stroke-width="1.42" points="115.07,-250.42 117.35,-240.08 109.11,-246.74 115.07,-250.42"/>
<text text-anchor="middle" x="103.64" y="-254.66" font-family="Times,serif" font-size="5.00">6.591</text>
</g>
<!-- &#45;4&#45;&gt;6700 -->
<g id="edge52" class="edge">
<title>&#45;4&#45;&gt;6700</title>
<path fill="none" stroke="green" stroke-width="0.81" d="M112.69,-265.17C124.19,-263.48 142.14,-260.83 158.07,-258.49"/>
<polygon fill="green" stroke="green" stroke-width="0.81" points="158.77,-261.92 168.16,-257 157.75,-255 158.77,-261.92"/>
<text text-anchor="middle" x="129.75" y="-263.33" font-family="Times,serif" font-size="5.00">3.570</text>
</g>
<!-- 0 -->
<g id="node5" class="node">
<title>0</title>
<ellipse fill="lightblue" stroke="black" cx="154.38" cy="-253.19" rx="14.49" ry="14.49"/>
<ellipse fill="none" stroke="black" cx="154.38" cy="-253.19" rx="18.49" ry="18.49"/>
<text text-anchor="middle" x="154.38" y="-250.49" font-family="Times,serif" font-size="9.00">0</text>
</g>
<!-- 6567 -->
<g id="node6" class="node">
<title>6567</title>
<ellipse fill="white" stroke="black" cx="33.74" cy="-450.11" rx="24.08" ry="24.08"/>
<text text-anchor="middle" x="33.74" y="-447.41" font-family="Times,serif" font-size="9.00">6567</text>
</g>
<!-- 6394 -->
<g id="node9" class="node">
<title>6394</title>
<ellipse fill="white" stroke="black" cx="79.15" cy="-386.99" rx="24.08" ry="24.08"/>
<ellipse fill="none" stroke="black" cx="79.15" cy="-386.99" rx="28.08" ry="28.08"/>
<text text-anchor="middle" x="79.15" y="-384.29" font-family="Times,serif" font-size="9.00">6394</text>
</g>
<!-- 6567&#45;&gt;6394 -->
<g id="edge1" class="edge">
<title>6567&#45;&gt;6394</title>
<path fill="none" stroke="green" stroke-width="0.53" d="M47.86,-430.48C50.64,-426.62 53.62,-422.47 56.61,-418.33"/>
<polygon fill="green" stroke="green" stroke-width="0.53" points="59.65,-420.08 62.65,-409.92 53.97,-415.99 59.65,-420.08"/>
<text text-anchor="middle" x="46.61" y="-419.91" font-family="Times,serif" font-size="5.00">2.172</text>
</g>
<!-- 6707 -->
<g id="node7" class="node">
<title>6707</title>
<ellipse fill="white" stroke="black" cx="212.03" cy="-24.04" rx="24.08" ry="24.08"/>
<text text-anchor="middle" x="212.03" y="-21.34" font-family="Times,serif" font-size="9.00">6707</text>
</g>
<!-- 6703 -->
<g id="node10" class="node">
<title>6703</title>
<ellipse fill="white" stroke="black" cx="200.85" cy="-101.51" rx="24.08" ry="24.08"/>
<ellipse fill="none" stroke="black" cx="200.85" cy="-101.51" rx="28.08" ry="28.08"/>
<text text-anchor="middle" x="200.85" y="-98.81" font-family="Times,serif" font-size="9.00">6703</text>
</g>
<!-- 6707&#45;&gt;6703 -->
<g id="edge2" class="edge">
<title>6707&#45;&gt;6703</title>
<path fill="none" stroke="green" stroke-width="0.53" d="M208.55,-48.13C207.84,-53.06 207.08,-58.35 206.31,-63.63"/>
<polygon fill="green" stroke="green" stroke-width="0.53" points="202.83,-63.25 204.87,-73.64 209.76,-64.25 202.83,-63.25"/>
<text text-anchor="middle" x="201.81" y="-57.38" font-family="Times,serif" font-size="5.00">2.172</text>
</g>
<!-- 6708 -->
<g id="node8" class="node">
<title>6708</title>
<ellipse fill="white" stroke="black" cx="366.99" cy="-266.53" rx="24.08" ry="24.08"/>
<text text-anchor="middle" x="366.99" y="-263.83" font-family="Times,serif" font-size="9.00">6708</text>
</g>
<!-- 6704 -->
<g id="node11" class="node">
<title>6704</title>
<ellipse fill="white" stroke="black" cx="287.9" cy="-255.22" rx="24.08" ry="24.08"/>
<ellipse fill="none" stroke="black" cx="287.9" cy="-255.22" rx="28.08" ry="28.08"/>
<text text-anchor="middle" x="287.9" y="-252.52" font-family="Times,serif" font-size="9.00">6704</text>
</g>
<!-- 6708&#45;&gt;6704 -->
<g id="edge3" class="edge">
<title>6708&#45;&gt;6704</title>
<path fill="none" stroke="green" stroke-width="0.53" d="M342.83,-263.08C337.49,-262.31 331.71,-261.49 325.97,-260.67"/>
<polygon fill="green" stroke="green" stroke-width="0.53" points="326.18,-257.16 315.79,-259.21 325.19,-264.09 326.18,-257.16"/>
<text text-anchor="middle" x="328.77" y="-263.37" font-family="Times,serif" font-size="5.00">2.172</text>
</g>
<!-- 6394&#45;&gt;3222 -->
<g id="edge5" class="edge">
<title>6394&#45;&gt;3222</title>
<path fill="none" stroke="red" stroke-width="0.76" d="M73.91,-359.26C73.89,-359.15 73.87,-359.04 73.85,-358.93"/>
<polygon fill="red" stroke="red" stroke-width="0.76" points="77.24,-358 71.94,-348.83 70.36,-359.3 77.24,-358"/>
<text text-anchor="middle" x="67.42" y="-354.6" font-family="Times,serif" font-size="5.00">&#45;3.287</text>
</g>
<!-- 6394&#45;&gt;1864 -->
<g id="edge39" class="edge">
<title>6394&#45;&gt;1864</title>
<path fill="none" stroke="red" stroke-width="0.7" d="M93.8,-362.65C98.22,-355.31 103.11,-347.17 107.71,-339.53"/>
<polygon fill="red" stroke="red" stroke-width="0.7" points="110.76,-341.24 112.92,-330.87 104.76,-337.64 110.76,-341.24"/>
<text text-anchor="middle" x="94.3" y="-352.59" font-family="Times,serif" font-size="5.00">&#45;3.018</text>
</g>
<!-- 6703&#45;&gt;6701 -->
<g id="edge7" class="edge">
<title>6703&#45;&gt;6701</title>
<path fill="none" stroke="red" stroke-width="0.76" d="M176.03,-114.68C175.47,-114.98 174.91,-115.28 174.34,-115.58"/>
<polygon fill="red" stroke="red" stroke-width="0.76" points="172.43,-112.63 165.24,-120.41 175.71,-118.81 172.43,-112.63"/>
<text text-anchor="middle" x="175.19" y="-110.63" font-family="Times,serif" font-size="5.00">&#45;3.287</text>
</g>
<!-- 6703&#45;&gt;6699 -->
<g id="edge46" class="edge">
<title>6703&#45;&gt;6699</title>
<path fill="none" stroke="red" stroke-width="0.7" d="M193.83,-128.96C191.83,-136.76 189.64,-145.35 187.56,-153.46"/>
<polygon fill="red" stroke="red" stroke-width="0.7" points="184.11,-152.83 185.02,-163.39 190.89,-154.57 184.11,-152.83"/>
<text text-anchor="middle" x="184.24" y="-142.71" font-family="Times,serif" font-size="5.00">&#45;3.018</text>
</g>
<!-- 6704&#45;&gt;6702 -->
<g id="edge9" class="edge">
<title>6704&#45;&gt;6702</title>
<path fill="none" stroke="red" stroke-width="0.76" d="M259.85,-258.16C257.69,-258.39 255.5,-258.62 253.31,-258.85"/>
<polygon fill="red" stroke="red" stroke-width="0.76" points="252.78,-255.39 243.2,-259.91 253.51,-262.35 252.78,-255.39"/>
<text text-anchor="middle" x="250.12" y="-260.01" font-family="Times,serif" font-size="5.00">&#45;3.287</text>
</g>
<!-- 6704&#45;&gt;6700 -->
<g id="edge53" class="edge">
<title>6704&#45;&gt;6700</title>
<path fill="none" stroke="red" stroke-width="0.7" d="M259.67,-254.71C249.21,-254.52 237.24,-254.3 226.3,-254.1"/>
<polygon fill="red" stroke="red" stroke-width="0.7" points="226.28,-250.6 216.22,-253.91 226.16,-257.6 226.28,-250.6"/>
<text text-anchor="middle" x="249.44" y="-249.9" font-family="Times,serif" font-size="5.00">&#45;3.018</text>
</g>
<!-- 3222&#45;&gt;0 -->
<g id="edge58" class="edge">
<title>3222&#45;&gt;0</title>
<path fill="none" stroke="green" stroke-width="0.35" d="M86.3,-309.42C99.74,-298.32 117.87,-283.35 132.03,-271.64"/>
<polygon fill="green" stroke="green" stroke-width="0.35" points="134.37,-274.25 139.85,-265.19 129.91,-268.86 134.37,-274.25"/>
<text text-anchor="middle" x="103.54" y="-286.03" font-family="Times,serif" font-size="5.00">1.250</text>
</g>
<!-- 6701&#45;&gt;0 -->
<g id="edge59" class="edge">
<title>6701&#45;&gt;0</title>
<path fill="none" stroke="green" stroke-width="0.35" d="M145.97,-155.73C147.66,-175.39 150.07,-203.29 151.87,-224.2"/>
<polygon fill="green" stroke="green" stroke-width="0.35" points="148.41,-224.75 152.76,-234.41 155.38,-224.15 148.41,-224.75"/>
<text text-anchor="middle" x="143.29" y="-185.46" font-family="Times,serif" font-size="5.00">1.250</text>
</g>
<!-- 6702&#45;&gt;0 -->
<g id="edge60" class="edge">
<title>6702&#45;&gt;0</title>
<path fill="none" stroke="green" stroke-width="0.35" d="M194.89,-259C191.01,-258.44 186.95,-257.86 182.97,-257.29"/>
<polygon fill="green" stroke="green" stroke-width="0.35" points="183.18,-253.79 172.78,-255.83 182.18,-260.72 183.18,-253.79"/>
<text text-anchor="middle" x="183.31" y="-259.65" font-family="Times,serif" font-size="5.00">1.250</text>
</g>
<!-- 6696&#45;&gt;1790 -->
<g id="edge22" class="edge">
<title>6696&#45;&gt;1790</title>
<path fill="none" stroke="red" stroke-width="1.45" d="M56.12,-231.43C62.34,-232.1 69.03,-232.82 75.58,-233.53"/>
<polygon fill="red" stroke="red" stroke-width="1.45" points="75.34,-237.02 85.65,-234.61 76.09,-230.06 75.34,-237.02"/>
<text text-anchor="middle" x="72.31" y="-227.98" font-family="Times,serif" font-size="5.00">&#45;6.767</text>
</g>
<!-- 6709&#45;&gt;6697 -->
<g id="edge26" class="edge">
<title>6709&#45;&gt;6697</title>
<path fill="none" stroke="red" stroke-width="1.45" d="M62.7,-208.21C67.45,-209.28 72.47,-210.41 77.43,-211.52"/>
<polygon fill="red" stroke="red" stroke-width="1.45" points="76.94,-215 87.46,-213.77 78.47,-208.17 76.94,-215"/>
<text text-anchor="middle" x="76.52" y="-211.37" font-family="Times,serif" font-size="5.00">&#45;6.767</text>
</g>
<!-- 6710&#45;&gt;6698 -->
<g id="edge30" class="edge">
<title>6710&#45;&gt;6698</title>
<path fill="none" stroke="red" stroke-width="1.45" d="M78.83,-194.48C84.6,-196.79 90.8,-199.28 96.87,-201.71"/>
<polygon fill="red" stroke="red" stroke-width="1.45" points="95.63,-204.98 106.21,-205.45 98.23,-198.48 95.63,-204.98"/>
<text text-anchor="middle" x="87.85" y="-193.59" font-family="Times,serif" font-size="5.00">&#45;6.767</text>
</g>
<!-- 1790&#45;&gt;0 -->
<g id="edge55" class="edge">
<title>1790&#45;&gt;0</title>
<path fill="none" stroke="red" stroke-width="0.85" d="M140.18,-247.75C140.24,-247.78 140.3,-247.8 140.36,-247.82"/>
<polygon fill="red" stroke="red" stroke-width="0.85" points="129.95,-247.58 140.55,-247.89 132.46,-241.04 129.95,-247.58"/>
<text text-anchor="middle" x="146.73" y="-249.29" font-family="Times,serif" font-size="5.00">&#45;3.746</text>
</g>
<!-- 1790&#45;&gt;1864 -->
<g id="edge35" class="edge">
<title>1790&#45;&gt;1864</title>
<path fill="none" stroke="red" stroke-width="0.81" d="M118.27,-265.43C118.84,-268.97 119.42,-272.62 120,-276.24"/>
<polygon fill="red" stroke="red" stroke-width="0.81" points="116.57,-276.91 121.61,-286.23 123.48,-275.8 116.57,-276.91"/>
<text text-anchor="middle" x="125.59" y="-272.33" font-family="Times,serif" font-size="5.00">&#45;3.526</text>
</g>
<!-- 1790&#45;&gt;6699 -->
<g id="edge42" class="edge">
<title>1790&#45;&gt;6699</title>
<path fill="none" stroke="red" stroke-width="0.81" d="M136.25,-220.14C141.28,-216.21 146.67,-212.01 151.87,-207.96"/>
<polygon fill="red" stroke="red" stroke-width="0.81" points="154.07,-210.68 159.81,-201.77 149.77,-205.16 154.07,-210.68"/>
<text text-anchor="middle" x="150.52" y="-215.55" font-family="Times,serif" font-size="5.00">&#45;3.526</text>
</g>
<!-- 1790&#45;&gt;6700 -->
<g id="edge49" class="edge">
<title>1790&#45;&gt;6700</title>
<path fill="none" stroke="red" stroke-width="0.81" d="M141.62,-243.27C147.11,-244.38 152.93,-245.56 158.59,-246.7"/>
<polygon fill="red" stroke="red" stroke-width="0.81" points="158,-250.15 168.5,-248.7 159.39,-243.29 158,-250.15"/>
<text text-anchor="middle" x="143.65" y="-246.48" font-family="Times,serif" font-size="5.00">&#45;3.526</text>
</g>
<!-- 6697&#45;&gt;0 -->
<g id="edge56" class="edge">
<title>6697&#45;&gt;0</title>
<path fill="none" stroke="red" stroke-width="0.1" d="M136.49,-238.12C136.63,-238.24 136.78,-238.36 136.92,-238.48"/>
<polygon fill="red" stroke="red" stroke-width="0.1" points="130,-237.23 139.9,-240.99 134.51,-231.87 130,-237.23"/>
<text text-anchor="middle" x="142.33" y="-233.8" font-family="Times,serif" font-size="5.00">0.000</text>
</g>
<!-- 6697&#45;&gt;1864 -->
<g id="edge36" class="edge">
<title>6697&#45;&gt;1864</title>
<path fill="none" stroke="red" stroke-width="0.81" d="M118.18,-247.95C119.22,-256.81 120.37,-266.7 121.45,-275.94"/>
<polygon fill="red" stroke="red" stroke-width="0.81" points="117.99,-276.47 122.63,-286 124.95,-275.66 117.99,-276.47"/>
<text text-anchor="middle" x="126.28" y="-257.45" font-family="Times,serif" font-size="5.00">&#45;3.526</text>
</g>
<!-- 6697&#45;&gt;6699 -->
<g id="edge43" class="edge">
<title>6697&#45;&gt;6699</title>
<path fill="none" stroke="red" stroke-width="0.81" d="M139.89,-207.02C142.68,-205.57 145.55,-204.09 148.4,-202.61"/>
<polygon fill="red" stroke="red" stroke-width="0.81" points="150.08,-205.69 157.36,-197.98 146.87,-199.47 150.08,-205.69"/>
<text text-anchor="middle" x="137.69" y="-200.32" font-family="Times,serif" font-size="5.00">&#45;3.526</text>
</g>
<!-- 6697&#45;&gt;6700 -->
<g id="edge50" class="edge">
<title>6697&#45;&gt;6700</title>
<path fill="none" stroke="red" stroke-width="0.81" d="M141.03,-231.29C147.32,-234.02 154.1,-236.97 160.61,-239.79"/>
<polygon fill="red" stroke="red" stroke-width="0.81" points="159.28,-243.03 169.84,-243.81 162.07,-236.61 159.28,-243.03"/>
<text text-anchor="middle" x="157.28" y="-231.04" font-family="Times,serif" font-size="5.00">&#45;3.526</text>
</g>
<!-- 6698&#45;&gt;0 -->
<g id="edge57" class="edge">
<title>6698&#45;&gt;0</title>
<path fill="none" stroke="green" stroke-width="0.85" d="M146.65,-240.15C146.69,-240.2 146.72,-240.26 146.75,-240.32"/>
<polygon fill="green" stroke="green" stroke-width="0.85" points="138.74,-233.66 146.85,-240.48 144.77,-230.09 138.74,-233.66"/>
<text text-anchor="middle" x="152.33" y="-241.73" font-family="Times,serif" font-size="5.00">3.746</text>
</g>
<!-- 6698&#45;&gt;1864 -->
<g id="edge37" class="edge">
<title>6698&#45;&gt;1864</title>
<path fill="none" stroke="red" stroke-width="0.81" d="M130.26,-243.9C129.53,-253.9 128.7,-265.28 127.94,-275.75"/>
<polygon fill="red" stroke="red" stroke-width="0.81" points="124.44,-275.6 127.21,-285.83 131.42,-276.11 124.44,-275.6"/>
<text text-anchor="middle" x="122.64" y="-261.32" font-family="Times,serif" font-size="5.00">&#45;3.526</text>
</g>
<!-- 6698&#45;&gt;6699 -->
<g id="edge44" class="edge">
<title>6698&#45;&gt;6699</title>
<path fill="none" stroke="red" stroke-width="0.81" d="M156.22,-201C156.32,-200.93 156.42,-200.87 156.52,-200.81"/>
<polygon fill="red" stroke="red" stroke-width="0.81" points="152,-207.75 158.64,-199.49 148.3,-201.81 152,-207.75"/>
<text text-anchor="middle" x="162.83" y="-202.4" font-family="Times,serif" font-size="5.00">&#45;3.526</text>
</g>
<!-- 6698&#45;&gt;6700 -->
<g id="edge51" class="edge">
<title>6698&#45;&gt;6700</title>
<path fill="none" stroke="red" stroke-width="0.81" d="M156.27,-230.97C158.49,-232.36 160.75,-233.78 163.01,-235.2"/>
<polygon fill="red" stroke="red" stroke-width="0.81" points="161.24,-238.22 171.57,-240.58 164.96,-232.3 161.24,-238.22"/>
<text text-anchor="middle" x="166.1" y="-228.58" font-family="Times,serif" font-size="5.00">&#45;3.526</text>
</g>
<!-- 6493&#45;&gt;1864 -->
<g id="edge40" class="edge">
<title>6493&#45;&gt;1864</title>
<path fill="none" stroke="red" stroke-width="0.35" d="M162.93,-348.32C158.78,-344.08 154.24,-339.45 149.81,-334.93"/>
<polygon fill="red" stroke="red" stroke-width="0.35" points="152.03,-332.19 142.54,-327.5 147.03,-337.09 152.03,-332.19"/>
<text text-anchor="middle" x="149.92" y="-337.12" font-family="Times,serif" font-size="5.00">&#45;1.273</text>
</g>
<!-- 6705&#45;&gt;6699 -->
<g id="edge47" class="edge">
<title>6705&#45;&gt;6699</title>
<path fill="none" stroke="red" stroke-width="0.35" d="M230.14,-198.28C224.5,-197.01 218.37,-195.63 212.38,-194.28"/>
<polygon fill="red" stroke="red" stroke-width="0.35" points="213.07,-190.84 202.54,-192.06 211.53,-197.67 213.07,-190.84"/>
<text text-anchor="middle" x="214.8" y="-197.78" font-family="Times,serif" font-size="5.00">&#45;1.273</text>
</g>
<!-- 6706&#45;&gt;6700 -->
<g id="edge54" class="edge">
<title>6706&#45;&gt;6700</title>
<path fill="none" stroke="red" stroke-width="0.35" d="M232.9,-310.85C226.55,-301.92 218.95,-291.24 212.04,-281.53"/>
<polygon fill="red" stroke="red" stroke-width="0.35" points="214.84,-279.43 206.19,-273.31 209.14,-283.48 214.84,-279.43"/>
<text text-anchor="middle" x="228.92" y="-297.69" font-family="Times,serif" font-size="5.00">&#45;1.273</text>
</g>
<!-- 1864&#45;&gt;0 -->
<g id="edge61" class="edge">
<title>1864&#45;&gt;0</title>
<path fill="none" stroke="green" stroke-width="0.13" stroke-dasharray="1,5" d="M136.38,-288.55C137.95,-285.47 139.58,-282.27 141.18,-279.12"/>
<polygon fill="green" stroke="green" stroke-width="0.13" points="144.44,-280.43 145.86,-269.93 138.2,-277.26 144.44,-280.43"/>
<text text-anchor="middle" x="133.16" y="-279.34" font-family="Times,serif" font-size="5.00">0.167</text>
</g>
<!-- 6699&#45;&gt;0 -->
<g id="edge62" class="edge">
<title>6699&#45;&gt;0</title>
<path fill="none" stroke="green" stroke-width="0.13" stroke-dasharray="1,5" d="M170.55,-209.63C168.57,-214.98 166.43,-220.72 164.39,-226.23"/>
<polygon fill="green" stroke="green" stroke-width="0.13" points="161.05,-225.16 160.85,-235.75 167.62,-227.59 161.05,-225.16"/>
<text text-anchor="middle" x="173.1" y="-219.43" font-family="Times,serif" font-size="5.00">0.167</text>
</g>
<!-- 6700&#45;&gt;0 -->
<g id="edge63" class="edge">
<title>6700&#45;&gt;0</title>
<path fill="none" stroke="green" stroke-width="0.13" stroke-dasharray="1,5" d="M167.99,-253.29C167.93,-253.29 167.87,-253.29 167.82,-253.29"/>
<polygon fill="green" stroke="green" stroke-width="0.13" points="177.67,-249.87 167.64,-253.29 177.61,-256.87 177.67,-249.87"/>
<text text-anchor="middle" x="162.28" y="-254.79" font-family="Times,serif" font-size="5.00">0.167</text>
</g>
</g>
</svg>
