<?xml version="1.0" encoding="UTF-8" standalone="no"?>
<!DOCTYPE svg PUBLIC "-//W3C//DTD SVG 1.1//EN"
 "http://www.w3.org/Graphics/SVG/1.1/DTD/svg11.dtd">
<!-- Generated by graphviz version 2.47.1 (20210417.1919)
 -->
<!-- Pages: 1 -->
<svg width="623pt" height="644pt"
 viewBox="0.00 0.00 622.59 644.27" xmlns="http://www.w3.org/2000/svg" xmlns:xlink="http://www.w3.org/1999/xlink">
<g id="graph0" class="graph" transform="scale(1 1) rotate(0) translate(4 640.27)">
<polygon fill="white" stroke="transparent" points="-4,4 -4,-640.27 618.59,-640.27 618.59,4 -4,4"/>
<!-- &#45;1 -->
<g id="node1" class="node">
<title>&#45;1</title>
<polygon fill="lightgray" stroke="black" points="277.62,-39.8 253.62,-39.8 253.62,-21.2 277.62,-21.2 277.62,-39.8"/>
<text text-anchor="middle" x="265.62" y="-27.8" font-family="Times,serif" font-size="9.00">&#45;1</text>
</g>
<!-- 5578 -->
<g id="node6" class="node">
<title>5578</title>
<ellipse fill="white" stroke="black" cx="289.91" cy="-121.53" rx="24.08" ry="24.08"/>
<text text-anchor="middle" x="289.91" y="-118.83" font-family="Times,serif" font-size="9.00">5578</text>
</g>
<!-- &#45;1&#45;&gt;5578 -->
<g id="edge1" class="edge">
<title>&#45;1&#45;&gt;5578</title>
<path fill="none" stroke="green" stroke-width="0.3" d="M268.13,-39.9C271.17,-51.29 276.45,-71.11 281.06,-88.36"/>
<polygon fill="green" stroke="green" stroke-width="0.3" points="277.71,-89.38 283.67,-98.14 284.47,-87.58 277.71,-89.38"/>
<text text-anchor="middle" x="268.97" y="-65.63" font-family="Times,serif" font-size="5.00">1.000</text>
</g>
<!-- 5740 -->
<g id="node9" class="node">
<title>5740</title>
<ellipse fill="white" stroke="black" cx="176.9" cy="-43.57" rx="24.08" ry="24.08"/>
<text text-anchor="middle" x="176.9" y="-40.87" font-family="Times,serif" font-size="9.00">5740</text>
</g>
<!-- &#45;1&#45;&gt;5740 -->
<g id="edge7" class="edge">
<title>&#45;1&#45;&gt;5740</title>
<path fill="none" stroke="green" stroke-width="0.3" d="M253.65,-32.26C242.74,-33.87 226.07,-36.32 211.06,-38.54"/>
<polygon fill="green" stroke="green" stroke-width="0.3" points="210.4,-35.1 201.02,-40.02 211.42,-42.02 210.4,-35.1"/>
<text text-anchor="middle" x="237.98" y="-36.9" font-family="Times,serif" font-size="5.00">1.000</text>
</g>
<!-- 5741 -->
<g id="node10" class="node">
<title>5741</title>
<ellipse fill="white" stroke="black" cx="304.67" cy="-54.85" rx="24.08" ry="24.08"/>
<text text-anchor="middle" x="304.67" y="-52.15" font-family="Times,serif" font-size="9.00">5741</text>
</g>
<!-- &#45;1&#45;&gt;5741 -->
<g id="edge8" class="edge">
<title>&#45;1&#45;&gt;5741</title>
<path fill="none" stroke="green" stroke-width="0.3" d="M277.55,-37.94C277.68,-38.02 277.81,-38.1 277.94,-38.18"/>
<polygon fill="green" stroke="green" stroke-width="0.3" points="273.69,-39.66 284.03,-41.98 277.39,-33.72 273.69,-39.66"/>
<text text-anchor="middle" x="272.12" y="-39.56" font-family="Times,serif" font-size="5.00">1.000</text>
</g>
<!-- 5742 -->
<g id="node11" class="node">
<title>5742</title>
<ellipse fill="white" stroke="black" cx="207.95" cy="-24.04" rx="24.08" ry="24.08"/>
<text text-anchor="middle" x="207.95" y="-21.34" font-family="Times,serif" font-size="9.00">5742</text>
</g>
<!-- &#45;1&#45;&gt;5742 -->
<g id="edge9" class="edge">
<title>&#45;1&#45;&gt;5742</title>
<path fill="none" stroke="green" stroke-width="0.3" d="M253.67,-29.16C250.28,-28.78 246.41,-28.35 242.38,-27.9"/>
<polygon fill="green" stroke="green" stroke-width="0.3" points="242.58,-24.4 232.25,-26.76 241.8,-31.35 242.58,-24.4"/>
<text text-anchor="middle" x="242.4" y="-30.03" font-family="Times,serif" font-size="5.00">1.000</text>
</g>
<!-- &#45;2 -->
<g id="node2" class="node">
<title>&#45;2</title>
<polygon fill="lightgray" stroke="black" points="300.56,-225.45 276.56,-225.45 276.56,-206.85 300.56,-206.85 300.56,-225.45"/>
<text text-anchor="middle" x="288.56" y="-213.45" font-family="Times,serif" font-size="9.00">&#45;2</text>
</g>
<!-- &#45;2&#45;&gt;5578 -->
<g id="edge2" class="edge">
<title>&#45;2&#45;&gt;5578</title>
<path fill="none" stroke="green" stroke-width="0.19" d="M288.69,-206.73C288.86,-194.87 289.16,-173.86 289.42,-155.66"/>
<polygon fill="green" stroke="green" stroke-width="0.19" points="292.92,-155.69 289.56,-145.65 285.92,-155.59 292.92,-155.69"/>
<text text-anchor="middle" x="294.68" y="-182.7" font-family="Times,serif" font-size="5.00">0.474</text>
</g>
<!-- 5734 -->
<g id="node7" class="node">
<title>5734</title>
<ellipse fill="white" stroke="black" cx="169.78" cy="-195.92" rx="24.08" ry="24.08"/>
<text text-anchor="middle" x="169.78" y="-193.22" font-family="Times,serif" font-size="9.00">5734</text>
</g>
<!-- &#45;2&#45;&gt;5734 -->
<g id="edge4" class="edge">
<title>&#45;2&#45;&gt;5734</title>
<path fill="none" stroke="green" stroke-width="0.19" d="M276.74,-214.13C259.9,-211.27 228.33,-205.89 203.83,-201.72"/>
<polygon fill="green" stroke="green" stroke-width="0.19" points="204.28,-198.24 193.83,-200.01 203.11,-205.14 204.28,-198.24"/>
<text text-anchor="middle" x="234.66" y="-209.43" font-family="Times,serif" font-size="5.00">0.474</text>
</g>
<!-- 5735 -->
<g id="node8" class="node">
<title>5735</title>
<ellipse fill="white" stroke="black" cx="283.99" cy="-306.57" rx="24.08" ry="24.08"/>
<text text-anchor="middle" x="283.99" y="-303.87" font-family="Times,serif" font-size="9.00">5735</text>
</g>
<!-- &#45;2&#45;&gt;5735 -->
<g id="edge6" class="edge">
<title>&#45;2&#45;&gt;5735</title>
<path fill="none" stroke="green" stroke-width="0.19" d="M288.09,-225.48C287.53,-236.47 286.58,-255.34 285.73,-272.12"/>
<polygon fill="green" stroke="green" stroke-width="0.19" points="282.23,-272.04 285.22,-282.2 289.22,-272.39 282.23,-272.04"/>
<text text-anchor="middle" x="281.28" y="-250.3" font-family="Times,serif" font-size="5.00">0.474</text>
</g>
<!-- 5729 -->
<g id="node12" class="node">
<title>5729</title>
<ellipse fill="white" stroke="black" cx="357.95" cy="-260.82" rx="24.08" ry="24.08"/>
<text text-anchor="middle" x="357.95" y="-258.12" font-family="Times,serif" font-size="9.00">5729</text>
</g>
<!-- &#45;2&#45;&gt;5729 -->
<g id="edge10" class="edge">
<title>&#45;2&#45;&gt;5729</title>
<path fill="none" stroke="red" stroke-width="0.3" d="M300.33,-223.73C308.23,-228.81 318.99,-235.74 329.08,-242.23"/>
<polygon fill="red" stroke="red" stroke-width="0.3" points="327.38,-245.3 337.68,-247.76 331.16,-239.41 327.38,-245.3"/>
<text text-anchor="middle" x="308.25" y="-234.48" font-family="Times,serif" font-size="5.00">&#45;1.000</text>
</g>
<!-- 5738 -->
<g id="node13" class="node">
<title>5738</title>
<ellipse fill="white" stroke="black" cx="361.82" cy="-172.03" rx="24.08" ry="24.08"/>
<text text-anchor="middle" x="361.82" y="-169.33" font-family="Times,serif" font-size="9.00">5738</text>
</g>
<!-- &#45;2&#45;&gt;5738 -->
<g id="edge11" class="edge">
<title>&#45;2&#45;&gt;5738</title>
<path fill="none" stroke="red" stroke-width="0.3" d="M300.33,-209.06C309.01,-203.83 321.22,-196.48 332.47,-189.71"/>
<polygon fill="red" stroke="red" stroke-width="0.3" points="334.44,-192.6 341.2,-184.45 330.83,-186.61 334.44,-192.6"/>
<text text-anchor="middle" x="309.94" y="-200.88" font-family="Times,serif" font-size="5.00">&#45;1.000</text>
</g>
<!-- 5739 -->
<g id="node14" class="node">
<title>5739</title>
<ellipse fill="white" stroke="black" cx="371.8" cy="-216.92" rx="24.08" ry="24.08"/>
<text text-anchor="middle" x="371.8" y="-214.22" font-family="Times,serif" font-size="9.00">5739</text>
</g>
<!-- &#45;2&#45;&gt;5739 -->
<g id="edge12" class="edge">
<title>&#45;2&#45;&gt;5739</title>
<path fill="none" stroke="red" stroke-width="0.3" d="M300.49,-216.26C310.14,-216.35 324.23,-216.48 337.34,-216.6"/>
<polygon fill="red" stroke="red" stroke-width="0.3" points="337.51,-220.1 347.54,-216.69 337.58,-213.1 337.51,-220.1"/>
<text text-anchor="middle" x="312.46" y="-217.93" font-family="Times,serif" font-size="5.00">&#45;1.000</text>
</g>
<!-- 809 -->
<g id="node15" class="node">
<title>809</title>
<ellipse fill="white" stroke="black" cx="242.83" cy="-252.43" rx="20.74" ry="20.74"/>
<ellipse fill="none" stroke="black" cx="242.83" cy="-252.43" rx="24.72" ry="24.72"/>
<text text-anchor="middle" x="242.83" y="-249.73" font-family="Times,serif" font-size="9.00">809</text>
</g>
<!-- &#45;2&#45;&gt;809 -->
<g id="edge13" class="edge">
<title>&#45;2&#45;&gt;809</title>
<path fill="none" stroke="red" stroke-width="0.52" d="M276.55,-225.68C274.65,-227.19 272.62,-228.8 270.53,-230.45"/>
<polygon fill="red" stroke="red" stroke-width="0.52" points="268.03,-227.97 262.37,-236.93 272.38,-233.46 268.03,-227.97"/>
<text text-anchor="middle" x="280" y="-229.57" font-family="Times,serif" font-size="5.00">&#45;2.103</text>
</g>
<!-- 5730 -->
<g id="node16" class="node">
<title>5730</title>
<ellipse fill="white" stroke="black" cx="231.98" cy="-191.16" rx="24.08" ry="24.08"/>
<ellipse fill="none" stroke="black" cx="231.98" cy="-191.16" rx="28.08" ry="28.08"/>
<text text-anchor="middle" x="231.98" y="-188.46" font-family="Times,serif" font-size="9.00">5730</text>
</g>
<!-- &#45;2&#45;&gt;5730 -->
<g id="edge14" class="edge">
<title>&#45;2&#45;&gt;5730</title>
<path fill="none" stroke="red" stroke-width="0.52" d="M276.56,-210.85C273.75,-209.61 270.62,-208.22 267.35,-206.78"/>
<polygon fill="red" stroke="red" stroke-width="0.52" points="268.49,-203.46 257.93,-202.62 265.66,-209.86 268.49,-203.46"/>
<text text-anchor="middle" x="268.72" y="-204.31" font-family="Times,serif" font-size="5.00">&#45;2.103</text>
</g>
<!-- 5731 -->
<g id="node17" class="node">
<title>5731</title>
<ellipse fill="white" stroke="black" cx="258.36" cy="-185.86" rx="24.08" ry="24.08"/>
<ellipse fill="none" stroke="black" cx="258.36" cy="-185.86" rx="28.08" ry="28.08"/>
<text text-anchor="middle" x="258.36" y="-183.16" font-family="Times,serif" font-size="9.00">5731</text>
</g>
<!-- &#45;2&#45;&gt;5731 -->
<g id="edge15" class="edge">
<title>&#45;2&#45;&gt;5731</title>
<path fill="none" stroke="red" stroke-width="0.52" d="M279,-206.57C278.87,-206.43 278.73,-206.29 278.59,-206.15"/>
<polygon fill="red" stroke="red" stroke-width="0.52" points="287.71,-210.33 278.17,-205.73 282.75,-215.28 287.71,-210.33"/>
<text text-anchor="middle" x="285.25" y="-201.86" font-family="Times,serif" font-size="5.00">&#45;2.103</text>
</g>
<!-- &#45;3 -->
<g id="node3" class="node">
<title>&#45;3</title>
<polygon fill="lightgray" stroke="black" points="90,-206.58 66,-206.58 66,-187.97 90,-187.97 90,-206.58"/>
<text text-anchor="middle" x="78" y="-194.58" font-family="Times,serif" font-size="9.00">&#45;3</text>
</g>
<!-- &#45;3&#45;&gt;5734 -->
<g id="edge3" class="edge">
<title>&#45;3&#45;&gt;5734</title>
<path fill="none" stroke="green" stroke-width="0.3" d="M90,-197.1C101.56,-196.93 119.6,-196.66 135.6,-196.42"/>
<polygon fill="green" stroke="green" stroke-width="0.3" points="135.79,-199.92 145.74,-196.27 135.69,-192.92 135.79,-199.92"/>
<text text-anchor="middle" x="107.18" y="-198.26" font-family="Times,serif" font-size="5.00">1.000</text>
</g>
<!-- 5743 -->
<g id="node18" class="node">
<title>5743</title>
<ellipse fill="white" stroke="black" cx="50.87" cy="-269.44" rx="24.08" ry="24.08"/>
<text text-anchor="middle" x="50.87" y="-266.74" font-family="Times,serif" font-size="9.00">5743</text>
</g>
<!-- &#45;3&#45;&gt;5743 -->
<g id="edge16" class="edge">
<title>&#45;3&#45;&gt;5743</title>
<path fill="none" stroke="green" stroke-width="0.3" d="M74.45,-206.71C71.52,-214.51 67.18,-226.07 63.01,-237.14"/>
<polygon fill="green" stroke="green" stroke-width="0.3" points="59.68,-236.05 59.44,-246.65 66.23,-238.52 59.68,-236.05"/>
<text text-anchor="middle" x="63.11" y="-223.43" font-family="Times,serif" font-size="5.00">1.000</text>
</g>
<!-- 5744 -->
<g id="node19" class="node">
<title>5744</title>
<ellipse fill="white" stroke="black" cx="49.66" cy="-145.8" rx="24.08" ry="24.08"/>
<text text-anchor="middle" x="49.66" y="-143.1" font-family="Times,serif" font-size="9.00">5744</text>
</g>
<!-- &#45;3&#45;&gt;5744 -->
<g id="edge17" class="edge">
<title>&#45;3&#45;&gt;5744</title>
<path fill="none" stroke="green" stroke-width="0.3" d="M72.8,-187.83C70.9,-184.39 68.64,-180.28 66.29,-176"/>
<polygon fill="green" stroke="green" stroke-width="0.3" points="69.3,-174.21 61.41,-167.13 63.16,-177.58 69.3,-174.21"/>
<text text-anchor="middle" x="63.92" y="-183.42" font-family="Times,serif" font-size="5.00">1.000</text>
</g>
<!-- 5745 -->
<g id="node20" class="node">
<title>5745</title>
<ellipse fill="white" stroke="black" cx="24.04" cy="-216.72" rx="24.08" ry="24.08"/>
<text text-anchor="middle" x="24.04" y="-214.02" font-family="Times,serif" font-size="9.00">5745</text>
</g>
<!-- &#45;3&#45;&gt;5745 -->
<g id="edge18" class="edge">
<title>&#45;3&#45;&gt;5745</title>
<path fill="none" stroke="green" stroke-width="0.3" d="M66.02,-201.59C63.14,-202.63 59.93,-203.79 56.59,-204.99"/>
<polygon fill="green" stroke="green" stroke-width="0.3" points="55.28,-201.74 47.06,-208.42 57.65,-208.33 55.28,-201.74"/>
<text text-anchor="middle" x="55.68" y="-204.79" font-family="Times,serif" font-size="5.00">1.000</text>
</g>
<!-- &#45;4 -->
<g id="node4" class="node">
<title>&#45;4</title>
<polygon fill="lightgray" stroke="black" points="269,-405.3 244.99,-405.3 244.99,-386.7 269,-386.7 269,-405.3"/>
<text text-anchor="middle" x="256.99" y="-393.3" font-family="Times,serif" font-size="9.00">&#45;4</text>
</g>
<!-- &#45;4&#45;&gt;5735 -->
<g id="edge5" class="edge">
<title>&#45;4&#45;&gt;5735</title>
<path fill="none" stroke="green" stroke-width="0.3" d="M259.88,-386.43C263.24,-375.31 268.96,-356.36 273.98,-339.7"/>
<polygon fill="green" stroke="green" stroke-width="0.3" points="277.46,-340.31 277,-329.72 270.76,-338.29 277.46,-340.31"/>
<text text-anchor="middle" x="261.31" y="-364.57" font-family="Times,serif" font-size="5.00">1.000</text>
</g>
<!-- 5746 -->
<g id="node21" class="node">
<title>5746</title>
<ellipse fill="white" stroke="black" cx="200" cy="-403.64" rx="24.08" ry="24.08"/>
<text text-anchor="middle" x="200" y="-400.94" font-family="Times,serif" font-size="9.00">5746</text>
</g>
<!-- &#45;4&#45;&gt;5746 -->
<g id="edge19" class="edge">
<title>&#45;4&#45;&gt;5746</title>
<path fill="none" stroke="green" stroke-width="0.3" d="M245.18,-397.58C241.83,-398.03 238,-398.54 234.03,-399.08"/>
<polygon fill="green" stroke="green" stroke-width="0.3" points="233.46,-395.62 224.02,-400.42 234.39,-402.56 233.46,-395.62"/>
<text text-anchor="middle" x="233.98" y="-399.83" font-family="Times,serif" font-size="5.00">1.000</text>
</g>
<!-- 5747 -->
<g id="node22" class="node">
<title>5747</title>
<ellipse fill="white" stroke="black" cx="169.42" cy="-382.07" rx="24.08" ry="24.08"/>
<text text-anchor="middle" x="169.42" y="-379.37" font-family="Times,serif" font-size="9.00">5747</text>
</g>
<!-- &#45;4&#45;&gt;5747 -->
<g id="edge20" class="edge">
<title>&#45;4&#45;&gt;5747</title>
<path fill="none" stroke="green" stroke-width="0.3" d="M245.18,-394.12C234.41,-392.41 217.96,-389.79 203.14,-387.44"/>
<polygon fill="green" stroke="green" stroke-width="0.3" points="203.65,-383.97 193.22,-385.86 202.55,-390.89 203.65,-383.97"/>
<text text-anchor="middle" x="229.78" y="-392.28" font-family="Times,serif" font-size="5.00">1.000</text>
</g>
<!-- 5748 -->
<g id="node23" class="node">
<title>5748</title>
<ellipse fill="white" stroke="black" cx="298.32" cy="-376.55" rx="24.08" ry="24.08"/>
<text text-anchor="middle" x="298.32" y="-373.85" font-family="Times,serif" font-size="9.00">5748</text>
</g>
<!-- &#45;4&#45;&gt;5748 -->
<g id="edge21" class="edge">
<title>&#45;4&#45;&gt;5748</title>
<path fill="none" stroke="green" stroke-width="0.3" d="M269.17,-390.27C269.31,-390.2 269.46,-390.13 269.6,-390.07"/>
<polygon fill="green" stroke="green" stroke-width="0.3" points="268.83,-394.3 276.39,-386.87 265.85,-387.96 268.83,-394.3"/>
<text text-anchor="middle" x="266.57" y="-385.67" font-family="Times,serif" font-size="5.00">1.000</text>
</g>
<!-- 0 -->
<g id="node5" class="node">
<title>0</title>
<ellipse fill="lightblue" stroke="black" cx="188.85" cy="-220.61" rx="14.49" ry="14.49"/>
<text text-anchor="middle" x="188.85" y="-217.91" font-family="Times,serif" font-size="9.00">0</text>
</g>
<!-- 4768 -->
<g id="node24" class="node">
<title>4768</title>
<ellipse fill="white" stroke="black" cx="217.18" cy="-110.53" rx="24.08" ry="24.08"/>
<ellipse fill="none" stroke="black" cx="217.18" cy="-110.53" rx="28.08" ry="28.08"/>
<text text-anchor="middle" x="217.18" y="-107.83" font-family="Times,serif" font-size="9.00">4768</text>
</g>
<!-- 5578&#45;&gt;4768 -->
<g id="edge25" class="edge">
<title>5578&#45;&gt;4768</title>
<path fill="none" stroke="green" stroke-width="0.17" stroke-dasharray="1,5" d="M266.09,-117.93C262.53,-117.39 258.78,-116.82 255.01,-116.25"/>
<polygon fill="green" stroke="green" stroke-width="0.17" points="255.5,-112.78 245.09,-114.75 254.46,-119.71 255.5,-112.78"/>
<text text-anchor="middle" x="254.93" y="-118.59" font-family="Times,serif" font-size="5.00">0.333</text>
</g>
<!-- 5732 -->
<g id="node25" class="node">
<title>5732</title>
<ellipse fill="white" stroke="black" cx="110.44" cy="-216.99" rx="24.08" ry="24.08"/>
<ellipse fill="none" stroke="black" cx="110.44" cy="-216.99" rx="28.08" ry="28.08"/>
<text text-anchor="middle" x="110.44" y="-214.29" font-family="Times,serif" font-size="9.00">5732</text>
</g>
<!-- 5734&#45;&gt;5732 -->
<g id="edge29" class="edge">
<title>5734&#45;&gt;5732</title>
<path fill="none" stroke="green" stroke-width="0.17" stroke-dasharray="1,5" d="M147.01,-204C146.9,-204.04 146.8,-204.07 146.7,-204.11"/>
<polygon fill="green" stroke="green" stroke-width="0.17" points="145.27,-200.9 137.02,-207.55 147.61,-207.5 145.27,-200.9"/>
<text text-anchor="middle" x="141.23" y="-205.56" font-family="Times,serif" font-size="5.00">0.333</text>
</g>
<!-- 5733 -->
<g id="node26" class="node">
<title>5733</title>
<ellipse fill="white" stroke="black" cx="212.95" cy="-318.47" rx="24.08" ry="24.08"/>
<ellipse fill="none" stroke="black" cx="212.95" cy="-318.47" rx="28.08" ry="28.08"/>
<text text-anchor="middle" x="212.95" y="-315.77" font-family="Times,serif" font-size="9.00">5733</text>
</g>
<!-- 5735&#45;&gt;5733 -->
<g id="edge33" class="edge">
<title>5735&#45;&gt;5733</title>
<path fill="none" stroke="green" stroke-width="0.17" stroke-dasharray="1,5" d="M259.93,-310.6C256.97,-311.09 253.89,-311.61 250.78,-312.13"/>
<polygon fill="green" stroke="green" stroke-width="0.17" points="250.18,-308.68 240.89,-313.79 251.34,-315.59 250.18,-308.68"/>
<text text-anchor="middle" x="249.73" y="-312.86" font-family="Times,serif" font-size="5.00">0.333</text>
</g>
<!-- 5740&#45;&gt;4768 -->
<g id="edge22" class="edge">
<title>5740&#45;&gt;4768</title>
<path fill="none" stroke="green" stroke-width="0.57" d="M189.43,-64.39C191.96,-68.6 194.68,-73.12 197.39,-77.63"/>
<polygon fill="green" stroke="green" stroke-width="0.57" points="194.39,-79.44 202.55,-86.2 200.39,-75.83 194.39,-79.44"/>
<text text-anchor="middle" x="187.79" y="-72.51" font-family="Times,serif" font-size="5.00">2.360</text>
</g>
<!-- 5741&#45;&gt;4768 -->
<g id="edge23" class="edge">
<title>5741&#45;&gt;4768</title>
<path fill="none" stroke="red" stroke-width="0.1" d="M284.38,-67.77C274.08,-74.32 261.32,-82.44 249.7,-89.84"/>
<polygon fill="red" stroke="red" stroke-width="0.1" points="247.65,-86.99 241.09,-95.31 251.4,-92.9 247.65,-86.99"/>
<text text-anchor="middle" x="261.41" y="-80.3" font-family="Times,serif" font-size="5.00">0.000</text>
</g>
<!-- 5742&#45;&gt;4768 -->
<g id="edge24" class="edge">
<title>5742&#45;&gt;4768</title>
<path fill="none" stroke="red" stroke-width="0.57" d="M210.52,-48.13C211.33,-55.65 212.23,-64.14 213.11,-72.38"/>
<polygon fill="red" stroke="red" stroke-width="0.57" points="209.66,-73.02 214.2,-82.59 216.62,-72.28 209.66,-73.02"/>
<text text-anchor="middle" x="218.27" y="-61.76" font-family="Times,serif" font-size="5.00">&#45;2.360</text>
</g>
<!-- 809&#45;&gt;0 -->
<g id="edge34" class="edge">
<title>809&#45;&gt;0</title>
<path fill="none" stroke="red" stroke-width="1.35" d="M221.19,-239.67C217.63,-237.58 213.95,-235.41 210.4,-233.31"/>
<polygon fill="red" stroke="red" stroke-width="1.35" points="211.88,-230.12 201.49,-228.06 208.33,-236.15 211.88,-230.12"/>
<text text-anchor="middle" x="209.34" y="-237.99" font-family="Times,serif" font-size="5.00">&#45;6.254</text>
</g>
<!-- 5730&#45;&gt;0 -->
<g id="edge35" class="edge">
<title>5730&#45;&gt;0</title>
<path fill="none" stroke="red" stroke-width="1.35" d="M208.65,-207.09C208.56,-207.15 208.48,-207.21 208.4,-207.26"/>
<polygon fill="red" stroke="red" stroke-width="1.35" points="207.12,-203.9 200.83,-212.43 211.06,-209.68 207.12,-203.9"/>
<text text-anchor="middle" x="202.06" y="-202.68" font-family="Times,serif" font-size="5.00">&#45;6.254</text>
</g>
<!-- 5731&#45;&gt;0 -->
<g id="edge36" class="edge">
<title>5731&#45;&gt;0</title>
<path fill="none" stroke="red" stroke-width="1.35" d="M233.26,-198.41C225.99,-202.04 218.11,-205.98 211.03,-209.52"/>
<polygon fill="red" stroke="red" stroke-width="1.35" points="209.39,-206.43 202.01,-214.03 212.52,-212.69 209.39,-206.43"/>
<text text-anchor="middle" x="215.69" y="-205.47" font-family="Times,serif" font-size="5.00">&#45;6.254</text>
</g>
<!-- 5743&#45;&gt;5732 -->
<g id="edge26" class="edge">
<title>5743&#45;&gt;5732</title>
<path fill="none" stroke="green" stroke-width="0.57" d="M69.07,-253.42C73,-249.95 77.25,-246.21 81.49,-242.48"/>
<polygon fill="green" stroke="green" stroke-width="0.57" points="83.81,-245.09 89.01,-235.86 79.19,-239.84 83.81,-245.09"/>
<text text-anchor="middle" x="80.9" y="-249.45" font-family="Times,serif" font-size="5.00">2.360</text>
</g>
<!-- 5744&#45;&gt;5732 -->
<g id="edge27" class="edge">
<title>5744&#45;&gt;5732</title>
<path fill="none" stroke="red" stroke-width="0.1" d="M65.31,-164.13C71.43,-171.3 78.6,-179.7 85.41,-187.67"/>
<polygon fill="red" stroke="red" stroke-width="0.1" points="82.88,-190.09 92.03,-195.43 88.2,-185.55 82.88,-190.09"/>
<text text-anchor="middle" x="69.74" y="-177.4" font-family="Times,serif" font-size="5.00">0.000</text>
</g>
<!-- 5745&#45;&gt;5732 -->
<g id="edge28" class="edge">
<title>5745&#45;&gt;5732</title>
<path fill="none" stroke="red" stroke-width="0.57" d="M48.11,-216.79C55.55,-216.81 63.94,-216.84 72.1,-216.87"/>
<polygon fill="red" stroke="red" stroke-width="0.57" points="72.21,-220.37 82.22,-216.9 72.23,-213.37 72.21,-220.37"/>
<text text-anchor="middle" x="66.56" y="-212.33" font-family="Times,serif" font-size="5.00">&#45;2.360</text>
</g>
<!-- 5746&#45;&gt;5733 -->
<g id="edge30" class="edge">
<title>5746&#45;&gt;5733</title>
<path fill="none" stroke="green" stroke-width="0.57" d="M203.67,-379.46C204.76,-372.28 205.99,-364.23 207.18,-356.4"/>
<polygon fill="green" stroke="green" stroke-width="0.57" points="210.67,-356.73 208.71,-346.31 203.75,-355.67 210.67,-356.73"/>
<text text-anchor="middle" x="199.8" y="-369.43" font-family="Times,serif" font-size="5.00">2.360</text>
</g>
<!-- 5747&#45;&gt;5733 -->
<g id="edge31" class="edge">
<title>5747&#45;&gt;5733</title>
<path fill="none" stroke="red" stroke-width="0.1" d="M183.19,-361.95C185.73,-358.24 188.43,-354.3 191.13,-350.35"/>
<polygon fill="red" stroke="red" stroke-width="0.1" points="194.23,-352.02 196.99,-341.79 188.45,-348.07 194.23,-352.02"/>
<text text-anchor="middle" x="181.54" y="-351.65" font-family="Times,serif" font-size="5.00">0.000</text>
</g>
<!-- 5748&#45;&gt;5733 -->
<g id="edge32" class="edge">
<title>5748&#45;&gt;5733</title>
<path fill="none" stroke="red" stroke-width="0.57" d="M278.09,-362.78C268.11,-355.99 255.84,-347.65 244.65,-340.03"/>
<polygon fill="red" stroke="red" stroke-width="0.57" points="246.6,-337.12 236.36,-334.39 242.66,-342.91 246.6,-337.12"/>
<text text-anchor="middle" x="254.91" y="-352.91" font-family="Times,serif" font-size="5.00">&#45;2.360</text>
</g>
<!-- 4768&#45;&gt;0 -->
<g id="edge37" class="edge">
<title>4768&#45;&gt;0</title>
<path fill="none" stroke="green" stroke-width="1.04" d="M210.18,-137.74C205.54,-155.77 199.51,-179.21 195.04,-196.56"/>
<polygon fill="green" stroke="green" stroke-width="1.04" points="191.59,-195.91 192.49,-206.47 198.37,-197.66 191.59,-195.91"/>
<text text-anchor="middle" x="196.98" y="-162.65" font-family="Times,serif" font-size="5.00">4.713</text>
</g>
<!-- 5732&#45;&gt;0 -->
<g id="edge38" class="edge">
<title>5732&#45;&gt;0</title>
<path fill="none" stroke="green" stroke-width="1.04" d="M138.75,-218.29C146.95,-218.67 155.85,-219.08 163.83,-219.45"/>
<polygon fill="green" stroke="green" stroke-width="1.04" points="163.86,-222.96 174.01,-219.92 164.18,-215.97 163.86,-222.96"/>
<text text-anchor="middle" x="145.66" y="-220.37" font-family="Times,serif" font-size="5.00">4.713</text>
</g>
<!-- 5733&#45;&gt;0 -->
<g id="edge39" class="edge">
<title>5733&#45;&gt;0</title>
<path fill="none" stroke="green" stroke-width="1.04" d="M206.23,-291.21C202.64,-276.61 198.25,-258.78 194.78,-244.69"/>
<polygon fill="green" stroke="green" stroke-width="1.04" points="198.13,-243.64 192.34,-234.76 191.33,-245.31 198.13,-243.64"/>
<text text-anchor="middle" x="194.88" y="-269.45" font-family="Times,serif" font-size="5.00">4.713</text>
</g>
<!-- 5749 -->
<g id="node27" class="node">
<title>5749</title>
<ellipse fill="white" stroke="black" cx="343.04" cy="-474.55" rx="24.08" ry="24.08"/>
<text text-anchor="middle" x="343.04" y="-471.85" font-family="Times,serif" font-size="9.00">5749</text>
</g>
<!-- 5708 -->
<g id="node36" class="node">
<title>5708</title>
<ellipse fill="white" stroke="black" cx="415" cy="-447.81" rx="24.08" ry="24.08"/>
<ellipse fill="none" stroke="black" cx="415" cy="-447.81" rx="28.08" ry="28.08"/>
<text text-anchor="middle" x="415" y="-445.11" font-family="Times,serif" font-size="9.00">5708</text>
</g>
<!-- 5749&#45;&gt;5708 -->
<g id="edge40" class="edge">
<title>5749&#45;&gt;5708</title>
<path fill="none" stroke="red" stroke-width="0.2" d="M367.21,-472.26C372.01,-470.83 377.12,-469.1 382.15,-467.21"/>
<polygon fill="red" stroke="red" stroke-width="0.2" points="383.64,-470.39 391.63,-463.42 381.04,-463.89 383.64,-470.39"/>
<text text-anchor="middle" x="377.91" y="-465.24" font-family="Times,serif" font-size="5.00">&#45;0.500</text>
</g>
<!-- 5749&#45;&gt;5708 -->
<g id="edge43" class="edge">
<title>5749&#45;&gt;5708</title>
<path fill="none" stroke="green" stroke-width="0.17" stroke-dasharray="1,5" d="M362.84,-460.5C367.4,-458.44 372.41,-456.42 377.45,-454.56"/>
<polygon fill="green" stroke="green" stroke-width="0.17" points="378.78,-457.81 387.1,-451.25 376.51,-451.19 378.78,-457.81"/>
<text text-anchor="middle" x="375.77" y="-459.03" font-family="Times,serif" font-size="5.00">0.333</text>
</g>
<!-- 5750 -->
<g id="node28" class="node">
<title>5750</title>
<ellipse fill="white" stroke="black" cx="474.55" cy="-496.23" rx="24.08" ry="24.08"/>
<text text-anchor="middle" x="474.55" y="-493.53" font-family="Times,serif" font-size="9.00">5750</text>
</g>
<!-- 5750&#45;&gt;5708 -->
<g id="edge41" class="edge">
<title>5750&#45;&gt;5708</title>
<path fill="none" stroke="red" stroke-width="0.1" d="M460.32,-476.57C456.69,-473.2 452.65,-469.71 448.52,-466.37"/>
<polygon fill="red" stroke="red" stroke-width="0.1" points="450.58,-463.54 440.53,-460.18 446.29,-469.07 450.58,-463.54"/>
<text text-anchor="middle" x="448.79" y="-466.97" font-family="Times,serif" font-size="5.00">0.000</text>
</g>
<!-- 5750&#45;&gt;5708 -->
<g id="edge44" class="edge">
<title>5750&#45;&gt;5708</title>
<path fill="none" stroke="green" stroke-width="0.17" stroke-dasharray="1,5" d="M452.4,-486.31C448.36,-483.45 444.12,-480.21 440,-476.84"/>
<polygon fill="green" stroke="green" stroke-width="0.17" points="442.2,-474.11 432.32,-470.28 437.65,-479.44 442.2,-474.11"/>
<text text-anchor="middle" x="440.58" y="-483.08" font-family="Times,serif" font-size="5.00">0.333</text>
</g>
<!-- 5751 -->
<g id="node29" class="node">
<title>5751</title>
<ellipse fill="white" stroke="black" cx="427.47" cy="-372.04" rx="24.08" ry="24.08"/>
<text text-anchor="middle" x="427.47" y="-369.34" font-family="Times,serif" font-size="9.00">5751</text>
</g>
<!-- 5751&#45;&gt;5708 -->
<g id="edge42" class="edge">
<title>5751&#45;&gt;5708</title>
<path fill="none" stroke="green" stroke-width="0.2" d="M417.47,-394.17C416.32,-399.05 415.29,-404.35 414.44,-409.66"/>
<polygon fill="green" stroke="green" stroke-width="0.2" points="410.94,-409.38 413.03,-419.77 417.87,-410.34 410.94,-409.38"/>
<text text-anchor="middle" x="410.33" y="-403.41" font-family="Times,serif" font-size="5.00">0.500</text>
</g>
<!-- 5751&#45;&gt;5708 -->
<g id="edge45" class="edge">
<title>5751&#45;&gt;5708</title>
<path fill="none" stroke="green" stroke-width="0.17" stroke-dasharray="1,5" d="M429.85,-396.21C429.37,-401.19 428.65,-406.55 427.75,-411.85"/>
<polygon fill="green" stroke="green" stroke-width="0.17" points="424.28,-411.4 425.85,-421.88 431.15,-412.71 424.28,-411.4"/>
<text text-anchor="middle" x="423.18" y="-405.53" font-family="Times,serif" font-size="5.00">0.333</text>
</g>
<!-- 5752 -->
<g id="node30" class="node">
<title>5752</title>
<ellipse fill="white" stroke="black" cx="459.04" cy="-126.55" rx="24.08" ry="24.08"/>
<text text-anchor="middle" x="459.04" y="-123.85" font-family="Times,serif" font-size="9.00">5752</text>
</g>
<!-- 5736 -->
<g id="node37" class="node">
<title>5736</title>
<ellipse fill="white" stroke="black" cx="531" cy="-99.81" rx="24.08" ry="24.08"/>
<ellipse fill="none" stroke="black" cx="531" cy="-99.81" rx="28.08" ry="28.08"/>
<text text-anchor="middle" x="531" y="-97.11" font-family="Times,serif" font-size="9.00">5736</text>
</g>
<!-- 5752&#45;&gt;5736 -->
<g id="edge46" class="edge">
<title>5752&#45;&gt;5736</title>
<path fill="none" stroke="red" stroke-width="0.2" d="M483.21,-124.26C488.01,-122.83 493.12,-121.1 498.15,-119.21"/>
<polygon fill="red" stroke="red" stroke-width="0.2" points="499.64,-122.39 507.63,-115.42 497.04,-115.89 499.64,-122.39"/>
<text text-anchor="middle" x="493.91" y="-117.24" font-family="Times,serif" font-size="5.00">&#45;0.500</text>
</g>
<!-- 5752&#45;&gt;5736 -->
<g id="edge49" class="edge">
<title>5752&#45;&gt;5736</title>
<path fill="none" stroke="green" stroke-width="0.17" stroke-dasharray="1,5" d="M478.84,-112.5C483.4,-110.44 488.41,-108.42 493.45,-106.56"/>
<polygon fill="green" stroke="green" stroke-width="0.17" points="494.78,-109.81 503.1,-103.25 492.51,-103.19 494.78,-109.81"/>
<text text-anchor="middle" x="491.77" y="-111.03" font-family="Times,serif" font-size="5.00">0.333</text>
</g>
<!-- 5753 -->
<g id="node31" class="node">
<title>5753</title>
<ellipse fill="white" stroke="black" cx="590.55" cy="-148.23" rx="24.08" ry="24.08"/>
<text text-anchor="middle" x="590.55" y="-145.53" font-family="Times,serif" font-size="9.00">5753</text>
</g>
<!-- 5753&#45;&gt;5736 -->
<g id="edge47" class="edge">
<title>5753&#45;&gt;5736</title>
<path fill="none" stroke="red" stroke-width="0.1" d="M576.32,-128.57C572.69,-125.2 568.65,-121.71 564.52,-118.37"/>
<polygon fill="red" stroke="red" stroke-width="0.1" points="566.58,-115.54 556.53,-112.18 562.29,-121.07 566.58,-115.54"/>
<text text-anchor="middle" x="564.79" y="-118.97" font-family="Times,serif" font-size="5.00">0.000</text>
</g>
<!-- 5753&#45;&gt;5736 -->
<g id="edge50" class="edge">
<title>5753&#45;&gt;5736</title>
<path fill="none" stroke="green" stroke-width="0.17" stroke-dasharray="1,5" d="M568.4,-138.31C564.36,-135.45 560.12,-132.21 556,-128.84"/>
<polygon fill="green" stroke="green" stroke-width="0.17" points="558.2,-126.11 548.32,-122.28 553.65,-131.44 558.2,-126.11"/>
<text text-anchor="middle" x="556.58" y="-135.08" font-family="Times,serif" font-size="5.00">0.333</text>
</g>
<!-- 5754 -->
<g id="node32" class="node">
<title>5754</title>
<ellipse fill="white" stroke="black" cx="543.47" cy="-24.04" rx="24.08" ry="24.08"/>
<text text-anchor="middle" x="543.47" y="-21.34" font-family="Times,serif" font-size="9.00">5754</text>
</g>
<!-- 5754&#45;&gt;5736 -->
<g id="edge48" class="edge">
<title>5754&#45;&gt;5736</title>
<path fill="none" stroke="green" stroke-width="0.2" d="M533.47,-46.17C532.32,-51.05 531.29,-56.35 530.44,-61.66"/>
<polygon fill="green" stroke="green" stroke-width="0.2" points="526.94,-61.38 529.03,-71.77 533.87,-62.34 526.94,-61.38"/>
<text text-anchor="middle" x="526.33" y="-55.41" font-family="Times,serif" font-size="5.00">0.500</text>
</g>
<!-- 5754&#45;&gt;5736 -->
<g id="edge51" class="edge">
<title>5754&#45;&gt;5736</title>
<path fill="none" stroke="green" stroke-width="0.17" stroke-dasharray="1,5" d="M545.85,-48.21C545.37,-53.19 544.65,-58.55 543.75,-63.85"/>
<polygon fill="green" stroke="green" stroke-width="0.17" points="540.28,-63.4 541.85,-73.88 547.15,-64.71 540.28,-63.4"/>
<text text-anchor="middle" x="539.18" y="-57.53" font-family="Times,serif" font-size="5.00">0.333</text>
</g>
<!-- 5755 -->
<g id="node33" class="node">
<title>5755</title>
<ellipse fill="white" stroke="black" cx="24.04" cy="-590.55" rx="24.08" ry="24.08"/>
<text text-anchor="middle" x="24.04" y="-587.85" font-family="Times,serif" font-size="9.00">5755</text>
</g>
<!-- 5737 -->
<g id="node38" class="node">
<title>5737</title>
<ellipse fill="white" stroke="black" cx="96" cy="-563.81" rx="24.08" ry="24.08"/>
<ellipse fill="none" stroke="black" cx="96" cy="-563.81" rx="28.08" ry="28.08"/>
<text text-anchor="middle" x="96" y="-561.11" font-family="Times,serif" font-size="9.00">5737</text>
</g>
<!-- 5755&#45;&gt;5737 -->
<g id="edge52" class="edge">
<title>5755&#45;&gt;5737</title>
<path fill="none" stroke="red" stroke-width="0.2" d="M48.21,-588.26C53.01,-586.83 58.12,-585.1 63.15,-583.21"/>
<polygon fill="red" stroke="red" stroke-width="0.2" points="64.64,-586.39 72.63,-579.42 62.04,-579.89 64.64,-586.39"/>
<text text-anchor="middle" x="58.91" y="-581.24" font-family="Times,serif" font-size="5.00">&#45;0.500</text>
</g>
<!-- 5755&#45;&gt;5737 -->
<g id="edge55" class="edge">
<title>5755&#45;&gt;5737</title>
<path fill="none" stroke="green" stroke-width="0.17" stroke-dasharray="1,5" d="M43.84,-576.5C48.4,-574.44 53.41,-572.42 58.45,-570.56"/>
<polygon fill="green" stroke="green" stroke-width="0.17" points="59.78,-573.81 68.1,-567.25 57.51,-567.19 59.78,-573.81"/>
<text text-anchor="middle" x="56.77" y="-575.03" font-family="Times,serif" font-size="5.00">0.333</text>
</g>
<!-- 5756 -->
<g id="node34" class="node">
<title>5756</title>
<ellipse fill="white" stroke="black" cx="155.55" cy="-612.23" rx="24.08" ry="24.08"/>
<text text-anchor="middle" x="155.55" y="-609.53" font-family="Times,serif" font-size="9.00">5756</text>
</g>
<!-- 5756&#45;&gt;5737 -->
<g id="edge53" class="edge">
<title>5756&#45;&gt;5737</title>
<path fill="none" stroke="red" stroke-width="0.1" d="M141.32,-592.57C137.69,-589.2 133.65,-585.71 129.52,-582.37"/>
<polygon fill="red" stroke="red" stroke-width="0.1" points="131.58,-579.54 121.53,-576.18 127.29,-585.07 131.58,-579.54"/>
<text text-anchor="middle" x="129.79" y="-582.97" font-family="Times,serif" font-size="5.00">0.000</text>
</g>
<!-- 5756&#45;&gt;5737 -->
<g id="edge56" class="edge">
<title>5756&#45;&gt;5737</title>
<path fill="none" stroke="green" stroke-width="0.17" stroke-dasharray="1,5" d="M133.4,-602.31C129.36,-599.45 125.12,-596.21 121,-592.84"/>
<polygon fill="green" stroke="green" stroke-width="0.17" points="123.2,-590.11 113.32,-586.28 118.65,-595.44 123.2,-590.11"/>
<text text-anchor="middle" x="121.58" y="-599.08" font-family="Times,serif" font-size="5.00">0.333</text>
</g>
<!-- 5757 -->
<g id="node35" class="node">
<title>5757</title>
<ellipse fill="white" stroke="black" cx="108.47" cy="-488.04" rx="24.08" ry="24.08"/>
<text text-anchor="middle" x="108.47" y="-485.34" font-family="Times,serif" font-size="9.00">5757</text>
</g>
<!-- 5757&#45;&gt;5737 -->
<g id="edge54" class="edge">
<title>5757&#45;&gt;5737</title>
<path fill="none" stroke="green" stroke-width="0.2" d="M98.47,-510.17C97.32,-515.05 96.29,-520.35 95.44,-525.66"/>
<polygon fill="green" stroke="green" stroke-width="0.2" points="91.94,-525.38 94.03,-535.77 98.87,-526.34 91.94,-525.38"/>
<text text-anchor="middle" x="91.33" y="-519.41" font-family="Times,serif" font-size="5.00">0.500</text>
</g>
<!-- 5757&#45;&gt;5737 -->
<g id="edge57" class="edge">
<title>5757&#45;&gt;5737</title>
<path fill="none" stroke="green" stroke-width="0.17" stroke-dasharray="1,5" d="M110.85,-512.21C110.37,-517.19 109.65,-522.55 108.75,-527.85"/>
<polygon fill="green" stroke="green" stroke-width="0.17" points="105.28,-527.4 106.85,-537.88 112.15,-528.71 105.28,-527.4"/>
<text text-anchor="middle" x="104.18" y="-521.53" font-family="Times,serif" font-size="5.00">0.333</text>
</g>
</g>
</svg>
