<?xml version="1.0" encoding="UTF-8" standalone="no"?>
<!DOCTYPE svg PUBLIC "-//W3C//DTD SVG 1.1//EN"
 "http://www.w3.org/Graphics/SVG/1.1/DTD/svg11.dtd">
<!-- Generated by graphviz version 2.47.1 (20210417.1919)
 -->
<!-- Pages: 1 -->
<svg width="371pt" height="320pt"
 viewBox="0.00 0.00 371.00 320.08" xmlns="http://www.w3.org/2000/svg" xmlns:xlink="http://www.w3.org/1999/xlink">
<g id="graph0" class="graph" transform="scale(1 1) rotate(0) translate(4 316.08)">
<polygon fill="white" stroke="transparent" points="-4,4 -4,-316.08 367,-316.08 367,4 -4,4"/>
<!-- &#45;1 -->
<g id="node1" class="node">
<title>&#45;1</title>
<polygon fill="lightgray" stroke="black" points="227.75,-155.98 203.75,-155.98 203.75,-137.38 227.75,-137.38 227.75,-155.98"/>
<text text-anchor="middle" x="215.75" y="-143.98" font-family="Times,serif" font-size="9.00">&#45;1</text>
</g>
<!-- 6241 -->
<g id="node15" class="node">
<title>6241</title>
<ellipse fill="white" stroke="black" cx="286.96" cy="-136.04" rx="24.08" ry="24.08"/>
<ellipse fill="none" stroke="black" cx="286.96" cy="-136.04" rx="28.08" ry="28.08"/>
<text text-anchor="middle" x="286.96" y="-133.34" font-family="Times,serif" font-size="9.00">6241</text>
</g>
<!-- &#45;1&#45;&gt;6241 -->
<g id="edge27" class="edge">
<title>&#45;1&#45;&gt;6241</title>
<path fill="none" stroke="green" stroke-width="0.85" d="M227.51,-144.92C233.56,-144.02 241.32,-142.86 249.22,-141.68"/>
<polygon fill="green" stroke="green" stroke-width="0.85" points="249.81,-145.13 259.18,-140.19 248.77,-138.21 249.81,-145.13"/>
<text text-anchor="middle" x="232.74" y="-144.8" font-family="Times,serif" font-size="5.00">3.730</text>
</g>
<!-- &#45;2 -->
<g id="node2" class="node">
<title>&#45;2</title>
<polygon fill="lightgray" stroke="black" points="172.91,-244.03 148.9,-244.03 148.9,-225.43 172.91,-225.43 172.91,-244.03"/>
<text text-anchor="middle" x="160.91" y="-232.03" font-family="Times,serif" font-size="9.00">&#45;2</text>
</g>
<!-- 0 -->
<g id="node5" class="node">
<title>0</title>
<ellipse fill="lightblue" stroke="black" cx="154.23" cy="-158.29" rx="14.49" ry="14.49"/>
<ellipse fill="none" stroke="black" cx="154.23" cy="-158.29" rx="18.49" ry="18.49"/>
<text text-anchor="middle" x="154.23" y="-155.59" font-family="Times,serif" font-size="9.00">0</text>
</g>
<!-- &#45;2&#45;&gt;0 -->
<g id="edge1" class="edge">
<title>&#45;2&#45;&gt;0</title>
<path fill="none" stroke="red" stroke-width="0.91" d="M164.65,-225.26C165.73,-215.39 164.99,-199.45 163.16,-185.6"/>
<polygon fill="red" stroke="red" stroke-width="0.91" points="166.59,-184.87 161.56,-175.55 159.68,-185.97 166.59,-184.87"/>
<text text-anchor="middle" x="157.45" y="-200.93" font-family="Times,serif" font-size="5.00">&#45;4.074</text>
</g>
<!-- &#45;2&#45;&gt;0 -->
<g id="edge5" class="edge">
<title>&#45;2&#45;&gt;0</title>
<path fill="none" stroke="green" stroke-width="0.15" stroke-dasharray="1,5" d="M155.32,-225.15C152.68,-215.53 150.74,-200.25 150.16,-186.72"/>
<polygon fill="green" stroke="green" stroke-width="0.15" points="153.66,-186.34 150,-176.39 146.66,-186.45 153.66,-186.34"/>
<text text-anchor="middle" x="147.11" y="-207.44" font-family="Times,serif" font-size="5.00">0.250</text>
</g>
<!-- &#45;3 -->
<g id="node3" class="node">
<title>&#45;3</title>
<polygon fill="lightgray" stroke="black" points="227.75,-239.98 203.75,-239.98 203.75,-221.38 227.75,-221.38 227.75,-239.98"/>
<text text-anchor="middle" x="215.75" y="-227.98" font-family="Times,serif" font-size="9.00">&#45;3</text>
</g>
<!-- 6448 -->
<g id="node16" class="node">
<title>6448</title>
<ellipse fill="white" stroke="black" cx="286.96" cy="-220.04" rx="24.08" ry="24.08"/>
<ellipse fill="none" stroke="black" cx="286.96" cy="-220.04" rx="28.08" ry="28.08"/>
<text text-anchor="middle" x="286.96" y="-217.34" font-family="Times,serif" font-size="9.00">6448</text>
</g>
<!-- &#45;3&#45;&gt;6448 -->
<g id="edge28" class="edge">
<title>&#45;3&#45;&gt;6448</title>
<path fill="none" stroke="green" stroke-width="0.85" d="M227.51,-228.92C233.56,-228.02 241.32,-226.86 249.22,-225.68"/>
<polygon fill="green" stroke="green" stroke-width="0.85" points="249.81,-229.13 259.18,-224.19 248.77,-222.21 249.81,-229.13"/>
<text text-anchor="middle" x="232.74" y="-228.8" font-family="Times,serif" font-size="5.00">3.730</text>
</g>
<!-- &#45;4 -->
<g id="node4" class="node">
<title>&#45;4</title>
<polygon fill="lightgray" stroke="black" points="275.75,-59.98 251.75,-59.98 251.75,-41.38 275.75,-41.38 275.75,-59.98"/>
<text text-anchor="middle" x="263.75" y="-47.98" font-family="Times,serif" font-size="9.00">&#45;4</text>
</g>
<!-- 6449 -->
<g id="node17" class="node">
<title>6449</title>
<ellipse fill="white" stroke="black" cx="334.96" cy="-40.04" rx="24.08" ry="24.08"/>
<ellipse fill="none" stroke="black" cx="334.96" cy="-40.04" rx="28.08" ry="28.08"/>
<text text-anchor="middle" x="334.96" y="-37.34" font-family="Times,serif" font-size="9.00">6449</text>
</g>
<!-- &#45;4&#45;&gt;6449 -->
<g id="edge29" class="edge">
<title>&#45;4&#45;&gt;6449</title>
<path fill="none" stroke="green" stroke-width="0.85" d="M275.51,-48.92C281.56,-48.02 289.32,-46.86 297.22,-45.68"/>
<polygon fill="green" stroke="green" stroke-width="0.85" points="297.81,-49.13 307.18,-44.19 296.77,-42.21 297.81,-49.13"/>
<text text-anchor="middle" x="280.74" y="-48.8" font-family="Times,serif" font-size="5.00">3.730</text>
</g>
<!-- 263 -->
<g id="node6" class="node">
<title>263</title>
<ellipse fill="white" stroke="black" cx="143.29" cy="-61.21" rx="20.72" ry="20.72"/>
<text text-anchor="middle" x="143.29" y="-58.51" font-family="Times,serif" font-size="9.00">263</text>
</g>
<!-- 263&#45;&gt;0 -->
<g id="edge2" class="edge">
<title>263&#45;&gt;0</title>
<path fill="none" stroke="red" stroke-width="0.29" d="M140,-81.95C140.29,-96.27 142.26,-115.45 144.93,-131"/>
<polygon fill="red" stroke="red" stroke-width="0.29" points="141.55,-131.93 146.89,-141.08 148.42,-130.6 141.55,-131.93"/>
<text text-anchor="middle" x="148.92" y="-107.97" font-family="Times,serif" font-size="5.00">&#45;0.930</text>
</g>
<!-- 263&#45;&gt;0 -->
<g id="edge6" class="edge">
<title>263&#45;&gt;0</title>
<path fill="none" stroke="green" stroke-width="0.15" stroke-dasharray="1,5" d="M151.12,-80.7C154.02,-94.72 156.37,-113.86 157.22,-129.62"/>
<polygon fill="green" stroke="green" stroke-width="0.15" points="153.73,-130 157.55,-139.88 160.72,-129.77 153.73,-130"/>
<text text-anchor="middle" x="159.79" y="-100.66" font-family="Times,serif" font-size="5.00">0.250</text>
</g>
<!-- 5507 -->
<g id="node12" class="node">
<title>5507</title>
<ellipse fill="white" stroke="black" cx="52.04" cy="-82.18" rx="24.08" ry="24.08"/>
<ellipse fill="none" stroke="black" cx="52.04" cy="-82.18" rx="28.08" ry="28.08"/>
<text text-anchor="middle" x="52.04" y="-79.48" font-family="Times,serif" font-size="9.00">5507</text>
</g>
<!-- 263&#45;&gt;5507 -->
<g id="edge9" class="edge">
<title>263&#45;&gt;5507</title>
<path fill="none" stroke="red" stroke-width="0.33" d="M122.22,-60.23C111.77,-61.65 98.87,-64.28 87,-67.35"/>
<polygon fill="red" stroke="red" stroke-width="0.33" points="86.05,-63.97 77.34,-70 87.91,-70.72 86.05,-63.97"/>
<text text-anchor="middle" x="98.15" y="-65.29" font-family="Times,serif" font-size="5.00">&#45;1.172</text>
</g>
<!-- 263&#45;&gt;5507 -->
<g id="edge12" class="edge">
<title>263&#45;&gt;5507</title>
<path fill="none" stroke="green" stroke-width="0.17" stroke-dasharray="1,5" d="M124.76,-71.29C114.74,-74.58 101.99,-77.83 89.97,-80.26"/>
<polygon fill="green" stroke="green" stroke-width="0.17" points="89.31,-76.82 80.12,-82.09 90.59,-83.71 89.31,-76.82"/>
<text text-anchor="middle" x="101.74" y="-71.28" font-family="Times,serif" font-size="5.00">0.333</text>
</g>
<!-- 6446 -->
<g id="node13" class="node">
<title>6446</title>
<ellipse fill="white" stroke="black" cx="91.61" cy="-28.04" rx="24.08" ry="24.08"/>
<ellipse fill="none" stroke="black" cx="91.61" cy="-28.04" rx="28.08" ry="28.08"/>
<text text-anchor="middle" x="91.61" y="-25.34" font-family="Times,serif" font-size="9.00">6446</text>
</g>
<!-- 263&#45;&gt;6446 -->
<g id="edge15" class="edge">
<title>263&#45;&gt;6446</title>
<path fill="none" stroke="red" stroke-width="0.33" d="M129.82,-44.98C128.81,-44.22 127.76,-43.47 126.7,-42.71"/>
<polygon fill="red" stroke="red" stroke-width="0.33" points="128.49,-39.7 118.21,-37.13 124.64,-45.55 128.49,-39.7"/>
<text text-anchor="middle" x="131.49" y="-39.35" font-family="Times,serif" font-size="5.00">&#45;1.172</text>
</g>
<!-- 263&#45;&gt;6446 -->
<g id="edge18" class="edge">
<title>263&#45;&gt;6446</title>
<path fill="none" stroke="green" stroke-width="0.17" stroke-dasharray="1,5" d="M122.93,-55.72C121.82,-55.11 120.69,-54.48 119.57,-53.83"/>
<polygon fill="green" stroke="green" stroke-width="0.17" points="121.29,-50.78 110.96,-48.43 117.57,-56.71 121.29,-50.78"/>
<text text-anchor="middle" x="115.62" y="-56.27" font-family="Times,serif" font-size="5.00">0.333</text>
</g>
<!-- 6447 -->
<g id="node14" class="node">
<title>6447</title>
<ellipse fill="white" stroke="black" cx="196.27" cy="-83.34" rx="24.08" ry="24.08"/>
<ellipse fill="none" stroke="black" cx="196.27" cy="-83.34" rx="28.08" ry="28.08"/>
<text text-anchor="middle" x="196.27" y="-80.64" font-family="Times,serif" font-size="9.00">6447</text>
</g>
<!-- 263&#45;&gt;6447 -->
<g id="edge21" class="edge">
<title>263&#45;&gt;6447</title>
<path fill="none" stroke="red" stroke-width="0.33" d="M159.33,-74.92C159.42,-74.97 159.51,-75.01 159.6,-75.06"/>
<polygon fill="red" stroke="red" stroke-width="0.33" points="157.89,-78.13 168.45,-79.02 160.76,-71.74 157.89,-78.13"/>
<text text-anchor="middle" x="165.92" y="-76.49" font-family="Times,serif" font-size="5.00">&#45;1.172</text>
</g>
<!-- 263&#45;&gt;6447 -->
<g id="edge24" class="edge">
<title>263&#45;&gt;6447</title>
<path fill="none" stroke="green" stroke-width="0.17" stroke-dasharray="1,5" d="M164.32,-62.98C164.41,-63.01 164.51,-63.04 164.6,-63.08"/>
<polygon fill="green" stroke="green" stroke-width="0.17" points="163.06,-66.23 173.65,-66.58 165.59,-59.7 163.06,-66.23"/>
<text text-anchor="middle" x="170.09" y="-64.53" font-family="Times,serif" font-size="5.00">0.333</text>
</g>
<!-- 6444 -->
<g id="node7" class="node">
<title>6444</title>
<ellipse fill="white" stroke="black" cx="99.87" cy="-120.84" rx="24.08" ry="24.08"/>
<text text-anchor="middle" x="99.87" y="-118.14" font-family="Times,serif" font-size="9.00">6444</text>
</g>
<!-- 6444&#45;&gt;0 -->
<g id="edge3" class="edge">
<title>6444&#45;&gt;0</title>
<path fill="none" stroke="red" stroke-width="0.1" d="M115.51,-139.5C119.24,-142.38 123.32,-145.27 127.39,-147.91"/>
<polygon fill="red" stroke="red" stroke-width="0.1" points="125.78,-151.02 136.15,-153.2 129.39,-145.03 125.78,-151.02"/>
<text text-anchor="middle" x="127.07" y="-145.2" font-family="Times,serif" font-size="5.00">0.000</text>
</g>
<!-- 6444&#45;&gt;0 -->
<g id="edge7" class="edge">
<title>6444&#45;&gt;0</title>
<path fill="none" stroke="green" stroke-width="0.15" stroke-dasharray="1,5" d="M122.87,-128.8C126.9,-131.26 131.05,-134.04 134.97,-136.91"/>
<polygon fill="green" stroke="green" stroke-width="0.15" points="132.99,-139.81 143.03,-143.21 137.3,-134.29 132.99,-139.81"/>
<text text-anchor="middle" x="134.55" y="-134.36" font-family="Times,serif" font-size="5.00">0.250</text>
</g>
<!-- 6444&#45;&gt;5507 -->
<g id="edge10" class="edge">
<title>6444&#45;&gt;5507</title>
<path fill="none" stroke="red" stroke-width="0.1" d="M85.92,-101.12C85.75,-100.97 85.59,-100.82 85.42,-100.67"/>
<polygon fill="red" stroke="red" stroke-width="0.1" points="87.52,-97.87 77.59,-94.19 83.06,-103.26 87.52,-97.87"/>
<text text-anchor="middle" x="91.3" y="-96.4" font-family="Times,serif" font-size="5.00">0.000</text>
</g>
<!-- 6444&#45;&gt;5507 -->
<g id="edge13" class="edge">
<title>6444&#45;&gt;5507</title>
<path fill="none" stroke="green" stroke-width="0.17" stroke-dasharray="1,5" d="M77.66,-111.33C77.48,-111.2 77.3,-111.07 77.12,-110.94"/>
<polygon fill="green" stroke="green" stroke-width="0.17" points="79.16,-108.09 69.14,-104.64 74.82,-113.58 79.16,-108.09"/>
<text text-anchor="middle" x="71.77" y="-112.64" font-family="Times,serif" font-size="5.00">0.333</text>
</g>
<!-- 6444&#45;&gt;6446 -->
<g id="edge16" class="edge">
<title>6444&#45;&gt;6446</title>
<path fill="none" stroke="red" stroke-width="0.1" d="M103.72,-96.9C103.59,-87.15 102.79,-75.66 101.56,-64.88"/>
<polygon fill="red" stroke="red" stroke-width="0.1" points="105.01,-64.32 100.24,-54.86 98.07,-65.22 105.01,-64.32"/>
<text text-anchor="middle" x="97.01" y="-82.39" font-family="Times,serif" font-size="5.00">0.000</text>
</g>
<!-- 6444&#45;&gt;6446 -->
<g id="edge19" class="edge">
<title>6444&#45;&gt;6446</title>
<path fill="none" stroke="green" stroke-width="0.17" stroke-dasharray="1,5" d="M91.86,-97.95C90.27,-88.33 89.02,-76.88 88.34,-66.06"/>
<polygon fill="green" stroke="green" stroke-width="0.17" points="91.83,-65.78 87.86,-55.96 84.83,-66.11 91.83,-65.78"/>
<text text-anchor="middle" x="87.29" y="-77.51" font-family="Times,serif" font-size="5.00">0.333</text>
</g>
<!-- 6444&#45;&gt;6447 -->
<g id="edge22" class="edge">
<title>6444&#45;&gt;6447</title>
<path fill="none" stroke="red" stroke-width="0.1" d="M123.84,-117.7C135.9,-114.06 150.7,-108.57 163.77,-102.97"/>
<polygon fill="red" stroke="red" stroke-width="0.1" points="165.21,-106.17 172.92,-98.9 162.36,-99.77 165.21,-106.17"/>
<text text-anchor="middle" x="149.43" y="-111.84" font-family="Times,serif" font-size="5.00">0.000</text>
</g>
<!-- 6444&#45;&gt;6447 -->
<g id="edge25" class="edge">
<title>6444&#45;&gt;6447</title>
<path fill="none" stroke="green" stroke-width="0.17" stroke-dasharray="1,5" d="M119.66,-106.96C131.01,-101.49 145.63,-95.54 159.04,-90.83"/>
<polygon fill="green" stroke="green" stroke-width="0.17" points="160.17,-94.14 168.54,-87.65 157.95,-87.51 160.17,-94.14"/>
<text text-anchor="middle" x="133.73" y="-100.4" font-family="Times,serif" font-size="5.00">0.333</text>
</g>
<!-- 6445 -->
<g id="node8" class="node">
<title>6445</title>
<ellipse fill="white" stroke="black" cx="126.69" cy="-94.47" rx="24.08" ry="24.08"/>
<text text-anchor="middle" x="126.69" y="-91.77" font-family="Times,serif" font-size="9.00">6445</text>
</g>
<!-- 6445&#45;&gt;0 -->
<g id="edge4" class="edge">
<title>6445&#45;&gt;0</title>
<path fill="none" stroke="green" stroke-width="0.29" d="M130.11,-118.62C132.1,-124.09 134.52,-129.88 137.09,-135.3"/>
<polygon fill="green" stroke="green" stroke-width="0.29" points="134.13,-137.2 141.8,-144.51 140.36,-134.01 134.13,-137.2"/>
<text text-anchor="middle" x="139.23" y="-128.46" font-family="Times,serif" font-size="5.00">0.930</text>
</g>
<!-- 6445&#45;&gt;0 -->
<g id="edge8" class="edge">
<title>6445&#45;&gt;0</title>
<path fill="none" stroke="green" stroke-width="0.15" stroke-dasharray="1,5" d="M141.92,-113.53C144.53,-118.72 147.08,-124.46 149.27,-130.05"/>
<polygon fill="green" stroke="green" stroke-width="0.15" points="146.08,-131.54 152.73,-139.79 152.68,-129.2 146.08,-131.54"/>
<text text-anchor="middle" x="151.22" y="-123.29" font-family="Times,serif" font-size="5.00">0.250</text>
</g>
<!-- 6445&#45;&gt;5507 -->
<g id="edge11" class="edge">
<title>6445&#45;&gt;5507</title>
<path fill="none" stroke="green" stroke-width="0.33" d="M104.51,-84.43C99.98,-83.37 95.1,-82.42 90.2,-81.62"/>
<polygon fill="green" stroke="green" stroke-width="0.33" points="90.61,-78.14 80.22,-80.21 89.63,-85.07 90.61,-78.14"/>
<text text-anchor="middle" x="91.73" y="-84.52" font-family="Times,serif" font-size="5.00">1.172</text>
</g>
<!-- 6445&#45;&gt;5507 -->
<g id="edge14" class="edge">
<title>6445&#45;&gt;5507</title>
<path fill="none" stroke="green" stroke-width="0.17" stroke-dasharray="1,5" d="M102.46,-96.86C97.83,-96.41 92.9,-95.75 88.01,-94.94"/>
<polygon fill="green" stroke="green" stroke-width="0.17" points="88.58,-91.48 78.1,-93.08 87.28,-98.36 88.58,-91.48"/>
<text text-anchor="middle" x="95.23" y="-91.4" font-family="Times,serif" font-size="5.00">0.333</text>
</g>
<!-- 6445&#45;&gt;6446 -->
<g id="edge17" class="edge">
<title>6445&#45;&gt;6446</title>
<path fill="none" stroke="green" stroke-width="0.33" d="M121.36,-70.87C119.48,-66.66 117.31,-62.22 115,-57.87"/>
<polygon fill="green" stroke="green" stroke-width="0.33" points="118.05,-56.16 110.12,-49.13 111.94,-59.57 118.05,-56.16"/>
<text text-anchor="middle" x="112.55" y="-65.87" font-family="Times,serif" font-size="5.00">1.172</text>
</g>
<!-- 6445&#45;&gt;6446 -->
<g id="edge20" class="edge">
<title>6445&#45;&gt;6446</title>
<path fill="none" stroke="green" stroke-width="0.17" stroke-dasharray="1,5" d="M110.21,-76.76C107.8,-72.83 105.36,-68.53 103.06,-64.17"/>
<polygon fill="green" stroke="green" stroke-width="0.17" points="106.19,-62.6 98.59,-55.22 99.93,-65.73 106.19,-62.6"/>
<text text-anchor="middle" x="112.26" y="-71.96" font-family="Times,serif" font-size="5.00">0.333</text>
</g>
<!-- 6445&#45;&gt;6447 -->
<g id="edge23" class="edge">
<title>6445&#45;&gt;6447</title>
<path fill="none" stroke="green" stroke-width="0.33" d="M150.87,-97.08C153.89,-96.79 157.02,-96.4 160.17,-95.93"/>
<polygon fill="green" stroke="green" stroke-width="0.33" points="160.89,-99.36 170.15,-94.2 159.7,-92.46 160.89,-99.36"/>
<text text-anchor="middle" x="161.15" y="-92.01" font-family="Times,serif" font-size="5.00">1.172</text>
</g>
<!-- 6445&#45;&gt;6447 -->
<g id="edge26" class="edge">
<title>6445&#45;&gt;6447</title>
<path fill="none" stroke="green" stroke-width="0.17" stroke-dasharray="1,5" d="M148.85,-84.44C151.81,-83.78 154.91,-83.17 158.04,-82.63"/>
<polygon fill="green" stroke="green" stroke-width="0.17" points="158.68,-86.08 168.06,-81.16 157.66,-79.15 158.68,-86.08"/>
<text text-anchor="middle" x="159.07" y="-85.03" font-family="Times,serif" font-size="5.00">0.333</text>
</g>
<!-- 6443 -->
<g id="node9" class="node">
<title>6443</title>
<ellipse fill="white" stroke="black" cx="96.04" cy="-228.04" rx="24.08" ry="24.08"/>
<text text-anchor="middle" x="96.04" y="-225.34" font-family="Times,serif" font-size="9.00">6443</text>
</g>
<!-- 6450 -->
<g id="node10" class="node">
<title>6450</title>
<ellipse fill="white" stroke="black" cx="24.04" cy="-288.04" rx="24.08" ry="24.08"/>
<text text-anchor="middle" x="24.04" y="-285.34" font-family="Times,serif" font-size="9.00">6450</text>
</g>
<!-- 6451 -->
<g id="node11" class="node">
<title>6451</title>
<ellipse fill="white" stroke="black" cx="24.04" cy="-216.04" rx="24.08" ry="24.08"/>
<text text-anchor="middle" x="24.04" y="-213.34" font-family="Times,serif" font-size="9.00">6451</text>
</g>
</g>
</svg>
