<?xml version="1.0" encoding="utf-8" standalone="no"?>
<!DOCTYPE svg PUBLIC "-//W3C//DTD SVG 1.1//EN"
  "http://www.w3.org/Graphics/SVG/1.1/DTD/svg11.dtd">
<!-- Created with matplotlib (https://matplotlib.org/) -->
<svg height="345.6pt" version="1.1" viewBox="0 0 460.8 345.6" width="460.8pt" xmlns="http://www.w3.org/2000/svg" xmlns:xlink="http://www.w3.org/1999/xlink">
 <metadata>
  <rdf:RDF xmlns:cc="http://creativecommons.org/ns#" xmlns:dc="http://purl.org/dc/elements/1.1/" xmlns:rdf="http://www.w3.org/1999/02/22-rdf-syntax-ns#">
   <cc:Work>
    <dc:type rdf:resource="http://purl.org/dc/dcmitype/StillImage"/>
    <dc:date>2021-06-15T22:34:04.161327</dc:date>
    <dc:format>image/svg+xml</dc:format>
    <dc:creator>
     <cc:Agent>
      <dc:title>Matplotlib v3.3.0, https://matplotlib.org/</dc:title>
     </cc:Agent>
    </dc:creator>
   </cc:Work>
  </rdf:RDF>
 </metadata>
 <defs>
  <style type="text/css">*{stroke-linecap:butt;stroke-linejoin:round;}</style>
 </defs>
 <g id="figure_1">
  <g id="patch_1">
   <path d="M 0 345.6 
L 460.8 345.6 
L 460.8 0 
L 0 0 
z
" style="fill:#ffffff;"/>
  </g>
  <g id="axes_1">
   <g id="patch_2">
    <path d="M 57.6 307.584 
L 414.72 307.584 
L 414.72 41.472 
L 57.6 41.472 
z
" style="fill:#ffffff;"/>
   </g>
   <g id="matplotlib.axis_1">
    <g id="xtick_1">
     <g id="line2d_1">
      <path clip-path="url(#p45243f8147)" d="M 73.832727 307.584 
L 73.832727 41.472 
" style="fill:none;stroke:#b0b0b0;stroke-linecap:square;stroke-width:0.8;"/>
     </g>
     <g id="line2d_2">
      <defs>
       <path d="M 0 0 
L 0 3.5 
" id="mb7fd90fe49" style="stroke:#000000;stroke-width:0.8;"/>
      </defs>
      <g>
       <use style="stroke:#000000;stroke-width:0.8;" x="73.832727" xlink:href="#mb7fd90fe49" y="307.584"/>
      </g>
     </g>
     <g id="text_1">
      <!-- 0 -->
      <g transform="translate(70.651477 322.182437)scale(0.1 -0.1)">
       <defs>
        <path d="M 31.78125 66.40625 
Q 24.171875 66.40625 20.328125 58.90625 
Q 16.5 51.421875 16.5 36.375 
Q 16.5 21.390625 20.328125 13.890625 
Q 24.171875 6.390625 31.78125 6.390625 
Q 39.453125 6.390625 43.28125 13.890625 
Q 47.125 21.390625 47.125 36.375 
Q 47.125 51.421875 43.28125 58.90625 
Q 39.453125 66.40625 31.78125 66.40625 
z
M 31.78125 74.21875 
Q 44.046875 74.21875 50.515625 64.515625 
Q 56.984375 54.828125 56.984375 36.375 
Q 56.984375 17.96875 50.515625 8.265625 
Q 44.046875 -1.421875 31.78125 -1.421875 
Q 19.53125 -1.421875 13.0625 8.265625 
Q 6.59375 17.96875 6.59375 36.375 
Q 6.59375 54.828125 13.0625 64.515625 
Q 19.53125 74.21875 31.78125 74.21875 
z
" id="DejaVuSans-48"/>
       </defs>
       <use xlink:href="#DejaVuSans-48"/>
      </g>
     </g>
    </g>
    <g id="xtick_2">
     <g id="line2d_3">
      <path clip-path="url(#p45243f8147)" d="M 138.893758 307.584 
L 138.893758 41.472 
" style="fill:none;stroke:#b0b0b0;stroke-linecap:square;stroke-width:0.8;"/>
     </g>
     <g id="line2d_4">
      <g>
       <use style="stroke:#000000;stroke-width:0.8;" x="138.893758" xlink:href="#mb7fd90fe49" y="307.584"/>
      </g>
     </g>
     <g id="text_2">
      <!-- 100 -->
      <g transform="translate(129.350008 322.182437)scale(0.1 -0.1)">
       <defs>
        <path d="M 12.40625 8.296875 
L 28.515625 8.296875 
L 28.515625 63.921875 
L 10.984375 60.40625 
L 10.984375 69.390625 
L 28.421875 72.90625 
L 38.28125 72.90625 
L 38.28125 8.296875 
L 54.390625 8.296875 
L 54.390625 0 
L 12.40625 0 
z
" id="DejaVuSans-49"/>
       </defs>
       <use xlink:href="#DejaVuSans-49"/>
       <use x="63.623047" xlink:href="#DejaVuSans-48"/>
       <use x="127.246094" xlink:href="#DejaVuSans-48"/>
      </g>
     </g>
    </g>
    <g id="xtick_3">
     <g id="line2d_5">
      <path clip-path="url(#p45243f8147)" d="M 203.95479 307.584 
L 203.95479 41.472 
" style="fill:none;stroke:#b0b0b0;stroke-linecap:square;stroke-width:0.8;"/>
     </g>
     <g id="line2d_6">
      <g>
       <use style="stroke:#000000;stroke-width:0.8;" x="203.95479" xlink:href="#mb7fd90fe49" y="307.584"/>
      </g>
     </g>
     <g id="text_3">
      <!-- 200 -->
      <g transform="translate(194.41104 322.182437)scale(0.1 -0.1)">
       <defs>
        <path d="M 19.1875 8.296875 
L 53.609375 8.296875 
L 53.609375 0 
L 7.328125 0 
L 7.328125 8.296875 
Q 12.9375 14.109375 22.625 23.890625 
Q 32.328125 33.6875 34.8125 36.53125 
Q 39.546875 41.84375 41.421875 45.53125 
Q 43.3125 49.21875 43.3125 52.78125 
Q 43.3125 58.59375 39.234375 62.25 
Q 35.15625 65.921875 28.609375 65.921875 
Q 23.96875 65.921875 18.8125 64.3125 
Q 13.671875 62.703125 7.8125 59.421875 
L 7.8125 69.390625 
Q 13.765625 71.78125 18.9375 73 
Q 24.125 74.21875 28.421875 74.21875 
Q 39.75 74.21875 46.484375 68.546875 
Q 53.21875 62.890625 53.21875 53.421875 
Q 53.21875 48.921875 51.53125 44.890625 
Q 49.859375 40.875 45.40625 35.40625 
Q 44.1875 33.984375 37.640625 27.21875 
Q 31.109375 20.453125 19.1875 8.296875 
z
" id="DejaVuSans-50"/>
       </defs>
       <use xlink:href="#DejaVuSans-50"/>
       <use x="63.623047" xlink:href="#DejaVuSans-48"/>
       <use x="127.246094" xlink:href="#DejaVuSans-48"/>
      </g>
     </g>
    </g>
    <g id="xtick_4">
     <g id="line2d_7">
      <path clip-path="url(#p45243f8147)" d="M 269.015821 307.584 
L 269.015821 41.472 
" style="fill:none;stroke:#b0b0b0;stroke-linecap:square;stroke-width:0.8;"/>
     </g>
     <g id="line2d_8">
      <g>
       <use style="stroke:#000000;stroke-width:0.8;" x="269.015821" xlink:href="#mb7fd90fe49" y="307.584"/>
      </g>
     </g>
     <g id="text_4">
      <!-- 300 -->
      <g transform="translate(259.472071 322.182437)scale(0.1 -0.1)">
       <defs>
        <path d="M 40.578125 39.3125 
Q 47.65625 37.796875 51.625 33 
Q 55.609375 28.21875 55.609375 21.1875 
Q 55.609375 10.40625 48.1875 4.484375 
Q 40.765625 -1.421875 27.09375 -1.421875 
Q 22.515625 -1.421875 17.65625 -0.515625 
Q 12.796875 0.390625 7.625 2.203125 
L 7.625 11.71875 
Q 11.71875 9.328125 16.59375 8.109375 
Q 21.484375 6.890625 26.8125 6.890625 
Q 36.078125 6.890625 40.9375 10.546875 
Q 45.796875 14.203125 45.796875 21.1875 
Q 45.796875 27.640625 41.28125 31.265625 
Q 36.765625 34.90625 28.71875 34.90625 
L 20.21875 34.90625 
L 20.21875 43.015625 
L 29.109375 43.015625 
Q 36.375 43.015625 40.234375 45.921875 
Q 44.09375 48.828125 44.09375 54.296875 
Q 44.09375 59.90625 40.109375 62.90625 
Q 36.140625 65.921875 28.71875 65.921875 
Q 24.65625 65.921875 20.015625 65.03125 
Q 15.375 64.15625 9.8125 62.3125 
L 9.8125 71.09375 
Q 15.4375 72.65625 20.34375 73.4375 
Q 25.25 74.21875 29.59375 74.21875 
Q 40.828125 74.21875 47.359375 69.109375 
Q 53.90625 64.015625 53.90625 55.328125 
Q 53.90625 49.265625 50.4375 45.09375 
Q 46.96875 40.921875 40.578125 39.3125 
z
" id="DejaVuSans-51"/>
       </defs>
       <use xlink:href="#DejaVuSans-51"/>
       <use x="63.623047" xlink:href="#DejaVuSans-48"/>
       <use x="127.246094" xlink:href="#DejaVuSans-48"/>
      </g>
     </g>
    </g>
    <g id="xtick_5">
     <g id="line2d_9">
      <path clip-path="url(#p45243f8147)" d="M 334.076852 307.584 
L 334.076852 41.472 
" style="fill:none;stroke:#b0b0b0;stroke-linecap:square;stroke-width:0.8;"/>
     </g>
     <g id="line2d_10">
      <g>
       <use style="stroke:#000000;stroke-width:0.8;" x="334.076852" xlink:href="#mb7fd90fe49" y="307.584"/>
      </g>
     </g>
     <g id="text_5">
      <!-- 400 -->
      <g transform="translate(324.533102 322.182437)scale(0.1 -0.1)">
       <defs>
        <path d="M 37.796875 64.3125 
L 12.890625 25.390625 
L 37.796875 25.390625 
z
M 35.203125 72.90625 
L 47.609375 72.90625 
L 47.609375 25.390625 
L 58.015625 25.390625 
L 58.015625 17.1875 
L 47.609375 17.1875 
L 47.609375 0 
L 37.796875 0 
L 37.796875 17.1875 
L 4.890625 17.1875 
L 4.890625 26.703125 
z
" id="DejaVuSans-52"/>
       </defs>
       <use xlink:href="#DejaVuSans-52"/>
       <use x="63.623047" xlink:href="#DejaVuSans-48"/>
       <use x="127.246094" xlink:href="#DejaVuSans-48"/>
      </g>
     </g>
    </g>
    <g id="xtick_6">
     <g id="line2d_11">
      <path clip-path="url(#p45243f8147)" d="M 399.137883 307.584 
L 399.137883 41.472 
" style="fill:none;stroke:#b0b0b0;stroke-linecap:square;stroke-width:0.8;"/>
     </g>
     <g id="line2d_12">
      <g>
       <use style="stroke:#000000;stroke-width:0.8;" x="399.137883" xlink:href="#mb7fd90fe49" y="307.584"/>
      </g>
     </g>
     <g id="text_6">
      <!-- 500 -->
      <g transform="translate(389.594133 322.182437)scale(0.1 -0.1)">
       <defs>
        <path d="M 10.796875 72.90625 
L 49.515625 72.90625 
L 49.515625 64.59375 
L 19.828125 64.59375 
L 19.828125 46.734375 
Q 21.96875 47.46875 24.109375 47.828125 
Q 26.265625 48.1875 28.421875 48.1875 
Q 40.625 48.1875 47.75 41.5 
Q 54.890625 34.8125 54.890625 23.390625 
Q 54.890625 11.625 47.5625 5.09375 
Q 40.234375 -1.421875 26.90625 -1.421875 
Q 22.3125 -1.421875 17.546875 -0.640625 
Q 12.796875 0.140625 7.71875 1.703125 
L 7.71875 11.625 
Q 12.109375 9.234375 16.796875 8.0625 
Q 21.484375 6.890625 26.703125 6.890625 
Q 35.15625 6.890625 40.078125 11.328125 
Q 45.015625 15.765625 45.015625 23.390625 
Q 45.015625 31 40.078125 35.4375 
Q 35.15625 39.890625 26.703125 39.890625 
Q 22.75 39.890625 18.8125 39.015625 
Q 14.890625 38.140625 10.796875 36.28125 
z
" id="DejaVuSans-53"/>
       </defs>
       <use xlink:href="#DejaVuSans-53"/>
       <use x="63.623047" xlink:href="#DejaVuSans-48"/>
       <use x="127.246094" xlink:href="#DejaVuSans-48"/>
      </g>
     </g>
    </g>
    <g id="text_7">
     <!-- Generations -->
     <g transform="translate(205.662344 335.860562)scale(0.1 -0.1)">
      <defs>
       <path d="M 59.515625 10.40625 
L 59.515625 29.984375 
L 43.40625 29.984375 
L 43.40625 38.09375 
L 69.28125 38.09375 
L 69.28125 6.78125 
Q 63.578125 2.734375 56.6875 0.65625 
Q 49.8125 -1.421875 42 -1.421875 
Q 24.90625 -1.421875 15.25 8.5625 
Q 5.609375 18.5625 5.609375 36.375 
Q 5.609375 54.25 15.25 64.234375 
Q 24.90625 74.21875 42 74.21875 
Q 49.125 74.21875 55.546875 72.453125 
Q 61.96875 70.703125 67.390625 67.28125 
L 67.390625 56.78125 
Q 61.921875 61.421875 55.765625 63.765625 
Q 49.609375 66.109375 42.828125 66.109375 
Q 29.4375 66.109375 22.71875 58.640625 
Q 16.015625 51.171875 16.015625 36.375 
Q 16.015625 21.625 22.71875 14.15625 
Q 29.4375 6.6875 42.828125 6.6875 
Q 48.046875 6.6875 52.140625 7.59375 
Q 56.25 8.5 59.515625 10.40625 
z
" id="DejaVuSans-71"/>
       <path d="M 56.203125 29.59375 
L 56.203125 25.203125 
L 14.890625 25.203125 
Q 15.484375 15.921875 20.484375 11.0625 
Q 25.484375 6.203125 34.421875 6.203125 
Q 39.59375 6.203125 44.453125 7.46875 
Q 49.3125 8.734375 54.109375 11.28125 
L 54.109375 2.78125 
Q 49.265625 0.734375 44.1875 -0.34375 
Q 39.109375 -1.421875 33.890625 -1.421875 
Q 20.796875 -1.421875 13.15625 6.1875 
Q 5.515625 13.8125 5.515625 26.8125 
Q 5.515625 40.234375 12.765625 48.109375 
Q 20.015625 56 32.328125 56 
Q 43.359375 56 49.78125 48.890625 
Q 56.203125 41.796875 56.203125 29.59375 
z
M 47.21875 32.234375 
Q 47.125 39.59375 43.09375 43.984375 
Q 39.0625 48.390625 32.421875 48.390625 
Q 24.90625 48.390625 20.390625 44.140625 
Q 15.875 39.890625 15.1875 32.171875 
z
" id="DejaVuSans-101"/>
       <path d="M 54.890625 33.015625 
L 54.890625 0 
L 45.90625 0 
L 45.90625 32.71875 
Q 45.90625 40.484375 42.875 44.328125 
Q 39.84375 48.1875 33.796875 48.1875 
Q 26.515625 48.1875 22.3125 43.546875 
Q 18.109375 38.921875 18.109375 30.90625 
L 18.109375 0 
L 9.078125 0 
L 9.078125 54.6875 
L 18.109375 54.6875 
L 18.109375 46.1875 
Q 21.34375 51.125 25.703125 53.5625 
Q 30.078125 56 35.796875 56 
Q 45.21875 56 50.046875 50.171875 
Q 54.890625 44.34375 54.890625 33.015625 
z
" id="DejaVuSans-110"/>
       <path d="M 41.109375 46.296875 
Q 39.59375 47.171875 37.8125 47.578125 
Q 36.03125 48 33.890625 48 
Q 26.265625 48 22.1875 43.046875 
Q 18.109375 38.09375 18.109375 28.8125 
L 18.109375 0 
L 9.078125 0 
L 9.078125 54.6875 
L 18.109375 54.6875 
L 18.109375 46.1875 
Q 20.953125 51.171875 25.484375 53.578125 
Q 30.03125 56 36.53125 56 
Q 37.453125 56 38.578125 55.875 
Q 39.703125 55.765625 41.0625 55.515625 
z
" id="DejaVuSans-114"/>
       <path d="M 34.28125 27.484375 
Q 23.390625 27.484375 19.1875 25 
Q 14.984375 22.515625 14.984375 16.5 
Q 14.984375 11.71875 18.140625 8.90625 
Q 21.296875 6.109375 26.703125 6.109375 
Q 34.1875 6.109375 38.703125 11.40625 
Q 43.21875 16.703125 43.21875 25.484375 
L 43.21875 27.484375 
z
M 52.203125 31.203125 
L 52.203125 0 
L 43.21875 0 
L 43.21875 8.296875 
Q 40.140625 3.328125 35.546875 0.953125 
Q 30.953125 -1.421875 24.3125 -1.421875 
Q 15.921875 -1.421875 10.953125 3.296875 
Q 6 8.015625 6 15.921875 
Q 6 25.140625 12.171875 29.828125 
Q 18.359375 34.515625 30.609375 34.515625 
L 43.21875 34.515625 
L 43.21875 35.40625 
Q 43.21875 41.609375 39.140625 45 
Q 35.0625 48.390625 27.6875 48.390625 
Q 23 48.390625 18.546875 47.265625 
Q 14.109375 46.140625 10.015625 43.890625 
L 10.015625 52.203125 
Q 14.9375 54.109375 19.578125 55.046875 
Q 24.21875 56 28.609375 56 
Q 40.484375 56 46.34375 49.84375 
Q 52.203125 43.703125 52.203125 31.203125 
z
" id="DejaVuSans-97"/>
       <path d="M 18.3125 70.21875 
L 18.3125 54.6875 
L 36.8125 54.6875 
L 36.8125 47.703125 
L 18.3125 47.703125 
L 18.3125 18.015625 
Q 18.3125 11.328125 20.140625 9.421875 
Q 21.96875 7.515625 27.59375 7.515625 
L 36.8125 7.515625 
L 36.8125 0 
L 27.59375 0 
Q 17.1875 0 13.234375 3.875 
Q 9.28125 7.765625 9.28125 18.015625 
L 9.28125 47.703125 
L 2.6875 47.703125 
L 2.6875 54.6875 
L 9.28125 54.6875 
L 9.28125 70.21875 
z
" id="DejaVuSans-116"/>
       <path d="M 9.421875 54.6875 
L 18.40625 54.6875 
L 18.40625 0 
L 9.421875 0 
z
M 9.421875 75.984375 
L 18.40625 75.984375 
L 18.40625 64.59375 
L 9.421875 64.59375 
z
" id="DejaVuSans-105"/>
       <path d="M 30.609375 48.390625 
Q 23.390625 48.390625 19.1875 42.75 
Q 14.984375 37.109375 14.984375 27.296875 
Q 14.984375 17.484375 19.15625 11.84375 
Q 23.34375 6.203125 30.609375 6.203125 
Q 37.796875 6.203125 41.984375 11.859375 
Q 46.1875 17.53125 46.1875 27.296875 
Q 46.1875 37.015625 41.984375 42.703125 
Q 37.796875 48.390625 30.609375 48.390625 
z
M 30.609375 56 
Q 42.328125 56 49.015625 48.375 
Q 55.71875 40.765625 55.71875 27.296875 
Q 55.71875 13.875 49.015625 6.21875 
Q 42.328125 -1.421875 30.609375 -1.421875 
Q 18.84375 -1.421875 12.171875 6.21875 
Q 5.515625 13.875 5.515625 27.296875 
Q 5.515625 40.765625 12.171875 48.375 
Q 18.84375 56 30.609375 56 
z
" id="DejaVuSans-111"/>
       <path d="M 44.28125 53.078125 
L 44.28125 44.578125 
Q 40.484375 46.53125 36.375 47.5 
Q 32.28125 48.484375 27.875 48.484375 
Q 21.1875 48.484375 17.84375 46.4375 
Q 14.5 44.390625 14.5 40.28125 
Q 14.5 37.15625 16.890625 35.375 
Q 19.28125 33.59375 26.515625 31.984375 
L 29.59375 31.296875 
Q 39.15625 29.25 43.1875 25.515625 
Q 47.21875 21.78125 47.21875 15.09375 
Q 47.21875 7.46875 41.1875 3.015625 
Q 35.15625 -1.421875 24.609375 -1.421875 
Q 20.21875 -1.421875 15.453125 -0.5625 
Q 10.6875 0.296875 5.421875 2 
L 5.421875 11.28125 
Q 10.40625 8.6875 15.234375 7.390625 
Q 20.0625 6.109375 24.8125 6.109375 
Q 31.15625 6.109375 34.5625 8.28125 
Q 37.984375 10.453125 37.984375 14.40625 
Q 37.984375 18.0625 35.515625 20.015625 
Q 33.0625 21.96875 24.703125 23.78125 
L 21.578125 24.515625 
Q 13.234375 26.265625 9.515625 29.90625 
Q 5.8125 33.546875 5.8125 39.890625 
Q 5.8125 47.609375 11.28125 51.796875 
Q 16.75 56 26.8125 56 
Q 31.78125 56 36.171875 55.265625 
Q 40.578125 54.546875 44.28125 53.078125 
z
" id="DejaVuSans-115"/>
      </defs>
      <use xlink:href="#DejaVuSans-71"/>
      <use x="77.490234" xlink:href="#DejaVuSans-101"/>
      <use x="139.013672" xlink:href="#DejaVuSans-110"/>
      <use x="202.392578" xlink:href="#DejaVuSans-101"/>
      <use x="263.916016" xlink:href="#DejaVuSans-114"/>
      <use x="305.029297" xlink:href="#DejaVuSans-97"/>
      <use x="366.308594" xlink:href="#DejaVuSans-116"/>
      <use x="405.517578" xlink:href="#DejaVuSans-105"/>
      <use x="433.300781" xlink:href="#DejaVuSans-111"/>
      <use x="494.482422" xlink:href="#DejaVuSans-110"/>
      <use x="557.861328" xlink:href="#DejaVuSans-115"/>
     </g>
    </g>
   </g>
   <g id="matplotlib.axis_2">
    <g id="ytick_1">
     <g id="line2d_13">
      <path clip-path="url(#p45243f8147)" d="M 57.6 261.18384 
L 414.72 261.18384 
" style="fill:none;stroke:#b0b0b0;stroke-linecap:square;stroke-width:0.8;"/>
     </g>
     <g id="line2d_14">
      <defs>
       <path d="M 0 0 
L -3.5 0 
" id="m4ab5508e66" style="stroke:#000000;stroke-width:0.8;"/>
      </defs>
      <g>
       <use style="stroke:#000000;stroke-width:0.8;" x="57.6" xlink:href="#m4ab5508e66" y="261.18384"/>
      </g>
     </g>
     <g id="text_8">
      <!-- 300 -->
      <g transform="translate(31.5125 264.983058)scale(0.1 -0.1)">
       <use xlink:href="#DejaVuSans-51"/>
       <use x="63.623047" xlink:href="#DejaVuSans-48"/>
       <use x="127.246094" xlink:href="#DejaVuSans-48"/>
      </g>
     </g>
    </g>
    <g id="ytick_2">
     <g id="line2d_15">
      <path clip-path="url(#p45243f8147)" d="M 57.6 204.612766 
L 414.72 204.612766 
" style="fill:none;stroke:#b0b0b0;stroke-linecap:square;stroke-width:0.8;"/>
     </g>
     <g id="line2d_16">
      <g>
       <use style="stroke:#000000;stroke-width:0.8;" x="57.6" xlink:href="#m4ab5508e66" y="204.612766"/>
      </g>
     </g>
     <g id="text_9">
      <!-- 400 -->
      <g transform="translate(31.5125 208.411985)scale(0.1 -0.1)">
       <use xlink:href="#DejaVuSans-52"/>
       <use x="63.623047" xlink:href="#DejaVuSans-48"/>
       <use x="127.246094" xlink:href="#DejaVuSans-48"/>
      </g>
     </g>
    </g>
    <g id="ytick_3">
     <g id="line2d_17">
      <path clip-path="url(#p45243f8147)" d="M 57.6 148.041693 
L 414.72 148.041693 
" style="fill:none;stroke:#b0b0b0;stroke-linecap:square;stroke-width:0.8;"/>
     </g>
     <g id="line2d_18">
      <g>
       <use style="stroke:#000000;stroke-width:0.8;" x="57.6" xlink:href="#m4ab5508e66" y="148.041693"/>
      </g>
     </g>
     <g id="text_10">
      <!-- 500 -->
      <g transform="translate(31.5125 151.840911)scale(0.1 -0.1)">
       <use xlink:href="#DejaVuSans-53"/>
       <use x="63.623047" xlink:href="#DejaVuSans-48"/>
       <use x="127.246094" xlink:href="#DejaVuSans-48"/>
      </g>
     </g>
    </g>
    <g id="ytick_4">
     <g id="line2d_19">
      <path clip-path="url(#p45243f8147)" d="M 57.6 91.470619 
L 414.72 91.470619 
" style="fill:none;stroke:#b0b0b0;stroke-linecap:square;stroke-width:0.8;"/>
     </g>
     <g id="line2d_20">
      <g>
       <use style="stroke:#000000;stroke-width:0.8;" x="57.6" xlink:href="#m4ab5508e66" y="91.470619"/>
      </g>
     </g>
     <g id="text_11">
      <!-- 600 -->
      <g transform="translate(31.5125 95.269838)scale(0.1 -0.1)">
       <defs>
        <path d="M 33.015625 40.375 
Q 26.375 40.375 22.484375 35.828125 
Q 18.609375 31.296875 18.609375 23.390625 
Q 18.609375 15.53125 22.484375 10.953125 
Q 26.375 6.390625 33.015625 6.390625 
Q 39.65625 6.390625 43.53125 10.953125 
Q 47.40625 15.53125 47.40625 23.390625 
Q 47.40625 31.296875 43.53125 35.828125 
Q 39.65625 40.375 33.015625 40.375 
z
M 52.59375 71.296875 
L 52.59375 62.3125 
Q 48.875 64.0625 45.09375 64.984375 
Q 41.3125 65.921875 37.59375 65.921875 
Q 27.828125 65.921875 22.671875 59.328125 
Q 17.53125 52.734375 16.796875 39.40625 
Q 19.671875 43.65625 24.015625 45.921875 
Q 28.375 48.1875 33.59375 48.1875 
Q 44.578125 48.1875 50.953125 41.515625 
Q 57.328125 34.859375 57.328125 23.390625 
Q 57.328125 12.15625 50.6875 5.359375 
Q 44.046875 -1.421875 33.015625 -1.421875 
Q 20.359375 -1.421875 13.671875 8.265625 
Q 6.984375 17.96875 6.984375 36.375 
Q 6.984375 53.65625 15.1875 63.9375 
Q 23.390625 74.21875 37.203125 74.21875 
Q 40.921875 74.21875 44.703125 73.484375 
Q 48.484375 72.75 52.59375 71.296875 
z
" id="DejaVuSans-54"/>
       </defs>
       <use xlink:href="#DejaVuSans-54"/>
       <use x="63.623047" xlink:href="#DejaVuSans-48"/>
       <use x="127.246094" xlink:href="#DejaVuSans-48"/>
      </g>
     </g>
    </g>
    <g id="text_12">
     <!-- Fitness -->
     <g transform="translate(25.432812 191.845187)rotate(-90)scale(0.1 -0.1)">
      <defs>
       <path d="M 9.8125 72.90625 
L 51.703125 72.90625 
L 51.703125 64.59375 
L 19.671875 64.59375 
L 19.671875 43.109375 
L 48.578125 43.109375 
L 48.578125 34.8125 
L 19.671875 34.8125 
L 19.671875 0 
L 9.8125 0 
z
" id="DejaVuSans-70"/>
      </defs>
      <use xlink:href="#DejaVuSans-70"/>
      <use x="50.269531" xlink:href="#DejaVuSans-105"/>
      <use x="78.052734" xlink:href="#DejaVuSans-116"/>
      <use x="117.261719" xlink:href="#DejaVuSans-110"/>
      <use x="180.640625" xlink:href="#DejaVuSans-101"/>
      <use x="242.164062" xlink:href="#DejaVuSans-115"/>
      <use x="294.263672" xlink:href="#DejaVuSans-115"/>
     </g>
    </g>
   </g>
   <g id="line2d_21">
    <path clip-path="url(#p45243f8147)" d="M 73.832727 242.215559 
L 74.483338 241.890841 
L 75.133948 242.609293 
L 75.784558 242.226344 
L 76.435169 242.311506 
L 77.085779 241.580047 
L 77.736389 239.945091 
L 78.386999 242.785307 
L 79.03761 242.542324 
L 79.68822 242.913646 
L 80.33883 242.5267 
L 80.989441 242.594585 
L 81.640051 242.069605 
L 82.290661 241.982486 
L 82.941272 241.658899 
L 83.591882 241.938361 
L 84.242492 242.388529 
L 86.844934 242.022072 
L 87.495544 242.915706 
L 88.796764 242.283958 
L 89.447375 241.069374 
L 90.097985 242.128816 
L 90.748595 241.817137 
L 91.399206 242.395716 
L 92.049816 241.675263 
L 92.700426 241.579623 
L 93.351037 244.084777 
L 94.001647 241.324416 
L 94.652257 240.143752 
L 95.302868 238.275356 
L 96.604088 241.361336 
L 97.254698 237.836958 
L 97.905309 240.951362 
L 98.555919 239.154075 
L 99.206529 239.955956 
L 99.85714 241.898761 
L 100.50775 237.695059 
L 101.15836 236.075426 
L 101.808971 238.96429 
L 103.110191 246.586284 
L 103.760802 238.766838 
L 104.411412 234.984004 
L 105.062022 238.995408 
L 105.712633 230.663746 
L 106.363243 239.539747 
L 107.013853 241.229679 
L 107.664463 234.086867 
L 108.315074 242.70207 
L 108.965684 241.944018 
L 109.616294 242.383958 
L 110.266905 246.195362 
L 110.917515 245.401082 
L 111.568125 238.578039 
L 112.218736 244.883606 
L 112.869346 244.057225 
L 113.519956 244.41922 
L 114.170567 241.208209 
L 114.821177 241.938473 
L 115.471787 241.938582 
L 116.122398 243.946301 
L 116.773008 237.40136 
L 117.423618 241.086823 
L 118.074228 238.195413 
L 118.724839 236.908688 
L 119.375449 240.088486 
L 120.026059 239.138264 
L 120.67667 243.555379 
L 121.32728 238.308255 
L 121.97789 234.654141 
L 122.628501 237.472945 
L 123.279111 235.245162 
L 123.929721 233.704861 
L 124.580332 241.052538 
L 125.230942 234.272172 
L 125.881552 234.195438 
L 126.532163 229.766894 
L 127.182773 240.524084 
L 127.833383 237.649175 
L 128.483993 231.450749 
L 129.134604 231.716966 
L 129.785214 237.967071 
L 130.435824 236.156797 
L 131.086435 228.418331 
L 131.737045 229.544446 
L 132.387655 221.985743 
L 133.038266 225.88573 
L 133.688876 225.685491 
L 134.339486 228.428628 
L 134.990097 225.67849 
L 135.640707 224.355499 
L 136.291317 218.669821 
L 136.941927 226.557862 
L 137.592538 223.824074 
L 138.243148 218.95919 
L 138.893758 219.254032 
L 139.544369 220.594095 
L 140.194979 214.313865 
L 140.845589 216.091037 
L 141.4962 218.376563 
L 142.14681 211.559694 
L 143.448031 223.984073 
L 144.098641 217.384115 
L 144.749251 216.362578 
L 145.399862 219.730125 
L 146.050472 218.602793 
L 146.701082 216.170237 
L 147.351692 217.590507 
L 148.002303 218.235081 
L 148.652913 227.444852 
L 149.303523 216.47572 
L 149.954134 219.55553 
L 150.604744 217.372686 
L 151.255354 214.591904 
L 151.905965 213.41456 
L 152.556575 215.56291 
L 153.207185 205.088859 
L 153.857796 214.258134 
L 154.508406 212.510088 
L 155.159016 209.104509 
L 155.809627 203.718943 
L 156.460237 214.140231 
L 157.110847 210.129846 
L 157.761457 207.435663 
L 158.412068 215.65544 
L 159.062678 208.376703 
L 159.713288 208.326293 
L 160.363899 209.376051 
L 161.014509 209.06491 
L 161.665119 209.941761 
L 162.31573 196.793636 
L 162.96634 203.134077 
L 164.267561 184.665806 
L 164.918171 184.795919 
L 165.568781 202.497008 
L 166.219392 197.203065 
L 166.870002 187.232564 
L 167.520612 191.144279 
L 168.171222 190.038713 
L 168.821833 195.55041 
L 169.472443 199.851834 
L 170.123053 194.523343 
L 170.773664 206.264642 
L 171.424274 212.865488 
L 172.074884 213.580945 
L 172.725495 216.034466 
L 173.376105 215.012701 
L 174.026715 205.281333 
L 174.677326 205.049652 
L 175.327936 202.254705 
L 175.978546 207.458123 
L 176.629156 188.924095 
L 177.279767 204.635171 
L 177.930377 193.80265 
L 178.580987 201.696335 
L 179.231598 198.838036 
L 179.882208 199.826853 
L 180.532818 201.957847 
L 181.183429 210.721299 
L 181.834039 206.28727 
L 182.484649 204.590138 
L 183.13526 202.041354 
L 183.78587 213.001285 
L 184.43648 216.875378 
L 185.087091 207.833397 
L 185.737701 206.769188 
L 186.388311 213.958308 
L 187.038921 213.652824 
L 187.689532 215.712011 
L 188.340142 212.978428 
L 188.990752 216.27555 
L 189.641363 212.266832 
L 190.291973 221.680259 
L 190.942583 207.639319 
L 191.593194 210.920441 
L 192.243804 203.895826 
L 192.894414 207.056637 
L 193.545025 202.559236 
L 194.195635 210.721299 
L 194.846245 211.706779 
L 195.496856 214.359962 
L 196.147466 215.977391 
L 196.798076 200.540769 
L 197.448686 212.323404 
L 198.099297 216.198522 
L 198.749907 213.635852 
L 199.400517 214.935587 
L 200.051128 206.745496 
L 200.701738 209.211995 
L 201.352348 208.235601 
L 202.002959 204.493967 
L 202.653569 210.790327 
L 203.304179 218.670678 
L 203.95479 220.605409 
L 204.6054 214.71636 
L 205.25601 227.009254 
L 205.906621 229.611524 
L 206.557231 238.170727 
L 207.207841 227.552337 
L 207.858451 234.963147 
L 208.509062 224.537098 
L 209.159672 225.62808 
L 209.810282 221.504889 
L 210.460893 227.343024 
L 211.111503 231.687682 
L 211.762113 231.31997 
L 212.412724 236.207711 
L 213.063334 237.692559 
L 213.713944 236.224682 
L 215.015165 228.892614 
L 215.665775 231.489683 
L 216.316385 230.273405 
L 216.966996 228.43983 
L 217.617606 221.980086 
L 218.268216 219.304103 
L 218.918827 221.391747 
L 219.569437 213.890422 
L 220.220047 221.827344 
L 220.870658 220.531866 
L 221.521268 224.972752 
L 222.171878 211.832579 
L 222.822489 215.87041 
L 223.473099 211.904778 
L 224.123709 220.01267 
L 224.77432 211.658436 
L 225.42493 223.378363 
L 226.07554 205.576155 
L 227.376761 224.780354 
L 228.027371 225.189108 
L 229.328592 217.70813 
L 229.979202 222.349798 
L 230.629812 220.905235 
L 231.280423 219.796442 
L 231.931033 216.198522 
L 232.581643 220.967464 
L 233.232254 219.584497 
L 233.882864 211.418098 
L 234.533474 217.827769 
L 235.184085 225.446921 
L 235.834695 219.189818 
L 236.485305 209.664163 
L 237.135915 225.41395 
L 238.437136 208.075602 
L 239.087746 216.034466 
L 239.738357 206.841667 
L 240.388967 211.231582 
L 241.039577 217.822112 
L 241.690188 209.31948 
L 242.340798 212.05752 
L 242.991408 219.044047 
L 243.642019 210.637586 
L 244.292629 205.003107 
L 244.943239 208.131487 
L 245.59385 213.428892 
L 246.24446 213.986593 
L 246.89507 209.469879 
L 247.54568 217.864112 
L 248.196291 206.292581 
L 248.846901 205.342533 
L 249.497511 209.284081 
L 250.148122 212.080148 
L 250.798732 210.824382 
L 251.449342 213.456897 
L 252.099953 217.887365 
L 252.750563 223.971388 
L 253.401173 219.538387 
L 254.051784 216.430463 
L 254.702394 202.932777 
L 255.353004 217.505314 
L 256.003615 213.256826 
L 257.304835 221.057201 
L 257.955445 227.965305 
L 258.606056 223.151107 
L 259.256666 224.098981 
L 259.907276 221.074949 
L 260.557887 213.319054 
L 261.208497 216.662405 
L 261.859107 214.942644 
L 262.509718 218.29268 
L 263.160328 216.486977 
L 263.810938 210.767013 
L 264.461549 214.620189 
L 265.112159 216.918375 
L 265.762769 232.632419 
L 266.413379 223.315163 
L 267.06399 210.326445 
L 267.7146 213.550996 
L 268.36521 210.13976 
L 269.015821 228.349989 
L 269.666431 218.05971 
L 270.317041 226.171386 
L 270.967652 213.449168 
L 271.618262 212.521288 
L 272.268872 217.245087 
L 272.919483 227.97662 
L 273.570093 223.943102 
L 274.220703 221.934829 
L 274.871314 223.944073 
L 275.521924 224.612641 
L 276.172534 220.226383 
L 276.823144 227.196387 
L 277.473755 211.778436 
L 278.124365 225.753376 
L 278.774975 226.778341 
L 279.425586 230.629746 
L 280.076196 235.966855 
L 280.726806 224.050587 
L 281.377417 231.229742 
L 282.028027 232.445734 
L 282.678637 224.067558 
L 283.329248 221.452661 
L 283.979858 226.755484 
L 284.630468 230.709745 
L 285.281079 231.523626 
L 285.931689 228.029762 
L 286.582299 238.955408 
L 287.232909 224.635498 
L 287.88352 227.006911 
L 288.53413 232.058308 
L 289.18474 221.566946 
L 289.835351 220.955521 
L 290.485961 235.12686 
L 291.136571 219.242046 
L 291.787182 212.387088 
L 292.437792 235.121146 
L 293.088402 224.429785 
L 293.739013 218.784106 
L 294.389623 219.666329 
L 295.040233 210.910628 
L 295.690844 221.352416 
L 296.341454 221.276028 
L 296.992064 214.651359 
L 297.642674 213.602526 
L 298.293285 215.158054 
L 298.943895 207.69897 
L 299.594505 205.855111 
L 300.245116 221.524254 
L 300.895726 216.817555 
L 301.546336 217.596382 
L 302.196947 214.560313 
L 302.847557 210.04583 
L 303.498167 215.893374 
L 304.148778 219.830945 
L 304.799388 212.028618 
L 305.449998 206.074652 
L 306.100608 210.835584 
L 306.751219 211.697881 
L 307.401829 215.949385 
L 308.052439 223.802122 
L 308.70305 215.168929 
L 309.35366 213.550996 
L 310.00427 229.384039 
L 310.654881 223.875217 
L 311.305491 212.24129 
L 311.956101 220.084955 
L 312.606712 205.116865 
L 313.257322 217.358229 
L 313.907932 210.31513 
L 314.558543 215.762925 
L 315.209153 207.358127 
L 315.859763 219.763732 
L 316.510373 211.065229 
L 317.160984 209.086499 
L 317.811594 213.339274 
L 318.462204 211.714956 
L 319.112815 218.602793 
L 319.763425 222.201227 
L 320.414035 216.69269 
L 321.064646 210.111475 
L 321.715256 208.606684 
L 322.365866 205.389904 
L 323.016477 205.846016 
L 323.667087 206.835609 
L 324.317697 204.412767 
L 324.968308 207.08285 
L 325.618918 211.563727 
L 326.269528 198.821233 
L 326.920138 195.188025 
L 327.570749 194.033976 
L 328.221359 201.637128 
L 328.871969 188.603152 
L 329.52258 188.178584 
L 330.17319 197.361383 
L 330.8238 195.572823 
L 331.474411 200.121023 
L 332.125021 200.910442 
L 332.775631 188.716855 
L 333.426242 181.181028 
L 334.076852 183.69844 
L 334.727462 184.89209 
L 335.378073 211.58798 
L 336.028683 193.441408 
L 336.679293 197.422583 
L 337.980514 190.809424 
L 338.631124 197.292469 
L 339.281734 188.359897 
L 339.932345 193.773749 
L 340.582955 190.121429 
L 341.233565 184.05861 
L 341.884176 191.629425 
L 342.534786 188.532019 
L 343.185396 191.181337 
L 343.836007 192.787764 
L 344.486617 181.271541 
L 345.137227 198.641375 
L 345.787837 191.658562 
L 346.438448 197.58339 
L 347.089058 201.123283 
L 347.739668 199.029201 
L 348.390279 176.083974 
L 349.040889 190.040058 
L 349.691499 185.210568 
L 350.34211 206.17679 
L 350.99272 199.151697 
L 351.64333 188.126339 
L 352.293941 183.79004 
L 352.944551 185.961283 
L 353.595161 174.833753 
L 354.245772 188.218357 
L 354.896382 176.570485 
L 355.546992 182.138622 
L 356.197602 192.144273 
L 356.848213 182.419934 
L 357.498823 181.2842 
L 358.149433 157.378777 
L 358.800044 174.426441 
L 359.450654 185.174945 
L 360.101264 176.875797 
L 360.751875 187.498588 
L 361.402485 190.184285 
L 362.053095 188.582428 
L 362.703706 194.022661 
L 363.354316 213.647167 
L 364.004926 202.90432 
L 364.655537 196.432589 
L 365.306147 197.128413 
L 365.956757 176.747312 
L 366.607367 166.967797 
L 367.257978 167.035011 
L 367.908588 166.840696 
L 368.559198 167.658544 
L 369.209809 166.610316 
L 369.860419 175.020438 
L 370.511029 177.888591 
L 371.16164 179.244522 
L 371.81225 185.268755 
L 372.46286 181.174594 
L 373.764081 209.043233 
L 374.414691 181.85988 
L 375.065302 189.822694 
L 375.715912 199.776494 
L 377.667743 185.316373 
L 378.318353 198.831203 
L 378.968963 217.298401 
L 379.619574 210.920441 
L 380.270184 196.325104 
L 380.920794 210.628882 
L 381.571405 209.585364 
L 382.222015 197.847328 
L 382.872625 209.047024 
L 383.523236 198.989944 
L 384.173846 196.892815 
L 384.824456 177.441508 
L 385.475066 187.361446 
L 386.125677 182.923417 
L 386.776287 175.031752 
L 387.426897 175.908604 
L 388.077508 181.056571 
L 388.728118 195.776365 
L 389.378728 177.178596 
L 390.029339 205.42739 
L 390.679949 206.617959 
L 391.330559 209.244873 
L 391.98117 200.036166 
L 392.63178 215.288456 
L 393.28239 203.810885 
L 393.933001 208.942414 
L 394.583611 203.29466 
L 395.884831 180.327204 
L 396.535442 188.427782 
L 397.186052 190.526569 
L 397.836662 176.949511 
L 398.487273 200.726333 
L 398.487273 200.726333 
" style="fill:none;stroke:#0000ff;stroke-linecap:square;stroke-width:1.5;"/>
   </g>
   <g id="line2d_22">
    <path clip-path="url(#p45243f8147)" d="M 73.832727 243.213056 
L 74.483338 249.353361 
L 75.133948 252.873202 
L 75.784558 257.574059 
L 76.435169 259.46372 
L 77.085779 257.973446 
L 77.736389 256.985357 
L 78.386999 257.701114 
L 79.68822 252.973764 
L 80.33883 251.269733 
L 80.989441 251.402765 
L 81.640051 250.928048 
L 82.290661 247.486437 
L 82.941272 249.618226 
L 83.591882 249.596914 
L 84.242492 251.944007 
L 84.893103 247.898223 
L 85.543713 247.573974 
L 86.194323 251.696676 
L 86.844934 246.432809 
L 87.495544 251.532125 
L 88.796764 247.666324 
L 89.447375 247.331904 
L 90.097985 248.851147 
L 90.748595 249.781916 
L 91.399206 247.273937 
L 92.049816 247.24804 
L 92.700426 250.28574 
L 93.351037 258.78568 
L 94.001647 255.066987 
L 94.652257 266.517771 
L 95.302868 255.375504 
L 95.953478 257.458197 
L 96.604088 267.642471 
L 97.254698 254.866045 
L 97.905309 264.544796 
L 98.555919 260.362068 
L 99.206529 263.017276 
L 99.85714 262.344817 
L 100.50775 261.947051 
L 101.15836 257.574194 
L 102.459581 276.645686 
L 103.110191 273.975217 
L 103.760802 265.508246 
L 104.411412 261.039676 
L 105.062022 265.073639 
L 105.712633 257.306184 
L 106.363243 263.020984 
L 107.013853 277.059363 
L 107.664463 262.450751 
L 108.315074 278.753254 
L 108.965684 281.825501 
L 109.616294 281.433012 
L 110.266905 288.399295 
L 110.917515 285.512423 
L 111.568125 271.643424 
L 112.218736 295.488 
L 112.869346 285.863206 
L 113.519956 292.115447 
L 114.170567 280.277618 
L 114.821177 284.118594 
L 115.471787 283.248682 
L 116.122398 285.188576 
L 116.773008 279.773428 
L 117.423618 283.574731 
L 118.074228 276.405013 
L 118.724839 271.585546 
L 119.375449 278.789245 
L 120.026059 272.787783 
L 120.67667 274.899599 
L 121.32728 269.585606 
L 121.97789 265.919522 
L 122.628501 273.331453 
L 123.279111 266.355677 
L 123.929721 262.728115 
L 124.580332 274.147654 
L 125.881552 264.936463 
L 126.532163 266.540888 
L 127.182773 282.320536 
L 127.833383 277.905339 
L 128.483993 271.181457 
L 129.134604 267.584824 
L 129.785214 280.508588 
L 130.435824 277.055697 
L 131.086435 263.352365 
L 131.737045 261.912897 
L 132.387655 259.980393 
L 133.038266 260.160674 
L 133.688876 258.929301 
L 134.339486 266.761181 
L 134.990097 265.079717 
L 135.640707 265.483978 
L 136.291317 254.66455 
L 136.941927 262.457702 
L 137.592538 263.18662 
L 138.243148 258.055616 
L 138.893758 262.815707 
L 139.544369 262.437295 
L 140.194979 254.976319 
L 140.845589 261.403252 
L 141.4962 261.775781 
L 142.14681 254.861891 
L 142.79742 258.80659 
L 143.448031 270.11282 
L 144.098641 257.585101 
L 144.749251 257.13803 
L 145.399862 263.936856 
L 146.701082 259.274518 
L 147.351692 266.977097 
L 148.002303 261.056333 
L 148.652913 275.132322 
L 149.303523 259.19819 
L 149.954134 269.088816 
L 150.604744 262.210264 
L 151.255354 258.614706 
L 151.905965 258.95061 
L 152.556575 262.453835 
L 153.207185 252.803648 
L 153.857796 260.879658 
L 154.508406 258.536136 
L 155.159016 257.256485 
L 155.809627 249.6247 
L 156.460237 268.047656 
L 157.110847 261.638561 
L 157.761457 258.512387 
L 158.412068 267.170942 
L 159.062678 254.85993 
L 159.713288 263.518798 
L 160.363899 263.43374 
L 161.014509 266.23404 
L 161.665119 265.332278 
L 162.31573 255.370871 
L 162.96634 267.821281 
L 163.61695 260.882487 
L 164.267561 251.075553 
L 164.918171 254.200233 
L 165.568781 268.304347 
L 166.219392 269.243686 
L 166.870002 252.82681 
L 167.520612 264.099529 
L 168.171222 264.639602 
L 168.821833 268.117489 
L 170.123053 262.511722 
L 170.773664 281.391908 
L 171.424274 274.246615 
L 172.074884 269.047835 
L 172.725495 277.522549 
L 173.376105 278.686203 
L 174.026715 270.365832 
L 174.677326 264.014826 
L 175.327936 266.215378 
L 175.978546 267.825207 
L 176.629156 253.289606 
L 177.279767 269.685009 
L 177.930377 260.125928 
L 178.580987 266.390101 
L 179.882208 263.671084 
L 180.532818 263.544488 
L 181.183429 260.485982 
L 181.834039 259.798298 
L 182.484649 266.2607 
L 183.13526 268.837786 
L 183.78587 282.579967 
L 185.737701 269.440908 
L 186.388311 267.549509 
L 187.038921 269.250245 
L 187.689532 269.844515 
L 188.340142 264.975239 
L 188.990752 274.947856 
L 189.641363 262.84564 
L 190.291973 276.55362 
L 190.942583 262.071768 
L 191.593194 265.655425 
L 192.243804 262.747291 
L 192.894414 269.165383 
L 193.545025 262.784646 
L 194.195635 282.216939 
L 194.846245 267.549244 
L 195.496856 268.313456 
L 196.147466 281.609256 
L 196.798076 261.39027 
L 197.448686 266.819212 
L 198.099297 268.205986 
L 198.749907 275.636736 
L 199.400517 277.534698 
L 200.051128 271.304461 
L 200.701738 270.713034 
L 201.352348 276.191847 
L 202.002959 270.224846 
L 202.653569 272.137721 
L 203.304179 278.976311 
L 203.95479 275.973542 
L 204.6054 267.903821 
L 205.25601 269.144193 
L 205.906621 263.982322 
L 206.557231 283.383784 
L 207.207841 267.508528 
L 207.858451 284.021286 
L 208.509062 270.380586 
L 209.159672 266.811626 
L 209.810282 261.199729 
L 210.460893 270.231612 
L 211.111503 276.714918 
L 211.762113 274.728993 
L 212.412724 278.317599 
L 213.063334 283.480395 
L 213.713944 284.83364 
L 214.364555 277.904937 
L 215.015165 268.866245 
L 215.665775 281.217394 
L 216.316385 273.140733 
L 218.268216 260.275475 
L 218.918827 262.470077 
L 219.569437 255.376502 
L 220.220047 271.353906 
L 220.870658 267.117726 
L 221.521268 263.898191 
L 222.171878 247.86517 
L 222.822489 255.370349 
L 223.473099 250.505646 
L 224.123709 264.685156 
L 224.77432 252.769209 
L 225.42493 270.225213 
L 226.07554 247.60415 
L 226.72615 249.681605 
L 227.376761 265.222965 
L 228.027371 265.985775 
L 228.677981 268.883946 
L 229.328592 262.188626 
L 229.979202 267.696375 
L 230.629812 259.660591 
L 231.280423 257.076026 
L 231.931033 256.193229 
L 232.581643 260.70864 
L 233.232254 257.905728 
L 233.882864 249.763705 
L 234.533474 267.173282 
L 235.184085 273.281431 
L 236.485305 249.281564 
L 237.135915 272.131509 
L 237.786526 257.484373 
L 238.437136 254.961783 
L 239.087746 261.358149 
L 239.738357 244.328003 
L 240.388967 250.362943 
L 241.039577 260.518649 
L 241.690188 251.3103 
L 242.340798 255.304669 
L 242.991408 260.545822 
L 243.642019 252.514731 
L 244.292629 247.572957 
L 244.943239 247.282232 
L 245.59385 253.993345 
L 246.24446 263.244977 
L 246.89507 258.964189 
L 247.54568 262.979256 
L 248.196291 244.324342 
L 248.846901 249.103489 
L 249.497511 251.843335 
L 250.148122 261.768683 
L 250.798732 256.438023 
L 251.449342 260.331544 
L 252.099953 267.44271 
L 252.750563 276.085205 
L 253.401173 265.489397 
L 254.051784 271.731163 
L 254.702394 242.085308 
L 255.353004 262.051095 
L 256.003615 261.489635 
L 256.654225 265.050481 
L 257.304835 264.816727 
L 257.955445 275.038767 
L 258.606056 269.190915 
L 259.256666 268.632309 
L 259.907276 264.449544 
L 260.557887 253.925493 
L 261.208497 265.671275 
L 261.859107 259.286473 
L 262.509718 261.630758 
L 263.160328 262.359396 
L 263.810938 256.485605 
L 264.461549 261.215094 
L 265.112159 263.861764 
L 265.762769 277.471728 
L 266.413379 274.342009 
L 267.06399 245.245006 
L 267.7146 255.559351 
L 268.36521 255.932208 
L 269.015821 272.47426 
L 269.666431 263.662863 
L 270.317041 274.5151 
L 270.967652 255.232394 
L 271.618262 251.041178 
L 272.268872 256.785722 
L 272.919483 270.316846 
L 273.570093 267.504155 
L 274.220703 270.077562 
L 274.871314 268.563087 
L 275.521924 267.86642 
L 276.172534 269.256764 
L 276.823144 275.482374 
L 277.473755 264.708229 
L 278.124365 268.879362 
L 278.774975 275.496154 
L 279.425586 272.4106 
L 280.076196 283.050621 
L 280.726806 267.041515 
L 281.377417 274.672122 
L 282.028027 280.325988 
L 283.329248 267.577535 
L 283.979858 270.804373 
L 284.630468 277.955916 
L 285.281079 272.478915 
L 285.931689 275.139797 
L 286.582299 279.846129 
L 287.232909 264.91254 
L 287.88352 266.093464 
L 288.53413 269.797494 
L 289.18474 257.25675 
L 289.835351 261.68978 
L 290.485961 280.784642 
L 291.136571 252.536227 
L 291.787182 252.619168 
L 292.437792 276.618852 
L 293.088402 265.454458 
L 293.739013 256.967464 
L 294.389623 263.932888 
L 295.040233 254.44228 
L 295.690844 266.500291 
L 296.341454 267.050169 
L 296.992064 259.715054 
L 297.642674 261.461874 
L 298.293285 261.458766 
L 298.943895 252.334145 
L 299.594505 250.516275 
L 300.245116 262.70338 
L 300.895726 258.208158 
L 301.546336 258.610153 
L 302.196947 257.26477 
L 302.847557 258.235808 
L 303.498167 255.693365 
L 304.148778 266.01423 
L 304.799388 257.073251 
L 305.449998 244.481838 
L 306.100608 256.542159 
L 306.751219 253.359511 
L 307.401829 263.311322 
L 308.052439 268.172873 
L 308.70305 258.945087 
L 309.35366 256.94702 
L 310.00427 279.516345 
L 310.654881 269.720016 
L 311.305491 250.575383 
L 311.956101 267.757716 
L 312.606712 248.469104 
L 313.257322 261.790726 
L 313.907932 254.134142 
L 314.558543 264.735592 
L 315.209153 246.018739 
L 315.859763 266.448103 
L 316.510373 255.461216 
L 317.160984 252.218916 
L 317.811594 260.638444 
L 318.462204 254.350814 
L 319.112815 264.047703 
L 319.763425 271.012159 
L 321.064646 251.514241 
L 321.715256 254.752789 
L 322.365866 250.900236 
L 323.016477 253.58224 
L 323.667087 249.715961 
L 324.317697 248.123239 
L 324.968308 251.691481 
L 325.618918 257.148486 
L 326.269528 244.124287 
L 326.920138 243.914292 
L 327.570749 244.328014 
L 328.221359 261.076967 
L 328.871969 255.552837 
L 329.52258 252.712819 
L 330.17319 261.894817 
L 330.8238 256.313307 
L 331.474411 267.209108 
L 332.125021 265.818261 
L 332.775631 256.298515 
L 333.426242 239.19417 
L 334.076852 250.336065 
L 334.727462 255.923646 
L 335.378073 269.81641 
L 336.028683 260.153632 
L 336.679293 263.601276 
L 337.329903 257.465346 
L 337.980514 256.128268 
L 338.631124 266.543358 
L 339.281734 254.977127 
L 339.932345 259.315126 
L 341.233565 245.676529 
L 341.884176 259.966635 
L 342.534786 253.828178 
L 343.185396 263.320395 
L 343.836007 265.953711 
L 344.486617 253.527646 
L 345.137227 268.23377 
L 345.787837 259.727624 
L 346.438448 265.983676 
L 347.089058 269.114679 
L 347.739668 266.494027 
L 348.390279 249.31152 
L 349.040889 264.252946 
L 349.691499 258.381212 
L 350.34211 272.672881 
L 350.99272 269.901061 
L 351.64333 258.823462 
L 352.293941 257.329256 
L 352.944551 262.152437 
L 353.595161 248.393619 
L 354.245772 262.5816 
L 354.896382 244.891071 
L 356.197602 266.7341 
L 356.848213 261.95753 
L 357.498823 253.415241 
L 358.149433 237.246735 
L 358.800044 252.323208 
L 359.450654 259.838327 
L 360.101264 255.428601 
L 360.751875 260.770348 
L 361.402485 259.015519 
L 362.053095 254.974293 
L 362.703706 264.994769 
L 363.354316 281.606921 
L 364.004926 273.367673 
L 364.655537 260.721248 
L 365.306147 267.253906 
L 365.956757 246.667943 
L 366.607367 244.925952 
L 367.257978 236.958075 
L 367.908588 238.507528 
L 368.559198 244.670618 
L 369.209809 239.506533 
L 369.860419 254.494066 
L 370.511029 256.53305 
L 371.16164 255.735329 
L 371.81225 260.563291 
L 372.46286 257.995329 
L 373.764081 278.036895 
L 374.414691 251.801478 
L 375.065302 262.312177 
L 375.715912 269.915528 
L 376.366522 261.527076 
L 377.017132 266.417077 
L 377.667743 260.140248 
L 378.318353 263.983378 
L 378.968963 282.213048 
L 379.619574 266.903764 
L 380.270184 261.91103 
L 380.920794 281.588124 
L 381.571405 277.318791 
L 382.222015 274.991305 
L 382.872625 276.379095 
L 383.523236 269.803889 
L 384.173846 267.891148 
L 384.824456 252.884624 
L 385.475066 263.540107 
L 386.125677 259.463566 
L 386.776287 251.859781 
L 387.426897 251.878463 
L 388.077508 252.232403 
L 388.728118 267.521279 
L 389.378728 244.543256 
L 390.029339 276.32448 
L 390.679949 282.500383 
L 391.330559 283.414019 
L 391.98117 261.726869 
L 392.63178 281.178179 
L 393.28239 275.847521 
L 393.933001 274.880679 
L 394.583611 275.450707 
L 395.234221 265.373386 
L 395.884831 251.889833 
L 396.535442 257.426168 
L 397.186052 261.748382 
L 397.836662 244.934786 
L 398.487273 268.330052 
L 398.487273 268.330052 
" style="fill:none;stroke:#008000;stroke-dasharray:9.6,2.4,1.5,2.4;stroke-dashoffset:0;stroke-width:1.5;"/>
   </g>
   <g id="line2d_23">
    <path clip-path="url(#p45243f8147)" d="M 73.832727 241.218061 
L 74.483338 234.428321 
L 75.133948 232.345385 
L 75.784558 226.87863 
L 76.435169 225.159291 
L 77.085779 225.186648 
L 77.736389 222.904825 
L 78.386999 227.8695 
L 79.03761 229.83563 
L 79.68822 232.853528 
L 80.33883 233.783666 
L 80.989441 233.786405 
L 81.640051 233.211163 
L 82.290661 236.478535 
L 82.941272 233.699572 
L 83.591882 234.279807 
L 84.242492 232.833052 
L 84.893103 236.728643 
L 85.543713 237.093496 
L 86.194323 232.655242 
L 86.844934 237.611336 
L 87.495544 234.299286 
L 88.796764 236.901592 
L 89.447375 234.806844 
L 90.097985 235.406486 
L 90.748595 233.852357 
L 91.399206 237.517495 
L 92.049816 236.102486 
L 93.351037 229.383873 
L 94.001647 227.581844 
L 94.652257 213.769733 
L 95.302868 221.175207 
L 95.953478 222.21496 
L 96.604088 215.0802 
L 97.254698 220.80787 
L 97.905309 217.357928 
L 98.555919 217.946082 
L 99.206529 216.894636 
L 99.85714 221.452705 
L 100.50775 213.443066 
L 101.15836 214.576658 
L 101.808971 210.773783 
L 102.459581 209.120509 
L 103.110191 219.197351 
L 103.760802 212.025429 
L 104.411412 208.928332 
L 105.062022 212.917176 
L 105.712633 204.021307 
L 106.363243 216.05851 
L 107.013853 205.399996 
L 107.664463 205.722983 
L 108.315074 206.650886 
L 108.965684 202.062535 
L 109.616294 203.334903 
L 110.266905 203.99143 
L 110.917515 205.289741 
L 111.568125 205.512653 
L 112.218736 194.279212 
L 112.869346 202.251243 
L 113.519956 196.722993 
L 114.170567 202.1388 
L 114.821177 199.758351 
L 115.471787 200.628483 
L 116.122398 202.704026 
L 116.773008 195.029293 
L 117.423618 198.598915 
L 118.074228 199.985812 
L 118.724839 202.23183 
L 119.375449 201.387728 
L 120.026059 205.488745 
L 120.67667 212.211158 
L 121.32728 207.030904 
L 121.97789 203.38876 
L 122.628501 201.614436 
L 123.279111 204.134648 
L 123.929721 204.681607 
L 124.580332 207.957421 
L 125.230942 199.332716 
L 125.881552 203.454412 
L 126.532163 192.9929 
L 127.182773 198.727632 
L 127.833383 197.39301 
L 128.483993 191.720041 
L 129.134604 195.849108 
L 129.785214 195.425555 
L 130.435824 195.257897 
L 131.086435 193.484297 
L 131.737045 197.175996 
L 132.387655 183.991093 
L 133.038266 191.610787 
L 133.688876 192.441681 
L 134.339486 190.096076 
L 134.990097 186.277263 
L 135.640707 183.227021 
L 136.291317 182.675092 
L 136.941927 190.658022 
L 137.592538 184.461528 
L 138.893758 175.692357 
L 139.544369 178.750894 
L 140.194979 173.651411 
L 140.845589 170.778822 
L 141.4962 174.977345 
L 142.14681 168.257497 
L 142.79742 176.979342 
L 143.448031 177.855326 
L 144.098641 177.183128 
L 144.749251 175.587127 
L 145.399862 175.523395 
L 146.050472 175.667185 
L 146.701082 173.065955 
L 147.351692 168.203916 
L 148.002303 175.413829 
L 148.652913 179.757381 
L 149.303523 173.753251 
L 149.954134 170.022243 
L 150.604744 172.535108 
L 151.255354 170.569101 
L 151.905965 167.878509 
L 152.556575 168.671985 
L 153.207185 157.374071 
L 153.857796 167.63661 
L 154.508406 166.484041 
L 155.159016 160.952534 
L 155.809627 157.813186 
L 156.460237 160.232807 
L 157.110847 158.621131 
L 157.761457 156.358938 
L 158.412068 164.139938 
L 159.062678 161.893476 
L 159.713288 153.133788 
L 160.363899 155.318361 
L 161.014509 151.89578 
L 161.665119 154.551245 
L 162.31573 138.2164 
L 162.96634 138.446872 
L 164.267561 118.256058 
L 164.918171 115.391606 
L 165.568781 136.689669 
L 166.219392 125.162444 
L 167.520612 118.189029 
L 168.171222 115.437825 
L 168.821833 122.983331 
L 169.472443 134.653873 
L 170.123053 126.534964 
L 170.773664 131.137375 
L 171.424274 151.48436 
L 172.074884 158.114056 
L 173.376105 151.339199 
L 174.026715 140.196835 
L 174.677326 146.084478 
L 175.327936 138.294032 
L 175.978546 147.091039 
L 176.629156 124.558585 
L 177.279767 139.585332 
L 177.930377 127.479373 
L 178.580987 137.00257 
L 179.231598 132.544939 
L 179.882208 135.982623 
L 180.532818 140.371205 
L 181.183429 160.956616 
L 181.834039 152.776242 
L 182.484649 142.919576 
L 183.13526 135.244921 
L 183.78587 143.422603 
L 184.43648 155.461248 
L 185.087091 141.34098 
L 185.737701 144.097468 
L 186.388311 160.367106 
L 187.038921 158.055402 
L 187.689532 161.579507 
L 188.340142 160.981617 
L 188.990752 157.603244 
L 189.641363 161.688025 
L 190.291973 166.806898 
L 190.942583 153.20687 
L 191.593194 156.185457 
L 192.243804 145.044361 
L 192.894414 144.94789 
L 193.545025 142.333827 
L 194.195635 139.225659 
L 194.846245 155.864314 
L 195.496856 160.406468 
L 196.798076 139.691269 
L 197.448686 157.827595 
L 198.099297 164.191058 
L 198.749907 151.634969 
L 199.400517 152.336476 
L 200.051128 142.18653 
L 200.701738 147.710955 
L 201.352348 140.279354 
L 202.002959 138.763088 
L 203.304179 158.365045 
L 203.95479 165.237275 
L 204.6054 161.528899 
L 205.25601 184.874315 
L 205.906621 195.240726 
L 206.557231 192.95767 
L 207.207841 187.596145 
L 207.858451 185.905009 
L 208.509062 178.693611 
L 209.159672 184.444533 
L 209.810282 181.810049 
L 211.111503 186.660446 
L 211.762113 187.910947 
L 212.412724 194.097823 
L 213.063334 191.904722 
L 213.713944 187.615724 
L 214.364555 187.246759 
L 215.015165 188.918983 
L 215.665775 181.761972 
L 216.316385 187.406078 
L 216.966996 188.130906 
L 217.617606 180.079629 
L 218.268216 178.33273 
L 218.918827 180.313417 
L 219.569437 172.404343 
L 220.220047 172.300782 
L 220.870658 173.946007 
L 221.521268 186.047313 
L 222.171878 175.799989 
L 222.822489 176.370471 
L 223.473099 173.303909 
L 224.123709 175.340183 
L 224.77432 170.547664 
L 225.42493 176.531513 
L 226.07554 163.548159 
L 226.72615 179.513517 
L 227.376761 184.337743 
L 228.027371 184.392441 
L 228.677981 174.441061 
L 229.328592 173.227634 
L 229.979202 177.00322 
L 230.629812 182.14988 
L 231.280423 182.516859 
L 231.931033 176.203815 
L 232.581643 181.226287 
L 233.232254 181.263266 
L 233.882864 173.072492 
L 234.533474 168.482256 
L 235.184085 177.612411 
L 235.834695 176.825001 
L 236.485305 170.046762 
L 237.135915 178.696391 
L 237.786526 174.575302 
L 238.437136 161.18942 
L 239.087746 170.710783 
L 239.738357 169.355331 
L 241.039577 175.125574 
L 241.690188 167.328659 
L 242.340798 168.81037 
L 242.991408 177.542273 
L 243.642019 168.76044 
L 244.292629 162.433256 
L 244.943239 168.980742 
L 245.59385 172.864439 
L 246.24446 164.72821 
L 246.89507 159.975568 
L 247.54568 172.748967 
L 248.196291 168.26082 
L 248.846901 161.581577 
L 249.497511 166.724826 
L 250.148122 162.391613 
L 250.798732 165.210741 
L 251.449342 166.582251 
L 252.099953 168.33202 
L 252.750563 171.857571 
L 253.401173 173.587377 
L 254.051784 161.129764 
L 254.702394 163.780245 
L 255.353004 172.959532 
L 256.003615 165.024017 
L 256.654225 168.659013 
L 257.304835 177.297675 
L 257.955445 180.891844 
L 258.606056 177.111299 
L 259.256666 179.565653 
L 259.907276 177.700353 
L 261.208497 167.653535 
L 261.859107 170.598816 
L 262.509718 174.954603 
L 263.160328 170.614559 
L 263.810938 165.048422 
L 264.461549 168.025285 
L 265.112159 169.974986 
L 265.762769 187.79311 
L 266.413379 172.288317 
L 267.06399 175.407884 
L 267.7146 171.542641 
L 268.36521 164.347312 
L 269.015821 184.225718 
L 269.666431 172.456558 
L 270.317041 177.827673 
L 270.967652 171.665942 
L 271.618262 174.001398 
L 272.268872 177.704452 
L 272.919483 185.636393 
L 273.570093 180.382049 
L 274.220703 173.792096 
L 274.871314 179.32506 
L 275.521924 181.358861 
L 276.172534 171.196001 
L 276.823144 178.9104 
L 277.473755 158.848642 
L 278.124365 182.627391 
L 278.774975 178.060529 
L 279.425586 188.848891 
L 280.076196 188.88309 
L 280.726806 181.059659 
L 281.377417 187.787362 
L 282.028027 184.56548 
L 282.678637 174.740638 
L 283.329248 175.327787 
L 283.979858 182.706596 
L 284.630468 183.463574 
L 285.281079 190.568337 
L 285.931689 180.919727 
L 286.582299 198.064687 
L 287.232909 184.358455 
L 287.88352 187.920359 
L 288.53413 194.319122 
L 289.18474 185.877141 
L 289.835351 180.221262 
L 290.485961 189.469079 
L 291.136571 185.947864 
L 291.787182 172.155008 
L 292.437792 193.623441 
L 293.088402 183.405111 
L 293.739013 180.600748 
L 294.389623 175.39977 
L 295.040233 167.378975 
L 295.690844 176.204541 
L 296.341454 175.501887 
L 296.992064 169.587664 
L 297.642674 165.743178 
L 298.293285 168.857341 
L 298.943895 163.063796 
L 299.594505 161.193948 
L 300.245116 180.345127 
L 300.895726 175.426952 
L 301.546336 176.582612 
L 302.196947 171.855857 
L 302.847557 161.855851 
L 303.498167 176.093384 
L 304.148778 173.64766 
L 304.799388 166.983985 
L 305.449998 167.667467 
L 306.100608 165.129009 
L 306.751219 170.036251 
L 307.401829 168.587448 
L 308.052439 179.431372 
L 308.70305 171.39277 
L 309.35366 170.154972 
L 310.00427 179.251734 
L 310.654881 178.030417 
L 311.305491 173.907196 
L 311.956101 172.412194 
L 312.606712 161.764626 
L 313.257322 172.925732 
L 313.907932 166.496119 
L 314.558543 166.790258 
L 315.209153 168.697515 
L 315.859763 173.079361 
L 316.510373 166.669243 
L 317.160984 165.954082 
L 317.811594 166.040104 
L 318.462204 169.079099 
L 319.112815 173.157882 
L 319.763425 173.390295 
L 320.414035 171.693829 
L 321.064646 168.708708 
L 321.715256 162.460579 
L 322.365866 159.879572 
L 323.016477 158.109791 
L 323.667087 163.955258 
L 324.317697 160.702296 
L 324.968308 162.474219 
L 325.618918 165.978968 
L 326.269528 153.518178 
L 326.920138 146.461759 
L 327.570749 143.739937 
L 328.221359 142.197288 
L 328.871969 121.653468 
L 329.52258 123.644348 
L 330.17319 132.827949 
L 330.8238 134.832339 
L 331.474411 133.032938 
L 332.125021 136.002622 
L 332.775631 121.135195 
L 333.426242 123.167885 
L 334.076852 117.060816 
L 334.727462 113.860534 
L 335.378073 153.359549 
L 336.028683 126.729184 
L 336.679293 131.24389 
L 337.329903 130.387635 
L 337.980514 125.49058 
L 338.631124 128.041581 
L 339.281734 121.742667 
L 339.932345 128.232371 
L 340.582955 128.347228 
L 341.233565 122.44069 
L 341.884176 123.292215 
L 342.534786 123.235859 
L 343.185396 119.042279 
L 343.836007 119.621817 
L 344.486617 109.015436 
L 345.137227 129.04898 
L 345.787837 123.5895 
L 346.438448 129.183105 
L 347.089058 133.131887 
L 347.739668 131.564376 
L 348.390279 102.856428 
L 349.040889 115.82717 
L 349.691499 112.039925 
L 350.34211 139.680699 
L 351.64333 117.429217 
L 352.293941 110.250823 
L 352.944551 109.770129 
L 353.595161 101.273887 
L 354.245772 113.855114 
L 354.896382 108.249899 
L 355.546992 108.712281 
L 356.197602 117.554446 
L 356.848213 102.882338 
L 357.498823 109.153159 
L 358.149433 77.510819 
L 358.800044 96.529675 
L 359.450654 110.511564 
L 360.101264 98.322994 
L 360.751875 114.226827 
L 361.402485 121.353052 
L 362.703706 123.050554 
L 363.354316 145.687413 
L 364.004926 132.440967 
L 364.655537 132.14393 
L 365.306147 127.002921 
L 366.607367 89.009643 
L 367.257978 97.111946 
L 367.908588 95.173863 
L 368.559198 90.64647 
L 369.209809 93.714099 
L 369.860419 95.546809 
L 371.16164 102.753716 
L 371.81225 109.974218 
L 372.46286 104.353859 
L 373.113471 120.445632 
L 373.764081 140.049572 
L 374.414691 111.918283 
L 375.065302 117.333212 
L 375.715912 129.63746 
L 376.366522 128.803718 
L 377.017132 115.900789 
L 377.667743 110.492498 
L 378.318353 133.679027 
L 378.968963 152.383754 
L 379.619574 154.937118 
L 380.270184 130.739178 
L 380.920794 139.669641 
L 381.571405 141.851936 
L 382.222015 120.703351 
L 382.872625 141.714953 
L 383.523236 128.175999 
L 384.173846 125.894481 
L 384.824456 101.998392 
L 385.475066 111.182785 
L 386.125677 106.383268 
L 386.776287 98.203723 
L 387.426897 99.938744 
L 388.077508 109.880739 
L 388.728118 124.03145 
L 389.378728 109.813937 
L 390.029339 134.530299 
L 390.679949 130.735534 
L 391.330559 135.075726 
L 391.98117 138.345464 
L 392.63178 149.398733 
L 393.28239 131.774249 
L 393.933001 143.004149 
L 395.884831 108.764576 
L 396.535442 119.429396 
L 397.186052 119.304756 
L 397.836662 108.964237 
L 398.487273 133.122615 
L 398.487273 133.122615 
" style="fill:none;stroke:#008000;stroke-dasharray:9.6,2.4,1.5,2.4;stroke-dashoffset:0;stroke-width:1.5;"/>
   </g>
   <g id="line2d_24">
    <path clip-path="url(#p45243f8147)" d="M 73.832727 239.686832 
L 74.483338 148.041693 
L 75.133948 184.812891 
L 75.784558 128.241817 
L 76.435169 147.475982 
L 77.085779 91.470619 
L 77.736389 110.139073 
L 78.386999 164.447304 
L 79.03761 147.475982 
L 79.68822 204.047056 
L 80.33883 166.710147 
L 80.989441 184.812891 
L 81.640051 131.070371 
L 82.290661 186.510023 
L 82.941272 129.373238 
L 83.591882 109.573363 
L 84.242492 128.807528 
L 84.893103 165.578726 
L 85.543713 165.013015 
L 86.194323 109.573363 
L 86.844934 204.612766 
L 87.495544 218.755535 
L 88.146154 221.584088 
L 88.796764 212.532717 
L 89.447375 186.510023 
L 90.097985 183.681469 
L 90.748595 147.475982 
L 91.399206 219.886956 
L 92.049816 202.349923 
L 92.700426 166.144436 
L 93.351037 205.178477 
L 94.001647 184.812891 
L 94.652257 127.110396 
L 95.302868 130.50466 
L 95.953478 148.041693 
L 96.604088 128.241817 
L 97.254698 167.841568 
L 97.905309 128.241817 
L 98.555919 129.938949 
L 99.85714 165.578726 
L 100.50775 129.373238 
L 101.15836 128.807528 
L 101.808971 148.041693 
L 102.459581 146.344561 
L 103.110191 185.378601 
L 103.760802 131.070371 
L 104.411412 148.041693 
L 105.062022 146.910271 
L 105.712633 129.373238 
L 106.363243 166.144436 
L 107.013853 130.50466 
L 107.664463 110.704784 
L 108.965684 147.475982 
L 109.616294 128.241817 
L 110.266905 128.241817 
L 110.917515 147.475982 
L 111.568125 148.607403 
L 112.218736 110.139073 
L 112.869346 146.344561 
L 113.519956 110.139073 
L 114.170567 91.470619 
L 114.821177 128.807528 
L 116.122398 128.807528 
L 116.773008 110.704784 
L 117.423618 129.938949 
L 118.074228 110.139073 
L 118.724839 127.676106 
L 119.375449 128.241817 
L 120.026059 149.173114 
L 120.67667 146.910271 
L 121.32728 147.475982 
L 121.97789 128.241817 
L 122.628501 128.807528 
L 123.279111 147.475982 
L 123.929721 147.475982 
L 124.580332 111.270495 
L 125.230942 148.041693 
L 125.881552 148.041693 
L 126.532163 127.676106 
L 127.182773 146.344561 
L 127.833383 148.041693 
L 128.483993 129.373238 
L 129.134604 166.710147 
L 129.785214 111.836206 
L 130.435824 130.50466 
L 131.086435 129.373238 
L 131.737045 148.607403 
L 132.387655 129.373238 
L 133.038266 129.373238 
L 133.688876 145.77885 
L 134.339486 148.607403 
L 134.990097 110.139073 
L 135.640707 129.373238 
L 136.291317 127.110396 
L 136.941927 131.070371 
L 137.592538 153.133089 
L 138.243148 148.607403 
L 138.893758 128.807528 
L 139.544369 127.676106 
L 140.194979 145.77885 
L 140.845589 146.910271 
L 141.4962 139.556032 
L 142.14681 93.733462 
L 142.79742 129.938949 
L 143.448031 110.704784 
L 144.098641 146.344561 
L 144.749251 126.544685 
L 145.399862 127.676106 
L 146.050472 147.475982 
L 146.701082 145.213139 
L 147.351692 112.967627 
L 148.652913 136.727478 
L 149.303523 127.676106 
L 149.954134 107.31052 
L 150.604744 116.361892 
L 151.255354 120.887577 
L 151.905965 101.087702 
L 152.556575 109.573363 
L 153.207185 73.933586 
L 153.857796 109.573363 
L 154.508406 109.573363 
L 155.159016 98.824859 
L 155.809627 101.087702 
L 156.460237 98.259148 
L 157.110847 101.087702 
L 157.761457 94.299173 
L 158.412068 74.499297 
L 159.062678 77.893562 
L 159.713288 74.499297 
L 160.363899 67.710768 
L 161.014509 74.499297 
L 161.665119 74.499297 
L 162.31573 67.710768 
L 162.96634 71.670744 
L 163.61695 67.710768 
L 164.267561 62.053661 
L 164.918171 68.276479 
L 165.568781 69.973611 
L 166.219392 69.407901 
L 166.870002 71.105033 
L 167.520612 65.447925 
L 168.171222 63.750793 
L 168.821833 64.882215 
L 169.472443 68.84219 
L 170.123053 67.710768 
L 170.773664 61.48795 
L 171.424274 63.750793 
L 172.074884 67.710768 
L 172.725495 65.447925 
L 173.376105 64.882215 
L 174.677326 68.276479 
L 175.327936 60.356529 
L 176.629156 61.48795 
L 177.279767 62.619372 
L 177.930377 66.013636 
L 178.580987 68.276479 
L 179.231598 64.316504 
L 179.882208 64.882215 
L 180.532818 68.276479 
L 181.183429 66.579347 
L 181.834039 69.407901 
L 182.484649 58.659397 
L 183.13526 66.579347 
L 183.78587 66.013636 
L 184.43648 69.973611 
L 185.737701 66.579347 
L 186.388311 66.579347 
L 187.038921 64.316504 
L 187.689532 59.790818 
L 188.340142 64.882215 
L 188.990752 66.013636 
L 189.641363 66.579347 
L 190.291973 73.367876 
L 190.942583 66.013636 
L 191.593194 65.447925 
L 192.894414 67.710768 
L 193.545025 66.013636 
L 194.195635 66.579347 
L 194.846245 60.92224 
L 195.496856 64.882215 
L 196.147466 64.882215 
L 196.798076 62.619372 
L 197.448686 64.882215 
L 198.099297 66.013636 
L 198.749907 66.013636 
L 199.400517 64.882215 
L 200.051128 62.053661 
L 200.701738 62.619372 
L 201.352348 67.710768 
L 202.002959 64.316504 
L 202.653569 64.316504 
L 203.304179 69.973611 
L 203.95479 64.882215 
L 204.6054 66.579347 
L 205.25601 90.904909 
L 205.906621 145.213139 
L 206.557231 125.413263 
L 207.207841 110.704784 
L 207.858451 127.676106 
L 208.509062 110.704784 
L 209.159672 123.716131 
L 209.810282 124.847553 
L 210.460893 128.807528 
L 211.111503 128.241817 
L 211.762113 129.373238 
L 212.412724 129.938949 
L 213.063334 138.42461 
L 213.713944 110.704784 
L 214.364555 140.687453 
L 215.015165 144.081718 
L 215.665775 110.139073 
L 216.316385 127.110396 
L 216.966996 148.607403 
L 217.617606 109.007652 
L 218.268216 129.373238 
L 218.918827 128.807528 
L 219.569437 89.207776 
L 220.220047 128.241817 
L 220.870658 127.676106 
L 221.521268 149.173114 
L 222.171878 146.344561 
L 222.822489 110.704784 
L 223.473099 148.607403 
L 224.123709 136.161767 
L 224.77432 128.807528 
L 225.42493 136.161767 
L 226.07554 124.281842 
L 226.72615 137.293189 
L 227.376761 126.544685 
L 228.027371 123.716131 
L 228.677981 110.139073 
L 229.328592 92.03633 
L 229.979202 128.807528 
L 230.629812 141.818875 
L 231.280423 110.139073 
L 231.931033 149.173114 
L 232.581643 129.938949 
L 233.232254 147.475982 
L 233.882864 107.876231 
L 234.533474 116.927602 
L 235.184085 138.42461 
L 235.834695 153.6988 
L 236.485305 144.647428 
L 237.135915 129.373238 
L 237.786526 127.676106 
L 238.437136 114.664759 
L 239.087746 128.241817 
L 239.738357 138.42461 
L 240.388967 126.544685 
L 241.039577 127.676106 
L 241.690188 134.464635 
L 242.340798 127.676106 
L 242.991408 136.727478 
L 243.642019 135.030346 
L 244.292629 128.241817 
L 244.943239 133.333214 
L 245.59385 148.607403 
L 246.24446 124.281842 
L 246.89507 128.241817 
L 247.54568 128.241817 
L 248.196291 140.121742 
L 248.846901 125.413263 
L 249.497511 130.50466 
L 250.148122 127.676106 
L 250.798732 131.070371 
L 251.449342 128.241817 
L 252.099953 112.967627 
L 252.750563 110.139073 
L 253.401173 127.110396 
L 254.051784 129.373238 
L 254.702394 125.978974 
L 255.353004 138.42461 
L 256.003615 123.15042 
L 256.654225 145.213139 
L 257.304835 129.373238 
L 257.955445 145.213139 
L 258.606056 122.58471 
L 259.256666 142.950296 
L 259.907276 109.573363 
L 260.557887 149.738825 
L 261.208497 137.293189 
L 261.859107 110.139073 
L 262.509718 121.453288 
L 263.160328 142.384585 
L 263.810938 132.201792 
L 264.461549 140.687453 
L 265.112159 125.978974 
L 265.762769 149.173114 
L 266.413379 105.047677 
L 267.06399 141.818875 
L 267.7146 91.470619 
L 268.36521 90.904909 
L 269.015821 130.50466 
L 269.666431 141.818875 
L 270.317041 126.544685 
L 270.967652 116.927602 
L 271.618262 129.373238 
L 272.268872 132.201792 
L 272.919483 145.213139 
L 273.570093 138.42461 
L 274.220703 110.139073 
L 274.871314 109.573363 
L 275.521924 128.807528 
L 276.172534 129.373238 
L 276.823144 128.807528 
L 277.473755 110.139073 
L 278.124365 137.8589 
L 278.774975 137.293189 
L 279.425586 92.602041 
L 280.076196 110.139073 
L 280.726806 109.573363 
L 281.377417 128.241817 
L 282.028027 108.441941 
L 282.678637 112.967627 
L 283.979858 129.938949 
L 284.630468 110.139073 
L 285.281079 128.807528 
L 285.931689 129.938949 
L 286.582299 147.475982 
L 287.232909 141.253164 
L 287.88352 129.373238 
L 288.53413 146.344561 
L 289.18474 150.870246 
L 289.835351 148.607403 
L 290.485961 129.938949 
L 291.136571 148.607403 
L 291.787182 137.8589 
L 292.437792 150.870246 
L 293.088402 134.464635 
L 293.739013 111.836206 
L 294.389623 150.304536 
L 295.040233 129.373238 
L 295.690844 147.475982 
L 296.341454 54.133711 
L 296.992064 130.50466 
L 297.642674 128.241817 
L 298.293285 139.556032 
L 298.943895 133.898924 
L 299.594505 110.704784 
L 300.245116 150.304536 
L 300.895726 135.030346 
L 301.546336 148.041693 
L 302.196947 126.544685 
L 302.847557 119.756156 
L 303.498167 109.007652 
L 304.148778 140.687453 
L 304.799388 134.464635 
L 305.449998 146.344561 
L 306.100608 123.716131 
L 307.401829 91.470619 
L 308.052439 136.727478 
L 308.70305 123.716131 
L 309.35366 144.081718 
L 310.00427 130.50466 
L 310.654881 128.807528 
L 311.305491 128.807528 
L 311.956101 140.121742 
L 312.606712 131.070371 
L 313.257322 133.898924 
L 313.907932 145.77885 
L 314.558543 114.099049 
L 315.209153 138.990321 
L 315.859763 144.081718 
L 316.510373 132.201792 
L 317.160984 145.213139 
L 317.811594 128.241817 
L 318.462204 129.938949 
L 319.112815 129.373238 
L 319.763425 109.573363 
L 320.414035 144.647428 
L 321.064646 128.241817 
L 321.715256 131.636081 
L 322.365866 96.562016 
L 323.016477 124.847553 
L 323.667087 111.270495 
L 324.317697 116.361892 
L 324.968308 108.441941 
L 325.618918 87.510644 
L 326.269528 79.590694 
L 326.920138 67.145058 
L 327.570749 71.670744 
L 328.221359 67.145058 
L 328.871969 67.710768 
L 329.52258 67.710768 
L 330.17319 63.185082 
L 330.8238 65.447925 
L 331.474411 65.447925 
L 332.125021 71.670744 
L 332.775631 68.84219 
L 333.426242 68.84219 
L 334.076852 60.356529 
L 334.727462 62.053661 
L 335.378073 59.790818 
L 336.028683 60.92224 
L 336.679293 66.013636 
L 337.329903 61.48795 
L 337.980514 65.447925 
L 338.631124 59.790818 
L 339.281734 63.750793 
L 339.932345 66.013636 
L 340.582955 66.013636 
L 341.233565 59.225107 
L 341.884176 60.92224 
L 342.534786 59.790818 
L 343.836007 59.790818 
L 344.486617 58.659397 
L 345.137227 53.568 
L 345.787837 59.790818 
L 346.438448 58.659397 
L 347.089058 58.659397 
L 347.739668 58.093686 
L 349.040889 59.225107 
L 349.691499 57.527975 
L 350.34211 62.053661 
L 350.99272 57.527975 
L 351.64333 61.48795 
L 352.293941 56.396554 
L 352.944551 57.527975 
L 353.595161 56.396554 
L 354.245772 59.225107 
L 354.896382 57.527975 
L 355.546992 59.225107 
L 356.197602 59.225107 
L 356.848213 56.962264 
L 357.498823 56.962264 
L 358.149433 55.265132 
L 358.800044 60.356529 
L 359.450654 58.093686 
L 360.101264 56.962264 
L 360.751875 58.093686 
L 361.402485 56.396554 
L 362.053095 58.093686 
L 362.703706 62.619372 
L 363.354316 56.396554 
L 364.004926 60.92224 
L 364.655537 58.093686 
L 365.306147 61.48795 
L 365.956757 56.962264 
L 366.607367 57.527975 
L 367.257978 55.265132 
L 367.908588 60.92224 
L 368.559198 58.659397 
L 369.860419 56.396554 
L 370.511029 58.093686 
L 371.16164 57.527975 
L 371.81225 55.830843 
L 373.113471 59.225107 
L 373.764081 67.145058 
L 374.414691 54.699421 
L 375.065302 60.356529 
L 375.715912 57.527975 
L 376.366522 56.962264 
L 377.017132 57.527975 
L 377.667743 60.92224 
L 378.318353 57.527975 
L 378.968963 58.093686 
L 379.619574 76.196429 
L 380.270184 59.225107 
L 380.920794 56.396554 
L 381.571405 59.225107 
L 382.222015 57.527975 
L 382.872625 56.962264 
L 383.523236 58.659397 
L 384.173846 58.093686 
L 384.824456 58.093686 
L 385.475066 56.962264 
L 386.125677 55.265132 
L 386.776287 56.396554 
L 387.426897 56.962264 
L 388.077508 56.396554 
L 388.728118 59.790818 
L 389.378728 56.396554 
L 390.029339 59.790818 
L 390.679949 54.699421 
L 391.98117 62.619372 
L 392.63178 61.48795 
L 393.28239 58.659397 
L 393.933001 58.093686 
L 394.583611 58.093686 
L 395.234221 55.830843 
L 395.884831 63.750793 
L 396.535442 58.093686 
L 397.186052 59.790818 
L 397.836662 55.830843 
L 398.487273 59.790818 
L 398.487273 59.790818 
" style="fill:none;stroke:#ff0000;stroke-linecap:square;stroke-width:1.5;"/>
   </g>
   <g id="patch_3">
    <path d="M 57.6 307.584 
L 57.6 41.472 
" style="fill:none;stroke:#000000;stroke-linecap:square;stroke-linejoin:miter;stroke-width:0.8;"/>
   </g>
   <g id="patch_4">
    <path d="M 414.72 307.584 
L 414.72 41.472 
" style="fill:none;stroke:#000000;stroke-linecap:square;stroke-linejoin:miter;stroke-width:0.8;"/>
   </g>
   <g id="patch_5">
    <path d="M 57.6 307.584 
L 414.72 307.584 
" style="fill:none;stroke:#000000;stroke-linecap:square;stroke-linejoin:miter;stroke-width:0.8;"/>
   </g>
   <g id="patch_6">
    <path d="M 57.6 41.472 
L 414.72 41.472 
" style="fill:none;stroke:#000000;stroke-linecap:square;stroke-linejoin:miter;stroke-width:0.8;"/>
   </g>
   <g id="text_13">
    <!-- Population's average and best fitness -->
    <g transform="translate(123.529687 35.472)scale(0.12 -0.12)">
     <defs>
      <path d="M 19.671875 64.796875 
L 19.671875 37.40625 
L 32.078125 37.40625 
Q 38.96875 37.40625 42.71875 40.96875 
Q 46.484375 44.53125 46.484375 51.125 
Q 46.484375 57.671875 42.71875 61.234375 
Q 38.96875 64.796875 32.078125 64.796875 
z
M 9.8125 72.90625 
L 32.078125 72.90625 
Q 44.34375 72.90625 50.609375 67.359375 
Q 56.890625 61.8125 56.890625 51.125 
Q 56.890625 40.328125 50.609375 34.8125 
Q 44.34375 29.296875 32.078125 29.296875 
L 19.671875 29.296875 
L 19.671875 0 
L 9.8125 0 
z
" id="DejaVuSans-80"/>
      <path d="M 18.109375 8.203125 
L 18.109375 -20.796875 
L 9.078125 -20.796875 
L 9.078125 54.6875 
L 18.109375 54.6875 
L 18.109375 46.390625 
Q 20.953125 51.265625 25.265625 53.625 
Q 29.59375 56 35.59375 56 
Q 45.5625 56 51.78125 48.09375 
Q 58.015625 40.1875 58.015625 27.296875 
Q 58.015625 14.40625 51.78125 6.484375 
Q 45.5625 -1.421875 35.59375 -1.421875 
Q 29.59375 -1.421875 25.265625 0.953125 
Q 20.953125 3.328125 18.109375 8.203125 
z
M 48.6875 27.296875 
Q 48.6875 37.203125 44.609375 42.84375 
Q 40.53125 48.484375 33.40625 48.484375 
Q 26.265625 48.484375 22.1875 42.84375 
Q 18.109375 37.203125 18.109375 27.296875 
Q 18.109375 17.390625 22.1875 11.75 
Q 26.265625 6.109375 33.40625 6.109375 
Q 40.53125 6.109375 44.609375 11.75 
Q 48.6875 17.390625 48.6875 27.296875 
z
" id="DejaVuSans-112"/>
      <path d="M 8.5 21.578125 
L 8.5 54.6875 
L 17.484375 54.6875 
L 17.484375 21.921875 
Q 17.484375 14.15625 20.5 10.265625 
Q 23.53125 6.390625 29.59375 6.390625 
Q 36.859375 6.390625 41.078125 11.03125 
Q 45.3125 15.671875 45.3125 23.6875 
L 45.3125 54.6875 
L 54.296875 54.6875 
L 54.296875 0 
L 45.3125 0 
L 45.3125 8.40625 
Q 42.046875 3.421875 37.71875 1 
Q 33.40625 -1.421875 27.6875 -1.421875 
Q 18.265625 -1.421875 13.375 4.4375 
Q 8.5 10.296875 8.5 21.578125 
z
M 31.109375 56 
z
" id="DejaVuSans-117"/>
      <path d="M 9.421875 75.984375 
L 18.40625 75.984375 
L 18.40625 0 
L 9.421875 0 
z
" id="DejaVuSans-108"/>
      <path d="M 17.921875 72.90625 
L 17.921875 45.796875 
L 9.625 45.796875 
L 9.625 72.90625 
z
" id="DejaVuSans-39"/>
      <path id="DejaVuSans-32"/>
      <path d="M 2.984375 54.6875 
L 12.5 54.6875 
L 29.59375 8.796875 
L 46.6875 54.6875 
L 56.203125 54.6875 
L 35.6875 0 
L 23.484375 0 
z
" id="DejaVuSans-118"/>
      <path d="M 45.40625 27.984375 
Q 45.40625 37.75 41.375 43.109375 
Q 37.359375 48.484375 30.078125 48.484375 
Q 22.859375 48.484375 18.828125 43.109375 
Q 14.796875 37.75 14.796875 27.984375 
Q 14.796875 18.265625 18.828125 12.890625 
Q 22.859375 7.515625 30.078125 7.515625 
Q 37.359375 7.515625 41.375 12.890625 
Q 45.40625 18.265625 45.40625 27.984375 
z
M 54.390625 6.78125 
Q 54.390625 -7.171875 48.1875 -13.984375 
Q 42 -20.796875 29.203125 -20.796875 
Q 24.46875 -20.796875 20.265625 -20.09375 
Q 16.0625 -19.390625 12.109375 -17.921875 
L 12.109375 -9.1875 
Q 16.0625 -11.328125 19.921875 -12.34375 
Q 23.78125 -13.375 27.78125 -13.375 
Q 36.625 -13.375 41.015625 -8.765625 
Q 45.40625 -4.15625 45.40625 5.171875 
L 45.40625 9.625 
Q 42.625 4.78125 38.28125 2.390625 
Q 33.9375 0 27.875 0 
Q 17.828125 0 11.671875 7.65625 
Q 5.515625 15.328125 5.515625 27.984375 
Q 5.515625 40.671875 11.671875 48.328125 
Q 17.828125 56 27.875 56 
Q 33.9375 56 38.28125 53.609375 
Q 42.625 51.21875 45.40625 46.390625 
L 45.40625 54.6875 
L 54.390625 54.6875 
z
" id="DejaVuSans-103"/>
      <path d="M 45.40625 46.390625 
L 45.40625 75.984375 
L 54.390625 75.984375 
L 54.390625 0 
L 45.40625 0 
L 45.40625 8.203125 
Q 42.578125 3.328125 38.25 0.953125 
Q 33.9375 -1.421875 27.875 -1.421875 
Q 17.96875 -1.421875 11.734375 6.484375 
Q 5.515625 14.40625 5.515625 27.296875 
Q 5.515625 40.1875 11.734375 48.09375 
Q 17.96875 56 27.875 56 
Q 33.9375 56 38.25 53.625 
Q 42.578125 51.265625 45.40625 46.390625 
z
M 14.796875 27.296875 
Q 14.796875 17.390625 18.875 11.75 
Q 22.953125 6.109375 30.078125 6.109375 
Q 37.203125 6.109375 41.296875 11.75 
Q 45.40625 17.390625 45.40625 27.296875 
Q 45.40625 37.203125 41.296875 42.84375 
Q 37.203125 48.484375 30.078125 48.484375 
Q 22.953125 48.484375 18.875 42.84375 
Q 14.796875 37.203125 14.796875 27.296875 
z
" id="DejaVuSans-100"/>
      <path d="M 48.6875 27.296875 
Q 48.6875 37.203125 44.609375 42.84375 
Q 40.53125 48.484375 33.40625 48.484375 
Q 26.265625 48.484375 22.1875 42.84375 
Q 18.109375 37.203125 18.109375 27.296875 
Q 18.109375 17.390625 22.1875 11.75 
Q 26.265625 6.109375 33.40625 6.109375 
Q 40.53125 6.109375 44.609375 11.75 
Q 48.6875 17.390625 48.6875 27.296875 
z
M 18.109375 46.390625 
Q 20.953125 51.265625 25.265625 53.625 
Q 29.59375 56 35.59375 56 
Q 45.5625 56 51.78125 48.09375 
Q 58.015625 40.1875 58.015625 27.296875 
Q 58.015625 14.40625 51.78125 6.484375 
Q 45.5625 -1.421875 35.59375 -1.421875 
Q 29.59375 -1.421875 25.265625 0.953125 
Q 20.953125 3.328125 18.109375 8.203125 
L 18.109375 0 
L 9.078125 0 
L 9.078125 75.984375 
L 18.109375 75.984375 
z
" id="DejaVuSans-98"/>
      <path d="M 37.109375 75.984375 
L 37.109375 68.5 
L 28.515625 68.5 
Q 23.6875 68.5 21.796875 66.546875 
Q 19.921875 64.59375 19.921875 59.515625 
L 19.921875 54.6875 
L 34.71875 54.6875 
L 34.71875 47.703125 
L 19.921875 47.703125 
L 19.921875 0 
L 10.890625 0 
L 10.890625 47.703125 
L 2.296875 47.703125 
L 2.296875 54.6875 
L 10.890625 54.6875 
L 10.890625 58.5 
Q 10.890625 67.625 15.140625 71.796875 
Q 19.390625 75.984375 28.609375 75.984375 
z
" id="DejaVuSans-102"/>
     </defs>
     <use xlink:href="#DejaVuSans-80"/>
     <use x="56.677734" xlink:href="#DejaVuSans-111"/>
     <use x="117.859375" xlink:href="#DejaVuSans-112"/>
     <use x="181.335938" xlink:href="#DejaVuSans-117"/>
     <use x="244.714844" xlink:href="#DejaVuSans-108"/>
     <use x="272.498047" xlink:href="#DejaVuSans-97"/>
     <use x="333.777344" xlink:href="#DejaVuSans-116"/>
     <use x="372.986328" xlink:href="#DejaVuSans-105"/>
     <use x="400.769531" xlink:href="#DejaVuSans-111"/>
     <use x="461.951172" xlink:href="#DejaVuSans-110"/>
     <use x="525.330078" xlink:href="#DejaVuSans-39"/>
     <use x="552.820312" xlink:href="#DejaVuSans-115"/>
     <use x="604.919922" xlink:href="#DejaVuSans-32"/>
     <use x="636.707031" xlink:href="#DejaVuSans-97"/>
     <use x="697.986328" xlink:href="#DejaVuSans-118"/>
     <use x="757.166016" xlink:href="#DejaVuSans-101"/>
     <use x="818.689453" xlink:href="#DejaVuSans-114"/>
     <use x="859.802734" xlink:href="#DejaVuSans-97"/>
     <use x="921.082031" xlink:href="#DejaVuSans-103"/>
     <use x="984.558594" xlink:href="#DejaVuSans-101"/>
     <use x="1046.082031" xlink:href="#DejaVuSans-32"/>
     <use x="1077.869141" xlink:href="#DejaVuSans-97"/>
     <use x="1139.148438" xlink:href="#DejaVuSans-110"/>
     <use x="1202.527344" xlink:href="#DejaVuSans-100"/>
     <use x="1266.003906" xlink:href="#DejaVuSans-32"/>
     <use x="1297.791016" xlink:href="#DejaVuSans-98"/>
     <use x="1361.267578" xlink:href="#DejaVuSans-101"/>
     <use x="1422.791016" xlink:href="#DejaVuSans-115"/>
     <use x="1474.890625" xlink:href="#DejaVuSans-116"/>
     <use x="1514.099609" xlink:href="#DejaVuSans-32"/>
     <use x="1545.886719" xlink:href="#DejaVuSans-102"/>
     <use x="1581.091797" xlink:href="#DejaVuSans-105"/>
     <use x="1608.875" xlink:href="#DejaVuSans-116"/>
     <use x="1648.083984" xlink:href="#DejaVuSans-110"/>
     <use x="1711.462891" xlink:href="#DejaVuSans-101"/>
     <use x="1772.986328" xlink:href="#DejaVuSans-115"/>
     <use x="1825.085938" xlink:href="#DejaVuSans-115"/>
    </g>
   </g>
   <g id="legend_1">
    <g id="patch_7">
     <path d="M 64.6 108.1845 
L 137.540625 108.1845 
Q 139.540625 108.1845 139.540625 106.1845 
L 139.540625 48.472 
Q 139.540625 46.472 137.540625 46.472 
L 64.6 46.472 
Q 62.6 46.472 62.6 48.472 
L 62.6 106.1845 
Q 62.6 108.1845 64.6 108.1845 
z
" style="fill:#ffffff;opacity:0.8;stroke:#cccccc;stroke-linejoin:miter;"/>
    </g>
    <g id="line2d_25">
     <path d="M 66.6 54.570438 
L 86.6 54.570438 
" style="fill:none;stroke:#0000ff;stroke-linecap:square;stroke-width:1.5;"/>
    </g>
    <g id="line2d_26"/>
    <g id="text_14">
     <!-- average -->
     <g transform="translate(94.6 58.070438)scale(0.1 -0.1)">
      <use xlink:href="#DejaVuSans-97"/>
      <use x="61.279297" xlink:href="#DejaVuSans-118"/>
      <use x="120.458984" xlink:href="#DejaVuSans-101"/>
      <use x="181.982422" xlink:href="#DejaVuSans-114"/>
      <use x="223.095703" xlink:href="#DejaVuSans-97"/>
      <use x="284.375" xlink:href="#DejaVuSans-103"/>
      <use x="347.851562" xlink:href="#DejaVuSans-101"/>
     </g>
    </g>
    <g id="line2d_27">
     <path d="M 66.6 69.248563 
L 86.6 69.248563 
" style="fill:none;stroke:#008000;stroke-dasharray:9.6,2.4,1.5,2.4;stroke-dashoffset:0;stroke-width:1.5;"/>
    </g>
    <g id="line2d_28"/>
    <g id="text_15">
     <!-- -1 sd -->
     <g transform="translate(94.6 72.748563)scale(0.1 -0.1)">
      <defs>
       <path d="M 4.890625 31.390625 
L 31.203125 31.390625 
L 31.203125 23.390625 
L 4.890625 23.390625 
z
" id="DejaVuSans-45"/>
      </defs>
      <use xlink:href="#DejaVuSans-45"/>
      <use x="36.083984" xlink:href="#DejaVuSans-49"/>
      <use x="99.707031" xlink:href="#DejaVuSans-32"/>
      <use x="131.494141" xlink:href="#DejaVuSans-115"/>
      <use x="183.59375" xlink:href="#DejaVuSans-100"/>
     </g>
    </g>
    <g id="line2d_29">
     <path d="M 66.6 83.926688 
L 86.6 83.926688 
" style="fill:none;stroke:#008000;stroke-dasharray:9.6,2.4,1.5,2.4;stroke-dashoffset:0;stroke-width:1.5;"/>
    </g>
    <g id="line2d_30"/>
    <g id="text_16">
     <!-- +1 sd -->
     <g transform="translate(94.6 87.426688)scale(0.1 -0.1)">
      <defs>
       <path d="M 46 62.703125 
L 46 35.5 
L 73.1875 35.5 
L 73.1875 27.203125 
L 46 27.203125 
L 46 0 
L 37.796875 0 
L 37.796875 27.203125 
L 10.59375 27.203125 
L 10.59375 35.5 
L 37.796875 35.5 
L 37.796875 62.703125 
z
" id="DejaVuSans-43"/>
      </defs>
      <use xlink:href="#DejaVuSans-43"/>
      <use x="83.789062" xlink:href="#DejaVuSans-49"/>
      <use x="147.412109" xlink:href="#DejaVuSans-32"/>
      <use x="179.199219" xlink:href="#DejaVuSans-115"/>
      <use x="231.298828" xlink:href="#DejaVuSans-100"/>
     </g>
    </g>
    <g id="line2d_31">
     <path d="M 66.6 98.604813 
L 86.6 98.604813 
" style="fill:none;stroke:#ff0000;stroke-linecap:square;stroke-width:1.5;"/>
    </g>
    <g id="line2d_32"/>
    <g id="text_17">
     <!-- best -->
     <g transform="translate(94.6 102.104813)scale(0.1 -0.1)">
      <use xlink:href="#DejaVuSans-98"/>
      <use x="63.476562" xlink:href="#DejaVuSans-101"/>
      <use x="125" xlink:href="#DejaVuSans-115"/>
      <use x="177.099609" xlink:href="#DejaVuSans-116"/>
     </g>
    </g>
   </g>
  </g>
 </g>
 <defs>
  <clipPath id="p45243f8147">
   <rect height="266.112" width="357.12" x="57.6" y="41.472"/>
  </clipPath>
 </defs>
</svg>
