<?xml version="1.0" encoding="utf-8" standalone="no"?>
<!DOCTYPE svg PUBLIC "-//W3C//DTD SVG 1.1//EN"
  "http://www.w3.org/Graphics/SVG/1.1/DTD/svg11.dtd">
<!-- Created with matplotlib (https://matplotlib.org/) -->
<svg height="345.6pt" version="1.1" viewBox="0 0 460.8 345.6" width="460.8pt" xmlns="http://www.w3.org/2000/svg" xmlns:xlink="http://www.w3.org/1999/xlink">
 <metadata>
  <rdf:RDF xmlns:cc="http://creativecommons.org/ns#" xmlns:dc="http://purl.org/dc/elements/1.1/" xmlns:rdf="http://www.w3.org/1999/02/22-rdf-syntax-ns#">
   <cc:Work>
    <dc:type rdf:resource="http://purl.org/dc/dcmitype/StillImage"/>
    <dc:date>2021-06-15T23:15:27.947151</dc:date>
    <dc:format>image/svg+xml</dc:format>
    <dc:creator>
     <cc:Agent>
      <dc:title>Matplotlib v3.3.0, https://matplotlib.org/</dc:title>
     </cc:Agent>
    </dc:creator>
   </cc:Work>
  </rdf:RDF>
 </metadata>
 <defs>
  <style type="text/css">*{stroke-linecap:butt;stroke-linejoin:round;}</style>
 </defs>
 <g id="figure_1">
  <g id="patch_1">
   <path d="M 0 345.6 
L 460.8 345.6 
L 460.8 0 
L 0 0 
z
" style="fill:#ffffff;"/>
  </g>
  <g id="axes_1">
   <g id="patch_2">
    <path d="M 57.6 307.584 
L 414.72 307.584 
L 414.72 41.472 
L 57.6 41.472 
z
" style="fill:#ffffff;"/>
   </g>
   <g id="matplotlib.axis_1">
    <g id="xtick_1">
     <g id="line2d_1">
      <path clip-path="url(#p2bc7381ee4)" d="M 73.832727 307.584 
L 73.832727 41.472 
" style="fill:none;stroke:#b0b0b0;stroke-linecap:square;stroke-width:0.8;"/>
     </g>
     <g id="line2d_2">
      <defs>
       <path d="M 0 0 
L 0 3.5 
" id="m009448d4b5" style="stroke:#000000;stroke-width:0.8;"/>
      </defs>
      <g>
       <use style="stroke:#000000;stroke-width:0.8;" x="73.832727" xlink:href="#m009448d4b5" y="307.584"/>
      </g>
     </g>
     <g id="text_1">
      <!-- 0 -->
      <g transform="translate(70.651477 322.182437)scale(0.1 -0.1)">
       <defs>
        <path d="M 31.78125 66.40625 
Q 24.171875 66.40625 20.328125 58.90625 
Q 16.5 51.421875 16.5 36.375 
Q 16.5 21.390625 20.328125 13.890625 
Q 24.171875 6.390625 31.78125 6.390625 
Q 39.453125 6.390625 43.28125 13.890625 
Q 47.125 21.390625 47.125 36.375 
Q 47.125 51.421875 43.28125 58.90625 
Q 39.453125 66.40625 31.78125 66.40625 
z
M 31.78125 74.21875 
Q 44.046875 74.21875 50.515625 64.515625 
Q 56.984375 54.828125 56.984375 36.375 
Q 56.984375 17.96875 50.515625 8.265625 
Q 44.046875 -1.421875 31.78125 -1.421875 
Q 19.53125 -1.421875 13.0625 8.265625 
Q 6.59375 17.96875 6.59375 36.375 
Q 6.59375 54.828125 13.0625 64.515625 
Q 19.53125 74.21875 31.78125 74.21875 
z
" id="DejaVuSans-48"/>
       </defs>
       <use xlink:href="#DejaVuSans-48"/>
      </g>
     </g>
    </g>
    <g id="xtick_2">
     <g id="line2d_3">
      <path clip-path="url(#p2bc7381ee4)" d="M 138.893758 307.584 
L 138.893758 41.472 
" style="fill:none;stroke:#b0b0b0;stroke-linecap:square;stroke-width:0.8;"/>
     </g>
     <g id="line2d_4">
      <g>
       <use style="stroke:#000000;stroke-width:0.8;" x="138.893758" xlink:href="#m009448d4b5" y="307.584"/>
      </g>
     </g>
     <g id="text_2">
      <!-- 100 -->
      <g transform="translate(129.350008 322.182437)scale(0.1 -0.1)">
       <defs>
        <path d="M 12.40625 8.296875 
L 28.515625 8.296875 
L 28.515625 63.921875 
L 10.984375 60.40625 
L 10.984375 69.390625 
L 28.421875 72.90625 
L 38.28125 72.90625 
L 38.28125 8.296875 
L 54.390625 8.296875 
L 54.390625 0 
L 12.40625 0 
z
" id="DejaVuSans-49"/>
       </defs>
       <use xlink:href="#DejaVuSans-49"/>
       <use x="63.623047" xlink:href="#DejaVuSans-48"/>
       <use x="127.246094" xlink:href="#DejaVuSans-48"/>
      </g>
     </g>
    </g>
    <g id="xtick_3">
     <g id="line2d_5">
      <path clip-path="url(#p2bc7381ee4)" d="M 203.95479 307.584 
L 203.95479 41.472 
" style="fill:none;stroke:#b0b0b0;stroke-linecap:square;stroke-width:0.8;"/>
     </g>
     <g id="line2d_6">
      <g>
       <use style="stroke:#000000;stroke-width:0.8;" x="203.95479" xlink:href="#m009448d4b5" y="307.584"/>
      </g>
     </g>
     <g id="text_3">
      <!-- 200 -->
      <g transform="translate(194.41104 322.182437)scale(0.1 -0.1)">
       <defs>
        <path d="M 19.1875 8.296875 
L 53.609375 8.296875 
L 53.609375 0 
L 7.328125 0 
L 7.328125 8.296875 
Q 12.9375 14.109375 22.625 23.890625 
Q 32.328125 33.6875 34.8125 36.53125 
Q 39.546875 41.84375 41.421875 45.53125 
Q 43.3125 49.21875 43.3125 52.78125 
Q 43.3125 58.59375 39.234375 62.25 
Q 35.15625 65.921875 28.609375 65.921875 
Q 23.96875 65.921875 18.8125 64.3125 
Q 13.671875 62.703125 7.8125 59.421875 
L 7.8125 69.390625 
Q 13.765625 71.78125 18.9375 73 
Q 24.125 74.21875 28.421875 74.21875 
Q 39.75 74.21875 46.484375 68.546875 
Q 53.21875 62.890625 53.21875 53.421875 
Q 53.21875 48.921875 51.53125 44.890625 
Q 49.859375 40.875 45.40625 35.40625 
Q 44.1875 33.984375 37.640625 27.21875 
Q 31.109375 20.453125 19.1875 8.296875 
z
" id="DejaVuSans-50"/>
       </defs>
       <use xlink:href="#DejaVuSans-50"/>
       <use x="63.623047" xlink:href="#DejaVuSans-48"/>
       <use x="127.246094" xlink:href="#DejaVuSans-48"/>
      </g>
     </g>
    </g>
    <g id="xtick_4">
     <g id="line2d_7">
      <path clip-path="url(#p2bc7381ee4)" d="M 269.015821 307.584 
L 269.015821 41.472 
" style="fill:none;stroke:#b0b0b0;stroke-linecap:square;stroke-width:0.8;"/>
     </g>
     <g id="line2d_8">
      <g>
       <use style="stroke:#000000;stroke-width:0.8;" x="269.015821" xlink:href="#m009448d4b5" y="307.584"/>
      </g>
     </g>
     <g id="text_4">
      <!-- 300 -->
      <g transform="translate(259.472071 322.182437)scale(0.1 -0.1)">
       <defs>
        <path d="M 40.578125 39.3125 
Q 47.65625 37.796875 51.625 33 
Q 55.609375 28.21875 55.609375 21.1875 
Q 55.609375 10.40625 48.1875 4.484375 
Q 40.765625 -1.421875 27.09375 -1.421875 
Q 22.515625 -1.421875 17.65625 -0.515625 
Q 12.796875 0.390625 7.625 2.203125 
L 7.625 11.71875 
Q 11.71875 9.328125 16.59375 8.109375 
Q 21.484375 6.890625 26.8125 6.890625 
Q 36.078125 6.890625 40.9375 10.546875 
Q 45.796875 14.203125 45.796875 21.1875 
Q 45.796875 27.640625 41.28125 31.265625 
Q 36.765625 34.90625 28.71875 34.90625 
L 20.21875 34.90625 
L 20.21875 43.015625 
L 29.109375 43.015625 
Q 36.375 43.015625 40.234375 45.921875 
Q 44.09375 48.828125 44.09375 54.296875 
Q 44.09375 59.90625 40.109375 62.90625 
Q 36.140625 65.921875 28.71875 65.921875 
Q 24.65625 65.921875 20.015625 65.03125 
Q 15.375 64.15625 9.8125 62.3125 
L 9.8125 71.09375 
Q 15.4375 72.65625 20.34375 73.4375 
Q 25.25 74.21875 29.59375 74.21875 
Q 40.828125 74.21875 47.359375 69.109375 
Q 53.90625 64.015625 53.90625 55.328125 
Q 53.90625 49.265625 50.4375 45.09375 
Q 46.96875 40.921875 40.578125 39.3125 
z
" id="DejaVuSans-51"/>
       </defs>
       <use xlink:href="#DejaVuSans-51"/>
       <use x="63.623047" xlink:href="#DejaVuSans-48"/>
       <use x="127.246094" xlink:href="#DejaVuSans-48"/>
      </g>
     </g>
    </g>
    <g id="xtick_5">
     <g id="line2d_9">
      <path clip-path="url(#p2bc7381ee4)" d="M 334.076852 307.584 
L 334.076852 41.472 
" style="fill:none;stroke:#b0b0b0;stroke-linecap:square;stroke-width:0.8;"/>
     </g>
     <g id="line2d_10">
      <g>
       <use style="stroke:#000000;stroke-width:0.8;" x="334.076852" xlink:href="#m009448d4b5" y="307.584"/>
      </g>
     </g>
     <g id="text_5">
      <!-- 400 -->
      <g transform="translate(324.533102 322.182437)scale(0.1 -0.1)">
       <defs>
        <path d="M 37.796875 64.3125 
L 12.890625 25.390625 
L 37.796875 25.390625 
z
M 35.203125 72.90625 
L 47.609375 72.90625 
L 47.609375 25.390625 
L 58.015625 25.390625 
L 58.015625 17.1875 
L 47.609375 17.1875 
L 47.609375 0 
L 37.796875 0 
L 37.796875 17.1875 
L 4.890625 17.1875 
L 4.890625 26.703125 
z
" id="DejaVuSans-52"/>
       </defs>
       <use xlink:href="#DejaVuSans-52"/>
       <use x="63.623047" xlink:href="#DejaVuSans-48"/>
       <use x="127.246094" xlink:href="#DejaVuSans-48"/>
      </g>
     </g>
    </g>
    <g id="xtick_6">
     <g id="line2d_11">
      <path clip-path="url(#p2bc7381ee4)" d="M 399.137883 307.584 
L 399.137883 41.472 
" style="fill:none;stroke:#b0b0b0;stroke-linecap:square;stroke-width:0.8;"/>
     </g>
     <g id="line2d_12">
      <g>
       <use style="stroke:#000000;stroke-width:0.8;" x="399.137883" xlink:href="#m009448d4b5" y="307.584"/>
      </g>
     </g>
     <g id="text_6">
      <!-- 500 -->
      <g transform="translate(389.594133 322.182437)scale(0.1 -0.1)">
       <defs>
        <path d="M 10.796875 72.90625 
L 49.515625 72.90625 
L 49.515625 64.59375 
L 19.828125 64.59375 
L 19.828125 46.734375 
Q 21.96875 47.46875 24.109375 47.828125 
Q 26.265625 48.1875 28.421875 48.1875 
Q 40.625 48.1875 47.75 41.5 
Q 54.890625 34.8125 54.890625 23.390625 
Q 54.890625 11.625 47.5625 5.09375 
Q 40.234375 -1.421875 26.90625 -1.421875 
Q 22.3125 -1.421875 17.546875 -0.640625 
Q 12.796875 0.140625 7.71875 1.703125 
L 7.71875 11.625 
Q 12.109375 9.234375 16.796875 8.0625 
Q 21.484375 6.890625 26.703125 6.890625 
Q 35.15625 6.890625 40.078125 11.328125 
Q 45.015625 15.765625 45.015625 23.390625 
Q 45.015625 31 40.078125 35.4375 
Q 35.15625 39.890625 26.703125 39.890625 
Q 22.75 39.890625 18.8125 39.015625 
Q 14.890625 38.140625 10.796875 36.28125 
z
" id="DejaVuSans-53"/>
       </defs>
       <use xlink:href="#DejaVuSans-53"/>
       <use x="63.623047" xlink:href="#DejaVuSans-48"/>
       <use x="127.246094" xlink:href="#DejaVuSans-48"/>
      </g>
     </g>
    </g>
    <g id="text_7">
     <!-- Generations -->
     <g transform="translate(205.662344 335.860562)scale(0.1 -0.1)">
      <defs>
       <path d="M 59.515625 10.40625 
L 59.515625 29.984375 
L 43.40625 29.984375 
L 43.40625 38.09375 
L 69.28125 38.09375 
L 69.28125 6.78125 
Q 63.578125 2.734375 56.6875 0.65625 
Q 49.8125 -1.421875 42 -1.421875 
Q 24.90625 -1.421875 15.25 8.5625 
Q 5.609375 18.5625 5.609375 36.375 
Q 5.609375 54.25 15.25 64.234375 
Q 24.90625 74.21875 42 74.21875 
Q 49.125 74.21875 55.546875 72.453125 
Q 61.96875 70.703125 67.390625 67.28125 
L 67.390625 56.78125 
Q 61.921875 61.421875 55.765625 63.765625 
Q 49.609375 66.109375 42.828125 66.109375 
Q 29.4375 66.109375 22.71875 58.640625 
Q 16.015625 51.171875 16.015625 36.375 
Q 16.015625 21.625 22.71875 14.15625 
Q 29.4375 6.6875 42.828125 6.6875 
Q 48.046875 6.6875 52.140625 7.59375 
Q 56.25 8.5 59.515625 10.40625 
z
" id="DejaVuSans-71"/>
       <path d="M 56.203125 29.59375 
L 56.203125 25.203125 
L 14.890625 25.203125 
Q 15.484375 15.921875 20.484375 11.0625 
Q 25.484375 6.203125 34.421875 6.203125 
Q 39.59375 6.203125 44.453125 7.46875 
Q 49.3125 8.734375 54.109375 11.28125 
L 54.109375 2.78125 
Q 49.265625 0.734375 44.1875 -0.34375 
Q 39.109375 -1.421875 33.890625 -1.421875 
Q 20.796875 -1.421875 13.15625 6.1875 
Q 5.515625 13.8125 5.515625 26.8125 
Q 5.515625 40.234375 12.765625 48.109375 
Q 20.015625 56 32.328125 56 
Q 43.359375 56 49.78125 48.890625 
Q 56.203125 41.796875 56.203125 29.59375 
z
M 47.21875 32.234375 
Q 47.125 39.59375 43.09375 43.984375 
Q 39.0625 48.390625 32.421875 48.390625 
Q 24.90625 48.390625 20.390625 44.140625 
Q 15.875 39.890625 15.1875 32.171875 
z
" id="DejaVuSans-101"/>
       <path d="M 54.890625 33.015625 
L 54.890625 0 
L 45.90625 0 
L 45.90625 32.71875 
Q 45.90625 40.484375 42.875 44.328125 
Q 39.84375 48.1875 33.796875 48.1875 
Q 26.515625 48.1875 22.3125 43.546875 
Q 18.109375 38.921875 18.109375 30.90625 
L 18.109375 0 
L 9.078125 0 
L 9.078125 54.6875 
L 18.109375 54.6875 
L 18.109375 46.1875 
Q 21.34375 51.125 25.703125 53.5625 
Q 30.078125 56 35.796875 56 
Q 45.21875 56 50.046875 50.171875 
Q 54.890625 44.34375 54.890625 33.015625 
z
" id="DejaVuSans-110"/>
       <path d="M 41.109375 46.296875 
Q 39.59375 47.171875 37.8125 47.578125 
Q 36.03125 48 33.890625 48 
Q 26.265625 48 22.1875 43.046875 
Q 18.109375 38.09375 18.109375 28.8125 
L 18.109375 0 
L 9.078125 0 
L 9.078125 54.6875 
L 18.109375 54.6875 
L 18.109375 46.1875 
Q 20.953125 51.171875 25.484375 53.578125 
Q 30.03125 56 36.53125 56 
Q 37.453125 56 38.578125 55.875 
Q 39.703125 55.765625 41.0625 55.515625 
z
" id="DejaVuSans-114"/>
       <path d="M 34.28125 27.484375 
Q 23.390625 27.484375 19.1875 25 
Q 14.984375 22.515625 14.984375 16.5 
Q 14.984375 11.71875 18.140625 8.90625 
Q 21.296875 6.109375 26.703125 6.109375 
Q 34.1875 6.109375 38.703125 11.40625 
Q 43.21875 16.703125 43.21875 25.484375 
L 43.21875 27.484375 
z
M 52.203125 31.203125 
L 52.203125 0 
L 43.21875 0 
L 43.21875 8.296875 
Q 40.140625 3.328125 35.546875 0.953125 
Q 30.953125 -1.421875 24.3125 -1.421875 
Q 15.921875 -1.421875 10.953125 3.296875 
Q 6 8.015625 6 15.921875 
Q 6 25.140625 12.171875 29.828125 
Q 18.359375 34.515625 30.609375 34.515625 
L 43.21875 34.515625 
L 43.21875 35.40625 
Q 43.21875 41.609375 39.140625 45 
Q 35.0625 48.390625 27.6875 48.390625 
Q 23 48.390625 18.546875 47.265625 
Q 14.109375 46.140625 10.015625 43.890625 
L 10.015625 52.203125 
Q 14.9375 54.109375 19.578125 55.046875 
Q 24.21875 56 28.609375 56 
Q 40.484375 56 46.34375 49.84375 
Q 52.203125 43.703125 52.203125 31.203125 
z
" id="DejaVuSans-97"/>
       <path d="M 18.3125 70.21875 
L 18.3125 54.6875 
L 36.8125 54.6875 
L 36.8125 47.703125 
L 18.3125 47.703125 
L 18.3125 18.015625 
Q 18.3125 11.328125 20.140625 9.421875 
Q 21.96875 7.515625 27.59375 7.515625 
L 36.8125 7.515625 
L 36.8125 0 
L 27.59375 0 
Q 17.1875 0 13.234375 3.875 
Q 9.28125 7.765625 9.28125 18.015625 
L 9.28125 47.703125 
L 2.6875 47.703125 
L 2.6875 54.6875 
L 9.28125 54.6875 
L 9.28125 70.21875 
z
" id="DejaVuSans-116"/>
       <path d="M 9.421875 54.6875 
L 18.40625 54.6875 
L 18.40625 0 
L 9.421875 0 
z
M 9.421875 75.984375 
L 18.40625 75.984375 
L 18.40625 64.59375 
L 9.421875 64.59375 
z
" id="DejaVuSans-105"/>
       <path d="M 30.609375 48.390625 
Q 23.390625 48.390625 19.1875 42.75 
Q 14.984375 37.109375 14.984375 27.296875 
Q 14.984375 17.484375 19.15625 11.84375 
Q 23.34375 6.203125 30.609375 6.203125 
Q 37.796875 6.203125 41.984375 11.859375 
Q 46.1875 17.53125 46.1875 27.296875 
Q 46.1875 37.015625 41.984375 42.703125 
Q 37.796875 48.390625 30.609375 48.390625 
z
M 30.609375 56 
Q 42.328125 56 49.015625 48.375 
Q 55.71875 40.765625 55.71875 27.296875 
Q 55.71875 13.875 49.015625 6.21875 
Q 42.328125 -1.421875 30.609375 -1.421875 
Q 18.84375 -1.421875 12.171875 6.21875 
Q 5.515625 13.875 5.515625 27.296875 
Q 5.515625 40.765625 12.171875 48.375 
Q 18.84375 56 30.609375 56 
z
" id="DejaVuSans-111"/>
       <path d="M 44.28125 53.078125 
L 44.28125 44.578125 
Q 40.484375 46.53125 36.375 47.5 
Q 32.28125 48.484375 27.875 48.484375 
Q 21.1875 48.484375 17.84375 46.4375 
Q 14.5 44.390625 14.5 40.28125 
Q 14.5 37.15625 16.890625 35.375 
Q 19.28125 33.59375 26.515625 31.984375 
L 29.59375 31.296875 
Q 39.15625 29.25 43.1875 25.515625 
Q 47.21875 21.78125 47.21875 15.09375 
Q 47.21875 7.46875 41.1875 3.015625 
Q 35.15625 -1.421875 24.609375 -1.421875 
Q 20.21875 -1.421875 15.453125 -0.5625 
Q 10.6875 0.296875 5.421875 2 
L 5.421875 11.28125 
Q 10.40625 8.6875 15.234375 7.390625 
Q 20.0625 6.109375 24.8125 6.109375 
Q 31.15625 6.109375 34.5625 8.28125 
Q 37.984375 10.453125 37.984375 14.40625 
Q 37.984375 18.0625 35.515625 20.015625 
Q 33.0625 21.96875 24.703125 23.78125 
L 21.578125 24.515625 
Q 13.234375 26.265625 9.515625 29.90625 
Q 5.8125 33.546875 5.8125 39.890625 
Q 5.8125 47.609375 11.28125 51.796875 
Q 16.75 56 26.8125 56 
Q 31.78125 56 36.171875 55.265625 
Q 40.578125 54.546875 44.28125 53.078125 
z
" id="DejaVuSans-115"/>
      </defs>
      <use xlink:href="#DejaVuSans-71"/>
      <use x="77.490234" xlink:href="#DejaVuSans-101"/>
      <use x="139.013672" xlink:href="#DejaVuSans-110"/>
      <use x="202.392578" xlink:href="#DejaVuSans-101"/>
      <use x="263.916016" xlink:href="#DejaVuSans-114"/>
      <use x="305.029297" xlink:href="#DejaVuSans-97"/>
      <use x="366.308594" xlink:href="#DejaVuSans-116"/>
      <use x="405.517578" xlink:href="#DejaVuSans-105"/>
      <use x="433.300781" xlink:href="#DejaVuSans-111"/>
      <use x="494.482422" xlink:href="#DejaVuSans-110"/>
      <use x="557.861328" xlink:href="#DejaVuSans-115"/>
     </g>
    </g>
   </g>
   <g id="matplotlib.axis_2">
    <g id="ytick_1">
     <g id="line2d_13">
      <path clip-path="url(#p2bc7381ee4)" d="M 57.6 292.198742 
L 414.72 292.198742 
" style="fill:none;stroke:#b0b0b0;stroke-linecap:square;stroke-width:0.8;"/>
     </g>
     <g id="line2d_14">
      <defs>
       <path d="M 0 0 
L -3.5 0 
" id="md9fd681ab2" style="stroke:#000000;stroke-width:0.8;"/>
      </defs>
      <g>
       <use style="stroke:#000000;stroke-width:0.8;" x="57.6" xlink:href="#md9fd681ab2" y="292.198742"/>
      </g>
     </g>
     <g id="text_8">
      <!-- 250 -->
      <g transform="translate(31.5125 295.997961)scale(0.1 -0.1)">
       <use xlink:href="#DejaVuSans-50"/>
       <use x="63.623047" xlink:href="#DejaVuSans-53"/>
       <use x="127.246094" xlink:href="#DejaVuSans-48"/>
      </g>
     </g>
    </g>
    <g id="ytick_2">
     <g id="line2d_15">
      <path clip-path="url(#p2bc7381ee4)" d="M 57.6 261.127031 
L 414.72 261.127031 
" style="fill:none;stroke:#b0b0b0;stroke-linecap:square;stroke-width:0.8;"/>
     </g>
     <g id="line2d_16">
      <g>
       <use style="stroke:#000000;stroke-width:0.8;" x="57.6" xlink:href="#md9fd681ab2" y="261.127031"/>
      </g>
     </g>
     <g id="text_9">
      <!-- 300 -->
      <g transform="translate(31.5125 264.92625)scale(0.1 -0.1)">
       <use xlink:href="#DejaVuSans-51"/>
       <use x="63.623047" xlink:href="#DejaVuSans-48"/>
       <use x="127.246094" xlink:href="#DejaVuSans-48"/>
      </g>
     </g>
    </g>
    <g id="ytick_3">
     <g id="line2d_17">
      <path clip-path="url(#p2bc7381ee4)" d="M 57.6 230.05532 
L 414.72 230.05532 
" style="fill:none;stroke:#b0b0b0;stroke-linecap:square;stroke-width:0.8;"/>
     </g>
     <g id="line2d_18">
      <g>
       <use style="stroke:#000000;stroke-width:0.8;" x="57.6" xlink:href="#md9fd681ab2" y="230.05532"/>
      </g>
     </g>
     <g id="text_10">
      <!-- 350 -->
      <g transform="translate(31.5125 233.854539)scale(0.1 -0.1)">
       <use xlink:href="#DejaVuSans-51"/>
       <use x="63.623047" xlink:href="#DejaVuSans-53"/>
       <use x="127.246094" xlink:href="#DejaVuSans-48"/>
      </g>
     </g>
    </g>
    <g id="ytick_4">
     <g id="line2d_19">
      <path clip-path="url(#p2bc7381ee4)" d="M 57.6 198.983609 
L 414.72 198.983609 
" style="fill:none;stroke:#b0b0b0;stroke-linecap:square;stroke-width:0.8;"/>
     </g>
     <g id="line2d_20">
      <g>
       <use style="stroke:#000000;stroke-width:0.8;" x="57.6" xlink:href="#md9fd681ab2" y="198.983609"/>
      </g>
     </g>
     <g id="text_11">
      <!-- 400 -->
      <g transform="translate(31.5125 202.782827)scale(0.1 -0.1)">
       <use xlink:href="#DejaVuSans-52"/>
       <use x="63.623047" xlink:href="#DejaVuSans-48"/>
       <use x="127.246094" xlink:href="#DejaVuSans-48"/>
      </g>
     </g>
    </g>
    <g id="ytick_5">
     <g id="line2d_21">
      <path clip-path="url(#p2bc7381ee4)" d="M 57.6 167.911897 
L 414.72 167.911897 
" style="fill:none;stroke:#b0b0b0;stroke-linecap:square;stroke-width:0.8;"/>
     </g>
     <g id="line2d_22">
      <g>
       <use style="stroke:#000000;stroke-width:0.8;" x="57.6" xlink:href="#md9fd681ab2" y="167.911897"/>
      </g>
     </g>
     <g id="text_12">
      <!-- 450 -->
      <g transform="translate(31.5125 171.711116)scale(0.1 -0.1)">
       <use xlink:href="#DejaVuSans-52"/>
       <use x="63.623047" xlink:href="#DejaVuSans-53"/>
       <use x="127.246094" xlink:href="#DejaVuSans-48"/>
      </g>
     </g>
    </g>
    <g id="ytick_6">
     <g id="line2d_23">
      <path clip-path="url(#p2bc7381ee4)" d="M 57.6 136.840186 
L 414.72 136.840186 
" style="fill:none;stroke:#b0b0b0;stroke-linecap:square;stroke-width:0.8;"/>
     </g>
     <g id="line2d_24">
      <g>
       <use style="stroke:#000000;stroke-width:0.8;" x="57.6" xlink:href="#md9fd681ab2" y="136.840186"/>
      </g>
     </g>
     <g id="text_13">
      <!-- 500 -->
      <g transform="translate(31.5125 140.639405)scale(0.1 -0.1)">
       <use xlink:href="#DejaVuSans-53"/>
       <use x="63.623047" xlink:href="#DejaVuSans-48"/>
       <use x="127.246094" xlink:href="#DejaVuSans-48"/>
      </g>
     </g>
    </g>
    <g id="ytick_7">
     <g id="line2d_25">
      <path clip-path="url(#p2bc7381ee4)" d="M 57.6 105.768475 
L 414.72 105.768475 
" style="fill:none;stroke:#b0b0b0;stroke-linecap:square;stroke-width:0.8;"/>
     </g>
     <g id="line2d_26">
      <g>
       <use style="stroke:#000000;stroke-width:0.8;" x="57.6" xlink:href="#md9fd681ab2" y="105.768475"/>
      </g>
     </g>
     <g id="text_14">
      <!-- 550 -->
      <g transform="translate(31.5125 109.567694)scale(0.1 -0.1)">
       <use xlink:href="#DejaVuSans-53"/>
       <use x="63.623047" xlink:href="#DejaVuSans-53"/>
       <use x="127.246094" xlink:href="#DejaVuSans-48"/>
      </g>
     </g>
    </g>
    <g id="ytick_8">
     <g id="line2d_27">
      <path clip-path="url(#p2bc7381ee4)" d="M 57.6 74.696764 
L 414.72 74.696764 
" style="fill:none;stroke:#b0b0b0;stroke-linecap:square;stroke-width:0.8;"/>
     </g>
     <g id="line2d_28">
      <g>
       <use style="stroke:#000000;stroke-width:0.8;" x="57.6" xlink:href="#md9fd681ab2" y="74.696764"/>
      </g>
     </g>
     <g id="text_15">
      <!-- 600 -->
      <g transform="translate(31.5125 78.495982)scale(0.1 -0.1)">
       <defs>
        <path d="M 33.015625 40.375 
Q 26.375 40.375 22.484375 35.828125 
Q 18.609375 31.296875 18.609375 23.390625 
Q 18.609375 15.53125 22.484375 10.953125 
Q 26.375 6.390625 33.015625 6.390625 
Q 39.65625 6.390625 43.53125 10.953125 
Q 47.40625 15.53125 47.40625 23.390625 
Q 47.40625 31.296875 43.53125 35.828125 
Q 39.65625 40.375 33.015625 40.375 
z
M 52.59375 71.296875 
L 52.59375 62.3125 
Q 48.875 64.0625 45.09375 64.984375 
Q 41.3125 65.921875 37.59375 65.921875 
Q 27.828125 65.921875 22.671875 59.328125 
Q 17.53125 52.734375 16.796875 39.40625 
Q 19.671875 43.65625 24.015625 45.921875 
Q 28.375 48.1875 33.59375 48.1875 
Q 44.578125 48.1875 50.953125 41.515625 
Q 57.328125 34.859375 57.328125 23.390625 
Q 57.328125 12.15625 50.6875 5.359375 
Q 44.046875 -1.421875 33.015625 -1.421875 
Q 20.359375 -1.421875 13.671875 8.265625 
Q 6.984375 17.96875 6.984375 36.375 
Q 6.984375 53.65625 15.1875 63.9375 
Q 23.390625 74.21875 37.203125 74.21875 
Q 40.921875 74.21875 44.703125 73.484375 
Q 48.484375 72.75 52.59375 71.296875 
z
" id="DejaVuSans-54"/>
       </defs>
       <use xlink:href="#DejaVuSans-54"/>
       <use x="63.623047" xlink:href="#DejaVuSans-48"/>
       <use x="127.246094" xlink:href="#DejaVuSans-48"/>
      </g>
     </g>
    </g>
    <g id="ytick_9">
     <g id="line2d_29">
      <path clip-path="url(#p2bc7381ee4)" d="M 57.6 43.625052 
L 414.72 43.625052 
" style="fill:none;stroke:#b0b0b0;stroke-linecap:square;stroke-width:0.8;"/>
     </g>
     <g id="line2d_30">
      <g>
       <use style="stroke:#000000;stroke-width:0.8;" x="57.6" xlink:href="#md9fd681ab2" y="43.625052"/>
      </g>
     </g>
     <g id="text_16">
      <!-- 650 -->
      <g transform="translate(31.5125 47.424271)scale(0.1 -0.1)">
       <use xlink:href="#DejaVuSans-54"/>
       <use x="63.623047" xlink:href="#DejaVuSans-53"/>
       <use x="127.246094" xlink:href="#DejaVuSans-48"/>
      </g>
     </g>
    </g>
    <g id="text_17">
     <!-- Fitness -->
     <g transform="translate(25.432812 191.845187)rotate(-90)scale(0.1 -0.1)">
      <defs>
       <path d="M 9.8125 72.90625 
L 51.703125 72.90625 
L 51.703125 64.59375 
L 19.671875 64.59375 
L 19.671875 43.109375 
L 48.578125 43.109375 
L 48.578125 34.8125 
L 19.671875 34.8125 
L 19.671875 0 
L 9.8125 0 
z
" id="DejaVuSans-70"/>
      </defs>
      <use xlink:href="#DejaVuSans-70"/>
      <use x="50.269531" xlink:href="#DejaVuSans-105"/>
      <use x="78.052734" xlink:href="#DejaVuSans-116"/>
      <use x="117.261719" xlink:href="#DejaVuSans-110"/>
      <use x="180.640625" xlink:href="#DejaVuSans-101"/>
      <use x="242.164062" xlink:href="#DejaVuSans-115"/>
      <use x="294.263672" xlink:href="#DejaVuSans-115"/>
     </g>
    </g>
   </g>
   <g id="line2d_31">
    <path clip-path="url(#p2bc7381ee4)" d="M 73.832727 240.321413 
L 74.483338 239.922453 
L 75.133948 240.240688 
L 75.784558 241.185951 
L 76.435169 240.424429 
L 77.085779 240.033604 
L 77.736389 240.841118 
L 78.386999 239.982333 
L 79.03761 239.57579 
L 79.68822 238.955981 
L 80.989441 239.845678 
L 81.640051 239.755847 
L 82.290661 239.529423 
L 82.941272 238.920294 
L 83.591882 239.287002 
L 84.242492 239.060579 
L 84.893103 238.704615 
L 85.543713 239.318261 
L 86.194323 238.629519 
L 86.844934 239.075096 
L 87.495544 238.964615 
L 88.146154 238.101822 
L 88.796764 238.098789 
L 89.447375 237.203125 
L 90.097985 237.356449 
L 90.748595 236.605237 
L 91.399206 236.470125 
L 92.049816 234.544933 
L 92.700426 235.524609 
L 93.351037 237.672432 
L 94.001647 235.744402 
L 94.652257 237.20372 
L 95.302868 234.923881 
L 95.953478 234.060591 
L 96.604088 234.031564 
L 97.254698 232.768015 
L 97.905309 230.134412 
L 98.555919 232.581335 
L 99.206529 229.213559 
L 99.85714 227.609861 
L 100.50775 227.707679 
L 101.15836 226.874707 
L 101.808971 228.400045 
L 102.459581 231.57373 
L 103.760802 228.63241 
L 104.411412 229.097033 
L 105.062022 226.81702 
L 105.712633 222.469344 
L 106.363243 220.050229 
L 107.013853 226.206989 
L 107.664463 224.804486 
L 108.315074 228.626021 
L 108.965684 215.480929 
L 109.616294 213.972832 
L 110.266905 210.843622 
L 110.917515 218.302107 
L 111.568125 215.762333 
L 112.218736 211.471222 
L 112.869346 210.893531 
L 113.519956 220.66952 
L 114.170567 221.333812 
L 114.821177 214.976746 
L 115.471787 221.127191 
L 116.122398 213.528687 
L 116.773008 217.532834 
L 117.423618 217.762759 
L 118.724839 224.806969 
L 119.375449 219.325222 
L 120.026059 212.092353 
L 120.67667 218.676038 
L 121.32728 221.001876 
L 121.97789 213.491944 
L 122.628501 221.952064 
L 123.279111 221.913263 
L 123.929721 218.863227 
L 124.580332 222.811531 
L 125.230942 220.934674 
L 126.532163 213.978816 
L 127.182773 213.048942 
L 127.833383 223.731313 
L 128.483993 209.468004 
L 129.134604 215.299303 
L 129.785214 225.248716 
L 130.435824 221.412311 
L 131.086435 226.7328 
L 131.737045 219.940094 
L 132.387655 223.527122 
L 133.038266 214.11363 
L 133.688876 222.877755 
L 134.339486 215.923906 
L 134.990097 224.164123 
L 135.640707 216.228408 
L 136.291317 216.948707 
L 136.941927 219.635312 
L 137.592538 221.515214 
L 138.243148 218.645788 
L 138.893758 223.181881 
L 139.544369 213.542925 
L 140.194979 228.806174 
L 141.4962 214.507159 
L 142.14681 222.548887 
L 142.79742 219.737051 
L 143.448031 218.040925 
L 144.098641 213.220667 
L 144.749251 240.712917 
L 145.399862 240.899347 
L 146.050472 234.890078 
L 146.701082 244.241596 
L 147.351692 232.352743 
L 148.002303 239.047473 
L 148.652913 237.071312 
L 149.303523 244.083736 
L 149.954134 242.90658 
L 150.604744 243.339246 
L 151.255354 244.134885 
L 151.905965 236.783297 
L 152.556575 234.769432 
L 153.207185 245.239657 
L 153.857796 240.576201 
L 154.508406 238.611025 
L 155.159016 233.262925 
L 155.809627 244.706103 
L 156.460237 229.278527 
L 157.110847 243.447227 
L 157.761457 242.154644 
L 158.412068 232.302526 
L 159.713288 236.485011 
L 160.363899 233.205561 
L 161.665119 238.278338 
L 162.31573 237.64435 
L 162.96634 238.246953 
L 163.61695 236.878542 
L 164.267561 237.270171 
L 164.918171 239.949045 
L 165.568781 236.425021 
L 166.219392 236.351265 
L 166.870002 247.34362 
L 167.520612 243.117993 
L 168.171222 240.570479 
L 168.821833 236.761887 
L 169.472443 237.792176 
L 170.123053 236.903525 
L 170.773664 245.1251 
L 171.424274 234.542075 
L 172.074884 228.523269 
L 172.725495 228.657093 
L 173.376105 228.994488 
L 174.026715 233.479422 
L 174.677326 231.42869 
L 175.327936 220.342303 
L 175.978546 217.074249 
L 176.629156 220.976166 
L 177.279767 221.131524 
L 178.580987 213.081636 
L 179.231598 206.552678 
L 179.882208 230.042891 
L 180.532818 212.816734 
L 181.183429 212.978307 
L 181.834039 218.198847 
L 182.484649 211.132648 
L 183.13526 221.066494 
L 183.78587 213.031788 
L 184.43648 209.296906 
L 185.087091 202.762431 
L 185.737701 209.759278 
L 186.388311 205.061235 
L 187.038921 204.67305 
L 187.689532 216.060621 
L 188.340142 206.67075 
L 188.990752 210.243258 
L 189.641363 217.115952 
L 190.291973 211.572266 
L 190.942583 207.320672 
L 191.593194 205.875314 
L 192.243804 203.756223 
L 192.894414 205.074895 
L 193.545025 193.720061 
L 194.195635 208.597196 
L 194.846245 204.178799 
L 195.496856 213.427247 
L 196.147466 212.798091 
L 196.798076 202.904859 
L 197.448686 207.254898 
L 198.099297 201.115128 
L 198.749907 198.753678 
L 199.400517 200.456408 
L 200.051128 197.477101 
L 200.701738 199.673401 
L 201.352348 198.719038 
L 202.002959 190.681247 
L 202.653569 189.459052 
L 203.304179 196.17497 
L 203.95479 189.155295 
L 204.6054 200.695599 
L 205.25601 192.501197 
L 205.906621 191.148663 
L 206.557231 195.418208 
L 207.858451 207.006878 
L 208.509062 208.354345 
L 209.159672 205.508668 
L 209.810282 203.594651 
L 210.460893 203.924011 
L 211.111503 197.328502 
L 211.762113 194.677069 
L 212.412724 187.940722 
L 213.063334 195.642631 
L 213.713944 198.722606 
L 214.364555 200.841697 
L 215.015165 207.926047 
L 215.665775 191.333753 
L 216.316385 195.839151 
L 216.966996 197.380308 
L 217.617606 196.416269 
L 218.268216 203.290148 
L 218.918827 201.036225 
L 219.569437 199.716901 
L 220.220047 191.010608 
L 220.870658 199.940617 
L 221.521268 195.826723 
L 222.171878 195.696222 
L 222.822489 201.984069 
L 223.473099 198.268959 
L 224.123709 197.871241 
L 224.77432 200.54661 
L 225.42493 197.169021 
L 226.07554 198.625813 
L 226.72615 211.486865 
L 227.376761 214.376534 
L 228.027371 211.797582 
L 228.677981 204.060726 
L 229.328592 218.422071 
L 229.979202 205.328452 
L 230.629812 196.932876 
L 231.280423 202.925636 
L 231.931033 205.41765 
L 232.581643 211.006207 
L 233.232254 212.711091 
L 233.882864 211.505508 
L 234.533474 196.249298 
L 235.184085 194.192351 
L 235.834695 185.144268 
L 236.485305 191.681757 
L 237.135915 188.928803 
L 237.786526 195.559506 
L 238.437136 192.147832 
L 239.087746 191.389682 
L 239.738357 196.504086 
L 241.039577 191.538704 
L 241.690188 195.125794 
L 242.340798 185.088339 
L 242.991408 191.907872 
L 243.642019 189.724239 
L 244.292629 189.164948 
L 244.943239 182.204885 
L 245.59385 190.805534 
L 246.24446 185.597915 
L 246.89507 187.960998 
L 247.54568 195.95101 
L 248.196291 193.145893 
L 248.846901 193.421465 
L 249.497511 188.450299 
L 250.148122 188.41295 
L 250.798732 191.415647 
L 251.449342 186.56723 
L 252.099953 186.318779 
L 252.750563 188.613817 
L 253.401173 195.721079 
L 254.051784 197.759383 
L 254.702394 198.157101 
L 255.353004 195.52222 
L 256.003615 190.326599 
L 256.654225 199.986517 
L 257.304835 198.196048 
L 257.955445 188.665339 
L 258.606056 184.224546 
L 259.256666 190.94225 
L 259.907276 190.84282 
L 260.557887 188.751479 
L 261.208497 193.692189 
L 261.859107 192.365334 
L 262.509718 195.733508 
L 263.160328 195.143145 
L 263.810938 195.105859 
L 264.461549 194.846806 
L 265.112159 204.028916 
L 265.762769 192.024776 
L 266.413379 192.769266 
L 267.06399 198.191585 
L 267.7146 191.124293 
L 268.36521 192.056445 
L 269.015821 195.290855 
L 269.666431 196.211525 
L 270.317041 195.279373 
L 270.967652 188.369512 
L 271.618262 194.938311 
L 272.268872 191.38299 
L 272.919483 189.058939 
L 273.570093 187.810475 
L 274.220703 188.268576 
L 274.871314 189.908208 
L 275.521924 185.964562 
L 276.172534 188.355815 
L 276.823144 187.611362 
L 277.473755 189.523999 
L 278.124365 194.757856 
L 278.774975 186.511424 
L 279.425586 189.775083 
L 280.076196 184.758979 
L 280.726806 180.930631 
L 281.377417 184.343349 
L 282.028027 190.277437 
L 282.678637 182.003832 
L 283.329248 186.924093 
L 283.979858 183.618343 
L 284.630468 189.916883 
L 285.281079 187.008571 
L 285.931689 187.061725 
L 286.582299 187.93792 
L 287.232909 186.211656 
L 287.88352 189.505167 
L 288.53413 188.726805 
L 289.18474 184.833033 
L 290.485961 190.762034 
L 291.136571 193.353784 
L 291.787182 193.814949 
L 292.437792 200.373042 
L 293.739013 189.895902 
L 294.389623 195.601572 
L 295.040233 185.546559 
L 296.341454 194.917653 
L 296.992064 189.022735 
L 297.642674 188.192164 
L 298.293285 182.962442 
L 298.943895 180.026788 
L 299.594505 181.956311 
L 300.245116 182.80786 
L 300.895726 186.981768 
L 301.546336 187.840862 
L 302.196947 191.501541 
L 302.847557 203.000961 
L 303.498167 189.762529 
L 304.148778 202.279093 
L 304.799388 202.349198 
L 305.449998 196.261727 
L 306.100608 195.764579 
L 306.751219 204.887234 
L 307.401829 199.033323 
L 308.052439 194.997642 
L 308.70305 187.656278 
L 309.35366 195.864009 
L 310.00427 187.866841 
L 310.654881 203.818367 
L 311.305491 194.229637 
L 311.956101 186.467923 
L 312.606712 193.907537 
L 313.257322 206.514653 
L 313.907932 192.080151 
L 314.558543 199.481987 
L 315.209153 193.129698 
L 315.859763 198.226813 
L 316.510373 189.403677 
L 317.811594 190.32703 
L 318.462204 196.647016 
L 319.112815 192.601479 
L 319.763425 197.299522 
L 320.414035 205.059854 
L 321.064646 201.073887 
L 321.715256 203.02607 
L 322.365866 194.944286 
L 323.016477 197.933385 
L 323.667087 194.72057 
L 324.317697 199.921974 
L 324.968308 198.231673 
L 325.618918 198.544211 
L 326.269528 199.083038 
L 326.920138 199.356469 
L 327.570749 190.936035 
L 328.221359 197.596367 
L 328.871969 201.287309 
L 329.52258 197.326451 
L 330.17319 200.997056 
L 330.8238 209.268345 
L 331.474411 195.19286 
L 332.125021 202.46364 
L 332.775631 196.818005 
L 333.426242 209.088129 
L 334.727462 186.828355 
L 335.378073 196.578658 
L 336.028683 192.63117 
L 336.679293 191.023036 
L 337.329903 200.34455 
L 337.980514 193.292256 
L 338.631124 187.859936 
L 339.281734 187.39386 
L 339.932345 184.995124 
L 340.582955 192.64498 
L 341.233565 202.805429 
L 341.884176 201.748991 
L 342.534786 208.423195 
L 343.185396 207.3822 
L 343.836007 204.551659 
L 344.486617 209.509943 
L 345.137227 206.434542 
L 345.787837 204.656503 
L 346.438448 204.07084 
L 347.089058 197.894561 
L 347.739668 195.73631 
L 348.390279 198.159132 
L 349.040889 221.172466 
L 349.691499 210.345184 
L 350.34211 212.169089 
L 350.99272 203.321094 
L 351.64333 209.554268 
L 352.293941 200.088381 
L 352.944551 201.121342 
L 353.595161 211.510738 
L 354.245772 203.70529 
L 354.896382 203.998583 
L 355.546992 206.09425 
L 356.197602 209.701811 
L 356.848213 198.952845 
L 357.498823 198.362174 
L 358.149433 200.23263 
L 359.450654 194.319776 
L 360.101264 207.194073 
L 360.751875 205.505592 
L 361.402485 196.177739 
L 362.053095 211.615336 
L 362.703706 193.32302 
L 363.354316 209.895994 
L 364.004926 205.403024 
L 364.655537 191.178395 
L 365.306147 198.45539 
L 365.956757 196.719373 
L 366.607367 201.253997 
L 367.257978 201.724134 
L 367.908588 187.840862 
L 368.559198 182.967834 
L 369.209809 188.256022 
L 369.860419 187.949981 
L 370.511029 188.839793 
L 371.16164 187.502768 
L 371.81225 178.363291 
L 372.46286 183.798463 
L 373.113471 186.56723 
L 373.764081 183.035514 
L 374.414691 185.459723 
L 375.065302 189.471358 
L 375.715912 188.375726 
L 376.366522 190.543517 
L 377.017132 185.431321 
L 377.667743 189.624809 
L 378.318353 186.757967 
L 378.968963 198.952537 
L 379.619574 204.501945 
L 380.270184 191.694185 
L 380.920794 195.807389 
L 381.571405 194.796774 
L 382.222015 196.855667 
L 383.523236 183.112666 
L 384.173846 187.308178 
L 384.824456 176.510518 
L 385.475066 176.593334 
L 386.125677 183.864114 
L 386.776287 186.524462 
L 387.426897 183.041667 
L 388.077508 201.393252 
L 389.378728 188.605657 
L 390.029339 197.552427 
L 390.679949 191.270136 
L 391.330559 198.883175 
L 391.98117 201.124104 
L 392.63178 192.344722 
L 393.28239 197.956089 
L 393.933001 202.235153 
L 394.583611 205.555746 
L 395.234221 205.303595 
L 395.884831 190.647602 
L 396.535442 199.435561 
L 397.186052 200.703538 
L 397.836662 193.055126 
L 398.487273 194.701927 
L 398.487273 194.701927 
" style="fill:none;stroke:#0000ff;stroke-linecap:square;stroke-width:1.5;"/>
   </g>
   <g id="line2d_32">
    <path clip-path="url(#p2bc7381ee4)" d="M 73.832727 241.508597 
L 75.784558 258.92283 
L 76.435169 254.01123 
L 77.085779 256.421867 
L 77.736389 253.958534 
L 78.386999 252.396014 
L 79.03761 250.511692 
L 79.68822 249.438663 
L 80.33883 249.0703 
L 80.989441 250.990933 
L 81.640051 247.823748 
L 82.290661 245.52516 
L 82.941272 246.478367 
L 83.591882 247.048834 
L 84.242492 248.254521 
L 84.893103 246.532114 
L 85.543713 252.58576 
L 86.194323 247.479734 
L 86.844934 250.782977 
L 87.495544 247.523053 
L 88.146154 247.375944 
L 88.796764 248.149041 
L 89.447375 250.896188 
L 90.097985 247.503463 
L 90.748595 245.771094 
L 91.399206 246.994993 
L 92.049816 247.608778 
L 92.700426 245.992013 
L 93.351037 254.043329 
L 94.001647 247.514993 
L 94.652257 248.361834 
L 95.302868 245.717754 
L 95.953478 246.88933 
L 96.604088 246.721025 
L 97.254698 247.49513 
L 97.905309 246.889708 
L 98.555919 260.556137 
L 99.206529 253.162219 
L 99.85714 250.149689 
L 100.50775 253.667158 
L 101.15836 260.973554 
L 101.808971 254.782076 
L 102.459581 265.112508 
L 103.110191 265.980146 
L 103.760802 262.923832 
L 104.411412 266.879761 
L 105.062022 265.672205 
L 105.712633 258.70527 
L 106.363243 257.544442 
L 107.664463 263.365256 
L 108.315074 260.665494 
L 108.965684 249.809367 
L 109.616294 258.683936 
L 110.266905 246.659992 
L 110.917515 258.841391 
L 111.568125 255.716754 
L 112.218736 249.738045 
L 112.869346 250.29248 
L 113.519956 260.156812 
L 114.170567 263.165657 
L 114.821177 256.056313 
L 115.471787 261.473302 
L 116.122398 255.506972 
L 116.773008 261.904791 
L 118.074228 264.400904 
L 118.724839 267.553573 
L 119.375449 259.149344 
L 120.026059 255.80192 
L 120.67667 264.787362 
L 121.32728 261.698354 
L 121.97789 254.777498 
L 122.628501 264.426637 
L 123.279111 268.347732 
L 123.929721 260.013712 
L 124.580332 270.371413 
L 125.230942 263.768884 
L 125.881552 259.859952 
L 126.532163 251.716267 
L 127.182773 257.808587 
L 127.833383 272.681923 
L 128.483993 252.892272 
L 129.134604 260.931341 
L 129.785214 255.621708 
L 130.435824 267.372308 
L 131.086435 270.444816 
L 131.737045 259.040181 
L 132.387655 261.291393 
L 133.038266 254.145656 
L 133.688876 266.309505 
L 134.339486 260.832203 
L 134.990097 266.268251 
L 135.640707 260.877355 
L 136.291317 263.465174 
L 136.941927 269.655499 
L 137.592538 272.928318 
L 138.243148 264.661347 
L 138.893758 276.064039 
L 139.544369 260.710393 
L 140.194979 275.108932 
L 140.845589 262.327561 
L 142.14681 268.806743 
L 142.79742 268.493958 
L 143.448031 265.697969 
L 144.098641 255.140732 
L 144.749251 277.999941 
L 145.399862 284.221147 
L 146.050472 282.506263 
L 146.701082 284.331467 
L 147.351692 277.477845 
L 148.002303 289.220385 
L 148.652913 295.488 
L 149.954134 284.041477 
L 150.604744 289.550391 
L 151.905965 286.319211 
L 152.556575 280.27729 
L 153.207185 288.413689 
L 153.857796 282.793797 
L 154.508406 281.499568 
L 155.159016 278.292253 
L 155.809627 293.347407 
L 156.460237 267.135898 
L 157.110847 288.376052 
L 158.412068 268.735245 
L 159.062678 275.837706 
L 159.713288 279.923873 
L 160.363899 276.122025 
L 161.014509 276.971176 
L 161.665119 277.320472 
L 162.31573 281.242315 
L 162.96634 280.679173 
L 163.61695 281.236281 
L 164.267561 279.276173 
L 164.918171 280.647262 
L 165.568781 276.502506 
L 166.219392 274.122484 
L 166.870002 295.475727 
L 167.520612 290.359132 
L 168.171222 281.637467 
L 168.821833 278.646822 
L 169.472443 280.667659 
L 170.123053 283.502389 
L 170.773664 292.961763 
L 172.074884 264.00564 
L 172.725495 270.709449 
L 173.376105 272.924737 
L 174.026715 273.957789 
L 174.677326 273.391313 
L 175.327936 254.936342 
L 175.978546 256.697061 
L 176.629156 269.509653 
L 177.279767 270.294358 
L 177.930377 266.554506 
L 179.231598 252.605724 
L 179.882208 275.753591 
L 180.532818 260.377091 
L 181.183429 259.259554 
L 181.834039 271.745521 
L 182.484649 261.618614 
L 183.13526 274.015108 
L 183.78587 262.558628 
L 184.43648 256.730208 
L 185.087091 253.564455 
L 185.737701 259.228426 
L 186.388311 251.916023 
L 187.038921 257.888377 
L 187.689532 268.26705 
L 188.340142 251.95294 
L 188.990752 262.178657 
L 189.641363 270.181234 
L 190.291973 261.273517 
L 190.942583 255.867128 
L 191.593194 254.455026 
L 192.243804 250.648192 
L 192.894414 252.179219 
L 193.545025 237.363016 
L 194.195635 247.287499 
L 194.846245 250.880771 
L 195.496856 257.210457 
L 196.147466 257.67742 
L 196.798076 247.490388 
L 197.448686 259.860669 
L 198.099297 247.336239 
L 198.749907 242.200389 
L 199.400517 245.114632 
L 200.051128 242.509841 
L 200.701738 248.600673 
L 201.352348 245.252042 
L 202.002959 228.537103 
L 202.653569 237.339811 
L 203.304179 238.045801 
L 203.95479 230.899509 
L 204.6054 247.724763 
L 205.25601 243.794014 
L 205.906621 233.547797 
L 206.557231 237.448093 
L 207.207841 247.318143 
L 207.858451 248.571427 
L 208.509062 258.661505 
L 209.159672 248.85757 
L 209.810282 257.973887 
L 211.111503 242.037594 
L 211.762113 237.071115 
L 212.412724 228.631508 
L 213.063334 240.767863 
L 213.713944 244.658592 
L 214.364555 241.581201 
L 215.015165 253.292865 
L 215.665775 231.843038 
L 216.316385 243.408374 
L 216.966996 249.216653 
L 217.617606 242.073855 
L 218.268216 255.108168 
L 218.918827 251.706067 
L 219.569437 250.315645 
L 220.220047 236.525483 
L 220.870658 248.778185 
L 221.521268 236.532579 
L 222.171878 244.432222 
L 222.822489 250.232994 
L 223.473099 240.551736 
L 224.123709 238.247951 
L 224.77432 248.798148 
L 225.42493 237.443298 
L 226.07554 243.08449 
L 226.72615 263.455733 
L 227.376761 262.871412 
L 228.027371 259.84701 
L 228.677981 251.399908 
L 229.328592 265.773979 
L 229.979202 245.927782 
L 230.629812 238.991854 
L 231.280423 241.554675 
L 231.931033 253.106549 
L 232.581643 254.252314 
L 233.232254 262.674023 
L 233.882864 255.06848 
L 234.533474 239.572134 
L 235.184085 241.998724 
L 235.834695 225.818347 
L 236.485305 234.77878 
L 237.135915 230.716027 
L 237.786526 239.35907 
L 238.437136 239.86686 
L 239.087746 237.406673 
L 239.738357 240.708244 
L 240.388967 236.109419 
L 241.039577 238.680674 
L 241.690188 239.922634 
L 242.340798 225.022103 
L 242.991408 238.722409 
L 243.642019 235.954309 
L 244.292629 228.415887 
L 244.943239 218.814974 
L 245.59385 230.859631 
L 246.24446 227.375901 
L 246.89507 230.2577 
L 247.54568 233.992661 
L 248.196291 236.206807 
L 248.846901 241.544077 
L 249.497511 230.770414 
L 250.148122 230.193447 
L 250.798732 235.010026 
L 251.449342 227.252413 
L 252.099953 226.700413 
L 252.750563 231.45657 
L 253.401173 244.883037 
L 254.051784 244.727927 
L 254.702394 246.928964 
L 255.353004 243.513944 
L 256.003615 235.690181 
L 256.654225 244.463561 
L 257.304835 240.756591 
L 258.606056 222.628917 
L 259.256666 234.161543 
L 259.907276 236.647244 
L 260.557887 231.563694 
L 261.208497 237.661243 
L 261.859107 235.132144 
L 262.509718 236.79163 
L 263.160328 241.845271 
L 263.810938 237.406419 
L 264.461549 241.43987 
L 265.112159 249.330423 
L 265.762769 236.756504 
L 266.413379 238.457574 
L 267.06399 242.317204 
L 268.36521 230.182869 
L 269.015821 237.026522 
L 269.666431 236.278909 
L 270.317041 241.69442 
L 270.967652 234.692728 
L 271.618262 244.073121 
L 272.268872 233.875645 
L 272.919483 229.420982 
L 273.570093 229.466153 
L 274.220703 224.419403 
L 274.871314 235.88021 
L 275.521924 229.438883 
L 276.823144 237.282853 
L 277.473755 237.72071 
L 278.124365 240.490433 
L 278.774975 227.854809 
L 279.425586 239.053797 
L 280.076196 221.050833 
L 280.726806 220.380136 
L 281.377417 226.271275 
L 282.028027 236.340197 
L 282.678637 218.109691 
L 283.329248 224.047581 
L 283.979858 221.889551 
L 284.630468 226.316074 
L 285.281079 225.03566 
L 285.931689 223.05273 
L 286.582299 225.811425 
L 287.232909 233.450077 
L 287.88352 229.134225 
L 288.53413 228.971993 
L 289.18474 221.34444 
L 289.835351 223.540323 
L 290.485961 229.556641 
L 291.136571 232.577058 
L 291.787182 233.05287 
L 292.437792 243.833935 
L 293.088402 237.206945 
L 293.739013 225.648292 
L 294.389623 238.848544 
L 295.040233 224.243847 
L 296.341454 238.570985 
L 296.992064 233.947915 
L 298.293285 219.073114 
L 298.943895 216.97409 
L 299.594505 224.839775 
L 300.245116 227.777731 
L 300.895726 225.013477 
L 301.546336 234.032427 
L 302.196947 235.392831 
L 302.847557 256.870711 
L 303.498167 235.018512 
L 304.148778 247.409035 
L 304.799388 251.663565 
L 305.449998 240.872289 
L 306.100608 241.612561 
L 306.751219 253.826234 
L 307.401829 245.506025 
L 308.052439 240.719376 
L 308.70305 227.686692 
L 309.35366 239.123061 
L 310.00427 230.361209 
L 310.654881 252.566987 
L 311.305491 233.551289 
L 311.956101 231.145718 
L 312.606712 237.962465 
L 313.257322 255.112121 
L 313.907932 233.442453 
L 314.558543 242.706478 
L 315.209153 241.435422 
L 315.859763 245.164079 
L 316.510373 230.781448 
L 317.160984 234.910481 
L 317.811594 231.865086 
L 318.462204 246.852527 
L 319.112815 235.948631 
L 319.763425 243.210963 
L 320.414035 256.140219 
L 321.064646 247.196172 
L 321.715256 254.59489 
L 322.365866 240.893748 
L 323.016477 240.332389 
L 323.667087 237.015551 
L 324.317697 245.517844 
L 324.968308 240.459425 
L 325.618918 244.654298 
L 326.920138 240.849107 
L 327.570749 231.344303 
L 328.221359 243.073598 
L 328.871969 241.709471 
L 329.52258 246.079812 
L 330.17319 238.939584 
L 330.8238 250.033424 
L 331.474411 239.512798 
L 332.125021 243.281983 
L 332.775631 239.986362 
L 333.426242 252.011255 
L 334.727462 224.613837 
L 335.378073 245.491624 
L 336.028683 233.072271 
L 336.679293 226.604549 
L 337.329903 242.91644 
L 337.980514 234.774725 
L 338.631124 229.853673 
L 339.281734 232.122913 
L 339.932345 226.849768 
L 341.233565 251.028915 
L 341.884176 249.379918 
L 342.534786 259.440461 
L 343.185396 254.941538 
L 343.836007 251.724037 
L 344.486617 260.842451 
L 345.137227 251.400221 
L 345.787837 254.138788 
L 346.438448 250.645474 
L 347.089058 241.053046 
L 347.739668 241.303687 
L 348.390279 245.257213 
L 349.040889 266.748539 
L 349.691499 254.266623 
L 350.34211 262.032243 
L 350.99272 249.341482 
L 351.64333 259.55571 
L 352.293941 248.977058 
L 352.944551 246.297116 
L 353.595161 266.167977 
L 354.245772 252.751625 
L 354.896382 248.971212 
L 355.546992 249.627654 
L 356.197602 257.029187 
L 356.848213 242.013409 
L 357.498823 239.881619 
L 358.149433 247.615 
L 358.800044 235.973287 
L 359.450654 238.801346 
L 360.101264 248.658623 
L 360.751875 249.979253 
L 361.402485 235.196239 
L 362.053095 251.22018 
L 362.703706 234.404178 
L 363.354316 251.884656 
L 364.004926 248.762753 
L 364.655537 234.626498 
L 365.306147 245.427627 
L 365.956757 240.723891 
L 366.607367 240.227763 
L 367.257978 250.285717 
L 367.908588 232.897528 
L 368.559198 222.395586 
L 369.209809 231.462245 
L 369.860419 233.404588 
L 370.511029 231.276101 
L 371.16164 229.769926 
L 371.81225 214.44751 
L 372.46286 225.744161 
L 373.113471 228.85162 
L 373.764081 221.685247 
L 374.414691 224.246119 
L 375.065302 232.630139 
L 375.715912 227.849496 
L 376.366522 232.892885 
L 377.017132 229.880572 
L 377.667743 233.525416 
L 378.318353 225.831935 
L 379.619574 258.873659 
L 380.270184 233.885941 
L 380.920794 236.119644 
L 381.571405 235.074246 
L 382.222015 238.023363 
L 382.872625 229.730413 
L 383.523236 231.345768 
L 384.173846 229.560745 
L 384.824456 212.793617 
L 385.475066 210.587598 
L 386.125677 224.290887 
L 386.776287 229.877463 
L 387.426897 225.88369 
L 388.077508 252.719037 
L 388.728118 242.287723 
L 389.378728 234.368413 
L 390.029339 240.426198 
L 390.679949 235.44916 
L 391.330559 248.687728 
L 391.98117 250.070488 
L 392.63178 233.667351 
L 393.28239 240.942717 
L 393.933001 244.847128 
L 394.583611 252.568691 
L 395.234221 254.021506 
L 395.884831 235.188233 
L 396.535442 246.518295 
L 397.186052 250.362522 
L 397.836662 233.200202 
L 398.487273 246.366019 
L 398.487273 246.366019 
" style="fill:none;stroke:#008000;stroke-dasharray:9.6,2.4,1.5,2.4;stroke-dashoffset:0;stroke-width:1.5;"/>
   </g>
   <g id="line2d_33">
    <path clip-path="url(#p2bc7381ee4)" d="M 73.832727 239.13423 
L 75.133948 226.203346 
L 75.784558 223.449071 
L 76.435169 226.837627 
L 77.085779 223.645341 
L 77.736389 227.723702 
L 78.386999 227.568652 
L 79.03761 228.639889 
L 79.68822 228.473299 
L 80.33883 229.680905 
L 80.989441 228.700422 
L 81.640051 231.687945 
L 82.290661 233.533687 
L 82.941272 231.362222 
L 83.591882 231.525171 
L 84.242492 229.866637 
L 84.893103 230.877117 
L 85.543713 226.050763 
L 86.194323 229.779303 
L 86.844934 227.367216 
L 87.495544 230.406178 
L 88.146154 228.827699 
L 88.796764 228.048538 
L 89.447375 223.510061 
L 90.097985 227.209435 
L 90.748595 227.439379 
L 91.399206 225.945256 
L 92.049816 221.481088 
L 92.700426 225.057205 
L 93.351037 221.301534 
L 94.001647 223.973812 
L 94.652257 226.045605 
L 95.302868 224.130008 
L 95.953478 221.231852 
L 96.604088 221.342104 
L 97.254698 218.040901 
L 97.905309 213.379116 
L 98.555919 204.606532 
L 99.206529 205.264899 
L 99.85714 205.070033 
L 100.50775 201.748201 
L 101.15836 192.775859 
L 101.808971 202.018014 
L 103.110191 194.130494 
L 103.760802 194.340988 
L 105.062022 187.961836 
L 105.712633 186.233418 
L 106.363243 182.556016 
L 107.013853 191.902911 
L 107.664463 186.243716 
L 108.315074 196.586549 
L 108.965684 181.15249 
L 109.616294 169.261729 
L 110.266905 175.027253 
L 110.917515 177.762824 
L 111.568125 175.807912 
L 112.218736 173.2044 
L 112.869346 171.494581 
L 113.519956 181.182228 
L 114.170567 179.501967 
L 114.821177 173.897179 
L 115.471787 180.781081 
L 116.122398 171.550402 
L 116.773008 173.160877 
L 117.423618 172.433059 
L 118.074228 178.791506 
L 118.724839 182.060366 
L 119.375449 179.501101 
L 120.026059 168.382787 
L 120.67667 172.564715 
L 121.32728 180.305399 
L 121.97789 172.20639 
L 122.628501 179.47749 
L 123.279111 175.478794 
L 123.929721 177.712742 
L 124.580332 175.251649 
L 125.230942 178.100465 
L 125.881552 174.828379 
L 126.532163 176.241366 
L 127.182773 168.289297 
L 127.833383 174.780703 
L 128.483993 166.043736 
L 129.134604 169.667266 
L 129.785214 194.875725 
L 130.435824 175.452314 
L 131.086435 183.020785 
L 131.737045 180.840006 
L 132.387655 185.762851 
L 133.038266 174.081603 
L 133.688876 179.446004 
L 134.339486 171.015608 
L 134.990097 182.059996 
L 135.640707 171.579462 
L 136.291317 170.43224 
L 136.941927 169.615124 
L 137.592538 170.10211 
L 138.243148 172.630228 
L 138.893758 170.299722 
L 139.544369 166.375456 
L 140.194979 182.503417 
L 140.845589 180.55868 
L 141.4962 163.501254 
L 142.14681 176.29103 
L 142.79742 170.980144 
L 143.448031 170.383881 
L 144.098641 171.300601 
L 144.749251 203.425892 
L 145.399862 197.577548 
L 146.050472 187.273893 
L 146.701082 204.151726 
L 147.351692 187.227642 
L 148.002303 188.874561 
L 148.652913 178.654625 
L 149.303523 198.553648 
L 149.954134 201.771682 
L 150.604744 197.1281 
L 151.255354 200.307946 
L 151.905965 187.247382 
L 152.556575 189.261574 
L 153.207185 202.065626 
L 153.857796 198.358606 
L 154.508406 195.722483 
L 155.159016 188.233597 
L 155.809627 196.064798 
L 156.460237 191.421157 
L 157.761457 206.548312 
L 158.412068 195.869808 
L 159.062678 192.692758 
L 159.713288 193.046148 
L 160.363899 190.289096 
L 161.665119 199.236205 
L 162.31573 194.046385 
L 162.96634 195.814732 
L 163.61695 192.520804 
L 164.267561 195.264169 
L 164.918171 199.250828 
L 165.568781 196.347536 
L 166.219392 198.580045 
L 166.870002 199.211513 
L 167.520612 195.876854 
L 168.171222 199.503491 
L 168.821833 194.876952 
L 169.472443 194.916693 
L 170.123053 190.304661 
L 170.773664 197.288437 
L 171.424274 190.014452 
L 172.074884 193.040899 
L 172.725495 186.604737 
L 173.376105 185.064238 
L 174.026715 193.001056 
L 175.327936 185.748264 
L 175.978546 177.451438 
L 176.629156 172.442678 
L 177.279767 171.968691 
L 177.930377 167.242475 
L 178.580987 166.811926 
L 179.231598 160.499631 
L 179.882208 184.332192 
L 180.532818 165.256378 
L 181.183429 166.69706 
L 181.834039 164.652173 
L 182.484649 160.646681 
L 183.13526 168.117879 
L 183.78587 163.504949 
L 184.43648 161.863604 
L 185.087091 151.960407 
L 185.737701 160.29013 
L 186.388311 158.206448 
L 187.038921 151.457723 
L 187.689532 163.854193 
L 188.340142 161.38856 
L 188.990752 158.30786 
L 189.641363 164.05067 
L 190.291973 161.871016 
L 190.942583 158.774216 
L 191.593194 157.295603 
L 192.243804 156.864255 
L 192.894414 157.97057 
L 193.545025 150.077106 
L 194.195635 169.906893 
L 194.846245 157.476826 
L 195.496856 169.644036 
L 196.147466 167.918763 
L 196.798076 158.319329 
L 197.448686 154.649128 
L 198.099297 154.894017 
L 199.400517 155.798183 
L 200.051128 152.444362 
L 200.701738 150.746128 
L 201.352348 152.186033 
L 202.002959 152.825392 
L 202.653569 141.578293 
L 203.304179 154.304138 
L 203.95479 147.41108 
L 204.6054 153.666435 
L 205.25601 141.208379 
L 205.906621 148.74953 
L 206.557231 153.388324 
L 207.207841 155.485186 
L 207.858451 165.44233 
L 208.509062 158.047184 
L 209.159672 162.159767 
L 209.810282 149.215415 
L 210.460893 157.410385 
L 211.111503 152.619409 
L 211.762113 152.283024 
L 212.412724 147.249937 
L 213.063334 150.517399 
L 213.713944 152.78662 
L 214.364555 160.102193 
L 215.015165 162.55923 
L 215.665775 150.824469 
L 216.966996 145.543963 
L 217.617606 150.758683 
L 218.268216 151.472127 
L 219.569437 149.118157 
L 220.220047 145.495732 
L 220.870658 151.103049 
L 221.521268 155.120867 
L 222.171878 146.960222 
L 222.822489 153.735144 
L 223.473099 155.986182 
L 224.123709 157.494532 
L 224.77432 152.295072 
L 225.42493 156.894744 
L 226.07554 154.167137 
L 226.72615 159.517998 
L 227.376761 165.881657 
L 228.027371 163.748155 
L 228.677981 156.721545 
L 229.328592 171.070163 
L 229.979202 164.729122 
L 230.629812 154.873897 
L 231.280423 164.296596 
L 231.931033 157.728751 
L 232.581643 167.7601 
L 233.232254 162.748158 
L 233.882864 167.942537 
L 234.533474 152.926462 
L 235.184085 146.385977 
L 235.834695 144.47019 
L 236.485305 148.584733 
L 237.135915 147.141579 
L 237.786526 151.759942 
L 238.437136 144.428805 
L 239.087746 145.372692 
L 239.738357 152.299928 
L 240.388967 152.025601 
L 241.039577 144.396733 
L 241.690188 150.328954 
L 242.340798 145.154576 
L 242.991408 145.093336 
L 243.642019 143.494168 
L 244.292629 149.914009 
L 244.943239 145.594795 
L 245.59385 150.751438 
L 246.24446 143.81993 
L 246.89507 145.664295 
L 247.54568 157.909358 
L 248.196291 150.08498 
L 248.846901 145.298852 
L 249.497511 146.130183 
L 250.148122 146.632453 
L 250.798732 147.821268 
L 251.449342 145.882046 
L 252.099953 145.937145 
L 252.750563 145.771065 
L 253.401173 146.559121 
L 254.051784 150.790839 
L 254.702394 149.385238 
L 255.353004 147.530496 
L 256.003615 144.963017 
L 256.654225 155.509473 
L 257.304835 155.635506 
L 257.955445 145.654289 
L 258.606056 145.820175 
L 259.256666 147.722956 
L 259.907276 145.038396 
L 260.557887 145.939264 
L 261.208497 149.723134 
L 261.859107 149.598524 
L 262.509718 154.675385 
L 263.160328 148.441019 
L 263.810938 152.805299 
L 264.461549 148.253742 
L 265.112159 158.727409 
L 265.762769 147.293048 
L 266.413379 147.080959 
L 267.06399 154.065966 
L 267.7146 146.305812 
L 268.36521 153.93002 
L 269.015821 153.555189 
L 269.666431 156.144141 
L 270.967652 142.046296 
L 271.618262 145.8035 
L 272.268872 148.890335 
L 272.919483 148.696896 
L 273.570093 146.154797 
L 274.220703 152.117749 
L 274.871314 143.936206 
L 275.521924 142.490241 
L 276.172534 143.576853 
L 276.823144 137.939872 
L 277.473755 141.327288 
L 278.124365 149.025279 
L 278.774975 145.168039 
L 279.425586 140.49637 
L 280.076196 148.467125 
L 280.726806 141.481125 
L 281.377417 142.415424 
L 282.678637 145.897974 
L 283.329248 149.800605 
L 283.979858 145.347135 
L 284.630468 153.517693 
L 285.281079 148.981482 
L 285.931689 151.070719 
L 286.582299 150.064415 
L 287.232909 138.973234 
L 287.88352 149.87611 
L 288.53413 148.481618 
L 289.18474 148.321627 
L 289.835351 152.575237 
L 290.485961 151.967427 
L 291.136571 154.130509 
L 291.787182 154.577028 
L 292.437792 156.912148 
L 293.088402 152.361494 
L 293.739013 154.143513 
L 294.389623 152.354601 
L 295.040233 146.849271 
L 295.690844 148.557566 
L 296.341454 151.264321 
L 296.992064 144.097555 
L 297.642674 149.761763 
L 298.293285 146.851771 
L 299.594505 139.072846 
L 300.245116 137.83799 
L 300.895726 148.950058 
L 301.546336 141.649297 
L 302.196947 147.610251 
L 302.847557 149.131212 
L 303.498167 144.506546 
L 304.148778 157.149151 
L 304.799388 153.034831 
L 305.449998 151.651165 
L 306.100608 149.916598 
L 306.751219 155.948233 
L 308.052439 149.275907 
L 308.70305 147.625864 
L 309.35366 152.604957 
L 310.00427 145.372473 
L 310.654881 155.069747 
L 311.305491 154.907984 
L 311.956101 141.790129 
L 313.257322 157.917185 
L 313.907932 150.717849 
L 314.558543 156.257495 
L 315.209153 144.823974 
L 315.859763 151.289546 
L 317.160984 144.853107 
L 317.811594 148.788974 
L 318.462204 146.441505 
L 319.112815 149.254328 
L 319.763425 151.388081 
L 320.414035 153.97949 
L 321.064646 154.951603 
L 321.715256 151.457249 
L 322.365866 148.994824 
L 323.016477 155.53438 
L 323.667087 152.425589 
L 324.968308 156.003922 
L 325.618918 152.434123 
L 326.269528 155.459974 
L 326.920138 157.863831 
L 327.570749 150.527768 
L 328.221359 152.119135 
L 328.871969 160.865148 
L 329.52258 148.573089 
L 330.17319 163.054527 
L 330.8238 168.503266 
L 331.474411 150.872922 
L 332.125021 161.645297 
L 332.775631 153.649647 
L 333.426242 166.165004 
L 334.727462 149.042873 
L 335.378073 147.665693 
L 336.028683 152.190069 
L 336.679293 155.441523 
L 337.329903 157.772659 
L 338.631124 145.866199 
L 339.281734 142.664807 
L 339.932345 143.14048 
L 340.582955 147.103559 
L 341.233565 154.581943 
L 341.884176 154.118064 
L 342.534786 157.405928 
L 343.185396 159.822862 
L 343.836007 157.379282 
L 344.486617 158.177436 
L 345.137227 161.468863 
L 345.787837 155.174219 
L 346.438448 157.496206 
L 347.089058 154.736075 
L 347.739668 150.168934 
L 348.390279 151.06105 
L 349.040889 175.596392 
L 349.691499 166.423745 
L 350.34211 162.305936 
L 350.99272 157.300706 
L 351.64333 159.552826 
L 352.293941 151.199704 
L 352.944551 155.945569 
L 353.595161 156.853499 
L 354.245772 154.658955 
L 354.896382 159.025954 
L 355.546992 162.560847 
L 356.197602 162.374434 
L 356.848213 155.89228 
L 357.498823 156.84273 
L 358.149433 152.85026 
L 358.800044 158.141038 
L 359.450654 149.838205 
L 360.101264 165.729523 
L 360.751875 161.03193 
L 361.402485 157.159239 
L 362.053095 172.010492 
L 362.703706 152.241862 
L 363.354316 167.907332 
L 364.004926 162.043295 
L 364.655537 147.730291 
L 365.306147 151.483152 
L 365.956757 152.714855 
L 366.607367 162.280231 
L 367.908588 142.784197 
L 368.559198 143.540081 
L 369.209809 145.049799 
L 369.860419 142.495373 
L 370.511029 146.403485 
L 371.16164 145.23561 
L 371.81225 142.279072 
L 372.46286 141.852766 
L 373.113471 144.282839 
L 373.764081 144.385782 
L 374.414691 146.673328 
L 375.065302 146.312577 
L 375.715912 148.901957 
L 376.366522 148.19415 
L 377.017132 140.98207 
L 377.667743 145.724203 
L 378.318353 147.683999 
L 378.968963 154.970587 
L 379.619574 150.13023 
L 380.270184 149.50243 
L 380.920794 155.495135 
L 381.571405 154.519302 
L 382.222015 155.687971 
L 382.872625 149.496297 
L 383.523236 134.879564 
L 384.173846 145.05561 
L 384.824456 140.227419 
L 385.475066 142.599069 
L 386.125677 143.437341 
L 386.776287 143.17146 
L 387.426897 140.199644 
L 388.077508 150.067466 
L 388.728118 148.044731 
L 389.378728 142.842902 
L 390.029339 154.678655 
L 390.679949 147.091113 
L 391.330559 149.078621 
L 391.98117 152.17772 
L 392.63178 151.022094 
L 393.28239 154.96946 
L 393.933001 159.623179 
L 394.583611 158.542801 
L 395.234221 156.585684 
L 395.884831 146.106971 
L 396.535442 152.352827 
L 397.186052 151.044554 
L 397.836662 152.91005 
L 398.487273 143.037835 
L 398.487273 143.037835 
" style="fill:none;stroke:#008000;stroke-dasharray:9.6,2.4,1.5,2.4;stroke-dashoffset:0;stroke-width:1.5;"/>
   </g>
   <g id="line2d_34">
    <path clip-path="url(#p2bc7381ee4)" d="M 73.832727 238.133965 
L 74.483338 156.104647 
L 75.133948 95.204093 
L 75.784558 115.089988 
L 76.435169 157.96895 
L 77.085779 115.089988 
L 77.736389 158.590384 
L 78.386999 137.46162 
L 79.03761 177.233411 
L 79.68822 116.954291 
L 80.989441 157.96895 
L 81.640051 179.719148 
L 82.290661 193.390701 
L 82.941272 192.769266 
L 83.591882 197.74074 
L 84.242492 156.104647 
L 84.893103 156.726081 
L 85.543713 118.197159 
L 86.194323 157.96895 
L 86.844934 178.476279 
L 87.495544 194.012135 
L 88.146154 177.854845 
L 88.796764 156.104647 
L 89.447375 116.332857 
L 90.097985 194.633569 
L 90.748595 189.040661 
L 91.399206 194.012135 
L 92.049816 136.840186 
L 92.700426 196.497872 
L 93.351037 195.876438 
L 94.001647 189.662095 
L 94.652257 194.633569 
L 95.302868 194.633569 
L 95.953478 195.876438 
L 96.604088 199.605043 
L 97.254698 191.526398 
L 97.905309 136.218752 
L 98.555919 177.854845 
L 99.85714 136.840186 
L 100.50775 156.726081 
L 101.15836 74.696764 
L 101.808971 134.354449 
L 102.459581 137.46162 
L 103.110191 135.597318 
L 104.411412 135.597318 
L 105.062022 136.840186 
L 105.712633 116.332857 
L 106.363243 137.46162 
L 107.013853 136.218752 
L 107.664463 116.954291 
L 108.315074 131.247278 
L 108.965684 113.225686 
L 109.616294 113.225686 
L 110.266905 120.682896 
L 110.917515 136.840186 
L 111.568125 137.46162 
L 112.869346 53.568 
L 113.519956 145.540265 
L 114.170567 121.304331 
L 114.821177 115.711422 
L 115.471787 136.840186 
L 116.122398 138.083055 
L 116.773008 131.868712 
L 117.423618 134.354449 
L 118.074228 125.032936 
L 118.724839 131.247278 
L 119.375449 97.068396 
L 120.026059 111.982817 
L 120.67667 118.818594 
L 121.32728 126.897239 
L 121.97789 108.875646 
L 122.628501 136.218752 
L 123.929721 109.49708 
L 124.580332 137.46162 
L 125.230942 121.925765 
L 125.881552 116.954291 
L 126.532163 115.711422 
L 127.182773 116.954291 
L 127.833383 113.84712 
L 128.483993 116.332857 
L 129.134604 96.446962 
L 129.785214 116.954291 
L 130.435824 125.032936 
L 131.086435 126.275804 
L 131.737045 130.625844 
L 132.387655 110.118514 
L 133.038266 115.711422 
L 133.688876 118.197159 
L 134.339486 116.954291 
L 134.990097 116.332857 
L 135.640707 94.582659 
L 136.291317 116.332857 
L 136.941927 125.65437 
L 137.592538 74.696764 
L 138.243148 111.982817 
L 138.893758 97.068396 
L 139.544369 74.696764 
L 140.194979 125.032936 
L 140.845589 116.332857 
L 141.4962 94.582659 
L 142.14681 133.733015 
L 142.79742 143.675963 
L 143.448031 136.840186 
L 144.098641 128.761541 
L 144.749251 116.954291 
L 145.399862 136.218752 
L 146.050472 116.332857 
L 146.701082 158.590384 
L 147.351692 93.961225 
L 148.002303 115.089988 
L 148.652913 74.075329 
L 149.954134 115.711422 
L 150.604744 115.089988 
L 151.255354 118.197159 
L 151.905965 97.068396 
L 152.556575 115.089988 
L 153.207185 115.711422 
L 153.857796 96.446962 
L 154.508406 135.597318 
L 155.159016 136.840186 
L 155.809627 112.604251 
L 156.460237 95.204093 
L 157.110847 118.197159 
L 157.761457 176.611977 
L 158.412068 114.468554 
L 159.062678 116.332857 
L 159.713288 135.597318 
L 160.363899 136.840186 
L 161.014509 136.218752 
L 161.665119 134.975883 
L 162.31573 95.825527 
L 162.96634 114.468554 
L 163.61695 116.332857 
L 164.267561 95.825527 
L 164.918171 137.46162 
L 165.568781 136.840186 
L 166.219392 154.861779 
L 166.870002 136.840186 
L 167.520612 75.318198 
L 168.171222 155.483213 
L 169.472443 74.696764 
L 170.123053 135.597318 
L 170.773664 158.590384 
L 171.424274 94.582659 
L 172.074884 93.961225 
L 172.725495 137.46162 
L 173.376105 157.347516 
L 174.026715 157.347516 
L 175.327936 116.332857 
L 175.978546 117.575725 
L 176.629156 116.332857 
L 177.279767 137.46162 
L 178.580987 95.825527 
L 179.231598 115.711422 
L 179.882208 144.297397 
L 180.532818 95.825527 
L 181.183429 135.597318 
L 181.834039 114.468554 
L 182.484649 121.925765 
L 183.13526 117.575725 
L 183.78587 95.204093 
L 184.43648 116.332857 
L 185.087091 95.204093 
L 185.737701 97.068396 
L 186.388311 116.954291 
L 187.038921 128.761541 
L 187.689532 115.089988 
L 188.340142 74.696764 
L 188.990752 123.168633 
L 189.641363 127.518673 
L 190.291973 121.925765 
L 190.942583 130.00441 
L 191.593194 115.711422 
L 192.243804 117.575725 
L 192.894414 118.197159 
L 193.545025 117.575725 
L 194.195635 115.089988 
L 194.846245 114.468554 
L 195.496856 130.625844 
L 196.147466 95.204093 
L 196.798076 134.354449 
L 197.448686 116.332857 
L 198.099297 134.975883 
L 198.749907 131.247278 
L 199.400517 111.982817 
L 200.051128 119.440028 
L 200.701738 113.225686 
L 201.352348 118.197159 
L 202.002959 131.868712 
L 202.653569 126.275804 
L 203.304179 131.247278 
L 203.95479 95.825527 
L 204.6054 124.411502 
L 205.906621 134.975883 
L 206.557231 117.575725 
L 207.207841 96.446962 
L 207.858451 144.297397 
L 208.509062 126.897239 
L 209.810282 108.254212 
L 210.460893 134.354449 
L 211.111503 133.733015 
L 211.762113 131.247278 
L 213.063334 120.682896 
L 213.713944 94.582659 
L 214.364555 125.65437 
L 215.015165 140.568791 
L 216.316385 113.225686 
L 216.966996 108.254212 
L 217.617606 96.446962 
L 218.268216 94.582659 
L 218.918827 115.711422 
L 219.569437 121.925765 
L 220.220047 110.118514 
L 220.870658 118.197159 
L 221.521268 117.575725 
L 222.171878 92.096922 
L 222.822489 91.475488 
L 223.473099 136.840186 
L 224.123709 110.739949 
L 224.77432 117.575725 
L 225.42493 92.718356 
L 226.07554 75.939632 
L 226.72615 103.282738 
L 228.027371 126.897239 
L 228.677981 116.332857 
L 229.328592 143.675963 
L 229.979202 95.204093 
L 230.629812 125.65437 
L 231.280423 139.947357 
L 231.931033 124.411502 
L 232.581643 141.81166 
L 233.232254 95.825527 
L 233.882864 135.597318 
L 234.533474 121.925765 
L 235.184085 121.925765 
L 235.834695 115.089988 
L 236.485305 130.00441 
L 237.135915 128.140107 
L 237.786526 130.625844 
L 238.437136 125.65437 
L 239.087746 118.197159 
L 239.738357 119.440028 
L 240.388967 131.868712 
L 241.039577 118.818594 
L 241.690188 130.00441 
L 242.340798 110.118514 
L 242.991408 127.518673 
L 243.642019 117.575725 
L 244.292629 119.440028 
L 244.943239 113.84712 
L 245.59385 124.411502 
L 246.24446 124.411502 
L 246.89507 126.275804 
L 247.54568 125.65437 
L 248.196291 125.65437 
L 248.846901 115.089988 
L 249.497511 96.446962 
L 250.148122 125.032936 
L 250.798732 134.354449 
L 251.449342 117.575725 
L 252.099953 128.140107 
L 252.750563 130.00441 
L 253.401173 97.068396 
L 254.051784 128.761541 
L 254.702394 116.954291 
L 255.353004 114.468554 
L 256.003615 127.518673 
L 256.654225 125.65437 
L 257.304835 125.65437 
L 257.955445 116.954291 
L 258.606056 126.275804 
L 259.256666 130.625844 
L 259.907276 125.65437 
L 260.557887 113.84712 
L 261.208497 130.625844 
L 261.859107 116.332857 
L 262.509718 130.625844 
L 263.160328 114.468554 
L 263.810938 126.897239 
L 264.461549 115.711422 
L 265.112159 121.925765 
L 265.762769 95.204093 
L 266.413379 96.446962 
L 267.06399 124.411502 
L 267.7146 124.411502 
L 268.36521 133.733015 
L 269.015821 134.354449 
L 269.666431 130.625844 
L 270.317041 96.446962 
L 270.967652 117.575725 
L 271.618262 109.49708 
L 272.268872 132.490147 
L 272.919483 122.547199 
L 273.570093 118.818594 
L 274.220703 124.411502 
L 274.871314 128.761541 
L 275.521924 116.332857 
L 276.172534 126.275804 
L 276.823144 118.818594 
L 277.473755 113.225686 
L 278.774975 129.382975 
L 279.425586 128.761541 
L 280.076196 130.00441 
L 280.726806 108.875646 
L 281.377417 118.818594 
L 282.028027 116.332857 
L 282.678637 121.925765 
L 283.329248 131.868712 
L 283.979858 125.032936 
L 284.630468 123.168633 
L 285.281079 113.225686 
L 285.931689 129.382975 
L 286.582299 123.168633 
L 287.232909 128.761541 
L 287.88352 129.382975 
L 288.53413 126.275804 
L 289.18474 125.65437 
L 289.835351 126.897239 
L 290.485961 125.65437 
L 291.136571 128.140107 
L 291.787182 115.711422 
L 292.437792 136.840186 
L 293.088402 116.954291 
L 293.739013 126.897239 
L 294.389623 116.332857 
L 295.040233 74.696764 
L 295.690844 115.711422 
L 296.341454 133.111581 
L 296.992064 120.682896 
L 297.642674 130.00441 
L 298.293285 115.711422 
L 298.943895 118.818594 
L 299.594505 129.382975 
L 300.245116 128.761541 
L 300.895726 122.547199 
L 301.546336 128.761541 
L 302.196947 131.247278 
L 302.847557 138.704489 
L 303.498167 114.468554 
L 304.148778 131.247278 
L 304.799388 118.197159 
L 305.449998 112.604251 
L 306.100608 128.140107 
L 306.751219 118.197159 
L 307.401829 128.761541 
L 308.052439 124.411502 
L 308.70305 122.547199 
L 309.35366 126.275804 
L 310.00427 115.711422 
L 310.654881 123.790067 
L 311.305491 116.954291 
L 311.956101 113.225686 
L 312.606712 93.961225 
L 313.257322 116.954291 
L 313.907932 135.597318 
L 314.558543 120.061462 
L 315.209153 124.411502 
L 315.859763 134.975883 
L 316.510373 96.446962 
L 317.160984 126.897239 
L 317.811594 134.975883 
L 318.462204 126.275804 
L 319.112815 126.897239 
L 320.414035 133.733015 
L 321.064646 116.332857 
L 321.715256 121.925765 
L 322.365866 111.361383 
L 323.016477 121.925765 
L 323.667087 115.711422 
L 324.317697 132.490147 
L 324.968308 123.168633 
L 325.618918 111.982817 
L 326.269528 128.140107 
L 326.920138 132.490147 
L 328.221359 130.00441 
L 328.871969 132.490147 
L 329.52258 133.111581 
L 330.17319 72.832461 
L 330.8238 131.868712 
L 331.474411 95.204093 
L 332.125021 134.354449 
L 332.775631 121.304331 
L 333.426242 139.947357 
L 334.076852 112.604251 
L 334.727462 130.00441 
L 336.028683 122.547199 
L 336.679293 130.00441 
L 337.329903 126.275804 
L 337.980514 126.897239 
L 338.631124 115.089988 
L 339.281734 119.440028 
L 339.932345 115.711422 
L 340.582955 130.00441 
L 341.233565 107.632778 
L 341.884176 131.247278 
L 342.534786 117.575725 
L 343.185396 116.954291 
L 343.836007 120.061462 
L 344.486617 128.761541 
L 345.137227 115.711422 
L 345.787837 124.411502 
L 346.438448 124.411502 
L 347.089058 116.332857 
L 347.739668 115.711422 
L 348.390279 124.411502 
L 349.040889 138.083055 
L 349.691499 96.446962 
L 350.99272 122.547199 
L 351.64333 115.711422 
L 352.293941 74.696764 
L 352.944551 72.211027 
L 353.595161 116.332857 
L 354.245772 123.790067 
L 354.896382 93.33979 
L 355.546992 132.490147 
L 356.197602 125.65437 
L 356.848213 107.632778 
L 357.498823 115.711422 
L 358.149433 115.711422 
L 358.800044 130.625844 
L 359.450654 125.032936 
L 360.101264 133.733015 
L 360.751875 113.84712 
L 361.402485 112.604251 
L 362.053095 113.225686 
L 362.703706 125.032936 
L 363.354316 114.468554 
L 364.004926 94.582659 
L 364.655537 113.84712 
L 365.306147 112.604251 
L 365.956757 115.711422 
L 366.607367 101.418435 
L 367.257978 120.061462 
L 367.908588 100.175567 
L 368.559198 95.204093 
L 369.209809 94.582659 
L 369.860419 121.925765 
L 370.511029 119.440028 
L 371.16164 110.118514 
L 372.46286 116.332857 
L 373.113471 105.768475 
L 373.764081 105.147041 
L 374.414691 108.254212 
L 375.065302 116.954291 
L 375.715912 115.089988 
L 376.366522 116.954291 
L 377.017132 118.197159 
L 377.667743 95.825527 
L 378.318353 117.575725 
L 379.619574 109.49708 
L 380.270184 103.282738 
L 380.920794 114.468554 
L 381.571405 131.868712 
L 382.222015 122.547199 
L 382.872625 116.954291 
L 383.523236 90.232619 
L 384.173846 114.468554 
L 384.824456 120.682896 
L 385.475066 97.068396 
L 386.125677 111.361383 
L 386.776287 96.446962 
L 387.426897 115.089988 
L 388.077508 122.547199 
L 389.378728 112.604251 
L 390.029339 119.440028 
L 390.679949 95.825527 
L 391.330559 115.711422 
L 391.98117 118.818594 
L 392.63178 125.032936 
L 393.28239 103.282738 
L 393.933001 100.175567 
L 394.583611 131.247278 
L 395.234221 116.954291 
L 395.884831 95.204093 
L 396.535442 96.446962 
L 397.186052 102.03987 
L 397.836662 125.032936 
L 398.487273 54.189434 
L 398.487273 54.189434 
" style="fill:none;stroke:#ff0000;stroke-linecap:square;stroke-width:1.5;"/>
   </g>
   <g id="patch_3">
    <path d="M 57.6 307.584 
L 57.6 41.472 
" style="fill:none;stroke:#000000;stroke-linecap:square;stroke-linejoin:miter;stroke-width:0.8;"/>
   </g>
   <g id="patch_4">
    <path d="M 414.72 307.584 
L 414.72 41.472 
" style="fill:none;stroke:#000000;stroke-linecap:square;stroke-linejoin:miter;stroke-width:0.8;"/>
   </g>
   <g id="patch_5">
    <path d="M 57.6 307.584 
L 414.72 307.584 
" style="fill:none;stroke:#000000;stroke-linecap:square;stroke-linejoin:miter;stroke-width:0.8;"/>
   </g>
   <g id="patch_6">
    <path d="M 57.6 41.472 
L 414.72 41.472 
" style="fill:none;stroke:#000000;stroke-linecap:square;stroke-linejoin:miter;stroke-width:0.8;"/>
   </g>
   <g id="text_18">
    <!-- Population's average and best fitness -->
    <g transform="translate(123.529687 35.472)scale(0.12 -0.12)">
     <defs>
      <path d="M 19.671875 64.796875 
L 19.671875 37.40625 
L 32.078125 37.40625 
Q 38.96875 37.40625 42.71875 40.96875 
Q 46.484375 44.53125 46.484375 51.125 
Q 46.484375 57.671875 42.71875 61.234375 
Q 38.96875 64.796875 32.078125 64.796875 
z
M 9.8125 72.90625 
L 32.078125 72.90625 
Q 44.34375 72.90625 50.609375 67.359375 
Q 56.890625 61.8125 56.890625 51.125 
Q 56.890625 40.328125 50.609375 34.8125 
Q 44.34375 29.296875 32.078125 29.296875 
L 19.671875 29.296875 
L 19.671875 0 
L 9.8125 0 
z
" id="DejaVuSans-80"/>
      <path d="M 18.109375 8.203125 
L 18.109375 -20.796875 
L 9.078125 -20.796875 
L 9.078125 54.6875 
L 18.109375 54.6875 
L 18.109375 46.390625 
Q 20.953125 51.265625 25.265625 53.625 
Q 29.59375 56 35.59375 56 
Q 45.5625 56 51.78125 48.09375 
Q 58.015625 40.1875 58.015625 27.296875 
Q 58.015625 14.40625 51.78125 6.484375 
Q 45.5625 -1.421875 35.59375 -1.421875 
Q 29.59375 -1.421875 25.265625 0.953125 
Q 20.953125 3.328125 18.109375 8.203125 
z
M 48.6875 27.296875 
Q 48.6875 37.203125 44.609375 42.84375 
Q 40.53125 48.484375 33.40625 48.484375 
Q 26.265625 48.484375 22.1875 42.84375 
Q 18.109375 37.203125 18.109375 27.296875 
Q 18.109375 17.390625 22.1875 11.75 
Q 26.265625 6.109375 33.40625 6.109375 
Q 40.53125 6.109375 44.609375 11.75 
Q 48.6875 17.390625 48.6875 27.296875 
z
" id="DejaVuSans-112"/>
      <path d="M 8.5 21.578125 
L 8.5 54.6875 
L 17.484375 54.6875 
L 17.484375 21.921875 
Q 17.484375 14.15625 20.5 10.265625 
Q 23.53125 6.390625 29.59375 6.390625 
Q 36.859375 6.390625 41.078125 11.03125 
Q 45.3125 15.671875 45.3125 23.6875 
L 45.3125 54.6875 
L 54.296875 54.6875 
L 54.296875 0 
L 45.3125 0 
L 45.3125 8.40625 
Q 42.046875 3.421875 37.71875 1 
Q 33.40625 -1.421875 27.6875 -1.421875 
Q 18.265625 -1.421875 13.375 4.4375 
Q 8.5 10.296875 8.5 21.578125 
z
M 31.109375 56 
z
" id="DejaVuSans-117"/>
      <path d="M 9.421875 75.984375 
L 18.40625 75.984375 
L 18.40625 0 
L 9.421875 0 
z
" id="DejaVuSans-108"/>
      <path d="M 17.921875 72.90625 
L 17.921875 45.796875 
L 9.625 45.796875 
L 9.625 72.90625 
z
" id="DejaVuSans-39"/>
      <path id="DejaVuSans-32"/>
      <path d="M 2.984375 54.6875 
L 12.5 54.6875 
L 29.59375 8.796875 
L 46.6875 54.6875 
L 56.203125 54.6875 
L 35.6875 0 
L 23.484375 0 
z
" id="DejaVuSans-118"/>
      <path d="M 45.40625 27.984375 
Q 45.40625 37.75 41.375 43.109375 
Q 37.359375 48.484375 30.078125 48.484375 
Q 22.859375 48.484375 18.828125 43.109375 
Q 14.796875 37.75 14.796875 27.984375 
Q 14.796875 18.265625 18.828125 12.890625 
Q 22.859375 7.515625 30.078125 7.515625 
Q 37.359375 7.515625 41.375 12.890625 
Q 45.40625 18.265625 45.40625 27.984375 
z
M 54.390625 6.78125 
Q 54.390625 -7.171875 48.1875 -13.984375 
Q 42 -20.796875 29.203125 -20.796875 
Q 24.46875 -20.796875 20.265625 -20.09375 
Q 16.0625 -19.390625 12.109375 -17.921875 
L 12.109375 -9.1875 
Q 16.0625 -11.328125 19.921875 -12.34375 
Q 23.78125 -13.375 27.78125 -13.375 
Q 36.625 -13.375 41.015625 -8.765625 
Q 45.40625 -4.15625 45.40625 5.171875 
L 45.40625 9.625 
Q 42.625 4.78125 38.28125 2.390625 
Q 33.9375 0 27.875 0 
Q 17.828125 0 11.671875 7.65625 
Q 5.515625 15.328125 5.515625 27.984375 
Q 5.515625 40.671875 11.671875 48.328125 
Q 17.828125 56 27.875 56 
Q 33.9375 56 38.28125 53.609375 
Q 42.625 51.21875 45.40625 46.390625 
L 45.40625 54.6875 
L 54.390625 54.6875 
z
" id="DejaVuSans-103"/>
      <path d="M 45.40625 46.390625 
L 45.40625 75.984375 
L 54.390625 75.984375 
L 54.390625 0 
L 45.40625 0 
L 45.40625 8.203125 
Q 42.578125 3.328125 38.25 0.953125 
Q 33.9375 -1.421875 27.875 -1.421875 
Q 17.96875 -1.421875 11.734375 6.484375 
Q 5.515625 14.40625 5.515625 27.296875 
Q 5.515625 40.1875 11.734375 48.09375 
Q 17.96875 56 27.875 56 
Q 33.9375 56 38.25 53.625 
Q 42.578125 51.265625 45.40625 46.390625 
z
M 14.796875 27.296875 
Q 14.796875 17.390625 18.875 11.75 
Q 22.953125 6.109375 30.078125 6.109375 
Q 37.203125 6.109375 41.296875 11.75 
Q 45.40625 17.390625 45.40625 27.296875 
Q 45.40625 37.203125 41.296875 42.84375 
Q 37.203125 48.484375 30.078125 48.484375 
Q 22.953125 48.484375 18.875 42.84375 
Q 14.796875 37.203125 14.796875 27.296875 
z
" id="DejaVuSans-100"/>
      <path d="M 48.6875 27.296875 
Q 48.6875 37.203125 44.609375 42.84375 
Q 40.53125 48.484375 33.40625 48.484375 
Q 26.265625 48.484375 22.1875 42.84375 
Q 18.109375 37.203125 18.109375 27.296875 
Q 18.109375 17.390625 22.1875 11.75 
Q 26.265625 6.109375 33.40625 6.109375 
Q 40.53125 6.109375 44.609375 11.75 
Q 48.6875 17.390625 48.6875 27.296875 
z
M 18.109375 46.390625 
Q 20.953125 51.265625 25.265625 53.625 
Q 29.59375 56 35.59375 56 
Q 45.5625 56 51.78125 48.09375 
Q 58.015625 40.1875 58.015625 27.296875 
Q 58.015625 14.40625 51.78125 6.484375 
Q 45.5625 -1.421875 35.59375 -1.421875 
Q 29.59375 -1.421875 25.265625 0.953125 
Q 20.953125 3.328125 18.109375 8.203125 
L 18.109375 0 
L 9.078125 0 
L 9.078125 75.984375 
L 18.109375 75.984375 
z
" id="DejaVuSans-98"/>
      <path d="M 37.109375 75.984375 
L 37.109375 68.5 
L 28.515625 68.5 
Q 23.6875 68.5 21.796875 66.546875 
Q 19.921875 64.59375 19.921875 59.515625 
L 19.921875 54.6875 
L 34.71875 54.6875 
L 34.71875 47.703125 
L 19.921875 47.703125 
L 19.921875 0 
L 10.890625 0 
L 10.890625 47.703125 
L 2.296875 47.703125 
L 2.296875 54.6875 
L 10.890625 54.6875 
L 10.890625 58.5 
Q 10.890625 67.625 15.140625 71.796875 
Q 19.390625 75.984375 28.609375 75.984375 
z
" id="DejaVuSans-102"/>
     </defs>
     <use xlink:href="#DejaVuSans-80"/>
     <use x="56.677734" xlink:href="#DejaVuSans-111"/>
     <use x="117.859375" xlink:href="#DejaVuSans-112"/>
     <use x="181.335938" xlink:href="#DejaVuSans-117"/>
     <use x="244.714844" xlink:href="#DejaVuSans-108"/>
     <use x="272.498047" xlink:href="#DejaVuSans-97"/>
     <use x="333.777344" xlink:href="#DejaVuSans-116"/>
     <use x="372.986328" xlink:href="#DejaVuSans-105"/>
     <use x="400.769531" xlink:href="#DejaVuSans-111"/>
     <use x="461.951172" xlink:href="#DejaVuSans-110"/>
     <use x="525.330078" xlink:href="#DejaVuSans-39"/>
     <use x="552.820312" xlink:href="#DejaVuSans-115"/>
     <use x="604.919922" xlink:href="#DejaVuSans-32"/>
     <use x="636.707031" xlink:href="#DejaVuSans-97"/>
     <use x="697.986328" xlink:href="#DejaVuSans-118"/>
     <use x="757.166016" xlink:href="#DejaVuSans-101"/>
     <use x="818.689453" xlink:href="#DejaVuSans-114"/>
     <use x="859.802734" xlink:href="#DejaVuSans-97"/>
     <use x="921.082031" xlink:href="#DejaVuSans-103"/>
     <use x="984.558594" xlink:href="#DejaVuSans-101"/>
     <use x="1046.082031" xlink:href="#DejaVuSans-32"/>
     <use x="1077.869141" xlink:href="#DejaVuSans-97"/>
     <use x="1139.148438" xlink:href="#DejaVuSans-110"/>
     <use x="1202.527344" xlink:href="#DejaVuSans-100"/>
     <use x="1266.003906" xlink:href="#DejaVuSans-32"/>
     <use x="1297.791016" xlink:href="#DejaVuSans-98"/>
     <use x="1361.267578" xlink:href="#DejaVuSans-101"/>
     <use x="1422.791016" xlink:href="#DejaVuSans-115"/>
     <use x="1474.890625" xlink:href="#DejaVuSans-116"/>
     <use x="1514.099609" xlink:href="#DejaVuSans-32"/>
     <use x="1545.886719" xlink:href="#DejaVuSans-102"/>
     <use x="1581.091797" xlink:href="#DejaVuSans-105"/>
     <use x="1608.875" xlink:href="#DejaVuSans-116"/>
     <use x="1648.083984" xlink:href="#DejaVuSans-110"/>
     <use x="1711.462891" xlink:href="#DejaVuSans-101"/>
     <use x="1772.986328" xlink:href="#DejaVuSans-115"/>
     <use x="1825.085938" xlink:href="#DejaVuSans-115"/>
    </g>
   </g>
   <g id="legend_1">
    <g id="patch_7">
     <path d="M 64.6 108.1845 
L 137.540625 108.1845 
Q 139.540625 108.1845 139.540625 106.1845 
L 139.540625 48.472 
Q 139.540625 46.472 137.540625 46.472 
L 64.6 46.472 
Q 62.6 46.472 62.6 48.472 
L 62.6 106.1845 
Q 62.6 108.1845 64.6 108.1845 
z
" style="fill:#ffffff;opacity:0.8;stroke:#cccccc;stroke-linejoin:miter;"/>
    </g>
    <g id="line2d_35">
     <path d="M 66.6 54.570438 
L 86.6 54.570438 
" style="fill:none;stroke:#0000ff;stroke-linecap:square;stroke-width:1.5;"/>
    </g>
    <g id="line2d_36"/>
    <g id="text_19">
     <!-- average -->
     <g transform="translate(94.6 58.070438)scale(0.1 -0.1)">
      <use xlink:href="#DejaVuSans-97"/>
      <use x="61.279297" xlink:href="#DejaVuSans-118"/>
      <use x="120.458984" xlink:href="#DejaVuSans-101"/>
      <use x="181.982422" xlink:href="#DejaVuSans-114"/>
      <use x="223.095703" xlink:href="#DejaVuSans-97"/>
      <use x="284.375" xlink:href="#DejaVuSans-103"/>
      <use x="347.851562" xlink:href="#DejaVuSans-101"/>
     </g>
    </g>
    <g id="line2d_37">
     <path d="M 66.6 69.248563 
L 86.6 69.248563 
" style="fill:none;stroke:#008000;stroke-dasharray:9.6,2.4,1.5,2.4;stroke-dashoffset:0;stroke-width:1.5;"/>
    </g>
    <g id="line2d_38"/>
    <g id="text_20">
     <!-- -1 sd -->
     <g transform="translate(94.6 72.748563)scale(0.1 -0.1)">
      <defs>
       <path d="M 4.890625 31.390625 
L 31.203125 31.390625 
L 31.203125 23.390625 
L 4.890625 23.390625 
z
" id="DejaVuSans-45"/>
      </defs>
      <use xlink:href="#DejaVuSans-45"/>
      <use x="36.083984" xlink:href="#DejaVuSans-49"/>
      <use x="99.707031" xlink:href="#DejaVuSans-32"/>
      <use x="131.494141" xlink:href="#DejaVuSans-115"/>
      <use x="183.59375" xlink:href="#DejaVuSans-100"/>
     </g>
    </g>
    <g id="line2d_39">
     <path d="M 66.6 83.926688 
L 86.6 83.926688 
" style="fill:none;stroke:#008000;stroke-dasharray:9.6,2.4,1.5,2.4;stroke-dashoffset:0;stroke-width:1.5;"/>
    </g>
    <g id="line2d_40"/>
    <g id="text_21">
     <!-- +1 sd -->
     <g transform="translate(94.6 87.426688)scale(0.1 -0.1)">
      <defs>
       <path d="M 46 62.703125 
L 46 35.5 
L 73.1875 35.5 
L 73.1875 27.203125 
L 46 27.203125 
L 46 0 
L 37.796875 0 
L 37.796875 27.203125 
L 10.59375 27.203125 
L 10.59375 35.5 
L 37.796875 35.5 
L 37.796875 62.703125 
z
" id="DejaVuSans-43"/>
      </defs>
      <use xlink:href="#DejaVuSans-43"/>
      <use x="83.789062" xlink:href="#DejaVuSans-49"/>
      <use x="147.412109" xlink:href="#DejaVuSans-32"/>
      <use x="179.199219" xlink:href="#DejaVuSans-115"/>
      <use x="231.298828" xlink:href="#DejaVuSans-100"/>
     </g>
    </g>
    <g id="line2d_41">
     <path d="M 66.6 98.604813 
L 86.6 98.604813 
" style="fill:none;stroke:#ff0000;stroke-linecap:square;stroke-width:1.5;"/>
    </g>
    <g id="line2d_42"/>
    <g id="text_22">
     <!-- best -->
     <g transform="translate(94.6 102.104813)scale(0.1 -0.1)">
      <use xlink:href="#DejaVuSans-98"/>
      <use x="63.476562" xlink:href="#DejaVuSans-101"/>
      <use x="125" xlink:href="#DejaVuSans-115"/>
      <use x="177.099609" xlink:href="#DejaVuSans-116"/>
     </g>
    </g>
   </g>
  </g>
 </g>
 <defs>
  <clipPath id="p2bc7381ee4">
   <rect height="266.112" width="357.12" x="57.6" y="41.472"/>
  </clipPath>
 </defs>
</svg>
