<?xml version="1.0" encoding="utf-8" standalone="no"?>
<!DOCTYPE svg PUBLIC "-//W3C//DTD SVG 1.1//EN"
  "http://www.w3.org/Graphics/SVG/1.1/DTD/svg11.dtd">
<!-- Created with matplotlib (https://matplotlib.org/) -->
<svg height="345.6pt" version="1.1" viewBox="0 0 460.8 345.6" width="460.8pt" xmlns="http://www.w3.org/2000/svg" xmlns:xlink="http://www.w3.org/1999/xlink">
 <metadata>
  <rdf:RDF xmlns:cc="http://creativecommons.org/ns#" xmlns:dc="http://purl.org/dc/elements/1.1/" xmlns:rdf="http://www.w3.org/1999/02/22-rdf-syntax-ns#">
   <cc:Work>
    <dc:type rdf:resource="http://purl.org/dc/dcmitype/StillImage"/>
    <dc:date>2021-06-15T22:23:40.411801</dc:date>
    <dc:format>image/svg+xml</dc:format>
    <dc:creator>
     <cc:Agent>
      <dc:title>Matplotlib v3.3.0, https://matplotlib.org/</dc:title>
     </cc:Agent>
    </dc:creator>
   </cc:Work>
  </rdf:RDF>
 </metadata>
 <defs>
  <style type="text/css">*{stroke-linecap:butt;stroke-linejoin:round;}</style>
 </defs>
 <g id="figure_1">
  <g id="patch_1">
   <path d="M 0 345.6 
L 460.8 345.6 
L 460.8 0 
L 0 0 
z
" style="fill:#ffffff;"/>
  </g>
  <g id="axes_1">
   <g id="patch_2">
    <path d="M 57.6 307.584 
L 414.72 307.584 
L 414.72 41.472 
L 57.6 41.472 
z
" style="fill:#ffffff;"/>
   </g>
   <g id="matplotlib.axis_1">
    <g id="xtick_1">
     <g id="line2d_1">
      <path clip-path="url(#p61ad7dcd47)" d="M 73.832727 307.584 
L 73.832727 41.472 
" style="fill:none;stroke:#b0b0b0;stroke-linecap:square;stroke-width:0.8;"/>
     </g>
     <g id="line2d_2">
      <defs>
       <path d="M 0 0 
L 0 3.5 
" id="m8575b14670" style="stroke:#000000;stroke-width:0.8;"/>
      </defs>
      <g>
       <use style="stroke:#000000;stroke-width:0.8;" x="73.832727" xlink:href="#m8575b14670" y="307.584"/>
      </g>
     </g>
     <g id="text_1">
      <!-- 0 -->
      <g transform="translate(70.651477 322.182437)scale(0.1 -0.1)">
       <defs>
        <path d="M 31.78125 66.40625 
Q 24.171875 66.40625 20.328125 58.90625 
Q 16.5 51.421875 16.5 36.375 
Q 16.5 21.390625 20.328125 13.890625 
Q 24.171875 6.390625 31.78125 6.390625 
Q 39.453125 6.390625 43.28125 13.890625 
Q 47.125 21.390625 47.125 36.375 
Q 47.125 51.421875 43.28125 58.90625 
Q 39.453125 66.40625 31.78125 66.40625 
z
M 31.78125 74.21875 
Q 44.046875 74.21875 50.515625 64.515625 
Q 56.984375 54.828125 56.984375 36.375 
Q 56.984375 17.96875 50.515625 8.265625 
Q 44.046875 -1.421875 31.78125 -1.421875 
Q 19.53125 -1.421875 13.0625 8.265625 
Q 6.59375 17.96875 6.59375 36.375 
Q 6.59375 54.828125 13.0625 64.515625 
Q 19.53125 74.21875 31.78125 74.21875 
z
" id="DejaVuSans-48"/>
       </defs>
       <use xlink:href="#DejaVuSans-48"/>
      </g>
     </g>
    </g>
    <g id="xtick_2">
     <g id="line2d_3">
      <path clip-path="url(#p61ad7dcd47)" d="M 149.333784 307.584 
L 149.333784 41.472 
" style="fill:none;stroke:#b0b0b0;stroke-linecap:square;stroke-width:0.8;"/>
     </g>
     <g id="line2d_4">
      <g>
       <use style="stroke:#000000;stroke-width:0.8;" x="149.333784" xlink:href="#m8575b14670" y="307.584"/>
      </g>
     </g>
     <g id="text_2">
      <!-- 100 -->
      <g transform="translate(139.790034 322.182437)scale(0.1 -0.1)">
       <defs>
        <path d="M 12.40625 8.296875 
L 28.515625 8.296875 
L 28.515625 63.921875 
L 10.984375 60.40625 
L 10.984375 69.390625 
L 28.421875 72.90625 
L 38.28125 72.90625 
L 38.28125 8.296875 
L 54.390625 8.296875 
L 54.390625 0 
L 12.40625 0 
z
" id="DejaVuSans-49"/>
       </defs>
       <use xlink:href="#DejaVuSans-49"/>
       <use x="63.623047" xlink:href="#DejaVuSans-48"/>
       <use x="127.246094" xlink:href="#DejaVuSans-48"/>
      </g>
     </g>
    </g>
    <g id="xtick_3">
     <g id="line2d_5">
      <path clip-path="url(#p61ad7dcd47)" d="M 224.834841 307.584 
L 224.834841 41.472 
" style="fill:none;stroke:#b0b0b0;stroke-linecap:square;stroke-width:0.8;"/>
     </g>
     <g id="line2d_6">
      <g>
       <use style="stroke:#000000;stroke-width:0.8;" x="224.834841" xlink:href="#m8575b14670" y="307.584"/>
      </g>
     </g>
     <g id="text_3">
      <!-- 200 -->
      <g transform="translate(215.291091 322.182437)scale(0.1 -0.1)">
       <defs>
        <path d="M 19.1875 8.296875 
L 53.609375 8.296875 
L 53.609375 0 
L 7.328125 0 
L 7.328125 8.296875 
Q 12.9375 14.109375 22.625 23.890625 
Q 32.328125 33.6875 34.8125 36.53125 
Q 39.546875 41.84375 41.421875 45.53125 
Q 43.3125 49.21875 43.3125 52.78125 
Q 43.3125 58.59375 39.234375 62.25 
Q 35.15625 65.921875 28.609375 65.921875 
Q 23.96875 65.921875 18.8125 64.3125 
Q 13.671875 62.703125 7.8125 59.421875 
L 7.8125 69.390625 
Q 13.765625 71.78125 18.9375 73 
Q 24.125 74.21875 28.421875 74.21875 
Q 39.75 74.21875 46.484375 68.546875 
Q 53.21875 62.890625 53.21875 53.421875 
Q 53.21875 48.921875 51.53125 44.890625 
Q 49.859375 40.875 45.40625 35.40625 
Q 44.1875 33.984375 37.640625 27.21875 
Q 31.109375 20.453125 19.1875 8.296875 
z
" id="DejaVuSans-50"/>
       </defs>
       <use xlink:href="#DejaVuSans-50"/>
       <use x="63.623047" xlink:href="#DejaVuSans-48"/>
       <use x="127.246094" xlink:href="#DejaVuSans-48"/>
      </g>
     </g>
    </g>
    <g id="xtick_4">
     <g id="line2d_7">
      <path clip-path="url(#p61ad7dcd47)" d="M 300.335899 307.584 
L 300.335899 41.472 
" style="fill:none;stroke:#b0b0b0;stroke-linecap:square;stroke-width:0.8;"/>
     </g>
     <g id="line2d_8">
      <g>
       <use style="stroke:#000000;stroke-width:0.8;" x="300.335899" xlink:href="#m8575b14670" y="307.584"/>
      </g>
     </g>
     <g id="text_4">
      <!-- 300 -->
      <g transform="translate(290.792149 322.182437)scale(0.1 -0.1)">
       <defs>
        <path d="M 40.578125 39.3125 
Q 47.65625 37.796875 51.625 33 
Q 55.609375 28.21875 55.609375 21.1875 
Q 55.609375 10.40625 48.1875 4.484375 
Q 40.765625 -1.421875 27.09375 -1.421875 
Q 22.515625 -1.421875 17.65625 -0.515625 
Q 12.796875 0.390625 7.625 2.203125 
L 7.625 11.71875 
Q 11.71875 9.328125 16.59375 8.109375 
Q 21.484375 6.890625 26.8125 6.890625 
Q 36.078125 6.890625 40.9375 10.546875 
Q 45.796875 14.203125 45.796875 21.1875 
Q 45.796875 27.640625 41.28125 31.265625 
Q 36.765625 34.90625 28.71875 34.90625 
L 20.21875 34.90625 
L 20.21875 43.015625 
L 29.109375 43.015625 
Q 36.375 43.015625 40.234375 45.921875 
Q 44.09375 48.828125 44.09375 54.296875 
Q 44.09375 59.90625 40.109375 62.90625 
Q 36.140625 65.921875 28.71875 65.921875 
Q 24.65625 65.921875 20.015625 65.03125 
Q 15.375 64.15625 9.8125 62.3125 
L 9.8125 71.09375 
Q 15.4375 72.65625 20.34375 73.4375 
Q 25.25 74.21875 29.59375 74.21875 
Q 40.828125 74.21875 47.359375 69.109375 
Q 53.90625 64.015625 53.90625 55.328125 
Q 53.90625 49.265625 50.4375 45.09375 
Q 46.96875 40.921875 40.578125 39.3125 
z
" id="DejaVuSans-51"/>
       </defs>
       <use xlink:href="#DejaVuSans-51"/>
       <use x="63.623047" xlink:href="#DejaVuSans-48"/>
       <use x="127.246094" xlink:href="#DejaVuSans-48"/>
      </g>
     </g>
    </g>
    <g id="xtick_5">
     <g id="line2d_9">
      <path clip-path="url(#p61ad7dcd47)" d="M 375.836956 307.584 
L 375.836956 41.472 
" style="fill:none;stroke:#b0b0b0;stroke-linecap:square;stroke-width:0.8;"/>
     </g>
     <g id="line2d_10">
      <g>
       <use style="stroke:#000000;stroke-width:0.8;" x="375.836956" xlink:href="#m8575b14670" y="307.584"/>
      </g>
     </g>
     <g id="text_5">
      <!-- 400 -->
      <g transform="translate(366.293206 322.182437)scale(0.1 -0.1)">
       <defs>
        <path d="M 37.796875 64.3125 
L 12.890625 25.390625 
L 37.796875 25.390625 
z
M 35.203125 72.90625 
L 47.609375 72.90625 
L 47.609375 25.390625 
L 58.015625 25.390625 
L 58.015625 17.1875 
L 47.609375 17.1875 
L 47.609375 0 
L 37.796875 0 
L 37.796875 17.1875 
L 4.890625 17.1875 
L 4.890625 26.703125 
z
" id="DejaVuSans-52"/>
       </defs>
       <use xlink:href="#DejaVuSans-52"/>
       <use x="63.623047" xlink:href="#DejaVuSans-48"/>
       <use x="127.246094" xlink:href="#DejaVuSans-48"/>
      </g>
     </g>
    </g>
    <g id="text_6">
     <!-- Generations -->
     <g transform="translate(205.662344 335.860562)scale(0.1 -0.1)">
      <defs>
       <path d="M 59.515625 10.40625 
L 59.515625 29.984375 
L 43.40625 29.984375 
L 43.40625 38.09375 
L 69.28125 38.09375 
L 69.28125 6.78125 
Q 63.578125 2.734375 56.6875 0.65625 
Q 49.8125 -1.421875 42 -1.421875 
Q 24.90625 -1.421875 15.25 8.5625 
Q 5.609375 18.5625 5.609375 36.375 
Q 5.609375 54.25 15.25 64.234375 
Q 24.90625 74.21875 42 74.21875 
Q 49.125 74.21875 55.546875 72.453125 
Q 61.96875 70.703125 67.390625 67.28125 
L 67.390625 56.78125 
Q 61.921875 61.421875 55.765625 63.765625 
Q 49.609375 66.109375 42.828125 66.109375 
Q 29.4375 66.109375 22.71875 58.640625 
Q 16.015625 51.171875 16.015625 36.375 
Q 16.015625 21.625 22.71875 14.15625 
Q 29.4375 6.6875 42.828125 6.6875 
Q 48.046875 6.6875 52.140625 7.59375 
Q 56.25 8.5 59.515625 10.40625 
z
" id="DejaVuSans-71"/>
       <path d="M 56.203125 29.59375 
L 56.203125 25.203125 
L 14.890625 25.203125 
Q 15.484375 15.921875 20.484375 11.0625 
Q 25.484375 6.203125 34.421875 6.203125 
Q 39.59375 6.203125 44.453125 7.46875 
Q 49.3125 8.734375 54.109375 11.28125 
L 54.109375 2.78125 
Q 49.265625 0.734375 44.1875 -0.34375 
Q 39.109375 -1.421875 33.890625 -1.421875 
Q 20.796875 -1.421875 13.15625 6.1875 
Q 5.515625 13.8125 5.515625 26.8125 
Q 5.515625 40.234375 12.765625 48.109375 
Q 20.015625 56 32.328125 56 
Q 43.359375 56 49.78125 48.890625 
Q 56.203125 41.796875 56.203125 29.59375 
z
M 47.21875 32.234375 
Q 47.125 39.59375 43.09375 43.984375 
Q 39.0625 48.390625 32.421875 48.390625 
Q 24.90625 48.390625 20.390625 44.140625 
Q 15.875 39.890625 15.1875 32.171875 
z
" id="DejaVuSans-101"/>
       <path d="M 54.890625 33.015625 
L 54.890625 0 
L 45.90625 0 
L 45.90625 32.71875 
Q 45.90625 40.484375 42.875 44.328125 
Q 39.84375 48.1875 33.796875 48.1875 
Q 26.515625 48.1875 22.3125 43.546875 
Q 18.109375 38.921875 18.109375 30.90625 
L 18.109375 0 
L 9.078125 0 
L 9.078125 54.6875 
L 18.109375 54.6875 
L 18.109375 46.1875 
Q 21.34375 51.125 25.703125 53.5625 
Q 30.078125 56 35.796875 56 
Q 45.21875 56 50.046875 50.171875 
Q 54.890625 44.34375 54.890625 33.015625 
z
" id="DejaVuSans-110"/>
       <path d="M 41.109375 46.296875 
Q 39.59375 47.171875 37.8125 47.578125 
Q 36.03125 48 33.890625 48 
Q 26.265625 48 22.1875 43.046875 
Q 18.109375 38.09375 18.109375 28.8125 
L 18.109375 0 
L 9.078125 0 
L 9.078125 54.6875 
L 18.109375 54.6875 
L 18.109375 46.1875 
Q 20.953125 51.171875 25.484375 53.578125 
Q 30.03125 56 36.53125 56 
Q 37.453125 56 38.578125 55.875 
Q 39.703125 55.765625 41.0625 55.515625 
z
" id="DejaVuSans-114"/>
       <path d="M 34.28125 27.484375 
Q 23.390625 27.484375 19.1875 25 
Q 14.984375 22.515625 14.984375 16.5 
Q 14.984375 11.71875 18.140625 8.90625 
Q 21.296875 6.109375 26.703125 6.109375 
Q 34.1875 6.109375 38.703125 11.40625 
Q 43.21875 16.703125 43.21875 25.484375 
L 43.21875 27.484375 
z
M 52.203125 31.203125 
L 52.203125 0 
L 43.21875 0 
L 43.21875 8.296875 
Q 40.140625 3.328125 35.546875 0.953125 
Q 30.953125 -1.421875 24.3125 -1.421875 
Q 15.921875 -1.421875 10.953125 3.296875 
Q 6 8.015625 6 15.921875 
Q 6 25.140625 12.171875 29.828125 
Q 18.359375 34.515625 30.609375 34.515625 
L 43.21875 34.515625 
L 43.21875 35.40625 
Q 43.21875 41.609375 39.140625 45 
Q 35.0625 48.390625 27.6875 48.390625 
Q 23 48.390625 18.546875 47.265625 
Q 14.109375 46.140625 10.015625 43.890625 
L 10.015625 52.203125 
Q 14.9375 54.109375 19.578125 55.046875 
Q 24.21875 56 28.609375 56 
Q 40.484375 56 46.34375 49.84375 
Q 52.203125 43.703125 52.203125 31.203125 
z
" id="DejaVuSans-97"/>
       <path d="M 18.3125 70.21875 
L 18.3125 54.6875 
L 36.8125 54.6875 
L 36.8125 47.703125 
L 18.3125 47.703125 
L 18.3125 18.015625 
Q 18.3125 11.328125 20.140625 9.421875 
Q 21.96875 7.515625 27.59375 7.515625 
L 36.8125 7.515625 
L 36.8125 0 
L 27.59375 0 
Q 17.1875 0 13.234375 3.875 
Q 9.28125 7.765625 9.28125 18.015625 
L 9.28125 47.703125 
L 2.6875 47.703125 
L 2.6875 54.6875 
L 9.28125 54.6875 
L 9.28125 70.21875 
z
" id="DejaVuSans-116"/>
       <path d="M 9.421875 54.6875 
L 18.40625 54.6875 
L 18.40625 0 
L 9.421875 0 
z
M 9.421875 75.984375 
L 18.40625 75.984375 
L 18.40625 64.59375 
L 9.421875 64.59375 
z
" id="DejaVuSans-105"/>
       <path d="M 30.609375 48.390625 
Q 23.390625 48.390625 19.1875 42.75 
Q 14.984375 37.109375 14.984375 27.296875 
Q 14.984375 17.484375 19.15625 11.84375 
Q 23.34375 6.203125 30.609375 6.203125 
Q 37.796875 6.203125 41.984375 11.859375 
Q 46.1875 17.53125 46.1875 27.296875 
Q 46.1875 37.015625 41.984375 42.703125 
Q 37.796875 48.390625 30.609375 48.390625 
z
M 30.609375 56 
Q 42.328125 56 49.015625 48.375 
Q 55.71875 40.765625 55.71875 27.296875 
Q 55.71875 13.875 49.015625 6.21875 
Q 42.328125 -1.421875 30.609375 -1.421875 
Q 18.84375 -1.421875 12.171875 6.21875 
Q 5.515625 13.875 5.515625 27.296875 
Q 5.515625 40.765625 12.171875 48.375 
Q 18.84375 56 30.609375 56 
z
" id="DejaVuSans-111"/>
       <path d="M 44.28125 53.078125 
L 44.28125 44.578125 
Q 40.484375 46.53125 36.375 47.5 
Q 32.28125 48.484375 27.875 48.484375 
Q 21.1875 48.484375 17.84375 46.4375 
Q 14.5 44.390625 14.5 40.28125 
Q 14.5 37.15625 16.890625 35.375 
Q 19.28125 33.59375 26.515625 31.984375 
L 29.59375 31.296875 
Q 39.15625 29.25 43.1875 25.515625 
Q 47.21875 21.78125 47.21875 15.09375 
Q 47.21875 7.46875 41.1875 3.015625 
Q 35.15625 -1.421875 24.609375 -1.421875 
Q 20.21875 -1.421875 15.453125 -0.5625 
Q 10.6875 0.296875 5.421875 2 
L 5.421875 11.28125 
Q 10.40625 8.6875 15.234375 7.390625 
Q 20.0625 6.109375 24.8125 6.109375 
Q 31.15625 6.109375 34.5625 8.28125 
Q 37.984375 10.453125 37.984375 14.40625 
Q 37.984375 18.0625 35.515625 20.015625 
Q 33.0625 21.96875 24.703125 23.78125 
L 21.578125 24.515625 
Q 13.234375 26.265625 9.515625 29.90625 
Q 5.8125 33.546875 5.8125 39.890625 
Q 5.8125 47.609375 11.28125 51.796875 
Q 16.75 56 26.8125 56 
Q 31.78125 56 36.171875 55.265625 
Q 40.578125 54.546875 44.28125 53.078125 
z
" id="DejaVuSans-115"/>
      </defs>
      <use xlink:href="#DejaVuSans-71"/>
      <use x="77.490234" xlink:href="#DejaVuSans-101"/>
      <use x="139.013672" xlink:href="#DejaVuSans-110"/>
      <use x="202.392578" xlink:href="#DejaVuSans-101"/>
      <use x="263.916016" xlink:href="#DejaVuSans-114"/>
      <use x="305.029297" xlink:href="#DejaVuSans-97"/>
      <use x="366.308594" xlink:href="#DejaVuSans-116"/>
      <use x="405.517578" xlink:href="#DejaVuSans-105"/>
      <use x="433.300781" xlink:href="#DejaVuSans-111"/>
      <use x="494.482422" xlink:href="#DejaVuSans-110"/>
      <use x="557.861328" xlink:href="#DejaVuSans-115"/>
     </g>
    </g>
   </g>
   <g id="matplotlib.axis_2">
    <g id="ytick_1">
     <g id="line2d_11">
      <path clip-path="url(#p61ad7dcd47)" d="M 57.6 277.941182 
L 414.72 277.941182 
" style="fill:none;stroke:#b0b0b0;stroke-linecap:square;stroke-width:0.8;"/>
     </g>
     <g id="line2d_12">
      <defs>
       <path d="M 0 0 
L -3.5 0 
" id="m5dcf4ff939" style="stroke:#000000;stroke-width:0.8;"/>
      </defs>
      <g>
       <use style="stroke:#000000;stroke-width:0.8;" x="57.6" xlink:href="#m5dcf4ff939" y="277.941182"/>
      </g>
     </g>
     <g id="text_7">
      <!-- 300 -->
      <g transform="translate(31.5125 281.740401)scale(0.1 -0.1)">
       <use xlink:href="#DejaVuSans-51"/>
       <use x="63.623047" xlink:href="#DejaVuSans-48"/>
       <use x="127.246094" xlink:href="#DejaVuSans-48"/>
      </g>
     </g>
    </g>
    <g id="ytick_2">
     <g id="line2d_13">
      <path clip-path="url(#p61ad7dcd47)" d="M 57.6 244.502556 
L 414.72 244.502556 
" style="fill:none;stroke:#b0b0b0;stroke-linecap:square;stroke-width:0.8;"/>
     </g>
     <g id="line2d_14">
      <g>
       <use style="stroke:#000000;stroke-width:0.8;" x="57.6" xlink:href="#m5dcf4ff939" y="244.502556"/>
      </g>
     </g>
     <g id="text_8">
      <!-- 400 -->
      <g transform="translate(31.5125 248.301775)scale(0.1 -0.1)">
       <use xlink:href="#DejaVuSans-52"/>
       <use x="63.623047" xlink:href="#DejaVuSans-48"/>
       <use x="127.246094" xlink:href="#DejaVuSans-48"/>
      </g>
     </g>
    </g>
    <g id="ytick_3">
     <g id="line2d_15">
      <path clip-path="url(#p61ad7dcd47)" d="M 57.6 211.06393 
L 414.72 211.06393 
" style="fill:none;stroke:#b0b0b0;stroke-linecap:square;stroke-width:0.8;"/>
     </g>
     <g id="line2d_16">
      <g>
       <use style="stroke:#000000;stroke-width:0.8;" x="57.6" xlink:href="#m5dcf4ff939" y="211.06393"/>
      </g>
     </g>
     <g id="text_9">
      <!-- 500 -->
      <g transform="translate(31.5125 214.863148)scale(0.1 -0.1)">
       <defs>
        <path d="M 10.796875 72.90625 
L 49.515625 72.90625 
L 49.515625 64.59375 
L 19.828125 64.59375 
L 19.828125 46.734375 
Q 21.96875 47.46875 24.109375 47.828125 
Q 26.265625 48.1875 28.421875 48.1875 
Q 40.625 48.1875 47.75 41.5 
Q 54.890625 34.8125 54.890625 23.390625 
Q 54.890625 11.625 47.5625 5.09375 
Q 40.234375 -1.421875 26.90625 -1.421875 
Q 22.3125 -1.421875 17.546875 -0.640625 
Q 12.796875 0.140625 7.71875 1.703125 
L 7.71875 11.625 
Q 12.109375 9.234375 16.796875 8.0625 
Q 21.484375 6.890625 26.703125 6.890625 
Q 35.15625 6.890625 40.078125 11.328125 
Q 45.015625 15.765625 45.015625 23.390625 
Q 45.015625 31 40.078125 35.4375 
Q 35.15625 39.890625 26.703125 39.890625 
Q 22.75 39.890625 18.8125 39.015625 
Q 14.890625 38.140625 10.796875 36.28125 
z
" id="DejaVuSans-53"/>
       </defs>
       <use xlink:href="#DejaVuSans-53"/>
       <use x="63.623047" xlink:href="#DejaVuSans-48"/>
       <use x="127.246094" xlink:href="#DejaVuSans-48"/>
      </g>
     </g>
    </g>
    <g id="ytick_4">
     <g id="line2d_17">
      <path clip-path="url(#p61ad7dcd47)" d="M 57.6 177.625303 
L 414.72 177.625303 
" style="fill:none;stroke:#b0b0b0;stroke-linecap:square;stroke-width:0.8;"/>
     </g>
     <g id="line2d_18">
      <g>
       <use style="stroke:#000000;stroke-width:0.8;" x="57.6" xlink:href="#m5dcf4ff939" y="177.625303"/>
      </g>
     </g>
     <g id="text_10">
      <!-- 600 -->
      <g transform="translate(31.5125 181.424522)scale(0.1 -0.1)">
       <defs>
        <path d="M 33.015625 40.375 
Q 26.375 40.375 22.484375 35.828125 
Q 18.609375 31.296875 18.609375 23.390625 
Q 18.609375 15.53125 22.484375 10.953125 
Q 26.375 6.390625 33.015625 6.390625 
Q 39.65625 6.390625 43.53125 10.953125 
Q 47.40625 15.53125 47.40625 23.390625 
Q 47.40625 31.296875 43.53125 35.828125 
Q 39.65625 40.375 33.015625 40.375 
z
M 52.59375 71.296875 
L 52.59375 62.3125 
Q 48.875 64.0625 45.09375 64.984375 
Q 41.3125 65.921875 37.59375 65.921875 
Q 27.828125 65.921875 22.671875 59.328125 
Q 17.53125 52.734375 16.796875 39.40625 
Q 19.671875 43.65625 24.015625 45.921875 
Q 28.375 48.1875 33.59375 48.1875 
Q 44.578125 48.1875 50.953125 41.515625 
Q 57.328125 34.859375 57.328125 23.390625 
Q 57.328125 12.15625 50.6875 5.359375 
Q 44.046875 -1.421875 33.015625 -1.421875 
Q 20.359375 -1.421875 13.671875 8.265625 
Q 6.984375 17.96875 6.984375 36.375 
Q 6.984375 53.65625 15.1875 63.9375 
Q 23.390625 74.21875 37.203125 74.21875 
Q 40.921875 74.21875 44.703125 73.484375 
Q 48.484375 72.75 52.59375 71.296875 
z
" id="DejaVuSans-54"/>
       </defs>
       <use xlink:href="#DejaVuSans-54"/>
       <use x="63.623047" xlink:href="#DejaVuSans-48"/>
       <use x="127.246094" xlink:href="#DejaVuSans-48"/>
      </g>
     </g>
    </g>
    <g id="ytick_5">
     <g id="line2d_19">
      <path clip-path="url(#p61ad7dcd47)" d="M 57.6 144.186677 
L 414.72 144.186677 
" style="fill:none;stroke:#b0b0b0;stroke-linecap:square;stroke-width:0.8;"/>
     </g>
     <g id="line2d_20">
      <g>
       <use style="stroke:#000000;stroke-width:0.8;" x="57.6" xlink:href="#m5dcf4ff939" y="144.186677"/>
      </g>
     </g>
     <g id="text_11">
      <!-- 700 -->
      <g transform="translate(31.5125 147.985896)scale(0.1 -0.1)">
       <defs>
        <path d="M 8.203125 72.90625 
L 55.078125 72.90625 
L 55.078125 68.703125 
L 28.609375 0 
L 18.3125 0 
L 43.21875 64.59375 
L 8.203125 64.59375 
z
" id="DejaVuSans-55"/>
       </defs>
       <use xlink:href="#DejaVuSans-55"/>
       <use x="63.623047" xlink:href="#DejaVuSans-48"/>
       <use x="127.246094" xlink:href="#DejaVuSans-48"/>
      </g>
     </g>
    </g>
    <g id="ytick_6">
     <g id="line2d_21">
      <path clip-path="url(#p61ad7dcd47)" d="M 57.6 110.748051 
L 414.72 110.748051 
" style="fill:none;stroke:#b0b0b0;stroke-linecap:square;stroke-width:0.8;"/>
     </g>
     <g id="line2d_22">
      <g>
       <use style="stroke:#000000;stroke-width:0.8;" x="57.6" xlink:href="#m5dcf4ff939" y="110.748051"/>
      </g>
     </g>
     <g id="text_12">
      <!-- 800 -->
      <g transform="translate(31.5125 114.54727)scale(0.1 -0.1)">
       <defs>
        <path d="M 31.78125 34.625 
Q 24.75 34.625 20.71875 30.859375 
Q 16.703125 27.09375 16.703125 20.515625 
Q 16.703125 13.921875 20.71875 10.15625 
Q 24.75 6.390625 31.78125 6.390625 
Q 38.8125 6.390625 42.859375 10.171875 
Q 46.921875 13.96875 46.921875 20.515625 
Q 46.921875 27.09375 42.890625 30.859375 
Q 38.875 34.625 31.78125 34.625 
z
M 21.921875 38.8125 
Q 15.578125 40.375 12.03125 44.71875 
Q 8.5 49.078125 8.5 55.328125 
Q 8.5 64.0625 14.71875 69.140625 
Q 20.953125 74.21875 31.78125 74.21875 
Q 42.671875 74.21875 48.875 69.140625 
Q 55.078125 64.0625 55.078125 55.328125 
Q 55.078125 49.078125 51.53125 44.71875 
Q 48 40.375 41.703125 38.8125 
Q 48.828125 37.15625 52.796875 32.3125 
Q 56.78125 27.484375 56.78125 20.515625 
Q 56.78125 9.90625 50.3125 4.234375 
Q 43.84375 -1.421875 31.78125 -1.421875 
Q 19.734375 -1.421875 13.25 4.234375 
Q 6.78125 9.90625 6.78125 20.515625 
Q 6.78125 27.484375 10.78125 32.3125 
Q 14.796875 37.15625 21.921875 38.8125 
z
M 18.3125 54.390625 
Q 18.3125 48.734375 21.84375 45.5625 
Q 25.390625 42.390625 31.78125 42.390625 
Q 38.140625 42.390625 41.71875 45.5625 
Q 45.3125 48.734375 45.3125 54.390625 
Q 45.3125 60.0625 41.71875 63.234375 
Q 38.140625 66.40625 31.78125 66.40625 
Q 25.390625 66.40625 21.84375 63.234375 
Q 18.3125 60.0625 18.3125 54.390625 
z
" id="DejaVuSans-56"/>
       </defs>
       <use xlink:href="#DejaVuSans-56"/>
       <use x="63.623047" xlink:href="#DejaVuSans-48"/>
       <use x="127.246094" xlink:href="#DejaVuSans-48"/>
      </g>
     </g>
    </g>
    <g id="ytick_7">
     <g id="line2d_23">
      <path clip-path="url(#p61ad7dcd47)" d="M 57.6 77.309425 
L 414.72 77.309425 
" style="fill:none;stroke:#b0b0b0;stroke-linecap:square;stroke-width:0.8;"/>
     </g>
     <g id="line2d_24">
      <g>
       <use style="stroke:#000000;stroke-width:0.8;" x="57.6" xlink:href="#m5dcf4ff939" y="77.309425"/>
      </g>
     </g>
     <g id="text_13">
      <!-- 900 -->
      <g transform="translate(31.5125 81.108643)scale(0.1 -0.1)">
       <defs>
        <path d="M 10.984375 1.515625 
L 10.984375 10.5 
Q 14.703125 8.734375 18.5 7.8125 
Q 22.3125 6.890625 25.984375 6.890625 
Q 35.75 6.890625 40.890625 13.453125 
Q 46.046875 20.015625 46.78125 33.40625 
Q 43.953125 29.203125 39.59375 26.953125 
Q 35.25 24.703125 29.984375 24.703125 
Q 19.046875 24.703125 12.671875 31.3125 
Q 6.296875 37.9375 6.296875 49.421875 
Q 6.296875 60.640625 12.9375 67.421875 
Q 19.578125 74.21875 30.609375 74.21875 
Q 43.265625 74.21875 49.921875 64.515625 
Q 56.59375 54.828125 56.59375 36.375 
Q 56.59375 19.140625 48.40625 8.859375 
Q 40.234375 -1.421875 26.421875 -1.421875 
Q 22.703125 -1.421875 18.890625 -0.6875 
Q 15.09375 0.046875 10.984375 1.515625 
z
M 30.609375 32.421875 
Q 37.25 32.421875 41.125 36.953125 
Q 45.015625 41.5 45.015625 49.421875 
Q 45.015625 57.28125 41.125 61.84375 
Q 37.25 66.40625 30.609375 66.40625 
Q 23.96875 66.40625 20.09375 61.84375 
Q 16.21875 57.28125 16.21875 49.421875 
Q 16.21875 41.5 20.09375 36.953125 
Q 23.96875 32.421875 30.609375 32.421875 
z
" id="DejaVuSans-57"/>
       </defs>
       <use xlink:href="#DejaVuSans-57"/>
       <use x="63.623047" xlink:href="#DejaVuSans-48"/>
       <use x="127.246094" xlink:href="#DejaVuSans-48"/>
      </g>
     </g>
    </g>
    <g id="ytick_8">
     <g id="line2d_25">
      <path clip-path="url(#p61ad7dcd47)" d="M 57.6 43.870798 
L 414.72 43.870798 
" style="fill:none;stroke:#b0b0b0;stroke-linecap:square;stroke-width:0.8;"/>
     </g>
     <g id="line2d_26">
      <g>
       <use style="stroke:#000000;stroke-width:0.8;" x="57.6" xlink:href="#m5dcf4ff939" y="43.870798"/>
      </g>
     </g>
     <g id="text_14">
      <!-- 1000 -->
      <g transform="translate(25.15 47.670017)scale(0.1 -0.1)">
       <use xlink:href="#DejaVuSans-49"/>
       <use x="63.623047" xlink:href="#DejaVuSans-48"/>
       <use x="127.246094" xlink:href="#DejaVuSans-48"/>
       <use x="190.869141" xlink:href="#DejaVuSans-48"/>
      </g>
     </g>
    </g>
    <g id="text_15">
     <!-- Fitness -->
     <g transform="translate(19.070312 191.845187)rotate(-90)scale(0.1 -0.1)">
      <defs>
       <path d="M 9.8125 72.90625 
L 51.703125 72.90625 
L 51.703125 64.59375 
L 19.671875 64.59375 
L 19.671875 43.109375 
L 48.578125 43.109375 
L 48.578125 34.8125 
L 19.671875 34.8125 
L 19.671875 0 
L 9.8125 0 
z
" id="DejaVuSans-70"/>
      </defs>
      <use xlink:href="#DejaVuSans-70"/>
      <use x="50.269531" xlink:href="#DejaVuSans-105"/>
      <use x="78.052734" xlink:href="#DejaVuSans-116"/>
      <use x="117.261719" xlink:href="#DejaVuSans-110"/>
      <use x="180.640625" xlink:href="#DejaVuSans-101"/>
      <use x="242.164062" xlink:href="#DejaVuSans-115"/>
      <use x="294.263672" xlink:href="#DejaVuSans-115"/>
     </g>
    </g>
   </g>
   <g id="line2d_27">
    <path clip-path="url(#p61ad7dcd47)" d="M 73.832727 266.846246 
L 75.342748 266.697778 
L 76.097759 267.182087 
L 76.85277 266.591874 
L 77.60778 266.274597 
L 78.362791 266.695279 
L 80.627822 266.294608 
L 81.382833 266.940867 
L 82.137844 266.807775 
L 82.892854 266.432997 
L 83.647865 267.036879 
L 84.402875 266.684615 
L 85.157886 266.7601 
L 86.667907 266.375779 
L 87.422918 266.500337 
L 88.177928 266.42022 
L 88.932939 266.585425 
L 89.687949 266.037031 
L 91.19797 266.629595 
L 91.952981 266.468274 
L 92.707992 266.520962 
L 93.463002 266.767331 
L 94.218013 266.013794 
L 94.973023 264.742928 
L 95.728034 266.260143 
L 96.483044 266.378457 
L 97.238055 266.174401 
L 97.993066 266.132985 
L 98.748076 268.201032 
L 100.258097 264.493854 
L 101.013108 265.012683 
L 101.768118 264.741543 
L 102.523129 267.51292 
L 103.27814 263.43885 
L 104.03315 263.040521 
L 104.788161 263.450007 
L 105.543171 264.044089 
L 106.298182 263.010835 
L 107.053192 263.451111 
L 107.808203 262.934332 
L 108.563214 264.446544 
L 109.318224 264.798789 
L 110.073235 263.268718 
L 110.828245 271.557444 
L 111.583256 265.108695 
L 112.338266 265.860659 
L 113.093277 265.621862 
L 113.848288 264.960307 
L 114.603298 263.602699 
L 115.358309 266.393268 
L 116.113319 270.482051 
L 116.86833 266.284013 
L 117.62334 265.757603 
L 118.378351 262.814342 
L 119.133362 267.470501 
L 119.888372 264.069219 
L 120.643383 263.427467 
L 121.398393 264.39685 
L 122.153404 266.923324 
L 122.908414 267.646138 
L 123.663425 266.119445 
L 124.418436 268.452558 
L 125.173446 267.167257 
L 125.928457 266.471733 
L 126.683467 266.090533 
L 127.438478 263.575948 
L 128.193488 264.555599 
L 128.948499 264.650172 
L 129.70351 266.251038 
L 130.45852 267.277976 
L 131.213531 265.524981 
L 131.968541 264.633284 
L 132.723552 265.909964 
L 133.478562 267.605005 
L 134.233573 266.430578 
L 134.988584 267.335892 
L 135.743594 264.676111 
L 136.498605 268.529192 
L 137.253615 262.311839 
L 138.008626 269.800163 
L 138.763636 265.287476 
L 139.518647 261.639852 
L 140.273658 265.641013 
L 141.028668 265.899966 
L 141.783679 264.804106 
L 142.538689 262.907043 
L 143.2937 257.987194 
L 144.04871 257.570641 
L 144.803721 264.457647 
L 145.558732 261.017893 
L 146.313742 259.477545 
L 147.823763 256.114879 
L 148.578774 261.589694 
L 149.333784 260.857388 
L 150.088795 261.289422 
L 150.843805 261.542745 
L 152.353827 261.459283 
L 153.108837 257.580038 
L 153.863848 258.018448 
L 154.618858 263.792252 
L 155.373869 255.459617 
L 156.128879 251.625996 
L 156.88389 253.988207 
L 157.638901 254.946216 
L 158.393911 257.087639 
L 159.148922 255.960203 
L 159.903932 256.232047 
L 160.658943 259.16589 
L 161.413953 257.907224 
L 162.168964 257.22531 
L 162.923975 255.009497 
L 163.678985 253.889015 
L 164.433996 255.388318 
L 165.189006 247.068391 
L 165.944017 249.69382 
L 166.699027 246.058611 
L 167.454038 253.444044 
L 168.209049 249.57577 
L 168.964059 250.31885 
L 169.71907 246.258084 
L 170.47408 248.768514 
L 171.229091 247.117456 
L 171.984101 246.936888 
L 172.739112 246.919407 
L 173.494123 250.287438 
L 174.249133 248.435733 
L 175.004144 241.820778 
L 175.759154 242.351 
L 176.514165 246.444698 
L 177.269175 244.984072 
L 178.024186 245.057637 
L 178.779197 250.144082 
L 179.534207 243.863878 
L 180.289218 246.578399 
L 181.044228 246.505529 
L 182.554249 250.296377 
L 183.30926 250.574481 
L 184.064271 255.345279 
L 184.819281 252.822483 
L 185.574292 246.290364 
L 186.329302 251.524667 
L 187.084313 245.101107 
L 187.839323 243.696685 
L 188.594334 248.081482 
L 189.349345 251.437727 
L 190.104355 246.444698 
L 190.859366 248.772668 
L 191.614376 248.548298 
L 192.369387 243.322172 
L 193.124397 247.150895 
L 194.634419 249.214362 
L 195.389429 245.351897 
L 196.14444 245.542497 
L 196.89945 240.470251 
L 197.654461 249.987842 
L 198.409471 247.339773 
L 199.164482 246.015738 
L 199.919493 246.38515 
L 200.674503 251.045043 
L 201.429514 250.334252 
L 202.184524 252.644861 
L 202.939535 257.279455 
L 203.694545 249.595259 
L 204.449556 245.836757 
L 205.204567 249.073616 
L 205.959577 247.60566 
L 206.714588 254.905684 
L 207.469598 252.284636 
L 208.224609 247.778866 
L 208.979619 250.695389 
L 209.73463 249.89955 
L 210.489641 250.110213 
L 211.244651 252.729782 
L 212.754672 250.154015 
L 213.509683 254.152943 
L 214.264693 255.131986 
L 215.019704 252.213503 
L 215.774715 255.727903 
L 216.529725 252.313819 
L 217.284736 247.986861 
L 218.039746 249.107816 
L 218.794757 249.058991 
L 219.549767 251.153499 
L 220.304778 248.471282 
L 221.059789 249.013426 
L 221.814799 250.487732 
L 222.56981 253.430669 
L 223.32482 245.971829 
L 224.079831 248.938968 
L 225.589852 251.075441 
L 226.344863 251.681829 
L 227.099873 246.682754 
L 227.854884 251.350786 
L 228.609894 249.467685 
L 229.364905 254.002469 
L 230.119915 254.107056 
L 230.874926 252.200128 
L 231.629937 251.385616 
L 233.139958 254.388905 
L 233.894968 256.904942 
L 234.649979 251.635015 
L 235.404989 249.33258 
L 236.16 251.196969 
L 236.915011 247.379602 
L 237.670021 252.774394 
L 238.425032 255.801468 
L 239.180042 253.176535 
L 239.935053 248.501815 
L 240.690063 251.089965 
L 241.445074 249.716995 
L 242.200085 242.232073 
L 242.955095 253.480827 
L 243.710106 251.969401 
L 244.465116 248.662321 
L 245.975137 256.959288 
L 246.730148 248.362896 
L 247.485159 247.261242 
L 248.240169 248.665665 
L 248.99518 251.352408 
L 249.75019 248.769324 
L 250.505201 248.311215 
L 251.260211 249.015081 
L 252.015222 244.942886 
L 252.770233 246.194352 
L 253.525243 248.778647 
L 254.280254 249.316394 
L 255.035264 255.182853 
L 255.790275 251.297285 
L 256.545285 246.817288 
L 257.300296 251.24929 
L 258.055307 243.643183 
L 258.810317 246.425277 
L 259.565328 247.478594 
L 260.320338 244.766721 
L 261.075349 248.769324 
L 261.830359 247.431779 
L 263.340381 242.453198 
L 264.095391 244.569433 
L 264.850402 243.194808 
L 265.605412 242.121726 
L 266.360423 241.817434 
L 267.115433 250.723465 
L 267.870444 248.591338 
L 268.625455 248.899239 
L 269.380465 249.950687 
L 270.135476 246.829611 
L 270.890486 246.799789 
L 271.645497 247.291337 
L 272.400507 244.919711 
L 273.155518 245.770575 
L 273.910529 246.025503 
L 274.665539 245.05331 
L 275.42055 250.442829 
L 276.17556 246.541656 
L 276.930571 248.809848 
L 277.685581 249.245646 
L 278.440592 245.422118 
L 279.195603 248.080489 
L 279.950613 248.645602 
L 280.705624 249.56182 
L 281.460634 244.546026 
L 282.215645 248.495128 
L 282.970655 244.275173 
L 283.725666 249.927044 
L 284.480677 243.354159 
L 285.235687 244.580241 
L 285.990698 245.024198 
L 286.745708 249.093679 
L 287.500719 241.168826 
L 288.255729 239.925855 
L 289.01074 245.515746 
L 289.765751 244.188233 
L 290.520761 243.205137 
L 291.275772 248.251026 
L 292.030782 247.349905 
L 292.785793 245.502371 
L 293.540803 241.473016 
L 294.295814 252.743995 
L 295.805835 243.141604 
L 296.560846 244.492524 
L 297.315856 238.650796 
L 298.070867 240.128783 
L 298.825877 242.101662 
L 299.580888 239.218591 
L 300.335899 243.837127 
L 301.090909 241.740525 
L 301.84592 244.091261 
L 302.60093 242.63668 
L 303.355941 245.973855 
L 304.110951 243.786969 
L 304.865962 246.568467 
L 305.620973 250.422186 
L 306.375983 250.715453 
L 307.130994 244.867341 
L 307.886004 248.331278 
L 308.641015 241.026965 
L 309.396025 246.024354 
L 310.151036 245.22251 
L 310.906047 245.000723 
L 311.661057 247.37159 
L 312.416068 246.108272 
L 313.171078 249.27516 
L 313.926089 251.31609 
L 314.681099 248.329789 
L 315.43611 255.418115 
L 316.191121 254.752653 
L 316.946131 252.551233 
L 317.701142 261.746855 
L 318.456152 252.619022 
L 319.211163 253.895466 
L 319.966173 258.954002 
L 320.721184 252.581328 
L 321.476195 248.495326 
L 322.231205 247.02204 
L 322.986216 251.033119 
L 323.741226 249.495174 
L 325.251247 248.020299 
L 326.006258 250.862582 
L 326.761268 252.684988 
L 327.516279 246.485466 
L 328.27129 252.527826 
L 329.0263 245.710981 
L 329.781311 249.667334 
L 330.536321 246.676066 
L 331.291332 249.197339 
L 332.046342 249.653455 
L 332.801353 246.482122 
L 333.556364 246.3584 
L 334.311374 246.84326 
L 335.821395 242.589866 
L 336.576406 249.333301 
L 337.331416 249.993703 
L 338.086427 247.551761 
L 338.841438 248.938968 
L 339.596448 238.58523 
L 340.351459 249.908467 
L 341.106469 250.647317 
L 341.86148 239.973443 
L 342.61649 245.066621 
L 343.371501 247.632411 
L 344.126512 245.869898 
L 344.881522 246.522384 
L 345.636533 248.180805 
L 346.391543 242.65161 
L 347.901564 246.97367 
L 348.656575 245.57524 
L 349.411586 254.346887 
L 350.166596 250.989649 
L 350.921607 245.004135 
L 351.676617 252.507763 
L 352.431628 249.521694 
L 353.186638 249.822641 
L 353.941649 252.631486 
L 354.69666 248.366207 
L 355.45167 248.939861 
L 356.206681 251.688517 
L 356.961691 250.146996 
L 357.716702 246.117641 
L 358.471712 251.315254 
L 359.226723 250.494758 
L 359.981734 246.177831 
L 360.736744 245.943761 
L 361.491755 247.030516 
L 362.246765 254.019189 
L 363.001776 252.454989 
L 363.756786 260.006822 
L 365.266808 249.16741 
L 366.776829 251.83899 
L 367.531839 255.825338 
L 368.28685 251.481197 
L 369.04186 251.273878 
L 369.796871 250.53154 
L 370.551882 253.688146 
L 371.306892 258.319396 
L 372.061903 249.544836 
L 372.816913 250.922772 
L 373.571924 244.82691 
L 374.326934 244.35877 
L 375.081945 247.043891 
L 375.836956 243.975644 
L 376.591966 245.8705 
L 377.346977 245.522603 
L 378.101987 243.472376 
L 378.856998 246.595814 
L 379.612008 246.288178 
L 380.367019 248.601271 
L 381.12203 247.617976 
L 381.87704 249.240809 
L 382.632051 245.191391 
L 383.387061 245.930385 
L 384.142072 245.378648 
L 384.897082 248.745917 
L 386.407104 250.839175 
L 387.162114 250.752235 
L 387.917125 245.638145 
L 388.672135 249.240809 
L 389.427146 251.133435 
L 390.182156 245.76917 
L 390.937167 246.629252 
L 391.692178 252.875588 
L 392.447188 252.715082 
L 393.202199 249.916269 
L 394.71222 249.882831 
L 395.46723 252.965872 
L 396.222241 254.560895 
L 396.977252 244.002665 
L 397.732262 246.758819 
L 398.487273 243.546211 
L 398.487273 243.546211 
" style="fill:none;stroke:#0000ff;stroke-linecap:square;stroke-width:1.5;"/>
   </g>
   <g id="line2d_28">
    <path clip-path="url(#p61ad7dcd47)" d="M 73.832727 267.38414 
L 74.587738 272.804974 
L 75.342748 274.05013 
L 76.097759 274.157954 
L 76.85277 272.351212 
L 77.60778 275.464498 
L 78.362791 274.508462 
L 79.117801 273.816609 
L 79.872812 274.977069 
L 80.627822 275.883691 
L 81.382833 273.145354 
L 82.137844 272.037982 
L 82.892854 271.491641 
L 83.647865 271.523343 
L 84.402875 270.627638 
L 85.157886 271.778438 
L 85.912896 269.264045 
L 87.422918 273.087922 
L 88.177928 270.662597 
L 88.932939 272.790596 
L 89.687949 271.038985 
L 90.44296 272.91655 
L 91.19797 272.612088 
L 91.952981 272.66406 
L 92.707992 273.230748 
L 94.218013 270.217202 
L 94.973023 273.085656 
L 95.728034 276.400517 
L 96.483044 278.542635 
L 97.238055 273.568937 
L 97.993066 275.862805 
L 98.748076 282.26621 
L 99.503087 276.175784 
L 100.258097 273.260198 
L 101.013108 272.602687 
L 101.768118 274.923465 
L 102.523129 280.774765 
L 103.27814 274.488245 
L 104.03315 275.888915 
L 104.788161 275.324603 
L 105.543171 281.329907 
L 106.298182 279.60262 
L 107.053192 279.487572 
L 107.808203 282.054505 
L 108.563214 281.509789 
L 109.318224 282.04446 
L 110.073235 284.860388 
L 110.828245 292.853206 
L 111.583256 283.059226 
L 112.338266 283.921321 
L 113.093277 287.821682 
L 113.848288 286.338047 
L 114.603298 287.933903 
L 115.358309 292.869605 
L 116.113319 295.488 
L 116.86833 291.373378 
L 117.62334 285.712302 
L 118.378351 288.245559 
L 119.133362 291.370863 
L 119.888372 288.148893 
L 120.643383 290.927671 
L 121.398393 290.577453 
L 122.153404 288.285027 
L 122.908414 291.37061 
L 123.663425 288.346883 
L 125.173446 291.897628 
L 125.928457 286.243012 
L 126.683467 290.664048 
L 127.438478 289.487018 
L 128.193488 292.23378 
L 128.948499 291.520642 
L 129.70351 292.659506 
L 130.45852 293.465416 
L 131.213531 291.815545 
L 131.968541 288.893967 
L 132.723552 291.196464 
L 133.478562 291.832134 
L 134.233573 295.362932 
L 134.988584 293.777309 
L 135.743594 285.55548 
L 136.498605 291.833272 
L 137.253615 286.457035 
L 138.008626 294.967579 
L 138.763636 286.546125 
L 139.518647 282.804435 
L 140.273658 290.358053 
L 141.028668 287.366206 
L 141.783679 289.678023 
L 143.2937 278.985054 
L 144.04871 277.251695 
L 144.803721 284.71655 
L 145.558732 282.379648 
L 146.313742 281.627496 
L 147.068753 279.921306 
L 147.823763 276.484699 
L 148.578774 283.51215 
L 149.333784 284.863299 
L 150.088795 285.343549 
L 150.843805 283.512059 
L 151.598816 285.227963 
L 152.353827 282.628669 
L 153.108837 281.611799 
L 153.863848 285.715813 
L 154.618858 285.192479 
L 155.373869 275.550011 
L 156.128879 276.609036 
L 156.88389 277.877162 
L 157.638901 273.868695 
L 158.393911 282.275535 
L 159.148922 282.030347 
L 159.903932 281.009936 
L 160.658943 283.5871 
L 161.413953 283.570784 
L 162.168964 282.621415 
L 162.923975 279.431297 
L 163.678985 279.292469 
L 164.433996 281.858044 
L 165.189006 272.847184 
L 165.944017 275.681744 
L 166.699027 271.492452 
L 167.454038 281.546365 
L 168.209049 274.92496 
L 168.964059 277.537012 
L 169.71907 272.224953 
L 170.47408 273.978043 
L 171.229091 274.384657 
L 171.984101 271.115076 
L 172.739112 277.299853 
L 174.249133 273.742186 
L 175.004144 264.406236 
L 175.759154 266.077371 
L 177.269175 273.866542 
L 178.024186 267.497184 
L 178.779197 276.748315 
L 179.534207 267.574297 
L 181.044228 271.357988 
L 181.799239 274.33091 
L 182.554249 277.868531 
L 183.30926 275.843528 
L 184.064271 285.136027 
L 184.819281 278.137734 
L 185.574292 273.147801 
L 186.329302 279.65671 
L 187.084313 269.248857 
L 187.839323 271.526185 
L 188.594334 275.163787 
L 189.349345 276.797861 
L 190.104355 271.057462 
L 190.859366 276.118917 
L 191.614376 275.033621 
L 192.369387 267.493764 
L 193.124397 272.381028 
L 193.879408 272.758272 
L 194.634419 276.515152 
L 195.389429 270.155173 
L 196.14444 270.919304 
L 196.89945 263.943176 
L 197.654461 276.189167 
L 198.409471 271.472905 
L 199.164482 273.881476 
L 199.919493 272.209412 
L 200.674503 281.232554 
L 201.429514 274.70146 
L 202.184524 279.189629 
L 202.939535 287.247751 
L 203.694545 274.333237 
L 204.449556 271.866939 
L 205.204567 274.635168 
L 205.959577 272.817146 
L 206.714588 281.69042 
L 207.469598 274.937397 
L 208.224609 273.845919 
L 208.979619 275.353762 
L 209.73463 274.849383 
L 210.489641 275.42614 
L 211.244651 280.215352 
L 211.999662 276.196636 
L 212.754672 276.250931 
L 213.509683 280.969305 
L 214.264693 284.12714 
L 215.019704 278.897645 
L 215.774715 280.110933 
L 216.529725 276.040192 
L 217.284736 275.943519 
L 218.039746 276.926555 
L 218.794757 273.703897 
L 219.549767 277.184815 
L 220.304778 272.746423 
L 221.059789 273.279526 
L 221.814799 277.641653 
L 222.56981 280.560814 
L 223.32482 269.154278 
L 224.079831 274.765634 
L 224.834841 277.878378 
L 225.589852 278.994056 
L 226.344863 278.594853 
L 227.099873 273.277101 
L 227.854884 280.179012 
L 228.609894 276.567974 
L 229.364905 277.459331 
L 230.119915 277.74453 
L 231.629937 276.918022 
L 233.139958 280.244928 
L 233.894968 284.347854 
L 234.649979 275.69573 
L 235.404989 273.858072 
L 236.16 278.98348 
L 236.915011 271.994596 
L 237.670021 278.46681 
L 238.425032 281.272892 
L 239.180042 276.590156 
L 239.935053 275.703431 
L 240.690063 276.213102 
L 241.445074 275.016317 
L 242.200085 266.107032 
L 242.955095 279.433181 
L 243.710106 276.575734 
L 244.465116 269.839155 
L 245.220127 280.317205 
L 245.975137 285.714125 
L 246.730148 273.48791 
L 247.485159 269.78629 
L 248.240169 274.255211 
L 248.99518 277.861319 
L 249.75019 275.930387 
L 250.505201 273.145329 
L 251.260211 272.016786 
L 252.015222 269.080691 
L 252.770233 270.842009 
L 253.525243 273.70533 
L 254.280254 275.521878 
L 255.035264 281.792177 
L 255.790275 276.277567 
L 256.545285 272.892244 
L 257.300296 278.003199 
L 258.055307 267.766145 
L 258.810317 272.010453 
L 259.565328 272.633754 
L 260.320338 269.151542 
L 261.075349 276.689441 
L 261.830359 275.703663 
L 262.58537 270.174327 
L 263.340381 265.943315 
L 264.095391 266.622201 
L 264.850402 266.008953 
L 265.605412 266.831729 
L 266.360423 265.330351 
L 267.115433 275.862907 
L 267.870444 276.67505 
L 268.625455 274.69689 
L 269.380465 277.39491 
L 270.135476 273.085742 
L 270.890486 270.143287 
L 271.645497 275.740248 
L 272.400507 269.981587 
L 273.155518 268.591232 
L 273.910529 270.321825 
L 274.665539 270.413711 
L 275.42055 280.847695 
L 276.17556 271.174237 
L 276.930571 273.774259 
L 277.685581 272.684884 
L 278.440592 270.453443 
L 279.195603 273.163181 
L 279.950613 275.227265 
L 280.705624 273.402161 
L 281.460634 268.895852 
L 282.215645 277.346358 
L 282.970655 271.084606 
L 283.725666 276.434515 
L 284.480677 264.023917 
L 285.235687 270.162444 
L 285.990698 270.543121 
L 286.745708 276.436902 
L 287.500719 264.643486 
L 288.255729 262.119289 
L 289.01074 271.487312 
L 289.765751 266.959806 
L 290.520761 268.384768 
L 291.275772 271.801948 
L 292.030782 274.328728 
L 292.785793 272.612766 
L 293.540803 264.637795 
L 294.295814 275.887313 
L 295.805835 266.059251 
L 296.560846 271.323827 
L 297.315856 262.327445 
L 298.070867 261.178853 
L 298.825877 268.33338 
L 299.580888 263.368459 
L 300.335899 269.436814 
L 301.090909 263.397122 
L 301.84592 269.662644 
L 302.60093 267.108281 
L 303.355941 269.811867 
L 304.110951 269.031871 
L 304.865962 273.632856 
L 305.620973 277.099219 
L 306.375983 277.887178 
L 307.130994 269.288251 
L 307.886004 273.317759 
L 308.641015 263.175784 
L 309.396025 271.272726 
L 310.151036 267.49637 
L 310.906047 269.620785 
L 311.661057 273.153754 
L 312.416068 270.96441 
L 313.171078 275.831724 
L 313.926089 276.67615 
L 314.681099 275.447101 
L 315.43611 282.597741 
L 316.191121 280.562062 
L 316.946131 276.265951 
L 317.701142 285.657847 
L 318.456152 280.153986 
L 319.211163 279.489413 
L 319.966173 287.292268 
L 320.721184 276.431425 
L 321.476195 273.292505 
L 322.231205 269.180722 
L 322.986216 276.277597 
L 323.741226 272.412261 
L 324.496237 271.805412 
L 325.251247 271.411065 
L 326.006258 277.556702 
L 326.761268 275.885055 
L 327.516279 271.279266 
L 328.27129 276.854145 
L 329.0263 270.105367 
L 329.781311 276.625902 
L 331.291332 273.028826 
L 332.046342 275.040261 
L 333.556364 270.155257 
L 334.311374 270.650153 
L 335.066385 267.993388 
L 335.821395 268.672041 
L 336.576406 277.233312 
L 337.331416 277.064838 
L 338.086427 272.801373 
L 338.841438 274.719169 
L 339.596448 262.901198 
L 340.351459 277.11418 
L 341.106469 280.434962 
L 341.86148 263.428132 
L 342.61649 266.316009 
L 343.371501 273.051729 
L 344.126512 269.166717 
L 344.881522 270.065719 
L 345.636533 274.048131 
L 346.391543 266.69636 
L 347.146554 269.962656 
L 347.901564 270.379891 
L 348.656575 269.722876 
L 349.411586 281.211627 
L 350.166596 272.344342 
L 350.921607 269.29331 
L 351.676617 274.137402 
L 352.431628 275.983777 
L 353.186638 276.329544 
L 353.941649 277.074261 
L 354.69666 273.336568 
L 355.45167 273.162256 
L 356.206681 277.92382 
L 356.961691 273.137421 
L 357.716702 269.86632 
L 358.471712 277.983172 
L 359.226723 276.435705 
L 359.981734 269.366572 
L 360.736744 271.477593 
L 361.491755 273.068078 
L 362.246765 280.730369 
L 363.001776 276.795521 
L 363.756786 286.251719 
L 364.511797 275.063876 
L 365.266808 269.732959 
L 366.021818 273.685955 
L 366.776829 276.428357 
L 367.531839 281.026575 
L 368.28685 272.078504 
L 369.04186 273.288045 
L 369.796871 272.89713 
L 370.551882 277.634614 
L 371.306892 280.243555 
L 372.061903 271.379961 
L 372.816913 274.973537 
L 373.571924 266.583431 
L 374.326934 267.699614 
L 375.081945 270.29367 
L 375.836956 267.858867 
L 376.591966 269.826297 
L 377.346977 267.52913 
L 378.101987 266.392933 
L 378.856998 269.880271 
L 379.612008 268.042066 
L 380.367019 271.863734 
L 381.87704 271.16824 
L 382.632051 272.065973 
L 383.387061 269.772986 
L 384.142072 268.537294 
L 384.897082 270.423934 
L 385.652093 270.912377 
L 386.407104 274.426583 
L 387.162114 278.892968 
L 387.917125 266.450468 
L 388.672135 271.692851 
L 389.427146 272.188517 
L 390.182156 268.059524 
L 390.937167 269.5056 
L 391.692178 278.408992 
L 392.447188 275.503418 
L 393.202199 276.019511 
L 393.957209 271.742637 
L 394.71222 274.193429 
L 395.46723 280.113123 
L 396.222241 282.357251 
L 396.977252 270.236105 
L 397.732262 279.084932 
L 398.487273 277.706088 
L 398.487273 277.706088 
" style="fill:none;stroke:#008000;stroke-dasharray:9.6,2.4,1.5,2.4;stroke-dashoffset:0;stroke-width:1.5;"/>
   </g>
   <g id="line2d_29">
    <path clip-path="url(#p61ad7dcd47)" d="M 73.832727 266.308351 
L 74.587738 260.718987 
L 75.342748 259.345426 
L 76.097759 260.20622 
L 76.85277 260.832537 
L 77.60778 257.084696 
L 78.362791 258.882097 
L 79.117801 259.247498 
L 79.872812 257.729502 
L 80.627822 256.705525 
L 81.382833 260.73638 
L 82.137844 261.577568 
L 82.892854 261.374354 
L 83.647865 262.550415 
L 84.402875 262.741591 
L 85.157886 261.741762 
L 85.912896 263.767488 
L 87.422918 259.912753 
L 88.177928 262.177842 
L 88.932939 260.380253 
L 89.687949 261.035078 
L 90.44296 259.713511 
L 91.19797 260.647101 
L 92.707992 259.811176 
L 93.463002 261.932113 
L 94.218013 261.810386 
L 94.973023 256.400199 
L 95.728034 256.119768 
L 96.483044 254.21428 
L 97.238055 258.779864 
L 98.748076 254.135854 
L 99.503087 256.248587 
L 100.258097 255.72751 
L 101.013108 257.422679 
L 101.768118 254.55962 
L 102.523129 254.251076 
L 103.27814 252.389455 
L 104.03315 250.192127 
L 104.788161 251.575411 
L 105.543171 246.758271 
L 106.298182 246.41905 
L 107.053192 247.41465 
L 107.808203 243.814159 
L 108.563214 247.383299 
L 109.318224 247.553117 
L 110.073235 241.677048 
L 110.828245 250.261683 
L 111.583256 247.158165 
L 112.338266 247.799996 
L 113.093277 243.422043 
L 113.848288 243.582568 
L 114.603298 239.271495 
L 115.358309 239.916932 
L 116.113319 245.476102 
L 116.86833 241.194649 
L 117.62334 245.802904 
L 118.378351 237.383125 
L 119.133362 243.570139 
L 120.643383 235.927264 
L 121.398393 238.216246 
L 122.153404 245.56162 
L 122.908414 243.921666 
L 123.663425 243.892008 
L 124.418436 246.792487 
L 125.173446 242.436885 
L 125.928457 246.700454 
L 126.683467 241.517018 
L 127.438478 237.664878 
L 128.193488 236.877417 
L 128.948499 237.779702 
L 129.70351 239.84257 
L 130.45852 241.090535 
L 131.213531 239.234417 
L 131.968541 240.372602 
L 132.723552 240.623465 
L 133.478562 243.377876 
L 134.233573 237.498224 
L 135.743594 243.796743 
L 136.498605 245.225113 
L 137.253615 238.166644 
L 138.008626 244.632746 
L 138.763636 244.028827 
L 139.518647 240.475268 
L 140.273658 240.923972 
L 141.028668 244.433725 
L 141.783679 239.930189 
L 142.538689 241.698332 
L 143.2937 236.989333 
L 144.04871 237.889587 
L 144.803721 244.198745 
L 145.558732 239.656138 
L 146.313742 237.327593 
L 147.068753 235.411606 
L 147.823763 235.745059 
L 148.578774 239.667238 
L 149.333784 236.851477 
L 150.088795 237.235295 
L 150.843805 239.57343 
L 151.598816 237.681889 
L 152.353827 240.289897 
L 153.108837 233.548278 
L 153.863848 230.321084 
L 154.618858 242.392025 
L 155.373869 235.369223 
L 156.128879 226.642957 
L 156.88389 230.099252 
L 157.638901 236.023736 
L 158.393911 231.899742 
L 159.148922 229.890058 
L 159.903932 231.454157 
L 160.658943 234.74468 
L 161.413953 232.243665 
L 162.168964 231.829205 
L 162.923975 230.587696 
L 163.678985 228.48556 
L 164.433996 228.918593 
L 165.189006 221.289598 
L 165.944017 223.705896 
L 166.699027 220.62477 
L 167.454038 225.341724 
L 168.964059 223.100688 
L 169.71907 220.291214 
L 170.47408 223.558985 
L 171.229091 219.850255 
L 171.984101 222.758699 
L 172.739112 216.538961 
L 173.494123 225.079704 
L 174.249133 223.12928 
L 175.004144 219.23532 
L 175.759154 218.624629 
L 176.514165 222.710402 
L 177.269175 216.101602 
L 178.024186 222.61809 
L 178.779197 223.53985 
L 179.534207 220.153459 
L 180.289218 223.73001 
L 181.044228 221.653071 
L 182.554249 222.724223 
L 183.30926 225.305433 
L 184.064271 225.554531 
L 184.819281 227.507233 
L 185.574292 219.432926 
L 186.329302 223.392624 
L 187.084313 220.953358 
L 187.839323 215.867185 
L 189.349345 226.077593 
L 190.104355 221.831935 
L 190.859366 221.426419 
L 191.614376 222.062976 
L 192.369387 219.15058 
L 193.124397 221.920762 
L 193.879408 223.582865 
L 194.634419 221.913572 
L 195.389429 220.548621 
L 196.14444 220.165691 
L 196.89945 216.997326 
L 197.654461 223.786516 
L 198.409471 223.20664 
L 199.164482 218.15 
L 199.919493 220.560889 
L 200.674503 220.857531 
L 201.429514 225.967045 
L 202.184524 226.100094 
L 202.939535 227.311158 
L 203.694545 224.85728 
L 204.449556 219.806575 
L 205.204567 223.512064 
L 205.959577 222.394174 
L 206.714588 228.120948 
L 207.469598 229.631875 
L 208.224609 221.711812 
L 208.979619 226.037016 
L 209.73463 224.949718 
L 210.489641 224.794287 
L 211.244651 225.244212 
L 211.999662 226.839323 
L 212.754672 224.057098 
L 213.509683 227.336582 
L 214.264693 226.136832 
L 215.019704 225.529361 
L 215.774715 231.344872 
L 216.529725 228.587445 
L 217.284736 220.030202 
L 218.039746 221.289077 
L 218.794757 224.414085 
L 219.549767 225.122182 
L 220.304778 224.19614 
L 221.059789 224.747326 
L 221.814799 223.333812 
L 222.56981 226.300524 
L 223.32482 222.78938 
L 224.079831 223.112301 
L 224.834841 221.982466 
L 225.589852 223.156826 
L 226.344863 224.768805 
L 227.099873 220.088408 
L 227.854884 222.52256 
L 228.609894 222.367396 
L 229.364905 230.545608 
L 230.119915 230.469583 
L 230.874926 227.102886 
L 231.629937 225.853209 
L 232.384947 227.556592 
L 233.894968 229.462031 
L 234.649979 227.5743 
L 235.404989 224.807088 
L 236.16 223.410457 
L 236.915011 222.764608 
L 237.670021 227.081978 
L 238.425032 230.330043 
L 239.180042 229.762914 
L 239.935053 221.3002 
L 240.690063 225.966828 
L 241.445074 224.417673 
L 242.200085 218.357114 
L 242.955095 227.528473 
L 243.710106 227.363068 
L 244.465116 227.485487 
L 245.220127 225.143763 
L 245.975137 228.204452 
L 246.730148 223.237882 
L 247.485159 224.736195 
L 248.240169 223.076118 
L 248.99518 224.843496 
L 249.75019 221.608261 
L 250.505201 223.477102 
L 251.260211 226.013377 
L 252.015222 220.805082 
L 252.770233 221.546694 
L 253.525243 223.851963 
L 254.280254 223.11091 
L 255.035264 228.573529 
L 255.790275 226.317002 
L 256.545285 220.742332 
L 257.300296 224.495381 
L 258.055307 219.520221 
L 259.565328 222.323433 
L 260.320338 220.3819 
L 261.075349 220.849208 
L 261.830359 219.159896 
L 262.58537 220.062386 
L 263.340381 218.963082 
L 264.095391 222.516665 
L 264.850402 220.380662 
L 265.605412 217.411722 
L 266.360423 218.304517 
L 267.115433 225.584022 
L 267.870444 220.507627 
L 268.625455 223.101587 
L 269.380465 222.506465 
L 270.135476 220.573481 
L 270.890486 223.456292 
L 271.645497 218.842426 
L 272.400507 219.857835 
L 273.155518 222.949918 
L 273.910529 221.729181 
L 274.665539 219.692908 
L 275.42055 220.037964 
L 277.685581 225.806409 
L 278.440592 220.390793 
L 279.195603 222.997797 
L 279.950613 222.063938 
L 280.705624 225.721479 
L 281.460634 220.1962 
L 282.215645 219.643897 
L 282.970655 217.46574 
L 283.725666 223.419573 
L 284.480677 222.6844 
L 285.235687 218.998039 
L 285.990698 219.505276 
L 286.745708 221.750456 
L 287.500719 217.694166 
L 288.255729 217.73242 
L 289.765751 221.41666 
L 290.520761 218.025506 
L 291.275772 224.700104 
L 292.030782 220.371083 
L 292.785793 218.391975 
L 293.540803 218.308237 
L 294.295814 229.600677 
L 295.050825 224.470244 
L 295.805835 220.223956 
L 297.315856 214.974147 
L 298.070867 219.078714 
L 298.825877 215.869944 
L 299.580888 215.068723 
L 300.335899 218.23744 
L 301.090909 220.083929 
L 301.84592 218.519877 
L 302.60093 218.16508 
L 303.355941 222.135844 
L 304.110951 218.542068 
L 304.865962 219.504078 
L 305.620973 223.745153 
L 306.375983 223.543727 
L 307.130994 220.446431 
L 307.886004 223.344798 
L 308.641015 218.878147 
L 310.151036 222.94865 
L 310.906047 220.380661 
L 311.661057 221.589425 
L 312.416068 221.252134 
L 313.171078 222.718595 
L 313.926089 225.95603 
L 314.681099 221.212476 
L 315.43611 228.238489 
L 316.191121 228.943244 
L 316.946131 228.836515 
L 317.701142 237.835864 
L 318.456152 225.084059 
L 319.211163 228.301519 
L 319.966173 230.615735 
L 320.721184 228.731231 
L 321.476195 223.698148 
L 322.231205 224.863359 
L 323.741226 226.578088 
L 325.251247 224.629533 
L 326.006258 224.168463 
L 326.761268 229.48492 
L 327.516279 221.691666 
L 328.27129 228.201507 
L 329.0263 221.316596 
L 329.781311 222.708766 
L 330.536321 218.500278 
L 331.291332 225.365852 
L 332.046342 224.266649 
L 332.801353 220.191166 
L 333.556364 222.561542 
L 334.311374 223.036367 
L 335.066385 221.455365 
L 335.821395 216.507692 
L 336.576406 221.43329 
L 337.331416 222.922567 
L 338.086427 222.302149 
L 338.841438 223.158766 
L 339.596448 214.269262 
L 340.351459 222.702754 
L 341.106469 220.859672 
L 341.86148 216.518753 
L 342.61649 223.817234 
L 343.371501 222.213093 
L 344.881522 222.979048 
L 345.636533 222.313478 
L 346.391543 218.60686 
L 347.146554 219.403593 
L 347.901564 223.567449 
L 348.656575 221.427605 
L 349.411586 227.482148 
L 350.166596 229.634956 
L 350.921607 220.714961 
L 351.676617 230.878124 
L 352.431628 223.059611 
L 353.186638 223.315739 
L 353.941649 228.18871 
L 354.69666 223.395846 
L 355.45167 224.717466 
L 356.206681 225.453213 
L 356.961691 227.156571 
L 357.716702 222.368962 
L 358.471712 224.647335 
L 359.226723 224.55381 
L 359.981734 222.98909 
L 360.736744 220.409929 
L 361.491755 220.992954 
L 362.246765 227.308008 
L 363.001776 228.114458 
L 363.756786 233.761925 
L 364.511797 234.024276 
L 365.266808 228.60186 
L 366.021818 227.403876 
L 366.776829 227.249623 
L 367.531839 230.624101 
L 368.28685 230.883891 
L 369.04186 229.25971 
L 369.796871 228.16595 
L 370.551882 229.741679 
L 371.306892 236.395237 
L 372.061903 227.70971 
L 372.816913 226.872007 
L 373.571924 223.07039 
L 374.326934 221.017926 
L 375.081945 223.794113 
L 375.836956 220.092421 
L 377.346977 223.516076 
L 378.101987 220.551819 
L 378.856998 223.311357 
L 379.612008 224.534291 
L 380.367019 225.338808 
L 381.12203 223.767341 
L 381.87704 227.313378 
L 382.632051 218.31681 
L 383.387061 222.087784 
L 384.142072 222.220002 
L 384.897082 227.067901 
L 385.652093 228.80647 
L 386.407104 227.251768 
L 387.162114 222.611502 
L 388.672135 226.788767 
L 389.427146 230.078353 
L 390.182156 223.478816 
L 390.937167 223.752905 
L 391.692178 227.342184 
L 392.447188 229.926747 
L 393.202199 223.813028 
L 393.957209 227.989586 
L 394.71222 225.572232 
L 395.46723 225.818621 
L 396.222241 226.764538 
L 396.977252 217.769226 
L 397.732262 214.432705 
L 398.487273 209.386334 
L 398.487273 209.386334 
" style="fill:none;stroke:#008000;stroke-dasharray:9.6,2.4,1.5,2.4;stroke-dashoffset:0;stroke-width:1.5;"/>
   </g>
   <g id="line2d_30">
    <path clip-path="url(#p61ad7dcd47)" d="M 73.832727 265.56889 
L 74.587738 198.691638 
L 75.342748 189.328822 
L 76.097759 200.029183 
L 76.85277 223.436221 
L 77.60778 210.395157 
L 78.362791 200.029183 
L 79.117801 211.06393 
L 79.872812 200.029183 
L 80.627822 177.625303 
L 81.382833 211.06393 
L 82.137844 210.395157 
L 82.892854 188.325664 
L 83.647865 251.859054 
L 85.157886 211.398316 
L 85.912896 233.133423 
L 86.667907 211.06393 
L 87.422918 211.398316 
L 88.177928 233.133423 
L 88.932939 210.395157 
L 89.687949 222.767449 
L 90.44296 233.133423 
L 91.19797 234.470968 
L 91.952981 244.16817 
L 92.707992 233.467809 
L 93.463002 233.133423 
L 94.218013 233.467809 
L 94.973023 200.363569 
L 95.728034 234.470968 
L 96.483044 211.732702 
L 97.238055 244.16817 
L 97.993066 211.398316 
L 99.503087 233.133423 
L 100.258097 222.767449 
L 101.013108 232.799037 
L 101.768118 200.029183 
L 102.523129 221.76429 
L 104.03315 200.029183 
L 104.788161 233.467809 
L 106.298182 210.060771 
L 107.053192 209.726384 
L 107.808203 210.729543 
L 108.563214 211.398316 
L 109.318224 222.767449 
L 110.073235 200.363569 
L 110.828245 221.429904 
L 111.583256 211.732702 
L 112.338266 222.767449 
L 113.093277 188.66005 
L 113.848288 211.06393 
L 114.603298 188.66005 
L 115.358309 177.95969 
L 116.113319 199.694797 
L 116.86833 188.994436 
L 117.62334 211.06393 
L 118.378351 177.290917 
L 119.133362 200.363569 
L 119.888372 167.593715 
L 120.643383 177.290917 
L 121.398393 189.328822 
L 122.153404 188.994436 
L 123.663425 210.395157 
L 124.418436 199.694797 
L 125.173446 177.290917 
L 125.928457 199.36041 
L 126.683467 200.029183 
L 128.193488 178.294076 
L 129.70351 199.694797 
L 130.45852 200.029183 
L 131.213531 166.590557 
L 132.723552 210.395157 
L 133.478562 188.994436 
L 134.233573 178.628462 
L 134.988584 198.691638 
L 135.743594 210.729543 
L 137.253615 188.66005 
L 138.008626 188.66005 
L 138.763636 211.06393 
L 139.518647 199.026024 
L 140.273658 178.962848 
L 141.028668 211.732702 
L 141.783679 200.029183 
L 142.538689 222.098676 
L 143.2937 188.994436 
L 144.04871 210.729543 
L 144.803721 200.363569 
L 145.558732 200.029183 
L 146.313742 199.36041 
L 147.068753 200.697955 
L 147.823763 210.729543 
L 148.578774 210.729543 
L 149.333784 222.433062 
L 150.088795 210.395157 
L 150.843805 222.098676 
L 151.598816 200.697955 
L 152.353827 211.398316 
L 153.108837 210.395157 
L 153.863848 178.294076 
L 154.618858 199.694797 
L 155.373869 211.398316 
L 156.128879 200.029183 
L 156.88389 210.729543 
L 157.638901 218.754814 
L 158.393911 211.398316 
L 159.148922 211.06393 
L 159.903932 211.06393 
L 160.658943 210.729543 
L 161.413953 213.73902 
L 162.168964 212.735861 
L 162.923975 209.391998 
L 163.678985 199.694797 
L 164.433996 217.751655 
L 165.944017 207.051294 
L 166.699027 189.997595 
L 167.454038 211.06393 
L 168.209049 213.404633 
L 168.964059 212.067088 
L 169.71907 210.060771 
L 170.47408 210.395157 
L 171.229091 208.723226 
L 171.984101 205.713749 
L 172.739112 187.656891 
L 173.494123 207.385681 
L 174.249133 211.398316 
L 175.004144 207.720067 
L 175.759154 198.691638 
L 176.514165 210.729543 
L 177.269175 166.924943 
L 178.779197 213.070247 
L 179.534207 213.404633 
L 180.289218 207.385681 
L 181.044228 211.06393 
L 181.799239 211.732702 
L 182.554249 200.697955 
L 183.30926 208.723226 
L 184.064271 187.991277 
L 184.819281 210.729543 
L 185.574292 177.290917 
L 186.329302 205.713749 
L 187.084313 210.060771 
L 188.594334 189.997595 
L 189.349345 209.391998 
L 190.104355 199.026024 
L 190.859366 212.067088 
L 191.614376 211.732702 
L 192.369387 200.029183 
L 193.124397 200.363569 
L 194.634419 211.06393 
L 195.389429 211.398316 
L 196.14444 204.041818 
L 196.89945 210.729543 
L 197.654461 210.395157 
L 198.409471 213.070247 
L 199.919493 199.36041 
L 200.674503 210.395157 
L 201.429514 210.395157 
L 202.184524 187.991277 
L 202.939535 188.994436 
L 203.694545 198.691638 
L 204.449556 199.36041 
L 205.204567 199.36041 
L 205.959577 189.663209 
L 206.714588 213.404633 
L 207.469598 211.06393 
L 208.224609 200.029183 
L 208.979619 210.060771 
L 209.73463 188.66005 
L 210.489641 211.398316 
L 211.244651 210.729543 
L 211.999662 204.041818 
L 212.754672 188.325664 
L 213.509683 212.067088 
L 214.264693 178.628462 
L 215.019704 188.325664 
L 215.774715 205.713749 
L 216.529725 210.060771 
L 217.284736 199.694797 
L 218.039746 210.395157 
L 218.794757 199.694797 
L 219.549767 211.398316 
L 220.304778 208.054453 
L 221.059789 205.379363 
L 221.814799 200.363569 
L 222.56981 200.029183 
L 223.32482 210.060771 
L 224.079831 205.713749 
L 224.834841 210.060771 
L 225.589852 205.713749 
L 226.344863 211.732702 
L 227.099873 210.060771 
L 227.854884 211.732702 
L 228.609894 188.994436 
L 229.364905 217.417269 
L 230.119915 209.726384 
L 230.874926 188.325664 
L 231.629937 198.022865 
L 232.384947 199.694797 
L 233.139958 211.398316 
L 233.894968 208.054453 
L 234.649979 200.029183 
L 235.404989 211.732702 
L 236.16 210.729543 
L 236.915011 201.032342 
L 237.670021 210.395157 
L 238.425032 210.729543 
L 239.180042 199.36041 
L 239.935053 211.732702 
L 240.690063 213.070247 
L 241.445074 208.054453 
L 242.200085 200.697955 
L 242.955095 208.054453 
L 243.710106 213.73902 
L 244.465116 212.401475 
L 245.220127 208.723226 
L 245.975137 208.723226 
L 246.730148 206.382522 
L 247.485159 205.713749 
L 248.240169 188.325664 
L 248.99518 211.06393 
L 249.75019 208.723226 
L 250.505201 210.395157 
L 251.260211 210.060771 
L 252.015222 209.057612 
L 252.770233 200.029183 
L 253.525243 210.395157 
L 254.280254 166.590557 
L 255.790275 210.729543 
L 256.545285 200.029183 
L 257.300296 202.704273 
L 258.055307 201.032342 
L 258.810317 200.363569 
L 259.565328 177.625303 
L 260.320338 210.060771 
L 261.075349 188.66005 
L 261.830359 211.398316 
L 262.58537 210.729543 
L 263.340381 212.735861 
L 264.095391 206.048136 
L 264.850402 200.363569 
L 265.605412 200.697955 
L 266.360423 209.057612 
L 267.115433 199.694797 
L 267.870444 203.707432 
L 268.625455 209.057612 
L 269.380465 189.328822 
L 270.135476 189.328822 
L 270.890486 208.723226 
L 271.645497 178.294076 
L 272.400507 210.395157 
L 273.155518 206.382522 
L 273.910529 200.363569 
L 274.665539 210.395157 
L 275.42055 200.029183 
L 276.17556 211.398316 
L 276.930571 210.729543 
L 277.685581 211.398316 
L 278.440592 210.060771 
L 279.195603 188.325664 
L 279.950613 187.991277 
L 280.705624 177.625303 
L 281.460634 200.029183 
L 282.215645 177.290917 
L 282.970655 205.713749 
L 283.725666 206.048136 
L 284.480677 210.729543 
L 285.235687 211.732702 
L 285.990698 200.029183 
L 286.745708 209.057612 
L 287.500719 213.070247 
L 288.255729 199.026024 
L 289.01074 211.398316 
L 289.765751 208.388839 
L 290.520761 200.363569 
L 291.275772 208.054453 
L 292.030782 176.956531 
L 292.785793 199.36041 
L 293.540803 211.06393 
L 294.295814 210.729543 
L 295.050825 200.363569 
L 295.805835 211.06393 
L 296.560846 206.048136 
L 297.315856 206.048136 
L 298.070867 211.398316 
L 298.825877 210.395157 
L 299.580888 188.66005 
L 300.335899 203.373046 
L 302.60093 211.06393 
L 303.355941 211.06393 
L 304.110951 210.395157 
L 304.865962 199.694797 
L 305.620973 200.363569 
L 306.375983 209.726384 
L 307.130994 206.382522 
L 307.886004 211.398316 
L 308.641015 207.720067 
L 309.396025 209.726384 
L 310.151036 211.398316 
L 310.906047 205.044977 
L 311.661057 211.732702 
L 312.416068 210.395157 
L 313.171078 187.991277 
L 313.926089 210.395157 
L 314.681099 200.363569 
L 315.43611 211.398316 
L 316.191121 211.398316 
L 316.946131 188.325664 
L 317.701142 215.745337 
L 318.456152 210.395157 
L 319.211163 211.398316 
L 319.966173 207.385681 
L 320.721184 213.070247 
L 321.476195 213.73902 
L 322.231205 209.057612 
L 322.986216 199.36041 
L 323.741226 212.401475 
L 324.496237 210.060771 
L 325.251247 209.057612 
L 326.006258 187.991277 
L 326.761268 208.054453 
L 327.516279 202.0355 
L 328.27129 213.73902 
L 329.0263 204.041818 
L 329.781311 211.398316 
L 330.536321 177.625303 
L 331.291332 200.029183 
L 332.046342 208.054453 
L 332.801353 212.735861 
L 333.556364 204.710591 
L 334.311374 212.067088 
L 335.066385 211.732702 
L 335.821395 188.66005 
L 336.576406 199.694797 
L 337.331416 208.723226 
L 338.086427 202.704273 
L 338.841438 210.729543 
L 339.596448 177.625303 
L 340.351459 210.060771 
L 341.106469 210.060771 
L 341.86148 205.379363 
L 342.61649 211.398316 
L 343.371501 211.398316 
L 344.126512 199.36041 
L 344.881522 200.029183 
L 345.636533 209.391998 
L 346.391543 210.395157 
L 347.146554 212.735861 
L 347.901564 210.395157 
L 348.656575 207.051294 
L 349.411586 213.070247 
L 350.166596 213.070247 
L 350.921607 199.36041 
L 351.676617 213.070247 
L 352.431628 188.66005 
L 353.186638 200.029183 
L 353.941649 215.076565 
L 354.69666 211.06393 
L 355.45167 189.328822 
L 356.206681 216.079723 
L 356.961691 210.060771 
L 357.716702 211.732702 
L 358.471712 213.73902 
L 359.226723 213.73902 
L 359.981734 209.391998 
L 360.736744 200.029183 
L 361.491755 199.026024 
L 362.246765 211.732702 
L 363.001776 210.395157 
L 363.756786 177.95969 
L 364.511797 208.723226 
L 365.266808 211.398316 
L 366.021818 209.391998 
L 367.531839 187.656891 
L 369.04186 210.395157 
L 369.796871 205.713749 
L 370.551882 188.994436 
L 371.306892 212.067088 
L 372.061903 210.060771 
L 372.816913 210.395157 
L 373.571924 200.029183 
L 374.326934 209.057612 
L 375.081945 209.391998 
L 375.836956 200.363569 
L 376.591966 199.694797 
L 377.346977 206.048136 
L 378.101987 211.06393 
L 378.856998 204.376204 
L 379.612008 211.732702 
L 380.367019 200.363569 
L 381.12203 211.732702 
L 381.87704 212.401475 
L 382.632051 205.044977 
L 383.387061 211.06393 
L 384.142072 209.726384 
L 384.897082 210.395157 
L 385.652093 208.054453 
L 386.407104 211.732702 
L 387.162114 211.732702 
L 387.917125 208.054453 
L 388.672135 208.388839 
L 389.427146 210.729543 
L 390.182156 210.395157 
L 390.937167 208.054453 
L 391.692178 209.057612 
L 392.447188 206.716908 
L 393.202199 210.395157 
L 393.957209 209.726384 
L 394.71222 188.994436 
L 395.46723 199.694797 
L 396.222241 183.30987 
L 396.977252 183.30987 
L 397.732262 169.600033 
L 398.487273 53.568 
L 398.487273 53.568 
" style="fill:none;stroke:#ff0000;stroke-linecap:square;stroke-width:1.5;"/>
   </g>
   <g id="patch_3">
    <path d="M 57.6 307.584 
L 57.6 41.472 
" style="fill:none;stroke:#000000;stroke-linecap:square;stroke-linejoin:miter;stroke-width:0.8;"/>
   </g>
   <g id="patch_4">
    <path d="M 414.72 307.584 
L 414.72 41.472 
" style="fill:none;stroke:#000000;stroke-linecap:square;stroke-linejoin:miter;stroke-width:0.8;"/>
   </g>
   <g id="patch_5">
    <path d="M 57.6 307.584 
L 414.72 307.584 
" style="fill:none;stroke:#000000;stroke-linecap:square;stroke-linejoin:miter;stroke-width:0.8;"/>
   </g>
   <g id="patch_6">
    <path d="M 57.6 41.472 
L 414.72 41.472 
" style="fill:none;stroke:#000000;stroke-linecap:square;stroke-linejoin:miter;stroke-width:0.8;"/>
   </g>
   <g id="text_16">
    <!-- Population's average and best fitness -->
    <g transform="translate(123.529687 35.472)scale(0.12 -0.12)">
     <defs>
      <path d="M 19.671875 64.796875 
L 19.671875 37.40625 
L 32.078125 37.40625 
Q 38.96875 37.40625 42.71875 40.96875 
Q 46.484375 44.53125 46.484375 51.125 
Q 46.484375 57.671875 42.71875 61.234375 
Q 38.96875 64.796875 32.078125 64.796875 
z
M 9.8125 72.90625 
L 32.078125 72.90625 
Q 44.34375 72.90625 50.609375 67.359375 
Q 56.890625 61.8125 56.890625 51.125 
Q 56.890625 40.328125 50.609375 34.8125 
Q 44.34375 29.296875 32.078125 29.296875 
L 19.671875 29.296875 
L 19.671875 0 
L 9.8125 0 
z
" id="DejaVuSans-80"/>
      <path d="M 18.109375 8.203125 
L 18.109375 -20.796875 
L 9.078125 -20.796875 
L 9.078125 54.6875 
L 18.109375 54.6875 
L 18.109375 46.390625 
Q 20.953125 51.265625 25.265625 53.625 
Q 29.59375 56 35.59375 56 
Q 45.5625 56 51.78125 48.09375 
Q 58.015625 40.1875 58.015625 27.296875 
Q 58.015625 14.40625 51.78125 6.484375 
Q 45.5625 -1.421875 35.59375 -1.421875 
Q 29.59375 -1.421875 25.265625 0.953125 
Q 20.953125 3.328125 18.109375 8.203125 
z
M 48.6875 27.296875 
Q 48.6875 37.203125 44.609375 42.84375 
Q 40.53125 48.484375 33.40625 48.484375 
Q 26.265625 48.484375 22.1875 42.84375 
Q 18.109375 37.203125 18.109375 27.296875 
Q 18.109375 17.390625 22.1875 11.75 
Q 26.265625 6.109375 33.40625 6.109375 
Q 40.53125 6.109375 44.609375 11.75 
Q 48.6875 17.390625 48.6875 27.296875 
z
" id="DejaVuSans-112"/>
      <path d="M 8.5 21.578125 
L 8.5 54.6875 
L 17.484375 54.6875 
L 17.484375 21.921875 
Q 17.484375 14.15625 20.5 10.265625 
Q 23.53125 6.390625 29.59375 6.390625 
Q 36.859375 6.390625 41.078125 11.03125 
Q 45.3125 15.671875 45.3125 23.6875 
L 45.3125 54.6875 
L 54.296875 54.6875 
L 54.296875 0 
L 45.3125 0 
L 45.3125 8.40625 
Q 42.046875 3.421875 37.71875 1 
Q 33.40625 -1.421875 27.6875 -1.421875 
Q 18.265625 -1.421875 13.375 4.4375 
Q 8.5 10.296875 8.5 21.578125 
z
M 31.109375 56 
z
" id="DejaVuSans-117"/>
      <path d="M 9.421875 75.984375 
L 18.40625 75.984375 
L 18.40625 0 
L 9.421875 0 
z
" id="DejaVuSans-108"/>
      <path d="M 17.921875 72.90625 
L 17.921875 45.796875 
L 9.625 45.796875 
L 9.625 72.90625 
z
" id="DejaVuSans-39"/>
      <path id="DejaVuSans-32"/>
      <path d="M 2.984375 54.6875 
L 12.5 54.6875 
L 29.59375 8.796875 
L 46.6875 54.6875 
L 56.203125 54.6875 
L 35.6875 0 
L 23.484375 0 
z
" id="DejaVuSans-118"/>
      <path d="M 45.40625 27.984375 
Q 45.40625 37.75 41.375 43.109375 
Q 37.359375 48.484375 30.078125 48.484375 
Q 22.859375 48.484375 18.828125 43.109375 
Q 14.796875 37.75 14.796875 27.984375 
Q 14.796875 18.265625 18.828125 12.890625 
Q 22.859375 7.515625 30.078125 7.515625 
Q 37.359375 7.515625 41.375 12.890625 
Q 45.40625 18.265625 45.40625 27.984375 
z
M 54.390625 6.78125 
Q 54.390625 -7.171875 48.1875 -13.984375 
Q 42 -20.796875 29.203125 -20.796875 
Q 24.46875 -20.796875 20.265625 -20.09375 
Q 16.0625 -19.390625 12.109375 -17.921875 
L 12.109375 -9.1875 
Q 16.0625 -11.328125 19.921875 -12.34375 
Q 23.78125 -13.375 27.78125 -13.375 
Q 36.625 -13.375 41.015625 -8.765625 
Q 45.40625 -4.15625 45.40625 5.171875 
L 45.40625 9.625 
Q 42.625 4.78125 38.28125 2.390625 
Q 33.9375 0 27.875 0 
Q 17.828125 0 11.671875 7.65625 
Q 5.515625 15.328125 5.515625 27.984375 
Q 5.515625 40.671875 11.671875 48.328125 
Q 17.828125 56 27.875 56 
Q 33.9375 56 38.28125 53.609375 
Q 42.625 51.21875 45.40625 46.390625 
L 45.40625 54.6875 
L 54.390625 54.6875 
z
" id="DejaVuSans-103"/>
      <path d="M 45.40625 46.390625 
L 45.40625 75.984375 
L 54.390625 75.984375 
L 54.390625 0 
L 45.40625 0 
L 45.40625 8.203125 
Q 42.578125 3.328125 38.25 0.953125 
Q 33.9375 -1.421875 27.875 -1.421875 
Q 17.96875 -1.421875 11.734375 6.484375 
Q 5.515625 14.40625 5.515625 27.296875 
Q 5.515625 40.1875 11.734375 48.09375 
Q 17.96875 56 27.875 56 
Q 33.9375 56 38.25 53.625 
Q 42.578125 51.265625 45.40625 46.390625 
z
M 14.796875 27.296875 
Q 14.796875 17.390625 18.875 11.75 
Q 22.953125 6.109375 30.078125 6.109375 
Q 37.203125 6.109375 41.296875 11.75 
Q 45.40625 17.390625 45.40625 27.296875 
Q 45.40625 37.203125 41.296875 42.84375 
Q 37.203125 48.484375 30.078125 48.484375 
Q 22.953125 48.484375 18.875 42.84375 
Q 14.796875 37.203125 14.796875 27.296875 
z
" id="DejaVuSans-100"/>
      <path d="M 48.6875 27.296875 
Q 48.6875 37.203125 44.609375 42.84375 
Q 40.53125 48.484375 33.40625 48.484375 
Q 26.265625 48.484375 22.1875 42.84375 
Q 18.109375 37.203125 18.109375 27.296875 
Q 18.109375 17.390625 22.1875 11.75 
Q 26.265625 6.109375 33.40625 6.109375 
Q 40.53125 6.109375 44.609375 11.75 
Q 48.6875 17.390625 48.6875 27.296875 
z
M 18.109375 46.390625 
Q 20.953125 51.265625 25.265625 53.625 
Q 29.59375 56 35.59375 56 
Q 45.5625 56 51.78125 48.09375 
Q 58.015625 40.1875 58.015625 27.296875 
Q 58.015625 14.40625 51.78125 6.484375 
Q 45.5625 -1.421875 35.59375 -1.421875 
Q 29.59375 -1.421875 25.265625 0.953125 
Q 20.953125 3.328125 18.109375 8.203125 
L 18.109375 0 
L 9.078125 0 
L 9.078125 75.984375 
L 18.109375 75.984375 
z
" id="DejaVuSans-98"/>
      <path d="M 37.109375 75.984375 
L 37.109375 68.5 
L 28.515625 68.5 
Q 23.6875 68.5 21.796875 66.546875 
Q 19.921875 64.59375 19.921875 59.515625 
L 19.921875 54.6875 
L 34.71875 54.6875 
L 34.71875 47.703125 
L 19.921875 47.703125 
L 19.921875 0 
L 10.890625 0 
L 10.890625 47.703125 
L 2.296875 47.703125 
L 2.296875 54.6875 
L 10.890625 54.6875 
L 10.890625 58.5 
Q 10.890625 67.625 15.140625 71.796875 
Q 19.390625 75.984375 28.609375 75.984375 
z
" id="DejaVuSans-102"/>
     </defs>
     <use xlink:href="#DejaVuSans-80"/>
     <use x="56.677734" xlink:href="#DejaVuSans-111"/>
     <use x="117.859375" xlink:href="#DejaVuSans-112"/>
     <use x="181.335938" xlink:href="#DejaVuSans-117"/>
     <use x="244.714844" xlink:href="#DejaVuSans-108"/>
     <use x="272.498047" xlink:href="#DejaVuSans-97"/>
     <use x="333.777344" xlink:href="#DejaVuSans-116"/>
     <use x="372.986328" xlink:href="#DejaVuSans-105"/>
     <use x="400.769531" xlink:href="#DejaVuSans-111"/>
     <use x="461.951172" xlink:href="#DejaVuSans-110"/>
     <use x="525.330078" xlink:href="#DejaVuSans-39"/>
     <use x="552.820312" xlink:href="#DejaVuSans-115"/>
     <use x="604.919922" xlink:href="#DejaVuSans-32"/>
     <use x="636.707031" xlink:href="#DejaVuSans-97"/>
     <use x="697.986328" xlink:href="#DejaVuSans-118"/>
     <use x="757.166016" xlink:href="#DejaVuSans-101"/>
     <use x="818.689453" xlink:href="#DejaVuSans-114"/>
     <use x="859.802734" xlink:href="#DejaVuSans-97"/>
     <use x="921.082031" xlink:href="#DejaVuSans-103"/>
     <use x="984.558594" xlink:href="#DejaVuSans-101"/>
     <use x="1046.082031" xlink:href="#DejaVuSans-32"/>
     <use x="1077.869141" xlink:href="#DejaVuSans-97"/>
     <use x="1139.148438" xlink:href="#DejaVuSans-110"/>
     <use x="1202.527344" xlink:href="#DejaVuSans-100"/>
     <use x="1266.003906" xlink:href="#DejaVuSans-32"/>
     <use x="1297.791016" xlink:href="#DejaVuSans-98"/>
     <use x="1361.267578" xlink:href="#DejaVuSans-101"/>
     <use x="1422.791016" xlink:href="#DejaVuSans-115"/>
     <use x="1474.890625" xlink:href="#DejaVuSans-116"/>
     <use x="1514.099609" xlink:href="#DejaVuSans-32"/>
     <use x="1545.886719" xlink:href="#DejaVuSans-102"/>
     <use x="1581.091797" xlink:href="#DejaVuSans-105"/>
     <use x="1608.875" xlink:href="#DejaVuSans-116"/>
     <use x="1648.083984" xlink:href="#DejaVuSans-110"/>
     <use x="1711.462891" xlink:href="#DejaVuSans-101"/>
     <use x="1772.986328" xlink:href="#DejaVuSans-115"/>
     <use x="1825.085938" xlink:href="#DejaVuSans-115"/>
    </g>
   </g>
   <g id="legend_1">
    <g id="patch_7">
     <path d="M 64.6 108.1845 
L 137.540625 108.1845 
Q 139.540625 108.1845 139.540625 106.1845 
L 139.540625 48.472 
Q 139.540625 46.472 137.540625 46.472 
L 64.6 46.472 
Q 62.6 46.472 62.6 48.472 
L 62.6 106.1845 
Q 62.6 108.1845 64.6 108.1845 
z
" style="fill:#ffffff;opacity:0.8;stroke:#cccccc;stroke-linejoin:miter;"/>
    </g>
    <g id="line2d_31">
     <path d="M 66.6 54.570438 
L 86.6 54.570438 
" style="fill:none;stroke:#0000ff;stroke-linecap:square;stroke-width:1.5;"/>
    </g>
    <g id="line2d_32"/>
    <g id="text_17">
     <!-- average -->
     <g transform="translate(94.6 58.070438)scale(0.1 -0.1)">
      <use xlink:href="#DejaVuSans-97"/>
      <use x="61.279297" xlink:href="#DejaVuSans-118"/>
      <use x="120.458984" xlink:href="#DejaVuSans-101"/>
      <use x="181.982422" xlink:href="#DejaVuSans-114"/>
      <use x="223.095703" xlink:href="#DejaVuSans-97"/>
      <use x="284.375" xlink:href="#DejaVuSans-103"/>
      <use x="347.851562" xlink:href="#DejaVuSans-101"/>
     </g>
    </g>
    <g id="line2d_33">
     <path d="M 66.6 69.248563 
L 86.6 69.248563 
" style="fill:none;stroke:#008000;stroke-dasharray:9.6,2.4,1.5,2.4;stroke-dashoffset:0;stroke-width:1.5;"/>
    </g>
    <g id="line2d_34"/>
    <g id="text_18">
     <!-- -1 sd -->
     <g transform="translate(94.6 72.748563)scale(0.1 -0.1)">
      <defs>
       <path d="M 4.890625 31.390625 
L 31.203125 31.390625 
L 31.203125 23.390625 
L 4.890625 23.390625 
z
" id="DejaVuSans-45"/>
      </defs>
      <use xlink:href="#DejaVuSans-45"/>
      <use x="36.083984" xlink:href="#DejaVuSans-49"/>
      <use x="99.707031" xlink:href="#DejaVuSans-32"/>
      <use x="131.494141" xlink:href="#DejaVuSans-115"/>
      <use x="183.59375" xlink:href="#DejaVuSans-100"/>
     </g>
    </g>
    <g id="line2d_35">
     <path d="M 66.6 83.926688 
L 86.6 83.926688 
" style="fill:none;stroke:#008000;stroke-dasharray:9.6,2.4,1.5,2.4;stroke-dashoffset:0;stroke-width:1.5;"/>
    </g>
    <g id="line2d_36"/>
    <g id="text_19">
     <!-- +1 sd -->
     <g transform="translate(94.6 87.426688)scale(0.1 -0.1)">
      <defs>
       <path d="M 46 62.703125 
L 46 35.5 
L 73.1875 35.5 
L 73.1875 27.203125 
L 46 27.203125 
L 46 0 
L 37.796875 0 
L 37.796875 27.203125 
L 10.59375 27.203125 
L 10.59375 35.5 
L 37.796875 35.5 
L 37.796875 62.703125 
z
" id="DejaVuSans-43"/>
      </defs>
      <use xlink:href="#DejaVuSans-43"/>
      <use x="83.789062" xlink:href="#DejaVuSans-49"/>
      <use x="147.412109" xlink:href="#DejaVuSans-32"/>
      <use x="179.199219" xlink:href="#DejaVuSans-115"/>
      <use x="231.298828" xlink:href="#DejaVuSans-100"/>
     </g>
    </g>
    <g id="line2d_37">
     <path d="M 66.6 98.604813 
L 86.6 98.604813 
" style="fill:none;stroke:#ff0000;stroke-linecap:square;stroke-width:1.5;"/>
    </g>
    <g id="line2d_38"/>
    <g id="text_20">
     <!-- best -->
     <g transform="translate(94.6 102.104813)scale(0.1 -0.1)">
      <use xlink:href="#DejaVuSans-98"/>
      <use x="63.476562" xlink:href="#DejaVuSans-101"/>
      <use x="125" xlink:href="#DejaVuSans-115"/>
      <use x="177.099609" xlink:href="#DejaVuSans-116"/>
     </g>
    </g>
   </g>
  </g>
 </g>
 <defs>
  <clipPath id="p61ad7dcd47">
   <rect height="266.112" width="357.12" x="57.6" y="41.472"/>
  </clipPath>
 </defs>
</svg>
