<?xml version="1.0" encoding="utf-8" standalone="no"?>
<!DOCTYPE svg PUBLIC "-//W3C//DTD SVG 1.1//EN"
  "http://www.w3.org/Graphics/SVG/1.1/DTD/svg11.dtd">
<!-- Created with matplotlib (https://matplotlib.org/) -->
<svg height="345.6pt" version="1.1" viewBox="0 0 460.8 345.6" width="460.8pt" xmlns="http://www.w3.org/2000/svg" xmlns:xlink="http://www.w3.org/1999/xlink">
 <metadata>
  <rdf:RDF xmlns:cc="http://creativecommons.org/ns#" xmlns:dc="http://purl.org/dc/elements/1.1/" xmlns:rdf="http://www.w3.org/1999/02/22-rdf-syntax-ns#">
   <cc:Work>
    <dc:type rdf:resource="http://purl.org/dc/dcmitype/StillImage"/>
    <dc:date>2021-06-15T22:33:22.912371</dc:date>
    <dc:format>image/svg+xml</dc:format>
    <dc:creator>
     <cc:Agent>
      <dc:title>Matplotlib v3.3.0, https://matplotlib.org/</dc:title>
     </cc:Agent>
    </dc:creator>
   </cc:Work>
  </rdf:RDF>
 </metadata>
 <defs>
  <style type="text/css">*{stroke-linecap:butt;stroke-linejoin:round;}</style>
 </defs>
 <g id="figure_1">
  <g id="patch_1">
   <path d="M 0 345.6 
L 460.8 345.6 
L 460.8 0 
L 0 0 
z
" style="fill:#ffffff;"/>
  </g>
  <g id="axes_1">
   <g id="patch_2">
    <path d="M 57.6 307.584 
L 414.72 307.584 
L 414.72 41.472 
L 57.6 41.472 
z
" style="fill:#ffffff;"/>
   </g>
   <g id="matplotlib.axis_1">
    <g id="xtick_1">
     <g id="line2d_1">
      <path clip-path="url(#p72ed507dba)" d="M 73.832727 307.584 
L 73.832727 41.472 
" style="fill:none;stroke:#b0b0b0;stroke-linecap:square;stroke-width:0.8;"/>
     </g>
     <g id="line2d_2">
      <defs>
       <path d="M 0 0 
L 0 3.5 
" id="m8c347525f0" style="stroke:#000000;stroke-width:0.8;"/>
      </defs>
      <g>
       <use style="stroke:#000000;stroke-width:0.8;" x="73.832727" xlink:href="#m8c347525f0" y="307.584"/>
      </g>
     </g>
     <g id="text_1">
      <!-- 0 -->
      <g transform="translate(70.651477 322.182437)scale(0.1 -0.1)">
       <defs>
        <path d="M 31.78125 66.40625 
Q 24.171875 66.40625 20.328125 58.90625 
Q 16.5 51.421875 16.5 36.375 
Q 16.5 21.390625 20.328125 13.890625 
Q 24.171875 6.390625 31.78125 6.390625 
Q 39.453125 6.390625 43.28125 13.890625 
Q 47.125 21.390625 47.125 36.375 
Q 47.125 51.421875 43.28125 58.90625 
Q 39.453125 66.40625 31.78125 66.40625 
z
M 31.78125 74.21875 
Q 44.046875 74.21875 50.515625 64.515625 
Q 56.984375 54.828125 56.984375 36.375 
Q 56.984375 17.96875 50.515625 8.265625 
Q 44.046875 -1.421875 31.78125 -1.421875 
Q 19.53125 -1.421875 13.0625 8.265625 
Q 6.59375 17.96875 6.59375 36.375 
Q 6.59375 54.828125 13.0625 64.515625 
Q 19.53125 74.21875 31.78125 74.21875 
z
" id="DejaVuSans-48"/>
       </defs>
       <use xlink:href="#DejaVuSans-48"/>
      </g>
     </g>
    </g>
    <g id="xtick_2">
     <g id="line2d_3">
      <path clip-path="url(#p72ed507dba)" d="M 138.893758 307.584 
L 138.893758 41.472 
" style="fill:none;stroke:#b0b0b0;stroke-linecap:square;stroke-width:0.8;"/>
     </g>
     <g id="line2d_4">
      <g>
       <use style="stroke:#000000;stroke-width:0.8;" x="138.893758" xlink:href="#m8c347525f0" y="307.584"/>
      </g>
     </g>
     <g id="text_2">
      <!-- 100 -->
      <g transform="translate(129.350008 322.182437)scale(0.1 -0.1)">
       <defs>
        <path d="M 12.40625 8.296875 
L 28.515625 8.296875 
L 28.515625 63.921875 
L 10.984375 60.40625 
L 10.984375 69.390625 
L 28.421875 72.90625 
L 38.28125 72.90625 
L 38.28125 8.296875 
L 54.390625 8.296875 
L 54.390625 0 
L 12.40625 0 
z
" id="DejaVuSans-49"/>
       </defs>
       <use xlink:href="#DejaVuSans-49"/>
       <use x="63.623047" xlink:href="#DejaVuSans-48"/>
       <use x="127.246094" xlink:href="#DejaVuSans-48"/>
      </g>
     </g>
    </g>
    <g id="xtick_3">
     <g id="line2d_5">
      <path clip-path="url(#p72ed507dba)" d="M 203.95479 307.584 
L 203.95479 41.472 
" style="fill:none;stroke:#b0b0b0;stroke-linecap:square;stroke-width:0.8;"/>
     </g>
     <g id="line2d_6">
      <g>
       <use style="stroke:#000000;stroke-width:0.8;" x="203.95479" xlink:href="#m8c347525f0" y="307.584"/>
      </g>
     </g>
     <g id="text_3">
      <!-- 200 -->
      <g transform="translate(194.41104 322.182437)scale(0.1 -0.1)">
       <defs>
        <path d="M 19.1875 8.296875 
L 53.609375 8.296875 
L 53.609375 0 
L 7.328125 0 
L 7.328125 8.296875 
Q 12.9375 14.109375 22.625 23.890625 
Q 32.328125 33.6875 34.8125 36.53125 
Q 39.546875 41.84375 41.421875 45.53125 
Q 43.3125 49.21875 43.3125 52.78125 
Q 43.3125 58.59375 39.234375 62.25 
Q 35.15625 65.921875 28.609375 65.921875 
Q 23.96875 65.921875 18.8125 64.3125 
Q 13.671875 62.703125 7.8125 59.421875 
L 7.8125 69.390625 
Q 13.765625 71.78125 18.9375 73 
Q 24.125 74.21875 28.421875 74.21875 
Q 39.75 74.21875 46.484375 68.546875 
Q 53.21875 62.890625 53.21875 53.421875 
Q 53.21875 48.921875 51.53125 44.890625 
Q 49.859375 40.875 45.40625 35.40625 
Q 44.1875 33.984375 37.640625 27.21875 
Q 31.109375 20.453125 19.1875 8.296875 
z
" id="DejaVuSans-50"/>
       </defs>
       <use xlink:href="#DejaVuSans-50"/>
       <use x="63.623047" xlink:href="#DejaVuSans-48"/>
       <use x="127.246094" xlink:href="#DejaVuSans-48"/>
      </g>
     </g>
    </g>
    <g id="xtick_4">
     <g id="line2d_7">
      <path clip-path="url(#p72ed507dba)" d="M 269.015821 307.584 
L 269.015821 41.472 
" style="fill:none;stroke:#b0b0b0;stroke-linecap:square;stroke-width:0.8;"/>
     </g>
     <g id="line2d_8">
      <g>
       <use style="stroke:#000000;stroke-width:0.8;" x="269.015821" xlink:href="#m8c347525f0" y="307.584"/>
      </g>
     </g>
     <g id="text_4">
      <!-- 300 -->
      <g transform="translate(259.472071 322.182437)scale(0.1 -0.1)">
       <defs>
        <path d="M 40.578125 39.3125 
Q 47.65625 37.796875 51.625 33 
Q 55.609375 28.21875 55.609375 21.1875 
Q 55.609375 10.40625 48.1875 4.484375 
Q 40.765625 -1.421875 27.09375 -1.421875 
Q 22.515625 -1.421875 17.65625 -0.515625 
Q 12.796875 0.390625 7.625 2.203125 
L 7.625 11.71875 
Q 11.71875 9.328125 16.59375 8.109375 
Q 21.484375 6.890625 26.8125 6.890625 
Q 36.078125 6.890625 40.9375 10.546875 
Q 45.796875 14.203125 45.796875 21.1875 
Q 45.796875 27.640625 41.28125 31.265625 
Q 36.765625 34.90625 28.71875 34.90625 
L 20.21875 34.90625 
L 20.21875 43.015625 
L 29.109375 43.015625 
Q 36.375 43.015625 40.234375 45.921875 
Q 44.09375 48.828125 44.09375 54.296875 
Q 44.09375 59.90625 40.109375 62.90625 
Q 36.140625 65.921875 28.71875 65.921875 
Q 24.65625 65.921875 20.015625 65.03125 
Q 15.375 64.15625 9.8125 62.3125 
L 9.8125 71.09375 
Q 15.4375 72.65625 20.34375 73.4375 
Q 25.25 74.21875 29.59375 74.21875 
Q 40.828125 74.21875 47.359375 69.109375 
Q 53.90625 64.015625 53.90625 55.328125 
Q 53.90625 49.265625 50.4375 45.09375 
Q 46.96875 40.921875 40.578125 39.3125 
z
" id="DejaVuSans-51"/>
       </defs>
       <use xlink:href="#DejaVuSans-51"/>
       <use x="63.623047" xlink:href="#DejaVuSans-48"/>
       <use x="127.246094" xlink:href="#DejaVuSans-48"/>
      </g>
     </g>
    </g>
    <g id="xtick_5">
     <g id="line2d_9">
      <path clip-path="url(#p72ed507dba)" d="M 334.076852 307.584 
L 334.076852 41.472 
" style="fill:none;stroke:#b0b0b0;stroke-linecap:square;stroke-width:0.8;"/>
     </g>
     <g id="line2d_10">
      <g>
       <use style="stroke:#000000;stroke-width:0.8;" x="334.076852" xlink:href="#m8c347525f0" y="307.584"/>
      </g>
     </g>
     <g id="text_5">
      <!-- 400 -->
      <g transform="translate(324.533102 322.182437)scale(0.1 -0.1)">
       <defs>
        <path d="M 37.796875 64.3125 
L 12.890625 25.390625 
L 37.796875 25.390625 
z
M 35.203125 72.90625 
L 47.609375 72.90625 
L 47.609375 25.390625 
L 58.015625 25.390625 
L 58.015625 17.1875 
L 47.609375 17.1875 
L 47.609375 0 
L 37.796875 0 
L 37.796875 17.1875 
L 4.890625 17.1875 
L 4.890625 26.703125 
z
" id="DejaVuSans-52"/>
       </defs>
       <use xlink:href="#DejaVuSans-52"/>
       <use x="63.623047" xlink:href="#DejaVuSans-48"/>
       <use x="127.246094" xlink:href="#DejaVuSans-48"/>
      </g>
     </g>
    </g>
    <g id="xtick_6">
     <g id="line2d_11">
      <path clip-path="url(#p72ed507dba)" d="M 399.137883 307.584 
L 399.137883 41.472 
" style="fill:none;stroke:#b0b0b0;stroke-linecap:square;stroke-width:0.8;"/>
     </g>
     <g id="line2d_12">
      <g>
       <use style="stroke:#000000;stroke-width:0.8;" x="399.137883" xlink:href="#m8c347525f0" y="307.584"/>
      </g>
     </g>
     <g id="text_6">
      <!-- 500 -->
      <g transform="translate(389.594133 322.182437)scale(0.1 -0.1)">
       <defs>
        <path d="M 10.796875 72.90625 
L 49.515625 72.90625 
L 49.515625 64.59375 
L 19.828125 64.59375 
L 19.828125 46.734375 
Q 21.96875 47.46875 24.109375 47.828125 
Q 26.265625 48.1875 28.421875 48.1875 
Q 40.625 48.1875 47.75 41.5 
Q 54.890625 34.8125 54.890625 23.390625 
Q 54.890625 11.625 47.5625 5.09375 
Q 40.234375 -1.421875 26.90625 -1.421875 
Q 22.3125 -1.421875 17.546875 -0.640625 
Q 12.796875 0.140625 7.71875 1.703125 
L 7.71875 11.625 
Q 12.109375 9.234375 16.796875 8.0625 
Q 21.484375 6.890625 26.703125 6.890625 
Q 35.15625 6.890625 40.078125 11.328125 
Q 45.015625 15.765625 45.015625 23.390625 
Q 45.015625 31 40.078125 35.4375 
Q 35.15625 39.890625 26.703125 39.890625 
Q 22.75 39.890625 18.8125 39.015625 
Q 14.890625 38.140625 10.796875 36.28125 
z
" id="DejaVuSans-53"/>
       </defs>
       <use xlink:href="#DejaVuSans-53"/>
       <use x="63.623047" xlink:href="#DejaVuSans-48"/>
       <use x="127.246094" xlink:href="#DejaVuSans-48"/>
      </g>
     </g>
    </g>
    <g id="text_7">
     <!-- Generations -->
     <g transform="translate(205.662344 335.860562)scale(0.1 -0.1)">
      <defs>
       <path d="M 59.515625 10.40625 
L 59.515625 29.984375 
L 43.40625 29.984375 
L 43.40625 38.09375 
L 69.28125 38.09375 
L 69.28125 6.78125 
Q 63.578125 2.734375 56.6875 0.65625 
Q 49.8125 -1.421875 42 -1.421875 
Q 24.90625 -1.421875 15.25 8.5625 
Q 5.609375 18.5625 5.609375 36.375 
Q 5.609375 54.25 15.25 64.234375 
Q 24.90625 74.21875 42 74.21875 
Q 49.125 74.21875 55.546875 72.453125 
Q 61.96875 70.703125 67.390625 67.28125 
L 67.390625 56.78125 
Q 61.921875 61.421875 55.765625 63.765625 
Q 49.609375 66.109375 42.828125 66.109375 
Q 29.4375 66.109375 22.71875 58.640625 
Q 16.015625 51.171875 16.015625 36.375 
Q 16.015625 21.625 22.71875 14.15625 
Q 29.4375 6.6875 42.828125 6.6875 
Q 48.046875 6.6875 52.140625 7.59375 
Q 56.25 8.5 59.515625 10.40625 
z
" id="DejaVuSans-71"/>
       <path d="M 56.203125 29.59375 
L 56.203125 25.203125 
L 14.890625 25.203125 
Q 15.484375 15.921875 20.484375 11.0625 
Q 25.484375 6.203125 34.421875 6.203125 
Q 39.59375 6.203125 44.453125 7.46875 
Q 49.3125 8.734375 54.109375 11.28125 
L 54.109375 2.78125 
Q 49.265625 0.734375 44.1875 -0.34375 
Q 39.109375 -1.421875 33.890625 -1.421875 
Q 20.796875 -1.421875 13.15625 6.1875 
Q 5.515625 13.8125 5.515625 26.8125 
Q 5.515625 40.234375 12.765625 48.109375 
Q 20.015625 56 32.328125 56 
Q 43.359375 56 49.78125 48.890625 
Q 56.203125 41.796875 56.203125 29.59375 
z
M 47.21875 32.234375 
Q 47.125 39.59375 43.09375 43.984375 
Q 39.0625 48.390625 32.421875 48.390625 
Q 24.90625 48.390625 20.390625 44.140625 
Q 15.875 39.890625 15.1875 32.171875 
z
" id="DejaVuSans-101"/>
       <path d="M 54.890625 33.015625 
L 54.890625 0 
L 45.90625 0 
L 45.90625 32.71875 
Q 45.90625 40.484375 42.875 44.328125 
Q 39.84375 48.1875 33.796875 48.1875 
Q 26.515625 48.1875 22.3125 43.546875 
Q 18.109375 38.921875 18.109375 30.90625 
L 18.109375 0 
L 9.078125 0 
L 9.078125 54.6875 
L 18.109375 54.6875 
L 18.109375 46.1875 
Q 21.34375 51.125 25.703125 53.5625 
Q 30.078125 56 35.796875 56 
Q 45.21875 56 50.046875 50.171875 
Q 54.890625 44.34375 54.890625 33.015625 
z
" id="DejaVuSans-110"/>
       <path d="M 41.109375 46.296875 
Q 39.59375 47.171875 37.8125 47.578125 
Q 36.03125 48 33.890625 48 
Q 26.265625 48 22.1875 43.046875 
Q 18.109375 38.09375 18.109375 28.8125 
L 18.109375 0 
L 9.078125 0 
L 9.078125 54.6875 
L 18.109375 54.6875 
L 18.109375 46.1875 
Q 20.953125 51.171875 25.484375 53.578125 
Q 30.03125 56 36.53125 56 
Q 37.453125 56 38.578125 55.875 
Q 39.703125 55.765625 41.0625 55.515625 
z
" id="DejaVuSans-114"/>
       <path d="M 34.28125 27.484375 
Q 23.390625 27.484375 19.1875 25 
Q 14.984375 22.515625 14.984375 16.5 
Q 14.984375 11.71875 18.140625 8.90625 
Q 21.296875 6.109375 26.703125 6.109375 
Q 34.1875 6.109375 38.703125 11.40625 
Q 43.21875 16.703125 43.21875 25.484375 
L 43.21875 27.484375 
z
M 52.203125 31.203125 
L 52.203125 0 
L 43.21875 0 
L 43.21875 8.296875 
Q 40.140625 3.328125 35.546875 0.953125 
Q 30.953125 -1.421875 24.3125 -1.421875 
Q 15.921875 -1.421875 10.953125 3.296875 
Q 6 8.015625 6 15.921875 
Q 6 25.140625 12.171875 29.828125 
Q 18.359375 34.515625 30.609375 34.515625 
L 43.21875 34.515625 
L 43.21875 35.40625 
Q 43.21875 41.609375 39.140625 45 
Q 35.0625 48.390625 27.6875 48.390625 
Q 23 48.390625 18.546875 47.265625 
Q 14.109375 46.140625 10.015625 43.890625 
L 10.015625 52.203125 
Q 14.9375 54.109375 19.578125 55.046875 
Q 24.21875 56 28.609375 56 
Q 40.484375 56 46.34375 49.84375 
Q 52.203125 43.703125 52.203125 31.203125 
z
" id="DejaVuSans-97"/>
       <path d="M 18.3125 70.21875 
L 18.3125 54.6875 
L 36.8125 54.6875 
L 36.8125 47.703125 
L 18.3125 47.703125 
L 18.3125 18.015625 
Q 18.3125 11.328125 20.140625 9.421875 
Q 21.96875 7.515625 27.59375 7.515625 
L 36.8125 7.515625 
L 36.8125 0 
L 27.59375 0 
Q 17.1875 0 13.234375 3.875 
Q 9.28125 7.765625 9.28125 18.015625 
L 9.28125 47.703125 
L 2.6875 47.703125 
L 2.6875 54.6875 
L 9.28125 54.6875 
L 9.28125 70.21875 
z
" id="DejaVuSans-116"/>
       <path d="M 9.421875 54.6875 
L 18.40625 54.6875 
L 18.40625 0 
L 9.421875 0 
z
M 9.421875 75.984375 
L 18.40625 75.984375 
L 18.40625 64.59375 
L 9.421875 64.59375 
z
" id="DejaVuSans-105"/>
       <path d="M 30.609375 48.390625 
Q 23.390625 48.390625 19.1875 42.75 
Q 14.984375 37.109375 14.984375 27.296875 
Q 14.984375 17.484375 19.15625 11.84375 
Q 23.34375 6.203125 30.609375 6.203125 
Q 37.796875 6.203125 41.984375 11.859375 
Q 46.1875 17.53125 46.1875 27.296875 
Q 46.1875 37.015625 41.984375 42.703125 
Q 37.796875 48.390625 30.609375 48.390625 
z
M 30.609375 56 
Q 42.328125 56 49.015625 48.375 
Q 55.71875 40.765625 55.71875 27.296875 
Q 55.71875 13.875 49.015625 6.21875 
Q 42.328125 -1.421875 30.609375 -1.421875 
Q 18.84375 -1.421875 12.171875 6.21875 
Q 5.515625 13.875 5.515625 27.296875 
Q 5.515625 40.765625 12.171875 48.375 
Q 18.84375 56 30.609375 56 
z
" id="DejaVuSans-111"/>
       <path d="M 44.28125 53.078125 
L 44.28125 44.578125 
Q 40.484375 46.53125 36.375 47.5 
Q 32.28125 48.484375 27.875 48.484375 
Q 21.1875 48.484375 17.84375 46.4375 
Q 14.5 44.390625 14.5 40.28125 
Q 14.5 37.15625 16.890625 35.375 
Q 19.28125 33.59375 26.515625 31.984375 
L 29.59375 31.296875 
Q 39.15625 29.25 43.1875 25.515625 
Q 47.21875 21.78125 47.21875 15.09375 
Q 47.21875 7.46875 41.1875 3.015625 
Q 35.15625 -1.421875 24.609375 -1.421875 
Q 20.21875 -1.421875 15.453125 -0.5625 
Q 10.6875 0.296875 5.421875 2 
L 5.421875 11.28125 
Q 10.40625 8.6875 15.234375 7.390625 
Q 20.0625 6.109375 24.8125 6.109375 
Q 31.15625 6.109375 34.5625 8.28125 
Q 37.984375 10.453125 37.984375 14.40625 
Q 37.984375 18.0625 35.515625 20.015625 
Q 33.0625 21.96875 24.703125 23.78125 
L 21.578125 24.515625 
Q 13.234375 26.265625 9.515625 29.90625 
Q 5.8125 33.546875 5.8125 39.890625 
Q 5.8125 47.609375 11.28125 51.796875 
Q 16.75 56 26.8125 56 
Q 31.78125 56 36.171875 55.265625 
Q 40.578125 54.546875 44.28125 53.078125 
z
" id="DejaVuSans-115"/>
      </defs>
      <use xlink:href="#DejaVuSans-71"/>
      <use x="77.490234" xlink:href="#DejaVuSans-101"/>
      <use x="139.013672" xlink:href="#DejaVuSans-110"/>
      <use x="202.392578" xlink:href="#DejaVuSans-101"/>
      <use x="263.916016" xlink:href="#DejaVuSans-114"/>
      <use x="305.029297" xlink:href="#DejaVuSans-97"/>
      <use x="366.308594" xlink:href="#DejaVuSans-116"/>
      <use x="405.517578" xlink:href="#DejaVuSans-105"/>
      <use x="433.300781" xlink:href="#DejaVuSans-111"/>
      <use x="494.482422" xlink:href="#DejaVuSans-110"/>
      <use x="557.861328" xlink:href="#DejaVuSans-115"/>
     </g>
    </g>
   </g>
   <g id="matplotlib.axis_2">
    <g id="ytick_1">
     <g id="line2d_13">
      <path clip-path="url(#p72ed507dba)" d="M 57.6 278.773123 
L 414.72 278.773123 
" style="fill:none;stroke:#b0b0b0;stroke-linecap:square;stroke-width:0.8;"/>
     </g>
     <g id="line2d_14">
      <defs>
       <path d="M 0 0 
L -3.5 0 
" id="m1abcbbab2b" style="stroke:#000000;stroke-width:0.8;"/>
      </defs>
      <g>
       <use style="stroke:#000000;stroke-width:0.8;" x="57.6" xlink:href="#m1abcbbab2b" y="278.773123"/>
      </g>
     </g>
     <g id="text_8">
      <!-- 300 -->
      <g transform="translate(31.5125 282.572342)scale(0.1 -0.1)">
       <use xlink:href="#DejaVuSans-51"/>
       <use x="63.623047" xlink:href="#DejaVuSans-48"/>
       <use x="127.246094" xlink:href="#DejaVuSans-48"/>
      </g>
     </g>
    </g>
    <g id="ytick_2">
     <g id="line2d_15">
      <path clip-path="url(#p72ed507dba)" d="M 57.6 241.113403 
L 414.72 241.113403 
" style="fill:none;stroke:#b0b0b0;stroke-linecap:square;stroke-width:0.8;"/>
     </g>
     <g id="line2d_16">
      <g>
       <use style="stroke:#000000;stroke-width:0.8;" x="57.6" xlink:href="#m1abcbbab2b" y="241.113403"/>
      </g>
     </g>
     <g id="text_9">
      <!-- 350 -->
      <g transform="translate(31.5125 244.912622)scale(0.1 -0.1)">
       <use xlink:href="#DejaVuSans-51"/>
       <use x="63.623047" xlink:href="#DejaVuSans-53"/>
       <use x="127.246094" xlink:href="#DejaVuSans-48"/>
      </g>
     </g>
    </g>
    <g id="ytick_3">
     <g id="line2d_17">
      <path clip-path="url(#p72ed507dba)" d="M 57.6 203.453684 
L 414.72 203.453684 
" style="fill:none;stroke:#b0b0b0;stroke-linecap:square;stroke-width:0.8;"/>
     </g>
     <g id="line2d_18">
      <g>
       <use style="stroke:#000000;stroke-width:0.8;" x="57.6" xlink:href="#m1abcbbab2b" y="203.453684"/>
      </g>
     </g>
     <g id="text_10">
      <!-- 400 -->
      <g transform="translate(31.5125 207.252903)scale(0.1 -0.1)">
       <use xlink:href="#DejaVuSans-52"/>
       <use x="63.623047" xlink:href="#DejaVuSans-48"/>
       <use x="127.246094" xlink:href="#DejaVuSans-48"/>
      </g>
     </g>
    </g>
    <g id="ytick_4">
     <g id="line2d_19">
      <path clip-path="url(#p72ed507dba)" d="M 57.6 165.793964 
L 414.72 165.793964 
" style="fill:none;stroke:#b0b0b0;stroke-linecap:square;stroke-width:0.8;"/>
     </g>
     <g id="line2d_20">
      <g>
       <use style="stroke:#000000;stroke-width:0.8;" x="57.6" xlink:href="#m1abcbbab2b" y="165.793964"/>
      </g>
     </g>
     <g id="text_11">
      <!-- 450 -->
      <g transform="translate(31.5125 169.593183)scale(0.1 -0.1)">
       <use xlink:href="#DejaVuSans-52"/>
       <use x="63.623047" xlink:href="#DejaVuSans-53"/>
       <use x="127.246094" xlink:href="#DejaVuSans-48"/>
      </g>
     </g>
    </g>
    <g id="ytick_5">
     <g id="line2d_21">
      <path clip-path="url(#p72ed507dba)" d="M 57.6 128.134245 
L 414.72 128.134245 
" style="fill:none;stroke:#b0b0b0;stroke-linecap:square;stroke-width:0.8;"/>
     </g>
     <g id="line2d_22">
      <g>
       <use style="stroke:#000000;stroke-width:0.8;" x="57.6" xlink:href="#m1abcbbab2b" y="128.134245"/>
      </g>
     </g>
     <g id="text_12">
      <!-- 500 -->
      <g transform="translate(31.5125 131.933464)scale(0.1 -0.1)">
       <use xlink:href="#DejaVuSans-53"/>
       <use x="63.623047" xlink:href="#DejaVuSans-48"/>
       <use x="127.246094" xlink:href="#DejaVuSans-48"/>
      </g>
     </g>
    </g>
    <g id="ytick_6">
     <g id="line2d_23">
      <path clip-path="url(#p72ed507dba)" d="M 57.6 90.474525 
L 414.72 90.474525 
" style="fill:none;stroke:#b0b0b0;stroke-linecap:square;stroke-width:0.8;"/>
     </g>
     <g id="line2d_24">
      <g>
       <use style="stroke:#000000;stroke-width:0.8;" x="57.6" xlink:href="#m1abcbbab2b" y="90.474525"/>
      </g>
     </g>
     <g id="text_13">
      <!-- 550 -->
      <g transform="translate(31.5125 94.273744)scale(0.1 -0.1)">
       <use xlink:href="#DejaVuSans-53"/>
       <use x="63.623047" xlink:href="#DejaVuSans-53"/>
       <use x="127.246094" xlink:href="#DejaVuSans-48"/>
      </g>
     </g>
    </g>
    <g id="ytick_7">
     <g id="line2d_25">
      <path clip-path="url(#p72ed507dba)" d="M 57.6 52.814806 
L 414.72 52.814806 
" style="fill:none;stroke:#b0b0b0;stroke-linecap:square;stroke-width:0.8;"/>
     </g>
     <g id="line2d_26">
      <g>
       <use style="stroke:#000000;stroke-width:0.8;" x="57.6" xlink:href="#m1abcbbab2b" y="52.814806"/>
      </g>
     </g>
     <g id="text_14">
      <!-- 600 -->
      <g transform="translate(31.5125 56.614024)scale(0.1 -0.1)">
       <defs>
        <path d="M 33.015625 40.375 
Q 26.375 40.375 22.484375 35.828125 
Q 18.609375 31.296875 18.609375 23.390625 
Q 18.609375 15.53125 22.484375 10.953125 
Q 26.375 6.390625 33.015625 6.390625 
Q 39.65625 6.390625 43.53125 10.953125 
Q 47.40625 15.53125 47.40625 23.390625 
Q 47.40625 31.296875 43.53125 35.828125 
Q 39.65625 40.375 33.015625 40.375 
z
M 52.59375 71.296875 
L 52.59375 62.3125 
Q 48.875 64.0625 45.09375 64.984375 
Q 41.3125 65.921875 37.59375 65.921875 
Q 27.828125 65.921875 22.671875 59.328125 
Q 17.53125 52.734375 16.796875 39.40625 
Q 19.671875 43.65625 24.015625 45.921875 
Q 28.375 48.1875 33.59375 48.1875 
Q 44.578125 48.1875 50.953125 41.515625 
Q 57.328125 34.859375 57.328125 23.390625 
Q 57.328125 12.15625 50.6875 5.359375 
Q 44.046875 -1.421875 33.015625 -1.421875 
Q 20.359375 -1.421875 13.671875 8.265625 
Q 6.984375 17.96875 6.984375 36.375 
Q 6.984375 53.65625 15.1875 63.9375 
Q 23.390625 74.21875 37.203125 74.21875 
Q 40.921875 74.21875 44.703125 73.484375 
Q 48.484375 72.75 52.59375 71.296875 
z
" id="DejaVuSans-54"/>
       </defs>
       <use xlink:href="#DejaVuSans-54"/>
       <use x="63.623047" xlink:href="#DejaVuSans-48"/>
       <use x="127.246094" xlink:href="#DejaVuSans-48"/>
      </g>
     </g>
    </g>
    <g id="text_15">
     <!-- Fitness -->
     <g transform="translate(25.432812 191.845187)rotate(-90)scale(0.1 -0.1)">
      <defs>
       <path d="M 9.8125 72.90625 
L 51.703125 72.90625 
L 51.703125 64.59375 
L 19.671875 64.59375 
L 19.671875 43.109375 
L 48.578125 43.109375 
L 48.578125 34.8125 
L 19.671875 34.8125 
L 19.671875 0 
L 9.8125 0 
z
" id="DejaVuSans-70"/>
      </defs>
      <use xlink:href="#DejaVuSans-70"/>
      <use x="50.269531" xlink:href="#DejaVuSans-105"/>
      <use x="78.052734" xlink:href="#DejaVuSans-116"/>
      <use x="117.261719" xlink:href="#DejaVuSans-110"/>
      <use x="180.640625" xlink:href="#DejaVuSans-101"/>
      <use x="242.164062" xlink:href="#DejaVuSans-115"/>
      <use x="294.263672" xlink:href="#DejaVuSans-115"/>
     </g>
    </g>
   </g>
   <g id="line2d_27">
    <path clip-path="url(#p72ed507dba)" d="M 73.832727 253.480855 
L 74.483338 254.090943 
L 75.133948 253.961393 
L 75.784558 253.25171 
L 76.435169 252.262781 
L 77.085779 254.229168 
L 77.736389 252.995643 
L 78.386999 253.331057 
L 79.03761 253.473593 
L 79.68822 252.084433 
L 80.33883 252.476094 
L 80.989441 251.897641 
L 82.290661 252.076901 
L 82.941272 252.495677 
L 83.591882 251.665657 
L 84.242492 253.1184 
L 84.893103 252.555682 
L 85.543713 251.600817 
L 86.194323 252.533184 
L 86.844934 251.393541 
L 87.495544 251.896297 
L 88.146154 251.767284 
L 88.796764 251.188634 
L 89.447375 251.658125 
L 90.748595 250.826024 
L 91.399206 251.243868 
L 92.049816 251.399887 
L 92.700426 250.769742 
L 93.351037 248.592676 
L 94.001647 248.508899 
L 94.652257 249.580956 
L 95.953478 246.96057 
L 96.604088 243.467136 
L 97.254698 240.600984 
L 97.905309 240.583378 
L 98.555919 241.951068 
L 99.206529 236.016544 
L 99.85714 236.471119 
L 100.50775 238.607584 
L 101.15836 233.909584 
L 101.808971 230.707621 
L 102.459581 232.511501 
L 103.110191 231.93559 
L 103.760802 232.962498 
L 104.411412 231.292339 
L 105.062022 233.670948 
L 105.712633 235.401058 
L 106.363243 232.455397 
L 107.013853 236.422718 
L 107.664463 231.582884 
L 108.315074 219.516859 
L 108.965684 240.62093 
L 109.616294 219.880854 
L 110.266905 229.259733 
L 111.568125 223.387234 
L 112.218736 216.383521 
L 112.869346 220.822803 
L 113.519956 222.137292 
L 114.170567 216.830127 
L 114.821177 224.015891 
L 115.471787 221.331392 
L 116.122398 216.376137 
L 116.773008 225.397713 
L 117.423618 220.230023 
L 118.074228 218.806179 
L 118.724839 218.694342 
L 119.375449 220.716291 
L 120.026059 214.669569 
L 120.67667 213.161523 
L 121.32728 213.503884 
L 121.97789 214.71356 
L 122.628501 223.379099 
L 123.279111 215.339091 
L 123.929721 209.943328 
L 124.580332 215.263772 
L 125.230942 202.030146 
L 125.881552 210.851395 
L 126.532163 204.549917 
L 127.182773 200.955465 
L 127.833383 198.576564 
L 128.483993 207.317571 
L 129.134604 204.96753 
L 129.785214 205.541748 
L 130.435824 204.907349 
L 131.086435 198.97108 
L 131.737045 201.194101 
L 132.387655 190.516463 
L 133.038266 198.07692 
L 133.688876 190.750323 
L 134.339486 189.610995 
L 134.990097 198.756877 
L 135.640707 203.372457 
L 136.291317 204.389692 
L 136.941927 195.515606 
L 137.592538 192.385313 
L 138.243148 195.302778 
L 138.893758 200.796581 
L 139.544369 205.240021 
L 140.194979 201.474837 
L 140.845589 200.310809 
L 141.4962 195.831078 
L 142.14681 197.705621 
L 142.79742 198.123937 
L 143.448031 200.963393 
L 144.098641 200.06079 
L 144.749251 203.317392 
L 145.399862 219.221948 
L 146.050472 210.384521 
L 146.701082 214.583411 
L 148.002303 209.048842 
L 148.652913 209.632952 
L 149.303523 196.827095 
L 149.954134 198.219751 
L 150.604744 203.792621 
L 151.255354 205.366798 
L 151.905965 209.375859 
L 152.556575 204.25908 
L 153.207185 203.046344 
L 153.857796 198.828005 
L 154.508406 207.993968 
L 155.159016 202.360104 
L 155.809627 201.000209 
L 156.460237 205.332941 
L 157.110847 214.292151 
L 157.761457 210.448697 
L 158.412068 204.425305 
L 159.062678 197.154911 
L 159.713288 212.562409 
L 161.014509 199.912222 
L 161.665119 205.479777 
L 162.31573 200.357218 
L 162.96634 206.781573 
L 163.61695 204.52322 
L 164.918171 188.005815 
L 165.568781 202.730027 
L 166.219392 204.773638 
L 166.870002 207.786416 
L 167.520612 217.537688 
L 168.171222 198.461925 
L 168.821833 217.518284 
L 169.472443 210.842521 
L 170.123053 207.585067 
L 170.773664 218.375882 
L 171.424274 211.731365 
L 172.074884 213.777773 
L 172.725495 214.226646 
L 173.376105 221.063369 
L 174.026715 202.193388 
L 174.677326 199.747967 
L 175.327936 213.102104 
L 175.978546 215.497262 
L 176.629156 221.568009 
L 177.930377 207.517951 
L 178.580987 204.535003 
L 179.231598 206.126076 
L 179.882208 214.832827 
L 180.532818 206.466461 
L 181.183429 216.436965 
L 181.834039 224.36415 
L 182.484649 219.278374 
L 183.13526 228.674284 
L 183.78587 222.641121 
L 184.43648 214.90376 
L 185.087091 220.244593 
L 185.737701 210.049841 
L 186.388311 203.43086 
L 187.038921 213.656044 
L 187.689532 200.851062 
L 188.340142 199.384957 
L 188.990752 205.370228 
L 189.641363 219.352797 
L 190.291973 202.241041 
L 190.942583 206.082332 
L 191.593194 197.592191 
L 192.894414 207.544563 
L 193.545025 201.470023 
L 194.195635 209.195859 
L 194.846245 196.012123 
L 195.496856 204.177049 
L 196.147466 205.922073 
L 196.798076 195.145722 
L 197.448686 193.330751 
L 198.099297 198.075876 
L 198.749907 186.755364 
L 199.400517 191.210583 
L 200.051128 190.024228 
L 200.701738 196.682542 
L 201.352348 197.104255 
L 202.002959 208.191277 
L 202.653569 190.695493 
L 203.304179 201.013334 
L 203.95479 203.913132 
L 204.6054 203.830281 
L 205.25601 207.120752 
L 205.906621 204.470496 
L 206.557231 190.122143 
L 207.858451 208.026106 
L 208.509062 189.987481 
L 209.159672 193.4187 
L 209.810282 202.466999 
L 210.460893 195.025439 
L 211.111503 196.494168 
L 211.762113 188.869102 
L 212.412724 194.643592 
L 213.063334 193.251324 
L 213.713944 200.644269 
L 214.364555 179.938955 
L 215.015165 181.178519 
L 215.665775 194.012653 
L 216.316385 193.684529 
L 216.966996 190.634464 
L 217.617606 204.372581 
L 218.268216 212.875998 
L 218.918827 202.98387 
L 220.220047 197.232298 
L 220.870658 202.936786 
L 221.521268 201.548545 
L 222.171878 202.476768 
L 222.822489 211.657595 
L 223.473099 193.82786 
L 224.123709 195.266461 
L 224.77432 195.756037 
L 225.42493 199.583309 
L 226.07554 196.73519 
L 226.72615 205.213623 
L 227.376761 189.519588 
L 228.027371 200.933093 
L 228.677981 188.279032 
L 229.328592 201.277789 
L 229.979202 193.761061 
L 230.629812 204.002126 
L 231.280423 205.086848 
L 231.931033 198.006339 
L 232.581643 206.541035 
L 233.232254 197.539989 
L 233.882864 183.579792 
L 234.533474 188.999884 
L 235.184085 199.365959 
L 235.834695 203.856909 
L 236.485305 190.73141 
L 237.135915 191.687764 
L 237.786526 204.54246 
L 238.437136 197.081069 
L 239.087746 211.239178 
L 239.738357 198.20438 
L 240.388967 202.282048 
L 241.039577 190.831972 
L 241.690188 212.574868 
L 242.340798 226.154963 
L 242.991408 224.684817 
L 243.642019 212.332248 
L 244.292629 204.975137 
L 244.943239 192.155768 
L 245.59385 201.276132 
L 246.24446 205.979548 
L 246.89507 188.660946 
L 247.54568 196.057315 
L 248.196291 192.498807 
L 248.846901 190.815082 
L 249.497511 207.528466 
L 250.148122 198.63324 
L 250.798732 202.677894 
L 251.449342 199.619924 
L 252.099953 191.083037 
L 252.750563 205.591539 
L 253.401173 196.819487 
L 254.051784 212.989125 
L 254.702394 208.070766 
L 255.353004 193.509996 
L 256.003615 208.462427 
L 256.654225 211.244301 
L 257.304835 201.08224 
L 257.955445 214.638621 
L 258.606056 204.764242 
L 259.256666 192.268747 
L 259.907276 201.239749 
L 260.557887 199.378902 
L 261.208497 208.452156 
L 261.859107 184.540136 
L 262.509718 181.894427 
L 263.160328 189.069865 
L 263.810938 190.110328 
L 264.461549 183.117435 
L 265.112159 199.605681 
L 265.762769 183.16218 
L 266.413379 178.184012 
L 267.06399 195.227046 
L 267.7146 183.501417 
L 268.36521 190.843271 
L 269.015821 196.331895 
L 269.666431 193.523218 
L 270.317041 183.095283 
L 270.967652 196.593708 
L 271.618262 187.412092 
L 272.268872 199.903976 
L 272.919483 189.150522 
L 273.570093 190.917845 
L 274.220703 191.34985 
L 274.871314 196.928485 
L 275.521924 199.522009 
L 276.172534 193.677221 
L 277.473755 186.652229 
L 278.124365 185.874127 
L 278.774975 183.684195 
L 279.425586 197.892218 
L 280.076196 207.758707 
L 280.726806 192.871676 
L 281.377417 192.267629 
L 282.028027 191.440233 
L 282.678637 201.126984 
L 283.329248 194.544688 
L 283.979858 196.674934 
L 284.630468 189.165586 
L 285.281079 211.979844 
L 285.931689 197.345277 
L 286.582299 192.155768 
L 287.232909 180.820192 
L 287.88352 177.278314 
L 288.53413 193.616965 
L 289.835351 181.919856 
L 290.485961 183.102371 
L 291.787182 196.607147 
L 293.088402 182.424496 
L 293.739013 186.875875 
L 294.389623 174.237273 
L 295.040233 188.969756 
L 295.690844 193.488922 
L 296.341454 201.457719 
L 296.992064 181.139349 
L 297.642674 184.456448 
L 298.293285 186.419318 
L 298.943895 180.458659 
L 299.594505 171.427858 
L 300.245116 180.669554 
L 301.546336 192.607685 
L 302.196947 185.567219 
L 302.847557 185.473964 
L 304.148778 206.542542 
L 304.799388 203.521471 
L 305.449998 184.95523 
L 306.100608 180.636324 
L 306.751219 181.938192 
L 307.401829 196.976212 
L 308.052439 188.899534 
L 308.70305 189.493994 
L 309.35366 189.613737 
L 310.00427 188.155794 
L 310.654881 191.351386 
L 311.305491 180.792039 
L 311.956101 168.157951 
L 312.606712 191.373037 
L 313.257322 190.528868 
L 313.907932 174.717012 
L 314.558543 196.901624 
L 315.209153 192.228894 
L 315.859763 185.593282 
L 316.510373 186.057087 
L 317.160984 180.11197 
L 317.811594 186.624958 
L 318.462204 181.318544 
L 319.112815 198.099292 
L 319.763425 173.243877 
L 320.414035 191.877086 
L 321.064646 176.462999 
L 321.715256 180.529728 
L 322.365866 185.361955 
L 323.016477 187.927439 
L 323.667087 173.995414 
L 324.317697 187.968007 
L 324.968308 195.65059 
L 325.618918 192.11012 
L 326.269528 192.984282 
L 326.920138 177.530634 
L 327.570749 187.778292 
L 328.221359 159.015215 
L 328.871969 178.278732 
L 329.52258 177.724563 
L 330.17319 190.107079 
L 330.8238 167.814912 
L 331.474411 180.402953 
L 332.125021 177.677698 
L 332.775631 178.911479 
L 333.426242 190.947674 
L 334.076852 176.768007 
L 334.727462 179.366378 
L 335.378073 175.727181 
L 336.028683 173.158532 
L 336.679293 180.699681 
L 337.329903 176.391409 
L 337.980514 184.262291 
L 338.631124 189.286097 
L 339.281734 191.0787 
L 339.932345 178.712389 
L 340.582955 184.083654 
L 341.233565 180.568747 
L 341.884176 183.961013 
L 342.534786 178.590885 
L 343.185396 172.120797 
L 343.836007 170.596511 
L 344.486617 166.019923 
L 345.137227 163.861526 
L 345.787837 167.049288 
L 346.438448 158.809798 
L 347.089058 160.223309 
L 347.739668 176.389382 
L 348.390279 185.559833 
L 349.040889 163.059064 
L 349.691499 168.879868 
L 350.34211 158.157617 
L 350.99272 167.431979 
L 351.64333 174.342355 
L 352.293941 178.17414 
L 353.595161 182.921894 
L 354.245772 171.450454 
L 354.896382 178.061338 
L 355.546992 165.622445 
L 356.197602 165.672019 
L 358.149433 177.306024 
L 358.800044 169.418246 
L 359.450654 167.263066 
L 360.101264 180.910576 
L 360.751875 179.724332 
L 361.402485 169.26619 
L 362.053095 183.228199 
L 362.703706 174.317738 
L 363.354316 179.646834 
L 364.004926 182.664056 
L 364.655537 180.609298 
L 365.306147 162.381994 
L 365.956757 160.156418 
L 366.607367 178.440098 
L 367.257978 170.041981 
L 367.908588 181.671302 
L 368.559198 172.759148 
L 369.209809 170.508961 
L 369.860419 166.034987 
L 370.511029 173.115014 
L 371.16164 170.328195 
L 371.81225 162.005397 
L 372.46286 176.504389 
L 373.113471 164.492992 
L 373.764081 162.547696 
L 375.065302 175.81145 
L 375.715912 166.953884 
L 376.366522 174.372848 
L 377.017132 167.571503 
L 377.667743 173.002035 
L 378.318353 172.908296 
L 378.968963 154.27009 
L 379.619574 160.408624 
L 380.270184 186.018352 
L 380.920794 171.058868 
L 381.571405 170.704792 
L 382.222015 166.072646 
L 382.872625 171.284751 
L 383.523236 167.315417 
L 384.173846 166.223285 
L 384.824456 168.098739 
L 385.475066 178.554394 
L 386.125677 167.79254 
L 386.776287 169.764688 
L 387.426897 160.755606 
L 388.077508 175.673242 
L 388.728118 171.605376 
L 389.378728 183.080514 
L 390.029339 174.647841 
L 390.679949 172.915075 
L 391.330559 174.451971 
L 391.98117 171.111069 
L 392.63178 174.418779 
L 393.28239 154.304058 
L 393.933001 147.94102 
L 394.583611 166.805397 
L 395.234221 165.616324 
L 395.884831 168.380693 
L 396.535442 157.814578 
L 397.186052 167.367469 
L 397.836662 183.475389 
L 398.487273 176.037408 
L 398.487273 176.037408 
" style="fill:none;stroke:#0000ff;stroke-linecap:square;stroke-width:1.5;"/>
   </g>
   <g id="line2d_28">
    <path clip-path="url(#p72ed507dba)" d="M 73.832727 254.849847 
L 74.483338 262.5512 
L 75.133948 262.997172 
L 75.784558 268.741107 
L 76.435169 272.445843 
L 77.085779 279.251257 
L 77.736389 270.483297 
L 78.386999 273.868871 
L 79.03761 271.219443 
L 79.68822 266.003776 
L 80.33883 266.123316 
L 81.640051 261.930132 
L 82.290661 261.219665 
L 83.591882 262.513798 
L 84.242492 266.068542 
L 84.893103 262.527828 
L 85.543713 261.029578 
L 86.194323 264.613897 
L 86.844934 262.130796 
L 87.495544 261.647655 
L 88.146154 260.249516 
L 88.796764 265.768892 
L 89.447375 261.049785 
L 90.097985 261.073826 
L 91.399206 263.386368 
L 92.049816 267.961302 
L 92.700426 263.579864 
L 93.351037 263.459244 
L 94.001647 266.25767 
L 94.652257 266.947035 
L 95.302868 268.368289 
L 95.953478 263.201215 
L 96.604088 261.76696 
L 97.254698 269.121018 
L 97.905309 271.677301 
L 98.555919 272.274309 
L 99.206529 271.710717 
L 99.85714 275.210409 
L 100.50775 281.319346 
L 101.15836 265.907848 
L 101.808971 262.803074 
L 102.459581 268.378173 
L 103.760802 271.590473 
L 104.411412 270.770316 
L 105.062022 284.593773 
L 105.712633 277.639197 
L 106.363243 276.536386 
L 107.013853 278.834785 
L 107.664463 277.500342 
L 108.315074 264.799425 
L 108.965684 295.488 
L 109.616294 262.051762 
L 110.266905 284.32825 
L 110.917515 269.94188 
L 112.218736 264.524818 
L 112.869346 263.878345 
L 113.519956 268.61119 
L 114.170567 266.133334 
L 114.821177 266.383661 
L 115.471787 266.95987 
L 116.122398 260.112402 
L 116.773008 268.814833 
L 117.423618 265.283334 
L 118.074228 265.253855 
L 119.375449 266.256286 
L 120.026059 268.57262 
L 120.67667 258.735507 
L 121.32728 272.030741 
L 121.97789 260.276412 
L 122.628501 266.248905 
L 123.279111 270.730031 
L 123.929721 258.125381 
L 124.580332 264.648619 
L 125.230942 253.851989 
L 125.881552 256.276418 
L 127.833383 241.600532 
L 128.483993 263.524513 
L 129.134604 252.875151 
L 129.785214 256.213858 
L 130.435824 255.654014 
L 131.086435 250.921871 
L 131.737045 247.104287 
L 132.387655 233.06053 
L 133.038266 241.710481 
L 134.339486 234.468962 
L 134.990097 246.491003 
L 135.640707 248.429639 
L 136.291317 255.499095 
L 136.941927 239.692436 
L 137.592538 232.556594 
L 138.243148 250.055728 
L 138.893758 261.023747 
L 139.544369 265.581345 
L 140.194979 257.500539 
L 140.845589 247.747692 
L 141.4962 247.135266 
L 142.14681 245.803227 
L 142.79742 247.271263 
L 143.448031 246.744136 
L 144.098641 250.475502 
L 144.749251 247.790775 
L 145.399862 267.394916 
L 146.050472 259.701322 
L 146.701082 277.536595 
L 147.351692 265.473967 
L 148.002303 264.170726 
L 148.652913 267.83775 
L 149.303523 240.601212 
L 149.954134 241.797742 
L 151.255354 256.35727 
L 151.905965 264.517738 
L 152.556575 255.679466 
L 153.207185 252.508535 
L 153.857796 243.407645 
L 154.508406 264.507847 
L 155.159016 251.320734 
L 155.809627 256.791656 
L 156.460237 252.40938 
L 157.110847 259.858718 
L 157.761457 259.381641 
L 158.412068 253.104427 
L 159.062678 241.799634 
L 159.713288 269.405846 
L 160.363899 254.372404 
L 161.014509 251.263341 
L 161.665119 261.907329 
L 162.31573 249.685702 
L 162.96634 261.683839 
L 163.61695 248.651436 
L 164.918171 234.91844 
L 165.568781 260.462047 
L 166.219392 250.732786 
L 166.870002 262.515459 
L 167.520612 279.200993 
L 168.171222 251.083311 
L 168.821833 270.34195 
L 169.472443 263.634484 
L 170.123053 261.525796 
L 170.773664 268.683081 
L 171.424274 265.036687 
L 172.074884 269.244061 
L 172.725495 267.61121 
L 173.376105 272.922843 
L 174.026715 257.489268 
L 174.677326 258.670849 
L 175.978546 274.911601 
L 176.629156 275.803588 
L 177.930377 261.803339 
L 178.580987 263.32234 
L 179.231598 262.276169 
L 179.882208 272.872308 
L 180.532818 268.194131 
L 181.183429 271.995111 
L 181.834039 281.628031 
L 182.484649 271.980511 
L 183.13526 277.061371 
L 183.78587 277.476104 
L 184.43648 274.051381 
L 185.087091 280.675089 
L 185.737701 273.128417 
L 186.388311 267.481909 
L 187.038921 273.895738 
L 187.689532 265.776358 
L 188.340142 266.009153 
L 188.990752 267.376462 
L 189.641363 276.954256 
L 190.291973 269.586467 
L 190.942583 269.125062 
L 191.593194 266.500836 
L 192.243804 268.265113 
L 192.894414 272.861771 
L 193.545025 269.248132 
L 194.195635 273.168615 
L 194.846245 263.390763 
L 195.496856 272.058187 
L 196.147466 273.250556 
L 196.798076 262.344202 
L 197.448686 262.69078 
L 198.099297 266.091625 
L 198.749907 254.403631 
L 199.400517 261.617193 
L 200.051128 258.869414 
L 200.701738 263.331917 
L 201.352348 265.444206 
L 202.002959 271.699393 
L 202.653569 255.637009 
L 203.304179 270.831742 
L 204.6054 267.45604 
L 205.25601 271.583821 
L 205.906621 271.523106 
L 206.557231 260.812998 
L 207.207841 269.594008 
L 207.858451 273.466665 
L 208.509062 258.557741 
L 209.159672 261.920781 
L 209.810282 268.786841 
L 210.460893 262.862099 
L 211.111503 265.480534 
L 211.762113 260.484764 
L 212.412724 263.12029 
L 213.063334 263.509699 
L 213.713944 267.671956 
L 214.364555 249.647052 
L 215.015165 250.440811 
L 215.665775 262.915752 
L 216.316385 262.497401 
L 216.966996 257.170663 
L 217.617606 268.231792 
L 218.268216 269.083953 
L 219.569437 269.016596 
L 220.220047 266.918258 
L 220.870658 270.636185 
L 221.521268 269.976407 
L 222.171878 268.911297 
L 222.822489 275.276488 
L 223.473099 261.570197 
L 224.123709 263.373449 
L 224.77432 264.36056 
L 225.42493 269.980931 
L 226.07554 266.705261 
L 226.72615 274.670913 
L 227.376761 259.335345 
L 228.027371 269.277474 
L 228.677981 262.44736 
L 229.328592 267.089416 
L 229.979202 259.191846 
L 230.629812 270.769084 
L 231.280423 270.437048 
L 231.931033 266.633031 
L 232.581643 273.558241 
L 233.232254 272.3399 
L 233.882864 258.197729 
L 234.533474 255.336061 
L 235.184085 273.551429 
L 235.834695 272.621945 
L 236.485305 255.019825 
L 237.135915 260.403219 
L 237.786526 271.151934 
L 238.437136 264.427327 
L 239.087746 276.913484 
L 239.738357 267.393715 
L 240.388967 268.111465 
L 241.039577 259.483231 
L 241.690188 275.350166 
L 242.340798 281.324385 
L 242.991408 282.203507 
L 243.642019 272.875861 
L 244.292629 269.221778 
L 244.943239 261.281617 
L 245.59385 269.737235 
L 246.24446 271.103938 
L 246.89507 258.744745 
L 247.54568 266.080852 
L 248.196291 261.187912 
L 248.846901 258.910402 
L 249.497511 272.842806 
L 250.148122 265.012873 
L 250.798732 273.073124 
L 251.449342 269.090183 
L 252.099953 262.076168 
L 252.750563 274.207699 
L 253.401173 263.683389 
L 254.051784 277.692532 
L 254.702394 275.195529 
L 255.353004 262.584802 
L 256.003615 277.498712 
L 256.654225 276.19731 
L 257.304835 271.306939 
L 257.955445 276.093964 
L 258.606056 274.147929 
L 259.256666 260.432163 
L 259.907276 269.024439 
L 260.557887 266.610613 
L 261.208497 274.738489 
L 261.859107 253.904597 
L 262.509718 249.779945 
L 263.160328 259.089654 
L 263.810938 259.822119 
L 264.461549 252.376556 
L 265.112159 269.346369 
L 265.762769 252.547342 
L 266.413379 248.098741 
L 267.06399 264.736925 
L 267.7146 252.576296 
L 268.36521 260.898701 
L 269.015821 264.435387 
L 269.666431 261.95721 
L 270.317041 252.775319 
L 270.967652 264.658931 
L 271.618262 256.954826 
L 272.268872 266.070185 
L 272.919483 258.663673 
L 273.570093 259.875785 
L 274.220703 260.213261 
L 274.871314 266.202935 
L 275.521924 267.065833 
L 276.172534 258.596197 
L 276.823144 258.121869 
L 277.473755 254.732642 
L 278.124365 254.667558 
L 278.774975 251.251124 
L 279.425586 264.761522 
L 280.076196 275.079252 
L 280.726806 259.261027 
L 281.377417 262.290718 
L 282.028027 261.552912 
L 282.678637 267.238226 
L 283.329248 262.824749 
L 283.979858 265.569321 
L 284.630468 256.736691 
L 285.281079 279.513278 
L 285.931689 266.36895 
L 286.582299 261.427216 
L 287.232909 251.455482 
L 287.88352 245.10842 
L 288.53413 264.379714 
L 289.18474 258.916456 
L 289.835351 250.858509 
L 290.485961 254.728345 
L 291.136571 261.963155 
L 291.787182 267.119345 
L 292.437792 261.119506 
L 293.088402 252.673002 
L 293.739013 255.071336 
L 294.389623 245.659588 
L 295.040233 258.136615 
L 295.690844 266.400462 
L 296.341454 269.327545 
L 296.992064 248.914635 
L 297.642674 254.725692 
L 298.293285 257.1043 
L 298.943895 249.56501 
L 299.594505 238.287807 
L 300.245116 248.600621 
L 301.546336 261.989604 
L 302.196947 254.766711 
L 302.847557 254.557479 
L 303.498167 263.572703 
L 304.148778 274.204091 
L 304.799388 276.932242 
L 305.449998 252.418773 
L 306.100608 249.72359 
L 306.751219 249.889498 
L 307.401829 264.255994 
L 308.052439 256.744811 
L 308.70305 256.970301 
L 309.35366 257.809927 
L 310.00427 256.439945 
L 310.654881 260.475702 
L 311.305491 252.216196 
L 311.956101 237.641901 
L 312.606712 262.066386 
L 313.257322 261.299385 
L 313.907932 245.111427 
L 314.558543 270.227815 
L 315.209153 265.888857 
L 315.859763 255.154898 
L 316.510373 258.009556 
L 317.160984 250.496657 
L 317.811594 255.44297 
L 318.462204 252.234419 
L 319.112815 270.225034 
L 319.763425 242.676467 
L 320.414035 263.793202 
L 321.064646 245.838553 
L 321.715256 252.477265 
L 322.365866 254.958419 
L 323.016477 258.186249 
L 323.667087 241.559957 
L 324.317697 257.857492 
L 324.968308 263.743156 
L 325.618918 261.072993 
L 326.269528 262.255362 
L 326.920138 248.936777 
L 327.570749 259.617959 
L 328.221359 223.759622 
L 328.871969 248.57998 
L 329.52258 246.578785 
L 330.17319 261.560983 
L 330.8238 236.00737 
L 331.474411 249.4412 
L 332.125021 248.419961 
L 332.775631 248.43739 
L 333.426242 263.722254 
L 334.076852 247.800128 
L 334.727462 249.26443 
L 336.028683 243.005065 
L 336.679293 252.558081 
L 337.329903 249.239385 
L 338.631124 258.618833 
L 339.281734 261.65195 
L 339.932345 250.832045 
L 340.582955 254.791603 
L 341.233565 252.76816 
L 341.884176 254.700305 
L 342.534786 248.563565 
L 343.185396 239.650377 
L 343.836007 241.379237 
L 345.137227 227.906197 
L 345.787837 236.052114 
L 346.438448 223.44874 
L 347.089058 227.169033 
L 347.739668 247.60121 
L 348.390279 256.940666 
L 349.040889 228.297912 
L 349.691499 237.910038 
L 350.34211 224.402531 
L 351.64333 247.554576 
L 352.293941 251.154206 
L 352.944551 252.210494 
L 353.595161 256.219239 
L 354.245772 241.929127 
L 354.896382 250.673444 
L 355.546992 234.103481 
L 356.197602 234.812687 
L 356.848213 239.491644 
L 357.498823 245.718505 
L 358.149433 248.924395 
L 358.800044 238.652909 
L 359.450654 236.289865 
L 360.101264 252.550113 
L 360.751875 251.885632 
L 361.402485 241.339605 
L 362.053095 254.529333 
L 362.703706 246.232129 
L 364.004926 255.566699 
L 364.655537 252.082807 
L 365.306147 233.412135 
L 365.956757 229.706382 
L 366.607367 250.406574 
L 367.257978 240.212904 
L 367.908588 254.857669 
L 368.559198 245.545252 
L 369.209809 242.106863 
L 369.860419 234.857823 
L 370.511029 246.679713 
L 371.16164 238.94631 
L 371.81225 229.04659 
L 372.46286 246.900596 
L 373.113471 236.336523 
L 373.764081 231.477757 
L 375.065302 247.284438 
L 375.715912 238.07932 
L 376.366522 246.700133 
L 377.017132 238.269261 
L 377.667743 244.667225 
L 378.318353 243.53823 
L 378.968963 221.838764 
L 379.619574 229.173035 
L 380.270184 262.848595 
L 380.920794 242.860196 
L 381.571405 241.557567 
L 382.222015 236.491662 
L 382.872625 239.661304 
L 383.523236 235.475554 
L 384.173846 233.45965 
L 384.824456 238.517849 
L 385.475066 251.778434 
L 386.125677 234.087664 
L 386.776287 239.495092 
L 387.426897 230.47004 
L 388.077508 249.79459 
L 388.728118 244.145908 
L 389.378728 254.859148 
L 390.029339 244.414788 
L 390.679949 243.411205 
L 391.330559 245.236187 
L 391.98117 240.923636 
L 392.63178 249.723937 
L 393.28239 218.584522 
L 393.933001 211.258206 
L 394.583611 235.537867 
L 395.234221 236.43833 
L 395.884831 237.826089 
L 396.535442 226.830863 
L 397.186052 237.812156 
L 397.836662 255.080262 
L 398.487273 248.913471 
L 398.487273 248.913471 
" style="fill:none;stroke:#008000;stroke-dasharray:9.6,2.4,1.5,2.4;stroke-dashoffset:0;stroke-width:1.5;"/>
   </g>
   <g id="line2d_29">
    <path clip-path="url(#p72ed507dba)" d="M 73.832727 252.111864 
L 74.483338 245.630685 
L 75.133948 244.925615 
L 75.784558 237.762313 
L 76.435169 232.079719 
L 77.085779 229.20708 
L 77.736389 235.507988 
L 78.386999 232.793242 
L 79.68822 238.16509 
L 80.33883 238.828873 
L 80.989441 239.715787 
L 81.640051 242.157389 
L 82.290661 242.934137 
L 82.941272 243.138 
L 83.591882 240.817516 
L 84.242492 240.168258 
L 84.893103 242.583535 
L 85.543713 242.172055 
L 86.194323 240.452472 
L 86.844934 240.656287 
L 87.495544 242.144939 
L 88.146154 243.285051 
L 88.796764 236.608375 
L 89.447375 242.266465 
L 90.097985 241.31295 
L 90.748595 239.350214 
L 91.399206 239.101368 
L 92.049816 234.838472 
L 92.700426 237.95962 
L 93.351037 233.726109 
L 94.001647 230.760128 
L 94.652257 232.214877 
L 95.302868 228.006019 
L 95.953478 230.719926 
L 96.604088 225.167312 
L 97.254698 212.08095 
L 97.905309 209.489455 
L 98.555919 211.627827 
L 99.206529 200.322372 
L 99.85714 197.731828 
L 100.50775 195.895821 
L 101.15836 201.91132 
L 101.808971 198.612167 
L 102.459581 196.644829 
L 103.110191 193.921839 
L 103.760802 194.334522 
L 104.411412 191.814363 
L 105.062022 182.748123 
L 105.712633 193.162919 
L 106.363243 188.374408 
L 107.013853 194.01065 
L 107.664463 185.665427 
L 108.315074 174.234294 
L 108.965684 185.75386 
L 109.616294 177.709945 
L 110.266905 174.191215 
L 110.917515 182.187894 
L 111.568125 179.437565 
L 112.218736 168.242224 
L 112.869346 177.767261 
L 113.519956 175.663394 
L 114.170567 167.526919 
L 114.821177 181.64812 
L 115.471787 175.702914 
L 116.122398 172.639871 
L 116.773008 181.980593 
L 117.423618 175.176712 
L 118.074228 172.358503 
L 118.724839 171.684844 
L 119.375449 175.176295 
L 120.026059 160.766518 
L 120.67667 167.587539 
L 121.32728 154.977027 
L 121.97789 169.150707 
L 122.628501 180.509293 
L 123.279111 159.948152 
L 123.929721 161.761276 
L 124.580332 165.878925 
L 125.230942 150.208304 
L 125.881552 165.426372 
L 126.532163 157.758318 
L 127.182773 156.069853 
L 127.833383 155.552595 
L 128.483993 151.110629 
L 129.134604 157.05991 
L 129.785214 154.869637 
L 130.435824 154.160684 
L 131.086435 147.02029 
L 131.737045 155.283914 
L 132.387655 147.972396 
L 133.038266 154.443359 
L 133.688876 143.177689 
L 134.339486 144.753027 
L 135.640707 158.315276 
L 136.291317 153.28029 
L 136.941927 151.338775 
L 137.592538 152.214032 
L 138.243148 140.549829 
L 138.893758 140.569416 
L 139.544369 144.898697 
L 140.194979 145.449134 
L 140.845589 152.873927 
L 141.4962 144.526889 
L 142.14681 149.608015 
L 142.79742 148.976611 
L 143.448031 155.182649 
L 144.098641 149.646077 
L 144.749251 158.844008 
L 145.399862 171.048979 
L 146.701082 151.630226 
L 147.351692 158.134037 
L 148.002303 153.926958 
L 148.652913 151.428154 
L 149.954134 154.641761 
L 150.604744 158.879068 
L 151.255354 154.376325 
L 151.905965 154.233981 
L 152.556575 152.838694 
L 153.857796 154.248366 
L 154.508406 151.480089 
L 155.159016 153.399473 
L 155.809627 145.208762 
L 156.460237 158.256502 
L 157.110847 168.725584 
L 157.761457 161.515753 
L 158.412068 155.746182 
L 159.062678 152.510188 
L 159.713288 155.718971 
L 160.363899 157.463634 
L 161.014509 148.561103 
L 161.665119 149.052225 
L 162.31573 151.028734 
L 162.96634 151.879308 
L 163.61695 160.395004 
L 164.267561 151.848297 
L 164.918171 141.093189 
L 165.568781 144.998006 
L 166.219392 158.814491 
L 166.870002 153.057373 
L 167.520612 155.874382 
L 168.171222 145.840539 
L 168.821833 164.694618 
L 169.472443 158.050558 
L 170.123053 153.644338 
L 170.773664 168.068682 
L 171.424274 158.426043 
L 172.074884 158.311484 
L 172.725495 160.842082 
L 173.376105 169.203894 
L 174.026715 146.897509 
L 174.677326 140.825085 
L 175.327936 159.916052 
L 175.978546 156.082923 
L 176.629156 167.33243 
L 177.930377 153.232562 
L 178.580987 145.747665 
L 179.231598 149.975983 
L 179.882208 156.793345 
L 180.532818 144.738792 
L 181.183429 160.87882 
L 181.834039 167.100269 
L 182.484649 166.576237 
L 183.13526 180.287197 
L 184.43648 155.75614 
L 185.087091 159.814097 
L 185.737701 146.971264 
L 186.388311 139.37981 
L 187.038921 153.416351 
L 187.689532 135.925765 
L 188.340142 132.760762 
L 188.990752 143.363994 
L 189.641363 161.751339 
L 190.291973 134.895615 
L 190.942583 143.039602 
L 191.593194 128.683545 
L 192.243804 137.076792 
L 192.894414 142.227356 
L 193.545025 133.691915 
L 194.195635 145.223103 
L 194.846245 128.633483 
L 195.496856 136.295911 
L 196.147466 138.593591 
L 196.798076 127.947241 
L 197.448686 123.970723 
L 198.099297 130.060127 
L 198.749907 119.107097 
L 199.400517 120.803973 
L 200.051128 121.179042 
L 200.701738 130.033168 
L 201.352348 128.764304 
L 202.002959 144.68316 
L 202.653569 125.753978 
L 203.304179 131.194926 
L 203.95479 138.671723 
L 204.6054 140.204522 
L 205.25601 142.657682 
L 205.906621 137.417886 
L 206.557231 119.431288 
L 207.207841 129.811245 
L 207.858451 142.585548 
L 208.509062 121.417221 
L 209.159672 124.916619 
L 209.810282 136.147158 
L 210.460893 127.188778 
L 211.111503 127.507801 
L 211.762113 117.253439 
L 212.412724 126.166894 
L 213.063334 122.992948 
L 213.713944 133.616582 
L 214.364555 110.230858 
L 215.015165 111.916227 
L 215.665775 125.109554 
L 216.316385 124.871657 
L 216.966996 124.098266 
L 218.268216 156.668043 
L 218.918827 136.927386 
L 219.569437 131.658458 
L 220.220047 127.546338 
L 220.870658 135.237386 
L 221.521268 133.120684 
L 222.171878 136.042239 
L 222.822489 148.038702 
L 223.473099 126.085523 
L 224.123709 127.159472 
L 224.77432 127.151515 
L 225.42493 129.185687 
L 226.07554 126.765119 
L 226.72615 135.756334 
L 227.376761 119.70383 
L 228.027371 132.588712 
L 228.677981 114.110705 
L 229.328592 135.466162 
L 229.979202 128.330276 
L 230.629812 137.235169 
L 231.280423 139.736648 
L 231.931033 129.379646 
L 232.581643 139.523829 
L 233.232254 122.740078 
L 233.882864 108.961856 
L 234.533474 122.663706 
L 235.184085 125.180489 
L 235.834695 135.091873 
L 236.485305 126.442996 
L 237.135915 122.972308 
L 237.786526 137.932985 
L 238.437136 129.73481 
L 239.087746 145.564873 
L 239.738357 129.015045 
L 240.388967 136.452632 
L 241.039577 122.180713 
L 241.690188 149.79957 
L 242.340798 170.985541 
L 242.991408 167.166127 
L 243.642019 151.788635 
L 244.292629 140.728496 
L 244.943239 123.029919 
L 245.59385 132.815028 
L 246.24446 140.855158 
L 246.89507 118.577147 
L 247.54568 126.033777 
L 248.196291 123.809702 
L 248.846901 122.719762 
L 249.497511 142.214125 
L 250.148122 132.253607 
L 250.798732 132.282664 
L 251.449342 130.149666 
L 252.099953 120.089905 
L 252.750563 136.975378 
L 253.401173 129.955585 
L 254.051784 148.285718 
L 254.702394 140.946002 
L 255.353004 124.435191 
L 256.003615 139.426141 
L 256.654225 146.291291 
L 257.304835 130.857542 
L 257.955445 153.183277 
L 258.606056 135.380555 
L 259.256666 124.105331 
L 259.907276 133.455059 
L 260.557887 132.147192 
L 261.208497 142.165823 
L 261.859107 115.175675 
L 262.509718 114.008909 
L 263.160328 119.050075 
L 263.810938 120.398537 
L 264.461549 113.858314 
L 265.112159 129.864993 
L 265.762769 113.777017 
L 266.413379 108.269283 
L 267.06399 125.717167 
L 267.7146 114.426538 
L 269.015821 128.228403 
L 269.666431 125.089226 
L 270.317041 113.415246 
L 270.967652 128.528484 
L 271.618262 117.869357 
L 272.268872 133.737767 
L 272.919483 119.637372 
L 273.570093 121.959904 
L 274.220703 122.486439 
L 275.521924 131.978185 
L 276.172534 128.758245 
L 276.823144 121.86831 
L 277.473755 118.571816 
L 278.124365 117.080696 
L 278.774975 116.117266 
L 279.425586 131.022915 
L 280.076196 140.438161 
L 280.726806 126.482324 
L 281.377417 122.244539 
L 282.028027 121.327554 
L 282.678637 135.015742 
L 283.329248 126.264626 
L 283.979858 127.780548 
L 284.630468 121.594481 
L 285.281079 144.446411 
L 285.931689 128.321605 
L 286.582299 122.88432 
L 287.232909 110.184903 
L 287.88352 109.448209 
L 288.53413 122.854216 
L 289.18474 116.883983 
L 289.835351 112.981204 
L 290.485961 111.476398 
L 291.136571 117.573129 
L 291.787182 126.094948 
L 293.088402 112.175991 
L 293.739013 118.680414 
L 294.389623 102.814959 
L 295.040233 119.802897 
L 295.690844 120.577382 
L 296.341454 133.587893 
L 296.992064 113.364063 
L 297.642674 114.187203 
L 298.293285 115.734335 
L 298.943895 111.352308 
L 299.594505 104.567909 
L 300.245116 112.738486 
L 300.895726 119.015659 
L 301.546336 123.225766 
L 302.196947 116.367727 
L 302.847557 116.390449 
L 303.498167 129.548925 
L 304.148778 138.880992 
L 304.799388 130.110701 
L 305.449998 117.491686 
L 306.100608 111.549059 
L 306.751219 113.986885 
L 307.401829 129.69643 
L 308.052439 121.054257 
L 308.70305 122.017687 
L 309.35366 121.417547 
L 310.00427 119.871642 
L 310.654881 122.22707 
L 311.956101 98.674 
L 312.606712 120.679687 
L 313.257322 119.758351 
L 313.907932 104.322597 
L 314.558543 123.575433 
L 315.209153 118.568931 
L 315.859763 116.031666 
L 316.510373 114.104619 
L 317.160984 109.727283 
L 317.811594 117.806947 
L 318.462204 110.402669 
L 319.112815 125.97355 
L 319.763425 103.811287 
L 320.414035 119.960971 
L 321.064646 107.087446 
L 321.715256 108.58219 
L 322.365866 115.76549 
L 323.016477 117.668629 
L 323.667087 106.430872 
L 324.317697 118.078522 
L 324.968308 127.558024 
L 325.618918 123.147246 
L 326.269528 123.713202 
L 326.920138 106.124492 
L 327.570749 115.938625 
L 328.221359 94.270807 
L 328.871969 107.977484 
L 329.52258 108.870342 
L 330.17319 118.653176 
L 330.8238 99.622454 
L 331.474411 111.364705 
L 332.125021 106.935435 
L 332.775631 109.385567 
L 333.426242 118.173094 
L 334.076852 105.735885 
L 334.727462 109.468327 
L 335.378073 105.142651 
L 336.028683 103.311999 
L 336.679293 108.841281 
L 337.329903 103.543434 
L 337.980514 114.349419 
L 338.631124 119.953361 
L 339.281734 120.50545 
L 339.932345 106.592734 
L 340.582955 113.375706 
L 341.233565 108.369335 
L 341.884176 113.221721 
L 343.836007 99.813785 
L 344.486617 97.353581 
L 345.137227 99.816855 
L 345.787837 98.046463 
L 346.438448 94.170856 
L 347.089058 93.277585 
L 347.739668 105.177553 
L 348.390279 114.178999 
L 349.040889 97.820217 
L 349.691499 99.849697 
L 350.34211 91.912703 
L 350.99272 99.134569 
L 351.64333 101.130134 
L 352.944551 108.62524 
L 353.595161 109.62455 
L 354.245772 100.971781 
L 354.896382 105.449233 
L 355.546992 97.141409 
L 356.197602 96.53135 
L 357.498823 102.605403 
L 358.149433 105.687653 
L 358.800044 100.183583 
L 359.450654 98.236267 
L 360.101264 109.271038 
L 360.751875 107.563031 
L 361.402485 97.192776 
L 362.053095 111.927066 
L 362.703706 102.403348 
L 363.354316 108.321776 
L 364.004926 109.761413 
L 364.655537 109.135789 
L 365.306147 91.351853 
L 365.956757 90.606455 
L 366.607367 106.473622 
L 367.257978 99.871057 
L 367.908588 108.484935 
L 368.559198 99.973044 
L 369.209809 98.91106 
L 369.860419 97.21215 
L 371.16164 101.710079 
L 371.81225 94.964203 
L 372.46286 106.108181 
L 373.113471 92.649461 
L 373.764081 93.617636 
L 374.414691 99.537845 
L 375.065302 104.338461 
L 375.715912 95.828447 
L 376.366522 102.045564 
L 377.017132 96.873745 
L 377.667743 101.336845 
L 378.318353 102.278361 
L 378.968963 86.701416 
L 379.619574 91.644214 
L 380.270184 109.18811 
L 380.920794 99.257539 
L 381.571405 99.852017 
L 382.222015 95.653631 
L 382.872625 102.908199 
L 383.523236 99.15528 
L 384.173846 98.98692 
L 384.824456 97.67963 
L 385.475066 105.330353 
L 386.125677 101.497415 
L 386.776287 100.034284 
L 387.426897 91.041172 
L 388.077508 101.551895 
L 388.728118 99.064844 
L 389.378728 111.30188 
L 390.029339 104.880894 
L 390.679949 102.418945 
L 391.330559 103.667755 
L 392.63178 99.11362 
L 393.28239 90.023594 
L 393.933001 84.623834 
L 394.583611 98.072926 
L 395.234221 94.794318 
L 395.884831 98.935296 
L 396.535442 88.798293 
L 397.186052 96.922783 
L 397.836662 111.870516 
L 398.487273 103.161345 
L 398.487273 103.161345 
" style="fill:none;stroke:#008000;stroke-dasharray:9.6,2.4,1.5,2.4;stroke-dashoffset:0;stroke-width:1.5;"/>
   </g>
   <g id="line2d_30">
    <path clip-path="url(#p72ed507dba)" d="M 73.832727 250.151736 
L 74.483338 151.483271 
L 76.435169 76.163832 
L 77.085779 101.772441 
L 77.736389 151.483271 
L 78.386999 104.032024 
L 79.03761 102.525635 
L 79.68822 152.236465 
L 80.989441 53.568 
L 81.640051 152.98966 
L 82.290661 152.98966 
L 82.941272 179.351463 
L 83.591882 126.627856 
L 84.242492 201.194101 
L 84.893103 156.002437 
L 85.543713 152.98966 
L 86.194323 154.496048 
L 86.844934 152.236465 
L 87.495544 199.687712 
L 88.146154 202.70049 
L 88.796764 104.032024 
L 89.447375 197.428129 
L 90.097985 203.453684 
L 90.748595 195.92174 
L 91.399206 177.09188 
L 92.049816 177.09188 
L 92.700426 204.206878 
L 93.351037 152.98966 
L 94.001647 176.338686 
L 94.652257 190.649379 
L 95.302868 186.130213 
L 95.953478 191.402574 
L 96.604088 180.857852 
L 97.905309 125.874662 
L 98.555919 138.678966 
L 99.206529 102.525635 
L 99.85714 104.032024 
L 100.50775 79.176609 
L 101.15836 155.249243 
L 101.808971 152.98966 
L 102.459581 103.27883 
L 103.110191 141.691744 
L 103.760802 152.236465 
L 104.411412 128.134245 
L 105.062022 149.976882 
L 105.712633 160.521604 
L 106.363243 150.730076 
L 107.013853 149.223688 
L 107.664463 146.21091 
L 108.315074 79.176609 
L 108.965684 130.393828 
L 109.616294 129.640634 
L 110.266905 76.163832 
L 110.917515 142.444938 
L 111.568125 146.21091 
L 112.218736 78.423415 
L 112.869346 145.457716 
L 113.519956 143.951327 
L 114.170567 141.691744 
L 114.821177 143.198133 
L 115.471787 147.717299 
L 116.122398 143.198133 
L 116.773008 145.457716 
L 118.074228 143.951327 
L 118.724839 147.717299 
L 119.375449 143.198133 
L 120.026059 142.444938 
L 120.67667 140.938549 
L 121.32728 140.185355 
L 121.97789 143.951327 
L 122.628501 143.198133 
L 123.279111 103.27883 
L 123.929721 146.21091 
L 124.580332 147.717299 
L 125.230942 143.198133 
L 125.881552 143.951327 
L 126.532163 136.419383 
L 127.182773 145.457716 
L 127.833383 143.951327 
L 128.483993 144.704521 
L 129.134604 143.198133 
L 129.785214 143.951327 
L 130.435824 128.887439 
L 131.086435 144.704521 
L 131.737045 144.704521 
L 132.387655 132.653411 
L 133.038266 139.432161 
L 133.688876 138.678966 
L 134.339486 128.887439 
L 134.990097 103.27883 
L 135.640707 142.444938 
L 136.291317 142.444938 
L 136.941927 137.925772 
L 137.592538 143.198133 
L 138.243148 142.444938 
L 138.893758 142.444938 
L 139.544369 103.27883 
L 140.194979 141.691744 
L 140.845589 143.198133 
L 141.4962 77.670221 
L 142.14681 146.21091 
L 142.79742 140.938549 
L 143.448031 137.172577 
L 144.098641 140.185355 
L 144.749251 147.717299 
L 145.399862 146.21091 
L 146.050472 103.27883 
L 146.701082 77.670221 
L 147.351692 144.704521 
L 148.002303 129.640634 
L 148.652913 146.21091 
L 149.303523 146.964105 
L 149.954134 140.185355 
L 150.604744 143.951327 
L 151.255354 76.917026 
L 151.905965 143.198133 
L 152.556575 144.704521 
L 153.207185 137.172577 
L 153.857796 138.678966 
L 154.508406 146.964105 
L 155.159016 77.670221 
L 155.809627 144.704521 
L 156.460237 129.640634 
L 157.110847 146.21091 
L 157.761457 143.198133 
L 158.412068 143.198133 
L 159.062678 143.951327 
L 159.713288 141.691744 
L 160.363899 128.134245 
L 161.014509 144.704521 
L 161.665119 103.27883 
L 162.31573 143.951327 
L 162.96634 104.032024 
L 163.61695 134.1598 
L 164.267561 140.938549 
L 164.918171 140.185355 
L 165.568781 102.525635 
L 166.219392 141.691744 
L 166.870002 145.457716 
L 168.171222 128.887439 
L 168.821833 134.1598 
L 169.472443 137.925772 
L 170.123053 125.874662 
L 170.773664 129.640634 
L 171.424274 115.32994 
L 172.074884 122.861884 
L 172.725495 127.38105 
L 173.376105 126.627856 
L 174.026715 117.589523 
L 174.677326 116.836329 
L 175.327936 128.134245 
L 175.978546 126.627856 
L 176.629156 110.057579 
L 177.279767 107.044802 
L 177.930377 116.083134 
L 178.580987 108.551191 
L 179.231598 113.070357 
L 179.882208 115.32994 
L 180.532818 113.823551 
L 181.183429 116.836329 
L 181.834039 89.721331 
L 182.484649 107.797996 
L 183.13526 113.070357 
L 183.78587 104.032024 
L 184.43648 110.810774 
L 185.087091 108.551191 
L 185.737701 102.525635 
L 186.388311 104.032024 
L 187.038921 109.304385 
L 187.689532 98.759663 
L 188.340142 101.019247 
L 188.990752 104.785219 
L 189.641363 113.823551 
L 190.291973 107.797996 
L 190.942583 106.291607 
L 191.593194 104.032024 
L 192.894414 94.240497 
L 193.545025 102.525635 
L 194.195635 93.487303 
L 194.846245 90.474525 
L 195.496856 101.019247 
L 196.147466 101.772441 
L 196.798076 94.240497 
L 197.448686 106.291607 
L 198.099297 98.759663 
L 198.749907 98.759663 
L 199.400517 99.512858 
L 200.051128 98.759663 
L 200.701738 104.032024 
L 201.352348 101.019247 
L 202.002959 105.538413 
L 202.653569 104.785219 
L 203.304179 98.759663 
L 203.95479 100.266052 
L 204.6054 104.032024 
L 205.25601 101.772441 
L 205.906621 103.27883 
L 206.557231 105.538413 
L 207.207841 91.980914 
L 207.858451 92.734108 
L 208.509062 99.512858 
L 210.460893 94.993692 
L 211.111503 97.253275 
L 212.412724 94.240497 
L 213.063334 98.759663 
L 213.713944 95.746886 
L 214.364555 95.746886 
L 215.015165 101.772441 
L 215.665775 98.759663 
L 216.316385 98.759663 
L 216.966996 94.993692 
L 217.617606 95.746886 
L 218.268216 102.525635 
L 218.918827 94.240497 
L 219.569437 101.019247 
L 220.220047 90.474525 
L 220.870658 98.006469 
L 221.521268 94.240497 
L 222.171878 104.032024 
L 222.822489 104.785219 
L 223.473099 101.772441 
L 224.123709 104.785219 
L 224.77432 102.525635 
L 225.42493 91.22772 
L 226.07554 96.50008 
L 226.72615 94.993692 
L 227.376761 91.980914 
L 228.027371 98.759663 
L 229.328592 91.22772 
L 229.979202 97.253275 
L 230.629812 85.955359 
L 231.280423 82.189387 
L 231.931033 101.772441 
L 232.581643 98.006469 
L 233.232254 102.525635 
L 233.882864 101.019247 
L 234.533474 96.50008 
L 235.184085 103.27883 
L 235.834695 86.708553 
L 236.485305 102.525635 
L 237.135915 98.759663 
L 237.786526 98.006469 
L 238.437136 99.512858 
L 239.087746 96.50008 
L 239.738357 103.27883 
L 240.388967 101.772441 
L 241.039577 90.474525 
L 241.690188 103.27883 
L 242.340798 107.044802 
L 242.991408 98.006469 
L 243.642019 104.032024 
L 244.292629 94.240497 
L 244.943239 98.006469 
L 245.59385 100.266052 
L 246.24446 94.993692 
L 246.89507 102.525635 
L 247.54568 95.746886 
L 248.196291 105.538413 
L 248.846901 97.253275 
L 250.148122 107.044802 
L 250.798732 93.487303 
L 251.449342 96.50008 
L 252.099953 96.50008 
L 252.750563 103.27883 
L 253.401173 103.27883 
L 254.051784 101.772441 
L 254.702394 101.772441 
L 255.353004 100.266052 
L 256.003615 94.993692 
L 256.654225 98.006469 
L 257.304835 103.27883 
L 257.955445 102.525635 
L 258.606056 98.759663 
L 259.256666 98.759663 
L 259.907276 101.772441 
L 260.557887 101.019247 
L 261.208497 96.50008 
L 261.859107 89.721331 
L 262.509718 96.50008 
L 263.160328 82.942581 
L 263.810938 100.266052 
L 264.461549 94.240497 
L 265.112159 94.993692 
L 265.762769 101.772441 
L 266.413379 98.006469 
L 267.06399 97.253275 
L 267.7146 98.006469 
L 269.015821 96.50008 
L 269.666431 100.266052 
L 270.317041 88.968136 
L 270.967652 91.980914 
L 271.618262 88.214942 
L 272.268872 102.525635 
L 272.919483 95.746886 
L 273.570093 101.019247 
L 274.220703 92.734108 
L 274.871314 91.980914 
L 275.521924 102.525635 
L 276.172534 94.993692 
L 276.823144 101.019247 
L 277.473755 100.266052 
L 278.124365 101.019247 
L 278.774975 98.006469 
L 279.425586 100.266052 
L 280.076196 101.772441 
L 280.726806 104.032024 
L 281.377417 98.006469 
L 282.028027 98.006469 
L 282.678637 97.253275 
L 283.329248 93.487303 
L 283.979858 100.266052 
L 284.630468 98.759663 
L 285.281079 96.50008 
L 285.931689 97.253275 
L 286.582299 101.019247 
L 287.232909 90.474525 
L 287.88352 98.759663 
L 288.53413 97.253275 
L 289.18474 94.240497 
L 289.835351 89.721331 
L 290.485961 98.759663 
L 291.136571 94.993692 
L 291.787182 101.019247 
L 292.437792 89.721331 
L 293.088402 101.772441 
L 293.739013 100.266052 
L 294.389623 96.50008 
L 295.040233 96.50008 
L 295.690844 94.993692 
L 296.341454 94.993692 
L 296.992064 102.525635 
L 297.642674 104.032024 
L 298.293285 97.253275 
L 299.594505 95.746886 
L 300.245116 96.50008 
L 300.895726 92.734108 
L 301.546336 101.772441 
L 302.196947 93.487303 
L 302.847557 94.240497 
L 303.498167 100.266052 
L 304.148778 104.032024 
L 304.799388 94.240497 
L 305.449998 90.474525 
L 306.100608 87.461748 
L 306.751219 98.759663 
L 307.401829 101.772441 
L 308.052439 93.487303 
L 308.70305 91.22772 
L 310.00427 101.019247 
L 310.654881 94.993692 
L 311.305491 97.253275 
L 311.956101 94.240497 
L 312.606712 101.772441 
L 313.257322 96.50008 
L 313.907932 100.266052 
L 314.558543 98.006469 
L 315.209153 94.240497 
L 315.859763 98.006469 
L 316.510373 94.993692 
L 317.160984 96.50008 
L 317.811594 101.772441 
L 318.462204 95.746886 
L 319.112815 97.253275 
L 319.763425 94.993692 
L 320.414035 98.006469 
L 321.064646 98.006469 
L 321.715256 101.772441 
L 322.365866 97.253275 
L 323.016477 100.266052 
L 323.667087 91.22772 
L 324.317697 100.266052 
L 324.968308 99.512858 
L 325.618918 94.240497 
L 326.269528 91.980914 
L 326.920138 92.734108 
L 327.570749 94.993692 
L 328.221359 91.22772 
L 328.871969 97.253275 
L 329.52258 101.772441 
L 330.17319 91.22772 
L 330.8238 96.50008 
L 331.474411 98.006469 
L 332.125021 90.474525 
L 332.775631 93.487303 
L 333.426242 103.27883 
L 334.076852 96.50008 
L 334.727462 97.253275 
L 335.378073 96.50008 
L 336.028683 98.759663 
L 336.679293 94.993692 
L 337.329903 98.759663 
L 337.980514 98.759663 
L 338.631124 96.50008 
L 339.281734 97.253275 
L 339.932345 96.50008 
L 341.233565 96.50008 
L 341.884176 93.487303 
L 342.534786 96.50008 
L 343.185396 95.746886 
L 343.836007 91.980914 
L 344.486617 95.746886 
L 345.137227 98.006469 
L 345.787837 98.759663 
L 347.089058 88.968136 
L 347.739668 100.266052 
L 348.390279 91.980914 
L 349.040889 91.22772 
L 349.691499 94.240497 
L 350.34211 96.50008 
L 350.99272 94.993692 
L 352.293941 88.968136 
L 352.944551 98.006469 
L 353.595161 98.006469 
L 354.245772 91.980914 
L 354.896382 90.474525 
L 355.546992 88.214942 
L 356.197602 91.22772 
L 356.848213 96.50008 
L 357.498823 95.746886 
L 358.149433 97.253275 
L 358.800044 93.487303 
L 359.450654 86.708553 
L 360.101264 99.512858 
L 360.751875 92.734108 
L 361.402485 88.968136 
L 362.053095 97.253275 
L 362.703706 87.461748 
L 363.354316 93.487303 
L 364.004926 88.214942 
L 364.655537 94.240497 
L 365.306147 94.240497 
L 365.956757 96.50008 
L 366.607367 92.734108 
L 367.257978 94.240497 
L 367.908588 97.253275 
L 368.559198 92.734108 
L 369.209809 98.759663 
L 369.860419 82.942581 
L 370.511029 98.006469 
L 371.16164 96.50008 
L 372.46286 82.189387 
L 373.113471 95.746886 
L 373.764081 90.474525 
L 374.414691 93.487303 
L 375.065302 91.22772 
L 375.715912 94.993692 
L 376.366522 95.746886 
L 377.017132 85.202164 
L 377.667743 90.474525 
L 378.318353 99.512858 
L 378.968963 95.746886 
L 379.619574 88.968136 
L 380.270184 94.993692 
L 380.920794 91.22772 
L 381.571405 90.474525 
L 382.222015 98.006469 
L 382.872625 97.253275 
L 383.523236 94.240497 
L 384.824456 97.253275 
L 385.475066 94.993692 
L 386.125677 86.708553 
L 386.776287 93.487303 
L 387.426897 82.189387 
L 388.077508 93.487303 
L 388.728118 94.240497 
L 389.378728 91.22772 
L 390.029339 97.253275 
L 390.679949 97.253275 
L 391.330559 93.487303 
L 391.98117 91.22772 
L 392.63178 98.006469 
L 393.28239 99.512858 
L 393.933001 90.474525 
L 394.583611 91.22772 
L 395.234221 96.50008 
L 395.884831 97.253275 
L 396.535442 94.240497 
L 397.186052 94.993692 
L 397.836662 93.487303 
L 398.487273 92.734108 
L 398.487273 92.734108 
" style="fill:none;stroke:#ff0000;stroke-linecap:square;stroke-width:1.5;"/>
   </g>
   <g id="patch_3">
    <path d="M 57.6 307.584 
L 57.6 41.472 
" style="fill:none;stroke:#000000;stroke-linecap:square;stroke-linejoin:miter;stroke-width:0.8;"/>
   </g>
   <g id="patch_4">
    <path d="M 414.72 307.584 
L 414.72 41.472 
" style="fill:none;stroke:#000000;stroke-linecap:square;stroke-linejoin:miter;stroke-width:0.8;"/>
   </g>
   <g id="patch_5">
    <path d="M 57.6 307.584 
L 414.72 307.584 
" style="fill:none;stroke:#000000;stroke-linecap:square;stroke-linejoin:miter;stroke-width:0.8;"/>
   </g>
   <g id="patch_6">
    <path d="M 57.6 41.472 
L 414.72 41.472 
" style="fill:none;stroke:#000000;stroke-linecap:square;stroke-linejoin:miter;stroke-width:0.8;"/>
   </g>
   <g id="text_16">
    <!-- Population's average and best fitness -->
    <g transform="translate(123.529687 35.472)scale(0.12 -0.12)">
     <defs>
      <path d="M 19.671875 64.796875 
L 19.671875 37.40625 
L 32.078125 37.40625 
Q 38.96875 37.40625 42.71875 40.96875 
Q 46.484375 44.53125 46.484375 51.125 
Q 46.484375 57.671875 42.71875 61.234375 
Q 38.96875 64.796875 32.078125 64.796875 
z
M 9.8125 72.90625 
L 32.078125 72.90625 
Q 44.34375 72.90625 50.609375 67.359375 
Q 56.890625 61.8125 56.890625 51.125 
Q 56.890625 40.328125 50.609375 34.8125 
Q 44.34375 29.296875 32.078125 29.296875 
L 19.671875 29.296875 
L 19.671875 0 
L 9.8125 0 
z
" id="DejaVuSans-80"/>
      <path d="M 18.109375 8.203125 
L 18.109375 -20.796875 
L 9.078125 -20.796875 
L 9.078125 54.6875 
L 18.109375 54.6875 
L 18.109375 46.390625 
Q 20.953125 51.265625 25.265625 53.625 
Q 29.59375 56 35.59375 56 
Q 45.5625 56 51.78125 48.09375 
Q 58.015625 40.1875 58.015625 27.296875 
Q 58.015625 14.40625 51.78125 6.484375 
Q 45.5625 -1.421875 35.59375 -1.421875 
Q 29.59375 -1.421875 25.265625 0.953125 
Q 20.953125 3.328125 18.109375 8.203125 
z
M 48.6875 27.296875 
Q 48.6875 37.203125 44.609375 42.84375 
Q 40.53125 48.484375 33.40625 48.484375 
Q 26.265625 48.484375 22.1875 42.84375 
Q 18.109375 37.203125 18.109375 27.296875 
Q 18.109375 17.390625 22.1875 11.75 
Q 26.265625 6.109375 33.40625 6.109375 
Q 40.53125 6.109375 44.609375 11.75 
Q 48.6875 17.390625 48.6875 27.296875 
z
" id="DejaVuSans-112"/>
      <path d="M 8.5 21.578125 
L 8.5 54.6875 
L 17.484375 54.6875 
L 17.484375 21.921875 
Q 17.484375 14.15625 20.5 10.265625 
Q 23.53125 6.390625 29.59375 6.390625 
Q 36.859375 6.390625 41.078125 11.03125 
Q 45.3125 15.671875 45.3125 23.6875 
L 45.3125 54.6875 
L 54.296875 54.6875 
L 54.296875 0 
L 45.3125 0 
L 45.3125 8.40625 
Q 42.046875 3.421875 37.71875 1 
Q 33.40625 -1.421875 27.6875 -1.421875 
Q 18.265625 -1.421875 13.375 4.4375 
Q 8.5 10.296875 8.5 21.578125 
z
M 31.109375 56 
z
" id="DejaVuSans-117"/>
      <path d="M 9.421875 75.984375 
L 18.40625 75.984375 
L 18.40625 0 
L 9.421875 0 
z
" id="DejaVuSans-108"/>
      <path d="M 17.921875 72.90625 
L 17.921875 45.796875 
L 9.625 45.796875 
L 9.625 72.90625 
z
" id="DejaVuSans-39"/>
      <path id="DejaVuSans-32"/>
      <path d="M 2.984375 54.6875 
L 12.5 54.6875 
L 29.59375 8.796875 
L 46.6875 54.6875 
L 56.203125 54.6875 
L 35.6875 0 
L 23.484375 0 
z
" id="DejaVuSans-118"/>
      <path d="M 45.40625 27.984375 
Q 45.40625 37.75 41.375 43.109375 
Q 37.359375 48.484375 30.078125 48.484375 
Q 22.859375 48.484375 18.828125 43.109375 
Q 14.796875 37.75 14.796875 27.984375 
Q 14.796875 18.265625 18.828125 12.890625 
Q 22.859375 7.515625 30.078125 7.515625 
Q 37.359375 7.515625 41.375 12.890625 
Q 45.40625 18.265625 45.40625 27.984375 
z
M 54.390625 6.78125 
Q 54.390625 -7.171875 48.1875 -13.984375 
Q 42 -20.796875 29.203125 -20.796875 
Q 24.46875 -20.796875 20.265625 -20.09375 
Q 16.0625 -19.390625 12.109375 -17.921875 
L 12.109375 -9.1875 
Q 16.0625 -11.328125 19.921875 -12.34375 
Q 23.78125 -13.375 27.78125 -13.375 
Q 36.625 -13.375 41.015625 -8.765625 
Q 45.40625 -4.15625 45.40625 5.171875 
L 45.40625 9.625 
Q 42.625 4.78125 38.28125 2.390625 
Q 33.9375 0 27.875 0 
Q 17.828125 0 11.671875 7.65625 
Q 5.515625 15.328125 5.515625 27.984375 
Q 5.515625 40.671875 11.671875 48.328125 
Q 17.828125 56 27.875 56 
Q 33.9375 56 38.28125 53.609375 
Q 42.625 51.21875 45.40625 46.390625 
L 45.40625 54.6875 
L 54.390625 54.6875 
z
" id="DejaVuSans-103"/>
      <path d="M 45.40625 46.390625 
L 45.40625 75.984375 
L 54.390625 75.984375 
L 54.390625 0 
L 45.40625 0 
L 45.40625 8.203125 
Q 42.578125 3.328125 38.25 0.953125 
Q 33.9375 -1.421875 27.875 -1.421875 
Q 17.96875 -1.421875 11.734375 6.484375 
Q 5.515625 14.40625 5.515625 27.296875 
Q 5.515625 40.1875 11.734375 48.09375 
Q 17.96875 56 27.875 56 
Q 33.9375 56 38.25 53.625 
Q 42.578125 51.265625 45.40625 46.390625 
z
M 14.796875 27.296875 
Q 14.796875 17.390625 18.875 11.75 
Q 22.953125 6.109375 30.078125 6.109375 
Q 37.203125 6.109375 41.296875 11.75 
Q 45.40625 17.390625 45.40625 27.296875 
Q 45.40625 37.203125 41.296875 42.84375 
Q 37.203125 48.484375 30.078125 48.484375 
Q 22.953125 48.484375 18.875 42.84375 
Q 14.796875 37.203125 14.796875 27.296875 
z
" id="DejaVuSans-100"/>
      <path d="M 48.6875 27.296875 
Q 48.6875 37.203125 44.609375 42.84375 
Q 40.53125 48.484375 33.40625 48.484375 
Q 26.265625 48.484375 22.1875 42.84375 
Q 18.109375 37.203125 18.109375 27.296875 
Q 18.109375 17.390625 22.1875 11.75 
Q 26.265625 6.109375 33.40625 6.109375 
Q 40.53125 6.109375 44.609375 11.75 
Q 48.6875 17.390625 48.6875 27.296875 
z
M 18.109375 46.390625 
Q 20.953125 51.265625 25.265625 53.625 
Q 29.59375 56 35.59375 56 
Q 45.5625 56 51.78125 48.09375 
Q 58.015625 40.1875 58.015625 27.296875 
Q 58.015625 14.40625 51.78125 6.484375 
Q 45.5625 -1.421875 35.59375 -1.421875 
Q 29.59375 -1.421875 25.265625 0.953125 
Q 20.953125 3.328125 18.109375 8.203125 
L 18.109375 0 
L 9.078125 0 
L 9.078125 75.984375 
L 18.109375 75.984375 
z
" id="DejaVuSans-98"/>
      <path d="M 37.109375 75.984375 
L 37.109375 68.5 
L 28.515625 68.5 
Q 23.6875 68.5 21.796875 66.546875 
Q 19.921875 64.59375 19.921875 59.515625 
L 19.921875 54.6875 
L 34.71875 54.6875 
L 34.71875 47.703125 
L 19.921875 47.703125 
L 19.921875 0 
L 10.890625 0 
L 10.890625 47.703125 
L 2.296875 47.703125 
L 2.296875 54.6875 
L 10.890625 54.6875 
L 10.890625 58.5 
Q 10.890625 67.625 15.140625 71.796875 
Q 19.390625 75.984375 28.609375 75.984375 
z
" id="DejaVuSans-102"/>
     </defs>
     <use xlink:href="#DejaVuSans-80"/>
     <use x="56.677734" xlink:href="#DejaVuSans-111"/>
     <use x="117.859375" xlink:href="#DejaVuSans-112"/>
     <use x="181.335938" xlink:href="#DejaVuSans-117"/>
     <use x="244.714844" xlink:href="#DejaVuSans-108"/>
     <use x="272.498047" xlink:href="#DejaVuSans-97"/>
     <use x="333.777344" xlink:href="#DejaVuSans-116"/>
     <use x="372.986328" xlink:href="#DejaVuSans-105"/>
     <use x="400.769531" xlink:href="#DejaVuSans-111"/>
     <use x="461.951172" xlink:href="#DejaVuSans-110"/>
     <use x="525.330078" xlink:href="#DejaVuSans-39"/>
     <use x="552.820312" xlink:href="#DejaVuSans-115"/>
     <use x="604.919922" xlink:href="#DejaVuSans-32"/>
     <use x="636.707031" xlink:href="#DejaVuSans-97"/>
     <use x="697.986328" xlink:href="#DejaVuSans-118"/>
     <use x="757.166016" xlink:href="#DejaVuSans-101"/>
     <use x="818.689453" xlink:href="#DejaVuSans-114"/>
     <use x="859.802734" xlink:href="#DejaVuSans-97"/>
     <use x="921.082031" xlink:href="#DejaVuSans-103"/>
     <use x="984.558594" xlink:href="#DejaVuSans-101"/>
     <use x="1046.082031" xlink:href="#DejaVuSans-32"/>
     <use x="1077.869141" xlink:href="#DejaVuSans-97"/>
     <use x="1139.148438" xlink:href="#DejaVuSans-110"/>
     <use x="1202.527344" xlink:href="#DejaVuSans-100"/>
     <use x="1266.003906" xlink:href="#DejaVuSans-32"/>
     <use x="1297.791016" xlink:href="#DejaVuSans-98"/>
     <use x="1361.267578" xlink:href="#DejaVuSans-101"/>
     <use x="1422.791016" xlink:href="#DejaVuSans-115"/>
     <use x="1474.890625" xlink:href="#DejaVuSans-116"/>
     <use x="1514.099609" xlink:href="#DejaVuSans-32"/>
     <use x="1545.886719" xlink:href="#DejaVuSans-102"/>
     <use x="1581.091797" xlink:href="#DejaVuSans-105"/>
     <use x="1608.875" xlink:href="#DejaVuSans-116"/>
     <use x="1648.083984" xlink:href="#DejaVuSans-110"/>
     <use x="1711.462891" xlink:href="#DejaVuSans-101"/>
     <use x="1772.986328" xlink:href="#DejaVuSans-115"/>
     <use x="1825.085938" xlink:href="#DejaVuSans-115"/>
    </g>
   </g>
   <g id="legend_1">
    <g id="patch_7">
     <path d="M 64.6 108.1845 
L 137.540625 108.1845 
Q 139.540625 108.1845 139.540625 106.1845 
L 139.540625 48.472 
Q 139.540625 46.472 137.540625 46.472 
L 64.6 46.472 
Q 62.6 46.472 62.6 48.472 
L 62.6 106.1845 
Q 62.6 108.1845 64.6 108.1845 
z
" style="fill:#ffffff;opacity:0.8;stroke:#cccccc;stroke-linejoin:miter;"/>
    </g>
    <g id="line2d_31">
     <path d="M 66.6 54.570438 
L 86.6 54.570438 
" style="fill:none;stroke:#0000ff;stroke-linecap:square;stroke-width:1.5;"/>
    </g>
    <g id="line2d_32"/>
    <g id="text_17">
     <!-- average -->
     <g transform="translate(94.6 58.070438)scale(0.1 -0.1)">
      <use xlink:href="#DejaVuSans-97"/>
      <use x="61.279297" xlink:href="#DejaVuSans-118"/>
      <use x="120.458984" xlink:href="#DejaVuSans-101"/>
      <use x="181.982422" xlink:href="#DejaVuSans-114"/>
      <use x="223.095703" xlink:href="#DejaVuSans-97"/>
      <use x="284.375" xlink:href="#DejaVuSans-103"/>
      <use x="347.851562" xlink:href="#DejaVuSans-101"/>
     </g>
    </g>
    <g id="line2d_33">
     <path d="M 66.6 69.248563 
L 86.6 69.248563 
" style="fill:none;stroke:#008000;stroke-dasharray:9.6,2.4,1.5,2.4;stroke-dashoffset:0;stroke-width:1.5;"/>
    </g>
    <g id="line2d_34"/>
    <g id="text_18">
     <!-- -1 sd -->
     <g transform="translate(94.6 72.748563)scale(0.1 -0.1)">
      <defs>
       <path d="M 4.890625 31.390625 
L 31.203125 31.390625 
L 31.203125 23.390625 
L 4.890625 23.390625 
z
" id="DejaVuSans-45"/>
      </defs>
      <use xlink:href="#DejaVuSans-45"/>
      <use x="36.083984" xlink:href="#DejaVuSans-49"/>
      <use x="99.707031" xlink:href="#DejaVuSans-32"/>
      <use x="131.494141" xlink:href="#DejaVuSans-115"/>
      <use x="183.59375" xlink:href="#DejaVuSans-100"/>
     </g>
    </g>
    <g id="line2d_35">
     <path d="M 66.6 83.926688 
L 86.6 83.926688 
" style="fill:none;stroke:#008000;stroke-dasharray:9.6,2.4,1.5,2.4;stroke-dashoffset:0;stroke-width:1.5;"/>
    </g>
    <g id="line2d_36"/>
    <g id="text_19">
     <!-- +1 sd -->
     <g transform="translate(94.6 87.426688)scale(0.1 -0.1)">
      <defs>
       <path d="M 46 62.703125 
L 46 35.5 
L 73.1875 35.5 
L 73.1875 27.203125 
L 46 27.203125 
L 46 0 
L 37.796875 0 
L 37.796875 27.203125 
L 10.59375 27.203125 
L 10.59375 35.5 
L 37.796875 35.5 
L 37.796875 62.703125 
z
" id="DejaVuSans-43"/>
      </defs>
      <use xlink:href="#DejaVuSans-43"/>
      <use x="83.789062" xlink:href="#DejaVuSans-49"/>
      <use x="147.412109" xlink:href="#DejaVuSans-32"/>
      <use x="179.199219" xlink:href="#DejaVuSans-115"/>
      <use x="231.298828" xlink:href="#DejaVuSans-100"/>
     </g>
    </g>
    <g id="line2d_37">
     <path d="M 66.6 98.604813 
L 86.6 98.604813 
" style="fill:none;stroke:#ff0000;stroke-linecap:square;stroke-width:1.5;"/>
    </g>
    <g id="line2d_38"/>
    <g id="text_20">
     <!-- best -->
     <g transform="translate(94.6 102.104813)scale(0.1 -0.1)">
      <use xlink:href="#DejaVuSans-98"/>
      <use x="63.476562" xlink:href="#DejaVuSans-101"/>
      <use x="125" xlink:href="#DejaVuSans-115"/>
      <use x="177.099609" xlink:href="#DejaVuSans-116"/>
     </g>
    </g>
   </g>
  </g>
 </g>
 <defs>
  <clipPath id="p72ed507dba">
   <rect height="266.112" width="357.12" x="57.6" y="41.472"/>
  </clipPath>
 </defs>
</svg>
