<?xml version="1.0" encoding="utf-8" standalone="no"?>
<!DOCTYPE svg PUBLIC "-//W3C//DTD SVG 1.1//EN"
  "http://www.w3.org/Graphics/SVG/1.1/DTD/svg11.dtd">
<!-- Created with matplotlib (https://matplotlib.org/) -->
<svg height="345.6pt" version="1.1" viewBox="0 0 460.8 345.6" width="460.8pt" xmlns="http://www.w3.org/2000/svg" xmlns:xlink="http://www.w3.org/1999/xlink">
 <metadata>
  <rdf:RDF xmlns:cc="http://creativecommons.org/ns#" xmlns:dc="http://purl.org/dc/elements/1.1/" xmlns:rdf="http://www.w3.org/1999/02/22-rdf-syntax-ns#">
   <cc:Work>
    <dc:type rdf:resource="http://purl.org/dc/dcmitype/StillImage"/>
    <dc:date>2021-06-15T22:46:57.197223</dc:date>
    <dc:format>image/svg+xml</dc:format>
    <dc:creator>
     <cc:Agent>
      <dc:title>Matplotlib v3.3.0, https://matplotlib.org/</dc:title>
     </cc:Agent>
    </dc:creator>
   </cc:Work>
  </rdf:RDF>
 </metadata>
 <defs>
  <style type="text/css">*{stroke-linecap:butt;stroke-linejoin:round;}</style>
 </defs>
 <g id="figure_1">
  <g id="patch_1">
   <path d="M 0 345.6 
L 460.8 345.6 
L 460.8 0 
L 0 0 
z
" style="fill:#ffffff;"/>
  </g>
  <g id="axes_1">
   <g id="patch_2">
    <path d="M 57.6 307.584 
L 414.72 307.584 
L 414.72 41.472 
L 57.6 41.472 
z
" style="fill:#ffffff;"/>
   </g>
   <g id="matplotlib.axis_1">
    <g id="xtick_1">
     <g id="line2d_1">
      <path clip-path="url(#p70783b7806)" d="M 73.832727 307.584 
L 73.832727 41.472 
" style="fill:none;stroke:#b0b0b0;stroke-linecap:square;stroke-width:0.8;"/>
     </g>
     <g id="line2d_2">
      <defs>
       <path d="M 0 0 
L 0 3.5 
" id="m3a5930505e" style="stroke:#000000;stroke-width:0.8;"/>
      </defs>
      <g>
       <use style="stroke:#000000;stroke-width:0.8;" x="73.832727" xlink:href="#m3a5930505e" y="307.584"/>
      </g>
     </g>
     <g id="text_1">
      <!-- 0 -->
      <g transform="translate(70.651477 322.182437)scale(0.1 -0.1)">
       <defs>
        <path d="M 31.78125 66.40625 
Q 24.171875 66.40625 20.328125 58.90625 
Q 16.5 51.421875 16.5 36.375 
Q 16.5 21.390625 20.328125 13.890625 
Q 24.171875 6.390625 31.78125 6.390625 
Q 39.453125 6.390625 43.28125 13.890625 
Q 47.125 21.390625 47.125 36.375 
Q 47.125 51.421875 43.28125 58.90625 
Q 39.453125 66.40625 31.78125 66.40625 
z
M 31.78125 74.21875 
Q 44.046875 74.21875 50.515625 64.515625 
Q 56.984375 54.828125 56.984375 36.375 
Q 56.984375 17.96875 50.515625 8.265625 
Q 44.046875 -1.421875 31.78125 -1.421875 
Q 19.53125 -1.421875 13.0625 8.265625 
Q 6.59375 17.96875 6.59375 36.375 
Q 6.59375 54.828125 13.0625 64.515625 
Q 19.53125 74.21875 31.78125 74.21875 
z
" id="DejaVuSans-48"/>
       </defs>
       <use xlink:href="#DejaVuSans-48"/>
      </g>
     </g>
    </g>
    <g id="xtick_2">
     <g id="line2d_3">
      <path clip-path="url(#p70783b7806)" d="M 138.893758 307.584 
L 138.893758 41.472 
" style="fill:none;stroke:#b0b0b0;stroke-linecap:square;stroke-width:0.8;"/>
     </g>
     <g id="line2d_4">
      <g>
       <use style="stroke:#000000;stroke-width:0.8;" x="138.893758" xlink:href="#m3a5930505e" y="307.584"/>
      </g>
     </g>
     <g id="text_2">
      <!-- 100 -->
      <g transform="translate(129.350008 322.182437)scale(0.1 -0.1)">
       <defs>
        <path d="M 12.40625 8.296875 
L 28.515625 8.296875 
L 28.515625 63.921875 
L 10.984375 60.40625 
L 10.984375 69.390625 
L 28.421875 72.90625 
L 38.28125 72.90625 
L 38.28125 8.296875 
L 54.390625 8.296875 
L 54.390625 0 
L 12.40625 0 
z
" id="DejaVuSans-49"/>
       </defs>
       <use xlink:href="#DejaVuSans-49"/>
       <use x="63.623047" xlink:href="#DejaVuSans-48"/>
       <use x="127.246094" xlink:href="#DejaVuSans-48"/>
      </g>
     </g>
    </g>
    <g id="xtick_3">
     <g id="line2d_5">
      <path clip-path="url(#p70783b7806)" d="M 203.95479 307.584 
L 203.95479 41.472 
" style="fill:none;stroke:#b0b0b0;stroke-linecap:square;stroke-width:0.8;"/>
     </g>
     <g id="line2d_6">
      <g>
       <use style="stroke:#000000;stroke-width:0.8;" x="203.95479" xlink:href="#m3a5930505e" y="307.584"/>
      </g>
     </g>
     <g id="text_3">
      <!-- 200 -->
      <g transform="translate(194.41104 322.182437)scale(0.1 -0.1)">
       <defs>
        <path d="M 19.1875 8.296875 
L 53.609375 8.296875 
L 53.609375 0 
L 7.328125 0 
L 7.328125 8.296875 
Q 12.9375 14.109375 22.625 23.890625 
Q 32.328125 33.6875 34.8125 36.53125 
Q 39.546875 41.84375 41.421875 45.53125 
Q 43.3125 49.21875 43.3125 52.78125 
Q 43.3125 58.59375 39.234375 62.25 
Q 35.15625 65.921875 28.609375 65.921875 
Q 23.96875 65.921875 18.8125 64.3125 
Q 13.671875 62.703125 7.8125 59.421875 
L 7.8125 69.390625 
Q 13.765625 71.78125 18.9375 73 
Q 24.125 74.21875 28.421875 74.21875 
Q 39.75 74.21875 46.484375 68.546875 
Q 53.21875 62.890625 53.21875 53.421875 
Q 53.21875 48.921875 51.53125 44.890625 
Q 49.859375 40.875 45.40625 35.40625 
Q 44.1875 33.984375 37.640625 27.21875 
Q 31.109375 20.453125 19.1875 8.296875 
z
" id="DejaVuSans-50"/>
       </defs>
       <use xlink:href="#DejaVuSans-50"/>
       <use x="63.623047" xlink:href="#DejaVuSans-48"/>
       <use x="127.246094" xlink:href="#DejaVuSans-48"/>
      </g>
     </g>
    </g>
    <g id="xtick_4">
     <g id="line2d_7">
      <path clip-path="url(#p70783b7806)" d="M 269.015821 307.584 
L 269.015821 41.472 
" style="fill:none;stroke:#b0b0b0;stroke-linecap:square;stroke-width:0.8;"/>
     </g>
     <g id="line2d_8">
      <g>
       <use style="stroke:#000000;stroke-width:0.8;" x="269.015821" xlink:href="#m3a5930505e" y="307.584"/>
      </g>
     </g>
     <g id="text_4">
      <!-- 300 -->
      <g transform="translate(259.472071 322.182437)scale(0.1 -0.1)">
       <defs>
        <path d="M 40.578125 39.3125 
Q 47.65625 37.796875 51.625 33 
Q 55.609375 28.21875 55.609375 21.1875 
Q 55.609375 10.40625 48.1875 4.484375 
Q 40.765625 -1.421875 27.09375 -1.421875 
Q 22.515625 -1.421875 17.65625 -0.515625 
Q 12.796875 0.390625 7.625 2.203125 
L 7.625 11.71875 
Q 11.71875 9.328125 16.59375 8.109375 
Q 21.484375 6.890625 26.8125 6.890625 
Q 36.078125 6.890625 40.9375 10.546875 
Q 45.796875 14.203125 45.796875 21.1875 
Q 45.796875 27.640625 41.28125 31.265625 
Q 36.765625 34.90625 28.71875 34.90625 
L 20.21875 34.90625 
L 20.21875 43.015625 
L 29.109375 43.015625 
Q 36.375 43.015625 40.234375 45.921875 
Q 44.09375 48.828125 44.09375 54.296875 
Q 44.09375 59.90625 40.109375 62.90625 
Q 36.140625 65.921875 28.71875 65.921875 
Q 24.65625 65.921875 20.015625 65.03125 
Q 15.375 64.15625 9.8125 62.3125 
L 9.8125 71.09375 
Q 15.4375 72.65625 20.34375 73.4375 
Q 25.25 74.21875 29.59375 74.21875 
Q 40.828125 74.21875 47.359375 69.109375 
Q 53.90625 64.015625 53.90625 55.328125 
Q 53.90625 49.265625 50.4375 45.09375 
Q 46.96875 40.921875 40.578125 39.3125 
z
" id="DejaVuSans-51"/>
       </defs>
       <use xlink:href="#DejaVuSans-51"/>
       <use x="63.623047" xlink:href="#DejaVuSans-48"/>
       <use x="127.246094" xlink:href="#DejaVuSans-48"/>
      </g>
     </g>
    </g>
    <g id="xtick_5">
     <g id="line2d_9">
      <path clip-path="url(#p70783b7806)" d="M 334.076852 307.584 
L 334.076852 41.472 
" style="fill:none;stroke:#b0b0b0;stroke-linecap:square;stroke-width:0.8;"/>
     </g>
     <g id="line2d_10">
      <g>
       <use style="stroke:#000000;stroke-width:0.8;" x="334.076852" xlink:href="#m3a5930505e" y="307.584"/>
      </g>
     </g>
     <g id="text_5">
      <!-- 400 -->
      <g transform="translate(324.533102 322.182437)scale(0.1 -0.1)">
       <defs>
        <path d="M 37.796875 64.3125 
L 12.890625 25.390625 
L 37.796875 25.390625 
z
M 35.203125 72.90625 
L 47.609375 72.90625 
L 47.609375 25.390625 
L 58.015625 25.390625 
L 58.015625 17.1875 
L 47.609375 17.1875 
L 47.609375 0 
L 37.796875 0 
L 37.796875 17.1875 
L 4.890625 17.1875 
L 4.890625 26.703125 
z
" id="DejaVuSans-52"/>
       </defs>
       <use xlink:href="#DejaVuSans-52"/>
       <use x="63.623047" xlink:href="#DejaVuSans-48"/>
       <use x="127.246094" xlink:href="#DejaVuSans-48"/>
      </g>
     </g>
    </g>
    <g id="xtick_6">
     <g id="line2d_11">
      <path clip-path="url(#p70783b7806)" d="M 399.137883 307.584 
L 399.137883 41.472 
" style="fill:none;stroke:#b0b0b0;stroke-linecap:square;stroke-width:0.8;"/>
     </g>
     <g id="line2d_12">
      <g>
       <use style="stroke:#000000;stroke-width:0.8;" x="399.137883" xlink:href="#m3a5930505e" y="307.584"/>
      </g>
     </g>
     <g id="text_6">
      <!-- 500 -->
      <g transform="translate(389.594133 322.182437)scale(0.1 -0.1)">
       <defs>
        <path d="M 10.796875 72.90625 
L 49.515625 72.90625 
L 49.515625 64.59375 
L 19.828125 64.59375 
L 19.828125 46.734375 
Q 21.96875 47.46875 24.109375 47.828125 
Q 26.265625 48.1875 28.421875 48.1875 
Q 40.625 48.1875 47.75 41.5 
Q 54.890625 34.8125 54.890625 23.390625 
Q 54.890625 11.625 47.5625 5.09375 
Q 40.234375 -1.421875 26.90625 -1.421875 
Q 22.3125 -1.421875 17.546875 -0.640625 
Q 12.796875 0.140625 7.71875 1.703125 
L 7.71875 11.625 
Q 12.109375 9.234375 16.796875 8.0625 
Q 21.484375 6.890625 26.703125 6.890625 
Q 35.15625 6.890625 40.078125 11.328125 
Q 45.015625 15.765625 45.015625 23.390625 
Q 45.015625 31 40.078125 35.4375 
Q 35.15625 39.890625 26.703125 39.890625 
Q 22.75 39.890625 18.8125 39.015625 
Q 14.890625 38.140625 10.796875 36.28125 
z
" id="DejaVuSans-53"/>
       </defs>
       <use xlink:href="#DejaVuSans-53"/>
       <use x="63.623047" xlink:href="#DejaVuSans-48"/>
       <use x="127.246094" xlink:href="#DejaVuSans-48"/>
      </g>
     </g>
    </g>
    <g id="text_7">
     <!-- Generations -->
     <g transform="translate(205.662344 335.860562)scale(0.1 -0.1)">
      <defs>
       <path d="M 59.515625 10.40625 
L 59.515625 29.984375 
L 43.40625 29.984375 
L 43.40625 38.09375 
L 69.28125 38.09375 
L 69.28125 6.78125 
Q 63.578125 2.734375 56.6875 0.65625 
Q 49.8125 -1.421875 42 -1.421875 
Q 24.90625 -1.421875 15.25 8.5625 
Q 5.609375 18.5625 5.609375 36.375 
Q 5.609375 54.25 15.25 64.234375 
Q 24.90625 74.21875 42 74.21875 
Q 49.125 74.21875 55.546875 72.453125 
Q 61.96875 70.703125 67.390625 67.28125 
L 67.390625 56.78125 
Q 61.921875 61.421875 55.765625 63.765625 
Q 49.609375 66.109375 42.828125 66.109375 
Q 29.4375 66.109375 22.71875 58.640625 
Q 16.015625 51.171875 16.015625 36.375 
Q 16.015625 21.625 22.71875 14.15625 
Q 29.4375 6.6875 42.828125 6.6875 
Q 48.046875 6.6875 52.140625 7.59375 
Q 56.25 8.5 59.515625 10.40625 
z
" id="DejaVuSans-71"/>
       <path d="M 56.203125 29.59375 
L 56.203125 25.203125 
L 14.890625 25.203125 
Q 15.484375 15.921875 20.484375 11.0625 
Q 25.484375 6.203125 34.421875 6.203125 
Q 39.59375 6.203125 44.453125 7.46875 
Q 49.3125 8.734375 54.109375 11.28125 
L 54.109375 2.78125 
Q 49.265625 0.734375 44.1875 -0.34375 
Q 39.109375 -1.421875 33.890625 -1.421875 
Q 20.796875 -1.421875 13.15625 6.1875 
Q 5.515625 13.8125 5.515625 26.8125 
Q 5.515625 40.234375 12.765625 48.109375 
Q 20.015625 56 32.328125 56 
Q 43.359375 56 49.78125 48.890625 
Q 56.203125 41.796875 56.203125 29.59375 
z
M 47.21875 32.234375 
Q 47.125 39.59375 43.09375 43.984375 
Q 39.0625 48.390625 32.421875 48.390625 
Q 24.90625 48.390625 20.390625 44.140625 
Q 15.875 39.890625 15.1875 32.171875 
z
" id="DejaVuSans-101"/>
       <path d="M 54.890625 33.015625 
L 54.890625 0 
L 45.90625 0 
L 45.90625 32.71875 
Q 45.90625 40.484375 42.875 44.328125 
Q 39.84375 48.1875 33.796875 48.1875 
Q 26.515625 48.1875 22.3125 43.546875 
Q 18.109375 38.921875 18.109375 30.90625 
L 18.109375 0 
L 9.078125 0 
L 9.078125 54.6875 
L 18.109375 54.6875 
L 18.109375 46.1875 
Q 21.34375 51.125 25.703125 53.5625 
Q 30.078125 56 35.796875 56 
Q 45.21875 56 50.046875 50.171875 
Q 54.890625 44.34375 54.890625 33.015625 
z
" id="DejaVuSans-110"/>
       <path d="M 41.109375 46.296875 
Q 39.59375 47.171875 37.8125 47.578125 
Q 36.03125 48 33.890625 48 
Q 26.265625 48 22.1875 43.046875 
Q 18.109375 38.09375 18.109375 28.8125 
L 18.109375 0 
L 9.078125 0 
L 9.078125 54.6875 
L 18.109375 54.6875 
L 18.109375 46.1875 
Q 20.953125 51.171875 25.484375 53.578125 
Q 30.03125 56 36.53125 56 
Q 37.453125 56 38.578125 55.875 
Q 39.703125 55.765625 41.0625 55.515625 
z
" id="DejaVuSans-114"/>
       <path d="M 34.28125 27.484375 
Q 23.390625 27.484375 19.1875 25 
Q 14.984375 22.515625 14.984375 16.5 
Q 14.984375 11.71875 18.140625 8.90625 
Q 21.296875 6.109375 26.703125 6.109375 
Q 34.1875 6.109375 38.703125 11.40625 
Q 43.21875 16.703125 43.21875 25.484375 
L 43.21875 27.484375 
z
M 52.203125 31.203125 
L 52.203125 0 
L 43.21875 0 
L 43.21875 8.296875 
Q 40.140625 3.328125 35.546875 0.953125 
Q 30.953125 -1.421875 24.3125 -1.421875 
Q 15.921875 -1.421875 10.953125 3.296875 
Q 6 8.015625 6 15.921875 
Q 6 25.140625 12.171875 29.828125 
Q 18.359375 34.515625 30.609375 34.515625 
L 43.21875 34.515625 
L 43.21875 35.40625 
Q 43.21875 41.609375 39.140625 45 
Q 35.0625 48.390625 27.6875 48.390625 
Q 23 48.390625 18.546875 47.265625 
Q 14.109375 46.140625 10.015625 43.890625 
L 10.015625 52.203125 
Q 14.9375 54.109375 19.578125 55.046875 
Q 24.21875 56 28.609375 56 
Q 40.484375 56 46.34375 49.84375 
Q 52.203125 43.703125 52.203125 31.203125 
z
" id="DejaVuSans-97"/>
       <path d="M 18.3125 70.21875 
L 18.3125 54.6875 
L 36.8125 54.6875 
L 36.8125 47.703125 
L 18.3125 47.703125 
L 18.3125 18.015625 
Q 18.3125 11.328125 20.140625 9.421875 
Q 21.96875 7.515625 27.59375 7.515625 
L 36.8125 7.515625 
L 36.8125 0 
L 27.59375 0 
Q 17.1875 0 13.234375 3.875 
Q 9.28125 7.765625 9.28125 18.015625 
L 9.28125 47.703125 
L 2.6875 47.703125 
L 2.6875 54.6875 
L 9.28125 54.6875 
L 9.28125 70.21875 
z
" id="DejaVuSans-116"/>
       <path d="M 9.421875 54.6875 
L 18.40625 54.6875 
L 18.40625 0 
L 9.421875 0 
z
M 9.421875 75.984375 
L 18.40625 75.984375 
L 18.40625 64.59375 
L 9.421875 64.59375 
z
" id="DejaVuSans-105"/>
       <path d="M 30.609375 48.390625 
Q 23.390625 48.390625 19.1875 42.75 
Q 14.984375 37.109375 14.984375 27.296875 
Q 14.984375 17.484375 19.15625 11.84375 
Q 23.34375 6.203125 30.609375 6.203125 
Q 37.796875 6.203125 41.984375 11.859375 
Q 46.1875 17.53125 46.1875 27.296875 
Q 46.1875 37.015625 41.984375 42.703125 
Q 37.796875 48.390625 30.609375 48.390625 
z
M 30.609375 56 
Q 42.328125 56 49.015625 48.375 
Q 55.71875 40.765625 55.71875 27.296875 
Q 55.71875 13.875 49.015625 6.21875 
Q 42.328125 -1.421875 30.609375 -1.421875 
Q 18.84375 -1.421875 12.171875 6.21875 
Q 5.515625 13.875 5.515625 27.296875 
Q 5.515625 40.765625 12.171875 48.375 
Q 18.84375 56 30.609375 56 
z
" id="DejaVuSans-111"/>
       <path d="M 44.28125 53.078125 
L 44.28125 44.578125 
Q 40.484375 46.53125 36.375 47.5 
Q 32.28125 48.484375 27.875 48.484375 
Q 21.1875 48.484375 17.84375 46.4375 
Q 14.5 44.390625 14.5 40.28125 
Q 14.5 37.15625 16.890625 35.375 
Q 19.28125 33.59375 26.515625 31.984375 
L 29.59375 31.296875 
Q 39.15625 29.25 43.1875 25.515625 
Q 47.21875 21.78125 47.21875 15.09375 
Q 47.21875 7.46875 41.1875 3.015625 
Q 35.15625 -1.421875 24.609375 -1.421875 
Q 20.21875 -1.421875 15.453125 -0.5625 
Q 10.6875 0.296875 5.421875 2 
L 5.421875 11.28125 
Q 10.40625 8.6875 15.234375 7.390625 
Q 20.0625 6.109375 24.8125 6.109375 
Q 31.15625 6.109375 34.5625 8.28125 
Q 37.984375 10.453125 37.984375 14.40625 
Q 37.984375 18.0625 35.515625 20.015625 
Q 33.0625 21.96875 24.703125 23.78125 
L 21.578125 24.515625 
Q 13.234375 26.265625 9.515625 29.90625 
Q 5.8125 33.546875 5.8125 39.890625 
Q 5.8125 47.609375 11.28125 51.796875 
Q 16.75 56 26.8125 56 
Q 31.78125 56 36.171875 55.265625 
Q 40.578125 54.546875 44.28125 53.078125 
z
" id="DejaVuSans-115"/>
      </defs>
      <use xlink:href="#DejaVuSans-71"/>
      <use x="77.490234" xlink:href="#DejaVuSans-101"/>
      <use x="139.013672" xlink:href="#DejaVuSans-110"/>
      <use x="202.392578" xlink:href="#DejaVuSans-101"/>
      <use x="263.916016" xlink:href="#DejaVuSans-114"/>
      <use x="305.029297" xlink:href="#DejaVuSans-97"/>
      <use x="366.308594" xlink:href="#DejaVuSans-116"/>
      <use x="405.517578" xlink:href="#DejaVuSans-105"/>
      <use x="433.300781" xlink:href="#DejaVuSans-111"/>
      <use x="494.482422" xlink:href="#DejaVuSans-110"/>
      <use x="557.861328" xlink:href="#DejaVuSans-115"/>
     </g>
    </g>
   </g>
   <g id="matplotlib.axis_2">
    <g id="ytick_1">
     <g id="line2d_13">
      <path clip-path="url(#p70783b7806)" d="M 57.6 279.809474 
L 414.72 279.809474 
" style="fill:none;stroke:#b0b0b0;stroke-linecap:square;stroke-width:0.8;"/>
     </g>
     <g id="line2d_14">
      <defs>
       <path d="M 0 0 
L -3.5 0 
" id="m8979db259b" style="stroke:#000000;stroke-width:0.8;"/>
      </defs>
      <g>
       <use style="stroke:#000000;stroke-width:0.8;" x="57.6" xlink:href="#m8979db259b" y="279.809474"/>
      </g>
     </g>
     <g id="text_8">
      <!-- 300 -->
      <g transform="translate(31.5125 283.608693)scale(0.1 -0.1)">
       <use xlink:href="#DejaVuSans-51"/>
       <use x="63.623047" xlink:href="#DejaVuSans-48"/>
       <use x="127.246094" xlink:href="#DejaVuSans-48"/>
      </g>
     </g>
    </g>
    <g id="ytick_2">
     <g id="line2d_15">
      <path clip-path="url(#p70783b7806)" d="M 57.6 231.363762 
L 414.72 231.363762 
" style="fill:none;stroke:#b0b0b0;stroke-linecap:square;stroke-width:0.8;"/>
     </g>
     <g id="line2d_16">
      <g>
       <use style="stroke:#000000;stroke-width:0.8;" x="57.6" xlink:href="#m8979db259b" y="231.363762"/>
      </g>
     </g>
     <g id="text_9">
      <!-- 400 -->
      <g transform="translate(31.5125 235.162981)scale(0.1 -0.1)">
       <use xlink:href="#DejaVuSans-52"/>
       <use x="63.623047" xlink:href="#DejaVuSans-48"/>
       <use x="127.246094" xlink:href="#DejaVuSans-48"/>
      </g>
     </g>
    </g>
    <g id="ytick_3">
     <g id="line2d_17">
      <path clip-path="url(#p70783b7806)" d="M 57.6 182.918051 
L 414.72 182.918051 
" style="fill:none;stroke:#b0b0b0;stroke-linecap:square;stroke-width:0.8;"/>
     </g>
     <g id="line2d_18">
      <g>
       <use style="stroke:#000000;stroke-width:0.8;" x="57.6" xlink:href="#m8979db259b" y="182.918051"/>
      </g>
     </g>
     <g id="text_10">
      <!-- 500 -->
      <g transform="translate(31.5125 186.717269)scale(0.1 -0.1)">
       <use xlink:href="#DejaVuSans-53"/>
       <use x="63.623047" xlink:href="#DejaVuSans-48"/>
       <use x="127.246094" xlink:href="#DejaVuSans-48"/>
      </g>
     </g>
    </g>
    <g id="ytick_4">
     <g id="line2d_19">
      <path clip-path="url(#p70783b7806)" d="M 57.6 134.472339 
L 414.72 134.472339 
" style="fill:none;stroke:#b0b0b0;stroke-linecap:square;stroke-width:0.8;"/>
     </g>
     <g id="line2d_20">
      <g>
       <use style="stroke:#000000;stroke-width:0.8;" x="57.6" xlink:href="#m8979db259b" y="134.472339"/>
      </g>
     </g>
     <g id="text_11">
      <!-- 600 -->
      <g transform="translate(31.5125 138.271558)scale(0.1 -0.1)">
       <defs>
        <path d="M 33.015625 40.375 
Q 26.375 40.375 22.484375 35.828125 
Q 18.609375 31.296875 18.609375 23.390625 
Q 18.609375 15.53125 22.484375 10.953125 
Q 26.375 6.390625 33.015625 6.390625 
Q 39.65625 6.390625 43.53125 10.953125 
Q 47.40625 15.53125 47.40625 23.390625 
Q 47.40625 31.296875 43.53125 35.828125 
Q 39.65625 40.375 33.015625 40.375 
z
M 52.59375 71.296875 
L 52.59375 62.3125 
Q 48.875 64.0625 45.09375 64.984375 
Q 41.3125 65.921875 37.59375 65.921875 
Q 27.828125 65.921875 22.671875 59.328125 
Q 17.53125 52.734375 16.796875 39.40625 
Q 19.671875 43.65625 24.015625 45.921875 
Q 28.375 48.1875 33.59375 48.1875 
Q 44.578125 48.1875 50.953125 41.515625 
Q 57.328125 34.859375 57.328125 23.390625 
Q 57.328125 12.15625 50.6875 5.359375 
Q 44.046875 -1.421875 33.015625 -1.421875 
Q 20.359375 -1.421875 13.671875 8.265625 
Q 6.984375 17.96875 6.984375 36.375 
Q 6.984375 53.65625 15.1875 63.9375 
Q 23.390625 74.21875 37.203125 74.21875 
Q 40.921875 74.21875 44.703125 73.484375 
Q 48.484375 72.75 52.59375 71.296875 
z
" id="DejaVuSans-54"/>
       </defs>
       <use xlink:href="#DejaVuSans-54"/>
       <use x="63.623047" xlink:href="#DejaVuSans-48"/>
       <use x="127.246094" xlink:href="#DejaVuSans-48"/>
      </g>
     </g>
    </g>
    <g id="ytick_5">
     <g id="line2d_21">
      <path clip-path="url(#p70783b7806)" d="M 57.6 86.026627 
L 414.72 86.026627 
" style="fill:none;stroke:#b0b0b0;stroke-linecap:square;stroke-width:0.8;"/>
     </g>
     <g id="line2d_22">
      <g>
       <use style="stroke:#000000;stroke-width:0.8;" x="57.6" xlink:href="#m8979db259b" y="86.026627"/>
      </g>
     </g>
     <g id="text_12">
      <!-- 700 -->
      <g transform="translate(31.5125 89.825846)scale(0.1 -0.1)">
       <defs>
        <path d="M 8.203125 72.90625 
L 55.078125 72.90625 
L 55.078125 68.703125 
L 28.609375 0 
L 18.3125 0 
L 43.21875 64.59375 
L 8.203125 64.59375 
z
" id="DejaVuSans-55"/>
       </defs>
       <use xlink:href="#DejaVuSans-55"/>
       <use x="63.623047" xlink:href="#DejaVuSans-48"/>
       <use x="127.246094" xlink:href="#DejaVuSans-48"/>
      </g>
     </g>
    </g>
    <g id="text_13">
     <!-- Fitness -->
     <g transform="translate(25.432812 191.845187)rotate(-90)scale(0.1 -0.1)">
      <defs>
       <path d="M 9.8125 72.90625 
L 51.703125 72.90625 
L 51.703125 64.59375 
L 19.671875 64.59375 
L 19.671875 43.109375 
L 48.578125 43.109375 
L 48.578125 34.8125 
L 19.671875 34.8125 
L 19.671875 0 
L 9.8125 0 
z
" id="DejaVuSans-70"/>
      </defs>
      <use xlink:href="#DejaVuSans-70"/>
      <use x="50.269531" xlink:href="#DejaVuSans-105"/>
      <use x="78.052734" xlink:href="#DejaVuSans-116"/>
      <use x="117.261719" xlink:href="#DejaVuSans-110"/>
      <use x="180.640625" xlink:href="#DejaVuSans-101"/>
      <use x="242.164062" xlink:href="#DejaVuSans-115"/>
      <use x="294.263672" xlink:href="#DejaVuSans-115"/>
     </g>
    </g>
   </g>
   <g id="line2d_23">
    <path clip-path="url(#p70783b7806)" d="M 73.832727 263.672208 
L 74.483338 263.646047 
L 75.133948 264.106281 
L 75.784558 264.298264 
L 76.435169 263.109614 
L 77.085779 263.356268 
L 77.736389 263.889943 
L 78.386999 263.336006 
L 79.03761 263.482012 
L 79.68822 263.796229 
L 81.640051 263.514275 
L 82.290661 263.595663 
L 82.941272 263.42901 
L 83.591882 263.502648 
L 84.242492 263.787429 
L 84.893103 263.332549 
L 85.543713 263.186828 
L 86.194323 263.18217 
L 86.844934 263.781667 
L 88.146154 263.128647 
L 88.796764 263.713065 
L 89.447375 263.459681 
L 90.097985 263.354931 
L 90.748595 263.507323 
L 92.049816 263.00606 
L 92.700426 263.067444 
L 93.351037 264.12085 
L 94.001647 262.764584 
L 94.652257 262.618302 
L 95.302868 262.164786 
L 95.953478 264.479524 
L 96.604088 261.20731 
L 97.254698 260.245236 
L 97.905309 261.55513 
L 98.555919 258.196755 
L 99.206529 258.160603 
L 99.85714 256.575107 
L 100.50775 258.189964 
L 101.15836 261.603576 
L 101.808971 260.383223 
L 102.459581 263.688084 
L 103.110191 260.99316 
L 103.760802 256.272533 
L 104.411412 255.968312 
L 105.062022 257.309133 
L 105.712633 255.1862 
L 106.363243 255.978099 
L 107.013853 265.270867 
L 107.664463 264.673859 
L 108.315074 258.605912 
L 108.965684 259.481849 
L 109.616294 258.125174 
L 110.266905 251.089486 
L 110.917515 262.319584 
L 111.568125 255.522354 
L 112.218736 257.82842 
L 112.869346 258.137143 
L 113.519956 255.971334 
L 114.170567 252.737435 
L 114.821177 260.124696 
L 115.471787 260.729693 
L 116.122398 257.742453 
L 116.773008 258.224751 
L 117.423618 252.936638 
L 118.074228 252.607207 
L 119.375449 249.859472 
L 120.026059 250.08803 
L 121.32728 245.039987 
L 121.97789 235.539783 
L 122.628501 240.382494 
L 123.279111 234.803897 
L 123.929721 227.200309 
L 124.580332 233.31128 
L 125.230942 235.985483 
L 125.881552 218.259197 
L 126.532163 230.03635 
L 127.182773 229.115881 
L 127.833383 221.350034 
L 128.483993 222.054586 
L 129.134604 233.710793 
L 129.785214 221.247722 
L 130.435824 231.065259 
L 131.086435 228.951166 
L 131.737045 235.323268 
L 132.387655 236.968266 
L 133.038266 223.82618 
L 133.688876 221.22816 
L 134.339486 226.907716 
L 134.990097 223.65605 
L 135.640707 216.70409 
L 136.291317 220.802597 
L 136.941927 222.401306 
L 137.592538 214.335095 
L 138.243148 220.691316 
L 138.893758 216.067389 
L 139.544369 207.495855 
L 140.194979 212.863256 
L 140.845589 234.084552 
L 141.4962 217.637477 
L 142.79742 211.961495 
L 143.448031 220.54422 
L 144.749251 206.675636 
L 145.399862 216.096168 
L 146.050472 206.91514 
L 146.701082 205.198375 
L 147.351692 213.84656 
L 148.002303 213.889394 
L 148.652913 215.073892 
L 149.303523 213.88455 
L 149.954134 211.138901 
L 150.604744 202.804084 
L 151.255354 218.927795 
L 151.905965 222.197834 
L 152.556575 221.655242 
L 153.207185 210.38012 
L 153.857796 210.92848 
L 154.508406 227.435343 
L 155.159016 213.177242 
L 155.809627 212.681591 
L 156.460237 213.081386 
L 157.110847 205.893062 
L 157.761457 222.604386 
L 158.412068 218.048532 
L 159.062678 226.302339 
L 161.014509 217.651319 
L 162.31573 216.901998 
L 162.96634 227.264158 
L 163.61695 220.039577 
L 164.267561 222.711449 
L 164.918171 235.25313 
L 165.568781 226.808916 
L 166.219392 228.770492 
L 166.870002 234.980729 
L 167.520612 233.639797 
L 168.171222 222.633941 
L 168.821833 223.422465 
L 169.472443 221.893997 
L 170.123053 224.944706 
L 170.773664 216.163321 
L 171.424274 222.122514 
L 172.074884 229.844543 
L 172.725495 232.826727 
L 173.376105 234.85094 
L 174.026715 233.558068 
L 174.677326 230.627578 
L 175.327936 228.666001 
L 175.978546 223.861732 
L 176.629156 225.270052 
L 177.930377 215.58363 
L 178.580987 223.337612 
L 179.231598 225.559418 
L 179.882208 223.584499 
L 180.532818 233.847793 
L 181.183429 214.56259 
L 181.834039 227.599903 
L 182.484649 222.13001 
L 183.13526 227.77783 
L 183.78587 226.626848 
L 184.43648 232.423812 
L 185.087091 217.203081 
L 185.737701 227.257412 
L 186.388311 222.883365 
L 187.038921 224.50062 
L 187.689532 213.540585 
L 188.340142 208.766956 
L 188.990752 208.386653 
L 189.641363 214.83893 
L 190.291973 213.390883 
L 190.942583 207.276554 
L 191.593194 218.356089 
L 192.243804 225.770921 
L 192.894414 224.006664 
L 193.545025 225.876446 
L 194.195635 224.179263 
L 194.846245 225.607836 
L 195.496856 229.836988 
L 196.147466 226.514347 
L 196.798076 227.882321 
L 197.448686 213.391353 
L 198.099297 221.587418 
L 198.749907 213.844116 
L 199.400517 220.591447 
L 200.051128 220.640779 
L 200.701738 214.647594 
L 201.352348 211.697681 
L 202.002959 201.678405 
L 202.653569 199.058627 
L 203.304179 206.075101 
L 203.95479 208.841165 
L 204.6054 206.560472 
L 205.25601 217.256192 
L 206.557231 222.032084 
L 207.207841 218.246857 
L 207.858451 216.554573 
L 208.509062 219.795651 
L 209.159672 215.983425 
L 209.810282 207.440809 
L 210.460893 216.168246 
L 211.111503 231.750478 
L 211.762113 217.929394 
L 212.412724 229.512771 
L 213.063334 229.17651 
L 213.713944 231.042439 
L 214.364555 214.180068 
L 215.015165 225.230352 
L 215.665775 224.960702 
L 216.316385 226.861967 
L 217.617606 223.773934 
L 218.268216 223.807137 
L 219.569437 229.56435 
L 220.220047 228.157118 
L 220.870658 227.174921 
L 221.521268 216.138639 
L 222.171878 232.789184 
L 222.822489 216.885948 
L 223.473099 212.789771 
L 224.123709 207.317073 
L 224.77432 203.937557 
L 225.42493 209.903751 
L 226.07554 220.867192 
L 226.72615 211.002174 
L 227.376761 208.993243 
L 228.027371 206.372297 
L 228.677981 211.496271 
L 229.328592 207.834345 
L 229.979202 209.025972 
L 230.629812 206.813186 
L 231.280423 212.689312 
L 231.931033 215.692032 
L 232.581643 214.412334 
L 233.232254 215.385567 
L 233.882864 209.493318 
L 234.533474 215.843518 
L 235.184085 213.231854 
L 235.834695 213.964831 
L 236.485305 223.092106 
L 237.135915 229.636763 
L 237.786526 227.836034 
L 238.437136 214.776662 
L 239.087746 222.168218 
L 239.738357 231.542494 
L 240.388967 230.855082 
L 241.039577 221.770552 
L 241.690188 231.620525 
L 242.340798 237.291238 
L 243.642019 220.43441 
L 244.292629 227.158675 
L 244.943239 215.184813 
L 245.59385 220.406482 
L 246.24446 211.55858 
L 246.89507 216.888184 
L 247.54568 215.563745 
L 248.196291 211.636669 
L 248.846901 224.062651 
L 249.497511 220.974316 
L 250.148122 213.347714 
L 250.798732 231.315317 
L 251.449342 212.318236 
L 252.099953 213.603564 
L 252.750563 201.90781 
L 253.401173 210.383412 
L 254.051784 214.412657 
L 254.702394 206.249505 
L 255.353004 208.729926 
L 256.003615 210.263496 
L 256.654225 206.4772 
L 257.304835 217.485491 
L 257.955445 224.585977 
L 258.606056 221.43004 
L 259.256666 220.529971 
L 259.907276 223.640669 
L 260.557887 234.883855 
L 261.859107 220.308912 
L 262.509718 216.680985 
L 263.160328 229.559736 
L 264.461549 233.940193 
L 265.112159 226.689905 
L 265.762769 226.528332 
L 266.413379 233.742879 
L 267.06399 217.168699 
L 267.7146 224.040464 
L 268.36521 219.945686 
L 269.015821 222.259625 
L 269.666431 220.10699 
L 270.317041 236.431929 
L 271.618262 217.769896 
L 272.268872 220.659123 
L 272.919483 230.926801 
L 273.570093 219.017027 
L 274.871314 226.453343 
L 275.521924 222.103178 
L 276.172534 219.354816 
L 276.823144 221.121608 
L 277.473755 211.044784 
L 278.124365 211.251871 
L 278.774975 222.753856 
L 279.425586 214.763032 
L 280.076196 224.837566 
L 280.726806 213.831259 
L 281.377417 228.470861 
L 282.028027 219.148858 
L 282.678637 224.199799 
L 283.329248 226.017117 
L 283.979858 217.506543 
L 284.630468 225.471002 
L 285.281079 226.460332 
L 285.931689 216.748551 
L 286.582299 212.941058 
L 287.232909 216.001491 
L 287.88352 218.222318 
L 288.53413 216.422762 
L 289.18474 208.631544 
L 289.835351 210.490581 
L 290.485961 214.947065 
L 291.136571 207.203706 
L 291.787182 224.259859 
L 292.437792 226.312196 
L 293.088402 223.263821 
L 293.739013 223.361249 
L 294.389623 227.590587 
L 295.040233 236.83061 
L 295.690844 231.664911 
L 296.341454 237.464492 
L 296.992064 226.843644 
L 297.642674 223.934028 
L 298.293285 224.607788 
L 298.943895 224.347785 
L 299.594505 223.040702 
L 300.245116 229.769609 
L 300.895726 232.616368 
L 301.546336 239.205108 
L 302.196947 232.025565 
L 302.847557 229.905821 
L 303.498167 221.058861 
L 304.148778 233.737602 
L 304.799388 232.77922 
L 305.449998 233.529075 
L 306.100608 234.979248 
L 306.751219 224.298763 
L 307.401829 224.678254 
L 308.052439 225.51798 
L 308.70305 223.946084 
L 309.35366 229.539125 
L 310.654881 227.705432 
L 311.305491 227.455181 
L 311.956101 219.689757 
L 312.606712 227.589841 
L 313.257322 222.753856 
L 313.907932 209.672432 
L 314.558543 217.666423 
L 315.209153 224.068685 
L 315.859763 218.677635 
L 316.510373 215.208796 
L 317.160984 213.577265 
L 317.811594 217.732469 
L 318.462204 210.318375 
L 319.112815 210.622348 
L 319.763425 207.830326 
L 320.414035 211.642701 
L 321.064646 204.173607 
L 321.715256 209.087963 
L 322.365866 212.213173 
L 323.016477 218.433931 
L 323.667087 207.70763 
L 324.317697 208.971595 
L 324.968308 203.749707 
L 325.618918 205.814309 
L 326.269528 206.661246 
L 326.920138 208.274353 
L 327.570749 209.316638 
L 328.221359 205.981832 
L 328.871969 213.066535 
L 329.52258 214.412249 
L 330.17319 215.223186 
L 330.8238 221.401562 
L 331.474411 213.571389 
L 332.125021 213.727745 
L 332.775631 210.639246 
L 333.426242 213.408298 
L 334.076852 213.11011 
L 334.727462 211.764497 
L 335.378073 211.239835 
L 336.028683 205.436807 
L 336.679293 205.440981 
L 337.329903 213.386475 
L 337.980514 212.083258 
L 338.631124 213.80685 
L 339.281734 220.376967 
L 339.932345 216.30522 
L 340.582955 229.729821 
L 341.233565 221.697258 
L 341.884176 223.172033 
L 342.534786 220.705706 
L 343.185396 228.599016 
L 343.836007 222.945177 
L 344.486617 223.33882 
L 345.137227 225.843746 
L 345.787837 222.380543 
L 346.438448 218.117185 
L 347.739668 227.615826 
L 348.390279 230.372625 
L 349.040889 224.393978 
L 349.691499 226.104656 
L 350.34211 229.69997 
L 350.99272 234.391619 
L 351.64333 233.306387 
L 352.293941 229.279129 
L 352.944551 232.812289 
L 353.595161 222.213455 
L 354.245772 224.658108 
L 354.896382 231.998052 
L 355.546992 218.87169 
L 356.197602 224.415127 
L 356.848213 219.826157 
L 357.498823 212.654029 
L 358.149433 221.377231 
L 358.800044 227.096625 
L 359.450654 217.910388 
L 360.101264 221.474316 
L 360.751875 217.154635 
L 361.402485 219.97902 
L 362.053095 214.284524 
L 362.703706 215.547908 
L 363.354316 209.963203 
L 364.004926 218.199167 
L 364.655537 232.070914 
L 365.956757 223.151245 
L 366.607367 221.751518 
L 367.908588 224.903155 
L 368.559198 232.515178 
L 369.209809 235.229396 
L 369.860419 233.567701 
L 370.511029 234.483529 
L 371.16164 234.762247 
L 371.81225 235.243008 
L 372.46286 238.560354 
L 373.113471 231.064423 
L 373.764081 231.398925 
L 374.414691 237.469524 
L 375.065302 241.752242 
L 375.715912 237.033553 
L 376.366522 235.327885 
L 377.017132 236.315078 
L 377.667743 238.600609 
L 378.318353 233.309872 
L 378.968963 230.104174 
L 379.619574 233.518218 
L 380.270184 228.161941 
L 381.571405 232.683043 
L 382.222015 240.083991 
L 382.872625 233.894711 
L 383.523236 232.305255 
L 384.173846 236.445813 
L 384.824456 241.950575 
L 385.475066 231.10176 
L 386.125677 228.447426 
L 386.776287 221.853869 
L 387.426897 220.021766 
L 388.077508 225.085006 
L 388.728118 229.001457 
L 389.378728 221.076464 
L 390.029339 228.750489 
L 390.679949 220.291801 
L 391.330559 215.0004 
L 391.98117 213.831029 
L 392.63178 223.137219 
L 393.28239 217.68608 
L 393.933001 209.187975 
L 394.583611 219.120637 
L 395.234221 213.093493 
L 395.884831 215.427918 
L 396.535442 209.605116 
L 397.186052 217.145403 
L 397.836662 206.738716 
L 398.487273 215.033153 
L 398.487273 215.033153 
" style="fill:none;stroke:#0000ff;stroke-linecap:square;stroke-width:1.5;"/>
   </g>
   <g id="line2d_24">
    <path clip-path="url(#p70783b7806)" d="M 73.832727 264.499183 
L 74.483338 266.738975 
L 75.133948 271.232818 
L 75.784558 273.354764 
L 76.435169 273.966485 
L 77.085779 274.848686 
L 77.736389 271.013073 
L 78.386999 270.031929 
L 79.03761 272.461321 
L 79.68822 270.51869 
L 80.33883 265.675759 
L 80.989441 264.754893 
L 81.640051 267.530407 
L 82.290661 267.442905 
L 82.941272 268.019574 
L 83.591882 265.882531 
L 84.242492 266.873003 
L 84.893103 268.617498 
L 85.543713 268.389046 
L 86.194323 268.718841 
L 86.844934 268.032246 
L 87.495544 266.412048 
L 88.796764 272.125214 
L 89.447375 265.754033 
L 90.097985 265.635011 
L 90.748595 268.090505 
L 91.399206 265.53373 
L 92.049816 266.23204 
L 92.700426 266.483809 
L 93.351037 279.515538 
L 94.001647 266.489046 
L 94.652257 268.466514 
L 95.302868 267.523282 
L 95.953478 280.687054 
L 96.604088 268.106894 
L 97.254698 265.957402 
L 97.905309 277.594082 
L 98.555919 269.993576 
L 99.206529 272.381292 
L 99.85714 272.800847 
L 100.50775 283.504018 
L 101.15836 279.889272 
L 101.808971 282.542088 
L 102.459581 287.993791 
L 103.110191 283.87777 
L 103.760802 278.551957 
L 104.411412 281.187478 
L 105.062022 280.394578 
L 105.712633 274.528738 
L 107.013853 295.488 
L 107.664463 283.862089 
L 108.315074 282.17788 
L 108.965684 281.264297 
L 109.616294 284.285779 
L 110.266905 273.190464 
L 110.917515 289.541933 
L 111.568125 281.78415 
L 112.218736 281.257626 
L 112.869346 282.494506 
L 113.519956 281.954303 
L 114.170567 276.913074 
L 114.821177 286.130153 
L 115.471787 285.883388 
L 116.122398 273.543684 
L 116.773008 277.697834 
L 117.423618 268.718561 
L 118.074228 273.484035 
L 118.724839 270.162523 
L 119.375449 275.52863 
L 120.026059 279.145393 
L 120.67667 273.215985 
L 121.32728 275.721452 
L 121.97789 266.904465 
L 122.628501 275.646444 
L 123.279111 271.330411 
L 123.929721 262.24374 
L 124.580332 275.211359 
L 125.230942 281.441422 
L 125.881552 264.566425 
L 126.532163 277.407964 
L 127.182773 275.570521 
L 127.833383 266.956882 
L 128.483993 266.617445 
L 129.134604 280.925911 
L 129.785214 265.555973 
L 130.435824 275.092483 
L 131.086435 271.070414 
L 132.387655 282.685325 
L 133.038266 269.660212 
L 133.688876 266.263296 
L 134.339486 269.84702 
L 134.990097 270.020904 
L 135.640707 266.232889 
L 136.291317 266.101436 
L 136.941927 276.429483 
L 137.592538 263.776566 
L 138.243148 269.313579 
L 138.893758 268.571613 
L 139.544369 255.864611 
L 140.194979 261.412546 
L 140.845589 278.586402 
L 141.4962 267.833445 
L 142.14681 263.463384 
L 142.79742 262.312296 
L 143.448031 275.294235 
L 144.098641 261.267164 
L 144.749251 256.037232 
L 145.399862 267.953254 
L 146.050472 254.103952 
L 146.701082 255.732991 
L 147.351692 267.241948 
L 148.002303 263.313198 
L 148.652913 265.01367 
L 149.303523 261.934963 
L 149.954134 260.784486 
L 150.604744 249.330081 
L 151.255354 267.454076 
L 151.905965 277.00142 
L 152.556575 272.918127 
L 153.207185 263.191173 
L 153.857796 261.83919 
L 154.508406 287.543212 
L 155.159016 263.980716 
L 155.809627 263.761349 
L 156.460237 263.866241 
L 157.110847 259.515694 
L 157.761457 278.205065 
L 158.412068 266.146899 
L 159.062678 278.327925 
L 159.713288 276.730627 
L 160.363899 268.861038 
L 161.014509 265.214765 
L 161.665119 268.391602 
L 162.31573 266.042664 
L 162.96634 274.474811 
L 163.61695 266.975706 
L 164.267561 272.428918 
L 164.918171 282.067808 
L 165.568781 274.377962 
L 166.219392 278.097156 
L 166.870002 278.60396 
L 167.520612 281.119727 
L 168.171222 274.549219 
L 168.821833 272.407396 
L 169.472443 268.890819 
L 170.123053 275.467805 
L 170.773664 267.320865 
L 171.424274 271.82868 
L 172.074884 280.191529 
L 172.725495 279.520008 
L 173.376105 281.234038 
L 174.026715 285.693243 
L 175.327936 274.65064 
L 175.978546 273.869259 
L 177.930377 265.392265 
L 178.580987 270.643829 
L 179.231598 271.513707 
L 179.882208 273.502611 
L 180.532818 289.549526 
L 181.183429 263.859391 
L 181.834039 274.160174 
L 182.484649 274.679421 
L 183.13526 277.30628 
L 183.78587 276.422112 
L 184.43648 285.44786 
L 185.087091 264.268775 
L 185.737701 274.953057 
L 186.388311 274.450071 
L 187.038921 271.4097 
L 187.689532 265.974527 
L 188.340142 255.864609 
L 188.990752 257.555483 
L 189.641363 262.062487 
L 190.291973 263.487911 
L 190.942583 257.706566 
L 191.593194 269.497846 
L 192.243804 275.821961 
L 192.894414 276.928867 
L 193.545025 272.700982 
L 194.195635 270.211871 
L 194.846245 275.530608 
L 195.496856 274.915586 
L 196.147466 273.064575 
L 196.798076 283.715057 
L 197.448686 263.261124 
L 198.099297 269.646413 
L 198.749907 265.27803 
L 199.400517 274.315748 
L 200.051128 272.108006 
L 200.701738 263.491924 
L 201.352348 267.828308 
L 202.002959 251.115746 
L 202.653569 250.991536 
L 203.304179 258.375742 
L 203.95479 258.506926 
L 204.6054 255.210296 
L 205.25601 267.391532 
L 205.906621 269.282987 
L 206.557231 272.345066 
L 207.207841 267.767237 
L 207.858451 264.502321 
L 208.509062 268.469188 
L 209.159672 265.440904 
L 209.810282 255.884046 
L 210.460893 266.587958 
L 211.111503 279.62749 
L 211.762113 267.736731 
L 212.412724 280.401648 
L 213.063334 277.036013 
L 213.713944 276.150125 
L 214.364555 262.80559 
L 215.015165 276.127761 
L 215.665775 276.849015 
L 216.316385 275.921156 
L 216.966996 269.464278 
L 217.617606 268.792869 
L 218.268216 269.669352 
L 218.918827 273.83073 
L 219.569437 276.456754 
L 220.220047 274.802176 
L 220.870658 275.017587 
L 221.521268 266.960347 
L 222.171878 285.920207 
L 222.822489 268.649203 
L 224.123709 258.966868 
L 224.77432 257.598238 
L 225.42493 262.49267 
L 226.07554 272.072538 
L 228.027371 257.605459 
L 228.677981 264.237197 
L 229.328592 259.15204 
L 229.979202 260.711476 
L 230.629812 257.773068 
L 231.280423 262.543076 
L 231.931033 263.680472 
L 232.581643 265.26812 
L 233.232254 266.272544 
L 233.882864 260.077008 
L 234.533474 263.5231 
L 235.184085 262.07388 
L 235.834695 263.57165 
L 236.485305 273.270598 
L 237.135915 276.617599 
L 237.786526 273.151724 
L 238.437136 266.42804 
L 239.738357 277.797121 
L 240.388967 279.701593 
L 241.039577 275.32977 
L 241.690188 278.512343 
L 242.340798 283.599118 
L 242.991408 275.558201 
L 243.642019 270.075704 
L 244.292629 275.076107 
L 244.943239 264.359406 
L 245.59385 269.443942 
L 246.24446 259.297551 
L 246.89507 268.89209 
L 247.54568 270.014382 
L 248.196291 263.152895 
L 248.846901 274.670195 
L 249.497511 268.099881 
L 250.148122 263.975919 
L 250.798732 280.996932 
L 251.449342 264.181399 
L 252.099953 268.19598 
L 252.750563 253.092155 
L 253.401173 263.592996 
L 254.051784 267.104057 
L 254.702394 259.214372 
L 255.353004 260.120898 
L 256.003615 262.29424 
L 256.654225 255.656335 
L 257.304835 270.499394 
L 257.955445 277.495365 
L 258.606056 273.903131 
L 259.256666 272.079594 
L 259.907276 271.288061 
L 260.557887 279.783983 
L 261.208497 276.054938 
L 261.859107 270.117485 
L 262.509718 273.236758 
L 263.160328 278.619151 
L 263.810938 281.092785 
L 264.461549 280.325191 
L 265.112159 276.667786 
L 265.762769 276.810475 
L 266.413379 280.050477 
L 267.06399 270.102327 
L 267.7146 276.295215 
L 268.36521 274.526572 
L 269.015821 281.397089 
L 269.666431 272.054819 
L 270.317041 281.662655 
L 270.967652 274.875876 
L 271.618262 265.958737 
L 272.268872 268.690272 
L 272.919483 278.202406 
L 273.570093 267.081057 
L 274.220703 272.833117 
L 274.871314 273.751218 
L 275.521924 270.266819 
L 276.172534 270.283985 
L 276.823144 278.217495 
L 277.473755 261.660333 
L 278.124365 262.064411 
L 278.774975 272.82051 
L 279.425586 267.663369 
L 280.076196 273.176765 
L 280.726806 261.491238 
L 281.377417 273.678213 
L 282.028027 273.041697 
L 282.678637 276.495218 
L 283.329248 276.669607 
L 283.979858 269.41991 
L 284.630468 275.679747 
L 285.281079 276.208377 
L 285.931689 266.713659 
L 286.582299 261.96232 
L 287.232909 266.429679 
L 287.88352 267.620344 
L 288.53413 266.484166 
L 289.18474 258.538798 
L 289.835351 262.014296 
L 290.485961 267.648815 
L 291.136571 256.925096 
L 291.787182 273.107819 
L 293.088402 271.047267 
L 293.739013 273.977572 
L 294.389623 270.839522 
L 295.040233 278.960653 
L 295.690844 276.185082 
L 296.341454 277.74241 
L 296.992064 274.239511 
L 297.642674 272.174159 
L 298.293285 270.809531 
L 298.943895 270.806304 
L 299.594505 272.536483 
L 300.245116 279.792459 
L 300.895726 277.325228 
L 301.546336 281.168074 
L 302.196947 281.17358 
L 302.847557 277.180182 
L 303.498167 270.221855 
L 304.148778 282.128449 
L 304.799388 278.93578 
L 305.449998 280.985722 
L 306.100608 279.354452 
L 306.751219 273.742499 
L 307.401829 276.389875 
L 308.052439 276.637876 
L 308.70305 274.93865 
L 309.35366 277.602535 
L 310.00427 275.868609 
L 310.654881 274.896788 
L 311.305491 280.994604 
L 311.956101 273.339817 
L 312.606712 279.272371 
L 313.257322 273.894319 
L 313.907932 260.019146 
L 315.209153 274.124577 
L 315.859763 268.831702 
L 316.510373 266.99489 
L 317.160984 263.028143 
L 317.811594 268.928039 
L 318.462204 263.88839 
L 319.112815 262.3595 
L 319.763425 259.666746 
L 320.414035 262.017362 
L 321.064646 255.130596 
L 321.715256 260.933087 
L 322.365866 268.050274 
L 323.016477 268.928154 
L 323.667087 260.48269 
L 324.317697 260.097801 
L 324.968308 252.307758 
L 325.618918 252.263264 
L 326.269528 256.333207 
L 326.920138 261.894256 
L 327.570749 258.537338 
L 328.221359 256.654605 
L 328.871969 264.247977 
L 329.52258 267.129253 
L 330.17319 266.573782 
L 330.8238 270.393025 
L 331.474411 262.170902 
L 332.125021 262.24155 
L 332.775631 259.832198 
L 333.426242 264.066274 
L 334.076852 266.024962 
L 334.727462 262.625377 
L 335.378073 262.807293 
L 336.028683 256.492463 
L 336.679293 256.195812 
L 337.329903 261.509158 
L 337.980514 261.1365 
L 338.631124 264.284207 
L 339.281734 270.356625 
L 339.932345 266.577708 
L 340.582955 275.53581 
L 341.233565 268.805861 
L 341.884176 272.080462 
L 342.534786 268.017723 
L 343.185396 275.548411 
L 343.836007 270.890662 
L 344.486617 271.763501 
L 345.137227 273.299597 
L 345.787837 270.924525 
L 346.438448 267.090762 
L 347.089058 273.058552 
L 347.739668 274.548954 
L 348.390279 276.992755 
L 349.040889 273.22928 
L 349.691499 275.8539 
L 350.34211 275.527686 
L 350.99272 282.075199 
L 351.64333 280.119775 
L 352.293941 278.999777 
L 352.944551 279.80855 
L 353.595161 271.185693 
L 354.245772 272.216561 
L 354.896382 277.668723 
L 355.546992 267.693632 
L 356.197602 272.941301 
L 356.848213 268.808002 
L 357.498823 261.809492 
L 358.149433 274.389894 
L 358.800044 272.280664 
L 359.450654 265.836732 
L 360.101264 268.938212 
L 360.751875 270.272616 
L 361.402485 272.516185 
L 362.053095 271.294449 
L 362.703706 269.515103 
L 363.354316 258.770369 
L 364.655537 278.309842 
L 365.306147 275.365348 
L 365.956757 269.865408 
L 366.607367 269.43066 
L 367.257978 272.527846 
L 368.559198 274.206999 
L 369.209809 274.836603 
L 369.860419 273.985201 
L 370.511029 276.252594 
L 371.16164 276.568896 
L 371.81225 279.286074 
L 372.46286 283.544014 
L 373.113471 277.066867 
L 373.764081 278.314844 
L 375.065302 288.849602 
L 375.715912 277.44551 
L 376.366522 277.28459 
L 377.017132 273.795734 
L 377.667743 276.791274 
L 378.318353 276.297093 
L 378.968963 274.088333 
L 379.619574 277.671747 
L 380.270184 273.677389 
L 380.920794 274.332885 
L 381.571405 278.023444 
L 382.222015 284.013785 
L 383.523236 275.078918 
L 384.173846 280.282306 
L 384.824456 294.125972 
L 385.475066 278.79518 
L 386.125677 278.937762 
L 386.776287 273.354266 
L 387.426897 269.679159 
L 388.077508 274.790379 
L 388.728118 278.77263 
L 389.378728 269.773039 
L 390.029339 275.101202 
L 390.679949 270.024336 
L 391.330559 263.439712 
L 391.98117 265.498571 
L 392.63178 276.764966 
L 393.28239 271.13588 
L 393.933001 261.000597 
L 394.583611 271.796924 
L 395.234221 264.446914 
L 395.884831 267.687137 
L 396.535442 264.257967 
L 397.186052 274.267445 
L 397.836662 258.773844 
L 398.487273 265.876664 
L 398.487273 265.876664 
" style="fill:none;stroke:#008000;stroke-dasharray:9.6,2.4,1.5,2.4;stroke-dashoffset:0;stroke-width:1.5;"/>
   </g>
   <g id="line2d_25">
    <path clip-path="url(#p70783b7806)" d="M 73.832727 262.845232 
L 74.483338 260.553119 
L 75.133948 256.979744 
L 75.784558 255.241764 
L 76.435169 252.252743 
L 77.085779 251.863851 
L 77.736389 256.766813 
L 78.386999 256.640083 
L 79.03761 254.502703 
L 79.68822 257.073767 
L 80.33883 261.738418 
L 80.989441 262.504258 
L 81.640051 259.498143 
L 82.290661 259.748422 
L 82.941272 258.838446 
L 83.591882 261.122765 
L 84.242492 260.701854 
L 84.893103 258.047601 
L 85.543713 257.98461 
L 86.194323 257.6455 
L 86.844934 259.531088 
L 87.495544 260.582408 
L 88.146154 257.00887 
L 88.796764 255.300916 
L 89.447375 261.165328 
L 90.097985 261.07485 
L 90.748595 258.92414 
L 91.399206 261.065458 
L 92.049816 259.78008 
L 92.700426 259.651079 
L 93.351037 248.726161 
L 94.001647 259.040122 
L 94.652257 256.770089 
L 95.302868 256.80629 
L 95.953478 248.271995 
L 96.604088 254.307725 
L 97.254698 254.53307 
L 97.905309 245.516178 
L 98.555919 246.399933 
L 99.206529 243.939913 
L 99.85714 240.349366 
L 100.50775 232.875909 
L 101.15836 243.317879 
L 101.808971 238.224359 
L 102.459581 239.382378 
L 103.110191 238.10855 
L 103.760802 233.993109 
L 104.411412 230.749146 
L 105.062022 234.223687 
L 105.712633 235.843661 
L 106.363243 226.584016 
L 107.013853 235.053734 
L 107.664463 245.48563 
L 108.315074 235.033943 
L 108.965684 237.699401 
L 109.616294 231.964568 
L 110.266905 228.988508 
L 110.917515 235.097234 
L 111.568125 229.260557 
L 112.218736 234.399214 
L 112.869346 233.779779 
L 113.519956 229.988365 
L 114.170567 228.561796 
L 114.821177 234.11924 
L 115.471787 235.575998 
L 116.122398 241.941221 
L 116.773008 238.751669 
L 117.423618 237.154715 
L 118.074228 231.730379 
L 118.724839 232.031469 
L 119.375449 224.190314 
L 120.026059 221.030667 
L 120.67667 222.16395 
L 121.32728 214.358521 
L 121.97789 204.175101 
L 122.628501 205.118545 
L 123.929721 192.156879 
L 125.230942 190.529544 
L 125.881552 171.95197 
L 126.532163 182.664736 
L 127.182773 182.661242 
L 127.833383 175.743185 
L 128.483993 177.491727 
L 129.134604 186.495674 
L 129.785214 176.939471 
L 130.435824 187.038034 
L 131.086435 186.831918 
L 131.737045 193.403865 
L 132.387655 191.251207 
L 133.038266 177.992148 
L 133.688876 176.193024 
L 134.339486 183.968413 
L 134.990097 177.291195 
L 135.640707 167.175292 
L 136.291317 175.503758 
L 136.941927 168.373128 
L 137.592538 164.893623 
L 138.243148 172.069053 
L 138.893758 163.563165 
L 139.544369 159.127099 
L 140.194979 164.313966 
L 140.845589 189.582702 
L 141.4962 167.44151 
L 142.14681 166.359814 
L 142.79742 161.610694 
L 143.448031 165.794205 
L 144.098641 166.320432 
L 144.749251 157.31404 
L 145.399862 164.239083 
L 146.701082 154.663759 
L 147.351692 160.451173 
L 148.002303 164.46559 
L 149.303523 165.834136 
L 149.954134 161.493316 
L 150.604744 156.278086 
L 151.255354 170.401515 
L 151.905965 167.394248 
L 152.556575 170.392356 
L 153.207185 157.569066 
L 153.857796 160.017771 
L 154.508406 167.327473 
L 155.159016 162.373768 
L 155.809627 161.601833 
L 156.460237 162.29653 
L 157.110847 152.27043 
L 157.761457 167.003707 
L 158.412068 169.950165 
L 159.062678 174.276753 
L 159.713288 170.009813 
L 160.363899 171.533493 
L 161.014509 170.087873 
L 161.665119 166.189914 
L 162.31573 167.761332 
L 162.96634 180.053505 
L 163.61695 173.103448 
L 164.267561 172.99398 
L 164.918171 188.438453 
L 165.568781 179.239869 
L 166.219392 179.443828 
L 166.870002 191.357497 
L 167.520612 186.159867 
L 168.171222 170.718663 
L 168.821833 174.437535 
L 169.472443 174.897174 
L 170.123053 174.421606 
L 170.773664 165.005777 
L 172.725495 186.133446 
L 173.376105 188.467841 
L 174.026715 181.422893 
L 174.677326 181.137076 
L 175.327936 182.681362 
L 175.978546 173.854205 
L 176.629156 179.483291 
L 177.930377 165.774995 
L 178.580987 176.031396 
L 179.231598 179.605129 
L 179.882208 173.666387 
L 180.532818 178.146059 
L 181.183429 165.265789 
L 181.834039 181.039633 
L 182.484649 169.580599 
L 183.13526 178.249379 
L 183.78587 176.831584 
L 184.43648 179.399764 
L 185.087091 170.137387 
L 185.737701 179.561766 
L 186.388311 171.316658 
L 187.038921 177.59154 
L 187.689532 161.106643 
L 188.340142 161.669303 
L 188.990752 159.217824 
L 189.641363 167.615373 
L 190.291973 163.293855 
L 190.942583 156.846543 
L 191.593194 167.214331 
L 192.243804 175.71988 
L 192.894414 171.084461 
L 193.545025 179.05191 
L 194.195635 178.146656 
L 194.846245 175.685065 
L 195.496856 184.758391 
L 196.147466 179.964118 
L 197.448686 163.521583 
L 198.099297 173.528423 
L 198.749907 162.410202 
L 199.400517 166.867146 
L 200.051128 169.173551 
L 200.701738 165.803263 
L 201.352348 155.567054 
L 202.002959 152.241065 
L 202.653569 147.125718 
L 203.304179 153.77446 
L 203.95479 159.175404 
L 204.6054 157.910648 
L 205.25601 167.120852 
L 205.906621 170.002196 
L 206.557231 171.719101 
L 207.207841 168.726478 
L 207.858451 168.606825 
L 208.509062 171.122114 
L 209.159672 166.525946 
L 209.810282 158.997571 
L 210.460893 165.748534 
L 211.111503 183.873467 
L 211.762113 168.122057 
L 212.412724 178.623893 
L 213.063334 181.317007 
L 213.713944 185.934753 
L 214.364555 165.554547 
L 215.015165 174.332944 
L 215.665775 173.072388 
L 216.316385 177.802779 
L 216.966996 181.307033 
L 217.617606 178.755 
L 218.268216 177.944921 
L 218.918827 179.171432 
L 219.569437 182.671946 
L 220.220047 181.512059 
L 220.870658 179.332255 
L 221.521268 165.316931 
L 222.171878 179.658162 
L 222.822489 165.122693 
L 223.473099 161.987034 
L 224.77432 150.276876 
L 225.42493 157.314832 
L 226.07554 169.661845 
L 226.72615 154.927783 
L 227.376761 156.487913 
L 228.027371 155.139135 
L 228.677981 158.755345 
L 229.328592 156.51665 
L 229.979202 157.340469 
L 230.629812 155.853303 
L 231.280423 162.835547 
L 231.931033 167.703591 
L 232.581643 163.556547 
L 233.232254 164.498589 
L 233.882864 158.909629 
L 234.533474 168.163936 
L 235.184085 164.389827 
L 235.834695 164.358012 
L 237.135915 182.655926 
L 237.786526 182.520344 
L 238.437136 163.125283 
L 239.087746 172.049885 
L 239.738357 185.287867 
L 240.388967 182.008572 
L 241.039577 168.211334 
L 241.690188 184.728706 
L 242.340798 190.983357 
L 242.991408 182.190447 
L 243.642019 170.793116 
L 244.292629 179.241243 
L 244.943239 166.010221 
L 245.59385 171.369023 
L 246.24446 163.819609 
L 246.89507 164.884277 
L 247.54568 161.113108 
L 248.196291 160.120442 
L 248.846901 173.455107 
L 249.497511 173.84875 
L 250.148122 162.719508 
L 250.798732 181.633702 
L 251.449342 160.455073 
L 252.099953 159.011149 
L 252.750563 150.723466 
L 253.401173 157.173827 
L 254.051784 161.721257 
L 254.702394 153.284638 
L 255.353004 157.338954 
L 256.003615 158.232753 
L 256.654225 157.298066 
L 257.955445 171.676588 
L 258.606056 168.956948 
L 259.256666 168.980349 
L 259.907276 175.993278 
L 260.557887 189.983726 
L 261.208497 178.362284 
L 261.859107 170.50034 
L 262.509718 160.125212 
L 263.160328 180.500321 
L 263.810938 182.174041 
L 264.461549 187.555196 
L 265.112159 176.712023 
L 265.762769 176.246189 
L 266.413379 187.43528 
L 267.06399 164.23507 
L 267.7146 171.785713 
L 268.36521 165.3648 
L 269.015821 163.122161 
L 269.666431 168.159161 
L 270.317041 191.201203 
L 270.967652 179.315514 
L 271.618262 169.581054 
L 272.268872 172.627975 
L 272.919483 183.651196 
L 273.570093 170.952997 
L 274.220703 172.757925 
L 274.871314 179.155468 
L 276.823144 164.025721 
L 277.473755 160.429236 
L 278.124365 160.439331 
L 278.774975 172.687202 
L 279.425586 161.862695 
L 280.076196 176.498368 
L 280.726806 166.17128 
L 281.377417 183.263509 
L 282.028027 165.256019 
L 282.678637 171.90438 
L 283.329248 175.364628 
L 283.979858 165.593176 
L 284.630468 175.262257 
L 285.281079 176.712287 
L 285.931689 166.783444 
L 286.582299 163.919796 
L 287.232909 165.573304 
L 287.88352 168.824291 
L 288.53413 166.361358 
L 289.18474 158.724289 
L 289.835351 158.966867 
L 290.485961 162.245314 
L 291.136571 157.482317 
L 291.787182 175.4119 
L 292.437792 180.511349 
L 293.088402 175.480374 
L 293.739013 172.744925 
L 295.040233 194.700568 
L 295.690844 187.144741 
L 296.341454 197.186574 
L 296.992064 179.447777 
L 297.642674 175.693897 
L 298.293285 178.406045 
L 298.943895 177.889267 
L 299.594505 173.54492 
L 300.245116 179.746758 
L 301.546336 197.242142 
L 302.196947 182.87755 
L 302.847557 182.63146 
L 303.498167 171.895868 
L 304.148778 185.346755 
L 304.799388 186.62266 
L 305.449998 186.072429 
L 306.100608 190.604044 
L 306.751219 174.855027 
L 307.401829 172.966634 
L 308.052439 174.398084 
L 308.70305 172.953518 
L 309.35366 181.475715 
L 310.00427 181.494655 
L 310.654881 180.514076 
L 311.305491 173.915758 
L 311.956101 166.039697 
L 312.606712 175.907312 
L 313.257322 171.613393 
L 313.907932 159.325719 
L 314.558543 168.358889 
L 315.209153 174.012792 
L 316.510373 163.422703 
L 317.160984 164.126388 
L 317.811594 166.536899 
L 318.462204 156.748361 
L 319.112815 158.885197 
L 319.763425 155.993907 
L 320.414035 161.26804 
L 321.064646 153.216618 
L 321.715256 157.242838 
L 322.365866 156.376071 
L 323.016477 167.939708 
L 323.667087 154.93257 
L 324.317697 157.84539 
L 324.968308 155.191655 
L 325.618918 159.365354 
L 326.920138 154.65445 
L 327.570749 160.095938 
L 328.221359 155.309058 
L 328.871969 161.885093 
L 329.52258 161.695245 
L 330.17319 163.87259 
L 330.8238 172.4101 
L 331.474411 164.971876 
L 332.125021 165.213941 
L 332.775631 161.446294 
L 333.426242 162.750321 
L 334.076852 160.195259 
L 334.727462 160.903618 
L 335.378073 159.672377 
L 336.028683 154.381151 
L 336.679293 154.68615 
L 337.329903 165.263793 
L 337.980514 163.030016 
L 338.631124 163.329493 
L 339.281734 170.397309 
L 339.932345 166.032732 
L 340.582955 183.923831 
L 341.233565 174.588655 
L 341.884176 174.263604 
L 342.534786 173.393688 
L 343.185396 181.64962 
L 343.836007 174.999693 
L 344.486617 174.914138 
L 345.137227 178.387895 
L 346.438448 169.143607 
L 347.089058 172.771833 
L 347.739668 180.682698 
L 348.390279 183.752496 
L 349.040889 175.558676 
L 349.691499 176.355412 
L 350.34211 183.872254 
L 350.99272 186.70804 
L 351.64333 186.493 
L 352.293941 179.558481 
L 352.944551 185.816029 
L 353.595161 173.241217 
L 354.245772 177.099656 
L 354.896382 186.32738 
L 355.546992 170.049747 
L 356.197602 175.888954 
L 356.848213 170.844313 
L 357.498823 163.498565 
L 358.149433 168.364567 
L 358.800044 181.912586 
L 359.450654 169.984044 
L 360.101264 174.01042 
L 360.751875 164.036655 
L 361.402485 167.441855 
L 362.053095 157.274599 
L 362.703706 161.580713 
L 363.354316 161.156037 
L 364.004926 167.847748 
L 364.655537 185.831985 
L 365.306147 180.36099 
L 365.956757 176.437083 
L 366.607367 174.072376 
L 367.257978 174.245376 
L 367.908588 176.35704 
L 368.559198 190.823356 
L 369.209809 195.622189 
L 369.860419 193.150202 
L 370.511029 192.714464 
L 371.16164 192.955599 
L 371.81225 191.199942 
L 372.46286 193.576695 
L 373.113471 185.061979 
L 373.764081 184.483005 
L 374.414691 191.353472 
L 375.065302 194.654883 
L 375.715912 196.621596 
L 376.366522 193.371181 
L 377.017132 198.834423 
L 377.667743 200.409944 
L 378.318353 190.322651 
L 378.968963 186.120015 
L 379.619574 189.364689 
L 380.270184 182.646494 
L 380.920794 186.511656 
L 381.571405 187.342642 
L 382.222015 196.154196 
L 382.872625 188.041658 
L 383.523236 189.531591 
L 384.173846 192.609319 
L 384.824456 189.775178 
L 386.776287 170.353473 
L 387.426897 170.364374 
L 388.077508 175.379634 
L 388.728118 179.230284 
L 389.378728 172.379889 
L 390.029339 182.399775 
L 390.679949 170.559265 
L 391.98117 162.163486 
L 392.63178 169.509473 
L 393.28239 164.23628 
L 393.933001 157.375354 
L 394.583611 166.44435 
L 395.234221 161.740073 
L 395.884831 163.1687 
L 396.535442 154.952265 
L 397.186052 160.023361 
L 397.836662 154.703588 
L 398.487273 164.189643 
L 398.487273 164.189643 
" style="fill:none;stroke:#008000;stroke-dasharray:9.6,2.4,1.5,2.4;stroke-dashoffset:0;stroke-width:1.5;"/>
   </g>
   <g id="line2d_26">
    <path clip-path="url(#p70783b7806)" d="M 73.832727 261.400104 
L 74.483338 231.84822 
L 75.784558 198.420678 
L 76.435169 167.415423 
L 77.085779 150.459424 
L 77.736389 214.89222 
L 78.386999 199.389593 
L 79.03761 134.956796 
L 79.68822 165.477594 
L 80.33883 247.835304 
L 80.989441 246.86639 
L 81.640051 183.402508 
L 82.290661 198.420678 
L 82.941272 182.918051 
L 83.591882 243.959647 
L 84.242492 245.897476 
L 84.893103 167.415423 
L 85.543713 182.433593 
L 86.194323 181.464679 
L 86.844934 244.928562 
L 87.495544 231.84822 
L 88.146154 198.905135 
L 88.796764 215.376678 
L 89.447375 248.319762 
L 90.097985 245.897476 
L 90.748595 247.835304 
L 91.399206 246.86639 
L 92.049816 241.537362 
L 92.700426 243.47519 
L 93.351037 231.84822 
L 94.001647 240.083991 
L 94.652257 242.506276 
L 95.302868 239.599533 
L 95.953478 242.990733 
L 96.604088 230.394848 
L 97.254698 232.332677 
L 97.905309 233.786048 
L 98.555919 198.420678 
L 99.206529 223.612449 
L 99.85714 167.415423 
L 100.50775 101.529255 
L 101.15836 215.861135 
L 101.808971 183.402508 
L 102.459581 183.402508 
L 103.110191 180.980222 
L 103.760802 199.389593 
L 104.411412 197.936221 
L 105.062022 181.464679 
L 105.712633 214.407763 
L 106.363243 150.943881 
L 107.013853 166.930966 
L 107.664463 214.407763 
L 108.315074 134.472339 
L 108.965684 199.389593 
L 109.616294 199.87405 
L 110.266905 182.433593 
L 110.917515 181.464679 
L 111.568125 181.949136 
L 112.218736 183.402508 
L 112.869346 198.420678 
L 113.519956 149.974967 
L 114.170567 165.962051 
L 114.821177 198.420678 
L 115.471787 149.974967 
L 116.122398 214.89222 
L 116.773008 182.433593 
L 117.423618 214.89222 
L 118.074228 210.047649 
L 118.724839 183.886965 
L 119.375449 186.30925 
L 120.026059 194.060564 
L 120.67667 182.918051 
L 121.32728 186.30925 
L 121.97789 180.011308 
L 122.628501 177.104565 
L 123.279111 180.495765 
L 123.929721 163.539766 
L 124.580332 150.459424 
L 125.230942 151.912795 
L 125.881552 143.677024 
L 126.532163 147.552681 
L 127.182773 147.552681 
L 127.833383 142.70811 
L 128.483993 143.677024 
L 129.134604 149.006052 
L 129.785214 143.192567 
L 130.435824 142.70811 
L 131.086435 146.583767 
L 131.737045 148.521595 
L 132.387655 149.974967 
L 133.038266 144.161481 
L 133.688876 143.677024 
L 134.339486 142.70811 
L 134.990097 145.130395 
L 135.640707 145.614852 
L 136.291317 148.521595 
L 136.941927 141.739196 
L 137.592538 142.223653 
L 138.243148 146.09931 
L 138.893758 139.31691 
L 139.544369 144.645938 
L 140.194979 144.645938 
L 140.845589 146.09931 
L 141.4962 144.161481 
L 142.14681 146.09931 
L 142.79742 146.583767 
L 143.448031 140.285824 
L 144.098641 149.490509 
L 144.749251 142.223653 
L 145.399862 142.223653 
L 146.050472 145.614852 
L 146.701082 140.285824 
L 147.351692 139.801367 
L 148.002303 146.583767 
L 148.652913 143.677024 
L 149.303523 143.677024 
L 149.954134 138.347996 
L 150.604744 142.70811 
L 151.255354 141.739196 
L 151.905965 141.254738 
L 152.556575 142.223653 
L 153.207185 144.161481 
L 153.857796 141.739196 
L 154.508406 139.801367 
L 155.159016 136.894624 
L 156.460237 144.161481 
L 157.110847 142.223653 
L 157.761457 141.739196 
L 158.412068 147.552681 
L 159.062678 140.770281 
L 159.713288 140.285824 
L 160.363899 144.645938 
L 161.014509 144.645938 
L 161.665119 141.739196 
L 162.31573 146.09931 
L 162.96634 147.552681 
L 163.61695 138.347996 
L 164.267561 143.677024 
L 164.918171 146.09931 
L 165.568781 147.552681 
L 166.219392 144.161481 
L 166.870002 145.614852 
L 167.520612 144.161481 
L 168.171222 146.583767 
L 168.821833 144.161481 
L 169.472443 138.832453 
L 170.123053 148.037138 
L 170.773664 144.161481 
L 171.424274 143.192567 
L 172.074884 134.472339 
L 172.725495 119.454168 
L 173.376105 137.379081 
L 174.677326 149.490509 
L 175.327936 148.037138 
L 176.629156 140.770281 
L 177.279767 138.347996 
L 177.930377 148.037138 
L 178.580987 141.254738 
L 179.231598 139.801367 
L 179.882208 147.552681 
L 180.532818 149.006052 
L 181.183429 139.31691 
L 181.834039 151.428338 
L 182.484649 142.223653 
L 183.13526 138.832453 
L 183.78587 139.801367 
L 184.43648 147.552681 
L 185.087091 148.037138 
L 185.737701 141.254738 
L 186.388311 146.583767 
L 187.038921 141.254738 
L 187.689532 145.614852 
L 188.340142 140.285824 
L 188.990752 142.223653 
L 189.641363 136.894624 
L 190.291973 142.223653 
L 190.942583 143.192567 
L 191.593194 143.677024 
L 192.243804 140.770281 
L 192.894414 136.410167 
L 193.545025 146.09931 
L 194.195635 148.521595 
L 194.846245 142.223653 
L 195.496856 133.987882 
L 196.147466 150.943881 
L 196.798076 140.285824 
L 197.448686 139.801367 
L 198.749907 144.645938 
L 199.400517 143.677024 
L 200.051128 145.130395 
L 200.701738 136.410167 
L 201.352348 142.70811 
L 202.002959 140.285824 
L 202.653569 139.31691 
L 203.304179 136.410167 
L 205.25601 145.130395 
L 205.906621 139.801367 
L 206.557231 145.614852 
L 207.207841 147.068224 
L 207.858451 143.677024 
L 208.509062 144.161481 
L 209.159672 143.192567 
L 209.810282 144.645938 
L 210.460893 143.677024 
L 211.111503 144.645938 
L 213.063334 149.006052 
L 213.713944 141.254738 
L 214.364555 144.161481 
L 215.015165 143.192567 
L 215.665775 148.037138 
L 216.316385 139.801367 
L 216.966996 147.068224 
L 217.617606 144.161481 
L 218.268216 142.223653 
L 218.918827 139.801367 
L 219.569437 145.130395 
L 220.220047 143.192567 
L 220.870658 144.161481 
L 221.521268 143.677024 
L 222.171878 144.645938 
L 222.822489 141.254738 
L 223.473099 141.254738 
L 224.123709 144.161481 
L 224.77432 146.09931 
L 225.42493 144.161481 
L 226.07554 147.552681 
L 226.72615 140.770281 
L 227.376761 144.161481 
L 228.027371 142.70811 
L 228.677981 141.739196 
L 229.328592 142.70811 
L 229.979202 142.70811 
L 230.629812 143.677024 
L 231.280423 138.832453 
L 231.931033 144.161481 
L 232.581643 144.161481 
L 233.232254 137.863539 
L 233.882864 144.161481 
L 234.533474 141.739196 
L 235.184085 147.552681 
L 235.834695 147.068224 
L 236.485305 141.254738 
L 237.135915 141.739196 
L 237.786526 148.521595 
L 238.437136 140.285824 
L 239.087746 143.677024 
L 239.738357 148.521595 
L 240.388967 138.832453 
L 241.039577 141.254738 
L 241.690188 144.161481 
L 242.340798 145.614852 
L 242.991408 150.943881 
L 243.642019 141.254738 
L 244.292629 147.552681 
L 244.943239 136.894624 
L 245.59385 142.70811 
L 246.24446 142.70811 
L 246.89507 53.568 
L 247.54568 118.000797 
L 248.196291 141.739196 
L 248.846901 144.161481 
L 249.497511 146.09931 
L 250.148122 141.739196 
L 250.798732 143.677024 
L 251.449342 145.130395 
L 252.750563 140.285824 
L 253.401173 138.347996 
L 254.051784 143.677024 
L 255.353004 133.503425 
L 256.003615 137.379081 
L 256.654225 143.677024 
L 257.304835 142.70811 
L 257.955445 143.677024 
L 258.606056 136.894624 
L 259.256666 146.09931 
L 259.907276 141.739196 
L 260.557887 139.801367 
L 261.208497 136.410167 
L 261.859107 143.192567 
L 262.509718 144.645938 
L 263.160328 148.037138 
L 263.810938 144.161481 
L 264.461549 143.677024 
L 265.112159 145.614852 
L 265.762769 141.739196 
L 266.413379 145.614852 
L 267.06399 141.254738 
L 267.7146 142.223653 
L 268.36521 139.31691 
L 269.015821 146.09931 
L 269.666431 145.614852 
L 270.317041 134.956796 
L 270.967652 146.583767 
L 271.618262 142.70811 
L 272.268872 146.583767 
L 272.919483 147.552681 
L 273.570093 139.801367 
L 274.220703 144.161481 
L 274.871314 138.347996 
L 275.521924 146.09931 
L 276.172534 147.552681 
L 276.823144 145.130395 
L 277.473755 141.739196 
L 278.124365 141.254738 
L 278.774975 144.161481 
L 279.425586 148.521595 
L 280.076196 140.770281 
L 280.726806 146.09931 
L 281.377417 141.739196 
L 282.028027 139.31691 
L 282.678637 141.254738 
L 283.329248 141.254738 
L 283.979858 143.677024 
L 284.630468 142.223653 
L 285.281079 144.645938 
L 285.931689 140.285824 
L 286.582299 143.192567 
L 287.232909 143.192567 
L 287.88352 138.347996 
L 288.53413 137.379081 
L 289.18474 138.347996 
L 289.835351 146.09931 
L 290.485961 138.832453 
L 291.136571 145.614852 
L 291.787182 140.285824 
L 292.437792 140.770281 
L 293.088402 142.70811 
L 293.739013 142.223653 
L 294.389623 142.70811 
L 295.040233 147.552681 
L 295.690844 133.503425 
L 296.341454 145.614852 
L 296.992064 143.677024 
L 297.642674 144.645938 
L 298.293285 145.130395 
L 298.943895 149.490509 
L 299.594505 149.490509 
L 300.895726 142.223653 
L 301.546336 145.614852 
L 302.196947 142.70811 
L 302.847557 149.006052 
L 303.498167 146.583767 
L 304.148778 145.130395 
L 304.799388 138.832453 
L 305.449998 149.006052 
L 306.100608 149.006052 
L 307.401829 133.503425 
L 308.052439 145.130395 
L 308.70305 148.521595 
L 309.35366 142.223653 
L 310.00427 144.645938 
L 310.654881 146.583767 
L 311.305491 147.552681 
L 311.956101 141.739196 
L 312.606712 145.614852 
L 313.257322 146.09931 
L 313.907932 142.70811 
L 314.558543 145.130395 
L 315.209153 145.130395 
L 316.510373 137.863539 
L 317.160984 145.614852 
L 317.811594 138.347996 
L 318.462204 142.223653 
L 319.112815 145.130395 
L 319.763425 142.70811 
L 320.414035 147.068224 
L 321.064646 143.677024 
L 321.715256 138.832453 
L 322.365866 144.645938 
L 323.016477 137.863539 
L 323.667087 143.192567 
L 324.317697 142.223653 
L 324.968308 142.70811 
L 325.618918 148.037138 
L 326.269528 143.677024 
L 326.920138 137.863539 
L 328.221359 138.832453 
L 328.871969 141.739196 
L 329.52258 143.677024 
L 330.17319 138.832453 
L 330.8238 139.31691 
L 331.474411 141.254738 
L 332.125021 141.739196 
L 332.775631 134.956796 
L 333.426242 101.529255 
L 334.076852 140.770281 
L 334.727462 139.31691 
L 335.378073 143.192567 
L 336.028683 141.739196 
L 336.679293 145.130395 
L 337.329903 147.068224 
L 337.980514 145.614852 
L 338.631124 142.70811 
L 339.281734 133.987882 
L 339.932345 142.223653 
L 340.582955 146.09931 
L 341.233565 141.739196 
L 341.884176 141.254738 
L 342.534786 138.347996 
L 343.185396 146.09931 
L 343.836007 145.130395 
L 344.486617 146.583767 
L 345.137227 148.521595 
L 345.787837 143.192567 
L 346.438448 147.068224 
L 347.089058 143.677024 
L 347.739668 147.552681 
L 348.390279 146.583767 
L 349.040889 147.068224 
L 349.691499 149.006052 
L 350.34211 140.770281 
L 350.99272 144.161481 
L 351.64333 138.832453 
L 352.293941 139.31691 
L 352.944551 148.037138 
L 354.245772 144.161481 
L 354.896382 146.09931 
L 355.546992 145.614852 
L 356.197602 145.614852 
L 356.848213 144.645938 
L 357.498823 140.285824 
L 358.149433 143.677024 
L 358.800044 149.490509 
L 359.450654 143.192567 
L 360.101264 145.130395 
L 360.751875 142.70811 
L 361.402485 146.09931 
L 362.053095 145.614852 
L 362.703706 144.645938 
L 363.354316 141.739196 
L 364.004926 141.739196 
L 364.655537 143.677024 
L 365.306147 142.70811 
L 366.607367 144.645938 
L 367.257978 137.379081 
L 367.908588 142.223653 
L 368.559198 146.09931 
L 369.209809 145.614852 
L 369.860419 144.161481 
L 370.511029 141.739196 
L 371.16164 138.832453 
L 371.81225 150.459424 
L 372.46286 136.894624 
L 373.113471 146.09931 
L 373.764081 143.677024 
L 374.414691 142.223653 
L 375.065302 140.285824 
L 375.715912 146.583767 
L 376.366522 144.161481 
L 377.017132 150.459424 
L 377.667743 145.614852 
L 378.318353 146.09931 
L 378.968963 140.770281 
L 379.619574 140.285824 
L 380.270184 146.583767 
L 380.920794 146.583767 
L 381.571405 145.614852 
L 382.222015 145.130395 
L 382.872625 141.254738 
L 383.523236 135.441253 
L 384.824456 143.677024 
L 385.475066 140.770281 
L 386.125677 143.677024 
L 386.776287 145.614852 
L 387.426897 147.068224 
L 388.077508 144.161481 
L 388.728118 147.068224 
L 389.378728 143.192567 
L 390.029339 148.037138 
L 390.679949 146.583767 
L 391.330559 142.223653 
L 391.98117 141.739196 
L 392.63178 142.70811 
L 393.28239 136.894624 
L 393.933001 142.70811 
L 394.583611 146.09931 
L 395.234221 142.70811 
L 395.884831 137.379081 
L 396.535442 143.192567 
L 397.186052 145.614852 
L 397.836662 134.472339 
L 398.487273 141.739196 
L 398.487273 141.739196 
" style="fill:none;stroke:#ff0000;stroke-linecap:square;stroke-width:1.5;"/>
   </g>
   <g id="patch_3">
    <path d="M 57.6 307.584 
L 57.6 41.472 
" style="fill:none;stroke:#000000;stroke-linecap:square;stroke-linejoin:miter;stroke-width:0.8;"/>
   </g>
   <g id="patch_4">
    <path d="M 414.72 307.584 
L 414.72 41.472 
" style="fill:none;stroke:#000000;stroke-linecap:square;stroke-linejoin:miter;stroke-width:0.8;"/>
   </g>
   <g id="patch_5">
    <path d="M 57.6 307.584 
L 414.72 307.584 
" style="fill:none;stroke:#000000;stroke-linecap:square;stroke-linejoin:miter;stroke-width:0.8;"/>
   </g>
   <g id="patch_6">
    <path d="M 57.6 41.472 
L 414.72 41.472 
" style="fill:none;stroke:#000000;stroke-linecap:square;stroke-linejoin:miter;stroke-width:0.8;"/>
   </g>
   <g id="text_14">
    <!-- Population's average and best fitness -->
    <g transform="translate(123.529687 35.472)scale(0.12 -0.12)">
     <defs>
      <path d="M 19.671875 64.796875 
L 19.671875 37.40625 
L 32.078125 37.40625 
Q 38.96875 37.40625 42.71875 40.96875 
Q 46.484375 44.53125 46.484375 51.125 
Q 46.484375 57.671875 42.71875 61.234375 
Q 38.96875 64.796875 32.078125 64.796875 
z
M 9.8125 72.90625 
L 32.078125 72.90625 
Q 44.34375 72.90625 50.609375 67.359375 
Q 56.890625 61.8125 56.890625 51.125 
Q 56.890625 40.328125 50.609375 34.8125 
Q 44.34375 29.296875 32.078125 29.296875 
L 19.671875 29.296875 
L 19.671875 0 
L 9.8125 0 
z
" id="DejaVuSans-80"/>
      <path d="M 18.109375 8.203125 
L 18.109375 -20.796875 
L 9.078125 -20.796875 
L 9.078125 54.6875 
L 18.109375 54.6875 
L 18.109375 46.390625 
Q 20.953125 51.265625 25.265625 53.625 
Q 29.59375 56 35.59375 56 
Q 45.5625 56 51.78125 48.09375 
Q 58.015625 40.1875 58.015625 27.296875 
Q 58.015625 14.40625 51.78125 6.484375 
Q 45.5625 -1.421875 35.59375 -1.421875 
Q 29.59375 -1.421875 25.265625 0.953125 
Q 20.953125 3.328125 18.109375 8.203125 
z
M 48.6875 27.296875 
Q 48.6875 37.203125 44.609375 42.84375 
Q 40.53125 48.484375 33.40625 48.484375 
Q 26.265625 48.484375 22.1875 42.84375 
Q 18.109375 37.203125 18.109375 27.296875 
Q 18.109375 17.390625 22.1875 11.75 
Q 26.265625 6.109375 33.40625 6.109375 
Q 40.53125 6.109375 44.609375 11.75 
Q 48.6875 17.390625 48.6875 27.296875 
z
" id="DejaVuSans-112"/>
      <path d="M 8.5 21.578125 
L 8.5 54.6875 
L 17.484375 54.6875 
L 17.484375 21.921875 
Q 17.484375 14.15625 20.5 10.265625 
Q 23.53125 6.390625 29.59375 6.390625 
Q 36.859375 6.390625 41.078125 11.03125 
Q 45.3125 15.671875 45.3125 23.6875 
L 45.3125 54.6875 
L 54.296875 54.6875 
L 54.296875 0 
L 45.3125 0 
L 45.3125 8.40625 
Q 42.046875 3.421875 37.71875 1 
Q 33.40625 -1.421875 27.6875 -1.421875 
Q 18.265625 -1.421875 13.375 4.4375 
Q 8.5 10.296875 8.5 21.578125 
z
M 31.109375 56 
z
" id="DejaVuSans-117"/>
      <path d="M 9.421875 75.984375 
L 18.40625 75.984375 
L 18.40625 0 
L 9.421875 0 
z
" id="DejaVuSans-108"/>
      <path d="M 17.921875 72.90625 
L 17.921875 45.796875 
L 9.625 45.796875 
L 9.625 72.90625 
z
" id="DejaVuSans-39"/>
      <path id="DejaVuSans-32"/>
      <path d="M 2.984375 54.6875 
L 12.5 54.6875 
L 29.59375 8.796875 
L 46.6875 54.6875 
L 56.203125 54.6875 
L 35.6875 0 
L 23.484375 0 
z
" id="DejaVuSans-118"/>
      <path d="M 45.40625 27.984375 
Q 45.40625 37.75 41.375 43.109375 
Q 37.359375 48.484375 30.078125 48.484375 
Q 22.859375 48.484375 18.828125 43.109375 
Q 14.796875 37.75 14.796875 27.984375 
Q 14.796875 18.265625 18.828125 12.890625 
Q 22.859375 7.515625 30.078125 7.515625 
Q 37.359375 7.515625 41.375 12.890625 
Q 45.40625 18.265625 45.40625 27.984375 
z
M 54.390625 6.78125 
Q 54.390625 -7.171875 48.1875 -13.984375 
Q 42 -20.796875 29.203125 -20.796875 
Q 24.46875 -20.796875 20.265625 -20.09375 
Q 16.0625 -19.390625 12.109375 -17.921875 
L 12.109375 -9.1875 
Q 16.0625 -11.328125 19.921875 -12.34375 
Q 23.78125 -13.375 27.78125 -13.375 
Q 36.625 -13.375 41.015625 -8.765625 
Q 45.40625 -4.15625 45.40625 5.171875 
L 45.40625 9.625 
Q 42.625 4.78125 38.28125 2.390625 
Q 33.9375 0 27.875 0 
Q 17.828125 0 11.671875 7.65625 
Q 5.515625 15.328125 5.515625 27.984375 
Q 5.515625 40.671875 11.671875 48.328125 
Q 17.828125 56 27.875 56 
Q 33.9375 56 38.28125 53.609375 
Q 42.625 51.21875 45.40625 46.390625 
L 45.40625 54.6875 
L 54.390625 54.6875 
z
" id="DejaVuSans-103"/>
      <path d="M 45.40625 46.390625 
L 45.40625 75.984375 
L 54.390625 75.984375 
L 54.390625 0 
L 45.40625 0 
L 45.40625 8.203125 
Q 42.578125 3.328125 38.25 0.953125 
Q 33.9375 -1.421875 27.875 -1.421875 
Q 17.96875 -1.421875 11.734375 6.484375 
Q 5.515625 14.40625 5.515625 27.296875 
Q 5.515625 40.1875 11.734375 48.09375 
Q 17.96875 56 27.875 56 
Q 33.9375 56 38.25 53.625 
Q 42.578125 51.265625 45.40625 46.390625 
z
M 14.796875 27.296875 
Q 14.796875 17.390625 18.875 11.75 
Q 22.953125 6.109375 30.078125 6.109375 
Q 37.203125 6.109375 41.296875 11.75 
Q 45.40625 17.390625 45.40625 27.296875 
Q 45.40625 37.203125 41.296875 42.84375 
Q 37.203125 48.484375 30.078125 48.484375 
Q 22.953125 48.484375 18.875 42.84375 
Q 14.796875 37.203125 14.796875 27.296875 
z
" id="DejaVuSans-100"/>
      <path d="M 48.6875 27.296875 
Q 48.6875 37.203125 44.609375 42.84375 
Q 40.53125 48.484375 33.40625 48.484375 
Q 26.265625 48.484375 22.1875 42.84375 
Q 18.109375 37.203125 18.109375 27.296875 
Q 18.109375 17.390625 22.1875 11.75 
Q 26.265625 6.109375 33.40625 6.109375 
Q 40.53125 6.109375 44.609375 11.75 
Q 48.6875 17.390625 48.6875 27.296875 
z
M 18.109375 46.390625 
Q 20.953125 51.265625 25.265625 53.625 
Q 29.59375 56 35.59375 56 
Q 45.5625 56 51.78125 48.09375 
Q 58.015625 40.1875 58.015625 27.296875 
Q 58.015625 14.40625 51.78125 6.484375 
Q 45.5625 -1.421875 35.59375 -1.421875 
Q 29.59375 -1.421875 25.265625 0.953125 
Q 20.953125 3.328125 18.109375 8.203125 
L 18.109375 0 
L 9.078125 0 
L 9.078125 75.984375 
L 18.109375 75.984375 
z
" id="DejaVuSans-98"/>
      <path d="M 37.109375 75.984375 
L 37.109375 68.5 
L 28.515625 68.5 
Q 23.6875 68.5 21.796875 66.546875 
Q 19.921875 64.59375 19.921875 59.515625 
L 19.921875 54.6875 
L 34.71875 54.6875 
L 34.71875 47.703125 
L 19.921875 47.703125 
L 19.921875 0 
L 10.890625 0 
L 10.890625 47.703125 
L 2.296875 47.703125 
L 2.296875 54.6875 
L 10.890625 54.6875 
L 10.890625 58.5 
Q 10.890625 67.625 15.140625 71.796875 
Q 19.390625 75.984375 28.609375 75.984375 
z
" id="DejaVuSans-102"/>
     </defs>
     <use xlink:href="#DejaVuSans-80"/>
     <use x="56.677734" xlink:href="#DejaVuSans-111"/>
     <use x="117.859375" xlink:href="#DejaVuSans-112"/>
     <use x="181.335938" xlink:href="#DejaVuSans-117"/>
     <use x="244.714844" xlink:href="#DejaVuSans-108"/>
     <use x="272.498047" xlink:href="#DejaVuSans-97"/>
     <use x="333.777344" xlink:href="#DejaVuSans-116"/>
     <use x="372.986328" xlink:href="#DejaVuSans-105"/>
     <use x="400.769531" xlink:href="#DejaVuSans-111"/>
     <use x="461.951172" xlink:href="#DejaVuSans-110"/>
     <use x="525.330078" xlink:href="#DejaVuSans-39"/>
     <use x="552.820312" xlink:href="#DejaVuSans-115"/>
     <use x="604.919922" xlink:href="#DejaVuSans-32"/>
     <use x="636.707031" xlink:href="#DejaVuSans-97"/>
     <use x="697.986328" xlink:href="#DejaVuSans-118"/>
     <use x="757.166016" xlink:href="#DejaVuSans-101"/>
     <use x="818.689453" xlink:href="#DejaVuSans-114"/>
     <use x="859.802734" xlink:href="#DejaVuSans-97"/>
     <use x="921.082031" xlink:href="#DejaVuSans-103"/>
     <use x="984.558594" xlink:href="#DejaVuSans-101"/>
     <use x="1046.082031" xlink:href="#DejaVuSans-32"/>
     <use x="1077.869141" xlink:href="#DejaVuSans-97"/>
     <use x="1139.148438" xlink:href="#DejaVuSans-110"/>
     <use x="1202.527344" xlink:href="#DejaVuSans-100"/>
     <use x="1266.003906" xlink:href="#DejaVuSans-32"/>
     <use x="1297.791016" xlink:href="#DejaVuSans-98"/>
     <use x="1361.267578" xlink:href="#DejaVuSans-101"/>
     <use x="1422.791016" xlink:href="#DejaVuSans-115"/>
     <use x="1474.890625" xlink:href="#DejaVuSans-116"/>
     <use x="1514.099609" xlink:href="#DejaVuSans-32"/>
     <use x="1545.886719" xlink:href="#DejaVuSans-102"/>
     <use x="1581.091797" xlink:href="#DejaVuSans-105"/>
     <use x="1608.875" xlink:href="#DejaVuSans-116"/>
     <use x="1648.083984" xlink:href="#DejaVuSans-110"/>
     <use x="1711.462891" xlink:href="#DejaVuSans-101"/>
     <use x="1772.986328" xlink:href="#DejaVuSans-115"/>
     <use x="1825.085938" xlink:href="#DejaVuSans-115"/>
    </g>
   </g>
   <g id="legend_1">
    <g id="patch_7">
     <path d="M 334.779375 108.1845 
L 407.72 108.1845 
Q 409.72 108.1845 409.72 106.1845 
L 409.72 48.472 
Q 409.72 46.472 407.72 46.472 
L 334.779375 46.472 
Q 332.779375 46.472 332.779375 48.472 
L 332.779375 106.1845 
Q 332.779375 108.1845 334.779375 108.1845 
z
" style="fill:#ffffff;opacity:0.8;stroke:#cccccc;stroke-linejoin:miter;"/>
    </g>
    <g id="line2d_27">
     <path d="M 336.779375 54.570438 
L 356.779375 54.570438 
" style="fill:none;stroke:#0000ff;stroke-linecap:square;stroke-width:1.5;"/>
    </g>
    <g id="line2d_28"/>
    <g id="text_15">
     <!-- average -->
     <g transform="translate(364.779375 58.070438)scale(0.1 -0.1)">
      <use xlink:href="#DejaVuSans-97"/>
      <use x="61.279297" xlink:href="#DejaVuSans-118"/>
      <use x="120.458984" xlink:href="#DejaVuSans-101"/>
      <use x="181.982422" xlink:href="#DejaVuSans-114"/>
      <use x="223.095703" xlink:href="#DejaVuSans-97"/>
      <use x="284.375" xlink:href="#DejaVuSans-103"/>
      <use x="347.851562" xlink:href="#DejaVuSans-101"/>
     </g>
    </g>
    <g id="line2d_29">
     <path d="M 336.779375 69.248563 
L 356.779375 69.248563 
" style="fill:none;stroke:#008000;stroke-dasharray:9.6,2.4,1.5,2.4;stroke-dashoffset:0;stroke-width:1.5;"/>
    </g>
    <g id="line2d_30"/>
    <g id="text_16">
     <!-- -1 sd -->
     <g transform="translate(364.779375 72.748563)scale(0.1 -0.1)">
      <defs>
       <path d="M 4.890625 31.390625 
L 31.203125 31.390625 
L 31.203125 23.390625 
L 4.890625 23.390625 
z
" id="DejaVuSans-45"/>
      </defs>
      <use xlink:href="#DejaVuSans-45"/>
      <use x="36.083984" xlink:href="#DejaVuSans-49"/>
      <use x="99.707031" xlink:href="#DejaVuSans-32"/>
      <use x="131.494141" xlink:href="#DejaVuSans-115"/>
      <use x="183.59375" xlink:href="#DejaVuSans-100"/>
     </g>
    </g>
    <g id="line2d_31">
     <path d="M 336.779375 83.926688 
L 356.779375 83.926688 
" style="fill:none;stroke:#008000;stroke-dasharray:9.6,2.4,1.5,2.4;stroke-dashoffset:0;stroke-width:1.5;"/>
    </g>
    <g id="line2d_32"/>
    <g id="text_17">
     <!-- +1 sd -->
     <g transform="translate(364.779375 87.426688)scale(0.1 -0.1)">
      <defs>
       <path d="M 46 62.703125 
L 46 35.5 
L 73.1875 35.5 
L 73.1875 27.203125 
L 46 27.203125 
L 46 0 
L 37.796875 0 
L 37.796875 27.203125 
L 10.59375 27.203125 
L 10.59375 35.5 
L 37.796875 35.5 
L 37.796875 62.703125 
z
" id="DejaVuSans-43"/>
      </defs>
      <use xlink:href="#DejaVuSans-43"/>
      <use x="83.789062" xlink:href="#DejaVuSans-49"/>
      <use x="147.412109" xlink:href="#DejaVuSans-32"/>
      <use x="179.199219" xlink:href="#DejaVuSans-115"/>
      <use x="231.298828" xlink:href="#DejaVuSans-100"/>
     </g>
    </g>
    <g id="line2d_33">
     <path d="M 336.779375 98.604813 
L 356.779375 98.604813 
" style="fill:none;stroke:#ff0000;stroke-linecap:square;stroke-width:1.5;"/>
    </g>
    <g id="line2d_34"/>
    <g id="text_18">
     <!-- best -->
     <g transform="translate(364.779375 102.104813)scale(0.1 -0.1)">
      <use xlink:href="#DejaVuSans-98"/>
      <use x="63.476562" xlink:href="#DejaVuSans-101"/>
      <use x="125" xlink:href="#DejaVuSans-115"/>
      <use x="177.099609" xlink:href="#DejaVuSans-116"/>
     </g>
    </g>
   </g>
  </g>
 </g>
 <defs>
  <clipPath id="p70783b7806">
   <rect height="266.112" width="357.12" x="57.6" y="41.472"/>
  </clipPath>
 </defs>
</svg>
