<?xml version="1.0" encoding="utf-8" standalone="no"?>
<!DOCTYPE svg PUBLIC "-//W3C//DTD SVG 1.1//EN"
  "http://www.w3.org/Graphics/SVG/1.1/DTD/svg11.dtd">
<!-- Created with matplotlib (https://matplotlib.org/) -->
<svg height="345.6pt" version="1.1" viewBox="0 0 460.8 345.6" width="460.8pt" xmlns="http://www.w3.org/2000/svg" xmlns:xlink="http://www.w3.org/1999/xlink">
 <metadata>
  <rdf:RDF xmlns:cc="http://creativecommons.org/ns#" xmlns:dc="http://purl.org/dc/elements/1.1/" xmlns:rdf="http://www.w3.org/1999/02/22-rdf-syntax-ns#">
   <cc:Work>
    <dc:type rdf:resource="http://purl.org/dc/dcmitype/StillImage"/>
    <dc:date>2021-06-15T22:41:54.447937</dc:date>
    <dc:format>image/svg+xml</dc:format>
    <dc:creator>
     <cc:Agent>
      <dc:title>Matplotlib v3.3.0, https://matplotlib.org/</dc:title>
     </cc:Agent>
    </dc:creator>
   </cc:Work>
  </rdf:RDF>
 </metadata>
 <defs>
  <style type="text/css">*{stroke-linecap:butt;stroke-linejoin:round;}</style>
 </defs>
 <g id="figure_1">
  <g id="patch_1">
   <path d="M 0 345.6 
L 460.8 345.6 
L 460.8 0 
L 0 0 
z
" style="fill:#ffffff;"/>
  </g>
  <g id="axes_1">
   <g id="patch_2">
    <path d="M 57.6 307.584 
L 414.72 307.584 
L 414.72 41.472 
L 57.6 41.472 
z
" style="fill:#ffffff;"/>
   </g>
   <g id="matplotlib.axis_1">
    <g id="xtick_1">
     <g id="line2d_1">
      <path clip-path="url(#p3020bb19d9)" d="M 73.832727 307.584 
L 73.832727 41.472 
" style="fill:none;stroke:#b0b0b0;stroke-linecap:square;stroke-width:0.8;"/>
     </g>
     <g id="line2d_2">
      <defs>
       <path d="M 0 0 
L 0 3.5 
" id="m7cf4fee223" style="stroke:#000000;stroke-width:0.8;"/>
      </defs>
      <g>
       <use style="stroke:#000000;stroke-width:0.8;" x="73.832727" xlink:href="#m7cf4fee223" y="307.584"/>
      </g>
     </g>
     <g id="text_1">
      <!-- 0 -->
      <g transform="translate(70.651477 322.182437)scale(0.1 -0.1)">
       <defs>
        <path d="M 31.78125 66.40625 
Q 24.171875 66.40625 20.328125 58.90625 
Q 16.5 51.421875 16.5 36.375 
Q 16.5 21.390625 20.328125 13.890625 
Q 24.171875 6.390625 31.78125 6.390625 
Q 39.453125 6.390625 43.28125 13.890625 
Q 47.125 21.390625 47.125 36.375 
Q 47.125 51.421875 43.28125 58.90625 
Q 39.453125 66.40625 31.78125 66.40625 
z
M 31.78125 74.21875 
Q 44.046875 74.21875 50.515625 64.515625 
Q 56.984375 54.828125 56.984375 36.375 
Q 56.984375 17.96875 50.515625 8.265625 
Q 44.046875 -1.421875 31.78125 -1.421875 
Q 19.53125 -1.421875 13.0625 8.265625 
Q 6.59375 17.96875 6.59375 36.375 
Q 6.59375 54.828125 13.0625 64.515625 
Q 19.53125 74.21875 31.78125 74.21875 
z
" id="DejaVuSans-48"/>
       </defs>
       <use xlink:href="#DejaVuSans-48"/>
      </g>
     </g>
    </g>
    <g id="xtick_2">
     <g id="line2d_3">
      <path clip-path="url(#p3020bb19d9)" d="M 138.893758 307.584 
L 138.893758 41.472 
" style="fill:none;stroke:#b0b0b0;stroke-linecap:square;stroke-width:0.8;"/>
     </g>
     <g id="line2d_4">
      <g>
       <use style="stroke:#000000;stroke-width:0.8;" x="138.893758" xlink:href="#m7cf4fee223" y="307.584"/>
      </g>
     </g>
     <g id="text_2">
      <!-- 100 -->
      <g transform="translate(129.350008 322.182437)scale(0.1 -0.1)">
       <defs>
        <path d="M 12.40625 8.296875 
L 28.515625 8.296875 
L 28.515625 63.921875 
L 10.984375 60.40625 
L 10.984375 69.390625 
L 28.421875 72.90625 
L 38.28125 72.90625 
L 38.28125 8.296875 
L 54.390625 8.296875 
L 54.390625 0 
L 12.40625 0 
z
" id="DejaVuSans-49"/>
       </defs>
       <use xlink:href="#DejaVuSans-49"/>
       <use x="63.623047" xlink:href="#DejaVuSans-48"/>
       <use x="127.246094" xlink:href="#DejaVuSans-48"/>
      </g>
     </g>
    </g>
    <g id="xtick_3">
     <g id="line2d_5">
      <path clip-path="url(#p3020bb19d9)" d="M 203.95479 307.584 
L 203.95479 41.472 
" style="fill:none;stroke:#b0b0b0;stroke-linecap:square;stroke-width:0.8;"/>
     </g>
     <g id="line2d_6">
      <g>
       <use style="stroke:#000000;stroke-width:0.8;" x="203.95479" xlink:href="#m7cf4fee223" y="307.584"/>
      </g>
     </g>
     <g id="text_3">
      <!-- 200 -->
      <g transform="translate(194.41104 322.182437)scale(0.1 -0.1)">
       <defs>
        <path d="M 19.1875 8.296875 
L 53.609375 8.296875 
L 53.609375 0 
L 7.328125 0 
L 7.328125 8.296875 
Q 12.9375 14.109375 22.625 23.890625 
Q 32.328125 33.6875 34.8125 36.53125 
Q 39.546875 41.84375 41.421875 45.53125 
Q 43.3125 49.21875 43.3125 52.78125 
Q 43.3125 58.59375 39.234375 62.25 
Q 35.15625 65.921875 28.609375 65.921875 
Q 23.96875 65.921875 18.8125 64.3125 
Q 13.671875 62.703125 7.8125 59.421875 
L 7.8125 69.390625 
Q 13.765625 71.78125 18.9375 73 
Q 24.125 74.21875 28.421875 74.21875 
Q 39.75 74.21875 46.484375 68.546875 
Q 53.21875 62.890625 53.21875 53.421875 
Q 53.21875 48.921875 51.53125 44.890625 
Q 49.859375 40.875 45.40625 35.40625 
Q 44.1875 33.984375 37.640625 27.21875 
Q 31.109375 20.453125 19.1875 8.296875 
z
" id="DejaVuSans-50"/>
       </defs>
       <use xlink:href="#DejaVuSans-50"/>
       <use x="63.623047" xlink:href="#DejaVuSans-48"/>
       <use x="127.246094" xlink:href="#DejaVuSans-48"/>
      </g>
     </g>
    </g>
    <g id="xtick_4">
     <g id="line2d_7">
      <path clip-path="url(#p3020bb19d9)" d="M 269.015821 307.584 
L 269.015821 41.472 
" style="fill:none;stroke:#b0b0b0;stroke-linecap:square;stroke-width:0.8;"/>
     </g>
     <g id="line2d_8">
      <g>
       <use style="stroke:#000000;stroke-width:0.8;" x="269.015821" xlink:href="#m7cf4fee223" y="307.584"/>
      </g>
     </g>
     <g id="text_4">
      <!-- 300 -->
      <g transform="translate(259.472071 322.182437)scale(0.1 -0.1)">
       <defs>
        <path d="M 40.578125 39.3125 
Q 47.65625 37.796875 51.625 33 
Q 55.609375 28.21875 55.609375 21.1875 
Q 55.609375 10.40625 48.1875 4.484375 
Q 40.765625 -1.421875 27.09375 -1.421875 
Q 22.515625 -1.421875 17.65625 -0.515625 
Q 12.796875 0.390625 7.625 2.203125 
L 7.625 11.71875 
Q 11.71875 9.328125 16.59375 8.109375 
Q 21.484375 6.890625 26.8125 6.890625 
Q 36.078125 6.890625 40.9375 10.546875 
Q 45.796875 14.203125 45.796875 21.1875 
Q 45.796875 27.640625 41.28125 31.265625 
Q 36.765625 34.90625 28.71875 34.90625 
L 20.21875 34.90625 
L 20.21875 43.015625 
L 29.109375 43.015625 
Q 36.375 43.015625 40.234375 45.921875 
Q 44.09375 48.828125 44.09375 54.296875 
Q 44.09375 59.90625 40.109375 62.90625 
Q 36.140625 65.921875 28.71875 65.921875 
Q 24.65625 65.921875 20.015625 65.03125 
Q 15.375 64.15625 9.8125 62.3125 
L 9.8125 71.09375 
Q 15.4375 72.65625 20.34375 73.4375 
Q 25.25 74.21875 29.59375 74.21875 
Q 40.828125 74.21875 47.359375 69.109375 
Q 53.90625 64.015625 53.90625 55.328125 
Q 53.90625 49.265625 50.4375 45.09375 
Q 46.96875 40.921875 40.578125 39.3125 
z
" id="DejaVuSans-51"/>
       </defs>
       <use xlink:href="#DejaVuSans-51"/>
       <use x="63.623047" xlink:href="#DejaVuSans-48"/>
       <use x="127.246094" xlink:href="#DejaVuSans-48"/>
      </g>
     </g>
    </g>
    <g id="xtick_5">
     <g id="line2d_9">
      <path clip-path="url(#p3020bb19d9)" d="M 334.076852 307.584 
L 334.076852 41.472 
" style="fill:none;stroke:#b0b0b0;stroke-linecap:square;stroke-width:0.8;"/>
     </g>
     <g id="line2d_10">
      <g>
       <use style="stroke:#000000;stroke-width:0.8;" x="334.076852" xlink:href="#m7cf4fee223" y="307.584"/>
      </g>
     </g>
     <g id="text_5">
      <!-- 400 -->
      <g transform="translate(324.533102 322.182437)scale(0.1 -0.1)">
       <defs>
        <path d="M 37.796875 64.3125 
L 12.890625 25.390625 
L 37.796875 25.390625 
z
M 35.203125 72.90625 
L 47.609375 72.90625 
L 47.609375 25.390625 
L 58.015625 25.390625 
L 58.015625 17.1875 
L 47.609375 17.1875 
L 47.609375 0 
L 37.796875 0 
L 37.796875 17.1875 
L 4.890625 17.1875 
L 4.890625 26.703125 
z
" id="DejaVuSans-52"/>
       </defs>
       <use xlink:href="#DejaVuSans-52"/>
       <use x="63.623047" xlink:href="#DejaVuSans-48"/>
       <use x="127.246094" xlink:href="#DejaVuSans-48"/>
      </g>
     </g>
    </g>
    <g id="xtick_6">
     <g id="line2d_11">
      <path clip-path="url(#p3020bb19d9)" d="M 399.137883 307.584 
L 399.137883 41.472 
" style="fill:none;stroke:#b0b0b0;stroke-linecap:square;stroke-width:0.8;"/>
     </g>
     <g id="line2d_12">
      <g>
       <use style="stroke:#000000;stroke-width:0.8;" x="399.137883" xlink:href="#m7cf4fee223" y="307.584"/>
      </g>
     </g>
     <g id="text_6">
      <!-- 500 -->
      <g transform="translate(389.594133 322.182437)scale(0.1 -0.1)">
       <defs>
        <path d="M 10.796875 72.90625 
L 49.515625 72.90625 
L 49.515625 64.59375 
L 19.828125 64.59375 
L 19.828125 46.734375 
Q 21.96875 47.46875 24.109375 47.828125 
Q 26.265625 48.1875 28.421875 48.1875 
Q 40.625 48.1875 47.75 41.5 
Q 54.890625 34.8125 54.890625 23.390625 
Q 54.890625 11.625 47.5625 5.09375 
Q 40.234375 -1.421875 26.90625 -1.421875 
Q 22.3125 -1.421875 17.546875 -0.640625 
Q 12.796875 0.140625 7.71875 1.703125 
L 7.71875 11.625 
Q 12.109375 9.234375 16.796875 8.0625 
Q 21.484375 6.890625 26.703125 6.890625 
Q 35.15625 6.890625 40.078125 11.328125 
Q 45.015625 15.765625 45.015625 23.390625 
Q 45.015625 31 40.078125 35.4375 
Q 35.15625 39.890625 26.703125 39.890625 
Q 22.75 39.890625 18.8125 39.015625 
Q 14.890625 38.140625 10.796875 36.28125 
z
" id="DejaVuSans-53"/>
       </defs>
       <use xlink:href="#DejaVuSans-53"/>
       <use x="63.623047" xlink:href="#DejaVuSans-48"/>
       <use x="127.246094" xlink:href="#DejaVuSans-48"/>
      </g>
     </g>
    </g>
    <g id="text_7">
     <!-- Generations -->
     <g transform="translate(205.662344 335.860562)scale(0.1 -0.1)">
      <defs>
       <path d="M 59.515625 10.40625 
L 59.515625 29.984375 
L 43.40625 29.984375 
L 43.40625 38.09375 
L 69.28125 38.09375 
L 69.28125 6.78125 
Q 63.578125 2.734375 56.6875 0.65625 
Q 49.8125 -1.421875 42 -1.421875 
Q 24.90625 -1.421875 15.25 8.5625 
Q 5.609375 18.5625 5.609375 36.375 
Q 5.609375 54.25 15.25 64.234375 
Q 24.90625 74.21875 42 74.21875 
Q 49.125 74.21875 55.546875 72.453125 
Q 61.96875 70.703125 67.390625 67.28125 
L 67.390625 56.78125 
Q 61.921875 61.421875 55.765625 63.765625 
Q 49.609375 66.109375 42.828125 66.109375 
Q 29.4375 66.109375 22.71875 58.640625 
Q 16.015625 51.171875 16.015625 36.375 
Q 16.015625 21.625 22.71875 14.15625 
Q 29.4375 6.6875 42.828125 6.6875 
Q 48.046875 6.6875 52.140625 7.59375 
Q 56.25 8.5 59.515625 10.40625 
z
" id="DejaVuSans-71"/>
       <path d="M 56.203125 29.59375 
L 56.203125 25.203125 
L 14.890625 25.203125 
Q 15.484375 15.921875 20.484375 11.0625 
Q 25.484375 6.203125 34.421875 6.203125 
Q 39.59375 6.203125 44.453125 7.46875 
Q 49.3125 8.734375 54.109375 11.28125 
L 54.109375 2.78125 
Q 49.265625 0.734375 44.1875 -0.34375 
Q 39.109375 -1.421875 33.890625 -1.421875 
Q 20.796875 -1.421875 13.15625 6.1875 
Q 5.515625 13.8125 5.515625 26.8125 
Q 5.515625 40.234375 12.765625 48.109375 
Q 20.015625 56 32.328125 56 
Q 43.359375 56 49.78125 48.890625 
Q 56.203125 41.796875 56.203125 29.59375 
z
M 47.21875 32.234375 
Q 47.125 39.59375 43.09375 43.984375 
Q 39.0625 48.390625 32.421875 48.390625 
Q 24.90625 48.390625 20.390625 44.140625 
Q 15.875 39.890625 15.1875 32.171875 
z
" id="DejaVuSans-101"/>
       <path d="M 54.890625 33.015625 
L 54.890625 0 
L 45.90625 0 
L 45.90625 32.71875 
Q 45.90625 40.484375 42.875 44.328125 
Q 39.84375 48.1875 33.796875 48.1875 
Q 26.515625 48.1875 22.3125 43.546875 
Q 18.109375 38.921875 18.109375 30.90625 
L 18.109375 0 
L 9.078125 0 
L 9.078125 54.6875 
L 18.109375 54.6875 
L 18.109375 46.1875 
Q 21.34375 51.125 25.703125 53.5625 
Q 30.078125 56 35.796875 56 
Q 45.21875 56 50.046875 50.171875 
Q 54.890625 44.34375 54.890625 33.015625 
z
" id="DejaVuSans-110"/>
       <path d="M 41.109375 46.296875 
Q 39.59375 47.171875 37.8125 47.578125 
Q 36.03125 48 33.890625 48 
Q 26.265625 48 22.1875 43.046875 
Q 18.109375 38.09375 18.109375 28.8125 
L 18.109375 0 
L 9.078125 0 
L 9.078125 54.6875 
L 18.109375 54.6875 
L 18.109375 46.1875 
Q 20.953125 51.171875 25.484375 53.578125 
Q 30.03125 56 36.53125 56 
Q 37.453125 56 38.578125 55.875 
Q 39.703125 55.765625 41.0625 55.515625 
z
" id="DejaVuSans-114"/>
       <path d="M 34.28125 27.484375 
Q 23.390625 27.484375 19.1875 25 
Q 14.984375 22.515625 14.984375 16.5 
Q 14.984375 11.71875 18.140625 8.90625 
Q 21.296875 6.109375 26.703125 6.109375 
Q 34.1875 6.109375 38.703125 11.40625 
Q 43.21875 16.703125 43.21875 25.484375 
L 43.21875 27.484375 
z
M 52.203125 31.203125 
L 52.203125 0 
L 43.21875 0 
L 43.21875 8.296875 
Q 40.140625 3.328125 35.546875 0.953125 
Q 30.953125 -1.421875 24.3125 -1.421875 
Q 15.921875 -1.421875 10.953125 3.296875 
Q 6 8.015625 6 15.921875 
Q 6 25.140625 12.171875 29.828125 
Q 18.359375 34.515625 30.609375 34.515625 
L 43.21875 34.515625 
L 43.21875 35.40625 
Q 43.21875 41.609375 39.140625 45 
Q 35.0625 48.390625 27.6875 48.390625 
Q 23 48.390625 18.546875 47.265625 
Q 14.109375 46.140625 10.015625 43.890625 
L 10.015625 52.203125 
Q 14.9375 54.109375 19.578125 55.046875 
Q 24.21875 56 28.609375 56 
Q 40.484375 56 46.34375 49.84375 
Q 52.203125 43.703125 52.203125 31.203125 
z
" id="DejaVuSans-97"/>
       <path d="M 18.3125 70.21875 
L 18.3125 54.6875 
L 36.8125 54.6875 
L 36.8125 47.703125 
L 18.3125 47.703125 
L 18.3125 18.015625 
Q 18.3125 11.328125 20.140625 9.421875 
Q 21.96875 7.515625 27.59375 7.515625 
L 36.8125 7.515625 
L 36.8125 0 
L 27.59375 0 
Q 17.1875 0 13.234375 3.875 
Q 9.28125 7.765625 9.28125 18.015625 
L 9.28125 47.703125 
L 2.6875 47.703125 
L 2.6875 54.6875 
L 9.28125 54.6875 
L 9.28125 70.21875 
z
" id="DejaVuSans-116"/>
       <path d="M 9.421875 54.6875 
L 18.40625 54.6875 
L 18.40625 0 
L 9.421875 0 
z
M 9.421875 75.984375 
L 18.40625 75.984375 
L 18.40625 64.59375 
L 9.421875 64.59375 
z
" id="DejaVuSans-105"/>
       <path d="M 30.609375 48.390625 
Q 23.390625 48.390625 19.1875 42.75 
Q 14.984375 37.109375 14.984375 27.296875 
Q 14.984375 17.484375 19.15625 11.84375 
Q 23.34375 6.203125 30.609375 6.203125 
Q 37.796875 6.203125 41.984375 11.859375 
Q 46.1875 17.53125 46.1875 27.296875 
Q 46.1875 37.015625 41.984375 42.703125 
Q 37.796875 48.390625 30.609375 48.390625 
z
M 30.609375 56 
Q 42.328125 56 49.015625 48.375 
Q 55.71875 40.765625 55.71875 27.296875 
Q 55.71875 13.875 49.015625 6.21875 
Q 42.328125 -1.421875 30.609375 -1.421875 
Q 18.84375 -1.421875 12.171875 6.21875 
Q 5.515625 13.875 5.515625 27.296875 
Q 5.515625 40.765625 12.171875 48.375 
Q 18.84375 56 30.609375 56 
z
" id="DejaVuSans-111"/>
       <path d="M 44.28125 53.078125 
L 44.28125 44.578125 
Q 40.484375 46.53125 36.375 47.5 
Q 32.28125 48.484375 27.875 48.484375 
Q 21.1875 48.484375 17.84375 46.4375 
Q 14.5 44.390625 14.5 40.28125 
Q 14.5 37.15625 16.890625 35.375 
Q 19.28125 33.59375 26.515625 31.984375 
L 29.59375 31.296875 
Q 39.15625 29.25 43.1875 25.515625 
Q 47.21875 21.78125 47.21875 15.09375 
Q 47.21875 7.46875 41.1875 3.015625 
Q 35.15625 -1.421875 24.609375 -1.421875 
Q 20.21875 -1.421875 15.453125 -0.5625 
Q 10.6875 0.296875 5.421875 2 
L 5.421875 11.28125 
Q 10.40625 8.6875 15.234375 7.390625 
Q 20.0625 6.109375 24.8125 6.109375 
Q 31.15625 6.109375 34.5625 8.28125 
Q 37.984375 10.453125 37.984375 14.40625 
Q 37.984375 18.0625 35.515625 20.015625 
Q 33.0625 21.96875 24.703125 23.78125 
L 21.578125 24.515625 
Q 13.234375 26.265625 9.515625 29.90625 
Q 5.8125 33.546875 5.8125 39.890625 
Q 5.8125 47.609375 11.28125 51.796875 
Q 16.75 56 26.8125 56 
Q 31.78125 56 36.171875 55.265625 
Q 40.578125 54.546875 44.28125 53.078125 
z
" id="DejaVuSans-115"/>
      </defs>
      <use xlink:href="#DejaVuSans-71"/>
      <use x="77.490234" xlink:href="#DejaVuSans-101"/>
      <use x="139.013672" xlink:href="#DejaVuSans-110"/>
      <use x="202.392578" xlink:href="#DejaVuSans-101"/>
      <use x="263.916016" xlink:href="#DejaVuSans-114"/>
      <use x="305.029297" xlink:href="#DejaVuSans-97"/>
      <use x="366.308594" xlink:href="#DejaVuSans-116"/>
      <use x="405.517578" xlink:href="#DejaVuSans-105"/>
      <use x="433.300781" xlink:href="#DejaVuSans-111"/>
      <use x="494.482422" xlink:href="#DejaVuSans-110"/>
      <use x="557.861328" xlink:href="#DejaVuSans-115"/>
     </g>
    </g>
   </g>
   <g id="matplotlib.axis_2">
    <g id="ytick_1">
     <g id="line2d_13">
      <path clip-path="url(#p3020bb19d9)" d="M 57.6 286.321648 
L 414.72 286.321648 
" style="fill:none;stroke:#b0b0b0;stroke-linecap:square;stroke-width:0.8;"/>
     </g>
     <g id="line2d_14">
      <defs>
       <path d="M 0 0 
L -3.5 0 
" id="m9d2e5731d7" style="stroke:#000000;stroke-width:0.8;"/>
      </defs>
      <g>
       <use style="stroke:#000000;stroke-width:0.8;" x="57.6" xlink:href="#m9d2e5731d7" y="286.321648"/>
      </g>
     </g>
     <g id="text_8">
      <!-- 250 -->
      <g transform="translate(31.5125 290.120867)scale(0.1 -0.1)">
       <use xlink:href="#DejaVuSans-50"/>
       <use x="63.623047" xlink:href="#DejaVuSans-53"/>
       <use x="127.246094" xlink:href="#DejaVuSans-48"/>
      </g>
     </g>
    </g>
    <g id="ytick_2">
     <g id="line2d_15">
      <path clip-path="url(#p3020bb19d9)" d="M 57.6 256.172212 
L 414.72 256.172212 
" style="fill:none;stroke:#b0b0b0;stroke-linecap:square;stroke-width:0.8;"/>
     </g>
     <g id="line2d_16">
      <g>
       <use style="stroke:#000000;stroke-width:0.8;" x="57.6" xlink:href="#m9d2e5731d7" y="256.172212"/>
      </g>
     </g>
     <g id="text_9">
      <!-- 300 -->
      <g transform="translate(31.5125 259.971431)scale(0.1 -0.1)">
       <use xlink:href="#DejaVuSans-51"/>
       <use x="63.623047" xlink:href="#DejaVuSans-48"/>
       <use x="127.246094" xlink:href="#DejaVuSans-48"/>
      </g>
     </g>
    </g>
    <g id="ytick_3">
     <g id="line2d_17">
      <path clip-path="url(#p3020bb19d9)" d="M 57.6 226.022776 
L 414.72 226.022776 
" style="fill:none;stroke:#b0b0b0;stroke-linecap:square;stroke-width:0.8;"/>
     </g>
     <g id="line2d_18">
      <g>
       <use style="stroke:#000000;stroke-width:0.8;" x="57.6" xlink:href="#m9d2e5731d7" y="226.022776"/>
      </g>
     </g>
     <g id="text_10">
      <!-- 350 -->
      <g transform="translate(31.5125 229.821994)scale(0.1 -0.1)">
       <use xlink:href="#DejaVuSans-51"/>
       <use x="63.623047" xlink:href="#DejaVuSans-53"/>
       <use x="127.246094" xlink:href="#DejaVuSans-48"/>
      </g>
     </g>
    </g>
    <g id="ytick_4">
     <g id="line2d_19">
      <path clip-path="url(#p3020bb19d9)" d="M 57.6 195.873339 
L 414.72 195.873339 
" style="fill:none;stroke:#b0b0b0;stroke-linecap:square;stroke-width:0.8;"/>
     </g>
     <g id="line2d_20">
      <g>
       <use style="stroke:#000000;stroke-width:0.8;" x="57.6" xlink:href="#m9d2e5731d7" y="195.873339"/>
      </g>
     </g>
     <g id="text_11">
      <!-- 400 -->
      <g transform="translate(31.5125 199.672558)scale(0.1 -0.1)">
       <use xlink:href="#DejaVuSans-52"/>
       <use x="63.623047" xlink:href="#DejaVuSans-48"/>
       <use x="127.246094" xlink:href="#DejaVuSans-48"/>
      </g>
     </g>
    </g>
    <g id="ytick_5">
     <g id="line2d_21">
      <path clip-path="url(#p3020bb19d9)" d="M 57.6 165.723903 
L 414.72 165.723903 
" style="fill:none;stroke:#b0b0b0;stroke-linecap:square;stroke-width:0.8;"/>
     </g>
     <g id="line2d_22">
      <g>
       <use style="stroke:#000000;stroke-width:0.8;" x="57.6" xlink:href="#m9d2e5731d7" y="165.723903"/>
      </g>
     </g>
     <g id="text_12">
      <!-- 450 -->
      <g transform="translate(31.5125 169.523122)scale(0.1 -0.1)">
       <use xlink:href="#DejaVuSans-52"/>
       <use x="63.623047" xlink:href="#DejaVuSans-53"/>
       <use x="127.246094" xlink:href="#DejaVuSans-48"/>
      </g>
     </g>
    </g>
    <g id="ytick_6">
     <g id="line2d_23">
      <path clip-path="url(#p3020bb19d9)" d="M 57.6 135.574467 
L 414.72 135.574467 
" style="fill:none;stroke:#b0b0b0;stroke-linecap:square;stroke-width:0.8;"/>
     </g>
     <g id="line2d_24">
      <g>
       <use style="stroke:#000000;stroke-width:0.8;" x="57.6" xlink:href="#m9d2e5731d7" y="135.574467"/>
      </g>
     </g>
     <g id="text_13">
      <!-- 500 -->
      <g transform="translate(31.5125 139.373685)scale(0.1 -0.1)">
       <use xlink:href="#DejaVuSans-53"/>
       <use x="63.623047" xlink:href="#DejaVuSans-48"/>
       <use x="127.246094" xlink:href="#DejaVuSans-48"/>
      </g>
     </g>
    </g>
    <g id="ytick_7">
     <g id="line2d_25">
      <path clip-path="url(#p3020bb19d9)" d="M 57.6 105.42503 
L 414.72 105.42503 
" style="fill:none;stroke:#b0b0b0;stroke-linecap:square;stroke-width:0.8;"/>
     </g>
     <g id="line2d_26">
      <g>
       <use style="stroke:#000000;stroke-width:0.8;" x="57.6" xlink:href="#m9d2e5731d7" y="105.42503"/>
      </g>
     </g>
     <g id="text_14">
      <!-- 550 -->
      <g transform="translate(31.5125 109.224249)scale(0.1 -0.1)">
       <use xlink:href="#DejaVuSans-53"/>
       <use x="63.623047" xlink:href="#DejaVuSans-53"/>
       <use x="127.246094" xlink:href="#DejaVuSans-48"/>
      </g>
     </g>
    </g>
    <g id="ytick_8">
     <g id="line2d_27">
      <path clip-path="url(#p3020bb19d9)" d="M 57.6 75.275594 
L 414.72 75.275594 
" style="fill:none;stroke:#b0b0b0;stroke-linecap:square;stroke-width:0.8;"/>
     </g>
     <g id="line2d_28">
      <g>
       <use style="stroke:#000000;stroke-width:0.8;" x="57.6" xlink:href="#m9d2e5731d7" y="75.275594"/>
      </g>
     </g>
     <g id="text_15">
      <!-- 600 -->
      <g transform="translate(31.5125 79.074813)scale(0.1 -0.1)">
       <defs>
        <path d="M 33.015625 40.375 
Q 26.375 40.375 22.484375 35.828125 
Q 18.609375 31.296875 18.609375 23.390625 
Q 18.609375 15.53125 22.484375 10.953125 
Q 26.375 6.390625 33.015625 6.390625 
Q 39.65625 6.390625 43.53125 10.953125 
Q 47.40625 15.53125 47.40625 23.390625 
Q 47.40625 31.296875 43.53125 35.828125 
Q 39.65625 40.375 33.015625 40.375 
z
M 52.59375 71.296875 
L 52.59375 62.3125 
Q 48.875 64.0625 45.09375 64.984375 
Q 41.3125 65.921875 37.59375 65.921875 
Q 27.828125 65.921875 22.671875 59.328125 
Q 17.53125 52.734375 16.796875 39.40625 
Q 19.671875 43.65625 24.015625 45.921875 
Q 28.375 48.1875 33.59375 48.1875 
Q 44.578125 48.1875 50.953125 41.515625 
Q 57.328125 34.859375 57.328125 23.390625 
Q 57.328125 12.15625 50.6875 5.359375 
Q 44.046875 -1.421875 33.015625 -1.421875 
Q 20.359375 -1.421875 13.671875 8.265625 
Q 6.984375 17.96875 6.984375 36.375 
Q 6.984375 53.65625 15.1875 63.9375 
Q 23.390625 74.21875 37.203125 74.21875 
Q 40.921875 74.21875 44.703125 73.484375 
Q 48.484375 72.75 52.59375 71.296875 
z
" id="DejaVuSans-54"/>
       </defs>
       <use xlink:href="#DejaVuSans-54"/>
       <use x="63.623047" xlink:href="#DejaVuSans-48"/>
       <use x="127.246094" xlink:href="#DejaVuSans-48"/>
      </g>
     </g>
    </g>
    <g id="ytick_9">
     <g id="line2d_29">
      <path clip-path="url(#p3020bb19d9)" d="M 57.6 45.126158 
L 414.72 45.126158 
" style="fill:none;stroke:#b0b0b0;stroke-linecap:square;stroke-width:0.8;"/>
     </g>
     <g id="line2d_30">
      <g>
       <use style="stroke:#000000;stroke-width:0.8;" x="57.6" xlink:href="#m9d2e5731d7" y="45.126158"/>
      </g>
     </g>
     <g id="text_16">
      <!-- 650 -->
      <g transform="translate(31.5125 48.925377)scale(0.1 -0.1)">
       <use xlink:href="#DejaVuSans-54"/>
       <use x="63.623047" xlink:href="#DejaVuSans-53"/>
       <use x="127.246094" xlink:href="#DejaVuSans-48"/>
      </g>
     </g>
    </g>
    <g id="text_17">
     <!-- Fitness -->
     <g transform="translate(25.432812 191.845187)rotate(-90)scale(0.1 -0.1)">
      <defs>
       <path d="M 9.8125 72.90625 
L 51.703125 72.90625 
L 51.703125 64.59375 
L 19.671875 64.59375 
L 19.671875 43.109375 
L 48.578125 43.109375 
L 48.578125 34.8125 
L 19.671875 34.8125 
L 19.671875 0 
L 9.8125 0 
z
" id="DejaVuSans-70"/>
      </defs>
      <use xlink:href="#DejaVuSans-70"/>
      <use x="50.269531" xlink:href="#DejaVuSans-105"/>
      <use x="78.052734" xlink:href="#DejaVuSans-116"/>
      <use x="117.261719" xlink:href="#DejaVuSans-110"/>
      <use x="180.640625" xlink:href="#DejaVuSans-101"/>
      <use x="242.164062" xlink:href="#DejaVuSans-115"/>
      <use x="294.263672" xlink:href="#DejaVuSans-115"/>
     </g>
    </g>
   </g>
   <g id="line2d_31">
    <path clip-path="url(#p3020bb19d9)" d="M 73.832727 236.285644 
L 74.483338 236.086657 
L 75.133948 236.265142 
L 75.784558 237.526221 
L 76.435169 236.541579 
L 77.085779 236.58352 
L 77.736389 236.497619 
L 78.386999 235.776298 
L 79.03761 236.361943 
L 79.68822 236.388212 
L 80.33883 235.848507 
L 80.989441 235.902238 
L 81.640051 235.637162 
L 82.290661 236.062239 
L 82.941272 236.34045 
L 83.591882 235.841343 
L 84.242492 236.710148 
L 84.893103 236.074336 
L 85.543713 236.398594 
L 86.194323 236.051183 
L 86.844934 235.106058 
L 87.495544 235.885661 
L 88.146154 237.591057 
L 89.447375 236.177106 
L 90.097985 235.754086 
L 90.748595 236.676687 
L 91.399206 235.678635 
L 92.700426 235.80307 
L 93.351037 237.13953 
L 94.001647 235.948535 
L 94.652257 236.513712 
L 95.302868 236.527474 
L 95.953478 235.471394 
L 96.604088 236.368499 
L 97.254698 236.543493 
L 97.905309 237.958223 
L 98.555919 236.454481 
L 99.206529 237.061648 
L 99.85714 235.270593 
L 100.50775 235.434129 
L 101.15836 231.091463 
L 101.808971 237.455442 
L 102.459581 236.906131 
L 103.110191 235.851492 
L 103.760802 239.724351 
L 104.411412 234.126944 
L 105.062022 232.25571 
L 105.712633 234.561096 
L 106.363243 230.81528 
L 107.013853 233.443229 
L 107.664463 238.592293 
L 108.315074 232.17699 
L 108.965684 228.908507 
L 109.616294 243.601743 
L 110.266905 234.585216 
L 110.917515 233.017445 
L 111.568125 240.894447 
L 112.218736 242.06593 
L 112.869346 240.681432 
L 113.519956 246.372122 
L 114.821177 234.663718 
L 115.471787 236.731624 
L 116.122398 235.215509 
L 116.773008 236.150645 
L 118.074228 230.20924 
L 118.724839 237.997279 
L 119.375449 231.576302 
L 120.026059 229.377266 
L 120.67667 233.578224 
L 121.32728 229.774706 
L 121.97789 228.557789 
L 122.628501 220.209964 
L 123.279111 225.486116 
L 123.929721 228.966077 
L 124.580332 225.956447 
L 125.230942 214.601811 
L 125.881552 228.010847 
L 126.532163 232.840727 
L 127.182773 219.860231 
L 127.833383 221.272701 
L 128.483993 214.584262 
L 129.134604 205.484614 
L 129.785214 217.416482 
L 130.435824 217.701531 
L 131.086435 213.518077 
L 131.737045 210.798803 
L 133.038266 221.192775 
L 133.688876 215.64534 
L 134.339486 208.249534 
L 134.990097 212.239306 
L 135.640707 218.354464 
L 136.291317 221.699346 
L 136.941927 212.297319 
L 137.592538 226.863305 
L 138.243148 227.578487 
L 138.893758 230.521072 
L 139.544369 223.281918 
L 140.194979 219.854201 
L 140.845589 224.60989 
L 141.4962 219.186913 
L 142.14681 223.527238 
L 142.79742 209.74208 
L 143.448031 222.339815 
L 144.098641 220.68543 
L 144.749251 213.336132 
L 145.399862 213.613268 
L 146.050472 209.877445 
L 146.701082 203.103113 
L 147.351692 226.780989 
L 148.002303 219.799932 
L 148.652913 214.680558 
L 149.303523 215.229277 
L 149.954134 210.966147 
L 150.604744 216.345105 
L 151.255354 205.694294 
L 151.905965 201.119341 
L 152.556575 211.33612 
L 153.207185 208.84942 
L 153.857796 205.742056 
L 154.508406 210.643518 
L 155.159016 211.50232 
L 155.809627 204.477988 
L 156.460237 212.521858 
L 157.110847 217.990966 
L 157.761457 214.792857 
L 158.412068 216.315254 
L 159.062678 205.67952 
L 159.713288 215.814177 
L 160.363899 218.599984 
L 161.014509 222.712368 
L 161.665119 235.634774 
L 162.31573 219.837664 
L 162.96634 213.540909 
L 163.61695 211.484047 
L 164.267561 207.317944 
L 164.918171 214.976022 
L 165.568781 213.603644 
L 166.219392 222.234301 
L 166.870002 210.031515 
L 167.520612 204.832029 
L 168.171222 210.186708 
L 168.821833 214.608199 
L 169.472443 203.748372 
L 170.123053 223.66509 
L 170.773664 216.527226 
L 171.424274 212.907771 
L 172.074884 223.263645 
L 172.725495 207.927144 
L 173.376105 215.030291 
L 174.026715 211.681103 
L 174.677326 221.169015 
L 175.327936 210.35725 
L 175.978546 209.718199 
L 176.629156 206.443732 
L 177.279767 206.214596 
L 177.930377 216.637644 
L 178.580987 213.565029 
L 179.231598 214.174047 
L 179.882208 215.680605 
L 180.532818 218.360555 
L 181.183429 223.749508 
L 181.834039 216.142119 
L 182.484649 218.461297 
L 183.13526 212.558037 
L 183.78587 214.651261 
L 184.43648 215.355905 
L 185.087091 213.500101 
L 185.737701 210.230501 
L 186.388311 210.483756 
L 187.038921 216.100328 
L 187.689532 215.007784 
L 188.340142 221.265195 
L 189.641363 213.064548 
L 190.291973 221.958632 
L 190.942583 213.122471 
L 191.593194 211.568957 
L 192.243804 212.588187 
L 192.894414 201.007699 
L 193.545025 208.936105 
L 194.195635 214.475542 
L 194.846245 214.572081 
L 195.496856 217.725651 
L 196.147466 213.554918 
L 196.798076 213.396192 
L 197.448686 220.469249 
L 198.099297 213.148966 
L 198.749907 209.73611 
L 199.400517 214.333153 
L 200.051128 213.18947 
L 200.701738 210.217162 
L 201.352348 219.737075 
L 202.002959 214.216256 
L 202.653569 215.693579 
L 203.304179 214.498991 
L 203.95479 211.401792 
L 204.6054 204.435779 
L 205.906621 221.409912 
L 206.557231 214.300675 
L 207.207841 209.096882 
L 207.858451 226.957408 
L 208.509062 210.100291 
L 209.159672 218.727209 
L 209.810282 202.216781 
L 210.460893 212.708785 
L 211.111503 203.217742 
L 211.762113 225.890118 
L 212.412724 213.311773 
L 213.063334 218.786911 
L 213.713944 207.908994 
L 214.364555 221.216956 
L 215.015165 217.813771 
L 215.665775 209.370542 
L 216.316385 210.091814 
L 216.966996 210.130142 
L 217.617606 205.276381 
L 218.268216 215.819729 
L 218.918827 204.41769 
L 219.569437 203.30411 
L 220.220047 210.399338 
L 220.870658 210.640533 
L 221.521268 223.218878 
L 222.171878 214.855424 
L 222.822489 212.951929 
L 223.473099 207.559261 
L 224.123709 218.607805 
L 224.77432 204.707124 
L 225.42493 199.973663 
L 226.07554 202.28311 
L 226.72615 202.876367 
L 227.376761 201.180834 
L 228.677981 217.24929 
L 229.328592 211.940857 
L 229.979202 214.833985 
L 230.629812 208.74319 
L 231.280423 208.243744 
L 231.931033 210.856696 
L 232.581643 210.856696 
L 233.232254 206.5583 
L 233.882864 199.780706 
L 234.533474 209.260907 
L 235.184085 194.166881 
L 236.485305 211.635465 
L 237.135915 208.355206 
L 237.786526 208.819507 
L 238.437136 218.85927 
L 239.087746 225.076083 
L 239.738357 219.830081 
L 240.388967 213.198817 
L 241.039577 215.139128 
L 241.690188 210.888356 
L 242.340798 204.094285 
L 242.991408 199.59378 
L 243.642019 206.2216 
L 244.292629 198.139115 
L 244.943239 205.304083 
L 245.59385 199.660109 
L 246.24446 204.881991 
L 246.89507 201.062697 
L 247.54568 205.768384 
L 248.196291 204.784173 
L 248.846901 201.625852 
L 249.497511 199.730079 
L 250.148122 203.210697 
L 250.798732 196.566776 
L 251.449342 211.418389 
L 252.099953 204.171897 
L 252.750563 194.522645 
L 253.401173 202.177855 
L 254.051784 200.756951 
L 254.702394 201.625852 
L 255.353004 201.933681 
L 256.003615 205.326254 
L 256.654225 206.895973 
L 257.304835 196.21961 
L 257.955445 202.607708 
L 258.606056 196.977824 
L 259.256666 201.239939 
L 259.907276 206.404746 
L 260.557887 206.739196 
L 261.208497 205.171426 
L 261.859107 202.831829 
L 262.509718 201.396716 
L 263.160328 202.900248 
L 263.810938 193.282279 
L 264.461549 201.077132 
L 265.112159 195.439187 
L 265.762769 199.539998 
L 266.413379 196.319551 
L 267.06399 206.416506 
L 267.7146 207.153492 
L 268.36521 213.177289 
L 269.015821 194.868358 
L 269.666431 207.354488 
L 270.317041 204.741537 
L 270.967652 209.862678 
L 271.618262 194.295823 
L 272.268872 203.193622 
L 272.919483 206.00355 
L 273.570093 204.755363 
L 274.220703 208.843627 
L 274.871314 214.26145 
L 275.521924 200.226918 
L 276.172534 222.790756 
L 276.823144 203.353982 
L 277.473755 212.30329 
L 278.124365 210.170202 
L 278.774975 204.544317 
L 279.425586 216.533317 
L 280.076196 212.41935 
L 280.726806 218.31055 
L 281.377417 213.691656 
L 282.028027 220.348652 
L 282.678637 221.222985 
L 283.329248 209.515213 
L 283.979858 211.243522 
L 284.630468 201.294208 
L 285.281079 199.357274 
L 285.931689 195.258291 
L 286.582299 202.512306 
L 287.232909 208.406046 
L 287.88352 228.655627 
L 288.53413 211.526927 
L 289.18474 204.616676 
L 289.835351 207.077854 
L 290.485961 206.887113 
L 291.136571 198.066026 
L 291.787182 209.410436 
L 292.437792 202.397677 
L 293.088402 191.479283 
L 293.739013 208.171921 
L 294.389623 210.512234 
L 295.040233 211.27696 
L 295.690844 207.793026 
L 296.341454 206.197237 
L 296.992064 188.932939 
L 297.642674 204.092076 
L 298.293285 211.792242 
L 298.943895 213.926822 
L 299.594505 226.267553 
L 300.245116 217.345768 
L 300.895726 215.747604 
L 301.546336 217.836747 
L 302.196947 222.314395 
L 302.847557 218.44064 
L 303.498167 205.600339 
L 304.148778 211.466628 
L 304.799388 221.132537 
L 305.449998 211.927168 
L 306.100608 208.942075 
L 306.751219 209.910917 
L 307.401829 209.687811 
L 308.052439 207.196128 
L 308.70305 207.028631 
L 309.35366 223.831718 
L 310.00427 210.237605 
L 310.654881 206.250775 
L 311.305491 210.622444 
L 311.956101 208.783328 
L 312.606712 212.666575 
L 313.257322 209.313958 
L 313.907932 214.523354 
L 314.558543 205.48498 
L 315.209153 219.848171 
L 315.859763 221.036059 
L 316.510373 213.583118 
L 317.160984 207.716038 
L 317.811594 207.800456 
L 318.462204 215.355905 
L 319.112815 217.810069 
L 319.763425 200.570622 
L 320.414035 219.37181 
L 321.064646 210.013425 
L 322.365866 224.141451 
L 323.016477 233.337029 
L 323.667087 240.699521 
L 324.317697 236.719796 
L 324.968308 234.591245 
L 325.618918 227.331261 
L 326.269528 246.488213 
L 326.920138 227.11532 
L 327.570749 238.221238 
L 328.871969 232.381566 
L 329.52258 239.780763 
L 330.17319 243.123536 
L 330.8238 235.278653 
L 331.474411 233.713838 
L 332.125021 238.804943 
L 332.775631 232.995952 
L 333.426242 242.04927 
L 334.076852 235.139249 
L 334.727462 238.131277 
L 335.378073 235.530093 
L 336.028683 234.718819 
L 336.679293 234.621395 
L 337.329903 235.453519 
L 337.980514 232.016842 
L 338.631124 241.001971 
L 339.281734 235.306414 
L 339.932345 234.299092 
L 340.582955 227.754129 
L 341.233565 234.661634 
L 341.884176 227.602606 
L 342.534786 223.870106 
L 343.185396 226.432808 
L 343.836007 231.317017 
L 345.137227 214.294645 
L 345.787837 231.708959 
L 347.739668 210.658623 
L 348.390279 209.784289 
L 349.040889 209.362197 
L 349.691499 210.900296 
L 350.34211 215.718236 
L 350.99272 209.181301 
L 351.64333 217.21914 
L 352.293941 221.373733 
L 352.944551 201.74042 
L 353.595161 211.116894 
L 354.245772 203.586819 
L 354.896382 212.883651 
L 355.546992 210.001365 
L 356.197602 203.609685 
L 356.848213 216.242299 
L 357.498823 211.37618 
L 358.149433 202.644903 
L 358.800044 206.871854 
L 359.450654 210.043574 
L 360.101264 218.973837 
L 360.751875 211.852541 
L 361.402485 202.934337 
L 362.053095 203.893089 
L 362.703706 208.168279 
L 363.354316 205.358352 
L 364.004926 204.061926 
L 364.655537 198.146607 
L 365.306147 194.800019 
L 365.956757 192.189078 
L 366.607367 192.942814 
L 367.257978 181.628477 
L 367.908588 193.485265 
L 368.559198 196.088266 
L 369.209809 182.746275 
L 369.860419 182.99953 
L 370.511029 192.056421 
L 371.16164 191.789733 
L 372.46286 199.841005 
L 373.113471 183.431473 
L 373.764081 183.485205 
L 374.414691 184.842909 
L 375.065302 202.047944 
L 375.715912 202.512306 
L 376.366522 193.150754 
L 377.017132 206.56161 
L 377.667743 190.004647 
L 378.318353 191.091221 
L 379.619574 207.872815 
L 380.270184 204.881991 
L 380.920794 200.1425 
L 382.222015 210.737011 
L 382.872625 207.806486 
L 384.173846 199.286256 
L 384.824456 207.646846 
L 385.475066 205.575428 
L 386.125677 188.975148 
L 386.776287 197.956391 
L 387.426897 196.902684 
L 388.077508 189.112557 
L 389.378728 200.046499 
L 390.029339 197.915143 
L 390.679949 204.410704 
L 391.330559 205.708085 
L 392.63178 197.893352 
L 393.28239 205.641757 
L 393.933001 202.735351 
L 394.583611 212.805263 
L 395.234221 195.336679 
L 395.884831 204.423719 
L 396.535442 198.357653 
L 397.186052 198.183801 
L 397.836662 200.226918 
L 398.487273 201.819644 
L 398.487273 201.819644 
" style="fill:none;stroke:#0000ff;stroke-linecap:square;stroke-width:1.5;"/>
   </g>
   <g id="line2d_32">
    <path clip-path="url(#p3020bb19d9)" d="M 73.832727 237.319484 
L 74.483338 242.06902 
L 75.133948 245.367153 
L 75.784558 250.532091 
L 76.435169 247.36124 
L 77.085779 245.459174 
L 77.736389 244.621959 
L 78.386999 241.582871 
L 79.03761 243.4329 
L 80.33883 239.667523 
L 80.989441 242.289055 
L 81.640051 241.665046 
L 82.290661 240.835356 
L 82.941272 241.504308 
L 83.591882 242.40523 
L 84.242492 246.847029 
L 84.893103 242.799389 
L 85.543713 247.582978 
L 86.194323 243.043963 
L 86.844934 244.958526 
L 87.495544 248.188938 
L 88.796764 246.967799 
L 89.447375 238.820566 
L 90.097985 240.875944 
L 90.748595 243.340852 
L 91.399206 242.91751 
L 92.049816 242.901259 
L 92.700426 240.721591 
L 93.351037 249.609075 
L 94.001647 240.1478 
L 94.652257 245.307474 
L 95.302868 255.22113 
L 95.953478 254.912586 
L 96.604088 247.051647 
L 97.254698 253.817677 
L 97.905309 255.835265 
L 98.555919 250.484177 
L 99.206529 264.241641 
L 99.85714 244.944972 
L 100.50775 250.909571 
L 101.15836 253.060204 
L 101.808971 264.562172 
L 102.459581 263.16217 
L 103.110191 268.378081 
L 103.760802 266.36028 
L 104.411412 261.157029 
L 105.062022 259.606735 
L 105.712633 271.760049 
L 106.363243 267.201849 
L 107.013853 269.343817 
L 107.664463 276.804192 
L 108.315074 275.348099 
L 108.965684 263.276409 
L 109.616294 290.588327 
L 110.266905 272.362447 
L 110.917515 277.486136 
L 111.568125 287.141944 
L 112.218736 281.745054 
L 112.869346 286.942316 
L 113.519956 289.181049 
L 114.170567 271.933462 
L 114.821177 271.778264 
L 115.471787 278.477979 
L 116.122398 272.144482 
L 116.773008 274.126002 
L 117.423618 271.799085 
L 118.074228 263.934725 
L 118.724839 273.33169 
L 120.026059 257.348653 
L 120.67667 274.147623 
L 121.32728 255.428538 
L 121.97789 254.446202 
L 122.628501 248.450511 
L 123.279111 256.68656 
L 123.929721 268.290534 
L 124.580332 261.579344 
L 125.230942 249.979495 
L 125.881552 269.597255 
L 126.532163 273.196237 
L 127.182773 264.146424 
L 127.833383 270.889705 
L 128.483993 254.30942 
L 129.134604 242.370555 
L 129.785214 260.560785 
L 130.435824 260.160416 
L 131.086435 258.662658 
L 131.737045 257.796503 
L 132.387655 260.454224 
L 133.038266 269.672506 
L 133.688876 263.083371 
L 134.339486 252.735649 
L 134.990097 257.318145 
L 135.640707 266.242294 
L 136.291317 270.526993 
L 136.941927 257.813282 
L 137.592538 277.618434 
L 138.243148 275.403604 
L 138.893758 274.444686 
L 139.544369 270.443883 
L 140.194979 267.731039 
L 140.845589 271.279135 
L 141.4962 255.098005 
L 142.14681 266.741049 
L 142.79742 252.278625 
L 143.448031 269.076869 
L 144.098641 266.763294 
L 144.749251 257.506117 
L 145.399862 257.61287 
L 146.050472 250.867604 
L 146.701082 247.031338 
L 147.351692 278.23308 
L 148.002303 260.966788 
L 148.652913 256.807915 
L 149.303523 264.522084 
L 149.954134 260.959219 
L 150.604744 261.259731 
L 151.255354 248.407142 
L 151.905965 241.55948 
L 152.556575 254.537395 
L 153.207185 255.368428 
L 153.857796 252.361469 
L 154.508406 256.051555 
L 155.159016 256.954522 
L 155.809627 246.967336 
L 156.460237 259.442123 
L 157.110847 267.938592 
L 157.761457 262.677956 
L 158.412068 263.04741 
L 159.062678 248.922775 
L 159.713288 267.787975 
L 160.363899 269.685387 
L 161.014509 262.931986 
L 161.665119 282.252883 
L 162.31573 261.228936 
L 162.96634 257.417238 
L 163.61695 259.11664 
L 164.267561 253.34269 
L 164.918171 262.222017 
L 165.568781 260.523944 
L 166.219392 268.593388 
L 166.870002 253.719575 
L 167.520612 246.783258 
L 168.171222 256.875421 
L 168.821833 263.419103 
L 169.472443 251.45197 
L 170.123053 267.815897 
L 170.773664 264.799305 
L 171.424274 258.678895 
L 172.074884 269.793306 
L 172.725495 253.389953 
L 173.376105 264.282612 
L 174.026715 259.79083 
L 174.677326 271.606851 
L 175.327936 253.359685 
L 175.978546 255.993735 
L 176.629156 250.482922 
L 177.279767 251.240647 
L 177.930377 258.880736 
L 178.580987 259.680715 
L 179.231598 254.717708 
L 180.532818 262.778968 
L 181.183429 266.47413 
L 181.834039 255.249996 
L 182.484649 270.405507 
L 183.13526 258.008595 
L 183.78587 260.792925 
L 184.43648 264.111613 
L 185.087091 258.936717 
L 185.737701 257.589705 
L 186.388311 250.820309 
L 187.038921 267.294775 
L 187.689532 255.264971 
L 188.340142 265.20416 
L 188.990752 264.572873 
L 189.641363 262.045014 
L 190.291973 269.048663 
L 190.942583 261.731674 
L 191.593194 263.526997 
L 192.243804 260.332869 
L 192.894414 248.434931 
L 193.545025 256.667927 
L 194.195635 263.101367 
L 194.846245 263.961453 
L 195.496856 267.606861 
L 196.147466 259.394307 
L 196.798076 258.741411 
L 197.448686 269.026003 
L 198.099297 262.799687 
L 198.749907 255.119983 
L 200.051128 264.21575 
L 200.701738 254.815627 
L 201.352348 261.432409 
L 202.002959 264.421807 
L 202.653569 263.737339 
L 203.304179 256.804057 
L 203.95479 263.272802 
L 204.6054 249.126072 
L 205.25601 257.976426 
L 205.906621 270.648834 
L 206.557231 256.320581 
L 207.207841 253.719291 
L 207.858451 272.583727 
L 208.509062 256.994145 
L 209.159672 268.213731 
L 209.810282 245.852961 
L 210.460893 259.738634 
L 211.111503 251.084594 
L 211.762113 278.849254 
L 212.412724 262.313331 
L 213.063334 266.882359 
L 213.713944 253.084073 
L 214.364555 269.925044 
L 215.015165 266.134514 
L 215.665775 253.241392 
L 216.316385 259.538961 
L 216.966996 257.748268 
L 217.617606 248.942024 
L 218.268216 262.129929 
L 218.918827 249.443311 
L 219.569437 246.623332 
L 220.220047 251.290074 
L 220.870658 258.030345 
L 221.521268 263.136219 
L 222.171878 259.331922 
L 222.822489 257.552828 
L 223.473099 251.530725 
L 224.123709 265.587665 
L 224.77432 250.427698 
L 225.42493 242.075405 
L 226.07554 249.794845 
L 226.72615 246.6023 
L 227.376761 244.26048 
L 228.027371 256.696986 
L 228.677981 263.958882 
L 229.979202 255.621883 
L 230.629812 253.257322 
L 231.931033 263.051822 
L 232.581643 260.100914 
L 233.232254 253.92237 
L 233.882864 239.460432 
L 234.533474 254.298989 
L 235.184085 236.902837 
L 235.834695 249.134053 
L 236.485305 252.641005 
L 237.135915 254.59768 
L 237.786526 255.853745 
L 238.437136 264.689926 
L 239.087746 271.583854 
L 239.738357 268.700735 
L 240.388967 258.026517 
L 241.039577 262.415126 
L 241.690188 253.654535 
L 242.340798 249.410622 
L 242.991408 241.450672 
L 243.642019 249.04351 
L 244.292629 243.801196 
L 244.943239 253.379079 
L 245.59385 243.617125 
L 246.24446 251.70311 
L 246.89507 252.324141 
L 247.54568 249.171519 
L 248.196291 256.543698 
L 248.846901 250.622567 
L 249.497511 251.231223 
L 250.148122 256.350927 
L 250.798732 237.474162 
L 251.449342 256.503286 
L 252.099953 249.947098 
L 252.750563 236.177525 
L 253.401173 248.627291 
L 254.051784 246.528483 
L 254.702394 254.792324 
L 255.353004 248.25158 
L 256.003615 251.009382 
L 256.654225 261.366991 
L 257.304835 237.947295 
L 257.955445 249.752452 
L 258.606056 243.678198 
L 259.256666 242.286999 
L 259.907276 251.99487 
L 260.557887 249.332997 
L 261.208497 259.631502 
L 261.859107 247.273646 
L 262.509718 247.616793 
L 263.160328 246.050733 
L 263.810938 233.059135 
L 264.461549 244.810375 
L 265.112159 243.103078 
L 265.762769 244.460639 
L 266.413379 245.237631 
L 267.06399 255.162162 
L 267.7146 251.992346 
L 268.36521 264.920555 
L 269.015821 241.585335 
L 269.666431 262.337285 
L 270.317041 253.055817 
L 270.967652 259.852007 
L 271.618262 239.649907 
L 272.268872 247.792131 
L 272.919483 252.241502 
L 273.570093 252.097533 
L 274.871314 267.887594 
L 275.521924 241.592435 
L 276.172534 274.375976 
L 276.823144 248.791341 
L 277.473755 265.709316 
L 278.124365 254.892563 
L 278.774975 250.905625 
L 279.425586 252.299414 
L 280.076196 256.70232 
L 280.726806 268.15969 
L 281.377417 267.563924 
L 282.028027 269.4529 
L 282.678637 270.879019 
L 283.329248 258.617185 
L 283.979858 261.535782 
L 285.281079 242.841821 
L 285.931689 236.965237 
L 286.582299 249.489053 
L 287.232909 254.137541 
L 287.88352 288.33156 
L 288.53413 255.006547 
L 289.18474 250.258462 
L 289.835351 255.798549 
L 290.485961 257.60994 
L 291.136571 242.493632 
L 291.787182 251.851538 
L 292.437792 249.410723 
L 293.088402 229.30697 
L 293.739013 252.195298 
L 294.389623 255.281531 
L 295.040233 254.872996 
L 296.341454 252.561255 
L 296.992064 233.472422 
L 297.642674 251.979378 
L 298.293285 258.996208 
L 298.943895 260.783494 
L 299.594505 275.1603 
L 300.245116 263.228487 
L 300.895726 257.411906 
L 301.546336 259.290649 
L 302.196947 262.239842 
L 302.847557 260.843298 
L 303.498167 245.745707 
L 304.148778 252.643299 
L 304.799388 266.923478 
L 305.449998 257.806901 
L 306.100608 254.479622 
L 306.751219 254.948571 
L 307.401829 256.54722 
L 308.052439 253.892939 
L 308.70305 248.193245 
L 309.35366 269.058437 
L 310.00427 254.508089 
L 310.654881 247.62945 
L 311.305491 264.099856 
L 311.956101 254.140194 
L 312.606712 260.931021 
L 313.257322 260.653715 
L 313.907932 260.719052 
L 314.558543 254.25054 
L 315.209153 265.423359 
L 315.859763 266.839223 
L 316.510373 260.409194 
L 317.160984 258.639178 
L 317.811594 254.056537 
L 318.462204 266.262061 
L 319.112815 263.191514 
L 319.763425 245.147543 
L 320.414035 264.434998 
L 321.064646 260.272264 
L 321.715256 267.900608 
L 322.365866 269.604824 
L 323.016477 272.673774 
L 323.667087 278.665812 
L 324.317697 278.645652 
L 324.968308 279.668296 
L 325.618918 272.420471 
L 326.269528 295.488 
L 326.920138 271.312012 
L 327.570749 286.631045 
L 328.221359 281.923271 
L 328.871969 281.730006 
L 329.52258 290.806736 
L 330.17319 294.764057 
L 330.8238 290.52008 
L 331.474411 269.966533 
L 332.125021 279.327304 
L 332.775631 280.258322 
L 333.426242 291.664944 
L 334.727462 276.695963 
L 335.378073 281.973126 
L 336.028683 281.374691 
L 336.679293 275.858208 
L 337.329903 283.533658 
L 337.980514 279.510006 
L 338.631124 282.86079 
L 339.281734 276.249557 
L 339.932345 287.155741 
L 340.582955 276.985466 
L 341.233565 276.262544 
L 341.884176 269.753526 
L 342.534786 268.808041 
L 343.836007 281.777957 
L 344.486617 267.885914 
L 345.137227 257.160178 
L 345.787837 276.021391 
L 346.438448 267.531886 
L 347.089058 256.594796 
L 347.739668 251.325416 
L 348.390279 253.733627 
L 349.040889 252.383459 
L 349.691499 252.012663 
L 350.34211 257.236421 
L 350.99272 253.412014 
L 352.293941 270.117478 
L 352.944551 242.096618 
L 353.595161 254.174856 
L 354.245772 245.761757 
L 354.896382 259.271108 
L 355.546992 250.763426 
L 356.197602 239.620488 
L 356.848213 258.127632 
L 358.149433 241.567333 
L 358.800044 248.884993 
L 359.450654 260.940431 
L 360.101264 261.883737 
L 360.751875 253.879038 
L 361.402485 252.304445 
L 362.053095 249.614946 
L 362.703706 257.178608 
L 363.354316 253.373209 
L 364.004926 251.275842 
L 364.655537 246.474628 
L 365.956757 230.285646 
L 366.607367 236.305797 
L 367.257978 221.844952 
L 367.908588 242.825235 
L 368.559198 244.503951 
L 369.209809 218.918347 
L 370.511029 236.990132 
L 371.16164 232.277509 
L 371.81225 239.039404 
L 372.46286 244.577907 
L 373.113471 223.066545 
L 373.764081 223.116081 
L 374.414691 224.010907 
L 375.065302 250.379596 
L 375.715912 247.54676 
L 376.366522 237.280998 
L 377.017132 255.807607 
L 377.667743 232.630135 
L 378.318353 234.259124 
L 378.968963 241.117359 
L 379.619574 253.639262 
L 380.270184 254.610089 
L 380.920794 247.882582 
L 381.571405 252.72842 
L 382.222015 259.543306 
L 382.872625 251.531302 
L 383.523236 251.764858 
L 384.173846 248.986445 
L 384.824456 255.642715 
L 385.475066 249.781296 
L 386.125677 225.858675 
L 386.776287 240.133768 
L 387.426897 237.305179 
L 388.077508 228.433567 
L 388.728118 236.72041 
L 389.378728 241.187315 
L 390.029339 240.607558 
L 390.679949 248.404277 
L 391.330559 252.450696 
L 391.98117 249.416084 
L 392.63178 245.207597 
L 393.28239 254.540313 
L 393.933001 249.660411 
L 394.583611 265.937684 
L 395.234221 239.545738 
L 395.884831 247.28077 
L 396.535442 241.823837 
L 397.186052 242.942317 
L 397.836662 243.037383 
L 398.487273 251.296674 
L 398.487273 251.296674 
" style="fill:none;stroke:#008000;stroke-dasharray:9.6,2.4,1.5,2.4;stroke-dashoffset:0;stroke-width:1.5;"/>
   </g>
   <g id="line2d_33">
    <path clip-path="url(#p3020bb19d9)" d="M 73.832727 235.251804 
L 74.483338 230.104295 
L 75.784558 224.520352 
L 76.435169 225.721918 
L 77.085779 227.707866 
L 77.736389 228.37328 
L 78.386999 229.969726 
L 79.03761 229.290985 
L 79.68822 231.268043 
L 80.33883 232.029491 
L 80.989441 229.515422 
L 81.640051 229.609278 
L 82.290661 231.289123 
L 82.941272 231.176592 
L 83.591882 229.277455 
L 84.242492 226.573267 
L 84.893103 229.349282 
L 85.543713 225.214209 
L 86.194323 229.058402 
L 86.844934 225.25359 
L 87.495544 223.582384 
L 88.146154 227.631565 
L 88.796764 226.684848 
L 89.447375 233.533645 
L 90.097985 230.632228 
L 90.748595 230.012522 
L 91.399206 228.439761 
L 92.049816 228.498556 
L 92.700426 230.88455 
L 93.351037 224.669986 
L 94.001647 231.749271 
L 94.652257 227.719951 
L 95.302868 217.833818 
L 95.953478 216.030202 
L 96.604088 225.685351 
L 97.254698 219.26931 
L 97.905309 220.08118 
L 98.555919 222.424785 
L 99.206529 209.881656 
L 99.85714 225.596214 
L 100.50775 219.958688 
L 101.15836 209.122722 
L 101.808971 210.348712 
L 102.459581 210.650092 
L 103.110191 203.324903 
L 103.760802 213.088423 
L 104.411412 207.09686 
L 105.062022 204.904685 
L 105.712633 197.362143 
L 106.363243 194.42871 
L 107.664463 200.380394 
L 108.315074 189.005882 
L 108.965684 194.540606 
L 109.616294 196.615159 
L 110.266905 196.807984 
L 110.917515 188.548754 
L 111.568125 194.646949 
L 112.218736 202.386806 
L 112.869346 194.420547 
L 113.519956 203.563196 
L 114.170567 208.348196 
L 114.821177 197.549171 
L 115.471787 194.985268 
L 116.122398 198.286537 
L 116.773008 198.175287 
L 117.423618 194.801778 
L 118.074228 196.483755 
L 118.724839 202.662868 
L 119.375449 198.231375 
L 120.026059 201.405879 
L 120.67667 193.008826 
L 121.32728 204.120873 
L 121.97789 202.669377 
L 122.628501 191.969418 
L 123.279111 194.285671 
L 123.929721 189.64162 
L 124.580332 190.333549 
L 125.230942 179.224127 
L 126.532163 192.485218 
L 127.182773 175.574038 
L 127.833383 171.655697 
L 128.483993 174.859104 
L 129.134604 168.598673 
L 129.785214 174.272179 
L 130.435824 175.242646 
L 131.086435 168.373497 
L 131.737045 163.801103 
L 132.387655 172.04494 
L 133.038266 172.713044 
L 134.339486 163.763418 
L 135.640707 170.466635 
L 136.291317 172.8717 
L 136.941927 166.781356 
L 137.592538 176.108176 
L 138.243148 179.753369 
L 138.893758 186.597457 
L 139.544369 176.119952 
L 140.194979 171.977363 
L 141.4962 183.275822 
L 142.14681 180.313428 
L 142.79742 167.205535 
L 143.448031 175.602761 
L 144.098641 174.607566 
L 144.749251 169.166147 
L 145.399862 169.613665 
L 146.050472 168.887286 
L 146.701082 159.174889 
L 147.351692 175.328898 
L 148.002303 178.633076 
L 149.954134 160.973076 
L 150.604744 171.430479 
L 151.255354 162.981447 
L 151.905965 160.679202 
L 152.556575 168.134844 
L 153.207185 162.330412 
L 153.857796 159.122642 
L 154.508406 165.235481 
L 155.159016 166.050118 
L 155.809627 161.988641 
L 156.460237 165.601593 
L 157.110847 168.04334 
L 157.761457 166.907758 
L 158.412068 169.583098 
L 159.062678 162.436264 
L 159.713288 163.840378 
L 160.363899 167.514582 
L 161.014509 182.492749 
L 161.665119 189.016666 
L 162.96634 169.66458 
L 163.61695 163.851455 
L 164.267561 161.293197 
L 164.918171 167.730027 
L 165.568781 166.683345 
L 166.219392 175.875214 
L 166.870002 166.343454 
L 167.520612 162.8808 
L 168.171222 163.497996 
L 168.821833 165.797295 
L 169.472443 156.044774 
L 170.123053 179.514282 
L 170.773664 168.255147 
L 171.424274 167.136647 
L 172.074884 176.733985 
L 172.725495 162.464334 
L 173.376105 165.77797 
L 174.026715 163.571375 
L 174.677326 170.731178 
L 175.978546 163.442664 
L 177.279767 161.188545 
L 177.930377 174.394552 
L 178.580987 167.449342 
L 179.231598 173.630386 
L 179.882208 172.326761 
L 180.532818 173.942143 
L 181.183429 181.024886 
L 181.834039 177.034242 
L 182.484649 166.517087 
L 183.13526 167.10748 
L 183.78587 168.509597 
L 184.43648 166.600197 
L 185.087091 168.063484 
L 185.737701 162.871297 
L 186.388311 170.147204 
L 187.038921 164.90588 
L 187.689532 174.750596 
L 188.340142 177.326229 
L 188.990752 169.22624 
L 189.641363 164.084082 
L 190.291973 174.8686 
L 190.942583 164.513268 
L 191.593194 159.610916 
L 192.243804 164.843504 
L 192.894414 153.580466 
L 193.545025 161.204283 
L 194.195635 165.849716 
L 194.846245 165.182708 
L 195.496856 167.844441 
L 196.147466 167.715528 
L 196.798076 168.050973 
L 197.448686 171.912496 
L 198.099297 163.498245 
L 198.749907 164.352237 
L 199.400517 168.914591 
L 200.051128 162.16319 
L 200.701738 165.618697 
L 201.352348 178.041741 
L 202.002959 164.010705 
L 202.653569 167.649818 
L 203.304179 172.193925 
L 203.95479 159.530781 
L 204.6054 159.745486 
L 205.25601 168.080311 
L 205.906621 172.17099 
L 206.557231 172.280769 
L 207.207841 164.474473 
L 207.858451 181.33109 
L 208.509062 163.206438 
L 209.159672 169.240687 
L 209.810282 158.5806 
L 210.460893 165.678936 
L 211.111503 155.35089 
L 211.762113 172.930982 
L 212.412724 164.310216 
L 213.063334 170.691463 
L 213.713944 162.733916 
L 214.364555 172.508867 
L 215.015165 169.493027 
L 215.665775 165.499691 
L 216.316385 160.644666 
L 216.966996 162.512016 
L 217.617606 161.610738 
L 218.268216 169.509529 
L 218.918827 159.392068 
L 219.569437 159.984887 
L 220.220047 169.508601 
L 220.870658 163.250722 
L 221.521268 183.301537 
L 222.171878 170.378927 
L 222.822489 168.35103 
L 223.473099 163.587796 
L 224.123709 171.627946 
L 224.77432 158.98655 
L 225.42493 157.871921 
L 226.07554 154.771374 
L 226.72615 159.150434 
L 227.376761 158.101188 
L 228.027371 162.046871 
L 228.677981 170.539697 
L 229.328592 163.968029 
L 229.979202 174.046087 
L 230.629812 164.229057 
L 231.280423 158.327366 
L 231.931033 158.661569 
L 232.581643 161.612477 
L 233.232254 159.194229 
L 233.882864 160.10098 
L 234.533474 164.222825 
L 235.184085 151.430925 
L 235.834695 156.336649 
L 236.485305 170.629924 
L 237.135915 162.112732 
L 237.786526 161.785269 
L 238.437136 173.028613 
L 239.087746 178.568313 
L 239.738357 170.959428 
L 240.388967 168.371118 
L 241.039577 167.863129 
L 241.690188 168.122176 
L 242.340798 158.777947 
L 242.991408 157.736888 
L 243.642019 163.39969 
L 244.292629 152.477034 
L 244.943239 157.229087 
L 245.59385 155.703092 
L 246.24446 158.060872 
L 246.89507 149.801252 
L 247.54568 162.36525 
L 248.196291 153.024647 
L 248.846901 152.629137 
L 249.497511 148.228935 
L 250.148122 150.070468 
L 250.798732 155.659391 
L 251.449342 166.333491 
L 252.099953 158.396697 
L 252.750563 152.867764 
L 253.401173 155.728419 
L 254.051784 154.985419 
L 254.702394 148.45938 
L 255.353004 155.615781 
L 256.003615 159.643125 
L 256.654225 152.424955 
L 257.304835 154.491925 
L 257.955445 155.462965 
L 258.606056 150.27745 
L 259.256666 160.192879 
L 259.907276 160.814623 
L 260.557887 164.145396 
L 261.208497 150.711349 
L 261.859107 158.390012 
L 262.509718 155.176639 
L 263.160328 159.749762 
L 263.810938 153.505422 
L 264.461549 157.343889 
L 265.112159 147.775297 
L 265.762769 154.619357 
L 266.413379 147.401471 
L 267.06399 157.670849 
L 267.7146 162.314638 
L 268.36521 161.434022 
L 269.015821 148.151382 
L 270.317041 156.427257 
L 270.967652 159.873349 
L 271.618262 148.941739 
L 272.268872 158.595114 
L 272.919483 159.765598 
L 273.570093 157.413194 
L 274.220703 158.133853 
L 274.871314 160.635307 
L 275.521924 158.861401 
L 276.172534 171.205536 
L 276.823144 157.916623 
L 277.473755 158.897263 
L 278.124365 165.447841 
L 278.774975 158.18301 
L 279.425586 180.767219 
L 280.076196 168.13638 
L 280.726806 168.46141 
L 281.377417 159.819388 
L 282.028027 171.244403 
L 282.678637 171.566952 
L 283.329248 160.413241 
L 283.979858 160.951262 
L 284.630468 151.074514 
L 285.281079 155.872727 
L 285.931689 153.551345 
L 286.582299 155.53556 
L 287.88352 168.979694 
L 288.53413 168.047307 
L 289.18474 158.97489 
L 289.835351 158.35716 
L 291.136571 153.638419 
L 291.787182 166.969335 
L 292.437792 155.384631 
L 293.088402 153.651595 
L 293.739013 164.148545 
L 294.389623 165.742937 
L 295.040233 167.680925 
L 295.690844 161.885744 
L 296.341454 159.83322 
L 296.992064 144.393456 
L 297.642674 156.204774 
L 298.293285 164.588275 
L 298.943895 167.07015 
L 299.594505 177.374807 
L 300.245116 171.463049 
L 301.546336 176.382845 
L 302.196947 182.388948 
L 302.847557 176.037983 
L 303.498167 165.454971 
L 304.799388 175.341596 
L 305.449998 166.047435 
L 306.100608 163.404528 
L 306.751219 164.873263 
L 308.052439 160.499316 
L 308.70305 165.864016 
L 309.35366 178.604998 
L 310.00427 165.967122 
L 310.654881 164.872101 
L 311.305491 157.145031 
L 311.956101 163.426462 
L 312.606712 164.40213 
L 313.257322 157.974201 
L 313.907932 168.327657 
L 314.558543 156.719419 
L 315.209153 174.272983 
L 315.859763 175.232894 
L 316.510373 166.757042 
L 317.160984 156.792898 
L 317.811594 161.544376 
L 318.462204 164.449749 
L 319.112815 172.428625 
L 319.763425 155.9937 
L 320.414035 174.308622 
L 321.064646 159.754586 
L 321.715256 165.446323 
L 323.016477 194.000284 
L 323.667087 202.733231 
L 324.317697 194.79394 
L 324.968308 189.514195 
L 325.618918 182.242052 
L 326.269528 197.488426 
L 326.920138 182.918627 
L 327.570749 189.81143 
L 328.221359 188.790811 
L 328.871969 183.033126 
L 329.52258 188.754791 
L 330.17319 191.483015 
L 330.8238 180.037225 
L 331.474411 197.461143 
L 332.125021 198.282581 
L 332.775631 185.733583 
L 333.426242 192.433596 
L 334.076852 186.01738 
L 334.727462 199.56659 
L 335.378073 189.08706 
L 336.028683 188.062947 
L 336.679293 193.384582 
L 337.329903 187.373381 
L 337.980514 184.523678 
L 338.631124 199.143152 
L 339.281734 194.363271 
L 339.932345 181.442442 
L 340.582955 178.522792 
L 341.233565 193.060724 
L 342.534786 178.932171 
L 343.185396 177.021653 
L 343.836007 180.856077 
L 344.486617 178.298587 
L 345.137227 171.429112 
L 345.787837 187.396528 
L 346.438448 181.667558 
L 347.089058 179.008865 
L 347.739668 169.991829 
L 348.390279 165.834952 
L 349.040889 166.340935 
L 349.691499 169.787929 
L 350.34211 174.20005 
L 350.99272 164.950587 
L 351.64333 172.629847 
L 352.293941 172.629988 
L 352.944551 161.384221 
L 353.595161 168.058932 
L 354.245772 161.411881 
L 354.896382 166.496195 
L 355.546992 169.239305 
L 356.197602 167.598881 
L 356.848213 174.356965 
L 357.498823 173.149615 
L 358.149433 163.722473 
L 358.800044 164.858715 
L 359.450654 159.146718 
L 360.101264 176.063938 
L 360.751875 169.826043 
L 361.402485 153.564229 
L 362.053095 158.171233 
L 362.703706 159.157951 
L 363.354316 157.343495 
L 364.004926 156.848011 
L 364.655537 149.818585 
L 365.306147 151.723526 
L 365.956757 154.092511 
L 366.607367 149.579831 
L 367.257978 141.412002 
L 367.908588 144.145295 
L 368.559198 147.672581 
L 369.209809 146.574202 
L 369.860419 138.352836 
L 370.511029 147.122709 
L 371.16164 151.301956 
L 371.81225 152.420705 
L 372.46286 155.104103 
L 373.113471 143.796401 
L 373.764081 143.854329 
L 374.414691 145.674911 
L 375.065302 153.716291 
L 375.715912 157.477852 
L 376.366522 149.02051 
L 377.017132 157.315613 
L 377.667743 147.379159 
L 378.318353 147.923317 
L 378.968963 159.372657 
L 379.619574 162.106368 
L 380.270184 155.153893 
L 380.920794 152.402417 
L 381.571405 158.325957 
L 382.222015 161.930717 
L 382.872625 164.081671 
L 383.523236 155.442452 
L 384.173846 149.586066 
L 384.824456 159.650978 
L 385.475066 161.36956 
L 386.125677 152.091622 
L 386.776287 155.779015 
L 387.426897 156.500189 
L 388.077508 149.791546 
L 388.728118 152.492498 
L 389.378728 158.905683 
L 390.029339 155.222727 
L 390.679949 160.417132 
L 391.330559 158.965475 
L 391.98117 154.209473 
L 392.63178 150.579106 
L 393.28239 156.7432 
L 393.933001 155.810291 
L 394.583611 159.672841 
L 395.234221 151.127621 
L 395.884831 161.566669 
L 396.535442 154.891468 
L 397.186052 153.425285 
L 397.836662 157.416453 
L 398.487273 152.342614 
L 398.487273 152.342614 
" style="fill:none;stroke:#008000;stroke-dasharray:9.6,2.4,1.5,2.4;stroke-dashoffset:0;stroke-width:1.5;"/>
   </g>
   <g id="line2d_34">
    <path clip-path="url(#p3020bb19d9)" d="M 73.832727 233.861629 
L 74.483338 175.974711 
L 75.133948 136.780444 
L 75.784558 194.667362 
L 76.435169 115.675839 
L 77.085779 156.679072 
L 77.736389 173.562756 
L 78.386999 154.870106 
L 79.03761 176.5777 
L 79.68822 215.168979 
L 80.33883 172.959768 
L 80.989441 174.768734 
L 81.640051 156.076083 
L 82.290661 175.974711 
L 82.941272 216.374956 
L 83.591882 134.971478 
L 84.242492 116.278828 
L 84.893103 194.064373 
L 85.543713 94.571233 
L 86.194323 175.974711 
L 86.844934 117.484805 
L 87.495544 133.765501 
L 88.146154 195.873339 
L 88.796764 194.667362 
L 89.447375 215.771967 
L 90.097985 195.270351 
L 90.748595 232.655652 
L 91.399206 175.371723 
L 92.049816 155.473095 
L 92.700426 197.079317 
L 93.351037 175.371723 
L 94.001647 214.56599 
L 95.302868 174.165745 
L 95.953478 95.174222 
L 96.604088 195.270351 
L 97.905309 117.484805 
L 98.555919 174.768734 
L 99.206529 54.773977 
L 99.85714 157.282061 
L 100.50775 137.383433 
L 101.15836 96.3802 
L 101.808971 154.870106 
L 102.459581 156.679072 
L 103.110191 93.365256 
L 103.760802 156.076083 
L 104.411412 155.473095 
L 105.062022 114.469861 
L 105.712633 115.07285 
L 106.363243 116.278828 
L 107.013853 113.866873 
L 107.664463 137.383433 
L 108.315074 94.571233 
L 108.965684 134.971478 
L 109.616294 115.07285 
L 110.266905 134.368489 
L 110.917515 116.881816 
L 111.568125 134.368489 
L 112.869346 93.968245 
L 113.519956 116.881816 
L 114.170567 155.473095 
L 115.471787 113.263884 
L 116.122398 117.484805 
L 116.773008 136.177455 
L 117.423618 114.469861 
L 118.074228 114.469861 
L 118.724839 134.971478 
L 119.375449 115.675839 
L 120.026059 136.177455 
L 120.67667 116.278828 
L 121.32728 155.473095 
L 121.97789 136.177455 
L 122.628501 94.571233 
L 123.279111 155.473095 
L 125.230942 95.777211 
L 125.881552 121.102737 
L 126.532163 124.117681 
L 127.182773 96.983188 
L 127.833383 134.368489 
L 128.483993 75.878583 
L 129.134604 116.278828 
L 129.785214 132.559523 
L 130.435824 144.016309 
L 131.086435 120.499749 
L 131.737045 115.675839 
L 132.387655 104.219053 
L 133.038266 124.117681 
L 133.688876 111.454918 
L 134.339486 115.675839 
L 134.990097 114.469861 
L 135.640707 133.765501 
L 136.291317 108.439974 
L 136.941927 115.675839 
L 137.592538 134.971478 
L 138.243148 134.971478 
L 138.893758 147.634241 
L 139.544369 116.278828 
L 140.194979 113.866873 
L 140.845589 135.574467 
L 141.4962 148.23723 
L 142.14681 146.428264 
L 142.79742 114.469861 
L 143.448031 121.102737 
L 144.098641 101.807098 
L 144.749251 133.765501 
L 145.399862 130.147568 
L 146.050472 102.410087 
L 147.351692 128.338602 
L 148.002303 128.338602 
L 148.652913 124.72067 
L 149.303523 95.174222 
L 149.954134 108.439974 
L 150.604744 115.07285 
L 151.255354 119.293771 
L 151.905965 95.174222 
L 152.556575 133.162512 
L 153.207185 136.780444 
L 153.857796 113.263884 
L 154.508406 115.07285 
L 155.159016 114.469861 
L 155.809627 126.529636 
L 156.460237 133.765501 
L 157.761457 96.983188 
L 158.412068 129.544579 
L 159.062678 114.469861 
L 159.713288 128.941591 
L 160.363899 115.675839 
L 161.014509 93.968245 
L 161.665119 129.544579 
L 162.31573 136.177455 
L 163.61695 96.3802 
L 164.267561 133.765501 
L 164.918171 134.971478 
L 165.568781 134.971478 
L 166.219392 115.675839 
L 166.870002 130.147568 
L 167.520612 118.690782 
L 168.171222 114.469861 
L 168.821833 93.365256 
L 169.472443 76.481572 
L 170.123053 124.117681 
L 170.773664 116.278828 
L 171.424274 129.544579 
L 172.074884 134.368489 
L 172.725495 108.439974 
L 173.376105 87.938357 
L 174.026715 75.878583 
L 174.677326 115.07285 
L 175.327936 104.822042 
L 175.978546 122.911703 
L 176.629156 127.132625 
L 177.279767 117.484805 
L 177.930377 133.765501 
L 178.580987 116.881816 
L 179.231598 142.207343 
L 179.882208 125.926647 
L 180.532818 135.574467 
L 181.183429 136.177455 
L 181.834039 144.016309 
L 182.484649 124.72067 
L 183.13526 113.866873 
L 183.78587 134.368489 
L 184.43648 126.529636 
L 185.087091 96.3802 
L 186.388311 135.574467 
L 187.038921 128.941591 
L 187.689532 147.031253 
L 188.340142 135.574467 
L 188.990752 134.368489 
L 189.641363 116.881816 
L 190.291973 121.705726 
L 190.942583 135.574467 
L 191.593194 127.132625 
L 192.243804 116.278828 
L 192.894414 74.672605 
L 193.545025 115.675839 
L 194.195635 123.514692 
L 194.846245 115.07285 
L 195.496856 115.07285 
L 196.147466 121.102737 
L 196.798076 112.660895 
L 197.448686 96.3802 
L 198.099297 99.998132 
L 198.749907 120.499749 
L 199.400517 128.941591 
L 200.051128 117.484805 
L 200.701738 115.07285 
L 201.352348 133.765501 
L 202.002959 95.777211 
L 202.653569 95.174222 
L 203.304179 134.368489 
L 203.95479 108.439974 
L 204.6054 118.087794 
L 205.25601 116.278828 
L 205.906621 134.368489 
L 206.557231 116.278828 
L 207.207841 113.866873 
L 207.858451 134.368489 
L 208.509062 114.469861 
L 209.159672 65.627775 
L 209.810282 53.568 
L 211.111503 94.571233 
L 211.762113 111.454918 
L 212.412724 135.574467 
L 213.063334 110.24894 
L 213.713944 111.454918 
L 214.364555 116.278828 
L 215.015165 134.971478 
L 215.665775 132.559523 
L 216.316385 115.675839 
L 216.966996 124.117681 
L 217.617606 113.263884 
L 218.268216 121.102737 
L 218.918827 138.58941 
L 219.569437 135.574467 
L 220.220047 116.278828 
L 220.870658 115.07285 
L 221.521268 123.514692 
L 222.171878 134.971478 
L 222.822489 114.469861 
L 223.473099 127.132625 
L 224.123709 133.765501 
L 224.77432 131.353546 
L 225.42493 119.89676 
L 226.07554 113.866873 
L 226.72615 110.851929 
L 227.376761 113.866873 
L 228.027371 96.3802 
L 229.328592 130.147568 
L 229.979202 133.765501 
L 230.629812 122.308715 
L 231.280423 108.439974 
L 231.931033 115.675839 
L 232.581643 127.132625 
L 233.232254 124.117681 
L 233.882864 115.07285 
L 234.533474 120.499749 
L 235.184085 75.878583 
L 235.834695 113.866873 
L 236.485305 129.544579 
L 237.135915 127.132625 
L 237.786526 95.777211 
L 238.437136 95.777211 
L 239.738357 133.162512 
L 240.388967 97.586177 
L 241.039577 110.24894 
L 241.690188 134.971478 
L 242.340798 107.836985 
L 242.991408 125.926647 
L 243.642019 124.117681 
L 244.292629 107.836985 
L 244.943239 113.866873 
L 245.59385 114.469861 
L 246.24446 113.263884 
L 246.89507 115.07285 
L 247.54568 118.087794 
L 248.196291 116.278828 
L 248.846901 94.571233 
L 249.497511 93.968245 
L 250.148122 84.320425 
L 250.798732 127.735613 
L 251.449342 144.016309 
L 252.099953 127.735613 
L 252.750563 108.439974 
L 253.401173 113.866873 
L 254.051784 55.376966 
L 254.702394 110.24894 
L 255.353004 106.028019 
L 256.003615 120.499749 
L 256.654225 108.439974 
L 257.304835 119.89676 
L 257.955445 118.087794 
L 258.606056 119.293771 
L 259.256666 131.353546 
L 259.907276 115.07285 
L 260.557887 135.574467 
L 261.208497 134.368489 
L 261.859107 85.526402 
L 262.509718 117.484805 
L 263.160328 101.204109 
L 263.810938 114.469861 
L 264.461549 119.89676 
L 265.112159 132.559523 
L 265.762769 103.616064 
L 266.413379 95.777211 
L 267.06399 128.338602 
L 267.7146 95.174222 
L 268.36521 122.308715 
L 269.015821 93.968245 
L 269.666431 116.881816 
L 270.317041 113.263884 
L 270.967652 115.07285 
L 271.618262 110.851929 
L 272.268872 113.866873 
L 272.919483 124.72067 
L 273.570093 125.926647 
L 274.220703 115.675839 
L 274.871314 115.07285 
L 275.521924 128.338602 
L 276.172534 116.881816 
L 276.823144 114.469861 
L 277.473755 134.971478 
L 278.124365 76.481572 
L 278.774975 122.911703 
L 279.425586 133.162512 
L 280.076196 111.454918 
L 280.726806 136.177455 
L 281.377417 55.376966 
L 282.028027 115.675839 
L 282.678637 115.675839 
L 283.329248 127.735613 
L 283.979858 108.439974 
L 284.630468 96.3802 
L 285.281079 109.042963 
L 285.931689 129.544579 
L 286.582299 115.07285 
L 287.232909 115.07285 
L 287.88352 116.278828 
L 288.53413 114.469861 
L 289.18474 116.278828 
L 289.835351 130.750557 
L 290.485961 134.971478 
L 291.136571 116.881816 
L 291.787182 112.057906 
L 292.437792 102.410087 
L 293.088402 85.526402 
L 293.739013 115.07285 
L 294.389623 134.971478 
L 295.040233 116.881816 
L 295.690844 136.177455 
L 296.341454 132.559523 
L 296.992064 75.275594 
L 297.642674 72.863639 
L 298.293285 74.069617 
L 298.943895 75.878583 
L 299.594505 115.675839 
L 300.245116 113.866873 
L 300.895726 126.529636 
L 301.546336 115.675839 
L 302.196947 123.514692 
L 302.847557 133.162512 
L 303.498167 134.971478 
L 304.148778 116.278828 
L 304.799388 134.368489 
L 305.449998 116.278828 
L 306.100608 115.675839 
L 306.751219 113.263884 
L 307.401829 115.675839 
L 308.052439 134.971478 
L 308.70305 117.484805 
L 309.35366 96.3802 
L 310.00427 128.338602 
L 310.654881 130.147568 
L 311.305491 95.777211 
L 311.956101 116.278828 
L 312.606712 95.174222 
L 313.257322 116.278828 
L 313.907932 125.323658 
L 314.558543 114.469861 
L 315.209153 116.278828 
L 315.859763 132.559523 
L 316.510373 122.911703 
L 317.160984 75.878583 
L 317.811594 115.07285 
L 318.462204 116.278828 
L 319.112815 92.762267 
L 319.763425 126.529636 
L 320.414035 112.057906 
L 321.064646 116.278828 
L 321.715256 95.777211 
L 322.365866 135.574467 
L 323.016477 134.368489 
L 323.667087 116.278828 
L 324.317697 136.177455 
L 324.968308 134.368489 
L 325.618918 116.278828 
L 326.269528 114.469861 
L 326.920138 113.866873 
L 327.570749 155.473095 
L 328.221359 115.675839 
L 328.871969 115.07285 
L 329.52258 75.275594 
L 330.17319 95.174222 
L 330.8238 94.571233 
L 331.474411 136.177455 
L 332.125021 115.675839 
L 332.775631 116.881816 
L 333.426242 114.469861 
L 334.076852 96.3802 
L 334.727462 136.780444 
L 336.028683 96.3802 
L 336.679293 134.368489 
L 337.329903 136.177455 
L 337.980514 113.866873 
L 338.631124 115.07285 
L 339.281734 133.765501 
L 339.932345 95.174222 
L 340.582955 96.3802 
L 341.233565 116.881816 
L 341.884176 96.3802 
L 342.534786 93.968245 
L 343.185396 94.571233 
L 343.836007 135.574467 
L 344.486617 134.368489 
L 345.787837 134.368489 
L 346.438448 116.278828 
L 347.089058 159.091027 
L 347.739668 135.574467 
L 348.390279 95.777211 
L 349.040889 122.911703 
L 349.691499 136.780444 
L 350.34211 134.971478 
L 350.99272 96.3802 
L 351.64333 135.574467 
L 352.293941 129.544579 
L 352.944551 115.07285 
L 353.595161 95.174222 
L 354.245772 95.174222 
L 354.896382 136.780444 
L 355.546992 123.514692 
L 356.197602 100.601121 
L 356.848213 133.765501 
L 357.498823 122.308715 
L 358.149433 135.574467 
L 358.800044 135.574467 
L 359.450654 115.07285 
L 360.101264 114.469861 
L 360.751875 136.177455 
L 361.402485 114.469861 
L 362.053095 132.559523 
L 362.703706 133.162512 
L 363.354316 115.675839 
L 364.004926 75.878583 
L 364.655537 125.323658 
L 365.306147 131.353546 
L 365.956757 130.147568 
L 366.607367 107.233997 
L 367.257978 120.499749 
L 367.908588 128.338602 
L 368.559198 118.690782 
L 369.209809 123.514692 
L 369.860419 126.529636 
L 370.511029 125.323658 
L 371.16164 116.881816 
L 371.81225 131.956534 
L 372.46286 128.941591 
L 373.113471 115.675839 
L 373.764081 122.911703 
L 374.414691 126.529636 
L 375.065302 73.466628 
L 375.715912 121.705726 
L 376.366522 130.147568 
L 377.017132 129.544579 
L 377.667743 117.484805 
L 378.318353 126.529636 
L 378.968963 116.881816 
L 379.619574 125.926647 
L 380.270184 123.514692 
L 380.920794 115.07285 
L 381.571405 132.559523 
L 382.222015 134.971478 
L 382.872625 128.338602 
L 383.523236 96.3802 
L 384.824456 131.353546 
L 385.475066 130.750557 
L 386.125677 127.132625 
L 387.426897 137.383433 
L 388.077508 95.174222 
L 388.728118 134.368489 
L 389.378728 132.559523 
L 390.029339 131.353546 
L 390.679949 129.544579 
L 391.330559 135.574467 
L 391.98117 128.338602 
L 392.63178 94.571233 
L 393.28239 119.89676 
L 393.933001 114.469861 
L 394.583611 115.675839 
L 395.234221 117.484805 
L 395.884831 133.765501 
L 396.535442 75.878583 
L 397.186052 95.174222 
L 397.836662 133.765501 
L 398.487273 119.89676 
L 398.487273 119.89676 
" style="fill:none;stroke:#ff0000;stroke-linecap:square;stroke-width:1.5;"/>
   </g>
   <g id="patch_3">
    <path d="M 57.6 307.584 
L 57.6 41.472 
" style="fill:none;stroke:#000000;stroke-linecap:square;stroke-linejoin:miter;stroke-width:0.8;"/>
   </g>
   <g id="patch_4">
    <path d="M 414.72 307.584 
L 414.72 41.472 
" style="fill:none;stroke:#000000;stroke-linecap:square;stroke-linejoin:miter;stroke-width:0.8;"/>
   </g>
   <g id="patch_5">
    <path d="M 57.6 307.584 
L 414.72 307.584 
" style="fill:none;stroke:#000000;stroke-linecap:square;stroke-linejoin:miter;stroke-width:0.8;"/>
   </g>
   <g id="patch_6">
    <path d="M 57.6 41.472 
L 414.72 41.472 
" style="fill:none;stroke:#000000;stroke-linecap:square;stroke-linejoin:miter;stroke-width:0.8;"/>
   </g>
   <g id="text_18">
    <!-- Population's average and best fitness -->
    <g transform="translate(123.529687 35.472)scale(0.12 -0.12)">
     <defs>
      <path d="M 19.671875 64.796875 
L 19.671875 37.40625 
L 32.078125 37.40625 
Q 38.96875 37.40625 42.71875 40.96875 
Q 46.484375 44.53125 46.484375 51.125 
Q 46.484375 57.671875 42.71875 61.234375 
Q 38.96875 64.796875 32.078125 64.796875 
z
M 9.8125 72.90625 
L 32.078125 72.90625 
Q 44.34375 72.90625 50.609375 67.359375 
Q 56.890625 61.8125 56.890625 51.125 
Q 56.890625 40.328125 50.609375 34.8125 
Q 44.34375 29.296875 32.078125 29.296875 
L 19.671875 29.296875 
L 19.671875 0 
L 9.8125 0 
z
" id="DejaVuSans-80"/>
      <path d="M 18.109375 8.203125 
L 18.109375 -20.796875 
L 9.078125 -20.796875 
L 9.078125 54.6875 
L 18.109375 54.6875 
L 18.109375 46.390625 
Q 20.953125 51.265625 25.265625 53.625 
Q 29.59375 56 35.59375 56 
Q 45.5625 56 51.78125 48.09375 
Q 58.015625 40.1875 58.015625 27.296875 
Q 58.015625 14.40625 51.78125 6.484375 
Q 45.5625 -1.421875 35.59375 -1.421875 
Q 29.59375 -1.421875 25.265625 0.953125 
Q 20.953125 3.328125 18.109375 8.203125 
z
M 48.6875 27.296875 
Q 48.6875 37.203125 44.609375 42.84375 
Q 40.53125 48.484375 33.40625 48.484375 
Q 26.265625 48.484375 22.1875 42.84375 
Q 18.109375 37.203125 18.109375 27.296875 
Q 18.109375 17.390625 22.1875 11.75 
Q 26.265625 6.109375 33.40625 6.109375 
Q 40.53125 6.109375 44.609375 11.75 
Q 48.6875 17.390625 48.6875 27.296875 
z
" id="DejaVuSans-112"/>
      <path d="M 8.5 21.578125 
L 8.5 54.6875 
L 17.484375 54.6875 
L 17.484375 21.921875 
Q 17.484375 14.15625 20.5 10.265625 
Q 23.53125 6.390625 29.59375 6.390625 
Q 36.859375 6.390625 41.078125 11.03125 
Q 45.3125 15.671875 45.3125 23.6875 
L 45.3125 54.6875 
L 54.296875 54.6875 
L 54.296875 0 
L 45.3125 0 
L 45.3125 8.40625 
Q 42.046875 3.421875 37.71875 1 
Q 33.40625 -1.421875 27.6875 -1.421875 
Q 18.265625 -1.421875 13.375 4.4375 
Q 8.5 10.296875 8.5 21.578125 
z
M 31.109375 56 
z
" id="DejaVuSans-117"/>
      <path d="M 9.421875 75.984375 
L 18.40625 75.984375 
L 18.40625 0 
L 9.421875 0 
z
" id="DejaVuSans-108"/>
      <path d="M 17.921875 72.90625 
L 17.921875 45.796875 
L 9.625 45.796875 
L 9.625 72.90625 
z
" id="DejaVuSans-39"/>
      <path id="DejaVuSans-32"/>
      <path d="M 2.984375 54.6875 
L 12.5 54.6875 
L 29.59375 8.796875 
L 46.6875 54.6875 
L 56.203125 54.6875 
L 35.6875 0 
L 23.484375 0 
z
" id="DejaVuSans-118"/>
      <path d="M 45.40625 27.984375 
Q 45.40625 37.75 41.375 43.109375 
Q 37.359375 48.484375 30.078125 48.484375 
Q 22.859375 48.484375 18.828125 43.109375 
Q 14.796875 37.75 14.796875 27.984375 
Q 14.796875 18.265625 18.828125 12.890625 
Q 22.859375 7.515625 30.078125 7.515625 
Q 37.359375 7.515625 41.375 12.890625 
Q 45.40625 18.265625 45.40625 27.984375 
z
M 54.390625 6.78125 
Q 54.390625 -7.171875 48.1875 -13.984375 
Q 42 -20.796875 29.203125 -20.796875 
Q 24.46875 -20.796875 20.265625 -20.09375 
Q 16.0625 -19.390625 12.109375 -17.921875 
L 12.109375 -9.1875 
Q 16.0625 -11.328125 19.921875 -12.34375 
Q 23.78125 -13.375 27.78125 -13.375 
Q 36.625 -13.375 41.015625 -8.765625 
Q 45.40625 -4.15625 45.40625 5.171875 
L 45.40625 9.625 
Q 42.625 4.78125 38.28125 2.390625 
Q 33.9375 0 27.875 0 
Q 17.828125 0 11.671875 7.65625 
Q 5.515625 15.328125 5.515625 27.984375 
Q 5.515625 40.671875 11.671875 48.328125 
Q 17.828125 56 27.875 56 
Q 33.9375 56 38.28125 53.609375 
Q 42.625 51.21875 45.40625 46.390625 
L 45.40625 54.6875 
L 54.390625 54.6875 
z
" id="DejaVuSans-103"/>
      <path d="M 45.40625 46.390625 
L 45.40625 75.984375 
L 54.390625 75.984375 
L 54.390625 0 
L 45.40625 0 
L 45.40625 8.203125 
Q 42.578125 3.328125 38.25 0.953125 
Q 33.9375 -1.421875 27.875 -1.421875 
Q 17.96875 -1.421875 11.734375 6.484375 
Q 5.515625 14.40625 5.515625 27.296875 
Q 5.515625 40.1875 11.734375 48.09375 
Q 17.96875 56 27.875 56 
Q 33.9375 56 38.25 53.625 
Q 42.578125 51.265625 45.40625 46.390625 
z
M 14.796875 27.296875 
Q 14.796875 17.390625 18.875 11.75 
Q 22.953125 6.109375 30.078125 6.109375 
Q 37.203125 6.109375 41.296875 11.75 
Q 45.40625 17.390625 45.40625 27.296875 
Q 45.40625 37.203125 41.296875 42.84375 
Q 37.203125 48.484375 30.078125 48.484375 
Q 22.953125 48.484375 18.875 42.84375 
Q 14.796875 37.203125 14.796875 27.296875 
z
" id="DejaVuSans-100"/>
      <path d="M 48.6875 27.296875 
Q 48.6875 37.203125 44.609375 42.84375 
Q 40.53125 48.484375 33.40625 48.484375 
Q 26.265625 48.484375 22.1875 42.84375 
Q 18.109375 37.203125 18.109375 27.296875 
Q 18.109375 17.390625 22.1875 11.75 
Q 26.265625 6.109375 33.40625 6.109375 
Q 40.53125 6.109375 44.609375 11.75 
Q 48.6875 17.390625 48.6875 27.296875 
z
M 18.109375 46.390625 
Q 20.953125 51.265625 25.265625 53.625 
Q 29.59375 56 35.59375 56 
Q 45.5625 56 51.78125 48.09375 
Q 58.015625 40.1875 58.015625 27.296875 
Q 58.015625 14.40625 51.78125 6.484375 
Q 45.5625 -1.421875 35.59375 -1.421875 
Q 29.59375 -1.421875 25.265625 0.953125 
Q 20.953125 3.328125 18.109375 8.203125 
L 18.109375 0 
L 9.078125 0 
L 9.078125 75.984375 
L 18.109375 75.984375 
z
" id="DejaVuSans-98"/>
      <path d="M 37.109375 75.984375 
L 37.109375 68.5 
L 28.515625 68.5 
Q 23.6875 68.5 21.796875 66.546875 
Q 19.921875 64.59375 19.921875 59.515625 
L 19.921875 54.6875 
L 34.71875 54.6875 
L 34.71875 47.703125 
L 19.921875 47.703125 
L 19.921875 0 
L 10.890625 0 
L 10.890625 47.703125 
L 2.296875 47.703125 
L 2.296875 54.6875 
L 10.890625 54.6875 
L 10.890625 58.5 
Q 10.890625 67.625 15.140625 71.796875 
Q 19.390625 75.984375 28.609375 75.984375 
z
" id="DejaVuSans-102"/>
     </defs>
     <use xlink:href="#DejaVuSans-80"/>
     <use x="56.677734" xlink:href="#DejaVuSans-111"/>
     <use x="117.859375" xlink:href="#DejaVuSans-112"/>
     <use x="181.335938" xlink:href="#DejaVuSans-117"/>
     <use x="244.714844" xlink:href="#DejaVuSans-108"/>
     <use x="272.498047" xlink:href="#DejaVuSans-97"/>
     <use x="333.777344" xlink:href="#DejaVuSans-116"/>
     <use x="372.986328" xlink:href="#DejaVuSans-105"/>
     <use x="400.769531" xlink:href="#DejaVuSans-111"/>
     <use x="461.951172" xlink:href="#DejaVuSans-110"/>
     <use x="525.330078" xlink:href="#DejaVuSans-39"/>
     <use x="552.820312" xlink:href="#DejaVuSans-115"/>
     <use x="604.919922" xlink:href="#DejaVuSans-32"/>
     <use x="636.707031" xlink:href="#DejaVuSans-97"/>
     <use x="697.986328" xlink:href="#DejaVuSans-118"/>
     <use x="757.166016" xlink:href="#DejaVuSans-101"/>
     <use x="818.689453" xlink:href="#DejaVuSans-114"/>
     <use x="859.802734" xlink:href="#DejaVuSans-97"/>
     <use x="921.082031" xlink:href="#DejaVuSans-103"/>
     <use x="984.558594" xlink:href="#DejaVuSans-101"/>
     <use x="1046.082031" xlink:href="#DejaVuSans-32"/>
     <use x="1077.869141" xlink:href="#DejaVuSans-97"/>
     <use x="1139.148438" xlink:href="#DejaVuSans-110"/>
     <use x="1202.527344" xlink:href="#DejaVuSans-100"/>
     <use x="1266.003906" xlink:href="#DejaVuSans-32"/>
     <use x="1297.791016" xlink:href="#DejaVuSans-98"/>
     <use x="1361.267578" xlink:href="#DejaVuSans-101"/>
     <use x="1422.791016" xlink:href="#DejaVuSans-115"/>
     <use x="1474.890625" xlink:href="#DejaVuSans-116"/>
     <use x="1514.099609" xlink:href="#DejaVuSans-32"/>
     <use x="1545.886719" xlink:href="#DejaVuSans-102"/>
     <use x="1581.091797" xlink:href="#DejaVuSans-105"/>
     <use x="1608.875" xlink:href="#DejaVuSans-116"/>
     <use x="1648.083984" xlink:href="#DejaVuSans-110"/>
     <use x="1711.462891" xlink:href="#DejaVuSans-101"/>
     <use x="1772.986328" xlink:href="#DejaVuSans-115"/>
     <use x="1825.085938" xlink:href="#DejaVuSans-115"/>
    </g>
   </g>
   <g id="legend_1">
    <g id="patch_7">
     <path d="M 64.6 108.1845 
L 137.540625 108.1845 
Q 139.540625 108.1845 139.540625 106.1845 
L 139.540625 48.472 
Q 139.540625 46.472 137.540625 46.472 
L 64.6 46.472 
Q 62.6 46.472 62.6 48.472 
L 62.6 106.1845 
Q 62.6 108.1845 64.6 108.1845 
z
" style="fill:#ffffff;opacity:0.8;stroke:#cccccc;stroke-linejoin:miter;"/>
    </g>
    <g id="line2d_35">
     <path d="M 66.6 54.570438 
L 86.6 54.570438 
" style="fill:none;stroke:#0000ff;stroke-linecap:square;stroke-width:1.5;"/>
    </g>
    <g id="line2d_36"/>
    <g id="text_19">
     <!-- average -->
     <g transform="translate(94.6 58.070438)scale(0.1 -0.1)">
      <use xlink:href="#DejaVuSans-97"/>
      <use x="61.279297" xlink:href="#DejaVuSans-118"/>
      <use x="120.458984" xlink:href="#DejaVuSans-101"/>
      <use x="181.982422" xlink:href="#DejaVuSans-114"/>
      <use x="223.095703" xlink:href="#DejaVuSans-97"/>
      <use x="284.375" xlink:href="#DejaVuSans-103"/>
      <use x="347.851562" xlink:href="#DejaVuSans-101"/>
     </g>
    </g>
    <g id="line2d_37">
     <path d="M 66.6 69.248563 
L 86.6 69.248563 
" style="fill:none;stroke:#008000;stroke-dasharray:9.6,2.4,1.5,2.4;stroke-dashoffset:0;stroke-width:1.5;"/>
    </g>
    <g id="line2d_38"/>
    <g id="text_20">
     <!-- -1 sd -->
     <g transform="translate(94.6 72.748563)scale(0.1 -0.1)">
      <defs>
       <path d="M 4.890625 31.390625 
L 31.203125 31.390625 
L 31.203125 23.390625 
L 4.890625 23.390625 
z
" id="DejaVuSans-45"/>
      </defs>
      <use xlink:href="#DejaVuSans-45"/>
      <use x="36.083984" xlink:href="#DejaVuSans-49"/>
      <use x="99.707031" xlink:href="#DejaVuSans-32"/>
      <use x="131.494141" xlink:href="#DejaVuSans-115"/>
      <use x="183.59375" xlink:href="#DejaVuSans-100"/>
     </g>
    </g>
    <g id="line2d_39">
     <path d="M 66.6 83.926688 
L 86.6 83.926688 
" style="fill:none;stroke:#008000;stroke-dasharray:9.6,2.4,1.5,2.4;stroke-dashoffset:0;stroke-width:1.5;"/>
    </g>
    <g id="line2d_40"/>
    <g id="text_21">
     <!-- +1 sd -->
     <g transform="translate(94.6 87.426688)scale(0.1 -0.1)">
      <defs>
       <path d="M 46 62.703125 
L 46 35.5 
L 73.1875 35.5 
L 73.1875 27.203125 
L 46 27.203125 
L 46 0 
L 37.796875 0 
L 37.796875 27.203125 
L 10.59375 27.203125 
L 10.59375 35.5 
L 37.796875 35.5 
L 37.796875 62.703125 
z
" id="DejaVuSans-43"/>
      </defs>
      <use xlink:href="#DejaVuSans-43"/>
      <use x="83.789062" xlink:href="#DejaVuSans-49"/>
      <use x="147.412109" xlink:href="#DejaVuSans-32"/>
      <use x="179.199219" xlink:href="#DejaVuSans-115"/>
      <use x="231.298828" xlink:href="#DejaVuSans-100"/>
     </g>
    </g>
    <g id="line2d_41">
     <path d="M 66.6 98.604813 
L 86.6 98.604813 
" style="fill:none;stroke:#ff0000;stroke-linecap:square;stroke-width:1.5;"/>
    </g>
    <g id="line2d_42"/>
    <g id="text_22">
     <!-- best -->
     <g transform="translate(94.6 102.104813)scale(0.1 -0.1)">
      <use xlink:href="#DejaVuSans-98"/>
      <use x="63.476562" xlink:href="#DejaVuSans-101"/>
      <use x="125" xlink:href="#DejaVuSans-115"/>
      <use x="177.099609" xlink:href="#DejaVuSans-116"/>
     </g>
    </g>
   </g>
  </g>
 </g>
 <defs>
  <clipPath id="p3020bb19d9">
   <rect height="266.112" width="357.12" x="57.6" y="41.472"/>
  </clipPath>
 </defs>
</svg>
