<?xml version="1.0" encoding="utf-8" standalone="no"?>
<!DOCTYPE svg PUBLIC "-//W3C//DTD SVG 1.1//EN"
  "http://www.w3.org/Graphics/SVG/1.1/DTD/svg11.dtd">
<!-- Created with matplotlib (https://matplotlib.org/) -->
<svg height="345.6pt" version="1.1" viewBox="0 0 460.8 345.6" width="460.8pt" xmlns="http://www.w3.org/2000/svg" xmlns:xlink="http://www.w3.org/1999/xlink">
 <metadata>
  <rdf:RDF xmlns:cc="http://creativecommons.org/ns#" xmlns:dc="http://purl.org/dc/elements/1.1/" xmlns:rdf="http://www.w3.org/1999/02/22-rdf-syntax-ns#">
   <cc:Work>
    <dc:type rdf:resource="http://purl.org/dc/dcmitype/StillImage"/>
    <dc:date>2021-06-15T22:57:36.571227</dc:date>
    <dc:format>image/svg+xml</dc:format>
    <dc:creator>
     <cc:Agent>
      <dc:title>Matplotlib v3.3.0, https://matplotlib.org/</dc:title>
     </cc:Agent>
    </dc:creator>
   </cc:Work>
  </rdf:RDF>
 </metadata>
 <defs>
  <style type="text/css">*{stroke-linecap:butt;stroke-linejoin:round;}</style>
 </defs>
 <g id="figure_1">
  <g id="patch_1">
   <path d="M 0 345.6 
L 460.8 345.6 
L 460.8 0 
L 0 0 
z
" style="fill:#ffffff;"/>
  </g>
  <g id="axes_1">
   <g id="patch_2">
    <path d="M 57.6 307.584 
L 414.72 307.584 
L 414.72 41.472 
L 57.6 41.472 
z
" style="fill:#ffffff;"/>
   </g>
   <g id="matplotlib.axis_1">
    <g id="xtick_1">
     <g id="line2d_1">
      <path clip-path="url(#pf106045a20)" d="M 73.832727 307.584 
L 73.832727 41.472 
" style="fill:none;stroke:#b0b0b0;stroke-linecap:square;stroke-width:0.8;"/>
     </g>
     <g id="line2d_2">
      <defs>
       <path d="M 0 0 
L 0 3.5 
" id="m8617d3a491" style="stroke:#000000;stroke-width:0.8;"/>
      </defs>
      <g>
       <use style="stroke:#000000;stroke-width:0.8;" x="73.832727" xlink:href="#m8617d3a491" y="307.584"/>
      </g>
     </g>
     <g id="text_1">
      <!-- 0 -->
      <g transform="translate(70.651477 322.182437)scale(0.1 -0.1)">
       <defs>
        <path d="M 31.78125 66.40625 
Q 24.171875 66.40625 20.328125 58.90625 
Q 16.5 51.421875 16.5 36.375 
Q 16.5 21.390625 20.328125 13.890625 
Q 24.171875 6.390625 31.78125 6.390625 
Q 39.453125 6.390625 43.28125 13.890625 
Q 47.125 21.390625 47.125 36.375 
Q 47.125 51.421875 43.28125 58.90625 
Q 39.453125 66.40625 31.78125 66.40625 
z
M 31.78125 74.21875 
Q 44.046875 74.21875 50.515625 64.515625 
Q 56.984375 54.828125 56.984375 36.375 
Q 56.984375 17.96875 50.515625 8.265625 
Q 44.046875 -1.421875 31.78125 -1.421875 
Q 19.53125 -1.421875 13.0625 8.265625 
Q 6.59375 17.96875 6.59375 36.375 
Q 6.59375 54.828125 13.0625 64.515625 
Q 19.53125 74.21875 31.78125 74.21875 
z
" id="DejaVuSans-48"/>
       </defs>
       <use xlink:href="#DejaVuSans-48"/>
      </g>
     </g>
    </g>
    <g id="xtick_2">
     <g id="line2d_3">
      <path clip-path="url(#pf106045a20)" d="M 138.893758 307.584 
L 138.893758 41.472 
" style="fill:none;stroke:#b0b0b0;stroke-linecap:square;stroke-width:0.8;"/>
     </g>
     <g id="line2d_4">
      <g>
       <use style="stroke:#000000;stroke-width:0.8;" x="138.893758" xlink:href="#m8617d3a491" y="307.584"/>
      </g>
     </g>
     <g id="text_2">
      <!-- 100 -->
      <g transform="translate(129.350008 322.182437)scale(0.1 -0.1)">
       <defs>
        <path d="M 12.40625 8.296875 
L 28.515625 8.296875 
L 28.515625 63.921875 
L 10.984375 60.40625 
L 10.984375 69.390625 
L 28.421875 72.90625 
L 38.28125 72.90625 
L 38.28125 8.296875 
L 54.390625 8.296875 
L 54.390625 0 
L 12.40625 0 
z
" id="DejaVuSans-49"/>
       </defs>
       <use xlink:href="#DejaVuSans-49"/>
       <use x="63.623047" xlink:href="#DejaVuSans-48"/>
       <use x="127.246094" xlink:href="#DejaVuSans-48"/>
      </g>
     </g>
    </g>
    <g id="xtick_3">
     <g id="line2d_5">
      <path clip-path="url(#pf106045a20)" d="M 203.95479 307.584 
L 203.95479 41.472 
" style="fill:none;stroke:#b0b0b0;stroke-linecap:square;stroke-width:0.8;"/>
     </g>
     <g id="line2d_6">
      <g>
       <use style="stroke:#000000;stroke-width:0.8;" x="203.95479" xlink:href="#m8617d3a491" y="307.584"/>
      </g>
     </g>
     <g id="text_3">
      <!-- 200 -->
      <g transform="translate(194.41104 322.182437)scale(0.1 -0.1)">
       <defs>
        <path d="M 19.1875 8.296875 
L 53.609375 8.296875 
L 53.609375 0 
L 7.328125 0 
L 7.328125 8.296875 
Q 12.9375 14.109375 22.625 23.890625 
Q 32.328125 33.6875 34.8125 36.53125 
Q 39.546875 41.84375 41.421875 45.53125 
Q 43.3125 49.21875 43.3125 52.78125 
Q 43.3125 58.59375 39.234375 62.25 
Q 35.15625 65.921875 28.609375 65.921875 
Q 23.96875 65.921875 18.8125 64.3125 
Q 13.671875 62.703125 7.8125 59.421875 
L 7.8125 69.390625 
Q 13.765625 71.78125 18.9375 73 
Q 24.125 74.21875 28.421875 74.21875 
Q 39.75 74.21875 46.484375 68.546875 
Q 53.21875 62.890625 53.21875 53.421875 
Q 53.21875 48.921875 51.53125 44.890625 
Q 49.859375 40.875 45.40625 35.40625 
Q 44.1875 33.984375 37.640625 27.21875 
Q 31.109375 20.453125 19.1875 8.296875 
z
" id="DejaVuSans-50"/>
       </defs>
       <use xlink:href="#DejaVuSans-50"/>
       <use x="63.623047" xlink:href="#DejaVuSans-48"/>
       <use x="127.246094" xlink:href="#DejaVuSans-48"/>
      </g>
     </g>
    </g>
    <g id="xtick_4">
     <g id="line2d_7">
      <path clip-path="url(#pf106045a20)" d="M 269.015821 307.584 
L 269.015821 41.472 
" style="fill:none;stroke:#b0b0b0;stroke-linecap:square;stroke-width:0.8;"/>
     </g>
     <g id="line2d_8">
      <g>
       <use style="stroke:#000000;stroke-width:0.8;" x="269.015821" xlink:href="#m8617d3a491" y="307.584"/>
      </g>
     </g>
     <g id="text_4">
      <!-- 300 -->
      <g transform="translate(259.472071 322.182437)scale(0.1 -0.1)">
       <defs>
        <path d="M 40.578125 39.3125 
Q 47.65625 37.796875 51.625 33 
Q 55.609375 28.21875 55.609375 21.1875 
Q 55.609375 10.40625 48.1875 4.484375 
Q 40.765625 -1.421875 27.09375 -1.421875 
Q 22.515625 -1.421875 17.65625 -0.515625 
Q 12.796875 0.390625 7.625 2.203125 
L 7.625 11.71875 
Q 11.71875 9.328125 16.59375 8.109375 
Q 21.484375 6.890625 26.8125 6.890625 
Q 36.078125 6.890625 40.9375 10.546875 
Q 45.796875 14.203125 45.796875 21.1875 
Q 45.796875 27.640625 41.28125 31.265625 
Q 36.765625 34.90625 28.71875 34.90625 
L 20.21875 34.90625 
L 20.21875 43.015625 
L 29.109375 43.015625 
Q 36.375 43.015625 40.234375 45.921875 
Q 44.09375 48.828125 44.09375 54.296875 
Q 44.09375 59.90625 40.109375 62.90625 
Q 36.140625 65.921875 28.71875 65.921875 
Q 24.65625 65.921875 20.015625 65.03125 
Q 15.375 64.15625 9.8125 62.3125 
L 9.8125 71.09375 
Q 15.4375 72.65625 20.34375 73.4375 
Q 25.25 74.21875 29.59375 74.21875 
Q 40.828125 74.21875 47.359375 69.109375 
Q 53.90625 64.015625 53.90625 55.328125 
Q 53.90625 49.265625 50.4375 45.09375 
Q 46.96875 40.921875 40.578125 39.3125 
z
" id="DejaVuSans-51"/>
       </defs>
       <use xlink:href="#DejaVuSans-51"/>
       <use x="63.623047" xlink:href="#DejaVuSans-48"/>
       <use x="127.246094" xlink:href="#DejaVuSans-48"/>
      </g>
     </g>
    </g>
    <g id="xtick_5">
     <g id="line2d_9">
      <path clip-path="url(#pf106045a20)" d="M 334.076852 307.584 
L 334.076852 41.472 
" style="fill:none;stroke:#b0b0b0;stroke-linecap:square;stroke-width:0.8;"/>
     </g>
     <g id="line2d_10">
      <g>
       <use style="stroke:#000000;stroke-width:0.8;" x="334.076852" xlink:href="#m8617d3a491" y="307.584"/>
      </g>
     </g>
     <g id="text_5">
      <!-- 400 -->
      <g transform="translate(324.533102 322.182437)scale(0.1 -0.1)">
       <defs>
        <path d="M 37.796875 64.3125 
L 12.890625 25.390625 
L 37.796875 25.390625 
z
M 35.203125 72.90625 
L 47.609375 72.90625 
L 47.609375 25.390625 
L 58.015625 25.390625 
L 58.015625 17.1875 
L 47.609375 17.1875 
L 47.609375 0 
L 37.796875 0 
L 37.796875 17.1875 
L 4.890625 17.1875 
L 4.890625 26.703125 
z
" id="DejaVuSans-52"/>
       </defs>
       <use xlink:href="#DejaVuSans-52"/>
       <use x="63.623047" xlink:href="#DejaVuSans-48"/>
       <use x="127.246094" xlink:href="#DejaVuSans-48"/>
      </g>
     </g>
    </g>
    <g id="xtick_6">
     <g id="line2d_11">
      <path clip-path="url(#pf106045a20)" d="M 399.137883 307.584 
L 399.137883 41.472 
" style="fill:none;stroke:#b0b0b0;stroke-linecap:square;stroke-width:0.8;"/>
     </g>
     <g id="line2d_12">
      <g>
       <use style="stroke:#000000;stroke-width:0.8;" x="399.137883" xlink:href="#m8617d3a491" y="307.584"/>
      </g>
     </g>
     <g id="text_6">
      <!-- 500 -->
      <g transform="translate(389.594133 322.182437)scale(0.1 -0.1)">
       <defs>
        <path d="M 10.796875 72.90625 
L 49.515625 72.90625 
L 49.515625 64.59375 
L 19.828125 64.59375 
L 19.828125 46.734375 
Q 21.96875 47.46875 24.109375 47.828125 
Q 26.265625 48.1875 28.421875 48.1875 
Q 40.625 48.1875 47.75 41.5 
Q 54.890625 34.8125 54.890625 23.390625 
Q 54.890625 11.625 47.5625 5.09375 
Q 40.234375 -1.421875 26.90625 -1.421875 
Q 22.3125 -1.421875 17.546875 -0.640625 
Q 12.796875 0.140625 7.71875 1.703125 
L 7.71875 11.625 
Q 12.109375 9.234375 16.796875 8.0625 
Q 21.484375 6.890625 26.703125 6.890625 
Q 35.15625 6.890625 40.078125 11.328125 
Q 45.015625 15.765625 45.015625 23.390625 
Q 45.015625 31 40.078125 35.4375 
Q 35.15625 39.890625 26.703125 39.890625 
Q 22.75 39.890625 18.8125 39.015625 
Q 14.890625 38.140625 10.796875 36.28125 
z
" id="DejaVuSans-53"/>
       </defs>
       <use xlink:href="#DejaVuSans-53"/>
       <use x="63.623047" xlink:href="#DejaVuSans-48"/>
       <use x="127.246094" xlink:href="#DejaVuSans-48"/>
      </g>
     </g>
    </g>
    <g id="text_7">
     <!-- Generations -->
     <g transform="translate(205.662344 335.860562)scale(0.1 -0.1)">
      <defs>
       <path d="M 59.515625 10.40625 
L 59.515625 29.984375 
L 43.40625 29.984375 
L 43.40625 38.09375 
L 69.28125 38.09375 
L 69.28125 6.78125 
Q 63.578125 2.734375 56.6875 0.65625 
Q 49.8125 -1.421875 42 -1.421875 
Q 24.90625 -1.421875 15.25 8.5625 
Q 5.609375 18.5625 5.609375 36.375 
Q 5.609375 54.25 15.25 64.234375 
Q 24.90625 74.21875 42 74.21875 
Q 49.125 74.21875 55.546875 72.453125 
Q 61.96875 70.703125 67.390625 67.28125 
L 67.390625 56.78125 
Q 61.921875 61.421875 55.765625 63.765625 
Q 49.609375 66.109375 42.828125 66.109375 
Q 29.4375 66.109375 22.71875 58.640625 
Q 16.015625 51.171875 16.015625 36.375 
Q 16.015625 21.625 22.71875 14.15625 
Q 29.4375 6.6875 42.828125 6.6875 
Q 48.046875 6.6875 52.140625 7.59375 
Q 56.25 8.5 59.515625 10.40625 
z
" id="DejaVuSans-71"/>
       <path d="M 56.203125 29.59375 
L 56.203125 25.203125 
L 14.890625 25.203125 
Q 15.484375 15.921875 20.484375 11.0625 
Q 25.484375 6.203125 34.421875 6.203125 
Q 39.59375 6.203125 44.453125 7.46875 
Q 49.3125 8.734375 54.109375 11.28125 
L 54.109375 2.78125 
Q 49.265625 0.734375 44.1875 -0.34375 
Q 39.109375 -1.421875 33.890625 -1.421875 
Q 20.796875 -1.421875 13.15625 6.1875 
Q 5.515625 13.8125 5.515625 26.8125 
Q 5.515625 40.234375 12.765625 48.109375 
Q 20.015625 56 32.328125 56 
Q 43.359375 56 49.78125 48.890625 
Q 56.203125 41.796875 56.203125 29.59375 
z
M 47.21875 32.234375 
Q 47.125 39.59375 43.09375 43.984375 
Q 39.0625 48.390625 32.421875 48.390625 
Q 24.90625 48.390625 20.390625 44.140625 
Q 15.875 39.890625 15.1875 32.171875 
z
" id="DejaVuSans-101"/>
       <path d="M 54.890625 33.015625 
L 54.890625 0 
L 45.90625 0 
L 45.90625 32.71875 
Q 45.90625 40.484375 42.875 44.328125 
Q 39.84375 48.1875 33.796875 48.1875 
Q 26.515625 48.1875 22.3125 43.546875 
Q 18.109375 38.921875 18.109375 30.90625 
L 18.109375 0 
L 9.078125 0 
L 9.078125 54.6875 
L 18.109375 54.6875 
L 18.109375 46.1875 
Q 21.34375 51.125 25.703125 53.5625 
Q 30.078125 56 35.796875 56 
Q 45.21875 56 50.046875 50.171875 
Q 54.890625 44.34375 54.890625 33.015625 
z
" id="DejaVuSans-110"/>
       <path d="M 41.109375 46.296875 
Q 39.59375 47.171875 37.8125 47.578125 
Q 36.03125 48 33.890625 48 
Q 26.265625 48 22.1875 43.046875 
Q 18.109375 38.09375 18.109375 28.8125 
L 18.109375 0 
L 9.078125 0 
L 9.078125 54.6875 
L 18.109375 54.6875 
L 18.109375 46.1875 
Q 20.953125 51.171875 25.484375 53.578125 
Q 30.03125 56 36.53125 56 
Q 37.453125 56 38.578125 55.875 
Q 39.703125 55.765625 41.0625 55.515625 
z
" id="DejaVuSans-114"/>
       <path d="M 34.28125 27.484375 
Q 23.390625 27.484375 19.1875 25 
Q 14.984375 22.515625 14.984375 16.5 
Q 14.984375 11.71875 18.140625 8.90625 
Q 21.296875 6.109375 26.703125 6.109375 
Q 34.1875 6.109375 38.703125 11.40625 
Q 43.21875 16.703125 43.21875 25.484375 
L 43.21875 27.484375 
z
M 52.203125 31.203125 
L 52.203125 0 
L 43.21875 0 
L 43.21875 8.296875 
Q 40.140625 3.328125 35.546875 0.953125 
Q 30.953125 -1.421875 24.3125 -1.421875 
Q 15.921875 -1.421875 10.953125 3.296875 
Q 6 8.015625 6 15.921875 
Q 6 25.140625 12.171875 29.828125 
Q 18.359375 34.515625 30.609375 34.515625 
L 43.21875 34.515625 
L 43.21875 35.40625 
Q 43.21875 41.609375 39.140625 45 
Q 35.0625 48.390625 27.6875 48.390625 
Q 23 48.390625 18.546875 47.265625 
Q 14.109375 46.140625 10.015625 43.890625 
L 10.015625 52.203125 
Q 14.9375 54.109375 19.578125 55.046875 
Q 24.21875 56 28.609375 56 
Q 40.484375 56 46.34375 49.84375 
Q 52.203125 43.703125 52.203125 31.203125 
z
" id="DejaVuSans-97"/>
       <path d="M 18.3125 70.21875 
L 18.3125 54.6875 
L 36.8125 54.6875 
L 36.8125 47.703125 
L 18.3125 47.703125 
L 18.3125 18.015625 
Q 18.3125 11.328125 20.140625 9.421875 
Q 21.96875 7.515625 27.59375 7.515625 
L 36.8125 7.515625 
L 36.8125 0 
L 27.59375 0 
Q 17.1875 0 13.234375 3.875 
Q 9.28125 7.765625 9.28125 18.015625 
L 9.28125 47.703125 
L 2.6875 47.703125 
L 2.6875 54.6875 
L 9.28125 54.6875 
L 9.28125 70.21875 
z
" id="DejaVuSans-116"/>
       <path d="M 9.421875 54.6875 
L 18.40625 54.6875 
L 18.40625 0 
L 9.421875 0 
z
M 9.421875 75.984375 
L 18.40625 75.984375 
L 18.40625 64.59375 
L 9.421875 64.59375 
z
" id="DejaVuSans-105"/>
       <path d="M 30.609375 48.390625 
Q 23.390625 48.390625 19.1875 42.75 
Q 14.984375 37.109375 14.984375 27.296875 
Q 14.984375 17.484375 19.15625 11.84375 
Q 23.34375 6.203125 30.609375 6.203125 
Q 37.796875 6.203125 41.984375 11.859375 
Q 46.1875 17.53125 46.1875 27.296875 
Q 46.1875 37.015625 41.984375 42.703125 
Q 37.796875 48.390625 30.609375 48.390625 
z
M 30.609375 56 
Q 42.328125 56 49.015625 48.375 
Q 55.71875 40.765625 55.71875 27.296875 
Q 55.71875 13.875 49.015625 6.21875 
Q 42.328125 -1.421875 30.609375 -1.421875 
Q 18.84375 -1.421875 12.171875 6.21875 
Q 5.515625 13.875 5.515625 27.296875 
Q 5.515625 40.765625 12.171875 48.375 
Q 18.84375 56 30.609375 56 
z
" id="DejaVuSans-111"/>
       <path d="M 44.28125 53.078125 
L 44.28125 44.578125 
Q 40.484375 46.53125 36.375 47.5 
Q 32.28125 48.484375 27.875 48.484375 
Q 21.1875 48.484375 17.84375 46.4375 
Q 14.5 44.390625 14.5 40.28125 
Q 14.5 37.15625 16.890625 35.375 
Q 19.28125 33.59375 26.515625 31.984375 
L 29.59375 31.296875 
Q 39.15625 29.25 43.1875 25.515625 
Q 47.21875 21.78125 47.21875 15.09375 
Q 47.21875 7.46875 41.1875 3.015625 
Q 35.15625 -1.421875 24.609375 -1.421875 
Q 20.21875 -1.421875 15.453125 -0.5625 
Q 10.6875 0.296875 5.421875 2 
L 5.421875 11.28125 
Q 10.40625 8.6875 15.234375 7.390625 
Q 20.0625 6.109375 24.8125 6.109375 
Q 31.15625 6.109375 34.5625 8.28125 
Q 37.984375 10.453125 37.984375 14.40625 
Q 37.984375 18.0625 35.515625 20.015625 
Q 33.0625 21.96875 24.703125 23.78125 
L 21.578125 24.515625 
Q 13.234375 26.265625 9.515625 29.90625 
Q 5.8125 33.546875 5.8125 39.890625 
Q 5.8125 47.609375 11.28125 51.796875 
Q 16.75 56 26.8125 56 
Q 31.78125 56 36.171875 55.265625 
Q 40.578125 54.546875 44.28125 53.078125 
z
" id="DejaVuSans-115"/>
      </defs>
      <use xlink:href="#DejaVuSans-71"/>
      <use x="77.490234" xlink:href="#DejaVuSans-101"/>
      <use x="139.013672" xlink:href="#DejaVuSans-110"/>
      <use x="202.392578" xlink:href="#DejaVuSans-101"/>
      <use x="263.916016" xlink:href="#DejaVuSans-114"/>
      <use x="305.029297" xlink:href="#DejaVuSans-97"/>
      <use x="366.308594" xlink:href="#DejaVuSans-116"/>
      <use x="405.517578" xlink:href="#DejaVuSans-105"/>
      <use x="433.300781" xlink:href="#DejaVuSans-111"/>
      <use x="494.482422" xlink:href="#DejaVuSans-110"/>
      <use x="557.861328" xlink:href="#DejaVuSans-115"/>
     </g>
    </g>
   </g>
   <g id="matplotlib.axis_2">
    <g id="ytick_1">
     <g id="line2d_13">
      <path clip-path="url(#pf106045a20)" d="M 57.6 262.313804 
L 414.72 262.313804 
" style="fill:none;stroke:#b0b0b0;stroke-linecap:square;stroke-width:0.8;"/>
     </g>
     <g id="line2d_14">
      <defs>
       <path d="M 0 0 
L -3.5 0 
" id="mb9762ede4d" style="stroke:#000000;stroke-width:0.8;"/>
      </defs>
      <g>
       <use style="stroke:#000000;stroke-width:0.8;" x="57.6" xlink:href="#mb9762ede4d" y="262.313804"/>
      </g>
     </g>
     <g id="text_8">
      <!-- 300 -->
      <g transform="translate(31.5125 266.113023)scale(0.1 -0.1)">
       <use xlink:href="#DejaVuSans-51"/>
       <use x="63.623047" xlink:href="#DejaVuSans-48"/>
       <use x="127.246094" xlink:href="#DejaVuSans-48"/>
      </g>
     </g>
    </g>
    <g id="ytick_2">
     <g id="line2d_15">
      <path clip-path="url(#pf106045a20)" d="M 57.6 204.328859 
L 414.72 204.328859 
" style="fill:none;stroke:#b0b0b0;stroke-linecap:square;stroke-width:0.8;"/>
     </g>
     <g id="line2d_16">
      <g>
       <use style="stroke:#000000;stroke-width:0.8;" x="57.6" xlink:href="#mb9762ede4d" y="204.328859"/>
      </g>
     </g>
     <g id="text_9">
      <!-- 400 -->
      <g transform="translate(31.5125 208.128078)scale(0.1 -0.1)">
       <use xlink:href="#DejaVuSans-52"/>
       <use x="63.623047" xlink:href="#DejaVuSans-48"/>
       <use x="127.246094" xlink:href="#DejaVuSans-48"/>
      </g>
     </g>
    </g>
    <g id="ytick_3">
     <g id="line2d_17">
      <path clip-path="url(#pf106045a20)" d="M 57.6 146.343913 
L 414.72 146.343913 
" style="fill:none;stroke:#b0b0b0;stroke-linecap:square;stroke-width:0.8;"/>
     </g>
     <g id="line2d_18">
      <g>
       <use style="stroke:#000000;stroke-width:0.8;" x="57.6" xlink:href="#mb9762ede4d" y="146.343913"/>
      </g>
     </g>
     <g id="text_10">
      <!-- 500 -->
      <g transform="translate(31.5125 150.143132)scale(0.1 -0.1)">
       <use xlink:href="#DejaVuSans-53"/>
       <use x="63.623047" xlink:href="#DejaVuSans-48"/>
       <use x="127.246094" xlink:href="#DejaVuSans-48"/>
      </g>
     </g>
    </g>
    <g id="ytick_4">
     <g id="line2d_19">
      <path clip-path="url(#pf106045a20)" d="M 57.6 88.358967 
L 414.72 88.358967 
" style="fill:none;stroke:#b0b0b0;stroke-linecap:square;stroke-width:0.8;"/>
     </g>
     <g id="line2d_20">
      <g>
       <use style="stroke:#000000;stroke-width:0.8;" x="57.6" xlink:href="#mb9762ede4d" y="88.358967"/>
      </g>
     </g>
     <g id="text_11">
      <!-- 600 -->
      <g transform="translate(31.5125 92.158186)scale(0.1 -0.1)">
       <defs>
        <path d="M 33.015625 40.375 
Q 26.375 40.375 22.484375 35.828125 
Q 18.609375 31.296875 18.609375 23.390625 
Q 18.609375 15.53125 22.484375 10.953125 
Q 26.375 6.390625 33.015625 6.390625 
Q 39.65625 6.390625 43.53125 10.953125 
Q 47.40625 15.53125 47.40625 23.390625 
Q 47.40625 31.296875 43.53125 35.828125 
Q 39.65625 40.375 33.015625 40.375 
z
M 52.59375 71.296875 
L 52.59375 62.3125 
Q 48.875 64.0625 45.09375 64.984375 
Q 41.3125 65.921875 37.59375 65.921875 
Q 27.828125 65.921875 22.671875 59.328125 
Q 17.53125 52.734375 16.796875 39.40625 
Q 19.671875 43.65625 24.015625 45.921875 
Q 28.375 48.1875 33.59375 48.1875 
Q 44.578125 48.1875 50.953125 41.515625 
Q 57.328125 34.859375 57.328125 23.390625 
Q 57.328125 12.15625 50.6875 5.359375 
Q 44.046875 -1.421875 33.015625 -1.421875 
Q 20.359375 -1.421875 13.671875 8.265625 
Q 6.984375 17.96875 6.984375 36.375 
Q 6.984375 53.65625 15.1875 63.9375 
Q 23.390625 74.21875 37.203125 74.21875 
Q 40.921875 74.21875 44.703125 73.484375 
Q 48.484375 72.75 52.59375 71.296875 
z
" id="DejaVuSans-54"/>
       </defs>
       <use xlink:href="#DejaVuSans-54"/>
       <use x="63.623047" xlink:href="#DejaVuSans-48"/>
       <use x="127.246094" xlink:href="#DejaVuSans-48"/>
      </g>
     </g>
    </g>
    <g id="text_12">
     <!-- Fitness -->
     <g transform="translate(25.432812 191.845187)rotate(-90)scale(0.1 -0.1)">
      <defs>
       <path d="M 9.8125 72.90625 
L 51.703125 72.90625 
L 51.703125 64.59375 
L 19.671875 64.59375 
L 19.671875 43.109375 
L 48.578125 43.109375 
L 48.578125 34.8125 
L 19.671875 34.8125 
L 19.671875 0 
L 9.8125 0 
z
" id="DejaVuSans-70"/>
      </defs>
      <use xlink:href="#DejaVuSans-70"/>
      <use x="50.269531" xlink:href="#DejaVuSans-105"/>
      <use x="78.052734" xlink:href="#DejaVuSans-116"/>
      <use x="117.261719" xlink:href="#DejaVuSans-110"/>
      <use x="180.640625" xlink:href="#DejaVuSans-101"/>
      <use x="242.164062" xlink:href="#DejaVuSans-115"/>
      <use x="294.263672" xlink:href="#DejaVuSans-115"/>
     </g>
    </g>
   </g>
   <g id="line2d_21">
    <path clip-path="url(#pf106045a20)" d="M 73.832727 242.981624 
L 74.483338 243.212404 
L 75.133948 242.222367 
L 75.784558 242.801644 
L 76.435169 242.532589 
L 77.085779 241.840306 
L 77.736389 241.530294 
L 78.386999 242.428987 
L 79.03761 242.057344 
L 79.68822 242.616318 
L 80.33883 242.41801 
L 80.989441 242.060823 
L 81.640051 242.019073 
L 82.290661 241.389357 
L 82.941272 242.37974 
L 83.591882 241.76278 
L 84.242492 241.949255 
L 84.893103 241.268387 
L 85.543713 241.129971 
L 86.194323 241.781109 
L 86.844934 241.066103 
L 87.495544 240.911748 
L 88.146154 240.031974 
L 88.796764 239.538899 
L 89.447375 239.79483 
L 90.097985 238.530204 
L 90.748595 239.138176 
L 91.399206 237.944968 
L 92.049816 237.739232 
L 92.700426 238.406826 
L 93.351037 236.276244 
L 94.001647 237.770093 
L 94.652257 237.527697 
L 95.302868 233.618953 
L 95.953478 237.010816 
L 96.604088 233.621084 
L 97.254698 228.412606 
L 97.905309 233.28202 
L 98.555919 232.225514 
L 99.206529 233.152209 
L 99.85714 236.629325 
L 100.50775 231.805133 
L 101.15836 232.71472 
L 101.808971 230.932352 
L 102.459581 228.078526 
L 103.110191 230.293229 
L 103.760802 230.441575 
L 104.411412 227.747779 
L 105.062022 227.624565 
L 105.712633 224.430307 
L 106.363243 224.47345 
L 107.013853 228.784862 
L 107.664463 227.858287 
L 108.315074 230.021022 
L 108.965684 237.472087 
L 109.616294 228.646931 
L 110.266905 227.670343 
L 110.917515 226.968645 
L 111.568125 225.493364 
L 112.218736 226.93781 
L 112.869346 226.180028 
L 113.519956 222.437185 
L 114.170567 222.198258 
L 114.821177 222.69979 
L 115.471787 220.846285 
L 116.122398 222.011607 
L 116.773008 231.043352 
L 117.423618 231.581783 
L 118.074228 222.310109 
L 118.724839 229.685676 
L 119.375449 228.079722 
L 120.026059 223.8856 
L 120.67667 231.778932 
L 121.32728 221.985275 
L 121.97789 221.127098 
L 122.628501 222.585505 
L 123.279111 227.662224 
L 123.929721 221.488958 
L 124.580332 225.130254 
L 125.230942 230.7468 
L 125.881552 222.126218 
L 126.532163 228.420489 
L 127.182773 222.275199 
L 127.833383 231.14836 
L 128.483993 219.569804 
L 129.134604 218.31988 
L 129.785214 209.860168 
L 130.435824 214.921158 
L 131.086435 214.09163 
L 131.737045 215.826278 
L 132.387655 215.95484 
L 133.038266 224.401021 
L 133.688876 213.225741 
L 134.339486 216.809975 
L 134.990097 227.053159 
L 135.640707 227.373569 
L 136.291317 219.689071 
L 136.941927 227.901749 
L 137.592538 234.033226 
L 138.243148 231.462402 
L 138.893758 236.714312 
L 139.544369 243.85622 
L 140.194979 230.943949 
L 140.845589 229.795847 
L 141.4962 232.793669 
L 142.79742 228.518428 
L 143.448031 233.78196 
L 144.098641 228.18859 
L 144.749251 229.592954 
L 145.399862 230.593278 
L 146.050472 226.040392 
L 146.701082 223.031739 
L 147.351692 224.72316 
L 148.002303 224.564421 
L 148.652913 223.979313 
L 149.303523 222.066454 
L 149.954134 217.665396 
L 150.604744 221.853198 
L 151.255354 224.951585 
L 151.905965 222.942612 
L 152.556575 222.420162 
L 153.207185 224.477163 
L 153.857796 228.524395 
L 154.508406 230.297831 
L 155.159016 225.765717 
L 155.809627 226.456851 
L 156.460237 222.989469 
L 157.110847 231.417785 
L 157.761457 217.887965 
L 158.412068 227.293194 
L 159.062678 228.137829 
L 159.713288 228.647745 
L 161.014509 222.536132 
L 161.665119 221.253574 
L 162.31573 222.286969 
L 162.96634 222.00267 
L 164.267561 227.580822 
L 164.918171 218.280037 
L 165.568781 226.084583 
L 166.219392 215.070426 
L 167.520612 227.51698 
L 168.171222 209.939927 
L 168.821833 208.98505 
L 169.472443 221.167457 
L 170.123053 216.760831 
L 170.773664 215.127837 
L 171.424274 219.584698 
L 172.074884 233.195028 
L 172.725495 221.138752 
L 173.376105 225.346966 
L 174.026715 216.7296 
L 175.327936 213.330878 
L 175.978546 209.342507 
L 176.629156 208.13847 
L 177.279767 207.228106 
L 177.930377 218.227675 
L 178.580987 209.108224 
L 179.231598 219.516229 
L 179.882208 217.811823 
L 180.532818 219.557228 
L 181.183429 227.931098 
L 181.834039 216.365128 
L 182.484649 217.99591 
L 183.13526 209.588093 
L 183.78587 210.747792 
L 184.43648 222.561903 
L 185.087091 221.548631 
L 185.737701 224.971499 
L 186.388311 234.096378 
L 187.038921 234.363889 
L 187.689532 238.139881 
L 188.340142 228.733699 
L 188.990752 222.958675 
L 189.641363 232.419981 
L 190.291973 219.868824 
L 190.942583 228.085291 
L 191.593194 221.921491 
L 192.243804 225.830145 
L 192.894414 221.443203 
L 194.195635 223.904576 
L 194.846245 223.156571 
L 195.496856 227.076353 
L 196.147466 234.370859 
L 196.798076 229.755257 
L 197.448686 226.374735 
L 198.099297 222.176625 
L 198.749907 233.570667 
L 199.400517 219.793444 
L 200.051128 236.359743 
L 200.701738 234.86953 
L 201.352348 227.018368 
L 202.002959 216.373652 
L 202.653569 226.079012 
L 203.304179 231.865909 
L 203.95479 234.486888 
L 204.6054 232.278774 
L 205.25601 221.062494 
L 205.906621 220.066793 
L 206.557231 217.74003 
L 207.207841 230.532256 
L 207.858451 234.127322 
L 208.509062 218.854088 
L 209.159672 227.105345 
L 209.810282 224.488877 
L 210.460893 230.261334 
L 211.111503 226.209649 
L 211.762113 227.729516 
L 212.412724 227.546031 
L 213.063334 234.568008 
L 213.713944 224.240889 
L 214.364555 236.841018 
L 215.015165 228.815901 
L 215.665775 223.044792 
L 216.316385 238.870491 
L 216.966996 229.801235 
L 217.617606 230.228801 
L 218.268216 225.707908 
L 219.569437 209.939927 
L 220.220047 218.604752 
L 220.870658 219.242587 
L 221.521268 218.684526 
L 222.171878 209.738854 
L 222.822489 208.532767 
L 223.473099 197.921229 
L 224.123709 223.788607 
L 224.77432 208.161664 
L 225.42493 212.83525 
L 226.07554 225.088618 
L 226.72615 216.215773 
L 227.376761 211.935795 
L 228.027371 204.972492 
L 228.677981 207.452008 
L 229.328592 221.718485 
L 229.979202 225.742699 
L 230.629812 228.211767 
L 231.280423 218.146671 
L 232.581643 207.262897 
L 233.232254 226.148594 
L 233.882864 204.989887 
L 234.533474 207.083144 
L 235.184085 215.432976 
L 235.834695 217.80456 
L 236.485305 213.859058 
L 237.135915 214.743185 
L 237.786526 212.567314 
L 238.437136 217.95245 
L 239.087746 199.15707 
L 239.738357 217.864536 
L 240.388967 213.4457 
L 241.039577 212.171179 
L 241.690188 207.796473 
L 242.340798 211.183713 
L 242.991408 226.334146 
L 243.642019 207.739063 
L 244.292629 206.24064 
L 244.943239 204.007358 
L 245.59385 210.431631 
L 246.24446 207.365892 
L 246.89507 217.875734 
L 247.54568 217.949636 
L 248.196291 209.36953 
L 248.846901 203.650435 
L 249.497511 208.619745 
L 250.148122 206.694185 
L 250.798732 200.821057 
L 251.449342 208.706722 
L 252.099953 203.892536 
L 252.750563 208.875797 
L 253.401173 209.432682 
L 254.051784 205.693555 
L 254.702394 217.758172 
L 255.353004 212.222849 
L 256.003615 220.932073 
L 256.654225 217.539092 
L 257.955445 207.927336 
L 258.606056 208.842589 
L 259.256666 215.483784 
L 259.907276 212.779734 
L 260.557887 222.467451 
L 261.208497 221.233701 
L 261.859107 211.765569 
L 262.509718 212.578796 
L 263.160328 204.047218 
L 263.810938 220.321659 
L 264.461549 223.475373 
L 265.112159 228.524395 
L 266.413379 219.548472 
L 267.06399 221.521395 
L 267.7146 221.285063 
L 268.36521 225.636862 
L 269.015821 224.488877 
L 269.666431 231.686156 
L 270.317041 222.069909 
L 270.967652 225.326438 
L 271.618262 219.77394 
L 272.268872 222.12848 
L 272.919483 219.236788 
L 273.570093 225.591938 
L 274.220703 213.331168 
L 274.871314 216.792694 
L 275.521924 221.484203 
L 276.172534 219.828235 
L 276.823144 221.115208 
L 278.124365 211.559581 
L 278.774975 216.569481 
L 279.425586 218.193059 
L 280.076196 210.326494 
L 280.726806 210.918057 
L 281.377417 227.81569 
L 282.028027 212.722033 
L 282.678637 227.070554 
L 283.329248 231.220095 
L 283.979858 218.670086 
L 284.630468 220.740356 
L 285.281079 232.333865 
L 285.931689 230.944523 
L 287.232909 214.944123 
L 287.88352 215.914134 
L 289.18474 224.459592 
L 289.835351 218.069017 
L 290.485961 206.29805 
L 291.136571 212.911779 
L 291.787182 210.046978 
L 292.437792 200.803833 
L 293.088402 203.709216 
L 293.739013 202.80173 
L 294.389623 199.248 
L 295.040233 208.001239 
L 295.690844 200.919344 
L 296.341454 205.851696 
L 296.992064 209.172652 
L 297.642674 214.806738 
L 298.293285 208.140938 
L 298.943895 211.623365 
L 300.245116 216.569481 
L 300.895726 201.860193 
L 301.546336 208.816894 
L 302.196947 212.405752 
L 302.847557 211.855188 
L 303.498167 213.449891 
L 304.148778 217.932127 
L 304.799388 209.970794 
L 305.449998 210.557935 
L 306.100608 209.185816 
L 306.751219 218.95714 
L 307.401829 209.721459 
L 308.052439 213.020802 
L 308.70305 222.321587 
L 310.00427 201.423813 
L 311.305491 214.33706 
L 311.956101 216.30275 
L 312.606712 217.346479 
L 313.257322 220.564644 
L 313.907932 205.958236 
L 314.558543 207.813697 
L 315.209153 210.37089 
L 315.859763 204.183896 
L 316.510373 208.179059 
L 317.160984 206.532287 
L 317.811594 209.752501 
L 318.462204 208.86908 
L 319.112815 198.627963 
L 319.763425 213.807388 
L 320.414035 206.40472 
L 321.064646 204.514411 
L 321.715256 203.672867 
L 322.365866 205.239222 
L 323.016477 205.172276 
L 323.667087 200.67405 
L 324.317697 214.742955 
L 324.968308 202.336703 
L 325.618918 203.569256 
L 326.269528 207.396262 
L 326.920138 205.687698 
L 327.570749 213.75282 
L 328.221359 211.275455 
L 328.871969 205.819072 
L 329.52258 209.379348 
L 330.17319 207.610807 
L 330.8238 211.579848 
L 331.474411 200.62586 
L 332.125021 204.765181 
L 332.775631 201.348433 
L 333.426242 205.859661 
L 334.727462 209.335084 
L 335.378073 216.140392 
L 336.028683 215.949042 
L 336.679293 208.625543 
L 337.329903 213.136772 
L 337.980514 211.617566 
L 338.631124 204.230284 
L 339.281734 202.191374 
L 339.932345 212.406162 
L 340.582955 209.89091 
L 341.233565 206.556399 
L 341.884176 206.540245 
L 342.534786 213.257414 
L 343.185396 208.335091 
L 343.836007 209.965665 
L 344.486617 210.925364 
L 345.137227 200.994724 
L 345.787837 208.036381 
L 346.438448 211.89033 
L 347.089058 213.114457 
L 347.739668 201.417897 
L 348.390279 212.613243 
L 349.040889 204.253478 
L 349.691499 218.175664 
L 350.34211 211.147888 
L 350.99272 211.310246 
L 351.64333 217.595111 
L 352.293941 215.369192 
L 352.944551 214.841529 
L 353.595161 205.535414 
L 354.245772 211.768327 
L 354.896382 204.498714 
L 355.546992 211.035198 
L 356.197602 219.410802 
L 356.848213 216.053415 
L 357.498823 207.17592 
L 358.149433 219.573101 
L 358.800044 211.791521 
L 359.450654 209.547504 
L 360.101264 202.566116 
L 360.751875 206.810614 
L 361.402485 209.072027 
L 362.053095 205.838764 
L 362.703706 200.373252 
L 364.004926 215.656017 
L 364.655537 217.20611 
L 365.306147 216.41384 
L 365.956757 202.073244 
L 366.607367 206.217675 
L 367.257978 212.245813 
L 367.908588 206.416317 
L 368.559198 205.593985 
L 369.209809 202.287789 
L 369.860419 210.689807 
L 370.511029 206.986981 
L 371.16164 209.615059 
L 372.46286 221.162064 
L 373.113471 230.973228 
L 373.764081 211.124694 
L 375.065302 204.38627 
L 375.715912 216.760831 
L 376.366522 204.108516 
L 377.017132 204.757947 
L 377.667743 211.153687 
L 378.318353 209.846214 
L 378.968963 202.653094 
L 380.270184 214.441433 
L 380.920794 209.356154 
L 382.222015 202.908228 
L 382.872625 214.018143 
L 383.523236 216.95798 
L 384.173846 217.906522 
L 384.824456 213.365325 
L 385.475066 210.265139 
L 386.125677 211.802474 
L 386.776287 205.933695 
L 387.426897 216.281795 
L 388.077508 220.54742 
L 388.728118 219.277378 
L 389.378728 208.229664 
L 390.029339 204.352053 
L 390.679949 206.625063 
L 391.330559 222.081623 
L 391.98117 210.556442 
L 392.63178 212.243804 
L 393.28239 208.492178 
L 393.933001 199.249378 
L 394.583611 201.307843 
L 395.234221 192.077386 
L 395.884831 210.005585 
L 396.535442 204.618783 
L 397.186052 201.273052 
L 397.836662 203.89977 
L 398.487273 216.663838 
L 398.487273 216.663838 
" style="fill:none;stroke:#0000ff;stroke-linecap:square;stroke-width:1.5;"/>
   </g>
   <g id="line2d_22">
    <path clip-path="url(#pf106045a20)" d="M 73.832727 244.03248 
L 74.483338 254.491133 
L 75.133948 255.263147 
L 75.784558 257.227457 
L 76.435169 260.011388 
L 77.085779 260.207168 
L 77.736389 258.962255 
L 78.386999 255.298759 
L 79.03761 253.73053 
L 79.68822 252.540406 
L 80.33883 253.005665 
L 80.989441 251.264311 
L 81.640051 252.589715 
L 82.290661 249.596851 
L 82.941272 255.500788 
L 83.591882 250.058694 
L 84.242492 254.169235 
L 84.893103 248.712786 
L 85.543713 248.719887 
L 86.194323 252.003712 
L 87.495544 248.796454 
L 88.146154 250.999799 
L 88.796764 247.901432 
L 89.447375 256.764984 
L 90.097985 248.242374 
L 90.748595 251.052747 
L 91.399206 249.043082 
L 92.049816 249.545627 
L 92.700426 252.541088 
L 93.351037 248.816108 
L 94.001647 255.212633 
L 94.652257 258.000402 
L 95.302868 257.130966 
L 95.953478 260.670045 
L 96.604088 249.638614 
L 97.254698 245.931525 
L 97.905309 259.125593 
L 98.555919 251.247007 
L 99.206529 259.102593 
L 99.85714 263.522161 
L 100.50775 252.251772 
L 101.15836 255.332378 
L 101.808971 259.037252 
L 102.459581 256.240591 
L 103.110191 258.463147 
L 103.760802 267.309872 
L 104.411412 251.643066 
L 105.062022 253.202393 
L 105.712633 252.856875 
L 106.363243 256.571287 
L 107.013853 255.322179 
L 107.664463 258.302631 
L 108.315074 253.958435 
L 108.965684 271.813505 
L 109.616294 259.639679 
L 110.266905 257.164051 
L 110.917515 258.1055 
L 111.568125 257.91105 
L 112.218736 262.1721 
L 112.869346 259.444772 
L 113.519956 261.497739 
L 114.170567 260.654459 
L 114.821177 260.42343 
L 115.471787 256.747939 
L 116.122398 258.790807 
L 117.423618 267.865494 
L 118.074228 264.6454 
L 118.724839 272.898962 
L 119.375449 266.485671 
L 120.026059 257.007261 
L 120.67667 267.376421 
L 121.32728 258.114258 
L 121.97789 260.342626 
L 122.628501 265.342081 
L 123.279111 273.903837 
L 123.929721 259.348523 
L 124.580332 271.788886 
L 125.230942 272.211455 
L 125.881552 268.603488 
L 126.532163 267.474733 
L 127.182773 264.910373 
L 127.833383 278.530254 
L 128.483993 261.877423 
L 129.134604 261.746554 
L 129.785214 243.545464 
L 130.435824 255.527831 
L 131.086435 256.293578 
L 131.737045 258.816114 
L 132.387655 257.547663 
L 133.038266 266.140151 
L 133.688876 247.780271 
L 134.339486 255.509136 
L 134.990097 270.032225 
L 135.640707 266.002823 
L 136.291317 261.144657 
L 136.941927 278.853971 
L 137.592538 275.044101 
L 138.243148 265.287897 
L 139.544369 278.55157 
L 140.194979 269.693818 
L 140.845589 270.879945 
L 142.14681 276.791648 
L 142.79742 268.225137 
L 143.448031 273.069431 
L 144.098641 265.398803 
L 144.749251 268.113296 
L 145.399862 275.795893 
L 146.050472 267.023994 
L 146.701082 263.016693 
L 147.351692 264.373585 
L 148.002303 272.158919 
L 148.652913 267.344018 
L 149.303523 266.245967 
L 149.954134 258.173699 
L 151.255354 269.084076 
L 151.905965 261.823896 
L 152.556575 263.863703 
L 153.207185 268.871844 
L 153.857796 269.344956 
L 154.508406 272.750287 
L 155.159016 265.476005 
L 155.809627 268.116083 
L 156.460237 265.940681 
L 157.110847 280.448093 
L 157.761457 256.250539 
L 158.412068 266.590443 
L 159.713288 274.119465 
L 160.363899 266.723981 
L 161.014509 264.110974 
L 161.665119 268.167852 
L 162.31573 262.434293 
L 162.96634 268.921377 
L 163.61695 265.239699 
L 164.267561 271.323421 
L 164.918171 262.847178 
L 165.568781 270.411695 
L 166.219392 253.864182 
L 166.870002 261.949084 
L 167.520612 281.747756 
L 168.171222 254.399928 
L 168.821833 252.037961 
L 169.472443 269.64043 
L 170.123053 259.636558 
L 170.773664 262.176187 
L 171.424274 272.235456 
L 172.074884 278.898448 
L 172.725495 262.308629 
L 173.376105 266.120415 
L 174.026715 265.741507 
L 175.327936 258.708275 
L 175.978546 252.435967 
L 176.629156 250.06341 
L 177.279767 249.692173 
L 177.930377 265.267876 
L 178.580987 251.847375 
L 179.231598 266.579544 
L 179.882208 264.325196 
L 180.532818 268.589721 
L 181.183429 280.377977 
L 181.834039 259.707444 
L 182.484649 258.151334 
L 183.13526 252.172441 
L 183.78587 252.661584 
L 184.43648 266.927035 
L 185.087091 264.685111 
L 185.737701 276.00629 
L 187.038921 283.748395 
L 187.689532 295.488 
L 188.340142 276.152934 
L 188.990752 264.25145 
L 189.641363 278.533959 
L 190.291973 259.115681 
L 190.942583 272.837083 
L 191.593194 263.325034 
L 192.243804 271.819254 
L 192.894414 269.04307 
L 193.545025 262.079828 
L 194.195635 262.186071 
L 194.846245 265.369727 
L 195.496856 266.247049 
L 196.147466 279.549185 
L 196.798076 266.782664 
L 198.099297 271.723503 
L 198.749907 276.221049 
L 199.400517 260.103455 
L 200.051128 281.069191 
L 200.701738 280.184908 
L 201.352348 267.268914 
L 202.002959 260.125988 
L 202.653569 272.680261 
L 203.304179 281.061446 
L 203.95479 277.703367 
L 204.6054 272.544048 
L 205.25601 268.555834 
L 206.557231 262.367271 
L 207.207841 271.563208 
L 207.858451 277.759666 
L 208.509062 256.791256 
L 209.159672 269.25606 
L 209.810282 269.688128 
L 210.460893 271.91471 
L 211.111503 260.717204 
L 211.762113 271.2379 
L 212.412724 265.884028 
L 213.063334 278.541428 
L 213.713944 266.425981 
L 214.364555 274.686069 
L 215.015165 264.800207 
L 215.665775 261.323216 
L 216.316385 280.487144 
L 216.966996 262.174157 
L 217.617606 271.294411 
L 218.268216 267.958181 
L 218.918827 257.988608 
L 219.569437 250.422888 
L 220.220047 258.532748 
L 220.870658 261.453244 
L 221.521268 259.016472 
L 222.171878 254.299676 
L 222.822489 256.465199 
L 223.473099 241.421017 
L 224.123709 275.488637 
L 224.77432 249.639418 
L 225.42493 252.877544 
L 226.07554 276.845849 
L 226.72615 264.960285 
L 227.376761 258.619214 
L 228.027371 248.891937 
L 228.677981 252.058828 
L 229.328592 264.809674 
L 229.979202 271.213565 
L 230.629812 272.805506 
L 231.280423 270.315534 
L 231.931033 252.429205 
L 232.581643 249.605632 
L 233.232254 273.119811 
L 233.882864 242.680104 
L 235.184085 261.052602 
L 235.834695 262.435352 
L 237.135915 254.546955 
L 237.786526 258.102584 
L 238.437136 265.632012 
L 239.087746 240.836431 
L 239.738357 265.183442 
L 240.388967 258.130599 
L 241.039577 259.415874 
L 241.690188 252.711936 
L 242.340798 259.786617 
L 242.991408 274.370071 
L 243.642019 252.852964 
L 244.292629 249.21745 
L 244.943239 244.131958 
L 245.59385 255.419345 
L 246.24446 250.169977 
L 246.89507 264.641737 
L 247.54568 265.236793 
L 248.196291 255.657969 
L 248.846901 248.59442 
L 249.497511 248.302466 
L 250.148122 245.323183 
L 250.798732 240.715755 
L 251.449342 251.657982 
L 252.099953 243.25744 
L 252.750563 256.358698 
L 253.401173 259.81656 
L 254.051784 258.745167 
L 254.702394 268.759795 
L 255.353004 257.410825 
L 256.654225 267.304813 
L 257.955445 250.98584 
L 259.256666 266.983236 
L 259.907276 257.195271 
L 260.557887 270.196857 
L 261.208497 266.078467 
L 261.859107 257.605228 
L 262.509718 258.325118 
L 263.160328 250.632738 
L 263.810938 265.697702 
L 264.461549 267.023938 
L 265.112159 272.587776 
L 265.762769 265.144885 
L 266.413379 262.287821 
L 267.06399 267.676128 
L 267.7146 267.13412 
L 268.36521 271.632814 
L 269.015821 269.018947 
L 269.666431 276.919274 
L 270.317041 270.261476 
L 270.967652 267.421302 
L 271.618262 261.774317 
L 272.268872 271.835327 
L 272.919483 263.991573 
L 273.570093 272.95638 
L 274.220703 255.805141 
L 274.871314 261.396648 
L 275.521924 265.555074 
L 276.172534 259.27444 
L 276.823144 264.05883 
L 277.473755 261.159496 
L 278.124365 255.915788 
L 278.774975 264.998603 
L 279.425586 261.959295 
L 280.076196 254.538791 
L 280.726806 252.591777 
L 281.377417 271.687163 
L 282.028027 257.771021 
L 282.678637 263.331187 
L 283.329248 281.190904 
L 283.979858 261.167564 
L 284.630468 266.742665 
L 285.281079 279.512064 
L 286.582299 268.348484 
L 287.232909 255.877067 
L 287.88352 263.580424 
L 288.53413 262.65923 
L 289.18474 264.923018 
L 289.835351 260.758512 
L 290.485961 253.265898 
L 291.136571 261.260225 
L 291.787182 256.854436 
L 292.437792 244.380803 
L 293.088402 246.302582 
L 293.739013 245.296219 
L 294.389623 236.352906 
L 295.040233 248.948662 
L 295.690844 244.777838 
L 296.992064 254.400182 
L 297.642674 264.653915 
L 298.293285 255.875536 
L 298.943895 257.102136 
L 299.594505 259.711602 
L 300.245116 266.220165 
L 300.895726 248.419395 
L 301.546336 247.126088 
L 302.196947 249.254856 
L 302.847557 252.952128 
L 303.498167 259.8695 
L 304.148778 263.40574 
L 304.799388 251.892254 
L 305.449998 248.520279 
L 306.100608 249.847375 
L 306.751219 258.183998 
L 307.401829 254.665403 
L 308.052439 254.223625 
L 308.70305 270.352059 
L 309.35366 251.882285 
L 310.00427 242.726722 
L 310.654881 249.719077 
L 311.305491 258.559668 
L 311.956101 253.226221 
L 312.606712 258.631465 
L 313.257322 262.718862 
L 313.907932 245.713054 
L 314.558543 248.675968 
L 315.209153 252.510205 
L 315.859763 251.546018 
L 316.510373 245.688688 
L 317.160984 247.659844 
L 317.811594 252.529716 
L 318.462204 253.810746 
L 319.112815 235.64969 
L 319.763425 259.55164 
L 321.064646 242.391754 
L 321.715256 246.025632 
L 322.365866 243.254734 
L 323.016477 250.011792 
L 323.667087 239.513993 
L 324.317697 255.798092 
L 324.968308 246.370001 
L 325.618918 243.852704 
L 326.269528 246.926458 
L 326.920138 246.48382 
L 327.570749 264.020046 
L 328.221359 250.314957 
L 328.871969 247.834457 
L 329.52258 254.218045 
L 330.17319 248.033361 
L 330.8238 257.059105 
L 331.474411 240.751081 
L 332.125021 243.454777 
L 332.775631 246.7837 
L 333.426242 246.199894 
L 334.076852 250.76191 
L 334.727462 253.732432 
L 335.378073 263.220573 
L 336.679293 246.917486 
L 337.329903 255.135544 
L 337.980514 255.72885 
L 338.631124 242.215165 
L 339.281734 241.217962 
L 339.932345 254.860508 
L 340.582955 261.507564 
L 341.233565 246.919749 
L 341.884176 252.282803 
L 342.534786 250.62797 
L 343.185396 249.783899 
L 343.836007 249.850439 
L 344.486617 249.754909 
L 345.137227 244.510437 
L 345.787837 252.066607 
L 346.438448 254.456044 
L 347.089058 255.793831 
L 347.739668 240.205999 
L 348.390279 256.970504 
L 349.040889 243.645162 
L 349.691499 261.015927 
L 350.34211 252.358758 
L 350.99272 252.389535 
L 351.64333 262.357987 
L 352.293941 252.668878 
L 353.595161 243.621664 
L 354.245772 248.717803 
L 354.896382 245.984309 
L 355.546992 247.421762 
L 356.197602 264.24685 
L 357.498823 248.705537 
L 358.149433 263.521122 
L 358.800044 249.139827 
L 359.450654 254.106737 
L 360.101264 247.392711 
L 360.751875 244.468083 
L 361.402485 251.320209 
L 362.053095 251.459837 
L 362.703706 238.571171 
L 363.354316 246.239919 
L 364.004926 255.483335 
L 364.655537 258.884748 
L 365.306147 262.935209 
L 365.956757 240.394222 
L 366.607367 250.942825 
L 367.257978 251.132464 
L 367.908588 246.362432 
L 368.559198 244.961801 
L 369.209809 240.475926 
L 369.860419 257.942198 
L 370.511029 247.091314 
L 371.16164 252.822414 
L 372.46286 261.869204 
L 373.113471 264.304661 
L 373.764081 248.878379 
L 374.414691 252.742009 
L 375.065302 243.981628 
L 375.715912 257.130375 
L 376.366522 246.887244 
L 377.017132 242.853538 
L 377.667743 255.304177 
L 378.318353 252.270744 
L 378.968963 244.683812 
L 379.619574 249.372168 
L 380.270184 261.309939 
L 380.920794 251.439249 
L 381.571405 250.876159 
L 382.222015 242.038691 
L 382.872625 254.581694 
L 383.523236 261.915768 
L 384.173846 259.485677 
L 385.475066 248.289124 
L 386.125677 250.193914 
L 386.776287 246.792012 
L 387.426897 257.777015 
L 388.077508 263.973695 
L 388.728118 258.511003 
L 389.378728 248.146076 
L 390.029339 252.110949 
L 390.679949 251.515068 
L 391.330559 270.940517 
L 392.63178 257.109869 
L 393.28239 262.304481 
L 393.933001 250.543486 
L 394.583611 253.764853 
L 395.234221 245.883564 
L 395.884831 267.165878 
L 396.535442 257.948828 
L 397.186052 258.933759 
L 397.836662 258.568143 
L 398.487273 272.677393 
L 398.487273 272.677393 
" style="fill:none;stroke:#008000;stroke-dasharray:9.6,2.4,1.5,2.4;stroke-dashoffset:0;stroke-width:1.5;"/>
   </g>
   <g id="line2d_23">
    <path clip-path="url(#pf106045a20)" d="M 73.832727 241.930767 
L 74.483338 231.933674 
L 75.133948 229.181588 
L 75.784558 228.37583 
L 76.435169 225.05379 
L 77.085779 223.473443 
L 77.736389 224.098332 
L 78.386999 229.559215 
L 79.03761 230.384157 
L 79.68822 232.692231 
L 80.33883 231.830355 
L 80.989441 232.857335 
L 81.640051 231.448432 
L 82.290661 233.181863 
L 82.941272 229.258692 
L 83.591882 233.466866 
L 84.242492 229.729275 
L 84.893103 233.823987 
L 85.543713 233.540055 
L 86.194323 231.558506 
L 86.844934 231.832465 
L 87.495544 233.027042 
L 88.146154 229.064149 
L 88.796764 231.176366 
L 89.447375 222.824677 
L 90.097985 228.818034 
L 90.748595 227.223605 
L 91.399206 226.846853 
L 92.049816 225.932837 
L 92.700426 224.272564 
L 93.351037 223.736381 
L 94.652257 217.054992 
L 95.302868 210.106941 
L 95.953478 213.351587 
L 96.604088 217.603555 
L 97.254698 210.893687 
L 97.905309 207.438447 
L 98.555919 213.204022 
L 99.206529 207.201824 
L 99.85714 209.736489 
L 100.50775 211.358493 
L 101.15836 210.097062 
L 101.808971 202.827451 
L 102.459581 199.916462 
L 103.110191 202.123311 
L 103.760802 193.573278 
L 104.411412 203.852491 
L 105.062022 202.046737 
L 105.712633 196.003739 
L 106.363243 192.375613 
L 107.013853 202.247546 
L 107.664463 197.413943 
L 108.315074 206.083608 
L 108.965684 203.13067 
L 109.616294 197.654183 
L 110.266905 198.176634 
L 111.568125 193.075678 
L 112.218736 191.70352 
L 112.869346 192.915283 
L 113.519956 183.376631 
L 114.170567 183.742057 
L 114.821177 184.97615 
L 115.471787 184.94463 
L 116.122398 185.232407 
L 116.773008 198.792698 
L 117.423618 195.298072 
L 118.074228 179.974818 
L 118.724839 186.472389 
L 119.375449 189.673773 
L 120.026059 190.763938 
L 120.67667 196.181444 
L 121.32728 185.856291 
L 121.97789 181.911569 
L 122.628501 179.828929 
L 123.279111 181.420611 
L 123.929721 183.629393 
L 124.580332 178.471622 
L 125.230942 189.282145 
L 125.881552 175.648949 
L 126.532163 189.366244 
L 127.182773 179.640026 
L 127.833383 183.766467 
L 128.483993 177.262185 
L 129.134604 174.893206 
L 129.785214 176.174871 
L 130.435824 174.314486 
L 131.086435 171.889683 
L 131.737045 172.836442 
L 132.387655 174.362018 
L 133.038266 182.661891 
L 133.688876 178.67121 
L 134.339486 178.110813 
L 134.990097 184.074093 
L 135.640707 188.744315 
L 136.291317 178.233485 
L 136.941927 176.949526 
L 137.592538 193.022351 
L 138.243148 197.636908 
L 138.893758 201.421803 
L 139.544369 209.160871 
L 140.194979 192.19408 
L 140.845589 188.711749 
L 141.4962 191.902967 
L 142.14681 184.564152 
L 142.79742 188.811719 
L 143.448031 194.494488 
L 144.098641 190.978378 
L 144.749251 191.072611 
L 145.399862 185.390662 
L 146.050472 185.056789 
L 146.701082 183.046785 
L 147.351692 185.072734 
L 148.002303 176.969924 
L 148.652913 180.614607 
L 149.303523 177.88694 
L 149.954134 177.157094 
L 150.604744 180.141754 
L 151.255354 180.819095 
L 151.905965 184.061328 
L 152.556575 180.976621 
L 153.207185 180.082483 
L 153.857796 187.703834 
L 154.508406 187.845375 
L 155.159016 186.055429 
L 155.809627 184.797619 
L 156.460237 180.038256 
L 157.110847 182.387478 
L 157.761457 179.52539 
L 158.412068 187.995945 
L 159.062678 186.13249 
L 159.713288 183.176025 
L 160.363899 184.371827 
L 161.014509 180.96129 
L 161.665119 174.339296 
L 162.31573 182.139644 
L 162.96634 175.083964 
L 163.61695 184.135047 
L 164.267561 183.838223 
L 164.918171 173.712895 
L 165.568781 181.757471 
L 166.219392 176.276671 
L 166.870002 180.56247 
L 168.171222 165.479926 
L 168.821833 165.932139 
L 169.472443 172.694485 
L 170.123053 173.885104 
L 170.773664 168.079488 
L 171.424274 166.93394 
L 172.074884 187.491608 
L 172.725495 179.968875 
L 173.376105 184.573517 
L 174.026715 167.717692 
L 174.677326 168.239689 
L 175.327936 167.953481 
L 175.978546 166.249047 
L 176.629156 166.213529 
L 177.279767 164.764039 
L 177.930377 171.187474 
L 178.580987 166.369073 
L 179.231598 172.452914 
L 179.882208 171.29845 
L 180.532818 170.524736 
L 181.183429 175.48422 
L 181.834039 173.022811 
L 182.484649 177.840487 
L 183.13526 167.003746 
L 183.78587 168.834 
L 184.43648 178.196771 
L 185.087091 178.41215 
L 185.737701 173.936709 
L 186.388311 188.241873 
L 187.038921 184.979383 
L 187.689532 180.791761 
L 188.340142 181.314465 
L 188.990752 181.665901 
L 189.641363 186.306004 
L 190.291973 180.621967 
L 190.942583 183.333499 
L 191.593194 180.517948 
L 192.243804 179.841036 
L 192.894414 173.843337 
L 193.545025 183.120002 
L 194.195635 185.623082 
L 194.846245 180.943414 
L 195.496856 187.905657 
L 196.147466 189.192534 
L 196.798076 192.727851 
L 198.099297 172.629747 
L 198.749907 190.920285 
L 199.400517 179.483433 
L 200.051128 191.650295 
L 200.701738 189.554151 
L 201.352348 186.767822 
L 202.002959 172.621317 
L 202.653569 179.477763 
L 203.304179 182.670373 
L 203.95479 191.270408 
L 204.6054 192.0135 
L 205.25601 173.569154 
L 205.906621 174.50844 
L 206.557231 173.11279 
L 207.207841 189.501304 
L 207.858451 190.494978 
L 208.509062 180.916919 
L 209.159672 184.954631 
L 209.810282 179.289627 
L 210.460893 188.607958 
L 211.111503 191.702093 
L 211.762113 184.221132 
L 212.412724 189.208034 
L 213.063334 190.594588 
L 213.713944 182.055797 
L 214.364555 198.995966 
L 215.015165 192.831596 
L 215.665775 184.766367 
L 216.316385 197.253838 
L 216.966996 197.428313 
L 217.617606 189.163191 
L 218.918827 177.763893 
L 219.569437 169.456967 
L 220.220047 178.676757 
L 220.870658 177.03193 
L 221.521268 178.35258 
L 222.171878 165.178032 
L 222.822489 160.600335 
L 223.473099 154.421442 
L 224.123709 172.088576 
L 224.77432 166.683909 
L 225.42493 172.792956 
L 226.07554 173.331386 
L 226.72615 167.47126 
L 227.376761 165.252375 
L 228.027371 161.053047 
L 228.677981 162.845189 
L 229.328592 178.627297 
L 229.979202 180.271834 
L 230.629812 183.618029 
L 231.280423 165.977808 
L 231.931033 173.474728 
L 232.581643 164.920162 
L 233.232254 179.177377 
L 233.882864 167.299671 
L 234.533474 162.776621 
L 235.184085 169.81335 
L 235.834695 173.173768 
L 236.485305 169.050045 
L 237.135915 174.939414 
L 237.786526 167.032044 
L 238.437136 170.272889 
L 239.087746 157.477709 
L 239.738357 170.545631 
L 240.388967 168.760801 
L 241.039577 164.926484 
L 241.690188 162.88101 
L 242.340798 162.580808 
L 242.991408 178.29822 
L 243.642019 162.625161 
L 244.943239 163.882758 
L 245.59385 165.443917 
L 246.24446 164.561807 
L 246.89507 171.10973 
L 247.54568 170.66248 
L 248.196291 163.081091 
L 248.846901 158.706449 
L 249.497511 168.937024 
L 250.148122 168.065187 
L 250.798732 160.926358 
L 251.449342 165.755462 
L 252.099953 164.527633 
L 252.750563 161.392897 
L 253.401173 159.048804 
L 254.051784 152.641943 
L 254.702394 166.756549 
L 255.353004 167.034873 
L 256.003615 179.496282 
L 256.654225 167.773372 
L 257.304835 165.661318 
L 257.955445 164.868832 
L 258.606056 158.869974 
L 260.557887 174.738044 
L 261.208497 176.388934 
L 261.859107 165.925909 
L 262.509718 166.832474 
L 263.160328 157.461697 
L 263.810938 174.945616 
L 265.112159 184.461014 
L 265.762769 182.827773 
L 266.413379 176.809122 
L 267.06399 175.366662 
L 267.7146 175.436005 
L 268.36521 179.64091 
L 269.015821 179.958807 
L 269.666431 186.453038 
L 270.317041 173.878343 
L 270.967652 183.231573 
L 272.268872 172.421633 
L 272.919483 174.482003 
L 273.570093 178.227497 
L 274.220703 170.857195 
L 274.871314 172.18874 
L 275.521924 177.413331 
L 276.172534 180.38203 
L 276.823144 178.171586 
L 277.473755 172.03745 
L 278.124365 167.203375 
L 278.774975 168.140359 
L 279.425586 174.426823 
L 280.076196 166.114196 
L 280.726806 169.244337 
L 281.377417 183.944218 
L 282.028027 167.673046 
L 282.678637 190.809922 
L 283.329248 181.249286 
L 283.979858 176.172608 
L 284.630468 174.738046 
L 285.281079 185.155666 
L 285.931689 187.700998 
L 286.582299 176.271382 
L 287.232909 174.011178 
L 287.88352 168.247844 
L 288.53413 178.45846 
L 289.18474 183.996165 
L 289.835351 175.379522 
L 290.485961 159.330203 
L 291.136571 164.563333 
L 291.787182 163.239521 
L 292.437792 157.226863 
L 293.088402 161.11585 
L 293.739013 160.307242 
L 294.389623 162.143093 
L 295.040233 167.053815 
L 295.690844 157.06085 
L 296.341454 161.874124 
L 296.992064 163.945121 
L 297.642674 164.959562 
L 298.293285 160.406341 
L 298.943895 166.144594 
L 299.594505 168.236157 
L 300.245116 166.918797 
L 300.895726 155.300991 
L 301.546336 170.507699 
L 302.196947 175.556648 
L 302.847557 170.758247 
L 303.498167 167.030281 
L 304.148778 172.458514 
L 304.799388 168.049334 
L 305.449998 172.59559 
L 306.100608 168.524256 
L 306.751219 179.730282 
L 307.401829 164.777515 
L 308.052439 171.81798 
L 308.70305 174.291116 
L 309.35366 172.303801 
L 310.00427 160.120904 
L 310.654881 166.585764 
L 311.305491 170.114453 
L 311.956101 179.379279 
L 312.606712 176.061493 
L 313.257322 178.410426 
L 313.907932 166.203417 
L 314.558543 166.951425 
L 315.209153 168.231576 
L 315.859763 156.821775 
L 316.510373 170.66943 
L 317.160984 165.404729 
L 317.811594 166.975286 
L 318.462204 163.927414 
L 319.112815 161.606235 
L 319.763425 168.063136 
L 320.414035 161.89364 
L 321.064646 166.637068 
L 321.715256 161.320103 
L 322.365866 167.223711 
L 323.016477 160.332761 
L 323.667087 161.834107 
L 324.317697 173.687818 
L 324.968308 158.303404 
L 326.269528 167.866066 
L 326.920138 164.891576 
L 327.570749 163.485594 
L 328.221359 172.235954 
L 328.871969 163.803686 
L 329.52258 164.54065 
L 330.17319 167.188252 
L 330.8238 166.10059 
L 331.474411 160.500638 
L 332.125021 166.075586 
L 332.775631 155.913165 
L 333.426242 165.519428 
L 334.076852 164.459704 
L 334.727462 164.937736 
L 335.378073 169.060212 
L 336.028683 176.42245 
L 336.679293 170.333601 
L 337.329903 171.138 
L 337.980514 167.506283 
L 338.631124 166.245404 
L 339.281734 163.164787 
L 339.932345 169.951815 
L 340.582955 158.274256 
L 341.233565 166.19305 
L 341.884176 160.797688 
L 342.534786 175.886858 
L 343.185396 166.886283 
L 343.836007 170.08089 
L 344.486617 172.095819 
L 345.137227 157.479012 
L 345.787837 164.006155 
L 346.438448 169.324616 
L 347.089058 170.435082 
L 347.739668 162.629796 
L 348.390279 168.255982 
L 349.040889 164.861794 
L 349.691499 175.3354 
L 350.34211 169.937019 
L 350.99272 170.230957 
L 351.64333 172.832236 
L 352.293941 178.069507 
L 352.944551 181.428245 
L 353.595161 167.449164 
L 354.245772 174.818852 
L 354.896382 163.013119 
L 355.546992 174.648635 
L 356.197602 174.574754 
L 356.848213 175.500866 
L 357.498823 165.646302 
L 358.149433 175.62508 
L 358.800044 174.443215 
L 359.450654 164.988271 
L 360.101264 157.739521 
L 360.751875 169.153146 
L 361.402485 166.823846 
L 362.053095 160.217691 
L 362.703706 162.175333 
L 364.004926 175.828699 
L 364.655537 175.527471 
L 365.956757 163.752267 
L 366.607367 161.492525 
L 367.257978 173.359162 
L 367.908588 166.470202 
L 368.559198 166.226169 
L 369.209809 164.099652 
L 369.860419 163.437416 
L 370.511029 166.882647 
L 371.16164 166.407704 
L 372.46286 180.454924 
L 373.113471 197.641796 
L 373.764081 173.37101 
L 374.414691 162.259262 
L 375.065302 164.790911 
L 375.715912 176.391287 
L 376.366522 161.329788 
L 377.017132 166.662357 
L 378.318353 167.421684 
L 378.968963 160.622375 
L 379.619574 168.52835 
L 380.270184 167.572928 
L 380.920794 167.273058 
L 381.571405 161.376625 
L 382.222015 163.777765 
L 382.872625 173.454593 
L 383.523236 172.000192 
L 384.173846 176.327367 
L 384.824456 172.978597 
L 385.475066 172.241154 
L 386.125677 173.411034 
L 386.776287 165.075378 
L 387.426897 174.786575 
L 388.077508 177.121146 
L 388.728118 180.043752 
L 390.029339 156.593156 
L 390.679949 161.735058 
L 391.330559 173.22273 
L 391.98117 157.50211 
L 392.63178 167.377739 
L 393.28239 154.679875 
L 393.933001 147.955269 
L 394.583611 148.850834 
L 395.234221 138.271208 
L 395.884831 152.845292 
L 396.535442 151.288739 
L 397.186052 143.612345 
L 397.836662 149.231397 
L 398.487273 160.650284 
L 398.487273 160.650284 
" style="fill:none;stroke:#008000;stroke-dasharray:9.6,2.4,1.5,2.4;stroke-dashoffset:0;stroke-width:1.5;"/>
   </g>
   <g id="line2d_24">
    <path clip-path="url(#pf106045a20)" d="M 73.832727 240.279525 
L 74.483338 146.343913 
L 75.133948 126.629032 
L 75.784558 145.184214 
L 76.435169 107.493999 
L 77.736389 145.184214 
L 78.386999 184.613977 
L 79.03761 147.503612 
L 79.68822 185.193827 
L 80.33883 164.899096 
L 80.989441 126.049182 
L 81.640051 184.034128 
L 82.290661 166.058795 
L 82.941272 184.034128 
L 83.591882 147.503612 
L 84.242492 145.764064 
L 84.893103 184.613977 
L 85.543713 185.773676 
L 86.194323 184.613977 
L 86.844934 202.009461 
L 87.495544 211.866902 
L 88.146154 184.613977 
L 88.796764 206.648257 
L 89.447375 128.36858 
L 90.097985 203.749009 
L 90.748595 186.933375 
L 91.399206 184.034128 
L 92.049816 184.613977 
L 92.700426 204.908708 
L 93.351037 185.773676 
L 94.001647 184.034128 
L 94.652257 192.73187 
L 95.302868 126.629032 
L 95.953478 144.604365 
L 96.604088 192.73187 
L 97.254698 166.058795 
L 97.905309 106.334301 
L 98.555919 185.773676 
L 99.206529 147.503612 
L 99.85714 174.756536 
L 100.50775 164.899096 
L 101.15836 165.478945 
L 101.808971 146.923763 
L 103.110191 145.764064 
L 103.760802 105.754451 
L 104.411412 168.958042 
L 105.062022 166.058795 
L 105.712633 160.2603 
L 106.363243 126.049182 
L 107.013853 161.419999 
L 107.664463 134.167074 
L 108.315074 164.899096 
L 108.965684 164.899096 
L 109.616294 107.493999 
L 110.266905 161.419999 
L 110.917515 127.208881 
L 111.568125 145.764064 
L 112.218736 146.923763 
L 113.519956 106.334301 
L 114.170567 156.781203 
L 114.821177 145.764064 
L 115.471787 146.923763 
L 116.122398 145.184214 
L 116.773008 146.343913 
L 117.423618 127.208881 
L 118.074228 126.629032 
L 118.724839 124.889483 
L 119.375449 146.343913 
L 120.026059 127.208881 
L 120.67667 157.940902 
L 121.32728 161.419999 
L 121.97789 106.334301 
L 122.628501 127.78873 
L 123.279111 126.049182 
L 123.929721 145.764064 
L 124.580332 108.073849 
L 125.230942 106.91415 
L 125.881552 125.469333 
L 126.532163 126.629032 
L 127.182773 124.309634 
L 127.833383 127.208881 
L 128.483993 126.629032 
L 129.134604 145.184214 
L 129.785214 147.503612 
L 130.435824 145.184214 
L 131.086435 135.326773 
L 131.737045 127.208881 
L 132.387655 146.923763 
L 133.038266 121.410386 
L 133.688876 144.604365 
L 134.339486 131.847677 
L 134.990097 126.629032 
L 135.640707 148.083461 
L 136.291317 145.184214 
L 136.941927 105.754451 
L 137.592538 127.78873 
L 138.243148 145.184214 
L 138.893758 128.36858 
L 139.544369 166.638644 
L 140.194979 87.779118 
L 142.14681 145.764064 
L 142.79742 145.764064 
L 143.448031 152.722257 
L 144.098641 144.024515 
L 145.399862 108.073849 
L 146.050472 128.36858 
L 146.701082 108.653698 
L 147.351692 126.049182 
L 148.002303 106.334301 
L 148.652913 124.309634 
L 149.954134 145.184214 
L 150.604744 109.813397 
L 151.255354 137.646171 
L 151.905965 144.024515 
L 152.556575 145.184214 
L 153.207185 109.233548 
L 153.857796 88.938817 
L 154.508406 145.764064 
L 155.159016 87.779118 
L 155.809627 127.208881 
L 156.460237 107.493999 
L 157.110847 126.629032 
L 157.761457 128.948429 
L 158.412068 146.343913 
L 159.713288 107.493999 
L 160.363899 119.090989 
L 161.014509 127.78873 
L 161.665119 123.729784 
L 162.31573 148.663311 
L 162.96634 135.326773 
L 163.61695 126.049182 
L 164.267561 147.503612 
L 164.918171 139.965569 
L 165.568781 89.518666 
L 166.219392 139.38572 
L 166.870002 141.125268 
L 167.520612 108.073849 
L 168.171222 127.78873 
L 168.821833 123.729784 
L 169.472443 124.309634 
L 170.123053 136.486472 
L 170.773664 137.066322 
L 171.424274 106.91415 
L 172.074884 134.167074 
L 172.725495 138.226021 
L 173.376105 127.78873 
L 174.026715 109.813397 
L 174.677326 127.78873 
L 175.327936 106.334301 
L 175.978546 106.334301 
L 176.629156 128.36858 
L 177.279767 144.024515 
L 177.930377 97.636559 
L 178.580987 107.493999 
L 179.231598 127.78873 
L 179.882208 118.511139 
L 180.532818 124.889483 
L 181.183429 128.948429 
L 181.834039 107.493999 
L 182.484649 143.444666 
L 183.13526 139.965569 
L 183.78587 128.948429 
L 184.43648 106.91415 
L 185.087091 106.91415 
L 185.737701 108.073849 
L 186.388311 124.309634 
L 187.038921 145.764064 
L 188.340142 107.493999 
L 188.990752 145.184214 
L 189.641363 112.712645 
L 190.291973 117.93129 
L 190.942583 142.284967 
L 191.593194 151.562558 
L 192.243804 130.108128 
L 192.894414 133.007376 
L 193.545025 125.469333 
L 194.195635 126.049182 
L 194.846245 127.78873 
L 195.496856 146.343913 
L 196.798076 105.174602 
L 197.448686 127.208881 
L 198.099297 128.948429 
L 198.749907 146.343913 
L 199.400517 143.444666 
L 200.051128 127.208881 
L 200.701738 108.073849 
L 201.352348 130.108128 
L 202.002959 140.545419 
L 202.653569 131.847677 
L 203.304179 135.906623 
L 203.95479 148.083461 
L 204.6054 138.80587 
L 205.25601 108.653698 
L 206.557231 143.444666 
L 207.207841 127.78873 
L 207.858451 108.653698 
L 208.509062 145.184214 
L 209.159672 147.503612 
L 209.810282 145.764064 
L 210.460893 134.167074 
L 211.111503 145.184214 
L 211.762113 107.493999 
L 212.412724 142.864816 
L 213.063334 147.503612 
L 213.713944 89.518666 
L 214.364555 126.629032 
L 215.015165 107.493999 
L 215.665775 127.208881 
L 216.316385 141.125268 
L 216.966996 126.629032 
L 217.617606 119.670838 
L 218.268216 126.629032 
L 218.918827 122.570085 
L 219.569437 126.629032 
L 220.220047 106.334301 
L 220.870658 106.334301 
L 221.521268 145.184214 
L 222.171878 141.705117 
L 222.822489 131.267827 
L 223.473099 87.779118 
L 224.123709 140.545419 
L 224.77432 126.049182 
L 225.42493 152.722257 
L 226.07554 105.754451 
L 226.72615 108.073849 
L 227.376761 138.80587 
L 228.027371 108.653698 
L 228.677981 127.78873 
L 229.328592 128.36858 
L 229.979202 127.208881 
L 230.629812 142.864816 
L 231.280423 111.552946 
L 231.931033 141.125268 
L 232.581643 126.049182 
L 233.232254 145.764064 
L 233.882864 125.469333 
L 234.533474 136.486472 
L 235.184085 143.444666 
L 235.834695 139.965569 
L 236.485305 129.528279 
L 237.135915 126.629032 
L 237.786526 142.284967 
L 238.437136 150.402859 
L 239.087746 88.358967 
L 239.738357 123.729784 
L 240.388967 144.024515 
L 241.039577 137.646171 
L 241.690188 133.587225 
L 242.340798 145.184214 
L 242.991408 138.226021 
L 243.642019 109.813397 
L 244.292629 128.36858 
L 244.943239 111.552946 
L 245.59385 131.847677 
L 246.24446 126.049182 
L 246.89507 138.80587 
L 247.54568 127.208881 
L 248.196291 127.208881 
L 248.846901 107.493999 
L 249.497511 145.184214 
L 250.148122 134.167074 
L 250.798732 125.469333 
L 251.449342 145.184214 
L 252.099953 124.889483 
L 252.750563 124.309634 
L 253.401173 133.007376 
L 254.051784 88.938817 
L 254.702394 106.91415 
L 255.353004 83.140322 
L 256.003615 148.083461 
L 256.654225 126.629032 
L 257.304835 127.208881 
L 257.955445 122.570085 
L 258.606056 89.518666 
L 259.256666 127.208881 
L 259.907276 126.049182 
L 260.557887 125.469333 
L 261.208497 133.007376 
L 261.859107 126.629032 
L 262.509718 111.552946 
L 263.160328 137.646171 
L 263.810938 129.528279 
L 264.461549 132.427526 
L 265.112159 130.687978 
L 265.762769 146.343913 
L 266.413379 121.410386 
L 267.06399 144.024515 
L 268.36521 109.233548 
L 269.015821 135.906623 
L 269.666431 87.199268 
L 270.317041 108.073849 
L 270.967652 149.82301 
L 271.618262 145.184214 
L 272.268872 107.493999 
L 272.919483 132.427526 
L 273.570093 127.78873 
L 274.220703 121.990236 
L 274.871314 120.250688 
L 275.521924 140.545419 
L 276.172534 144.604365 
L 276.823144 142.864816 
L 277.473755 127.208881 
L 278.124365 133.587225 
L 278.774975 144.024515 
L 279.425586 145.184214 
L 280.076196 141.705117 
L 280.726806 126.629032 
L 281.377417 127.208881 
L 282.028027 134.746924 
L 282.678637 147.503612 
L 283.329248 144.024515 
L 283.979858 136.486472 
L 284.630468 126.049182 
L 285.281079 119.670838 
L 285.931689 144.024515 
L 286.582299 130.687978 
L 287.232909 127.208881 
L 287.88352 127.78873 
L 288.53413 137.066322 
L 289.18474 139.965569 
L 289.835351 135.906623 
L 290.485961 109.813397 
L 291.136571 135.906623 
L 291.787182 108.653698 
L 292.437792 133.587225 
L 293.088402 130.108128 
L 293.739013 120.830537 
L 294.389623 117.93129 
L 295.040233 139.38572 
L 295.690844 133.587225 
L 296.341454 117.93129 
L 296.992064 107.493999 
L 297.642674 86.619419 
L 298.293285 125.469333 
L 298.943895 132.427526 
L 299.594505 119.670838 
L 300.245116 126.049182 
L 300.895726 106.334301 
L 301.546336 144.024515 
L 302.196947 141.705117 
L 302.847557 123.149935 
L 303.498167 119.090989 
L 304.148778 119.090989 
L 304.799388 146.923763 
L 305.449998 143.444666 
L 306.100608 138.80587 
L 306.751219 129.528279 
L 307.401829 135.326773 
L 308.052439 127.208881 
L 308.70305 133.007376 
L 309.35366 141.705117 
L 310.00427 108.653698 
L 310.654881 107.493999 
L 311.305491 127.208881 
L 311.956101 155.041655 
L 312.606712 119.670838 
L 313.907932 142.864816 
L 314.558543 130.108128 
L 315.209153 141.125268 
L 315.859763 119.670838 
L 316.510373 148.083461 
L 317.160984 145.764064 
L 317.811594 123.729784 
L 318.462204 135.906623 
L 319.112815 137.646171 
L 319.763425 121.990236 
L 320.414035 128.36858 
L 321.064646 138.80587 
L 321.715256 116.771591 
L 322.365866 137.066322 
L 323.016477 119.090989 
L 323.667087 126.049182 
L 324.317697 128.948429 
L 324.968308 93.577613 
L 325.618918 112.132795 
L 326.269528 122.570085 
L 326.920138 121.990236 
L 327.570749 104.014903 
L 328.221359 134.746924 
L 328.871969 123.729784 
L 329.52258 136.486472 
L 330.17319 117.93129 
L 330.8238 136.486472 
L 331.474411 107.493999 
L 332.125021 135.906623 
L 332.775631 108.073849 
L 333.426242 135.906623 
L 334.076852 128.36858 
L 334.727462 126.629032 
L 335.378073 126.049182 
L 336.028683 133.587225 
L 336.679293 108.653698 
L 337.329903 136.486472 
L 337.980514 125.469333 
L 338.631124 128.36858 
L 339.281734 87.199268 
L 339.932345 134.167074 
L 340.582955 122.570085 
L 341.233565 123.729784 
L 341.884176 129.528279 
L 342.534786 144.604365 
L 343.185396 109.233548 
L 343.836007 88.938817 
L 344.486617 135.906623 
L 345.137227 124.889483 
L 345.787837 124.889483 
L 346.438448 106.91415 
L 347.089058 141.125268 
L 347.739668 127.208881 
L 348.390279 138.226021 
L 349.040889 124.889483 
L 349.691499 137.066322 
L 350.34211 127.208881 
L 350.99272 129.528279 
L 351.64333 139.965569 
L 352.293941 147.503612 
L 352.944551 139.965569 
L 353.595161 130.108128 
L 354.245772 130.687978 
L 354.896382 125.469333 
L 355.546992 127.208881 
L 356.197602 120.250688 
L 356.848213 138.226021 
L 357.498823 141.705117 
L 358.149433 124.889483 
L 358.800044 135.906623 
L 359.450654 130.108128 
L 360.101264 128.36858 
L 360.751875 140.545419 
L 361.402485 127.208881 
L 362.053095 87.199268 
L 362.703706 88.938817 
L 363.354316 108.073849 
L 364.004926 138.80587 
L 364.655537 142.864816 
L 365.306147 119.670838 
L 365.956757 144.604365 
L 366.607367 130.687978 
L 367.257978 148.663311 
L 367.908588 133.587225 
L 368.559198 126.049182 
L 369.209809 140.545419 
L 369.860419 138.80587 
L 370.511029 145.184214 
L 371.16164 144.024515 
L 371.81225 144.604365 
L 372.46286 146.343913 
L 373.113471 119.090989 
L 373.764081 121.990236 
L 374.414691 138.80587 
L 375.065302 125.469333 
L 375.715912 135.906623 
L 376.366522 134.746924 
L 377.017132 126.049182 
L 377.667743 126.049182 
L 378.318353 142.284967 
L 378.968963 107.493999 
L 379.619574 130.108128 
L 380.270184 139.965569 
L 380.920794 134.746924 
L 381.571405 128.36858 
L 382.222015 130.687978 
L 382.872625 124.889483 
L 383.523236 97.056709 
L 384.173846 127.208881 
L 384.824456 134.167074 
L 385.475066 127.208881 
L 386.125677 151.562558 
L 386.776287 117.35144 
L 387.426897 111.552946 
L 388.077508 120.250688 
L 388.728118 107.493999 
L 389.378728 131.847677 
L 390.029339 93.577613 
L 390.679949 97.636559 
L 391.330559 119.670838 
L 391.98117 92.997763 
L 392.63178 127.78873 
L 393.28239 93.577613 
L 393.933001 91.258215 
L 394.583611 92.997763 
L 395.234221 85.45972 
L 395.884831 91.258215 
L 397.186052 53.568 
L 397.836662 70.383634 
L 398.487273 75.02243 
L 398.487273 75.02243 
" style="fill:none;stroke:#ff0000;stroke-linecap:square;stroke-width:1.5;"/>
   </g>
   <g id="patch_3">
    <path d="M 57.6 307.584 
L 57.6 41.472 
" style="fill:none;stroke:#000000;stroke-linecap:square;stroke-linejoin:miter;stroke-width:0.8;"/>
   </g>
   <g id="patch_4">
    <path d="M 414.72 307.584 
L 414.72 41.472 
" style="fill:none;stroke:#000000;stroke-linecap:square;stroke-linejoin:miter;stroke-width:0.8;"/>
   </g>
   <g id="patch_5">
    <path d="M 57.6 307.584 
L 414.72 307.584 
" style="fill:none;stroke:#000000;stroke-linecap:square;stroke-linejoin:miter;stroke-width:0.8;"/>
   </g>
   <g id="patch_6">
    <path d="M 57.6 41.472 
L 414.72 41.472 
" style="fill:none;stroke:#000000;stroke-linecap:square;stroke-linejoin:miter;stroke-width:0.8;"/>
   </g>
   <g id="text_13">
    <!-- Population's average and best fitness -->
    <g transform="translate(123.529687 35.472)scale(0.12 -0.12)">
     <defs>
      <path d="M 19.671875 64.796875 
L 19.671875 37.40625 
L 32.078125 37.40625 
Q 38.96875 37.40625 42.71875 40.96875 
Q 46.484375 44.53125 46.484375 51.125 
Q 46.484375 57.671875 42.71875 61.234375 
Q 38.96875 64.796875 32.078125 64.796875 
z
M 9.8125 72.90625 
L 32.078125 72.90625 
Q 44.34375 72.90625 50.609375 67.359375 
Q 56.890625 61.8125 56.890625 51.125 
Q 56.890625 40.328125 50.609375 34.8125 
Q 44.34375 29.296875 32.078125 29.296875 
L 19.671875 29.296875 
L 19.671875 0 
L 9.8125 0 
z
" id="DejaVuSans-80"/>
      <path d="M 18.109375 8.203125 
L 18.109375 -20.796875 
L 9.078125 -20.796875 
L 9.078125 54.6875 
L 18.109375 54.6875 
L 18.109375 46.390625 
Q 20.953125 51.265625 25.265625 53.625 
Q 29.59375 56 35.59375 56 
Q 45.5625 56 51.78125 48.09375 
Q 58.015625 40.1875 58.015625 27.296875 
Q 58.015625 14.40625 51.78125 6.484375 
Q 45.5625 -1.421875 35.59375 -1.421875 
Q 29.59375 -1.421875 25.265625 0.953125 
Q 20.953125 3.328125 18.109375 8.203125 
z
M 48.6875 27.296875 
Q 48.6875 37.203125 44.609375 42.84375 
Q 40.53125 48.484375 33.40625 48.484375 
Q 26.265625 48.484375 22.1875 42.84375 
Q 18.109375 37.203125 18.109375 27.296875 
Q 18.109375 17.390625 22.1875 11.75 
Q 26.265625 6.109375 33.40625 6.109375 
Q 40.53125 6.109375 44.609375 11.75 
Q 48.6875 17.390625 48.6875 27.296875 
z
" id="DejaVuSans-112"/>
      <path d="M 8.5 21.578125 
L 8.5 54.6875 
L 17.484375 54.6875 
L 17.484375 21.921875 
Q 17.484375 14.15625 20.5 10.265625 
Q 23.53125 6.390625 29.59375 6.390625 
Q 36.859375 6.390625 41.078125 11.03125 
Q 45.3125 15.671875 45.3125 23.6875 
L 45.3125 54.6875 
L 54.296875 54.6875 
L 54.296875 0 
L 45.3125 0 
L 45.3125 8.40625 
Q 42.046875 3.421875 37.71875 1 
Q 33.40625 -1.421875 27.6875 -1.421875 
Q 18.265625 -1.421875 13.375 4.4375 
Q 8.5 10.296875 8.5 21.578125 
z
M 31.109375 56 
z
" id="DejaVuSans-117"/>
      <path d="M 9.421875 75.984375 
L 18.40625 75.984375 
L 18.40625 0 
L 9.421875 0 
z
" id="DejaVuSans-108"/>
      <path d="M 17.921875 72.90625 
L 17.921875 45.796875 
L 9.625 45.796875 
L 9.625 72.90625 
z
" id="DejaVuSans-39"/>
      <path id="DejaVuSans-32"/>
      <path d="M 2.984375 54.6875 
L 12.5 54.6875 
L 29.59375 8.796875 
L 46.6875 54.6875 
L 56.203125 54.6875 
L 35.6875 0 
L 23.484375 0 
z
" id="DejaVuSans-118"/>
      <path d="M 45.40625 27.984375 
Q 45.40625 37.75 41.375 43.109375 
Q 37.359375 48.484375 30.078125 48.484375 
Q 22.859375 48.484375 18.828125 43.109375 
Q 14.796875 37.75 14.796875 27.984375 
Q 14.796875 18.265625 18.828125 12.890625 
Q 22.859375 7.515625 30.078125 7.515625 
Q 37.359375 7.515625 41.375 12.890625 
Q 45.40625 18.265625 45.40625 27.984375 
z
M 54.390625 6.78125 
Q 54.390625 -7.171875 48.1875 -13.984375 
Q 42 -20.796875 29.203125 -20.796875 
Q 24.46875 -20.796875 20.265625 -20.09375 
Q 16.0625 -19.390625 12.109375 -17.921875 
L 12.109375 -9.1875 
Q 16.0625 -11.328125 19.921875 -12.34375 
Q 23.78125 -13.375 27.78125 -13.375 
Q 36.625 -13.375 41.015625 -8.765625 
Q 45.40625 -4.15625 45.40625 5.171875 
L 45.40625 9.625 
Q 42.625 4.78125 38.28125 2.390625 
Q 33.9375 0 27.875 0 
Q 17.828125 0 11.671875 7.65625 
Q 5.515625 15.328125 5.515625 27.984375 
Q 5.515625 40.671875 11.671875 48.328125 
Q 17.828125 56 27.875 56 
Q 33.9375 56 38.28125 53.609375 
Q 42.625 51.21875 45.40625 46.390625 
L 45.40625 54.6875 
L 54.390625 54.6875 
z
" id="DejaVuSans-103"/>
      <path d="M 45.40625 46.390625 
L 45.40625 75.984375 
L 54.390625 75.984375 
L 54.390625 0 
L 45.40625 0 
L 45.40625 8.203125 
Q 42.578125 3.328125 38.25 0.953125 
Q 33.9375 -1.421875 27.875 -1.421875 
Q 17.96875 -1.421875 11.734375 6.484375 
Q 5.515625 14.40625 5.515625 27.296875 
Q 5.515625 40.1875 11.734375 48.09375 
Q 17.96875 56 27.875 56 
Q 33.9375 56 38.25 53.625 
Q 42.578125 51.265625 45.40625 46.390625 
z
M 14.796875 27.296875 
Q 14.796875 17.390625 18.875 11.75 
Q 22.953125 6.109375 30.078125 6.109375 
Q 37.203125 6.109375 41.296875 11.75 
Q 45.40625 17.390625 45.40625 27.296875 
Q 45.40625 37.203125 41.296875 42.84375 
Q 37.203125 48.484375 30.078125 48.484375 
Q 22.953125 48.484375 18.875 42.84375 
Q 14.796875 37.203125 14.796875 27.296875 
z
" id="DejaVuSans-100"/>
      <path d="M 48.6875 27.296875 
Q 48.6875 37.203125 44.609375 42.84375 
Q 40.53125 48.484375 33.40625 48.484375 
Q 26.265625 48.484375 22.1875 42.84375 
Q 18.109375 37.203125 18.109375 27.296875 
Q 18.109375 17.390625 22.1875 11.75 
Q 26.265625 6.109375 33.40625 6.109375 
Q 40.53125 6.109375 44.609375 11.75 
Q 48.6875 17.390625 48.6875 27.296875 
z
M 18.109375 46.390625 
Q 20.953125 51.265625 25.265625 53.625 
Q 29.59375 56 35.59375 56 
Q 45.5625 56 51.78125 48.09375 
Q 58.015625 40.1875 58.015625 27.296875 
Q 58.015625 14.40625 51.78125 6.484375 
Q 45.5625 -1.421875 35.59375 -1.421875 
Q 29.59375 -1.421875 25.265625 0.953125 
Q 20.953125 3.328125 18.109375 8.203125 
L 18.109375 0 
L 9.078125 0 
L 9.078125 75.984375 
L 18.109375 75.984375 
z
" id="DejaVuSans-98"/>
      <path d="M 37.109375 75.984375 
L 37.109375 68.5 
L 28.515625 68.5 
Q 23.6875 68.5 21.796875 66.546875 
Q 19.921875 64.59375 19.921875 59.515625 
L 19.921875 54.6875 
L 34.71875 54.6875 
L 34.71875 47.703125 
L 19.921875 47.703125 
L 19.921875 0 
L 10.890625 0 
L 10.890625 47.703125 
L 2.296875 47.703125 
L 2.296875 54.6875 
L 10.890625 54.6875 
L 10.890625 58.5 
Q 10.890625 67.625 15.140625 71.796875 
Q 19.390625 75.984375 28.609375 75.984375 
z
" id="DejaVuSans-102"/>
     </defs>
     <use xlink:href="#DejaVuSans-80"/>
     <use x="56.677734" xlink:href="#DejaVuSans-111"/>
     <use x="117.859375" xlink:href="#DejaVuSans-112"/>
     <use x="181.335938" xlink:href="#DejaVuSans-117"/>
     <use x="244.714844" xlink:href="#DejaVuSans-108"/>
     <use x="272.498047" xlink:href="#DejaVuSans-97"/>
     <use x="333.777344" xlink:href="#DejaVuSans-116"/>
     <use x="372.986328" xlink:href="#DejaVuSans-105"/>
     <use x="400.769531" xlink:href="#DejaVuSans-111"/>
     <use x="461.951172" xlink:href="#DejaVuSans-110"/>
     <use x="525.330078" xlink:href="#DejaVuSans-39"/>
     <use x="552.820312" xlink:href="#DejaVuSans-115"/>
     <use x="604.919922" xlink:href="#DejaVuSans-32"/>
     <use x="636.707031" xlink:href="#DejaVuSans-97"/>
     <use x="697.986328" xlink:href="#DejaVuSans-118"/>
     <use x="757.166016" xlink:href="#DejaVuSans-101"/>
     <use x="818.689453" xlink:href="#DejaVuSans-114"/>
     <use x="859.802734" xlink:href="#DejaVuSans-97"/>
     <use x="921.082031" xlink:href="#DejaVuSans-103"/>
     <use x="984.558594" xlink:href="#DejaVuSans-101"/>
     <use x="1046.082031" xlink:href="#DejaVuSans-32"/>
     <use x="1077.869141" xlink:href="#DejaVuSans-97"/>
     <use x="1139.148438" xlink:href="#DejaVuSans-110"/>
     <use x="1202.527344" xlink:href="#DejaVuSans-100"/>
     <use x="1266.003906" xlink:href="#DejaVuSans-32"/>
     <use x="1297.791016" xlink:href="#DejaVuSans-98"/>
     <use x="1361.267578" xlink:href="#DejaVuSans-101"/>
     <use x="1422.791016" xlink:href="#DejaVuSans-115"/>
     <use x="1474.890625" xlink:href="#DejaVuSans-116"/>
     <use x="1514.099609" xlink:href="#DejaVuSans-32"/>
     <use x="1545.886719" xlink:href="#DejaVuSans-102"/>
     <use x="1581.091797" xlink:href="#DejaVuSans-105"/>
     <use x="1608.875" xlink:href="#DejaVuSans-116"/>
     <use x="1648.083984" xlink:href="#DejaVuSans-110"/>
     <use x="1711.462891" xlink:href="#DejaVuSans-101"/>
     <use x="1772.986328" xlink:href="#DejaVuSans-115"/>
     <use x="1825.085938" xlink:href="#DejaVuSans-115"/>
    </g>
   </g>
   <g id="legend_1">
    <g id="patch_7">
     <path d="M 64.6 108.1845 
L 137.540625 108.1845 
Q 139.540625 108.1845 139.540625 106.1845 
L 139.540625 48.472 
Q 139.540625 46.472 137.540625 46.472 
L 64.6 46.472 
Q 62.6 46.472 62.6 48.472 
L 62.6 106.1845 
Q 62.6 108.1845 64.6 108.1845 
z
" style="fill:#ffffff;opacity:0.8;stroke:#cccccc;stroke-linejoin:miter;"/>
    </g>
    <g id="line2d_25">
     <path d="M 66.6 54.570438 
L 86.6 54.570438 
" style="fill:none;stroke:#0000ff;stroke-linecap:square;stroke-width:1.5;"/>
    </g>
    <g id="line2d_26"/>
    <g id="text_14">
     <!-- average -->
     <g transform="translate(94.6 58.070438)scale(0.1 -0.1)">
      <use xlink:href="#DejaVuSans-97"/>
      <use x="61.279297" xlink:href="#DejaVuSans-118"/>
      <use x="120.458984" xlink:href="#DejaVuSans-101"/>
      <use x="181.982422" xlink:href="#DejaVuSans-114"/>
      <use x="223.095703" xlink:href="#DejaVuSans-97"/>
      <use x="284.375" xlink:href="#DejaVuSans-103"/>
      <use x="347.851562" xlink:href="#DejaVuSans-101"/>
     </g>
    </g>
    <g id="line2d_27">
     <path d="M 66.6 69.248563 
L 86.6 69.248563 
" style="fill:none;stroke:#008000;stroke-dasharray:9.6,2.4,1.5,2.4;stroke-dashoffset:0;stroke-width:1.5;"/>
    </g>
    <g id="line2d_28"/>
    <g id="text_15">
     <!-- -1 sd -->
     <g transform="translate(94.6 72.748563)scale(0.1 -0.1)">
      <defs>
       <path d="M 4.890625 31.390625 
L 31.203125 31.390625 
L 31.203125 23.390625 
L 4.890625 23.390625 
z
" id="DejaVuSans-45"/>
      </defs>
      <use xlink:href="#DejaVuSans-45"/>
      <use x="36.083984" xlink:href="#DejaVuSans-49"/>
      <use x="99.707031" xlink:href="#DejaVuSans-32"/>
      <use x="131.494141" xlink:href="#DejaVuSans-115"/>
      <use x="183.59375" xlink:href="#DejaVuSans-100"/>
     </g>
    </g>
    <g id="line2d_29">
     <path d="M 66.6 83.926688 
L 86.6 83.926688 
" style="fill:none;stroke:#008000;stroke-dasharray:9.6,2.4,1.5,2.4;stroke-dashoffset:0;stroke-width:1.5;"/>
    </g>
    <g id="line2d_30"/>
    <g id="text_16">
     <!-- +1 sd -->
     <g transform="translate(94.6 87.426688)scale(0.1 -0.1)">
      <defs>
       <path d="M 46 62.703125 
L 46 35.5 
L 73.1875 35.5 
L 73.1875 27.203125 
L 46 27.203125 
L 46 0 
L 37.796875 0 
L 37.796875 27.203125 
L 10.59375 27.203125 
L 10.59375 35.5 
L 37.796875 35.5 
L 37.796875 62.703125 
z
" id="DejaVuSans-43"/>
      </defs>
      <use xlink:href="#DejaVuSans-43"/>
      <use x="83.789062" xlink:href="#DejaVuSans-49"/>
      <use x="147.412109" xlink:href="#DejaVuSans-32"/>
      <use x="179.199219" xlink:href="#DejaVuSans-115"/>
      <use x="231.298828" xlink:href="#DejaVuSans-100"/>
     </g>
    </g>
    <g id="line2d_31">
     <path d="M 66.6 98.604813 
L 86.6 98.604813 
" style="fill:none;stroke:#ff0000;stroke-linecap:square;stroke-width:1.5;"/>
    </g>
    <g id="line2d_32"/>
    <g id="text_17">
     <!-- best -->
     <g transform="translate(94.6 102.104813)scale(0.1 -0.1)">
      <use xlink:href="#DejaVuSans-98"/>
      <use x="63.476562" xlink:href="#DejaVuSans-101"/>
      <use x="125" xlink:href="#DejaVuSans-115"/>
      <use x="177.099609" xlink:href="#DejaVuSans-116"/>
     </g>
    </g>
   </g>
  </g>
 </g>
 <defs>
  <clipPath id="pf106045a20">
   <rect height="266.112" width="357.12" x="57.6" y="41.472"/>
  </clipPath>
 </defs>
</svg>
