<?xml version="1.0" encoding="utf-8" standalone="no"?>
<!DOCTYPE svg PUBLIC "-//W3C//DTD SVG 1.1//EN"
  "http://www.w3.org/Graphics/SVG/1.1/DTD/svg11.dtd">
<!-- Created with matplotlib (https://matplotlib.org/) -->
<svg height="345.6pt" version="1.1" viewBox="0 0 460.8 345.6" width="460.8pt" xmlns="http://www.w3.org/2000/svg" xmlns:xlink="http://www.w3.org/1999/xlink">
 <metadata>
  <rdf:RDF xmlns:cc="http://creativecommons.org/ns#" xmlns:dc="http://purl.org/dc/elements/1.1/" xmlns:rdf="http://www.w3.org/1999/02/22-rdf-syntax-ns#">
   <cc:Work>
    <dc:type rdf:resource="http://purl.org/dc/dcmitype/StillImage"/>
    <dc:date>2021-06-15T23:10:22.359757</dc:date>
    <dc:format>image/svg+xml</dc:format>
    <dc:creator>
     <cc:Agent>
      <dc:title>Matplotlib v3.3.0, https://matplotlib.org/</dc:title>
     </cc:Agent>
    </dc:creator>
   </cc:Work>
  </rdf:RDF>
 </metadata>
 <defs>
  <style type="text/css">*{stroke-linecap:butt;stroke-linejoin:round;}</style>
 </defs>
 <g id="figure_1">
  <g id="patch_1">
   <path d="M 0 345.6 
L 460.8 345.6 
L 460.8 0 
L 0 0 
z
" style="fill:#ffffff;"/>
  </g>
  <g id="axes_1">
   <g id="patch_2">
    <path d="M 57.6 307.584 
L 414.72 307.584 
L 414.72 41.472 
L 57.6 41.472 
z
" style="fill:#ffffff;"/>
   </g>
   <g id="matplotlib.axis_1">
    <g id="xtick_1">
     <g id="line2d_1">
      <path clip-path="url(#p68dcd8c0a6)" d="M 73.832727 307.584 
L 73.832727 41.472 
" style="fill:none;stroke:#b0b0b0;stroke-linecap:square;stroke-width:0.8;"/>
     </g>
     <g id="line2d_2">
      <defs>
       <path d="M 0 0 
L 0 3.5 
" id="m1f309628c7" style="stroke:#000000;stroke-width:0.8;"/>
      </defs>
      <g>
       <use style="stroke:#000000;stroke-width:0.8;" x="73.832727" xlink:href="#m1f309628c7" y="307.584"/>
      </g>
     </g>
     <g id="text_1">
      <!-- 0 -->
      <g transform="translate(70.651477 322.182437)scale(0.1 -0.1)">
       <defs>
        <path d="M 31.78125 66.40625 
Q 24.171875 66.40625 20.328125 58.90625 
Q 16.5 51.421875 16.5 36.375 
Q 16.5 21.390625 20.328125 13.890625 
Q 24.171875 6.390625 31.78125 6.390625 
Q 39.453125 6.390625 43.28125 13.890625 
Q 47.125 21.390625 47.125 36.375 
Q 47.125 51.421875 43.28125 58.90625 
Q 39.453125 66.40625 31.78125 66.40625 
z
M 31.78125 74.21875 
Q 44.046875 74.21875 50.515625 64.515625 
Q 56.984375 54.828125 56.984375 36.375 
Q 56.984375 17.96875 50.515625 8.265625 
Q 44.046875 -1.421875 31.78125 -1.421875 
Q 19.53125 -1.421875 13.0625 8.265625 
Q 6.59375 17.96875 6.59375 36.375 
Q 6.59375 54.828125 13.0625 64.515625 
Q 19.53125 74.21875 31.78125 74.21875 
z
" id="DejaVuSans-48"/>
       </defs>
       <use xlink:href="#DejaVuSans-48"/>
      </g>
     </g>
    </g>
    <g id="xtick_2">
     <g id="line2d_3">
      <path clip-path="url(#p68dcd8c0a6)" d="M 138.893758 307.584 
L 138.893758 41.472 
" style="fill:none;stroke:#b0b0b0;stroke-linecap:square;stroke-width:0.8;"/>
     </g>
     <g id="line2d_4">
      <g>
       <use style="stroke:#000000;stroke-width:0.8;" x="138.893758" xlink:href="#m1f309628c7" y="307.584"/>
      </g>
     </g>
     <g id="text_2">
      <!-- 100 -->
      <g transform="translate(129.350008 322.182437)scale(0.1 -0.1)">
       <defs>
        <path d="M 12.40625 8.296875 
L 28.515625 8.296875 
L 28.515625 63.921875 
L 10.984375 60.40625 
L 10.984375 69.390625 
L 28.421875 72.90625 
L 38.28125 72.90625 
L 38.28125 8.296875 
L 54.390625 8.296875 
L 54.390625 0 
L 12.40625 0 
z
" id="DejaVuSans-49"/>
       </defs>
       <use xlink:href="#DejaVuSans-49"/>
       <use x="63.623047" xlink:href="#DejaVuSans-48"/>
       <use x="127.246094" xlink:href="#DejaVuSans-48"/>
      </g>
     </g>
    </g>
    <g id="xtick_3">
     <g id="line2d_5">
      <path clip-path="url(#p68dcd8c0a6)" d="M 203.95479 307.584 
L 203.95479 41.472 
" style="fill:none;stroke:#b0b0b0;stroke-linecap:square;stroke-width:0.8;"/>
     </g>
     <g id="line2d_6">
      <g>
       <use style="stroke:#000000;stroke-width:0.8;" x="203.95479" xlink:href="#m1f309628c7" y="307.584"/>
      </g>
     </g>
     <g id="text_3">
      <!-- 200 -->
      <g transform="translate(194.41104 322.182437)scale(0.1 -0.1)">
       <defs>
        <path d="M 19.1875 8.296875 
L 53.609375 8.296875 
L 53.609375 0 
L 7.328125 0 
L 7.328125 8.296875 
Q 12.9375 14.109375 22.625 23.890625 
Q 32.328125 33.6875 34.8125 36.53125 
Q 39.546875 41.84375 41.421875 45.53125 
Q 43.3125 49.21875 43.3125 52.78125 
Q 43.3125 58.59375 39.234375 62.25 
Q 35.15625 65.921875 28.609375 65.921875 
Q 23.96875 65.921875 18.8125 64.3125 
Q 13.671875 62.703125 7.8125 59.421875 
L 7.8125 69.390625 
Q 13.765625 71.78125 18.9375 73 
Q 24.125 74.21875 28.421875 74.21875 
Q 39.75 74.21875 46.484375 68.546875 
Q 53.21875 62.890625 53.21875 53.421875 
Q 53.21875 48.921875 51.53125 44.890625 
Q 49.859375 40.875 45.40625 35.40625 
Q 44.1875 33.984375 37.640625 27.21875 
Q 31.109375 20.453125 19.1875 8.296875 
z
" id="DejaVuSans-50"/>
       </defs>
       <use xlink:href="#DejaVuSans-50"/>
       <use x="63.623047" xlink:href="#DejaVuSans-48"/>
       <use x="127.246094" xlink:href="#DejaVuSans-48"/>
      </g>
     </g>
    </g>
    <g id="xtick_4">
     <g id="line2d_7">
      <path clip-path="url(#p68dcd8c0a6)" d="M 269.015821 307.584 
L 269.015821 41.472 
" style="fill:none;stroke:#b0b0b0;stroke-linecap:square;stroke-width:0.8;"/>
     </g>
     <g id="line2d_8">
      <g>
       <use style="stroke:#000000;stroke-width:0.8;" x="269.015821" xlink:href="#m1f309628c7" y="307.584"/>
      </g>
     </g>
     <g id="text_4">
      <!-- 300 -->
      <g transform="translate(259.472071 322.182437)scale(0.1 -0.1)">
       <defs>
        <path d="M 40.578125 39.3125 
Q 47.65625 37.796875 51.625 33 
Q 55.609375 28.21875 55.609375 21.1875 
Q 55.609375 10.40625 48.1875 4.484375 
Q 40.765625 -1.421875 27.09375 -1.421875 
Q 22.515625 -1.421875 17.65625 -0.515625 
Q 12.796875 0.390625 7.625 2.203125 
L 7.625 11.71875 
Q 11.71875 9.328125 16.59375 8.109375 
Q 21.484375 6.890625 26.8125 6.890625 
Q 36.078125 6.890625 40.9375 10.546875 
Q 45.796875 14.203125 45.796875 21.1875 
Q 45.796875 27.640625 41.28125 31.265625 
Q 36.765625 34.90625 28.71875 34.90625 
L 20.21875 34.90625 
L 20.21875 43.015625 
L 29.109375 43.015625 
Q 36.375 43.015625 40.234375 45.921875 
Q 44.09375 48.828125 44.09375 54.296875 
Q 44.09375 59.90625 40.109375 62.90625 
Q 36.140625 65.921875 28.71875 65.921875 
Q 24.65625 65.921875 20.015625 65.03125 
Q 15.375 64.15625 9.8125 62.3125 
L 9.8125 71.09375 
Q 15.4375 72.65625 20.34375 73.4375 
Q 25.25 74.21875 29.59375 74.21875 
Q 40.828125 74.21875 47.359375 69.109375 
Q 53.90625 64.015625 53.90625 55.328125 
Q 53.90625 49.265625 50.4375 45.09375 
Q 46.96875 40.921875 40.578125 39.3125 
z
" id="DejaVuSans-51"/>
       </defs>
       <use xlink:href="#DejaVuSans-51"/>
       <use x="63.623047" xlink:href="#DejaVuSans-48"/>
       <use x="127.246094" xlink:href="#DejaVuSans-48"/>
      </g>
     </g>
    </g>
    <g id="xtick_5">
     <g id="line2d_9">
      <path clip-path="url(#p68dcd8c0a6)" d="M 334.076852 307.584 
L 334.076852 41.472 
" style="fill:none;stroke:#b0b0b0;stroke-linecap:square;stroke-width:0.8;"/>
     </g>
     <g id="line2d_10">
      <g>
       <use style="stroke:#000000;stroke-width:0.8;" x="334.076852" xlink:href="#m1f309628c7" y="307.584"/>
      </g>
     </g>
     <g id="text_5">
      <!-- 400 -->
      <g transform="translate(324.533102 322.182437)scale(0.1 -0.1)">
       <defs>
        <path d="M 37.796875 64.3125 
L 12.890625 25.390625 
L 37.796875 25.390625 
z
M 35.203125 72.90625 
L 47.609375 72.90625 
L 47.609375 25.390625 
L 58.015625 25.390625 
L 58.015625 17.1875 
L 47.609375 17.1875 
L 47.609375 0 
L 37.796875 0 
L 37.796875 17.1875 
L 4.890625 17.1875 
L 4.890625 26.703125 
z
" id="DejaVuSans-52"/>
       </defs>
       <use xlink:href="#DejaVuSans-52"/>
       <use x="63.623047" xlink:href="#DejaVuSans-48"/>
       <use x="127.246094" xlink:href="#DejaVuSans-48"/>
      </g>
     </g>
    </g>
    <g id="xtick_6">
     <g id="line2d_11">
      <path clip-path="url(#p68dcd8c0a6)" d="M 399.137883 307.584 
L 399.137883 41.472 
" style="fill:none;stroke:#b0b0b0;stroke-linecap:square;stroke-width:0.8;"/>
     </g>
     <g id="line2d_12">
      <g>
       <use style="stroke:#000000;stroke-width:0.8;" x="399.137883" xlink:href="#m1f309628c7" y="307.584"/>
      </g>
     </g>
     <g id="text_6">
      <!-- 500 -->
      <g transform="translate(389.594133 322.182437)scale(0.1 -0.1)">
       <defs>
        <path d="M 10.796875 72.90625 
L 49.515625 72.90625 
L 49.515625 64.59375 
L 19.828125 64.59375 
L 19.828125 46.734375 
Q 21.96875 47.46875 24.109375 47.828125 
Q 26.265625 48.1875 28.421875 48.1875 
Q 40.625 48.1875 47.75 41.5 
Q 54.890625 34.8125 54.890625 23.390625 
Q 54.890625 11.625 47.5625 5.09375 
Q 40.234375 -1.421875 26.90625 -1.421875 
Q 22.3125 -1.421875 17.546875 -0.640625 
Q 12.796875 0.140625 7.71875 1.703125 
L 7.71875 11.625 
Q 12.109375 9.234375 16.796875 8.0625 
Q 21.484375 6.890625 26.703125 6.890625 
Q 35.15625 6.890625 40.078125 11.328125 
Q 45.015625 15.765625 45.015625 23.390625 
Q 45.015625 31 40.078125 35.4375 
Q 35.15625 39.890625 26.703125 39.890625 
Q 22.75 39.890625 18.8125 39.015625 
Q 14.890625 38.140625 10.796875 36.28125 
z
" id="DejaVuSans-53"/>
       </defs>
       <use xlink:href="#DejaVuSans-53"/>
       <use x="63.623047" xlink:href="#DejaVuSans-48"/>
       <use x="127.246094" xlink:href="#DejaVuSans-48"/>
      </g>
     </g>
    </g>
    <g id="text_7">
     <!-- Generations -->
     <g transform="translate(205.662344 335.860562)scale(0.1 -0.1)">
      <defs>
       <path d="M 59.515625 10.40625 
L 59.515625 29.984375 
L 43.40625 29.984375 
L 43.40625 38.09375 
L 69.28125 38.09375 
L 69.28125 6.78125 
Q 63.578125 2.734375 56.6875 0.65625 
Q 49.8125 -1.421875 42 -1.421875 
Q 24.90625 -1.421875 15.25 8.5625 
Q 5.609375 18.5625 5.609375 36.375 
Q 5.609375 54.25 15.25 64.234375 
Q 24.90625 74.21875 42 74.21875 
Q 49.125 74.21875 55.546875 72.453125 
Q 61.96875 70.703125 67.390625 67.28125 
L 67.390625 56.78125 
Q 61.921875 61.421875 55.765625 63.765625 
Q 49.609375 66.109375 42.828125 66.109375 
Q 29.4375 66.109375 22.71875 58.640625 
Q 16.015625 51.171875 16.015625 36.375 
Q 16.015625 21.625 22.71875 14.15625 
Q 29.4375 6.6875 42.828125 6.6875 
Q 48.046875 6.6875 52.140625 7.59375 
Q 56.25 8.5 59.515625 10.40625 
z
" id="DejaVuSans-71"/>
       <path d="M 56.203125 29.59375 
L 56.203125 25.203125 
L 14.890625 25.203125 
Q 15.484375 15.921875 20.484375 11.0625 
Q 25.484375 6.203125 34.421875 6.203125 
Q 39.59375 6.203125 44.453125 7.46875 
Q 49.3125 8.734375 54.109375 11.28125 
L 54.109375 2.78125 
Q 49.265625 0.734375 44.1875 -0.34375 
Q 39.109375 -1.421875 33.890625 -1.421875 
Q 20.796875 -1.421875 13.15625 6.1875 
Q 5.515625 13.8125 5.515625 26.8125 
Q 5.515625 40.234375 12.765625 48.109375 
Q 20.015625 56 32.328125 56 
Q 43.359375 56 49.78125 48.890625 
Q 56.203125 41.796875 56.203125 29.59375 
z
M 47.21875 32.234375 
Q 47.125 39.59375 43.09375 43.984375 
Q 39.0625 48.390625 32.421875 48.390625 
Q 24.90625 48.390625 20.390625 44.140625 
Q 15.875 39.890625 15.1875 32.171875 
z
" id="DejaVuSans-101"/>
       <path d="M 54.890625 33.015625 
L 54.890625 0 
L 45.90625 0 
L 45.90625 32.71875 
Q 45.90625 40.484375 42.875 44.328125 
Q 39.84375 48.1875 33.796875 48.1875 
Q 26.515625 48.1875 22.3125 43.546875 
Q 18.109375 38.921875 18.109375 30.90625 
L 18.109375 0 
L 9.078125 0 
L 9.078125 54.6875 
L 18.109375 54.6875 
L 18.109375 46.1875 
Q 21.34375 51.125 25.703125 53.5625 
Q 30.078125 56 35.796875 56 
Q 45.21875 56 50.046875 50.171875 
Q 54.890625 44.34375 54.890625 33.015625 
z
" id="DejaVuSans-110"/>
       <path d="M 41.109375 46.296875 
Q 39.59375 47.171875 37.8125 47.578125 
Q 36.03125 48 33.890625 48 
Q 26.265625 48 22.1875 43.046875 
Q 18.109375 38.09375 18.109375 28.8125 
L 18.109375 0 
L 9.078125 0 
L 9.078125 54.6875 
L 18.109375 54.6875 
L 18.109375 46.1875 
Q 20.953125 51.171875 25.484375 53.578125 
Q 30.03125 56 36.53125 56 
Q 37.453125 56 38.578125 55.875 
Q 39.703125 55.765625 41.0625 55.515625 
z
" id="DejaVuSans-114"/>
       <path d="M 34.28125 27.484375 
Q 23.390625 27.484375 19.1875 25 
Q 14.984375 22.515625 14.984375 16.5 
Q 14.984375 11.71875 18.140625 8.90625 
Q 21.296875 6.109375 26.703125 6.109375 
Q 34.1875 6.109375 38.703125 11.40625 
Q 43.21875 16.703125 43.21875 25.484375 
L 43.21875 27.484375 
z
M 52.203125 31.203125 
L 52.203125 0 
L 43.21875 0 
L 43.21875 8.296875 
Q 40.140625 3.328125 35.546875 0.953125 
Q 30.953125 -1.421875 24.3125 -1.421875 
Q 15.921875 -1.421875 10.953125 3.296875 
Q 6 8.015625 6 15.921875 
Q 6 25.140625 12.171875 29.828125 
Q 18.359375 34.515625 30.609375 34.515625 
L 43.21875 34.515625 
L 43.21875 35.40625 
Q 43.21875 41.609375 39.140625 45 
Q 35.0625 48.390625 27.6875 48.390625 
Q 23 48.390625 18.546875 47.265625 
Q 14.109375 46.140625 10.015625 43.890625 
L 10.015625 52.203125 
Q 14.9375 54.109375 19.578125 55.046875 
Q 24.21875 56 28.609375 56 
Q 40.484375 56 46.34375 49.84375 
Q 52.203125 43.703125 52.203125 31.203125 
z
" id="DejaVuSans-97"/>
       <path d="M 18.3125 70.21875 
L 18.3125 54.6875 
L 36.8125 54.6875 
L 36.8125 47.703125 
L 18.3125 47.703125 
L 18.3125 18.015625 
Q 18.3125 11.328125 20.140625 9.421875 
Q 21.96875 7.515625 27.59375 7.515625 
L 36.8125 7.515625 
L 36.8125 0 
L 27.59375 0 
Q 17.1875 0 13.234375 3.875 
Q 9.28125 7.765625 9.28125 18.015625 
L 9.28125 47.703125 
L 2.6875 47.703125 
L 2.6875 54.6875 
L 9.28125 54.6875 
L 9.28125 70.21875 
z
" id="DejaVuSans-116"/>
       <path d="M 9.421875 54.6875 
L 18.40625 54.6875 
L 18.40625 0 
L 9.421875 0 
z
M 9.421875 75.984375 
L 18.40625 75.984375 
L 18.40625 64.59375 
L 9.421875 64.59375 
z
" id="DejaVuSans-105"/>
       <path d="M 30.609375 48.390625 
Q 23.390625 48.390625 19.1875 42.75 
Q 14.984375 37.109375 14.984375 27.296875 
Q 14.984375 17.484375 19.15625 11.84375 
Q 23.34375 6.203125 30.609375 6.203125 
Q 37.796875 6.203125 41.984375 11.859375 
Q 46.1875 17.53125 46.1875 27.296875 
Q 46.1875 37.015625 41.984375 42.703125 
Q 37.796875 48.390625 30.609375 48.390625 
z
M 30.609375 56 
Q 42.328125 56 49.015625 48.375 
Q 55.71875 40.765625 55.71875 27.296875 
Q 55.71875 13.875 49.015625 6.21875 
Q 42.328125 -1.421875 30.609375 -1.421875 
Q 18.84375 -1.421875 12.171875 6.21875 
Q 5.515625 13.875 5.515625 27.296875 
Q 5.515625 40.765625 12.171875 48.375 
Q 18.84375 56 30.609375 56 
z
" id="DejaVuSans-111"/>
       <path d="M 44.28125 53.078125 
L 44.28125 44.578125 
Q 40.484375 46.53125 36.375 47.5 
Q 32.28125 48.484375 27.875 48.484375 
Q 21.1875 48.484375 17.84375 46.4375 
Q 14.5 44.390625 14.5 40.28125 
Q 14.5 37.15625 16.890625 35.375 
Q 19.28125 33.59375 26.515625 31.984375 
L 29.59375 31.296875 
Q 39.15625 29.25 43.1875 25.515625 
Q 47.21875 21.78125 47.21875 15.09375 
Q 47.21875 7.46875 41.1875 3.015625 
Q 35.15625 -1.421875 24.609375 -1.421875 
Q 20.21875 -1.421875 15.453125 -0.5625 
Q 10.6875 0.296875 5.421875 2 
L 5.421875 11.28125 
Q 10.40625 8.6875 15.234375 7.390625 
Q 20.0625 6.109375 24.8125 6.109375 
Q 31.15625 6.109375 34.5625 8.28125 
Q 37.984375 10.453125 37.984375 14.40625 
Q 37.984375 18.0625 35.515625 20.015625 
Q 33.0625 21.96875 24.703125 23.78125 
L 21.578125 24.515625 
Q 13.234375 26.265625 9.515625 29.90625 
Q 5.8125 33.546875 5.8125 39.890625 
Q 5.8125 47.609375 11.28125 51.796875 
Q 16.75 56 26.8125 56 
Q 31.78125 56 36.171875 55.265625 
Q 40.578125 54.546875 44.28125 53.078125 
z
" id="DejaVuSans-115"/>
      </defs>
      <use xlink:href="#DejaVuSans-71"/>
      <use x="77.490234" xlink:href="#DejaVuSans-101"/>
      <use x="139.013672" xlink:href="#DejaVuSans-110"/>
      <use x="202.392578" xlink:href="#DejaVuSans-101"/>
      <use x="263.916016" xlink:href="#DejaVuSans-114"/>
      <use x="305.029297" xlink:href="#DejaVuSans-97"/>
      <use x="366.308594" xlink:href="#DejaVuSans-116"/>
      <use x="405.517578" xlink:href="#DejaVuSans-105"/>
      <use x="433.300781" xlink:href="#DejaVuSans-111"/>
      <use x="494.482422" xlink:href="#DejaVuSans-110"/>
      <use x="557.861328" xlink:href="#DejaVuSans-115"/>
     </g>
    </g>
   </g>
   <g id="matplotlib.axis_2">
    <g id="ytick_1">
     <g id="line2d_13">
      <path clip-path="url(#p68dcd8c0a6)" d="M 57.6 261.318368 
L 414.72 261.318368 
" style="fill:none;stroke:#b0b0b0;stroke-linecap:square;stroke-width:0.8;"/>
     </g>
     <g id="line2d_14">
      <defs>
       <path d="M 0 0 
L -3.5 0 
" id="m6320e163d6" style="stroke:#000000;stroke-width:0.8;"/>
      </defs>
      <g>
       <use style="stroke:#000000;stroke-width:0.8;" x="57.6" xlink:href="#m6320e163d6" y="261.318368"/>
      </g>
     </g>
     <g id="text_8">
      <!-- 300 -->
      <g transform="translate(31.5125 265.117587)scale(0.1 -0.1)">
       <use xlink:href="#DejaVuSans-51"/>
       <use x="63.623047" xlink:href="#DejaVuSans-48"/>
       <use x="127.246094" xlink:href="#DejaVuSans-48"/>
      </g>
     </g>
    </g>
    <g id="ytick_2">
     <g id="line2d_15">
      <path clip-path="url(#p68dcd8c0a6)" d="M 57.6 204.710639 
L 414.72 204.710639 
" style="fill:none;stroke:#b0b0b0;stroke-linecap:square;stroke-width:0.8;"/>
     </g>
     <g id="line2d_16">
      <g>
       <use style="stroke:#000000;stroke-width:0.8;" x="57.6" xlink:href="#m6320e163d6" y="204.710639"/>
      </g>
     </g>
     <g id="text_9">
      <!-- 400 -->
      <g transform="translate(31.5125 208.509857)scale(0.1 -0.1)">
       <use xlink:href="#DejaVuSans-52"/>
       <use x="63.623047" xlink:href="#DejaVuSans-48"/>
       <use x="127.246094" xlink:href="#DejaVuSans-48"/>
      </g>
     </g>
    </g>
    <g id="ytick_3">
     <g id="line2d_17">
      <path clip-path="url(#p68dcd8c0a6)" d="M 57.6 148.102909 
L 414.72 148.102909 
" style="fill:none;stroke:#b0b0b0;stroke-linecap:square;stroke-width:0.8;"/>
     </g>
     <g id="line2d_18">
      <g>
       <use style="stroke:#000000;stroke-width:0.8;" x="57.6" xlink:href="#m6320e163d6" y="148.102909"/>
      </g>
     </g>
     <g id="text_10">
      <!-- 500 -->
      <g transform="translate(31.5125 151.902128)scale(0.1 -0.1)">
       <use xlink:href="#DejaVuSans-53"/>
       <use x="63.623047" xlink:href="#DejaVuSans-48"/>
       <use x="127.246094" xlink:href="#DejaVuSans-48"/>
      </g>
     </g>
    </g>
    <g id="ytick_4">
     <g id="line2d_19">
      <path clip-path="url(#p68dcd8c0a6)" d="M 57.6 91.495179 
L 414.72 91.495179 
" style="fill:none;stroke:#b0b0b0;stroke-linecap:square;stroke-width:0.8;"/>
     </g>
     <g id="line2d_20">
      <g>
       <use style="stroke:#000000;stroke-width:0.8;" x="57.6" xlink:href="#m6320e163d6" y="91.495179"/>
      </g>
     </g>
     <g id="text_11">
      <!-- 600 -->
      <g transform="translate(31.5125 95.294398)scale(0.1 -0.1)">
       <defs>
        <path d="M 33.015625 40.375 
Q 26.375 40.375 22.484375 35.828125 
Q 18.609375 31.296875 18.609375 23.390625 
Q 18.609375 15.53125 22.484375 10.953125 
Q 26.375 6.390625 33.015625 6.390625 
Q 39.65625 6.390625 43.53125 10.953125 
Q 47.40625 15.53125 47.40625 23.390625 
Q 47.40625 31.296875 43.53125 35.828125 
Q 39.65625 40.375 33.015625 40.375 
z
M 52.59375 71.296875 
L 52.59375 62.3125 
Q 48.875 64.0625 45.09375 64.984375 
Q 41.3125 65.921875 37.59375 65.921875 
Q 27.828125 65.921875 22.671875 59.328125 
Q 17.53125 52.734375 16.796875 39.40625 
Q 19.671875 43.65625 24.015625 45.921875 
Q 28.375 48.1875 33.59375 48.1875 
Q 44.578125 48.1875 50.953125 41.515625 
Q 57.328125 34.859375 57.328125 23.390625 
Q 57.328125 12.15625 50.6875 5.359375 
Q 44.046875 -1.421875 33.015625 -1.421875 
Q 20.359375 -1.421875 13.671875 8.265625 
Q 6.984375 17.96875 6.984375 36.375 
Q 6.984375 53.65625 15.1875 63.9375 
Q 23.390625 74.21875 37.203125 74.21875 
Q 40.921875 74.21875 44.703125 73.484375 
Q 48.484375 72.75 52.59375 71.296875 
z
" id="DejaVuSans-54"/>
       </defs>
       <use xlink:href="#DejaVuSans-54"/>
       <use x="63.623047" xlink:href="#DejaVuSans-48"/>
       <use x="127.246094" xlink:href="#DejaVuSans-48"/>
      </g>
     </g>
    </g>
    <g id="text_12">
     <!-- Fitness -->
     <g transform="translate(25.432812 191.845187)rotate(-90)scale(0.1 -0.1)">
      <defs>
       <path d="M 9.8125 72.90625 
L 51.703125 72.90625 
L 51.703125 64.59375 
L 19.671875 64.59375 
L 19.671875 43.109375 
L 48.578125 43.109375 
L 48.578125 34.8125 
L 19.671875 34.8125 
L 19.671875 0 
L 9.8125 0 
z
" id="DejaVuSans-70"/>
      </defs>
      <use xlink:href="#DejaVuSans-70"/>
      <use x="50.269531" xlink:href="#DejaVuSans-105"/>
      <use x="78.052734" xlink:href="#DejaVuSans-116"/>
      <use x="117.261719" xlink:href="#DejaVuSans-110"/>
      <use x="180.640625" xlink:href="#DejaVuSans-101"/>
      <use x="242.164062" xlink:href="#DejaVuSans-115"/>
      <use x="294.263672" xlink:href="#DejaVuSans-115"/>
     </g>
    </g>
   </g>
   <g id="line2d_21">
    <path clip-path="url(#p68dcd8c0a6)" d="M 73.832727 242.394404 
L 75.133948 242.499695 
L 75.784558 241.791482 
L 76.435169 243.216225 
L 77.085779 242.013336 
L 77.736389 241.9506 
L 78.386999 242.501959 
L 79.03761 242.200806 
L 79.68822 241.759266 
L 80.33883 242.484977 
L 82.290661 242.058154 
L 82.941272 241.762662 
L 83.591882 242.188352 
L 84.893103 242.450383 
L 86.194323 242.3303 
L 87.495544 241.970908 
L 88.146154 242.038195 
L 90.097985 241.859461 
L 90.748595 241.32207 
L 92.049816 241.399752 
L 92.700426 239.875531 
L 93.351037 239.101044 
L 94.652257 234.177818 
L 95.302868 237.153619 
L 95.953478 232.998016 
L 96.604088 236.60521 
L 97.254698 240.917167 
L 97.905309 238.557577 
L 98.555919 233.143412 
L 99.206529 238.206241 
L 99.85714 238.797372 
L 100.50775 230.891714 
L 101.15836 238.856641 
L 101.808971 237.914957 
L 102.459581 239.9833 
L 103.110191 240.069504 
L 103.760802 242.312056 
L 104.411412 239.178456 
L 105.062022 236.835525 
L 105.712633 241.653795 
L 106.363243 244.182164 
L 107.013853 237.649612 
L 107.664463 245.891388 
L 108.315074 243.192685 
L 108.965684 242.128348 
L 109.616294 249.430745 
L 110.266905 238.332199 
L 110.917515 236.297752 
L 111.568125 238.708905 
L 112.218736 239.331926 
L 112.869346 244.624638 
L 114.170567 234.864063 
L 114.821177 236.622532 
L 116.122398 240.97355 
L 116.773008 237.371583 
L 118.074228 245.079383 
L 118.724839 243.277485 
L 119.375449 247.023487 
L 120.026059 239.614965 
L 120.67667 247.664584 
L 121.32728 245.050794 
L 121.97789 236.727971 
L 122.628501 246.146376 
L 123.279111 245.751243 
L 123.929721 250.806313 
L 124.580332 241.579996 
L 125.230942 243.034072 
L 125.881552 239.72252 
L 126.532163 241.432802 
L 127.182773 237.078939 
L 127.833383 242.711408 
L 128.483993 241.399173 
L 129.134604 242.335162 
L 129.785214 245.003012 
L 130.435824 244.879708 
L 131.086435 242.567058 
L 131.737045 242.186044 
L 132.387655 242.138997 
L 133.038266 240.502417 
L 133.688876 247.759729 
L 134.339486 237.498724 
L 134.990097 242.132788 
L 135.640707 241.833988 
L 136.291317 245.564437 
L 136.941927 244.885313 
L 137.592538 234.307602 
L 138.243148 243.832241 
L 138.893758 237.005634 
L 139.544369 238.205432 
L 140.194979 245.025431 
L 140.845589 241.833988 
L 141.4962 248.388266 
L 142.14681 244.787768 
L 142.79742 238.069966 
L 143.448031 234.118354 
L 144.098641 248.038195 
L 144.749251 241.533967 
L 145.399862 244.347259 
L 146.050472 238.787371 
L 146.701082 241.203008 
L 147.351692 247.12115 
L 148.002303 241.923074 
L 148.652913 243.203895 
L 149.303523 248.355198 
L 149.954134 238.406533 
L 150.604744 237.38462 
L 151.255354 247.622764 
L 151.905965 242.643536 
L 152.556575 254.302441 
L 153.857796 233.174606 
L 154.508406 241.539628 
L 155.159016 243.056715 
L 155.809627 237.754013 
L 156.460237 238.837814 
L 157.110847 238.618669 
L 157.761457 238.788492 
L 158.412068 235.759978 
L 159.062678 236.082642 
L 159.713288 244.251979 
L 160.363899 240.842381 
L 161.014509 239.344277 
L 161.665119 240.101791 
L 162.31573 228.582118 
L 162.96634 238.926866 
L 163.61695 242.29251 
L 164.267561 238.533757 
L 164.918171 239.547036 
L 165.568781 238.182789 
L 166.219392 234.350446 
L 166.870002 229.533128 
L 167.520612 237.886199 
L 168.171222 237.328013 
L 168.821833 231.379169 
L 169.472443 239.280979 
L 170.123053 241.673805 
L 170.773664 228.306534 
L 171.424274 241.579996 
L 172.074884 228.989694 
L 172.725495 239.309283 
L 173.376105 229.349013 
L 174.026715 227.733002 
L 174.677326 218.496622 
L 175.327936 227.398568 
L 175.978546 219.617341 
L 176.629156 218.177618 
L 177.279767 216.295607 
L 177.930377 211.083212 
L 178.580987 212.405927 
L 179.231598 204.127407 
L 180.532818 213.607773 
L 181.834039 206.992102 
L 182.484649 214.728491 
L 183.13526 216.569672 
L 183.78587 216.824693 
L 184.43648 200.159148 
L 185.087091 202.15763 
L 185.737701 212.086458 
L 186.388311 199.315922 
L 187.038921 208.944897 
L 187.689532 197.289365 
L 188.340142 205.242751 
L 188.990752 206.720213 
L 189.641363 204.178526 
L 190.291973 202.429347 
L 190.942583 208.712805 
L 191.593194 207.903315 
L 192.243804 208.554303 
L 192.894414 207.112179 
L 193.545025 198.821148 
L 194.195635 202.973174 
L 194.846245 200.07553 
L 195.496856 189.382153 
L 196.147466 191.09676 
L 196.798076 186.287905 
L 198.099297 207.392636 
L 198.749907 206.244708 
L 199.400517 223.798765 
L 200.051128 210.685899 
L 200.701738 204.636305 
L 201.352348 195.828886 
L 202.002959 220.883467 
L 202.653569 206.637589 
L 203.304179 205.07087 
L 203.95479 204.727792 
L 204.6054 214.490885 
L 205.25601 204.251051 
L 205.906621 204.407983 
L 206.557231 208.089949 
L 207.207841 221.545777 
L 207.858451 216.72846 
L 208.509062 211.028061 
L 209.159672 208.267205 
L 209.810282 214.614132 
L 210.460893 201.760175 
L 211.111503 209.951057 
L 211.762113 195.20054 
L 212.412724 197.255401 
L 213.063334 196.893111 
L 213.713944 189.568071 
L 214.364555 189.822806 
L 215.015165 196.796992 
L 215.665775 196.8313 
L 216.316385 203.669056 
L 216.966996 190.864388 
L 217.617606 193.15134 
L 218.268216 182.244803 
L 218.918827 214.622652 
L 219.569437 207.773117 
L 220.220047 205.661648 
L 220.870658 188.769902 
L 221.521268 192.449404 
L 222.171878 191.634253 
L 222.822489 190.14547 
L 223.473099 196.471069 
L 224.123709 223.419493 
L 224.77432 207.920297 
L 225.42493 196.700645 
L 226.07554 207.50706 
L 226.72615 198.319626 
L 227.376761 196.360998 
L 228.027371 193.892901 
L 228.677981 200.959662 
L 229.328592 202.320534 
L 229.979202 193.219269 
L 230.629812 199.464615 
L 231.280423 200.338953 
L 231.931033 196.366659 
L 232.581643 190.830423 
L 233.232254 192.439913 
L 233.882864 175.034465 
L 234.533474 179.271468 
L 235.184085 188.628383 
L 235.834695 190.135578 
L 236.485305 191.008238 
L 237.135915 180.733622 
L 237.786526 196.023314 
L 238.437136 186.142182 
L 239.087746 193.999568 
L 239.738357 196.606205 
L 241.039577 186.471628 
L 241.690188 195.182605 
L 242.340798 193.25758 
L 242.991408 186.264524 
L 243.642019 187.649069 
L 244.292629 174.063214 
L 244.943239 186.290483 
L 245.59385 182.950627 
L 246.24446 170.881859 
L 246.89507 185.604129 
L 247.54568 178.996157 
L 248.196291 193.134358 
L 248.846901 195.851529 
L 250.148122 175.16026 
L 250.798732 173.341951 
L 251.449342 172.135973 
L 252.099953 181.254861 
L 252.750563 179.491895 
L 253.401173 178.547779 
L 254.051784 172.919738 
L 254.702394 183.445573 
L 255.353004 186.052731 
L 256.003615 194.566991 
L 256.654225 180.48253 
L 257.304835 175.218011 
L 257.955445 180.432212 
L 258.606056 186.890525 
L 259.256666 180.080615 
L 259.907276 206.244708 
L 260.557887 203.669056 
L 261.208497 205.394415 
L 261.859107 195.978476 
L 262.509718 191.959888 
L 263.160328 200.891046 
L 263.810938 180.227795 
L 264.461549 189.075584 
L 265.112159 193.162662 
L 265.762769 199.366869 
L 266.413379 198.512092 
L 267.06399 185.696102 
L 267.7146 206.52978 
L 268.36521 195.227443 
L 269.015821 210.156302 
L 269.666431 191.736604 
L 270.317041 198.455484 
L 270.967652 202.752011 
L 271.618262 187.054688 
L 272.268872 191.246879 
L 272.919483 194.334442 
L 273.570093 191.804076 
L 274.220703 184.003531 
L 274.871314 195.047699 
L 275.521924 197.821478 
L 276.172534 187.643408 
L 276.823144 205.384271 
L 277.473755 184.711128 
L 278.124365 196.864807 
L 278.774975 194.838251 
L 279.425586 209.341151 
L 280.076196 208.712805 
L 280.726806 183.256309 
L 281.377417 184.546965 
L 282.028027 186.533897 
L 282.678637 182.854394 
L 283.329248 157.040069 
L 283.979858 178.261351 
L 284.630468 174.214612 
L 285.281079 175.840696 
L 285.931689 170.700257 
L 286.582299 184.778486 
L 287.88352 169.768716 
L 288.53413 196.723803 
L 289.18474 185.663485 
L 289.835351 179.614545 
L 291.136571 173.506963 
L 291.787182 166.049656 
L 292.437792 172.056365 
L 293.088402 160.807606 
L 293.739013 160.530157 
L 294.389623 169.553195 
L 295.040233 185.923948 
L 295.690844 182.577526 
L 296.992064 169.139419 
L 297.642674 181.016989 
L 298.293285 188.528099 
L 298.943895 178.361342 
L 299.594505 175.850989 
L 300.245116 192.936231 
L 300.895726 187.500779 
L 301.546336 180.286068 
L 302.196947 196.208798 
L 302.847557 189.701655 
L 303.498167 189.010004 
L 304.148778 175.491901 
L 304.799388 176.458235 
L 305.449998 167.689183 
L 306.100608 175.939623 
L 306.751219 173.195266 
L 307.401829 171.323631 
L 308.052439 175.824047 
L 308.70305 163.888879 
L 309.35366 165.218083 
L 310.00427 152.183149 
L 310.654881 176.673163 
L 311.305491 173.505628 
L 311.956101 173.921694 
L 312.606712 158.597982 
L 313.257322 176.843942 
L 313.907932 182.248458 
L 314.558543 173.859426 
L 315.209153 168.940214 
L 315.859763 171.504544 
L 316.510373 176.767005 
L 317.160984 191.470091 
L 317.811594 175.749209 
L 318.462204 163.358692 
L 319.763425 194.723789 
L 320.414035 185.014479 
L 321.064646 179.431244 
L 321.715256 199.928079 
L 323.016477 184.23293 
L 323.667087 179.926541 
L 324.317697 177.979211 
L 324.968308 181.044033 
L 325.618918 179.069018 
L 326.269528 176.227153 
L 326.920138 164.51915 
L 327.570749 174.411763 
L 328.221359 192.008942 
L 328.871969 188.3478 
L 329.52258 199.194273 
L 330.17319 188.169207 
L 330.8238 187.766421 
L 331.474411 195.195149 
L 332.125021 194.302293 
L 332.775631 201.039072 
L 333.426242 198.158818 
L 334.076852 192.420942 
L 334.727462 188.613459 
L 335.378073 187.546748 
L 336.028683 193.405742 
L 336.679293 203.827558 
L 337.329903 195.63053 
L 337.980514 192.092776 
L 338.631124 181.673008 
L 339.281734 179.826109 
L 339.932345 179.503217 
L 340.582955 173.938677 
L 341.233565 178.320115 
L 341.884176 179.661718 
L 342.534786 194.978683 
L 343.185396 182.890932 
L 343.836007 183.726153 
L 344.486617 190.853066 
L 345.137227 195.398667 
L 345.787837 191.543681 
L 346.438448 217.892954 
L 347.089058 206.358428 
L 347.739668 222.655289 
L 348.390279 201.1068 
L 349.040889 197.872873 
L 349.691499 206.84475 
L 350.34211 178.799992 
L 350.99272 176.718116 
L 351.64333 176.287897 
L 352.293941 195.4949 
L 352.944551 188.237217 
L 353.595161 176.273919 
L 354.245772 185.192293 
L 354.896382 189.893703 
L 355.546992 185.389246 
L 356.197602 202.457539 
L 356.848213 184.501679 
L 357.498823 193.882309 
L 358.149433 185.571565 
L 358.800044 184.994166 
L 359.450654 192.138062 
L 360.101264 188.215931 
L 360.751875 196.248069 
L 361.402485 201.788765 
L 362.053095 190.673065 
L 362.703706 193.852247 
L 363.354316 192.708656 
L 364.004926 184.303832 
L 364.655537 185.929203 
L 365.306147 179.427721 
L 365.956757 178.846567 
L 366.607367 192.462784 
L 367.257978 186.096039 
L 367.908588 194.235406 
L 368.559198 187.811566 
L 369.209809 184.160317 
L 369.860419 183.95062 
L 370.511029 201.18838 
L 371.16164 201.102611 
L 371.81225 196.910093 
L 372.46286 179.461349 
L 373.113471 193.725376 
L 373.764081 182.711321 
L 374.414691 183.516039 
L 375.065302 190.241703 
L 375.715912 189.818882 
L 376.366522 188.697937 
L 377.017132 191.339893 
L 377.667743 182.800117 
L 378.318353 196.021352 
L 380.270184 180.84482 
L 380.920794 207.432384 
L 381.571405 202.785976 
L 382.222015 204.467225 
L 382.872625 205.797507 
L 383.523236 201.772697 
L 384.173846 207.048538 
L 384.824456 202.310471 
L 386.125677 189.528445 
L 386.776287 186.613147 
L 387.426897 191.855023 
L 388.077508 193.570237 
L 388.728118 190.230381 
L 389.378728 188.764241 
L 390.029339 186.574181 
L 390.679949 177.936864 
L 391.330559 184.297891 
L 391.98117 191.81177 
L 392.63178 201.281517 
L 393.28239 205.648551 
L 393.933001 201.055868 
L 394.583611 191.008238 
L 395.234221 196.308276 
L 395.884831 198.417191 
L 396.535442 219.609793 
L 397.186052 206.91834 
L 397.836662 211.856664 
L 398.487273 205.074946 
L 398.487273 205.074946 
" style="fill:none;stroke:#0000ff;stroke-linecap:square;stroke-width:1.5;"/>
   </g>
   <g id="line2d_22">
    <path clip-path="url(#p68dcd8c0a6)" d="M 73.832727 243.489892 
L 74.483338 249.876094 
L 75.133948 251.442076 
L 75.784558 252.437647 
L 76.435169 256.953054 
L 77.085779 253.183039 
L 77.736389 255.180302 
L 78.386999 250.645732 
L 79.03761 251.339896 
L 79.68822 249.353806 
L 80.33883 250.991766 
L 80.989441 250.614551 
L 81.640051 248.180311 
L 82.290661 251.203683 
L 82.941272 247.098459 
L 83.591882 246.994197 
L 84.242492 247.552956 
L 84.893103 250.324791 
L 85.543713 249.82889 
L 86.194323 246.295005 
L 86.844934 246.269305 
L 87.495544 249.513692 
L 88.146154 246.679038 
L 88.796764 249.673695 
L 89.447375 250.081007 
L 90.097985 248.922608 
L 90.748595 246.264127 
L 91.399206 248.185087 
L 92.049816 249.521636 
L 92.700426 247.250736 
L 93.351037 249.869086 
L 94.001647 248.470364 
L 94.652257 250.949159 
L 95.302868 259.53878 
L 95.953478 257.407235 
L 96.604088 263.367017 
L 97.254698 271.349896 
L 97.905309 267.791165 
L 98.555919 260.58617 
L 99.206529 264.999783 
L 99.85714 282.418943 
L 100.50775 266.908946 
L 101.808971 272.563064 
L 102.459581 277.517042 
L 103.110191 276.259482 
L 103.760802 273.285678 
L 104.411412 274.887249 
L 105.062022 274.938243 
L 105.712633 276.445259 
L 106.363243 279.025246 
L 107.013853 272.069176 
L 107.664463 284.546411 
L 108.315074 278.448849 
L 108.965684 280.832929 
L 109.616294 290.248158 
L 110.266905 274.768172 
L 110.917515 267.655471 
L 111.568125 277.744701 
L 112.218736 278.869556 
L 112.869346 282.441551 
L 113.519956 273.222428 
L 114.170567 274.479616 
L 114.821177 271.740399 
L 115.471787 279.678984 
L 116.122398 283.369061 
L 116.773008 276.902818 
L 117.423618 287.137439 
L 118.074228 284.761496 
L 118.724839 287.441721 
L 119.375449 294.455958 
L 120.026059 282.261759 
L 121.32728 290.60163 
L 121.97789 283.10351 
L 122.628501 290.802978 
L 123.279111 283.681383 
L 123.929721 291.849553 
L 124.580332 287.109799 
L 125.230942 286.797998 
L 125.881552 280.453689 
L 126.532163 283.968497 
L 127.182773 276.321071 
L 127.833383 282.036684 
L 128.483993 284.373729 
L 129.134604 284.844288 
L 129.785214 295.488 
L 130.435824 284.787306 
L 131.086435 284.457196 
L 131.737045 276.874549 
L 132.387655 277.482909 
L 133.038266 276.407724 
L 133.688876 283.941646 
L 134.339486 270.168491 
L 134.990097 280.078261 
L 135.640707 277.959405 
L 136.291317 277.265479 
L 136.941927 278.172825 
L 137.592538 265.666703 
L 138.243148 276.612359 
L 138.893758 265.182777 
L 139.544369 275.623532 
L 140.194979 281.16043 
L 140.845589 276.6594 
L 141.4962 291.036596 
L 142.14681 287.86002 
L 142.79742 282.221211 
L 143.448031 272.6648 
L 144.098641 290.914462 
L 144.749251 283.128545 
L 145.399862 279.874332 
L 146.050472 281.111554 
L 146.701082 282.736492 
L 147.351692 282.533226 
L 148.002303 280.422685 
L 148.652913 284.177804 
L 149.303523 292.126226 
L 149.954134 277.218452 
L 150.604744 282.191209 
L 151.255354 285.568186 
L 151.905965 290.58988 
L 152.556575 291.154716 
L 153.207185 288.060429 
L 153.857796 270.526354 
L 154.508406 281.171008 
L 155.159016 283.531647 
L 155.809627 283.814359 
L 156.460237 276.469454 
L 157.110847 271.85512 
L 157.761457 276.994558 
L 158.412068 272.127647 
L 159.062678 281.312054 
L 159.713288 280.793823 
L 161.014509 283.01531 
L 161.665119 282.22726 
L 162.31573 272.363874 
L 162.96634 281.507948 
L 163.61695 284.841186 
L 164.267561 283.047117 
L 164.918171 281.997581 
L 165.568781 276.655783 
L 166.219392 273.925 
L 166.870002 269.583197 
L 167.520612 276.668708 
L 168.171222 280.745941 
L 168.821833 273.20284 
L 169.472443 285.113826 
L 170.123053 288.838579 
L 170.773664 268.144588 
L 171.424274 283.994005 
L 172.074884 270.984152 
L 172.725495 284.261758 
L 173.376105 269.604399 
L 174.026715 266.150935 
L 174.677326 249.717335 
L 175.327936 269.73277 
L 176.629156 260.583744 
L 177.279767 256.413382 
L 177.930377 257.753874 
L 178.580987 262.632451 
L 179.231598 259.080212 
L 179.882208 265.147245 
L 180.532818 259.841517 
L 181.183429 259.810311 
L 181.834039 266.026025 
L 182.484649 269.856426 
L 183.13526 277.284316 
L 183.78587 278.914264 
L 184.43648 259.762171 
L 185.087091 260.319173 
L 185.737701 277.095803 
L 186.388311 265.543117 
L 187.038921 265.513015 
L 187.689532 249.090226 
L 188.340142 268.159375 
L 188.990752 265.175438 
L 189.641363 265.433469 
L 190.291973 263.198026 
L 190.942583 266.620728 
L 191.593194 269.346176 
L 192.243804 266.203061 
L 192.894414 270.16498 
L 193.545025 259.311604 
L 194.195635 264.179191 
L 194.846245 262.993733 
L 195.496856 247.05849 
L 196.147466 253.314717 
L 196.798076 254.206042 
L 197.448686 254.681967 
L 198.099297 267.677396 
L 198.749907 262.144163 
L 199.400517 280.314777 
L 200.701738 259.796065 
L 201.352348 260.986261 
L 202.002959 276.2584 
L 202.653569 262.385145 
L 203.304179 261.501836 
L 203.95479 259.744292 
L 204.6054 262.693995 
L 205.25601 261.700999 
L 205.906621 255.579913 
L 206.557231 260.455132 
L 207.207841 270.808595 
L 207.858451 270.055997 
L 208.509062 263.796894 
L 209.159672 265.641499 
L 209.810282 268.973893 
L 210.460893 258.276646 
L 211.111503 267.541655 
L 211.762113 262.866788 
L 212.412724 267.37769 
L 213.063334 256.333314 
L 213.713944 249.267699 
L 214.364555 257.194305 
L 215.015165 257.173691 
L 215.665775 259.217153 
L 216.316385 265.853812 
L 216.966996 251.165859 
L 217.617606 257.605259 
L 218.268216 244.198211 
L 218.918827 274.736623 
L 219.569437 272.272755 
L 220.220047 260.48961 
L 220.870658 251.819007 
L 221.521268 257.589394 
L 222.171878 250.051483 
L 222.822489 252.25165 
L 223.473099 262.63565 
L 224.123709 268.644314 
L 224.77432 267.543693 
L 225.42493 257.57985 
L 226.07554 265.088271 
L 226.72615 261.029254 
L 227.376761 263.238923 
L 228.027371 259.476756 
L 228.677981 263.968634 
L 229.328592 262.949082 
L 229.979202 254.93382 
L 230.629812 263.876709 
L 231.280423 260.302584 
L 231.931033 259.266464 
L 232.581643 253.39774 
L 233.232254 261.152549 
L 233.882864 239.115032 
L 234.533474 244.562759 
L 235.184085 253.500846 
L 236.485305 254.545923 
L 237.135915 249.448462 
L 237.786526 266.279672 
L 238.437136 247.948261 
L 239.087746 257.512098 
L 239.738357 264.944652 
L 240.388967 257.888066 
L 241.039577 252.135208 
L 241.690188 255.641599 
L 242.340798 255.018905 
L 242.991408 252.092939 
L 243.642019 256.205027 
L 244.292629 245.768117 
L 244.943239 253.237467 
L 245.59385 253.253203 
L 246.24446 241.185748 
L 246.89507 258.499073 
L 247.54568 252.571259 
L 248.196291 260.148461 
L 248.846901 264.183947 
L 249.497511 253.249195 
L 250.148122 249.909055 
L 250.798732 247.667698 
L 251.449342 241.692042 
L 252.099953 262.52857 
L 252.750563 253.360856 
L 253.401173 253.390497 
L 254.051784 247.731633 
L 254.702394 257.145596 
L 255.353004 260.11948 
L 256.003615 271.090372 
L 256.654225 250.603949 
L 257.304835 249.452288 
L 257.955445 250.875095 
L 258.606056 259.877999 
L 259.256666 255.63917 
L 259.907276 268.251922 
L 260.557887 273.236236 
L 261.208497 270.286127 
L 261.859107 268.995185 
L 262.509718 266.311924 
L 263.160328 276.743157 
L 263.810938 249.826827 
L 264.461549 257.67167 
L 265.112159 263.82598 
L 265.762769 264.844045 
L 266.413379 263.870386 
L 267.06399 256.273529 
L 267.7146 273.899036 
L 268.36521 264.091479 
L 269.015821 277.311528 
L 269.666431 265.93729 
L 270.317041 265.215723 
L 270.967652 271.976549 
L 271.618262 262.37036 
L 272.268872 262.419334 
L 272.919483 269.695641 
L 273.570093 263.426166 
L 274.220703 258.652545 
L 274.871314 264.293659 
L 275.521924 271.179944 
L 276.172534 259.98642 
L 276.823144 277.806055 
L 277.473755 260.746628 
L 278.124365 263.498911 
L 278.774975 267.510906 
L 279.425586 285.333455 
L 280.076196 274.662013 
L 280.726806 260.434114 
L 281.377417 261.266408 
L 282.028027 259.156778 
L 282.678637 255.183829 
L 283.329248 229.48417 
L 283.979858 255.918232 
L 284.630468 242.933457 
L 285.281079 258.246581 
L 285.931689 245.202023 
L 286.582299 260.540356 
L 287.88352 242.742642 
L 288.53413 269.357071 
L 289.18474 261.305881 
L 289.835351 256.120659 
L 290.485961 249.690048 
L 291.136571 247.398195 
L 291.787182 235.0569 
L 292.437792 249.10924 
L 293.088402 232.421316 
L 293.739013 232.845457 
L 294.389623 241.451274 
L 295.040233 260.054665 
L 295.690844 254.024221 
L 296.341454 249.787109 
L 296.992064 242.882259 
L 297.642674 253.957907 
L 298.293285 259.405312 
L 298.943895 245.964972 
L 299.594505 245.152731 
L 300.245116 261.468269 
L 300.895726 261.295937 
L 301.546336 255.004168 
L 302.196947 271.613432 
L 302.847557 265.085098 
L 303.498167 266.287851 
L 304.148778 251.195596 
L 304.799388 250.639524 
L 305.449998 239.841503 
L 306.100608 249.973855 
L 306.751219 246.056284 
L 307.401829 246.311334 
L 308.052439 253.023298 
L 308.70305 243.151075 
L 309.35366 243.604545 
L 310.00427 226.607083 
L 310.654881 255.424385 
L 311.305491 248.352204 
L 311.956101 247.730485 
L 312.606712 228.777981 
L 313.257322 249.840858 
L 313.907932 262.523668 
L 314.558543 250.32197 
L 315.209153 244.09476 
L 315.859763 245.443307 
L 316.510373 252.109262 
L 317.160984 262.651059 
L 317.811594 248.076621 
L 318.462204 230.920172 
L 319.112815 257.590685 
L 319.763425 272.159611 
L 320.414035 251.941533 
L 321.064646 249.405744 
L 321.715256 272.388008 
L 322.365866 258.401484 
L 323.016477 256.466021 
L 323.667087 250.456445 
L 324.317697 245.964573 
L 324.968308 254.071115 
L 325.618918 254.159696 
L 326.269528 251.633135 
L 326.920138 240.56689 
L 327.570749 246.521931 
L 328.221359 270.841338 
L 328.871969 262.587716 
L 329.52258 271.030139 
L 330.17319 264.836477 
L 330.8238 260.891642 
L 331.474411 269.184272 
L 332.125021 268.197734 
L 332.775631 268.926071 
L 333.426242 268.558555 
L 334.076852 265.050902 
L 334.727462 266.408535 
L 335.378073 259.789898 
L 336.679293 272.283476 
L 337.329903 272.710068 
L 337.980514 262.407793 
L 338.631124 254.026897 
L 339.281734 257.232416 
L 339.932345 251.315358 
L 340.582955 254.834411 
L 341.233565 253.360778 
L 341.884176 251.164357 
L 342.534786 268.048392 
L 343.185396 254.017867 
L 344.486617 259.960115 
L 345.137227 260.499298 
L 345.787837 258.104773 
L 346.438448 272.338351 
L 347.089058 283.377824 
L 347.739668 284.686074 
L 348.390279 274.575416 
L 349.040889 271.9089 
L 349.691499 270.667793 
L 350.34211 255.145676 
L 350.99272 253.37779 
L 351.64333 250.557122 
L 352.293941 261.12038 
L 352.944551 262.189224 
L 353.595161 248.773219 
L 354.896382 268.347713 
L 355.546992 258.368869 
L 356.197602 274.863 
L 356.848213 257.215294 
L 357.498823 268.142804 
L 358.149433 258.575598 
L 358.800044 258.163508 
L 359.450654 262.368811 
L 360.101264 263.286092 
L 360.751875 262.091153 
L 361.402485 271.031325 
L 362.053095 263.428708 
L 362.703706 264.331442 
L 363.354316 268.433481 
L 364.004926 254.354323 
L 364.655537 254.16899 
L 365.306147 249.514838 
L 365.956757 252.215718 
L 366.607367 264.816674 
L 367.257978 254.104606 
L 367.908588 262.604798 
L 368.559198 253.182137 
L 369.209809 248.555122 
L 369.860419 255.224527 
L 370.511029 265.309821 
L 371.16164 268.73766 
L 371.81225 261.350309 
L 372.46286 247.839671 
L 373.113471 260.278492 
L 373.764081 253.783347 
L 374.414691 252.600691 
L 375.065302 260.451826 
L 375.715912 261.220501 
L 376.366522 258.95533 
L 377.017132 258.878954 
L 377.667743 252.4719 
L 378.318353 263.211622 
L 378.968963 258.477547 
L 379.619574 257.541573 
L 380.270184 255.110611 
L 380.920794 267.337169 
L 381.571405 269.45258 
L 382.222015 271.166279 
L 382.872625 271.334771 
L 383.523236 267.765934 
L 384.173846 268.851563 
L 384.824456 278.30171 
L 385.475066 271.25934 
L 386.125677 259.418907 
L 386.776287 259.650653 
L 387.426897 263.861181 
L 388.077508 266.049661 
L 388.728118 262.613195 
L 389.378728 265.142694 
L 390.029339 262.5785 
L 390.679949 250.330781 
L 391.330559 255.40634 
L 391.98117 269.711036 
L 392.63178 264.840351 
L 393.28239 274.613634 
L 393.933001 268.995712 
L 394.583611 256.748291 
L 395.234221 267.397835 
L 395.884831 267.507197 
L 396.535442 275.019241 
L 397.186052 273.136489 
L 397.836662 268.475706 
L 398.487273 271.698265 
L 398.487273 271.698265 
" style="fill:none;stroke:#008000;stroke-dasharray:9.6,2.4,1.5,2.4;stroke-dashoffset:0;stroke-width:1.5;"/>
   </g>
   <g id="line2d_23">
    <path clip-path="url(#p68dcd8c0a6)" d="M 73.832727 241.298917 
L 74.483338 235.075745 
L 75.133948 233.557313 
L 75.784558 231.145317 
L 76.435169 229.479397 
L 77.085779 230.843632 
L 77.736389 228.720897 
L 78.386999 234.358186 
L 79.03761 233.061716 
L 79.68822 234.164725 
L 80.33883 233.978187 
L 80.989441 234.08595 
L 81.640051 236.309609 
L 82.290661 232.912626 
L 82.941272 236.426865 
L 83.591882 237.382507 
L 84.242492 237.075734 
L 84.893103 234.575976 
L 85.543713 235.037533 
L 86.194323 238.365595 
L 86.844934 237.935635 
L 87.495544 234.428124 
L 88.146154 237.397352 
L 88.796764 234.247883 
L 89.447375 233.49388 
L 90.097985 234.796314 
L 90.748595 236.380013 
L 91.399206 234.551196 
L 92.049816 233.277868 
L 92.700426 232.500325 
L 94.001647 224.341087 
L 94.652257 217.406478 
L 95.302868 214.768458 
L 95.953478 208.588797 
L 96.604088 209.843402 
L 97.254698 210.484437 
L 97.905309 209.32399 
L 98.555919 205.700655 
L 99.206529 211.412699 
L 99.85714 195.1758 
L 100.50775 194.874481 
L 101.15836 207.719021 
L 101.808971 203.26685 
L 102.459581 202.449557 
L 103.110191 203.879526 
L 103.760802 211.338435 
L 104.411412 203.469663 
L 105.062022 198.732808 
L 105.712633 206.862332 
L 106.363243 209.339083 
L 107.013853 203.230048 
L 107.664463 207.236366 
L 108.315074 207.936522 
L 108.965684 203.423767 
L 109.616294 208.613332 
L 110.266905 201.896227 
L 110.917515 204.940033 
L 111.568125 199.673108 
L 112.218736 199.794296 
L 112.869346 206.807725 
L 113.519956 206.075431 
L 114.170567 195.24851 
L 114.821177 201.504664 
L 115.471787 198.094697 
L 116.122398 198.57804 
L 116.773008 197.840348 
L 117.423618 195.409704 
L 118.074228 205.397271 
L 118.724839 199.113249 
L 119.375449 199.591016 
L 120.026059 196.968171 
L 120.67667 209.009066 
L 121.97789 190.352431 
L 122.628501 201.489774 
L 123.279111 207.821103 
L 123.929721 209.763073 
L 124.580332 196.050194 
L 125.230942 199.270146 
L 125.881552 198.99135 
L 126.532163 198.897106 
L 127.182773 197.836806 
L 127.833383 203.386131 
L 128.483993 198.424617 
L 129.134604 199.826037 
L 129.785214 194.518024 
L 130.435824 204.972109 
L 131.086435 200.67692 
L 131.737045 207.49754 
L 132.387655 206.795085 
L 133.038266 204.59711 
L 133.688876 211.577811 
L 134.339486 204.828957 
L 134.990097 204.187315 
L 135.640707 205.70857 
L 136.291317 213.863395 
L 136.941927 211.5978 
L 137.592538 202.9485 
L 138.243148 211.052123 
L 138.893758 208.828492 
L 139.544369 200.787333 
L 140.194979 208.890432 
L 140.845589 207.008576 
L 141.4962 205.739936 
L 142.14681 201.715516 
L 142.79742 193.918721 
L 143.448031 195.571909 
L 144.098641 205.161928 
L 144.749251 199.939389 
L 145.399862 208.820186 
L 146.050472 196.463188 
L 146.701082 199.669524 
L 147.351692 211.709073 
L 148.002303 203.423462 
L 148.652913 202.229986 
L 149.303523 204.58417 
L 149.954134 199.594614 
L 150.604744 192.578032 
L 151.255354 209.677341 
L 151.905965 194.697191 
L 152.556575 217.450165 
L 153.207185 200.138014 
L 153.857796 195.822859 
L 154.508406 201.908248 
L 155.159016 202.581783 
L 155.809627 191.693668 
L 156.460237 201.206173 
L 157.110847 205.382217 
L 157.761457 200.582426 
L 158.412068 199.392309 
L 159.062678 190.853231 
L 159.713288 207.710134 
L 160.363899 199.734819 
L 161.014509 195.673244 
L 161.665119 197.976322 
L 162.31573 184.800362 
L 162.96634 196.345785 
L 163.61695 199.743835 
L 164.267561 194.020397 
L 165.568781 199.709796 
L 166.870002 189.483059 
L 167.520612 199.103691 
L 168.821833 189.555498 
L 169.472443 193.448133 
L 170.123053 194.50903 
L 170.773664 188.468479 
L 171.424274 199.165988 
L 172.074884 186.995236 
L 172.725495 194.356809 
L 173.376105 189.093627 
L 174.026715 189.31507 
L 175.327936 185.064367 
L 175.978546 174.293506 
L 176.629156 175.771491 
L 177.279767 176.177832 
L 177.930377 164.41255 
L 178.580987 162.179403 
L 179.231598 149.174603 
L 179.882208 152.60669 
L 180.532818 167.374028 
L 181.183429 160.955384 
L 181.834039 147.958178 
L 182.484649 159.600557 
L 183.13526 155.855028 
L 183.78587 154.735122 
L 184.43648 140.556125 
L 185.737701 147.077113 
L 186.388311 133.088727 
L 187.038921 152.376779 
L 187.689532 145.488505 
L 188.340142 142.326127 
L 188.990752 148.264988 
L 189.641363 142.923583 
L 190.291973 141.660668 
L 190.942583 150.804882 
L 191.593194 146.460453 
L 192.243804 150.905546 
L 193.545025 138.330691 
L 194.195635 141.767156 
L 194.846245 137.157328 
L 195.496856 131.705817 
L 196.147466 128.878803 
L 196.798076 118.369769 
L 197.448686 139.625047 
L 198.099297 147.107876 
L 198.749907 150.345253 
L 199.400517 167.282753 
L 200.051128 152.270304 
L 200.701738 149.476545 
L 201.352348 130.67151 
L 202.002959 165.508534 
L 202.653569 150.890032 
L 203.304179 148.639903 
L 203.95479 149.711293 
L 204.6054 166.287775 
L 205.25601 146.801103 
L 205.906621 153.236054 
L 206.557231 155.724765 
L 207.207841 172.28296 
L 207.858451 163.400922 
L 208.509062 158.259228 
L 209.159672 150.892911 
L 209.810282 160.254372 
L 210.460893 145.243705 
L 211.111503 152.36046 
L 211.762113 127.534292 
L 212.412724 127.133111 
L 213.063334 137.452909 
L 214.364555 122.451307 
L 215.015165 136.420293 
L 215.665775 134.445447 
L 216.316385 141.484301 
L 216.966996 130.562917 
L 217.617606 128.697421 
L 218.268216 120.291395 
L 218.918827 154.508681 
L 219.569437 143.273479 
L 220.220047 150.833687 
L 220.870658 125.720797 
L 221.521268 127.309415 
L 222.171878 133.217023 
L 222.822489 128.03929 
L 223.473099 130.306488 
L 224.123709 178.194673 
L 224.77432 148.296901 
L 225.42493 135.821439 
L 226.07554 149.92585 
L 226.72615 135.609998 
L 227.376761 129.483074 
L 228.027371 128.309046 
L 228.677981 137.95069 
L 229.328592 141.691987 
L 229.979202 131.504719 
L 230.629812 135.052522 
L 231.280423 140.375321 
L 231.931033 133.466855 
L 233.232254 123.727276 
L 233.882864 110.953898 
L 234.533474 113.980177 
L 235.184085 123.75592 
L 235.834695 126.308765 
L 236.485305 127.470553 
L 237.135915 112.018782 
L 237.786526 125.766955 
L 238.437136 124.336104 
L 239.087746 130.487038 
L 239.738357 128.267759 
L 240.388967 125.359142 
L 241.039577 120.808048 
L 241.690188 134.72361 
L 242.340798 131.496254 
L 242.991408 120.436108 
L 243.642019 119.093111 
L 244.292629 102.358311 
L 244.943239 119.3435 
L 245.59385 112.648051 
L 246.24446 100.57797 
L 246.89507 112.709184 
L 247.54568 105.421055 
L 248.196291 126.120255 
L 248.846901 127.519111 
L 249.497511 117.463716 
L 250.148122 100.411465 
L 250.798732 99.016204 
L 251.449342 102.579904 
L 252.099953 99.981153 
L 252.750563 105.622934 
L 253.401173 103.705061 
L 254.051784 98.107842 
L 254.702394 109.745551 
L 255.353004 111.985981 
L 256.003615 118.04361 
L 256.654225 110.361112 
L 257.304835 100.983734 
L 257.955445 109.98933 
L 258.606056 113.903052 
L 259.256666 104.522061 
L 259.907276 144.237494 
L 260.557887 134.101877 
L 261.208497 140.502703 
L 261.859107 122.961767 
L 262.509718 117.607851 
L 263.160328 125.038935 
L 263.810938 110.628764 
L 264.461549 120.479497 
L 265.112159 122.499343 
L 265.762769 133.889693 
L 266.413379 133.153798 
L 267.06399 115.118675 
L 267.7146 139.160525 
L 268.36521 126.363406 
L 269.015821 143.001076 
L 269.666431 117.535919 
L 270.317041 131.695246 
L 270.967652 133.527473 
L 271.618262 111.739015 
L 272.268872 120.074423 
L 272.919483 118.973242 
L 273.570093 120.181986 
L 274.220703 109.354517 
L 274.871314 125.80174 
L 275.521924 124.463012 
L 276.172534 115.300396 
L 276.823144 132.962486 
L 277.473755 108.675628 
L 278.124365 130.230703 
L 278.774975 122.165595 
L 280.076196 142.763597 
L 280.726806 106.078504 
L 281.377417 107.827523 
L 282.028027 113.911015 
L 282.678637 110.524959 
L 283.329248 84.595967 
L 283.979858 100.60447 
L 284.630468 105.495767 
L 285.281079 93.434812 
L 285.931689 96.198491 
L 286.582299 109.016615 
L 287.232909 103.467112 
L 287.88352 96.79479 
L 288.53413 124.090534 
L 289.18474 110.02109 
L 289.835351 103.108431 
L 290.485961 103.684186 
L 291.136571 99.61573 
L 291.787182 97.042412 
L 292.437792 95.00349 
L 293.088402 89.193896 
L 293.739013 88.214857 
L 294.389623 97.655116 
L 295.040233 111.793232 
L 295.690844 111.130832 
L 296.341454 101.894284 
L 296.992064 95.39658 
L 297.642674 108.076071 
L 298.293285 117.650885 
L 298.943895 110.757713 
L 299.594505 106.549247 
L 300.245116 124.404192 
L 300.895726 113.70562 
L 301.546336 105.567968 
L 302.196947 120.804165 
L 302.847557 114.318211 
L 303.498167 111.732157 
L 304.148778 99.788207 
L 304.799388 102.276946 
L 305.449998 95.536863 
L 306.100608 101.90539 
L 306.751219 100.334247 
L 307.401829 96.335928 
L 308.052439 98.624796 
L 308.70305 84.626683 
L 309.35366 86.83162 
L 310.00427 77.759215 
L 310.654881 97.921941 
L 311.305491 98.659051 
L 311.956101 100.112903 
L 312.606712 88.417983 
L 313.257322 103.847027 
L 313.907932 101.973248 
L 314.558543 97.396882 
L 315.209153 93.785668 
L 316.510373 101.424747 
L 317.160984 120.289122 
L 317.811594 103.421797 
L 318.462204 95.797212 
L 319.112815 101.582907 
L 319.763425 117.287966 
L 320.414035 118.087424 
L 321.064646 109.456744 
L 321.715256 127.46815 
L 322.365866 124.901771 
L 323.016477 111.999839 
L 323.667087 109.396638 
L 324.317697 109.993848 
L 324.968308 108.016951 
L 325.618918 103.978341 
L 326.269528 100.821171 
L 326.920138 88.471411 
L 327.570749 102.301596 
L 328.221359 113.176546 
L 328.871969 114.107885 
L 329.52258 127.358408 
L 330.17319 111.501936 
L 330.8238 114.6412 
L 331.474411 121.206026 
L 332.125021 120.406852 
L 332.775631 133.152073 
L 333.426242 127.759081 
L 334.727462 110.818382 
L 335.378073 115.303597 
L 336.028683 120.85822 
L 336.679293 135.37164 
L 337.329903 118.550992 
L 337.980514 121.777758 
L 338.631124 109.319119 
L 339.281734 102.419802 
L 339.932345 107.691076 
L 340.582955 93.042942 
L 341.233565 103.279452 
L 341.884176 108.15908 
L 342.534786 121.908975 
L 343.185396 111.763997 
L 343.836007 110.268282 
L 344.486617 121.746018 
L 345.137227 130.298036 
L 345.787837 124.982588 
L 346.438448 163.447556 
L 347.089058 129.339032 
L 347.739668 160.624504 
L 348.390279 127.638184 
L 349.040889 123.836846 
L 349.691499 143.021707 
L 350.34211 102.454307 
L 350.99272 100.058442 
L 351.64333 102.018673 
L 352.293941 129.869421 
L 352.944551 114.285211 
L 353.595161 103.774619 
L 354.245772 112.4867 
L 354.896382 111.439692 
L 355.546992 112.409622 
L 356.197602 130.052077 
L 356.848213 111.788064 
L 357.498823 119.621813 
L 358.149433 112.567532 
L 358.800044 111.824825 
L 359.450654 121.907313 
L 360.101264 113.14577 
L 360.751875 130.404985 
L 361.402485 132.546205 
L 362.053095 117.917423 
L 362.703706 123.373052 
L 363.354316 116.983832 
L 364.004926 114.253342 
L 364.655537 117.689416 
L 365.306147 109.340604 
L 365.956757 105.477415 
L 366.607367 120.108895 
L 367.257978 118.087471 
L 367.908588 125.866015 
L 368.559198 122.440996 
L 369.209809 119.765513 
L 369.860419 112.676713 
L 370.511029 137.066939 
L 371.16164 133.467561 
L 371.81225 132.469878 
L 372.46286 111.083027 
L 373.113471 127.17226 
L 373.764081 111.639294 
L 374.414691 114.431386 
L 375.065302 120.031579 
L 375.715912 118.417264 
L 376.366522 118.440544 
L 377.017132 123.800832 
L 377.667743 113.128334 
L 378.318353 128.831083 
L 378.968963 123.348891 
L 379.619574 113.771381 
L 380.270184 106.579028 
L 380.920794 147.527599 
L 381.571405 136.119372 
L 382.222015 137.768172 
L 382.872625 140.260243 
L 383.523236 135.779461 
L 384.173846 145.245513 
L 384.824456 126.319232 
L 385.475066 121.179618 
L 386.125677 119.637984 
L 386.776287 113.575642 
L 387.426897 119.848865 
L 388.077508 121.090814 
L 388.728118 117.847568 
L 389.378728 112.385789 
L 390.029339 110.569863 
L 390.679949 105.542947 
L 391.330559 113.189442 
L 391.98117 113.912505 
L 392.63178 137.722682 
L 393.28239 136.683468 
L 393.933001 133.116023 
L 394.583611 125.268185 
L 395.234221 125.218716 
L 395.884831 129.327185 
L 396.535442 164.200345 
L 397.186052 140.700191 
L 397.836662 155.237622 
L 398.487273 138.451627 
L 398.487273 138.451627 
" style="fill:none;stroke:#008000;stroke-dasharray:9.6,2.4,1.5,2.4;stroke-dashoffset:0;stroke-width:1.5;"/>
   </g>
   <g id="line2d_24">
    <path clip-path="url(#p68dcd8c0a6)" d="M 73.832727 239.807431 
L 74.483338 146.970754 
L 75.133948 168.481692 
L 75.784558 131.12059 
L 76.435169 148.668986 
L 77.085779 108.477498 
L 78.386999 147.536832 
L 79.03761 146.970754 
L 79.68822 167.349537 
L 80.33883 167.349537 
L 80.989441 149.235063 
L 81.640051 167.915614 
L 82.290661 148.102909 
L 82.941272 186.030088 
L 83.591882 184.331856 
L 84.242492 186.596165 
L 84.893103 184.331856 
L 85.543713 148.102909 
L 86.194323 216.032185 
L 86.844934 205.276716 
L 87.495544 129.988435 
L 88.146154 205.276716 
L 88.796764 185.46401 
L 89.447375 147.536832 
L 90.097985 210.371412 
L 90.748595 210.371412 
L 91.399206 204.710639 
L 92.049816 206.974948 
L 92.700426 206.974948 
L 93.351037 214.333953 
L 94.001647 165.651305 
L 94.652257 128.856281 
L 95.302868 149.235063 
L 95.953478 111.307884 
L 96.604088 145.8386 
L 97.254698 166.78346 
L 97.905309 148.102909 
L 98.555919 149.235063 
L 99.206529 148.102909 
L 99.85714 91.495179 
L 100.50775 91.495179 
L 101.15836 148.102909 
L 101.808971 147.536832 
L 102.459581 148.102909 
L 103.760802 111.307884 
L 104.411412 128.856281 
L 105.062022 90.929102 
L 105.712633 146.970754 
L 106.363243 92.061256 
L 107.013853 128.856281 
L 107.664463 148.102909 
L 108.315074 128.290203 
L 108.965684 130.554513 
L 109.616294 165.651305 
L 110.266905 111.307884 
L 110.917515 149.235063 
L 111.568125 110.741807 
L 113.519956 165.651305 
L 114.170567 148.102909 
L 114.821177 110.741807 
L 115.471787 129.988435 
L 116.122398 130.554513 
L 116.773008 109.609653 
L 117.423618 147.536832 
L 118.074228 129.988435 
L 118.724839 127.158049 
L 119.375449 128.856281 
L 120.026059 128.856281 
L 120.67667 165.651305 
L 121.32728 146.970754 
L 121.97789 111.873962 
L 122.628501 90.929102 
L 123.279111 111.307884 
L 123.929721 165.085228 
L 124.580332 109.043575 
L 125.230942 70.550319 
L 125.881552 149.235063 
L 126.532163 128.856281 
L 127.182773 129.422358 
L 127.833383 128.290203 
L 128.483993 128.856281 
L 129.134604 129.988435 
L 129.785214 109.609653 
L 130.435824 148.668986 
L 131.086435 146.970754 
L 131.737045 166.217382 
L 132.387655 128.290203 
L 133.038266 147.536832 
L 133.688876 110.17573 
L 134.339486 129.422358 
L 134.990097 129.422358 
L 135.640707 127.158049 
L 136.291317 165.651305 
L 136.941927 149.235063 
L 137.592538 148.668986 
L 138.243148 146.970754 
L 138.893758 146.970754 
L 140.194979 71.682474 
L 140.845589 128.290203 
L 141.4962 146.404677 
L 142.14681 129.422358 
L 142.79742 128.290203 
L 143.448031 129.422358 
L 144.098641 146.970754 
L 144.749251 130.554513 
L 145.399862 166.217382 
L 146.050472 146.970754 
L 146.701082 131.12059 
L 147.351692 147.536832 
L 148.002303 108.477498 
L 148.652913 128.290203 
L 149.303523 127.724126 
L 149.954134 130.554513 
L 150.604744 128.290203 
L 151.255354 129.422358 
L 151.905965 129.988435 
L 152.556575 167.349537 
L 153.207185 165.651305 
L 153.857796 147.536832 
L 154.508406 110.17573 
L 155.159016 128.856281 
L 155.809627 109.609653 
L 156.460237 147.536832 
L 157.110847 148.102909 
L 157.761457 128.856281 
L 158.412068 128.290203 
L 159.062678 128.290203 
L 159.713288 129.988435 
L 160.363899 128.856281 
L 161.014509 90.929102 
L 161.665119 110.741807 
L 162.31573 111.307884 
L 162.96634 128.856281 
L 163.61695 127.724126 
L 164.267561 90.929102 
L 164.918171 127.724126 
L 165.568781 92.061256 
L 166.219392 129.988435 
L 166.870002 128.856281 
L 167.520612 148.668986 
L 168.171222 149.235063 
L 168.821833 147.536832 
L 169.472443 129.422358 
L 170.123053 146.970754 
L 170.773664 129.422358 
L 171.424274 129.422358 
L 172.074884 90.363024 
L 172.725495 139.045672 
L 173.376105 128.290203 
L 174.026715 109.609653 
L 174.677326 148.102909 
L 175.327936 56.964464 
L 175.978546 93.193411 
L 176.629156 83.570097 
L 177.279767 109.609653 
L 177.930377 92.627334 
L 178.580987 93.193411 
L 179.231598 89.23087 
L 179.882208 58.662696 
L 180.532818 76.777169 
L 181.183429 86.966561 
L 181.834039 83.00402 
L 182.484649 73.946783 
L 183.78587 80.73971 
L 184.43648 78.475401 
L 185.087091 65.455623 
L 185.737701 64.889546 
L 186.388311 76.211092 
L 187.038921 83.00402 
L 187.689532 62.059159 
L 188.340142 56.964464 
L 188.990752 81.305788 
L 189.641363 60.360928 
L 190.291973 58.662696 
L 190.942583 58.096618 
L 191.593194 76.211092 
L 192.243804 83.570097 
L 192.894414 68.852087 
L 193.545025 58.662696 
L 194.195635 75.645015 
L 194.846245 82.437942 
L 195.496856 73.946783 
L 196.147466 84.136174 
L 196.798076 55.832309 
L 197.448686 62.625237 
L 198.099297 76.777169 
L 198.749907 82.437942 
L 199.400517 95.45772 
L 200.051128 98.288107 
L 200.701738 62.625237 
L 201.352348 77.909324 
L 202.002959 87.532638 
L 202.653569 99.986338 
L 203.304179 76.777169 
L 203.95479 61.493082 
L 204.6054 76.777169 
L 205.25601 81.305788 
L 205.906621 82.437942 
L 206.557231 63.191314 
L 207.207841 77.343247 
L 207.858451 64.323469 
L 208.509062 79.041478 
L 209.159672 79.041478 
L 210.460893 75.645015 
L 211.111503 75.078937 
L 211.762113 58.096618 
L 212.412724 68.28601 
L 213.063334 58.662696 
L 213.713944 55.266232 
L 214.364555 77.909324 
L 215.015165 76.777169 
L 215.665775 94.891643 
L 216.316385 79.607556 
L 216.966996 77.909324 
L 217.617606 81.305788 
L 218.268216 60.360928 
L 218.918827 60.927005 
L 219.569437 58.096618 
L 220.220047 82.437942 
L 220.870658 59.228773 
L 221.521268 58.096618 
L 222.171878 79.607556 
L 222.822489 77.343247 
L 223.473099 55.832309 
L 224.123709 62.625237 
L 224.77432 78.475401 
L 225.42493 55.832309 
L 226.07554 83.00402 
L 226.72615 67.719932 
L 227.376761 57.530541 
L 228.027371 77.909324 
L 229.328592 76.777169 
L 229.979202 60.927005 
L 230.629812 58.662696 
L 231.280423 58.662696 
L 231.931033 56.398386 
L 232.581643 58.662696 
L 233.232254 59.228773 
L 233.882864 61.493082 
L 234.533474 64.323469 
L 235.184085 58.662696 
L 235.834695 84.136174 
L 236.485305 78.475401 
L 237.135915 63.191314 
L 237.786526 75.078937 
L 238.437136 79.041478 
L 239.738357 75.645015 
L 240.388967 77.909324 
L 241.039577 56.398386 
L 241.690188 66.021701 
L 242.340798 61.493082 
L 242.991408 60.360928 
L 243.642019 62.059159 
L 244.292629 58.096618 
L 244.943239 56.398386 
L 245.59385 56.398386 
L 246.24446 58.662696 
L 246.89507 60.360928 
L 247.54568 60.927005 
L 248.196291 59.79485 
L 248.846901 59.228773 
L 249.497511 60.360928 
L 250.148122 56.964464 
L 250.798732 58.096618 
L 251.449342 69.984242 
L 252.099953 60.360928 
L 252.750563 58.662696 
L 253.401173 54.700155 
L 254.051784 62.625237 
L 254.702394 57.530541 
L 255.353004 57.530541 
L 256.003615 59.228773 
L 256.654225 59.228773 
L 257.304835 56.964464 
L 257.955445 57.530541 
L 258.606056 56.398386 
L 259.256666 56.964464 
L 259.907276 59.228773 
L 260.557887 57.530541 
L 261.208497 57.530541 
L 261.859107 59.228773 
L 262.509718 61.493082 
L 263.160328 55.266232 
L 263.810938 59.228773 
L 264.461549 56.398386 
L 265.112159 56.964464 
L 265.762769 56.964464 
L 266.413379 63.757391 
L 267.06399 59.79485 
L 267.7146 58.096618 
L 268.36521 60.927005 
L 269.015821 57.530541 
L 269.666431 58.096618 
L 270.317041 61.493082 
L 270.967652 56.964464 
L 271.618262 76.211092 
L 272.268872 59.228773 
L 272.919483 60.927005 
L 273.570093 55.832309 
L 274.220703 58.662696 
L 274.871314 54.134077 
L 275.521924 59.79485 
L 276.172534 56.964464 
L 276.823144 63.191314 
L 277.473755 56.964464 
L 278.124365 58.662696 
L 278.774975 57.530541 
L 279.425586 55.266232 
L 280.076196 60.927005 
L 280.726806 55.266232 
L 281.377417 58.096618 
L 282.028027 75.645015 
L 282.678637 59.228773 
L 283.329248 57.530541 
L 284.630468 57.530541 
L 285.281079 56.398386 
L 285.931689 56.398386 
L 286.582299 60.927005 
L 287.232909 56.964464 
L 287.88352 56.964464 
L 288.53413 63.757391 
L 289.18474 59.228773 
L 289.835351 59.228773 
L 290.485961 56.964464 
L 291.136571 53.568 
L 291.787182 57.530541 
L 292.437792 57.530541 
L 293.088402 58.096618 
L 293.739013 55.832309 
L 294.389623 58.096618 
L 295.040233 56.398386 
L 295.690844 58.662696 
L 296.341454 56.398386 
L 296.992064 57.530541 
L 297.642674 55.266232 
L 298.943895 56.398386 
L 299.594505 59.228773 
L 300.245116 56.964464 
L 301.546336 56.964464 
L 302.196947 58.096618 
L 303.498167 56.964464 
L 304.799388 59.228773 
L 305.449998 55.266232 
L 306.751219 56.398386 
L 307.401829 60.927005 
L 308.70305 57.530541 
L 309.35366 58.096618 
L 310.00427 57.530541 
L 311.305491 57.530541 
L 311.956101 59.228773 
L 313.257322 55.832309 
L 313.907932 55.832309 
L 314.558543 59.79485 
L 315.209153 56.964464 
L 316.510373 58.096618 
L 317.160984 59.228773 
L 317.811594 58.096618 
L 318.462204 58.096618 
L 319.112815 56.398386 
L 319.763425 62.059159 
L 320.414035 56.964464 
L 321.715256 56.964464 
L 322.365866 59.228773 
L 323.016477 55.266232 
L 323.667087 60.360928 
L 324.317697 61.493082 
L 324.968308 58.662696 
L 325.618918 55.266232 
L 326.269528 57.530541 
L 326.920138 59.228773 
L 327.570749 56.964464 
L 328.221359 54.134077 
L 328.871969 56.964464 
L 329.52258 60.360928 
L 330.17319 59.228773 
L 330.8238 55.266232 
L 331.474411 56.398386 
L 332.125021 56.964464 
L 332.775631 56.398386 
L 333.426242 58.662696 
L 334.076852 62.059159 
L 334.727462 56.398386 
L 335.378073 57.530541 
L 336.028683 55.832309 
L 336.679293 64.889546 
L 337.329903 58.096618 
L 337.980514 58.662696 
L 338.631124 61.493082 
L 339.281734 59.79485 
L 339.932345 56.398386 
L 340.582955 56.964464 
L 341.233565 55.832309 
L 341.884176 59.228773 
L 342.534786 57.530541 
L 343.185396 56.398386 
L 343.836007 58.662696 
L 344.486617 59.228773 
L 345.137227 56.964464 
L 346.438448 60.360928 
L 347.089058 54.134077 
L 347.739668 77.909324 
L 348.390279 58.096618 
L 349.040889 57.530541 
L 349.691499 58.662696 
L 350.34211 54.700155 
L 350.99272 55.832309 
L 351.64333 54.700155 
L 352.293941 60.360928 
L 352.944551 56.964464 
L 354.245772 59.228773 
L 354.896382 55.266232 
L 355.546992 60.927005 
L 356.197602 56.398386 
L 356.848213 59.79485 
L 357.498823 58.096618 
L 358.149433 58.096618 
L 359.450654 56.964464 
L 360.101264 59.228773 
L 360.751875 60.360928 
L 361.402485 76.211092 
L 362.053095 58.662696 
L 362.703706 58.662696 
L 363.354316 59.79485 
L 364.004926 57.530541 
L 364.655537 56.398386 
L 365.306147 56.398386 
L 365.956757 59.79485 
L 367.257978 58.662696 
L 367.908588 59.79485 
L 368.559198 76.211092 
L 369.209809 59.228773 
L 369.860419 59.228773 
L 370.511029 57.530541 
L 371.16164 62.625237 
L 371.81225 59.79485 
L 372.46286 58.096618 
L 373.113471 58.662696 
L 373.764081 57.530541 
L 374.414691 59.79485 
L 375.065302 58.662696 
L 375.715912 60.360928 
L 376.366522 55.266232 
L 377.017132 60.927005 
L 377.667743 62.059159 
L 378.318353 58.096618 
L 378.968963 56.398386 
L 379.619574 76.777169 
L 380.270184 59.228773 
L 380.920794 58.096618 
L 381.571405 58.662696 
L 382.222015 58.096618 
L 383.523236 60.360928 
L 384.173846 77.343247 
L 384.824456 58.662696 
L 385.475066 56.964464 
L 386.125677 56.398386 
L 386.776287 60.360928 
L 388.077508 58.096618 
L 389.378728 59.228773 
L 390.029339 58.662696 
L 390.679949 58.662696 
L 391.330559 57.530541 
L 391.98117 59.228773 
L 392.63178 60.360928 
L 393.28239 56.964464 
L 393.933001 55.266232 
L 394.583611 56.964464 
L 395.234221 55.832309 
L 395.884831 62.625237 
L 396.535442 54.700155 
L 397.186052 55.832309 
L 397.836662 79.607556 
L 398.487273 59.228773 
L 398.487273 59.228773 
" style="fill:none;stroke:#ff0000;stroke-linecap:square;stroke-width:1.5;"/>
   </g>
   <g id="patch_3">
    <path d="M 57.6 307.584 
L 57.6 41.472 
" style="fill:none;stroke:#000000;stroke-linecap:square;stroke-linejoin:miter;stroke-width:0.8;"/>
   </g>
   <g id="patch_4">
    <path d="M 414.72 307.584 
L 414.72 41.472 
" style="fill:none;stroke:#000000;stroke-linecap:square;stroke-linejoin:miter;stroke-width:0.8;"/>
   </g>
   <g id="patch_5">
    <path d="M 57.6 307.584 
L 414.72 307.584 
" style="fill:none;stroke:#000000;stroke-linecap:square;stroke-linejoin:miter;stroke-width:0.8;"/>
   </g>
   <g id="patch_6">
    <path d="M 57.6 41.472 
L 414.72 41.472 
" style="fill:none;stroke:#000000;stroke-linecap:square;stroke-linejoin:miter;stroke-width:0.8;"/>
   </g>
   <g id="text_13">
    <!-- Population's average and best fitness -->
    <g transform="translate(123.529687 35.472)scale(0.12 -0.12)">
     <defs>
      <path d="M 19.671875 64.796875 
L 19.671875 37.40625 
L 32.078125 37.40625 
Q 38.96875 37.40625 42.71875 40.96875 
Q 46.484375 44.53125 46.484375 51.125 
Q 46.484375 57.671875 42.71875 61.234375 
Q 38.96875 64.796875 32.078125 64.796875 
z
M 9.8125 72.90625 
L 32.078125 72.90625 
Q 44.34375 72.90625 50.609375 67.359375 
Q 56.890625 61.8125 56.890625 51.125 
Q 56.890625 40.328125 50.609375 34.8125 
Q 44.34375 29.296875 32.078125 29.296875 
L 19.671875 29.296875 
L 19.671875 0 
L 9.8125 0 
z
" id="DejaVuSans-80"/>
      <path d="M 18.109375 8.203125 
L 18.109375 -20.796875 
L 9.078125 -20.796875 
L 9.078125 54.6875 
L 18.109375 54.6875 
L 18.109375 46.390625 
Q 20.953125 51.265625 25.265625 53.625 
Q 29.59375 56 35.59375 56 
Q 45.5625 56 51.78125 48.09375 
Q 58.015625 40.1875 58.015625 27.296875 
Q 58.015625 14.40625 51.78125 6.484375 
Q 45.5625 -1.421875 35.59375 -1.421875 
Q 29.59375 -1.421875 25.265625 0.953125 
Q 20.953125 3.328125 18.109375 8.203125 
z
M 48.6875 27.296875 
Q 48.6875 37.203125 44.609375 42.84375 
Q 40.53125 48.484375 33.40625 48.484375 
Q 26.265625 48.484375 22.1875 42.84375 
Q 18.109375 37.203125 18.109375 27.296875 
Q 18.109375 17.390625 22.1875 11.75 
Q 26.265625 6.109375 33.40625 6.109375 
Q 40.53125 6.109375 44.609375 11.75 
Q 48.6875 17.390625 48.6875 27.296875 
z
" id="DejaVuSans-112"/>
      <path d="M 8.5 21.578125 
L 8.5 54.6875 
L 17.484375 54.6875 
L 17.484375 21.921875 
Q 17.484375 14.15625 20.5 10.265625 
Q 23.53125 6.390625 29.59375 6.390625 
Q 36.859375 6.390625 41.078125 11.03125 
Q 45.3125 15.671875 45.3125 23.6875 
L 45.3125 54.6875 
L 54.296875 54.6875 
L 54.296875 0 
L 45.3125 0 
L 45.3125 8.40625 
Q 42.046875 3.421875 37.71875 1 
Q 33.40625 -1.421875 27.6875 -1.421875 
Q 18.265625 -1.421875 13.375 4.4375 
Q 8.5 10.296875 8.5 21.578125 
z
M 31.109375 56 
z
" id="DejaVuSans-117"/>
      <path d="M 9.421875 75.984375 
L 18.40625 75.984375 
L 18.40625 0 
L 9.421875 0 
z
" id="DejaVuSans-108"/>
      <path d="M 17.921875 72.90625 
L 17.921875 45.796875 
L 9.625 45.796875 
L 9.625 72.90625 
z
" id="DejaVuSans-39"/>
      <path id="DejaVuSans-32"/>
      <path d="M 2.984375 54.6875 
L 12.5 54.6875 
L 29.59375 8.796875 
L 46.6875 54.6875 
L 56.203125 54.6875 
L 35.6875 0 
L 23.484375 0 
z
" id="DejaVuSans-118"/>
      <path d="M 45.40625 27.984375 
Q 45.40625 37.75 41.375 43.109375 
Q 37.359375 48.484375 30.078125 48.484375 
Q 22.859375 48.484375 18.828125 43.109375 
Q 14.796875 37.75 14.796875 27.984375 
Q 14.796875 18.265625 18.828125 12.890625 
Q 22.859375 7.515625 30.078125 7.515625 
Q 37.359375 7.515625 41.375 12.890625 
Q 45.40625 18.265625 45.40625 27.984375 
z
M 54.390625 6.78125 
Q 54.390625 -7.171875 48.1875 -13.984375 
Q 42 -20.796875 29.203125 -20.796875 
Q 24.46875 -20.796875 20.265625 -20.09375 
Q 16.0625 -19.390625 12.109375 -17.921875 
L 12.109375 -9.1875 
Q 16.0625 -11.328125 19.921875 -12.34375 
Q 23.78125 -13.375 27.78125 -13.375 
Q 36.625 -13.375 41.015625 -8.765625 
Q 45.40625 -4.15625 45.40625 5.171875 
L 45.40625 9.625 
Q 42.625 4.78125 38.28125 2.390625 
Q 33.9375 0 27.875 0 
Q 17.828125 0 11.671875 7.65625 
Q 5.515625 15.328125 5.515625 27.984375 
Q 5.515625 40.671875 11.671875 48.328125 
Q 17.828125 56 27.875 56 
Q 33.9375 56 38.28125 53.609375 
Q 42.625 51.21875 45.40625 46.390625 
L 45.40625 54.6875 
L 54.390625 54.6875 
z
" id="DejaVuSans-103"/>
      <path d="M 45.40625 46.390625 
L 45.40625 75.984375 
L 54.390625 75.984375 
L 54.390625 0 
L 45.40625 0 
L 45.40625 8.203125 
Q 42.578125 3.328125 38.25 0.953125 
Q 33.9375 -1.421875 27.875 -1.421875 
Q 17.96875 -1.421875 11.734375 6.484375 
Q 5.515625 14.40625 5.515625 27.296875 
Q 5.515625 40.1875 11.734375 48.09375 
Q 17.96875 56 27.875 56 
Q 33.9375 56 38.25 53.625 
Q 42.578125 51.265625 45.40625 46.390625 
z
M 14.796875 27.296875 
Q 14.796875 17.390625 18.875 11.75 
Q 22.953125 6.109375 30.078125 6.109375 
Q 37.203125 6.109375 41.296875 11.75 
Q 45.40625 17.390625 45.40625 27.296875 
Q 45.40625 37.203125 41.296875 42.84375 
Q 37.203125 48.484375 30.078125 48.484375 
Q 22.953125 48.484375 18.875 42.84375 
Q 14.796875 37.203125 14.796875 27.296875 
z
" id="DejaVuSans-100"/>
      <path d="M 48.6875 27.296875 
Q 48.6875 37.203125 44.609375 42.84375 
Q 40.53125 48.484375 33.40625 48.484375 
Q 26.265625 48.484375 22.1875 42.84375 
Q 18.109375 37.203125 18.109375 27.296875 
Q 18.109375 17.390625 22.1875 11.75 
Q 26.265625 6.109375 33.40625 6.109375 
Q 40.53125 6.109375 44.609375 11.75 
Q 48.6875 17.390625 48.6875 27.296875 
z
M 18.109375 46.390625 
Q 20.953125 51.265625 25.265625 53.625 
Q 29.59375 56 35.59375 56 
Q 45.5625 56 51.78125 48.09375 
Q 58.015625 40.1875 58.015625 27.296875 
Q 58.015625 14.40625 51.78125 6.484375 
Q 45.5625 -1.421875 35.59375 -1.421875 
Q 29.59375 -1.421875 25.265625 0.953125 
Q 20.953125 3.328125 18.109375 8.203125 
L 18.109375 0 
L 9.078125 0 
L 9.078125 75.984375 
L 18.109375 75.984375 
z
" id="DejaVuSans-98"/>
      <path d="M 37.109375 75.984375 
L 37.109375 68.5 
L 28.515625 68.5 
Q 23.6875 68.5 21.796875 66.546875 
Q 19.921875 64.59375 19.921875 59.515625 
L 19.921875 54.6875 
L 34.71875 54.6875 
L 34.71875 47.703125 
L 19.921875 47.703125 
L 19.921875 0 
L 10.890625 0 
L 10.890625 47.703125 
L 2.296875 47.703125 
L 2.296875 54.6875 
L 10.890625 54.6875 
L 10.890625 58.5 
Q 10.890625 67.625 15.140625 71.796875 
Q 19.390625 75.984375 28.609375 75.984375 
z
" id="DejaVuSans-102"/>
     </defs>
     <use xlink:href="#DejaVuSans-80"/>
     <use x="56.677734" xlink:href="#DejaVuSans-111"/>
     <use x="117.859375" xlink:href="#DejaVuSans-112"/>
     <use x="181.335938" xlink:href="#DejaVuSans-117"/>
     <use x="244.714844" xlink:href="#DejaVuSans-108"/>
     <use x="272.498047" xlink:href="#DejaVuSans-97"/>
     <use x="333.777344" xlink:href="#DejaVuSans-116"/>
     <use x="372.986328" xlink:href="#DejaVuSans-105"/>
     <use x="400.769531" xlink:href="#DejaVuSans-111"/>
     <use x="461.951172" xlink:href="#DejaVuSans-110"/>
     <use x="525.330078" xlink:href="#DejaVuSans-39"/>
     <use x="552.820312" xlink:href="#DejaVuSans-115"/>
     <use x="604.919922" xlink:href="#DejaVuSans-32"/>
     <use x="636.707031" xlink:href="#DejaVuSans-97"/>
     <use x="697.986328" xlink:href="#DejaVuSans-118"/>
     <use x="757.166016" xlink:href="#DejaVuSans-101"/>
     <use x="818.689453" xlink:href="#DejaVuSans-114"/>
     <use x="859.802734" xlink:href="#DejaVuSans-97"/>
     <use x="921.082031" xlink:href="#DejaVuSans-103"/>
     <use x="984.558594" xlink:href="#DejaVuSans-101"/>
     <use x="1046.082031" xlink:href="#DejaVuSans-32"/>
     <use x="1077.869141" xlink:href="#DejaVuSans-97"/>
     <use x="1139.148438" xlink:href="#DejaVuSans-110"/>
     <use x="1202.527344" xlink:href="#DejaVuSans-100"/>
     <use x="1266.003906" xlink:href="#DejaVuSans-32"/>
     <use x="1297.791016" xlink:href="#DejaVuSans-98"/>
     <use x="1361.267578" xlink:href="#DejaVuSans-101"/>
     <use x="1422.791016" xlink:href="#DejaVuSans-115"/>
     <use x="1474.890625" xlink:href="#DejaVuSans-116"/>
     <use x="1514.099609" xlink:href="#DejaVuSans-32"/>
     <use x="1545.886719" xlink:href="#DejaVuSans-102"/>
     <use x="1581.091797" xlink:href="#DejaVuSans-105"/>
     <use x="1608.875" xlink:href="#DejaVuSans-116"/>
     <use x="1648.083984" xlink:href="#DejaVuSans-110"/>
     <use x="1711.462891" xlink:href="#DejaVuSans-101"/>
     <use x="1772.986328" xlink:href="#DejaVuSans-115"/>
     <use x="1825.085938" xlink:href="#DejaVuSans-115"/>
    </g>
   </g>
   <g id="legend_1">
    <g id="patch_7">
     <path d="M 64.6 108.1845 
L 137.540625 108.1845 
Q 139.540625 108.1845 139.540625 106.1845 
L 139.540625 48.472 
Q 139.540625 46.472 137.540625 46.472 
L 64.6 46.472 
Q 62.6 46.472 62.6 48.472 
L 62.6 106.1845 
Q 62.6 108.1845 64.6 108.1845 
z
" style="fill:#ffffff;opacity:0.8;stroke:#cccccc;stroke-linejoin:miter;"/>
    </g>
    <g id="line2d_25">
     <path d="M 66.6 54.570438 
L 86.6 54.570438 
" style="fill:none;stroke:#0000ff;stroke-linecap:square;stroke-width:1.5;"/>
    </g>
    <g id="line2d_26"/>
    <g id="text_14">
     <!-- average -->
     <g transform="translate(94.6 58.070438)scale(0.1 -0.1)">
      <use xlink:href="#DejaVuSans-97"/>
      <use x="61.279297" xlink:href="#DejaVuSans-118"/>
      <use x="120.458984" xlink:href="#DejaVuSans-101"/>
      <use x="181.982422" xlink:href="#DejaVuSans-114"/>
      <use x="223.095703" xlink:href="#DejaVuSans-97"/>
      <use x="284.375" xlink:href="#DejaVuSans-103"/>
      <use x="347.851562" xlink:href="#DejaVuSans-101"/>
     </g>
    </g>
    <g id="line2d_27">
     <path d="M 66.6 69.248563 
L 86.6 69.248563 
" style="fill:none;stroke:#008000;stroke-dasharray:9.6,2.4,1.5,2.4;stroke-dashoffset:0;stroke-width:1.5;"/>
    </g>
    <g id="line2d_28"/>
    <g id="text_15">
     <!-- -1 sd -->
     <g transform="translate(94.6 72.748563)scale(0.1 -0.1)">
      <defs>
       <path d="M 4.890625 31.390625 
L 31.203125 31.390625 
L 31.203125 23.390625 
L 4.890625 23.390625 
z
" id="DejaVuSans-45"/>
      </defs>
      <use xlink:href="#DejaVuSans-45"/>
      <use x="36.083984" xlink:href="#DejaVuSans-49"/>
      <use x="99.707031" xlink:href="#DejaVuSans-32"/>
      <use x="131.494141" xlink:href="#DejaVuSans-115"/>
      <use x="183.59375" xlink:href="#DejaVuSans-100"/>
     </g>
    </g>
    <g id="line2d_29">
     <path d="M 66.6 83.926688 
L 86.6 83.926688 
" style="fill:none;stroke:#008000;stroke-dasharray:9.6,2.4,1.5,2.4;stroke-dashoffset:0;stroke-width:1.5;"/>
    </g>
    <g id="line2d_30"/>
    <g id="text_16">
     <!-- +1 sd -->
     <g transform="translate(94.6 87.426688)scale(0.1 -0.1)">
      <defs>
       <path d="M 46 62.703125 
L 46 35.5 
L 73.1875 35.5 
L 73.1875 27.203125 
L 46 27.203125 
L 46 0 
L 37.796875 0 
L 37.796875 27.203125 
L 10.59375 27.203125 
L 10.59375 35.5 
L 37.796875 35.5 
L 37.796875 62.703125 
z
" id="DejaVuSans-43"/>
      </defs>
      <use xlink:href="#DejaVuSans-43"/>
      <use x="83.789062" xlink:href="#DejaVuSans-49"/>
      <use x="147.412109" xlink:href="#DejaVuSans-32"/>
      <use x="179.199219" xlink:href="#DejaVuSans-115"/>
      <use x="231.298828" xlink:href="#DejaVuSans-100"/>
     </g>
    </g>
    <g id="line2d_31">
     <path d="M 66.6 98.604813 
L 86.6 98.604813 
" style="fill:none;stroke:#ff0000;stroke-linecap:square;stroke-width:1.5;"/>
    </g>
    <g id="line2d_32"/>
    <g id="text_17">
     <!-- best -->
     <g transform="translate(94.6 102.104813)scale(0.1 -0.1)">
      <use xlink:href="#DejaVuSans-98"/>
      <use x="63.476562" xlink:href="#DejaVuSans-101"/>
      <use x="125" xlink:href="#DejaVuSans-115"/>
      <use x="177.099609" xlink:href="#DejaVuSans-116"/>
     </g>
    </g>
   </g>
  </g>
 </g>
 <defs>
  <clipPath id="p68dcd8c0a6">
   <rect height="266.112" width="357.12" x="57.6" y="41.472"/>
  </clipPath>
 </defs>
</svg>
