<?xml version="1.0" encoding="utf-8" standalone="no"?>
<!DOCTYPE svg PUBLIC "-//W3C//DTD SVG 1.1//EN"
  "http://www.w3.org/Graphics/SVG/1.1/DTD/svg11.dtd">
<!-- Created with matplotlib (https://matplotlib.org/) -->
<svg height="345.6pt" version="1.1" viewBox="0 0 460.8 345.6" width="460.8pt" xmlns="http://www.w3.org/2000/svg" xmlns:xlink="http://www.w3.org/1999/xlink">
 <metadata>
  <rdf:RDF xmlns:cc="http://creativecommons.org/ns#" xmlns:dc="http://purl.org/dc/elements/1.1/" xmlns:rdf="http://www.w3.org/1999/02/22-rdf-syntax-ns#">
   <cc:Work>
    <dc:type rdf:resource="http://purl.org/dc/dcmitype/StillImage"/>
    <dc:date>2021-06-15T22:20:09.981841</dc:date>
    <dc:format>image/svg+xml</dc:format>
    <dc:creator>
     <cc:Agent>
      <dc:title>Matplotlib v3.3.0, https://matplotlib.org/</dc:title>
     </cc:Agent>
    </dc:creator>
   </cc:Work>
  </rdf:RDF>
 </metadata>
 <defs>
  <style type="text/css">*{stroke-linecap:butt;stroke-linejoin:round;}</style>
 </defs>
 <g id="figure_1">
  <g id="patch_1">
   <path d="M 0 345.6 
L 460.8 345.6 
L 460.8 0 
L 0 0 
z
" style="fill:#ffffff;"/>
  </g>
  <g id="axes_1">
   <g id="patch_2">
    <path d="M 57.6 307.584 
L 414.72 307.584 
L 414.72 41.472 
L 57.6 41.472 
z
" style="fill:#ffffff;"/>
   </g>
   <g id="matplotlib.axis_1">
    <g id="xtick_1">
     <g id="line2d_1">
      <path clip-path="url(#p73b46606cc)" d="M 73.832727 307.584 
L 73.832727 41.472 
" style="fill:none;stroke:#b0b0b0;stroke-linecap:square;stroke-width:0.8;"/>
     </g>
     <g id="line2d_2">
      <defs>
       <path d="M 0 0 
L 0 3.5 
" id="m8eb9dec7ff" style="stroke:#000000;stroke-width:0.8;"/>
      </defs>
      <g>
       <use style="stroke:#000000;stroke-width:0.8;" x="73.832727" xlink:href="#m8eb9dec7ff" y="307.584"/>
      </g>
     </g>
     <g id="text_1">
      <!-- 0 -->
      <g transform="translate(70.651477 322.182437)scale(0.1 -0.1)">
       <defs>
        <path d="M 31.78125 66.40625 
Q 24.171875 66.40625 20.328125 58.90625 
Q 16.5 51.421875 16.5 36.375 
Q 16.5 21.390625 20.328125 13.890625 
Q 24.171875 6.390625 31.78125 6.390625 
Q 39.453125 6.390625 43.28125 13.890625 
Q 47.125 21.390625 47.125 36.375 
Q 47.125 51.421875 43.28125 58.90625 
Q 39.453125 66.40625 31.78125 66.40625 
z
M 31.78125 74.21875 
Q 44.046875 74.21875 50.515625 64.515625 
Q 56.984375 54.828125 56.984375 36.375 
Q 56.984375 17.96875 50.515625 8.265625 
Q 44.046875 -1.421875 31.78125 -1.421875 
Q 19.53125 -1.421875 13.0625 8.265625 
Q 6.59375 17.96875 6.59375 36.375 
Q 6.59375 54.828125 13.0625 64.515625 
Q 19.53125 74.21875 31.78125 74.21875 
z
" id="DejaVuSans-48"/>
       </defs>
       <use xlink:href="#DejaVuSans-48"/>
      </g>
     </g>
    </g>
    <g id="xtick_2">
     <g id="line2d_3">
      <path clip-path="url(#p73b46606cc)" d="M 138.893758 307.584 
L 138.893758 41.472 
" style="fill:none;stroke:#b0b0b0;stroke-linecap:square;stroke-width:0.8;"/>
     </g>
     <g id="line2d_4">
      <g>
       <use style="stroke:#000000;stroke-width:0.8;" x="138.893758" xlink:href="#m8eb9dec7ff" y="307.584"/>
      </g>
     </g>
     <g id="text_2">
      <!-- 100 -->
      <g transform="translate(129.350008 322.182437)scale(0.1 -0.1)">
       <defs>
        <path d="M 12.40625 8.296875 
L 28.515625 8.296875 
L 28.515625 63.921875 
L 10.984375 60.40625 
L 10.984375 69.390625 
L 28.421875 72.90625 
L 38.28125 72.90625 
L 38.28125 8.296875 
L 54.390625 8.296875 
L 54.390625 0 
L 12.40625 0 
z
" id="DejaVuSans-49"/>
       </defs>
       <use xlink:href="#DejaVuSans-49"/>
       <use x="63.623047" xlink:href="#DejaVuSans-48"/>
       <use x="127.246094" xlink:href="#DejaVuSans-48"/>
      </g>
     </g>
    </g>
    <g id="xtick_3">
     <g id="line2d_5">
      <path clip-path="url(#p73b46606cc)" d="M 203.95479 307.584 
L 203.95479 41.472 
" style="fill:none;stroke:#b0b0b0;stroke-linecap:square;stroke-width:0.8;"/>
     </g>
     <g id="line2d_6">
      <g>
       <use style="stroke:#000000;stroke-width:0.8;" x="203.95479" xlink:href="#m8eb9dec7ff" y="307.584"/>
      </g>
     </g>
     <g id="text_3">
      <!-- 200 -->
      <g transform="translate(194.41104 322.182437)scale(0.1 -0.1)">
       <defs>
        <path d="M 19.1875 8.296875 
L 53.609375 8.296875 
L 53.609375 0 
L 7.328125 0 
L 7.328125 8.296875 
Q 12.9375 14.109375 22.625 23.890625 
Q 32.328125 33.6875 34.8125 36.53125 
Q 39.546875 41.84375 41.421875 45.53125 
Q 43.3125 49.21875 43.3125 52.78125 
Q 43.3125 58.59375 39.234375 62.25 
Q 35.15625 65.921875 28.609375 65.921875 
Q 23.96875 65.921875 18.8125 64.3125 
Q 13.671875 62.703125 7.8125 59.421875 
L 7.8125 69.390625 
Q 13.765625 71.78125 18.9375 73 
Q 24.125 74.21875 28.421875 74.21875 
Q 39.75 74.21875 46.484375 68.546875 
Q 53.21875 62.890625 53.21875 53.421875 
Q 53.21875 48.921875 51.53125 44.890625 
Q 49.859375 40.875 45.40625 35.40625 
Q 44.1875 33.984375 37.640625 27.21875 
Q 31.109375 20.453125 19.1875 8.296875 
z
" id="DejaVuSans-50"/>
       </defs>
       <use xlink:href="#DejaVuSans-50"/>
       <use x="63.623047" xlink:href="#DejaVuSans-48"/>
       <use x="127.246094" xlink:href="#DejaVuSans-48"/>
      </g>
     </g>
    </g>
    <g id="xtick_4">
     <g id="line2d_7">
      <path clip-path="url(#p73b46606cc)" d="M 269.015821 307.584 
L 269.015821 41.472 
" style="fill:none;stroke:#b0b0b0;stroke-linecap:square;stroke-width:0.8;"/>
     </g>
     <g id="line2d_8">
      <g>
       <use style="stroke:#000000;stroke-width:0.8;" x="269.015821" xlink:href="#m8eb9dec7ff" y="307.584"/>
      </g>
     </g>
     <g id="text_4">
      <!-- 300 -->
      <g transform="translate(259.472071 322.182437)scale(0.1 -0.1)">
       <defs>
        <path d="M 40.578125 39.3125 
Q 47.65625 37.796875 51.625 33 
Q 55.609375 28.21875 55.609375 21.1875 
Q 55.609375 10.40625 48.1875 4.484375 
Q 40.765625 -1.421875 27.09375 -1.421875 
Q 22.515625 -1.421875 17.65625 -0.515625 
Q 12.796875 0.390625 7.625 2.203125 
L 7.625 11.71875 
Q 11.71875 9.328125 16.59375 8.109375 
Q 21.484375 6.890625 26.8125 6.890625 
Q 36.078125 6.890625 40.9375 10.546875 
Q 45.796875 14.203125 45.796875 21.1875 
Q 45.796875 27.640625 41.28125 31.265625 
Q 36.765625 34.90625 28.71875 34.90625 
L 20.21875 34.90625 
L 20.21875 43.015625 
L 29.109375 43.015625 
Q 36.375 43.015625 40.234375 45.921875 
Q 44.09375 48.828125 44.09375 54.296875 
Q 44.09375 59.90625 40.109375 62.90625 
Q 36.140625 65.921875 28.71875 65.921875 
Q 24.65625 65.921875 20.015625 65.03125 
Q 15.375 64.15625 9.8125 62.3125 
L 9.8125 71.09375 
Q 15.4375 72.65625 20.34375 73.4375 
Q 25.25 74.21875 29.59375 74.21875 
Q 40.828125 74.21875 47.359375 69.109375 
Q 53.90625 64.015625 53.90625 55.328125 
Q 53.90625 49.265625 50.4375 45.09375 
Q 46.96875 40.921875 40.578125 39.3125 
z
" id="DejaVuSans-51"/>
       </defs>
       <use xlink:href="#DejaVuSans-51"/>
       <use x="63.623047" xlink:href="#DejaVuSans-48"/>
       <use x="127.246094" xlink:href="#DejaVuSans-48"/>
      </g>
     </g>
    </g>
    <g id="xtick_5">
     <g id="line2d_9">
      <path clip-path="url(#p73b46606cc)" d="M 334.076852 307.584 
L 334.076852 41.472 
" style="fill:none;stroke:#b0b0b0;stroke-linecap:square;stroke-width:0.8;"/>
     </g>
     <g id="line2d_10">
      <g>
       <use style="stroke:#000000;stroke-width:0.8;" x="334.076852" xlink:href="#m8eb9dec7ff" y="307.584"/>
      </g>
     </g>
     <g id="text_5">
      <!-- 400 -->
      <g transform="translate(324.533102 322.182437)scale(0.1 -0.1)">
       <defs>
        <path d="M 37.796875 64.3125 
L 12.890625 25.390625 
L 37.796875 25.390625 
z
M 35.203125 72.90625 
L 47.609375 72.90625 
L 47.609375 25.390625 
L 58.015625 25.390625 
L 58.015625 17.1875 
L 47.609375 17.1875 
L 47.609375 0 
L 37.796875 0 
L 37.796875 17.1875 
L 4.890625 17.1875 
L 4.890625 26.703125 
z
" id="DejaVuSans-52"/>
       </defs>
       <use xlink:href="#DejaVuSans-52"/>
       <use x="63.623047" xlink:href="#DejaVuSans-48"/>
       <use x="127.246094" xlink:href="#DejaVuSans-48"/>
      </g>
     </g>
    </g>
    <g id="xtick_6">
     <g id="line2d_11">
      <path clip-path="url(#p73b46606cc)" d="M 399.137883 307.584 
L 399.137883 41.472 
" style="fill:none;stroke:#b0b0b0;stroke-linecap:square;stroke-width:0.8;"/>
     </g>
     <g id="line2d_12">
      <g>
       <use style="stroke:#000000;stroke-width:0.8;" x="399.137883" xlink:href="#m8eb9dec7ff" y="307.584"/>
      </g>
     </g>
     <g id="text_6">
      <!-- 500 -->
      <g transform="translate(389.594133 322.182437)scale(0.1 -0.1)">
       <defs>
        <path d="M 10.796875 72.90625 
L 49.515625 72.90625 
L 49.515625 64.59375 
L 19.828125 64.59375 
L 19.828125 46.734375 
Q 21.96875 47.46875 24.109375 47.828125 
Q 26.265625 48.1875 28.421875 48.1875 
Q 40.625 48.1875 47.75 41.5 
Q 54.890625 34.8125 54.890625 23.390625 
Q 54.890625 11.625 47.5625 5.09375 
Q 40.234375 -1.421875 26.90625 -1.421875 
Q 22.3125 -1.421875 17.546875 -0.640625 
Q 12.796875 0.140625 7.71875 1.703125 
L 7.71875 11.625 
Q 12.109375 9.234375 16.796875 8.0625 
Q 21.484375 6.890625 26.703125 6.890625 
Q 35.15625 6.890625 40.078125 11.328125 
Q 45.015625 15.765625 45.015625 23.390625 
Q 45.015625 31 40.078125 35.4375 
Q 35.15625 39.890625 26.703125 39.890625 
Q 22.75 39.890625 18.8125 39.015625 
Q 14.890625 38.140625 10.796875 36.28125 
z
" id="DejaVuSans-53"/>
       </defs>
       <use xlink:href="#DejaVuSans-53"/>
       <use x="63.623047" xlink:href="#DejaVuSans-48"/>
       <use x="127.246094" xlink:href="#DejaVuSans-48"/>
      </g>
     </g>
    </g>
    <g id="text_7">
     <!-- Generations -->
     <g transform="translate(205.662344 335.860562)scale(0.1 -0.1)">
      <defs>
       <path d="M 59.515625 10.40625 
L 59.515625 29.984375 
L 43.40625 29.984375 
L 43.40625 38.09375 
L 69.28125 38.09375 
L 69.28125 6.78125 
Q 63.578125 2.734375 56.6875 0.65625 
Q 49.8125 -1.421875 42 -1.421875 
Q 24.90625 -1.421875 15.25 8.5625 
Q 5.609375 18.5625 5.609375 36.375 
Q 5.609375 54.25 15.25 64.234375 
Q 24.90625 74.21875 42 74.21875 
Q 49.125 74.21875 55.546875 72.453125 
Q 61.96875 70.703125 67.390625 67.28125 
L 67.390625 56.78125 
Q 61.921875 61.421875 55.765625 63.765625 
Q 49.609375 66.109375 42.828125 66.109375 
Q 29.4375 66.109375 22.71875 58.640625 
Q 16.015625 51.171875 16.015625 36.375 
Q 16.015625 21.625 22.71875 14.15625 
Q 29.4375 6.6875 42.828125 6.6875 
Q 48.046875 6.6875 52.140625 7.59375 
Q 56.25 8.5 59.515625 10.40625 
z
" id="DejaVuSans-71"/>
       <path d="M 56.203125 29.59375 
L 56.203125 25.203125 
L 14.890625 25.203125 
Q 15.484375 15.921875 20.484375 11.0625 
Q 25.484375 6.203125 34.421875 6.203125 
Q 39.59375 6.203125 44.453125 7.46875 
Q 49.3125 8.734375 54.109375 11.28125 
L 54.109375 2.78125 
Q 49.265625 0.734375 44.1875 -0.34375 
Q 39.109375 -1.421875 33.890625 -1.421875 
Q 20.796875 -1.421875 13.15625 6.1875 
Q 5.515625 13.8125 5.515625 26.8125 
Q 5.515625 40.234375 12.765625 48.109375 
Q 20.015625 56 32.328125 56 
Q 43.359375 56 49.78125 48.890625 
Q 56.203125 41.796875 56.203125 29.59375 
z
M 47.21875 32.234375 
Q 47.125 39.59375 43.09375 43.984375 
Q 39.0625 48.390625 32.421875 48.390625 
Q 24.90625 48.390625 20.390625 44.140625 
Q 15.875 39.890625 15.1875 32.171875 
z
" id="DejaVuSans-101"/>
       <path d="M 54.890625 33.015625 
L 54.890625 0 
L 45.90625 0 
L 45.90625 32.71875 
Q 45.90625 40.484375 42.875 44.328125 
Q 39.84375 48.1875 33.796875 48.1875 
Q 26.515625 48.1875 22.3125 43.546875 
Q 18.109375 38.921875 18.109375 30.90625 
L 18.109375 0 
L 9.078125 0 
L 9.078125 54.6875 
L 18.109375 54.6875 
L 18.109375 46.1875 
Q 21.34375 51.125 25.703125 53.5625 
Q 30.078125 56 35.796875 56 
Q 45.21875 56 50.046875 50.171875 
Q 54.890625 44.34375 54.890625 33.015625 
z
" id="DejaVuSans-110"/>
       <path d="M 41.109375 46.296875 
Q 39.59375 47.171875 37.8125 47.578125 
Q 36.03125 48 33.890625 48 
Q 26.265625 48 22.1875 43.046875 
Q 18.109375 38.09375 18.109375 28.8125 
L 18.109375 0 
L 9.078125 0 
L 9.078125 54.6875 
L 18.109375 54.6875 
L 18.109375 46.1875 
Q 20.953125 51.171875 25.484375 53.578125 
Q 30.03125 56 36.53125 56 
Q 37.453125 56 38.578125 55.875 
Q 39.703125 55.765625 41.0625 55.515625 
z
" id="DejaVuSans-114"/>
       <path d="M 34.28125 27.484375 
Q 23.390625 27.484375 19.1875 25 
Q 14.984375 22.515625 14.984375 16.5 
Q 14.984375 11.71875 18.140625 8.90625 
Q 21.296875 6.109375 26.703125 6.109375 
Q 34.1875 6.109375 38.703125 11.40625 
Q 43.21875 16.703125 43.21875 25.484375 
L 43.21875 27.484375 
z
M 52.203125 31.203125 
L 52.203125 0 
L 43.21875 0 
L 43.21875 8.296875 
Q 40.140625 3.328125 35.546875 0.953125 
Q 30.953125 -1.421875 24.3125 -1.421875 
Q 15.921875 -1.421875 10.953125 3.296875 
Q 6 8.015625 6 15.921875 
Q 6 25.140625 12.171875 29.828125 
Q 18.359375 34.515625 30.609375 34.515625 
L 43.21875 34.515625 
L 43.21875 35.40625 
Q 43.21875 41.609375 39.140625 45 
Q 35.0625 48.390625 27.6875 48.390625 
Q 23 48.390625 18.546875 47.265625 
Q 14.109375 46.140625 10.015625 43.890625 
L 10.015625 52.203125 
Q 14.9375 54.109375 19.578125 55.046875 
Q 24.21875 56 28.609375 56 
Q 40.484375 56 46.34375 49.84375 
Q 52.203125 43.703125 52.203125 31.203125 
z
" id="DejaVuSans-97"/>
       <path d="M 18.3125 70.21875 
L 18.3125 54.6875 
L 36.8125 54.6875 
L 36.8125 47.703125 
L 18.3125 47.703125 
L 18.3125 18.015625 
Q 18.3125 11.328125 20.140625 9.421875 
Q 21.96875 7.515625 27.59375 7.515625 
L 36.8125 7.515625 
L 36.8125 0 
L 27.59375 0 
Q 17.1875 0 13.234375 3.875 
Q 9.28125 7.765625 9.28125 18.015625 
L 9.28125 47.703125 
L 2.6875 47.703125 
L 2.6875 54.6875 
L 9.28125 54.6875 
L 9.28125 70.21875 
z
" id="DejaVuSans-116"/>
       <path d="M 9.421875 54.6875 
L 18.40625 54.6875 
L 18.40625 0 
L 9.421875 0 
z
M 9.421875 75.984375 
L 18.40625 75.984375 
L 18.40625 64.59375 
L 9.421875 64.59375 
z
" id="DejaVuSans-105"/>
       <path d="M 30.609375 48.390625 
Q 23.390625 48.390625 19.1875 42.75 
Q 14.984375 37.109375 14.984375 27.296875 
Q 14.984375 17.484375 19.15625 11.84375 
Q 23.34375 6.203125 30.609375 6.203125 
Q 37.796875 6.203125 41.984375 11.859375 
Q 46.1875 17.53125 46.1875 27.296875 
Q 46.1875 37.015625 41.984375 42.703125 
Q 37.796875 48.390625 30.609375 48.390625 
z
M 30.609375 56 
Q 42.328125 56 49.015625 48.375 
Q 55.71875 40.765625 55.71875 27.296875 
Q 55.71875 13.875 49.015625 6.21875 
Q 42.328125 -1.421875 30.609375 -1.421875 
Q 18.84375 -1.421875 12.171875 6.21875 
Q 5.515625 13.875 5.515625 27.296875 
Q 5.515625 40.765625 12.171875 48.375 
Q 18.84375 56 30.609375 56 
z
" id="DejaVuSans-111"/>
       <path d="M 44.28125 53.078125 
L 44.28125 44.578125 
Q 40.484375 46.53125 36.375 47.5 
Q 32.28125 48.484375 27.875 48.484375 
Q 21.1875 48.484375 17.84375 46.4375 
Q 14.5 44.390625 14.5 40.28125 
Q 14.5 37.15625 16.890625 35.375 
Q 19.28125 33.59375 26.515625 31.984375 
L 29.59375 31.296875 
Q 39.15625 29.25 43.1875 25.515625 
Q 47.21875 21.78125 47.21875 15.09375 
Q 47.21875 7.46875 41.1875 3.015625 
Q 35.15625 -1.421875 24.609375 -1.421875 
Q 20.21875 -1.421875 15.453125 -0.5625 
Q 10.6875 0.296875 5.421875 2 
L 5.421875 11.28125 
Q 10.40625 8.6875 15.234375 7.390625 
Q 20.0625 6.109375 24.8125 6.109375 
Q 31.15625 6.109375 34.5625 8.28125 
Q 37.984375 10.453125 37.984375 14.40625 
Q 37.984375 18.0625 35.515625 20.015625 
Q 33.0625 21.96875 24.703125 23.78125 
L 21.578125 24.515625 
Q 13.234375 26.265625 9.515625 29.90625 
Q 5.8125 33.546875 5.8125 39.890625 
Q 5.8125 47.609375 11.28125 51.796875 
Q 16.75 56 26.8125 56 
Q 31.78125 56 36.171875 55.265625 
Q 40.578125 54.546875 44.28125 53.078125 
z
" id="DejaVuSans-115"/>
      </defs>
      <use xlink:href="#DejaVuSans-71"/>
      <use x="77.490234" xlink:href="#DejaVuSans-101"/>
      <use x="139.013672" xlink:href="#DejaVuSans-110"/>
      <use x="202.392578" xlink:href="#DejaVuSans-101"/>
      <use x="263.916016" xlink:href="#DejaVuSans-114"/>
      <use x="305.029297" xlink:href="#DejaVuSans-97"/>
      <use x="366.308594" xlink:href="#DejaVuSans-116"/>
      <use x="405.517578" xlink:href="#DejaVuSans-105"/>
      <use x="433.300781" xlink:href="#DejaVuSans-111"/>
      <use x="494.482422" xlink:href="#DejaVuSans-110"/>
      <use x="557.861328" xlink:href="#DejaVuSans-115"/>
     </g>
    </g>
   </g>
   <g id="matplotlib.axis_2">
    <g id="ytick_1">
     <g id="line2d_13">
      <path clip-path="url(#p73b46606cc)" d="M 57.6 259.399211 
L 414.72 259.399211 
" style="fill:none;stroke:#b0b0b0;stroke-linecap:square;stroke-width:0.8;"/>
     </g>
     <g id="line2d_14">
      <defs>
       <path d="M 0 0 
L -3.5 0 
" id="m3c3abfe917" style="stroke:#000000;stroke-width:0.8;"/>
      </defs>
      <g>
       <use style="stroke:#000000;stroke-width:0.8;" x="57.6" xlink:href="#m3c3abfe917" y="259.399211"/>
      </g>
     </g>
     <g id="text_8">
      <!-- 300 -->
      <g transform="translate(31.5125 263.198429)scale(0.1 -0.1)">
       <use xlink:href="#DejaVuSans-51"/>
       <use x="63.623047" xlink:href="#DejaVuSans-48"/>
       <use x="127.246094" xlink:href="#DejaVuSans-48"/>
      </g>
     </g>
    </g>
    <g id="ytick_2">
     <g id="line2d_15">
      <path clip-path="url(#p73b46606cc)" d="M 57.6 207.812441 
L 414.72 207.812441 
" style="fill:none;stroke:#b0b0b0;stroke-linecap:square;stroke-width:0.8;"/>
     </g>
     <g id="line2d_16">
      <g>
       <use style="stroke:#000000;stroke-width:0.8;" x="57.6" xlink:href="#m3c3abfe917" y="207.812441"/>
      </g>
     </g>
     <g id="text_9">
      <!-- 400 -->
      <g transform="translate(31.5125 211.61166)scale(0.1 -0.1)">
       <use xlink:href="#DejaVuSans-52"/>
       <use x="63.623047" xlink:href="#DejaVuSans-48"/>
       <use x="127.246094" xlink:href="#DejaVuSans-48"/>
      </g>
     </g>
    </g>
    <g id="ytick_3">
     <g id="line2d_17">
      <path clip-path="url(#p73b46606cc)" d="M 57.6 156.225671 
L 414.72 156.225671 
" style="fill:none;stroke:#b0b0b0;stroke-linecap:square;stroke-width:0.8;"/>
     </g>
     <g id="line2d_18">
      <g>
       <use style="stroke:#000000;stroke-width:0.8;" x="57.6" xlink:href="#m3c3abfe917" y="156.225671"/>
      </g>
     </g>
     <g id="text_10">
      <!-- 500 -->
      <g transform="translate(31.5125 160.02489)scale(0.1 -0.1)">
       <use xlink:href="#DejaVuSans-53"/>
       <use x="63.623047" xlink:href="#DejaVuSans-48"/>
       <use x="127.246094" xlink:href="#DejaVuSans-48"/>
      </g>
     </g>
    </g>
    <g id="ytick_4">
     <g id="line2d_19">
      <path clip-path="url(#p73b46606cc)" d="M 57.6 104.638902 
L 414.72 104.638902 
" style="fill:none;stroke:#b0b0b0;stroke-linecap:square;stroke-width:0.8;"/>
     </g>
     <g id="line2d_20">
      <g>
       <use style="stroke:#000000;stroke-width:0.8;" x="57.6" xlink:href="#m3c3abfe917" y="104.638902"/>
      </g>
     </g>
     <g id="text_11">
      <!-- 600 -->
      <g transform="translate(31.5125 108.438121)scale(0.1 -0.1)">
       <defs>
        <path d="M 33.015625 40.375 
Q 26.375 40.375 22.484375 35.828125 
Q 18.609375 31.296875 18.609375 23.390625 
Q 18.609375 15.53125 22.484375 10.953125 
Q 26.375 6.390625 33.015625 6.390625 
Q 39.65625 6.390625 43.53125 10.953125 
Q 47.40625 15.53125 47.40625 23.390625 
Q 47.40625 31.296875 43.53125 35.828125 
Q 39.65625 40.375 33.015625 40.375 
z
M 52.59375 71.296875 
L 52.59375 62.3125 
Q 48.875 64.0625 45.09375 64.984375 
Q 41.3125 65.921875 37.59375 65.921875 
Q 27.828125 65.921875 22.671875 59.328125 
Q 17.53125 52.734375 16.796875 39.40625 
Q 19.671875 43.65625 24.015625 45.921875 
Q 28.375 48.1875 33.59375 48.1875 
Q 44.578125 48.1875 50.953125 41.515625 
Q 57.328125 34.859375 57.328125 23.390625 
Q 57.328125 12.15625 50.6875 5.359375 
Q 44.046875 -1.421875 33.015625 -1.421875 
Q 20.359375 -1.421875 13.671875 8.265625 
Q 6.984375 17.96875 6.984375 36.375 
Q 6.984375 53.65625 15.1875 63.9375 
Q 23.390625 74.21875 37.203125 74.21875 
Q 40.921875 74.21875 44.703125 73.484375 
Q 48.484375 72.75 52.59375 71.296875 
z
" id="DejaVuSans-54"/>
       </defs>
       <use xlink:href="#DejaVuSans-54"/>
       <use x="63.623047" xlink:href="#DejaVuSans-48"/>
       <use x="127.246094" xlink:href="#DejaVuSans-48"/>
      </g>
     </g>
    </g>
    <g id="ytick_5">
     <g id="line2d_21">
      <path clip-path="url(#p73b46606cc)" d="M 57.6 53.052132 
L 414.72 53.052132 
" style="fill:none;stroke:#b0b0b0;stroke-linecap:square;stroke-width:0.8;"/>
     </g>
     <g id="line2d_22">
      <g>
       <use style="stroke:#000000;stroke-width:0.8;" x="57.6" xlink:href="#m3c3abfe917" y="53.052132"/>
      </g>
     </g>
     <g id="text_12">
      <!-- 700 -->
      <g transform="translate(31.5125 56.851351)scale(0.1 -0.1)">
       <defs>
        <path d="M 8.203125 72.90625 
L 55.078125 72.90625 
L 55.078125 68.703125 
L 28.609375 0 
L 18.3125 0 
L 43.21875 64.59375 
L 8.203125 64.59375 
z
" id="DejaVuSans-55"/>
       </defs>
       <use xlink:href="#DejaVuSans-55"/>
       <use x="63.623047" xlink:href="#DejaVuSans-48"/>
       <use x="127.246094" xlink:href="#DejaVuSans-48"/>
      </g>
     </g>
    </g>
    <g id="text_13">
     <!-- Fitness -->
     <g transform="translate(25.432812 191.845187)rotate(-90)scale(0.1 -0.1)">
      <defs>
       <path d="M 9.8125 72.90625 
L 51.703125 72.90625 
L 51.703125 64.59375 
L 19.671875 64.59375 
L 19.671875 43.109375 
L 48.578125 43.109375 
L 48.578125 34.8125 
L 19.671875 34.8125 
L 19.671875 0 
L 9.8125 0 
z
" id="DejaVuSans-70"/>
      </defs>
      <use xlink:href="#DejaVuSans-70"/>
      <use x="50.269531" xlink:href="#DejaVuSans-105"/>
      <use x="78.052734" xlink:href="#DejaVuSans-116"/>
      <use x="117.261719" xlink:href="#DejaVuSans-110"/>
      <use x="180.640625" xlink:href="#DejaVuSans-101"/>
      <use x="242.164062" xlink:href="#DejaVuSans-115"/>
      <use x="294.263672" xlink:href="#DejaVuSans-115"/>
     </g>
    </g>
   </g>
   <g id="line2d_23">
    <path clip-path="url(#p73b46606cc)" d="M 73.832727 242.28272 
L 74.483338 242.241451 
L 75.133948 242.524146 
L 75.784558 241.22853 
L 76.435169 241.534599 
L 77.085779 242.865805 
L 77.736389 242.141648 
L 79.03761 242.010342 
L 80.33883 242.24661 
L 81.640051 242.090818 
L 82.290661 242.250737 
L 83.591882 241.751377 
L 84.242492 242.727209 
L 84.893103 242.373232 
L 85.543713 242.665208 
L 86.194323 242.073322 
L 86.844934 241.901311 
L 87.495544 242.080795 
L 88.146154 241.921613 
L 88.796764 241.56984 
L 89.447375 242.939366 
L 90.097985 242.128585 
L 90.748595 242.372248 
L 91.399206 242.000737 
L 92.049816 241.952798 
L 92.700426 241.667351 
L 93.351037 242.753583 
L 94.001647 240.551616 
L 94.652257 242.882314 
L 95.302868 239.758376 
L 95.953478 238.885337 
L 96.604088 241.20315 
L 97.254698 242.557086 
L 97.905309 246.201595 
L 98.555919 242.009166 
L 99.206529 240.190439 
L 100.50775 245.408107 
L 101.15836 241.385111 
L 101.808971 245.764119 
L 102.459581 241.212345 
L 103.110191 245.047771 
L 103.760802 242.651748 
L 104.411412 244.736062 
L 105.062022 241.470176 
L 105.712633 241.098676 
L 106.363243 242.669621 
L 107.013853 242.651387 
L 107.664463 243.907857 
L 108.315074 239.632795 
L 108.965684 247.610868 
L 109.616294 246.487195 
L 110.266905 235.863385 
L 110.917515 236.518654 
L 111.568125 241.177096 
L 112.218736 237.399277 
L 112.869346 238.827032 
L 113.519956 251.145327 
L 114.170567 249.029749 
L 114.821177 243.427947 
L 115.471787 248.216866 
L 116.122398 241.256144 
L 116.773008 241.493443 
L 117.423618 240.368289 
L 118.074228 250.225959 
L 118.724839 248.611957 
L 119.375449 240.038696 
L 120.026059 240.945448 
L 120.67667 249.623518 
L 121.32728 236.961571 
L 121.97789 246.750135 
L 122.628501 244.511269 
L 123.279111 239.641478 
L 123.929721 239.873618 
L 124.580332 236.20064 
L 125.230942 245.637528 
L 125.881552 233.770903 
L 126.532163 246.187839 
L 127.182773 238.963699 
L 127.833383 247.24312 
L 128.483993 240.312106 
L 129.134604 247.600652 
L 129.785214 242.753539 
L 130.435824 234.941923 
L 131.086435 246.069189 
L 131.737045 244.573173 
L 132.387655 238.062923 
L 133.038266 246.471566 
L 133.688876 245.274753 
L 134.339486 236.047259 
L 135.640707 244.752614 
L 136.941927 238.733857 
L 137.592538 238.227792 
L 138.243148 247.805214 
L 138.893758 244.32668 
L 139.544369 238.460141 
L 140.194979 245.465675 
L 140.845589 244.743409 
L 141.4962 244.673533 
L 142.14681 239.775808 
L 142.79742 241.522607 
L 143.448031 242.225975 
L 144.098641 239.165733 
L 144.749251 242.422005 
L 145.399862 240.951782 
L 146.050472 236.933172 
L 146.701082 236.852145 
L 147.351692 243.652477 
L 148.002303 238.434347 
L 148.652913 236.463328 
L 149.303523 240.873942 
L 150.604744 240.7248 
L 151.255354 244.995776 
L 151.905965 242.339101 
L 152.556575 240.337644 
L 153.207185 242.094194 
L 153.857796 247.844827 
L 154.508406 246.684896 
L 155.159016 240.806918 
L 155.809627 239.673919 
L 156.460237 240.382224 
L 157.110847 240.506773 
L 157.761457 236.115046 
L 158.412068 243.383206 
L 159.062678 245.768399 
L 159.713288 241.34885 
L 160.363899 239.448921 
L 161.014509 244.884797 
L 161.665119 242.237671 
L 162.31573 241.574229 
L 162.96634 241.285938 
L 163.61695 238.790822 
L 164.267561 243.351679 
L 164.918171 240.085124 
L 165.568781 243.437958 
L 166.219392 247.659312 
L 166.870002 244.402572 
L 168.171222 244.873193 
L 168.821833 245.321181 
L 169.472443 240.337899 
L 170.123053 240.020302 
L 170.773664 236.726825 
L 171.424274 248.787812 
L 172.074884 239.64301 
L 172.725495 242.819938 
L 173.376105 238.573632 
L 174.026715 243.279622 
L 174.677326 235.030846 
L 175.327936 239.796238 
L 175.978546 241.62241 
L 176.629156 243.094665 
L 177.279767 236.508233 
L 177.930377 242.835261 
L 178.580987 233.569715 
L 179.231598 237.99586 
L 179.882208 237.299438 
L 180.532818 238.233312 
L 181.183429 248.933736 
L 181.834039 240.107802 
L 182.484649 239.627687 
L 183.13526 243.948718 
L 183.78587 238.687123 
L 184.43648 240.575198 
L 185.087091 236.505002 
L 185.737701 235.855009 
L 186.388311 247.202259 
L 187.038921 241.829063 
L 187.689532 245.85896 
L 188.340142 244.548474 
L 188.990752 244.72043 
L 189.641363 243.278345 
L 190.291973 241.255258 
L 190.942583 250.949298 
L 192.243804 244.49468 
L 192.894414 245.225618 
L 193.545025 246.96164 
L 194.195635 241.753501 
L 194.846245 248.060439 
L 195.496856 242.782018 
L 196.147466 240.213101 
L 196.798076 243.808542 
L 197.448686 245.147714 
L 198.099297 240.317264 
L 198.749907 245.444989 
L 199.400517 240.161853 
L 200.051128 248.211962 
L 200.701738 242.789292 
L 201.352348 242.808905 
L 202.002959 242.095105 
L 202.653569 242.717786 
L 203.304179 247.534254 
L 203.95479 243.417527 
L 204.6054 247.028703 
L 205.25601 238.363272 
L 205.906621 239.087571 
L 206.557231 240.730929 
L 207.207841 236.90222 
L 207.858451 237.809381 
L 208.509062 236.618493 
L 209.159672 244.150161 
L 209.810282 242.72991 
L 211.111503 243.335806 
L 211.762113 241.948292 
L 212.412724 240.049013 
L 213.063334 241.218782 
L 213.713944 237.696292 
L 214.364555 236.138267 
L 215.015165 240.953032 
L 215.665775 242.099766 
L 216.316385 241.957724 
L 216.966996 243.938656 
L 217.617606 248.003693 
L 218.268216 238.687123 
L 218.918827 242.753539 
L 219.569437 239.801346 
L 220.220047 237.743085 
L 220.870658 241.663679 
L 221.521268 243.278345 
L 222.171878 240.116076 
L 222.822489 243.943814 
L 223.473099 237.293514 
L 224.123709 243.469216 
L 224.77432 241.807601 
L 225.42493 236.876427 
L 226.07554 235.9611 
L 226.72615 248.008852 
L 227.376761 247.921154 
L 228.027371 243.29898 
L 228.677981 246.523574 
L 229.328592 242.552743 
L 229.979202 244.341032 
L 230.629812 243.500168 
L 231.931033 240.781545 
L 232.581643 240.240599 
L 233.232254 244.500951 
L 234.533474 240.444903 
L 235.184085 241.085907 
L 235.834695 242.122801 
L 236.485305 240.925988 
L 237.135915 242.94819 
L 237.786526 243.845799 
L 238.437136 234.622389 
L 239.087746 243.621831 
L 239.738357 238.223097 
L 240.388967 241.180398 
L 241.039577 241.091066 
L 241.690188 242.042086 
L 242.340798 243.600111 
L 242.991408 242.479792 
L 243.642019 245.658371 
L 244.292629 237.598642 
L 244.943239 235.277237 
L 245.59385 239.270255 
L 246.24446 240.425597 
L 246.89507 242.528805 
L 247.54568 251.727594 
L 248.196291 246.699039 
L 248.846901 239.408008 
L 249.497511 243.021714 
L 250.148122 245.98665 
L 250.798732 243.529894 
L 251.449342 234.825149 
L 252.099953 249.829865 
L 252.750563 236.200797 
L 253.401173 241.083302 
L 254.051784 239.130769 
L 254.702394 240.709324 
L 255.353004 237.529547 
L 256.003615 228.212663 
L 256.654225 242.968824 
L 257.304835 244.011763 
L 257.955445 244.590773 
L 258.606056 239.867043 
L 259.256666 243.999043 
L 259.907276 240.29663 
L 260.557887 244.614442 
L 261.208497 244.371985 
L 261.859107 242.592241 
L 262.509718 236.837895 
L 263.160328 240.968665 
L 263.810938 238.059133 
L 264.461549 241.14154 
L 265.112159 243.631376 
L 265.762769 236.912538 
L 266.413379 242.783112 
L 267.06399 242.318831 
L 267.7146 244.980969 
L 268.36521 244.727933 
L 269.015821 237.29428 
L 269.666431 242.463274 
L 270.317041 248.628518 
L 270.967652 247.033709 
L 271.618262 234.501008 
L 272.268872 237.982885 
L 272.919483 244.325556 
L 273.570093 241.55836 
L 274.220703 246.891948 
L 274.871314 241.596616 
L 275.521924 237.2169 
L 276.172534 238.841117 
L 276.823144 235.408809 
L 277.473755 241.247748 
L 278.124365 238.192451 
L 278.774975 237.232222 
L 279.425586 241.07288 
L 280.076196 237.161267 
L 280.726806 238.774718 
L 281.377417 235.679718 
L 282.028027 244.715219 
L 282.678637 241.58114 
L 283.329248 236.799047 
L 283.979858 237.070998 
L 284.630468 234.080424 
L 285.281079 238.313745 
L 285.931689 241.205936 
L 286.582299 244.97555 
L 287.232909 237.732767 
L 287.88352 241.750282 
L 289.18474 229.663123 
L 289.835351 237.084102 
L 290.485961 239.161721 
L 291.136571 240.458774 
L 293.088402 230.97959 
L 293.739013 233.409796 
L 294.389623 239.936929 
L 295.040233 238.59432 
L 295.690844 233.983788 
L 296.341454 237.418088 
L 296.992064 245.063247 
L 297.642674 241.556257 
L 298.293285 231.456377 
L 298.943895 233.019153 
L 299.594505 242.473591 
L 300.245116 242.545813 
L 300.895726 233.518128 
L 301.546336 235.689931 
L 302.196947 235.313348 
L 303.498167 238.612777 
L 304.148778 232.732426 
L 304.799388 239.381521 
L 305.449998 235.949768 
L 306.100608 235.381018 
L 306.751219 243.110445 
L 307.401829 245.234957 
L 308.052439 243.11804 
L 308.70305 238.448169 
L 309.35366 240.67165 
L 310.00427 244.733092 
L 310.654881 240.198615 
L 311.305491 239.311016 
L 311.956101 238.635536 
L 312.606712 246.104125 
L 313.257322 234.000313 
L 313.907932 241.458478 
L 314.558543 240.539088 
L 315.209153 235.870485 
L 315.859763 241.055562 
L 316.510373 237.697014 
L 317.811594 244.011763 
L 318.462204 242.060046 
L 319.112815 246.978318 
L 320.414035 233.152487 
L 321.064646 239.968194 
L 321.715256 237.712133 
L 322.365866 230.44809 
L 323.016477 240.726823 
L 323.667087 242.30407 
L 324.317697 237.033026 
L 324.968308 237.497818 
L 325.618918 236.991521 
L 326.269528 236.031936 
L 326.920138 237.853297 
L 327.570749 231.124748 
L 328.221359 238.117235 
L 328.871969 236.426533 
L 329.52258 226.813568 
L 330.17319 238.931401 
L 330.8238 236.581277 
L 331.474411 232.951438 
L 332.125021 237.926218 
L 332.775631 236.244121 
L 333.426242 233.094779 
L 334.076852 232.524006 
L 334.727462 238.238714 
L 335.378073 236.040721 
L 336.028683 236.39051 
L 336.679293 234.586986 
L 337.329903 233.88399 
L 337.980514 234.457258 
L 338.631124 237.283962 
L 339.281734 229.427297 
L 339.932345 236.82484 
L 340.582955 232.57409 
L 341.233565 245.47584 
L 341.884176 241.124988 
L 342.534786 242.808905 
L 343.185396 238.640694 
L 343.836007 242.871014 
L 344.486617 233.234401 
L 345.137227 239.106712 
L 345.787837 237.788951 
L 346.438448 241.318048 
L 347.739668 235.421891 
L 348.390279 246.272676 
L 349.040889 233.296305 
L 349.691499 250.707621 
L 350.34211 241.037385 
L 350.99272 240.364214 
L 351.64333 245.113251 
L 352.293941 241.849594 
L 352.944551 245.200328 
L 353.595161 251.487537 
L 354.245772 248.724325 
L 355.546992 239.352592 
L 356.197602 247.744812 
L 356.848213 246.52756 
L 357.498823 233.248294 
L 358.149433 240.766069 
L 358.800044 237.584647 
L 359.450654 244.045762 
L 360.101264 245.05293 
L 360.751875 237.830782 
L 361.402485 237.283298 
L 362.053095 241.594114 
L 362.703706 240.198615 
L 363.354316 237.108567 
L 364.004926 238.606167 
L 364.655537 232.609844 
L 365.306147 231.328713 
L 365.956757 235.766341 
L 366.607367 227.558426 
L 367.908588 230.2961 
L 368.559198 236.608176 
L 369.209809 231.264191 
L 369.860419 239.009668 
L 370.511029 228.447149 
L 371.16164 225.159144 
L 371.81225 235.721404 
L 372.46286 232.063381 
L 373.113471 229.346087 
L 373.764081 228.127311 
L 374.414691 230.433239 
L 375.065302 227.769747 
L 375.715912 221.653171 
L 376.366522 231.077563 
L 377.017132 220.67338 
L 377.667743 231.271652 
L 378.318353 229.055873 
L 378.968963 237.118885 
L 379.619574 238.857359 
L 380.270184 227.134495 
L 380.920794 224.069935 
L 381.571405 213.094926 
L 382.222015 225.609876 
L 382.872625 214.51351 
L 383.523236 213.705839 
L 384.173846 210.292775 
L 384.824456 212.419139 
L 385.475066 209.855069 
L 386.125677 208.79259 
L 386.776287 209.824836 
L 387.426897 209.109772 
L 388.077508 204.145183 
L 388.728118 210.447963 
L 389.378728 211.032706 
L 390.029339 219.703191 
L 390.679949 216.112292 
L 391.330559 211.239641 
L 391.98117 216.107593 
L 392.63178 212.80604 
L 393.28239 215.877343 
L 393.933001 217.256395 
L 394.583611 215.369903 
L 395.234221 229.633644 
L 395.884831 218.824429 
L 396.535442 218.217492 
L 397.836662 204.114538 
L 398.487273 215.127445 
L 398.487273 215.127445 
" style="fill:none;stroke:#0000ff;stroke-linecap:square;stroke-width:1.5;"/>
   </g>
   <g id="line2d_24">
    <path clip-path="url(#p73b46606cc)" d="M 73.832727 243.15629 
L 74.483338 252.327006 
L 75.133948 252.245058 
L 75.784558 253.234578 
L 76.435169 252.928614 
L 77.085779 254.978523 
L 77.736389 247.525418 
L 78.386999 250.538816 
L 79.03761 247.829429 
L 79.68822 247.957234 
L 80.33883 248.642776 
L 80.989441 249.50567 
L 81.640051 249.477483 
L 82.290661 249.622041 
L 82.941272 246.747495 
L 83.591882 246.473578 
L 84.242492 249.973018 
L 84.893103 246.922077 
L 85.543713 247.707858 
L 86.194323 246.305911 
L 86.844934 246.816701 
L 87.495544 248.158766 
L 88.146154 244.885478 
L 88.796764 250.387126 
L 89.447375 251.421204 
L 90.097985 248.854818 
L 90.748595 252.630608 
L 91.399206 247.373495 
L 92.049816 248.758981 
L 92.700426 255.886748 
L 93.351037 253.52721 
L 94.001647 252.054162 
L 95.302868 258.879757 
L 95.953478 251.832023 
L 96.604088 260.978625 
L 97.254698 260.329418 
L 97.905309 267.299928 
L 98.555919 260.246617 
L 99.206529 259.308632 
L 99.85714 264.308986 
L 100.50775 273.577719 
L 101.15836 268.644965 
L 101.808971 270.628341 
L 102.459581 263.418953 
L 103.110191 274.560217 
L 103.760802 267.860774 
L 104.411412 278.64822 
L 105.062022 271.243208 
L 105.712633 272.107006 
L 106.363243 272.386758 
L 107.013853 268.403322 
L 107.664463 271.022494 
L 108.315074 271.709048 
L 108.965684 279.171091 
L 109.616294 283.643319 
L 110.266905 265.868822 
L 110.917515 276.074309 
L 111.568125 270.405169 
L 112.218736 273.500212 
L 112.869346 274.13017 
L 113.519956 287.132636 
L 114.170567 285.747906 
L 114.821177 275.908438 
L 115.471787 286.1742 
L 116.122398 279.604241 
L 116.773008 279.342125 
L 117.423618 278.043098 
L 118.074228 288.780557 
L 118.724839 285.982023 
L 119.375449 275.779762 
L 120.026059 277.034063 
L 120.67667 288.049558 
L 121.32728 278.148468 
L 121.97789 290.331551 
L 122.628501 286.238239 
L 123.279111 280.931877 
L 123.929721 281.462434 
L 124.580332 275.817295 
L 125.230942 287.86559 
L 125.881552 276.080791 
L 126.532163 281.922385 
L 127.182773 278.986481 
L 127.833383 285.891968 
L 128.483993 279.127728 
L 129.134604 291.816409 
L 130.435824 274.713823 
L 131.086435 289.704078 
L 131.737045 284.96516 
L 132.387655 275.743625 
L 133.038266 291.813069 
L 133.688876 286.130418 
L 134.339486 274.397681 
L 134.990097 281.295748 
L 135.640707 289.675645 
L 136.291317 286.587618 
L 136.941927 279.257777 
L 137.592538 276.849472 
L 138.243148 280.827776 
L 138.893758 286.264039 
L 139.544369 275.483423 
L 140.194979 286.32273 
L 140.845589 284.100165 
L 141.4962 282.354764 
L 142.14681 270.894094 
L 142.79742 282.118545 
L 144.098641 279.694005 
L 144.749251 278.07321 
L 145.399862 280.541401 
L 146.050472 272.444687 
L 146.701082 274.037673 
L 147.351692 283.866943 
L 148.002303 269.110958 
L 148.652913 271.474038 
L 149.303523 278.62087 
L 150.604744 275.445034 
L 151.255354 275.667066 
L 151.905965 274.014076 
L 152.556575 275.26115 
L 153.207185 272.754139 
L 153.857796 277.278245 
L 154.508406 280.472395 
L 155.159016 267.285406 
L 155.809627 269.14448 
L 156.460237 268.003246 
L 157.110847 274.851266 
L 157.761457 264.604503 
L 158.412068 276.402383 
L 159.062678 282.971978 
L 159.713288 273.655394 
L 160.363899 267.985599 
L 161.014509 267.232301 
L 161.665119 266.859841 
L 162.31573 273.067045 
L 162.96634 272.310021 
L 163.61695 268.684488 
L 164.267561 271.386004 
L 164.918171 267.770385 
L 165.568781 275.547043 
L 166.219392 280.367779 
L 166.870002 274.073289 
L 167.520612 277.32227 
L 168.171222 275.567331 
L 168.821833 284.054244 
L 170.123053 270.999375 
L 170.773664 270.94448 
L 171.424274 292.87119 
L 172.074884 276.39845 
L 172.725495 281.919421 
L 173.376105 281.135352 
L 174.026715 281.899007 
L 174.677326 274.360465 
L 175.327936 275.61908 
L 175.978546 280.625311 
L 177.279767 278.802176 
L 177.930377 283.033364 
L 178.580987 271.160952 
L 179.231598 280.360974 
L 179.882208 281.357362 
L 180.532818 276.516177 
L 181.183429 286.832128 
L 181.834039 270.810037 
L 182.484649 277.071923 
L 183.13526 280.261762 
L 183.78587 279.429005 
L 184.43648 276.282671 
L 185.087091 280.072696 
L 185.737701 279.33923 
L 186.388311 285.477974 
L 187.038921 284.291408 
L 187.689532 286.126123 
L 188.340142 280.598513 
L 188.990752 283.244222 
L 189.641363 283.654435 
L 190.291973 277.876546 
L 190.942583 295.488 
L 191.593194 294.524862 
L 192.243804 288.420176 
L 192.894414 285.130094 
L 193.545025 286.349812 
L 194.195635 286.784959 
L 194.846245 286.268024 
L 195.496856 287.749794 
L 196.147466 281.316524 
L 196.798076 285.050824 
L 197.448686 282.183836 
L 198.099297 273.693426 
L 198.749907 292.439906 
L 199.400517 286.440601 
L 200.051128 284.580866 
L 200.701738 281.277845 
L 201.352348 282.05791 
L 202.002959 276.948503 
L 202.653569 286.599803 
L 203.304179 285.703322 
L 203.95479 278.172048 
L 204.6054 285.074215 
L 205.25601 273.466601 
L 205.906621 269.357279 
L 206.557231 283.182966 
L 207.207841 276.573278 
L 207.858451 278.916335 
L 208.509062 274.013295 
L 209.159672 285.836186 
L 209.810282 279.351903 
L 211.111503 282.030141 
L 211.762113 281.065419 
L 212.412724 280.77934 
L 213.063334 279.206079 
L 213.713944 277.255 
L 214.364555 278.50508 
L 215.015165 276.389839 
L 215.665775 279.19053 
L 216.316385 280.770431 
L 216.966996 279.464187 
L 217.617606 282.605927 
L 218.268216 276.696762 
L 218.918827 280.156009 
L 219.569437 282.54612 
L 220.220047 276.317019 
L 220.870658 279.353792 
L 221.521268 278.608193 
L 222.171878 276.556846 
L 222.822489 284.264868 
L 223.473099 269.28558 
L 224.123709 282.773885 
L 224.77432 281.226847 
L 225.42493 270.95137 
L 226.07554 271.124766 
L 226.72615 289.149336 
L 228.027371 275.466488 
L 228.677981 284.590142 
L 229.328592 274.127752 
L 229.979202 285.451622 
L 230.629812 273.81962 
L 231.280423 278.397121 
L 231.931033 280.251061 
L 232.581643 275.670351 
L 233.232254 282.024664 
L 233.882864 279.887295 
L 234.533474 280.816968 
L 235.184085 275.071254 
L 235.834695 280.787937 
L 236.485305 280.014513 
L 237.135915 285.398798 
L 237.786526 280.29866 
L 238.437136 274.278823 
L 239.087746 278.865937 
L 239.738357 275.309158 
L 240.388967 276.130342 
L 241.039577 282.126744 
L 241.690188 275.231665 
L 242.340798 283.44153 
L 242.991408 280.428708 
L 243.642019 281.948989 
L 244.292629 269.165835 
L 244.943239 278.828701 
L 245.59385 269.2257 
L 246.24446 283.228292 
L 246.89507 275.551004 
L 247.54568 285.912386 
L 248.196291 284.19665 
L 248.846901 275.151213 
L 249.497511 285.734695 
L 250.148122 283.515535 
L 250.798732 276.873014 
L 251.449342 264.515448 
L 252.099953 286.848063 
L 252.750563 272.844569 
L 253.401173 279.311509 
L 254.051784 274.708238 
L 254.702394 281.673237 
L 256.003615 261.378176 
L 256.654225 284.880487 
L 257.304835 283.294152 
L 257.955445 277.835202 
L 258.606056 271.197626 
L 259.256666 279.29754 
L 259.907276 277.262462 
L 260.557887 278.661649 
L 261.208497 279.432219 
L 261.859107 278.557446 
L 262.509718 261.125813 
L 263.160328 277.502557 
L 263.810938 276.697967 
L 264.461549 286.218793 
L 265.112159 278.720965 
L 265.762769 281.3144 
L 266.413379 285.849773 
L 267.06399 286.373564 
L 268.36521 278.405309 
L 269.015821 275.674308 
L 270.317041 284.53069 
L 270.967652 281.444497 
L 271.618262 277.330999 
L 272.268872 277.934516 
L 272.919483 280.287905 
L 273.570093 286.36198 
L 274.220703 283.996713 
L 274.871314 274.706442 
L 275.521924 276.509564 
L 276.172534 274.345333 
L 276.823144 274.48919 
L 277.473755 268.622375 
L 278.124365 280.652009 
L 278.774975 283.583095 
L 279.425586 280.678386 
L 280.076196 272.886581 
L 281.377417 268.003517 
L 282.028027 276.133377 
L 282.678637 270.889093 
L 283.329248 273.516123 
L 283.979858 273.051309 
L 284.630468 265.196499 
L 285.281079 272.456091 
L 285.931689 275.742486 
L 286.582299 279.919402 
L 287.232909 271.245941 
L 287.88352 274.206393 
L 288.53413 271.930329 
L 289.18474 264.858688 
L 289.835351 274.534427 
L 290.485961 267.874924 
L 291.136571 267.526664 
L 291.787182 261.379474 
L 292.437792 266.082406 
L 293.088402 261.997939 
L 293.739013 259.960778 
L 294.389623 266.0812 
L 295.040233 270.861279 
L 295.690844 263.271291 
L 296.341454 265.936092 
L 296.992064 271.54664 
L 297.642674 272.528909 
L 298.293285 260.992311 
L 299.594505 274.676852 
L 300.245116 272.615374 
L 300.895726 261.678651 
L 301.546336 261.718503 
L 302.196947 262.998453 
L 303.498167 275.84026 
L 304.148778 265.541954 
L 304.799388 270.238612 
L 305.449998 268.894934 
L 307.401829 285.540546 
L 308.052439 281.134399 
L 308.70305 269.749518 
L 309.35366 274.209619 
L 310.00427 280.902905 
L 310.654881 276.565976 
L 311.305491 265.936672 
L 311.956101 273.624402 
L 312.606712 286.80154 
L 313.257322 268.64361 
L 313.907932 280.899544 
L 314.558543 277.062398 
L 315.209153 269.9111 
L 315.859763 271.579628 
L 316.510373 265.275463 
L 317.160984 267.554205 
L 317.811594 275.762922 
L 318.462204 271.878149 
L 319.112815 280.310267 
L 319.763425 267.067796 
L 320.414035 264.788403 
L 321.064646 271.174453 
L 321.715256 274.794583 
L 322.365866 261.916256 
L 323.016477 270.215545 
L 323.667087 276.508385 
L 324.317697 271.092332 
L 324.968308 269.966581 
L 325.618918 263.00133 
L 326.269528 262.117511 
L 326.920138 266.519219 
L 327.570749 258.685898 
L 328.221359 265.434435 
L 328.871969 265.372837 
L 329.52258 253.569747 
L 330.17319 272.091245 
L 330.8238 264.083172 
L 331.474411 260.789323 
L 332.125021 267.61777 
L 332.775631 271.567656 
L 333.426242 265.398865 
L 334.076852 266.406776 
L 334.727462 269.179033 
L 335.378073 268.168643 
L 336.028683 268.118202 
L 336.679293 263.590813 
L 337.329903 262.997727 
L 337.980514 265.251881 
L 338.631124 264.965988 
L 339.281734 261.042412 
L 339.932345 267.79754 
L 340.582955 264.077772 
L 341.233565 279.49156 
L 341.884176 275.32595 
L 342.534786 276.618098 
L 343.185396 272.224048 
L 343.836007 276.185814 
L 344.486617 260.075199 
L 345.137227 274.923168 
L 345.787837 273.196822 
L 346.438448 280.064992 
L 347.089058 272.665425 
L 347.739668 275.119237 
L 348.390279 285.248877 
L 349.040889 264.594386 
L 349.691499 285.864422 
L 350.34211 279.336951 
L 350.99272 276.433875 
L 351.64333 283.430257 
L 352.293941 280.582668 
L 352.944551 288.690209 
L 353.595161 289.448722 
L 354.245772 278.223278 
L 354.896382 282.28732 
L 355.546992 277.702074 
L 356.197602 280.604099 
L 356.848213 282.603393 
L 357.498823 266.94057 
L 358.149433 273.975633 
L 358.800044 272.95443 
L 359.450654 278.643235 
L 360.101264 279.579989 
L 360.751875 269.316609 
L 361.402485 274.842448 
L 362.053095 274.21097 
L 364.004926 282.124763 
L 364.655537 274.280696 
L 365.306147 271.298281 
L 365.956757 277.09947 
L 366.607367 268.447303 
L 367.257978 264.890092 
L 367.908588 267.635847 
L 368.559198 278.202366 
L 369.209809 273.035403 
L 369.860419 281.763323 
L 370.511029 260.433525 
L 371.16164 265.655369 
L 371.81225 274.267325 
L 372.46286 272.877123 
L 373.113471 269.932432 
L 373.764081 264.594726 
L 374.414691 275.002081 
L 375.065302 263.852831 
L 375.715912 261.067492 
L 376.366522 272.057673 
L 377.017132 259.234104 
L 377.667743 281.113238 
L 378.318353 272.409105 
L 378.968963 276.58453 
L 379.619574 279.929395 
L 380.270184 266.805068 
L 380.920794 265.979577 
L 381.571405 252.700742 
L 382.222015 268.469293 
L 382.872625 251.655948 
L 383.523236 248.598451 
L 384.173846 247.237485 
L 384.824456 250.74469 
L 385.475066 245.073178 
L 386.125677 243.553767 
L 386.776287 250.662282 
L 387.426897 245.613526 
L 388.077508 242.495262 
L 388.728118 245.916653 
L 389.378728 247.320778 
L 390.029339 258.345736 
L 390.679949 258.844589 
L 391.330559 248.624474 
L 391.98117 254.910151 
L 392.63178 253.662624 
L 393.28239 255.105508 
L 394.583611 260.186033 
L 395.234221 274.682838 
L 395.884831 260.713937 
L 396.535442 255.942841 
L 397.186052 248.939494 
L 397.836662 244.529746 
L 398.487273 251.476347 
L 398.487273 251.476347 
" style="fill:none;stroke:#008000;stroke-dasharray:9.6,2.4,1.5,2.4;stroke-dashoffset:0;stroke-width:1.5;"/>
   </g>
   <g id="line2d_25">
    <path clip-path="url(#p73b46606cc)" d="M 73.832727 241.409151 
L 74.483338 232.155896 
L 75.133948 232.803235 
L 75.784558 229.222481 
L 76.435169 230.140585 
L 77.085779 230.753086 
L 77.736389 236.757879 
L 78.386999 233.558768 
L 79.03761 236.191255 
L 79.68822 236.362654 
L 80.33883 235.850443 
L 80.989441 234.78533 
L 81.640051 234.704152 
L 82.290661 234.879432 
L 82.941272 237.33303 
L 83.591882 237.029175 
L 84.242492 235.481399 
L 84.893103 237.824386 
L 85.543713 237.622559 
L 86.194323 237.840733 
L 87.495544 236.002824 
L 88.146154 238.957748 
L 88.796764 232.752555 
L 89.447375 234.457528 
L 90.097985 235.402353 
L 90.748595 232.113889 
L 91.399206 236.62798 
L 92.049816 235.146614 
L 92.700426 227.447954 
L 93.351037 231.979957 
L 94.001647 229.04907 
L 94.652257 230.414111 
L 95.302868 220.636996 
L 95.953478 225.93865 
L 96.604088 221.427675 
L 97.254698 224.784753 
L 97.905309 225.103262 
L 98.555919 223.771715 
L 99.206529 221.072245 
L 99.85714 221.724605 
L 100.50775 217.238495 
L 101.15836 214.125256 
L 101.808971 220.899898 
L 102.459581 219.005738 
L 103.110191 215.535325 
L 103.760802 217.442722 
L 104.411412 210.823904 
L 105.062022 211.697144 
L 105.712633 210.090346 
L 106.363243 212.952485 
L 107.013853 216.899452 
L 107.664463 216.793219 
L 108.315074 207.556541 
L 108.965684 216.050644 
L 109.616294 209.331071 
L 110.266905 205.857949 
L 110.917515 196.963 
L 111.568125 211.949023 
L 112.218736 201.298342 
L 112.869346 203.523894 
L 113.519956 215.158018 
L 114.170567 212.311591 
L 114.821177 210.947455 
L 115.471787 210.259533 
L 116.122398 202.908047 
L 116.773008 203.644761 
L 117.423618 202.693481 
L 118.074228 211.671361 
L 118.724839 211.241892 
L 119.375449 204.29763 
L 120.026059 204.856834 
L 120.67667 211.197477 
L 121.32728 195.774674 
L 121.97789 203.168718 
L 122.628501 202.784299 
L 123.279111 198.351078 
L 123.929721 198.284803 
L 124.580332 196.583986 
L 125.230942 203.409465 
L 125.881552 191.461016 
L 126.532163 210.453293 
L 127.182773 198.940917 
L 127.833383 208.594272 
L 128.483993 201.496483 
L 129.134604 203.384896 
L 129.785214 202.352492 
L 130.435824 195.170023 
L 131.086435 202.4343 
L 131.737045 204.181186 
L 132.387655 200.38222 
L 133.038266 201.130063 
L 133.688876 204.419088 
L 134.339486 197.696837 
L 134.990097 199.018942 
L 135.640707 199.829583 
L 136.291317 196.523076 
L 137.592538 199.606112 
L 138.243148 214.782653 
L 138.893758 202.389322 
L 139.544369 201.436859 
L 140.194979 204.60862 
L 140.845589 205.386653 
L 142.14681 208.657521 
L 142.79742 200.926669 
L 143.448031 203.586534 
L 144.098641 198.637462 
L 144.749251 206.7708 
L 145.399862 201.362163 
L 146.050472 201.421657 
L 146.701082 199.666616 
L 148.002303 207.757736 
L 148.652913 201.452618 
L 149.954134 204.599944 
L 150.604744 206.004566 
L 151.255354 214.324485 
L 151.905965 210.664126 
L 152.556575 205.414138 
L 153.857796 218.411409 
L 154.508406 212.897396 
L 155.159016 214.32843 
L 155.809627 210.203358 
L 156.460237 212.761201 
L 157.110847 206.162279 
L 157.761457 207.625589 
L 158.412068 210.364029 
L 159.062678 208.564819 
L 159.713288 209.042305 
L 160.363899 210.912243 
L 161.014509 222.537293 
L 161.665119 217.615502 
L 162.31573 210.081412 
L 162.96634 210.261854 
L 163.61695 208.897157 
L 164.267561 215.317354 
L 164.918171 212.399862 
L 165.568781 211.328872 
L 166.219392 214.950845 
L 166.870002 214.731854 
L 167.520612 211.947884 
L 168.171222 214.179056 
L 168.821833 206.588119 
L 169.472443 203.670455 
L 170.123053 209.041229 
L 170.773664 202.509171 
L 171.424274 204.704434 
L 172.074884 202.88757 
L 172.725495 203.720454 
L 173.376105 196.011911 
L 174.026715 204.660237 
L 174.677326 195.701227 
L 175.327936 203.973396 
L 175.978546 202.619508 
L 176.629156 206.450866 
L 177.279767 194.214289 
L 177.930377 202.637158 
L 178.580987 195.978478 
L 179.231598 195.630746 
L 179.882208 193.241515 
L 180.532818 199.950448 
L 181.183429 211.035344 
L 181.834039 209.405567 
L 182.484649 202.183451 
L 183.13526 207.635673 
L 183.78587 197.94524 
L 184.43648 204.867725 
L 185.087091 192.937309 
L 185.737701 192.370788 
L 186.388311 208.926545 
L 187.038921 199.366718 
L 187.689532 205.591797 
L 188.340142 208.498434 
L 188.990752 206.196637 
L 189.641363 202.902255 
L 190.942583 206.410595 
L 191.593194 200.657136 
L 192.243804 200.569184 
L 192.894414 205.321141 
L 193.545025 207.573468 
L 194.195635 196.722043 
L 194.846245 209.852853 
L 195.496856 197.814241 
L 196.147466 199.109678 
L 196.798076 202.566261 
L 197.448686 208.111592 
L 198.099297 206.941103 
L 198.749907 198.450072 
L 199.400517 193.883105 
L 200.051128 211.843058 
L 200.701738 204.30074 
L 201.352348 203.559901 
L 202.002959 207.241707 
L 202.653569 198.835768 
L 203.304179 209.365185 
L 203.95479 208.663007 
L 204.6054 208.983191 
L 205.25601 203.259943 
L 205.906621 208.817864 
L 206.557231 198.278892 
L 207.207841 197.231163 
L 207.858451 196.702427 
L 208.509062 199.223691 
L 209.810282 206.107917 
L 210.460893 205.265347 
L 211.111503 204.64147 
L 211.762113 202.831166 
L 212.412724 199.318686 
L 213.063334 203.231486 
L 214.364555 193.771455 
L 215.015165 205.516226 
L 215.665775 205.009002 
L 216.316385 203.145017 
L 217.617606 213.401459 
L 218.268216 200.677483 
L 218.918827 205.351069 
L 219.569437 197.056572 
L 220.220047 199.16915 
L 220.870658 203.973566 
L 221.521268 207.948497 
L 222.171878 203.675306 
L 222.822489 203.622761 
L 223.473099 205.301448 
L 224.123709 204.164547 
L 224.77432 202.388355 
L 225.42493 202.801484 
L 226.07554 200.797435 
L 227.376761 213.471822 
L 228.677981 208.457006 
L 229.328592 210.977734 
L 229.979202 203.230442 
L 230.629812 213.180716 
L 231.280423 206.044511 
L 231.931033 201.31203 
L 232.581643 204.810848 
L 233.232254 206.977239 
L 233.882864 205.303112 
L 234.533474 200.072839 
L 235.184085 207.100561 
L 235.834695 203.457666 
L 237.135915 200.497582 
L 237.786526 207.392939 
L 238.437136 194.965954 
L 239.087746 208.377725 
L 239.738357 201.137035 
L 240.388967 206.230454 
L 241.039577 200.055388 
L 241.690188 208.852507 
L 242.340798 203.758692 
L 242.991408 204.530876 
L 243.642019 209.367753 
L 244.292629 206.031448 
L 244.943239 191.725774 
L 245.59385 209.31481 
L 246.24446 197.622902 
L 246.89507 209.506605 
L 247.54568 217.542802 
L 248.196291 209.201428 
L 248.846901 203.664803 
L 249.497511 200.308733 
L 250.148122 208.457766 
L 250.798732 210.186774 
L 251.449342 205.134851 
L 252.099953 212.811667 
L 252.750563 199.557024 
L 253.401173 202.855095 
L 254.051784 203.5533 
L 254.702394 199.74541 
L 255.353004 203.500852 
L 256.003615 195.047151 
L 256.654225 201.057161 
L 257.304835 204.729374 
L 257.955445 211.346344 
L 258.606056 208.536461 
L 259.256666 208.700545 
L 259.907276 203.330798 
L 260.557887 210.567235 
L 261.208497 209.311751 
L 261.859107 206.627036 
L 262.509718 212.549976 
L 263.160328 204.434772 
L 263.810938 199.420298 
L 264.461549 196.064287 
L 265.112159 208.541787 
L 265.762769 192.510675 
L 266.413379 199.716452 
L 267.06399 198.264099 
L 267.7146 207.548663 
L 268.36521 211.050557 
L 269.015821 198.914252 
L 269.666431 204.548082 
L 270.317041 212.726346 
L 270.967652 212.62292 
L 271.618262 191.671017 
L 272.268872 198.031254 
L 272.919483 208.363208 
L 273.570093 196.754741 
L 274.220703 209.787183 
L 274.871314 208.486791 
L 275.521924 197.924236 
L 276.172534 203.3369 
L 276.823144 196.328428 
L 277.473755 213.873122 
L 278.124365 195.732894 
L 278.774975 190.88135 
L 279.425586 201.467375 
L 280.076196 201.435952 
L 280.726806 207.210604 
L 281.377417 203.355919 
L 282.028027 213.297061 
L 282.678637 212.273188 
L 283.329248 200.08197 
L 283.979858 201.090687 
L 284.630468 202.964349 
L 285.281079 204.171398 
L 285.931689 206.669386 
L 286.582299 210.031697 
L 287.232909 204.219593 
L 287.88352 209.294171 
L 288.53413 199.831276 
L 289.18474 194.467558 
L 289.835351 199.633777 
L 290.485961 210.448518 
L 291.136571 213.390885 
L 291.787182 212.908423 
L 292.437792 202.20225 
L 293.088402 199.961241 
L 294.389623 213.792659 
L 295.040233 206.327361 
L 295.690844 204.696285 
L 296.341454 208.900084 
L 296.992064 218.579854 
L 298.293285 201.920443 
L 298.943895 198.198736 
L 299.594505 210.27033 
L 300.245116 212.476252 
L 300.895726 205.357605 
L 301.546336 209.66136 
L 302.196947 207.628242 
L 302.847557 204.859166 
L 303.498167 201.385294 
L 304.148778 199.922898 
L 304.799388 208.52443 
L 305.449998 203.004603 
L 306.100608 196.434425 
L 306.751219 206.937262 
L 307.401829 204.929369 
L 308.052439 205.101681 
L 308.70305 207.14682 
L 309.35366 207.13368 
L 310.00427 208.563279 
L 310.654881 203.831254 
L 311.305491 212.68536 
L 311.956101 203.646669 
L 312.606712 205.40671 
L 313.257322 199.357016 
L 313.907932 202.017412 
L 314.558543 204.015777 
L 315.209153 201.82987 
L 315.859763 210.531496 
L 316.510373 210.118565 
L 317.160984 213.841203 
L 317.811594 212.260604 
L 318.462204 212.241942 
L 319.112815 213.64637 
L 319.763425 212.919167 
L 320.414035 201.516572 
L 321.064646 208.761934 
L 321.715256 200.629682 
L 322.365866 198.979924 
L 323.016477 211.238101 
L 323.667087 208.099755 
L 324.317697 202.97372 
L 324.968308 205.029054 
L 325.618918 210.981711 
L 326.269528 209.946362 
L 326.920138 209.187375 
L 327.570749 203.563598 
L 328.221359 210.800034 
L 328.871969 207.48023 
L 329.52258 200.057388 
L 330.17319 205.771558 
L 330.8238 209.079382 
L 331.474411 205.113553 
L 332.125021 208.234666 
L 332.775631 200.920585 
L 333.426242 200.790694 
L 334.076852 198.641236 
L 334.727462 207.298396 
L 335.378073 203.912799 
L 336.028683 204.662817 
L 336.679293 205.583159 
L 337.329903 204.770252 
L 337.980514 203.662635 
L 338.631124 209.601937 
L 339.281734 197.812182 
L 339.932345 205.85214 
L 340.582955 201.070409 
L 341.233565 211.46012 
L 341.884176 206.924026 
L 342.534786 208.999713 
L 343.185396 205.057341 
L 343.836007 209.556214 
L 345.137227 203.290255 
L 345.787837 202.38108 
L 346.438448 202.571104 
L 347.089058 204.543742 
L 347.739668 195.724544 
L 348.390279 207.296475 
L 349.040889 201.998225 
L 349.691499 215.550821 
L 350.34211 202.737819 
L 350.99272 204.294552 
L 351.64333 206.796244 
L 352.293941 203.116519 
L 352.944551 201.710447 
L 353.595161 213.526351 
L 354.245772 219.225371 
L 354.896382 206.270937 
L 355.546992 201.00311 
L 356.197602 214.885525 
L 356.848213 210.451727 
L 357.498823 199.556017 
L 358.149433 207.556506 
L 358.800044 202.214864 
L 359.450654 209.448289 
L 360.101264 210.52587 
L 360.751875 206.344955 
L 361.402485 199.724149 
L 362.053095 208.977257 
L 362.703706 203.581631 
L 363.354316 194.470531 
L 364.004926 195.087571 
L 364.655537 190.938991 
L 365.306147 191.359145 
L 365.956757 194.433212 
L 366.607367 186.66955 
L 367.257978 192.778007 
L 367.908588 192.956354 
L 368.559198 195.013985 
L 369.209809 189.492979 
L 369.860419 196.256012 
L 370.511029 196.460772 
L 371.16164 184.662918 
L 371.81225 197.175483 
L 372.46286 191.249639 
L 373.113471 188.759742 
L 373.764081 191.659895 
L 374.414691 185.864398 
L 375.065302 191.686662 
L 375.715912 182.23885 
L 376.366522 190.097454 
L 377.017132 182.112656 
L 377.667743 181.430066 
L 378.318353 185.70264 
L 378.968963 197.65324 
L 379.619574 197.785323 
L 380.270184 187.463923 
L 380.920794 182.160292 
L 381.571405 173.489111 
L 382.222015 182.750459 
L 382.872625 177.371073 
L 383.523236 178.813226 
L 384.173846 173.348064 
L 384.824456 174.093589 
L 385.475066 174.636959 
L 386.125677 174.031412 
L 386.776287 168.987389 
L 387.426897 172.606017 
L 388.077508 165.795105 
L 388.728118 174.979274 
L 389.378728 174.744634 
L 390.029339 181.060646 
L 390.679949 173.379996 
L 391.330559 173.854809 
L 391.98117 177.305036 
L 392.63178 171.949457 
L 393.28239 176.649178 
L 393.933001 176.755829 
L 394.583611 170.553772 
L 395.234221 184.584451 
L 395.884831 176.93492 
L 396.535442 180.492144 
L 397.836662 163.69933 
L 398.487273 178.778543 
L 398.487273 178.778543 
" style="fill:none;stroke:#008000;stroke-dasharray:9.6,2.4,1.5,2.4;stroke-dashoffset:0;stroke-width:1.5;"/>
   </g>
   <g id="line2d_26">
    <path clip-path="url(#p73b46606cc)" d="M 73.832727 240.312106 
L 74.483338 87.615268 
L 75.133948 138.68617 
L 75.784558 155.193936 
L 76.435169 156.741539 
L 77.085779 157.257407 
L 77.736389 190.272939 
L 78.386999 155.709804 
L 79.03761 173.249305 
L 79.68822 174.281041 
L 80.33883 172.21757 
L 80.989441 155.709804 
L 81.640051 171.701702 
L 82.290661 156.741539 
L 82.941272 171.185835 
L 83.591882 189.757072 
L 84.242492 225.351943 
L 84.893103 191.304675 
L 85.543713 206.780706 
L 86.844934 174.281041 
L 87.495544 189.757072 
L 88.146154 209.360044 
L 88.796764 139.202037 
L 89.447375 190.272939 
L 90.097985 207.812441 
L 90.748595 190.272939 
L 91.399206 190.272939 
L 92.049816 189.241204 
L 92.700426 174.796908 
L 93.351037 192.33641 
L 94.001647 139.717905 
L 94.652257 190.788807 
L 95.302868 122.694271 
L 95.953478 173.765173 
L 96.604088 172.21757 
L 97.254698 157.257407 
L 97.905309 156.225671 
L 98.555919 155.709804 
L 99.206529 140.233773 
L 99.85714 175.312776 
L 100.50775 138.170302 
L 101.15836 156.225671 
L 101.808971 157.257407 
L 102.459581 138.68617 
L 103.110191 137.138567 
L 103.760802 172.733438 
L 104.411412 156.225671 
L 105.062022 156.225671 
L 105.712633 155.193936 
L 106.363243 155.193936 
L 107.013853 156.225671 
L 107.664463 138.68617 
L 108.315074 139.202037 
L 108.965684 155.193936 
L 109.616294 139.202037 
L 110.266905 172.21757 
L 110.917515 122.694271 
L 111.568125 121.662536 
L 112.218736 122.694271 
L 113.519956 156.225671 
L 114.170567 155.709804 
L 115.471787 122.694271 
L 116.122398 121.662536 
L 116.773008 139.202037 
L 117.423618 138.68617 
L 118.074228 139.202037 
L 118.724839 103.091299 
L 119.375449 138.68617 
L 120.026059 121.146668 
L 120.67667 155.193936 
L 121.32728 136.622699 
L 121.97789 154.678068 
L 122.628501 121.146668 
L 123.279111 138.68617 
L 123.929721 88.647003 
L 124.580332 121.146668 
L 125.230942 138.170302 
L 125.881552 121.146668 
L 126.532163 171.701702 
L 127.182773 106.186505 
L 127.833383 121.146668 
L 129.134604 156.225671 
L 129.785214 141.265508 
L 130.435824 139.202037 
L 131.086435 155.709804 
L 132.387655 122.178404 
L 133.038266 120.6308 
L 133.688876 70.591634 
L 134.339486 138.68617 
L 134.990097 138.68617 
L 135.640707 139.202037 
L 136.291317 120.114933 
L 136.941927 120.6308 
L 137.592538 123.210139 
L 138.243148 172.733438 
L 138.893758 155.709804 
L 139.544369 172.733438 
L 140.194979 120.114933 
L 140.845589 140.233773 
L 141.4962 138.170302 
L 142.14681 137.138567 
L 142.79742 140.233773 
L 143.448031 155.193936 
L 144.098641 155.193936 
L 144.749251 121.662536 
L 145.399862 122.694271 
L 146.050472 138.68617 
L 146.701082 139.202037 
L 147.351692 137.654434 
L 148.002303 140.233773 
L 148.652913 155.193936 
L 149.303523 139.717905 
L 149.954134 172.733438 
L 150.604744 137.138567 
L 151.905965 172.21757 
L 152.556575 104.638902 
L 153.207185 155.193936 
L 153.857796 172.21757 
L 154.508406 155.193936 
L 155.159016 155.709804 
L 155.809627 155.709804 
L 156.460237 155.193936 
L 157.110847 156.225671 
L 157.761457 139.202037 
L 158.412068 154.678068 
L 159.062678 155.709804 
L 159.713288 155.709804 
L 160.363899 154.678068 
L 161.014509 155.193936 
L 161.665119 156.225671 
L 162.31573 53.568 
L 162.96634 105.15477 
L 163.61695 104.123034 
L 164.267561 173.765173 
L 164.918171 138.68617 
L 165.568781 173.765173 
L 166.219392 172.733438 
L 166.870002 174.796908 
L 167.520612 138.68617 
L 168.171222 156.741539 
L 168.821833 121.146668 
L 169.472443 122.694271 
L 170.123053 139.717905 
L 170.773664 138.170302 
L 171.424274 139.717905 
L 172.074884 122.694271 
L 172.725495 154.678068 
L 173.376105 121.662536 
L 174.026715 155.709804 
L 174.677326 155.709804 
L 175.327936 138.68617 
L 175.978546 140.749641 
L 176.629156 138.68617 
L 177.279767 138.68617 
L 177.930377 122.694271 
L 178.580987 138.170302 
L 179.231598 139.202037 
L 179.882208 139.202037 
L 180.532818 121.146668 
L 181.183429 172.733438 
L 182.484649 104.638902 
L 183.13526 156.225671 
L 183.78587 154.678068 
L 184.43648 155.709804 
L 185.087091 104.638902 
L 185.737701 121.662536 
L 186.388311 155.709804 
L 187.038921 106.702373 
L 187.689532 138.68617 
L 188.340142 155.193936 
L 188.990752 155.193936 
L 189.641363 121.662536 
L 190.291973 139.202037 
L 190.942583 121.146668 
L 191.593194 138.68617 
L 192.243804 121.662536 
L 192.894414 121.146668 
L 193.545025 138.68617 
L 194.195635 139.717905 
L 194.846245 103.607166 
L 195.496856 138.68617 
L 196.147466 106.702373 
L 196.798076 138.68617 
L 197.448686 155.709804 
L 198.099297 156.225671 
L 198.749907 122.178404 
L 199.400517 137.654434 
L 200.051128 140.749641 
L 200.701738 122.694271 
L 201.352348 138.68617 
L 202.002959 139.717905 
L 202.653569 155.709804 
L 203.95479 156.741539 
L 204.6054 122.694271 
L 205.906621 155.193936 
L 206.557231 121.662536 
L 207.207841 120.6308 
L 207.858451 104.638902 
L 208.509062 156.225671 
L 209.159672 155.193936 
L 209.810282 122.694271 
L 210.460893 156.225671 
L 211.762113 121.146668 
L 212.412724 122.694271 
L 213.063334 103.091299 
L 213.713944 122.178404 
L 214.364555 105.15477 
L 215.015165 121.662536 
L 215.665775 154.678068 
L 216.316385 139.202037 
L 216.966996 137.138567 
L 217.617606 138.170302 
L 218.268216 138.68617 
L 218.918827 138.170302 
L 219.569437 140.233773 
L 220.220047 122.178404 
L 220.870658 155.193936 
L 221.521268 138.170302 
L 222.171878 140.749641 
L 222.822489 154.678068 
L 223.473099 139.717905 
L 224.123709 138.68617 
L 224.77432 139.202037 
L 225.42493 120.6308 
L 226.07554 120.6308 
L 226.72615 137.138567 
L 227.376761 171.701702 
L 228.027371 173.765173 
L 228.677981 156.225671 
L 229.328592 156.225671 
L 229.979202 104.123034 
L 230.629812 173.765173 
L 231.280423 121.146668 
L 231.931033 139.202037 
L 232.581643 139.202037 
L 233.232254 137.654434 
L 233.882864 139.717905 
L 234.533474 138.170302 
L 235.184085 155.709804 
L 235.834695 155.709804 
L 236.485305 138.170302 
L 237.786526 138.170302 
L 238.437136 104.638902 
L 239.087746 156.225671 
L 239.738357 155.193936 
L 240.388967 139.202037 
L 241.039577 138.68617 
L 241.690188 157.773274 
L 242.991408 121.662536 
L 244.292629 156.741539 
L 244.943239 121.146668 
L 245.59385 156.225671 
L 246.24446 121.146668 
L 246.89507 154.678068 
L 247.54568 155.193936 
L 248.196291 139.202037 
L 248.846901 157.257407 
L 249.497511 122.694271 
L 250.148122 154.162201 
L 250.798732 155.709804 
L 251.449342 155.193936 
L 252.099953 172.733438 
L 252.750563 104.123034 
L 253.401173 121.662536 
L 254.051784 155.709804 
L 254.702394 120.6308 
L 256.003615 122.694271 
L 257.304835 155.193936 
L 257.955445 138.68617 
L 258.606056 139.717905 
L 259.256666 105.15477 
L 259.907276 121.662536 
L 260.557887 156.225671 
L 261.208497 157.257407 
L 261.859107 104.123034 
L 262.509718 157.257407 
L 263.160328 121.662536 
L 263.810938 155.193936 
L 264.461549 155.193936 
L 265.112159 122.178404 
L 265.762769 105.15477 
L 266.413379 139.202037 
L 267.06399 154.678068 
L 267.7146 156.741539 
L 268.36521 155.193936 
L 269.015821 105.15477 
L 269.666431 138.170302 
L 270.317041 154.678068 
L 270.967652 122.178404 
L 271.618262 104.638902 
L 272.268872 138.170302 
L 272.919483 122.694271 
L 273.570093 120.6308 
L 274.220703 139.202037 
L 274.871314 138.170302 
L 275.521924 121.146668 
L 276.172534 139.202037 
L 276.823144 123.210139 
L 277.473755 156.225671 
L 278.124365 104.638902 
L 278.774975 122.178404 
L 279.425586 121.662536 
L 280.076196 141.265508 
L 281.377417 105.15477 
L 282.028027 155.193936 
L 282.678637 156.741539 
L 283.329248 105.15477 
L 283.979858 138.68617 
L 284.630468 122.178404 
L 285.281079 87.615268 
L 285.931689 155.193936 
L 286.582299 155.709804 
L 287.232909 122.178404 
L 287.88352 156.741539 
L 288.53413 139.717905 
L 289.18474 139.202037 
L 289.835351 104.638902 
L 290.485961 121.662536 
L 291.136571 186.145998 
L 291.787182 157.257407 
L 292.437792 156.225671 
L 293.739013 156.225671 
L 294.389623 173.249305 
L 295.040233 138.68617 
L 295.690844 139.202037 
L 296.341454 173.249305 
L 296.992064 173.249305 
L 297.642674 172.733438 
L 298.293285 139.202037 
L 298.943895 137.654434 
L 299.594505 140.233773 
L 300.245116 156.741539 
L 301.546336 154.678068 
L 302.196947 139.717905 
L 302.847557 139.202037 
L 303.498167 104.123034 
L 304.148778 120.6308 
L 304.799388 140.233773 
L 305.449998 140.233773 
L 306.100608 156.741539 
L 306.751219 120.6308 
L 307.401829 103.607166 
L 308.052439 104.638902 
L 308.70305 172.733438 
L 310.00427 138.68617 
L 310.654881 137.654434 
L 311.305491 171.701702 
L 311.956101 139.202037 
L 312.606712 121.662536 
L 313.257322 121.146668 
L 313.907932 122.178404 
L 314.558543 139.202037 
L 315.209153 139.202037 
L 315.859763 172.21757 
L 316.510373 122.178404 
L 317.160984 172.21757 
L 317.811594 121.662536 
L 318.462204 155.709804 
L 319.112815 139.202037 
L 319.763425 173.249305 
L 320.414035 122.178404 
L 321.064646 172.733438 
L 321.715256 140.233773 
L 322.365866 87.0994 
L 323.016477 173.249305 
L 323.667087 139.717905 
L 324.317697 123.210139 
L 324.968308 123.210139 
L 326.269528 155.193936 
L 326.920138 139.202037 
L 327.570749 156.225671 
L 328.221359 120.6308 
L 328.871969 154.678068 
L 329.52258 104.638902 
L 330.17319 156.741539 
L 330.8238 173.249305 
L 331.474411 139.202037 
L 332.125021 173.249305 
L 332.775631 144.360714 
L 333.426242 136.622699 
L 334.076852 104.638902 
L 334.727462 154.678068 
L 335.378073 140.233773 
L 336.028683 172.21757 
L 337.329903 139.717905 
L 337.980514 138.170302 
L 338.631124 155.193936 
L 339.281734 122.178404 
L 339.932345 154.678068 
L 340.582955 155.709804 
L 341.233565 174.796908 
L 341.884176 103.607166 
L 342.534786 155.709804 
L 343.185396 156.741539 
L 343.836007 138.68617 
L 344.486617 155.193936 
L 345.137227 155.709804 
L 345.787837 122.178404 
L 346.438448 122.178404 
L 347.089058 138.68617 
L 347.739668 138.68617 
L 348.390279 120.114933 
L 349.040889 138.170302 
L 349.691499 120.6308 
L 350.34211 138.68617 
L 350.99272 103.607166 
L 351.64333 156.225671 
L 352.293941 155.193936 
L 352.944551 138.68617 
L 354.245772 173.249305 
L 354.896382 120.6308 
L 355.546992 137.654434 
L 356.197602 173.249305 
L 356.848213 122.694271 
L 357.498823 104.123034 
L 358.149433 139.717905 
L 358.800044 138.68617 
L 359.450654 173.249305 
L 360.101264 173.765173 
L 361.402485 138.170302 
L 362.053095 155.709804 
L 362.703706 137.654434 
L 363.354316 104.638902 
L 364.004926 156.741539 
L 364.655537 121.662536 
L 365.306147 156.225671 
L 365.956757 155.193936 
L 366.607367 137.138567 
L 367.257978 127.852948 
L 367.908588 138.68617 
L 369.209809 104.638902 
L 369.860419 138.170302 
L 370.511029 139.202037 
L 371.16164 138.68617 
L 371.81225 165.51129 
L 372.46286 163.963687 
L 373.113471 154.678068 
L 374.414691 120.6308 
L 375.065302 155.709804 
L 375.715912 121.146668 
L 376.366522 140.233773 
L 377.017132 138.68617 
L 377.667743 139.202037 
L 378.318353 155.709804 
L 378.968963 155.193936 
L 379.619574 156.225671 
L 380.270184 139.717905 
L 380.920794 144.876582 
L 381.571405 139.717905 
L 382.222015 138.68617 
L 382.872625 139.717905 
L 383.523236 139.717905 
L 384.173846 150.551127 
L 384.824456 140.233773 
L 385.475066 136.622699 
L 386.125677 135.590964 
L 386.776287 142.813111 
L 387.426897 138.68617 
L 388.077508 140.233773 
L 388.728118 149.003524 
L 389.378728 147.971788 
L 390.029339 139.717905 
L 390.679949 137.654434 
L 391.330559 140.749641 
L 391.98117 138.170302 
L 392.63178 122.178404 
L 393.28239 136.106831 
L 393.933001 137.138567 
L 394.583611 103.607166 
L 395.234221 144.876582 
L 395.884831 152.614598 
L 396.535442 155.193936 
L 397.186052 142.297244 
L 397.836662 134.04336 
L 398.487273 155.193936 
L 398.487273 155.193936 
" style="fill:none;stroke:#ff0000;stroke-linecap:square;stroke-width:1.5;"/>
   </g>
   <g id="patch_3">
    <path d="M 57.6 307.584 
L 57.6 41.472 
" style="fill:none;stroke:#000000;stroke-linecap:square;stroke-linejoin:miter;stroke-width:0.8;"/>
   </g>
   <g id="patch_4">
    <path d="M 414.72 307.584 
L 414.72 41.472 
" style="fill:none;stroke:#000000;stroke-linecap:square;stroke-linejoin:miter;stroke-width:0.8;"/>
   </g>
   <g id="patch_5">
    <path d="M 57.6 307.584 
L 414.72 307.584 
" style="fill:none;stroke:#000000;stroke-linecap:square;stroke-linejoin:miter;stroke-width:0.8;"/>
   </g>
   <g id="patch_6">
    <path d="M 57.6 41.472 
L 414.72 41.472 
" style="fill:none;stroke:#000000;stroke-linecap:square;stroke-linejoin:miter;stroke-width:0.8;"/>
   </g>
   <g id="text_14">
    <!-- Population's average and best fitness -->
    <g transform="translate(123.529687 35.472)scale(0.12 -0.12)">
     <defs>
      <path d="M 19.671875 64.796875 
L 19.671875 37.40625 
L 32.078125 37.40625 
Q 38.96875 37.40625 42.71875 40.96875 
Q 46.484375 44.53125 46.484375 51.125 
Q 46.484375 57.671875 42.71875 61.234375 
Q 38.96875 64.796875 32.078125 64.796875 
z
M 9.8125 72.90625 
L 32.078125 72.90625 
Q 44.34375 72.90625 50.609375 67.359375 
Q 56.890625 61.8125 56.890625 51.125 
Q 56.890625 40.328125 50.609375 34.8125 
Q 44.34375 29.296875 32.078125 29.296875 
L 19.671875 29.296875 
L 19.671875 0 
L 9.8125 0 
z
" id="DejaVuSans-80"/>
      <path d="M 18.109375 8.203125 
L 18.109375 -20.796875 
L 9.078125 -20.796875 
L 9.078125 54.6875 
L 18.109375 54.6875 
L 18.109375 46.390625 
Q 20.953125 51.265625 25.265625 53.625 
Q 29.59375 56 35.59375 56 
Q 45.5625 56 51.78125 48.09375 
Q 58.015625 40.1875 58.015625 27.296875 
Q 58.015625 14.40625 51.78125 6.484375 
Q 45.5625 -1.421875 35.59375 -1.421875 
Q 29.59375 -1.421875 25.265625 0.953125 
Q 20.953125 3.328125 18.109375 8.203125 
z
M 48.6875 27.296875 
Q 48.6875 37.203125 44.609375 42.84375 
Q 40.53125 48.484375 33.40625 48.484375 
Q 26.265625 48.484375 22.1875 42.84375 
Q 18.109375 37.203125 18.109375 27.296875 
Q 18.109375 17.390625 22.1875 11.75 
Q 26.265625 6.109375 33.40625 6.109375 
Q 40.53125 6.109375 44.609375 11.75 
Q 48.6875 17.390625 48.6875 27.296875 
z
" id="DejaVuSans-112"/>
      <path d="M 8.5 21.578125 
L 8.5 54.6875 
L 17.484375 54.6875 
L 17.484375 21.921875 
Q 17.484375 14.15625 20.5 10.265625 
Q 23.53125 6.390625 29.59375 6.390625 
Q 36.859375 6.390625 41.078125 11.03125 
Q 45.3125 15.671875 45.3125 23.6875 
L 45.3125 54.6875 
L 54.296875 54.6875 
L 54.296875 0 
L 45.3125 0 
L 45.3125 8.40625 
Q 42.046875 3.421875 37.71875 1 
Q 33.40625 -1.421875 27.6875 -1.421875 
Q 18.265625 -1.421875 13.375 4.4375 
Q 8.5 10.296875 8.5 21.578125 
z
M 31.109375 56 
z
" id="DejaVuSans-117"/>
      <path d="M 9.421875 75.984375 
L 18.40625 75.984375 
L 18.40625 0 
L 9.421875 0 
z
" id="DejaVuSans-108"/>
      <path d="M 17.921875 72.90625 
L 17.921875 45.796875 
L 9.625 45.796875 
L 9.625 72.90625 
z
" id="DejaVuSans-39"/>
      <path id="DejaVuSans-32"/>
      <path d="M 2.984375 54.6875 
L 12.5 54.6875 
L 29.59375 8.796875 
L 46.6875 54.6875 
L 56.203125 54.6875 
L 35.6875 0 
L 23.484375 0 
z
" id="DejaVuSans-118"/>
      <path d="M 45.40625 27.984375 
Q 45.40625 37.75 41.375 43.109375 
Q 37.359375 48.484375 30.078125 48.484375 
Q 22.859375 48.484375 18.828125 43.109375 
Q 14.796875 37.75 14.796875 27.984375 
Q 14.796875 18.265625 18.828125 12.890625 
Q 22.859375 7.515625 30.078125 7.515625 
Q 37.359375 7.515625 41.375 12.890625 
Q 45.40625 18.265625 45.40625 27.984375 
z
M 54.390625 6.78125 
Q 54.390625 -7.171875 48.1875 -13.984375 
Q 42 -20.796875 29.203125 -20.796875 
Q 24.46875 -20.796875 20.265625 -20.09375 
Q 16.0625 -19.390625 12.109375 -17.921875 
L 12.109375 -9.1875 
Q 16.0625 -11.328125 19.921875 -12.34375 
Q 23.78125 -13.375 27.78125 -13.375 
Q 36.625 -13.375 41.015625 -8.765625 
Q 45.40625 -4.15625 45.40625 5.171875 
L 45.40625 9.625 
Q 42.625 4.78125 38.28125 2.390625 
Q 33.9375 0 27.875 0 
Q 17.828125 0 11.671875 7.65625 
Q 5.515625 15.328125 5.515625 27.984375 
Q 5.515625 40.671875 11.671875 48.328125 
Q 17.828125 56 27.875 56 
Q 33.9375 56 38.28125 53.609375 
Q 42.625 51.21875 45.40625 46.390625 
L 45.40625 54.6875 
L 54.390625 54.6875 
z
" id="DejaVuSans-103"/>
      <path d="M 45.40625 46.390625 
L 45.40625 75.984375 
L 54.390625 75.984375 
L 54.390625 0 
L 45.40625 0 
L 45.40625 8.203125 
Q 42.578125 3.328125 38.25 0.953125 
Q 33.9375 -1.421875 27.875 -1.421875 
Q 17.96875 -1.421875 11.734375 6.484375 
Q 5.515625 14.40625 5.515625 27.296875 
Q 5.515625 40.1875 11.734375 48.09375 
Q 17.96875 56 27.875 56 
Q 33.9375 56 38.25 53.625 
Q 42.578125 51.265625 45.40625 46.390625 
z
M 14.796875 27.296875 
Q 14.796875 17.390625 18.875 11.75 
Q 22.953125 6.109375 30.078125 6.109375 
Q 37.203125 6.109375 41.296875 11.75 
Q 45.40625 17.390625 45.40625 27.296875 
Q 45.40625 37.203125 41.296875 42.84375 
Q 37.203125 48.484375 30.078125 48.484375 
Q 22.953125 48.484375 18.875 42.84375 
Q 14.796875 37.203125 14.796875 27.296875 
z
" id="DejaVuSans-100"/>
      <path d="M 48.6875 27.296875 
Q 48.6875 37.203125 44.609375 42.84375 
Q 40.53125 48.484375 33.40625 48.484375 
Q 26.265625 48.484375 22.1875 42.84375 
Q 18.109375 37.203125 18.109375 27.296875 
Q 18.109375 17.390625 22.1875 11.75 
Q 26.265625 6.109375 33.40625 6.109375 
Q 40.53125 6.109375 44.609375 11.75 
Q 48.6875 17.390625 48.6875 27.296875 
z
M 18.109375 46.390625 
Q 20.953125 51.265625 25.265625 53.625 
Q 29.59375 56 35.59375 56 
Q 45.5625 56 51.78125 48.09375 
Q 58.015625 40.1875 58.015625 27.296875 
Q 58.015625 14.40625 51.78125 6.484375 
Q 45.5625 -1.421875 35.59375 -1.421875 
Q 29.59375 -1.421875 25.265625 0.953125 
Q 20.953125 3.328125 18.109375 8.203125 
L 18.109375 0 
L 9.078125 0 
L 9.078125 75.984375 
L 18.109375 75.984375 
z
" id="DejaVuSans-98"/>
      <path d="M 37.109375 75.984375 
L 37.109375 68.5 
L 28.515625 68.5 
Q 23.6875 68.5 21.796875 66.546875 
Q 19.921875 64.59375 19.921875 59.515625 
L 19.921875 54.6875 
L 34.71875 54.6875 
L 34.71875 47.703125 
L 19.921875 47.703125 
L 19.921875 0 
L 10.890625 0 
L 10.890625 47.703125 
L 2.296875 47.703125 
L 2.296875 54.6875 
L 10.890625 54.6875 
L 10.890625 58.5 
Q 10.890625 67.625 15.140625 71.796875 
Q 19.390625 75.984375 28.609375 75.984375 
z
" id="DejaVuSans-102"/>
     </defs>
     <use xlink:href="#DejaVuSans-80"/>
     <use x="56.677734" xlink:href="#DejaVuSans-111"/>
     <use x="117.859375" xlink:href="#DejaVuSans-112"/>
     <use x="181.335938" xlink:href="#DejaVuSans-117"/>
     <use x="244.714844" xlink:href="#DejaVuSans-108"/>
     <use x="272.498047" xlink:href="#DejaVuSans-97"/>
     <use x="333.777344" xlink:href="#DejaVuSans-116"/>
     <use x="372.986328" xlink:href="#DejaVuSans-105"/>
     <use x="400.769531" xlink:href="#DejaVuSans-111"/>
     <use x="461.951172" xlink:href="#DejaVuSans-110"/>
     <use x="525.330078" xlink:href="#DejaVuSans-39"/>
     <use x="552.820312" xlink:href="#DejaVuSans-115"/>
     <use x="604.919922" xlink:href="#DejaVuSans-32"/>
     <use x="636.707031" xlink:href="#DejaVuSans-97"/>
     <use x="697.986328" xlink:href="#DejaVuSans-118"/>
     <use x="757.166016" xlink:href="#DejaVuSans-101"/>
     <use x="818.689453" xlink:href="#DejaVuSans-114"/>
     <use x="859.802734" xlink:href="#DejaVuSans-97"/>
     <use x="921.082031" xlink:href="#DejaVuSans-103"/>
     <use x="984.558594" xlink:href="#DejaVuSans-101"/>
     <use x="1046.082031" xlink:href="#DejaVuSans-32"/>
     <use x="1077.869141" xlink:href="#DejaVuSans-97"/>
     <use x="1139.148438" xlink:href="#DejaVuSans-110"/>
     <use x="1202.527344" xlink:href="#DejaVuSans-100"/>
     <use x="1266.003906" xlink:href="#DejaVuSans-32"/>
     <use x="1297.791016" xlink:href="#DejaVuSans-98"/>
     <use x="1361.267578" xlink:href="#DejaVuSans-101"/>
     <use x="1422.791016" xlink:href="#DejaVuSans-115"/>
     <use x="1474.890625" xlink:href="#DejaVuSans-116"/>
     <use x="1514.099609" xlink:href="#DejaVuSans-32"/>
     <use x="1545.886719" xlink:href="#DejaVuSans-102"/>
     <use x="1581.091797" xlink:href="#DejaVuSans-105"/>
     <use x="1608.875" xlink:href="#DejaVuSans-116"/>
     <use x="1648.083984" xlink:href="#DejaVuSans-110"/>
     <use x="1711.462891" xlink:href="#DejaVuSans-101"/>
     <use x="1772.986328" xlink:href="#DejaVuSans-115"/>
     <use x="1825.085938" xlink:href="#DejaVuSans-115"/>
    </g>
   </g>
   <g id="legend_1">
    <g id="patch_7">
     <path d="M 64.6 108.1845 
L 137.540625 108.1845 
Q 139.540625 108.1845 139.540625 106.1845 
L 139.540625 48.472 
Q 139.540625 46.472 137.540625 46.472 
L 64.6 46.472 
Q 62.6 46.472 62.6 48.472 
L 62.6 106.1845 
Q 62.6 108.1845 64.6 108.1845 
z
" style="fill:#ffffff;opacity:0.8;stroke:#cccccc;stroke-linejoin:miter;"/>
    </g>
    <g id="line2d_27">
     <path d="M 66.6 54.570438 
L 86.6 54.570438 
" style="fill:none;stroke:#0000ff;stroke-linecap:square;stroke-width:1.5;"/>
    </g>
    <g id="line2d_28"/>
    <g id="text_15">
     <!-- average -->
     <g transform="translate(94.6 58.070438)scale(0.1 -0.1)">
      <use xlink:href="#DejaVuSans-97"/>
      <use x="61.279297" xlink:href="#DejaVuSans-118"/>
      <use x="120.458984" xlink:href="#DejaVuSans-101"/>
      <use x="181.982422" xlink:href="#DejaVuSans-114"/>
      <use x="223.095703" xlink:href="#DejaVuSans-97"/>
      <use x="284.375" xlink:href="#DejaVuSans-103"/>
      <use x="347.851562" xlink:href="#DejaVuSans-101"/>
     </g>
    </g>
    <g id="line2d_29">
     <path d="M 66.6 69.248563 
L 86.6 69.248563 
" style="fill:none;stroke:#008000;stroke-dasharray:9.6,2.4,1.5,2.4;stroke-dashoffset:0;stroke-width:1.5;"/>
    </g>
    <g id="line2d_30"/>
    <g id="text_16">
     <!-- -1 sd -->
     <g transform="translate(94.6 72.748563)scale(0.1 -0.1)">
      <defs>
       <path d="M 4.890625 31.390625 
L 31.203125 31.390625 
L 31.203125 23.390625 
L 4.890625 23.390625 
z
" id="DejaVuSans-45"/>
      </defs>
      <use xlink:href="#DejaVuSans-45"/>
      <use x="36.083984" xlink:href="#DejaVuSans-49"/>
      <use x="99.707031" xlink:href="#DejaVuSans-32"/>
      <use x="131.494141" xlink:href="#DejaVuSans-115"/>
      <use x="183.59375" xlink:href="#DejaVuSans-100"/>
     </g>
    </g>
    <g id="line2d_31">
     <path d="M 66.6 83.926688 
L 86.6 83.926688 
" style="fill:none;stroke:#008000;stroke-dasharray:9.6,2.4,1.5,2.4;stroke-dashoffset:0;stroke-width:1.5;"/>
    </g>
    <g id="line2d_32"/>
    <g id="text_17">
     <!-- +1 sd -->
     <g transform="translate(94.6 87.426688)scale(0.1 -0.1)">
      <defs>
       <path d="M 46 62.703125 
L 46 35.5 
L 73.1875 35.5 
L 73.1875 27.203125 
L 46 27.203125 
L 46 0 
L 37.796875 0 
L 37.796875 27.203125 
L 10.59375 27.203125 
L 10.59375 35.5 
L 37.796875 35.5 
L 37.796875 62.703125 
z
" id="DejaVuSans-43"/>
      </defs>
      <use xlink:href="#DejaVuSans-43"/>
      <use x="83.789062" xlink:href="#DejaVuSans-49"/>
      <use x="147.412109" xlink:href="#DejaVuSans-32"/>
      <use x="179.199219" xlink:href="#DejaVuSans-115"/>
      <use x="231.298828" xlink:href="#DejaVuSans-100"/>
     </g>
    </g>
    <g id="line2d_33">
     <path d="M 66.6 98.604813 
L 86.6 98.604813 
" style="fill:none;stroke:#ff0000;stroke-linecap:square;stroke-width:1.5;"/>
    </g>
    <g id="line2d_34"/>
    <g id="text_18">
     <!-- best -->
     <g transform="translate(94.6 102.104813)scale(0.1 -0.1)">
      <use xlink:href="#DejaVuSans-98"/>
      <use x="63.476562" xlink:href="#DejaVuSans-101"/>
      <use x="125" xlink:href="#DejaVuSans-115"/>
      <use x="177.099609" xlink:href="#DejaVuSans-116"/>
     </g>
    </g>
   </g>
  </g>
 </g>
 <defs>
  <clipPath id="p73b46606cc">
   <rect height="266.112" width="357.12" x="57.6" y="41.472"/>
  </clipPath>
 </defs>
</svg>
