<?xml version="1.0" encoding="UTF-8" standalone="no"?>
<!DOCTYPE svg PUBLIC "-//W3C//DTD SVG 1.1//EN"
 "http://www.w3.org/Graphics/SVG/1.1/DTD/svg11.dtd">
<!-- Generated by graphviz version 2.47.1 (20210417.1919)
 -->
<!-- Pages: 1 -->
<svg width="368pt" height="380pt"
 viewBox="0.00 0.00 368.21 379.68" xmlns="http://www.w3.org/2000/svg" xmlns:xlink="http://www.w3.org/1999/xlink">
<g id="graph0" class="graph" transform="scale(1 1) rotate(0) translate(4 375.68)">
<polygon fill="white" stroke="transparent" points="-4,4 -4,-375.68 364.21,-375.68 364.21,4 -4,4"/>
<!-- &#45;1 -->
<g id="node1" class="node">
<title>&#45;1</title>
<polygon fill="lightgray" stroke="black" points="141.97,-182.27 117.97,-182.27 117.97,-163.66 141.97,-163.66 141.97,-182.27"/>
<text text-anchor="middle" x="129.97" y="-170.26" font-family="Times,serif" font-size="9.00">&#45;1</text>
</g>
<!-- 0 -->
<g id="node5" class="node">
<title>0</title>
<ellipse fill="lightblue" stroke="black" cx="198.25" cy="-196.93" rx="14.49" ry="14.49"/>
<ellipse fill="none" stroke="black" cx="198.25" cy="-196.93" rx="18.49" ry="18.49"/>
<text text-anchor="middle" x="198.25" y="-194.23" font-family="Times,serif" font-size="9.00">0</text>
</g>
<!-- &#45;1&#45;&gt;0 -->
<g id="edge25" class="edge">
<title>&#45;1&#45;&gt;0</title>
<path fill="none" stroke="green" stroke-width="0.17" stroke-dasharray="1,5" d="M141.86,-177.14C149.89,-179.95 160.82,-183.79 170.91,-187.33"/>
<polygon fill="green" stroke="green" stroke-width="0.17" points="170.01,-190.72 180.6,-190.73 172.32,-184.12 170.01,-190.72"/>
<text text-anchor="middle" x="150.76" y="-183.74" font-family="Times,serif" font-size="5.00">0.333</text>
</g>
<!-- 13268 -->
<g id="node8" class="node">
<title>13268</title>
<ellipse fill="white" stroke="black" cx="130.84" cy="-246.76" rx="27.42" ry="27.42"/>
<ellipse fill="none" stroke="black" cx="130.84" cy="-246.76" rx="31.45" ry="31.45"/>
<text text-anchor="middle" x="130.84" y="-244.06" font-family="Times,serif" font-size="9.00">13268</text>
</g>
<!-- &#45;1&#45;&gt;13268 -->
<g id="edge2" class="edge">
<title>&#45;1&#45;&gt;13268</title>
<path fill="none" stroke="red" stroke-width="0.55" d="M130.08,-182.31C130.15,-188.33 130.25,-196.63 130.35,-205.26"/>
<polygon fill="red" stroke="red" stroke-width="0.55" points="126.85,-205.48 130.47,-215.44 133.85,-205.4 126.85,-205.48"/>
<text text-anchor="middle" x="136.67" y="-195.29" font-family="Times,serif" font-size="5.00">&#45;2.271</text>
</g>
<!-- 14215 -->
<g id="node15" class="node">
<title>14215</title>
<ellipse fill="white" stroke="black" cx="104.91" cy="-205" rx="27.42" ry="27.42"/>
<ellipse fill="none" stroke="black" cx="104.91" cy="-205" rx="31.45" ry="31.45"/>
<text text-anchor="middle" x="104.91" y="-202.3" font-family="Times,serif" font-size="9.00">14215</text>
</g>
<!-- &#45;1&#45;&gt;14215 -->
<g id="edge10" class="edge">
<title>&#45;1&#45;&gt;14215</title>
<path fill="none" stroke="green" stroke-width="0.26" d="M118.01,-178.27C117.94,-178.33 117.87,-178.4 117.8,-178.47"/>
<polygon fill="green" stroke="green" stroke-width="0.26" points="122.32,-169.18 117.6,-178.67 127.2,-174.19 122.32,-169.18"/>
<text text-anchor="middle" x="112.28" y="-173.87" font-family="Times,serif" font-size="5.00">0.802</text>
</g>
<!-- &#45;1&#45;&gt;14215 -->
<g id="edge12" class="edge">
<title>&#45;1&#45;&gt;14215</title>
<path fill="none" stroke="green" stroke-width="0.2" stroke-dasharray="1,5" d="M129.44,-182.5C129.37,-182.66 129.3,-182.81 129.23,-182.96"/>
<polygon fill="green" stroke="green" stroke-width="0.2" points="129.87,-173.84 128.53,-184.35 136.13,-176.98 129.87,-173.84"/>
<text text-anchor="middle" x="134.96" y="-184.23" font-family="Times,serif" font-size="5.00">0.500</text>
</g>
<!-- &#45;2 -->
<g id="node2" class="node">
<title>&#45;2</title>
<polygon fill="lightgray" stroke="black" points="294.42,-185.23 270.41,-185.23 270.41,-166.63 294.42,-166.63 294.42,-185.23"/>
<text text-anchor="middle" x="282.41" y="-173.23" font-family="Times,serif" font-size="9.00">&#45;2</text>
</g>
<!-- &#45;2&#45;&gt;0 -->
<g id="edge28" class="edge">
<title>&#45;2&#45;&gt;0</title>
<path fill="none" stroke="green" stroke-width="0.17" stroke-dasharray="1,5" d="M270.36,-178.94C258.91,-181.79 241.27,-186.19 226.31,-189.93"/>
<polygon fill="green" stroke="green" stroke-width="0.17" points="225.34,-186.56 216.49,-192.38 227.04,-193.35 225.34,-186.56"/>
<text text-anchor="middle" x="242.71" y="-185.93" font-family="Times,serif" font-size="5.00">0.333</text>
</g>
<!-- &#45;3 -->
<g id="node3" class="node">
<title>&#45;3</title>
<polygon fill="lightgray" stroke="black" points="220.1,-150.46 196.1,-150.46 196.1,-131.86 220.1,-131.86 220.1,-150.46"/>
<text text-anchor="middle" x="208.1" y="-138.46" font-family="Times,serif" font-size="9.00">&#45;3</text>
</g>
<!-- &#45;3&#45;&gt;0 -->
<g id="edge26" class="edge">
<title>&#45;3&#45;&gt;0</title>
<path fill="none" stroke="green" stroke-width="0.17" stroke-dasharray="1,5" d="M206.43,-150.62C205.55,-155.6 204.42,-161.99 203.28,-168.43"/>
<polygon fill="green" stroke="green" stroke-width="0.17" points="199.82,-167.92 201.53,-178.38 206.71,-169.14 199.82,-167.92"/>
<text text-anchor="middle" x="199.23" y="-161.02" font-family="Times,serif" font-size="5.00">0.333</text>
</g>
<!-- 14216 -->
<g id="node11" class="node">
<title>14216</title>
<ellipse fill="white" stroke="black" cx="175.52" cy="-107.48" rx="27.42" ry="27.42"/>
<ellipse fill="none" stroke="black" cx="175.52" cy="-107.48" rx="31.45" ry="31.45"/>
<text text-anchor="middle" x="175.52" y="-104.78" font-family="Times,serif" font-size="9.00">14216</text>
</g>
<!-- &#45;3&#45;&gt;14216 -->
<g id="edge5" class="edge">
<title>&#45;3&#45;&gt;14216</title>
<path fill="none" stroke="red" stroke-width="0.55" d="M198.85,-131.6C198.74,-131.48 198.62,-131.37 198.51,-131.25"/>
<polygon fill="red" stroke="red" stroke-width="0.55" points="206.94,-134.93 197.47,-130.17 201.91,-139.8 206.94,-134.93"/>
<text text-anchor="middle" x="205.14" y="-126.92" font-family="Times,serif" font-size="5.00">&#45;2.271</text>
</g>
<!-- 14218 -->
<g id="node16" class="node">
<title>14218</title>
<ellipse fill="white" stroke="black" cx="243.45" cy="-115.52" rx="27.42" ry="27.42"/>
<ellipse fill="none" stroke="black" cx="243.45" cy="-115.52" rx="31.45" ry="31.45"/>
<text text-anchor="middle" x="243.45" y="-112.82" font-family="Times,serif" font-size="9.00">14218</text>
</g>
<!-- &#45;3&#45;&gt;14218 -->
<g id="edge14" class="edge">
<title>&#45;3&#45;&gt;14218</title>
<path fill="none" stroke="green" stroke-width="0.26" d="M220.11,-139.72C220.2,-139.67 220.29,-139.62 220.39,-139.58"/>
<polygon fill="green" stroke="green" stroke-width="0.26" points="215.14,-146.31 222.35,-138.54 211.87,-140.12 215.14,-146.31"/>
<text text-anchor="middle" x="225.87" y="-141.15" font-family="Times,serif" font-size="5.00">0.802</text>
</g>
<!-- &#45;3&#45;&gt;14218 -->
<g id="edge16" class="edge">
<title>&#45;3&#45;&gt;14218</title>
<path fill="none" stroke="green" stroke-width="0.2" stroke-dasharray="1,5" d="M211.71,-131.8C211.83,-131.67 211.95,-131.53 212.07,-131.4"/>
<polygon fill="green" stroke="green" stroke-width="0.2" points="210.34,-138.12 214.89,-128.56 205.36,-133.2 210.34,-138.12"/>
<text text-anchor="middle" x="211.89" y="-127.1" font-family="Times,serif" font-size="5.00">0.500</text>
</g>
<!-- &#45;4 -->
<g id="node4" class="node">
<title>&#45;4</title>
<polygon fill="lightgray" stroke="black" points="213.36,-272.9 189.36,-272.9 189.36,-254.3 213.36,-254.3 213.36,-272.9"/>
<text text-anchor="middle" x="201.36" y="-260.9" font-family="Times,serif" font-size="9.00">&#45;4</text>
</g>
<!-- &#45;4&#45;&gt;0 -->
<g id="edge27" class="edge">
<title>&#45;4&#45;&gt;0</title>
<path fill="none" stroke="green" stroke-width="0.17" stroke-dasharray="1,5" d="M200.91,-254.05C200.57,-246.62 200.07,-235.9 199.59,-225.75"/>
<polygon fill="green" stroke="green" stroke-width="0.17" points="203.08,-225.37 199.12,-215.54 196.09,-225.69 203.08,-225.37"/>
<text text-anchor="middle" x="194.63" y="-241.4" font-family="Times,serif" font-size="5.00">0.333</text>
</g>
<!-- 14217 -->
<g id="node14" class="node">
<title>14217</title>
<ellipse fill="white" stroke="black" cx="238.42" cy="-279.81" rx="27.42" ry="27.42"/>
<ellipse fill="none" stroke="black" cx="238.42" cy="-279.81" rx="31.45" ry="31.45"/>
<text text-anchor="middle" x="238.42" y="-277.11" font-family="Times,serif" font-size="9.00">14217</text>
</g>
<!-- &#45;4&#45;&gt;14217 -->
<g id="edge8" class="edge">
<title>&#45;4&#45;&gt;14217</title>
<path fill="none" stroke="red" stroke-width="0.55" d="M213.49,-268.9C213.53,-268.92 213.58,-268.94 213.62,-268.96"/>
<polygon fill="red" stroke="red" stroke-width="0.55" points="203.18,-268.21 213.75,-269.02 205.99,-261.8 203.18,-268.21"/>
<text text-anchor="middle" x="220.01" y="-270.43" font-family="Times,serif" font-size="5.00">&#45;2.271</text>
</g>
<!-- 14219 -->
<g id="node17" class="node">
<title>14219</title>
<ellipse fill="white" stroke="black" cx="268.91" cy="-239" rx="27.42" ry="27.42"/>
<ellipse fill="none" stroke="black" cx="268.91" cy="-239" rx="31.45" ry="31.45"/>
<text text-anchor="middle" x="268.91" y="-236.3" font-family="Times,serif" font-size="9.00">14219</text>
</g>
<!-- &#45;4&#45;&gt;14219 -->
<g id="edge18" class="edge">
<title>&#45;4&#45;&gt;14219</title>
<path fill="none" stroke="green" stroke-width="0.26" d="M213.33,-264.57C218.89,-263.56 225.8,-261.64 232.84,-259.26"/>
<polygon fill="green" stroke="green" stroke-width="0.26" points="234.22,-262.48 242.42,-255.76 231.82,-255.91 234.22,-262.48"/>
<text text-anchor="middle" x="228.71" y="-263.41" font-family="Times,serif" font-size="5.00">0.802</text>
</g>
<!-- &#45;4&#45;&gt;14219 -->
<g id="edge20" class="edge">
<title>&#45;4&#45;&gt;14219</title>
<path fill="none" stroke="green" stroke-width="0.2" stroke-dasharray="1,5" d="M211.62,-254.21C216.24,-251.71 222.01,-249.12 228.1,-246.74"/>
<polygon fill="green" stroke="green" stroke-width="0.2" points="229.61,-249.92 237.82,-243.21 227.22,-243.34 229.61,-249.92"/>
<text text-anchor="middle" x="214.23" y="-245.97" font-family="Times,serif" font-size="5.00">0.500</text>
</g>
<!-- 14220 -->
<g id="node6" class="node">
<title>14220</title>
<ellipse fill="white" stroke="black" cx="56.39" cy="-285.42" rx="27.45" ry="27.45"/>
<text text-anchor="middle" x="56.39" y="-282.72" font-family="Times,serif" font-size="9.00">14220</text>
</g>
<!-- 14221 -->
<g id="node7" class="node">
<title>14221</title>
<ellipse fill="white" stroke="black" cx="27.22" cy="-220.43" rx="27.45" ry="27.45"/>
<text text-anchor="middle" x="27.22" y="-217.73" font-family="Times,serif" font-size="9.00">14221</text>
</g>
<!-- 14220&#45;&gt;14221 -->
<g id="edge1" class="edge">
<title>14220&#45;&gt;14221</title>
<path fill="none" stroke="green" stroke-width="0.3" d="M45.2,-260.48C44.38,-258.66 43.54,-256.8 42.71,-254.93"/>
<polygon fill="green" stroke="green" stroke-width="0.3" points="45.82,-253.32 38.53,-245.63 39.43,-256.19 45.82,-253.32"/>
<text text-anchor="middle" x="38.33" y="-253.21" font-family="Times,serif" font-size="5.00">1.000</text>
</g>
<!-- 14220&#45;&gt;13268 -->
<g id="edge3" class="edge">
<title>14220&#45;&gt;13268</title>
<path fill="none" stroke="green" stroke-width="0.3" stroke-dasharray="1,5" d="M80.77,-272.76C85,-270.57 89.48,-268.24 93.96,-265.91"/>
<polygon fill="green" stroke="green" stroke-width="0.3" points="95.79,-268.91 103.05,-261.19 92.57,-262.69 95.79,-268.91"/>
<text text-anchor="middle" x="92.99" y="-270.84" font-family="Times,serif" font-size="5.00">1.000</text>
</g>
<!-- 14221&#45;&gt;14215 -->
<g id="edge13" class="edge">
<title>14221&#45;&gt;14215</title>
<path fill="none" stroke="green" stroke-width="0.2" stroke-dasharray="1,5" d="M53.96,-215.12C57.31,-214.46 60.79,-213.76 64.29,-213.07"/>
<polygon fill="green" stroke="green" stroke-width="0.2" points="64.99,-216.5 74.12,-211.12 63.63,-209.63 64.99,-216.5"/>
<text text-anchor="middle" x="64.75" y="-215.6" font-family="Times,serif" font-size="5.00">0.500</text>
</g>
<!-- 13268&#45;&gt;0 -->
<g id="edge29" class="edge">
<title>13268&#45;&gt;0</title>
<path fill="none" stroke="green" stroke-width="0.17" stroke-dasharray="1,5" d="M156.33,-227.92C162.44,-223.4 168.93,-218.6 174.94,-214.16"/>
<polygon fill="green" stroke="green" stroke-width="0.17" points="177.33,-216.74 183.29,-207.98 173.17,-211.11 177.33,-216.74"/>
<text text-anchor="middle" x="171.26" y="-222.54" font-family="Times,serif" font-size="5.00">0.333</text>
</g>
<!-- 13268&#45;&gt;14215 -->
<g id="edge11" class="edge">
<title>13268&#45;&gt;14215</title>
<path fill="none" stroke="green" stroke-width="0.53" d="M114.27,-220.08C114.23,-220.01 114.19,-219.95 114.15,-219.88"/>
<polygon fill="green" stroke="green" stroke-width="0.53" points="122.29,-226.34 114.04,-219.69 116.34,-230.04 122.29,-226.34"/>
<text text-anchor="middle" x="119.84" y="-221.48" font-family="Times,serif" font-size="5.00">2.143</text>
</g>
<!-- 14222 -->
<g id="node9" class="node">
<title>14222</title>
<ellipse fill="white" stroke="black" cx="183.05" cy="-27.22" rx="27.45" ry="27.45"/>
<text text-anchor="middle" x="183.05" y="-24.52" font-family="Times,serif" font-size="9.00">14222</text>
</g>
<!-- 14223 -->
<g id="node10" class="node">
<title>14223</title>
<ellipse fill="white" stroke="black" cx="256.27" cy="-36.37" rx="27.45" ry="27.45"/>
<text text-anchor="middle" x="256.27" y="-33.67" font-family="Times,serif" font-size="9.00">14223</text>
</g>
<!-- 14222&#45;&gt;14223 -->
<g id="edge4" class="edge">
<title>14222&#45;&gt;14223</title>
<path fill="none" stroke="green" stroke-width="0.3" d="M210.31,-30.63C213.21,-30.99 216.19,-31.37 219.18,-31.74"/>
<polygon fill="green" stroke="green" stroke-width="0.3" points="218.87,-35.23 229.23,-32.99 219.74,-28.28 218.87,-35.23"/>
<text text-anchor="middle" x="220.37" y="-32.68" font-family="Times,serif" font-size="5.00">1.000</text>
</g>
<!-- 14222&#45;&gt;14216 -->
<g id="edge6" class="edge">
<title>14222&#45;&gt;14216</title>
<path fill="none" stroke="green" stroke-width="0.3" stroke-dasharray="1,5" d="M180.5,-54.39C180.15,-58.11 179.79,-62 179.42,-65.91"/>
<polygon fill="green" stroke="green" stroke-width="0.3" points="175.9,-65.9 178.45,-76.18 182.87,-66.55 175.9,-65.9"/>
<text text-anchor="middle" x="174.33" y="-61.65" font-family="Times,serif" font-size="5.00">1.000</text>
</g>
<!-- 14223&#45;&gt;14218 -->
<g id="edge17" class="edge">
<title>14223&#45;&gt;14218</title>
<path fill="none" stroke="green" stroke-width="0.2" stroke-dasharray="1,5" d="M251.86,-63.61C251.3,-67.07 250.72,-70.67 250.13,-74.29"/>
<polygon fill="green" stroke="green" stroke-width="0.2" points="246.63,-74 248.49,-84.43 253.54,-75.12 246.63,-74"/>
<text text-anchor="middle" x="245.37" y="-70.45" font-family="Times,serif" font-size="5.00">0.500</text>
</g>
<!-- 14216&#45;&gt;0 -->
<g id="edge30" class="edge">
<title>14216&#45;&gt;0</title>
<path fill="none" stroke="green" stroke-width="0.17" stroke-dasharray="1,5" d="M183.21,-137.76C185.8,-147.92 188.66,-159.19 191.19,-169.14"/>
<polygon fill="green" stroke="green" stroke-width="0.17" points="187.82,-170.11 193.68,-178.94 194.61,-168.38 187.82,-170.11"/>
<text text-anchor="middle" x="181.58" y="-154.95" font-family="Times,serif" font-size="5.00">0.333</text>
</g>
<!-- 14216&#45;&gt;14218 -->
<g id="edge15" class="edge">
<title>14216&#45;&gt;14218</title>
<path fill="none" stroke="green" stroke-width="0.53" d="M206.7,-111.17C206.82,-111.18 206.93,-111.2 207.04,-111.21"/>
<polygon fill="green" stroke="green" stroke-width="0.53" points="201.81,-114.12 212.15,-111.82 202.64,-107.16 201.81,-114.12"/>
<text text-anchor="middle" x="206.87" y="-106.69" font-family="Times,serif" font-size="5.00">2.143</text>
</g>
<!-- 14224 -->
<g id="node12" class="node">
<title>14224</title>
<ellipse fill="white" stroke="black" cx="283.06" cy="-344.46" rx="27.45" ry="27.45"/>
<text text-anchor="middle" x="283.06" y="-341.76" font-family="Times,serif" font-size="9.00">14224</text>
</g>
<!-- 14225 -->
<g id="node13" class="node">
<title>14225</title>
<ellipse fill="white" stroke="black" cx="332.99" cy="-292.92" rx="27.45" ry="27.45"/>
<text text-anchor="middle" x="332.99" y="-290.22" font-family="Times,serif" font-size="9.00">14225</text>
</g>
<!-- 14224&#45;&gt;14225 -->
<g id="edge7" class="edge">
<title>14224&#45;&gt;14225</title>
<path fill="none" stroke="green" stroke-width="0.3" d="M302.22,-324.68C303.79,-323.06 305.38,-321.42 306.98,-319.76"/>
<polygon fill="green" stroke="green" stroke-width="0.3" points="309.52,-322.18 313.96,-312.56 304.49,-317.31 309.52,-322.18"/>
<text text-anchor="middle" x="310.23" y="-323.72" font-family="Times,serif" font-size="5.00">1.000</text>
</g>
<!-- 14224&#45;&gt;14217 -->
<g id="edge9" class="edge">
<title>14224&#45;&gt;14217</title>
<path fill="none" stroke="green" stroke-width="0.3" stroke-dasharray="1,5" d="M267.45,-321.85C265.69,-319.31 263.88,-316.68 262.05,-314.03"/>
<polygon fill="green" stroke="green" stroke-width="0.3" points="264.8,-311.85 256.24,-305.61 259.04,-315.83 264.8,-311.85"/>
<text text-anchor="middle" x="259.13" y="-313.44" font-family="Times,serif" font-size="5.00">1.000</text>
</g>
<!-- 14225&#45;&gt;14219 -->
<g id="edge21" class="edge">
<title>14225&#45;&gt;14219</title>
<path fill="none" stroke="green" stroke-width="0.2" stroke-dasharray="1,5" d="M312.01,-275.26C308.37,-272.2 304.51,-268.95 300.66,-265.71"/>
<polygon fill="green" stroke="green" stroke-width="0.2" points="302.73,-262.89 292.83,-259.13 298.23,-268.24 302.73,-262.89"/>
<text text-anchor="middle" x="300.71" y="-271.99" font-family="Times,serif" font-size="5.00">0.500</text>
</g>
<!-- 14217&#45;&gt;0 -->
<g id="edge31" class="edge">
<title>14217&#45;&gt;0</title>
<path fill="none" stroke="green" stroke-width="0.17" stroke-dasharray="1,5" d="M224.59,-251.28C220.13,-242.07 215.2,-231.9 210.83,-222.88"/>
<polygon fill="green" stroke="green" stroke-width="0.17" points="213.86,-221.12 206.35,-213.64 207.56,-224.17 213.86,-221.12"/>
<text text-anchor="middle" x="212.09" y="-238.58" font-family="Times,serif" font-size="5.00">0.333</text>
</g>
<!-- 14217&#45;&gt;14219 -->
<g id="edge19" class="edge">
<title>14217&#45;&gt;14219</title>
<path fill="none" stroke="green" stroke-width="0.53" d="M257.21,-254.66C257.26,-254.59 257.31,-254.53 257.36,-254.46"/>
<polygon fill="green" stroke="green" stroke-width="0.53" points="254.32,-264.37 257.5,-254.27 248.71,-260.18 254.32,-264.37"/>
<text text-anchor="middle" x="251.66" y="-256.06" font-family="Times,serif" font-size="5.00">2.143</text>
</g>
<!-- 14215&#45;&gt;0 -->
<g id="edge22" class="edge">
<title>14215&#45;&gt;0</title>
<path fill="none" stroke="green" stroke-width="1.44" d="M136.25,-202.29C147.06,-201.35 159.09,-200.31 169.67,-199.4"/>
<polygon fill="green" stroke="green" stroke-width="1.44" points="169.99,-202.88 179.65,-198.54 169.39,-195.91 169.99,-202.88"/>
<text text-anchor="middle" x="147.33" y="-202.34" font-family="Times,serif" font-size="5.00">6.718</text>
</g>
<!-- 14218&#45;&gt;0 -->
<g id="edge23" class="edge">
<title>14218&#45;&gt;0</title>
<path fill="none" stroke="green" stroke-width="1.44" d="M228.15,-143.08C223.06,-152.26 217.41,-162.43 212.4,-171.44"/>
<polygon fill="green" stroke="green" stroke-width="1.44" points="209.27,-169.88 207.47,-180.32 215.39,-173.27 209.27,-169.88"/>
<text text-anchor="middle" x="214.65" y="-158.76" font-family="Times,serif" font-size="5.00">6.718</text>
</g>
<!-- 14219&#45;&gt;0 -->
<g id="edge24" class="edge">
<title>14219&#45;&gt;0</title>
<path fill="none" stroke="green" stroke-width="1.44" d="M241.8,-222.85C235.67,-219.2 229.19,-215.35 223.15,-211.75"/>
<polygon fill="green" stroke="green" stroke-width="1.44" points="224.54,-208.5 214.15,-206.39 220.95,-214.52 224.54,-208.5"/>
<text text-anchor="middle" x="226.85" y="-218.8" font-family="Times,serif" font-size="5.00">6.718</text>
</g>
</g>
</svg>
