<?xml version="1.0" encoding="UTF-8" standalone="no"?>
<!DOCTYPE svg PUBLIC "-//W3C//DTD SVG 1.1//EN"
 "http://www.w3.org/Graphics/SVG/1.1/DTD/svg11.dtd">
<!-- Generated by graphviz version 2.47.1 (20210417.1919)
 -->
<!-- Pages: 1 -->
<svg width="230pt" height="221pt"
 viewBox="0.00 0.00 229.52 221.00" xmlns="http://www.w3.org/2000/svg" xmlns:xlink="http://www.w3.org/1999/xlink">
<g id="graph0" class="graph" transform="scale(1 1) rotate(0) translate(4 217)">
<polygon fill="white" stroke="transparent" points="-4,4 -4,-217 225.52,-217 225.52,4 -4,4"/>
<!-- &#45;1 -->
<g id="node1" class="node">
<title>&#45;1</title>
<polygon fill="lightgray" stroke="black" points="46.7,-161.72 22.7,-161.72 22.7,-143.12 46.7,-143.12 46.7,-161.72"/>
<text text-anchor="middle" x="34.7" y="-149.72" font-family="Times,serif" font-size="9.00">&#45;1</text>
</g>
<!-- 0 -->
<g id="node5" class="node">
<title>0</title>
<ellipse fill="lightblue" stroke="black" cx="108.84" cy="-111.52" rx="14.49" ry="14.49"/>
<ellipse fill="none" stroke="black" cx="108.84" cy="-111.52" rx="18.49" ry="18.49"/>
<text text-anchor="middle" x="108.84" y="-108.82" font-family="Times,serif" font-size="9.00">0</text>
</g>
<!-- &#45;1&#45;&gt;0 -->
<g id="edge4" class="edge">
<title>&#45;1&#45;&gt;0</title>
<path fill="none" stroke="green" stroke-width="1.08" d="M46.61,-145.85C56.52,-140.38 70.99,-132.4 83.48,-125.51"/>
<polygon fill="green" stroke="green" stroke-width="1.08" points="85.47,-128.41 92.53,-120.52 82.08,-122.28 85.47,-128.41"/>
<text text-anchor="middle" x="59.42" y="-137.18" font-family="Times,serif" font-size="5.00">4.894</text>
</g>
<!-- &#45;2 -->
<g id="node2" class="node">
<title>&#45;2</title>
<polygon fill="lightgray" stroke="black" points="179.87,-76.04 155.87,-76.04 155.87,-57.44 179.87,-57.44 179.87,-76.04"/>
<text text-anchor="middle" x="167.87" y="-64.04" font-family="Times,serif" font-size="9.00">&#45;2</text>
</g>
<!-- &#45;2&#45;&gt;0 -->
<g id="edge7" class="edge">
<title>&#45;2&#45;&gt;0</title>
<path fill="none" stroke="green" stroke-width="0.17" stroke-dasharray="1,5" d="M155.93,-75.8C149.02,-81.04 140.11,-87.8 131.89,-94.03"/>
<polygon fill="green" stroke="green" stroke-width="0.17" points="129.55,-91.41 123.7,-100.25 133.78,-96.99 129.55,-91.41"/>
<text text-anchor="middle" x="138.28" y="-86.42" font-family="Times,serif" font-size="5.00">0.333</text>
</g>
<!-- 2780 -->
<g id="node9" class="node">
<title>2780</title>
<ellipse fill="white" stroke="black" cx="104.78" cy="-37.38" rx="24.08" ry="24.08"/>
<text text-anchor="middle" x="104.78" y="-34.68" font-family="Times,serif" font-size="9.00">2780</text>
</g>
<!-- &#45;2&#45;&gt;2780 -->
<g id="edge1" class="edge">
<title>&#45;2&#45;&gt;2780</title>
<path fill="none" stroke="red" stroke-width="0.23" d="M156,-61.21C150.36,-58.59 143.32,-55.31 136.27,-52.04"/>
<polygon fill="red" stroke="red" stroke-width="0.23" points="137.35,-48.68 126.81,-47.63 134.4,-55.02 137.35,-48.68"/>
<text text-anchor="middle" x="139.68" y="-58.13" font-family="Times,serif" font-size="5.00">&#45;0.657</text>
</g>
<!-- 2783 -->
<g id="node10" class="node">
<title>2783</title>
<ellipse fill="white" stroke="black" cx="197.48" cy="-111.33" rx="24.08" ry="24.08"/>
<text text-anchor="middle" x="197.48" y="-108.63" font-family="Times,serif" font-size="9.00">2783</text>
</g>
<!-- &#45;2&#45;&gt;2783 -->
<g id="edge2" class="edge">
<title>&#45;2&#45;&gt;2783</title>
<path fill="none" stroke="red" stroke-width="0.23" d="M174.15,-76.19C175.43,-78.12 176.83,-80.23 178.3,-82.45"/>
<polygon fill="red" stroke="red" stroke-width="0.23" points="175.7,-84.85 184.14,-91.24 181.53,-80.97 175.7,-84.85"/>
<text text-anchor="middle" x="169.77" y="-80.82" font-family="Times,serif" font-size="5.00">&#45;0.657</text>
</g>
<!-- 2784 -->
<g id="node11" class="node">
<title>2784</title>
<ellipse fill="white" stroke="black" cx="146.78" cy="-24.04" rx="24.08" ry="24.08"/>
<text text-anchor="middle" x="146.78" y="-21.34" font-family="Times,serif" font-size="9.00">2784</text>
</g>
<!-- &#45;2&#45;&gt;2784 -->
<g id="edge3" class="edge">
<title>&#45;2&#45;&gt;2784</title>
<path fill="none" stroke="red" stroke-width="0.23" d="M163.19,-57.26C162.82,-56.51 162.43,-55.73 162.04,-54.92"/>
<polygon fill="red" stroke="red" stroke-width="0.23" points="165.06,-53.14 157.49,-45.72 158.78,-56.24 165.06,-53.14"/>
<text text-anchor="middle" x="156.16" y="-51.59" font-family="Times,serif" font-size="5.00">&#45;0.657</text>
</g>
<!-- &#45;3 -->
<g id="node3" class="node">
<title>&#45;3</title>
<polygon fill="lightgray" stroke="black" points="58.15,-56.93 34.14,-56.93 34.14,-38.33 58.15,-38.33 58.15,-56.93"/>
<text text-anchor="middle" x="46.15" y="-44.93" font-family="Times,serif" font-size="9.00">&#45;3</text>
</g>
<!-- &#45;3&#45;&gt;0 -->
<g id="edge5" class="edge">
<title>&#45;3&#45;&gt;0</title>
<path fill="none" stroke="green" stroke-width="1.08" d="M55.4,-57.06C64.03,-65.86 77.21,-79.29 88.33,-90.62"/>
<polygon fill="green" stroke="green" stroke-width="1.08" points="86.11,-93.35 95.61,-98.04 91.1,-88.45 86.11,-93.35"/>
<text text-anchor="middle" x="66.24" y="-75.34" font-family="Times,serif" font-size="5.00">4.894</text>
</g>
<!-- &#45;4 -->
<g id="node4" class="node">
<title>&#45;4</title>
<polygon fill="lightgray" stroke="black" points="141.85,-203.07 117.85,-203.07 117.85,-184.46 141.85,-184.46 141.85,-203.07"/>
<text text-anchor="middle" x="129.85" y="-191.06" font-family="Times,serif" font-size="9.00">&#45;4</text>
</g>
<!-- &#45;4&#45;&gt;0 -->
<g id="edge6" class="edge">
<title>&#45;4&#45;&gt;0</title>
<path fill="none" stroke="green" stroke-width="1.08" d="M127.44,-184.33C124.64,-173.39 119.91,-154.87 115.92,-139.24"/>
<polygon fill="green" stroke="green" stroke-width="1.08" points="119.3,-138.32 113.43,-129.5 112.51,-140.06 119.3,-138.32"/>
<text text-anchor="middle" x="116.05" y="-163.29" font-family="Times,serif" font-size="5.00">4.894</text>
</g>
<!-- 1837 -->
<g id="node6" class="node">
<title>1837</title>
<ellipse fill="white" stroke="black" cx="75.4" cy="-188.96" rx="24.08" ry="24.08"/>
<text text-anchor="middle" x="75.4" y="-186.26" font-family="Times,serif" font-size="9.00">1837</text>
</g>
<!-- 1837&#45;&gt;0 -->
<g id="edge8" class="edge">
<title>1837&#45;&gt;0</title>
<path fill="none" stroke="green" stroke-width="0.17" stroke-dasharray="1,5" d="M85.07,-166.56C88.93,-157.61 93.41,-147.23 97.44,-137.92"/>
<polygon fill="green" stroke="green" stroke-width="0.17" points="100.67,-139.27 101.42,-128.7 94.24,-136.5 100.67,-139.27"/>
<text text-anchor="middle" x="85.63" y="-153.74" font-family="Times,serif" font-size="5.00">0.333</text>
</g>
<!-- 2781 -->
<g id="node7" class="node">
<title>2781</title>
<ellipse fill="white" stroke="black" cx="24.04" cy="-99" rx="24.08" ry="24.08"/>
<text text-anchor="middle" x="24.04" y="-96.3" font-family="Times,serif" font-size="9.00">2781</text>
</g>
<!-- 2781&#45;&gt;0 -->
<g id="edge9" class="edge">
<title>2781&#45;&gt;0</title>
<path fill="none" stroke="green" stroke-width="0.17" stroke-dasharray="1,5" d="M48.11,-102.55C58.18,-104.04 69.94,-105.78 80.42,-107.33"/>
<polygon fill="green" stroke="green" stroke-width="0.17" points="79.96,-110.8 90.37,-108.79 80.99,-103.87 79.96,-110.8"/>
<text text-anchor="middle" x="58.64" y="-106.44" font-family="Times,serif" font-size="5.00">0.333</text>
</g>
<!-- 2782 -->
<g id="node8" class="node">
<title>2782</title>
<ellipse fill="white" stroke="black" cx="176.46" cy="-165.38" rx="24.08" ry="24.08"/>
<text text-anchor="middle" x="176.46" y="-162.68" font-family="Times,serif" font-size="9.00">2782</text>
</g>
<!-- 2782&#45;&gt;0 -->
<g id="edge10" class="edge">
<title>2782&#45;&gt;0</title>
<path fill="none" stroke="green" stroke-width="0.17" stroke-dasharray="1,5" d="M157.62,-150.38C149.53,-143.93 140.01,-136.35 131.54,-129.6"/>
<polygon fill="green" stroke="green" stroke-width="0.17" points="133.5,-126.69 123.5,-123.2 129.14,-132.17 133.5,-126.69"/>
<text text-anchor="middle" x="138.95" y="-141.49" font-family="Times,serif" font-size="5.00">0.333</text>
</g>
<!-- 2780&#45;&gt;0 -->
<g id="edge11" class="edge">
<title>2780&#45;&gt;0</title>
<path fill="none" stroke="green" stroke-width="0.17" stroke-dasharray="1,5" d="M106.11,-61.66C106.47,-68.31 106.87,-75.59 107.25,-82.48"/>
<polygon fill="green" stroke="green" stroke-width="0.17" points="103.77,-83.04 107.81,-92.84 110.76,-82.66 103.77,-83.04"/>
<text text-anchor="middle" x="101.05" y="-73.57" font-family="Times,serif" font-size="5.00">0.333</text>
</g>
<!-- 2783&#45;&gt;0 -->
<g id="edge12" class="edge">
<title>2783&#45;&gt;0</title>
<path fill="none" stroke="green" stroke-width="0.17" stroke-dasharray="1,5" d="M173.26,-111.38C162.19,-111.4 149,-111.43 137.45,-111.46"/>
<polygon fill="green" stroke="green" stroke-width="0.17" points="137.4,-107.96 127.41,-111.48 137.41,-114.96 137.4,-107.96"/>
<text text-anchor="middle" x="149.73" y="-112.92" font-family="Times,serif" font-size="5.00">0.333</text>
</g>
<!-- 2784&#45;&gt;0 -->
<g id="edge13" class="edge">
<title>2784&#45;&gt;0</title>
<path fill="none" stroke="green" stroke-width="0.17" stroke-dasharray="1,5" d="M137.21,-46.12C132.08,-57.94 125.73,-72.59 120.33,-85.02"/>
<polygon fill="green" stroke="green" stroke-width="0.17" points="117.02,-83.85 116.25,-94.42 123.44,-86.64 117.02,-83.85"/>
<text text-anchor="middle" x="123.14" y="-67.07" font-family="Times,serif" font-size="5.00">0.333</text>
</g>
</g>
</svg>
