<?xml version="1.0" encoding="UTF-8" standalone="no"?>
<!DOCTYPE svg PUBLIC "-//W3C//DTD SVG 1.1//EN"
 "http://www.w3.org/Graphics/SVG/1.1/DTD/svg11.dtd">
<!-- Generated by graphviz version 2.47.1 (20210417.1919)
 -->
<!-- Pages: 1 -->
<svg width="210pt" height="186pt"
 viewBox="0.00 0.00 210.49 186.12" xmlns="http://www.w3.org/2000/svg" xmlns:xlink="http://www.w3.org/1999/xlink">
<g id="graph0" class="graph" transform="scale(1 1) rotate(0) translate(4 182.12)">
<polygon fill="white" stroke="transparent" points="-4,4 -4,-182.12 206.49,-182.12 206.49,4 -4,4"/>
<!-- &#45;1 -->
<g id="node1" class="node">
<title>&#45;1</title>
<polygon fill="lightgray" stroke="black" points="23.75,-132.36 -0.25,-132.36 -0.25,-113.76 23.75,-113.76 23.75,-132.36"/>
<text text-anchor="middle" x="11.75" y="-120.36" font-family="Times,serif" font-size="9.00">&#45;1</text>
</g>
<!-- 0 -->
<g id="node5" class="node">
<title>0</title>
<ellipse fill="lightblue" stroke="black" cx="92.04" cy="-100.01" rx="14.49" ry="14.49"/>
<ellipse fill="none" stroke="black" cx="92.04" cy="-100.01" rx="18.49" ry="18.49"/>
<text text-anchor="middle" x="92.04" y="-97.31" font-family="Times,serif" font-size="9.00">0</text>
</g>
<!-- &#45;1&#45;&gt;0 -->
<g id="edge7" class="edge">
<title>&#45;1&#45;&gt;0</title>
<path fill="none" stroke="green" stroke-width="0.79" d="M23.6,-119.66C34.34,-116.57 50.58,-111.91 64.54,-107.9"/>
<polygon fill="green" stroke="green" stroke-width="0.79" points="65.55,-111.25 74.2,-105.13 63.62,-104.53 65.55,-111.25"/>
<text text-anchor="middle" x="38.44" y="-115.28" font-family="Times,serif" font-size="5.00">3.430</text>
</g>
<!-- 8055 -->
<g id="node6" class="node">
<title>8055</title>
<ellipse fill="white" stroke="black" cx="65.69" cy="-152.62" rx="24.08" ry="24.08"/>
<text text-anchor="middle" x="65.69" y="-149.92" font-family="Times,serif" font-size="9.00">8055</text>
</g>
<!-- &#45;1&#45;&gt;8055 -->
<g id="edge1" class="edge">
<title>&#45;1&#45;&gt;8055</title>
<path fill="none" stroke="green" stroke-width="0.52" d="M23.72,-129.62C27.24,-131.55 31.25,-133.75 35.37,-136.01"/>
<polygon fill="green" stroke="green" stroke-width="0.52" points="33.96,-139.22 44.41,-140.96 37.33,-133.08 33.96,-139.22"/>
<text text-anchor="middle" x="23.92" y="-134.31" font-family="Times,serif" font-size="5.00">2.097</text>
</g>
<!-- &#45;2 -->
<g id="node2" class="node">
<title>&#45;2</title>
<polygon fill="lightgray" stroke="black" points="138.96,-85.55 114.96,-85.55 114.96,-66.94 138.96,-66.94 138.96,-85.55"/>
<text text-anchor="middle" x="126.96" y="-73.54" font-family="Times,serif" font-size="9.00">&#45;2</text>
</g>
<!-- &#45;2&#45;&gt;0 -->
<g id="edge10" class="edge">
<title>&#45;2&#45;&gt;0</title>
<path fill="none" stroke="green" stroke-width="0.17" stroke-dasharray="1,5" d="M115.14,-84.29C114.99,-84.39 114.84,-84.49 114.69,-84.59"/>
<polygon fill="green" stroke="green" stroke-width="0.17" points="114.05,-80.8 107.75,-89.32 117.99,-86.58 114.05,-80.8"/>
<text text-anchor="middle" x="120.54" y="-85.94" font-family="Times,serif" font-size="5.00">0.333</text>
</g>
<!-- &#45;2&#45;&gt;8055 -->
<g id="edge2" class="edge">
<title>&#45;2&#45;&gt;8055</title>
<path fill="none" stroke="red" stroke-width="0.97" d="M119.45,-85.61C111.43,-95.6 98.37,-111.88 87.13,-125.89"/>
<polygon fill="red" stroke="red" stroke-width="0.97" points="84.3,-123.82 80.77,-133.81 89.76,-128.2 84.3,-123.82"/>
<text text-anchor="middle" x="109.75" y="-107.25" font-family="Times,serif" font-size="5.00">&#45;4.358</text>
</g>
<!-- 8056 -->
<g id="node7" class="node">
<title>8056</title>
<ellipse fill="white" stroke="black" cx="62.24" cy="-31.8" rx="24.08" ry="24.08"/>
<text text-anchor="middle" x="62.24" y="-29.1" font-family="Times,serif" font-size="9.00">8056</text>
</g>
<!-- &#45;2&#45;&gt;8056 -->
<g id="edge4" class="edge">
<title>&#45;2&#45;&gt;8056</title>
<path fill="none" stroke="red" stroke-width="0.97" d="M115.09,-68.09C108.19,-63.36 99.18,-57.17 90.56,-51.26"/>
<polygon fill="red" stroke="red" stroke-width="0.97" points="92.39,-48.26 82.17,-45.49 88.43,-54.04 92.39,-48.26"/>
<text text-anchor="middle" x="96.37" y="-61.17" font-family="Times,serif" font-size="5.00">&#45;4.358</text>
</g>
<!-- 8057 -->
<g id="node8" class="node">
<title>8057</title>
<ellipse fill="white" stroke="black" cx="178.44" cy="-111.8" rx="24.08" ry="24.08"/>
<text text-anchor="middle" x="178.44" y="-109.1" font-family="Times,serif" font-size="9.00">8057</text>
</g>
<!-- &#45;2&#45;&gt;8057 -->
<g id="edge6" class="edge">
<title>&#45;2&#45;&gt;8057</title>
<path fill="none" stroke="red" stroke-width="0.97" d="M138.9,-84.49C142.27,-86.82 146.08,-89.45 149.98,-92.14"/>
<polygon fill="red" stroke="red" stroke-width="0.97" points="148.28,-95.23 158.5,-98.03 152.26,-89.47 148.28,-95.23"/>
<text text-anchor="middle" x="137.98" y="-89.82" font-family="Times,serif" font-size="5.00">&#45;4.358</text>
</g>
<!-- &#45;3 -->
<g id="node3" class="node">
<title>&#45;3</title>
<polygon fill="lightgray" stroke="black" points="127.72,-18.7 103.72,-18.7 103.72,-0.1 127.72,-0.1 127.72,-18.7"/>
<text text-anchor="middle" x="115.72" y="-6.7" font-family="Times,serif" font-size="9.00">&#45;3</text>
</g>
<!-- &#45;3&#45;&gt;0 -->
<g id="edge8" class="edge">
<title>&#45;3&#45;&gt;0</title>
<path fill="none" stroke="green" stroke-width="0.79" d="M113.27,-18.76C110.02,-31.21 104.12,-53.78 99.36,-71.98"/>
<polygon fill="green" stroke="green" stroke-width="0.79" points="95.94,-71.26 96.79,-81.82 102.71,-73.03 95.94,-71.26"/>
<text text-anchor="middle" x="100.69" y="-46.87" font-family="Times,serif" font-size="5.00">3.430</text>
</g>
<!-- &#45;3&#45;&gt;8056 -->
<g id="edge3" class="edge">
<title>&#45;3&#45;&gt;8056</title>
<path fill="none" stroke="green" stroke-width="0.52" d="M103.85,-14.37C100.84,-15.63 97.46,-17.05 93.97,-18.51"/>
<polygon fill="green" stroke="green" stroke-width="0.52" points="92.49,-15.34 84.62,-22.43 95.19,-21.79 92.49,-15.34"/>
<text text-anchor="middle" x="93.29" y="-17.94" font-family="Times,serif" font-size="5.00">2.097</text>
</g>
<!-- &#45;4 -->
<g id="node4" class="node">
<title>&#45;4</title>
<polygon fill="lightgray" stroke="black" points="160.46,-178.02 136.46,-178.02 136.46,-159.42 160.46,-159.42 160.46,-178.02"/>
<text text-anchor="middle" x="148.46" y="-166.02" font-family="Times,serif" font-size="9.00">&#45;4</text>
</g>
<!-- &#45;4&#45;&gt;0 -->
<g id="edge9" class="edge">
<title>&#45;4&#45;&gt;0</title>
<path fill="none" stroke="green" stroke-width="0.79" d="M140.61,-159.16C132.81,-149.67 120.57,-134.75 110.32,-122.28"/>
<polygon fill="green" stroke="green" stroke-width="0.79" points="113,-120.02 103.95,-114.51 107.59,-124.46 113,-120.02"/>
<text text-anchor="middle" x="119.84" y="-142.22" font-family="Times,serif" font-size="5.00">3.430</text>
</g>
<!-- &#45;4&#45;&gt;8057 -->
<g id="edge5" class="edge">
<title>&#45;4&#45;&gt;8057</title>
<path fill="none" stroke="green" stroke-width="0.52" d="M153.41,-159.32C155.91,-154.57 159.11,-148.5 162.37,-142.31"/>
<polygon fill="green" stroke="green" stroke-width="0.52" points="165.56,-143.76 167.13,-133.28 159.37,-140.49 165.56,-143.76"/>
<text text-anchor="middle" x="152.26" y="-152.31" font-family="Times,serif" font-size="5.00">2.097</text>
</g>
<!-- 8055&#45;&gt;0 -->
<g id="edge11" class="edge">
<title>8055&#45;&gt;0</title>
<path fill="none" stroke="green" stroke-width="0.17" stroke-dasharray="1,5" d="M76.56,-130.92C77.38,-129.28 78.21,-127.62 79.04,-125.96"/>
<polygon fill="green" stroke="green" stroke-width="0.17" points="82.34,-127.19 83.69,-116.68 76.08,-124.05 82.34,-127.19"/>
<text text-anchor="middle" x="72.17" y="-123.94" font-family="Times,serif" font-size="5.00">0.333</text>
</g>
<!-- 8056&#45;&gt;0 -->
<g id="edge12" class="edge">
<title>8056&#45;&gt;0</title>
<path fill="none" stroke="green" stroke-width="0.17" stroke-dasharray="1,5" d="M71.99,-54.14C74.67,-60.26 77.59,-66.95 80.36,-73.29"/>
<polygon fill="green" stroke="green" stroke-width="0.17" points="77.32,-75.06 84.53,-82.82 83.73,-72.26 77.32,-75.06"/>
<text text-anchor="middle" x="70.55" y="-65.21" font-family="Times,serif" font-size="5.00">0.333</text>
</g>
<!-- 8057&#45;&gt;0 -->
<g id="edge13" class="edge">
<title>8057&#45;&gt;0</title>
<path fill="none" stroke="green" stroke-width="0.17" stroke-dasharray="1,5" d="M154.38,-108.52C143.86,-107.08 131.44,-105.39 120.47,-103.89"/>
<polygon fill="green" stroke="green" stroke-width="0.17" points="120.88,-100.41 110.5,-102.53 119.93,-107.35 120.88,-100.41"/>
<text text-anchor="middle" x="131.8" y="-107.7" font-family="Times,serif" font-size="5.00">0.333</text>
</g>
</g>
</svg>
