<?xml version="1.0" encoding="UTF-8" standalone="no"?>
<!DOCTYPE svg PUBLIC "-//W3C//DTD SVG 1.1//EN"
 "http://www.w3.org/Graphics/SVG/1.1/DTD/svg11.dtd">
<!-- Generated by graphviz version 2.47.1 (20210417.1919)
 -->
<!-- Pages: 1 -->
<svg width="229pt" height="219pt"
 viewBox="0.00 0.00 229.19 219.07" xmlns="http://www.w3.org/2000/svg" xmlns:xlink="http://www.w3.org/1999/xlink">
<g id="graph0" class="graph" transform="scale(1 1) rotate(0) translate(4 215.07)">
<polygon fill="white" stroke="transparent" points="-4,4 -4,-215.07 225.19,-215.07 225.19,4 -4,4"/>
<!-- &#45;1 -->
<g id="node1" class="node">
<title>&#45;1</title>
<polygon fill="lightgray" stroke="black" points="46.79,-161.75 22.79,-161.75 22.79,-143.15 46.79,-143.15 46.79,-161.75"/>
<text text-anchor="middle" x="34.79" y="-149.75" font-family="Times,serif" font-size="9.00">&#45;1</text>
</g>
<!-- 0 -->
<g id="node5" class="node">
<title>0</title>
<ellipse fill="lightblue" stroke="black" cx="108.29" cy="-110.79" rx="14.49" ry="14.49"/>
<ellipse fill="none" stroke="black" cx="108.29" cy="-110.79" rx="18.49" ry="18.49"/>
<text text-anchor="middle" x="108.29" y="-108.09" font-family="Times,serif" font-size="9.00">0</text>
</g>
<!-- &#45;1&#45;&gt;0 -->
<g id="edge7" class="edge">
<title>&#45;1&#45;&gt;0</title>
<path fill="none" stroke="green" stroke-width="0.89" d="M46.6,-145.76C56.43,-140.18 70.77,-132.06 83.15,-125.04"/>
<polygon fill="green" stroke="green" stroke-width="0.89" points="85.15,-127.93 92.13,-119.95 81.7,-121.84 85.15,-127.93"/>
<text text-anchor="middle" x="59.25" y="-136.9" font-family="Times,serif" font-size="5.00">3.925</text>
</g>
<!-- 2376 -->
<g id="node6" class="node">
<title>2376</title>
<ellipse fill="white" stroke="black" cx="72.44" cy="-187.03" rx="24.08" ry="24.08"/>
<text text-anchor="middle" x="72.44" y="-184.33" font-family="Times,serif" font-size="9.00">2376</text>
</g>
<!-- &#45;1&#45;&gt;2376 -->
<g id="edge1" class="edge">
<title>&#45;1&#45;&gt;2376</title>
<path fill="none" stroke="red" stroke-width="0.15" d="M45.07,-161.9C45.72,-162.5 46.39,-163.11 47.07,-163.73"/>
<polygon fill="red" stroke="red" stroke-width="0.15" points="44.9,-166.49 54.63,-170.68 49.63,-161.34 44.9,-166.49"/>
<text text-anchor="middle" x="39.61" y="-164.31" font-family="Times,serif" font-size="5.00">&#45;0.257</text>
</g>
<!-- &#45;2 -->
<g id="node2" class="node">
<title>&#45;2</title>
<polygon fill="lightgray" stroke="black" points="179.37,-76.3 155.37,-76.3 155.37,-57.7 179.37,-57.7 179.37,-76.3"/>
<text text-anchor="middle" x="167.37" y="-64.3" font-family="Times,serif" font-size="9.00">&#45;2</text>
</g>
<!-- &#45;2&#45;&gt;0 -->
<g id="edge10" class="edge">
<title>&#45;2&#45;&gt;0</title>
<path fill="none" stroke="green" stroke-width="0.17" stroke-dasharray="1,5" d="M155.41,-75.86C148.51,-80.98 139.58,-87.59 131.36,-93.69"/>
<polygon fill="green" stroke="green" stroke-width="0.17" points="129.11,-91 123.16,-99.76 133.28,-96.62 129.11,-91"/>
<text text-anchor="middle" x="137.76" y="-86.28" font-family="Times,serif" font-size="5.00">0.333</text>
</g>
<!-- 2966 -->
<g id="node9" class="node">
<title>2966</title>
<ellipse fill="white" stroke="black" cx="104.78" cy="-35.51" rx="24.08" ry="24.08"/>
<text text-anchor="middle" x="104.78" y="-32.81" font-family="Times,serif" font-size="9.00">2966</text>
</g>
<!-- &#45;2&#45;&gt;2966 -->
<g id="edge4" class="edge">
<title>&#45;2&#45;&gt;2966</title>
<path fill="none" stroke="green" stroke-width="0.5" d="M155.6,-61.08C149.82,-58.17 142.57,-54.52 135.36,-50.9"/>
<polygon fill="green" stroke="green" stroke-width="0.5" points="136.89,-47.75 126.38,-46.38 133.74,-54 136.89,-47.75"/>
<text text-anchor="middle" x="139.86" y="-57.49" font-family="Times,serif" font-size="5.00">2.020</text>
</g>
<!-- 2969 -->
<g id="node10" class="node">
<title>2969</title>
<ellipse fill="white" stroke="black" cx="197.14" cy="-111.67" rx="24.08" ry="24.08"/>
<text text-anchor="middle" x="197.14" y="-108.97" font-family="Times,serif" font-size="9.00">2969</text>
</g>
<!-- &#45;2&#45;&gt;2969 -->
<g id="edge5" class="edge">
<title>&#45;2&#45;&gt;2969</title>
<path fill="none" stroke="green" stroke-width="0.5" d="M173.68,-76.48C175.06,-78.54 176.58,-80.83 178.18,-83.22"/>
<polygon fill="green" stroke="green" stroke-width="0.5" points="175.27,-85.17 183.73,-91.55 181.1,-81.29 175.27,-85.17"/>
<text text-anchor="middle" x="170.3" y="-81.35" font-family="Times,serif" font-size="5.00">2.020</text>
</g>
<!-- 2970 -->
<g id="node11" class="node">
<title>2970</title>
<ellipse fill="white" stroke="black" cx="147.66" cy="-24.04" rx="24.08" ry="24.08"/>
<text text-anchor="middle" x="147.66" y="-21.34" font-family="Times,serif" font-size="9.00">2970</text>
</g>
<!-- &#45;2&#45;&gt;2970 -->
<g id="edge6" class="edge">
<title>&#45;2&#45;&gt;2970</title>
<path fill="none" stroke="green" stroke-width="0.5" d="M162.99,-57.47C162.7,-56.84 162.41,-56.19 162.1,-55.52"/>
<polygon fill="green" stroke="green" stroke-width="0.5" points="165.18,-53.84 157.83,-46.21 158.82,-56.75 165.18,-53.84"/>
<text text-anchor="middle" x="156.92" y="-51.99" font-family="Times,serif" font-size="5.00">2.020</text>
</g>
<!-- &#45;3 -->
<g id="node3" class="node">
<title>&#45;3</title>
<polygon fill="lightgray" stroke="black" points="57,-58.14 32.99,-58.14 32.99,-39.54 57,-39.54 57,-58.14"/>
<text text-anchor="middle" x="45" y="-46.14" font-family="Times,serif" font-size="9.00">&#45;3</text>
</g>
<!-- &#45;3&#45;&gt;0 -->
<g id="edge8" class="edge">
<title>&#45;3&#45;&gt;0</title>
<path fill="none" stroke="green" stroke-width="0.89" d="M54.61,-58.25C63.38,-66.83 76.62,-79.79 87.76,-90.7"/>
<polygon fill="green" stroke="green" stroke-width="0.89" points="85.46,-93.34 95.05,-97.83 90.36,-88.34 85.46,-93.34"/>
<text text-anchor="middle" x="65.56" y="-75.97" font-family="Times,serif" font-size="5.00">3.925</text>
</g>
<!-- 2967 -->
<g id="node7" class="node">
<title>2967</title>
<ellipse fill="white" stroke="black" cx="24.04" cy="-95.85" rx="24.08" ry="24.08"/>
<text text-anchor="middle" x="24.04" y="-93.15" font-family="Times,serif" font-size="9.00">2967</text>
</g>
<!-- &#45;3&#45;&gt;2967 -->
<g id="edge2" class="edge">
<title>&#45;3&#45;&gt;2967</title>
<path fill="none" stroke="red" stroke-width="0.15" d="M40.76,-58.36C39.96,-60.14 39.09,-62.1 38.17,-64.15"/>
<polygon fill="red" stroke="red" stroke-width="0.15" points="34.87,-62.97 33.99,-73.53 41.26,-65.82 34.87,-62.97"/>
<text text-anchor="middle" x="33.01" y="-62.75" font-family="Times,serif" font-size="5.00">&#45;0.257</text>
</g>
<!-- &#45;4 -->
<g id="node4" class="node">
<title>&#45;4</title>
<polygon fill="lightgray" stroke="black" points="141.81,-202.13 117.81,-202.13 117.81,-183.53 141.81,-183.53 141.81,-202.13"/>
<text text-anchor="middle" x="129.81" y="-190.13" font-family="Times,serif" font-size="9.00">&#45;4</text>
</g>
<!-- &#45;4&#45;&gt;0 -->
<g id="edge9" class="edge">
<title>&#45;4&#45;&gt;0</title>
<path fill="none" stroke="green" stroke-width="0.89" d="M127.34,-183.42C124.48,-172.51 119.63,-154.03 115.54,-138.44"/>
<polygon fill="green" stroke="green" stroke-width="0.89" points="118.92,-137.51 112.99,-128.72 112.15,-139.28 118.92,-137.51"/>
<text text-anchor="middle" x="115.82" y="-162.43" font-family="Times,serif" font-size="5.00">3.925</text>
</g>
<!-- 2968 -->
<g id="node8" class="node">
<title>2968</title>
<ellipse fill="white" stroke="black" cx="173.62" cy="-166.59" rx="24.08" ry="24.08"/>
<text text-anchor="middle" x="173.62" y="-163.89" font-family="Times,serif" font-size="9.00">2968</text>
</g>
<!-- &#45;4&#45;&gt;2968 -->
<g id="edge3" class="edge">
<title>&#45;4&#45;&gt;2968</title>
<path fill="none" stroke="red" stroke-width="0.15" d="M141.78,-185.66C142.54,-185.21 143.31,-184.74 144.1,-184.27"/>
<polygon fill="red" stroke="red" stroke-width="0.15" points="146.12,-187.14 152.9,-179 142.53,-181.13 146.12,-187.14"/>
<text text-anchor="middle" x="142.94" y="-180.46" font-family="Times,serif" font-size="5.00">&#45;0.257</text>
</g>
<!-- 2376&#45;&gt;0 -->
<g id="edge11" class="edge">
<title>2376&#45;&gt;0</title>
<path fill="none" stroke="green" stroke-width="0.17" stroke-dasharray="1,5" d="M82.81,-164.98C86.88,-156.32 91.58,-146.31 95.84,-137.27"/>
<polygon fill="green" stroke="green" stroke-width="0.17" points="99.13,-138.49 100.22,-127.95 92.8,-135.51 99.13,-138.49"/>
<text text-anchor="middle" x="83.7" y="-152.63" font-family="Times,serif" font-size="5.00">0.333</text>
</g>
<!-- 2967&#45;&gt;0 -->
<g id="edge12" class="edge">
<title>2967&#45;&gt;0</title>
<path fill="none" stroke="green" stroke-width="0.17" stroke-dasharray="1,5" d="M47.96,-100.09C57.96,-101.86 69.65,-103.94 80.06,-105.78"/>
<polygon fill="green" stroke="green" stroke-width="0.17" points="79.48,-109.24 89.94,-107.53 80.71,-102.34 79.48,-109.24"/>
<text text-anchor="middle" x="58.38" y="-104.44" font-family="Times,serif" font-size="5.00">0.333</text>
</g>
<!-- 2968&#45;&gt;0 -->
<g id="edge13" class="edge">
<title>2968&#45;&gt;0</title>
<path fill="none" stroke="green" stroke-width="0.17" stroke-dasharray="1,5" d="M155.08,-150.75C147.38,-144.17 138.39,-136.49 130.36,-129.63"/>
<polygon fill="green" stroke="green" stroke-width="0.17" points="132.61,-126.95 122.73,-123.12 128.06,-132.27 132.61,-126.95"/>
<text text-anchor="middle" x="137.09" y="-141.69" font-family="Times,serif" font-size="5.00">0.333</text>
</g>
<!-- 2966&#45;&gt;0 -->
<g id="edge14" class="edge">
<title>2966&#45;&gt;0</title>
<path fill="none" stroke="green" stroke-width="0.17" stroke-dasharray="1,5" d="M105.91,-59.74C106.24,-66.79 106.6,-74.56 106.94,-81.86"/>
<polygon fill="green" stroke="green" stroke-width="0.17" points="103.46,-82.27 107.42,-92.09 110.45,-81.94 103.46,-82.27"/>
<text text-anchor="middle" x="100.8" y="-72.3" font-family="Times,serif" font-size="5.00">0.333</text>
</g>
<!-- 2969&#45;&gt;0 -->
<g id="edge15" class="edge">
<title>2969&#45;&gt;0</title>
<path fill="none" stroke="green" stroke-width="0.17" stroke-dasharray="1,5" d="M172.86,-111.43C161.77,-111.32 148.55,-111.19 136.97,-111.07"/>
<polygon fill="green" stroke="green" stroke-width="0.17" points="136.94,-107.57 126.9,-110.97 136.87,-114.57 136.94,-107.57"/>
<text text-anchor="middle" x="149.29" y="-112.75" font-family="Times,serif" font-size="5.00">0.333</text>
</g>
<!-- 2970&#45;&gt;0 -->
<g id="edge16" class="edge">
<title>2970&#45;&gt;0</title>
<path fill="none" stroke="green" stroke-width="0.17" stroke-dasharray="1,5" d="M137.52,-46.38C132.24,-58.03 125.74,-72.34 120.21,-84.52"/>
<polygon fill="green" stroke="green" stroke-width="0.17" points="116.98,-83.18 116.03,-93.73 123.35,-86.07 116.98,-83.18"/>
<text text-anchor="middle" x="123.24" y="-66.95" font-family="Times,serif" font-size="5.00">0.333</text>
</g>
</g>
</svg>
