<?xml version="1.0" encoding="UTF-8" standalone="no"?>
<!DOCTYPE svg PUBLIC "-//W3C//DTD SVG 1.1//EN"
 "http://www.w3.org/Graphics/SVG/1.1/DTD/svg11.dtd">
<!-- Generated by graphviz version 2.47.1 (20210417.1919)
 -->
<!-- Pages: 1 -->
<svg width="246pt" height="272pt"
 viewBox="0.00 0.00 246.08 272.08" xmlns="http://www.w3.org/2000/svg" xmlns:xlink="http://www.w3.org/1999/xlink">
<g id="graph0" class="graph" transform="scale(1 1) rotate(0) translate(4 268.08)">
<polygon fill="white" stroke="transparent" points="-4,4 -4,-268.08 242.08,-268.08 242.08,4 -4,4"/>
<!-- &#45;1 -->
<g id="node1" class="node">
<title>&#45;1</title>
<polygon fill="lightgray" stroke="black" points="23.75,-94.56 -0.25,-94.56 -0.25,-75.96 23.75,-75.96 23.75,-94.56"/>
<text text-anchor="middle" x="11.75" y="-82.56" font-family="Times,serif" font-size="9.00">&#45;1</text>
</g>
<!-- 0 -->
<g id="node5" class="node">
<title>0</title>
<ellipse fill="lightblue" stroke="black" cx="92.93" cy="-86.08" rx="14.49" ry="14.49"/>
<text text-anchor="middle" x="92.93" y="-83.38" font-family="Times,serif" font-size="9.00">0</text>
</g>
<!-- &#45;1&#45;&gt;0 -->
<g id="edge5" class="edge">
<title>&#45;1&#45;&gt;0</title>
<path fill="none" stroke="red" stroke-width="1.04" d="M23.73,-85.38C35.44,-85.5 53.62,-85.68 68.41,-85.83"/>
<polygon fill="red" stroke="red" stroke-width="1.04" points="68.4,-89.33 78.43,-85.93 68.47,-82.33 68.4,-89.33"/>
<text text-anchor="middle" x="39.61" y="-87.1" font-family="Times,serif" font-size="5.00">&#45;4.713</text>
</g>
<!-- &#45;2 -->
<g id="node2" class="node">
<title>&#45;2</title>
<polygon fill="lightgray" stroke="black" points="172.15,-109.22 148.15,-109.22 148.15,-90.62 172.15,-90.62 172.15,-109.22"/>
<text text-anchor="middle" x="160.15" y="-97.22" font-family="Times,serif" font-size="9.00">&#45;2</text>
</g>
<!-- &#45;2&#45;&gt;0 -->
<g id="edge4" class="edge">
<title>&#45;2&#45;&gt;0</title>
<path fill="none" stroke="green" stroke-width="0.53" d="M148.13,-97.45C139.52,-95.67 127.64,-93.23 117.1,-91.05"/>
<polygon fill="green" stroke="green" stroke-width="0.53" points="117.68,-87.6 107.18,-89.01 116.27,-94.46 117.68,-87.6"/>
<text text-anchor="middle" x="126.99" y="-95.75" font-family="Times,serif" font-size="5.00">2.128</text>
</g>
<!-- 6288 -->
<g id="node9" class="node">
<title>6288</title>
<ellipse fill="white" stroke="black" cx="135.14" cy="-158.92" rx="24.08" ry="24.08"/>
<text text-anchor="middle" x="135.14" y="-156.22" font-family="Times,serif" font-size="9.00">6288</text>
</g>
<!-- &#45;2&#45;&gt;6288 -->
<g id="edge1" class="edge">
<title>&#45;2&#45;&gt;6288</title>
<path fill="none" stroke="red" stroke-width="0.4" d="M156.13,-109.4C154.05,-114.3 151.38,-120.6 148.65,-127.05"/>
<polygon fill="red" stroke="red" stroke-width="0.4" points="145.34,-125.9 144.66,-136.47 151.78,-128.63 145.34,-125.9"/>
<text text-anchor="middle" x="145.93" y="-119.73" font-family="Times,serif" font-size="5.00">&#45;1.496</text>
</g>
<!-- 6291 -->
<g id="node10" class="node">
<title>6291</title>
<ellipse fill="white" stroke="black" cx="129.79" cy="-24.04" rx="24.08" ry="24.08"/>
<text text-anchor="middle" x="129.79" y="-21.34" font-family="Times,serif" font-size="9.00">6291</text>
</g>
<!-- &#45;2&#45;&gt;6291 -->
<g id="edge2" class="edge">
<title>&#45;2&#45;&gt;6291</title>
<path fill="none" stroke="red" stroke-width="0.4" d="M156.43,-90.62C152.94,-81.91 147.54,-68.4 142.5,-55.82"/>
<polygon fill="red" stroke="red" stroke-width="0.4" points="145.73,-54.46 138.76,-46.47 139.23,-57.06 145.73,-54.46"/>
<text text-anchor="middle" x="143.01" y="-74.72" font-family="Times,serif" font-size="5.00">&#45;1.496</text>
</g>
<!-- 6292 -->
<g id="node11" class="node">
<title>6292</title>
<ellipse fill="white" stroke="black" cx="178.72" cy="-50.16" rx="24.08" ry="24.08"/>
<text text-anchor="middle" x="178.72" y="-47.46" font-family="Times,serif" font-size="9.00">6292</text>
</g>
<!-- &#45;2&#45;&gt;6292 -->
<g id="edge3" class="edge">
<title>&#45;2&#45;&gt;6292</title>
<path fill="none" stroke="red" stroke-width="0.4" d="M163.73,-90.33C164.63,-87.92 165.64,-85.2 166.71,-82.34"/>
<polygon fill="red" stroke="red" stroke-width="0.4" points="170.01,-83.52 170.22,-72.93 163.45,-81.07 170.01,-83.52"/>
<text text-anchor="middle" x="158.76" y="-81.83" font-family="Times,serif" font-size="5.00">&#45;1.496</text>
</g>
<!-- &#45;3 -->
<g id="node3" class="node">
<title>&#45;3</title>
<polygon fill="lightgray" stroke="black" points="60.4,-22.23 36.4,-22.23 36.4,-3.63 60.4,-3.63 60.4,-22.23"/>
<text text-anchor="middle" x="48.4" y="-10.23" font-family="Times,serif" font-size="9.00">&#45;3</text>
</g>
<!-- &#45;3&#45;&gt;0 -->
<g id="edge6" class="edge">
<title>&#45;3&#45;&gt;0</title>
<path fill="none" stroke="red" stroke-width="0.1" d="M54.22,-22.49C60.76,-33.23 71.57,-50.98 80.11,-65.01"/>
<polygon fill="red" stroke="red" stroke-width="0.1" points="77.13,-66.85 85.32,-73.57 83.11,-63.21 77.13,-66.85"/>
<text text-anchor="middle" x="61.54" y="-45.25" font-family="Times,serif" font-size="5.00">0.000</text>
</g>
<!-- &#45;4 -->
<g id="node4" class="node">
<title>&#45;4</title>
<polygon fill="lightgray" stroke="black" points="61.79,-166.51 37.79,-166.51 37.79,-147.91 61.79,-147.91 61.79,-166.51"/>
<text text-anchor="middle" x="49.79" y="-154.51" font-family="Times,serif" font-size="9.00">&#45;4</text>
</g>
<!-- &#45;4&#45;&gt;0 -->
<g id="edge7" class="edge">
<title>&#45;4&#45;&gt;0</title>
<path fill="none" stroke="green" stroke-width="1.04" d="M55.61,-147.62C61.85,-137.33 71.96,-120.66 80.09,-107.26"/>
<polygon fill="green" stroke="green" stroke-width="1.04" points="83.13,-108.99 85.32,-98.63 77.14,-105.36 83.13,-108.99"/>
<text text-anchor="middle" x="62.22" y="-128.94" font-family="Times,serif" font-size="5.00">4.713</text>
</g>
<!-- 6175 -->
<g id="node6" class="node">
<title>6175</title>
<ellipse fill="white" stroke="black" cx="210.04" cy="-171.04" rx="24.08" ry="24.08"/>
<ellipse fill="none" stroke="black" cx="210.04" cy="-171.04" rx="28.08" ry="28.08"/>
<text text-anchor="middle" x="210.04" y="-168.34" font-family="Times,serif" font-size="9.00">6175</text>
</g>
<!-- 6289 -->
<g id="node7" class="node">
<title>6289</title>
<ellipse fill="white" stroke="black" cx="54.04" cy="-223.04" rx="24.08" ry="24.08"/>
<ellipse fill="none" stroke="black" cx="54.04" cy="-223.04" rx="28.08" ry="28.08"/>
<text text-anchor="middle" x="54.04" y="-220.34" font-family="Times,serif" font-size="9.00">6289</text>
</g>
<!-- 6290 -->
<g id="node8" class="node">
<title>6290</title>
<ellipse fill="white" stroke="black" cx="132.04" cy="-236.04" rx="24.08" ry="24.08"/>
<ellipse fill="none" stroke="black" cx="132.04" cy="-236.04" rx="28.08" ry="28.08"/>
<text text-anchor="middle" x="132.04" y="-233.34" font-family="Times,serif" font-size="9.00">6290</text>
</g>
<!-- 6288&#45;&gt;0 -->
<g id="edge8" class="edge">
<title>6288&#45;&gt;0</title>
<path fill="none" stroke="green" stroke-width="0.53" d="M122.93,-137.85C117.45,-128.4 111,-117.25 105.48,-107.73"/>
<polygon fill="green" stroke="green" stroke-width="0.53" points="108.39,-105.77 100.35,-98.87 102.33,-109.28 108.39,-105.77"/>
<text text-anchor="middle" x="108.58" y="-124.29" font-family="Times,serif" font-size="5.00">2.133</text>
</g>
<!-- 6291&#45;&gt;0 -->
<g id="edge9" class="edge">
<title>6291&#45;&gt;0</title>
<path fill="none" stroke="green" stroke-width="0.53" d="M117.31,-45.04C113.55,-51.37 109.42,-58.33 105.64,-64.68"/>
<polygon fill="green" stroke="green" stroke-width="0.53" points="102.55,-63.04 100.45,-73.42 108.57,-66.61 102.55,-63.04"/>
<text text-anchor="middle" x="105.85" y="-56.36" font-family="Times,serif" font-size="5.00">2.133</text>
</g>
<!-- 6292&#45;&gt;0 -->
<g id="edge10" class="edge">
<title>6292&#45;&gt;0</title>
<path fill="none" stroke="green" stroke-width="0.53" d="M156.18,-59.6C143.72,-64.81 128.28,-71.28 115.78,-76.51"/>
<polygon fill="green" stroke="green" stroke-width="0.53" points="114.36,-73.31 106.49,-80.4 117.07,-79.77 114.36,-73.31"/>
<text text-anchor="middle" x="130.35" y="-69.55" font-family="Times,serif" font-size="5.00">2.133</text>
</g>
</g>
</svg>
