<?xml version="1.0" encoding="utf-8" standalone="no"?>
<!DOCTYPE svg PUBLIC "-//W3C//DTD SVG 1.1//EN"
  "http://www.w3.org/Graphics/SVG/1.1/DTD/svg11.dtd">
<!-- Created with matplotlib (https://matplotlib.org/) -->
<svg height="345.6pt" version="1.1" viewBox="0 0 460.8 345.6" width="460.8pt" xmlns="http://www.w3.org/2000/svg" xmlns:xlink="http://www.w3.org/1999/xlink">
 <metadata>
  <rdf:RDF xmlns:cc="http://creativecommons.org/ns#" xmlns:dc="http://purl.org/dc/elements/1.1/" xmlns:rdf="http://www.w3.org/1999/02/22-rdf-syntax-ns#">
   <cc:Work>
    <dc:type rdf:resource="http://purl.org/dc/dcmitype/StillImage"/>
    <dc:date>2021-06-25T17:48:56.067394</dc:date>
    <dc:format>image/svg+xml</dc:format>
    <dc:creator>
     <cc:Agent>
      <dc:title>Matplotlib v3.3.0, https://matplotlib.org/</dc:title>
     </cc:Agent>
    </dc:creator>
   </cc:Work>
  </rdf:RDF>
 </metadata>
 <defs>
  <style type="text/css">*{stroke-linecap:butt;stroke-linejoin:round;}</style>
 </defs>
 <g id="figure_1">
  <g id="patch_1">
   <path d="M 0 345.6 
L 460.8 345.6 
L 460.8 0 
L 0 0 
z
" style="fill:#ffffff;"/>
  </g>
  <g id="axes_1">
   <g id="patch_2">
    <path d="M 57.6 307.584 
L 414.72 307.584 
L 414.72 41.472 
L 57.6 41.472 
z
" style="fill:#ffffff;"/>
   </g>
   <g id="matplotlib.axis_1">
    <g id="xtick_1">
     <g id="line2d_1">
      <path clip-path="url(#p048683ea0b)" d="M 73.832727 307.584 
L 73.832727 41.472 
" style="fill:none;stroke:#b0b0b0;stroke-linecap:square;stroke-width:0.8;"/>
     </g>
     <g id="line2d_2">
      <defs>
       <path d="M 0 0 
L 0 3.5 
" id="m50b5d727e3" style="stroke:#000000;stroke-width:0.8;"/>
      </defs>
      <g>
       <use style="stroke:#000000;stroke-width:0.8;" x="73.832727" xlink:href="#m50b5d727e3" y="307.584"/>
      </g>
     </g>
     <g id="text_1">
      <!-- 0 -->
      <g transform="translate(70.651477 322.182437)scale(0.1 -0.1)">
       <defs>
        <path d="M 31.78125 66.40625 
Q 24.171875 66.40625 20.328125 58.90625 
Q 16.5 51.421875 16.5 36.375 
Q 16.5 21.390625 20.328125 13.890625 
Q 24.171875 6.390625 31.78125 6.390625 
Q 39.453125 6.390625 43.28125 13.890625 
Q 47.125 21.390625 47.125 36.375 
Q 47.125 51.421875 43.28125 58.90625 
Q 39.453125 66.40625 31.78125 66.40625 
z
M 31.78125 74.21875 
Q 44.046875 74.21875 50.515625 64.515625 
Q 56.984375 54.828125 56.984375 36.375 
Q 56.984375 17.96875 50.515625 8.265625 
Q 44.046875 -1.421875 31.78125 -1.421875 
Q 19.53125 -1.421875 13.0625 8.265625 
Q 6.59375 17.96875 6.59375 36.375 
Q 6.59375 54.828125 13.0625 64.515625 
Q 19.53125 74.21875 31.78125 74.21875 
z
" id="DejaVuSans-48"/>
       </defs>
       <use xlink:href="#DejaVuSans-48"/>
      </g>
     </g>
    </g>
    <g id="xtick_2">
     <g id="line2d_3">
      <path clip-path="url(#p048683ea0b)" d="M 140.496905 307.584 
L 140.496905 41.472 
" style="fill:none;stroke:#b0b0b0;stroke-linecap:square;stroke-width:0.8;"/>
     </g>
     <g id="line2d_4">
      <g>
       <use style="stroke:#000000;stroke-width:0.8;" x="140.496905" xlink:href="#m50b5d727e3" y="307.584"/>
      </g>
     </g>
     <g id="text_2">
      <!-- 100 -->
      <g transform="translate(130.953155 322.182437)scale(0.1 -0.1)">
       <defs>
        <path d="M 12.40625 8.296875 
L 28.515625 8.296875 
L 28.515625 63.921875 
L 10.984375 60.40625 
L 10.984375 69.390625 
L 28.421875 72.90625 
L 38.28125 72.90625 
L 38.28125 8.296875 
L 54.390625 8.296875 
L 54.390625 0 
L 12.40625 0 
z
" id="DejaVuSans-49"/>
       </defs>
       <use xlink:href="#DejaVuSans-49"/>
       <use x="63.623047" xlink:href="#DejaVuSans-48"/>
       <use x="127.246094" xlink:href="#DejaVuSans-48"/>
      </g>
     </g>
    </g>
    <g id="xtick_3">
     <g id="line2d_5">
      <path clip-path="url(#p048683ea0b)" d="M 207.161083 307.584 
L 207.161083 41.472 
" style="fill:none;stroke:#b0b0b0;stroke-linecap:square;stroke-width:0.8;"/>
     </g>
     <g id="line2d_6">
      <g>
       <use style="stroke:#000000;stroke-width:0.8;" x="207.161083" xlink:href="#m50b5d727e3" y="307.584"/>
      </g>
     </g>
     <g id="text_3">
      <!-- 200 -->
      <g transform="translate(197.617333 322.182437)scale(0.1 -0.1)">
       <defs>
        <path d="M 19.1875 8.296875 
L 53.609375 8.296875 
L 53.609375 0 
L 7.328125 0 
L 7.328125 8.296875 
Q 12.9375 14.109375 22.625 23.890625 
Q 32.328125 33.6875 34.8125 36.53125 
Q 39.546875 41.84375 41.421875 45.53125 
Q 43.3125 49.21875 43.3125 52.78125 
Q 43.3125 58.59375 39.234375 62.25 
Q 35.15625 65.921875 28.609375 65.921875 
Q 23.96875 65.921875 18.8125 64.3125 
Q 13.671875 62.703125 7.8125 59.421875 
L 7.8125 69.390625 
Q 13.765625 71.78125 18.9375 73 
Q 24.125 74.21875 28.421875 74.21875 
Q 39.75 74.21875 46.484375 68.546875 
Q 53.21875 62.890625 53.21875 53.421875 
Q 53.21875 48.921875 51.53125 44.890625 
Q 49.859375 40.875 45.40625 35.40625 
Q 44.1875 33.984375 37.640625 27.21875 
Q 31.109375 20.453125 19.1875 8.296875 
z
" id="DejaVuSans-50"/>
       </defs>
       <use xlink:href="#DejaVuSans-50"/>
       <use x="63.623047" xlink:href="#DejaVuSans-48"/>
       <use x="127.246094" xlink:href="#DejaVuSans-48"/>
      </g>
     </g>
    </g>
    <g id="xtick_4">
     <g id="line2d_7">
      <path clip-path="url(#p048683ea0b)" d="M 273.82526 307.584 
L 273.82526 41.472 
" style="fill:none;stroke:#b0b0b0;stroke-linecap:square;stroke-width:0.8;"/>
     </g>
     <g id="line2d_8">
      <g>
       <use style="stroke:#000000;stroke-width:0.8;" x="273.82526" xlink:href="#m50b5d727e3" y="307.584"/>
      </g>
     </g>
     <g id="text_4">
      <!-- 300 -->
      <g transform="translate(264.28151 322.182437)scale(0.1 -0.1)">
       <defs>
        <path d="M 40.578125 39.3125 
Q 47.65625 37.796875 51.625 33 
Q 55.609375 28.21875 55.609375 21.1875 
Q 55.609375 10.40625 48.1875 4.484375 
Q 40.765625 -1.421875 27.09375 -1.421875 
Q 22.515625 -1.421875 17.65625 -0.515625 
Q 12.796875 0.390625 7.625 2.203125 
L 7.625 11.71875 
Q 11.71875 9.328125 16.59375 8.109375 
Q 21.484375 6.890625 26.8125 6.890625 
Q 36.078125 6.890625 40.9375 10.546875 
Q 45.796875 14.203125 45.796875 21.1875 
Q 45.796875 27.640625 41.28125 31.265625 
Q 36.765625 34.90625 28.71875 34.90625 
L 20.21875 34.90625 
L 20.21875 43.015625 
L 29.109375 43.015625 
Q 36.375 43.015625 40.234375 45.921875 
Q 44.09375 48.828125 44.09375 54.296875 
Q 44.09375 59.90625 40.109375 62.90625 
Q 36.140625 65.921875 28.71875 65.921875 
Q 24.65625 65.921875 20.015625 65.03125 
Q 15.375 64.15625 9.8125 62.3125 
L 9.8125 71.09375 
Q 15.4375 72.65625 20.34375 73.4375 
Q 25.25 74.21875 29.59375 74.21875 
Q 40.828125 74.21875 47.359375 69.109375 
Q 53.90625 64.015625 53.90625 55.328125 
Q 53.90625 49.265625 50.4375 45.09375 
Q 46.96875 40.921875 40.578125 39.3125 
z
" id="DejaVuSans-51"/>
       </defs>
       <use xlink:href="#DejaVuSans-51"/>
       <use x="63.623047" xlink:href="#DejaVuSans-48"/>
       <use x="127.246094" xlink:href="#DejaVuSans-48"/>
      </g>
     </g>
    </g>
    <g id="xtick_5">
     <g id="line2d_9">
      <path clip-path="url(#p048683ea0b)" d="M 340.489438 307.584 
L 340.489438 41.472 
" style="fill:none;stroke:#b0b0b0;stroke-linecap:square;stroke-width:0.8;"/>
     </g>
     <g id="line2d_10">
      <g>
       <use style="stroke:#000000;stroke-width:0.8;" x="340.489438" xlink:href="#m50b5d727e3" y="307.584"/>
      </g>
     </g>
     <g id="text_5">
      <!-- 400 -->
      <g transform="translate(330.945688 322.182437)scale(0.1 -0.1)">
       <defs>
        <path d="M 37.796875 64.3125 
L 12.890625 25.390625 
L 37.796875 25.390625 
z
M 35.203125 72.90625 
L 47.609375 72.90625 
L 47.609375 25.390625 
L 58.015625 25.390625 
L 58.015625 17.1875 
L 47.609375 17.1875 
L 47.609375 0 
L 37.796875 0 
L 37.796875 17.1875 
L 4.890625 17.1875 
L 4.890625 26.703125 
z
" id="DejaVuSans-52"/>
       </defs>
       <use xlink:href="#DejaVuSans-52"/>
       <use x="63.623047" xlink:href="#DejaVuSans-48"/>
       <use x="127.246094" xlink:href="#DejaVuSans-48"/>
      </g>
     </g>
    </g>
    <g id="xtick_6">
     <g id="line2d_11">
      <path clip-path="url(#p048683ea0b)" d="M 407.153616 307.584 
L 407.153616 41.472 
" style="fill:none;stroke:#b0b0b0;stroke-linecap:square;stroke-width:0.8;"/>
     </g>
     <g id="line2d_12">
      <g>
       <use style="stroke:#000000;stroke-width:0.8;" x="407.153616" xlink:href="#m50b5d727e3" y="307.584"/>
      </g>
     </g>
     <g id="text_6">
      <!-- 500 -->
      <g transform="translate(397.609866 322.182437)scale(0.1 -0.1)">
       <defs>
        <path d="M 10.796875 72.90625 
L 49.515625 72.90625 
L 49.515625 64.59375 
L 19.828125 64.59375 
L 19.828125 46.734375 
Q 21.96875 47.46875 24.109375 47.828125 
Q 26.265625 48.1875 28.421875 48.1875 
Q 40.625 48.1875 47.75 41.5 
Q 54.890625 34.8125 54.890625 23.390625 
Q 54.890625 11.625 47.5625 5.09375 
Q 40.234375 -1.421875 26.90625 -1.421875 
Q 22.3125 -1.421875 17.546875 -0.640625 
Q 12.796875 0.140625 7.71875 1.703125 
L 7.71875 11.625 
Q 12.109375 9.234375 16.796875 8.0625 
Q 21.484375 6.890625 26.703125 6.890625 
Q 35.15625 6.890625 40.078125 11.328125 
Q 45.015625 15.765625 45.015625 23.390625 
Q 45.015625 31 40.078125 35.4375 
Q 35.15625 39.890625 26.703125 39.890625 
Q 22.75 39.890625 18.8125 39.015625 
Q 14.890625 38.140625 10.796875 36.28125 
z
" id="DejaVuSans-53"/>
       </defs>
       <use xlink:href="#DejaVuSans-53"/>
       <use x="63.623047" xlink:href="#DejaVuSans-48"/>
       <use x="127.246094" xlink:href="#DejaVuSans-48"/>
      </g>
     </g>
    </g>
    <g id="text_7">
     <!-- Generations -->
     <g transform="translate(205.662344 335.860562)scale(0.1 -0.1)">
      <defs>
       <path d="M 59.515625 10.40625 
L 59.515625 29.984375 
L 43.40625 29.984375 
L 43.40625 38.09375 
L 69.28125 38.09375 
L 69.28125 6.78125 
Q 63.578125 2.734375 56.6875 0.65625 
Q 49.8125 -1.421875 42 -1.421875 
Q 24.90625 -1.421875 15.25 8.5625 
Q 5.609375 18.5625 5.609375 36.375 
Q 5.609375 54.25 15.25 64.234375 
Q 24.90625 74.21875 42 74.21875 
Q 49.125 74.21875 55.546875 72.453125 
Q 61.96875 70.703125 67.390625 67.28125 
L 67.390625 56.78125 
Q 61.921875 61.421875 55.765625 63.765625 
Q 49.609375 66.109375 42.828125 66.109375 
Q 29.4375 66.109375 22.71875 58.640625 
Q 16.015625 51.171875 16.015625 36.375 
Q 16.015625 21.625 22.71875 14.15625 
Q 29.4375 6.6875 42.828125 6.6875 
Q 48.046875 6.6875 52.140625 7.59375 
Q 56.25 8.5 59.515625 10.40625 
z
" id="DejaVuSans-71"/>
       <path d="M 56.203125 29.59375 
L 56.203125 25.203125 
L 14.890625 25.203125 
Q 15.484375 15.921875 20.484375 11.0625 
Q 25.484375 6.203125 34.421875 6.203125 
Q 39.59375 6.203125 44.453125 7.46875 
Q 49.3125 8.734375 54.109375 11.28125 
L 54.109375 2.78125 
Q 49.265625 0.734375 44.1875 -0.34375 
Q 39.109375 -1.421875 33.890625 -1.421875 
Q 20.796875 -1.421875 13.15625 6.1875 
Q 5.515625 13.8125 5.515625 26.8125 
Q 5.515625 40.234375 12.765625 48.109375 
Q 20.015625 56 32.328125 56 
Q 43.359375 56 49.78125 48.890625 
Q 56.203125 41.796875 56.203125 29.59375 
z
M 47.21875 32.234375 
Q 47.125 39.59375 43.09375 43.984375 
Q 39.0625 48.390625 32.421875 48.390625 
Q 24.90625 48.390625 20.390625 44.140625 
Q 15.875 39.890625 15.1875 32.171875 
z
" id="DejaVuSans-101"/>
       <path d="M 54.890625 33.015625 
L 54.890625 0 
L 45.90625 0 
L 45.90625 32.71875 
Q 45.90625 40.484375 42.875 44.328125 
Q 39.84375 48.1875 33.796875 48.1875 
Q 26.515625 48.1875 22.3125 43.546875 
Q 18.109375 38.921875 18.109375 30.90625 
L 18.109375 0 
L 9.078125 0 
L 9.078125 54.6875 
L 18.109375 54.6875 
L 18.109375 46.1875 
Q 21.34375 51.125 25.703125 53.5625 
Q 30.078125 56 35.796875 56 
Q 45.21875 56 50.046875 50.171875 
Q 54.890625 44.34375 54.890625 33.015625 
z
" id="DejaVuSans-110"/>
       <path d="M 41.109375 46.296875 
Q 39.59375 47.171875 37.8125 47.578125 
Q 36.03125 48 33.890625 48 
Q 26.265625 48 22.1875 43.046875 
Q 18.109375 38.09375 18.109375 28.8125 
L 18.109375 0 
L 9.078125 0 
L 9.078125 54.6875 
L 18.109375 54.6875 
L 18.109375 46.1875 
Q 20.953125 51.171875 25.484375 53.578125 
Q 30.03125 56 36.53125 56 
Q 37.453125 56 38.578125 55.875 
Q 39.703125 55.765625 41.0625 55.515625 
z
" id="DejaVuSans-114"/>
       <path d="M 34.28125 27.484375 
Q 23.390625 27.484375 19.1875 25 
Q 14.984375 22.515625 14.984375 16.5 
Q 14.984375 11.71875 18.140625 8.90625 
Q 21.296875 6.109375 26.703125 6.109375 
Q 34.1875 6.109375 38.703125 11.40625 
Q 43.21875 16.703125 43.21875 25.484375 
L 43.21875 27.484375 
z
M 52.203125 31.203125 
L 52.203125 0 
L 43.21875 0 
L 43.21875 8.296875 
Q 40.140625 3.328125 35.546875 0.953125 
Q 30.953125 -1.421875 24.3125 -1.421875 
Q 15.921875 -1.421875 10.953125 3.296875 
Q 6 8.015625 6 15.921875 
Q 6 25.140625 12.171875 29.828125 
Q 18.359375 34.515625 30.609375 34.515625 
L 43.21875 34.515625 
L 43.21875 35.40625 
Q 43.21875 41.609375 39.140625 45 
Q 35.0625 48.390625 27.6875 48.390625 
Q 23 48.390625 18.546875 47.265625 
Q 14.109375 46.140625 10.015625 43.890625 
L 10.015625 52.203125 
Q 14.9375 54.109375 19.578125 55.046875 
Q 24.21875 56 28.609375 56 
Q 40.484375 56 46.34375 49.84375 
Q 52.203125 43.703125 52.203125 31.203125 
z
" id="DejaVuSans-97"/>
       <path d="M 18.3125 70.21875 
L 18.3125 54.6875 
L 36.8125 54.6875 
L 36.8125 47.703125 
L 18.3125 47.703125 
L 18.3125 18.015625 
Q 18.3125 11.328125 20.140625 9.421875 
Q 21.96875 7.515625 27.59375 7.515625 
L 36.8125 7.515625 
L 36.8125 0 
L 27.59375 0 
Q 17.1875 0 13.234375 3.875 
Q 9.28125 7.765625 9.28125 18.015625 
L 9.28125 47.703125 
L 2.6875 47.703125 
L 2.6875 54.6875 
L 9.28125 54.6875 
L 9.28125 70.21875 
z
" id="DejaVuSans-116"/>
       <path d="M 9.421875 54.6875 
L 18.40625 54.6875 
L 18.40625 0 
L 9.421875 0 
z
M 9.421875 75.984375 
L 18.40625 75.984375 
L 18.40625 64.59375 
L 9.421875 64.59375 
z
" id="DejaVuSans-105"/>
       <path d="M 30.609375 48.390625 
Q 23.390625 48.390625 19.1875 42.75 
Q 14.984375 37.109375 14.984375 27.296875 
Q 14.984375 17.484375 19.15625 11.84375 
Q 23.34375 6.203125 30.609375 6.203125 
Q 37.796875 6.203125 41.984375 11.859375 
Q 46.1875 17.53125 46.1875 27.296875 
Q 46.1875 37.015625 41.984375 42.703125 
Q 37.796875 48.390625 30.609375 48.390625 
z
M 30.609375 56 
Q 42.328125 56 49.015625 48.375 
Q 55.71875 40.765625 55.71875 27.296875 
Q 55.71875 13.875 49.015625 6.21875 
Q 42.328125 -1.421875 30.609375 -1.421875 
Q 18.84375 -1.421875 12.171875 6.21875 
Q 5.515625 13.875 5.515625 27.296875 
Q 5.515625 40.765625 12.171875 48.375 
Q 18.84375 56 30.609375 56 
z
" id="DejaVuSans-111"/>
       <path d="M 44.28125 53.078125 
L 44.28125 44.578125 
Q 40.484375 46.53125 36.375 47.5 
Q 32.28125 48.484375 27.875 48.484375 
Q 21.1875 48.484375 17.84375 46.4375 
Q 14.5 44.390625 14.5 40.28125 
Q 14.5 37.15625 16.890625 35.375 
Q 19.28125 33.59375 26.515625 31.984375 
L 29.59375 31.296875 
Q 39.15625 29.25 43.1875 25.515625 
Q 47.21875 21.78125 47.21875 15.09375 
Q 47.21875 7.46875 41.1875 3.015625 
Q 35.15625 -1.421875 24.609375 -1.421875 
Q 20.21875 -1.421875 15.453125 -0.5625 
Q 10.6875 0.296875 5.421875 2 
L 5.421875 11.28125 
Q 10.40625 8.6875 15.234375 7.390625 
Q 20.0625 6.109375 24.8125 6.109375 
Q 31.15625 6.109375 34.5625 8.28125 
Q 37.984375 10.453125 37.984375 14.40625 
Q 37.984375 18.0625 35.515625 20.015625 
Q 33.0625 21.96875 24.703125 23.78125 
L 21.578125 24.515625 
Q 13.234375 26.265625 9.515625 29.90625 
Q 5.8125 33.546875 5.8125 39.890625 
Q 5.8125 47.609375 11.28125 51.796875 
Q 16.75 56 26.8125 56 
Q 31.78125 56 36.171875 55.265625 
Q 40.578125 54.546875 44.28125 53.078125 
z
" id="DejaVuSans-115"/>
      </defs>
      <use xlink:href="#DejaVuSans-71"/>
      <use x="77.490234" xlink:href="#DejaVuSans-101"/>
      <use x="139.013672" xlink:href="#DejaVuSans-110"/>
      <use x="202.392578" xlink:href="#DejaVuSans-101"/>
      <use x="263.916016" xlink:href="#DejaVuSans-114"/>
      <use x="305.029297" xlink:href="#DejaVuSans-97"/>
      <use x="366.308594" xlink:href="#DejaVuSans-116"/>
      <use x="405.517578" xlink:href="#DejaVuSans-105"/>
      <use x="433.300781" xlink:href="#DejaVuSans-111"/>
      <use x="494.482422" xlink:href="#DejaVuSans-110"/>
      <use x="557.861328" xlink:href="#DejaVuSans-115"/>
     </g>
    </g>
   </g>
   <g id="matplotlib.axis_2">
    <g id="ytick_1">
     <g id="line2d_13">
      <path clip-path="url(#p048683ea0b)" d="M 57.6 274.883813 
L 414.72 274.883813 
" style="fill:none;stroke:#b0b0b0;stroke-linecap:square;stroke-width:0.8;"/>
     </g>
     <g id="line2d_14">
      <defs>
       <path d="M 0 0 
L -3.5 0 
" id="m981bbc73c9" style="stroke:#000000;stroke-width:0.8;"/>
      </defs>
      <g>
       <use style="stroke:#000000;stroke-width:0.8;" x="57.6" xlink:href="#m981bbc73c9" y="274.883813"/>
      </g>
     </g>
     <g id="text_8">
      <!-- 60 -->
      <g transform="translate(37.875 278.683032)scale(0.1 -0.1)">
       <defs>
        <path d="M 33.015625 40.375 
Q 26.375 40.375 22.484375 35.828125 
Q 18.609375 31.296875 18.609375 23.390625 
Q 18.609375 15.53125 22.484375 10.953125 
Q 26.375 6.390625 33.015625 6.390625 
Q 39.65625 6.390625 43.53125 10.953125 
Q 47.40625 15.53125 47.40625 23.390625 
Q 47.40625 31.296875 43.53125 35.828125 
Q 39.65625 40.375 33.015625 40.375 
z
M 52.59375 71.296875 
L 52.59375 62.3125 
Q 48.875 64.0625 45.09375 64.984375 
Q 41.3125 65.921875 37.59375 65.921875 
Q 27.828125 65.921875 22.671875 59.328125 
Q 17.53125 52.734375 16.796875 39.40625 
Q 19.671875 43.65625 24.015625 45.921875 
Q 28.375 48.1875 33.59375 48.1875 
Q 44.578125 48.1875 50.953125 41.515625 
Q 57.328125 34.859375 57.328125 23.390625 
Q 57.328125 12.15625 50.6875 5.359375 
Q 44.046875 -1.421875 33.015625 -1.421875 
Q 20.359375 -1.421875 13.671875 8.265625 
Q 6.984375 17.96875 6.984375 36.375 
Q 6.984375 53.65625 15.1875 63.9375 
Q 23.390625 74.21875 37.203125 74.21875 
Q 40.921875 74.21875 44.703125 73.484375 
Q 48.484375 72.75 52.59375 71.296875 
z
" id="DejaVuSans-54"/>
       </defs>
       <use xlink:href="#DejaVuSans-54"/>
       <use x="63.623047" xlink:href="#DejaVuSans-48"/>
      </g>
     </g>
    </g>
    <g id="ytick_2">
     <g id="line2d_15">
      <path clip-path="url(#p048683ea0b)" d="M 57.6 233.516371 
L 414.72 233.516371 
" style="fill:none;stroke:#b0b0b0;stroke-linecap:square;stroke-width:0.8;"/>
     </g>
     <g id="line2d_16">
      <g>
       <use style="stroke:#000000;stroke-width:0.8;" x="57.6" xlink:href="#m981bbc73c9" y="233.516371"/>
      </g>
     </g>
     <g id="text_9">
      <!-- 80 -->
      <g transform="translate(37.875 237.31559)scale(0.1 -0.1)">
       <defs>
        <path d="M 31.78125 34.625 
Q 24.75 34.625 20.71875 30.859375 
Q 16.703125 27.09375 16.703125 20.515625 
Q 16.703125 13.921875 20.71875 10.15625 
Q 24.75 6.390625 31.78125 6.390625 
Q 38.8125 6.390625 42.859375 10.171875 
Q 46.921875 13.96875 46.921875 20.515625 
Q 46.921875 27.09375 42.890625 30.859375 
Q 38.875 34.625 31.78125 34.625 
z
M 21.921875 38.8125 
Q 15.578125 40.375 12.03125 44.71875 
Q 8.5 49.078125 8.5 55.328125 
Q 8.5 64.0625 14.71875 69.140625 
Q 20.953125 74.21875 31.78125 74.21875 
Q 42.671875 74.21875 48.875 69.140625 
Q 55.078125 64.0625 55.078125 55.328125 
Q 55.078125 49.078125 51.53125 44.71875 
Q 48 40.375 41.703125 38.8125 
Q 48.828125 37.15625 52.796875 32.3125 
Q 56.78125 27.484375 56.78125 20.515625 
Q 56.78125 9.90625 50.3125 4.234375 
Q 43.84375 -1.421875 31.78125 -1.421875 
Q 19.734375 -1.421875 13.25 4.234375 
Q 6.78125 9.90625 6.78125 20.515625 
Q 6.78125 27.484375 10.78125 32.3125 
Q 14.796875 37.15625 21.921875 38.8125 
z
M 18.3125 54.390625 
Q 18.3125 48.734375 21.84375 45.5625 
Q 25.390625 42.390625 31.78125 42.390625 
Q 38.140625 42.390625 41.71875 45.5625 
Q 45.3125 48.734375 45.3125 54.390625 
Q 45.3125 60.0625 41.71875 63.234375 
Q 38.140625 66.40625 31.78125 66.40625 
Q 25.390625 66.40625 21.84375 63.234375 
Q 18.3125 60.0625 18.3125 54.390625 
z
" id="DejaVuSans-56"/>
       </defs>
       <use xlink:href="#DejaVuSans-56"/>
       <use x="63.623047" xlink:href="#DejaVuSans-48"/>
      </g>
     </g>
    </g>
    <g id="ytick_3">
     <g id="line2d_17">
      <path clip-path="url(#p048683ea0b)" d="M 57.6 192.14893 
L 414.72 192.14893 
" style="fill:none;stroke:#b0b0b0;stroke-linecap:square;stroke-width:0.8;"/>
     </g>
     <g id="line2d_18">
      <g>
       <use style="stroke:#000000;stroke-width:0.8;" x="57.6" xlink:href="#m981bbc73c9" y="192.14893"/>
      </g>
     </g>
     <g id="text_10">
      <!-- 100 -->
      <g transform="translate(31.5125 195.948148)scale(0.1 -0.1)">
       <use xlink:href="#DejaVuSans-49"/>
       <use x="63.623047" xlink:href="#DejaVuSans-48"/>
       <use x="127.246094" xlink:href="#DejaVuSans-48"/>
      </g>
     </g>
    </g>
    <g id="ytick_4">
     <g id="line2d_19">
      <path clip-path="url(#p048683ea0b)" d="M 57.6 150.781488 
L 414.72 150.781488 
" style="fill:none;stroke:#b0b0b0;stroke-linecap:square;stroke-width:0.8;"/>
     </g>
     <g id="line2d_20">
      <g>
       <use style="stroke:#000000;stroke-width:0.8;" x="57.6" xlink:href="#m981bbc73c9" y="150.781488"/>
      </g>
     </g>
     <g id="text_11">
      <!-- 120 -->
      <g transform="translate(31.5125 154.580707)scale(0.1 -0.1)">
       <use xlink:href="#DejaVuSans-49"/>
       <use x="63.623047" xlink:href="#DejaVuSans-50"/>
       <use x="127.246094" xlink:href="#DejaVuSans-48"/>
      </g>
     </g>
    </g>
    <g id="ytick_5">
     <g id="line2d_21">
      <path clip-path="url(#p048683ea0b)" d="M 57.6 109.414046 
L 414.72 109.414046 
" style="fill:none;stroke:#b0b0b0;stroke-linecap:square;stroke-width:0.8;"/>
     </g>
     <g id="line2d_22">
      <g>
       <use style="stroke:#000000;stroke-width:0.8;" x="57.6" xlink:href="#m981bbc73c9" y="109.414046"/>
      </g>
     </g>
     <g id="text_12">
      <!-- 140 -->
      <g transform="translate(31.5125 113.213265)scale(0.1 -0.1)">
       <use xlink:href="#DejaVuSans-49"/>
       <use x="63.623047" xlink:href="#DejaVuSans-52"/>
       <use x="127.246094" xlink:href="#DejaVuSans-48"/>
      </g>
     </g>
    </g>
    <g id="ytick_6">
     <g id="line2d_23">
      <path clip-path="url(#p048683ea0b)" d="M 57.6 68.046605 
L 414.72 68.046605 
" style="fill:none;stroke:#b0b0b0;stroke-linecap:square;stroke-width:0.8;"/>
     </g>
     <g id="line2d_24">
      <g>
       <use style="stroke:#000000;stroke-width:0.8;" x="57.6" xlink:href="#m981bbc73c9" y="68.046605"/>
      </g>
     </g>
     <g id="text_13">
      <!-- 160 -->
      <g transform="translate(31.5125 71.845823)scale(0.1 -0.1)">
       <use xlink:href="#DejaVuSans-49"/>
       <use x="63.623047" xlink:href="#DejaVuSans-54"/>
       <use x="127.246094" xlink:href="#DejaVuSans-48"/>
      </g>
     </g>
    </g>
    <g id="text_14">
     <!-- Fitness -->
     <g transform="translate(25.432812 191.845187)rotate(-90)scale(0.1 -0.1)">
      <defs>
       <path d="M 9.8125 72.90625 
L 51.703125 72.90625 
L 51.703125 64.59375 
L 19.671875 64.59375 
L 19.671875 43.109375 
L 48.578125 43.109375 
L 48.578125 34.8125 
L 19.671875 34.8125 
L 19.671875 0 
L 9.8125 0 
z
" id="DejaVuSans-70"/>
      </defs>
      <use xlink:href="#DejaVuSans-70"/>
      <use x="50.269531" xlink:href="#DejaVuSans-105"/>
      <use x="78.052734" xlink:href="#DejaVuSans-116"/>
      <use x="117.261719" xlink:href="#DejaVuSans-110"/>
      <use x="180.640625" xlink:href="#DejaVuSans-101"/>
      <use x="242.164062" xlink:href="#DejaVuSans-115"/>
      <use x="294.263672" xlink:href="#DejaVuSans-115"/>
     </g>
    </g>
   </g>
   <g id="line2d_25">
    <path clip-path="url(#p048683ea0b)" d="M 73.832727 261.418711 
L 74.499369 261.184295 
L 75.166011 261.395436 
L 76.499294 260.895279 
L 77.165936 261.284293 
L 77.832578 260.867787 
L 79.165861 260.611728 
L 79.832503 260.88391 
L 80.499145 260.631734 
L 81.165787 260.710222 
L 81.832429 260.950632 
L 82.49907 260.807451 
L 83.165712 260.913564 
L 83.832354 260.850622 
L 85.165637 261.267303 
L 85.832279 260.793458 
L 87.165563 261.060509 
L 88.498846 260.747741 
L 89.165488 260.675836 
L 89.83213 260.93773 
L 90.498772 260.803046 
L 91.165413 260.86556 
L 91.832055 260.752365 
L 92.498697 261.365041 
L 93.165339 260.444009 
L 93.831981 260.940709 
L 94.498622 260.98506 
L 95.165264 260.801361 
L 95.831906 259.447183 
L 96.498548 261.040942 
L 97.165189 260.235205 
L 97.831831 260.475231 
L 98.498473 259.764998 
L 99.165115 261.248622 
L 99.831757 260.383663 
L 100.498398 260.175389 
L 101.16504 259.777725 
L 101.831682 260.748636 
L 102.498324 260.010415 
L 103.164965 261.076032 
L 103.831607 259.636956 
L 104.498249 260.493017 
L 105.164891 262.069755 
L 105.831533 259.046572 
L 106.498174 259.823479 
L 107.164816 260.96334 
L 107.831458 256.628686 
L 108.4981 257.332889 
L 109.164741 258.311457 
L 109.831383 256.901143 
L 110.498025 256.627141 
L 111.164667 256.93898 
L 111.831309 258.138801 
L 112.49795 258.134495 
L 113.164592 256.979809 
L 113.831234 258.967197 
L 114.497876 259.246537 
L 115.164517 257.911828 
L 115.831159 259.482826 
L 116.497801 257.491588 
L 117.164443 258.972482 
L 117.831085 259.722645 
L 118.497726 257.226232 
L 119.164368 257.932155 
L 119.83101 259.371022 
L 120.497652 258.595383 
L 121.164293 257.220385 
L 121.830935 257.966572 
L 122.497577 257.135846 
L 123.164219 258.229233 
L 123.830861 256.929364 
L 124.497502 256.294158 
L 125.164144 256.931904 
L 125.830786 258.672947 
L 126.497428 259.788325 
L 127.164069 258.509201 
L 127.830711 259.996488 
L 128.497353 258.198945 
L 129.163995 259.217809 
L 129.830637 259.071169 
L 131.16392 257.08847 
L 131.830562 260.072791 
L 132.497204 257.996163 
L 133.163845 258.655956 
L 133.830487 260.297605 
L 134.497129 257.501779 
L 135.163771 258.542304 
L 135.830413 261.099293 
L 137.163696 256.796256 
L 137.830338 257.119284 
L 138.49698 258.73351 
L 139.163621 257.378693 
L 139.830263 258.056129 
L 140.496905 255.893877 
L 141.163547 255.391474 
L 141.830189 254.738205 
L 142.49683 253.362894 
L 143.163472 255.672773 
L 143.830114 255.861304 
L 144.496756 255.431642 
L 145.163397 257.524261 
L 145.830039 253.468207 
L 146.496681 254.989339 
L 147.163323 256.139191 
L 147.829965 254.424056 
L 148.496606 255.312824 
L 149.163248 255.222253 
L 149.82989 254.603677 
L 150.496532 254.299773 
L 151.163173 257.126082 
L 151.829815 256.549354 
L 152.496457 256.436519 
L 153.163099 257.651945 
L 153.829741 256.698797 
L 154.496382 256.106239 
L 155.163024 254.943624 
L 155.829666 256.282535 
L 156.496308 256.753462 
L 157.162949 254.53511 
L 157.829591 254.80938 
L 158.496233 256.000049 
L 159.162875 252.386028 
L 160.496158 257.787425 
L 161.1628 257.992107 
L 161.829442 256.103594 
L 162.496084 258.523657 
L 163.162725 256.00647 
L 163.829367 258.99613 
L 164.496009 257.160703 
L 165.162651 257.331378 
L 165.829293 258.703569 
L 166.495934 256.416205 
L 167.162576 256.881315 
L 167.829218 256.598205 
L 168.49586 256.188911 
L 169.162501 255.98426 
L 169.829143 256.318912 
L 171.162427 258.216181 
L 171.829069 256.449036 
L 172.49571 256.985722 
L 173.162352 256.049856 
L 173.828994 254.524878 
L 174.495636 258.080426 
L 175.162277 256.268464 
L 175.828919 257.745873 
L 176.495561 257.980805 
L 177.162203 255.276318 
L 177.828845 259.059125 
L 178.495486 257.00035 
L 179.162128 257.131643 
L 179.82877 255.893877 
L 180.495412 252.669171 
L 181.162053 256.151701 
L 182.495337 253.746502 
L 183.161979 254.90154 
L 183.82862 253.457599 
L 184.495262 254.126222 
L 185.161904 257.498307 
L 185.828546 256.118037 
L 186.495188 254.120539 
L 187.161829 249.304312 
L 187.828471 254.71226 
L 189.161755 250.766193 
L 189.828396 249.070529 
L 190.495038 245.754239 
L 191.16168 249.240015 
L 191.828322 253.916198 
L 192.494964 247.932298 
L 193.161605 246.285403 
L 193.828247 250.435655 
L 194.494889 245.967971 
L 195.161531 248.905059 
L 195.828172 248.078546 
L 196.494814 247.667313 
L 197.161456 246.336182 
L 197.828098 244.452121 
L 198.49474 246.352445 
L 199.161381 246.088829 
L 199.828023 246.304479 
L 200.494665 247.629969 
L 201.161307 243.697581 
L 201.827948 250.280034 
L 203.161232 243.383834 
L 203.827874 246.29735 
L 204.494516 246.373819 
L 205.161157 247.531042 
L 205.827799 250.232195 
L 206.494441 247.013021 
L 207.161083 249.637507 
L 207.827724 247.24284 
L 208.494366 249.332105 
L 209.161008 248.765546 
L 209.82765 250.894752 
L 210.494292 247.952764 
L 211.160933 250.127984 
L 211.827575 248.162117 
L 212.494217 250.548782 
L 213.160859 250.569888 
L 213.8275 249.123179 
L 214.494142 251.517352 
L 215.160784 250.306686 
L 216.494068 253.620948 
L 217.827351 244.005972 
L 218.493993 249.484204 
L 219.160635 248.664155 
L 219.827276 254.471696 
L 220.493918 249.901123 
L 221.16056 249.326106 
L 221.827202 245.278932 
L 222.493844 242.865413 
L 223.160485 239.245762 
L 223.827127 241.910515 
L 224.493769 251.11395 
L 225.160411 246.648892 
L 225.827052 246.687765 
L 226.493694 248.673131 
L 227.160336 247.351868 
L 227.826978 241.607843 
L 228.49362 246.860707 
L 229.160261 248.985709 
L 229.826903 248.04712 
L 230.493545 249.893809 
L 231.160187 248.06509 
L 231.826828 244.983136 
L 232.49347 244.785433 
L 233.160112 248.372678 
L 233.826754 242.533748 
L 234.493396 238.323421 
L 235.160037 237.948597 
L 235.826679 237.255351 
L 236.493321 248.238314 
L 237.159963 246.804686 
L 238.493246 249.407037 
L 239.159888 249.701885 
L 239.82653 253.954345 
L 240.493172 249.280178 
L 241.159813 251.047331 
L 241.826455 246.511598 
L 242.493097 248.684433 
L 243.159739 245.409511 
L 243.82638 246.369826 
L 244.493022 250.841547 
L 245.159664 250.333976 
L 245.826306 250.288616 
L 246.492948 256.106239 
L 247.159589 256.685934 
L 247.826231 255.566356 
L 248.492873 254.167519 
L 249.159515 254.955212 
L 249.826156 259.161075 
L 250.492798 255.624217 
L 251.15944 256.942252 
L 251.826082 257.503074 
L 253.159365 258.995651 
L 253.826007 255.37217 
L 254.492649 259.094713 
L 255.159291 259.051641 
L 255.825932 258.62104 
L 256.492574 255.249714 
L 257.159216 259.093558 
L 257.825858 258.873666 
L 258.4925 255.841114 
L 259.159141 256.285558 
L 259.825783 253.095792 
L 260.492425 253.534006 
L 261.159067 260.006049 
L 261.825708 254.721681 
L 262.49235 255.298343 
L 264.492276 248.638903 
L 265.158917 250.005356 
L 265.825559 240.847829 
L 266.492201 236.700042 
L 267.158843 246.783202 
L 267.825484 244.520111 
L 268.492126 245.209841 
L 269.158768 247.636988 
L 269.82541 251.162171 
L 270.492052 245.610016 
L 271.158693 242.389687 
L 271.825335 245.318259 
L 272.491977 249.794459 
L 273.82526 239.760513 
L 274.491902 242.397088 
L 275.158544 248.318721 
L 275.825186 242.638422 
L 276.491828 243.977889 
L 277.158469 248.305232 
L 277.825111 248.26713 
L 278.491753 249.649673 
L 279.158395 249.397872 
L 279.825036 248.01361 
L 280.491678 245.723157 
L 281.15832 253.01564 
L 281.824962 248.014127 
L 282.491604 249.129835 
L 283.158245 252.85948 
L 283.824887 251.236751 
L 284.491529 242.445185 
L 285.158171 250.67401 
L 285.824812 248.448048 
L 286.491454 248.05464 
L 287.158096 250.238964 
L 287.824738 248.929721 
L 288.49138 249.960953 
L 289.158021 250.355845 
L 289.824663 247.206009 
L 290.491305 255.674575 
L 291.157947 259.269631 
L 291.824588 257.018756 
L 292.49123 262.411529 
L 293.157872 250.943942 
L 293.824514 252.011232 
L 294.491155 250.819099 
L 295.157797 250.94143 
L 295.824439 249.681803 
L 296.491081 244.468894 
L 297.157723 250.906762 
L 297.824364 241.34374 
L 298.491006 243.675728 
L 299.157648 243.858232 
L 299.82429 242.103249 
L 300.490931 237.402404 
L 301.157573 247.163571 
L 301.824215 240.877342 
L 302.490857 247.060231 
L 303.157499 249.130553 
L 303.82414 247.974698 
L 304.490782 249.956731 
L 305.157424 248.350151 
L 305.824066 240.362683 
L 306.490707 242.670454 
L 307.157349 241.247665 
L 307.823991 238.094904 
L 308.490633 245.802501 
L 309.157275 246.319594 
L 309.823916 248.747111 
L 310.490558 244.044385 
L 311.1572 243.732876 
L 311.823842 249.960953 
L 312.490483 257.592222 
L 313.157125 253.746502 
L 313.823767 254.401438 
L 314.490409 258.207563 
L 315.157051 253.972381 
L 315.823692 256.134403 
L 316.490334 250.822383 
L 317.156976 256.343678 
L 317.823618 259.883457 
L 318.490259 251.172747 
L 319.156901 254.746454 
L 319.823543 259.854907 
L 320.490185 251.429612 
L 321.156827 247.254916 
L 321.823468 247.675318 
L 322.49011 252.150523 
L 323.156752 251.695274 
L 323.823394 244.902267 
L 324.490035 247.041902 
L 325.156677 245.244041 
L 325.823319 248.058946 
L 326.489961 247.188311 
L 327.156603 248.790503 
L 327.823244 247.873307 
L 328.489886 250.882505 
L 329.156528 247.380608 
L 329.82317 240.561124 
L 330.489811 242.752369 
L 331.156453 241.609128 
L 331.823095 251.730709 
L 332.489737 244.45806 
L 333.156379 247.257734 
L 333.82302 240.786392 
L 334.489662 239.366312 
L 335.156304 238.405251 
L 335.822946 236.28799 
L 336.489587 240.610887 
L 337.156229 239.473283 
L 337.822871 238.687301 
L 338.489513 240.073111 
L 339.156155 246.745761 
L 339.822796 236.618929 
L 340.489438 237.777218 
L 341.15608 239.907641 
L 341.822722 238.45978 
L 342.489363 248.015659 
L 343.156005 246.469813 
L 343.822647 246.438577 
L 344.489289 243.485925 
L 345.155931 242.15848 
L 345.822572 245.967971 
L 346.489214 236.711085 
L 347.155856 240.528153 
L 347.822498 239.637917 
L 348.489139 244.693937 
L 349.155781 245.512929 
L 349.822423 245.541319 
L 350.489065 245.324165 
L 351.155707 250.616279 
L 351.822348 249.685472 
L 352.48899 248.181129 
L 353.155632 250.443253 
L 353.822274 246.198208 
L 354.488915 240.933261 
L 355.155557 237.256155 
L 355.822199 237.73585 
L 356.488841 234.37297 
L 357.155483 235.020642 
L 359.155408 250.168265 
L 359.82205 251.52653 
L 360.488691 254.947888 
L 361.155333 254.546228 
L 361.821975 254.75957 
L 363.155259 250.862109 
L 363.8219 251.90481 
L 364.488542 251.338844 
L 365.155184 251.983979 
L 365.821826 252.21301 
L 366.488467 254.990446 
L 367.155109 255.582017 
L 367.821751 255.331412 
L 368.488393 255.865534 
L 369.155035 253.052674 
L 369.821676 253.830139 
L 370.488318 256.601507 
L 371.15496 256.598708 
L 371.821602 253.088983 
L 372.488243 250.419964 
L 373.154885 251.754017 
L 373.821527 249.945155 
L 375.154811 250.78011 
L 375.821452 242.66182 
L 376.488094 240.181126 
L 377.154736 244.464118 
L 377.821378 242.699943 
L 378.488019 244.756615 
L 379.154661 245.512929 
L 379.821303 246.561451 
L 380.487945 242.369004 
L 381.821228 252.421292 
L 382.48787 242.752369 
L 383.154512 251.759413 
L 383.821154 248.40865 
L 384.487795 249.333334 
L 385.154437 247.360129 
L 385.821079 258.458505 
L 386.487721 256.785557 
L 387.154363 250.497706 
L 389.154288 239.457871 
L 389.82093 244.861699 
L 390.487571 240.921143 
L 391.154213 241.169348 
L 391.820855 241.748492 
L 392.487497 237.963371 
L 393.154139 249.582817 
L 393.82078 242.555157 
L 394.487422 241.032139 
L 395.154064 244.230539 
L 395.820706 245.119939 
L 396.487347 256.868292 
L 397.153989 259.464386 
L 397.820631 261.555134 
L 398.487273 260.177312 
L 398.487273 260.177312 
" style="fill:none;stroke:#0000ff;stroke-linecap:square;stroke-width:1.5;"/>
   </g>
   <g id="line2d_26">
    <path clip-path="url(#p048683ea0b)" d="M 73.832727 265.282693 
L 74.499369 269.086123 
L 75.166011 270.46922 
L 75.832653 270.089545 
L 76.499294 271.623385 
L 77.165936 268.326056 
L 77.832578 268.896749 
L 79.165861 269.251178 
L 79.832503 269.923561 
L 80.499145 269.925527 
L 81.165787 270.615922 
L 81.832429 269.166624 
L 82.49907 268.54717 
L 83.165712 268.199283 
L 83.832354 268.717691 
L 84.498996 267.941687 
L 85.165637 268.81097 
L 85.832279 268.490451 
L 86.498921 269.059368 
L 87.165563 269.044924 
L 87.832205 268.000215 
L 89.165488 267.55574 
L 89.83213 268.793396 
L 90.498772 268.680409 
L 91.165413 267.935769 
L 91.832055 268.511915 
L 92.498697 269.460278 
L 93.165339 268.214496 
L 93.831981 269.878096 
L 94.498622 270.575906 
L 95.165264 269.575859 
L 95.831906 271.243042 
L 96.498548 271.321895 
L 97.165189 270.758251 
L 97.831831 272.815495 
L 98.498473 270.35252 
L 99.165115 270.11238 
L 99.831757 268.988916 
L 100.498398 268.259667 
L 101.16504 269.815652 
L 101.831682 270.846992 
L 102.498324 269.447801 
L 103.831607 275.784539 
L 104.498249 273.429212 
L 105.164891 277.403232 
L 105.831533 273.943511 
L 106.498174 276.197737 
L 107.164816 275.850662 
L 107.831458 270.594911 
L 108.4981 272.196643 
L 109.164741 276.334354 
L 109.831383 276.22758 
L 110.498025 273.738957 
L 111.164667 275.592093 
L 111.831309 273.718396 
L 112.49795 275.2752 
L 113.164592 271.26771 
L 113.831234 280.163864 
L 114.497876 277.93898 
L 115.164517 273.186681 
L 115.831159 272.523676 
L 116.497801 270.625112 
L 117.164443 274.611478 
L 117.831085 273.593251 
L 118.497726 273.925644 
L 119.164368 272.760594 
L 119.83101 271.32968 
L 120.497652 278.024852 
L 121.164293 274.080041 
L 121.830935 274.311065 
L 122.497577 272.715208 
L 123.164219 277.693701 
L 123.830861 277.618436 
L 124.497502 276.972724 
L 125.164144 280.160123 
L 125.830786 280.662339 
L 126.497428 279.958738 
L 127.164069 272.713319 
L 127.830711 275.867402 
L 128.497353 275.6506 
L 129.163995 274.89748 
L 129.830637 271.575588 
L 130.497278 275.825501 
L 131.16392 272.812121 
L 131.830562 277.887528 
L 132.497204 272.000655 
L 133.830487 273.141178 
L 134.497129 271.610206 
L 135.830413 278.596944 
L 136.497054 272.704571 
L 137.163696 271.208028 
L 137.830338 272.160266 
L 138.49698 271.768628 
L 139.163621 272.006245 
L 139.830263 268.875149 
L 140.496905 270.639712 
L 141.163547 270.092381 
L 142.49683 271.980392 
L 143.163472 274.471653 
L 143.830114 271.127104 
L 144.496756 272.133375 
L 145.163397 277.299667 
L 145.830039 271.646835 
L 146.496681 269.968481 
L 147.163323 275.445872 
L 147.829965 271.952371 
L 148.496606 273.193128 
L 149.163248 269.567096 
L 149.82989 269.93272 
L 150.496532 271.747114 
L 151.163173 271.557589 
L 151.829815 268.390072 
L 152.496457 268.947546 
L 153.163099 274.727638 
L 154.496382 270.493845 
L 155.163024 270.707614 
L 156.496308 273.816637 
L 157.162949 269.759507 
L 157.829591 274.272848 
L 158.496233 273.732917 
L 159.162875 270.21148 
L 159.829517 273.948341 
L 160.496158 273.880744 
L 161.1628 272.166868 
L 161.829442 274.212551 
L 162.496084 272.505465 
L 163.162725 272.20029 
L 163.829367 272.68176 
L 164.496009 272.714248 
L 165.162651 270.507921 
L 165.829293 274.900807 
L 166.495934 269.585378 
L 167.162576 271.165066 
L 167.829218 269.713456 
L 168.49586 268.549733 
L 169.162501 272.326215 
L 169.829143 272.195349 
L 170.495785 271.887652 
L 171.162427 271.913573 
L 171.829069 271.016528 
L 172.49571 271.366402 
L 173.162352 268.886648 
L 173.828994 272.778708 
L 174.495636 273.557724 
L 175.162277 268.803426 
L 175.828919 273.441674 
L 176.495561 276.149413 
L 177.162203 275.418795 
L 177.828845 275.268847 
L 178.495486 281.220708 
L 179.162128 275.272142 
L 179.82877 274.785701 
L 180.495412 269.802675 
L 181.162053 279.727898 
L 181.828695 275.039784 
L 182.495337 273.486563 
L 183.161979 276.398228 
L 183.82862 274.143904 
L 184.495262 275.351216 
L 185.161904 279.891625 
L 185.828546 278.403306 
L 186.495188 272.25892 
L 187.161829 271.243446 
L 187.828471 275.85534 
L 188.495113 275.581689 
L 189.161755 274.217778 
L 189.828396 271.417526 
L 190.495038 271.591457 
L 191.16168 274.421559 
L 191.828322 285.197634 
L 192.494964 272.425824 
L 193.161605 273.260191 
L 193.828247 276.207239 
L 194.494889 270.643191 
L 195.161531 277.190106 
L 195.828172 280.009388 
L 196.494814 276.999106 
L 197.161456 272.421454 
L 197.828098 271.33755 
L 198.49474 272.694989 
L 199.161381 271.592206 
L 199.828023 275.13607 
L 200.494665 276.43529 
L 201.161307 273.039077 
L 201.827948 274.726564 
L 203.161232 270.579113 
L 203.827874 269.187031 
L 204.494516 272.823181 
L 205.161157 270.915436 
L 205.827799 275.251792 
L 206.494441 273.296951 
L 207.161083 277.248741 
L 207.827724 275.679706 
L 208.494366 274.784049 
L 209.161008 277.745807 
L 209.82765 279.430674 
L 210.494292 276.705701 
L 211.160933 280.845302 
L 211.827575 278.27043 
L 212.494217 281.526206 
L 213.160859 276.794721 
L 213.8275 276.002006 
L 214.494142 283.316998 
L 215.160784 277.006575 
L 215.827426 277.479738 
L 216.494068 279.443445 
L 217.160709 275.101398 
L 217.827351 272.128398 
L 218.493993 277.50447 
L 219.160635 276.332785 
L 219.827276 282.572548 
L 221.16056 279.448505 
L 221.827202 273.056521 
L 222.493844 272.004482 
L 223.160485 268.131754 
L 223.827127 272.696499 
L 224.493769 283.777004 
L 225.827052 273.835066 
L 226.493694 277.31919 
L 227.826978 270.117203 
L 228.49362 275.581465 
L 229.160261 278.963884 
L 229.826903 275.800433 
L 230.493545 275.960989 
L 231.160187 274.369031 
L 231.826828 271.283743 
L 233.160112 274.652908 
L 234.493396 268.659321 
L 235.160037 266.428294 
L 235.826679 265.576362 
L 236.493321 275.312593 
L 237.159963 273.527825 
L 237.826604 277.186638 
L 238.493246 277.147174 
L 239.159888 276.488464 
L 239.82653 271.435629 
L 240.493172 272.093558 
L 241.159813 276.308754 
L 241.826455 271.145136 
L 242.493097 275.475863 
L 243.159739 273.98207 
L 243.82638 274.422311 
L 244.493022 278.997553 
L 245.159664 274.864536 
L 245.826306 272.24757 
L 246.492948 281.655623 
L 247.159589 283.762821 
L 248.492873 279.590043 
L 249.159515 282.398489 
L 249.826156 284.11459 
L 251.15944 276.866956 
L 251.826082 285.99793 
L 252.492724 281.499372 
L 253.159365 280.308177 
L 253.826007 275.187443 
L 254.492649 286.099539 
L 255.159291 282.854285 
L 255.825932 287.935544 
L 256.492574 278.984928 
L 257.159216 280.416938 
L 257.825858 288.615988 
L 258.4925 283.549055 
L 259.159141 283.446517 
L 259.825783 279.364907 
L 260.492425 280.692351 
L 261.159067 291.698057 
L 261.825708 284.925018 
L 262.49235 283.916338 
L 263.825634 279.790761 
L 264.492276 277.286942 
L 265.158917 277.242795 
L 265.825559 270.512464 
L 266.492201 270.569015 
L 267.158843 278.946101 
L 267.825484 277.189758 
L 268.492126 276.213483 
L 269.158768 274.910801 
L 269.82541 277.766013 
L 271.158693 271.368008 
L 271.825335 275.236617 
L 272.491977 276.755838 
L 273.158619 275.822511 
L 273.82526 268.324771 
L 274.491902 273.275323 
L 275.158544 279.799118 
L 275.825186 274.80355 
L 277.158469 278.680093 
L 277.825111 277.04952 
L 278.491753 280.062114 
L 279.158395 274.60435 
L 279.825036 280.005526 
L 280.491678 279.59154 
L 281.15832 287.700333 
L 281.824962 275.344968 
L 282.491604 280.59946 
L 283.158245 277.393113 
L 283.824887 287.745315 
L 284.491529 277.054361 
L 285.158171 284.376628 
L 285.824812 279.947354 
L 286.491454 279.777044 
L 287.158096 282.898486 
L 287.824738 279.621881 
L 288.49138 281.324475 
L 289.158021 284.464523 
L 289.824663 277.181692 
L 290.491305 289.221515 
L 291.157947 286.438761 
L 291.824588 284.292908 
L 292.49123 288.733472 
L 293.157872 283.502841 
L 293.824514 285.533936 
L 294.491155 281.944039 
L 295.157797 276.8424 
L 295.824439 278.601332 
L 296.491081 277.831292 
L 297.157723 283.279259 
L 297.824364 273.25517 
L 298.491006 274.508885 
L 299.157648 279.620278 
L 300.490931 269.81593 
L 301.157573 284.843602 
L 301.824215 271.806213 
L 302.490857 281.668195 
L 303.157499 285.234103 
L 303.82414 277.975524 
L 304.490782 282.593566 
L 305.157424 278.413022 
L 306.490707 274.348389 
L 307.157349 274.359136 
L 307.823991 265.928198 
L 308.490633 279.622529 
L 309.157275 277.508416 
L 309.823916 286.118515 
L 310.490558 276.292548 
L 311.1572 273.072313 
L 311.823842 280.45204 
L 312.490483 283.011362 
L 313.157125 281.353936 
L 313.823767 283.935965 
L 314.490409 291.165362 
L 315.157051 288.235631 
L 315.823692 288.73545 
L 316.490334 280.595792 
L 317.156976 288.771549 
L 317.823618 289.277228 
L 318.490259 283.116972 
L 319.156901 286.723092 
L 319.823543 287.76952 
L 320.490185 287.776097 
L 321.156827 279.007019 
L 321.823468 277.515173 
L 322.49011 285.857542 
L 323.156752 282.355088 
L 323.823394 278.114355 
L 324.490035 283.277699 
L 325.156677 273.328322 
L 325.823319 282.095632 
L 327.156603 283.676004 
L 327.823244 282.857237 
L 328.489886 287.586213 
L 329.156528 284.898659 
L 329.82317 272.264229 
L 330.489811 275.307649 
L 331.156453 277.013494 
L 331.823095 286.329409 
L 332.489737 276.215884 
L 333.156379 275.344049 
L 333.82302 270.548093 
L 334.489662 266.705457 
L 335.156304 267.154961 
L 335.822946 264.960462 
L 336.489587 268.018581 
L 337.156229 266.21739 
L 337.822871 268.202761 
L 338.489513 274.234522 
L 339.156155 281.990603 
L 339.822796 269.309025 
L 340.489438 271.819154 
L 341.15608 273.25926 
L 341.822722 267.671309 
L 342.489363 286.230193 
L 343.156005 279.792255 
L 343.822647 279.55608 
L 344.489289 275.045216 
L 345.155931 279.739535 
L 345.822572 276.483267 
L 346.489214 275.843842 
L 347.155856 271.102155 
L 347.822498 267.981117 
L 348.489139 270.629599 
L 349.155781 276.707656 
L 349.822423 276.612466 
L 350.489065 274.446761 
L 351.155707 283.779138 
L 352.48899 277.347515 
L 353.155632 284.662214 
L 353.822274 273.918177 
L 354.488915 271.538857 
L 355.155557 268.119991 
L 355.822199 268.852197 
L 356.488841 263.643382 
L 357.155483 263.49906 
L 357.822124 270.795408 
L 358.488766 275.057335 
L 359.155408 275.19313 
L 359.82205 275.177324 
L 360.488691 272.227446 
L 361.155333 274.410925 
L 361.821975 273.83644 
L 362.488617 273.43811 
L 363.155259 273.422422 
L 363.8219 272.667427 
L 365.155184 274.60843 
L 365.821826 276.555682 
L 366.488467 277.900247 
L 367.155109 275.212303 
L 367.821751 274.588248 
L 368.488393 272.449536 
L 369.155035 274.964966 
L 369.821676 276.169605 
L 370.488318 277.855751 
L 371.15496 277.596357 
L 371.821602 272.446499 
L 372.488243 273.35494 
L 373.154885 280.963958 
L 373.821527 276.612344 
L 374.488169 275.705867 
L 375.154811 275.271474 
L 375.821452 272.491514 
L 376.488094 267.590543 
L 377.154736 270.296827 
L 377.821378 271.019757 
L 378.488019 270.475167 
L 379.821303 277.440936 
L 380.487945 274.264991 
L 381.154587 277.09836 
L 381.821228 281.322335 
L 382.48787 276.318531 
L 383.154512 281.900044 
L 383.821154 279.293262 
L 384.487795 289.577993 
L 385.154437 277.227146 
L 385.821079 294.744216 
L 387.154363 274.518079 
L 387.821004 272.002189 
L 388.487646 271.968803 
L 389.154288 271.356213 
L 389.82093 278.95257 
L 390.487571 274.176527 
L 391.154213 272.415461 
L 391.820855 272.133124 
L 392.487497 270.817787 
L 393.154139 282.294352 
L 394.487422 269.990405 
L 395.154064 276.693281 
L 395.820706 274.300696 
L 396.487347 294.152149 
L 397.153989 295.488 
L 397.820631 293.05009 
L 398.487273 291.256628 
L 398.487273 291.256628 
" style="fill:none;stroke:#008000;stroke-dasharray:9.6,2.4,1.5,2.4;stroke-dashoffset:0;stroke-width:1.5;"/>
   </g>
   <g id="line2d_27">
    <path clip-path="url(#p048683ea0b)" d="M 73.832727 257.554728 
L 74.499369 253.282467 
L 75.166011 252.321651 
L 75.832653 252.149159 
L 76.499294 250.167174 
L 77.165936 254.242529 
L 77.832578 252.838825 
L 79.165861 251.972277 
L 79.832503 251.844258 
L 81.165787 250.804521 
L 81.832429 252.734639 
L 82.49907 253.067731 
L 83.165712 253.627845 
L 83.832354 252.983554 
L 84.498996 254.183509 
L 85.165637 253.723637 
L 85.832279 253.096464 
L 86.498921 252.76001 
L 87.165563 253.076094 
L 87.832205 253.710552 
L 89.165488 253.795933 
L 89.83213 253.082064 
L 90.498772 252.925683 
L 91.165413 253.795352 
L 91.832055 252.992814 
L 92.498697 253.269805 
L 94.498622 251.394213 
L 95.165264 252.026862 
L 95.831906 247.651325 
L 96.498548 250.759989 
L 97.165189 249.712159 
L 97.831831 248.134968 
L 98.498473 249.177475 
L 99.165115 252.384864 
L 99.831757 251.77841 
L 100.498398 252.091112 
L 101.16504 249.739797 
L 101.831682 250.65028 
L 102.498324 250.573029 
L 103.164965 249.376665 
L 103.831607 243.489373 
L 104.498249 247.556821 
L 105.164891 246.736278 
L 105.831533 244.149632 
L 106.498174 243.449221 
L 107.164816 246.076019 
L 107.831458 242.662462 
L 108.4981 242.469136 
L 109.164741 240.288561 
L 109.831383 237.574706 
L 110.498025 239.515326 
L 111.164667 238.285867 
L 111.831309 242.559206 
L 112.49795 240.993791 
L 113.164592 242.691908 
L 113.831234 237.77053 
L 114.497876 240.554094 
L 115.164517 242.636976 
L 115.831159 246.441977 
L 116.497801 244.358064 
L 117.164443 243.333487 
L 117.831085 245.85204 
L 118.497726 240.526821 
L 119.164368 243.103715 
L 119.83101 247.412365 
L 120.497652 239.165913 
L 121.830935 241.622079 
L 122.497577 241.556484 
L 123.830861 236.240292 
L 124.497502 235.615593 
L 125.164144 233.703686 
L 126.497428 239.617913 
L 127.164069 244.305082 
L 127.830711 244.125574 
L 128.497353 240.74729 
L 129.830637 246.566751 
L 130.497278 240.175327 
L 131.16392 241.364818 
L 131.830562 242.258054 
L 132.497204 243.991671 
L 133.163845 244.738819 
L 133.830487 247.454032 
L 134.497129 243.393352 
L 135.163771 242.016307 
L 136.497054 245.35746 
L 137.163696 242.384484 
L 137.830338 242.078302 
L 138.49698 245.698393 
L 139.163621 242.751141 
L 139.830263 247.237108 
L 140.496905 241.148042 
L 141.163547 240.690568 
L 141.830189 238.507797 
L 142.49683 234.745396 
L 143.163472 236.873893 
L 143.830114 240.595505 
L 144.496756 238.729908 
L 145.163397 237.748856 
L 145.830039 235.289578 
L 146.496681 240.010197 
L 147.163323 236.832509 
L 147.829965 236.89574 
L 148.496606 237.432519 
L 149.163248 240.87741 
L 149.82989 239.274633 
L 150.496532 236.852431 
L 151.163173 242.694574 
L 151.829815 244.708636 
L 152.496457 243.925493 
L 153.163099 240.576251 
L 153.829741 240.773828 
L 154.496382 241.718632 
L 155.163024 239.179635 
L 155.829666 240.241938 
L 156.496308 239.690287 
L 157.162949 239.310713 
L 157.829591 235.345912 
L 158.496233 238.267182 
L 159.162875 234.560576 
L 159.829517 236.2518 
L 160.496158 241.694105 
L 161.1628 243.817347 
L 161.829442 237.994637 
L 162.496084 244.541849 
L 163.162725 239.812651 
L 163.829367 245.3105 
L 164.496009 241.607158 
L 165.162651 244.154834 
L 165.829293 242.50633 
L 166.495934 243.247032 
L 167.162576 242.597564 
L 167.829218 243.482953 
L 168.49586 243.82809 
L 169.162501 239.642305 
L 169.829143 240.442475 
L 170.495785 242.801728 
L 171.162427 244.518789 
L 171.829069 241.881544 
L 173.162352 243.213064 
L 173.828994 236.271048 
L 174.495636 242.603129 
L 175.162277 243.733503 
L 175.828919 242.050072 
L 176.495561 239.812196 
L 177.162203 235.133841 
L 177.828845 242.849403 
L 178.495486 232.779991 
L 179.162128 238.991144 
L 179.82877 237.002053 
L 180.495412 235.535667 
L 181.162053 232.575504 
L 181.828695 234.893848 
L 182.495337 234.006441 
L 183.82862 232.771295 
L 184.495262 232.901227 
L 185.161904 235.104988 
L 185.828546 233.832768 
L 186.495188 235.982158 
L 187.161829 227.365179 
L 187.828471 233.569181 
L 188.495113 229.609619 
L 189.161755 227.314608 
L 189.828396 226.723532 
L 190.495038 219.917022 
L 191.16168 224.058472 
L 191.828322 222.634762 
L 192.494964 223.438772 
L 193.161605 219.310615 
L 193.828247 224.664071 
L 194.494889 221.292752 
L 195.161531 220.620013 
L 195.828172 216.147704 
L 197.161456 220.250911 
L 197.828098 217.566692 
L 198.49474 220.009901 
L 199.161381 220.585452 
L 199.828023 217.472889 
L 200.494665 218.824648 
L 201.161307 214.356086 
L 201.827948 225.833505 
L 203.161232 216.188556 
L 203.827874 223.407668 
L 204.494516 219.924458 
L 205.161157 224.146648 
L 205.827799 225.212597 
L 206.494441 220.729091 
L 207.161083 222.026272 
L 207.827724 218.805975 
L 208.494366 223.880161 
L 209.161008 219.785284 
L 209.82765 222.358831 
L 210.494292 219.199827 
L 211.160933 219.410667 
L 211.827575 218.053804 
L 212.494217 219.571358 
L 213.160859 224.345055 
L 213.8275 222.244352 
L 214.494142 219.717706 
L 215.160784 223.606797 
L 215.827426 226.215914 
L 216.494068 227.798451 
L 217.160709 222.408174 
L 217.827351 215.883547 
L 218.493993 221.463937 
L 219.160635 220.995525 
L 219.827276 226.370845 
L 220.493918 218.696681 
L 221.16056 219.203707 
L 221.827202 217.501342 
L 223.160485 210.35977 
L 223.827127 211.12453 
L 224.493769 218.450895 
L 225.160411 214.263978 
L 225.827052 219.540464 
L 226.493694 220.027071 
L 227.160336 220.879058 
L 227.826978 213.098482 
L 228.49362 218.139949 
L 229.160261 219.007534 
L 229.826903 220.293806 
L 230.493545 223.82663 
L 231.160187 221.761149 
L 231.826828 218.682528 
L 232.49347 216.695373 
L 233.160112 222.092449 
L 233.826754 213.665934 
L 234.493396 207.987521 
L 235.160037 209.4689 
L 235.826679 208.934341 
L 236.493321 221.164034 
L 237.826604 218.960904 
L 238.493246 221.6669 
L 239.159888 222.915306 
L 239.82653 236.473061 
L 240.493172 226.466798 
L 241.159813 225.785908 
L 241.826455 221.878059 
L 242.493097 221.893004 
L 243.159739 216.836951 
L 243.82638 218.317341 
L 244.493022 222.685541 
L 245.159664 225.803416 
L 246.492948 230.556855 
L 247.159589 229.609047 
L 247.826231 229.508181 
L 248.492873 228.744995 
L 249.159515 227.511935 
L 249.826156 234.207559 
L 250.492798 230.824838 
L 251.15944 237.017548 
L 251.826082 229.008217 
L 252.492724 235.082373 
L 253.159365 237.683125 
L 253.826007 235.556896 
L 254.492649 232.089887 
L 255.159291 235.248997 
L 255.825932 229.306536 
L 256.492574 231.514499 
L 257.159216 237.770178 
L 257.825858 229.131343 
L 258.4925 228.133174 
L 259.159141 229.1246 
L 259.825783 226.826676 
L 260.492425 226.375661 
L 261.159067 228.314041 
L 261.825708 224.518345 
L 262.49235 226.680348 
L 263.158992 224.104062 
L 264.492276 219.990864 
L 265.158917 222.767917 
L 265.825559 211.183193 
L 266.492201 202.831069 
L 267.158843 214.620303 
L 267.825484 211.850463 
L 268.492126 214.2062 
L 269.158768 220.363176 
L 269.82541 224.558328 
L 270.492052 216.814034 
L 271.158693 213.411366 
L 271.825335 215.399901 
L 272.491977 222.833081 
L 273.158619 214.022568 
L 273.82526 211.196256 
L 274.491902 211.518853 
L 275.158544 216.838324 
L 275.825186 210.473295 
L 276.491828 211.114119 
L 277.158469 217.93037 
L 277.825111 219.48474 
L 278.491753 219.237233 
L 279.158395 224.191393 
L 279.825036 216.021693 
L 280.491678 211.854774 
L 281.15832 218.330946 
L 281.824962 220.683287 
L 282.491604 217.66021 
L 283.158245 228.325848 
L 283.824887 214.728187 
L 284.491529 207.836009 
L 285.158171 216.971392 
L 285.824812 216.948741 
L 286.491454 216.332237 
L 287.158096 217.579443 
L 287.824738 218.23756 
L 288.49138 218.597431 
L 289.158021 216.247166 
L 289.824663 217.230326 
L 290.491305 222.127635 
L 291.157947 232.100502 
L 291.824588 229.744604 
L 292.49123 236.089587 
L 293.157872 218.385043 
L 293.824514 218.488528 
L 294.491155 219.69416 
L 295.157797 225.040461 
L 295.824439 220.762275 
L 296.491081 211.106496 
L 297.157723 218.534265 
L 297.824364 209.432311 
L 298.491006 212.842571 
L 299.157648 208.096185 
L 299.82429 209.192137 
L 300.490931 204.988877 
L 301.157573 209.48354 
L 301.824215 209.948472 
L 302.490857 212.452266 
L 303.157499 213.027003 
L 303.82414 217.973871 
L 304.490782 217.319895 
L 305.157424 218.287279 
L 305.824066 204.38645 
L 306.490707 210.992519 
L 307.157349 208.136194 
L 307.823991 210.261609 
L 308.490633 211.982474 
L 309.157275 215.130772 
L 309.823916 211.375707 
L 310.490558 211.796222 
L 311.1572 214.393439 
L 311.823842 219.469867 
L 312.490483 232.173082 
L 313.157125 226.139067 
L 313.823767 224.866911 
L 314.490409 225.249764 
L 315.157051 219.709131 
L 315.823692 223.533356 
L 316.490334 221.048975 
L 317.156976 223.915806 
L 317.823618 230.489685 
L 318.490259 219.228523 
L 319.156901 222.769817 
L 319.823543 231.940295 
L 320.490185 215.083127 
L 321.156827 215.502813 
L 321.823468 217.835464 
L 322.49011 218.443505 
L 323.156752 221.035461 
L 323.823394 211.690179 
L 324.490035 210.806106 
L 325.156677 217.15976 
L 325.823319 214.02226 
L 326.489961 211.553561 
L 327.156603 213.905003 
L 327.823244 212.889377 
L 328.489886 214.178798 
L 329.156528 209.862557 
L 329.82317 208.858018 
L 330.489811 210.19709 
L 331.156453 206.204762 
L 331.823095 217.132009 
L 332.489737 212.700235 
L 333.156379 219.171419 
L 333.82302 211.024691 
L 334.489662 212.027168 
L 335.822946 207.615518 
L 336.489587 213.203193 
L 337.156229 212.729176 
L 338.489513 205.911699 
L 339.156155 211.500919 
L 339.822796 203.928834 
L 340.489438 203.735282 
L 341.822722 209.248252 
L 342.489363 209.801126 
L 343.156005 213.14737 
L 343.822647 213.321074 
L 344.489289 211.926633 
L 345.155931 204.577426 
L 345.822572 215.452676 
L 346.489214 197.578327 
L 347.155856 209.95415 
L 347.822498 211.294717 
L 348.489139 218.758276 
L 349.155781 214.318203 
L 349.822423 214.470172 
L 350.489065 216.20157 
L 351.822348 218.607213 
L 352.48899 219.014743 
L 353.155632 216.224291 
L 353.822274 218.478239 
L 354.488915 210.327665 
L 355.155557 206.392319 
L 355.822199 206.619504 
L 356.488841 205.102557 
L 357.155483 206.542224 
L 357.822124 209.880147 
L 359.155408 225.1434 
L 359.82205 227.875735 
L 360.488691 237.66833 
L 361.155333 234.68153 
L 361.821975 235.682699 
L 363.155259 228.301796 
L 363.8219 231.142193 
L 364.488542 228.954535 
L 365.155184 229.359528 
L 365.821826 227.870338 
L 367.155109 235.951732 
L 367.821751 236.074575 
L 368.488393 239.281533 
L 369.155035 231.140382 
L 369.821676 231.490674 
L 370.488318 235.347264 
L 371.15496 235.60106 
L 371.821602 233.731467 
L 372.488243 227.484988 
L 373.154885 222.544076 
L 373.821527 223.277966 
L 375.154811 226.288747 
L 375.821452 212.832127 
L 376.488094 212.771708 
L 377.154736 218.63141 
L 377.821378 214.38013 
L 378.488019 219.038064 
L 379.154661 216.830343 
L 379.821303 215.681965 
L 380.487945 210.473016 
L 381.154587 218.27108 
L 381.821228 223.520249 
L 382.48787 209.186207 
L 383.154512 221.618782 
L 383.821154 217.524039 
L 384.487795 209.088675 
L 385.154437 217.493111 
L 385.821079 222.172794 
L 386.487721 229.169304 
L 387.154363 226.477333 
L 387.821004 221.397074 
L 389.154288 207.55953 
L 389.82093 210.770828 
L 390.487571 207.665759 
L 391.154213 209.923235 
L 391.820855 211.36386 
L 392.487497 205.108955 
L 393.154139 216.871282 
L 393.82078 209.079905 
L 394.487422 212.073873 
L 395.154064 211.767796 
L 396.487347 219.584435 
L 397.153989 223.440772 
L 397.820631 230.060178 
L 398.487273 229.097997 
L 398.487273 229.097997 
" style="fill:none;stroke:#008000;stroke-dasharray:9.6,2.4,1.5,2.4;stroke-dashoffset:0;stroke-width:1.5;"/>
   </g>
   <g id="line2d_28">
    <path clip-path="url(#p048683ea0b)" d="M 73.832727 252.13172 
L 74.499369 192.14893 
L 75.166011 192.14893 
L 75.832653 165.260092 
L 76.499294 161.123348 
L 77.165936 194.217302 
L 77.832578 177.670325 
L 78.49922 165.260092 
L 79.832503 204.559162 
L 80.499145 188.012185 
L 81.832429 167.328465 
L 82.49907 188.012185 
L 83.165712 200.422418 
L 83.832354 190.080557 
L 84.498996 194.217302 
L 85.165637 179.738697 
L 85.832279 177.670325 
L 86.498921 161.123348 
L 87.165563 161.123348 
L 87.832205 188.012185 
L 88.498846 206.627534 
L 89.165488 194.217302 
L 89.83213 175.601953 
L 90.498772 194.217302 
L 91.165413 206.627534 
L 91.832055 192.14893 
L 92.498697 192.14893 
L 93.165339 165.260092 
L 93.831981 192.14893 
L 94.498622 190.080557 
L 95.165264 208.695906 
L 95.831906 163.19172 
L 96.498548 206.627534 
L 97.165189 194.217302 
L 97.831831 192.14893 
L 98.498473 173.533581 
L 99.165115 204.559162 
L 99.831757 216.969395 
L 100.498398 204.559162 
L 101.831682 208.695906 
L 102.498324 206.627534 
L 103.164965 208.695906 
L 103.831607 169.396837 
L 104.498249 188.012185 
L 105.164891 216.969395 
L 106.498174 161.123348 
L 107.164816 185.943813 
L 107.831458 194.217302 
L 108.4981 192.14893 
L 109.164741 136.302883 
L 109.831383 185.943813 
L 110.498025 148.713116 
L 111.164667 159.054976 
L 111.831309 204.559162 
L 112.49795 204.559162 
L 113.164592 188.012185 
L 113.831234 150.781488 
L 114.497876 179.738697 
L 115.164517 190.080557 
L 115.831159 225.242883 
L 116.497801 206.627534 
L 117.164443 179.738697 
L 117.831085 208.695906 
L 118.497726 138.371255 
L 119.164368 159.054976 
L 119.83101 196.285674 
L 120.497652 190.080557 
L 121.164293 188.012185 
L 121.830935 192.14893 
L 122.497577 192.14893 
L 123.164219 188.012185 
L 123.830861 192.14893 
L 124.497502 134.234511 
L 125.164144 173.533581 
L 125.830786 173.533581 
L 127.164069 210.764278 
L 127.830711 208.695906 
L 128.497353 175.601953 
L 129.163995 188.012185 
L 129.830637 194.217302 
L 130.497278 169.396837 
L 131.16392 185.943813 
L 131.830562 167.328465 
L 132.497204 194.217302 
L 133.163845 194.217302 
L 133.830487 219.037767 
L 134.497129 165.260092 
L 135.163771 181.807069 
L 136.497054 206.627534 
L 137.163696 194.217302 
L 137.830338 202.49079 
L 138.49698 206.627534 
L 139.163621 165.260092 
L 139.830263 227.311255 
L 140.496905 206.627534 
L 141.163547 206.627534 
L 141.830189 204.559162 
L 142.49683 173.533581 
L 143.163472 214.901022 
L 143.830114 196.285674 
L 144.496756 200.422418 
L 145.163397 210.764278 
L 146.496681 198.354046 
L 147.163323 185.943813 
L 147.829965 183.875441 
L 148.496606 196.285674 
L 149.163248 200.422418 
L 149.82989 185.943813 
L 150.496532 185.943813 
L 151.163173 202.49079 
L 151.829815 214.901022 
L 152.496457 200.422418 
L 153.163099 169.396837 
L 153.829741 177.670325 
L 154.496382 202.49079 
L 155.163024 198.354046 
L 155.829666 179.738697 
L 156.496308 200.422418 
L 157.162949 198.354046 
L 157.829591 185.943813 
L 158.496233 196.285674 
L 159.162875 181.807069 
L 159.829517 161.123348 
L 160.496158 204.559162 
L 161.1628 198.354046 
L 161.829442 188.012185 
L 162.496084 198.354046 
L 163.162725 204.559162 
L 163.829367 198.354046 
L 165.162651 181.807069 
L 165.829293 177.670325 
L 166.495934 183.875441 
L 167.162576 192.14893 
L 167.829218 204.559162 
L 168.49586 208.695906 
L 169.162501 179.738697 
L 169.829143 204.559162 
L 170.495785 192.14893 
L 171.162427 204.559162 
L 171.829069 192.14893 
L 172.49571 192.14893 
L 173.162352 202.49079 
L 173.828994 183.875441 
L 174.495636 200.422418 
L 175.162277 204.559162 
L 175.828919 179.738697 
L 176.495561 210.764278 
L 177.162203 177.670325 
L 177.828845 202.49079 
L 178.495486 156.986604 
L 179.162128 202.49079 
L 179.82877 202.49079 
L 180.495412 200.422418 
L 181.162053 173.533581 
L 181.828695 175.601953 
L 182.495337 188.012185 
L 183.161979 192.14893 
L 183.82862 192.14893 
L 184.495262 188.012185 
L 185.161904 177.670325 
L 185.828546 177.670325 
L 186.495188 188.012185 
L 187.161829 188.012185 
L 187.828471 171.465209 
L 189.161755 200.422418 
L 189.828396 177.670325 
L 190.495038 163.19172 
L 191.16168 171.465209 
L 191.828322 154.918232 
L 192.494964 188.012185 
L 193.161605 167.328465 
L 193.828247 167.328465 
L 194.494889 183.875441 
L 195.161531 167.328465 
L 195.828172 165.260092 
L 196.494814 173.533581 
L 197.161456 167.328465 
L 197.828098 175.601953 
L 198.49474 173.533581 
L 199.161381 167.328465 
L 199.828023 171.465209 
L 200.494665 165.260092 
L 201.161307 167.328465 
L 201.827948 179.738697 
L 202.49459 167.328465 
L 203.161232 169.396837 
L 203.827874 181.807069 
L 204.494516 156.986604 
L 205.161157 183.875441 
L 205.827799 173.533581 
L 206.494441 183.875441 
L 207.161083 177.670325 
L 207.827724 148.713116 
L 208.494366 181.807069 
L 209.161008 167.328465 
L 209.82765 167.328465 
L 210.494292 181.807069 
L 211.160933 163.19172 
L 212.494217 167.328465 
L 213.160859 173.533581 
L 213.8275 177.670325 
L 214.494142 183.875441 
L 215.160784 185.943813 
L 215.827426 177.670325 
L 216.494068 188.012185 
L 217.160709 171.465209 
L 217.827351 177.670325 
L 218.493993 163.19172 
L 219.160635 175.601953 
L 219.827276 146.644744 
L 220.493918 175.601953 
L 221.16056 163.19172 
L 222.493844 179.738697 
L 223.160485 179.738697 
L 223.827127 169.396837 
L 224.493769 161.123348 
L 225.160411 167.328465 
L 225.827052 177.670325 
L 226.493694 181.807069 
L 227.160336 167.328465 
L 228.49362 167.328465 
L 229.160261 183.875441 
L 229.826903 173.533581 
L 230.493545 159.054976 
L 231.160187 161.123348 
L 231.826828 161.123348 
L 232.49347 152.84986 
L 233.160112 185.943813 
L 233.826754 167.328465 
L 234.493396 175.601953 
L 235.160037 177.670325 
L 235.826679 173.533581 
L 236.493321 183.875441 
L 237.159963 175.601953 
L 237.826604 179.738697 
L 238.493246 185.943813 
L 239.159888 188.012185 
L 239.82653 175.601953 
L 240.493172 181.807069 
L 241.159813 192.14893 
L 241.826455 175.601953 
L 242.493097 171.465209 
L 243.159739 179.738697 
L 243.82638 179.738697 
L 244.493022 175.601953 
L 245.159664 188.012185 
L 245.826306 185.943813 
L 246.492948 177.670325 
L 247.159589 177.670325 
L 247.826231 165.260092 
L 248.492873 173.533581 
L 249.159515 173.533581 
L 249.826156 188.012185 
L 250.492798 192.14893 
L 251.15944 192.14893 
L 251.826082 169.396837 
L 253.159365 185.943813 
L 253.826007 192.14893 
L 255.159291 169.396837 
L 255.825932 167.328465 
L 256.492574 188.012185 
L 257.159216 185.943813 
L 257.825858 175.601953 
L 258.4925 183.875441 
L 259.159141 169.396837 
L 259.825783 181.807069 
L 260.492425 167.328465 
L 261.159067 196.285674 
L 261.825708 190.080557 
L 262.49235 185.943813 
L 263.158992 183.875441 
L 263.825634 185.943813 
L 264.492276 179.738697 
L 265.158917 179.738697 
L 265.825559 175.601953 
L 266.492201 181.807069 
L 267.158843 173.533581 
L 267.825484 188.012185 
L 268.492126 181.807069 
L 269.158768 173.533581 
L 269.82541 181.807069 
L 270.492052 171.465209 
L 271.158693 156.986604 
L 271.825335 175.601953 
L 272.491977 167.328465 
L 273.82526 171.465209 
L 274.491902 181.807069 
L 275.158544 165.260092 
L 275.825186 179.738697 
L 276.491828 179.738697 
L 277.158469 165.260092 
L 277.825111 188.012185 
L 278.491753 173.533581 
L 279.158395 167.328465 
L 279.825036 159.054976 
L 281.15832 163.19172 
L 281.824962 171.465209 
L 282.491604 171.465209 
L 283.158245 190.080557 
L 283.824887 177.670325 
L 284.491529 171.465209 
L 285.158171 181.807069 
L 285.824812 177.670325 
L 286.491454 185.943813 
L 287.158096 177.670325 
L 287.824738 177.670325 
L 288.49138 188.012185 
L 289.158021 144.576372 
L 289.824663 179.738697 
L 290.491305 192.14893 
L 291.157947 175.601953 
L 291.824588 175.601953 
L 292.49123 167.328465 
L 293.157872 179.738697 
L 293.824514 175.601953 
L 294.491155 148.713116 
L 295.157797 188.012185 
L 295.824439 181.807069 
L 297.157723 177.670325 
L 297.824364 167.328465 
L 298.491006 175.601953 
L 299.157648 169.396837 
L 299.82429 177.670325 
L 300.490931 144.576372 
L 301.157573 173.533581 
L 301.824215 175.601953 
L 302.490857 179.738697 
L 303.157499 177.670325 
L 303.82414 150.781488 
L 304.490782 177.670325 
L 305.157424 194.217302 
L 305.824066 165.260092 
L 306.490707 179.738697 
L 307.157349 156.986604 
L 307.823991 183.875441 
L 308.490633 181.807069 
L 309.157275 175.601953 
L 309.823916 171.465209 
L 310.490558 181.807069 
L 311.1572 181.807069 
L 311.823842 175.601953 
L 312.490483 192.14893 
L 313.157125 190.080557 
L 313.823767 165.260092 
L 314.490409 181.807069 
L 315.157051 179.738697 
L 315.823692 175.601953 
L 316.490334 167.328465 
L 317.156976 183.875441 
L 317.823618 192.14893 
L 318.490259 150.781488 
L 319.156901 188.012185 
L 319.823543 202.49079 
L 321.156827 148.713116 
L 321.823468 175.601953 
L 322.49011 171.465209 
L 323.156752 188.012185 
L 323.823394 150.781488 
L 324.490035 173.533581 
L 325.823319 173.533581 
L 326.489961 181.807069 
L 327.156603 171.465209 
L 327.823244 175.601953 
L 328.489886 181.807069 
L 329.156528 163.19172 
L 329.82317 173.533581 
L 330.489811 177.670325 
L 331.156453 163.19172 
L 331.823095 185.943813 
L 333.156379 185.943813 
L 333.82302 173.533581 
L 334.489662 188.012185 
L 335.156304 165.260092 
L 335.822946 171.465209 
L 336.489587 169.396837 
L 337.156229 165.260092 
L 337.822871 171.465209 
L 338.489513 179.738697 
L 339.822796 175.601953 
L 340.489438 169.396837 
L 341.15608 171.465209 
L 341.822722 179.738697 
L 342.489363 169.396837 
L 343.156005 161.123348 
L 343.822647 177.670325 
L 344.489289 181.807069 
L 345.155931 169.396837 
L 345.822572 175.601953 
L 346.489214 165.260092 
L 347.155856 167.328465 
L 347.822498 171.465209 
L 348.489139 190.080557 
L 349.822423 169.396837 
L 350.489065 185.943813 
L 351.155707 181.807069 
L 351.822348 185.943813 
L 352.48899 181.807069 
L 353.155632 148.713116 
L 353.822274 171.465209 
L 354.488915 177.670325 
L 355.155557 167.328465 
L 355.822199 183.875441 
L 356.488841 156.986604 
L 357.155483 175.601953 
L 357.822124 167.328465 
L 358.488766 165.260092 
L 359.155408 179.738697 
L 359.82205 144.576372 
L 360.488691 183.875441 
L 361.155333 173.533581 
L 361.821975 183.875441 
L 362.488617 175.601953 
L 363.155259 156.986604 
L 363.8219 183.875441 
L 364.488542 159.054976 
L 365.155184 173.533581 
L 365.821826 175.601953 
L 366.488467 165.260092 
L 367.155109 167.328465 
L 367.821751 181.807069 
L 368.488393 192.14893 
L 369.155035 123.892651 
L 369.821676 185.943813 
L 370.488318 185.943813 
L 371.15496 181.807069 
L 371.821602 175.601953 
L 372.488243 183.875441 
L 373.154885 181.807069 
L 373.821527 190.080557 
L 374.488169 188.012185 
L 375.154811 169.396837 
L 375.821452 177.670325 
L 376.488094 181.807069 
L 377.154736 173.533581 
L 377.821378 183.875441 
L 378.488019 171.465209 
L 379.154661 181.807069 
L 379.821303 177.670325 
L 380.487945 171.465209 
L 381.154587 192.14893 
L 381.821228 175.601953 
L 382.48787 163.19172 
L 383.154512 179.738697 
L 383.821154 183.875441 
L 384.487795 148.713116 
L 385.154437 163.19172 
L 385.821079 165.260092 
L 386.487721 192.14893 
L 387.154363 185.943813 
L 387.821004 175.601953 
L 388.487646 171.465209 
L 389.154288 150.781488 
L 389.82093 185.943813 
L 390.487571 169.396837 
L 391.154213 173.533581 
L 391.820855 163.19172 
L 392.487497 173.533581 
L 393.154139 167.328465 
L 393.82078 175.601953 
L 394.487422 181.807069 
L 395.154064 179.738697 
L 395.820706 165.260092 
L 396.487347 161.123348 
L 397.153989 121.824279 
L 397.820631 125.961023 
L 398.487273 53.568 
L 398.487273 53.568 
" style="fill:none;stroke:#ff0000;stroke-linecap:square;stroke-width:1.5;"/>
   </g>
   <g id="patch_3">
    <path d="M 57.6 307.584 
L 57.6 41.472 
" style="fill:none;stroke:#000000;stroke-linecap:square;stroke-linejoin:miter;stroke-width:0.8;"/>
   </g>
   <g id="patch_4">
    <path d="M 414.72 307.584 
L 414.72 41.472 
" style="fill:none;stroke:#000000;stroke-linecap:square;stroke-linejoin:miter;stroke-width:0.8;"/>
   </g>
   <g id="patch_5">
    <path d="M 57.6 307.584 
L 414.72 307.584 
" style="fill:none;stroke:#000000;stroke-linecap:square;stroke-linejoin:miter;stroke-width:0.8;"/>
   </g>
   <g id="patch_6">
    <path d="M 57.6 41.472 
L 414.72 41.472 
" style="fill:none;stroke:#000000;stroke-linecap:square;stroke-linejoin:miter;stroke-width:0.8;"/>
   </g>
   <g id="text_15">
    <!-- Population's average and best fitness -->
    <g transform="translate(123.529687 35.472)scale(0.12 -0.12)">
     <defs>
      <path d="M 19.671875 64.796875 
L 19.671875 37.40625 
L 32.078125 37.40625 
Q 38.96875 37.40625 42.71875 40.96875 
Q 46.484375 44.53125 46.484375 51.125 
Q 46.484375 57.671875 42.71875 61.234375 
Q 38.96875 64.796875 32.078125 64.796875 
z
M 9.8125 72.90625 
L 32.078125 72.90625 
Q 44.34375 72.90625 50.609375 67.359375 
Q 56.890625 61.8125 56.890625 51.125 
Q 56.890625 40.328125 50.609375 34.8125 
Q 44.34375 29.296875 32.078125 29.296875 
L 19.671875 29.296875 
L 19.671875 0 
L 9.8125 0 
z
" id="DejaVuSans-80"/>
      <path d="M 18.109375 8.203125 
L 18.109375 -20.796875 
L 9.078125 -20.796875 
L 9.078125 54.6875 
L 18.109375 54.6875 
L 18.109375 46.390625 
Q 20.953125 51.265625 25.265625 53.625 
Q 29.59375 56 35.59375 56 
Q 45.5625 56 51.78125 48.09375 
Q 58.015625 40.1875 58.015625 27.296875 
Q 58.015625 14.40625 51.78125 6.484375 
Q 45.5625 -1.421875 35.59375 -1.421875 
Q 29.59375 -1.421875 25.265625 0.953125 
Q 20.953125 3.328125 18.109375 8.203125 
z
M 48.6875 27.296875 
Q 48.6875 37.203125 44.609375 42.84375 
Q 40.53125 48.484375 33.40625 48.484375 
Q 26.265625 48.484375 22.1875 42.84375 
Q 18.109375 37.203125 18.109375 27.296875 
Q 18.109375 17.390625 22.1875 11.75 
Q 26.265625 6.109375 33.40625 6.109375 
Q 40.53125 6.109375 44.609375 11.75 
Q 48.6875 17.390625 48.6875 27.296875 
z
" id="DejaVuSans-112"/>
      <path d="M 8.5 21.578125 
L 8.5 54.6875 
L 17.484375 54.6875 
L 17.484375 21.921875 
Q 17.484375 14.15625 20.5 10.265625 
Q 23.53125 6.390625 29.59375 6.390625 
Q 36.859375 6.390625 41.078125 11.03125 
Q 45.3125 15.671875 45.3125 23.6875 
L 45.3125 54.6875 
L 54.296875 54.6875 
L 54.296875 0 
L 45.3125 0 
L 45.3125 8.40625 
Q 42.046875 3.421875 37.71875 1 
Q 33.40625 -1.421875 27.6875 -1.421875 
Q 18.265625 -1.421875 13.375 4.4375 
Q 8.5 10.296875 8.5 21.578125 
z
M 31.109375 56 
z
" id="DejaVuSans-117"/>
      <path d="M 9.421875 75.984375 
L 18.40625 75.984375 
L 18.40625 0 
L 9.421875 0 
z
" id="DejaVuSans-108"/>
      <path d="M 17.921875 72.90625 
L 17.921875 45.796875 
L 9.625 45.796875 
L 9.625 72.90625 
z
" id="DejaVuSans-39"/>
      <path id="DejaVuSans-32"/>
      <path d="M 2.984375 54.6875 
L 12.5 54.6875 
L 29.59375 8.796875 
L 46.6875 54.6875 
L 56.203125 54.6875 
L 35.6875 0 
L 23.484375 0 
z
" id="DejaVuSans-118"/>
      <path d="M 45.40625 27.984375 
Q 45.40625 37.75 41.375 43.109375 
Q 37.359375 48.484375 30.078125 48.484375 
Q 22.859375 48.484375 18.828125 43.109375 
Q 14.796875 37.75 14.796875 27.984375 
Q 14.796875 18.265625 18.828125 12.890625 
Q 22.859375 7.515625 30.078125 7.515625 
Q 37.359375 7.515625 41.375 12.890625 
Q 45.40625 18.265625 45.40625 27.984375 
z
M 54.390625 6.78125 
Q 54.390625 -7.171875 48.1875 -13.984375 
Q 42 -20.796875 29.203125 -20.796875 
Q 24.46875 -20.796875 20.265625 -20.09375 
Q 16.0625 -19.390625 12.109375 -17.921875 
L 12.109375 -9.1875 
Q 16.0625 -11.328125 19.921875 -12.34375 
Q 23.78125 -13.375 27.78125 -13.375 
Q 36.625 -13.375 41.015625 -8.765625 
Q 45.40625 -4.15625 45.40625 5.171875 
L 45.40625 9.625 
Q 42.625 4.78125 38.28125 2.390625 
Q 33.9375 0 27.875 0 
Q 17.828125 0 11.671875 7.65625 
Q 5.515625 15.328125 5.515625 27.984375 
Q 5.515625 40.671875 11.671875 48.328125 
Q 17.828125 56 27.875 56 
Q 33.9375 56 38.28125 53.609375 
Q 42.625 51.21875 45.40625 46.390625 
L 45.40625 54.6875 
L 54.390625 54.6875 
z
" id="DejaVuSans-103"/>
      <path d="M 45.40625 46.390625 
L 45.40625 75.984375 
L 54.390625 75.984375 
L 54.390625 0 
L 45.40625 0 
L 45.40625 8.203125 
Q 42.578125 3.328125 38.25 0.953125 
Q 33.9375 -1.421875 27.875 -1.421875 
Q 17.96875 -1.421875 11.734375 6.484375 
Q 5.515625 14.40625 5.515625 27.296875 
Q 5.515625 40.1875 11.734375 48.09375 
Q 17.96875 56 27.875 56 
Q 33.9375 56 38.25 53.625 
Q 42.578125 51.265625 45.40625 46.390625 
z
M 14.796875 27.296875 
Q 14.796875 17.390625 18.875 11.75 
Q 22.953125 6.109375 30.078125 6.109375 
Q 37.203125 6.109375 41.296875 11.75 
Q 45.40625 17.390625 45.40625 27.296875 
Q 45.40625 37.203125 41.296875 42.84375 
Q 37.203125 48.484375 30.078125 48.484375 
Q 22.953125 48.484375 18.875 42.84375 
Q 14.796875 37.203125 14.796875 27.296875 
z
" id="DejaVuSans-100"/>
      <path d="M 48.6875 27.296875 
Q 48.6875 37.203125 44.609375 42.84375 
Q 40.53125 48.484375 33.40625 48.484375 
Q 26.265625 48.484375 22.1875 42.84375 
Q 18.109375 37.203125 18.109375 27.296875 
Q 18.109375 17.390625 22.1875 11.75 
Q 26.265625 6.109375 33.40625 6.109375 
Q 40.53125 6.109375 44.609375 11.75 
Q 48.6875 17.390625 48.6875 27.296875 
z
M 18.109375 46.390625 
Q 20.953125 51.265625 25.265625 53.625 
Q 29.59375 56 35.59375 56 
Q 45.5625 56 51.78125 48.09375 
Q 58.015625 40.1875 58.015625 27.296875 
Q 58.015625 14.40625 51.78125 6.484375 
Q 45.5625 -1.421875 35.59375 -1.421875 
Q 29.59375 -1.421875 25.265625 0.953125 
Q 20.953125 3.328125 18.109375 8.203125 
L 18.109375 0 
L 9.078125 0 
L 9.078125 75.984375 
L 18.109375 75.984375 
z
" id="DejaVuSans-98"/>
      <path d="M 37.109375 75.984375 
L 37.109375 68.5 
L 28.515625 68.5 
Q 23.6875 68.5 21.796875 66.546875 
Q 19.921875 64.59375 19.921875 59.515625 
L 19.921875 54.6875 
L 34.71875 54.6875 
L 34.71875 47.703125 
L 19.921875 47.703125 
L 19.921875 0 
L 10.890625 0 
L 10.890625 47.703125 
L 2.296875 47.703125 
L 2.296875 54.6875 
L 10.890625 54.6875 
L 10.890625 58.5 
Q 10.890625 67.625 15.140625 71.796875 
Q 19.390625 75.984375 28.609375 75.984375 
z
" id="DejaVuSans-102"/>
     </defs>
     <use xlink:href="#DejaVuSans-80"/>
     <use x="56.677734" xlink:href="#DejaVuSans-111"/>
     <use x="117.859375" xlink:href="#DejaVuSans-112"/>
     <use x="181.335938" xlink:href="#DejaVuSans-117"/>
     <use x="244.714844" xlink:href="#DejaVuSans-108"/>
     <use x="272.498047" xlink:href="#DejaVuSans-97"/>
     <use x="333.777344" xlink:href="#DejaVuSans-116"/>
     <use x="372.986328" xlink:href="#DejaVuSans-105"/>
     <use x="400.769531" xlink:href="#DejaVuSans-111"/>
     <use x="461.951172" xlink:href="#DejaVuSans-110"/>
     <use x="525.330078" xlink:href="#DejaVuSans-39"/>
     <use x="552.820312" xlink:href="#DejaVuSans-115"/>
     <use x="604.919922" xlink:href="#DejaVuSans-32"/>
     <use x="636.707031" xlink:href="#DejaVuSans-97"/>
     <use x="697.986328" xlink:href="#DejaVuSans-118"/>
     <use x="757.166016" xlink:href="#DejaVuSans-101"/>
     <use x="818.689453" xlink:href="#DejaVuSans-114"/>
     <use x="859.802734" xlink:href="#DejaVuSans-97"/>
     <use x="921.082031" xlink:href="#DejaVuSans-103"/>
     <use x="984.558594" xlink:href="#DejaVuSans-101"/>
     <use x="1046.082031" xlink:href="#DejaVuSans-32"/>
     <use x="1077.869141" xlink:href="#DejaVuSans-97"/>
     <use x="1139.148438" xlink:href="#DejaVuSans-110"/>
     <use x="1202.527344" xlink:href="#DejaVuSans-100"/>
     <use x="1266.003906" xlink:href="#DejaVuSans-32"/>
     <use x="1297.791016" xlink:href="#DejaVuSans-98"/>
     <use x="1361.267578" xlink:href="#DejaVuSans-101"/>
     <use x="1422.791016" xlink:href="#DejaVuSans-115"/>
     <use x="1474.890625" xlink:href="#DejaVuSans-116"/>
     <use x="1514.099609" xlink:href="#DejaVuSans-32"/>
     <use x="1545.886719" xlink:href="#DejaVuSans-102"/>
     <use x="1581.091797" xlink:href="#DejaVuSans-105"/>
     <use x="1608.875" xlink:href="#DejaVuSans-116"/>
     <use x="1648.083984" xlink:href="#DejaVuSans-110"/>
     <use x="1711.462891" xlink:href="#DejaVuSans-101"/>
     <use x="1772.986328" xlink:href="#DejaVuSans-115"/>
     <use x="1825.085938" xlink:href="#DejaVuSans-115"/>
    </g>
   </g>
   <g id="legend_1">
    <g id="patch_7">
     <path d="M 64.6 108.1845 
L 137.540625 108.1845 
Q 139.540625 108.1845 139.540625 106.1845 
L 139.540625 48.472 
Q 139.540625 46.472 137.540625 46.472 
L 64.6 46.472 
Q 62.6 46.472 62.6 48.472 
L 62.6 106.1845 
Q 62.6 108.1845 64.6 108.1845 
z
" style="fill:#ffffff;opacity:0.8;stroke:#cccccc;stroke-linejoin:miter;"/>
    </g>
    <g id="line2d_29">
     <path d="M 66.6 54.570438 
L 86.6 54.570438 
" style="fill:none;stroke:#0000ff;stroke-linecap:square;stroke-width:1.5;"/>
    </g>
    <g id="line2d_30"/>
    <g id="text_16">
     <!-- average -->
     <g transform="translate(94.6 58.070438)scale(0.1 -0.1)">
      <use xlink:href="#DejaVuSans-97"/>
      <use x="61.279297" xlink:href="#DejaVuSans-118"/>
      <use x="120.458984" xlink:href="#DejaVuSans-101"/>
      <use x="181.982422" xlink:href="#DejaVuSans-114"/>
      <use x="223.095703" xlink:href="#DejaVuSans-97"/>
      <use x="284.375" xlink:href="#DejaVuSans-103"/>
      <use x="347.851562" xlink:href="#DejaVuSans-101"/>
     </g>
    </g>
    <g id="line2d_31">
     <path d="M 66.6 69.248563 
L 86.6 69.248563 
" style="fill:none;stroke:#008000;stroke-dasharray:9.6,2.4,1.5,2.4;stroke-dashoffset:0;stroke-width:1.5;"/>
    </g>
    <g id="line2d_32"/>
    <g id="text_17">
     <!-- -1 sd -->
     <g transform="translate(94.6 72.748563)scale(0.1 -0.1)">
      <defs>
       <path d="M 4.890625 31.390625 
L 31.203125 31.390625 
L 31.203125 23.390625 
L 4.890625 23.390625 
z
" id="DejaVuSans-45"/>
      </defs>
      <use xlink:href="#DejaVuSans-45"/>
      <use x="36.083984" xlink:href="#DejaVuSans-49"/>
      <use x="99.707031" xlink:href="#DejaVuSans-32"/>
      <use x="131.494141" xlink:href="#DejaVuSans-115"/>
      <use x="183.59375" xlink:href="#DejaVuSans-100"/>
     </g>
    </g>
    <g id="line2d_33">
     <path d="M 66.6 83.926688 
L 86.6 83.926688 
" style="fill:none;stroke:#008000;stroke-dasharray:9.6,2.4,1.5,2.4;stroke-dashoffset:0;stroke-width:1.5;"/>
    </g>
    <g id="line2d_34"/>
    <g id="text_18">
     <!-- +1 sd -->
     <g transform="translate(94.6 87.426688)scale(0.1 -0.1)">
      <defs>
       <path d="M 46 62.703125 
L 46 35.5 
L 73.1875 35.5 
L 73.1875 27.203125 
L 46 27.203125 
L 46 0 
L 37.796875 0 
L 37.796875 27.203125 
L 10.59375 27.203125 
L 10.59375 35.5 
L 37.796875 35.5 
L 37.796875 62.703125 
z
" id="DejaVuSans-43"/>
      </defs>
      <use xlink:href="#DejaVuSans-43"/>
      <use x="83.789062" xlink:href="#DejaVuSans-49"/>
      <use x="147.412109" xlink:href="#DejaVuSans-32"/>
      <use x="179.199219" xlink:href="#DejaVuSans-115"/>
      <use x="231.298828" xlink:href="#DejaVuSans-100"/>
     </g>
    </g>
    <g id="line2d_35">
     <path d="M 66.6 98.604813 
L 86.6 98.604813 
" style="fill:none;stroke:#ff0000;stroke-linecap:square;stroke-width:1.5;"/>
    </g>
    <g id="line2d_36"/>
    <g id="text_19">
     <!-- best -->
     <g transform="translate(94.6 102.104813)scale(0.1 -0.1)">
      <use xlink:href="#DejaVuSans-98"/>
      <use x="63.476562" xlink:href="#DejaVuSans-101"/>
      <use x="125" xlink:href="#DejaVuSans-115"/>
      <use x="177.099609" xlink:href="#DejaVuSans-116"/>
     </g>
    </g>
   </g>
  </g>
 </g>
 <defs>
  <clipPath id="p048683ea0b">
   <rect height="266.112" width="357.12" x="57.6" y="41.472"/>
  </clipPath>
 </defs>
</svg>
